G04 #@! TF.GenerationSoftware,KiCad,Pcbnew,5.1.2-f72e74a~84~ubuntu18.04.1*
G04 #@! TF.CreationDate,2019-05-09T21:42:28-06:00*
G04 #@! TF.ProjectId,rfboard,7266626f-6172-4642-9e6b-696361645f70,rev?*
G04 #@! TF.SameCoordinates,Original*
G04 #@! TF.FileFunction,Paste,Top*
G04 #@! TF.FilePolarity,Positive*
%FSLAX46Y46*%
G04 Gerber Fmt 4.6, Leading zero omitted, Abs format (unit mm)*
G04 Created by KiCad (PCBNEW 5.1.2-f72e74a~84~ubuntu18.04.1) date 2019-05-09 21:42:28*
%MOMM*%
%LPD*%
G04 APERTURE LIST*
%ADD10R,1.651000X0.998220*%
%ADD11R,0.800000X0.800000*%
%ADD12R,0.450000X1.350000*%
%ADD13R,1.500000X1.550000*%
%ADD14R,0.558800X1.270000*%
%ADD15R,1.270000X0.558800*%
%ADD16R,0.600000X1.140000*%
%ADD17R,0.750000X0.800000*%
%ADD18R,1.250000X1.000000*%
%ADD19R,0.500000X0.900000*%
%ADD20R,0.400000X0.650000*%
%ADD21R,0.998220X0.899160*%
%ADD22R,0.900000X0.500000*%
%ADD23C,0.100000*%
%ADD24C,0.875000*%
G04 APERTURE END LIST*
D10*
X110424440Y-137600000D03*
X110424440Y-140795320D03*
X115575560Y-140795320D03*
X115575560Y-137600000D03*
D11*
X125200000Y-147000000D03*
X123600000Y-147000000D03*
D12*
X115300000Y-131975000D03*
X114650000Y-131975000D03*
X114000000Y-131975000D03*
X113350000Y-131975000D03*
X112700000Y-131975000D03*
D13*
X115000000Y-129300000D03*
X113000000Y-129300000D03*
X117050000Y-129300000D03*
X110950000Y-129300000D03*
D14*
X119400300Y-142808620D03*
X118600200Y-142808620D03*
X117800100Y-142808620D03*
X117000000Y-142808620D03*
X116202440Y-142808620D03*
X115402340Y-142808620D03*
X114602240Y-142808620D03*
X113802140Y-142808620D03*
D15*
X112308620Y-144302140D03*
X112308620Y-145102240D03*
X112308620Y-145902340D03*
X112308620Y-146702440D03*
X112308620Y-147500000D03*
X112308620Y-148300100D03*
X112308620Y-149100200D03*
X112308620Y-149900300D03*
D14*
X113802140Y-151393820D03*
X114602240Y-151393820D03*
X115402340Y-151393820D03*
X116202440Y-151393820D03*
X117000000Y-151393820D03*
X117800100Y-151393820D03*
X118600200Y-151393820D03*
X119400300Y-151393820D03*
D15*
X120893820Y-149900300D03*
X120893820Y-149100200D03*
X120893820Y-148300100D03*
X120893820Y-147500000D03*
X120893820Y-146702440D03*
X120893820Y-145902340D03*
X120893820Y-145102240D03*
X120893820Y-144302140D03*
D16*
X119650000Y-137760000D03*
X118700000Y-137760000D03*
X117750000Y-137760000D03*
X117750000Y-140040000D03*
X119650000Y-140040000D03*
D17*
X110900000Y-134150000D03*
X110900000Y-135650000D03*
X112300000Y-134150000D03*
X112300000Y-135650000D03*
D18*
X113900000Y-135900000D03*
X113900000Y-133900000D03*
D19*
X125200000Y-148400000D03*
X123700000Y-148400000D03*
D20*
X122750000Y-137550000D03*
X121450000Y-137550000D03*
X122100000Y-137550000D03*
X121450000Y-139450000D03*
X122750000Y-139450000D03*
D21*
X123452440Y-140950220D03*
X123452440Y-145049780D03*
X125047560Y-145049780D03*
X125047560Y-140950220D03*
D22*
X110000000Y-153750000D03*
X110000000Y-155250000D03*
X111500000Y-153750000D03*
X111500000Y-155250000D03*
D23*
G36*
X110777691Y-142776053D02*
G01*
X110798926Y-142779203D01*
X110819750Y-142784419D01*
X110839962Y-142791651D01*
X110859368Y-142800830D01*
X110877781Y-142811866D01*
X110895024Y-142824654D01*
X110910930Y-142839070D01*
X110925346Y-142854976D01*
X110938134Y-142872219D01*
X110949170Y-142890632D01*
X110958349Y-142910038D01*
X110965581Y-142930250D01*
X110970797Y-142951074D01*
X110973947Y-142972309D01*
X110975000Y-142993750D01*
X110975000Y-143431250D01*
X110973947Y-143452691D01*
X110970797Y-143473926D01*
X110965581Y-143494750D01*
X110958349Y-143514962D01*
X110949170Y-143534368D01*
X110938134Y-143552781D01*
X110925346Y-143570024D01*
X110910930Y-143585930D01*
X110895024Y-143600346D01*
X110877781Y-143613134D01*
X110859368Y-143624170D01*
X110839962Y-143633349D01*
X110819750Y-143640581D01*
X110798926Y-143645797D01*
X110777691Y-143648947D01*
X110756250Y-143650000D01*
X110243750Y-143650000D01*
X110222309Y-143648947D01*
X110201074Y-143645797D01*
X110180250Y-143640581D01*
X110160038Y-143633349D01*
X110140632Y-143624170D01*
X110122219Y-143613134D01*
X110104976Y-143600346D01*
X110089070Y-143585930D01*
X110074654Y-143570024D01*
X110061866Y-143552781D01*
X110050830Y-143534368D01*
X110041651Y-143514962D01*
X110034419Y-143494750D01*
X110029203Y-143473926D01*
X110026053Y-143452691D01*
X110025000Y-143431250D01*
X110025000Y-142993750D01*
X110026053Y-142972309D01*
X110029203Y-142951074D01*
X110034419Y-142930250D01*
X110041651Y-142910038D01*
X110050830Y-142890632D01*
X110061866Y-142872219D01*
X110074654Y-142854976D01*
X110089070Y-142839070D01*
X110104976Y-142824654D01*
X110122219Y-142811866D01*
X110140632Y-142800830D01*
X110160038Y-142791651D01*
X110180250Y-142784419D01*
X110201074Y-142779203D01*
X110222309Y-142776053D01*
X110243750Y-142775000D01*
X110756250Y-142775000D01*
X110777691Y-142776053D01*
X110777691Y-142776053D01*
G37*
D24*
X110500000Y-143212500D03*
D23*
G36*
X110777691Y-144351053D02*
G01*
X110798926Y-144354203D01*
X110819750Y-144359419D01*
X110839962Y-144366651D01*
X110859368Y-144375830D01*
X110877781Y-144386866D01*
X110895024Y-144399654D01*
X110910930Y-144414070D01*
X110925346Y-144429976D01*
X110938134Y-144447219D01*
X110949170Y-144465632D01*
X110958349Y-144485038D01*
X110965581Y-144505250D01*
X110970797Y-144526074D01*
X110973947Y-144547309D01*
X110975000Y-144568750D01*
X110975000Y-145006250D01*
X110973947Y-145027691D01*
X110970797Y-145048926D01*
X110965581Y-145069750D01*
X110958349Y-145089962D01*
X110949170Y-145109368D01*
X110938134Y-145127781D01*
X110925346Y-145145024D01*
X110910930Y-145160930D01*
X110895024Y-145175346D01*
X110877781Y-145188134D01*
X110859368Y-145199170D01*
X110839962Y-145208349D01*
X110819750Y-145215581D01*
X110798926Y-145220797D01*
X110777691Y-145223947D01*
X110756250Y-145225000D01*
X110243750Y-145225000D01*
X110222309Y-145223947D01*
X110201074Y-145220797D01*
X110180250Y-145215581D01*
X110160038Y-145208349D01*
X110140632Y-145199170D01*
X110122219Y-145188134D01*
X110104976Y-145175346D01*
X110089070Y-145160930D01*
X110074654Y-145145024D01*
X110061866Y-145127781D01*
X110050830Y-145109368D01*
X110041651Y-145089962D01*
X110034419Y-145069750D01*
X110029203Y-145048926D01*
X110026053Y-145027691D01*
X110025000Y-145006250D01*
X110025000Y-144568750D01*
X110026053Y-144547309D01*
X110029203Y-144526074D01*
X110034419Y-144505250D01*
X110041651Y-144485038D01*
X110050830Y-144465632D01*
X110061866Y-144447219D01*
X110074654Y-144429976D01*
X110089070Y-144414070D01*
X110104976Y-144399654D01*
X110122219Y-144386866D01*
X110140632Y-144375830D01*
X110160038Y-144366651D01*
X110180250Y-144359419D01*
X110201074Y-144354203D01*
X110222309Y-144351053D01*
X110243750Y-144350000D01*
X110756250Y-144350000D01*
X110777691Y-144351053D01*
X110777691Y-144351053D01*
G37*
D24*
X110500000Y-144787500D03*
D23*
G36*
X119952691Y-154526053D02*
G01*
X119973926Y-154529203D01*
X119994750Y-154534419D01*
X120014962Y-154541651D01*
X120034368Y-154550830D01*
X120052781Y-154561866D01*
X120070024Y-154574654D01*
X120085930Y-154589070D01*
X120100346Y-154604976D01*
X120113134Y-154622219D01*
X120124170Y-154640632D01*
X120133349Y-154660038D01*
X120140581Y-154680250D01*
X120145797Y-154701074D01*
X120148947Y-154722309D01*
X120150000Y-154743750D01*
X120150000Y-155256250D01*
X120148947Y-155277691D01*
X120145797Y-155298926D01*
X120140581Y-155319750D01*
X120133349Y-155339962D01*
X120124170Y-155359368D01*
X120113134Y-155377781D01*
X120100346Y-155395024D01*
X120085930Y-155410930D01*
X120070024Y-155425346D01*
X120052781Y-155438134D01*
X120034368Y-155449170D01*
X120014962Y-155458349D01*
X119994750Y-155465581D01*
X119973926Y-155470797D01*
X119952691Y-155473947D01*
X119931250Y-155475000D01*
X119493750Y-155475000D01*
X119472309Y-155473947D01*
X119451074Y-155470797D01*
X119430250Y-155465581D01*
X119410038Y-155458349D01*
X119390632Y-155449170D01*
X119372219Y-155438134D01*
X119354976Y-155425346D01*
X119339070Y-155410930D01*
X119324654Y-155395024D01*
X119311866Y-155377781D01*
X119300830Y-155359368D01*
X119291651Y-155339962D01*
X119284419Y-155319750D01*
X119279203Y-155298926D01*
X119276053Y-155277691D01*
X119275000Y-155256250D01*
X119275000Y-154743750D01*
X119276053Y-154722309D01*
X119279203Y-154701074D01*
X119284419Y-154680250D01*
X119291651Y-154660038D01*
X119300830Y-154640632D01*
X119311866Y-154622219D01*
X119324654Y-154604976D01*
X119339070Y-154589070D01*
X119354976Y-154574654D01*
X119372219Y-154561866D01*
X119390632Y-154550830D01*
X119410038Y-154541651D01*
X119430250Y-154534419D01*
X119451074Y-154529203D01*
X119472309Y-154526053D01*
X119493750Y-154525000D01*
X119931250Y-154525000D01*
X119952691Y-154526053D01*
X119952691Y-154526053D01*
G37*
D24*
X119712500Y-155000000D03*
D23*
G36*
X121527691Y-154526053D02*
G01*
X121548926Y-154529203D01*
X121569750Y-154534419D01*
X121589962Y-154541651D01*
X121609368Y-154550830D01*
X121627781Y-154561866D01*
X121645024Y-154574654D01*
X121660930Y-154589070D01*
X121675346Y-154604976D01*
X121688134Y-154622219D01*
X121699170Y-154640632D01*
X121708349Y-154660038D01*
X121715581Y-154680250D01*
X121720797Y-154701074D01*
X121723947Y-154722309D01*
X121725000Y-154743750D01*
X121725000Y-155256250D01*
X121723947Y-155277691D01*
X121720797Y-155298926D01*
X121715581Y-155319750D01*
X121708349Y-155339962D01*
X121699170Y-155359368D01*
X121688134Y-155377781D01*
X121675346Y-155395024D01*
X121660930Y-155410930D01*
X121645024Y-155425346D01*
X121627781Y-155438134D01*
X121609368Y-155449170D01*
X121589962Y-155458349D01*
X121569750Y-155465581D01*
X121548926Y-155470797D01*
X121527691Y-155473947D01*
X121506250Y-155475000D01*
X121068750Y-155475000D01*
X121047309Y-155473947D01*
X121026074Y-155470797D01*
X121005250Y-155465581D01*
X120985038Y-155458349D01*
X120965632Y-155449170D01*
X120947219Y-155438134D01*
X120929976Y-155425346D01*
X120914070Y-155410930D01*
X120899654Y-155395024D01*
X120886866Y-155377781D01*
X120875830Y-155359368D01*
X120866651Y-155339962D01*
X120859419Y-155319750D01*
X120854203Y-155298926D01*
X120851053Y-155277691D01*
X120850000Y-155256250D01*
X120850000Y-154743750D01*
X120851053Y-154722309D01*
X120854203Y-154701074D01*
X120859419Y-154680250D01*
X120866651Y-154660038D01*
X120875830Y-154640632D01*
X120886866Y-154622219D01*
X120899654Y-154604976D01*
X120914070Y-154589070D01*
X120929976Y-154574654D01*
X120947219Y-154561866D01*
X120965632Y-154550830D01*
X120985038Y-154541651D01*
X121005250Y-154534419D01*
X121026074Y-154529203D01*
X121047309Y-154526053D01*
X121068750Y-154525000D01*
X121506250Y-154525000D01*
X121527691Y-154526053D01*
X121527691Y-154526053D01*
G37*
D24*
X121287500Y-155000000D03*
M02*
