G04 #@! TF.GenerationSoftware,KiCad,Pcbnew,5.1.4-e60b266~84~ubuntu18.04.1*
G04 #@! TF.CreationDate,2019-09-28T16:56:38-06:00*
G04 #@! TF.ProjectId,rfboard,7266626f-6172-4642-9e6b-696361645f70,rev?*
G04 #@! TF.SameCoordinates,Original*
G04 #@! TF.FileFunction,Paste,Top*
G04 #@! TF.FilePolarity,Positive*
%FSLAX46Y46*%
G04 Gerber Fmt 4.6, Leading zero omitted, Abs format (unit mm)*
G04 Created by KiCad (PCBNEW 5.1.4-e60b266~84~ubuntu18.04.1) date 2019-09-28 16:56:38*
%MOMM*%
%LPD*%
G04 APERTURE LIST*
%ADD10R,1.270000X0.558800*%
%ADD11R,0.558800X1.270000*%
%ADD12C,0.100000*%
%ADD13C,0.875000*%
%ADD14R,0.998220X1.651000*%
%ADD15R,0.320000X1.080000*%
%ADD16R,1.500000X1.550000*%
%ADD17R,0.600000X1.140000*%
%ADD18R,0.998220X0.899160*%
%ADD19R,0.400000X0.650000*%
%ADD20C,0.975000*%
G04 APERTURE END LIST*
D10*
X107407400Y-110800920D03*
X107407400Y-111601020D03*
X107407400Y-112401120D03*
X107407400Y-113201220D03*
X107407400Y-113998780D03*
X107407400Y-114798880D03*
X107407400Y-115598980D03*
X107407400Y-116399080D03*
D11*
X108900920Y-117892600D03*
X109701020Y-117892600D03*
X110501120Y-117892600D03*
X111301220Y-117892600D03*
X112098780Y-117892600D03*
X112898880Y-117892600D03*
X113698980Y-117892600D03*
X114499080Y-117892600D03*
D10*
X115992600Y-116399080D03*
X115992600Y-115598980D03*
X115992600Y-114798880D03*
X115992600Y-113998780D03*
X115992600Y-113201220D03*
X115992600Y-112401120D03*
X115992600Y-111601020D03*
X115992600Y-110800920D03*
D11*
X114499080Y-109307400D03*
X113698980Y-109307400D03*
X112898880Y-109307400D03*
X112098780Y-109307400D03*
X111301220Y-109307400D03*
X110501120Y-109307400D03*
X109701020Y-109307400D03*
X108900920Y-109307400D03*
D12*
G36*
X110577691Y-105451053D02*
G01*
X110598926Y-105454203D01*
X110619750Y-105459419D01*
X110639962Y-105466651D01*
X110659368Y-105475830D01*
X110677781Y-105486866D01*
X110695024Y-105499654D01*
X110710930Y-105514070D01*
X110725346Y-105529976D01*
X110738134Y-105547219D01*
X110749170Y-105565632D01*
X110758349Y-105585038D01*
X110765581Y-105605250D01*
X110770797Y-105626074D01*
X110773947Y-105647309D01*
X110775000Y-105668750D01*
X110775000Y-106106250D01*
X110773947Y-106127691D01*
X110770797Y-106148926D01*
X110765581Y-106169750D01*
X110758349Y-106189962D01*
X110749170Y-106209368D01*
X110738134Y-106227781D01*
X110725346Y-106245024D01*
X110710930Y-106260930D01*
X110695024Y-106275346D01*
X110677781Y-106288134D01*
X110659368Y-106299170D01*
X110639962Y-106308349D01*
X110619750Y-106315581D01*
X110598926Y-106320797D01*
X110577691Y-106323947D01*
X110556250Y-106325000D01*
X110043750Y-106325000D01*
X110022309Y-106323947D01*
X110001074Y-106320797D01*
X109980250Y-106315581D01*
X109960038Y-106308349D01*
X109940632Y-106299170D01*
X109922219Y-106288134D01*
X109904976Y-106275346D01*
X109889070Y-106260930D01*
X109874654Y-106245024D01*
X109861866Y-106227781D01*
X109850830Y-106209368D01*
X109841651Y-106189962D01*
X109834419Y-106169750D01*
X109829203Y-106148926D01*
X109826053Y-106127691D01*
X109825000Y-106106250D01*
X109825000Y-105668750D01*
X109826053Y-105647309D01*
X109829203Y-105626074D01*
X109834419Y-105605250D01*
X109841651Y-105585038D01*
X109850830Y-105565632D01*
X109861866Y-105547219D01*
X109874654Y-105529976D01*
X109889070Y-105514070D01*
X109904976Y-105499654D01*
X109922219Y-105486866D01*
X109940632Y-105475830D01*
X109960038Y-105466651D01*
X109980250Y-105459419D01*
X110001074Y-105454203D01*
X110022309Y-105451053D01*
X110043750Y-105450000D01*
X110556250Y-105450000D01*
X110577691Y-105451053D01*
X110577691Y-105451053D01*
G37*
D13*
X110300000Y-105887500D03*
D12*
G36*
X110577691Y-103876053D02*
G01*
X110598926Y-103879203D01*
X110619750Y-103884419D01*
X110639962Y-103891651D01*
X110659368Y-103900830D01*
X110677781Y-103911866D01*
X110695024Y-103924654D01*
X110710930Y-103939070D01*
X110725346Y-103954976D01*
X110738134Y-103972219D01*
X110749170Y-103990632D01*
X110758349Y-104010038D01*
X110765581Y-104030250D01*
X110770797Y-104051074D01*
X110773947Y-104072309D01*
X110775000Y-104093750D01*
X110775000Y-104531250D01*
X110773947Y-104552691D01*
X110770797Y-104573926D01*
X110765581Y-104594750D01*
X110758349Y-104614962D01*
X110749170Y-104634368D01*
X110738134Y-104652781D01*
X110725346Y-104670024D01*
X110710930Y-104685930D01*
X110695024Y-104700346D01*
X110677781Y-104713134D01*
X110659368Y-104724170D01*
X110639962Y-104733349D01*
X110619750Y-104740581D01*
X110598926Y-104745797D01*
X110577691Y-104748947D01*
X110556250Y-104750000D01*
X110043750Y-104750000D01*
X110022309Y-104748947D01*
X110001074Y-104745797D01*
X109980250Y-104740581D01*
X109960038Y-104733349D01*
X109940632Y-104724170D01*
X109922219Y-104713134D01*
X109904976Y-104700346D01*
X109889070Y-104685930D01*
X109874654Y-104670024D01*
X109861866Y-104652781D01*
X109850830Y-104634368D01*
X109841651Y-104614962D01*
X109834419Y-104594750D01*
X109829203Y-104573926D01*
X109826053Y-104552691D01*
X109825000Y-104531250D01*
X109825000Y-104093750D01*
X109826053Y-104072309D01*
X109829203Y-104051074D01*
X109834419Y-104030250D01*
X109841651Y-104010038D01*
X109850830Y-103990632D01*
X109861866Y-103972219D01*
X109874654Y-103954976D01*
X109889070Y-103939070D01*
X109904976Y-103924654D01*
X109922219Y-103911866D01*
X109940632Y-103900830D01*
X109960038Y-103891651D01*
X109980250Y-103884419D01*
X110001074Y-103879203D01*
X110022309Y-103876053D01*
X110043750Y-103875000D01*
X110556250Y-103875000D01*
X110577691Y-103876053D01*
X110577691Y-103876053D01*
G37*
D13*
X110300000Y-104312500D03*
D12*
G36*
X102277691Y-100263553D02*
G01*
X102298926Y-100266703D01*
X102319750Y-100271919D01*
X102339962Y-100279151D01*
X102359368Y-100288330D01*
X102377781Y-100299366D01*
X102395024Y-100312154D01*
X102410930Y-100326570D01*
X102425346Y-100342476D01*
X102438134Y-100359719D01*
X102449170Y-100378132D01*
X102458349Y-100397538D01*
X102465581Y-100417750D01*
X102470797Y-100438574D01*
X102473947Y-100459809D01*
X102475000Y-100481250D01*
X102475000Y-100918750D01*
X102473947Y-100940191D01*
X102470797Y-100961426D01*
X102465581Y-100982250D01*
X102458349Y-101002462D01*
X102449170Y-101021868D01*
X102438134Y-101040281D01*
X102425346Y-101057524D01*
X102410930Y-101073430D01*
X102395024Y-101087846D01*
X102377781Y-101100634D01*
X102359368Y-101111670D01*
X102339962Y-101120849D01*
X102319750Y-101128081D01*
X102298926Y-101133297D01*
X102277691Y-101136447D01*
X102256250Y-101137500D01*
X101743750Y-101137500D01*
X101722309Y-101136447D01*
X101701074Y-101133297D01*
X101680250Y-101128081D01*
X101660038Y-101120849D01*
X101640632Y-101111670D01*
X101622219Y-101100634D01*
X101604976Y-101087846D01*
X101589070Y-101073430D01*
X101574654Y-101057524D01*
X101561866Y-101040281D01*
X101550830Y-101021868D01*
X101541651Y-101002462D01*
X101534419Y-100982250D01*
X101529203Y-100961426D01*
X101526053Y-100940191D01*
X101525000Y-100918750D01*
X101525000Y-100481250D01*
X101526053Y-100459809D01*
X101529203Y-100438574D01*
X101534419Y-100417750D01*
X101541651Y-100397538D01*
X101550830Y-100378132D01*
X101561866Y-100359719D01*
X101574654Y-100342476D01*
X101589070Y-100326570D01*
X101604976Y-100312154D01*
X101622219Y-100299366D01*
X101640632Y-100288330D01*
X101660038Y-100279151D01*
X101680250Y-100271919D01*
X101701074Y-100266703D01*
X101722309Y-100263553D01*
X101743750Y-100262500D01*
X102256250Y-100262500D01*
X102277691Y-100263553D01*
X102277691Y-100263553D01*
G37*
D13*
X102000000Y-100700000D03*
D12*
G36*
X102277691Y-101838553D02*
G01*
X102298926Y-101841703D01*
X102319750Y-101846919D01*
X102339962Y-101854151D01*
X102359368Y-101863330D01*
X102377781Y-101874366D01*
X102395024Y-101887154D01*
X102410930Y-101901570D01*
X102425346Y-101917476D01*
X102438134Y-101934719D01*
X102449170Y-101953132D01*
X102458349Y-101972538D01*
X102465581Y-101992750D01*
X102470797Y-102013574D01*
X102473947Y-102034809D01*
X102475000Y-102056250D01*
X102475000Y-102493750D01*
X102473947Y-102515191D01*
X102470797Y-102536426D01*
X102465581Y-102557250D01*
X102458349Y-102577462D01*
X102449170Y-102596868D01*
X102438134Y-102615281D01*
X102425346Y-102632524D01*
X102410930Y-102648430D01*
X102395024Y-102662846D01*
X102377781Y-102675634D01*
X102359368Y-102686670D01*
X102339962Y-102695849D01*
X102319750Y-102703081D01*
X102298926Y-102708297D01*
X102277691Y-102711447D01*
X102256250Y-102712500D01*
X101743750Y-102712500D01*
X101722309Y-102711447D01*
X101701074Y-102708297D01*
X101680250Y-102703081D01*
X101660038Y-102695849D01*
X101640632Y-102686670D01*
X101622219Y-102675634D01*
X101604976Y-102662846D01*
X101589070Y-102648430D01*
X101574654Y-102632524D01*
X101561866Y-102615281D01*
X101550830Y-102596868D01*
X101541651Y-102577462D01*
X101534419Y-102557250D01*
X101529203Y-102536426D01*
X101526053Y-102515191D01*
X101525000Y-102493750D01*
X101525000Y-102056250D01*
X101526053Y-102034809D01*
X101529203Y-102013574D01*
X101534419Y-101992750D01*
X101541651Y-101972538D01*
X101550830Y-101953132D01*
X101561866Y-101934719D01*
X101574654Y-101917476D01*
X101589070Y-101901570D01*
X101604976Y-101887154D01*
X101622219Y-101874366D01*
X101640632Y-101863330D01*
X101660038Y-101854151D01*
X101680250Y-101846919D01*
X101701074Y-101841703D01*
X101722309Y-101838553D01*
X101743750Y-101837500D01*
X102256250Y-101837500D01*
X102277691Y-101838553D01*
X102277691Y-101838553D01*
G37*
D13*
X102000000Y-102275000D03*
D12*
G36*
X106952691Y-107126053D02*
G01*
X106973926Y-107129203D01*
X106994750Y-107134419D01*
X107014962Y-107141651D01*
X107034368Y-107150830D01*
X107052781Y-107161866D01*
X107070024Y-107174654D01*
X107085930Y-107189070D01*
X107100346Y-107204976D01*
X107113134Y-107222219D01*
X107124170Y-107240632D01*
X107133349Y-107260038D01*
X107140581Y-107280250D01*
X107145797Y-107301074D01*
X107148947Y-107322309D01*
X107150000Y-107343750D01*
X107150000Y-107856250D01*
X107148947Y-107877691D01*
X107145797Y-107898926D01*
X107140581Y-107919750D01*
X107133349Y-107939962D01*
X107124170Y-107959368D01*
X107113134Y-107977781D01*
X107100346Y-107995024D01*
X107085930Y-108010930D01*
X107070024Y-108025346D01*
X107052781Y-108038134D01*
X107034368Y-108049170D01*
X107014962Y-108058349D01*
X106994750Y-108065581D01*
X106973926Y-108070797D01*
X106952691Y-108073947D01*
X106931250Y-108075000D01*
X106493750Y-108075000D01*
X106472309Y-108073947D01*
X106451074Y-108070797D01*
X106430250Y-108065581D01*
X106410038Y-108058349D01*
X106390632Y-108049170D01*
X106372219Y-108038134D01*
X106354976Y-108025346D01*
X106339070Y-108010930D01*
X106324654Y-107995024D01*
X106311866Y-107977781D01*
X106300830Y-107959368D01*
X106291651Y-107939962D01*
X106284419Y-107919750D01*
X106279203Y-107898926D01*
X106276053Y-107877691D01*
X106275000Y-107856250D01*
X106275000Y-107343750D01*
X106276053Y-107322309D01*
X106279203Y-107301074D01*
X106284419Y-107280250D01*
X106291651Y-107260038D01*
X106300830Y-107240632D01*
X106311866Y-107222219D01*
X106324654Y-107204976D01*
X106339070Y-107189070D01*
X106354976Y-107174654D01*
X106372219Y-107161866D01*
X106390632Y-107150830D01*
X106410038Y-107141651D01*
X106430250Y-107134419D01*
X106451074Y-107129203D01*
X106472309Y-107126053D01*
X106493750Y-107125000D01*
X106931250Y-107125000D01*
X106952691Y-107126053D01*
X106952691Y-107126053D01*
G37*
D13*
X106712500Y-107600000D03*
D12*
G36*
X108527691Y-107126053D02*
G01*
X108548926Y-107129203D01*
X108569750Y-107134419D01*
X108589962Y-107141651D01*
X108609368Y-107150830D01*
X108627781Y-107161866D01*
X108645024Y-107174654D01*
X108660930Y-107189070D01*
X108675346Y-107204976D01*
X108688134Y-107222219D01*
X108699170Y-107240632D01*
X108708349Y-107260038D01*
X108715581Y-107280250D01*
X108720797Y-107301074D01*
X108723947Y-107322309D01*
X108725000Y-107343750D01*
X108725000Y-107856250D01*
X108723947Y-107877691D01*
X108720797Y-107898926D01*
X108715581Y-107919750D01*
X108708349Y-107939962D01*
X108699170Y-107959368D01*
X108688134Y-107977781D01*
X108675346Y-107995024D01*
X108660930Y-108010930D01*
X108645024Y-108025346D01*
X108627781Y-108038134D01*
X108609368Y-108049170D01*
X108589962Y-108058349D01*
X108569750Y-108065581D01*
X108548926Y-108070797D01*
X108527691Y-108073947D01*
X108506250Y-108075000D01*
X108068750Y-108075000D01*
X108047309Y-108073947D01*
X108026074Y-108070797D01*
X108005250Y-108065581D01*
X107985038Y-108058349D01*
X107965632Y-108049170D01*
X107947219Y-108038134D01*
X107929976Y-108025346D01*
X107914070Y-108010930D01*
X107899654Y-107995024D01*
X107886866Y-107977781D01*
X107875830Y-107959368D01*
X107866651Y-107939962D01*
X107859419Y-107919750D01*
X107854203Y-107898926D01*
X107851053Y-107877691D01*
X107850000Y-107856250D01*
X107850000Y-107343750D01*
X107851053Y-107322309D01*
X107854203Y-107301074D01*
X107859419Y-107280250D01*
X107866651Y-107260038D01*
X107875830Y-107240632D01*
X107886866Y-107222219D01*
X107899654Y-107204976D01*
X107914070Y-107189070D01*
X107929976Y-107174654D01*
X107947219Y-107161866D01*
X107965632Y-107150830D01*
X107985038Y-107141651D01*
X108005250Y-107134419D01*
X108026074Y-107129203D01*
X108047309Y-107126053D01*
X108068750Y-107125000D01*
X108506250Y-107125000D01*
X108527691Y-107126053D01*
X108527691Y-107126053D01*
G37*
D13*
X108287500Y-107600000D03*
D12*
G36*
X118677691Y-116451053D02*
G01*
X118698926Y-116454203D01*
X118719750Y-116459419D01*
X118739962Y-116466651D01*
X118759368Y-116475830D01*
X118777781Y-116486866D01*
X118795024Y-116499654D01*
X118810930Y-116514070D01*
X118825346Y-116529976D01*
X118838134Y-116547219D01*
X118849170Y-116565632D01*
X118858349Y-116585038D01*
X118865581Y-116605250D01*
X118870797Y-116626074D01*
X118873947Y-116647309D01*
X118875000Y-116668750D01*
X118875000Y-117106250D01*
X118873947Y-117127691D01*
X118870797Y-117148926D01*
X118865581Y-117169750D01*
X118858349Y-117189962D01*
X118849170Y-117209368D01*
X118838134Y-117227781D01*
X118825346Y-117245024D01*
X118810930Y-117260930D01*
X118795024Y-117275346D01*
X118777781Y-117288134D01*
X118759368Y-117299170D01*
X118739962Y-117308349D01*
X118719750Y-117315581D01*
X118698926Y-117320797D01*
X118677691Y-117323947D01*
X118656250Y-117325000D01*
X118143750Y-117325000D01*
X118122309Y-117323947D01*
X118101074Y-117320797D01*
X118080250Y-117315581D01*
X118060038Y-117308349D01*
X118040632Y-117299170D01*
X118022219Y-117288134D01*
X118004976Y-117275346D01*
X117989070Y-117260930D01*
X117974654Y-117245024D01*
X117961866Y-117227781D01*
X117950830Y-117209368D01*
X117941651Y-117189962D01*
X117934419Y-117169750D01*
X117929203Y-117148926D01*
X117926053Y-117127691D01*
X117925000Y-117106250D01*
X117925000Y-116668750D01*
X117926053Y-116647309D01*
X117929203Y-116626074D01*
X117934419Y-116605250D01*
X117941651Y-116585038D01*
X117950830Y-116565632D01*
X117961866Y-116547219D01*
X117974654Y-116529976D01*
X117989070Y-116514070D01*
X118004976Y-116499654D01*
X118022219Y-116486866D01*
X118040632Y-116475830D01*
X118060038Y-116466651D01*
X118080250Y-116459419D01*
X118101074Y-116454203D01*
X118122309Y-116451053D01*
X118143750Y-116450000D01*
X118656250Y-116450000D01*
X118677691Y-116451053D01*
X118677691Y-116451053D01*
G37*
D13*
X118400000Y-116887500D03*
D12*
G36*
X118677691Y-114876053D02*
G01*
X118698926Y-114879203D01*
X118719750Y-114884419D01*
X118739962Y-114891651D01*
X118759368Y-114900830D01*
X118777781Y-114911866D01*
X118795024Y-114924654D01*
X118810930Y-114939070D01*
X118825346Y-114954976D01*
X118838134Y-114972219D01*
X118849170Y-114990632D01*
X118858349Y-115010038D01*
X118865581Y-115030250D01*
X118870797Y-115051074D01*
X118873947Y-115072309D01*
X118875000Y-115093750D01*
X118875000Y-115531250D01*
X118873947Y-115552691D01*
X118870797Y-115573926D01*
X118865581Y-115594750D01*
X118858349Y-115614962D01*
X118849170Y-115634368D01*
X118838134Y-115652781D01*
X118825346Y-115670024D01*
X118810930Y-115685930D01*
X118795024Y-115700346D01*
X118777781Y-115713134D01*
X118759368Y-115724170D01*
X118739962Y-115733349D01*
X118719750Y-115740581D01*
X118698926Y-115745797D01*
X118677691Y-115748947D01*
X118656250Y-115750000D01*
X118143750Y-115750000D01*
X118122309Y-115748947D01*
X118101074Y-115745797D01*
X118080250Y-115740581D01*
X118060038Y-115733349D01*
X118040632Y-115724170D01*
X118022219Y-115713134D01*
X118004976Y-115700346D01*
X117989070Y-115685930D01*
X117974654Y-115670024D01*
X117961866Y-115652781D01*
X117950830Y-115634368D01*
X117941651Y-115614962D01*
X117934419Y-115594750D01*
X117929203Y-115573926D01*
X117926053Y-115552691D01*
X117925000Y-115531250D01*
X117925000Y-115093750D01*
X117926053Y-115072309D01*
X117929203Y-115051074D01*
X117934419Y-115030250D01*
X117941651Y-115010038D01*
X117950830Y-114990632D01*
X117961866Y-114972219D01*
X117974654Y-114954976D01*
X117989070Y-114939070D01*
X118004976Y-114924654D01*
X118022219Y-114911866D01*
X118040632Y-114900830D01*
X118060038Y-114891651D01*
X118080250Y-114884419D01*
X118101074Y-114879203D01*
X118122309Y-114876053D01*
X118143750Y-114875000D01*
X118656250Y-114875000D01*
X118677691Y-114876053D01*
X118677691Y-114876053D01*
G37*
D13*
X118400000Y-115312500D03*
D12*
G36*
X120077691Y-121776053D02*
G01*
X120098926Y-121779203D01*
X120119750Y-121784419D01*
X120139962Y-121791651D01*
X120159368Y-121800830D01*
X120177781Y-121811866D01*
X120195024Y-121824654D01*
X120210930Y-121839070D01*
X120225346Y-121854976D01*
X120238134Y-121872219D01*
X120249170Y-121890632D01*
X120258349Y-121910038D01*
X120265581Y-121930250D01*
X120270797Y-121951074D01*
X120273947Y-121972309D01*
X120275000Y-121993750D01*
X120275000Y-122431250D01*
X120273947Y-122452691D01*
X120270797Y-122473926D01*
X120265581Y-122494750D01*
X120258349Y-122514962D01*
X120249170Y-122534368D01*
X120238134Y-122552781D01*
X120225346Y-122570024D01*
X120210930Y-122585930D01*
X120195024Y-122600346D01*
X120177781Y-122613134D01*
X120159368Y-122624170D01*
X120139962Y-122633349D01*
X120119750Y-122640581D01*
X120098926Y-122645797D01*
X120077691Y-122648947D01*
X120056250Y-122650000D01*
X119543750Y-122650000D01*
X119522309Y-122648947D01*
X119501074Y-122645797D01*
X119480250Y-122640581D01*
X119460038Y-122633349D01*
X119440632Y-122624170D01*
X119422219Y-122613134D01*
X119404976Y-122600346D01*
X119389070Y-122585930D01*
X119374654Y-122570024D01*
X119361866Y-122552781D01*
X119350830Y-122534368D01*
X119341651Y-122514962D01*
X119334419Y-122494750D01*
X119329203Y-122473926D01*
X119326053Y-122452691D01*
X119325000Y-122431250D01*
X119325000Y-121993750D01*
X119326053Y-121972309D01*
X119329203Y-121951074D01*
X119334419Y-121930250D01*
X119341651Y-121910038D01*
X119350830Y-121890632D01*
X119361866Y-121872219D01*
X119374654Y-121854976D01*
X119389070Y-121839070D01*
X119404976Y-121824654D01*
X119422219Y-121811866D01*
X119440632Y-121800830D01*
X119460038Y-121791651D01*
X119480250Y-121784419D01*
X119501074Y-121779203D01*
X119522309Y-121776053D01*
X119543750Y-121775000D01*
X120056250Y-121775000D01*
X120077691Y-121776053D01*
X120077691Y-121776053D01*
G37*
D13*
X119800000Y-122212500D03*
D12*
G36*
X120077691Y-123351053D02*
G01*
X120098926Y-123354203D01*
X120119750Y-123359419D01*
X120139962Y-123366651D01*
X120159368Y-123375830D01*
X120177781Y-123386866D01*
X120195024Y-123399654D01*
X120210930Y-123414070D01*
X120225346Y-123429976D01*
X120238134Y-123447219D01*
X120249170Y-123465632D01*
X120258349Y-123485038D01*
X120265581Y-123505250D01*
X120270797Y-123526074D01*
X120273947Y-123547309D01*
X120275000Y-123568750D01*
X120275000Y-124006250D01*
X120273947Y-124027691D01*
X120270797Y-124048926D01*
X120265581Y-124069750D01*
X120258349Y-124089962D01*
X120249170Y-124109368D01*
X120238134Y-124127781D01*
X120225346Y-124145024D01*
X120210930Y-124160930D01*
X120195024Y-124175346D01*
X120177781Y-124188134D01*
X120159368Y-124199170D01*
X120139962Y-124208349D01*
X120119750Y-124215581D01*
X120098926Y-124220797D01*
X120077691Y-124223947D01*
X120056250Y-124225000D01*
X119543750Y-124225000D01*
X119522309Y-124223947D01*
X119501074Y-124220797D01*
X119480250Y-124215581D01*
X119460038Y-124208349D01*
X119440632Y-124199170D01*
X119422219Y-124188134D01*
X119404976Y-124175346D01*
X119389070Y-124160930D01*
X119374654Y-124145024D01*
X119361866Y-124127781D01*
X119350830Y-124109368D01*
X119341651Y-124089962D01*
X119334419Y-124069750D01*
X119329203Y-124048926D01*
X119326053Y-124027691D01*
X119325000Y-124006250D01*
X119325000Y-123568750D01*
X119326053Y-123547309D01*
X119329203Y-123526074D01*
X119334419Y-123505250D01*
X119341651Y-123485038D01*
X119350830Y-123465632D01*
X119361866Y-123447219D01*
X119374654Y-123429976D01*
X119389070Y-123414070D01*
X119404976Y-123399654D01*
X119422219Y-123386866D01*
X119440632Y-123375830D01*
X119460038Y-123366651D01*
X119480250Y-123359419D01*
X119501074Y-123354203D01*
X119522309Y-123351053D01*
X119543750Y-123350000D01*
X120056250Y-123350000D01*
X120077691Y-123351053D01*
X120077691Y-123351053D01*
G37*
D13*
X119800000Y-123787500D03*
D14*
X120897660Y-99524440D03*
X117702340Y-99524440D03*
X117702340Y-104675560D03*
X120897660Y-104675560D03*
D15*
X107300000Y-97175000D03*
X106650000Y-97175000D03*
X106000000Y-97175000D03*
X105350000Y-97175000D03*
X104700000Y-97175000D03*
D16*
X107000000Y-94500000D03*
X105000000Y-94500000D03*
X109050000Y-94500000D03*
X102950000Y-94500000D03*
D12*
G36*
X118427691Y-123326053D02*
G01*
X118448926Y-123329203D01*
X118469750Y-123334419D01*
X118489962Y-123341651D01*
X118509368Y-123350830D01*
X118527781Y-123361866D01*
X118545024Y-123374654D01*
X118560930Y-123389070D01*
X118575346Y-123404976D01*
X118588134Y-123422219D01*
X118599170Y-123440632D01*
X118608349Y-123460038D01*
X118615581Y-123480250D01*
X118620797Y-123501074D01*
X118623947Y-123522309D01*
X118625000Y-123543750D01*
X118625000Y-124056250D01*
X118623947Y-124077691D01*
X118620797Y-124098926D01*
X118615581Y-124119750D01*
X118608349Y-124139962D01*
X118599170Y-124159368D01*
X118588134Y-124177781D01*
X118575346Y-124195024D01*
X118560930Y-124210930D01*
X118545024Y-124225346D01*
X118527781Y-124238134D01*
X118509368Y-124249170D01*
X118489962Y-124258349D01*
X118469750Y-124265581D01*
X118448926Y-124270797D01*
X118427691Y-124273947D01*
X118406250Y-124275000D01*
X117968750Y-124275000D01*
X117947309Y-124273947D01*
X117926074Y-124270797D01*
X117905250Y-124265581D01*
X117885038Y-124258349D01*
X117865632Y-124249170D01*
X117847219Y-124238134D01*
X117829976Y-124225346D01*
X117814070Y-124210930D01*
X117799654Y-124195024D01*
X117786866Y-124177781D01*
X117775830Y-124159368D01*
X117766651Y-124139962D01*
X117759419Y-124119750D01*
X117754203Y-124098926D01*
X117751053Y-124077691D01*
X117750000Y-124056250D01*
X117750000Y-123543750D01*
X117751053Y-123522309D01*
X117754203Y-123501074D01*
X117759419Y-123480250D01*
X117766651Y-123460038D01*
X117775830Y-123440632D01*
X117786866Y-123422219D01*
X117799654Y-123404976D01*
X117814070Y-123389070D01*
X117829976Y-123374654D01*
X117847219Y-123361866D01*
X117865632Y-123350830D01*
X117885038Y-123341651D01*
X117905250Y-123334419D01*
X117926074Y-123329203D01*
X117947309Y-123326053D01*
X117968750Y-123325000D01*
X118406250Y-123325000D01*
X118427691Y-123326053D01*
X118427691Y-123326053D01*
G37*
D13*
X118187500Y-123800000D03*
D12*
G36*
X116852691Y-123326053D02*
G01*
X116873926Y-123329203D01*
X116894750Y-123334419D01*
X116914962Y-123341651D01*
X116934368Y-123350830D01*
X116952781Y-123361866D01*
X116970024Y-123374654D01*
X116985930Y-123389070D01*
X117000346Y-123404976D01*
X117013134Y-123422219D01*
X117024170Y-123440632D01*
X117033349Y-123460038D01*
X117040581Y-123480250D01*
X117045797Y-123501074D01*
X117048947Y-123522309D01*
X117050000Y-123543750D01*
X117050000Y-124056250D01*
X117048947Y-124077691D01*
X117045797Y-124098926D01*
X117040581Y-124119750D01*
X117033349Y-124139962D01*
X117024170Y-124159368D01*
X117013134Y-124177781D01*
X117000346Y-124195024D01*
X116985930Y-124210930D01*
X116970024Y-124225346D01*
X116952781Y-124238134D01*
X116934368Y-124249170D01*
X116914962Y-124258349D01*
X116894750Y-124265581D01*
X116873926Y-124270797D01*
X116852691Y-124273947D01*
X116831250Y-124275000D01*
X116393750Y-124275000D01*
X116372309Y-124273947D01*
X116351074Y-124270797D01*
X116330250Y-124265581D01*
X116310038Y-124258349D01*
X116290632Y-124249170D01*
X116272219Y-124238134D01*
X116254976Y-124225346D01*
X116239070Y-124210930D01*
X116224654Y-124195024D01*
X116211866Y-124177781D01*
X116200830Y-124159368D01*
X116191651Y-124139962D01*
X116184419Y-124119750D01*
X116179203Y-124098926D01*
X116176053Y-124077691D01*
X116175000Y-124056250D01*
X116175000Y-123543750D01*
X116176053Y-123522309D01*
X116179203Y-123501074D01*
X116184419Y-123480250D01*
X116191651Y-123460038D01*
X116200830Y-123440632D01*
X116211866Y-123422219D01*
X116224654Y-123404976D01*
X116239070Y-123389070D01*
X116254976Y-123374654D01*
X116272219Y-123361866D01*
X116290632Y-123350830D01*
X116310038Y-123341651D01*
X116330250Y-123334419D01*
X116351074Y-123329203D01*
X116372309Y-123326053D01*
X116393750Y-123325000D01*
X116831250Y-123325000D01*
X116852691Y-123326053D01*
X116852691Y-123326053D01*
G37*
D13*
X116612500Y-123800000D03*
D12*
G36*
X115477691Y-104176053D02*
G01*
X115498926Y-104179203D01*
X115519750Y-104184419D01*
X115539962Y-104191651D01*
X115559368Y-104200830D01*
X115577781Y-104211866D01*
X115595024Y-104224654D01*
X115610930Y-104239070D01*
X115625346Y-104254976D01*
X115638134Y-104272219D01*
X115649170Y-104290632D01*
X115658349Y-104310038D01*
X115665581Y-104330250D01*
X115670797Y-104351074D01*
X115673947Y-104372309D01*
X115675000Y-104393750D01*
X115675000Y-104831250D01*
X115673947Y-104852691D01*
X115670797Y-104873926D01*
X115665581Y-104894750D01*
X115658349Y-104914962D01*
X115649170Y-104934368D01*
X115638134Y-104952781D01*
X115625346Y-104970024D01*
X115610930Y-104985930D01*
X115595024Y-105000346D01*
X115577781Y-105013134D01*
X115559368Y-105024170D01*
X115539962Y-105033349D01*
X115519750Y-105040581D01*
X115498926Y-105045797D01*
X115477691Y-105048947D01*
X115456250Y-105050000D01*
X114943750Y-105050000D01*
X114922309Y-105048947D01*
X114901074Y-105045797D01*
X114880250Y-105040581D01*
X114860038Y-105033349D01*
X114840632Y-105024170D01*
X114822219Y-105013134D01*
X114804976Y-105000346D01*
X114789070Y-104985930D01*
X114774654Y-104970024D01*
X114761866Y-104952781D01*
X114750830Y-104934368D01*
X114741651Y-104914962D01*
X114734419Y-104894750D01*
X114729203Y-104873926D01*
X114726053Y-104852691D01*
X114725000Y-104831250D01*
X114725000Y-104393750D01*
X114726053Y-104372309D01*
X114729203Y-104351074D01*
X114734419Y-104330250D01*
X114741651Y-104310038D01*
X114750830Y-104290632D01*
X114761866Y-104272219D01*
X114774654Y-104254976D01*
X114789070Y-104239070D01*
X114804976Y-104224654D01*
X114822219Y-104211866D01*
X114840632Y-104200830D01*
X114860038Y-104191651D01*
X114880250Y-104184419D01*
X114901074Y-104179203D01*
X114922309Y-104176053D01*
X114943750Y-104175000D01*
X115456250Y-104175000D01*
X115477691Y-104176053D01*
X115477691Y-104176053D01*
G37*
D13*
X115200000Y-104612500D03*
D12*
G36*
X115477691Y-105751053D02*
G01*
X115498926Y-105754203D01*
X115519750Y-105759419D01*
X115539962Y-105766651D01*
X115559368Y-105775830D01*
X115577781Y-105786866D01*
X115595024Y-105799654D01*
X115610930Y-105814070D01*
X115625346Y-105829976D01*
X115638134Y-105847219D01*
X115649170Y-105865632D01*
X115658349Y-105885038D01*
X115665581Y-105905250D01*
X115670797Y-105926074D01*
X115673947Y-105947309D01*
X115675000Y-105968750D01*
X115675000Y-106406250D01*
X115673947Y-106427691D01*
X115670797Y-106448926D01*
X115665581Y-106469750D01*
X115658349Y-106489962D01*
X115649170Y-106509368D01*
X115638134Y-106527781D01*
X115625346Y-106545024D01*
X115610930Y-106560930D01*
X115595024Y-106575346D01*
X115577781Y-106588134D01*
X115559368Y-106599170D01*
X115539962Y-106608349D01*
X115519750Y-106615581D01*
X115498926Y-106620797D01*
X115477691Y-106623947D01*
X115456250Y-106625000D01*
X114943750Y-106625000D01*
X114922309Y-106623947D01*
X114901074Y-106620797D01*
X114880250Y-106615581D01*
X114860038Y-106608349D01*
X114840632Y-106599170D01*
X114822219Y-106588134D01*
X114804976Y-106575346D01*
X114789070Y-106560930D01*
X114774654Y-106545024D01*
X114761866Y-106527781D01*
X114750830Y-106509368D01*
X114741651Y-106489962D01*
X114734419Y-106469750D01*
X114729203Y-106448926D01*
X114726053Y-106427691D01*
X114725000Y-106406250D01*
X114725000Y-105968750D01*
X114726053Y-105947309D01*
X114729203Y-105926074D01*
X114734419Y-105905250D01*
X114741651Y-105885038D01*
X114750830Y-105865632D01*
X114761866Y-105847219D01*
X114774654Y-105829976D01*
X114789070Y-105814070D01*
X114804976Y-105799654D01*
X114822219Y-105786866D01*
X114840632Y-105775830D01*
X114860038Y-105766651D01*
X114880250Y-105759419D01*
X114901074Y-105754203D01*
X114922309Y-105751053D01*
X114943750Y-105750000D01*
X115456250Y-105750000D01*
X115477691Y-105751053D01*
X115477691Y-105751053D01*
G37*
D13*
X115200000Y-106187500D03*
D17*
X108450000Y-103560000D03*
X107500000Y-103560000D03*
X106550000Y-103560000D03*
X106550000Y-105840000D03*
X108450000Y-105840000D03*
D12*
G36*
X113877691Y-105751053D02*
G01*
X113898926Y-105754203D01*
X113919750Y-105759419D01*
X113939962Y-105766651D01*
X113959368Y-105775830D01*
X113977781Y-105786866D01*
X113995024Y-105799654D01*
X114010930Y-105814070D01*
X114025346Y-105829976D01*
X114038134Y-105847219D01*
X114049170Y-105865632D01*
X114058349Y-105885038D01*
X114065581Y-105905250D01*
X114070797Y-105926074D01*
X114073947Y-105947309D01*
X114075000Y-105968750D01*
X114075000Y-106406250D01*
X114073947Y-106427691D01*
X114070797Y-106448926D01*
X114065581Y-106469750D01*
X114058349Y-106489962D01*
X114049170Y-106509368D01*
X114038134Y-106527781D01*
X114025346Y-106545024D01*
X114010930Y-106560930D01*
X113995024Y-106575346D01*
X113977781Y-106588134D01*
X113959368Y-106599170D01*
X113939962Y-106608349D01*
X113919750Y-106615581D01*
X113898926Y-106620797D01*
X113877691Y-106623947D01*
X113856250Y-106625000D01*
X113343750Y-106625000D01*
X113322309Y-106623947D01*
X113301074Y-106620797D01*
X113280250Y-106615581D01*
X113260038Y-106608349D01*
X113240632Y-106599170D01*
X113222219Y-106588134D01*
X113204976Y-106575346D01*
X113189070Y-106560930D01*
X113174654Y-106545024D01*
X113161866Y-106527781D01*
X113150830Y-106509368D01*
X113141651Y-106489962D01*
X113134419Y-106469750D01*
X113129203Y-106448926D01*
X113126053Y-106427691D01*
X113125000Y-106406250D01*
X113125000Y-105968750D01*
X113126053Y-105947309D01*
X113129203Y-105926074D01*
X113134419Y-105905250D01*
X113141651Y-105885038D01*
X113150830Y-105865632D01*
X113161866Y-105847219D01*
X113174654Y-105829976D01*
X113189070Y-105814070D01*
X113204976Y-105799654D01*
X113222219Y-105786866D01*
X113240632Y-105775830D01*
X113260038Y-105766651D01*
X113280250Y-105759419D01*
X113301074Y-105754203D01*
X113322309Y-105751053D01*
X113343750Y-105750000D01*
X113856250Y-105750000D01*
X113877691Y-105751053D01*
X113877691Y-105751053D01*
G37*
D13*
X113600000Y-106187500D03*
D12*
G36*
X113877691Y-104176053D02*
G01*
X113898926Y-104179203D01*
X113919750Y-104184419D01*
X113939962Y-104191651D01*
X113959368Y-104200830D01*
X113977781Y-104211866D01*
X113995024Y-104224654D01*
X114010930Y-104239070D01*
X114025346Y-104254976D01*
X114038134Y-104272219D01*
X114049170Y-104290632D01*
X114058349Y-104310038D01*
X114065581Y-104330250D01*
X114070797Y-104351074D01*
X114073947Y-104372309D01*
X114075000Y-104393750D01*
X114075000Y-104831250D01*
X114073947Y-104852691D01*
X114070797Y-104873926D01*
X114065581Y-104894750D01*
X114058349Y-104914962D01*
X114049170Y-104934368D01*
X114038134Y-104952781D01*
X114025346Y-104970024D01*
X114010930Y-104985930D01*
X113995024Y-105000346D01*
X113977781Y-105013134D01*
X113959368Y-105024170D01*
X113939962Y-105033349D01*
X113919750Y-105040581D01*
X113898926Y-105045797D01*
X113877691Y-105048947D01*
X113856250Y-105050000D01*
X113343750Y-105050000D01*
X113322309Y-105048947D01*
X113301074Y-105045797D01*
X113280250Y-105040581D01*
X113260038Y-105033349D01*
X113240632Y-105024170D01*
X113222219Y-105013134D01*
X113204976Y-105000346D01*
X113189070Y-104985930D01*
X113174654Y-104970024D01*
X113161866Y-104952781D01*
X113150830Y-104934368D01*
X113141651Y-104914962D01*
X113134419Y-104894750D01*
X113129203Y-104873926D01*
X113126053Y-104852691D01*
X113125000Y-104831250D01*
X113125000Y-104393750D01*
X113126053Y-104372309D01*
X113129203Y-104351074D01*
X113134419Y-104330250D01*
X113141651Y-104310038D01*
X113150830Y-104290632D01*
X113161866Y-104272219D01*
X113174654Y-104254976D01*
X113189070Y-104239070D01*
X113204976Y-104224654D01*
X113222219Y-104211866D01*
X113240632Y-104200830D01*
X113260038Y-104191651D01*
X113280250Y-104184419D01*
X113301074Y-104179203D01*
X113322309Y-104176053D01*
X113343750Y-104175000D01*
X113856250Y-104175000D01*
X113877691Y-104176053D01*
X113877691Y-104176053D01*
G37*
D13*
X113600000Y-104612500D03*
D18*
X103797560Y-108049780D03*
X103797560Y-103950220D03*
X102202440Y-103950220D03*
X102202440Y-108049780D03*
D19*
X119650000Y-109450000D03*
X120950000Y-109450000D03*
X120300000Y-109450000D03*
X120950000Y-107550000D03*
X119650000Y-107550000D03*
D12*
G36*
X104380142Y-101951174D02*
G01*
X104403803Y-101954684D01*
X104427007Y-101960496D01*
X104449529Y-101968554D01*
X104471153Y-101978782D01*
X104491670Y-101991079D01*
X104510883Y-102005329D01*
X104528607Y-102021393D01*
X104544671Y-102039117D01*
X104558921Y-102058330D01*
X104571218Y-102078847D01*
X104581446Y-102100471D01*
X104589504Y-102122993D01*
X104595316Y-102146197D01*
X104598826Y-102169858D01*
X104600000Y-102193750D01*
X104600000Y-102681250D01*
X104598826Y-102705142D01*
X104595316Y-102728803D01*
X104589504Y-102752007D01*
X104581446Y-102774529D01*
X104571218Y-102796153D01*
X104558921Y-102816670D01*
X104544671Y-102835883D01*
X104528607Y-102853607D01*
X104510883Y-102869671D01*
X104491670Y-102883921D01*
X104471153Y-102896218D01*
X104449529Y-102906446D01*
X104427007Y-102914504D01*
X104403803Y-102920316D01*
X104380142Y-102923826D01*
X104356250Y-102925000D01*
X103443750Y-102925000D01*
X103419858Y-102923826D01*
X103396197Y-102920316D01*
X103372993Y-102914504D01*
X103350471Y-102906446D01*
X103328847Y-102896218D01*
X103308330Y-102883921D01*
X103289117Y-102869671D01*
X103271393Y-102853607D01*
X103255329Y-102835883D01*
X103241079Y-102816670D01*
X103228782Y-102796153D01*
X103218554Y-102774529D01*
X103210496Y-102752007D01*
X103204684Y-102728803D01*
X103201174Y-102705142D01*
X103200000Y-102681250D01*
X103200000Y-102193750D01*
X103201174Y-102169858D01*
X103204684Y-102146197D01*
X103210496Y-102122993D01*
X103218554Y-102100471D01*
X103228782Y-102078847D01*
X103241079Y-102058330D01*
X103255329Y-102039117D01*
X103271393Y-102021393D01*
X103289117Y-102005329D01*
X103308330Y-101991079D01*
X103328847Y-101978782D01*
X103350471Y-101968554D01*
X103372993Y-101960496D01*
X103396197Y-101954684D01*
X103419858Y-101951174D01*
X103443750Y-101950000D01*
X104356250Y-101950000D01*
X104380142Y-101951174D01*
X104380142Y-101951174D01*
G37*
D20*
X103900000Y-102437500D03*
D12*
G36*
X104380142Y-100076174D02*
G01*
X104403803Y-100079684D01*
X104427007Y-100085496D01*
X104449529Y-100093554D01*
X104471153Y-100103782D01*
X104491670Y-100116079D01*
X104510883Y-100130329D01*
X104528607Y-100146393D01*
X104544671Y-100164117D01*
X104558921Y-100183330D01*
X104571218Y-100203847D01*
X104581446Y-100225471D01*
X104589504Y-100247993D01*
X104595316Y-100271197D01*
X104598826Y-100294858D01*
X104600000Y-100318750D01*
X104600000Y-100806250D01*
X104598826Y-100830142D01*
X104595316Y-100853803D01*
X104589504Y-100877007D01*
X104581446Y-100899529D01*
X104571218Y-100921153D01*
X104558921Y-100941670D01*
X104544671Y-100960883D01*
X104528607Y-100978607D01*
X104510883Y-100994671D01*
X104491670Y-101008921D01*
X104471153Y-101021218D01*
X104449529Y-101031446D01*
X104427007Y-101039504D01*
X104403803Y-101045316D01*
X104380142Y-101048826D01*
X104356250Y-101050000D01*
X103443750Y-101050000D01*
X103419858Y-101048826D01*
X103396197Y-101045316D01*
X103372993Y-101039504D01*
X103350471Y-101031446D01*
X103328847Y-101021218D01*
X103308330Y-101008921D01*
X103289117Y-100994671D01*
X103271393Y-100978607D01*
X103255329Y-100960883D01*
X103241079Y-100941670D01*
X103228782Y-100921153D01*
X103218554Y-100899529D01*
X103210496Y-100877007D01*
X103204684Y-100853803D01*
X103201174Y-100830142D01*
X103200000Y-100806250D01*
X103200000Y-100318750D01*
X103201174Y-100294858D01*
X103204684Y-100271197D01*
X103210496Y-100247993D01*
X103218554Y-100225471D01*
X103228782Y-100203847D01*
X103241079Y-100183330D01*
X103255329Y-100164117D01*
X103271393Y-100146393D01*
X103289117Y-100130329D01*
X103308330Y-100116079D01*
X103328847Y-100103782D01*
X103350471Y-100093554D01*
X103372993Y-100085496D01*
X103396197Y-100079684D01*
X103419858Y-100076174D01*
X103443750Y-100075000D01*
X104356250Y-100075000D01*
X104380142Y-100076174D01*
X104380142Y-100076174D01*
G37*
D20*
X103900000Y-100562500D03*
M02*
