G04 #@! TF.GenerationSoftware,KiCad,Pcbnew,5.1.2-f72e74a~84~ubuntu18.04.1*
G04 #@! TF.CreationDate,2019-07-21T18:26:22-06:00*
G04 #@! TF.ProjectId,rfboard,7266626f-6172-4642-9e6b-696361645f70,rev?*
G04 #@! TF.SameCoordinates,Original*
G04 #@! TF.FileFunction,Soldermask,Bot*
G04 #@! TF.FilePolarity,Negative*
%FSLAX46Y46*%
G04 Gerber Fmt 4.6, Leading zero omitted, Abs format (unit mm)*
G04 Created by KiCad (PCBNEW 5.1.2-f72e74a~84~ubuntu18.04.1) date 2019-07-21 18:26:22*
%MOMM*%
%LPD*%
G04 APERTURE LIST*
%ADD10C,2.200000*%
%ADD11C,1.808000*%
%ADD12C,3.100000*%
%ADD13R,2.100000X2.100000*%
%ADD14O,2.100000X2.100000*%
%ADD15R,1.598880X3.399740*%
G04 APERTURE END LIST*
D10*
X110500000Y-129300000D03*
X117500000Y-129300000D03*
D11*
X111500000Y-132000000D03*
X116500000Y-132000000D03*
D12*
X109200000Y-159500000D03*
X126500000Y-159500000D03*
D13*
X107500000Y-154900000D03*
D14*
X107500000Y-152360000D03*
X107500000Y-149820000D03*
X107500000Y-147280000D03*
X107500000Y-144740000D03*
X107500000Y-142200000D03*
X107500000Y-139660000D03*
X107500000Y-137120000D03*
X107500000Y-134580000D03*
X107500000Y-132040000D03*
D13*
X127820000Y-154900000D03*
D14*
X127820000Y-152360000D03*
X127820000Y-149820000D03*
X127820000Y-147280000D03*
X127820000Y-144740000D03*
X127820000Y-142200000D03*
X127820000Y-139660000D03*
X127820000Y-137120000D03*
X127820000Y-134580000D03*
X127820000Y-132040000D03*
D13*
X122220000Y-129200000D03*
D14*
X124760000Y-129200000D03*
X127300000Y-129200000D03*
D13*
X121680000Y-160900000D03*
D14*
X119140000Y-160900000D03*
X116600000Y-160900000D03*
X114060000Y-160900000D03*
D13*
X125250000Y-156700000D03*
D15*
X123500000Y-154996160D03*
X121498480Y-154996160D03*
X119499500Y-154996160D03*
X115501540Y-154996160D03*
X113502560Y-154996160D03*
X111501040Y-154996160D03*
X111501040Y-140000000D03*
X113502560Y-140000000D03*
X123500000Y-140000000D03*
D10*
X119200000Y-135400000D03*
X116660000Y-135400000D03*
X121740000Y-135400000D03*
M02*
