M48
;DRILL file {KiCad 4.0.7-e2-6376~61~ubuntu18.04.1} date Sun Jul  8 15:08:07 2018
;FORMAT={-:-/ absolute / inch / decimal}
FMAT,2
INCH,TZ
T1C0.016
T2C0.031
T3C0.035
T4C0.039
T5C0.047
T6C0.106
%
G90
G05
M72
T1
X4.3386Y-5.4961
X4.3504Y-5.7126
X4.3661Y-5.3406
X4.3816Y-5.8054
X4.3877Y-5.8363
X4.4331Y-5.6181
X4.4369Y-5.4023
X4.4685Y-5.1496
X4.4685Y-5.7756
X4.5Y-5.8386
X4.5197Y-5.1417
X4.5472Y-5.7441
X4.5817Y-5.7126
X4.5866Y-5.5433
X4.6063Y-5.6693
X4.6181Y-5.8031
X4.6378Y-5.6693
X4.6378Y-5.9094
X4.6457Y-5.2087
X4.6732Y-5.4236
X4.6745Y-5.1961
X4.689Y-5.6811
X4.6969Y-5.8386
X4.7035Y-5.7971
X4.7441Y-6.189
X4.7441Y-6.2559
X4.7569Y-5.4239
X4.7596Y-5.7442
X4.7596Y-5.8701
X4.8042Y-5.7825
X4.8065Y-5.4388
X4.811Y-5.9764
X4.8206Y-5.6092
X4.8346Y-5.4154
X4.8622Y-5.6063
X4.8655Y-5.4331
X4.8701Y-6.2008
X4.8926Y-5.7874
X4.9231Y-5.5118
X4.9236Y-5.3928
X4.9449Y-5.2638
X4.9449Y-5.9961
X4.9646Y-5.1811
T2
X4.4843Y-5.2717
T3
X4.3898Y-5.1969
X4.5866Y-5.1969
T4
X4.2323Y-5.1984
X4.2323Y-5.2984
X4.2323Y-5.3984
X4.2323Y-5.4984
X4.2323Y-5.5984
X4.2323Y-5.6984
X4.2323Y-5.7984
X4.2323Y-5.8984
X4.2323Y-5.9984
X4.2323Y-6.0984
X4.4906Y-6.3346
X4.5906Y-6.3346
X4.6906Y-6.3346
X4.7906Y-6.3346
X4.8118Y-5.0866
X4.8858Y-5.9449
X4.9118Y-5.0866
X5.0118Y-5.0866
X5.0323Y-5.1984
X5.0323Y-5.2984
X5.0323Y-5.3984
X5.0323Y-5.4984
X5.0323Y-5.5984
X5.0323Y-5.6984
X5.0323Y-5.7984
X5.0323Y-5.8984
X5.0323Y-5.9984
X5.0323Y-6.0984
T5
X4.3504Y-5.0906
X4.626Y-5.0906
T6
X4.2992Y-6.2795
X4.7717Y-5.2598
X4.9803Y-6.2795
T0
M30
