G04 #@! TF.FileFunction,Paste,Top*
%FSLAX46Y46*%
G04 Gerber Fmt 4.6, Leading zero omitted, Abs format (unit mm)*
G04 Created by KiCad (PCBNEW 4.0.7-e2-6376~61~ubuntu18.04.1) date Sun Jul  8 15:07:32 2018*
%MOMM*%
%LPD*%
G01*
G04 APERTURE LIST*
%ADD10C,0.100000*%
%ADD11R,1.651000X0.998220*%
%ADD12R,0.800000X0.800000*%
%ADD13R,0.450000X1.350000*%
%ADD14R,1.500000X1.550000*%
%ADD15R,0.558800X1.270000*%
%ADD16R,1.270000X0.558800*%
%ADD17R,0.600000X1.140000*%
%ADD18R,0.750000X0.800000*%
%ADD19R,1.250000X1.000000*%
%ADD20R,0.500000X0.900000*%
%ADD21R,0.400000X0.650000*%
%ADD22R,0.899160X0.998220*%
G04 APERTURE END LIST*
D10*
D11*
X110424440Y-137600000D03*
X110424440Y-140795320D03*
X115575560Y-140795320D03*
X115575560Y-137600000D03*
D12*
X125200000Y-147000000D03*
X123600000Y-147000000D03*
D13*
X115300000Y-131975000D03*
X114650000Y-131975000D03*
X114000000Y-131975000D03*
X113350000Y-131975000D03*
X112700000Y-131975000D03*
D14*
X115000000Y-129300000D03*
X113000000Y-129300000D03*
X117050000Y-129300000D03*
X110950000Y-129300000D03*
D15*
X119400300Y-142808620D03*
X118600200Y-142808620D03*
X117800100Y-142808620D03*
X117000000Y-142808620D03*
X116202440Y-142808620D03*
X115402340Y-142808620D03*
X114602240Y-142808620D03*
X113802140Y-142808620D03*
D16*
X112308620Y-144302140D03*
X112308620Y-145102240D03*
X112308620Y-145902340D03*
X112308620Y-146702440D03*
X112308620Y-147500000D03*
X112308620Y-148300100D03*
X112308620Y-149100200D03*
X112308620Y-149900300D03*
D15*
X113802140Y-151393820D03*
X114602240Y-151393820D03*
X115402340Y-151393820D03*
X116202440Y-151393820D03*
X117000000Y-151393820D03*
X117800100Y-151393820D03*
X118600200Y-151393820D03*
X119400300Y-151393820D03*
D16*
X120893820Y-149900300D03*
X120893820Y-149100200D03*
X120893820Y-148300100D03*
X120893820Y-147500000D03*
X120893820Y-146702440D03*
X120893820Y-145902340D03*
X120893820Y-145102240D03*
X120893820Y-144302140D03*
D17*
X119650000Y-137760000D03*
X118700000Y-137760000D03*
X117750000Y-137760000D03*
X117750000Y-140040000D03*
X119650000Y-140040000D03*
D18*
X110900000Y-134150000D03*
X110900000Y-135650000D03*
X112300000Y-134150000D03*
X112300000Y-135650000D03*
D19*
X113900000Y-135900000D03*
X113900000Y-133900000D03*
D20*
X125200000Y-148400000D03*
X123700000Y-148400000D03*
D21*
X122750000Y-137550000D03*
X121450000Y-137550000D03*
X122100000Y-137550000D03*
X121450000Y-139450000D03*
X122750000Y-139450000D03*
D22*
X113250220Y-157997560D03*
X117349780Y-157997560D03*
X117349780Y-156402440D03*
X113250220Y-156402440D03*
M02*
