G04 #@! TF.FileFunction,Other,Fab,Top*
%FSLAX46Y46*%
G04 Gerber Fmt 4.6, Leading zero omitted, Abs format (unit mm)*
G04 Created by KiCad (PCBNEW 4.0.7-e2-6376~61~ubuntu18.04.1) date Sun Jul  8 15:07:32 2018*
%MOMM*%
%LPD*%
G01*
G04 APERTURE LIST*
%ADD10C,0.100000*%
%ADD11C,0.250000*%
%ADD12C,0.075000*%
G04 APERTURE END LIST*
D10*
D11*
X114642857Y-157904762D02*
X114785714Y-157952381D01*
X115023810Y-157952381D01*
X115119048Y-157904762D01*
X115166667Y-157857143D01*
X115214286Y-157761905D01*
X115214286Y-157666667D01*
X115166667Y-157571429D01*
X115119048Y-157523810D01*
X115023810Y-157476190D01*
X114833333Y-157428571D01*
X114738095Y-157380952D01*
X114690476Y-157333333D01*
X114642857Y-157238095D01*
X114642857Y-157142857D01*
X114690476Y-157047619D01*
X114738095Y-157000000D01*
X114833333Y-156952381D01*
X115071429Y-156952381D01*
X115214286Y-157000000D01*
X115547619Y-156952381D02*
X115785714Y-157952381D01*
X115976191Y-157238095D01*
X116166667Y-157952381D01*
X116404762Y-156952381D01*
X109785714Y-140247619D02*
X109833333Y-140200000D01*
X109928571Y-140152381D01*
X110166667Y-140152381D01*
X110261905Y-140200000D01*
X110309524Y-140247619D01*
X110357143Y-140342857D01*
X110357143Y-140438095D01*
X110309524Y-140580952D01*
X109738095Y-141152381D01*
X110357143Y-141152381D01*
X110928571Y-140580952D02*
X110833333Y-140533333D01*
X110785714Y-140485714D01*
X110738095Y-140390476D01*
X110738095Y-140342857D01*
X110785714Y-140247619D01*
X110833333Y-140200000D01*
X110928571Y-140152381D01*
X111119048Y-140152381D01*
X111214286Y-140200000D01*
X111261905Y-140247619D01*
X111309524Y-140342857D01*
X111309524Y-140390476D01*
X111261905Y-140485714D01*
X111214286Y-140533333D01*
X111119048Y-140580952D01*
X110928571Y-140580952D01*
X110833333Y-140628571D01*
X110785714Y-140676190D01*
X110738095Y-140771429D01*
X110738095Y-140961905D01*
X110785714Y-141057143D01*
X110833333Y-141104762D01*
X110928571Y-141152381D01*
X111119048Y-141152381D01*
X111214286Y-141104762D01*
X111261905Y-141057143D01*
X111309524Y-140961905D01*
X111309524Y-140771429D01*
X111261905Y-140676190D01*
X111214286Y-140628571D01*
X111119048Y-140580952D01*
X112261905Y-141152381D02*
X111690476Y-141152381D01*
X111976190Y-141152381D02*
X111976190Y-140152381D01*
X111880952Y-140295238D01*
X111785714Y-140390476D01*
X111690476Y-140438095D01*
X112642857Y-140247619D02*
X112690476Y-140200000D01*
X112785714Y-140152381D01*
X113023810Y-140152381D01*
X113119048Y-140200000D01*
X113166667Y-140247619D01*
X113214286Y-140342857D01*
X113214286Y-140438095D01*
X113166667Y-140580952D01*
X112595238Y-141152381D01*
X113214286Y-141152381D01*
X122019048Y-138428571D02*
X122161905Y-138476190D01*
X122209524Y-138523810D01*
X122257143Y-138619048D01*
X122257143Y-138761905D01*
X122209524Y-138857143D01*
X122161905Y-138904762D01*
X122066667Y-138952381D01*
X121685714Y-138952381D01*
X121685714Y-137952381D01*
X122019048Y-137952381D01*
X122114286Y-138000000D01*
X122161905Y-138047619D01*
X122209524Y-138142857D01*
X122209524Y-138238095D01*
X122161905Y-138333333D01*
X122114286Y-138380952D01*
X122019048Y-138428571D01*
X121685714Y-138428571D01*
X122685714Y-137952381D02*
X122685714Y-138761905D01*
X122733333Y-138857143D01*
X122780952Y-138904762D01*
X122876190Y-138952381D01*
X123066667Y-138952381D01*
X123161905Y-138904762D01*
X123209524Y-138857143D01*
X123257143Y-138761905D01*
X123257143Y-137952381D01*
X124066667Y-138428571D02*
X123733333Y-138428571D01*
X123733333Y-138952381D02*
X123733333Y-137952381D01*
X124209524Y-137952381D01*
X117957143Y-136252381D02*
X117623809Y-135776190D01*
X117385714Y-136252381D02*
X117385714Y-135252381D01*
X117766667Y-135252381D01*
X117861905Y-135300000D01*
X117909524Y-135347619D01*
X117957143Y-135442857D01*
X117957143Y-135585714D01*
X117909524Y-135680952D01*
X117861905Y-135728571D01*
X117766667Y-135776190D01*
X117385714Y-135776190D01*
X118385714Y-135728571D02*
X118719048Y-135728571D01*
X118861905Y-136252381D02*
X118385714Y-136252381D01*
X118385714Y-135252381D01*
X118861905Y-135252381D01*
X119814286Y-135300000D02*
X119719048Y-135252381D01*
X119576191Y-135252381D01*
X119433333Y-135300000D01*
X119338095Y-135395238D01*
X119290476Y-135490476D01*
X119242857Y-135680952D01*
X119242857Y-135823810D01*
X119290476Y-136014286D01*
X119338095Y-136109524D01*
X119433333Y-136204762D01*
X119576191Y-136252381D01*
X119671429Y-136252381D01*
X119814286Y-136204762D01*
X119861905Y-136157143D01*
X119861905Y-135823810D01*
X119671429Y-135823810D01*
D10*
X124200000Y-146800000D02*
X124200000Y-147200000D01*
X124250000Y-147000000D02*
X124550000Y-146800000D01*
X124550000Y-147200000D02*
X124250000Y-147000000D01*
X124550000Y-146800000D02*
X124550000Y-147200000D01*
X125200000Y-147400000D02*
X123600000Y-147400000D01*
X125200000Y-146600000D02*
X125200000Y-147400000D01*
X123600000Y-146600000D02*
X125200000Y-146600000D01*
X123600000Y-147400000D02*
X123600000Y-146600000D01*
X110500000Y-135700000D02*
X110500000Y-134100000D01*
X110500000Y-134100000D02*
X111300000Y-134100000D01*
X111300000Y-134100000D02*
X111300000Y-135700000D01*
X111300000Y-135700000D02*
X110500000Y-135700000D01*
X111900000Y-135700000D02*
X111900000Y-134100000D01*
X111900000Y-134100000D02*
X112700000Y-134100000D01*
X112700000Y-134100000D02*
X112700000Y-135700000D01*
X112700000Y-135700000D02*
X111900000Y-135700000D01*
X114520000Y-135900000D02*
X113280000Y-135900000D01*
X114520000Y-133900000D02*
X114520000Y-135900000D01*
X113280000Y-133900000D02*
X114520000Y-133900000D01*
X113280000Y-135900000D02*
X113280000Y-133900000D01*
X108135000Y-156170000D02*
X106230000Y-156170000D01*
X106230000Y-156170000D02*
X106230000Y-130770000D01*
X106230000Y-130770000D02*
X108770000Y-130770000D01*
X108770000Y-130770000D02*
X108770000Y-155535000D01*
X108770000Y-155535000D02*
X108135000Y-156170000D01*
X128455000Y-156170000D02*
X126550000Y-156170000D01*
X126550000Y-156170000D02*
X126550000Y-130770000D01*
X126550000Y-130770000D02*
X129090000Y-130770000D01*
X129090000Y-130770000D02*
X129090000Y-155535000D01*
X129090000Y-155535000D02*
X128455000Y-156170000D01*
X120950000Y-129835000D02*
X120950000Y-127930000D01*
X120950000Y-127930000D02*
X128570000Y-127930000D01*
X128570000Y-127930000D02*
X128570000Y-130470000D01*
X128570000Y-130470000D02*
X121585000Y-130470000D01*
X121585000Y-130470000D02*
X120950000Y-129835000D01*
X122950000Y-160265000D02*
X122950000Y-162170000D01*
X122950000Y-162170000D02*
X112790000Y-162170000D01*
X112790000Y-162170000D02*
X112790000Y-159630000D01*
X112790000Y-159630000D02*
X122315000Y-159630000D01*
X122315000Y-159630000D02*
X122950000Y-160265000D01*
X123465000Y-149730000D02*
X125370000Y-149730000D01*
X125370000Y-149730000D02*
X125370000Y-152270000D01*
X125370000Y-152270000D02*
X122830000Y-152270000D01*
X122830000Y-152270000D02*
X122830000Y-150365000D01*
X122830000Y-150365000D02*
X123465000Y-149730000D01*
X125250000Y-148000000D02*
X125250000Y-148800000D01*
X123650000Y-148000000D02*
X125250000Y-148000000D01*
X123650000Y-148800000D02*
X123650000Y-148000000D01*
X125250000Y-148800000D02*
X123650000Y-148800000D01*
X123200000Y-139175000D02*
X123200000Y-138325000D01*
X122700000Y-137825000D02*
X121000000Y-137825000D01*
X123200000Y-139175000D02*
X121000000Y-139175000D01*
X121000000Y-139175000D02*
X121000000Y-137825000D01*
X123200000Y-138325000D02*
X122700000Y-137825000D01*
D12*
X111007143Y-134950000D02*
X111021429Y-134964286D01*
X111035714Y-135007143D01*
X111035714Y-135035714D01*
X111021429Y-135078571D01*
X110992857Y-135107143D01*
X110964286Y-135121428D01*
X110907143Y-135135714D01*
X110864286Y-135135714D01*
X110807143Y-135121428D01*
X110778571Y-135107143D01*
X110750000Y-135078571D01*
X110735714Y-135035714D01*
X110735714Y-135007143D01*
X110750000Y-134964286D01*
X110764286Y-134950000D01*
X111035714Y-134664286D02*
X111035714Y-134835714D01*
X111035714Y-134750000D02*
X110735714Y-134750000D01*
X110778571Y-134778571D01*
X110807143Y-134807143D01*
X110821429Y-134835714D01*
X112407143Y-134950000D02*
X112421429Y-134964286D01*
X112435714Y-135007143D01*
X112435714Y-135035714D01*
X112421429Y-135078571D01*
X112392857Y-135107143D01*
X112364286Y-135121428D01*
X112307143Y-135135714D01*
X112264286Y-135135714D01*
X112207143Y-135121428D01*
X112178571Y-135107143D01*
X112150000Y-135078571D01*
X112135714Y-135035714D01*
X112135714Y-135007143D01*
X112150000Y-134964286D01*
X112164286Y-134950000D01*
X112164286Y-134835714D02*
X112150000Y-134821428D01*
X112135714Y-134792857D01*
X112135714Y-134721428D01*
X112150000Y-134692857D01*
X112164286Y-134678571D01*
X112192857Y-134664286D01*
X112221429Y-134664286D01*
X112264286Y-134678571D01*
X112435714Y-134850000D01*
X112435714Y-134664286D01*
X124383334Y-148580952D02*
X124250000Y-148390476D01*
X124154762Y-148580952D02*
X124154762Y-148180952D01*
X124307143Y-148180952D01*
X124345238Y-148200000D01*
X124364286Y-148219048D01*
X124383334Y-148257143D01*
X124383334Y-148314286D01*
X124364286Y-148352381D01*
X124345238Y-148371429D01*
X124307143Y-148390476D01*
X124154762Y-148390476D01*
X124535714Y-148219048D02*
X124554762Y-148200000D01*
X124592857Y-148180952D01*
X124688095Y-148180952D01*
X124726191Y-148200000D01*
X124745238Y-148219048D01*
X124764286Y-148257143D01*
X124764286Y-148295238D01*
X124745238Y-148352381D01*
X124516667Y-148580952D01*
X124764286Y-148580952D01*
X121719048Y-138226190D02*
X121719048Y-138630952D01*
X121742857Y-138678571D01*
X121766667Y-138702381D01*
X121814286Y-138726190D01*
X121909524Y-138726190D01*
X121957143Y-138702381D01*
X121980952Y-138678571D01*
X122004762Y-138630952D01*
X122004762Y-138226190D01*
X122457143Y-138392857D02*
X122457143Y-138726190D01*
X122338096Y-138202381D02*
X122219048Y-138559524D01*
X122528572Y-138559524D01*
M02*
