G04 #@! TF.GenerationSoftware,KiCad,Pcbnew,5.1.2-f72e74a~84~ubuntu18.04.1*
G04 #@! TF.CreationDate,2019-05-09T21:42:28-06:00*
G04 #@! TF.ProjectId,rfboard,7266626f-6172-4642-9e6b-696361645f70,rev?*
G04 #@! TF.SameCoordinates,Original*
G04 #@! TF.FileFunction,Other,User*
%FSLAX46Y46*%
G04 Gerber Fmt 4.6, Leading zero omitted, Abs format (unit mm)*
G04 Created by KiCad (PCBNEW 5.1.2-f72e74a~84~ubuntu18.04.1) date 2019-05-09 21:42:28*
%MOMM*%
%LPD*%
G04 APERTURE LIST*
%ADD10C,0.050000*%
G04 APERTURE END LIST*
D10*
X125850000Y-146350000D02*
X125850000Y-147650000D01*
X125850000Y-147650000D02*
X122950000Y-147650000D01*
X122950000Y-147650000D02*
X122950000Y-146350000D01*
X122950000Y-146350000D02*
X125850000Y-146350000D01*
X112150000Y-159500000D02*
G75*
G03X112150000Y-159500000I-2950000J0D01*
G01*
X129450000Y-159500000D02*
G75*
G03X129450000Y-159500000I-2950000J0D01*
G01*
X124150000Y-133600000D02*
G75*
G03X124150000Y-133600000I-2950000J0D01*
G01*
X111550000Y-133500000D02*
X111550000Y-136300000D01*
X111550000Y-133500000D02*
X110250000Y-133500000D01*
X110250000Y-136300000D02*
X111550000Y-136300000D01*
X110250000Y-136300000D02*
X110250000Y-133500000D01*
X112950000Y-133500000D02*
X112950000Y-136300000D01*
X112950000Y-133500000D02*
X111650000Y-133500000D01*
X111650000Y-136300000D02*
X112950000Y-136300000D01*
X111650000Y-136300000D02*
X111650000Y-133500000D01*
X113020000Y-136650000D02*
X113020000Y-133150000D01*
X113020000Y-136650000D02*
X114770000Y-136650000D01*
X114770000Y-133150000D02*
X113020000Y-133150000D01*
X114770000Y-133150000D02*
X114770000Y-136650000D01*
X109300000Y-156700000D02*
X109300000Y-130250000D01*
X109300000Y-130250000D02*
X105700000Y-130250000D01*
X105700000Y-130250000D02*
X105700000Y-156700000D01*
X105700000Y-156700000D02*
X109300000Y-156700000D01*
X129620000Y-156700000D02*
X129620000Y-130250000D01*
X129620000Y-130250000D02*
X126020000Y-130250000D01*
X126020000Y-130250000D02*
X126020000Y-156700000D01*
X126020000Y-156700000D02*
X129620000Y-156700000D01*
X120420000Y-131000000D02*
X129070000Y-131000000D01*
X129070000Y-131000000D02*
X129070000Y-127400000D01*
X129070000Y-127400000D02*
X120420000Y-127400000D01*
X120420000Y-127400000D02*
X120420000Y-131000000D01*
X123480000Y-159100000D02*
X112280000Y-159100000D01*
X112280000Y-159100000D02*
X112280000Y-162700000D01*
X112280000Y-162700000D02*
X123480000Y-162700000D01*
X123480000Y-162700000D02*
X123480000Y-159100000D01*
X125700000Y-149100000D02*
X123200000Y-149100000D01*
X125700000Y-149100000D02*
X125700000Y-147700000D01*
X123200000Y-147700000D02*
X123200000Y-149100000D01*
X123200000Y-147700000D02*
X125700000Y-147700000D01*
X120700000Y-140100000D02*
X123500000Y-140100000D01*
X123500000Y-136900000D02*
X120700000Y-136900000D01*
X123500000Y-136900000D02*
X123500000Y-140100000D01*
X120700000Y-136900000D02*
X120700000Y-140100000D01*
X110700000Y-153250000D02*
X110700000Y-155750000D01*
X110700000Y-153250000D02*
X109300000Y-153250000D01*
X109300000Y-155750000D02*
X110700000Y-155750000D01*
X109300000Y-155750000D02*
X109300000Y-153250000D01*
X112200000Y-153250000D02*
X112200000Y-155750000D01*
X112200000Y-153250000D02*
X110800000Y-153250000D01*
X110800000Y-155750000D02*
X112200000Y-155750000D01*
X110800000Y-155750000D02*
X110800000Y-153250000D01*
X123450000Y-157600000D02*
X127050000Y-157600000D01*
X127050000Y-157600000D02*
X127050000Y-154000000D01*
X127050000Y-154000000D02*
X123450000Y-154000000D01*
X123450000Y-154000000D02*
X123450000Y-157600000D01*
X109770000Y-142520000D02*
X111230000Y-142520000D01*
X111230000Y-142520000D02*
X111230000Y-145480000D01*
X111230000Y-145480000D02*
X109770000Y-145480000D01*
X109770000Y-145480000D02*
X109770000Y-142520000D01*
X119020000Y-154270000D02*
X121980000Y-154270000D01*
X119020000Y-155730000D02*
X119020000Y-154270000D01*
X121980000Y-155730000D02*
X119020000Y-155730000D01*
X121980000Y-154270000D02*
X121980000Y-155730000D01*
M02*
