G04 #@! TF.FileFunction,Soldermask,Top*
%FSLAX46Y46*%
G04 Gerber Fmt 4.6, Leading zero omitted, Abs format (unit mm)*
G04 Created by KiCad (PCBNEW 4.0.7-e2-6376~61~ubuntu18.04.1) date Sun Jul  8 15:07:32 2018*
%MOMM*%
%LPD*%
G01*
G04 APERTURE LIST*
%ADD10C,0.100000*%
%ADD11R,2.051000X1.398220*%
%ADD12R,1.200000X1.200000*%
%ADD13R,0.850000X1.750000*%
%ADD14C,1.808000*%
%ADD15C,2.200000*%
%ADD16R,1.900000X1.950000*%
%ADD17R,0.762000X1.473200*%
%ADD18R,1.473200X0.762000*%
%ADD19R,1.000000X1.540000*%
%ADD20C,3.100000*%
%ADD21R,1.150000X1.200000*%
%ADD22R,1.650000X1.400000*%
%ADD23R,2.100000X2.100000*%
%ADD24O,2.100000X2.100000*%
%ADD25R,0.900000X1.300000*%
%ADD26R,0.800000X1.050000*%
%ADD27R,1.102360X1.201420*%
G04 APERTURE END LIST*
D10*
D11*
X110424440Y-137600000D03*
X110424440Y-140795320D03*
X115575560Y-140795320D03*
X115575560Y-137600000D03*
D12*
X125200000Y-147000000D03*
X123600000Y-147000000D03*
D13*
X115300000Y-131975000D03*
X114650000Y-131975000D03*
X114000000Y-131975000D03*
X113350000Y-131975000D03*
X112700000Y-131975000D03*
D14*
X116500000Y-132000000D03*
X111500000Y-132000000D03*
D15*
X117500000Y-129300000D03*
X110500000Y-129300000D03*
D16*
X115000000Y-129300000D03*
X113000000Y-129300000D03*
X117050000Y-129300000D03*
X110950000Y-129300000D03*
D17*
X119400300Y-142808620D03*
X118600200Y-142808620D03*
X117800100Y-142808620D03*
X117000000Y-142808620D03*
X116202440Y-142808620D03*
X115402340Y-142808620D03*
X114602240Y-142808620D03*
X113802140Y-142808620D03*
D18*
X112308620Y-144302140D03*
X112308620Y-145102240D03*
X112308620Y-145902340D03*
X112308620Y-146702440D03*
X112308620Y-147500000D03*
X112308620Y-148300100D03*
X112308620Y-149100200D03*
X112308620Y-149900300D03*
D17*
X113802140Y-151393820D03*
X114602240Y-151393820D03*
X115402340Y-151393820D03*
X116202440Y-151393820D03*
X117000000Y-151393820D03*
X117800100Y-151393820D03*
X118600200Y-151393820D03*
X119400300Y-151393820D03*
D18*
X120893820Y-149900300D03*
X120893820Y-149100200D03*
X120893820Y-148300100D03*
X120893820Y-147500000D03*
X120893820Y-146702440D03*
X120893820Y-145902340D03*
X120893820Y-145102240D03*
X120893820Y-144302140D03*
D19*
X119650000Y-137760000D03*
X118700000Y-137760000D03*
X117750000Y-137760000D03*
X117750000Y-140040000D03*
X119650000Y-140040000D03*
D20*
X109200000Y-159500000D03*
X126500000Y-159500000D03*
X121200000Y-133600000D03*
D21*
X110900000Y-134150000D03*
X110900000Y-135650000D03*
X112300000Y-134150000D03*
X112300000Y-135650000D03*
D22*
X113900000Y-135900000D03*
X113900000Y-133900000D03*
D23*
X107500000Y-154900000D03*
D24*
X107500000Y-152360000D03*
X107500000Y-149820000D03*
X107500000Y-147280000D03*
X107500000Y-144740000D03*
X107500000Y-142200000D03*
X107500000Y-139660000D03*
X107500000Y-137120000D03*
X107500000Y-134580000D03*
X107500000Y-132040000D03*
D23*
X127820000Y-154900000D03*
D24*
X127820000Y-152360000D03*
X127820000Y-149820000D03*
X127820000Y-147280000D03*
X127820000Y-144740000D03*
X127820000Y-142200000D03*
X127820000Y-139660000D03*
X127820000Y-137120000D03*
X127820000Y-134580000D03*
X127820000Y-132040000D03*
D23*
X122220000Y-129200000D03*
D24*
X124760000Y-129200000D03*
X127300000Y-129200000D03*
D23*
X121680000Y-160900000D03*
D24*
X119140000Y-160900000D03*
X116600000Y-160900000D03*
X114060000Y-160900000D03*
D23*
X124100000Y-151000000D03*
D25*
X125200000Y-148400000D03*
X123700000Y-148400000D03*
D26*
X122750000Y-137550000D03*
X121450000Y-137550000D03*
X122100000Y-137550000D03*
X121450000Y-139450000D03*
X122750000Y-139450000D03*
D27*
X113250220Y-157997560D03*
X117349780Y-157997560D03*
X117349780Y-156402440D03*
X113250220Y-156402440D03*
M02*
