G04 #@! TF.GenerationSoftware,KiCad,Pcbnew,5.1.2-f72e74a~84~ubuntu18.04.1*
G04 #@! TF.CreationDate,2019-07-10T23:14:27-06:00*
G04 #@! TF.ProjectId,rfboard,7266626f-6172-4642-9e6b-696361645f70,rev?*
G04 #@! TF.SameCoordinates,Original*
G04 #@! TF.FileFunction,Legend,Top*
G04 #@! TF.FilePolarity,Positive*
%FSLAX46Y46*%
G04 Gerber Fmt 4.6, Leading zero omitted, Abs format (unit mm)*
G04 Created by KiCad (PCBNEW 5.1.2-f72e74a~84~ubuntu18.04.1) date 2019-07-10 23:14:27*
%MOMM*%
%LPD*%
G04 APERTURE LIST*
%ADD10C,0.300000*%
%ADD11C,0.175000*%
%ADD12C,0.150000*%
%ADD13C,0.200000*%
%ADD14C,0.127000*%
%ADD15C,0.203200*%
%ADD16C,0.120000*%
%ADD17C,0.100000*%
%ADD18R,2.051000X1.398220*%
%ADD19R,1.200000X1.200000*%
%ADD20R,1.370000X0.658800*%
%ADD21R,0.658800X1.370000*%
%ADD22R,0.800000X1.340000*%
%ADD23R,1.000000X1.540000*%
%ADD24C,3.100000*%
%ADD25R,1.150000X1.200000*%
%ADD26R,1.650000X1.400000*%
%ADD27R,2.100000X2.100000*%
%ADD28O,2.100000X2.100000*%
%ADD29R,0.900000X1.300000*%
%ADD30R,0.500000X0.750000*%
%ADD31R,0.800000X1.050000*%
%ADD32R,1.201420X1.102360*%
%ADD33R,1.300000X0.900000*%
%ADD34C,1.275000*%
%ADD35C,1.130000*%
%ADD36R,0.500000X1.450000*%
%ADD37C,1.808000*%
%ADD38C,2.200000*%
%ADD39R,1.900000X1.950000*%
G04 APERTURE END LIST*
D10*
X112492857Y-155278571D02*
X112492857Y-153778571D01*
X113207142Y-155278571D02*
X113207142Y-153778571D01*
X114778571Y-155135714D02*
X114707142Y-155207142D01*
X114492857Y-155278571D01*
X114350000Y-155278571D01*
X114135714Y-155207142D01*
X113992857Y-155064285D01*
X113921428Y-154921428D01*
X113850000Y-154635714D01*
X113850000Y-154421428D01*
X113921428Y-154135714D01*
X113992857Y-153992857D01*
X114135714Y-153850000D01*
X114350000Y-153778571D01*
X114492857Y-153778571D01*
X114707142Y-153850000D01*
X114778571Y-153921428D01*
D11*
X114283333Y-158850000D02*
X114216666Y-158816666D01*
X114116666Y-158816666D01*
X114016666Y-158850000D01*
X113950000Y-158916666D01*
X113916666Y-158983333D01*
X113883333Y-159116666D01*
X113883333Y-159216666D01*
X113916666Y-159350000D01*
X113950000Y-159416666D01*
X114016666Y-159483333D01*
X114116666Y-159516666D01*
X114183333Y-159516666D01*
X114283333Y-159483333D01*
X114316666Y-159450000D01*
X114316666Y-159216666D01*
X114183333Y-159216666D01*
D12*
X116083333Y-159750000D02*
X116050000Y-159783333D01*
X115950000Y-159816666D01*
X115883333Y-159816666D01*
X115783333Y-159783333D01*
X115716666Y-159716666D01*
X115683333Y-159650000D01*
X115650000Y-159516666D01*
X115650000Y-159416666D01*
X115683333Y-159283333D01*
X115716666Y-159216666D01*
X115783333Y-159150000D01*
X115883333Y-159116666D01*
X115950000Y-159116666D01*
X116050000Y-159150000D01*
X116083333Y-159183333D01*
X116716666Y-159816666D02*
X116383333Y-159816666D01*
X116383333Y-159116666D01*
X116950000Y-159816666D02*
X116950000Y-159116666D01*
X117350000Y-159816666D02*
X117050000Y-159416666D01*
X117350000Y-159116666D02*
X116950000Y-159516666D01*
X123616666Y-146316666D02*
X123383333Y-145983333D01*
X123216666Y-146316666D02*
X123216666Y-145616666D01*
X123483333Y-145616666D01*
X123550000Y-145650000D01*
X123583333Y-145683333D01*
X123616666Y-145750000D01*
X123616666Y-145850000D01*
X123583333Y-145916666D01*
X123550000Y-145950000D01*
X123483333Y-145983333D01*
X123216666Y-145983333D01*
X123883333Y-146283333D02*
X123983333Y-146316666D01*
X124150000Y-146316666D01*
X124216666Y-146283333D01*
X124250000Y-146250000D01*
X124283333Y-146183333D01*
X124283333Y-146116666D01*
X124250000Y-146050000D01*
X124216666Y-146016666D01*
X124150000Y-145983333D01*
X124016666Y-145950000D01*
X123950000Y-145916666D01*
X123916666Y-145883333D01*
X123883333Y-145816666D01*
X123883333Y-145750000D01*
X123916666Y-145683333D01*
X123950000Y-145650000D01*
X124016666Y-145616666D01*
X124183333Y-145616666D01*
X124283333Y-145650000D01*
X124483333Y-145616666D02*
X124883333Y-145616666D01*
X124683333Y-146316666D02*
X124683333Y-145616666D01*
D11*
X109466666Y-142516666D02*
X109066666Y-142516666D01*
X109266666Y-142516666D02*
X109266666Y-141816666D01*
X109200000Y-141916666D01*
X109133333Y-141983333D01*
X109066666Y-142016666D01*
X109733333Y-141883333D02*
X109766666Y-141850000D01*
X109833333Y-141816666D01*
X110000000Y-141816666D01*
X110066666Y-141850000D01*
X110100000Y-141883333D01*
X110133333Y-141950000D01*
X110133333Y-142016666D01*
X110100000Y-142116666D01*
X109700000Y-142516666D01*
X110133333Y-142516666D01*
X109466666Y-145016666D02*
X109066666Y-145016666D01*
X109266666Y-145016666D02*
X109266666Y-144316666D01*
X109200000Y-144416666D01*
X109133333Y-144483333D01*
X109066666Y-144516666D01*
X110133333Y-145016666D02*
X109733333Y-145016666D01*
X109933333Y-145016666D02*
X109933333Y-144316666D01*
X109866666Y-144416666D01*
X109800000Y-144483333D01*
X109733333Y-144516666D01*
X109466666Y-147716666D02*
X109066666Y-147716666D01*
X109266666Y-147716666D02*
X109266666Y-147016666D01*
X109200000Y-147116666D01*
X109133333Y-147183333D01*
X109066666Y-147216666D01*
X109900000Y-147016666D02*
X109966666Y-147016666D01*
X110033333Y-147050000D01*
X110066666Y-147083333D01*
X110100000Y-147150000D01*
X110133333Y-147283333D01*
X110133333Y-147450000D01*
X110100000Y-147583333D01*
X110066666Y-147650000D01*
X110033333Y-147683333D01*
X109966666Y-147716666D01*
X109900000Y-147716666D01*
X109833333Y-147683333D01*
X109800000Y-147650000D01*
X109766666Y-147583333D01*
X109733333Y-147450000D01*
X109733333Y-147283333D01*
X109766666Y-147150000D01*
X109800000Y-147083333D01*
X109833333Y-147050000D01*
X109900000Y-147016666D01*
X109166666Y-150216666D02*
X109300000Y-150216666D01*
X109366666Y-150183333D01*
X109400000Y-150150000D01*
X109466666Y-150050000D01*
X109500000Y-149916666D01*
X109500000Y-149650000D01*
X109466666Y-149583333D01*
X109433333Y-149550000D01*
X109366666Y-149516666D01*
X109233333Y-149516666D01*
X109166666Y-149550000D01*
X109133333Y-149583333D01*
X109100000Y-149650000D01*
X109100000Y-149816666D01*
X109133333Y-149883333D01*
X109166666Y-149916666D01*
X109233333Y-149950000D01*
X109366666Y-149950000D01*
X109433333Y-149916666D01*
X109466666Y-149883333D01*
X109500000Y-149816666D01*
X109333333Y-152416666D02*
X109266666Y-152383333D01*
X109233333Y-152350000D01*
X109200000Y-152283333D01*
X109200000Y-152250000D01*
X109233333Y-152183333D01*
X109266666Y-152150000D01*
X109333333Y-152116666D01*
X109466666Y-152116666D01*
X109533333Y-152150000D01*
X109566666Y-152183333D01*
X109600000Y-152250000D01*
X109600000Y-152283333D01*
X109566666Y-152350000D01*
X109533333Y-152383333D01*
X109466666Y-152416666D01*
X109333333Y-152416666D01*
X109266666Y-152450000D01*
X109233333Y-152483333D01*
X109200000Y-152550000D01*
X109200000Y-152683333D01*
X109233333Y-152750000D01*
X109266666Y-152783333D01*
X109333333Y-152816666D01*
X109466666Y-152816666D01*
X109533333Y-152783333D01*
X109566666Y-152750000D01*
X109600000Y-152683333D01*
X109600000Y-152550000D01*
X109566666Y-152483333D01*
X109533333Y-152450000D01*
X109466666Y-152416666D01*
X106766666Y-156416666D02*
X107233333Y-156416666D01*
X106933333Y-157116666D01*
D13*
X109000000Y-139400000D02*
X108500000Y-140000000D01*
X108400000Y-137700000D02*
X109100000Y-138700000D01*
X109400000Y-133600000D02*
X108600000Y-134600000D01*
D12*
X124666666Y-134350000D02*
X124600000Y-134316666D01*
X124500000Y-134316666D01*
X124400000Y-134350000D01*
X124333333Y-134416666D01*
X124300000Y-134483333D01*
X124266666Y-134616666D01*
X124266666Y-134716666D01*
X124300000Y-134850000D01*
X124333333Y-134916666D01*
X124400000Y-134983333D01*
X124500000Y-135016666D01*
X124566666Y-135016666D01*
X124666666Y-134983333D01*
X124700000Y-134950000D01*
X124700000Y-134716666D01*
X124566666Y-134716666D01*
X125000000Y-135016666D02*
X125000000Y-134316666D01*
X125400000Y-135016666D01*
X125400000Y-134316666D01*
X125733333Y-135016666D02*
X125733333Y-134316666D01*
X125900000Y-134316666D01*
X126000000Y-134350000D01*
X126066666Y-134416666D01*
X126100000Y-134483333D01*
X126133333Y-134616666D01*
X126133333Y-134716666D01*
X126100000Y-134850000D01*
X126066666Y-134916666D01*
X126000000Y-134983333D01*
X125900000Y-135016666D01*
X125733333Y-135016666D01*
X123550000Y-153783333D02*
X123650000Y-153816666D01*
X123816666Y-153816666D01*
X123883333Y-153783333D01*
X123916666Y-153750000D01*
X123950000Y-153683333D01*
X123950000Y-153616666D01*
X123916666Y-153550000D01*
X123883333Y-153516666D01*
X123816666Y-153483333D01*
X123683333Y-153450000D01*
X123616666Y-153416666D01*
X123583333Y-153383333D01*
X123550000Y-153316666D01*
X123550000Y-153250000D01*
X123583333Y-153183333D01*
X123616666Y-153150000D01*
X123683333Y-153116666D01*
X123850000Y-153116666D01*
X123950000Y-153150000D01*
X124250000Y-153816666D02*
X124250000Y-153116666D01*
X124416666Y-153116666D01*
X124516666Y-153150000D01*
X124583333Y-153216666D01*
X124616666Y-153283333D01*
X124650000Y-153416666D01*
X124650000Y-153516666D01*
X124616666Y-153650000D01*
X124583333Y-153716666D01*
X124516666Y-153783333D01*
X124416666Y-153816666D01*
X124250000Y-153816666D01*
X124916666Y-153616666D02*
X125250000Y-153616666D01*
X124850000Y-153816666D02*
X125083333Y-153116666D01*
X125316666Y-153816666D01*
X126383333Y-153116666D02*
X126250000Y-153116666D01*
X126183333Y-153150000D01*
X126150000Y-153183333D01*
X126083333Y-153283333D01*
X126050000Y-153416666D01*
X126050000Y-153683333D01*
X126083333Y-153750000D01*
X126116666Y-153783333D01*
X126183333Y-153816666D01*
X126316666Y-153816666D01*
X126383333Y-153783333D01*
X126416666Y-153750000D01*
X126450000Y-153683333D01*
X126450000Y-153516666D01*
X126416666Y-153450000D01*
X126383333Y-153416666D01*
X126316666Y-153383333D01*
X126183333Y-153383333D01*
X126116666Y-153416666D01*
X126083333Y-153450000D01*
X126050000Y-153516666D01*
X123566666Y-152283333D02*
X123666666Y-152316666D01*
X123833333Y-152316666D01*
X123900000Y-152283333D01*
X123933333Y-152250000D01*
X123966666Y-152183333D01*
X123966666Y-152116666D01*
X123933333Y-152050000D01*
X123900000Y-152016666D01*
X123833333Y-151983333D01*
X123700000Y-151950000D01*
X123633333Y-151916666D01*
X123600000Y-151883333D01*
X123566666Y-151816666D01*
X123566666Y-151750000D01*
X123600000Y-151683333D01*
X123633333Y-151650000D01*
X123700000Y-151616666D01*
X123866666Y-151616666D01*
X123966666Y-151650000D01*
X124666666Y-152250000D02*
X124633333Y-152283333D01*
X124533333Y-152316666D01*
X124466666Y-152316666D01*
X124366666Y-152283333D01*
X124300000Y-152216666D01*
X124266666Y-152150000D01*
X124233333Y-152016666D01*
X124233333Y-151916666D01*
X124266666Y-151783333D01*
X124300000Y-151716666D01*
X124366666Y-151650000D01*
X124466666Y-151616666D01*
X124533333Y-151616666D01*
X124633333Y-151650000D01*
X124666666Y-151683333D01*
X125300000Y-152316666D02*
X124966666Y-152316666D01*
X124966666Y-151616666D01*
X126400000Y-151616666D02*
X126066666Y-151616666D01*
X126033333Y-151950000D01*
X126066666Y-151916666D01*
X126133333Y-151883333D01*
X126300000Y-151883333D01*
X126366666Y-151916666D01*
X126400000Y-151950000D01*
X126433333Y-152016666D01*
X126433333Y-152183333D01*
X126400000Y-152250000D01*
X126366666Y-152283333D01*
X126300000Y-152316666D01*
X126133333Y-152316666D01*
X126066666Y-152283333D01*
X126033333Y-152250000D01*
X126133333Y-149750000D02*
X126133333Y-150216666D01*
X125966666Y-149483333D02*
X125800000Y-149983333D01*
X126233333Y-149983333D01*
X125766666Y-147016666D02*
X126200000Y-147016666D01*
X125966666Y-147283333D01*
X126066666Y-147283333D01*
X126133333Y-147316666D01*
X126166666Y-147350000D01*
X126200000Y-147416666D01*
X126200000Y-147583333D01*
X126166666Y-147650000D01*
X126133333Y-147683333D01*
X126066666Y-147716666D01*
X125866666Y-147716666D01*
X125800000Y-147683333D01*
X125766666Y-147650000D01*
X125800000Y-144383333D02*
X125833333Y-144350000D01*
X125900000Y-144316666D01*
X126066666Y-144316666D01*
X126133333Y-144350000D01*
X126166666Y-144383333D01*
X126200000Y-144450000D01*
X126200000Y-144516666D01*
X126166666Y-144616666D01*
X125766666Y-145016666D01*
X126200000Y-145016666D01*
X126200000Y-142516666D02*
X125800000Y-142516666D01*
X126000000Y-142516666D02*
X126000000Y-141816666D01*
X125933333Y-141916666D01*
X125866666Y-141983333D01*
X125800000Y-142016666D01*
D11*
X110450000Y-162183333D02*
X110550000Y-162216666D01*
X110716666Y-162216666D01*
X110783333Y-162183333D01*
X110816666Y-162150000D01*
X110850000Y-162083333D01*
X110850000Y-162016666D01*
X110816666Y-161950000D01*
X110783333Y-161916666D01*
X110716666Y-161883333D01*
X110583333Y-161850000D01*
X110516666Y-161816666D01*
X110483333Y-161783333D01*
X110450000Y-161716666D01*
X110450000Y-161650000D01*
X110483333Y-161583333D01*
X110516666Y-161550000D01*
X110583333Y-161516666D01*
X110750000Y-161516666D01*
X110850000Y-161550000D01*
X111083333Y-161516666D02*
X111250000Y-162216666D01*
X111383333Y-161716666D01*
X111516666Y-162216666D01*
X111683333Y-161516666D01*
X111950000Y-162216666D02*
X111950000Y-161516666D01*
X112116666Y-161516666D01*
X112216666Y-161550000D01*
X112283333Y-161616666D01*
X112316666Y-161683333D01*
X112350000Y-161816666D01*
X112350000Y-161916666D01*
X112316666Y-162050000D01*
X112283333Y-162116666D01*
X112216666Y-162183333D01*
X112116666Y-162216666D01*
X111950000Y-162216666D01*
D12*
X121366666Y-159116666D02*
X121033333Y-159116666D01*
X121000000Y-159450000D01*
X121033333Y-159416666D01*
X121100000Y-159383333D01*
X121266666Y-159383333D01*
X121333333Y-159416666D01*
X121366666Y-159450000D01*
X121400000Y-159516666D01*
X121400000Y-159683333D01*
X121366666Y-159750000D01*
X121333333Y-159783333D01*
X121266666Y-159816666D01*
X121100000Y-159816666D01*
X121033333Y-159783333D01*
X121000000Y-159750000D01*
X121600000Y-159116666D02*
X121833333Y-159816666D01*
X122066666Y-159116666D01*
X118633333Y-159816666D02*
X118633333Y-159116666D01*
X119100000Y-159116666D02*
X119233333Y-159116666D01*
X119300000Y-159150000D01*
X119366666Y-159216666D01*
X119400000Y-159350000D01*
X119400000Y-159583333D01*
X119366666Y-159716666D01*
X119300000Y-159783333D01*
X119233333Y-159816666D01*
X119100000Y-159816666D01*
X119033333Y-159783333D01*
X118966666Y-159716666D01*
X118933333Y-159583333D01*
X118933333Y-159350000D01*
X118966666Y-159216666D01*
X119033333Y-159150000D01*
X119100000Y-159116666D01*
D13*
X121357142Y-155666666D02*
X121833333Y-155666666D01*
X121261904Y-155952380D02*
X121595238Y-154952380D01*
X121928571Y-155952380D01*
X122261904Y-155952380D02*
X122261904Y-154952380D01*
X122833333Y-155952380D01*
X122833333Y-154952380D01*
X123166666Y-154952380D02*
X123738095Y-154952380D01*
X123452380Y-155952380D02*
X123452380Y-154952380D01*
D12*
X109566666Y-138916666D02*
X109233333Y-138916666D01*
X109200000Y-139250000D01*
X109233333Y-139216666D01*
X109300000Y-139183333D01*
X109466666Y-139183333D01*
X109533333Y-139216666D01*
X109566666Y-139250000D01*
X109600000Y-139316666D01*
X109600000Y-139483333D01*
X109566666Y-139550000D01*
X109533333Y-139583333D01*
X109466666Y-139616666D01*
X109300000Y-139616666D01*
X109233333Y-139583333D01*
X109200000Y-139550000D01*
X109800000Y-138916666D02*
X110033333Y-139616666D01*
X110266666Y-138916666D01*
X109133333Y-132716666D02*
X109566666Y-132716666D01*
X109333333Y-132983333D01*
X109433333Y-132983333D01*
X109500000Y-133016666D01*
X109533333Y-133050000D01*
X109566666Y-133116666D01*
X109566666Y-133283333D01*
X109533333Y-133350000D01*
X109500000Y-133383333D01*
X109433333Y-133416666D01*
X109233333Y-133416666D01*
X109166666Y-133383333D01*
X109133333Y-133350000D01*
X109766666Y-132716666D02*
X110000000Y-133416666D01*
X110233333Y-132716666D01*
X110400000Y-132716666D02*
X110833333Y-132716666D01*
X110600000Y-132983333D01*
X110700000Y-132983333D01*
X110766666Y-133016666D01*
X110800000Y-133050000D01*
X110833333Y-133116666D01*
X110833333Y-133283333D01*
X110800000Y-133350000D01*
X110766666Y-133383333D01*
X110700000Y-133416666D01*
X110500000Y-133416666D01*
X110433333Y-133383333D01*
X110400000Y-133350000D01*
X106966666Y-129750000D02*
X106900000Y-129716666D01*
X106800000Y-129716666D01*
X106700000Y-129750000D01*
X106633333Y-129816666D01*
X106600000Y-129883333D01*
X106566666Y-130016666D01*
X106566666Y-130116666D01*
X106600000Y-130250000D01*
X106633333Y-130316666D01*
X106700000Y-130383333D01*
X106800000Y-130416666D01*
X106866666Y-130416666D01*
X106966666Y-130383333D01*
X107000000Y-130350000D01*
X107000000Y-130116666D01*
X106866666Y-130116666D01*
X107300000Y-130416666D02*
X107300000Y-129716666D01*
X107700000Y-130416666D01*
X107700000Y-129716666D01*
X108033333Y-130416666D02*
X108033333Y-129716666D01*
X108200000Y-129716666D01*
X108300000Y-129750000D01*
X108366666Y-129816666D01*
X108400000Y-129883333D01*
X108433333Y-130016666D01*
X108433333Y-130116666D01*
X108400000Y-130250000D01*
X108366666Y-130316666D01*
X108300000Y-130383333D01*
X108200000Y-130416666D01*
X108033333Y-130416666D01*
X125466666Y-139316666D02*
X125133333Y-139316666D01*
X125100000Y-139650000D01*
X125133333Y-139616666D01*
X125200000Y-139583333D01*
X125366666Y-139583333D01*
X125433333Y-139616666D01*
X125466666Y-139650000D01*
X125500000Y-139716666D01*
X125500000Y-139883333D01*
X125466666Y-139950000D01*
X125433333Y-139983333D01*
X125366666Y-140016666D01*
X125200000Y-140016666D01*
X125133333Y-139983333D01*
X125100000Y-139950000D01*
X125700000Y-139316666D02*
X125933333Y-140016666D01*
X126166666Y-139316666D01*
X124433333Y-136816666D02*
X124866666Y-136816666D01*
X124633333Y-137083333D01*
X124733333Y-137083333D01*
X124800000Y-137116666D01*
X124833333Y-137150000D01*
X124866666Y-137216666D01*
X124866666Y-137383333D01*
X124833333Y-137450000D01*
X124800000Y-137483333D01*
X124733333Y-137516666D01*
X124533333Y-137516666D01*
X124466666Y-137483333D01*
X124433333Y-137450000D01*
X125066666Y-136816666D02*
X125300000Y-137516666D01*
X125533333Y-136816666D01*
X125700000Y-136816666D02*
X126133333Y-136816666D01*
X125900000Y-137083333D01*
X126000000Y-137083333D01*
X126066666Y-137116666D01*
X126100000Y-137150000D01*
X126133333Y-137216666D01*
X126133333Y-137383333D01*
X126100000Y-137450000D01*
X126066666Y-137483333D01*
X126000000Y-137516666D01*
X125800000Y-137516666D01*
X125733333Y-137483333D01*
X125700000Y-137450000D01*
X124666666Y-131650000D02*
X124600000Y-131616666D01*
X124500000Y-131616666D01*
X124400000Y-131650000D01*
X124333333Y-131716666D01*
X124300000Y-131783333D01*
X124266666Y-131916666D01*
X124266666Y-132016666D01*
X124300000Y-132150000D01*
X124333333Y-132216666D01*
X124400000Y-132283333D01*
X124500000Y-132316666D01*
X124566666Y-132316666D01*
X124666666Y-132283333D01*
X124700000Y-132250000D01*
X124700000Y-132016666D01*
X124566666Y-132016666D01*
X125000000Y-132316666D02*
X125000000Y-131616666D01*
X125400000Y-132316666D01*
X125400000Y-131616666D01*
X125733333Y-132316666D02*
X125733333Y-131616666D01*
X125900000Y-131616666D01*
X126000000Y-131650000D01*
X126066666Y-131716666D01*
X126100000Y-131783333D01*
X126133333Y-131916666D01*
X126133333Y-132016666D01*
X126100000Y-132150000D01*
X126066666Y-132216666D01*
X126000000Y-132283333D01*
X125900000Y-132316666D01*
X125733333Y-132316666D01*
D14*
X110500640Y-136698300D02*
X110500640Y-141697020D01*
X110500640Y-141697020D02*
X115499360Y-141697020D01*
X115499360Y-141697020D02*
X115499360Y-136698300D01*
X115499360Y-136698300D02*
X110500640Y-136698300D01*
D15*
X115500000Y-139197660D02*
X113000000Y-141697660D01*
D16*
X123100000Y-146500000D02*
X123100000Y-147500000D01*
X123100000Y-147500000D02*
X125200000Y-147500000D01*
X123100000Y-146500000D02*
X125200000Y-146500000D01*
D15*
X120436620Y-143443620D02*
G75*
G03X120436620Y-143443620I-152400J0D01*
G01*
X120103880Y-143951620D02*
X119750820Y-143598560D01*
X120103880Y-143951620D02*
X120103880Y-150603880D01*
X113098560Y-143598560D02*
X119750820Y-143598560D01*
X113098560Y-150603880D02*
X113098560Y-143598560D01*
X120103880Y-150603880D02*
X113098560Y-150603880D01*
D17*
X120330000Y-137200000D02*
G75*
G03X120330000Y-137200000I-130000J0D01*
G01*
D16*
X110300000Y-135450000D02*
X110300000Y-134750000D01*
X111500000Y-134750000D02*
X111500000Y-135450000D01*
X111700000Y-135450000D02*
X111700000Y-134750000D01*
X112900000Y-134750000D02*
X112900000Y-135450000D01*
X114750000Y-135600000D02*
X114750000Y-134600000D01*
X113050000Y-134600000D02*
X113050000Y-135600000D01*
X108830000Y-130710000D02*
X106170000Y-130710000D01*
X108830000Y-153630000D02*
X108830000Y-130710000D01*
X106170000Y-153630000D02*
X106170000Y-130710000D01*
X108830000Y-153630000D02*
X106170000Y-153630000D01*
X108830000Y-154900000D02*
X108830000Y-156230000D01*
X108830000Y-156230000D02*
X107500000Y-156230000D01*
X129150000Y-130710000D02*
X126490000Y-130710000D01*
X129150000Y-153630000D02*
X129150000Y-130710000D01*
X126490000Y-153630000D02*
X126490000Y-130710000D01*
X129150000Y-153630000D02*
X126490000Y-153630000D01*
X129150000Y-154900000D02*
X129150000Y-156230000D01*
X129150000Y-156230000D02*
X127820000Y-156230000D01*
X128630000Y-130530000D02*
X128630000Y-127870000D01*
X123490000Y-130530000D02*
X128630000Y-130530000D01*
X123490000Y-127870000D02*
X128630000Y-127870000D01*
X123490000Y-130530000D02*
X123490000Y-127870000D01*
X122220000Y-130530000D02*
X120890000Y-130530000D01*
X120890000Y-130530000D02*
X120890000Y-129200000D01*
X112730000Y-159570000D02*
X112730000Y-162230000D01*
X120410000Y-159570000D02*
X112730000Y-159570000D01*
X120410000Y-162230000D02*
X112730000Y-162230000D01*
X120410000Y-159570000D02*
X120410000Y-162230000D01*
X121680000Y-159570000D02*
X123010000Y-159570000D01*
X123010000Y-159570000D02*
X123010000Y-160900000D01*
X123950000Y-147720000D02*
X124950000Y-147720000D01*
X124950000Y-149080000D02*
X123950000Y-149080000D01*
X123260000Y-139200000D02*
X123260000Y-137300000D01*
X120940000Y-137800000D02*
X120940000Y-139200000D01*
D15*
X122850460Y-144336040D02*
X122850460Y-141663960D01*
X125649540Y-141663960D02*
X125649540Y-144336040D01*
X124379540Y-140901960D02*
X124120460Y-140901960D01*
X124120460Y-145098040D02*
X124379540Y-145098040D01*
D14*
X125052640Y-143000000D02*
G75*
G03X125052640Y-143000000I-802640J0D01*
G01*
D16*
X109320000Y-155000000D02*
X109320000Y-154000000D01*
X110680000Y-154000000D02*
X110680000Y-155000000D01*
X110820000Y-155000000D02*
X110820000Y-154000000D01*
X112180000Y-154000000D02*
X112180000Y-155000000D01*
X126580000Y-158030000D02*
X126580000Y-155370000D01*
X126520000Y-158030000D02*
X126580000Y-158030000D01*
X126520000Y-155370000D02*
X126580000Y-155370000D01*
X126520000Y-158030000D02*
X126520000Y-155370000D01*
X125250000Y-158030000D02*
X123920000Y-158030000D01*
X123920000Y-158030000D02*
X123920000Y-156700000D01*
X111010000Y-143837221D02*
X111010000Y-144162779D01*
X109990000Y-143837221D02*
X109990000Y-144162779D01*
X120662779Y-154490000D02*
X120337221Y-154490000D01*
X120662779Y-155510000D02*
X120337221Y-155510000D01*
D14*
X117500000Y-128050000D02*
X117500000Y-127200000D01*
X117500000Y-127200000D02*
X117500000Y-127150000D01*
X110500000Y-128050000D02*
X110500000Y-127150000D01*
X119250000Y-127850000D02*
X109500000Y-127850000D01*
X117500000Y-127200000D02*
G75*
G02X118000000Y-126700000I500000J0D01*
G01*
X117900000Y-126400000D02*
G75*
G03X117100000Y-127200000I0J-800000D01*
G01*
X117100000Y-127200000D02*
X117100000Y-127500000D01*
X117100000Y-127500000D02*
X116800000Y-127500000D01*
X116800000Y-127500000D02*
G75*
G03X116400000Y-127100000I-400000J0D01*
G01*
X110500000Y-128050000D02*
X110500000Y-127200000D01*
X110500000Y-127200000D02*
X110500000Y-127150000D01*
X110500000Y-127200000D02*
G75*
G03X110000000Y-126700000I-500000J0D01*
G01*
X110100000Y-126400000D02*
G75*
G02X110900000Y-127200000I0J-800000D01*
G01*
X110900000Y-127200000D02*
X110900000Y-127500000D01*
X110900000Y-127500000D02*
X111200000Y-127500000D01*
X111200000Y-127500000D02*
G75*
G02X111600000Y-127100000I400000J0D01*
G01*
X116400000Y-127100000D02*
X111700000Y-127100000D01*
%LPC*%
D18*
X110424440Y-137600000D03*
X110424440Y-140795320D03*
X115575560Y-140795320D03*
X115575560Y-137600000D03*
D19*
X125200000Y-147000000D03*
X123600000Y-147000000D03*
D20*
X120893820Y-144302140D03*
X120893820Y-145102240D03*
X120893820Y-145902340D03*
X120893820Y-146702440D03*
X120893820Y-147500000D03*
X120893820Y-148300100D03*
X120893820Y-149100200D03*
X120893820Y-149900300D03*
D21*
X119400300Y-151393820D03*
X118600200Y-151393820D03*
X117800100Y-151393820D03*
X117000000Y-151393820D03*
X116202440Y-151393820D03*
X115402340Y-151393820D03*
X114602240Y-151393820D03*
X113802140Y-151393820D03*
D20*
X112308620Y-149900300D03*
X112308620Y-149100200D03*
X112308620Y-148300100D03*
X112308620Y-147500000D03*
X112308620Y-146702440D03*
X112308620Y-145902340D03*
X112308620Y-145102240D03*
X112308620Y-144302140D03*
D21*
X113802140Y-142808620D03*
X114602240Y-142808620D03*
X115402340Y-142808620D03*
X116202440Y-142808620D03*
X117000000Y-142808620D03*
X117800100Y-142808620D03*
X118600200Y-142808620D03*
X119400300Y-142808620D03*
D22*
X119650000Y-137760000D03*
X118700000Y-137760000D03*
X117750000Y-137760000D03*
D23*
X117750000Y-140040000D03*
X119650000Y-140040000D03*
D24*
X109200000Y-159500000D03*
X126500000Y-159500000D03*
D25*
X110900000Y-135850000D03*
X110900000Y-134350000D03*
X112300000Y-135850000D03*
X112300000Y-134350000D03*
D26*
X113900000Y-134100000D03*
X113900000Y-136100000D03*
D27*
X107500000Y-154900000D03*
D28*
X107500000Y-152360000D03*
X107500000Y-149820000D03*
X107500000Y-147280000D03*
X107500000Y-144740000D03*
X107500000Y-142200000D03*
X107500000Y-139660000D03*
X107500000Y-137120000D03*
X107500000Y-134580000D03*
X107500000Y-132040000D03*
D27*
X127820000Y-154900000D03*
D28*
X127820000Y-152360000D03*
X127820000Y-149820000D03*
X127820000Y-147280000D03*
X127820000Y-144740000D03*
X127820000Y-142200000D03*
X127820000Y-139660000D03*
X127820000Y-137120000D03*
X127820000Y-134580000D03*
X127820000Y-132040000D03*
D27*
X122220000Y-129200000D03*
D28*
X124760000Y-129200000D03*
X127300000Y-129200000D03*
D27*
X121680000Y-160900000D03*
D28*
X119140000Y-160900000D03*
X116600000Y-160900000D03*
X114060000Y-160900000D03*
D29*
X125200000Y-148400000D03*
X123700000Y-148400000D03*
D30*
X122750000Y-137550000D03*
X121450000Y-137550000D03*
X122100000Y-137550000D03*
D31*
X121450000Y-139450000D03*
X122750000Y-139450000D03*
D32*
X123452440Y-140950220D03*
X123452440Y-145049780D03*
X125047560Y-145049780D03*
X125047560Y-140950220D03*
D33*
X110000000Y-153750000D03*
X110000000Y-155250000D03*
X111500000Y-153750000D03*
X111500000Y-155250000D03*
D27*
X125250000Y-156700000D03*
D17*
G36*
X110887493Y-142576535D02*
G01*
X110918435Y-142581125D01*
X110948778Y-142588725D01*
X110978230Y-142599263D01*
X111006508Y-142612638D01*
X111033338Y-142628719D01*
X111058463Y-142647353D01*
X111081640Y-142668360D01*
X111102647Y-142691537D01*
X111121281Y-142716662D01*
X111137362Y-142743492D01*
X111150737Y-142771770D01*
X111161275Y-142801222D01*
X111168875Y-142831565D01*
X111173465Y-142862507D01*
X111175000Y-142893750D01*
X111175000Y-143531250D01*
X111173465Y-143562493D01*
X111168875Y-143593435D01*
X111161275Y-143623778D01*
X111150737Y-143653230D01*
X111137362Y-143681508D01*
X111121281Y-143708338D01*
X111102647Y-143733463D01*
X111081640Y-143756640D01*
X111058463Y-143777647D01*
X111033338Y-143796281D01*
X111006508Y-143812362D01*
X110978230Y-143825737D01*
X110948778Y-143836275D01*
X110918435Y-143843875D01*
X110887493Y-143848465D01*
X110856250Y-143850000D01*
X110143750Y-143850000D01*
X110112507Y-143848465D01*
X110081565Y-143843875D01*
X110051222Y-143836275D01*
X110021770Y-143825737D01*
X109993492Y-143812362D01*
X109966662Y-143796281D01*
X109941537Y-143777647D01*
X109918360Y-143756640D01*
X109897353Y-143733463D01*
X109878719Y-143708338D01*
X109862638Y-143681508D01*
X109849263Y-143653230D01*
X109838725Y-143623778D01*
X109831125Y-143593435D01*
X109826535Y-143562493D01*
X109825000Y-143531250D01*
X109825000Y-142893750D01*
X109826535Y-142862507D01*
X109831125Y-142831565D01*
X109838725Y-142801222D01*
X109849263Y-142771770D01*
X109862638Y-142743492D01*
X109878719Y-142716662D01*
X109897353Y-142691537D01*
X109918360Y-142668360D01*
X109941537Y-142647353D01*
X109966662Y-142628719D01*
X109993492Y-142612638D01*
X110021770Y-142599263D01*
X110051222Y-142588725D01*
X110081565Y-142581125D01*
X110112507Y-142576535D01*
X110143750Y-142575000D01*
X110856250Y-142575000D01*
X110887493Y-142576535D01*
X110887493Y-142576535D01*
G37*
D34*
X110500000Y-143212500D03*
D17*
G36*
X110887493Y-144151535D02*
G01*
X110918435Y-144156125D01*
X110948778Y-144163725D01*
X110978230Y-144174263D01*
X111006508Y-144187638D01*
X111033338Y-144203719D01*
X111058463Y-144222353D01*
X111081640Y-144243360D01*
X111102647Y-144266537D01*
X111121281Y-144291662D01*
X111137362Y-144318492D01*
X111150737Y-144346770D01*
X111161275Y-144376222D01*
X111168875Y-144406565D01*
X111173465Y-144437507D01*
X111175000Y-144468750D01*
X111175000Y-145106250D01*
X111173465Y-145137493D01*
X111168875Y-145168435D01*
X111161275Y-145198778D01*
X111150737Y-145228230D01*
X111137362Y-145256508D01*
X111121281Y-145283338D01*
X111102647Y-145308463D01*
X111081640Y-145331640D01*
X111058463Y-145352647D01*
X111033338Y-145371281D01*
X111006508Y-145387362D01*
X110978230Y-145400737D01*
X110948778Y-145411275D01*
X110918435Y-145418875D01*
X110887493Y-145423465D01*
X110856250Y-145425000D01*
X110143750Y-145425000D01*
X110112507Y-145423465D01*
X110081565Y-145418875D01*
X110051222Y-145411275D01*
X110021770Y-145400737D01*
X109993492Y-145387362D01*
X109966662Y-145371281D01*
X109941537Y-145352647D01*
X109918360Y-145331640D01*
X109897353Y-145308463D01*
X109878719Y-145283338D01*
X109862638Y-145256508D01*
X109849263Y-145228230D01*
X109838725Y-145198778D01*
X109831125Y-145168435D01*
X109826535Y-145137493D01*
X109825000Y-145106250D01*
X109825000Y-144468750D01*
X109826535Y-144437507D01*
X109831125Y-144406565D01*
X109838725Y-144376222D01*
X109849263Y-144346770D01*
X109862638Y-144318492D01*
X109878719Y-144291662D01*
X109897353Y-144266537D01*
X109918360Y-144243360D01*
X109941537Y-144222353D01*
X109966662Y-144203719D01*
X109993492Y-144187638D01*
X110021770Y-144174263D01*
X110051222Y-144163725D01*
X110081565Y-144156125D01*
X110112507Y-144151535D01*
X110143750Y-144150000D01*
X110856250Y-144150000D01*
X110887493Y-144151535D01*
X110887493Y-144151535D01*
G37*
D34*
X110500000Y-144787500D03*
D17*
G36*
X120062493Y-154326535D02*
G01*
X120093435Y-154331125D01*
X120123778Y-154338725D01*
X120153230Y-154349263D01*
X120181508Y-154362638D01*
X120208338Y-154378719D01*
X120233463Y-154397353D01*
X120256640Y-154418360D01*
X120277647Y-154441537D01*
X120296281Y-154466662D01*
X120312362Y-154493492D01*
X120325737Y-154521770D01*
X120336275Y-154551222D01*
X120343875Y-154581565D01*
X120348465Y-154612507D01*
X120350000Y-154643750D01*
X120350000Y-155356250D01*
X120348465Y-155387493D01*
X120343875Y-155418435D01*
X120336275Y-155448778D01*
X120325737Y-155478230D01*
X120312362Y-155506508D01*
X120296281Y-155533338D01*
X120277647Y-155558463D01*
X120256640Y-155581640D01*
X120233463Y-155602647D01*
X120208338Y-155621281D01*
X120181508Y-155637362D01*
X120153230Y-155650737D01*
X120123778Y-155661275D01*
X120093435Y-155668875D01*
X120062493Y-155673465D01*
X120031250Y-155675000D01*
X119393750Y-155675000D01*
X119362507Y-155673465D01*
X119331565Y-155668875D01*
X119301222Y-155661275D01*
X119271770Y-155650737D01*
X119243492Y-155637362D01*
X119216662Y-155621281D01*
X119191537Y-155602647D01*
X119168360Y-155581640D01*
X119147353Y-155558463D01*
X119128719Y-155533338D01*
X119112638Y-155506508D01*
X119099263Y-155478230D01*
X119088725Y-155448778D01*
X119081125Y-155418435D01*
X119076535Y-155387493D01*
X119075000Y-155356250D01*
X119075000Y-154643750D01*
X119076535Y-154612507D01*
X119081125Y-154581565D01*
X119088725Y-154551222D01*
X119099263Y-154521770D01*
X119112638Y-154493492D01*
X119128719Y-154466662D01*
X119147353Y-154441537D01*
X119168360Y-154418360D01*
X119191537Y-154397353D01*
X119216662Y-154378719D01*
X119243492Y-154362638D01*
X119271770Y-154349263D01*
X119301222Y-154338725D01*
X119331565Y-154331125D01*
X119362507Y-154326535D01*
X119393750Y-154325000D01*
X120031250Y-154325000D01*
X120062493Y-154326535D01*
X120062493Y-154326535D01*
G37*
D34*
X119712500Y-155000000D03*
D17*
G36*
X121637493Y-154326535D02*
G01*
X121668435Y-154331125D01*
X121698778Y-154338725D01*
X121728230Y-154349263D01*
X121756508Y-154362638D01*
X121783338Y-154378719D01*
X121808463Y-154397353D01*
X121831640Y-154418360D01*
X121852647Y-154441537D01*
X121871281Y-154466662D01*
X121887362Y-154493492D01*
X121900737Y-154521770D01*
X121911275Y-154551222D01*
X121918875Y-154581565D01*
X121923465Y-154612507D01*
X121925000Y-154643750D01*
X121925000Y-155356250D01*
X121923465Y-155387493D01*
X121918875Y-155418435D01*
X121911275Y-155448778D01*
X121900737Y-155478230D01*
X121887362Y-155506508D01*
X121871281Y-155533338D01*
X121852647Y-155558463D01*
X121831640Y-155581640D01*
X121808463Y-155602647D01*
X121783338Y-155621281D01*
X121756508Y-155637362D01*
X121728230Y-155650737D01*
X121698778Y-155661275D01*
X121668435Y-155668875D01*
X121637493Y-155673465D01*
X121606250Y-155675000D01*
X120968750Y-155675000D01*
X120937507Y-155673465D01*
X120906565Y-155668875D01*
X120876222Y-155661275D01*
X120846770Y-155650737D01*
X120818492Y-155637362D01*
X120791662Y-155621281D01*
X120766537Y-155602647D01*
X120743360Y-155581640D01*
X120722353Y-155558463D01*
X120703719Y-155533338D01*
X120687638Y-155506508D01*
X120674263Y-155478230D01*
X120663725Y-155448778D01*
X120656125Y-155418435D01*
X120651535Y-155387493D01*
X120650000Y-155356250D01*
X120650000Y-154643750D01*
X120651535Y-154612507D01*
X120656125Y-154581565D01*
X120663725Y-154551222D01*
X120674263Y-154521770D01*
X120687638Y-154493492D01*
X120703719Y-154466662D01*
X120722353Y-154441537D01*
X120743360Y-154418360D01*
X120766537Y-154397353D01*
X120791662Y-154378719D01*
X120818492Y-154362638D01*
X120846770Y-154349263D01*
X120876222Y-154338725D01*
X120906565Y-154331125D01*
X120937507Y-154326535D01*
X120968750Y-154325000D01*
X121606250Y-154325000D01*
X121637493Y-154326535D01*
X121637493Y-154326535D01*
G37*
D34*
X121287500Y-155000000D03*
D35*
X118560000Y-135720000D03*
X116020000Y-135720000D03*
X121100000Y-135720000D03*
D36*
X115300000Y-131975000D03*
X114650000Y-131975000D03*
X114000000Y-131975000D03*
X113350000Y-131975000D03*
X112700000Y-131975000D03*
D37*
X116500000Y-132000000D03*
X111500000Y-132000000D03*
D38*
X117500000Y-129300000D03*
X110500000Y-129300000D03*
D39*
X115000000Y-129300000D03*
X113000000Y-129300000D03*
X117050000Y-129300000D03*
X110950000Y-129300000D03*
M02*
