G04 #@! TF.GenerationSoftware,KiCad,Pcbnew,5.1.2-f72e74a~84~ubuntu18.04.1*
G04 #@! TF.CreationDate,2019-07-10T23:14:27-06:00*
G04 #@! TF.ProjectId,rfboard,7266626f-6172-4642-9e6b-696361645f70,rev?*
G04 #@! TF.SameCoordinates,Original*
G04 #@! TF.FileFunction,Copper,L1,Top*
G04 #@! TF.FilePolarity,Positive*
%FSLAX46Y46*%
G04 Gerber Fmt 4.6, Leading zero omitted, Abs format (unit mm)*
G04 Created by KiCad (PCBNEW 5.1.2-f72e74a~84~ubuntu18.04.1) date 2019-07-10 23:14:27*
%MOMM*%
%LPD*%
G04 APERTURE LIST*
%ADD10R,1.651000X0.998220*%
%ADD11R,0.800000X0.800000*%
%ADD12R,1.270000X0.558800*%
%ADD13R,0.558800X1.270000*%
%ADD14R,0.600000X1.140000*%
%ADD15C,2.700000*%
%ADD16R,0.750000X0.800000*%
%ADD17R,1.250000X1.000000*%
%ADD18R,1.700000X1.700000*%
%ADD19O,1.700000X1.700000*%
%ADD20R,0.500000X0.900000*%
%ADD21R,0.400000X0.650000*%
%ADD22R,0.998220X0.899160*%
%ADD23R,0.900000X0.500000*%
%ADD24C,0.100000*%
%ADD25C,0.875000*%
%ADD26R,0.400000X1.350000*%
%ADD27C,1.408000*%
%ADD28C,1.800000*%
%ADD29R,1.500000X1.550000*%
%ADD30C,0.600000*%
%ADD31C,1.000000*%
%ADD32C,0.250000*%
%ADD33C,0.200000*%
%ADD34C,0.750000*%
%ADD35C,1.000000*%
%ADD36C,0.500000*%
G04 APERTURE END LIST*
D10*
X110424440Y-137600000D03*
X110424440Y-140795320D03*
X115575560Y-140795320D03*
X115575560Y-137600000D03*
D11*
X125200000Y-147000000D03*
X123600000Y-147000000D03*
D12*
X120893820Y-144302140D03*
X120893820Y-145102240D03*
X120893820Y-145902340D03*
X120893820Y-146702440D03*
X120893820Y-147500000D03*
X120893820Y-148300100D03*
X120893820Y-149100200D03*
X120893820Y-149900300D03*
D13*
X119400300Y-151393820D03*
X118600200Y-151393820D03*
X117800100Y-151393820D03*
X117000000Y-151393820D03*
X116202440Y-151393820D03*
X115402340Y-151393820D03*
X114602240Y-151393820D03*
X113802140Y-151393820D03*
D12*
X112308620Y-149900300D03*
X112308620Y-149100200D03*
X112308620Y-148300100D03*
X112308620Y-147500000D03*
X112308620Y-146702440D03*
X112308620Y-145902340D03*
X112308620Y-145102240D03*
X112308620Y-144302140D03*
D13*
X113802140Y-142808620D03*
X114602240Y-142808620D03*
X115402340Y-142808620D03*
X116202440Y-142808620D03*
X117000000Y-142808620D03*
X117800100Y-142808620D03*
X118600200Y-142808620D03*
X119400300Y-142808620D03*
D14*
X119650000Y-137760000D03*
X118700000Y-137760000D03*
X117750000Y-137760000D03*
X117750000Y-140040000D03*
X119650000Y-140040000D03*
D15*
X109200000Y-159500000D03*
X126500000Y-159500000D03*
D16*
X110900000Y-135850000D03*
X110900000Y-134350000D03*
X112300000Y-135850000D03*
X112300000Y-134350000D03*
D17*
X113900000Y-134100000D03*
X113900000Y-136100000D03*
D18*
X107500000Y-154900000D03*
D19*
X107500000Y-152360000D03*
X107500000Y-149820000D03*
X107500000Y-147280000D03*
X107500000Y-144740000D03*
X107500000Y-142200000D03*
X107500000Y-139660000D03*
X107500000Y-137120000D03*
X107500000Y-134580000D03*
X107500000Y-132040000D03*
D18*
X127820000Y-154900000D03*
D19*
X127820000Y-152360000D03*
X127820000Y-149820000D03*
X127820000Y-147280000D03*
X127820000Y-144740000D03*
X127820000Y-142200000D03*
X127820000Y-139660000D03*
X127820000Y-137120000D03*
X127820000Y-134580000D03*
X127820000Y-132040000D03*
D18*
X122220000Y-129200000D03*
D19*
X124760000Y-129200000D03*
X127300000Y-129200000D03*
D18*
X121680000Y-160900000D03*
D19*
X119140000Y-160900000D03*
X116600000Y-160900000D03*
X114060000Y-160900000D03*
D20*
X125200000Y-148400000D03*
X123700000Y-148400000D03*
D21*
X122750000Y-137550000D03*
X121450000Y-137550000D03*
X122100000Y-137550000D03*
X121450000Y-139450000D03*
X122750000Y-139450000D03*
D22*
X123452440Y-140950220D03*
X123452440Y-145049780D03*
X125047560Y-145049780D03*
X125047560Y-140950220D03*
D23*
X110000000Y-153750000D03*
X110000000Y-155250000D03*
X111500000Y-153750000D03*
X111500000Y-155250000D03*
D18*
X125250000Y-156700000D03*
D24*
G36*
X110777691Y-142776053D02*
G01*
X110798926Y-142779203D01*
X110819750Y-142784419D01*
X110839962Y-142791651D01*
X110859368Y-142800830D01*
X110877781Y-142811866D01*
X110895024Y-142824654D01*
X110910930Y-142839070D01*
X110925346Y-142854976D01*
X110938134Y-142872219D01*
X110949170Y-142890632D01*
X110958349Y-142910038D01*
X110965581Y-142930250D01*
X110970797Y-142951074D01*
X110973947Y-142972309D01*
X110975000Y-142993750D01*
X110975000Y-143431250D01*
X110973947Y-143452691D01*
X110970797Y-143473926D01*
X110965581Y-143494750D01*
X110958349Y-143514962D01*
X110949170Y-143534368D01*
X110938134Y-143552781D01*
X110925346Y-143570024D01*
X110910930Y-143585930D01*
X110895024Y-143600346D01*
X110877781Y-143613134D01*
X110859368Y-143624170D01*
X110839962Y-143633349D01*
X110819750Y-143640581D01*
X110798926Y-143645797D01*
X110777691Y-143648947D01*
X110756250Y-143650000D01*
X110243750Y-143650000D01*
X110222309Y-143648947D01*
X110201074Y-143645797D01*
X110180250Y-143640581D01*
X110160038Y-143633349D01*
X110140632Y-143624170D01*
X110122219Y-143613134D01*
X110104976Y-143600346D01*
X110089070Y-143585930D01*
X110074654Y-143570024D01*
X110061866Y-143552781D01*
X110050830Y-143534368D01*
X110041651Y-143514962D01*
X110034419Y-143494750D01*
X110029203Y-143473926D01*
X110026053Y-143452691D01*
X110025000Y-143431250D01*
X110025000Y-142993750D01*
X110026053Y-142972309D01*
X110029203Y-142951074D01*
X110034419Y-142930250D01*
X110041651Y-142910038D01*
X110050830Y-142890632D01*
X110061866Y-142872219D01*
X110074654Y-142854976D01*
X110089070Y-142839070D01*
X110104976Y-142824654D01*
X110122219Y-142811866D01*
X110140632Y-142800830D01*
X110160038Y-142791651D01*
X110180250Y-142784419D01*
X110201074Y-142779203D01*
X110222309Y-142776053D01*
X110243750Y-142775000D01*
X110756250Y-142775000D01*
X110777691Y-142776053D01*
X110777691Y-142776053D01*
G37*
D25*
X110500000Y-143212500D03*
D24*
G36*
X110777691Y-144351053D02*
G01*
X110798926Y-144354203D01*
X110819750Y-144359419D01*
X110839962Y-144366651D01*
X110859368Y-144375830D01*
X110877781Y-144386866D01*
X110895024Y-144399654D01*
X110910930Y-144414070D01*
X110925346Y-144429976D01*
X110938134Y-144447219D01*
X110949170Y-144465632D01*
X110958349Y-144485038D01*
X110965581Y-144505250D01*
X110970797Y-144526074D01*
X110973947Y-144547309D01*
X110975000Y-144568750D01*
X110975000Y-145006250D01*
X110973947Y-145027691D01*
X110970797Y-145048926D01*
X110965581Y-145069750D01*
X110958349Y-145089962D01*
X110949170Y-145109368D01*
X110938134Y-145127781D01*
X110925346Y-145145024D01*
X110910930Y-145160930D01*
X110895024Y-145175346D01*
X110877781Y-145188134D01*
X110859368Y-145199170D01*
X110839962Y-145208349D01*
X110819750Y-145215581D01*
X110798926Y-145220797D01*
X110777691Y-145223947D01*
X110756250Y-145225000D01*
X110243750Y-145225000D01*
X110222309Y-145223947D01*
X110201074Y-145220797D01*
X110180250Y-145215581D01*
X110160038Y-145208349D01*
X110140632Y-145199170D01*
X110122219Y-145188134D01*
X110104976Y-145175346D01*
X110089070Y-145160930D01*
X110074654Y-145145024D01*
X110061866Y-145127781D01*
X110050830Y-145109368D01*
X110041651Y-145089962D01*
X110034419Y-145069750D01*
X110029203Y-145048926D01*
X110026053Y-145027691D01*
X110025000Y-145006250D01*
X110025000Y-144568750D01*
X110026053Y-144547309D01*
X110029203Y-144526074D01*
X110034419Y-144505250D01*
X110041651Y-144485038D01*
X110050830Y-144465632D01*
X110061866Y-144447219D01*
X110074654Y-144429976D01*
X110089070Y-144414070D01*
X110104976Y-144399654D01*
X110122219Y-144386866D01*
X110140632Y-144375830D01*
X110160038Y-144366651D01*
X110180250Y-144359419D01*
X110201074Y-144354203D01*
X110222309Y-144351053D01*
X110243750Y-144350000D01*
X110756250Y-144350000D01*
X110777691Y-144351053D01*
X110777691Y-144351053D01*
G37*
D25*
X110500000Y-144787500D03*
D24*
G36*
X119952691Y-154526053D02*
G01*
X119973926Y-154529203D01*
X119994750Y-154534419D01*
X120014962Y-154541651D01*
X120034368Y-154550830D01*
X120052781Y-154561866D01*
X120070024Y-154574654D01*
X120085930Y-154589070D01*
X120100346Y-154604976D01*
X120113134Y-154622219D01*
X120124170Y-154640632D01*
X120133349Y-154660038D01*
X120140581Y-154680250D01*
X120145797Y-154701074D01*
X120148947Y-154722309D01*
X120150000Y-154743750D01*
X120150000Y-155256250D01*
X120148947Y-155277691D01*
X120145797Y-155298926D01*
X120140581Y-155319750D01*
X120133349Y-155339962D01*
X120124170Y-155359368D01*
X120113134Y-155377781D01*
X120100346Y-155395024D01*
X120085930Y-155410930D01*
X120070024Y-155425346D01*
X120052781Y-155438134D01*
X120034368Y-155449170D01*
X120014962Y-155458349D01*
X119994750Y-155465581D01*
X119973926Y-155470797D01*
X119952691Y-155473947D01*
X119931250Y-155475000D01*
X119493750Y-155475000D01*
X119472309Y-155473947D01*
X119451074Y-155470797D01*
X119430250Y-155465581D01*
X119410038Y-155458349D01*
X119390632Y-155449170D01*
X119372219Y-155438134D01*
X119354976Y-155425346D01*
X119339070Y-155410930D01*
X119324654Y-155395024D01*
X119311866Y-155377781D01*
X119300830Y-155359368D01*
X119291651Y-155339962D01*
X119284419Y-155319750D01*
X119279203Y-155298926D01*
X119276053Y-155277691D01*
X119275000Y-155256250D01*
X119275000Y-154743750D01*
X119276053Y-154722309D01*
X119279203Y-154701074D01*
X119284419Y-154680250D01*
X119291651Y-154660038D01*
X119300830Y-154640632D01*
X119311866Y-154622219D01*
X119324654Y-154604976D01*
X119339070Y-154589070D01*
X119354976Y-154574654D01*
X119372219Y-154561866D01*
X119390632Y-154550830D01*
X119410038Y-154541651D01*
X119430250Y-154534419D01*
X119451074Y-154529203D01*
X119472309Y-154526053D01*
X119493750Y-154525000D01*
X119931250Y-154525000D01*
X119952691Y-154526053D01*
X119952691Y-154526053D01*
G37*
D25*
X119712500Y-155000000D03*
D24*
G36*
X121527691Y-154526053D02*
G01*
X121548926Y-154529203D01*
X121569750Y-154534419D01*
X121589962Y-154541651D01*
X121609368Y-154550830D01*
X121627781Y-154561866D01*
X121645024Y-154574654D01*
X121660930Y-154589070D01*
X121675346Y-154604976D01*
X121688134Y-154622219D01*
X121699170Y-154640632D01*
X121708349Y-154660038D01*
X121715581Y-154680250D01*
X121720797Y-154701074D01*
X121723947Y-154722309D01*
X121725000Y-154743750D01*
X121725000Y-155256250D01*
X121723947Y-155277691D01*
X121720797Y-155298926D01*
X121715581Y-155319750D01*
X121708349Y-155339962D01*
X121699170Y-155359368D01*
X121688134Y-155377781D01*
X121675346Y-155395024D01*
X121660930Y-155410930D01*
X121645024Y-155425346D01*
X121627781Y-155438134D01*
X121609368Y-155449170D01*
X121589962Y-155458349D01*
X121569750Y-155465581D01*
X121548926Y-155470797D01*
X121527691Y-155473947D01*
X121506250Y-155475000D01*
X121068750Y-155475000D01*
X121047309Y-155473947D01*
X121026074Y-155470797D01*
X121005250Y-155465581D01*
X120985038Y-155458349D01*
X120965632Y-155449170D01*
X120947219Y-155438134D01*
X120929976Y-155425346D01*
X120914070Y-155410930D01*
X120899654Y-155395024D01*
X120886866Y-155377781D01*
X120875830Y-155359368D01*
X120866651Y-155339962D01*
X120859419Y-155319750D01*
X120854203Y-155298926D01*
X120851053Y-155277691D01*
X120850000Y-155256250D01*
X120850000Y-154743750D01*
X120851053Y-154722309D01*
X120854203Y-154701074D01*
X120859419Y-154680250D01*
X120866651Y-154660038D01*
X120875830Y-154640632D01*
X120886866Y-154622219D01*
X120899654Y-154604976D01*
X120914070Y-154589070D01*
X120929976Y-154574654D01*
X120947219Y-154561866D01*
X120965632Y-154550830D01*
X120985038Y-154541651D01*
X121005250Y-154534419D01*
X121026074Y-154529203D01*
X121047309Y-154526053D01*
X121068750Y-154525000D01*
X121506250Y-154525000D01*
X121527691Y-154526053D01*
X121527691Y-154526053D01*
G37*
D25*
X121287500Y-155000000D03*
D26*
X115300000Y-131975000D03*
X114650000Y-131975000D03*
X114000000Y-131975000D03*
X113350000Y-131975000D03*
X112700000Y-131975000D03*
D27*
X116500000Y-132000000D03*
X111500000Y-132000000D03*
D28*
X117500000Y-129300000D03*
X110500000Y-129300000D03*
D29*
X115000000Y-129300000D03*
X113000000Y-129300000D03*
X117050000Y-129300000D03*
X110950000Y-129300000D03*
D30*
X115500000Y-158000000D03*
X112000000Y-159000000D03*
X120893820Y-145902340D03*
X121498480Y-154996160D03*
X122528609Y-142473620D03*
X125250000Y-137000000D03*
X125250000Y-140000000D03*
X112698198Y-137219318D03*
X110900000Y-135850000D03*
X119499500Y-154996160D03*
X120750000Y-142000000D03*
X124197733Y-147040500D03*
X123452440Y-140950220D03*
X120824274Y-137765965D03*
X120500000Y-158900000D03*
X110500000Y-145100000D03*
X122799002Y-137550000D03*
X118700000Y-137760000D03*
X119300000Y-148300000D03*
D31*
X113900000Y-134100000D03*
D30*
X123452440Y-145049780D03*
X123300000Y-158900000D03*
X123583645Y-138001126D03*
X126100000Y-131600000D03*
X110200000Y-139600000D03*
X118732268Y-131980308D03*
X125600000Y-152300000D03*
X114800000Y-130600000D03*
X125600000Y-133700000D03*
X113500000Y-130800000D03*
X118000000Y-132300000D03*
X123500000Y-142400000D03*
X122200000Y-151800000D03*
X119100000Y-144300000D03*
X116375990Y-145100000D03*
X122069750Y-136955161D03*
X112600000Y-142700000D03*
X115500000Y-145900000D03*
X113500000Y-146700000D03*
X111291520Y-147457063D03*
X111446754Y-148240850D03*
X114300000Y-148300000D03*
X117800000Y-150100000D03*
X117800000Y-144000000D03*
X122027832Y-146875990D03*
X119470028Y-147247488D03*
X117300000Y-147400000D03*
X117000000Y-144000000D03*
X125047560Y-140950220D03*
X120500000Y-151127717D03*
X124000000Y-151000000D03*
X120893820Y-149100200D03*
X124821743Y-145651989D03*
X110124010Y-156000000D03*
X110000000Y-153750000D03*
X112457623Y-153147790D03*
X112500000Y-157000000D03*
X118000000Y-157000000D03*
X118000000Y-153000000D03*
D32*
X115500000Y-158000000D02*
X119395070Y-158000000D01*
X119395070Y-158000000D02*
X121498480Y-155896590D01*
X121498480Y-155896590D02*
X121498480Y-154996160D01*
X109500000Y-156500000D02*
X112000000Y-159000000D01*
X109500000Y-155550000D02*
X109500000Y-156500000D01*
X110000000Y-155250000D02*
X109800000Y-155250000D01*
X109800000Y-155250000D02*
X109500000Y-155550000D01*
X110000000Y-155250000D02*
X111500000Y-155250000D01*
X122528609Y-142049356D02*
X122528609Y-142473620D01*
X121494640Y-155000000D02*
X121498480Y-154996160D01*
X120840010Y-140099001D02*
X122528609Y-141787600D01*
X122528609Y-141787600D02*
X122528609Y-142049356D01*
X120750000Y-140099001D02*
X120840010Y-140099001D01*
X120259001Y-140099001D02*
X120750000Y-140099001D01*
X120750000Y-140099001D02*
X125150999Y-140099001D01*
X125250000Y-137000000D02*
X127700000Y-137000000D01*
X127700000Y-137000000D02*
X127820000Y-137120000D01*
X119650000Y-140040000D02*
X120200000Y-140040000D01*
X125150999Y-140099001D02*
X125250000Y-140000000D01*
X120200000Y-140040000D02*
X120259001Y-140099001D01*
X115337069Y-139170999D02*
X115362069Y-139145999D01*
X115362069Y-139145999D02*
X118255999Y-139145999D01*
X118255999Y-139145999D02*
X119150000Y-140040000D01*
X127800000Y-137100000D02*
X127676997Y-136976997D01*
X112998197Y-137519317D02*
X112698198Y-137219318D01*
X114395999Y-138917119D02*
X112998197Y-137519317D01*
X114395999Y-139170999D02*
X114395999Y-138917119D01*
D33*
X112308620Y-143822740D02*
X112308620Y-144302140D01*
X111473620Y-142389806D02*
X111473620Y-142987740D01*
X114692427Y-139170999D02*
X111473620Y-142389806D01*
X115337069Y-139170999D02*
X114692427Y-139170999D01*
D32*
X119650000Y-140040000D02*
X119650000Y-140310000D01*
X110900000Y-135675000D02*
X110900000Y-135650000D01*
D33*
X115337069Y-139170999D02*
X114395999Y-139170999D01*
D32*
X119650000Y-140040000D02*
X119150000Y-140040000D01*
D33*
X127800000Y-137100000D02*
X127820000Y-137120000D01*
D34*
X107780000Y-134860000D02*
X107500000Y-134580000D01*
D33*
X111473620Y-142987740D02*
X112308620Y-143822740D01*
D32*
X110500000Y-143212500D02*
X111287500Y-144000000D01*
X112131360Y-144000000D02*
X112308620Y-143822740D01*
X111287500Y-144000000D02*
X112131360Y-144000000D01*
X110900000Y-135825000D02*
X110900000Y-135850000D01*
X109655000Y-134580000D02*
X110900000Y-135825000D01*
X107500000Y-134580000D02*
X109655000Y-134580000D01*
D35*
X120200001Y-159199999D02*
X120500000Y-158900000D01*
X114452659Y-159199999D02*
X120200001Y-159199999D01*
X113250220Y-157997560D02*
X114452659Y-159199999D01*
D33*
X122750000Y-137025000D02*
X122750000Y-137550000D01*
X122750000Y-136748887D02*
X122750000Y-137025000D01*
X121450000Y-136688387D02*
X121782228Y-136356159D01*
X122357272Y-136356159D02*
X122750000Y-136748887D01*
X121782228Y-136356159D02*
X122357272Y-136356159D01*
X121450000Y-137550000D02*
X121450000Y-136688387D01*
D32*
X115575560Y-140795320D02*
X116417121Y-140795320D01*
X120150608Y-141400608D02*
X120750000Y-142000000D01*
X116417121Y-140795320D02*
X117022409Y-141400608D01*
X117022409Y-141400608D02*
X120150608Y-141400608D01*
X123773469Y-147040500D02*
X124197733Y-147040500D01*
X123640500Y-147040500D02*
X123773469Y-147040500D01*
X123600000Y-147000000D02*
X123640500Y-147040500D01*
X123600000Y-147000000D02*
X122950000Y-147000000D01*
X122950000Y-147000000D02*
X122450000Y-147500000D01*
X122450000Y-147500000D02*
X121778820Y-147500000D01*
X121778820Y-147500000D02*
X120893820Y-147500000D01*
D36*
X121450000Y-137550000D02*
X121450000Y-137564503D01*
X121450000Y-137564503D02*
X121248538Y-137765965D01*
X121248538Y-137765965D02*
X120824274Y-137765965D01*
X113250220Y-157997560D02*
X113250220Y-160090220D01*
X113250220Y-160090220D02*
X114060000Y-160900000D01*
D35*
X120500000Y-158900000D02*
X122300000Y-158900000D01*
D32*
X112308620Y-145102240D02*
X110502240Y-145102240D01*
X110502240Y-145102240D02*
X110500000Y-145100000D01*
D36*
X122750000Y-137550000D02*
X122799002Y-137550000D01*
X108840000Y-130700000D02*
X111875000Y-130700000D01*
X111875000Y-130700000D02*
X112075000Y-130900000D01*
X107500000Y-132040000D02*
X108840000Y-130700000D01*
D32*
X112700000Y-131975000D02*
X112700000Y-131525000D01*
X112700000Y-131525000D02*
X112075000Y-130900000D01*
X120893820Y-147500000D02*
X120100000Y-147500000D01*
X120100000Y-147500000D02*
X119300000Y-148300000D01*
D34*
X112300000Y-134300000D02*
X110900000Y-134300000D01*
X113900000Y-134100000D02*
X112550000Y-134100000D01*
X112550000Y-134100000D02*
X112300000Y-134350000D01*
D32*
X112700000Y-131975000D02*
X112700000Y-133750000D01*
X112700000Y-133750000D02*
X112300000Y-134150000D01*
X107710000Y-132250000D02*
X107500000Y-132040000D01*
D35*
X122300000Y-158900000D02*
X123300000Y-158900000D01*
X107500000Y-137120000D02*
X107500000Y-139660000D01*
D32*
X119894785Y-137760000D02*
X119650000Y-137760000D01*
X122750000Y-139450000D02*
X122750000Y-138834771D01*
X123283646Y-138301125D02*
X123583645Y-138001126D01*
X122193840Y-138768840D02*
X120903625Y-138768840D01*
X122750000Y-138834771D02*
X123283646Y-138301125D01*
X120903625Y-138768840D02*
X119894785Y-137760000D01*
X122750000Y-139450000D02*
X122750000Y-139325000D01*
X122750000Y-139325000D02*
X122193840Y-138768840D01*
X115300000Y-131975000D02*
X115300000Y-131623522D01*
X116123522Y-130800000D02*
X118000000Y-130800000D01*
X115300000Y-131623522D02*
X116123522Y-130800000D01*
D36*
X122220000Y-129200000D02*
X122220000Y-130550000D01*
X122220000Y-130550000D02*
X123270000Y-131600000D01*
X123270000Y-131600000D02*
X126100000Y-131600000D01*
X110424440Y-137600000D02*
X107980000Y-137600000D01*
X107980000Y-137600000D02*
X107500000Y-137120000D01*
X112300000Y-135650000D02*
X112300000Y-135724440D01*
X112300000Y-135900000D02*
X110424440Y-137775560D01*
D32*
X117750000Y-137760000D02*
X117750000Y-137256798D01*
X117750000Y-137256798D02*
X118140799Y-136865999D01*
X118140799Y-136865999D02*
X119575999Y-136865999D01*
X119575999Y-136865999D02*
X119650000Y-136940000D01*
X119650000Y-136940000D02*
X119650000Y-137760000D01*
X115300000Y-134625000D02*
X115300000Y-135040000D01*
D34*
X122220000Y-129200000D02*
X120620000Y-129200000D01*
D32*
X118000000Y-130800000D02*
X118400000Y-130800000D01*
D34*
X120620000Y-129200000D02*
X119020000Y-130800000D01*
X119020000Y-130800000D02*
X118000000Y-130800000D01*
X113900000Y-135900000D02*
X112550000Y-135900000D01*
X114025000Y-135900000D02*
X113900000Y-135900000D01*
D32*
X115300000Y-131975000D02*
X115300000Y-133200000D01*
D34*
X115300000Y-134825000D02*
X115300000Y-133200000D01*
D32*
X116669001Y-136409001D02*
X115609001Y-136409001D01*
X117750000Y-137490000D02*
X116669001Y-136409001D01*
X117750000Y-137760000D02*
X117750000Y-137490000D01*
D34*
X115300000Y-134825000D02*
X114662500Y-135462500D01*
D32*
X115609001Y-136409001D02*
X114662500Y-135462500D01*
D34*
X114662500Y-135462500D02*
X114025000Y-136100000D01*
D32*
X110424440Y-140795320D02*
X110424440Y-139824440D01*
X110424440Y-139824440D02*
X110200000Y-139600000D01*
D33*
X120985143Y-139450000D02*
X120164144Y-138629001D01*
X121450000Y-139450000D02*
X120985143Y-139450000D01*
X120164144Y-138629001D02*
X116930951Y-138629001D01*
X115901950Y-137600000D02*
X115575560Y-137600000D01*
X116930951Y-138629001D02*
X115901950Y-137600000D01*
D32*
X125200000Y-148400000D02*
X125200000Y-147000000D01*
X118921379Y-152599999D02*
X125300001Y-152599999D01*
X118600200Y-152278820D02*
X118921379Y-152599999D01*
X125300001Y-152599999D02*
X125600000Y-152300000D01*
X118600200Y-151393820D02*
X118600200Y-152278820D01*
X119032267Y-131680309D02*
X118732268Y-131980308D01*
X121757831Y-131680309D02*
X119032267Y-131680309D01*
X125600000Y-133700000D02*
X123777522Y-133700000D01*
X123777522Y-133700000D02*
X121757831Y-131680309D01*
X114800000Y-130600000D02*
X114650000Y-130750000D01*
X114650000Y-130750000D02*
X114650000Y-131975000D01*
X125874002Y-141655670D02*
X125874002Y-139074002D01*
X125129672Y-142400000D02*
X125874002Y-141655670D01*
X123500000Y-142400000D02*
X125129672Y-142400000D01*
X119400300Y-151393820D02*
X120130482Y-152124002D01*
X121875998Y-152124002D02*
X121900001Y-152099999D01*
X120130482Y-152124002D02*
X121875998Y-152124002D01*
X121900001Y-152099999D02*
X122200000Y-151800000D01*
X113500000Y-130800000D02*
X113924264Y-130800000D01*
X113924264Y-130800000D02*
X114000000Y-130875736D01*
X114000000Y-130875736D02*
X114000000Y-131050000D01*
X114000000Y-131050000D02*
X114000000Y-131975000D01*
X123500000Y-142400000D02*
X123924264Y-142400000D01*
X114100000Y-132075000D02*
X114100000Y-131600000D01*
X118299999Y-132599999D02*
X118000000Y-132300000D01*
X120730999Y-135030999D02*
X118299999Y-132599999D01*
X121830999Y-135030999D02*
X120730999Y-135030999D01*
X125874002Y-139074002D02*
X121830999Y-135030999D01*
D33*
X119102140Y-144302140D02*
X119100000Y-144300000D01*
X120893820Y-144302140D02*
X119102140Y-144302140D01*
X120893820Y-145102240D02*
X116378230Y-145102240D01*
X116378230Y-145102240D02*
X116375990Y-145100000D01*
D32*
X122100000Y-136985411D02*
X122069750Y-136955161D01*
X122100000Y-137550000D02*
X122100000Y-136985411D01*
X113802140Y-142808620D02*
X112708620Y-142808620D01*
X112708620Y-142808620D02*
X112600000Y-142700000D01*
X123700000Y-148600000D02*
X123700000Y-148400000D01*
X123200000Y-149100000D02*
X123700000Y-148600000D01*
X123000000Y-149100000D02*
X123200000Y-149100000D01*
X122199700Y-149900300D02*
X123000000Y-149100000D01*
X120893820Y-149900300D02*
X122199700Y-149900300D01*
D33*
X112308620Y-145902340D02*
X115497660Y-145902340D01*
X115497660Y-145902340D02*
X115500000Y-145900000D01*
X112308620Y-146702440D02*
X113497560Y-146702440D01*
X113497560Y-146702440D02*
X113500000Y-146700000D01*
X111334457Y-147500000D02*
X111291520Y-147457063D01*
X112308620Y-147500000D02*
X111334457Y-147500000D01*
X111446754Y-148273234D02*
X111446754Y-148240850D01*
X112308620Y-148300100D02*
X111473620Y-148300100D01*
X111473620Y-148300100D02*
X111446754Y-148273234D01*
X114899002Y-148899002D02*
X119687522Y-148899002D01*
X120286424Y-148300100D02*
X120893820Y-148300100D01*
X119687522Y-148899002D02*
X120286424Y-148300100D01*
X114300000Y-148300000D02*
X114899002Y-148899002D01*
D32*
X116202440Y-151393820D02*
X116202440Y-152278820D01*
X116202440Y-152278820D02*
X113805261Y-154675999D01*
X113805261Y-154675999D02*
X108824001Y-154675999D01*
X108824001Y-154675999D02*
X108600000Y-154900000D01*
X108600000Y-154900000D02*
X107500000Y-154900000D01*
X113077553Y-152801832D02*
X112775721Y-152500000D01*
X108702081Y-152360000D02*
X107500000Y-152360000D01*
X114879328Y-152801832D02*
X113077553Y-152801832D01*
X108842081Y-152500000D02*
X108702081Y-152360000D01*
X112775721Y-152500000D02*
X108842081Y-152500000D01*
X115402340Y-152278820D02*
X114879328Y-152801832D01*
X115402340Y-151393820D02*
X115402340Y-152278820D01*
X109730989Y-152050989D02*
X108349999Y-150669999D01*
X114340741Y-152352821D02*
X113263539Y-152352821D01*
X114602240Y-151393820D02*
X114602240Y-152091322D01*
X113263539Y-152352821D02*
X112961707Y-152050989D01*
X108349999Y-150669999D02*
X107500000Y-149820000D01*
X114602240Y-152091322D02*
X114340741Y-152352821D01*
X112961707Y-152050989D02*
X109730989Y-152050989D01*
X113802140Y-151393820D02*
X111613820Y-151393820D01*
X111613820Y-151393820D02*
X107500000Y-147280000D01*
X112308620Y-149900300D02*
X111423620Y-149900300D01*
X108674001Y-147150681D02*
X108674001Y-145914001D01*
X108674001Y-145914001D02*
X108349999Y-145589999D01*
X108349999Y-145589999D02*
X107500000Y-144740000D01*
X111423620Y-149900300D02*
X108674001Y-147150681D01*
X108349999Y-143049999D02*
X107500000Y-142200000D01*
X109123012Y-143823012D02*
X108349999Y-143049999D01*
X109123012Y-146799592D02*
X109123012Y-143823012D01*
X111423620Y-149100200D02*
X109123012Y-146799592D01*
X112308620Y-149100200D02*
X111423620Y-149100200D01*
X126617919Y-149820000D02*
X127820000Y-149820000D01*
X122313097Y-150503701D02*
X122996798Y-149820000D01*
X119999619Y-150503701D02*
X122313097Y-150503701D01*
X119595918Y-150100000D02*
X119999619Y-150503701D01*
X117800000Y-150100000D02*
X119595918Y-150100000D01*
X122996798Y-149820000D02*
X126617919Y-149820000D01*
X117800100Y-142808620D02*
X117800100Y-143999900D01*
X117800100Y-143999900D02*
X117800000Y-144000000D01*
X117300000Y-147400000D02*
X119317516Y-147400000D01*
X119317516Y-147400000D02*
X119470028Y-147247488D01*
X117000000Y-142808620D02*
X117000000Y-144000000D01*
X126815999Y-146275999D02*
X122627823Y-146275999D01*
X122327831Y-146575991D02*
X122027832Y-146875990D01*
X122627823Y-146275999D02*
X122327831Y-146575991D01*
X127820000Y-147280000D02*
X126815999Y-146275999D01*
X120003701Y-141914419D02*
X120003701Y-143531536D01*
X120003701Y-143531536D02*
X121620818Y-143531536D01*
X119938901Y-141849619D02*
X120003701Y-141914419D01*
X121620818Y-143531536D02*
X121979283Y-143890001D01*
X121979283Y-143890001D02*
X126970001Y-143890001D01*
X116202440Y-141923620D02*
X116276441Y-141849619D01*
X116276441Y-141849619D02*
X119938901Y-141849619D01*
X116202440Y-142808620D02*
X116202440Y-141923620D01*
X126970001Y-143890001D02*
X127820000Y-144740000D01*
X121622764Y-142687764D02*
X122032626Y-143097630D01*
X126922370Y-143097630D02*
X126970001Y-143049999D01*
X126970001Y-143049999D02*
X127820000Y-142200000D01*
X122032626Y-143097630D02*
X126922370Y-143097630D01*
X121622764Y-141949240D02*
X121622764Y-142687764D01*
X114722047Y-141849619D02*
X114426059Y-141553631D01*
X120607525Y-140934001D02*
X121622764Y-141949240D01*
X117190799Y-140934001D02*
X120607525Y-140934001D01*
X117125999Y-140869201D02*
X117190799Y-140934001D01*
X114587070Y-139875998D02*
X116655688Y-139875998D01*
X114426059Y-140037009D02*
X114587070Y-139875998D01*
X115476341Y-141849619D02*
X114722047Y-141849619D01*
X114426059Y-141553631D02*
X114426059Y-140037009D01*
X116655688Y-139875998D02*
X117125999Y-140346309D01*
X117125999Y-140346309D02*
X117125999Y-140869201D01*
X115402340Y-141923620D02*
X115476341Y-141849619D01*
X115402340Y-142808620D02*
X115402340Y-141923620D01*
X115476341Y-141849619D02*
X115402340Y-142808620D01*
X120627717Y-151000000D02*
X120500000Y-151127717D01*
X124000000Y-151000000D02*
X120627717Y-151000000D01*
X125047560Y-145049780D02*
X125028852Y-145049780D01*
X124821743Y-145227725D02*
X124821743Y-145651989D01*
X125047560Y-145049780D02*
X124999688Y-145049780D01*
X124999688Y-145049780D02*
X124821743Y-145227725D01*
X110548274Y-156000000D02*
X110124010Y-156000000D01*
X113783202Y-156000000D02*
X110548274Y-156000000D01*
X117000000Y-152783202D02*
X113783202Y-156000000D01*
X126945999Y-154025999D02*
X127820000Y-154900000D01*
X124542479Y-154025999D02*
X126945999Y-154025999D01*
X124494477Y-154074001D02*
X124542479Y-154025999D01*
X118150477Y-154074001D02*
X124494477Y-154074001D01*
X117000000Y-152923524D02*
X118150477Y-154074001D01*
X117000000Y-152783202D02*
X117000000Y-152923524D01*
X117000000Y-151393820D02*
X117000000Y-152783202D01*
X112457623Y-153147790D02*
X112102210Y-153147790D01*
X112102210Y-153147790D02*
X111500000Y-153750000D01*
X118000000Y-157000000D02*
X112500000Y-157000000D01*
X117800100Y-152278820D02*
X117800100Y-152800100D01*
X117800100Y-152800100D02*
X118000000Y-153000000D01*
X119021280Y-153500000D02*
X126680000Y-153500000D01*
X126680000Y-153500000D02*
X127820000Y-152360000D01*
X117800100Y-151393820D02*
X117800100Y-152278820D01*
X117800100Y-152278820D02*
X119021280Y-153500000D01*
D33*
X127556480Y-151756480D02*
X128100000Y-152300000D01*
G36*
X126568065Y-155750000D02*
G01*
X126575788Y-155828414D01*
X126598660Y-155903814D01*
X126635803Y-155973303D01*
X126685789Y-156034211D01*
X126746697Y-156084197D01*
X126816186Y-156121340D01*
X126891586Y-156144212D01*
X126970000Y-156151935D01*
X128670000Y-156151935D01*
X128748414Y-156144212D01*
X128823814Y-156121340D01*
X128893303Y-156084197D01*
X128925001Y-156058183D01*
X128925001Y-162125000D01*
X122671748Y-162125000D01*
X122683814Y-162121340D01*
X122753303Y-162084197D01*
X122814211Y-162034211D01*
X122864197Y-161973303D01*
X122901340Y-161903814D01*
X122924212Y-161828414D01*
X122931935Y-161750000D01*
X122931935Y-160050000D01*
X122924212Y-159971586D01*
X122901340Y-159896186D01*
X122864197Y-159826697D01*
X122814211Y-159765789D01*
X122753303Y-159715803D01*
X122683814Y-159678660D01*
X122608414Y-159655788D01*
X122530000Y-159648065D01*
X120830000Y-159648065D01*
X120751586Y-159655788D01*
X120676186Y-159678660D01*
X120606697Y-159715803D01*
X120545789Y-159765789D01*
X120495803Y-159826697D01*
X120458660Y-159896186D01*
X120435788Y-159971586D01*
X120428065Y-160050000D01*
X120428065Y-161750000D01*
X120435788Y-161828414D01*
X120458660Y-161903814D01*
X120495803Y-161973303D01*
X120545789Y-162034211D01*
X120606697Y-162084197D01*
X120676186Y-162121340D01*
X120688252Y-162125000D01*
X119407832Y-162125000D01*
X119620669Y-162060437D01*
X119837823Y-161944366D01*
X120028160Y-161788160D01*
X120184366Y-161597823D01*
X120300437Y-161380669D01*
X120371913Y-161145043D01*
X120396048Y-160900000D01*
X120371913Y-160654957D01*
X120300437Y-160419331D01*
X120184366Y-160202177D01*
X120028160Y-160011840D01*
X119837823Y-159855634D01*
X119620669Y-159739563D01*
X119385043Y-159668087D01*
X119201405Y-159650000D01*
X119078595Y-159650000D01*
X118894957Y-159668087D01*
X118659331Y-159739563D01*
X118442177Y-159855634D01*
X118251840Y-160011840D01*
X118095634Y-160202177D01*
X117979563Y-160419331D01*
X117908087Y-160654957D01*
X117883952Y-160900000D01*
X117908087Y-161145043D01*
X117979563Y-161380669D01*
X118095634Y-161597823D01*
X118251840Y-161788160D01*
X118442177Y-161944366D01*
X118659331Y-162060437D01*
X118872168Y-162125000D01*
X116867832Y-162125000D01*
X117080669Y-162060437D01*
X117297823Y-161944366D01*
X117488160Y-161788160D01*
X117644366Y-161597823D01*
X117760437Y-161380669D01*
X117831913Y-161145043D01*
X117856048Y-160900000D01*
X117831913Y-160654957D01*
X117760437Y-160419331D01*
X117644366Y-160202177D01*
X117488160Y-160011840D01*
X117297823Y-159855634D01*
X117080669Y-159739563D01*
X116845043Y-159668087D01*
X116661405Y-159650000D01*
X116538595Y-159650000D01*
X116354957Y-159668087D01*
X116119331Y-159739563D01*
X115902177Y-159855634D01*
X115711840Y-160011840D01*
X115555634Y-160202177D01*
X115439563Y-160419331D01*
X115435072Y-160434135D01*
X115366935Y-160253700D01*
X115215736Y-160011148D01*
X115020122Y-159802754D01*
X114787611Y-159636527D01*
X114527139Y-159518854D01*
X114438910Y-159492097D01*
X114214000Y-159603111D01*
X114214000Y-160746000D01*
X114234000Y-160746000D01*
X114234000Y-161054000D01*
X114214000Y-161054000D01*
X114214000Y-161074000D01*
X113906000Y-161074000D01*
X113906000Y-161054000D01*
X112762150Y-161054000D01*
X112652091Y-161278911D01*
X112753065Y-161546300D01*
X112904264Y-161788852D01*
X113099878Y-161997246D01*
X113278575Y-162125000D01*
X106475000Y-162125000D01*
X106475000Y-159327640D01*
X107450000Y-159327640D01*
X107450000Y-159672360D01*
X107517251Y-160010456D01*
X107649170Y-160328936D01*
X107840686Y-160615560D01*
X108084440Y-160859314D01*
X108371064Y-161050830D01*
X108689544Y-161182749D01*
X109027640Y-161250000D01*
X109372360Y-161250000D01*
X109710456Y-161182749D01*
X110028936Y-161050830D01*
X110315560Y-160859314D01*
X110559314Y-160615560D01*
X110622437Y-160521089D01*
X112652091Y-160521089D01*
X112762150Y-160746000D01*
X113906000Y-160746000D01*
X113906000Y-159603111D01*
X113681090Y-159492097D01*
X113592861Y-159518854D01*
X113332389Y-159636527D01*
X113099878Y-159802754D01*
X112904264Y-160011148D01*
X112753065Y-160253700D01*
X112652091Y-160521089D01*
X110622437Y-160521089D01*
X110750830Y-160328936D01*
X110882749Y-160010456D01*
X110950000Y-159672360D01*
X110950000Y-159327640D01*
X110882749Y-158989544D01*
X110750830Y-158671064D01*
X110559314Y-158384440D01*
X110315560Y-158140686D01*
X110028936Y-157949170D01*
X109710456Y-157817251D01*
X109372360Y-157750000D01*
X109027640Y-157750000D01*
X108689544Y-157817251D01*
X108371064Y-157949170D01*
X108084440Y-158140686D01*
X107840686Y-158384440D01*
X107649170Y-158671064D01*
X107517251Y-158989544D01*
X107450000Y-159327640D01*
X106475000Y-159327640D01*
X106475000Y-156110016D01*
X106496186Y-156121340D01*
X106571586Y-156144212D01*
X106650000Y-156151935D01*
X108350000Y-156151935D01*
X108428414Y-156144212D01*
X108503814Y-156121340D01*
X108573303Y-156084197D01*
X108634211Y-156034211D01*
X108684197Y-155973303D01*
X108721340Y-155903814D01*
X108744212Y-155828414D01*
X108751935Y-155750000D01*
X108751935Y-155402534D01*
X108801881Y-155387383D01*
X108893086Y-155338633D01*
X108973027Y-155273027D01*
X108989471Y-155252990D01*
X109041462Y-155200999D01*
X109107255Y-155200999D01*
X109061367Y-155256914D01*
X109012617Y-155348120D01*
X108982597Y-155447083D01*
X108975000Y-155524213D01*
X108975000Y-155524220D01*
X108972461Y-155550000D01*
X108975000Y-155575781D01*
X108975001Y-156474210D01*
X108972461Y-156500000D01*
X108982597Y-156602917D01*
X109012617Y-156701880D01*
X109012618Y-156701881D01*
X109061368Y-156793086D01*
X109126974Y-156873027D01*
X109147005Y-156889466D01*
X111300000Y-159042462D01*
X111300000Y-159068944D01*
X111326901Y-159204182D01*
X111379668Y-159331574D01*
X111456274Y-159446224D01*
X111553776Y-159543726D01*
X111668426Y-159620332D01*
X111795818Y-159673099D01*
X111931056Y-159700000D01*
X112068944Y-159700000D01*
X112204182Y-159673099D01*
X112331574Y-159620332D01*
X112446224Y-159543726D01*
X112543726Y-159446224D01*
X112620332Y-159331574D01*
X112673099Y-159204182D01*
X112700000Y-159068944D01*
X112700000Y-158931056D01*
X112673099Y-158795818D01*
X112620332Y-158668426D01*
X112543726Y-158553776D01*
X112446224Y-158456274D01*
X112331574Y-158379668D01*
X112204182Y-158326901D01*
X112068944Y-158300000D01*
X112042462Y-158300000D01*
X110389971Y-156647510D01*
X110455584Y-156620332D01*
X110570234Y-156543726D01*
X110588960Y-156525000D01*
X111985050Y-156525000D01*
X111956274Y-156553776D01*
X111879668Y-156668426D01*
X111826901Y-156795818D01*
X111800000Y-156931056D01*
X111800000Y-157068944D01*
X111826901Y-157204182D01*
X111879668Y-157331574D01*
X111956274Y-157446224D01*
X112053776Y-157543726D01*
X112168426Y-157620332D01*
X112295818Y-157673099D01*
X112431056Y-157700000D01*
X112568944Y-157700000D01*
X112704182Y-157673099D01*
X112831574Y-157620332D01*
X112946224Y-157543726D01*
X112964950Y-157525000D01*
X114985050Y-157525000D01*
X114956274Y-157553776D01*
X114879668Y-157668426D01*
X114826901Y-157795818D01*
X114800000Y-157931056D01*
X114800000Y-158068944D01*
X114826901Y-158204182D01*
X114879668Y-158331574D01*
X114956274Y-158446224D01*
X115053776Y-158543726D01*
X115168426Y-158620332D01*
X115295818Y-158673099D01*
X115431056Y-158700000D01*
X115568944Y-158700000D01*
X115704182Y-158673099D01*
X115831574Y-158620332D01*
X115946224Y-158543726D01*
X115964950Y-158525000D01*
X119369290Y-158525000D01*
X119395070Y-158527539D01*
X119420850Y-158525000D01*
X119420858Y-158525000D01*
X119497988Y-158517403D01*
X119596951Y-158487383D01*
X119688156Y-158438633D01*
X119768097Y-158373027D01*
X119784541Y-158352990D01*
X121851476Y-156286056D01*
X121871507Y-156269617D01*
X121937113Y-156189676D01*
X121985863Y-156098471D01*
X122015883Y-155999508D01*
X122023480Y-155922378D01*
X122023480Y-155922370D01*
X122026019Y-155896590D01*
X122023480Y-155870810D01*
X122023480Y-155850000D01*
X123998065Y-155850000D01*
X123998065Y-157550000D01*
X124005788Y-157628414D01*
X124028660Y-157703814D01*
X124065803Y-157773303D01*
X124115789Y-157834211D01*
X124176697Y-157884197D01*
X124246186Y-157921340D01*
X124321586Y-157944212D01*
X124400000Y-157951935D01*
X125666926Y-157951935D01*
X125384440Y-158140686D01*
X125140686Y-158384440D01*
X124949170Y-158671064D01*
X124817251Y-158989544D01*
X124750000Y-159327640D01*
X124750000Y-159672360D01*
X124817251Y-160010456D01*
X124949170Y-160328936D01*
X125140686Y-160615560D01*
X125384440Y-160859314D01*
X125671064Y-161050830D01*
X125989544Y-161182749D01*
X126327640Y-161250000D01*
X126672360Y-161250000D01*
X127010456Y-161182749D01*
X127328936Y-161050830D01*
X127615560Y-160859314D01*
X127859314Y-160615560D01*
X128050830Y-160328936D01*
X128182749Y-160010456D01*
X128250000Y-159672360D01*
X128250000Y-159327640D01*
X128182749Y-158989544D01*
X128050830Y-158671064D01*
X127859314Y-158384440D01*
X127615560Y-158140686D01*
X127328936Y-157949170D01*
X127010456Y-157817251D01*
X126672360Y-157750000D01*
X126446653Y-157750000D01*
X126471340Y-157703814D01*
X126494212Y-157628414D01*
X126501935Y-157550000D01*
X126501935Y-155850000D01*
X126494212Y-155771586D01*
X126471340Y-155696186D01*
X126434197Y-155626697D01*
X126384211Y-155565789D01*
X126323303Y-155515803D01*
X126253814Y-155478660D01*
X126178414Y-155455788D01*
X126100000Y-155448065D01*
X124400000Y-155448065D01*
X124321586Y-155455788D01*
X124246186Y-155478660D01*
X124176697Y-155515803D01*
X124115789Y-155565789D01*
X124065803Y-155626697D01*
X124028660Y-155696186D01*
X124005788Y-155771586D01*
X123998065Y-155850000D01*
X122023480Y-155850000D01*
X122023480Y-155598934D01*
X122079688Y-155493776D01*
X122115009Y-155377340D01*
X122120232Y-155324305D01*
X122171579Y-155200342D01*
X122198480Y-155065104D01*
X122198480Y-154927216D01*
X122171579Y-154791978D01*
X122119240Y-154665619D01*
X122115009Y-154622660D01*
X122107832Y-154599001D01*
X124468697Y-154599001D01*
X124494477Y-154601540D01*
X124520257Y-154599001D01*
X124520265Y-154599001D01*
X124597395Y-154591404D01*
X124696358Y-154561384D01*
X124715787Y-154550999D01*
X126568065Y-154550999D01*
X126568065Y-155750000D01*
X126568065Y-155750000D01*
G37*
X126568065Y-155750000D02*
X126575788Y-155828414D01*
X126598660Y-155903814D01*
X126635803Y-155973303D01*
X126685789Y-156034211D01*
X126746697Y-156084197D01*
X126816186Y-156121340D01*
X126891586Y-156144212D01*
X126970000Y-156151935D01*
X128670000Y-156151935D01*
X128748414Y-156144212D01*
X128823814Y-156121340D01*
X128893303Y-156084197D01*
X128925001Y-156058183D01*
X128925001Y-162125000D01*
X122671748Y-162125000D01*
X122683814Y-162121340D01*
X122753303Y-162084197D01*
X122814211Y-162034211D01*
X122864197Y-161973303D01*
X122901340Y-161903814D01*
X122924212Y-161828414D01*
X122931935Y-161750000D01*
X122931935Y-160050000D01*
X122924212Y-159971586D01*
X122901340Y-159896186D01*
X122864197Y-159826697D01*
X122814211Y-159765789D01*
X122753303Y-159715803D01*
X122683814Y-159678660D01*
X122608414Y-159655788D01*
X122530000Y-159648065D01*
X120830000Y-159648065D01*
X120751586Y-159655788D01*
X120676186Y-159678660D01*
X120606697Y-159715803D01*
X120545789Y-159765789D01*
X120495803Y-159826697D01*
X120458660Y-159896186D01*
X120435788Y-159971586D01*
X120428065Y-160050000D01*
X120428065Y-161750000D01*
X120435788Y-161828414D01*
X120458660Y-161903814D01*
X120495803Y-161973303D01*
X120545789Y-162034211D01*
X120606697Y-162084197D01*
X120676186Y-162121340D01*
X120688252Y-162125000D01*
X119407832Y-162125000D01*
X119620669Y-162060437D01*
X119837823Y-161944366D01*
X120028160Y-161788160D01*
X120184366Y-161597823D01*
X120300437Y-161380669D01*
X120371913Y-161145043D01*
X120396048Y-160900000D01*
X120371913Y-160654957D01*
X120300437Y-160419331D01*
X120184366Y-160202177D01*
X120028160Y-160011840D01*
X119837823Y-159855634D01*
X119620669Y-159739563D01*
X119385043Y-159668087D01*
X119201405Y-159650000D01*
X119078595Y-159650000D01*
X118894957Y-159668087D01*
X118659331Y-159739563D01*
X118442177Y-159855634D01*
X118251840Y-160011840D01*
X118095634Y-160202177D01*
X117979563Y-160419331D01*
X117908087Y-160654957D01*
X117883952Y-160900000D01*
X117908087Y-161145043D01*
X117979563Y-161380669D01*
X118095634Y-161597823D01*
X118251840Y-161788160D01*
X118442177Y-161944366D01*
X118659331Y-162060437D01*
X118872168Y-162125000D01*
X116867832Y-162125000D01*
X117080669Y-162060437D01*
X117297823Y-161944366D01*
X117488160Y-161788160D01*
X117644366Y-161597823D01*
X117760437Y-161380669D01*
X117831913Y-161145043D01*
X117856048Y-160900000D01*
X117831913Y-160654957D01*
X117760437Y-160419331D01*
X117644366Y-160202177D01*
X117488160Y-160011840D01*
X117297823Y-159855634D01*
X117080669Y-159739563D01*
X116845043Y-159668087D01*
X116661405Y-159650000D01*
X116538595Y-159650000D01*
X116354957Y-159668087D01*
X116119331Y-159739563D01*
X115902177Y-159855634D01*
X115711840Y-160011840D01*
X115555634Y-160202177D01*
X115439563Y-160419331D01*
X115435072Y-160434135D01*
X115366935Y-160253700D01*
X115215736Y-160011148D01*
X115020122Y-159802754D01*
X114787611Y-159636527D01*
X114527139Y-159518854D01*
X114438910Y-159492097D01*
X114214000Y-159603111D01*
X114214000Y-160746000D01*
X114234000Y-160746000D01*
X114234000Y-161054000D01*
X114214000Y-161054000D01*
X114214000Y-161074000D01*
X113906000Y-161074000D01*
X113906000Y-161054000D01*
X112762150Y-161054000D01*
X112652091Y-161278911D01*
X112753065Y-161546300D01*
X112904264Y-161788852D01*
X113099878Y-161997246D01*
X113278575Y-162125000D01*
X106475000Y-162125000D01*
X106475000Y-159327640D01*
X107450000Y-159327640D01*
X107450000Y-159672360D01*
X107517251Y-160010456D01*
X107649170Y-160328936D01*
X107840686Y-160615560D01*
X108084440Y-160859314D01*
X108371064Y-161050830D01*
X108689544Y-161182749D01*
X109027640Y-161250000D01*
X109372360Y-161250000D01*
X109710456Y-161182749D01*
X110028936Y-161050830D01*
X110315560Y-160859314D01*
X110559314Y-160615560D01*
X110622437Y-160521089D01*
X112652091Y-160521089D01*
X112762150Y-160746000D01*
X113906000Y-160746000D01*
X113906000Y-159603111D01*
X113681090Y-159492097D01*
X113592861Y-159518854D01*
X113332389Y-159636527D01*
X113099878Y-159802754D01*
X112904264Y-160011148D01*
X112753065Y-160253700D01*
X112652091Y-160521089D01*
X110622437Y-160521089D01*
X110750830Y-160328936D01*
X110882749Y-160010456D01*
X110950000Y-159672360D01*
X110950000Y-159327640D01*
X110882749Y-158989544D01*
X110750830Y-158671064D01*
X110559314Y-158384440D01*
X110315560Y-158140686D01*
X110028936Y-157949170D01*
X109710456Y-157817251D01*
X109372360Y-157750000D01*
X109027640Y-157750000D01*
X108689544Y-157817251D01*
X108371064Y-157949170D01*
X108084440Y-158140686D01*
X107840686Y-158384440D01*
X107649170Y-158671064D01*
X107517251Y-158989544D01*
X107450000Y-159327640D01*
X106475000Y-159327640D01*
X106475000Y-156110016D01*
X106496186Y-156121340D01*
X106571586Y-156144212D01*
X106650000Y-156151935D01*
X108350000Y-156151935D01*
X108428414Y-156144212D01*
X108503814Y-156121340D01*
X108573303Y-156084197D01*
X108634211Y-156034211D01*
X108684197Y-155973303D01*
X108721340Y-155903814D01*
X108744212Y-155828414D01*
X108751935Y-155750000D01*
X108751935Y-155402534D01*
X108801881Y-155387383D01*
X108893086Y-155338633D01*
X108973027Y-155273027D01*
X108989471Y-155252990D01*
X109041462Y-155200999D01*
X109107255Y-155200999D01*
X109061367Y-155256914D01*
X109012617Y-155348120D01*
X108982597Y-155447083D01*
X108975000Y-155524213D01*
X108975000Y-155524220D01*
X108972461Y-155550000D01*
X108975000Y-155575781D01*
X108975001Y-156474210D01*
X108972461Y-156500000D01*
X108982597Y-156602917D01*
X109012617Y-156701880D01*
X109012618Y-156701881D01*
X109061368Y-156793086D01*
X109126974Y-156873027D01*
X109147005Y-156889466D01*
X111300000Y-159042462D01*
X111300000Y-159068944D01*
X111326901Y-159204182D01*
X111379668Y-159331574D01*
X111456274Y-159446224D01*
X111553776Y-159543726D01*
X111668426Y-159620332D01*
X111795818Y-159673099D01*
X111931056Y-159700000D01*
X112068944Y-159700000D01*
X112204182Y-159673099D01*
X112331574Y-159620332D01*
X112446224Y-159543726D01*
X112543726Y-159446224D01*
X112620332Y-159331574D01*
X112673099Y-159204182D01*
X112700000Y-159068944D01*
X112700000Y-158931056D01*
X112673099Y-158795818D01*
X112620332Y-158668426D01*
X112543726Y-158553776D01*
X112446224Y-158456274D01*
X112331574Y-158379668D01*
X112204182Y-158326901D01*
X112068944Y-158300000D01*
X112042462Y-158300000D01*
X110389971Y-156647510D01*
X110455584Y-156620332D01*
X110570234Y-156543726D01*
X110588960Y-156525000D01*
X111985050Y-156525000D01*
X111956274Y-156553776D01*
X111879668Y-156668426D01*
X111826901Y-156795818D01*
X111800000Y-156931056D01*
X111800000Y-157068944D01*
X111826901Y-157204182D01*
X111879668Y-157331574D01*
X111956274Y-157446224D01*
X112053776Y-157543726D01*
X112168426Y-157620332D01*
X112295818Y-157673099D01*
X112431056Y-157700000D01*
X112568944Y-157700000D01*
X112704182Y-157673099D01*
X112831574Y-157620332D01*
X112946224Y-157543726D01*
X112964950Y-157525000D01*
X114985050Y-157525000D01*
X114956274Y-157553776D01*
X114879668Y-157668426D01*
X114826901Y-157795818D01*
X114800000Y-157931056D01*
X114800000Y-158068944D01*
X114826901Y-158204182D01*
X114879668Y-158331574D01*
X114956274Y-158446224D01*
X115053776Y-158543726D01*
X115168426Y-158620332D01*
X115295818Y-158673099D01*
X115431056Y-158700000D01*
X115568944Y-158700000D01*
X115704182Y-158673099D01*
X115831574Y-158620332D01*
X115946224Y-158543726D01*
X115964950Y-158525000D01*
X119369290Y-158525000D01*
X119395070Y-158527539D01*
X119420850Y-158525000D01*
X119420858Y-158525000D01*
X119497988Y-158517403D01*
X119596951Y-158487383D01*
X119688156Y-158438633D01*
X119768097Y-158373027D01*
X119784541Y-158352990D01*
X121851476Y-156286056D01*
X121871507Y-156269617D01*
X121937113Y-156189676D01*
X121985863Y-156098471D01*
X122015883Y-155999508D01*
X122023480Y-155922378D01*
X122023480Y-155922370D01*
X122026019Y-155896590D01*
X122023480Y-155870810D01*
X122023480Y-155850000D01*
X123998065Y-155850000D01*
X123998065Y-157550000D01*
X124005788Y-157628414D01*
X124028660Y-157703814D01*
X124065803Y-157773303D01*
X124115789Y-157834211D01*
X124176697Y-157884197D01*
X124246186Y-157921340D01*
X124321586Y-157944212D01*
X124400000Y-157951935D01*
X125666926Y-157951935D01*
X125384440Y-158140686D01*
X125140686Y-158384440D01*
X124949170Y-158671064D01*
X124817251Y-158989544D01*
X124750000Y-159327640D01*
X124750000Y-159672360D01*
X124817251Y-160010456D01*
X124949170Y-160328936D01*
X125140686Y-160615560D01*
X125384440Y-160859314D01*
X125671064Y-161050830D01*
X125989544Y-161182749D01*
X126327640Y-161250000D01*
X126672360Y-161250000D01*
X127010456Y-161182749D01*
X127328936Y-161050830D01*
X127615560Y-160859314D01*
X127859314Y-160615560D01*
X128050830Y-160328936D01*
X128182749Y-160010456D01*
X128250000Y-159672360D01*
X128250000Y-159327640D01*
X128182749Y-158989544D01*
X128050830Y-158671064D01*
X127859314Y-158384440D01*
X127615560Y-158140686D01*
X127328936Y-157949170D01*
X127010456Y-157817251D01*
X126672360Y-157750000D01*
X126446653Y-157750000D01*
X126471340Y-157703814D01*
X126494212Y-157628414D01*
X126501935Y-157550000D01*
X126501935Y-155850000D01*
X126494212Y-155771586D01*
X126471340Y-155696186D01*
X126434197Y-155626697D01*
X126384211Y-155565789D01*
X126323303Y-155515803D01*
X126253814Y-155478660D01*
X126178414Y-155455788D01*
X126100000Y-155448065D01*
X124400000Y-155448065D01*
X124321586Y-155455788D01*
X124246186Y-155478660D01*
X124176697Y-155515803D01*
X124115789Y-155565789D01*
X124065803Y-155626697D01*
X124028660Y-155696186D01*
X124005788Y-155771586D01*
X123998065Y-155850000D01*
X122023480Y-155850000D01*
X122023480Y-155598934D01*
X122079688Y-155493776D01*
X122115009Y-155377340D01*
X122120232Y-155324305D01*
X122171579Y-155200342D01*
X122198480Y-155065104D01*
X122198480Y-154927216D01*
X122171579Y-154791978D01*
X122119240Y-154665619D01*
X122115009Y-154622660D01*
X122107832Y-154599001D01*
X124468697Y-154599001D01*
X124494477Y-154601540D01*
X124520257Y-154599001D01*
X124520265Y-154599001D01*
X124597395Y-154591404D01*
X124696358Y-154561384D01*
X124715787Y-154550999D01*
X126568065Y-154550999D01*
X126568065Y-155750000D01*
G36*
X117761011Y-154426997D02*
G01*
X117777450Y-154447028D01*
X117857391Y-154512634D01*
X117948596Y-154561384D01*
X118047559Y-154591404D01*
X118124689Y-154599001D01*
X118124696Y-154599001D01*
X118150476Y-154601540D01*
X118176256Y-154599001D01*
X118665346Y-154599001D01*
X118667000Y-154694000D01*
X118819000Y-154846000D01*
X119558500Y-154846000D01*
X119558500Y-154826000D01*
X119866500Y-154826000D01*
X119866500Y-154846000D01*
X119886500Y-154846000D01*
X119886500Y-155154000D01*
X119866500Y-155154000D01*
X119866500Y-155931000D01*
X120018500Y-156083000D01*
X120150000Y-156085942D01*
X120269189Y-156074203D01*
X120383797Y-156039437D01*
X120489421Y-155982980D01*
X120582001Y-155907001D01*
X120657980Y-155814421D01*
X120693722Y-155747552D01*
X120723916Y-155772331D01*
X120825813Y-155826796D01*
X119177609Y-157475000D01*
X118514950Y-157475000D01*
X118543726Y-157446224D01*
X118620332Y-157331574D01*
X118673099Y-157204182D01*
X118700000Y-157068944D01*
X118700000Y-156931056D01*
X118673099Y-156795818D01*
X118620332Y-156668426D01*
X118543726Y-156553776D01*
X118446224Y-156456274D01*
X118331574Y-156379668D01*
X118204182Y-156326901D01*
X118068944Y-156300000D01*
X117931056Y-156300000D01*
X117795818Y-156326901D01*
X117668426Y-156379668D01*
X117553776Y-156456274D01*
X117535050Y-156475000D01*
X114008250Y-156475000D01*
X114076288Y-156438633D01*
X114156229Y-156373027D01*
X114172673Y-156352990D01*
X115050663Y-155475000D01*
X118664058Y-155475000D01*
X118675797Y-155594189D01*
X118710563Y-155708797D01*
X118767020Y-155814421D01*
X118842999Y-155907001D01*
X118935579Y-155982980D01*
X119041203Y-156039437D01*
X119155811Y-156074203D01*
X119275000Y-156085942D01*
X119406500Y-156083000D01*
X119558500Y-155931000D01*
X119558500Y-155154000D01*
X118819000Y-155154000D01*
X118667000Y-155306000D01*
X118664058Y-155475000D01*
X115050663Y-155475000D01*
X116929839Y-153595825D01*
X117761011Y-154426997D01*
X117761011Y-154426997D01*
G37*
X117761011Y-154426997D02*
X117777450Y-154447028D01*
X117857391Y-154512634D01*
X117948596Y-154561384D01*
X118047559Y-154591404D01*
X118124689Y-154599001D01*
X118124696Y-154599001D01*
X118150476Y-154601540D01*
X118176256Y-154599001D01*
X118665346Y-154599001D01*
X118667000Y-154694000D01*
X118819000Y-154846000D01*
X119558500Y-154846000D01*
X119558500Y-154826000D01*
X119866500Y-154826000D01*
X119866500Y-154846000D01*
X119886500Y-154846000D01*
X119886500Y-155154000D01*
X119866500Y-155154000D01*
X119866500Y-155931000D01*
X120018500Y-156083000D01*
X120150000Y-156085942D01*
X120269189Y-156074203D01*
X120383797Y-156039437D01*
X120489421Y-155982980D01*
X120582001Y-155907001D01*
X120657980Y-155814421D01*
X120693722Y-155747552D01*
X120723916Y-155772331D01*
X120825813Y-155826796D01*
X119177609Y-157475000D01*
X118514950Y-157475000D01*
X118543726Y-157446224D01*
X118620332Y-157331574D01*
X118673099Y-157204182D01*
X118700000Y-157068944D01*
X118700000Y-156931056D01*
X118673099Y-156795818D01*
X118620332Y-156668426D01*
X118543726Y-156553776D01*
X118446224Y-156456274D01*
X118331574Y-156379668D01*
X118204182Y-156326901D01*
X118068944Y-156300000D01*
X117931056Y-156300000D01*
X117795818Y-156326901D01*
X117668426Y-156379668D01*
X117553776Y-156456274D01*
X117535050Y-156475000D01*
X114008250Y-156475000D01*
X114076288Y-156438633D01*
X114156229Y-156373027D01*
X114172673Y-156352990D01*
X115050663Y-155475000D01*
X118664058Y-155475000D01*
X118675797Y-155594189D01*
X118710563Y-155708797D01*
X118767020Y-155814421D01*
X118842999Y-155907001D01*
X118935579Y-155982980D01*
X119041203Y-156039437D01*
X119155811Y-156074203D01*
X119275000Y-156085942D01*
X119406500Y-156083000D01*
X119558500Y-155931000D01*
X119558500Y-155154000D01*
X118819000Y-155154000D01*
X118667000Y-155306000D01*
X118664058Y-155475000D01*
X115050663Y-155475000D01*
X116929839Y-153595825D01*
X117761011Y-154426997D01*
G36*
X119856885Y-145622940D02*
G01*
X119856885Y-146181740D01*
X119864608Y-146260154D01*
X119877420Y-146302390D01*
X119864608Y-146344626D01*
X119856885Y-146423040D01*
X119856885Y-146664095D01*
X119801602Y-146627156D01*
X119674210Y-146574389D01*
X119538972Y-146547488D01*
X119401084Y-146547488D01*
X119265846Y-146574389D01*
X119138454Y-146627156D01*
X119023804Y-146703762D01*
X118926302Y-146801264D01*
X118877034Y-146875000D01*
X117764950Y-146875000D01*
X117746224Y-146856274D01*
X117631574Y-146779668D01*
X117504182Y-146726901D01*
X117368944Y-146700000D01*
X117231056Y-146700000D01*
X117095818Y-146726901D01*
X116968426Y-146779668D01*
X116853776Y-146856274D01*
X116756274Y-146953776D01*
X116679668Y-147068426D01*
X116626901Y-147195818D01*
X116600000Y-147331056D01*
X116600000Y-147468944D01*
X116626901Y-147604182D01*
X116679668Y-147731574D01*
X116756274Y-147846224D01*
X116853776Y-147943726D01*
X116968426Y-148020332D01*
X117095818Y-148073099D01*
X117231056Y-148100000D01*
X117368944Y-148100000D01*
X117504182Y-148073099D01*
X117631574Y-148020332D01*
X117746224Y-147943726D01*
X117764950Y-147925000D01*
X119288031Y-147925000D01*
X119401084Y-147947488D01*
X119538972Y-147947488D01*
X119666186Y-147922183D01*
X119697751Y-148021168D01*
X119754893Y-148124525D01*
X119480416Y-148399002D01*
X115106108Y-148399002D01*
X115000000Y-148292894D01*
X115000000Y-148231056D01*
X114973099Y-148095818D01*
X114920332Y-147968426D01*
X114843726Y-147853776D01*
X114746224Y-147756274D01*
X114631574Y-147679668D01*
X114504182Y-147626901D01*
X114368944Y-147600000D01*
X114231056Y-147600000D01*
X114095818Y-147626901D01*
X113968426Y-147679668D01*
X113853776Y-147756274D01*
X113756274Y-147853776D01*
X113679668Y-147968426D01*
X113626901Y-148095818D01*
X113600000Y-148231056D01*
X113600000Y-148368944D01*
X113626901Y-148504182D01*
X113679668Y-148631574D01*
X113756274Y-148746224D01*
X113853776Y-148843726D01*
X113968426Y-148920332D01*
X114095818Y-148973099D01*
X114231056Y-149000000D01*
X114292894Y-149000000D01*
X114528082Y-149235188D01*
X114543738Y-149254266D01*
X114619873Y-149316748D01*
X114706735Y-149363177D01*
X114800985Y-149391767D01*
X114899002Y-149401421D01*
X114923562Y-149399002D01*
X119662962Y-149399002D01*
X119687522Y-149401421D01*
X119712082Y-149399002D01*
X119785539Y-149391767D01*
X119856885Y-149370125D01*
X119856885Y-149379600D01*
X119864608Y-149458014D01*
X119877420Y-149500250D01*
X119864608Y-149542486D01*
X119856885Y-149620900D01*
X119856885Y-149644199D01*
X119797799Y-149612617D01*
X119698836Y-149582597D01*
X119621706Y-149575000D01*
X119621698Y-149575000D01*
X119595918Y-149572461D01*
X119570138Y-149575000D01*
X118264950Y-149575000D01*
X118246224Y-149556274D01*
X118131574Y-149479668D01*
X118004182Y-149426901D01*
X117868944Y-149400000D01*
X117731056Y-149400000D01*
X117595818Y-149426901D01*
X117468426Y-149479668D01*
X117353776Y-149556274D01*
X117256274Y-149653776D01*
X117179668Y-149768426D01*
X117126901Y-149895818D01*
X117100000Y-150031056D01*
X117100000Y-150168944D01*
X117126901Y-150304182D01*
X117148731Y-150356885D01*
X116720600Y-150356885D01*
X116642186Y-150364608D01*
X116601220Y-150377035D01*
X116560254Y-150364608D01*
X116481840Y-150356885D01*
X115923040Y-150356885D01*
X115844626Y-150364608D01*
X115802390Y-150377420D01*
X115760154Y-150364608D01*
X115681740Y-150356885D01*
X115122940Y-150356885D01*
X115044526Y-150364608D01*
X115002290Y-150377420D01*
X114960054Y-150364608D01*
X114881640Y-150356885D01*
X114322840Y-150356885D01*
X114244426Y-150364608D01*
X114202190Y-150377420D01*
X114159954Y-150364608D01*
X114081540Y-150356885D01*
X113522740Y-150356885D01*
X113444326Y-150364608D01*
X113368926Y-150387480D01*
X113299437Y-150424623D01*
X113238529Y-150474609D01*
X113188543Y-150535517D01*
X113151400Y-150605006D01*
X113128528Y-150680406D01*
X113120805Y-150758820D01*
X113120805Y-150868820D01*
X111831282Y-150868820D01*
X111506263Y-150543801D01*
X111519806Y-150551040D01*
X111595206Y-150573912D01*
X111673620Y-150581635D01*
X112943620Y-150581635D01*
X113022034Y-150573912D01*
X113097434Y-150551040D01*
X113166923Y-150513897D01*
X113227831Y-150463911D01*
X113277817Y-150403003D01*
X113314960Y-150333514D01*
X113337832Y-150258114D01*
X113345555Y-150179700D01*
X113345555Y-149620900D01*
X113337832Y-149542486D01*
X113325020Y-149500250D01*
X113337832Y-149458014D01*
X113345555Y-149379600D01*
X113345555Y-148820800D01*
X113337832Y-148742386D01*
X113325020Y-148700150D01*
X113337832Y-148657914D01*
X113345555Y-148579500D01*
X113345555Y-148020700D01*
X113337832Y-147942286D01*
X113325020Y-147900050D01*
X113337832Y-147857814D01*
X113345555Y-147779400D01*
X113345555Y-147382992D01*
X113431056Y-147400000D01*
X113568944Y-147400000D01*
X113704182Y-147373099D01*
X113831574Y-147320332D01*
X113946224Y-147243726D01*
X114043726Y-147146224D01*
X114120332Y-147031574D01*
X114173099Y-146904182D01*
X114200000Y-146768944D01*
X114200000Y-146631056D01*
X114173099Y-146495818D01*
X114134380Y-146402340D01*
X115012390Y-146402340D01*
X115053776Y-146443726D01*
X115168426Y-146520332D01*
X115295818Y-146573099D01*
X115431056Y-146600000D01*
X115568944Y-146600000D01*
X115704182Y-146573099D01*
X115831574Y-146520332D01*
X115946224Y-146443726D01*
X116043726Y-146346224D01*
X116120332Y-146231574D01*
X116173099Y-146104182D01*
X116200000Y-145968944D01*
X116200000Y-145831056D01*
X116189158Y-145776550D01*
X116307046Y-145800000D01*
X116444934Y-145800000D01*
X116580172Y-145773099D01*
X116707564Y-145720332D01*
X116822214Y-145643726D01*
X116863700Y-145602240D01*
X119858924Y-145602240D01*
X119856885Y-145622940D01*
X119856885Y-145622940D01*
G37*
X119856885Y-145622940D02*
X119856885Y-146181740D01*
X119864608Y-146260154D01*
X119877420Y-146302390D01*
X119864608Y-146344626D01*
X119856885Y-146423040D01*
X119856885Y-146664095D01*
X119801602Y-146627156D01*
X119674210Y-146574389D01*
X119538972Y-146547488D01*
X119401084Y-146547488D01*
X119265846Y-146574389D01*
X119138454Y-146627156D01*
X119023804Y-146703762D01*
X118926302Y-146801264D01*
X118877034Y-146875000D01*
X117764950Y-146875000D01*
X117746224Y-146856274D01*
X117631574Y-146779668D01*
X117504182Y-146726901D01*
X117368944Y-146700000D01*
X117231056Y-146700000D01*
X117095818Y-146726901D01*
X116968426Y-146779668D01*
X116853776Y-146856274D01*
X116756274Y-146953776D01*
X116679668Y-147068426D01*
X116626901Y-147195818D01*
X116600000Y-147331056D01*
X116600000Y-147468944D01*
X116626901Y-147604182D01*
X116679668Y-147731574D01*
X116756274Y-147846224D01*
X116853776Y-147943726D01*
X116968426Y-148020332D01*
X117095818Y-148073099D01*
X117231056Y-148100000D01*
X117368944Y-148100000D01*
X117504182Y-148073099D01*
X117631574Y-148020332D01*
X117746224Y-147943726D01*
X117764950Y-147925000D01*
X119288031Y-147925000D01*
X119401084Y-147947488D01*
X119538972Y-147947488D01*
X119666186Y-147922183D01*
X119697751Y-148021168D01*
X119754893Y-148124525D01*
X119480416Y-148399002D01*
X115106108Y-148399002D01*
X115000000Y-148292894D01*
X115000000Y-148231056D01*
X114973099Y-148095818D01*
X114920332Y-147968426D01*
X114843726Y-147853776D01*
X114746224Y-147756274D01*
X114631574Y-147679668D01*
X114504182Y-147626901D01*
X114368944Y-147600000D01*
X114231056Y-147600000D01*
X114095818Y-147626901D01*
X113968426Y-147679668D01*
X113853776Y-147756274D01*
X113756274Y-147853776D01*
X113679668Y-147968426D01*
X113626901Y-148095818D01*
X113600000Y-148231056D01*
X113600000Y-148368944D01*
X113626901Y-148504182D01*
X113679668Y-148631574D01*
X113756274Y-148746224D01*
X113853776Y-148843726D01*
X113968426Y-148920332D01*
X114095818Y-148973099D01*
X114231056Y-149000000D01*
X114292894Y-149000000D01*
X114528082Y-149235188D01*
X114543738Y-149254266D01*
X114619873Y-149316748D01*
X114706735Y-149363177D01*
X114800985Y-149391767D01*
X114899002Y-149401421D01*
X114923562Y-149399002D01*
X119662962Y-149399002D01*
X119687522Y-149401421D01*
X119712082Y-149399002D01*
X119785539Y-149391767D01*
X119856885Y-149370125D01*
X119856885Y-149379600D01*
X119864608Y-149458014D01*
X119877420Y-149500250D01*
X119864608Y-149542486D01*
X119856885Y-149620900D01*
X119856885Y-149644199D01*
X119797799Y-149612617D01*
X119698836Y-149582597D01*
X119621706Y-149575000D01*
X119621698Y-149575000D01*
X119595918Y-149572461D01*
X119570138Y-149575000D01*
X118264950Y-149575000D01*
X118246224Y-149556274D01*
X118131574Y-149479668D01*
X118004182Y-149426901D01*
X117868944Y-149400000D01*
X117731056Y-149400000D01*
X117595818Y-149426901D01*
X117468426Y-149479668D01*
X117353776Y-149556274D01*
X117256274Y-149653776D01*
X117179668Y-149768426D01*
X117126901Y-149895818D01*
X117100000Y-150031056D01*
X117100000Y-150168944D01*
X117126901Y-150304182D01*
X117148731Y-150356885D01*
X116720600Y-150356885D01*
X116642186Y-150364608D01*
X116601220Y-150377035D01*
X116560254Y-150364608D01*
X116481840Y-150356885D01*
X115923040Y-150356885D01*
X115844626Y-150364608D01*
X115802390Y-150377420D01*
X115760154Y-150364608D01*
X115681740Y-150356885D01*
X115122940Y-150356885D01*
X115044526Y-150364608D01*
X115002290Y-150377420D01*
X114960054Y-150364608D01*
X114881640Y-150356885D01*
X114322840Y-150356885D01*
X114244426Y-150364608D01*
X114202190Y-150377420D01*
X114159954Y-150364608D01*
X114081540Y-150356885D01*
X113522740Y-150356885D01*
X113444326Y-150364608D01*
X113368926Y-150387480D01*
X113299437Y-150424623D01*
X113238529Y-150474609D01*
X113188543Y-150535517D01*
X113151400Y-150605006D01*
X113128528Y-150680406D01*
X113120805Y-150758820D01*
X113120805Y-150868820D01*
X111831282Y-150868820D01*
X111506263Y-150543801D01*
X111519806Y-150551040D01*
X111595206Y-150573912D01*
X111673620Y-150581635D01*
X112943620Y-150581635D01*
X113022034Y-150573912D01*
X113097434Y-150551040D01*
X113166923Y-150513897D01*
X113227831Y-150463911D01*
X113277817Y-150403003D01*
X113314960Y-150333514D01*
X113337832Y-150258114D01*
X113345555Y-150179700D01*
X113345555Y-149620900D01*
X113337832Y-149542486D01*
X113325020Y-149500250D01*
X113337832Y-149458014D01*
X113345555Y-149379600D01*
X113345555Y-148820800D01*
X113337832Y-148742386D01*
X113325020Y-148700150D01*
X113337832Y-148657914D01*
X113345555Y-148579500D01*
X113345555Y-148020700D01*
X113337832Y-147942286D01*
X113325020Y-147900050D01*
X113337832Y-147857814D01*
X113345555Y-147779400D01*
X113345555Y-147382992D01*
X113431056Y-147400000D01*
X113568944Y-147400000D01*
X113704182Y-147373099D01*
X113831574Y-147320332D01*
X113946224Y-147243726D01*
X114043726Y-147146224D01*
X114120332Y-147031574D01*
X114173099Y-146904182D01*
X114200000Y-146768944D01*
X114200000Y-146631056D01*
X114173099Y-146495818D01*
X114134380Y-146402340D01*
X115012390Y-146402340D01*
X115053776Y-146443726D01*
X115168426Y-146520332D01*
X115295818Y-146573099D01*
X115431056Y-146600000D01*
X115568944Y-146600000D01*
X115704182Y-146573099D01*
X115831574Y-146520332D01*
X115946224Y-146443726D01*
X116043726Y-146346224D01*
X116120332Y-146231574D01*
X116173099Y-146104182D01*
X116200000Y-145968944D01*
X116200000Y-145831056D01*
X116189158Y-145776550D01*
X116307046Y-145800000D01*
X116444934Y-145800000D01*
X116580172Y-145773099D01*
X116707564Y-145720332D01*
X116822214Y-145643726D01*
X116863700Y-145602240D01*
X119858924Y-145602240D01*
X119856885Y-145622940D01*
G36*
X122592000Y-147306000D02*
G01*
X122589058Y-147400000D01*
X122600797Y-147519189D01*
X122635563Y-147633797D01*
X122692020Y-147739421D01*
X122767999Y-147832001D01*
X122860579Y-147907980D01*
X122966203Y-147964437D01*
X123048065Y-147989270D01*
X123048065Y-148509473D01*
X122983447Y-148574091D01*
X122974219Y-148575000D01*
X122974212Y-148575000D01*
X122897082Y-148582597D01*
X122798119Y-148612617D01*
X122706914Y-148661367D01*
X122626973Y-148726973D01*
X122610534Y-148747004D01*
X121982239Y-149375300D01*
X121930755Y-149375300D01*
X121930755Y-148820800D01*
X121923032Y-148742386D01*
X121910220Y-148700150D01*
X121923032Y-148657914D01*
X121930755Y-148579500D01*
X121930755Y-148236534D01*
X121954660Y-148217476D01*
X122031942Y-148125981D01*
X122089889Y-148021168D01*
X122126275Y-147907063D01*
X122136820Y-147806000D01*
X121984822Y-147654002D01*
X122136820Y-147654002D01*
X122136820Y-147568025D01*
X122232014Y-147549089D01*
X122359406Y-147496322D01*
X122474056Y-147419716D01*
X122571558Y-147322214D01*
X122648164Y-147207564D01*
X122670350Y-147154002D01*
X122743998Y-147154002D01*
X122592000Y-147306000D01*
X122592000Y-147306000D01*
G37*
X122592000Y-147306000D02*
X122589058Y-147400000D01*
X122600797Y-147519189D01*
X122635563Y-147633797D01*
X122692020Y-147739421D01*
X122767999Y-147832001D01*
X122860579Y-147907980D01*
X122966203Y-147964437D01*
X123048065Y-147989270D01*
X123048065Y-148509473D01*
X122983447Y-148574091D01*
X122974219Y-148575000D01*
X122974212Y-148575000D01*
X122897082Y-148582597D01*
X122798119Y-148612617D01*
X122706914Y-148661367D01*
X122626973Y-148726973D01*
X122610534Y-148747004D01*
X121982239Y-149375300D01*
X121930755Y-149375300D01*
X121930755Y-148820800D01*
X121923032Y-148742386D01*
X121910220Y-148700150D01*
X121923032Y-148657914D01*
X121930755Y-148579500D01*
X121930755Y-148236534D01*
X121954660Y-148217476D01*
X122031942Y-148125981D01*
X122089889Y-148021168D01*
X122126275Y-147907063D01*
X122136820Y-147806000D01*
X121984822Y-147654002D01*
X122136820Y-147654002D01*
X122136820Y-147568025D01*
X122232014Y-147549089D01*
X122359406Y-147496322D01*
X122474056Y-147419716D01*
X122571558Y-147322214D01*
X122648164Y-147207564D01*
X122670350Y-147154002D01*
X122743998Y-147154002D01*
X122592000Y-147306000D01*
G36*
X121067820Y-147618765D02*
G01*
X120719820Y-147618765D01*
X120719820Y-147383775D01*
X121067820Y-147383775D01*
X121067820Y-147618765D01*
X121067820Y-147618765D01*
G37*
X121067820Y-147618765D02*
X120719820Y-147618765D01*
X120719820Y-147383775D01*
X121067820Y-147383775D01*
X121067820Y-147618765D01*
G36*
X110654000Y-144633500D02*
G01*
X110674000Y-144633500D01*
X110674000Y-144941500D01*
X110654000Y-144941500D01*
X110654000Y-145681000D01*
X110806000Y-145833000D01*
X110975000Y-145835942D01*
X111094189Y-145824203D01*
X111208797Y-145789437D01*
X111218034Y-145784500D01*
X111247780Y-145819716D01*
X111271685Y-145838774D01*
X111271685Y-146181740D01*
X111279408Y-146260154D01*
X111292220Y-146302390D01*
X111279408Y-146344626D01*
X111271685Y-146423040D01*
X111271685Y-146757063D01*
X111222576Y-146757063D01*
X111087338Y-146783964D01*
X110959946Y-146836731D01*
X110845296Y-146913337D01*
X110747794Y-147010839D01*
X110671188Y-147125489D01*
X110618421Y-147252881D01*
X110591520Y-147388119D01*
X110591520Y-147525639D01*
X109648012Y-146582131D01*
X109648012Y-145702149D01*
X109685579Y-145732980D01*
X109791203Y-145789437D01*
X109905811Y-145824203D01*
X110025000Y-145835942D01*
X110194000Y-145833000D01*
X110346000Y-145681000D01*
X110346000Y-144941500D01*
X110326000Y-144941500D01*
X110326000Y-144633500D01*
X110346000Y-144633500D01*
X110346000Y-144613500D01*
X110654000Y-144613500D01*
X110654000Y-144633500D01*
X110654000Y-144633500D01*
G37*
X110654000Y-144633500D02*
X110674000Y-144633500D01*
X110674000Y-144941500D01*
X110654000Y-144941500D01*
X110654000Y-145681000D01*
X110806000Y-145833000D01*
X110975000Y-145835942D01*
X111094189Y-145824203D01*
X111208797Y-145789437D01*
X111218034Y-145784500D01*
X111247780Y-145819716D01*
X111271685Y-145838774D01*
X111271685Y-146181740D01*
X111279408Y-146260154D01*
X111292220Y-146302390D01*
X111279408Y-146344626D01*
X111271685Y-146423040D01*
X111271685Y-146757063D01*
X111222576Y-146757063D01*
X111087338Y-146783964D01*
X110959946Y-146836731D01*
X110845296Y-146913337D01*
X110747794Y-147010839D01*
X110671188Y-147125489D01*
X110618421Y-147252881D01*
X110591520Y-147388119D01*
X110591520Y-147525639D01*
X109648012Y-146582131D01*
X109648012Y-145702149D01*
X109685579Y-145732980D01*
X109791203Y-145789437D01*
X109905811Y-145824203D01*
X110025000Y-145835942D01*
X110194000Y-145833000D01*
X110346000Y-145681000D01*
X110346000Y-144941500D01*
X110326000Y-144941500D01*
X110326000Y-144633500D01*
X110346000Y-144633500D01*
X110346000Y-144613500D01*
X110654000Y-144613500D01*
X110654000Y-144633500D01*
G36*
X123754000Y-146846000D02*
G01*
X123774000Y-146846000D01*
X123774000Y-147154000D01*
X123754000Y-147154000D01*
X123754000Y-147174000D01*
X123446000Y-147174000D01*
X123446000Y-147154000D01*
X123426000Y-147154000D01*
X123426000Y-146846000D01*
X123446000Y-146846000D01*
X123446000Y-146826000D01*
X123754000Y-146826000D01*
X123754000Y-146846000D01*
X123754000Y-146846000D01*
G37*
X123754000Y-146846000D02*
X123774000Y-146846000D01*
X123774000Y-147154000D01*
X123754000Y-147154000D01*
X123754000Y-147174000D01*
X123446000Y-147174000D01*
X123446000Y-147154000D01*
X123426000Y-147154000D01*
X123426000Y-146846000D01*
X123446000Y-146846000D01*
X123446000Y-146826000D01*
X123754000Y-146826000D01*
X123754000Y-146846000D01*
G36*
X121953495Y-144415001D02*
G01*
X121953502Y-144415001D01*
X121979282Y-144417540D01*
X122005062Y-144415001D01*
X122374151Y-144415001D01*
X122354127Y-144481011D01*
X122342388Y-144600200D01*
X122345330Y-144743780D01*
X122497330Y-144895780D01*
X123298440Y-144895780D01*
X123298440Y-144875780D01*
X123606440Y-144875780D01*
X123606440Y-144895780D01*
X123626440Y-144895780D01*
X123626440Y-145203780D01*
X123606440Y-145203780D01*
X123606440Y-145223780D01*
X123298440Y-145223780D01*
X123298440Y-145203780D01*
X122497330Y-145203780D01*
X122345330Y-145355780D01*
X122342388Y-145499360D01*
X122354127Y-145618549D01*
X122388893Y-145733157D01*
X122420182Y-145791695D01*
X122334737Y-145837366D01*
X122254796Y-145902972D01*
X122238356Y-145923004D01*
X121985371Y-146175990D01*
X121958888Y-146175990D01*
X121930755Y-146181586D01*
X121930755Y-145622940D01*
X121923032Y-145544526D01*
X121910220Y-145502290D01*
X121923032Y-145460054D01*
X121930755Y-145381640D01*
X121930755Y-144822840D01*
X121923032Y-144744426D01*
X121910220Y-144702190D01*
X121923032Y-144659954D01*
X121930755Y-144581540D01*
X121930755Y-144412761D01*
X121953495Y-144415001D01*
X121953495Y-144415001D01*
G37*
X121953495Y-144415001D02*
X121953502Y-144415001D01*
X121979282Y-144417540D01*
X122005062Y-144415001D01*
X122374151Y-144415001D01*
X122354127Y-144481011D01*
X122342388Y-144600200D01*
X122345330Y-144743780D01*
X122497330Y-144895780D01*
X123298440Y-144895780D01*
X123298440Y-144875780D01*
X123606440Y-144875780D01*
X123606440Y-144895780D01*
X123626440Y-144895780D01*
X123626440Y-145203780D01*
X123606440Y-145203780D01*
X123606440Y-145223780D01*
X123298440Y-145223780D01*
X123298440Y-145203780D01*
X122497330Y-145203780D01*
X122345330Y-145355780D01*
X122342388Y-145499360D01*
X122354127Y-145618549D01*
X122388893Y-145733157D01*
X122420182Y-145791695D01*
X122334737Y-145837366D01*
X122254796Y-145902972D01*
X122238356Y-145923004D01*
X121985371Y-146175990D01*
X121958888Y-146175990D01*
X121930755Y-146181586D01*
X121930755Y-145622940D01*
X121923032Y-145544526D01*
X121910220Y-145502290D01*
X121923032Y-145460054D01*
X121930755Y-145381640D01*
X121930755Y-144822840D01*
X121923032Y-144744426D01*
X121910220Y-144702190D01*
X121923032Y-144659954D01*
X121930755Y-144581540D01*
X121930755Y-144412761D01*
X121953495Y-144415001D01*
G36*
X113120805Y-143443620D02*
G01*
X113128528Y-143522034D01*
X113151400Y-143597434D01*
X113188543Y-143666923D01*
X113238529Y-143727831D01*
X113299437Y-143777817D01*
X113368926Y-143814960D01*
X113444326Y-143837832D01*
X113522740Y-143845555D01*
X114081540Y-143845555D01*
X114159954Y-143837832D01*
X114202190Y-143825020D01*
X114244426Y-143837832D01*
X114322840Y-143845555D01*
X114881640Y-143845555D01*
X114960054Y-143837832D01*
X115002290Y-143825020D01*
X115044526Y-143837832D01*
X115122940Y-143845555D01*
X115681740Y-143845555D01*
X115760154Y-143837832D01*
X115802390Y-143825020D01*
X115844626Y-143837832D01*
X115923040Y-143845555D01*
X116317008Y-143845555D01*
X116300000Y-143931056D01*
X116300000Y-144068944D01*
X116326901Y-144204182D01*
X116379668Y-144331574D01*
X116425388Y-144400000D01*
X116307046Y-144400000D01*
X116171808Y-144426901D01*
X116044416Y-144479668D01*
X115929766Y-144556274D01*
X115832264Y-144653776D01*
X115755658Y-144768426D01*
X115702891Y-144895818D01*
X115675990Y-145031056D01*
X115675990Y-145168944D01*
X115686832Y-145223450D01*
X115568944Y-145200000D01*
X115431056Y-145200000D01*
X115295818Y-145226901D01*
X115168426Y-145279668D01*
X115053776Y-145356274D01*
X115007710Y-145402340D01*
X113545720Y-145402340D01*
X113399620Y-145256240D01*
X113106115Y-145256240D01*
X113097434Y-145251600D01*
X113022034Y-145228728D01*
X112943620Y-145221005D01*
X112134620Y-145221005D01*
X112134620Y-144983475D01*
X112943620Y-144983475D01*
X113022034Y-144975752D01*
X113097434Y-144952880D01*
X113106115Y-144948240D01*
X113399620Y-144948240D01*
X113551620Y-144796240D01*
X113541075Y-144695177D01*
X113504689Y-144581072D01*
X113446742Y-144476259D01*
X113369460Y-144384764D01*
X113345555Y-144365706D01*
X113345555Y-144022740D01*
X113337832Y-143944326D01*
X113314960Y-143868926D01*
X113277817Y-143799437D01*
X113227831Y-143738529D01*
X113166923Y-143688543D01*
X113097434Y-143651400D01*
X113022034Y-143628528D01*
X112943620Y-143620805D01*
X112795973Y-143620805D01*
X112747252Y-143529656D01*
X112681646Y-143449714D01*
X112621069Y-143400000D01*
X112668944Y-143400000D01*
X112804182Y-143373099D01*
X112899494Y-143333620D01*
X113120805Y-143333620D01*
X113120805Y-143443620D01*
X113120805Y-143443620D01*
G37*
X113120805Y-143443620D02*
X113128528Y-143522034D01*
X113151400Y-143597434D01*
X113188543Y-143666923D01*
X113238529Y-143727831D01*
X113299437Y-143777817D01*
X113368926Y-143814960D01*
X113444326Y-143837832D01*
X113522740Y-143845555D01*
X114081540Y-143845555D01*
X114159954Y-143837832D01*
X114202190Y-143825020D01*
X114244426Y-143837832D01*
X114322840Y-143845555D01*
X114881640Y-143845555D01*
X114960054Y-143837832D01*
X115002290Y-143825020D01*
X115044526Y-143837832D01*
X115122940Y-143845555D01*
X115681740Y-143845555D01*
X115760154Y-143837832D01*
X115802390Y-143825020D01*
X115844626Y-143837832D01*
X115923040Y-143845555D01*
X116317008Y-143845555D01*
X116300000Y-143931056D01*
X116300000Y-144068944D01*
X116326901Y-144204182D01*
X116379668Y-144331574D01*
X116425388Y-144400000D01*
X116307046Y-144400000D01*
X116171808Y-144426901D01*
X116044416Y-144479668D01*
X115929766Y-144556274D01*
X115832264Y-144653776D01*
X115755658Y-144768426D01*
X115702891Y-144895818D01*
X115675990Y-145031056D01*
X115675990Y-145168944D01*
X115686832Y-145223450D01*
X115568944Y-145200000D01*
X115431056Y-145200000D01*
X115295818Y-145226901D01*
X115168426Y-145279668D01*
X115053776Y-145356274D01*
X115007710Y-145402340D01*
X113545720Y-145402340D01*
X113399620Y-145256240D01*
X113106115Y-145256240D01*
X113097434Y-145251600D01*
X113022034Y-145228728D01*
X112943620Y-145221005D01*
X112134620Y-145221005D01*
X112134620Y-144983475D01*
X112943620Y-144983475D01*
X113022034Y-144975752D01*
X113097434Y-144952880D01*
X113106115Y-144948240D01*
X113399620Y-144948240D01*
X113551620Y-144796240D01*
X113541075Y-144695177D01*
X113504689Y-144581072D01*
X113446742Y-144476259D01*
X113369460Y-144384764D01*
X113345555Y-144365706D01*
X113345555Y-144022740D01*
X113337832Y-143944326D01*
X113314960Y-143868926D01*
X113277817Y-143799437D01*
X113227831Y-143738529D01*
X113166923Y-143688543D01*
X113097434Y-143651400D01*
X113022034Y-143628528D01*
X112943620Y-143620805D01*
X112795973Y-143620805D01*
X112747252Y-143529656D01*
X112681646Y-143449714D01*
X112621069Y-143400000D01*
X112668944Y-143400000D01*
X112804182Y-143373099D01*
X112899494Y-143333620D01*
X113120805Y-143333620D01*
X113120805Y-143443620D01*
G36*
X121097764Y-142166703D02*
G01*
X121097764Y-142661985D01*
X121095225Y-142687762D01*
X121097764Y-142713542D01*
X121097764Y-142713552D01*
X121102036Y-142756914D01*
X121105361Y-142790678D01*
X121135380Y-142889642D01*
X121179618Y-142972405D01*
X121184132Y-142980850D01*
X121205212Y-143006536D01*
X120528701Y-143006536D01*
X120528701Y-141940198D01*
X120531240Y-141914418D01*
X120528701Y-141888638D01*
X120528701Y-141888631D01*
X120521104Y-141811501D01*
X120491084Y-141712538D01*
X120442334Y-141621333D01*
X120376728Y-141541392D01*
X120356691Y-141524948D01*
X120328372Y-141496629D01*
X120311928Y-141476592D01*
X120290493Y-141459001D01*
X120390064Y-141459001D01*
X121097764Y-142166703D01*
X121097764Y-142166703D01*
G37*
X121097764Y-142166703D02*
X121097764Y-142661985D01*
X121095225Y-142687762D01*
X121097764Y-142713542D01*
X121097764Y-142713552D01*
X121102036Y-142756914D01*
X121105361Y-142790678D01*
X121135380Y-142889642D01*
X121179618Y-142972405D01*
X121184132Y-142980850D01*
X121205212Y-143006536D01*
X120528701Y-143006536D01*
X120528701Y-141940198D01*
X120531240Y-141914418D01*
X120528701Y-141888638D01*
X120528701Y-141888631D01*
X120521104Y-141811501D01*
X120491084Y-141712538D01*
X120442334Y-141621333D01*
X120376728Y-141541392D01*
X120356691Y-141524948D01*
X120328372Y-141496629D01*
X120311928Y-141476592D01*
X120290493Y-141459001D01*
X120390064Y-141459001D01*
X121097764Y-142166703D01*
G36*
X123606440Y-140796220D02*
G01*
X123626440Y-140796220D01*
X123626440Y-141104220D01*
X123606440Y-141104220D01*
X123606440Y-141124220D01*
X123298440Y-141124220D01*
X123298440Y-141104220D01*
X123278440Y-141104220D01*
X123278440Y-140796220D01*
X123298440Y-140796220D01*
X123298440Y-140776220D01*
X123606440Y-140776220D01*
X123606440Y-140796220D01*
X123606440Y-140796220D01*
G37*
X123606440Y-140796220D02*
X123626440Y-140796220D01*
X123626440Y-141104220D01*
X123606440Y-141104220D01*
X123606440Y-141124220D01*
X123298440Y-141124220D01*
X123298440Y-141104220D01*
X123278440Y-141104220D01*
X123278440Y-140796220D01*
X123298440Y-140796220D01*
X123298440Y-140776220D01*
X123606440Y-140776220D01*
X123606440Y-140796220D01*
G36*
X115729560Y-140641320D02*
G01*
X115749560Y-140641320D01*
X115749560Y-140949320D01*
X115729560Y-140949320D01*
X115729560Y-140969320D01*
X115421560Y-140969320D01*
X115421560Y-140949320D01*
X115401560Y-140949320D01*
X115401560Y-140641320D01*
X115421560Y-140641320D01*
X115421560Y-140621320D01*
X115729560Y-140621320D01*
X115729560Y-140641320D01*
X115729560Y-140641320D01*
G37*
X115729560Y-140641320D02*
X115749560Y-140641320D01*
X115749560Y-140949320D01*
X115729560Y-140949320D01*
X115729560Y-140969320D01*
X115421560Y-140969320D01*
X115421560Y-140949320D01*
X115401560Y-140949320D01*
X115401560Y-140641320D01*
X115421560Y-140641320D01*
X115421560Y-140621320D01*
X115729560Y-140621320D01*
X115729560Y-140641320D01*
G36*
X118854000Y-137606000D02*
G01*
X118874000Y-137606000D01*
X118874000Y-137914000D01*
X118854000Y-137914000D01*
X118854000Y-137934000D01*
X118546000Y-137934000D01*
X118546000Y-137914000D01*
X118526000Y-137914000D01*
X118526000Y-137606000D01*
X118546000Y-137606000D01*
X118546000Y-137586000D01*
X118854000Y-137586000D01*
X118854000Y-137606000D01*
X118854000Y-137606000D01*
G37*
X118854000Y-137606000D02*
X118874000Y-137606000D01*
X118874000Y-137914000D01*
X118854000Y-137914000D01*
X118854000Y-137934000D01*
X118546000Y-137934000D01*
X118546000Y-137914000D01*
X118526000Y-137914000D01*
X118526000Y-137606000D01*
X118546000Y-137606000D01*
X118546000Y-137586000D01*
X118854000Y-137586000D01*
X118854000Y-137606000D01*
G36*
X117456274Y-132746224D02*
G01*
X117553776Y-132843726D01*
X117668426Y-132920332D01*
X117795818Y-132973099D01*
X117931056Y-133000000D01*
X117957539Y-133000000D01*
X120341533Y-135383995D01*
X120357972Y-135404026D01*
X120391465Y-135431513D01*
X120364398Y-135496858D01*
X120335000Y-135644654D01*
X120335000Y-135795346D01*
X120364398Y-135943142D01*
X120422065Y-136082364D01*
X120505785Y-136207659D01*
X120612341Y-136314215D01*
X120737636Y-136397935D01*
X120876858Y-136455602D01*
X121024654Y-136485000D01*
X121175346Y-136485000D01*
X121323142Y-136455602D01*
X121462364Y-136397935D01*
X121587659Y-136314215D01*
X121694215Y-136207659D01*
X121777935Y-136082364D01*
X121835602Y-135943142D01*
X121862990Y-135805451D01*
X122386035Y-136328496D01*
X122273932Y-136282062D01*
X122138694Y-136255161D01*
X122000806Y-136255161D01*
X121865568Y-136282062D01*
X121738176Y-136334829D01*
X121623526Y-136411435D01*
X121526024Y-136508937D01*
X121449418Y-136623587D01*
X121396651Y-136750979D01*
X121369750Y-136886217D01*
X121369750Y-137024105D01*
X121396651Y-137159343D01*
X121449418Y-137286735D01*
X121498065Y-137359541D01*
X121498065Y-137724000D01*
X121350000Y-137724000D01*
X121350000Y-137704000D01*
X120794000Y-137704000D01*
X120687623Y-137810377D01*
X120351935Y-137474689D01*
X120351935Y-137244000D01*
X120642000Y-137244000D01*
X120794000Y-137396000D01*
X121350000Y-137396000D01*
X121350000Y-136769000D01*
X121198000Y-136617000D01*
X121106166Y-136631231D01*
X120993091Y-136670701D01*
X120889889Y-136731472D01*
X120800526Y-136811209D01*
X120728436Y-136906848D01*
X120676389Y-137014713D01*
X120646386Y-137130660D01*
X120642000Y-137244000D01*
X120351935Y-137244000D01*
X120351935Y-137190000D01*
X120344212Y-137111586D01*
X120321340Y-137036186D01*
X120284197Y-136966697D01*
X120234211Y-136905789D01*
X120173303Y-136855803D01*
X120169022Y-136853514D01*
X120167403Y-136837082D01*
X120137383Y-136738119D01*
X120088633Y-136646914D01*
X120023027Y-136566973D01*
X120002990Y-136550529D01*
X119965470Y-136513009D01*
X119949026Y-136492972D01*
X119869085Y-136427366D01*
X119777880Y-136378616D01*
X119678917Y-136348596D01*
X119601787Y-136340999D01*
X119601779Y-136340999D01*
X119575999Y-136338460D01*
X119550219Y-136340999D01*
X119007574Y-136340999D01*
X119047659Y-136314215D01*
X119154215Y-136207659D01*
X119237935Y-136082364D01*
X119295602Y-135943142D01*
X119325000Y-135795346D01*
X119325000Y-135644654D01*
X119295602Y-135496858D01*
X119237935Y-135357636D01*
X119154215Y-135232341D01*
X119047659Y-135125785D01*
X118922364Y-135042065D01*
X118783142Y-134984398D01*
X118635346Y-134955000D01*
X118484654Y-134955000D01*
X118336858Y-134984398D01*
X118197636Y-135042065D01*
X118072341Y-135125785D01*
X117965785Y-135232341D01*
X117882065Y-135357636D01*
X117824398Y-135496858D01*
X117795000Y-135644654D01*
X117795000Y-135795346D01*
X117824398Y-135943142D01*
X117882065Y-136082364D01*
X117965785Y-136207659D01*
X118072341Y-136314215D01*
X118112758Y-136341221D01*
X118037881Y-136348596D01*
X117938918Y-136378616D01*
X117847713Y-136427366D01*
X117767772Y-136492972D01*
X117751332Y-136513004D01*
X117633399Y-136630937D01*
X117058472Y-136056011D01*
X117042028Y-136035974D01*
X116962087Y-135970368D01*
X116870882Y-135921618D01*
X116771919Y-135891598D01*
X116765971Y-135891012D01*
X116785000Y-135795346D01*
X116785000Y-135644654D01*
X116755602Y-135496858D01*
X116697935Y-135357636D01*
X116614215Y-135232341D01*
X116507659Y-135125785D01*
X116382364Y-135042065D01*
X116243142Y-134984398D01*
X116095346Y-134955000D01*
X116065945Y-134955000D01*
X116075000Y-134863065D01*
X116075000Y-134863064D01*
X116078749Y-134825001D01*
X116075000Y-134786938D01*
X116075000Y-133161935D01*
X116063786Y-133048074D01*
X116052060Y-133009418D01*
X116177975Y-133061574D01*
X116391265Y-133104000D01*
X116608735Y-133104000D01*
X116822025Y-133061574D01*
X117022940Y-132978352D01*
X117203759Y-132857533D01*
X117357533Y-132703759D01*
X117392717Y-132651103D01*
X117456274Y-132746224D01*
X117456274Y-132746224D01*
G37*
X117456274Y-132746224D02*
X117553776Y-132843726D01*
X117668426Y-132920332D01*
X117795818Y-132973099D01*
X117931056Y-133000000D01*
X117957539Y-133000000D01*
X120341533Y-135383995D01*
X120357972Y-135404026D01*
X120391465Y-135431513D01*
X120364398Y-135496858D01*
X120335000Y-135644654D01*
X120335000Y-135795346D01*
X120364398Y-135943142D01*
X120422065Y-136082364D01*
X120505785Y-136207659D01*
X120612341Y-136314215D01*
X120737636Y-136397935D01*
X120876858Y-136455602D01*
X121024654Y-136485000D01*
X121175346Y-136485000D01*
X121323142Y-136455602D01*
X121462364Y-136397935D01*
X121587659Y-136314215D01*
X121694215Y-136207659D01*
X121777935Y-136082364D01*
X121835602Y-135943142D01*
X121862990Y-135805451D01*
X122386035Y-136328496D01*
X122273932Y-136282062D01*
X122138694Y-136255161D01*
X122000806Y-136255161D01*
X121865568Y-136282062D01*
X121738176Y-136334829D01*
X121623526Y-136411435D01*
X121526024Y-136508937D01*
X121449418Y-136623587D01*
X121396651Y-136750979D01*
X121369750Y-136886217D01*
X121369750Y-137024105D01*
X121396651Y-137159343D01*
X121449418Y-137286735D01*
X121498065Y-137359541D01*
X121498065Y-137724000D01*
X121350000Y-137724000D01*
X121350000Y-137704000D01*
X120794000Y-137704000D01*
X120687623Y-137810377D01*
X120351935Y-137474689D01*
X120351935Y-137244000D01*
X120642000Y-137244000D01*
X120794000Y-137396000D01*
X121350000Y-137396000D01*
X121350000Y-136769000D01*
X121198000Y-136617000D01*
X121106166Y-136631231D01*
X120993091Y-136670701D01*
X120889889Y-136731472D01*
X120800526Y-136811209D01*
X120728436Y-136906848D01*
X120676389Y-137014713D01*
X120646386Y-137130660D01*
X120642000Y-137244000D01*
X120351935Y-137244000D01*
X120351935Y-137190000D01*
X120344212Y-137111586D01*
X120321340Y-137036186D01*
X120284197Y-136966697D01*
X120234211Y-136905789D01*
X120173303Y-136855803D01*
X120169022Y-136853514D01*
X120167403Y-136837082D01*
X120137383Y-136738119D01*
X120088633Y-136646914D01*
X120023027Y-136566973D01*
X120002990Y-136550529D01*
X119965470Y-136513009D01*
X119949026Y-136492972D01*
X119869085Y-136427366D01*
X119777880Y-136378616D01*
X119678917Y-136348596D01*
X119601787Y-136340999D01*
X119601779Y-136340999D01*
X119575999Y-136338460D01*
X119550219Y-136340999D01*
X119007574Y-136340999D01*
X119047659Y-136314215D01*
X119154215Y-136207659D01*
X119237935Y-136082364D01*
X119295602Y-135943142D01*
X119325000Y-135795346D01*
X119325000Y-135644654D01*
X119295602Y-135496858D01*
X119237935Y-135357636D01*
X119154215Y-135232341D01*
X119047659Y-135125785D01*
X118922364Y-135042065D01*
X118783142Y-134984398D01*
X118635346Y-134955000D01*
X118484654Y-134955000D01*
X118336858Y-134984398D01*
X118197636Y-135042065D01*
X118072341Y-135125785D01*
X117965785Y-135232341D01*
X117882065Y-135357636D01*
X117824398Y-135496858D01*
X117795000Y-135644654D01*
X117795000Y-135795346D01*
X117824398Y-135943142D01*
X117882065Y-136082364D01*
X117965785Y-136207659D01*
X118072341Y-136314215D01*
X118112758Y-136341221D01*
X118037881Y-136348596D01*
X117938918Y-136378616D01*
X117847713Y-136427366D01*
X117767772Y-136492972D01*
X117751332Y-136513004D01*
X117633399Y-136630937D01*
X117058472Y-136056011D01*
X117042028Y-136035974D01*
X116962087Y-135970368D01*
X116870882Y-135921618D01*
X116771919Y-135891598D01*
X116765971Y-135891012D01*
X116785000Y-135795346D01*
X116785000Y-135644654D01*
X116755602Y-135496858D01*
X116697935Y-135357636D01*
X116614215Y-135232341D01*
X116507659Y-135125785D01*
X116382364Y-135042065D01*
X116243142Y-134984398D01*
X116095346Y-134955000D01*
X116065945Y-134955000D01*
X116075000Y-134863065D01*
X116075000Y-134863064D01*
X116078749Y-134825001D01*
X116075000Y-134786938D01*
X116075000Y-133161935D01*
X116063786Y-133048074D01*
X116052060Y-133009418D01*
X116177975Y-133061574D01*
X116391265Y-133104000D01*
X116608735Y-133104000D01*
X116822025Y-133061574D01*
X117022940Y-132978352D01*
X117203759Y-132857533D01*
X117357533Y-132703759D01*
X117392717Y-132651103D01*
X117456274Y-132746224D01*
G36*
X122850000Y-137396000D02*
G01*
X122924000Y-137396000D01*
X122924000Y-137704000D01*
X122850000Y-137704000D01*
X122850000Y-137724000D01*
X122701935Y-137724000D01*
X122701935Y-137376000D01*
X122850000Y-137376000D01*
X122850000Y-137396000D01*
X122850000Y-137396000D01*
G37*
X122850000Y-137396000D02*
X122924000Y-137396000D01*
X122924000Y-137704000D01*
X122850000Y-137704000D01*
X122850000Y-137724000D01*
X122701935Y-137724000D01*
X122701935Y-137376000D01*
X122850000Y-137376000D01*
X122850000Y-137396000D01*
G36*
X124062177Y-128155634D02*
G01*
X123871840Y-128311840D01*
X123715634Y-128502177D01*
X123599563Y-128719331D01*
X123528087Y-128954957D01*
X123503952Y-129200000D01*
X123528087Y-129445043D01*
X123599563Y-129680669D01*
X123715634Y-129897823D01*
X123871840Y-130088160D01*
X124062177Y-130244366D01*
X124279331Y-130360437D01*
X124514957Y-130431913D01*
X124698595Y-130450000D01*
X124821405Y-130450000D01*
X125005043Y-130431913D01*
X125240669Y-130360437D01*
X125457823Y-130244366D01*
X125648160Y-130088160D01*
X125804366Y-129897823D01*
X125920437Y-129680669D01*
X125924928Y-129665865D01*
X125993065Y-129846300D01*
X126144264Y-130088852D01*
X126339878Y-130297246D01*
X126572389Y-130463473D01*
X126832861Y-130581146D01*
X126921090Y-130607903D01*
X127146000Y-130496889D01*
X127146000Y-129354000D01*
X127454000Y-129354000D01*
X127454000Y-130496889D01*
X127678910Y-130607903D01*
X127767139Y-130581146D01*
X128027611Y-130463473D01*
X128260122Y-130297246D01*
X128455736Y-130088852D01*
X128606935Y-129846300D01*
X128707909Y-129578911D01*
X128597850Y-129354000D01*
X127454000Y-129354000D01*
X127146000Y-129354000D01*
X127126000Y-129354000D01*
X127126000Y-129046000D01*
X127146000Y-129046000D01*
X127146000Y-129026000D01*
X127454000Y-129026000D01*
X127454000Y-129046000D01*
X128597850Y-129046000D01*
X128707909Y-128821089D01*
X128606935Y-128553700D01*
X128455736Y-128311148D01*
X128260122Y-128102754D01*
X128221301Y-128075000D01*
X128925000Y-128075000D01*
X128925000Y-131090724D01*
X128917246Y-131079878D01*
X128708852Y-130884264D01*
X128466300Y-130733065D01*
X128198911Y-130632091D01*
X127974000Y-130742150D01*
X127974000Y-131886000D01*
X127994000Y-131886000D01*
X127994000Y-132194000D01*
X127974000Y-132194000D01*
X127974000Y-134426000D01*
X127994000Y-134426000D01*
X127994000Y-134734000D01*
X127974000Y-134734000D01*
X127974000Y-134754000D01*
X127666000Y-134754000D01*
X127666000Y-134734000D01*
X126523111Y-134734000D01*
X126412097Y-134958910D01*
X126438854Y-135047139D01*
X126556527Y-135307611D01*
X126722754Y-135540122D01*
X126931148Y-135735736D01*
X127173700Y-135886935D01*
X127354135Y-135955072D01*
X127339331Y-135959563D01*
X127122177Y-136075634D01*
X126931840Y-136231840D01*
X126775634Y-136422177D01*
X126747400Y-136475000D01*
X125714950Y-136475000D01*
X125696224Y-136456274D01*
X125581574Y-136379668D01*
X125454182Y-136326901D01*
X125318944Y-136300000D01*
X125181056Y-136300000D01*
X125045818Y-136326901D01*
X124918426Y-136379668D01*
X124803776Y-136456274D01*
X124706274Y-136553776D01*
X124629668Y-136668426D01*
X124576901Y-136795818D01*
X124550000Y-136931056D01*
X124550000Y-137007538D01*
X122220470Y-134678009D01*
X122204026Y-134657972D01*
X122124085Y-134592366D01*
X122032880Y-134543616D01*
X121933917Y-134513596D01*
X121856787Y-134505999D01*
X121856779Y-134505999D01*
X121830999Y-134503460D01*
X121805219Y-134505999D01*
X120948461Y-134505999D01*
X119049176Y-132606715D01*
X119063842Y-132600640D01*
X119178492Y-132524034D01*
X119275994Y-132426532D01*
X119352600Y-132311882D01*
X119396744Y-132205309D01*
X121540370Y-132205309D01*
X123388056Y-134052996D01*
X123404495Y-134073027D01*
X123484436Y-134138633D01*
X123575641Y-134187383D01*
X123674604Y-134217403D01*
X123751734Y-134225000D01*
X123751741Y-134225000D01*
X123777521Y-134227539D01*
X123803301Y-134225000D01*
X125135050Y-134225000D01*
X125153776Y-134243726D01*
X125268426Y-134320332D01*
X125395818Y-134373099D01*
X125531056Y-134400000D01*
X125668944Y-134400000D01*
X125804182Y-134373099D01*
X125931574Y-134320332D01*
X126046224Y-134243726D01*
X126143726Y-134146224D01*
X126220332Y-134031574D01*
X126273099Y-133904182D01*
X126300000Y-133768944D01*
X126300000Y-133631056D01*
X126273099Y-133495818D01*
X126220332Y-133368426D01*
X126143726Y-133253776D01*
X126046224Y-133156274D01*
X125931574Y-133079668D01*
X125804182Y-133026901D01*
X125668944Y-133000000D01*
X125531056Y-133000000D01*
X125395818Y-133026901D01*
X125268426Y-133079668D01*
X125153776Y-133156274D01*
X125135050Y-133175000D01*
X123994984Y-133175000D01*
X123024873Y-132204889D01*
X123142578Y-132240595D01*
X123238068Y-132250000D01*
X123238078Y-132250000D01*
X123269999Y-132253144D01*
X123301920Y-132250000D01*
X125840052Y-132250000D01*
X125895818Y-132273099D01*
X126031056Y-132300000D01*
X126168944Y-132300000D01*
X126304182Y-132273099D01*
X126431574Y-132220332D01*
X126470980Y-132194002D01*
X126523110Y-132194002D01*
X126412097Y-132418910D01*
X126438854Y-132507139D01*
X126556527Y-132767611D01*
X126722754Y-133000122D01*
X126931148Y-133195736D01*
X127114449Y-133310000D01*
X126931148Y-133424264D01*
X126722754Y-133619878D01*
X126556527Y-133852389D01*
X126438854Y-134112861D01*
X126412097Y-134201090D01*
X126523111Y-134426000D01*
X127666000Y-134426000D01*
X127666000Y-132194000D01*
X127646000Y-132194000D01*
X127646000Y-131886000D01*
X127666000Y-131886000D01*
X127666000Y-130742150D01*
X127441089Y-130632091D01*
X127173700Y-130733065D01*
X126931148Y-130884264D01*
X126722754Y-131079878D01*
X126656382Y-131172717D01*
X126643726Y-131153776D01*
X126546224Y-131056274D01*
X126431574Y-130979668D01*
X126304182Y-130926901D01*
X126168944Y-130900000D01*
X126031056Y-130900000D01*
X125895818Y-130926901D01*
X125840052Y-130950000D01*
X123539239Y-130950000D01*
X123041173Y-130451935D01*
X123070000Y-130451935D01*
X123148414Y-130444212D01*
X123223814Y-130421340D01*
X123293303Y-130384197D01*
X123354211Y-130334211D01*
X123404197Y-130273303D01*
X123441340Y-130203814D01*
X123464212Y-130128414D01*
X123471935Y-130050000D01*
X123471935Y-128350000D01*
X123464212Y-128271586D01*
X123441340Y-128196186D01*
X123404197Y-128126697D01*
X123361770Y-128075000D01*
X124213033Y-128075000D01*
X124062177Y-128155634D01*
X124062177Y-128155634D01*
G37*
X124062177Y-128155634D02*
X123871840Y-128311840D01*
X123715634Y-128502177D01*
X123599563Y-128719331D01*
X123528087Y-128954957D01*
X123503952Y-129200000D01*
X123528087Y-129445043D01*
X123599563Y-129680669D01*
X123715634Y-129897823D01*
X123871840Y-130088160D01*
X124062177Y-130244366D01*
X124279331Y-130360437D01*
X124514957Y-130431913D01*
X124698595Y-130450000D01*
X124821405Y-130450000D01*
X125005043Y-130431913D01*
X125240669Y-130360437D01*
X125457823Y-130244366D01*
X125648160Y-130088160D01*
X125804366Y-129897823D01*
X125920437Y-129680669D01*
X125924928Y-129665865D01*
X125993065Y-129846300D01*
X126144264Y-130088852D01*
X126339878Y-130297246D01*
X126572389Y-130463473D01*
X126832861Y-130581146D01*
X126921090Y-130607903D01*
X127146000Y-130496889D01*
X127146000Y-129354000D01*
X127454000Y-129354000D01*
X127454000Y-130496889D01*
X127678910Y-130607903D01*
X127767139Y-130581146D01*
X128027611Y-130463473D01*
X128260122Y-130297246D01*
X128455736Y-130088852D01*
X128606935Y-129846300D01*
X128707909Y-129578911D01*
X128597850Y-129354000D01*
X127454000Y-129354000D01*
X127146000Y-129354000D01*
X127126000Y-129354000D01*
X127126000Y-129046000D01*
X127146000Y-129046000D01*
X127146000Y-129026000D01*
X127454000Y-129026000D01*
X127454000Y-129046000D01*
X128597850Y-129046000D01*
X128707909Y-128821089D01*
X128606935Y-128553700D01*
X128455736Y-128311148D01*
X128260122Y-128102754D01*
X128221301Y-128075000D01*
X128925000Y-128075000D01*
X128925000Y-131090724D01*
X128917246Y-131079878D01*
X128708852Y-130884264D01*
X128466300Y-130733065D01*
X128198911Y-130632091D01*
X127974000Y-130742150D01*
X127974000Y-131886000D01*
X127994000Y-131886000D01*
X127994000Y-132194000D01*
X127974000Y-132194000D01*
X127974000Y-134426000D01*
X127994000Y-134426000D01*
X127994000Y-134734000D01*
X127974000Y-134734000D01*
X127974000Y-134754000D01*
X127666000Y-134754000D01*
X127666000Y-134734000D01*
X126523111Y-134734000D01*
X126412097Y-134958910D01*
X126438854Y-135047139D01*
X126556527Y-135307611D01*
X126722754Y-135540122D01*
X126931148Y-135735736D01*
X127173700Y-135886935D01*
X127354135Y-135955072D01*
X127339331Y-135959563D01*
X127122177Y-136075634D01*
X126931840Y-136231840D01*
X126775634Y-136422177D01*
X126747400Y-136475000D01*
X125714950Y-136475000D01*
X125696224Y-136456274D01*
X125581574Y-136379668D01*
X125454182Y-136326901D01*
X125318944Y-136300000D01*
X125181056Y-136300000D01*
X125045818Y-136326901D01*
X124918426Y-136379668D01*
X124803776Y-136456274D01*
X124706274Y-136553776D01*
X124629668Y-136668426D01*
X124576901Y-136795818D01*
X124550000Y-136931056D01*
X124550000Y-137007538D01*
X122220470Y-134678009D01*
X122204026Y-134657972D01*
X122124085Y-134592366D01*
X122032880Y-134543616D01*
X121933917Y-134513596D01*
X121856787Y-134505999D01*
X121856779Y-134505999D01*
X121830999Y-134503460D01*
X121805219Y-134505999D01*
X120948461Y-134505999D01*
X119049176Y-132606715D01*
X119063842Y-132600640D01*
X119178492Y-132524034D01*
X119275994Y-132426532D01*
X119352600Y-132311882D01*
X119396744Y-132205309D01*
X121540370Y-132205309D01*
X123388056Y-134052996D01*
X123404495Y-134073027D01*
X123484436Y-134138633D01*
X123575641Y-134187383D01*
X123674604Y-134217403D01*
X123751734Y-134225000D01*
X123751741Y-134225000D01*
X123777521Y-134227539D01*
X123803301Y-134225000D01*
X125135050Y-134225000D01*
X125153776Y-134243726D01*
X125268426Y-134320332D01*
X125395818Y-134373099D01*
X125531056Y-134400000D01*
X125668944Y-134400000D01*
X125804182Y-134373099D01*
X125931574Y-134320332D01*
X126046224Y-134243726D01*
X126143726Y-134146224D01*
X126220332Y-134031574D01*
X126273099Y-133904182D01*
X126300000Y-133768944D01*
X126300000Y-133631056D01*
X126273099Y-133495818D01*
X126220332Y-133368426D01*
X126143726Y-133253776D01*
X126046224Y-133156274D01*
X125931574Y-133079668D01*
X125804182Y-133026901D01*
X125668944Y-133000000D01*
X125531056Y-133000000D01*
X125395818Y-133026901D01*
X125268426Y-133079668D01*
X125153776Y-133156274D01*
X125135050Y-133175000D01*
X123994984Y-133175000D01*
X123024873Y-132204889D01*
X123142578Y-132240595D01*
X123238068Y-132250000D01*
X123238078Y-132250000D01*
X123269999Y-132253144D01*
X123301920Y-132250000D01*
X125840052Y-132250000D01*
X125895818Y-132273099D01*
X126031056Y-132300000D01*
X126168944Y-132300000D01*
X126304182Y-132273099D01*
X126431574Y-132220332D01*
X126470980Y-132194002D01*
X126523110Y-132194002D01*
X126412097Y-132418910D01*
X126438854Y-132507139D01*
X126556527Y-132767611D01*
X126722754Y-133000122D01*
X126931148Y-133195736D01*
X127114449Y-133310000D01*
X126931148Y-133424264D01*
X126722754Y-133619878D01*
X126556527Y-133852389D01*
X126438854Y-134112861D01*
X126412097Y-134201090D01*
X126523111Y-134426000D01*
X127666000Y-134426000D01*
X127666000Y-132194000D01*
X127646000Y-132194000D01*
X127646000Y-131886000D01*
X127666000Y-131886000D01*
X127666000Y-130742150D01*
X127441089Y-130632091D01*
X127173700Y-130733065D01*
X126931148Y-130884264D01*
X126722754Y-131079878D01*
X126656382Y-131172717D01*
X126643726Y-131153776D01*
X126546224Y-131056274D01*
X126431574Y-130979668D01*
X126304182Y-130926901D01*
X126168944Y-130900000D01*
X126031056Y-130900000D01*
X125895818Y-130926901D01*
X125840052Y-130950000D01*
X123539239Y-130950000D01*
X123041173Y-130451935D01*
X123070000Y-130451935D01*
X123148414Y-130444212D01*
X123223814Y-130421340D01*
X123293303Y-130384197D01*
X123354211Y-130334211D01*
X123404197Y-130273303D01*
X123441340Y-130203814D01*
X123464212Y-130128414D01*
X123471935Y-130050000D01*
X123471935Y-128350000D01*
X123464212Y-128271586D01*
X123441340Y-128196186D01*
X123404197Y-128126697D01*
X123361770Y-128075000D01*
X124213033Y-128075000D01*
X124062177Y-128155634D01*
G36*
X109884219Y-128147955D02*
G01*
X109671298Y-128290224D01*
X109490224Y-128471298D01*
X109347955Y-128684219D01*
X109249958Y-128920804D01*
X109200000Y-129171961D01*
X109200000Y-129428039D01*
X109249958Y-129679196D01*
X109347955Y-129915781D01*
X109490224Y-130128702D01*
X109671298Y-130309776D01*
X109884219Y-130452045D01*
X110120804Y-130550042D01*
X110371961Y-130600000D01*
X110628039Y-130600000D01*
X110879196Y-130550042D01*
X111055691Y-130476935D01*
X111700000Y-130476935D01*
X111778414Y-130469212D01*
X111853814Y-130446340D01*
X111923303Y-130409197D01*
X111975000Y-130366770D01*
X112026697Y-130409197D01*
X112096186Y-130446340D01*
X112171586Y-130469212D01*
X112250000Y-130476935D01*
X112876143Y-130476935D01*
X112826901Y-130595818D01*
X112800000Y-130731056D01*
X112800000Y-131106262D01*
X112778660Y-131146186D01*
X112755788Y-131221586D01*
X112748065Y-131300000D01*
X112748065Y-132650000D01*
X112755788Y-132728414D01*
X112778660Y-132803814D01*
X112800000Y-132843738D01*
X112800000Y-133106000D01*
X112853435Y-133159435D01*
X112842999Y-133167999D01*
X112767020Y-133260579D01*
X112722568Y-133343743D01*
X112675000Y-133339058D01*
X112606000Y-133342000D01*
X112454000Y-133494000D01*
X112454000Y-134196000D01*
X112474000Y-134196000D01*
X112474000Y-134504000D01*
X112454000Y-134504000D01*
X112454000Y-134524000D01*
X112146000Y-134524000D01*
X112146000Y-134504000D01*
X111054000Y-134504000D01*
X111054000Y-134524000D01*
X110746000Y-134524000D01*
X110746000Y-134504000D01*
X110726000Y-134504000D01*
X110726000Y-134196000D01*
X110746000Y-134196000D01*
X110746000Y-133494000D01*
X111054000Y-133494000D01*
X111054000Y-134196000D01*
X112146000Y-134196000D01*
X112146000Y-133494000D01*
X111994000Y-133342000D01*
X111925000Y-133339058D01*
X111805811Y-133350797D01*
X111691203Y-133385563D01*
X111600000Y-133434312D01*
X111508797Y-133385563D01*
X111394189Y-133350797D01*
X111275000Y-133339058D01*
X111206000Y-133342000D01*
X111054000Y-133494000D01*
X110746000Y-133494000D01*
X110594000Y-133342000D01*
X110525000Y-133339058D01*
X110405811Y-133350797D01*
X110291203Y-133385563D01*
X110185579Y-133442020D01*
X110092999Y-133517999D01*
X110017020Y-133610579D01*
X109960563Y-133716203D01*
X109925797Y-133830811D01*
X109914058Y-133950000D01*
X109917000Y-134044000D01*
X110068998Y-134195998D01*
X110014654Y-134195998D01*
X109948086Y-134141367D01*
X109856881Y-134092617D01*
X109757918Y-134062597D01*
X109680788Y-134055000D01*
X109680780Y-134055000D01*
X109655000Y-134052461D01*
X109629220Y-134055000D01*
X108636742Y-134055000D01*
X108544366Y-133882177D01*
X108388160Y-133691840D01*
X108197823Y-133535634D01*
X107980669Y-133419563D01*
X107965865Y-133415072D01*
X108146300Y-133346935D01*
X108388852Y-133195736D01*
X108597246Y-133000122D01*
X108763473Y-132767611D01*
X108881146Y-132507139D01*
X108907903Y-132418910D01*
X108796889Y-132194000D01*
X107654000Y-132194000D01*
X107654000Y-132214000D01*
X107346000Y-132214000D01*
X107346000Y-132194000D01*
X107326000Y-132194000D01*
X107326000Y-131891265D01*
X110396000Y-131891265D01*
X110396000Y-132108735D01*
X110438426Y-132322025D01*
X110521648Y-132522940D01*
X110642467Y-132703759D01*
X110796241Y-132857533D01*
X110977060Y-132978352D01*
X111177975Y-133061574D01*
X111391265Y-133104000D01*
X111608735Y-133104000D01*
X111822025Y-133061574D01*
X111994360Y-132990190D01*
X112056682Y-133070380D01*
X112147212Y-133148790D01*
X112251300Y-133208031D01*
X112364945Y-133245827D01*
X112448000Y-133258000D01*
X112600000Y-133106000D01*
X112600000Y-132129000D01*
X112599969Y-132129000D01*
X112604000Y-132108735D01*
X112604000Y-131891265D01*
X112590023Y-131821000D01*
X112600000Y-131821000D01*
X112600000Y-130844000D01*
X112448000Y-130692000D01*
X112364945Y-130704173D01*
X112251300Y-130741969D01*
X112147212Y-130801210D01*
X112056682Y-130879620D01*
X111983188Y-130974184D01*
X111970330Y-130999856D01*
X111822025Y-130938426D01*
X111608735Y-130896000D01*
X111391265Y-130896000D01*
X111177975Y-130938426D01*
X110977060Y-131021648D01*
X110796241Y-131142467D01*
X110642467Y-131296241D01*
X110521648Y-131477060D01*
X110438426Y-131677975D01*
X110396000Y-131891265D01*
X107326000Y-131891265D01*
X107326000Y-131886000D01*
X107346000Y-131886000D01*
X107346000Y-130742150D01*
X107654000Y-130742150D01*
X107654000Y-131886000D01*
X108796889Y-131886000D01*
X108907903Y-131661090D01*
X108881146Y-131572861D01*
X108763473Y-131312389D01*
X108597246Y-131079878D01*
X108388852Y-130884264D01*
X108146300Y-130733065D01*
X107878911Y-130632091D01*
X107654000Y-130742150D01*
X107346000Y-130742150D01*
X107121089Y-130632091D01*
X106853700Y-130733065D01*
X106611148Y-130884264D01*
X106475000Y-131012063D01*
X106475000Y-128075000D01*
X110060347Y-128075000D01*
X109884219Y-128147955D01*
X109884219Y-128147955D01*
G37*
X109884219Y-128147955D02*
X109671298Y-128290224D01*
X109490224Y-128471298D01*
X109347955Y-128684219D01*
X109249958Y-128920804D01*
X109200000Y-129171961D01*
X109200000Y-129428039D01*
X109249958Y-129679196D01*
X109347955Y-129915781D01*
X109490224Y-130128702D01*
X109671298Y-130309776D01*
X109884219Y-130452045D01*
X110120804Y-130550042D01*
X110371961Y-130600000D01*
X110628039Y-130600000D01*
X110879196Y-130550042D01*
X111055691Y-130476935D01*
X111700000Y-130476935D01*
X111778414Y-130469212D01*
X111853814Y-130446340D01*
X111923303Y-130409197D01*
X111975000Y-130366770D01*
X112026697Y-130409197D01*
X112096186Y-130446340D01*
X112171586Y-130469212D01*
X112250000Y-130476935D01*
X112876143Y-130476935D01*
X112826901Y-130595818D01*
X112800000Y-130731056D01*
X112800000Y-131106262D01*
X112778660Y-131146186D01*
X112755788Y-131221586D01*
X112748065Y-131300000D01*
X112748065Y-132650000D01*
X112755788Y-132728414D01*
X112778660Y-132803814D01*
X112800000Y-132843738D01*
X112800000Y-133106000D01*
X112853435Y-133159435D01*
X112842999Y-133167999D01*
X112767020Y-133260579D01*
X112722568Y-133343743D01*
X112675000Y-133339058D01*
X112606000Y-133342000D01*
X112454000Y-133494000D01*
X112454000Y-134196000D01*
X112474000Y-134196000D01*
X112474000Y-134504000D01*
X112454000Y-134504000D01*
X112454000Y-134524000D01*
X112146000Y-134524000D01*
X112146000Y-134504000D01*
X111054000Y-134504000D01*
X111054000Y-134524000D01*
X110746000Y-134524000D01*
X110746000Y-134504000D01*
X110726000Y-134504000D01*
X110726000Y-134196000D01*
X110746000Y-134196000D01*
X110746000Y-133494000D01*
X111054000Y-133494000D01*
X111054000Y-134196000D01*
X112146000Y-134196000D01*
X112146000Y-133494000D01*
X111994000Y-133342000D01*
X111925000Y-133339058D01*
X111805811Y-133350797D01*
X111691203Y-133385563D01*
X111600000Y-133434312D01*
X111508797Y-133385563D01*
X111394189Y-133350797D01*
X111275000Y-133339058D01*
X111206000Y-133342000D01*
X111054000Y-133494000D01*
X110746000Y-133494000D01*
X110594000Y-133342000D01*
X110525000Y-133339058D01*
X110405811Y-133350797D01*
X110291203Y-133385563D01*
X110185579Y-133442020D01*
X110092999Y-133517999D01*
X110017020Y-133610579D01*
X109960563Y-133716203D01*
X109925797Y-133830811D01*
X109914058Y-133950000D01*
X109917000Y-134044000D01*
X110068998Y-134195998D01*
X110014654Y-134195998D01*
X109948086Y-134141367D01*
X109856881Y-134092617D01*
X109757918Y-134062597D01*
X109680788Y-134055000D01*
X109680780Y-134055000D01*
X109655000Y-134052461D01*
X109629220Y-134055000D01*
X108636742Y-134055000D01*
X108544366Y-133882177D01*
X108388160Y-133691840D01*
X108197823Y-133535634D01*
X107980669Y-133419563D01*
X107965865Y-133415072D01*
X108146300Y-133346935D01*
X108388852Y-133195736D01*
X108597246Y-133000122D01*
X108763473Y-132767611D01*
X108881146Y-132507139D01*
X108907903Y-132418910D01*
X108796889Y-132194000D01*
X107654000Y-132194000D01*
X107654000Y-132214000D01*
X107346000Y-132214000D01*
X107346000Y-132194000D01*
X107326000Y-132194000D01*
X107326000Y-131891265D01*
X110396000Y-131891265D01*
X110396000Y-132108735D01*
X110438426Y-132322025D01*
X110521648Y-132522940D01*
X110642467Y-132703759D01*
X110796241Y-132857533D01*
X110977060Y-132978352D01*
X111177975Y-133061574D01*
X111391265Y-133104000D01*
X111608735Y-133104000D01*
X111822025Y-133061574D01*
X111994360Y-132990190D01*
X112056682Y-133070380D01*
X112147212Y-133148790D01*
X112251300Y-133208031D01*
X112364945Y-133245827D01*
X112448000Y-133258000D01*
X112600000Y-133106000D01*
X112600000Y-132129000D01*
X112599969Y-132129000D01*
X112604000Y-132108735D01*
X112604000Y-131891265D01*
X112590023Y-131821000D01*
X112600000Y-131821000D01*
X112600000Y-130844000D01*
X112448000Y-130692000D01*
X112364945Y-130704173D01*
X112251300Y-130741969D01*
X112147212Y-130801210D01*
X112056682Y-130879620D01*
X111983188Y-130974184D01*
X111970330Y-130999856D01*
X111822025Y-130938426D01*
X111608735Y-130896000D01*
X111391265Y-130896000D01*
X111177975Y-130938426D01*
X110977060Y-131021648D01*
X110796241Y-131142467D01*
X110642467Y-131296241D01*
X110521648Y-131477060D01*
X110438426Y-131677975D01*
X110396000Y-131891265D01*
X107326000Y-131891265D01*
X107326000Y-131886000D01*
X107346000Y-131886000D01*
X107346000Y-130742150D01*
X107654000Y-130742150D01*
X107654000Y-131886000D01*
X108796889Y-131886000D01*
X108907903Y-131661090D01*
X108881146Y-131572861D01*
X108763473Y-131312389D01*
X108597246Y-131079878D01*
X108388852Y-130884264D01*
X108146300Y-130733065D01*
X107878911Y-130632091D01*
X107654000Y-130742150D01*
X107346000Y-130742150D01*
X107121089Y-130632091D01*
X106853700Y-130733065D01*
X106611148Y-130884264D01*
X106475000Y-131012063D01*
X106475000Y-128075000D01*
X110060347Y-128075000D01*
X109884219Y-128147955D01*
G36*
X114054000Y-133946000D02*
G01*
X114074000Y-133946000D01*
X114074000Y-134254000D01*
X114054000Y-134254000D01*
X114054000Y-134274000D01*
X113746000Y-134274000D01*
X113746000Y-134254000D01*
X113726000Y-134254000D01*
X113726000Y-133946000D01*
X113746000Y-133946000D01*
X113746000Y-133926000D01*
X114054000Y-133926000D01*
X114054000Y-133946000D01*
X114054000Y-133946000D01*
G37*
X114054000Y-133946000D02*
X114074000Y-133946000D01*
X114074000Y-134254000D01*
X114054000Y-134254000D01*
X114054000Y-134274000D01*
X113746000Y-134274000D01*
X113746000Y-134254000D01*
X113726000Y-134254000D01*
X113726000Y-133946000D01*
X113746000Y-133946000D01*
X113746000Y-133926000D01*
X114054000Y-133926000D01*
X114054000Y-133946000D01*
M02*
