G04 #@! TF.GenerationSoftware,KiCad,Pcbnew,5.1.2-f72e74a~84~ubuntu18.04.1*
G04 #@! TF.CreationDate,2019-05-09T21:42:28-06:00*
G04 #@! TF.ProjectId,rfboard,7266626f-6172-4642-9e6b-696361645f70,rev?*
G04 #@! TF.SameCoordinates,Original*
G04 #@! TF.FileFunction,Copper,L2,Bot*
G04 #@! TF.FilePolarity,Positive*
%FSLAX46Y46*%
G04 Gerber Fmt 4.6, Leading zero omitted, Abs format (unit mm)*
G04 Created by KiCad (PCBNEW 5.1.2-f72e74a~84~ubuntu18.04.1) date 2019-05-09 21:42:28*
%MOMM*%
%LPD*%
G04 APERTURE LIST*
%ADD10C,1.408000*%
%ADD11C,1.800000*%
%ADD12C,2.700000*%
%ADD13R,1.700000X1.700000*%
%ADD14O,1.700000X1.700000*%
%ADD15R,1.198880X2.999740*%
%ADD16C,0.600000*%
%ADD17C,1.000000*%
%ADD18C,0.250000*%
%ADD19C,0.500000*%
%ADD20C,0.750000*%
%ADD21C,0.200000*%
%ADD22C,3.000000*%
%ADD23C,1.000000*%
G04 APERTURE END LIST*
D10*
X116500000Y-132000000D03*
X111500000Y-132000000D03*
D11*
X117500000Y-129300000D03*
X110500000Y-129300000D03*
D12*
X109200000Y-159500000D03*
X126500000Y-159500000D03*
X121200000Y-133600000D03*
D13*
X107500000Y-154900000D03*
D14*
X107500000Y-152360000D03*
X107500000Y-149820000D03*
X107500000Y-147280000D03*
X107500000Y-144740000D03*
X107500000Y-142200000D03*
X107500000Y-139660000D03*
X107500000Y-137120000D03*
X107500000Y-134580000D03*
X107500000Y-132040000D03*
D13*
X127820000Y-154900000D03*
D14*
X127820000Y-152360000D03*
X127820000Y-149820000D03*
X127820000Y-147280000D03*
X127820000Y-144740000D03*
X127820000Y-142200000D03*
X127820000Y-139660000D03*
X127820000Y-137120000D03*
X127820000Y-134580000D03*
X127820000Y-132040000D03*
D13*
X122220000Y-129200000D03*
D14*
X124760000Y-129200000D03*
X127300000Y-129200000D03*
D13*
X121680000Y-160900000D03*
D14*
X119140000Y-160900000D03*
X116600000Y-160900000D03*
X114060000Y-160900000D03*
D13*
X125250000Y-155800000D03*
D15*
X123500000Y-154996160D03*
X121498480Y-154996160D03*
X119499500Y-154996160D03*
X115501540Y-154996160D03*
X113502560Y-154996160D03*
X111501040Y-154996160D03*
X111501040Y-140000000D03*
X113502560Y-140000000D03*
X123500000Y-140000000D03*
D16*
X115500000Y-158000000D03*
X112000000Y-159000000D03*
X120893820Y-145902340D03*
X121498480Y-154996160D03*
X122528609Y-142473620D03*
X125250000Y-137000000D03*
X125250000Y-140000000D03*
X112698198Y-137219318D03*
X110900000Y-135650000D03*
X119499500Y-154996160D03*
X120750000Y-142000000D03*
X124197733Y-147040500D03*
X123452440Y-140950220D03*
X120824274Y-137765965D03*
X120500000Y-158900000D03*
X123700000Y-157500000D03*
X110500000Y-145100000D03*
X122799002Y-137550000D03*
X118700000Y-137760000D03*
X119300000Y-148300000D03*
D17*
X113900000Y-133900000D03*
D16*
X123452440Y-145049780D03*
X123583645Y-138001126D03*
X126100000Y-131600000D03*
X110200000Y-139600000D03*
X118732268Y-131980308D03*
X125600000Y-152300000D03*
X114800000Y-130600000D03*
X125600000Y-133700000D03*
X113500000Y-130800000D03*
X118000000Y-132300000D03*
X123500000Y-142400000D03*
X122200000Y-151800000D03*
X119100000Y-144300000D03*
X116375990Y-145100000D03*
X122069750Y-136955161D03*
X112600000Y-142700000D03*
X115500000Y-145900000D03*
X113500000Y-146700000D03*
X111291520Y-147457063D03*
X111446754Y-148240850D03*
X114300000Y-148300000D03*
X117800000Y-150100000D03*
X117800000Y-144000000D03*
X122027832Y-146875990D03*
X119470028Y-147247488D03*
X117300000Y-147400000D03*
X117000000Y-144000000D03*
X125047560Y-140950220D03*
X120500000Y-151127717D03*
X124000000Y-151000000D03*
X120893820Y-149100200D03*
X124821743Y-145651989D03*
X110124010Y-156000000D03*
X110000000Y-153750000D03*
X112457623Y-153147790D03*
X112500000Y-157000000D03*
X118000000Y-157000000D03*
X118000000Y-153000000D03*
D18*
X112000000Y-159000000D02*
X113000000Y-158000000D01*
X113000000Y-158000000D02*
X115500000Y-158000000D01*
X121977706Y-145902340D02*
X122651834Y-146576468D01*
X120893820Y-145902340D02*
X121977706Y-145902340D01*
X121498480Y-153246290D02*
X121498480Y-154996160D01*
X121517822Y-153226948D02*
X121498480Y-153246290D01*
X122651834Y-146576468D02*
X122651834Y-147313169D01*
X121517822Y-148447181D02*
X121517822Y-153226948D01*
X122651834Y-147313169D02*
X121517822Y-148447181D01*
X120893820Y-145902340D02*
X120893820Y-144108409D01*
X120893820Y-144108409D02*
X122228610Y-142773619D01*
X122228610Y-142773619D02*
X122528609Y-142473620D01*
X125250000Y-140000000D02*
X125250000Y-137000000D01*
X112444318Y-137219318D02*
X112698198Y-137219318D01*
X110900000Y-135650000D02*
X110900000Y-135675000D01*
X110900000Y-135675000D02*
X112444318Y-137219318D01*
D19*
X107920000Y-135000000D02*
X107500000Y-134580000D01*
D18*
X120750000Y-142000000D02*
X121174264Y-142000000D01*
X121174264Y-142000000D02*
X121350393Y-141823871D01*
X121350393Y-141823871D02*
X122529259Y-141823871D01*
X122529259Y-141823871D02*
X123402910Y-140950220D01*
X123402910Y-140950220D02*
X123452440Y-140950220D01*
D19*
X122799002Y-137550000D02*
X122834643Y-137585641D01*
X122834643Y-139334643D02*
X123500000Y-140000000D01*
X122834643Y-137585641D02*
X122834643Y-139334643D01*
D20*
X126450001Y-130049999D02*
X127300000Y-129200000D01*
X118088550Y-133900000D02*
X120765538Y-131223012D01*
X125686460Y-130813540D02*
X126450001Y-130049999D01*
X113900000Y-133900000D02*
X118088550Y-133900000D01*
X123878212Y-130813540D02*
X125686460Y-130813540D01*
X123468740Y-131223012D02*
X123878212Y-130813540D01*
X120765538Y-131223012D02*
X123468740Y-131223012D01*
X127820000Y-132040000D02*
X127820000Y-134580000D01*
X127300000Y-129200000D02*
X127300000Y-131520000D01*
X127300000Y-131520000D02*
X127820000Y-132040000D01*
D18*
X124197733Y-145795073D02*
X123452440Y-145049780D01*
X124197733Y-147040500D02*
X124197733Y-145795073D01*
D19*
X126100000Y-131600000D02*
X126520999Y-132020999D01*
X126520999Y-132020999D02*
X126520999Y-138360999D01*
X126520999Y-138360999D02*
X126970001Y-138810001D01*
X126970001Y-138810001D02*
X127820000Y-139660000D01*
D18*
X124007909Y-138001126D02*
X123583645Y-138001126D01*
X122828438Y-145349302D02*
X122828438Y-143995086D01*
X122828438Y-143995086D02*
X124423441Y-142400083D01*
X124183638Y-138001126D02*
X124007909Y-138001126D01*
X121680000Y-159800000D02*
X122576559Y-158903441D01*
X124423441Y-138240929D02*
X124183638Y-138001126D01*
X122576559Y-158903441D02*
X122576559Y-152346963D01*
X123573732Y-146094596D02*
X122828438Y-145349302D01*
X121680000Y-160900000D02*
X121680000Y-159800000D01*
X122576559Y-152346963D02*
X122925999Y-151997523D01*
X124423441Y-142400083D02*
X124423441Y-138240929D01*
X122925999Y-149890799D02*
X123573732Y-149243066D01*
X123573732Y-149243066D02*
X123573732Y-146094596D01*
X122925999Y-151997523D02*
X122925999Y-149890799D01*
X123910001Y-130049999D02*
X124760000Y-129200000D01*
X110200000Y-139600000D02*
X110200000Y-134776476D01*
X123653203Y-130049999D02*
X123910001Y-130049999D01*
X116912478Y-130524001D02*
X123179201Y-130524001D01*
X116364475Y-129975998D02*
X116912478Y-130524001D01*
X123179201Y-130524001D02*
X123653203Y-130049999D01*
X113400478Y-129975998D02*
X116364475Y-129975998D01*
X112875998Y-130500478D02*
X113400478Y-129975998D01*
X112875998Y-132100478D02*
X112875998Y-130500478D01*
X110200000Y-134776476D02*
X112875998Y-132100478D01*
X118432269Y-131680309D02*
X118732268Y-131980308D01*
X116353481Y-130600000D02*
X116726493Y-130973012D01*
X116726493Y-130973012D02*
X117724972Y-130973012D01*
X117724972Y-130973012D02*
X118432269Y-131680309D01*
X114800000Y-130600000D02*
X116353481Y-130600000D01*
X125899999Y-133999999D02*
X125600000Y-133700000D01*
X125899999Y-152000001D02*
X125899999Y-133999999D01*
X125600000Y-152300000D02*
X125899999Y-152000001D01*
X118000000Y-132300000D02*
X117152220Y-133147780D01*
X117152220Y-133147780D02*
X115847780Y-133147780D01*
X115847780Y-133147780D02*
X113500000Y-130800000D01*
X122379427Y-145535288D02*
X122379427Y-143520573D01*
X122379427Y-143520573D02*
X123200001Y-142699999D01*
X123100845Y-146256706D02*
X122379427Y-145535288D01*
X123100845Y-149080956D02*
X123100845Y-146256706D01*
X122200000Y-151800000D02*
X122200000Y-149981801D01*
X123200001Y-142699999D02*
X123500000Y-142400000D01*
X122200000Y-149981801D02*
X123100845Y-149080956D01*
D21*
X118601059Y-144798941D02*
X118601059Y-159158978D01*
X119140000Y-159697919D02*
X119140000Y-160900000D01*
X118601059Y-159158978D02*
X119140000Y-159697919D01*
X119100000Y-144300000D02*
X118601059Y-144798941D01*
X116375990Y-145524264D02*
X116375990Y-145100000D01*
X116600000Y-147299642D02*
X116375990Y-147075632D01*
X116375990Y-147075632D02*
X116375990Y-145524264D01*
X116600000Y-160900000D02*
X116600000Y-147299642D01*
D22*
X125250000Y-155500000D02*
X124400569Y-155500000D01*
X124400569Y-155500000D02*
X124400569Y-154996160D01*
D23*
X124100000Y-154396160D02*
X123500000Y-154996160D01*
D18*
X122069750Y-136955161D02*
X120895955Y-136955161D01*
X120895955Y-136955161D02*
X120740794Y-136800000D01*
X112579119Y-142254855D02*
X112579119Y-138220881D01*
X112600000Y-142275736D02*
X112579119Y-142254855D01*
X112600000Y-142700000D02*
X112600000Y-142275736D01*
X112579119Y-138220881D02*
X114000000Y-136800000D01*
X114000000Y-136800000D02*
X120740794Y-136800000D01*
D21*
X115500000Y-145900000D02*
X115500000Y-154994620D01*
X115500000Y-154994620D02*
X115501540Y-154996160D01*
X113500000Y-146700000D02*
X113500000Y-154993600D01*
X113500000Y-154993600D02*
X113502560Y-154996160D01*
X111501040Y-147247543D02*
X111291520Y-147457063D01*
X111501040Y-140000000D02*
X111501040Y-147247543D01*
X111501040Y-148295136D02*
X111446754Y-148240850D01*
X111501040Y-154996160D02*
X111501040Y-148295136D01*
X113502560Y-140000000D02*
X113502560Y-145816038D01*
X113502560Y-145816038D02*
X114300000Y-146613478D01*
X114300000Y-146613478D02*
X114300000Y-148300000D01*
D18*
X118099999Y-144299999D02*
X118099999Y-149800001D01*
X118099999Y-149800001D02*
X117800000Y-150100000D01*
X117800000Y-144000000D02*
X118099999Y-144299999D01*
X121727833Y-147175989D02*
X122027832Y-146875990D01*
X119470028Y-147247488D02*
X121656334Y-147247488D01*
X121656334Y-147247488D02*
X121727833Y-147175989D01*
X117000000Y-144000000D02*
X117000000Y-147100000D01*
X117000000Y-147100000D02*
X117300000Y-147400000D01*
X120500000Y-151127717D02*
X120500000Y-149494020D01*
X120500000Y-149494020D02*
X120893820Y-149100200D01*
X124000000Y-151000000D02*
X124821743Y-150178257D01*
X125047560Y-140950220D02*
X125047560Y-145426172D01*
X124821743Y-146076253D02*
X124821743Y-145651989D01*
X125047560Y-145426172D02*
X124821743Y-145651989D01*
X124821743Y-150178257D02*
X124821743Y-146076253D01*
X110000000Y-155875990D02*
X110124010Y-156000000D01*
X110000000Y-153750000D02*
X110000000Y-155875990D01*
D21*
X128498600Y-155501400D02*
X128698600Y-155501400D01*
D18*
X112500000Y-157000000D02*
X112500000Y-153190167D01*
X112500000Y-153190167D02*
X112457623Y-153147790D01*
X118000000Y-153000000D02*
X118000000Y-157000000D01*
D21*
G36*
X128925001Y-162125000D02*
G01*
X122671748Y-162125000D01*
X122683814Y-162121340D01*
X122753303Y-162084197D01*
X122814211Y-162034211D01*
X122864197Y-161973303D01*
X122901340Y-161903814D01*
X122924212Y-161828414D01*
X122931935Y-161750000D01*
X122931935Y-160050000D01*
X122924212Y-159971586D01*
X122901340Y-159896186D01*
X122864197Y-159826697D01*
X122814211Y-159765789D01*
X122753303Y-159715803D01*
X122683814Y-159678660D01*
X122608414Y-159655788D01*
X122570417Y-159652046D01*
X122894823Y-159327640D01*
X124750000Y-159327640D01*
X124750000Y-159672360D01*
X124817251Y-160010456D01*
X124949170Y-160328936D01*
X125140686Y-160615560D01*
X125384440Y-160859314D01*
X125671064Y-161050830D01*
X125989544Y-161182749D01*
X126327640Y-161250000D01*
X126672360Y-161250000D01*
X127010456Y-161182749D01*
X127328936Y-161050830D01*
X127615560Y-160859314D01*
X127859314Y-160615560D01*
X128050830Y-160328936D01*
X128182749Y-160010456D01*
X128250000Y-159672360D01*
X128250000Y-159327640D01*
X128182749Y-158989544D01*
X128050830Y-158671064D01*
X127859314Y-158384440D01*
X127615560Y-158140686D01*
X127328936Y-157949170D01*
X127010456Y-157817251D01*
X126672360Y-157750000D01*
X126327640Y-157750000D01*
X125989544Y-157817251D01*
X125671064Y-157949170D01*
X125384440Y-158140686D01*
X125140686Y-158384440D01*
X124949170Y-158671064D01*
X124817251Y-158989544D01*
X124750000Y-159327640D01*
X122894823Y-159327640D01*
X122929560Y-159292903D01*
X122949586Y-159276468D01*
X122966021Y-159256442D01*
X122966025Y-159256438D01*
X123015192Y-159196527D01*
X123063942Y-159105322D01*
X123093962Y-159006359D01*
X123097867Y-158966711D01*
X123101559Y-158929229D01*
X123101559Y-158929221D01*
X123104098Y-158903441D01*
X123101559Y-158877661D01*
X123101559Y-156897965D01*
X123109008Y-156897965D01*
X123339878Y-157087436D01*
X123669952Y-157263864D01*
X124028104Y-157372508D01*
X124400569Y-157409193D01*
X124493906Y-157400000D01*
X125343337Y-157400000D01*
X125622465Y-157372508D01*
X125980617Y-157263864D01*
X126310691Y-157087436D01*
X126600003Y-156850003D01*
X126837436Y-156560691D01*
X127013864Y-156230617D01*
X127037732Y-156151935D01*
X128670000Y-156151935D01*
X128748414Y-156144212D01*
X128823814Y-156121340D01*
X128893303Y-156084197D01*
X128925001Y-156058183D01*
X128925001Y-162125000D01*
X128925001Y-162125000D01*
G37*
X128925001Y-162125000D02*
X122671748Y-162125000D01*
X122683814Y-162121340D01*
X122753303Y-162084197D01*
X122814211Y-162034211D01*
X122864197Y-161973303D01*
X122901340Y-161903814D01*
X122924212Y-161828414D01*
X122931935Y-161750000D01*
X122931935Y-160050000D01*
X122924212Y-159971586D01*
X122901340Y-159896186D01*
X122864197Y-159826697D01*
X122814211Y-159765789D01*
X122753303Y-159715803D01*
X122683814Y-159678660D01*
X122608414Y-159655788D01*
X122570417Y-159652046D01*
X122894823Y-159327640D01*
X124750000Y-159327640D01*
X124750000Y-159672360D01*
X124817251Y-160010456D01*
X124949170Y-160328936D01*
X125140686Y-160615560D01*
X125384440Y-160859314D01*
X125671064Y-161050830D01*
X125989544Y-161182749D01*
X126327640Y-161250000D01*
X126672360Y-161250000D01*
X127010456Y-161182749D01*
X127328936Y-161050830D01*
X127615560Y-160859314D01*
X127859314Y-160615560D01*
X128050830Y-160328936D01*
X128182749Y-160010456D01*
X128250000Y-159672360D01*
X128250000Y-159327640D01*
X128182749Y-158989544D01*
X128050830Y-158671064D01*
X127859314Y-158384440D01*
X127615560Y-158140686D01*
X127328936Y-157949170D01*
X127010456Y-157817251D01*
X126672360Y-157750000D01*
X126327640Y-157750000D01*
X125989544Y-157817251D01*
X125671064Y-157949170D01*
X125384440Y-158140686D01*
X125140686Y-158384440D01*
X124949170Y-158671064D01*
X124817251Y-158989544D01*
X124750000Y-159327640D01*
X122894823Y-159327640D01*
X122929560Y-159292903D01*
X122949586Y-159276468D01*
X122966021Y-159256442D01*
X122966025Y-159256438D01*
X123015192Y-159196527D01*
X123063942Y-159105322D01*
X123093962Y-159006359D01*
X123097867Y-158966711D01*
X123101559Y-158929229D01*
X123101559Y-158929221D01*
X123104098Y-158903441D01*
X123101559Y-158877661D01*
X123101559Y-156897965D01*
X123109008Y-156897965D01*
X123339878Y-157087436D01*
X123669952Y-157263864D01*
X124028104Y-157372508D01*
X124400569Y-157409193D01*
X124493906Y-157400000D01*
X125343337Y-157400000D01*
X125622465Y-157372508D01*
X125980617Y-157263864D01*
X126310691Y-157087436D01*
X126600003Y-156850003D01*
X126837436Y-156560691D01*
X127013864Y-156230617D01*
X127037732Y-156151935D01*
X128670000Y-156151935D01*
X128748414Y-156144212D01*
X128823814Y-156121340D01*
X128893303Y-156084197D01*
X128925001Y-156058183D01*
X128925001Y-162125000D01*
G36*
X109884219Y-128147955D02*
G01*
X109671298Y-128290224D01*
X109490224Y-128471298D01*
X109347955Y-128684219D01*
X109249958Y-128920804D01*
X109200000Y-129171961D01*
X109200000Y-129428039D01*
X109249958Y-129679196D01*
X109347955Y-129915781D01*
X109490224Y-130128702D01*
X109671298Y-130309776D01*
X109884219Y-130452045D01*
X110120804Y-130550042D01*
X110371961Y-130600000D01*
X110628039Y-130600000D01*
X110879196Y-130550042D01*
X111115781Y-130452045D01*
X111328702Y-130309776D01*
X111509776Y-130128702D01*
X111652045Y-129915781D01*
X111750042Y-129679196D01*
X111800000Y-129428039D01*
X111800000Y-129171961D01*
X111750042Y-128920804D01*
X111652045Y-128684219D01*
X111509776Y-128471298D01*
X111328702Y-128290224D01*
X111115781Y-128147955D01*
X110939653Y-128075000D01*
X117060347Y-128075000D01*
X116884219Y-128147955D01*
X116671298Y-128290224D01*
X116490224Y-128471298D01*
X116347955Y-128684219D01*
X116249958Y-128920804D01*
X116200000Y-129171961D01*
X116200000Y-129428039D01*
X116204567Y-129450998D01*
X113426266Y-129450998D01*
X113400478Y-129448458D01*
X113374690Y-129450998D01*
X113297560Y-129458595D01*
X113198597Y-129488615D01*
X113107392Y-129537365D01*
X113027451Y-129602971D01*
X113011011Y-129623003D01*
X112523003Y-130111012D01*
X112502972Y-130127451D01*
X112486533Y-130147482D01*
X112437365Y-130207393D01*
X112388615Y-130298598D01*
X112358595Y-130397561D01*
X112348459Y-130500478D01*
X112350999Y-130526268D01*
X112350999Y-131289707D01*
X112203759Y-131142467D01*
X112022940Y-131021648D01*
X111822025Y-130938426D01*
X111608735Y-130896000D01*
X111391265Y-130896000D01*
X111177975Y-130938426D01*
X110977060Y-131021648D01*
X110796241Y-131142467D01*
X110642467Y-131296241D01*
X110521648Y-131477060D01*
X110438426Y-131677975D01*
X110396000Y-131891265D01*
X110396000Y-132108735D01*
X110438426Y-132322025D01*
X110521648Y-132522940D01*
X110642467Y-132703759D01*
X110796241Y-132857533D01*
X110977060Y-132978352D01*
X111174062Y-133059953D01*
X109847005Y-134387010D01*
X109826974Y-134403449D01*
X109810535Y-134423480D01*
X109761367Y-134483391D01*
X109712617Y-134574596D01*
X109682597Y-134673559D01*
X109672461Y-134776476D01*
X109675001Y-134802266D01*
X109675000Y-139135050D01*
X109656274Y-139153776D01*
X109579668Y-139268426D01*
X109526901Y-139395818D01*
X109500000Y-139531056D01*
X109500000Y-139668944D01*
X109526901Y-139804182D01*
X109579668Y-139931574D01*
X109656274Y-140046224D01*
X109753776Y-140143726D01*
X109868426Y-140220332D01*
X109995818Y-140273099D01*
X110131056Y-140300000D01*
X110268944Y-140300000D01*
X110404182Y-140273099D01*
X110499665Y-140233549D01*
X110499665Y-141499870D01*
X110507388Y-141578284D01*
X110530260Y-141653684D01*
X110567403Y-141723173D01*
X110617389Y-141784081D01*
X110678297Y-141834067D01*
X110747786Y-141871210D01*
X110823186Y-141894082D01*
X110901600Y-141901805D01*
X111001040Y-141901805D01*
X111001041Y-146819709D01*
X110959946Y-146836731D01*
X110845296Y-146913337D01*
X110747794Y-147010839D01*
X110671188Y-147125489D01*
X110618421Y-147252881D01*
X110591520Y-147388119D01*
X110591520Y-147526007D01*
X110618421Y-147661245D01*
X110671188Y-147788637D01*
X110747794Y-147903287D01*
X110805147Y-147960640D01*
X110773655Y-148036668D01*
X110746754Y-148171906D01*
X110746754Y-148309794D01*
X110773655Y-148445032D01*
X110826422Y-148572424D01*
X110903028Y-148687074D01*
X111000530Y-148784576D01*
X111001041Y-148784917D01*
X111001040Y-153094355D01*
X110901600Y-153094355D01*
X110823186Y-153102078D01*
X110747786Y-153124950D01*
X110678297Y-153162093D01*
X110617389Y-153212079D01*
X110567403Y-153272987D01*
X110547737Y-153309779D01*
X110543726Y-153303776D01*
X110446224Y-153206274D01*
X110331574Y-153129668D01*
X110204182Y-153076901D01*
X110068944Y-153050000D01*
X109931056Y-153050000D01*
X109795818Y-153076901D01*
X109668426Y-153129668D01*
X109553776Y-153206274D01*
X109456274Y-153303776D01*
X109379668Y-153418426D01*
X109326901Y-153545818D01*
X109300000Y-153681056D01*
X109300000Y-153818944D01*
X109326901Y-153954182D01*
X109379668Y-154081574D01*
X109456274Y-154196224D01*
X109475000Y-154214950D01*
X109475001Y-155737659D01*
X109450911Y-155795818D01*
X109424010Y-155931056D01*
X109424010Y-156068944D01*
X109450911Y-156204182D01*
X109503678Y-156331574D01*
X109580284Y-156446224D01*
X109677786Y-156543726D01*
X109792436Y-156620332D01*
X109919828Y-156673099D01*
X110055066Y-156700000D01*
X110192954Y-156700000D01*
X110328192Y-156673099D01*
X110455584Y-156620332D01*
X110510232Y-156583818D01*
X110530260Y-156649844D01*
X110567403Y-156719333D01*
X110617389Y-156780241D01*
X110678297Y-156830227D01*
X110747786Y-156867370D01*
X110823186Y-156890242D01*
X110901600Y-156897965D01*
X111806582Y-156897965D01*
X111800000Y-156931056D01*
X111800000Y-157068944D01*
X111826901Y-157204182D01*
X111879668Y-157331574D01*
X111956274Y-157446224D01*
X112053776Y-157543726D01*
X112168426Y-157620332D01*
X112295818Y-157673099D01*
X112431056Y-157700000D01*
X112557538Y-157700000D01*
X111957539Y-158300000D01*
X111931056Y-158300000D01*
X111795818Y-158326901D01*
X111668426Y-158379668D01*
X111553776Y-158456274D01*
X111456274Y-158553776D01*
X111379668Y-158668426D01*
X111326901Y-158795818D01*
X111300000Y-158931056D01*
X111300000Y-159068944D01*
X111326901Y-159204182D01*
X111379668Y-159331574D01*
X111456274Y-159446224D01*
X111553776Y-159543726D01*
X111668426Y-159620332D01*
X111795818Y-159673099D01*
X111931056Y-159700000D01*
X112068944Y-159700000D01*
X112204182Y-159673099D01*
X112331574Y-159620332D01*
X112446224Y-159543726D01*
X112543726Y-159446224D01*
X112620332Y-159331574D01*
X112673099Y-159204182D01*
X112700000Y-159068944D01*
X112700000Y-159042461D01*
X113217462Y-158525000D01*
X115035050Y-158525000D01*
X115053776Y-158543726D01*
X115168426Y-158620332D01*
X115295818Y-158673099D01*
X115431056Y-158700000D01*
X115568944Y-158700000D01*
X115704182Y-158673099D01*
X115831574Y-158620332D01*
X115946224Y-158543726D01*
X116043726Y-158446224D01*
X116100000Y-158362003D01*
X116100000Y-159749896D01*
X115902177Y-159855634D01*
X115711840Y-160011840D01*
X115555634Y-160202177D01*
X115439563Y-160419331D01*
X115435072Y-160434135D01*
X115366935Y-160253700D01*
X115215736Y-160011148D01*
X115020122Y-159802754D01*
X114787611Y-159636527D01*
X114527139Y-159518854D01*
X114438910Y-159492097D01*
X114214000Y-159603111D01*
X114214000Y-160746000D01*
X114234000Y-160746000D01*
X114234000Y-161054000D01*
X114214000Y-161054000D01*
X114214000Y-161074000D01*
X113906000Y-161074000D01*
X113906000Y-161054000D01*
X112762150Y-161054000D01*
X112652091Y-161278911D01*
X112753065Y-161546300D01*
X112904264Y-161788852D01*
X113099878Y-161997246D01*
X113278575Y-162125000D01*
X106475000Y-162125000D01*
X106475000Y-159327640D01*
X107450000Y-159327640D01*
X107450000Y-159672360D01*
X107517251Y-160010456D01*
X107649170Y-160328936D01*
X107840686Y-160615560D01*
X108084440Y-160859314D01*
X108371064Y-161050830D01*
X108689544Y-161182749D01*
X109027640Y-161250000D01*
X109372360Y-161250000D01*
X109710456Y-161182749D01*
X110028936Y-161050830D01*
X110315560Y-160859314D01*
X110559314Y-160615560D01*
X110622437Y-160521089D01*
X112652091Y-160521089D01*
X112762150Y-160746000D01*
X113906000Y-160746000D01*
X113906000Y-159603111D01*
X113681090Y-159492097D01*
X113592861Y-159518854D01*
X113332389Y-159636527D01*
X113099878Y-159802754D01*
X112904264Y-160011148D01*
X112753065Y-160253700D01*
X112652091Y-160521089D01*
X110622437Y-160521089D01*
X110750830Y-160328936D01*
X110882749Y-160010456D01*
X110950000Y-159672360D01*
X110950000Y-159327640D01*
X110882749Y-158989544D01*
X110750830Y-158671064D01*
X110559314Y-158384440D01*
X110315560Y-158140686D01*
X110028936Y-157949170D01*
X109710456Y-157817251D01*
X109372360Y-157750000D01*
X109027640Y-157750000D01*
X108689544Y-157817251D01*
X108371064Y-157949170D01*
X108084440Y-158140686D01*
X107840686Y-158384440D01*
X107649170Y-158671064D01*
X107517251Y-158989544D01*
X107450000Y-159327640D01*
X106475000Y-159327640D01*
X106475000Y-156110016D01*
X106496186Y-156121340D01*
X106571586Y-156144212D01*
X106650000Y-156151935D01*
X108350000Y-156151935D01*
X108428414Y-156144212D01*
X108503814Y-156121340D01*
X108573303Y-156084197D01*
X108634211Y-156034211D01*
X108684197Y-155973303D01*
X108721340Y-155903814D01*
X108744212Y-155828414D01*
X108751935Y-155750000D01*
X108751935Y-154050000D01*
X108744212Y-153971586D01*
X108721340Y-153896186D01*
X108684197Y-153826697D01*
X108634211Y-153765789D01*
X108573303Y-153715803D01*
X108503814Y-153678660D01*
X108428414Y-153655788D01*
X108350000Y-153648065D01*
X106650000Y-153648065D01*
X106571586Y-153655788D01*
X106496186Y-153678660D01*
X106475000Y-153689984D01*
X106475000Y-153081420D01*
X106611840Y-153248160D01*
X106802177Y-153404366D01*
X107019331Y-153520437D01*
X107254957Y-153591913D01*
X107438595Y-153610000D01*
X107561405Y-153610000D01*
X107745043Y-153591913D01*
X107980669Y-153520437D01*
X108197823Y-153404366D01*
X108388160Y-153248160D01*
X108544366Y-153057823D01*
X108660437Y-152840669D01*
X108731913Y-152605043D01*
X108756048Y-152360000D01*
X108731913Y-152114957D01*
X108660437Y-151879331D01*
X108544366Y-151662177D01*
X108388160Y-151471840D01*
X108197823Y-151315634D01*
X107980669Y-151199563D01*
X107745043Y-151128087D01*
X107561405Y-151110000D01*
X107438595Y-151110000D01*
X107254957Y-151128087D01*
X107019331Y-151199563D01*
X106802177Y-151315634D01*
X106611840Y-151471840D01*
X106475000Y-151638580D01*
X106475000Y-150541420D01*
X106611840Y-150708160D01*
X106802177Y-150864366D01*
X107019331Y-150980437D01*
X107254957Y-151051913D01*
X107438595Y-151070000D01*
X107561405Y-151070000D01*
X107745043Y-151051913D01*
X107980669Y-150980437D01*
X108197823Y-150864366D01*
X108388160Y-150708160D01*
X108544366Y-150517823D01*
X108660437Y-150300669D01*
X108731913Y-150065043D01*
X108756048Y-149820000D01*
X108731913Y-149574957D01*
X108660437Y-149339331D01*
X108544366Y-149122177D01*
X108388160Y-148931840D01*
X108197823Y-148775634D01*
X107980669Y-148659563D01*
X107745043Y-148588087D01*
X107561405Y-148570000D01*
X107438595Y-148570000D01*
X107254957Y-148588087D01*
X107019331Y-148659563D01*
X106802177Y-148775634D01*
X106611840Y-148931840D01*
X106475000Y-149098580D01*
X106475000Y-148001420D01*
X106611840Y-148168160D01*
X106802177Y-148324366D01*
X107019331Y-148440437D01*
X107254957Y-148511913D01*
X107438595Y-148530000D01*
X107561405Y-148530000D01*
X107745043Y-148511913D01*
X107980669Y-148440437D01*
X108197823Y-148324366D01*
X108388160Y-148168160D01*
X108544366Y-147977823D01*
X108660437Y-147760669D01*
X108731913Y-147525043D01*
X108756048Y-147280000D01*
X108731913Y-147034957D01*
X108660437Y-146799331D01*
X108544366Y-146582177D01*
X108388160Y-146391840D01*
X108197823Y-146235634D01*
X107980669Y-146119563D01*
X107745043Y-146048087D01*
X107561405Y-146030000D01*
X107438595Y-146030000D01*
X107254957Y-146048087D01*
X107019331Y-146119563D01*
X106802177Y-146235634D01*
X106611840Y-146391840D01*
X106475000Y-146558580D01*
X106475000Y-145461420D01*
X106611840Y-145628160D01*
X106802177Y-145784366D01*
X107019331Y-145900437D01*
X107254957Y-145971913D01*
X107438595Y-145990000D01*
X107561405Y-145990000D01*
X107745043Y-145971913D01*
X107980669Y-145900437D01*
X108197823Y-145784366D01*
X108388160Y-145628160D01*
X108544366Y-145437823D01*
X108660437Y-145220669D01*
X108731913Y-144985043D01*
X108756048Y-144740000D01*
X108731913Y-144494957D01*
X108660437Y-144259331D01*
X108544366Y-144042177D01*
X108388160Y-143851840D01*
X108197823Y-143695634D01*
X107980669Y-143579563D01*
X107745043Y-143508087D01*
X107561405Y-143490000D01*
X107438595Y-143490000D01*
X107254957Y-143508087D01*
X107019331Y-143579563D01*
X106802177Y-143695634D01*
X106611840Y-143851840D01*
X106475000Y-144018580D01*
X106475000Y-142921420D01*
X106611840Y-143088160D01*
X106802177Y-143244366D01*
X107019331Y-143360437D01*
X107254957Y-143431913D01*
X107438595Y-143450000D01*
X107561405Y-143450000D01*
X107745043Y-143431913D01*
X107980669Y-143360437D01*
X108197823Y-143244366D01*
X108388160Y-143088160D01*
X108544366Y-142897823D01*
X108660437Y-142680669D01*
X108731913Y-142445043D01*
X108756048Y-142200000D01*
X108731913Y-141954957D01*
X108660437Y-141719331D01*
X108544366Y-141502177D01*
X108388160Y-141311840D01*
X108197823Y-141155634D01*
X107980669Y-141039563D01*
X107745043Y-140968087D01*
X107561405Y-140950000D01*
X107438595Y-140950000D01*
X107254957Y-140968087D01*
X107019331Y-141039563D01*
X106802177Y-141155634D01*
X106611840Y-141311840D01*
X106475000Y-141478580D01*
X106475000Y-140381420D01*
X106611840Y-140548160D01*
X106802177Y-140704366D01*
X107019331Y-140820437D01*
X107254957Y-140891913D01*
X107438595Y-140910000D01*
X107561405Y-140910000D01*
X107745043Y-140891913D01*
X107980669Y-140820437D01*
X108197823Y-140704366D01*
X108388160Y-140548160D01*
X108544366Y-140357823D01*
X108660437Y-140140669D01*
X108731913Y-139905043D01*
X108756048Y-139660000D01*
X108731913Y-139414957D01*
X108660437Y-139179331D01*
X108544366Y-138962177D01*
X108388160Y-138771840D01*
X108197823Y-138615634D01*
X107980669Y-138499563D01*
X107745043Y-138428087D01*
X107561405Y-138410000D01*
X107438595Y-138410000D01*
X107254957Y-138428087D01*
X107019331Y-138499563D01*
X106802177Y-138615634D01*
X106611840Y-138771840D01*
X106475000Y-138938580D01*
X106475000Y-137841420D01*
X106611840Y-138008160D01*
X106802177Y-138164366D01*
X107019331Y-138280437D01*
X107254957Y-138351913D01*
X107438595Y-138370000D01*
X107561405Y-138370000D01*
X107745043Y-138351913D01*
X107980669Y-138280437D01*
X108197823Y-138164366D01*
X108388160Y-138008160D01*
X108544366Y-137817823D01*
X108660437Y-137600669D01*
X108731913Y-137365043D01*
X108756048Y-137120000D01*
X108731913Y-136874957D01*
X108660437Y-136639331D01*
X108544366Y-136422177D01*
X108388160Y-136231840D01*
X108197823Y-136075634D01*
X107980669Y-135959563D01*
X107745043Y-135888087D01*
X107561405Y-135870000D01*
X107438595Y-135870000D01*
X107254957Y-135888087D01*
X107019331Y-135959563D01*
X106802177Y-136075634D01*
X106611840Y-136231840D01*
X106475000Y-136398580D01*
X106475000Y-135301420D01*
X106611840Y-135468160D01*
X106802177Y-135624366D01*
X107019331Y-135740437D01*
X107254957Y-135811913D01*
X107438595Y-135830000D01*
X107561405Y-135830000D01*
X107745043Y-135811913D01*
X107980669Y-135740437D01*
X108197823Y-135624366D01*
X108388160Y-135468160D01*
X108544366Y-135277823D01*
X108660437Y-135060669D01*
X108731913Y-134825043D01*
X108756048Y-134580000D01*
X108731913Y-134334957D01*
X108660437Y-134099331D01*
X108544366Y-133882177D01*
X108388160Y-133691840D01*
X108197823Y-133535634D01*
X107980669Y-133419563D01*
X107965865Y-133415072D01*
X108146300Y-133346935D01*
X108388852Y-133195736D01*
X108597246Y-133000122D01*
X108763473Y-132767611D01*
X108881146Y-132507139D01*
X108907903Y-132418910D01*
X108796889Y-132194000D01*
X107654000Y-132194000D01*
X107654000Y-132214000D01*
X107346000Y-132214000D01*
X107346000Y-132194000D01*
X107326000Y-132194000D01*
X107326000Y-131886000D01*
X107346000Y-131886000D01*
X107346000Y-130742150D01*
X107654000Y-130742150D01*
X107654000Y-131886000D01*
X108796889Y-131886000D01*
X108907903Y-131661090D01*
X108881146Y-131572861D01*
X108763473Y-131312389D01*
X108597246Y-131079878D01*
X108388852Y-130884264D01*
X108146300Y-130733065D01*
X107878911Y-130632091D01*
X107654000Y-130742150D01*
X107346000Y-130742150D01*
X107121089Y-130632091D01*
X106853700Y-130733065D01*
X106611148Y-130884264D01*
X106475000Y-131012063D01*
X106475000Y-128075000D01*
X110060347Y-128075000D01*
X109884219Y-128147955D01*
X109884219Y-128147955D01*
G37*
X109884219Y-128147955D02*
X109671298Y-128290224D01*
X109490224Y-128471298D01*
X109347955Y-128684219D01*
X109249958Y-128920804D01*
X109200000Y-129171961D01*
X109200000Y-129428039D01*
X109249958Y-129679196D01*
X109347955Y-129915781D01*
X109490224Y-130128702D01*
X109671298Y-130309776D01*
X109884219Y-130452045D01*
X110120804Y-130550042D01*
X110371961Y-130600000D01*
X110628039Y-130600000D01*
X110879196Y-130550042D01*
X111115781Y-130452045D01*
X111328702Y-130309776D01*
X111509776Y-130128702D01*
X111652045Y-129915781D01*
X111750042Y-129679196D01*
X111800000Y-129428039D01*
X111800000Y-129171961D01*
X111750042Y-128920804D01*
X111652045Y-128684219D01*
X111509776Y-128471298D01*
X111328702Y-128290224D01*
X111115781Y-128147955D01*
X110939653Y-128075000D01*
X117060347Y-128075000D01*
X116884219Y-128147955D01*
X116671298Y-128290224D01*
X116490224Y-128471298D01*
X116347955Y-128684219D01*
X116249958Y-128920804D01*
X116200000Y-129171961D01*
X116200000Y-129428039D01*
X116204567Y-129450998D01*
X113426266Y-129450998D01*
X113400478Y-129448458D01*
X113374690Y-129450998D01*
X113297560Y-129458595D01*
X113198597Y-129488615D01*
X113107392Y-129537365D01*
X113027451Y-129602971D01*
X113011011Y-129623003D01*
X112523003Y-130111012D01*
X112502972Y-130127451D01*
X112486533Y-130147482D01*
X112437365Y-130207393D01*
X112388615Y-130298598D01*
X112358595Y-130397561D01*
X112348459Y-130500478D01*
X112350999Y-130526268D01*
X112350999Y-131289707D01*
X112203759Y-131142467D01*
X112022940Y-131021648D01*
X111822025Y-130938426D01*
X111608735Y-130896000D01*
X111391265Y-130896000D01*
X111177975Y-130938426D01*
X110977060Y-131021648D01*
X110796241Y-131142467D01*
X110642467Y-131296241D01*
X110521648Y-131477060D01*
X110438426Y-131677975D01*
X110396000Y-131891265D01*
X110396000Y-132108735D01*
X110438426Y-132322025D01*
X110521648Y-132522940D01*
X110642467Y-132703759D01*
X110796241Y-132857533D01*
X110977060Y-132978352D01*
X111174062Y-133059953D01*
X109847005Y-134387010D01*
X109826974Y-134403449D01*
X109810535Y-134423480D01*
X109761367Y-134483391D01*
X109712617Y-134574596D01*
X109682597Y-134673559D01*
X109672461Y-134776476D01*
X109675001Y-134802266D01*
X109675000Y-139135050D01*
X109656274Y-139153776D01*
X109579668Y-139268426D01*
X109526901Y-139395818D01*
X109500000Y-139531056D01*
X109500000Y-139668944D01*
X109526901Y-139804182D01*
X109579668Y-139931574D01*
X109656274Y-140046224D01*
X109753776Y-140143726D01*
X109868426Y-140220332D01*
X109995818Y-140273099D01*
X110131056Y-140300000D01*
X110268944Y-140300000D01*
X110404182Y-140273099D01*
X110499665Y-140233549D01*
X110499665Y-141499870D01*
X110507388Y-141578284D01*
X110530260Y-141653684D01*
X110567403Y-141723173D01*
X110617389Y-141784081D01*
X110678297Y-141834067D01*
X110747786Y-141871210D01*
X110823186Y-141894082D01*
X110901600Y-141901805D01*
X111001040Y-141901805D01*
X111001041Y-146819709D01*
X110959946Y-146836731D01*
X110845296Y-146913337D01*
X110747794Y-147010839D01*
X110671188Y-147125489D01*
X110618421Y-147252881D01*
X110591520Y-147388119D01*
X110591520Y-147526007D01*
X110618421Y-147661245D01*
X110671188Y-147788637D01*
X110747794Y-147903287D01*
X110805147Y-147960640D01*
X110773655Y-148036668D01*
X110746754Y-148171906D01*
X110746754Y-148309794D01*
X110773655Y-148445032D01*
X110826422Y-148572424D01*
X110903028Y-148687074D01*
X111000530Y-148784576D01*
X111001041Y-148784917D01*
X111001040Y-153094355D01*
X110901600Y-153094355D01*
X110823186Y-153102078D01*
X110747786Y-153124950D01*
X110678297Y-153162093D01*
X110617389Y-153212079D01*
X110567403Y-153272987D01*
X110547737Y-153309779D01*
X110543726Y-153303776D01*
X110446224Y-153206274D01*
X110331574Y-153129668D01*
X110204182Y-153076901D01*
X110068944Y-153050000D01*
X109931056Y-153050000D01*
X109795818Y-153076901D01*
X109668426Y-153129668D01*
X109553776Y-153206274D01*
X109456274Y-153303776D01*
X109379668Y-153418426D01*
X109326901Y-153545818D01*
X109300000Y-153681056D01*
X109300000Y-153818944D01*
X109326901Y-153954182D01*
X109379668Y-154081574D01*
X109456274Y-154196224D01*
X109475000Y-154214950D01*
X109475001Y-155737659D01*
X109450911Y-155795818D01*
X109424010Y-155931056D01*
X109424010Y-156068944D01*
X109450911Y-156204182D01*
X109503678Y-156331574D01*
X109580284Y-156446224D01*
X109677786Y-156543726D01*
X109792436Y-156620332D01*
X109919828Y-156673099D01*
X110055066Y-156700000D01*
X110192954Y-156700000D01*
X110328192Y-156673099D01*
X110455584Y-156620332D01*
X110510232Y-156583818D01*
X110530260Y-156649844D01*
X110567403Y-156719333D01*
X110617389Y-156780241D01*
X110678297Y-156830227D01*
X110747786Y-156867370D01*
X110823186Y-156890242D01*
X110901600Y-156897965D01*
X111806582Y-156897965D01*
X111800000Y-156931056D01*
X111800000Y-157068944D01*
X111826901Y-157204182D01*
X111879668Y-157331574D01*
X111956274Y-157446224D01*
X112053776Y-157543726D01*
X112168426Y-157620332D01*
X112295818Y-157673099D01*
X112431056Y-157700000D01*
X112557538Y-157700000D01*
X111957539Y-158300000D01*
X111931056Y-158300000D01*
X111795818Y-158326901D01*
X111668426Y-158379668D01*
X111553776Y-158456274D01*
X111456274Y-158553776D01*
X111379668Y-158668426D01*
X111326901Y-158795818D01*
X111300000Y-158931056D01*
X111300000Y-159068944D01*
X111326901Y-159204182D01*
X111379668Y-159331574D01*
X111456274Y-159446224D01*
X111553776Y-159543726D01*
X111668426Y-159620332D01*
X111795818Y-159673099D01*
X111931056Y-159700000D01*
X112068944Y-159700000D01*
X112204182Y-159673099D01*
X112331574Y-159620332D01*
X112446224Y-159543726D01*
X112543726Y-159446224D01*
X112620332Y-159331574D01*
X112673099Y-159204182D01*
X112700000Y-159068944D01*
X112700000Y-159042461D01*
X113217462Y-158525000D01*
X115035050Y-158525000D01*
X115053776Y-158543726D01*
X115168426Y-158620332D01*
X115295818Y-158673099D01*
X115431056Y-158700000D01*
X115568944Y-158700000D01*
X115704182Y-158673099D01*
X115831574Y-158620332D01*
X115946224Y-158543726D01*
X116043726Y-158446224D01*
X116100000Y-158362003D01*
X116100000Y-159749896D01*
X115902177Y-159855634D01*
X115711840Y-160011840D01*
X115555634Y-160202177D01*
X115439563Y-160419331D01*
X115435072Y-160434135D01*
X115366935Y-160253700D01*
X115215736Y-160011148D01*
X115020122Y-159802754D01*
X114787611Y-159636527D01*
X114527139Y-159518854D01*
X114438910Y-159492097D01*
X114214000Y-159603111D01*
X114214000Y-160746000D01*
X114234000Y-160746000D01*
X114234000Y-161054000D01*
X114214000Y-161054000D01*
X114214000Y-161074000D01*
X113906000Y-161074000D01*
X113906000Y-161054000D01*
X112762150Y-161054000D01*
X112652091Y-161278911D01*
X112753065Y-161546300D01*
X112904264Y-161788852D01*
X113099878Y-161997246D01*
X113278575Y-162125000D01*
X106475000Y-162125000D01*
X106475000Y-159327640D01*
X107450000Y-159327640D01*
X107450000Y-159672360D01*
X107517251Y-160010456D01*
X107649170Y-160328936D01*
X107840686Y-160615560D01*
X108084440Y-160859314D01*
X108371064Y-161050830D01*
X108689544Y-161182749D01*
X109027640Y-161250000D01*
X109372360Y-161250000D01*
X109710456Y-161182749D01*
X110028936Y-161050830D01*
X110315560Y-160859314D01*
X110559314Y-160615560D01*
X110622437Y-160521089D01*
X112652091Y-160521089D01*
X112762150Y-160746000D01*
X113906000Y-160746000D01*
X113906000Y-159603111D01*
X113681090Y-159492097D01*
X113592861Y-159518854D01*
X113332389Y-159636527D01*
X113099878Y-159802754D01*
X112904264Y-160011148D01*
X112753065Y-160253700D01*
X112652091Y-160521089D01*
X110622437Y-160521089D01*
X110750830Y-160328936D01*
X110882749Y-160010456D01*
X110950000Y-159672360D01*
X110950000Y-159327640D01*
X110882749Y-158989544D01*
X110750830Y-158671064D01*
X110559314Y-158384440D01*
X110315560Y-158140686D01*
X110028936Y-157949170D01*
X109710456Y-157817251D01*
X109372360Y-157750000D01*
X109027640Y-157750000D01*
X108689544Y-157817251D01*
X108371064Y-157949170D01*
X108084440Y-158140686D01*
X107840686Y-158384440D01*
X107649170Y-158671064D01*
X107517251Y-158989544D01*
X107450000Y-159327640D01*
X106475000Y-159327640D01*
X106475000Y-156110016D01*
X106496186Y-156121340D01*
X106571586Y-156144212D01*
X106650000Y-156151935D01*
X108350000Y-156151935D01*
X108428414Y-156144212D01*
X108503814Y-156121340D01*
X108573303Y-156084197D01*
X108634211Y-156034211D01*
X108684197Y-155973303D01*
X108721340Y-155903814D01*
X108744212Y-155828414D01*
X108751935Y-155750000D01*
X108751935Y-154050000D01*
X108744212Y-153971586D01*
X108721340Y-153896186D01*
X108684197Y-153826697D01*
X108634211Y-153765789D01*
X108573303Y-153715803D01*
X108503814Y-153678660D01*
X108428414Y-153655788D01*
X108350000Y-153648065D01*
X106650000Y-153648065D01*
X106571586Y-153655788D01*
X106496186Y-153678660D01*
X106475000Y-153689984D01*
X106475000Y-153081420D01*
X106611840Y-153248160D01*
X106802177Y-153404366D01*
X107019331Y-153520437D01*
X107254957Y-153591913D01*
X107438595Y-153610000D01*
X107561405Y-153610000D01*
X107745043Y-153591913D01*
X107980669Y-153520437D01*
X108197823Y-153404366D01*
X108388160Y-153248160D01*
X108544366Y-153057823D01*
X108660437Y-152840669D01*
X108731913Y-152605043D01*
X108756048Y-152360000D01*
X108731913Y-152114957D01*
X108660437Y-151879331D01*
X108544366Y-151662177D01*
X108388160Y-151471840D01*
X108197823Y-151315634D01*
X107980669Y-151199563D01*
X107745043Y-151128087D01*
X107561405Y-151110000D01*
X107438595Y-151110000D01*
X107254957Y-151128087D01*
X107019331Y-151199563D01*
X106802177Y-151315634D01*
X106611840Y-151471840D01*
X106475000Y-151638580D01*
X106475000Y-150541420D01*
X106611840Y-150708160D01*
X106802177Y-150864366D01*
X107019331Y-150980437D01*
X107254957Y-151051913D01*
X107438595Y-151070000D01*
X107561405Y-151070000D01*
X107745043Y-151051913D01*
X107980669Y-150980437D01*
X108197823Y-150864366D01*
X108388160Y-150708160D01*
X108544366Y-150517823D01*
X108660437Y-150300669D01*
X108731913Y-150065043D01*
X108756048Y-149820000D01*
X108731913Y-149574957D01*
X108660437Y-149339331D01*
X108544366Y-149122177D01*
X108388160Y-148931840D01*
X108197823Y-148775634D01*
X107980669Y-148659563D01*
X107745043Y-148588087D01*
X107561405Y-148570000D01*
X107438595Y-148570000D01*
X107254957Y-148588087D01*
X107019331Y-148659563D01*
X106802177Y-148775634D01*
X106611840Y-148931840D01*
X106475000Y-149098580D01*
X106475000Y-148001420D01*
X106611840Y-148168160D01*
X106802177Y-148324366D01*
X107019331Y-148440437D01*
X107254957Y-148511913D01*
X107438595Y-148530000D01*
X107561405Y-148530000D01*
X107745043Y-148511913D01*
X107980669Y-148440437D01*
X108197823Y-148324366D01*
X108388160Y-148168160D01*
X108544366Y-147977823D01*
X108660437Y-147760669D01*
X108731913Y-147525043D01*
X108756048Y-147280000D01*
X108731913Y-147034957D01*
X108660437Y-146799331D01*
X108544366Y-146582177D01*
X108388160Y-146391840D01*
X108197823Y-146235634D01*
X107980669Y-146119563D01*
X107745043Y-146048087D01*
X107561405Y-146030000D01*
X107438595Y-146030000D01*
X107254957Y-146048087D01*
X107019331Y-146119563D01*
X106802177Y-146235634D01*
X106611840Y-146391840D01*
X106475000Y-146558580D01*
X106475000Y-145461420D01*
X106611840Y-145628160D01*
X106802177Y-145784366D01*
X107019331Y-145900437D01*
X107254957Y-145971913D01*
X107438595Y-145990000D01*
X107561405Y-145990000D01*
X107745043Y-145971913D01*
X107980669Y-145900437D01*
X108197823Y-145784366D01*
X108388160Y-145628160D01*
X108544366Y-145437823D01*
X108660437Y-145220669D01*
X108731913Y-144985043D01*
X108756048Y-144740000D01*
X108731913Y-144494957D01*
X108660437Y-144259331D01*
X108544366Y-144042177D01*
X108388160Y-143851840D01*
X108197823Y-143695634D01*
X107980669Y-143579563D01*
X107745043Y-143508087D01*
X107561405Y-143490000D01*
X107438595Y-143490000D01*
X107254957Y-143508087D01*
X107019331Y-143579563D01*
X106802177Y-143695634D01*
X106611840Y-143851840D01*
X106475000Y-144018580D01*
X106475000Y-142921420D01*
X106611840Y-143088160D01*
X106802177Y-143244366D01*
X107019331Y-143360437D01*
X107254957Y-143431913D01*
X107438595Y-143450000D01*
X107561405Y-143450000D01*
X107745043Y-143431913D01*
X107980669Y-143360437D01*
X108197823Y-143244366D01*
X108388160Y-143088160D01*
X108544366Y-142897823D01*
X108660437Y-142680669D01*
X108731913Y-142445043D01*
X108756048Y-142200000D01*
X108731913Y-141954957D01*
X108660437Y-141719331D01*
X108544366Y-141502177D01*
X108388160Y-141311840D01*
X108197823Y-141155634D01*
X107980669Y-141039563D01*
X107745043Y-140968087D01*
X107561405Y-140950000D01*
X107438595Y-140950000D01*
X107254957Y-140968087D01*
X107019331Y-141039563D01*
X106802177Y-141155634D01*
X106611840Y-141311840D01*
X106475000Y-141478580D01*
X106475000Y-140381420D01*
X106611840Y-140548160D01*
X106802177Y-140704366D01*
X107019331Y-140820437D01*
X107254957Y-140891913D01*
X107438595Y-140910000D01*
X107561405Y-140910000D01*
X107745043Y-140891913D01*
X107980669Y-140820437D01*
X108197823Y-140704366D01*
X108388160Y-140548160D01*
X108544366Y-140357823D01*
X108660437Y-140140669D01*
X108731913Y-139905043D01*
X108756048Y-139660000D01*
X108731913Y-139414957D01*
X108660437Y-139179331D01*
X108544366Y-138962177D01*
X108388160Y-138771840D01*
X108197823Y-138615634D01*
X107980669Y-138499563D01*
X107745043Y-138428087D01*
X107561405Y-138410000D01*
X107438595Y-138410000D01*
X107254957Y-138428087D01*
X107019331Y-138499563D01*
X106802177Y-138615634D01*
X106611840Y-138771840D01*
X106475000Y-138938580D01*
X106475000Y-137841420D01*
X106611840Y-138008160D01*
X106802177Y-138164366D01*
X107019331Y-138280437D01*
X107254957Y-138351913D01*
X107438595Y-138370000D01*
X107561405Y-138370000D01*
X107745043Y-138351913D01*
X107980669Y-138280437D01*
X108197823Y-138164366D01*
X108388160Y-138008160D01*
X108544366Y-137817823D01*
X108660437Y-137600669D01*
X108731913Y-137365043D01*
X108756048Y-137120000D01*
X108731913Y-136874957D01*
X108660437Y-136639331D01*
X108544366Y-136422177D01*
X108388160Y-136231840D01*
X108197823Y-136075634D01*
X107980669Y-135959563D01*
X107745043Y-135888087D01*
X107561405Y-135870000D01*
X107438595Y-135870000D01*
X107254957Y-135888087D01*
X107019331Y-135959563D01*
X106802177Y-136075634D01*
X106611840Y-136231840D01*
X106475000Y-136398580D01*
X106475000Y-135301420D01*
X106611840Y-135468160D01*
X106802177Y-135624366D01*
X107019331Y-135740437D01*
X107254957Y-135811913D01*
X107438595Y-135830000D01*
X107561405Y-135830000D01*
X107745043Y-135811913D01*
X107980669Y-135740437D01*
X108197823Y-135624366D01*
X108388160Y-135468160D01*
X108544366Y-135277823D01*
X108660437Y-135060669D01*
X108731913Y-134825043D01*
X108756048Y-134580000D01*
X108731913Y-134334957D01*
X108660437Y-134099331D01*
X108544366Y-133882177D01*
X108388160Y-133691840D01*
X108197823Y-133535634D01*
X107980669Y-133419563D01*
X107965865Y-133415072D01*
X108146300Y-133346935D01*
X108388852Y-133195736D01*
X108597246Y-133000122D01*
X108763473Y-132767611D01*
X108881146Y-132507139D01*
X108907903Y-132418910D01*
X108796889Y-132194000D01*
X107654000Y-132194000D01*
X107654000Y-132214000D01*
X107346000Y-132214000D01*
X107346000Y-132194000D01*
X107326000Y-132194000D01*
X107326000Y-131886000D01*
X107346000Y-131886000D01*
X107346000Y-130742150D01*
X107654000Y-130742150D01*
X107654000Y-131886000D01*
X108796889Y-131886000D01*
X108907903Y-131661090D01*
X108881146Y-131572861D01*
X108763473Y-131312389D01*
X108597246Y-131079878D01*
X108388852Y-130884264D01*
X108146300Y-130733065D01*
X107878911Y-130632091D01*
X107654000Y-130742150D01*
X107346000Y-130742150D01*
X107121089Y-130632091D01*
X106853700Y-130733065D01*
X106611148Y-130884264D01*
X106475000Y-131012063D01*
X106475000Y-128075000D01*
X110060347Y-128075000D01*
X109884219Y-128147955D01*
G36*
X121164832Y-148057710D02*
G01*
X121144795Y-148074154D01*
X121079189Y-148154095D01*
X121030439Y-148245301D01*
X121000419Y-148344264D01*
X120994292Y-148406471D01*
X120962764Y-148400200D01*
X120824876Y-148400200D01*
X120689638Y-148427101D01*
X120562246Y-148479868D01*
X120447596Y-148556474D01*
X120350094Y-148653976D01*
X120273488Y-148768626D01*
X120220721Y-148896018D01*
X120193820Y-149031256D01*
X120193820Y-149057739D01*
X120147005Y-149104554D01*
X120126974Y-149120993D01*
X120110535Y-149141024D01*
X120061367Y-149200935D01*
X120012617Y-149292140D01*
X119982597Y-149391103D01*
X119972461Y-149494020D01*
X119975001Y-149519810D01*
X119975000Y-150662767D01*
X119956274Y-150681493D01*
X119879668Y-150796143D01*
X119826901Y-150923535D01*
X119800000Y-151058773D01*
X119800000Y-151196661D01*
X119826901Y-151331899D01*
X119879668Y-151459291D01*
X119956274Y-151573941D01*
X120053776Y-151671443D01*
X120168426Y-151748049D01*
X120295818Y-151800816D01*
X120431056Y-151827717D01*
X120568944Y-151827717D01*
X120704182Y-151800816D01*
X120831574Y-151748049D01*
X120946224Y-151671443D01*
X120992823Y-151624844D01*
X120992823Y-153094355D01*
X120899040Y-153094355D01*
X120820626Y-153102078D01*
X120745226Y-153124950D01*
X120675737Y-153162093D01*
X120629844Y-153199757D01*
X120606920Y-153156869D01*
X120530941Y-153064289D01*
X120438361Y-152988310D01*
X120332737Y-152931853D01*
X120218129Y-152897087D01*
X120098940Y-152885348D01*
X119805500Y-152888290D01*
X119653500Y-153040290D01*
X119653500Y-154842160D01*
X119673500Y-154842160D01*
X119673500Y-155150160D01*
X119653500Y-155150160D01*
X119653500Y-156952030D01*
X119805500Y-157104030D01*
X120098940Y-157106972D01*
X120218129Y-157095233D01*
X120332737Y-157060467D01*
X120438361Y-157004010D01*
X120530941Y-156928031D01*
X120606920Y-156835451D01*
X120629844Y-156792563D01*
X120675737Y-156830227D01*
X120745226Y-156867370D01*
X120820626Y-156890242D01*
X120899040Y-156897965D01*
X122051559Y-156897965D01*
X122051559Y-158685978D01*
X121327005Y-159410534D01*
X121306974Y-159426973D01*
X121290535Y-159447004D01*
X121241367Y-159506915D01*
X121192617Y-159598120D01*
X121177466Y-159648065D01*
X120830000Y-159648065D01*
X120751586Y-159655788D01*
X120676186Y-159678660D01*
X120606697Y-159715803D01*
X120545789Y-159765789D01*
X120495803Y-159826697D01*
X120458660Y-159896186D01*
X120435788Y-159971586D01*
X120428065Y-160050000D01*
X120428065Y-161750000D01*
X120435788Y-161828414D01*
X120458660Y-161903814D01*
X120495803Y-161973303D01*
X120545789Y-162034211D01*
X120606697Y-162084197D01*
X120676186Y-162121340D01*
X120688252Y-162125000D01*
X119407832Y-162125000D01*
X119620669Y-162060437D01*
X119837823Y-161944366D01*
X120028160Y-161788160D01*
X120184366Y-161597823D01*
X120300437Y-161380669D01*
X120371913Y-161145043D01*
X120396048Y-160900000D01*
X120371913Y-160654957D01*
X120300437Y-160419331D01*
X120184366Y-160202177D01*
X120028160Y-160011840D01*
X119837823Y-159855634D01*
X119640000Y-159749896D01*
X119640000Y-159722479D01*
X119642419Y-159697919D01*
X119632765Y-159599902D01*
X119610814Y-159527539D01*
X119604175Y-159505652D01*
X119557746Y-159418790D01*
X119495264Y-159342655D01*
X119476186Y-159326998D01*
X119101059Y-158951872D01*
X119101059Y-157104957D01*
X119193500Y-157104030D01*
X119345500Y-156952030D01*
X119345500Y-155150160D01*
X119325500Y-155150160D01*
X119325500Y-154842160D01*
X119345500Y-154842160D01*
X119345500Y-153040290D01*
X119193500Y-152888290D01*
X119101059Y-152887363D01*
X119101059Y-147842834D01*
X119138454Y-147867820D01*
X119265846Y-147920587D01*
X119401084Y-147947488D01*
X119538972Y-147947488D01*
X119674210Y-147920587D01*
X119801602Y-147867820D01*
X119916252Y-147791214D01*
X119934978Y-147772488D01*
X121450054Y-147772488D01*
X121164832Y-148057710D01*
X121164832Y-148057710D01*
G37*
X121164832Y-148057710D02*
X121144795Y-148074154D01*
X121079189Y-148154095D01*
X121030439Y-148245301D01*
X121000419Y-148344264D01*
X120994292Y-148406471D01*
X120962764Y-148400200D01*
X120824876Y-148400200D01*
X120689638Y-148427101D01*
X120562246Y-148479868D01*
X120447596Y-148556474D01*
X120350094Y-148653976D01*
X120273488Y-148768626D01*
X120220721Y-148896018D01*
X120193820Y-149031256D01*
X120193820Y-149057739D01*
X120147005Y-149104554D01*
X120126974Y-149120993D01*
X120110535Y-149141024D01*
X120061367Y-149200935D01*
X120012617Y-149292140D01*
X119982597Y-149391103D01*
X119972461Y-149494020D01*
X119975001Y-149519810D01*
X119975000Y-150662767D01*
X119956274Y-150681493D01*
X119879668Y-150796143D01*
X119826901Y-150923535D01*
X119800000Y-151058773D01*
X119800000Y-151196661D01*
X119826901Y-151331899D01*
X119879668Y-151459291D01*
X119956274Y-151573941D01*
X120053776Y-151671443D01*
X120168426Y-151748049D01*
X120295818Y-151800816D01*
X120431056Y-151827717D01*
X120568944Y-151827717D01*
X120704182Y-151800816D01*
X120831574Y-151748049D01*
X120946224Y-151671443D01*
X120992823Y-151624844D01*
X120992823Y-153094355D01*
X120899040Y-153094355D01*
X120820626Y-153102078D01*
X120745226Y-153124950D01*
X120675737Y-153162093D01*
X120629844Y-153199757D01*
X120606920Y-153156869D01*
X120530941Y-153064289D01*
X120438361Y-152988310D01*
X120332737Y-152931853D01*
X120218129Y-152897087D01*
X120098940Y-152885348D01*
X119805500Y-152888290D01*
X119653500Y-153040290D01*
X119653500Y-154842160D01*
X119673500Y-154842160D01*
X119673500Y-155150160D01*
X119653500Y-155150160D01*
X119653500Y-156952030D01*
X119805500Y-157104030D01*
X120098940Y-157106972D01*
X120218129Y-157095233D01*
X120332737Y-157060467D01*
X120438361Y-157004010D01*
X120530941Y-156928031D01*
X120606920Y-156835451D01*
X120629844Y-156792563D01*
X120675737Y-156830227D01*
X120745226Y-156867370D01*
X120820626Y-156890242D01*
X120899040Y-156897965D01*
X122051559Y-156897965D01*
X122051559Y-158685978D01*
X121327005Y-159410534D01*
X121306974Y-159426973D01*
X121290535Y-159447004D01*
X121241367Y-159506915D01*
X121192617Y-159598120D01*
X121177466Y-159648065D01*
X120830000Y-159648065D01*
X120751586Y-159655788D01*
X120676186Y-159678660D01*
X120606697Y-159715803D01*
X120545789Y-159765789D01*
X120495803Y-159826697D01*
X120458660Y-159896186D01*
X120435788Y-159971586D01*
X120428065Y-160050000D01*
X120428065Y-161750000D01*
X120435788Y-161828414D01*
X120458660Y-161903814D01*
X120495803Y-161973303D01*
X120545789Y-162034211D01*
X120606697Y-162084197D01*
X120676186Y-162121340D01*
X120688252Y-162125000D01*
X119407832Y-162125000D01*
X119620669Y-162060437D01*
X119837823Y-161944366D01*
X120028160Y-161788160D01*
X120184366Y-161597823D01*
X120300437Y-161380669D01*
X120371913Y-161145043D01*
X120396048Y-160900000D01*
X120371913Y-160654957D01*
X120300437Y-160419331D01*
X120184366Y-160202177D01*
X120028160Y-160011840D01*
X119837823Y-159855634D01*
X119640000Y-159749896D01*
X119640000Y-159722479D01*
X119642419Y-159697919D01*
X119632765Y-159599902D01*
X119610814Y-159527539D01*
X119604175Y-159505652D01*
X119557746Y-159418790D01*
X119495264Y-159342655D01*
X119476186Y-159326998D01*
X119101059Y-158951872D01*
X119101059Y-157104957D01*
X119193500Y-157104030D01*
X119345500Y-156952030D01*
X119345500Y-155150160D01*
X119325500Y-155150160D01*
X119325500Y-154842160D01*
X119345500Y-154842160D01*
X119345500Y-153040290D01*
X119193500Y-152888290D01*
X119101059Y-152887363D01*
X119101059Y-147842834D01*
X119138454Y-147867820D01*
X119265846Y-147920587D01*
X119401084Y-147947488D01*
X119538972Y-147947488D01*
X119674210Y-147920587D01*
X119801602Y-147867820D01*
X119916252Y-147791214D01*
X119934978Y-147772488D01*
X121450054Y-147772488D01*
X121164832Y-148057710D01*
G36*
X124522561Y-145018240D02*
G01*
X124490169Y-145031657D01*
X124375519Y-145108263D01*
X124278017Y-145205765D01*
X124201411Y-145320415D01*
X124148644Y-145447807D01*
X124121743Y-145583045D01*
X124121743Y-145720933D01*
X124148644Y-145856171D01*
X124201411Y-145983563D01*
X124278017Y-146098213D01*
X124296744Y-146116940D01*
X124296743Y-149960795D01*
X123957539Y-150300000D01*
X123931056Y-150300000D01*
X123795818Y-150326901D01*
X123668426Y-150379668D01*
X123553776Y-150456274D01*
X123456274Y-150553776D01*
X123450999Y-150561671D01*
X123450999Y-150108261D01*
X123926733Y-149632528D01*
X123946759Y-149616093D01*
X123963194Y-149596067D01*
X123963198Y-149596063D01*
X124012365Y-149536152D01*
X124061115Y-149444947D01*
X124091135Y-149345984D01*
X124094421Y-149312618D01*
X124098732Y-149268854D01*
X124098732Y-149268846D01*
X124101271Y-149243066D01*
X124098732Y-149217286D01*
X124098732Y-146120376D01*
X124101271Y-146094596D01*
X124098732Y-146068816D01*
X124098732Y-146068808D01*
X124091135Y-145991678D01*
X124061115Y-145892715D01*
X124012365Y-145801510D01*
X123997311Y-145783167D01*
X123963198Y-145741599D01*
X123963194Y-145741595D01*
X123946759Y-145721569D01*
X123926733Y-145705134D01*
X123353438Y-145131841D01*
X123353438Y-144212547D01*
X124522560Y-143043426D01*
X124522561Y-145018240D01*
X124522561Y-145018240D01*
G37*
X124522561Y-145018240D02*
X124490169Y-145031657D01*
X124375519Y-145108263D01*
X124278017Y-145205765D01*
X124201411Y-145320415D01*
X124148644Y-145447807D01*
X124121743Y-145583045D01*
X124121743Y-145720933D01*
X124148644Y-145856171D01*
X124201411Y-145983563D01*
X124278017Y-146098213D01*
X124296744Y-146116940D01*
X124296743Y-149960795D01*
X123957539Y-150300000D01*
X123931056Y-150300000D01*
X123795818Y-150326901D01*
X123668426Y-150379668D01*
X123553776Y-150456274D01*
X123456274Y-150553776D01*
X123450999Y-150561671D01*
X123450999Y-150108261D01*
X123926733Y-149632528D01*
X123946759Y-149616093D01*
X123963194Y-149596067D01*
X123963198Y-149596063D01*
X124012365Y-149536152D01*
X124061115Y-149444947D01*
X124091135Y-149345984D01*
X124094421Y-149312618D01*
X124098732Y-149268854D01*
X124098732Y-149268846D01*
X124101271Y-149243066D01*
X124098732Y-149217286D01*
X124098732Y-146120376D01*
X124101271Y-146094596D01*
X124098732Y-146068816D01*
X124098732Y-146068808D01*
X124091135Y-145991678D01*
X124061115Y-145892715D01*
X124012365Y-145801510D01*
X123997311Y-145783167D01*
X123963198Y-145741599D01*
X123963194Y-145741595D01*
X123946759Y-145721569D01*
X123926733Y-145705134D01*
X123353438Y-145131841D01*
X123353438Y-144212547D01*
X124522560Y-143043426D01*
X124522561Y-145018240D01*
G36*
X128925000Y-131090724D02*
G01*
X128917246Y-131079878D01*
X128708852Y-130884264D01*
X128466300Y-130733065D01*
X128198911Y-130632091D01*
X127974000Y-130742150D01*
X127974000Y-131886000D01*
X127994000Y-131886000D01*
X127994000Y-132194000D01*
X127974000Y-132194000D01*
X127974000Y-134426000D01*
X127994000Y-134426000D01*
X127994000Y-134734000D01*
X127974000Y-134734000D01*
X127974000Y-134754000D01*
X127666000Y-134754000D01*
X127666000Y-134734000D01*
X127646000Y-134734000D01*
X127646000Y-134426000D01*
X127666000Y-134426000D01*
X127666000Y-132194000D01*
X127646000Y-132194000D01*
X127646000Y-131886000D01*
X127666000Y-131886000D01*
X127666000Y-130742150D01*
X127441089Y-130632091D01*
X127173700Y-130733065D01*
X126931148Y-130884264D01*
X126722754Y-131079878D01*
X126656382Y-131172717D01*
X126643726Y-131153776D01*
X126546224Y-131056274D01*
X126431574Y-130979668D01*
X126304182Y-130926901D01*
X126168944Y-130900000D01*
X126031056Y-130900000D01*
X125895818Y-130926901D01*
X125768426Y-130979668D01*
X125653776Y-131056274D01*
X125556274Y-131153776D01*
X125479668Y-131268426D01*
X125426901Y-131395818D01*
X125400000Y-131531056D01*
X125400000Y-131668944D01*
X125426901Y-131804182D01*
X125479668Y-131931574D01*
X125556274Y-132046224D01*
X125653776Y-132143726D01*
X125768426Y-132220332D01*
X125824193Y-132243431D01*
X125870999Y-132290237D01*
X125870999Y-133054577D01*
X125804182Y-133026901D01*
X125668944Y-133000000D01*
X125531056Y-133000000D01*
X125395818Y-133026901D01*
X125268426Y-133079668D01*
X125153776Y-133156274D01*
X125056274Y-133253776D01*
X124979668Y-133368426D01*
X124926901Y-133495818D01*
X124900000Y-133631056D01*
X124900000Y-133768944D01*
X124926901Y-133904182D01*
X124979668Y-134031574D01*
X125056274Y-134146224D01*
X125153776Y-134243726D01*
X125268426Y-134320332D01*
X125375000Y-134364476D01*
X125375000Y-136311150D01*
X125318944Y-136300000D01*
X125181056Y-136300000D01*
X125045818Y-136326901D01*
X124918426Y-136379668D01*
X124803776Y-136456274D01*
X124706274Y-136553776D01*
X124629668Y-136668426D01*
X124576901Y-136795818D01*
X124550000Y-136931056D01*
X124550000Y-137068944D01*
X124576901Y-137204182D01*
X124629668Y-137331574D01*
X124706274Y-137446224D01*
X124725001Y-137464951D01*
X124725001Y-137800028D01*
X124573109Y-137648136D01*
X124556665Y-137628099D01*
X124476724Y-137562493D01*
X124385519Y-137513743D01*
X124286556Y-137483723D01*
X124209426Y-137476126D01*
X124209418Y-137476126D01*
X124183638Y-137473587D01*
X124157858Y-137476126D01*
X124048595Y-137476126D01*
X124029869Y-137457400D01*
X123915219Y-137380794D01*
X123787827Y-137328027D01*
X123652589Y-137301126D01*
X123514701Y-137301126D01*
X123379463Y-137328027D01*
X123252071Y-137380794D01*
X123137421Y-137457400D01*
X123039919Y-137554902D01*
X122963313Y-137669552D01*
X122910546Y-137796944D01*
X122892030Y-137890028D01*
X122781371Y-137900927D01*
X122666763Y-137935693D01*
X122561139Y-137992150D01*
X122468559Y-138068129D01*
X122392580Y-138160709D01*
X122336123Y-138266333D01*
X122301357Y-138380941D01*
X122289618Y-138500130D01*
X122292560Y-139694000D01*
X122444560Y-139846000D01*
X123346000Y-139846000D01*
X123346000Y-139826000D01*
X123654000Y-139826000D01*
X123654000Y-139846000D01*
X123674000Y-139846000D01*
X123674000Y-140154000D01*
X123654000Y-140154000D01*
X123654000Y-140174000D01*
X123346000Y-140174000D01*
X123346000Y-140154000D01*
X122444560Y-140154000D01*
X122292560Y-140306000D01*
X122289618Y-141499870D01*
X122301357Y-141619059D01*
X122336123Y-141733667D01*
X122367299Y-141791993D01*
X122324427Y-141800521D01*
X122197035Y-141853288D01*
X122082385Y-141929894D01*
X121984883Y-142027396D01*
X121908277Y-142142046D01*
X121855510Y-142269438D01*
X121828609Y-142404676D01*
X121828609Y-142431158D01*
X120540825Y-143718943D01*
X120520794Y-143735382D01*
X120504355Y-143755413D01*
X120455187Y-143815324D01*
X120406437Y-143906529D01*
X120376417Y-144005492D01*
X120366281Y-144108409D01*
X120368821Y-144134199D01*
X120368820Y-145437390D01*
X120350094Y-145456116D01*
X120273488Y-145570766D01*
X120220721Y-145698158D01*
X120193820Y-145833396D01*
X120193820Y-145971284D01*
X120220721Y-146106522D01*
X120273488Y-146233914D01*
X120350094Y-146348564D01*
X120447596Y-146446066D01*
X120562246Y-146522672D01*
X120689638Y-146575439D01*
X120824876Y-146602340D01*
X120962764Y-146602340D01*
X121098002Y-146575439D01*
X121225394Y-146522672D01*
X121340044Y-146446066D01*
X121358770Y-146427340D01*
X121486532Y-146427340D01*
X121484106Y-146429766D01*
X121407500Y-146544416D01*
X121354733Y-146671808D01*
X121344652Y-146722488D01*
X119934978Y-146722488D01*
X119916252Y-146703762D01*
X119801602Y-146627156D01*
X119674210Y-146574389D01*
X119538972Y-146547488D01*
X119401084Y-146547488D01*
X119265846Y-146574389D01*
X119138454Y-146627156D01*
X119101059Y-146652142D01*
X119101059Y-145006046D01*
X119107105Y-145000000D01*
X119168944Y-145000000D01*
X119304182Y-144973099D01*
X119431574Y-144920332D01*
X119546224Y-144843726D01*
X119643726Y-144746224D01*
X119720332Y-144631574D01*
X119773099Y-144504182D01*
X119800000Y-144368944D01*
X119800000Y-144231056D01*
X119773099Y-144095818D01*
X119720332Y-143968426D01*
X119643726Y-143853776D01*
X119546224Y-143756274D01*
X119431574Y-143679668D01*
X119304182Y-143626901D01*
X119168944Y-143600000D01*
X119031056Y-143600000D01*
X118895818Y-143626901D01*
X118768426Y-143679668D01*
X118653776Y-143756274D01*
X118556274Y-143853776D01*
X118500000Y-143937997D01*
X118500000Y-143931056D01*
X118473099Y-143795818D01*
X118420332Y-143668426D01*
X118343726Y-143553776D01*
X118246224Y-143456274D01*
X118131574Y-143379668D01*
X118004182Y-143326901D01*
X117868944Y-143300000D01*
X117731056Y-143300000D01*
X117595818Y-143326901D01*
X117468426Y-143379668D01*
X117400000Y-143425388D01*
X117331574Y-143379668D01*
X117204182Y-143326901D01*
X117068944Y-143300000D01*
X116931056Y-143300000D01*
X116795818Y-143326901D01*
X116668426Y-143379668D01*
X116553776Y-143456274D01*
X116456274Y-143553776D01*
X116379668Y-143668426D01*
X116326901Y-143795818D01*
X116300000Y-143931056D01*
X116300000Y-144068944D01*
X116326901Y-144204182D01*
X116379668Y-144331574D01*
X116425388Y-144400000D01*
X116307046Y-144400000D01*
X116171808Y-144426901D01*
X116044416Y-144479668D01*
X115929766Y-144556274D01*
X115832264Y-144653776D01*
X115755658Y-144768426D01*
X115702891Y-144895818D01*
X115675990Y-145031056D01*
X115675990Y-145168944D01*
X115686832Y-145223450D01*
X115568944Y-145200000D01*
X115431056Y-145200000D01*
X115295818Y-145226901D01*
X115168426Y-145279668D01*
X115053776Y-145356274D01*
X114956274Y-145453776D01*
X114879668Y-145568426D01*
X114826901Y-145695818D01*
X114800000Y-145831056D01*
X114800000Y-145968944D01*
X114826901Y-146104182D01*
X114879668Y-146231574D01*
X114956274Y-146346224D01*
X115000000Y-146389950D01*
X115000000Y-148231056D01*
X114973099Y-148095818D01*
X114920332Y-147968426D01*
X114843726Y-147853776D01*
X114800000Y-147810050D01*
X114800000Y-146638027D01*
X114802418Y-146613477D01*
X114800000Y-146588927D01*
X114800000Y-146588918D01*
X114792765Y-146515461D01*
X114764175Y-146421211D01*
X114717746Y-146334349D01*
X114655264Y-146258214D01*
X114636187Y-146242558D01*
X114002560Y-145608933D01*
X114002560Y-141901805D01*
X114102000Y-141901805D01*
X114180414Y-141894082D01*
X114255814Y-141871210D01*
X114325303Y-141834067D01*
X114386211Y-141784081D01*
X114436197Y-141723173D01*
X114473340Y-141653684D01*
X114496212Y-141578284D01*
X114503935Y-141499870D01*
X114503935Y-138500130D01*
X114496212Y-138421716D01*
X114473340Y-138346316D01*
X114436197Y-138276827D01*
X114386211Y-138215919D01*
X114325303Y-138165933D01*
X114255814Y-138128790D01*
X114180414Y-138105918D01*
X114102000Y-138098195D01*
X113444266Y-138098195D01*
X114217462Y-137325000D01*
X120520312Y-137325000D01*
X120522928Y-137328188D01*
X120602869Y-137393794D01*
X120694074Y-137442544D01*
X120793037Y-137472564D01*
X120870167Y-137480161D01*
X120870175Y-137480161D01*
X120895955Y-137482700D01*
X120921735Y-137480161D01*
X121604800Y-137480161D01*
X121623526Y-137498887D01*
X121738176Y-137575493D01*
X121865568Y-137628260D01*
X122000806Y-137655161D01*
X122138694Y-137655161D01*
X122273932Y-137628260D01*
X122401324Y-137575493D01*
X122515974Y-137498887D01*
X122613476Y-137401385D01*
X122690082Y-137286735D01*
X122742849Y-137159343D01*
X122769750Y-137024105D01*
X122769750Y-136886217D01*
X122742849Y-136750979D01*
X122690082Y-136623587D01*
X122613476Y-136508937D01*
X122515974Y-136411435D01*
X122401324Y-136334829D01*
X122273932Y-136282062D01*
X122138694Y-136255161D01*
X122000806Y-136255161D01*
X121865568Y-136282062D01*
X121738176Y-136334829D01*
X121623526Y-136411435D01*
X121604800Y-136430161D01*
X121116437Y-136430161D01*
X121113821Y-136426973D01*
X121033880Y-136361367D01*
X120942675Y-136312617D01*
X120843712Y-136282597D01*
X120766582Y-136275000D01*
X120766574Y-136275000D01*
X120740794Y-136272461D01*
X120715014Y-136275000D01*
X114025779Y-136275000D01*
X113999999Y-136272461D01*
X113974219Y-136275000D01*
X113974212Y-136275000D01*
X113897082Y-136282597D01*
X113798119Y-136312617D01*
X113706914Y-136361367D01*
X113626973Y-136426973D01*
X113610534Y-136447004D01*
X113258955Y-136798583D01*
X113241924Y-136773094D01*
X113144422Y-136675592D01*
X113029772Y-136598986D01*
X112902380Y-136546219D01*
X112767142Y-136519318D01*
X112629254Y-136519318D01*
X112510418Y-136542956D01*
X111600000Y-135632539D01*
X111600000Y-135581056D01*
X111573099Y-135445818D01*
X111520332Y-135318426D01*
X111443726Y-135203776D01*
X111346224Y-135106274D01*
X111231574Y-135029668D01*
X111104182Y-134976901D01*
X110968944Y-134950000D01*
X110831056Y-134950000D01*
X110753512Y-134965425D01*
X113228994Y-132489944D01*
X113249025Y-132473505D01*
X113314631Y-132393564D01*
X113363381Y-132302359D01*
X113393401Y-132203396D01*
X113400998Y-132126266D01*
X113400998Y-132126265D01*
X113403538Y-132100478D01*
X113400998Y-132074690D01*
X113400998Y-131494021D01*
X113431056Y-131500000D01*
X113457539Y-131500000D01*
X115458314Y-133500776D01*
X115474753Y-133520807D01*
X115554694Y-133586413D01*
X115645899Y-133635163D01*
X115744862Y-133665183D01*
X115821992Y-133672780D01*
X115821999Y-133672780D01*
X115847779Y-133675319D01*
X115873559Y-133672780D01*
X117126440Y-133672780D01*
X117152220Y-133675319D01*
X117178000Y-133672780D01*
X117178008Y-133672780D01*
X117255138Y-133665183D01*
X117354101Y-133635163D01*
X117445306Y-133586413D01*
X117525247Y-133520807D01*
X117541691Y-133500770D01*
X117614821Y-133427640D01*
X119450000Y-133427640D01*
X119450000Y-133772360D01*
X119517251Y-134110456D01*
X119649170Y-134428936D01*
X119840686Y-134715560D01*
X120084440Y-134959314D01*
X120371064Y-135150830D01*
X120689544Y-135282749D01*
X121027640Y-135350000D01*
X121372360Y-135350000D01*
X121710456Y-135282749D01*
X122028936Y-135150830D01*
X122315560Y-134959314D01*
X122559314Y-134715560D01*
X122750830Y-134428936D01*
X122882749Y-134110456D01*
X122950000Y-133772360D01*
X122950000Y-133427640D01*
X122882749Y-133089544D01*
X122750830Y-132771064D01*
X122559314Y-132484440D01*
X122315560Y-132240686D01*
X122028936Y-132049170D01*
X121710456Y-131917251D01*
X121372360Y-131850000D01*
X121027640Y-131850000D01*
X120689544Y-131917251D01*
X120371064Y-132049170D01*
X120084440Y-132240686D01*
X119840686Y-132484440D01*
X119649170Y-132771064D01*
X119517251Y-133089544D01*
X119450000Y-133427640D01*
X117614821Y-133427640D01*
X118042462Y-133000000D01*
X118068944Y-133000000D01*
X118204182Y-132973099D01*
X118331574Y-132920332D01*
X118446224Y-132843726D01*
X118543726Y-132746224D01*
X118596633Y-132667042D01*
X118663324Y-132680308D01*
X118801212Y-132680308D01*
X118936450Y-132653407D01*
X119063842Y-132600640D01*
X119178492Y-132524034D01*
X119275994Y-132426532D01*
X119352600Y-132311882D01*
X119405367Y-132184490D01*
X119432268Y-132049252D01*
X119432268Y-131911364D01*
X119405367Y-131776126D01*
X119352600Y-131648734D01*
X119275994Y-131534084D01*
X119178492Y-131436582D01*
X119063842Y-131359976D01*
X118936450Y-131307209D01*
X118801212Y-131280308D01*
X118774730Y-131280308D01*
X118543423Y-131049001D01*
X123153421Y-131049001D01*
X123179201Y-131051540D01*
X123204981Y-131049001D01*
X123204989Y-131049001D01*
X123282119Y-131041404D01*
X123381082Y-131011384D01*
X123472287Y-130962634D01*
X123552228Y-130897028D01*
X123568672Y-130876992D01*
X123870665Y-130574999D01*
X123884221Y-130574999D01*
X123910001Y-130577538D01*
X123935781Y-130574999D01*
X123935789Y-130574999D01*
X124012919Y-130567402D01*
X124111882Y-130537382D01*
X124203087Y-130488632D01*
X124283028Y-130423026D01*
X124299472Y-130402989D01*
X124327433Y-130375028D01*
X124514957Y-130431913D01*
X124698595Y-130450000D01*
X124821405Y-130450000D01*
X125005043Y-130431913D01*
X125240669Y-130360437D01*
X125457823Y-130244366D01*
X125648160Y-130088160D01*
X125804366Y-129897823D01*
X125920437Y-129680669D01*
X125924928Y-129665865D01*
X125993065Y-129846300D01*
X126144264Y-130088852D01*
X126339878Y-130297246D01*
X126572389Y-130463473D01*
X126832861Y-130581146D01*
X126921090Y-130607903D01*
X127146000Y-130496889D01*
X127146000Y-129354000D01*
X127454000Y-129354000D01*
X127454000Y-130496889D01*
X127678910Y-130607903D01*
X127767139Y-130581146D01*
X128027611Y-130463473D01*
X128260122Y-130297246D01*
X128455736Y-130088852D01*
X128606935Y-129846300D01*
X128707909Y-129578911D01*
X128597850Y-129354000D01*
X127454000Y-129354000D01*
X127146000Y-129354000D01*
X127126000Y-129354000D01*
X127126000Y-129046000D01*
X127146000Y-129046000D01*
X127146000Y-129026000D01*
X127454000Y-129026000D01*
X127454000Y-129046000D01*
X128597850Y-129046000D01*
X128707909Y-128821089D01*
X128606935Y-128553700D01*
X128455736Y-128311148D01*
X128260122Y-128102754D01*
X128221301Y-128075000D01*
X128925000Y-128075000D01*
X128925000Y-131090724D01*
X128925000Y-131090724D01*
G37*
X128925000Y-131090724D02*
X128917246Y-131079878D01*
X128708852Y-130884264D01*
X128466300Y-130733065D01*
X128198911Y-130632091D01*
X127974000Y-130742150D01*
X127974000Y-131886000D01*
X127994000Y-131886000D01*
X127994000Y-132194000D01*
X127974000Y-132194000D01*
X127974000Y-134426000D01*
X127994000Y-134426000D01*
X127994000Y-134734000D01*
X127974000Y-134734000D01*
X127974000Y-134754000D01*
X127666000Y-134754000D01*
X127666000Y-134734000D01*
X127646000Y-134734000D01*
X127646000Y-134426000D01*
X127666000Y-134426000D01*
X127666000Y-132194000D01*
X127646000Y-132194000D01*
X127646000Y-131886000D01*
X127666000Y-131886000D01*
X127666000Y-130742150D01*
X127441089Y-130632091D01*
X127173700Y-130733065D01*
X126931148Y-130884264D01*
X126722754Y-131079878D01*
X126656382Y-131172717D01*
X126643726Y-131153776D01*
X126546224Y-131056274D01*
X126431574Y-130979668D01*
X126304182Y-130926901D01*
X126168944Y-130900000D01*
X126031056Y-130900000D01*
X125895818Y-130926901D01*
X125768426Y-130979668D01*
X125653776Y-131056274D01*
X125556274Y-131153776D01*
X125479668Y-131268426D01*
X125426901Y-131395818D01*
X125400000Y-131531056D01*
X125400000Y-131668944D01*
X125426901Y-131804182D01*
X125479668Y-131931574D01*
X125556274Y-132046224D01*
X125653776Y-132143726D01*
X125768426Y-132220332D01*
X125824193Y-132243431D01*
X125870999Y-132290237D01*
X125870999Y-133054577D01*
X125804182Y-133026901D01*
X125668944Y-133000000D01*
X125531056Y-133000000D01*
X125395818Y-133026901D01*
X125268426Y-133079668D01*
X125153776Y-133156274D01*
X125056274Y-133253776D01*
X124979668Y-133368426D01*
X124926901Y-133495818D01*
X124900000Y-133631056D01*
X124900000Y-133768944D01*
X124926901Y-133904182D01*
X124979668Y-134031574D01*
X125056274Y-134146224D01*
X125153776Y-134243726D01*
X125268426Y-134320332D01*
X125375000Y-134364476D01*
X125375000Y-136311150D01*
X125318944Y-136300000D01*
X125181056Y-136300000D01*
X125045818Y-136326901D01*
X124918426Y-136379668D01*
X124803776Y-136456274D01*
X124706274Y-136553776D01*
X124629668Y-136668426D01*
X124576901Y-136795818D01*
X124550000Y-136931056D01*
X124550000Y-137068944D01*
X124576901Y-137204182D01*
X124629668Y-137331574D01*
X124706274Y-137446224D01*
X124725001Y-137464951D01*
X124725001Y-137800028D01*
X124573109Y-137648136D01*
X124556665Y-137628099D01*
X124476724Y-137562493D01*
X124385519Y-137513743D01*
X124286556Y-137483723D01*
X124209426Y-137476126D01*
X124209418Y-137476126D01*
X124183638Y-137473587D01*
X124157858Y-137476126D01*
X124048595Y-137476126D01*
X124029869Y-137457400D01*
X123915219Y-137380794D01*
X123787827Y-137328027D01*
X123652589Y-137301126D01*
X123514701Y-137301126D01*
X123379463Y-137328027D01*
X123252071Y-137380794D01*
X123137421Y-137457400D01*
X123039919Y-137554902D01*
X122963313Y-137669552D01*
X122910546Y-137796944D01*
X122892030Y-137890028D01*
X122781371Y-137900927D01*
X122666763Y-137935693D01*
X122561139Y-137992150D01*
X122468559Y-138068129D01*
X122392580Y-138160709D01*
X122336123Y-138266333D01*
X122301357Y-138380941D01*
X122289618Y-138500130D01*
X122292560Y-139694000D01*
X122444560Y-139846000D01*
X123346000Y-139846000D01*
X123346000Y-139826000D01*
X123654000Y-139826000D01*
X123654000Y-139846000D01*
X123674000Y-139846000D01*
X123674000Y-140154000D01*
X123654000Y-140154000D01*
X123654000Y-140174000D01*
X123346000Y-140174000D01*
X123346000Y-140154000D01*
X122444560Y-140154000D01*
X122292560Y-140306000D01*
X122289618Y-141499870D01*
X122301357Y-141619059D01*
X122336123Y-141733667D01*
X122367299Y-141791993D01*
X122324427Y-141800521D01*
X122197035Y-141853288D01*
X122082385Y-141929894D01*
X121984883Y-142027396D01*
X121908277Y-142142046D01*
X121855510Y-142269438D01*
X121828609Y-142404676D01*
X121828609Y-142431158D01*
X120540825Y-143718943D01*
X120520794Y-143735382D01*
X120504355Y-143755413D01*
X120455187Y-143815324D01*
X120406437Y-143906529D01*
X120376417Y-144005492D01*
X120366281Y-144108409D01*
X120368821Y-144134199D01*
X120368820Y-145437390D01*
X120350094Y-145456116D01*
X120273488Y-145570766D01*
X120220721Y-145698158D01*
X120193820Y-145833396D01*
X120193820Y-145971284D01*
X120220721Y-146106522D01*
X120273488Y-146233914D01*
X120350094Y-146348564D01*
X120447596Y-146446066D01*
X120562246Y-146522672D01*
X120689638Y-146575439D01*
X120824876Y-146602340D01*
X120962764Y-146602340D01*
X121098002Y-146575439D01*
X121225394Y-146522672D01*
X121340044Y-146446066D01*
X121358770Y-146427340D01*
X121486532Y-146427340D01*
X121484106Y-146429766D01*
X121407500Y-146544416D01*
X121354733Y-146671808D01*
X121344652Y-146722488D01*
X119934978Y-146722488D01*
X119916252Y-146703762D01*
X119801602Y-146627156D01*
X119674210Y-146574389D01*
X119538972Y-146547488D01*
X119401084Y-146547488D01*
X119265846Y-146574389D01*
X119138454Y-146627156D01*
X119101059Y-146652142D01*
X119101059Y-145006046D01*
X119107105Y-145000000D01*
X119168944Y-145000000D01*
X119304182Y-144973099D01*
X119431574Y-144920332D01*
X119546224Y-144843726D01*
X119643726Y-144746224D01*
X119720332Y-144631574D01*
X119773099Y-144504182D01*
X119800000Y-144368944D01*
X119800000Y-144231056D01*
X119773099Y-144095818D01*
X119720332Y-143968426D01*
X119643726Y-143853776D01*
X119546224Y-143756274D01*
X119431574Y-143679668D01*
X119304182Y-143626901D01*
X119168944Y-143600000D01*
X119031056Y-143600000D01*
X118895818Y-143626901D01*
X118768426Y-143679668D01*
X118653776Y-143756274D01*
X118556274Y-143853776D01*
X118500000Y-143937997D01*
X118500000Y-143931056D01*
X118473099Y-143795818D01*
X118420332Y-143668426D01*
X118343726Y-143553776D01*
X118246224Y-143456274D01*
X118131574Y-143379668D01*
X118004182Y-143326901D01*
X117868944Y-143300000D01*
X117731056Y-143300000D01*
X117595818Y-143326901D01*
X117468426Y-143379668D01*
X117400000Y-143425388D01*
X117331574Y-143379668D01*
X117204182Y-143326901D01*
X117068944Y-143300000D01*
X116931056Y-143300000D01*
X116795818Y-143326901D01*
X116668426Y-143379668D01*
X116553776Y-143456274D01*
X116456274Y-143553776D01*
X116379668Y-143668426D01*
X116326901Y-143795818D01*
X116300000Y-143931056D01*
X116300000Y-144068944D01*
X116326901Y-144204182D01*
X116379668Y-144331574D01*
X116425388Y-144400000D01*
X116307046Y-144400000D01*
X116171808Y-144426901D01*
X116044416Y-144479668D01*
X115929766Y-144556274D01*
X115832264Y-144653776D01*
X115755658Y-144768426D01*
X115702891Y-144895818D01*
X115675990Y-145031056D01*
X115675990Y-145168944D01*
X115686832Y-145223450D01*
X115568944Y-145200000D01*
X115431056Y-145200000D01*
X115295818Y-145226901D01*
X115168426Y-145279668D01*
X115053776Y-145356274D01*
X114956274Y-145453776D01*
X114879668Y-145568426D01*
X114826901Y-145695818D01*
X114800000Y-145831056D01*
X114800000Y-145968944D01*
X114826901Y-146104182D01*
X114879668Y-146231574D01*
X114956274Y-146346224D01*
X115000000Y-146389950D01*
X115000000Y-148231056D01*
X114973099Y-148095818D01*
X114920332Y-147968426D01*
X114843726Y-147853776D01*
X114800000Y-147810050D01*
X114800000Y-146638027D01*
X114802418Y-146613477D01*
X114800000Y-146588927D01*
X114800000Y-146588918D01*
X114792765Y-146515461D01*
X114764175Y-146421211D01*
X114717746Y-146334349D01*
X114655264Y-146258214D01*
X114636187Y-146242558D01*
X114002560Y-145608933D01*
X114002560Y-141901805D01*
X114102000Y-141901805D01*
X114180414Y-141894082D01*
X114255814Y-141871210D01*
X114325303Y-141834067D01*
X114386211Y-141784081D01*
X114436197Y-141723173D01*
X114473340Y-141653684D01*
X114496212Y-141578284D01*
X114503935Y-141499870D01*
X114503935Y-138500130D01*
X114496212Y-138421716D01*
X114473340Y-138346316D01*
X114436197Y-138276827D01*
X114386211Y-138215919D01*
X114325303Y-138165933D01*
X114255814Y-138128790D01*
X114180414Y-138105918D01*
X114102000Y-138098195D01*
X113444266Y-138098195D01*
X114217462Y-137325000D01*
X120520312Y-137325000D01*
X120522928Y-137328188D01*
X120602869Y-137393794D01*
X120694074Y-137442544D01*
X120793037Y-137472564D01*
X120870167Y-137480161D01*
X120870175Y-137480161D01*
X120895955Y-137482700D01*
X120921735Y-137480161D01*
X121604800Y-137480161D01*
X121623526Y-137498887D01*
X121738176Y-137575493D01*
X121865568Y-137628260D01*
X122000806Y-137655161D01*
X122138694Y-137655161D01*
X122273932Y-137628260D01*
X122401324Y-137575493D01*
X122515974Y-137498887D01*
X122613476Y-137401385D01*
X122690082Y-137286735D01*
X122742849Y-137159343D01*
X122769750Y-137024105D01*
X122769750Y-136886217D01*
X122742849Y-136750979D01*
X122690082Y-136623587D01*
X122613476Y-136508937D01*
X122515974Y-136411435D01*
X122401324Y-136334829D01*
X122273932Y-136282062D01*
X122138694Y-136255161D01*
X122000806Y-136255161D01*
X121865568Y-136282062D01*
X121738176Y-136334829D01*
X121623526Y-136411435D01*
X121604800Y-136430161D01*
X121116437Y-136430161D01*
X121113821Y-136426973D01*
X121033880Y-136361367D01*
X120942675Y-136312617D01*
X120843712Y-136282597D01*
X120766582Y-136275000D01*
X120766574Y-136275000D01*
X120740794Y-136272461D01*
X120715014Y-136275000D01*
X114025779Y-136275000D01*
X113999999Y-136272461D01*
X113974219Y-136275000D01*
X113974212Y-136275000D01*
X113897082Y-136282597D01*
X113798119Y-136312617D01*
X113706914Y-136361367D01*
X113626973Y-136426973D01*
X113610534Y-136447004D01*
X113258955Y-136798583D01*
X113241924Y-136773094D01*
X113144422Y-136675592D01*
X113029772Y-136598986D01*
X112902380Y-136546219D01*
X112767142Y-136519318D01*
X112629254Y-136519318D01*
X112510418Y-136542956D01*
X111600000Y-135632539D01*
X111600000Y-135581056D01*
X111573099Y-135445818D01*
X111520332Y-135318426D01*
X111443726Y-135203776D01*
X111346224Y-135106274D01*
X111231574Y-135029668D01*
X111104182Y-134976901D01*
X110968944Y-134950000D01*
X110831056Y-134950000D01*
X110753512Y-134965425D01*
X113228994Y-132489944D01*
X113249025Y-132473505D01*
X113314631Y-132393564D01*
X113363381Y-132302359D01*
X113393401Y-132203396D01*
X113400998Y-132126266D01*
X113400998Y-132126265D01*
X113403538Y-132100478D01*
X113400998Y-132074690D01*
X113400998Y-131494021D01*
X113431056Y-131500000D01*
X113457539Y-131500000D01*
X115458314Y-133500776D01*
X115474753Y-133520807D01*
X115554694Y-133586413D01*
X115645899Y-133635163D01*
X115744862Y-133665183D01*
X115821992Y-133672780D01*
X115821999Y-133672780D01*
X115847779Y-133675319D01*
X115873559Y-133672780D01*
X117126440Y-133672780D01*
X117152220Y-133675319D01*
X117178000Y-133672780D01*
X117178008Y-133672780D01*
X117255138Y-133665183D01*
X117354101Y-133635163D01*
X117445306Y-133586413D01*
X117525247Y-133520807D01*
X117541691Y-133500770D01*
X117614821Y-133427640D01*
X119450000Y-133427640D01*
X119450000Y-133772360D01*
X119517251Y-134110456D01*
X119649170Y-134428936D01*
X119840686Y-134715560D01*
X120084440Y-134959314D01*
X120371064Y-135150830D01*
X120689544Y-135282749D01*
X121027640Y-135350000D01*
X121372360Y-135350000D01*
X121710456Y-135282749D01*
X122028936Y-135150830D01*
X122315560Y-134959314D01*
X122559314Y-134715560D01*
X122750830Y-134428936D01*
X122882749Y-134110456D01*
X122950000Y-133772360D01*
X122950000Y-133427640D01*
X122882749Y-133089544D01*
X122750830Y-132771064D01*
X122559314Y-132484440D01*
X122315560Y-132240686D01*
X122028936Y-132049170D01*
X121710456Y-131917251D01*
X121372360Y-131850000D01*
X121027640Y-131850000D01*
X120689544Y-131917251D01*
X120371064Y-132049170D01*
X120084440Y-132240686D01*
X119840686Y-132484440D01*
X119649170Y-132771064D01*
X119517251Y-133089544D01*
X119450000Y-133427640D01*
X117614821Y-133427640D01*
X118042462Y-133000000D01*
X118068944Y-133000000D01*
X118204182Y-132973099D01*
X118331574Y-132920332D01*
X118446224Y-132843726D01*
X118543726Y-132746224D01*
X118596633Y-132667042D01*
X118663324Y-132680308D01*
X118801212Y-132680308D01*
X118936450Y-132653407D01*
X119063842Y-132600640D01*
X119178492Y-132524034D01*
X119275994Y-132426532D01*
X119352600Y-132311882D01*
X119405367Y-132184490D01*
X119432268Y-132049252D01*
X119432268Y-131911364D01*
X119405367Y-131776126D01*
X119352600Y-131648734D01*
X119275994Y-131534084D01*
X119178492Y-131436582D01*
X119063842Y-131359976D01*
X118936450Y-131307209D01*
X118801212Y-131280308D01*
X118774730Y-131280308D01*
X118543423Y-131049001D01*
X123153421Y-131049001D01*
X123179201Y-131051540D01*
X123204981Y-131049001D01*
X123204989Y-131049001D01*
X123282119Y-131041404D01*
X123381082Y-131011384D01*
X123472287Y-130962634D01*
X123552228Y-130897028D01*
X123568672Y-130876992D01*
X123870665Y-130574999D01*
X123884221Y-130574999D01*
X123910001Y-130577538D01*
X123935781Y-130574999D01*
X123935789Y-130574999D01*
X124012919Y-130567402D01*
X124111882Y-130537382D01*
X124203087Y-130488632D01*
X124283028Y-130423026D01*
X124299472Y-130402989D01*
X124327433Y-130375028D01*
X124514957Y-130431913D01*
X124698595Y-130450000D01*
X124821405Y-130450000D01*
X125005043Y-130431913D01*
X125240669Y-130360437D01*
X125457823Y-130244366D01*
X125648160Y-130088160D01*
X125804366Y-129897823D01*
X125920437Y-129680669D01*
X125924928Y-129665865D01*
X125993065Y-129846300D01*
X126144264Y-130088852D01*
X126339878Y-130297246D01*
X126572389Y-130463473D01*
X126832861Y-130581146D01*
X126921090Y-130607903D01*
X127146000Y-130496889D01*
X127146000Y-129354000D01*
X127454000Y-129354000D01*
X127454000Y-130496889D01*
X127678910Y-130607903D01*
X127767139Y-130581146D01*
X128027611Y-130463473D01*
X128260122Y-130297246D01*
X128455736Y-130088852D01*
X128606935Y-129846300D01*
X128707909Y-129578911D01*
X128597850Y-129354000D01*
X127454000Y-129354000D01*
X127146000Y-129354000D01*
X127126000Y-129354000D01*
X127126000Y-129046000D01*
X127146000Y-129046000D01*
X127146000Y-129026000D01*
X127454000Y-129026000D01*
X127454000Y-129046000D01*
X128597850Y-129046000D01*
X128707909Y-128821089D01*
X128606935Y-128553700D01*
X128455736Y-128311148D01*
X128260122Y-128102754D01*
X128221301Y-128075000D01*
X128925000Y-128075000D01*
X128925000Y-131090724D01*
M02*
