G04 #@! TF.GenerationSoftware,KiCad,Pcbnew,5.1.2-f72e74a~84~ubuntu18.04.1*
G04 #@! TF.CreationDate,2019-07-21T18:26:22-06:00*
G04 #@! TF.ProjectId,rfboard,7266626f-6172-4642-9e6b-696361645f70,rev?*
G04 #@! TF.SameCoordinates,Original*
G04 #@! TF.FileFunction,Legend,Bot*
G04 #@! TF.FilePolarity,Positive*
%FSLAX46Y46*%
G04 Gerber Fmt 4.6, Leading zero omitted, Abs format (unit mm)*
G04 Created by KiCad (PCBNEW 5.1.2-f72e74a~84~ubuntu18.04.1) date 2019-07-21 18:26:22*
%MOMM*%
%LPD*%
G04 APERTURE LIST*
%ADD10C,1.500000*%
%ADD11C,0.175000*%
%ADD12C,0.250000*%
%ADD13C,0.150000*%
%ADD14C,0.203200*%
%ADD15C,2.200000*%
%ADD16C,1.808000*%
%ADD17C,3.100000*%
%ADD18R,2.100000X2.100000*%
%ADD19O,2.100000X2.100000*%
%ADD20R,1.598880X3.399740*%
G04 APERTURE END LIST*
D10*
X121540000Y-132830000D02*
G75*
G03X121540000Y-132830000I-700000J0D01*
G01*
D11*
X126566666Y-136816666D02*
X126133333Y-136816666D01*
X126366666Y-137083333D01*
X126266666Y-137083333D01*
X126200000Y-137116666D01*
X126166666Y-137150000D01*
X126133333Y-137216666D01*
X126133333Y-137383333D01*
X126166666Y-137450000D01*
X126200000Y-137483333D01*
X126266666Y-137516666D01*
X126466666Y-137516666D01*
X126533333Y-137483333D01*
X126566666Y-137450000D01*
X125933333Y-136816666D02*
X125700000Y-137516666D01*
X125466666Y-136816666D01*
X125300000Y-136816666D02*
X124866666Y-136816666D01*
X125100000Y-137083333D01*
X125000000Y-137083333D01*
X124933333Y-137116666D01*
X124900000Y-137150000D01*
X124866666Y-137216666D01*
X124866666Y-137383333D01*
X124900000Y-137450000D01*
X124933333Y-137483333D01*
X125000000Y-137516666D01*
X125200000Y-137516666D01*
X125266666Y-137483333D01*
X125300000Y-137450000D01*
X109533333Y-136816666D02*
X109866666Y-136816666D01*
X109900000Y-137150000D01*
X109866666Y-137116666D01*
X109800000Y-137083333D01*
X109633333Y-137083333D01*
X109566666Y-137116666D01*
X109533333Y-137150000D01*
X109500000Y-137216666D01*
X109500000Y-137383333D01*
X109533333Y-137450000D01*
X109566666Y-137483333D01*
X109633333Y-137516666D01*
X109800000Y-137516666D01*
X109866666Y-137483333D01*
X109900000Y-137450000D01*
X109300000Y-136816666D02*
X109066666Y-137516666D01*
X108833333Y-136816666D01*
X110633333Y-134316666D02*
X110200000Y-134316666D01*
X110433333Y-134583333D01*
X110333333Y-134583333D01*
X110266666Y-134616666D01*
X110233333Y-134650000D01*
X110200000Y-134716666D01*
X110200000Y-134883333D01*
X110233333Y-134950000D01*
X110266666Y-134983333D01*
X110333333Y-135016666D01*
X110533333Y-135016666D01*
X110600000Y-134983333D01*
X110633333Y-134950000D01*
X109966666Y-134550000D02*
X109800000Y-135016666D01*
X109633333Y-134550000D01*
X109433333Y-134316666D02*
X109000000Y-134316666D01*
X109233333Y-134583333D01*
X109133333Y-134583333D01*
X109066666Y-134616666D01*
X109033333Y-134650000D01*
X109000000Y-134716666D01*
X109000000Y-134883333D01*
X109033333Y-134950000D01*
X109066666Y-134983333D01*
X109133333Y-135016666D01*
X109333333Y-135016666D01*
X109400000Y-134983333D01*
X109433333Y-134950000D01*
X108916666Y-131750000D02*
X108983333Y-131716666D01*
X109083333Y-131716666D01*
X109183333Y-131750000D01*
X109250000Y-131816666D01*
X109283333Y-131883333D01*
X109316666Y-132016666D01*
X109316666Y-132116666D01*
X109283333Y-132250000D01*
X109250000Y-132316666D01*
X109183333Y-132383333D01*
X109083333Y-132416666D01*
X109016666Y-132416666D01*
X108916666Y-132383333D01*
X108883333Y-132350000D01*
X108883333Y-132116666D01*
X109016666Y-132116666D01*
X126116666Y-134250000D02*
X126183333Y-134216666D01*
X126283333Y-134216666D01*
X126383333Y-134250000D01*
X126450000Y-134316666D01*
X126483333Y-134383333D01*
X126516666Y-134516666D01*
X126516666Y-134616666D01*
X126483333Y-134750000D01*
X126450000Y-134816666D01*
X126383333Y-134883333D01*
X126283333Y-134916666D01*
X126216666Y-134916666D01*
X126116666Y-134883333D01*
X126083333Y-134850000D01*
X126083333Y-134616666D01*
X126216666Y-134616666D01*
X126116666Y-131650000D02*
X126183333Y-131616666D01*
X126283333Y-131616666D01*
X126383333Y-131650000D01*
X126450000Y-131716666D01*
X126483333Y-131783333D01*
X126516666Y-131916666D01*
X126516666Y-132016666D01*
X126483333Y-132150000D01*
X126450000Y-132216666D01*
X126383333Y-132283333D01*
X126283333Y-132316666D01*
X126216666Y-132316666D01*
X126116666Y-132283333D01*
X126083333Y-132250000D01*
X126083333Y-132016666D01*
X126216666Y-132016666D01*
X113916666Y-158850000D02*
X113983333Y-158816666D01*
X114083333Y-158816666D01*
X114183333Y-158850000D01*
X114250000Y-158916666D01*
X114283333Y-158983333D01*
X114316666Y-159116666D01*
X114316666Y-159216666D01*
X114283333Y-159350000D01*
X114250000Y-159416666D01*
X114183333Y-159483333D01*
X114083333Y-159516666D01*
X114016666Y-159516666D01*
X113916666Y-159483333D01*
X113883333Y-159450000D01*
X113883333Y-159216666D01*
X114016666Y-159216666D01*
X117016666Y-159450000D02*
X117050000Y-159483333D01*
X117150000Y-159516666D01*
X117216666Y-159516666D01*
X117316666Y-159483333D01*
X117383333Y-159416666D01*
X117416666Y-159350000D01*
X117450000Y-159216666D01*
X117450000Y-159116666D01*
X117416666Y-158983333D01*
X117383333Y-158916666D01*
X117316666Y-158850000D01*
X117216666Y-158816666D01*
X117150000Y-158816666D01*
X117050000Y-158850000D01*
X117016666Y-158883333D01*
X116383333Y-159516666D02*
X116716666Y-159516666D01*
X116716666Y-158816666D01*
X116150000Y-159516666D02*
X116150000Y-158816666D01*
X115750000Y-159516666D02*
X116050000Y-159116666D01*
X115750000Y-158816666D02*
X116150000Y-159216666D01*
X119466666Y-159516666D02*
X119466666Y-158816666D01*
X119000000Y-158816666D02*
X118866666Y-158816666D01*
X118800000Y-158850000D01*
X118733333Y-158916666D01*
X118700000Y-159050000D01*
X118700000Y-159283333D01*
X118733333Y-159416666D01*
X118800000Y-159483333D01*
X118866666Y-159516666D01*
X119000000Y-159516666D01*
X119066666Y-159483333D01*
X119133333Y-159416666D01*
X119166666Y-159283333D01*
X119166666Y-159050000D01*
X119133333Y-158916666D01*
X119066666Y-158850000D01*
X119000000Y-158816666D01*
X121733333Y-158816666D02*
X122066666Y-158816666D01*
X122100000Y-159150000D01*
X122066666Y-159116666D01*
X122000000Y-159083333D01*
X121833333Y-159083333D01*
X121766666Y-159116666D01*
X121733333Y-159150000D01*
X121700000Y-159216666D01*
X121700000Y-159383333D01*
X121733333Y-159450000D01*
X121766666Y-159483333D01*
X121833333Y-159516666D01*
X122000000Y-159516666D01*
X122066666Y-159483333D01*
X122100000Y-159450000D01*
X121500000Y-158816666D02*
X121266666Y-159516666D01*
X121033333Y-158816666D01*
X122333333Y-130316666D02*
X122666666Y-130316666D01*
X122700000Y-130650000D01*
X122666666Y-130616666D01*
X122600000Y-130583333D01*
X122433333Y-130583333D01*
X122366666Y-130616666D01*
X122333333Y-130650000D01*
X122300000Y-130716666D01*
X122300000Y-130883333D01*
X122333333Y-130950000D01*
X122366666Y-130983333D01*
X122433333Y-131016666D01*
X122600000Y-131016666D01*
X122666666Y-130983333D01*
X122700000Y-130950000D01*
X122100000Y-130316666D02*
X121866666Y-131016666D01*
X121633333Y-130316666D01*
X125250000Y-131016666D02*
X125583333Y-131016666D01*
X125583333Y-130316666D01*
X125016666Y-130650000D02*
X124783333Y-130650000D01*
X124683333Y-131016666D02*
X125016666Y-131016666D01*
X125016666Y-130316666D01*
X124683333Y-130316666D01*
X124383333Y-131016666D02*
X124383333Y-130316666D01*
X124216666Y-130316666D01*
X124116666Y-130350000D01*
X124050000Y-130416666D01*
X124016666Y-130483333D01*
X123983333Y-130616666D01*
X123983333Y-130716666D01*
X124016666Y-130850000D01*
X124050000Y-130916666D01*
X124116666Y-130983333D01*
X124216666Y-131016666D01*
X124383333Y-131016666D01*
X126616666Y-130350000D02*
X126683333Y-130316666D01*
X126783333Y-130316666D01*
X126883333Y-130350000D01*
X126950000Y-130416666D01*
X126983333Y-130483333D01*
X127016666Y-130616666D01*
X127016666Y-130716666D01*
X126983333Y-130850000D01*
X126950000Y-130916666D01*
X126883333Y-130983333D01*
X126783333Y-131016666D01*
X126716666Y-131016666D01*
X126616666Y-130983333D01*
X126583333Y-130950000D01*
X126583333Y-130716666D01*
X126716666Y-130716666D01*
D12*
X123628571Y-137952380D02*
X123628571Y-137285714D01*
X123628571Y-137476190D02*
X123580952Y-137380952D01*
X123533333Y-137333333D01*
X123438095Y-137285714D01*
X123342857Y-137285714D01*
X123152380Y-137285714D02*
X122771428Y-137285714D01*
X123009523Y-137952380D02*
X123009523Y-137095238D01*
X122961904Y-137000000D01*
X122866666Y-136952380D01*
X122771428Y-136952380D01*
X122438095Y-137952380D02*
X122438095Y-136952380D01*
X122438095Y-137333333D02*
X122342857Y-137285714D01*
X122152380Y-137285714D01*
X122057142Y-137333333D01*
X122009523Y-137380952D01*
X121961904Y-137476190D01*
X121961904Y-137761904D01*
X122009523Y-137857142D01*
X122057142Y-137904761D01*
X122152380Y-137952380D01*
X122342857Y-137952380D01*
X122438095Y-137904761D01*
X121390476Y-137952380D02*
X121485714Y-137904761D01*
X121533333Y-137857142D01*
X121580952Y-137761904D01*
X121580952Y-137476190D01*
X121533333Y-137380952D01*
X121485714Y-137333333D01*
X121390476Y-137285714D01*
X121247619Y-137285714D01*
X121152380Y-137333333D01*
X121104761Y-137380952D01*
X121057142Y-137476190D01*
X121057142Y-137761904D01*
X121104761Y-137857142D01*
X121152380Y-137904761D01*
X121247619Y-137952380D01*
X121390476Y-137952380D01*
X120200000Y-137952380D02*
X120200000Y-137428571D01*
X120247619Y-137333333D01*
X120342857Y-137285714D01*
X120533333Y-137285714D01*
X120628571Y-137333333D01*
X120200000Y-137904761D02*
X120295238Y-137952380D01*
X120533333Y-137952380D01*
X120628571Y-137904761D01*
X120676190Y-137809523D01*
X120676190Y-137714285D01*
X120628571Y-137619047D01*
X120533333Y-137571428D01*
X120295238Y-137571428D01*
X120200000Y-137523809D01*
X119723809Y-137952380D02*
X119723809Y-137285714D01*
X119723809Y-137476190D02*
X119676190Y-137380952D01*
X119628571Y-137333333D01*
X119533333Y-137285714D01*
X119438095Y-137285714D01*
X118676190Y-137952380D02*
X118676190Y-136952380D01*
X118676190Y-137904761D02*
X118771428Y-137952380D01*
X118961904Y-137952380D01*
X119057142Y-137904761D01*
X119104761Y-137857142D01*
X119152380Y-137761904D01*
X119152380Y-137476190D01*
X119104761Y-137380952D01*
X119057142Y-137333333D01*
X118961904Y-137285714D01*
X118771428Y-137285714D01*
X118676190Y-137333333D01*
X117533333Y-137285714D02*
X117295238Y-137952380D01*
X117057142Y-137285714D01*
X116152380Y-137952380D02*
X116723809Y-137952380D01*
X116438095Y-137952380D02*
X116438095Y-136952380D01*
X116533333Y-137095238D01*
X116628571Y-137190476D01*
X116723809Y-137238095D01*
X115723809Y-137857142D02*
X115676190Y-137904761D01*
X115723809Y-137952380D01*
X115771428Y-137904761D01*
X115723809Y-137857142D01*
X115723809Y-137952380D01*
X114771428Y-136952380D02*
X115247619Y-136952380D01*
X115295238Y-137428571D01*
X115247619Y-137380952D01*
X115152380Y-137333333D01*
X114914285Y-137333333D01*
X114819047Y-137380952D01*
X114771428Y-137428571D01*
X114723809Y-137523809D01*
X114723809Y-137761904D01*
X114771428Y-137857142D01*
X114819047Y-137904761D01*
X114914285Y-137952380D01*
X115152380Y-137952380D01*
X115247619Y-137904761D01*
X115295238Y-137857142D01*
D13*
X124250520Y-155498080D02*
X125500520Y-155498080D01*
X122250520Y-155498080D02*
X122750520Y-155498080D01*
X120250520Y-155498080D02*
X120750520Y-155498080D01*
X118250520Y-155498080D02*
X118750520Y-155498080D01*
X116250520Y-155498080D02*
X116750520Y-155498080D01*
X114250520Y-155498080D02*
X114750520Y-155498080D01*
X112250520Y-155498080D02*
X112750520Y-155498080D01*
X109500520Y-155498080D02*
X110750520Y-155498080D01*
X110750520Y-139498080D02*
X109500520Y-139498080D01*
X112750520Y-139498080D02*
X112250520Y-139498080D01*
X114750520Y-139498080D02*
X114250520Y-139498080D01*
X116750520Y-139498080D02*
X116250520Y-139498080D01*
X118750520Y-139498080D02*
X118250520Y-139498080D01*
X120750520Y-139498080D02*
X120250520Y-139498080D01*
X122750520Y-139498080D02*
X122250520Y-139498080D01*
X125500520Y-139498080D02*
X124250520Y-139498080D01*
D14*
X125498980Y-155496540D02*
X125498980Y-139499620D01*
X109502060Y-139499620D02*
X109502060Y-155496540D01*
X119499500Y-147496040D02*
X115501540Y-147496040D01*
X115501540Y-147496040D02*
X115501540Y-143498080D01*
X115501540Y-143498080D02*
X119499500Y-143498080D01*
X119499500Y-143498080D02*
X119499500Y-147496040D01*
X116002680Y-152249100D02*
X117999120Y-152249100D01*
X117999120Y-150250120D02*
X117999120Y-152249100D01*
X116002680Y-150250120D02*
X117999120Y-150250120D01*
X116002680Y-150250120D02*
X116002680Y-152249100D01*
D13*
X123667186Y-150605222D02*
X123667186Y-151081413D01*
X123952900Y-150509984D02*
X122952900Y-150843318D01*
X123952900Y-151176651D01*
X123952900Y-151509984D02*
X122952900Y-151509984D01*
X123952900Y-152081413D01*
X122952900Y-152081413D01*
X122952900Y-152414746D02*
X122952900Y-152986175D01*
X123952900Y-152700460D02*
X122952900Y-152700460D01*
X123000520Y-142486175D02*
X122952900Y-142390937D01*
X122952900Y-142248080D01*
X123000520Y-142105222D01*
X123095758Y-142009984D01*
X123190996Y-141962365D01*
X123381472Y-141914746D01*
X123524329Y-141914746D01*
X123714805Y-141962365D01*
X123810043Y-142009984D01*
X123905281Y-142105222D01*
X123952900Y-142248080D01*
X123952900Y-142343318D01*
X123905281Y-142486175D01*
X123857662Y-142533794D01*
X123524329Y-142533794D01*
X123524329Y-142343318D01*
X123952900Y-142962365D02*
X122952900Y-142962365D01*
X123952900Y-143533794D01*
X122952900Y-143533794D01*
X123952900Y-144009984D02*
X122952900Y-144009984D01*
X122952900Y-144248080D01*
X123000520Y-144390937D01*
X123095758Y-144486175D01*
X123190996Y-144533794D01*
X123381472Y-144581413D01*
X123524329Y-144581413D01*
X123714805Y-144533794D01*
X123810043Y-144486175D01*
X123905281Y-144390937D01*
X123952900Y-144248080D01*
X123952900Y-144009984D01*
%LPC*%
D15*
X110500000Y-129300000D03*
X117500000Y-129300000D03*
D16*
X111500000Y-132000000D03*
X116500000Y-132000000D03*
D17*
X109200000Y-159500000D03*
X126500000Y-159500000D03*
D18*
X107500000Y-154900000D03*
D19*
X107500000Y-152360000D03*
X107500000Y-149820000D03*
X107500000Y-147280000D03*
X107500000Y-144740000D03*
X107500000Y-142200000D03*
X107500000Y-139660000D03*
X107500000Y-137120000D03*
X107500000Y-134580000D03*
X107500000Y-132040000D03*
D18*
X127820000Y-154900000D03*
D19*
X127820000Y-152360000D03*
X127820000Y-149820000D03*
X127820000Y-147280000D03*
X127820000Y-144740000D03*
X127820000Y-142200000D03*
X127820000Y-139660000D03*
X127820000Y-137120000D03*
X127820000Y-134580000D03*
X127820000Y-132040000D03*
D18*
X122220000Y-129200000D03*
D19*
X124760000Y-129200000D03*
X127300000Y-129200000D03*
D18*
X121680000Y-160900000D03*
D19*
X119140000Y-160900000D03*
X116600000Y-160900000D03*
X114060000Y-160900000D03*
D18*
X125250000Y-156700000D03*
D20*
X123500000Y-154996160D03*
X121498480Y-154996160D03*
X119499500Y-154996160D03*
X115501540Y-154996160D03*
X113502560Y-154996160D03*
X111501040Y-154996160D03*
X111501040Y-140000000D03*
X113502560Y-140000000D03*
X123500000Y-140000000D03*
D15*
X119200000Y-135400000D03*
X116660000Y-135400000D03*
X121740000Y-135400000D03*
M02*
