G04 #@! TF.FileFunction,Copper,L1,Top,Signal*
%FSLAX46Y46*%
G04 Gerber Fmt 4.6, Leading zero omitted, Abs format (unit mm)*
G04 Created by KiCad (PCBNEW 4.0.7-e2-6376~61~ubuntu18.04.1) date Sun Jul  8 15:07:32 2018*
%MOMM*%
%LPD*%
G01*
G04 APERTURE LIST*
%ADD10C,0.100000*%
%ADD11R,1.651000X0.998220*%
%ADD12R,0.800000X0.800000*%
%ADD13R,0.450000X1.350000*%
%ADD14C,1.408000*%
%ADD15C,1.800000*%
%ADD16R,1.500000X1.550000*%
%ADD17R,0.558800X1.270000*%
%ADD18R,1.270000X0.558800*%
%ADD19R,0.600000X1.140000*%
%ADD20C,2.700000*%
%ADD21R,0.750000X0.800000*%
%ADD22R,1.250000X1.000000*%
%ADD23R,1.700000X1.700000*%
%ADD24O,1.700000X1.700000*%
%ADD25R,0.500000X0.900000*%
%ADD26R,0.400000X0.650000*%
%ADD27R,0.899160X0.998220*%
%ADD28C,0.600000*%
%ADD29C,1.000000*%
%ADD30C,0.250000*%
%ADD31C,0.200000*%
%ADD32C,0.750000*%
%ADD33C,1.000000*%
%ADD34C,0.500000*%
G04 APERTURE END LIST*
D10*
D11*
X110424440Y-137600000D03*
X110424440Y-140795320D03*
X115575560Y-140795320D03*
X115575560Y-137600000D03*
D12*
X125200000Y-147000000D03*
X123600000Y-147000000D03*
D13*
X115300000Y-131975000D03*
X114650000Y-131975000D03*
X114000000Y-131975000D03*
X113350000Y-131975000D03*
X112700000Y-131975000D03*
D14*
X116500000Y-132000000D03*
X111500000Y-132000000D03*
D15*
X117500000Y-129300000D03*
X110500000Y-129300000D03*
D16*
X115000000Y-129300000D03*
X113000000Y-129300000D03*
X117050000Y-129300000D03*
X110950000Y-129300000D03*
D17*
X119400300Y-142808620D03*
X118600200Y-142808620D03*
X117800100Y-142808620D03*
X117000000Y-142808620D03*
X116202440Y-142808620D03*
X115402340Y-142808620D03*
X114602240Y-142808620D03*
X113802140Y-142808620D03*
D18*
X112308620Y-144302140D03*
X112308620Y-145102240D03*
X112308620Y-145902340D03*
X112308620Y-146702440D03*
X112308620Y-147500000D03*
X112308620Y-148300100D03*
X112308620Y-149100200D03*
X112308620Y-149900300D03*
D17*
X113802140Y-151393820D03*
X114602240Y-151393820D03*
X115402340Y-151393820D03*
X116202440Y-151393820D03*
X117000000Y-151393820D03*
X117800100Y-151393820D03*
X118600200Y-151393820D03*
X119400300Y-151393820D03*
D18*
X120893820Y-149900300D03*
X120893820Y-149100200D03*
X120893820Y-148300100D03*
X120893820Y-147500000D03*
X120893820Y-146702440D03*
X120893820Y-145902340D03*
X120893820Y-145102240D03*
X120893820Y-144302140D03*
D19*
X119650000Y-137760000D03*
X118700000Y-137760000D03*
X117750000Y-137760000D03*
X117750000Y-140040000D03*
X119650000Y-140040000D03*
D20*
X109200000Y-159500000D03*
X126500000Y-159500000D03*
X121200000Y-133600000D03*
D21*
X110900000Y-134150000D03*
X110900000Y-135650000D03*
X112300000Y-134150000D03*
X112300000Y-135650000D03*
D22*
X113900000Y-135900000D03*
X113900000Y-133900000D03*
D23*
X107500000Y-154900000D03*
D24*
X107500000Y-152360000D03*
X107500000Y-149820000D03*
X107500000Y-147280000D03*
X107500000Y-144740000D03*
X107500000Y-142200000D03*
X107500000Y-139660000D03*
X107500000Y-137120000D03*
X107500000Y-134580000D03*
X107500000Y-132040000D03*
D23*
X127820000Y-154900000D03*
D24*
X127820000Y-152360000D03*
X127820000Y-149820000D03*
X127820000Y-147280000D03*
X127820000Y-144740000D03*
X127820000Y-142200000D03*
X127820000Y-139660000D03*
X127820000Y-137120000D03*
X127820000Y-134580000D03*
X127820000Y-132040000D03*
D23*
X122220000Y-129200000D03*
D24*
X124760000Y-129200000D03*
X127300000Y-129200000D03*
D23*
X121680000Y-160900000D03*
D24*
X119140000Y-160900000D03*
X116600000Y-160900000D03*
X114060000Y-160900000D03*
D23*
X124100000Y-151000000D03*
D25*
X125200000Y-148400000D03*
X123700000Y-148400000D03*
D26*
X122750000Y-137550000D03*
X121450000Y-137550000D03*
X122100000Y-137550000D03*
X121450000Y-139450000D03*
X122750000Y-139450000D03*
D27*
X113250220Y-157997560D03*
X117349780Y-157997560D03*
X117349780Y-156402440D03*
X113250220Y-156402440D03*
D28*
X125047835Y-140000000D03*
X125059481Y-136976997D03*
X112698198Y-137219318D03*
X122442903Y-142473629D03*
X110900000Y-135650000D03*
X120893820Y-145902340D03*
X116500000Y-140800000D03*
X120824274Y-137765965D03*
X124273021Y-147000000D03*
X120500000Y-158900000D03*
X123700000Y-157500000D03*
X110500000Y-145100000D03*
X122799002Y-137550000D03*
X118700000Y-137760000D03*
X119300000Y-148300000D03*
D29*
X113900000Y-133900000D03*
D28*
X123583645Y-138001126D03*
X126100000Y-131600000D03*
X110200000Y-139600000D03*
X118732268Y-131980308D03*
X125600000Y-152300000D03*
X114800000Y-130600000D03*
X125600000Y-133700000D03*
X113500000Y-130800000D03*
X118000000Y-132300000D03*
X123500000Y-142400000D03*
X122200000Y-151800000D03*
X119100000Y-144300000D03*
X116375990Y-145100000D03*
X122085633Y-138144839D03*
X112600000Y-142700000D03*
X115500000Y-145900000D03*
X113500000Y-146700000D03*
X111291520Y-147457063D03*
X111446754Y-148240850D03*
X114300000Y-148300000D03*
X117800000Y-150100000D03*
X117800000Y-144000000D03*
X122027832Y-146875990D03*
X119470028Y-147247488D03*
X117300000Y-147400000D03*
X117000000Y-144000000D03*
X120893820Y-149100200D03*
X120500000Y-157200000D03*
D30*
X115337069Y-139170999D02*
X115362069Y-139145999D01*
X115362069Y-139145999D02*
X118255999Y-139145999D01*
X118255999Y-139145999D02*
X119150000Y-140040000D01*
X125483745Y-136976997D02*
X125059481Y-136976997D01*
X119650000Y-140310000D02*
X124737835Y-140310000D01*
X124747836Y-140299999D02*
X125047835Y-140000000D01*
X124737835Y-140310000D02*
X124747836Y-140299999D01*
X127676997Y-136976997D02*
X125483745Y-136976997D01*
X127800000Y-137100000D02*
X127676997Y-136976997D01*
X112998197Y-137519317D02*
X112698198Y-137219318D01*
X114395999Y-138917119D02*
X112998197Y-137519317D01*
X114395999Y-139170999D02*
X114395999Y-138917119D01*
D31*
X112308620Y-143822740D02*
X112308620Y-144302140D01*
X111473620Y-142987740D02*
X112308620Y-143822740D01*
X111473620Y-142389806D02*
X111473620Y-142987740D01*
X114692427Y-139170999D02*
X111473620Y-142389806D01*
X115337069Y-139170999D02*
X114692427Y-139170999D01*
D30*
X119650000Y-140040000D02*
X119650000Y-140310000D01*
X122442903Y-141860419D02*
X122442903Y-142473629D01*
X119650000Y-140310000D02*
X120892484Y-140310000D01*
X120892484Y-140310000D02*
X122442903Y-141860419D01*
X110900000Y-135650000D02*
X108570000Y-135650000D01*
X108570000Y-135650000D02*
X107500000Y-134580000D01*
X110900000Y-135675000D02*
X110900000Y-135650000D01*
D31*
X115337069Y-139170999D02*
X114395999Y-139170999D01*
D30*
X119650000Y-140040000D02*
X119150000Y-140040000D01*
D31*
X127800000Y-137100000D02*
X127820000Y-137120000D01*
D32*
X107780000Y-134860000D02*
X107500000Y-134580000D01*
D30*
X115575560Y-140795320D02*
X116495320Y-140795320D01*
X116495320Y-140795320D02*
X116500000Y-140800000D01*
D33*
X113250220Y-157997560D02*
X113949800Y-157997560D01*
X113949800Y-157997560D02*
X117349780Y-157997560D01*
D30*
X123600000Y-147000000D02*
X122950000Y-147000000D01*
X122950000Y-147000000D02*
X122450000Y-147500000D01*
X122450000Y-147500000D02*
X121778820Y-147500000D01*
X121778820Y-147500000D02*
X120893820Y-147500000D01*
D34*
X121450000Y-137550000D02*
X121450000Y-137564503D01*
X121450000Y-137564503D02*
X121248538Y-137765965D01*
X121248538Y-137765965D02*
X120824274Y-137765965D01*
D30*
X123600000Y-147000000D02*
X124273021Y-147000000D01*
D31*
X122750000Y-137025000D02*
X122750000Y-137550000D01*
X122650999Y-136925999D02*
X122750000Y-137025000D01*
X121549001Y-136925999D02*
X122650999Y-136925999D01*
X121450000Y-137025000D02*
X121549001Y-136925999D01*
X121450000Y-137550000D02*
X121450000Y-137025000D01*
D34*
X113250220Y-157997560D02*
X113250220Y-160090220D01*
X113250220Y-160090220D02*
X114060000Y-160900000D01*
D33*
X120500000Y-158900000D02*
X122300000Y-158900000D01*
X119597560Y-157997560D02*
X120500000Y-158900000D01*
X117349780Y-157997560D02*
X119597560Y-157997560D01*
X122300000Y-158900000D02*
X123700000Y-157500000D01*
D30*
X112308620Y-145102240D02*
X110502240Y-145102240D01*
X110502240Y-145102240D02*
X110500000Y-145100000D01*
D34*
X122750000Y-137550000D02*
X122799002Y-137550000D01*
X108840000Y-130700000D02*
X111875000Y-130700000D01*
X111875000Y-130700000D02*
X112075000Y-130900000D01*
X107500000Y-132040000D02*
X108840000Y-130700000D01*
D30*
X112700000Y-131975000D02*
X112700000Y-131525000D01*
X112700000Y-131525000D02*
X112075000Y-130900000D01*
X120893820Y-147500000D02*
X120100000Y-147500000D01*
X120100000Y-147500000D02*
X119300000Y-148300000D01*
D32*
X112300000Y-134150000D02*
X110900000Y-134150000D01*
X113900000Y-133900000D02*
X112550000Y-133900000D01*
X112550000Y-133900000D02*
X112300000Y-134150000D01*
D30*
X112700000Y-131975000D02*
X112700000Y-133750000D01*
X112700000Y-133750000D02*
X112300000Y-134150000D01*
X107710000Y-132250000D02*
X107500000Y-132040000D01*
D33*
X107500000Y-137120000D02*
X107500000Y-139660000D01*
D30*
X119894785Y-137760000D02*
X119650000Y-137760000D01*
X122750000Y-139450000D02*
X122750000Y-138834771D01*
X123283646Y-138301125D02*
X123583645Y-138001126D01*
X122193840Y-138768840D02*
X120903625Y-138768840D01*
X122750000Y-138834771D02*
X123283646Y-138301125D01*
X120903625Y-138768840D02*
X119894785Y-137760000D01*
X122750000Y-139450000D02*
X122750000Y-139325000D01*
X122750000Y-139325000D02*
X122193840Y-138768840D01*
X115300000Y-131975000D02*
X115300000Y-131623522D01*
X116123522Y-130800000D02*
X118000000Y-130800000D01*
X115300000Y-131623522D02*
X116123522Y-130800000D01*
D34*
X122220000Y-129200000D02*
X122220000Y-130550000D01*
X122220000Y-130550000D02*
X123270000Y-131600000D01*
X123270000Y-131600000D02*
X126100000Y-131600000D01*
X110424440Y-137600000D02*
X107980000Y-137600000D01*
X107980000Y-137600000D02*
X107500000Y-137120000D01*
X112300000Y-135650000D02*
X112300000Y-135724440D01*
X112300000Y-135724440D02*
X110424440Y-137600000D01*
D30*
X117750000Y-137760000D02*
X117750000Y-137256798D01*
X117750000Y-137256798D02*
X118140799Y-136865999D01*
X118140799Y-136865999D02*
X119575999Y-136865999D01*
X119575999Y-136865999D02*
X119650000Y-136940000D01*
X119650000Y-136940000D02*
X119650000Y-137760000D01*
X115300000Y-134625000D02*
X115300000Y-135040000D01*
X115300000Y-135040000D02*
X117750000Y-137490000D01*
X117750000Y-137490000D02*
X117750000Y-137760000D01*
D32*
X122220000Y-129200000D02*
X120620000Y-129200000D01*
D30*
X118000000Y-130800000D02*
X118400000Y-130800000D01*
D32*
X120620000Y-129200000D02*
X119020000Y-130800000D01*
X119020000Y-130800000D02*
X118000000Y-130800000D01*
X113900000Y-135900000D02*
X112550000Y-135900000D01*
X112550000Y-135900000D02*
X112300000Y-135650000D01*
X115300000Y-133200000D02*
X115300000Y-134625000D01*
X115300000Y-134625000D02*
X114025000Y-135900000D01*
X114025000Y-135900000D02*
X113900000Y-135900000D01*
D30*
X115300000Y-131975000D02*
X115300000Y-133200000D01*
X110424440Y-140795320D02*
X110424440Y-139824440D01*
X110424440Y-139824440D02*
X110200000Y-139600000D01*
D31*
X120985143Y-139450000D02*
X120164144Y-138629001D01*
X121450000Y-139450000D02*
X120985143Y-139450000D01*
X120164144Y-138629001D02*
X116930951Y-138629001D01*
X115901950Y-137600000D02*
X115575560Y-137600000D01*
X116930951Y-138629001D02*
X115901950Y-137600000D01*
D30*
X125200000Y-148400000D02*
X125200000Y-147000000D01*
X119032267Y-131680309D02*
X118732268Y-131980308D01*
X121757831Y-131680309D02*
X119032267Y-131680309D01*
X125600000Y-133700000D02*
X123777522Y-133700000D01*
X123777522Y-133700000D02*
X121757831Y-131680309D01*
X121729297Y-152352821D02*
X121976475Y-152599999D01*
X118600200Y-152278820D02*
X118674201Y-152352821D01*
X118600200Y-151393820D02*
X118600200Y-152278820D01*
X118674201Y-152352821D02*
X121729297Y-152352821D01*
X125300001Y-152599999D02*
X125600000Y-152300000D01*
X121976475Y-152599999D02*
X125300001Y-152599999D01*
X114800000Y-130600000D02*
X114650000Y-130750000D01*
X114650000Y-130750000D02*
X114650000Y-131975000D01*
X113500000Y-130800000D02*
X113924264Y-130800000D01*
X113924264Y-130800000D02*
X114000000Y-130875736D01*
X114000000Y-130875736D02*
X114000000Y-131050000D01*
X114000000Y-131050000D02*
X114000000Y-131975000D01*
X125671836Y-138871836D02*
X122074001Y-135274001D01*
X122074001Y-135274001D02*
X120396479Y-135274001D01*
X120396479Y-135274001D02*
X118000000Y-132877522D01*
X118000000Y-132877522D02*
X118000000Y-132300000D01*
X125671836Y-140652428D02*
X125671836Y-138871836D01*
X123500000Y-142400000D02*
X123924264Y-142400000D01*
X123924264Y-142400000D02*
X125671836Y-140652428D01*
X121793820Y-151393820D02*
X122200000Y-151800000D01*
X119400300Y-151393820D02*
X121793820Y-151393820D01*
X114100000Y-132075000D02*
X114100000Y-131600000D01*
D31*
X119102140Y-144302140D02*
X119100000Y-144300000D01*
X120893820Y-144302140D02*
X119102140Y-144302140D01*
X120893820Y-145102240D02*
X116378230Y-145102240D01*
X116378230Y-145102240D02*
X116375990Y-145100000D01*
D30*
X122100000Y-138130472D02*
X122085633Y-138144839D01*
X122100000Y-137550000D02*
X122100000Y-138130472D01*
X113802140Y-142808620D02*
X112708620Y-142808620D01*
X112708620Y-142808620D02*
X112600000Y-142700000D01*
X123700000Y-148600000D02*
X123700000Y-148400000D01*
X123200000Y-149100000D02*
X123700000Y-148600000D01*
X123000000Y-149100000D02*
X123200000Y-149100000D01*
X122199700Y-149900300D02*
X123000000Y-149100000D01*
X120893820Y-149900300D02*
X122199700Y-149900300D01*
D31*
X112308620Y-145902340D02*
X115497660Y-145902340D01*
X115497660Y-145902340D02*
X115500000Y-145900000D01*
X112308620Y-146702440D02*
X113497560Y-146702440D01*
X113497560Y-146702440D02*
X113500000Y-146700000D01*
X111334457Y-147500000D02*
X111291520Y-147457063D01*
X112308620Y-147500000D02*
X111334457Y-147500000D01*
X111446754Y-148273234D02*
X111446754Y-148240850D01*
X112308620Y-148300100D02*
X111473620Y-148300100D01*
X111473620Y-148300100D02*
X111446754Y-148273234D01*
X114899002Y-148899002D02*
X119687522Y-148899002D01*
X120286424Y-148300100D02*
X120893820Y-148300100D01*
X119687522Y-148899002D02*
X120286424Y-148300100D01*
X114300000Y-148300000D02*
X114899002Y-148899002D01*
D30*
X116202440Y-151393820D02*
X116202440Y-152278820D01*
X116202440Y-152278820D02*
X113581260Y-154900000D01*
X113581260Y-154900000D02*
X108600000Y-154900000D01*
X108600000Y-154900000D02*
X107500000Y-154900000D01*
X115402340Y-151393820D02*
X115402340Y-152278820D01*
X115402340Y-152278820D02*
X114471161Y-153209999D01*
X114471161Y-153209999D02*
X108349999Y-153209999D01*
X108349999Y-153209999D02*
X107500000Y-152360000D01*
X108349999Y-150669999D02*
X107500000Y-149820000D01*
X110032821Y-152352821D02*
X108349999Y-150669999D01*
X114602240Y-152278820D02*
X114528239Y-152352821D01*
X114528239Y-152352821D02*
X110032821Y-152352821D01*
X114602240Y-151393820D02*
X114602240Y-152278820D01*
X113802140Y-151393820D02*
X111613820Y-151393820D01*
X111613820Y-151393820D02*
X107500000Y-147280000D01*
X112308620Y-149900300D02*
X111423620Y-149900300D01*
X108674001Y-147150681D02*
X108674001Y-145914001D01*
X108674001Y-145914001D02*
X108349999Y-145589999D01*
X108349999Y-145589999D02*
X107500000Y-144740000D01*
X111423620Y-149900300D02*
X108674001Y-147150681D01*
X108349999Y-143049999D02*
X107500000Y-142200000D01*
X109123012Y-143823012D02*
X108349999Y-143049999D01*
X109123012Y-146799592D02*
X109123012Y-143823012D01*
X111423620Y-149100200D02*
X109123012Y-146799592D01*
X112308620Y-149100200D02*
X111423620Y-149100200D01*
X117000000Y-151393820D02*
X117000000Y-152278820D01*
X126720000Y-154900000D02*
X127820000Y-154900000D01*
X117000000Y-152278820D02*
X119621180Y-154900000D01*
X119621180Y-154900000D02*
X126720000Y-154900000D01*
X119021280Y-153500000D02*
X126680000Y-153500000D01*
X126680000Y-153500000D02*
X127820000Y-152360000D01*
X117800100Y-151393820D02*
X117800100Y-152278820D01*
X117800100Y-152278820D02*
X119021280Y-153500000D01*
D31*
X127556480Y-151756480D02*
X128100000Y-152300000D01*
D30*
X120095918Y-150600000D02*
X122216798Y-150600000D01*
X122996798Y-149820000D02*
X126617919Y-149820000D01*
X126617919Y-149820000D02*
X127820000Y-149820000D01*
X117800000Y-150100000D02*
X119595918Y-150100000D01*
X119595918Y-150100000D02*
X120095918Y-150600000D01*
X122216798Y-150600000D02*
X122996798Y-149820000D01*
X117800100Y-142808620D02*
X117800100Y-143999900D01*
X117800100Y-143999900D02*
X117800000Y-144000000D01*
X122627823Y-146275999D02*
X122327831Y-146575991D01*
X126815999Y-146275999D02*
X122627823Y-146275999D01*
X127820000Y-147280000D02*
X126815999Y-146275999D01*
X122327831Y-146575991D02*
X122027832Y-146875990D01*
X117300000Y-147400000D02*
X119317516Y-147400000D01*
X119317516Y-147400000D02*
X119470028Y-147247488D01*
X117000000Y-142808620D02*
X117000000Y-144000000D01*
X120149619Y-141849619D02*
X123040000Y-144740000D01*
X123040000Y-144740000D02*
X127820000Y-144740000D01*
X116202440Y-142808620D02*
X116202440Y-141923620D01*
X116202440Y-141923620D02*
X116276441Y-141849619D01*
X116276441Y-141849619D02*
X120149619Y-141849619D01*
X126970001Y-143049999D02*
X127820000Y-142200000D01*
X114722047Y-141849619D02*
X114426059Y-141553631D01*
X126922370Y-143097630D02*
X126970001Y-143049999D01*
X120335605Y-141400608D02*
X122032626Y-143097630D01*
X117735604Y-141400608D02*
X120335605Y-141400608D01*
X117124002Y-140789006D02*
X117735604Y-141400608D01*
X117124002Y-140500478D02*
X117124002Y-140789006D01*
X116499522Y-139875998D02*
X117124002Y-140500478D01*
X114587070Y-139875998D02*
X116499522Y-139875998D01*
X114426059Y-140037009D02*
X114587070Y-139875998D01*
X122032626Y-143097630D02*
X126922370Y-143097630D01*
X114426059Y-141553631D02*
X114426059Y-140037009D01*
X115476341Y-141849619D02*
X114722047Y-141849619D01*
X115402340Y-141923620D02*
X115476341Y-141849619D01*
X115402340Y-142808620D02*
X115402340Y-141923620D01*
X115476341Y-141849619D02*
X115402340Y-142808620D01*
X117349780Y-156402440D02*
X116650200Y-156402440D01*
X116650200Y-156402440D02*
X113250220Y-156402440D01*
X117349780Y-156402440D02*
X119702440Y-156402440D01*
X119702440Y-156402440D02*
X120500000Y-157200000D01*
M02*
