G04 #@! TF.GenerationSoftware,KiCad,Pcbnew,5.1.2-f72e74a~84~ubuntu18.04.1*
G04 #@! TF.CreationDate,2019-05-09T21:42:28-06:00*
G04 #@! TF.ProjectId,rfboard,7266626f-6172-4642-9e6b-696361645f70,rev?*
G04 #@! TF.SameCoordinates,Original*
G04 #@! TF.FileFunction,Soldermask,Top*
G04 #@! TF.FilePolarity,Negative*
%FSLAX46Y46*%
G04 Gerber Fmt 4.6, Leading zero omitted, Abs format (unit mm)*
G04 Created by KiCad (PCBNEW 5.1.2-f72e74a~84~ubuntu18.04.1) date 2019-05-09 21:42:28*
%MOMM*%
%LPD*%
G04 APERTURE LIST*
%ADD10R,2.051000X1.398220*%
%ADD11R,1.200000X1.200000*%
%ADD12R,0.850000X1.750000*%
%ADD13C,1.808000*%
%ADD14C,2.200000*%
%ADD15R,1.900000X1.950000*%
%ADD16R,0.762000X1.473200*%
%ADD17R,1.473200X0.762000*%
%ADD18R,1.000000X1.540000*%
%ADD19C,3.100000*%
%ADD20R,1.150000X1.200000*%
%ADD21R,1.650000X1.400000*%
%ADD22R,2.100000X2.100000*%
%ADD23O,2.100000X2.100000*%
%ADD24R,0.900000X1.300000*%
%ADD25R,0.800000X1.050000*%
%ADD26R,1.201420X1.102360*%
%ADD27R,1.300000X0.900000*%
%ADD28C,0.100000*%
%ADD29C,1.275000*%
G04 APERTURE END LIST*
D10*
X110424440Y-137600000D03*
X110424440Y-140795320D03*
X115575560Y-140795320D03*
X115575560Y-137600000D03*
D11*
X125200000Y-147000000D03*
X123600000Y-147000000D03*
D12*
X115300000Y-131975000D03*
X114650000Y-131975000D03*
X114000000Y-131975000D03*
X113350000Y-131975000D03*
X112700000Y-131975000D03*
D13*
X116500000Y-132000000D03*
X111500000Y-132000000D03*
D14*
X117500000Y-129300000D03*
X110500000Y-129300000D03*
D15*
X115000000Y-129300000D03*
X113000000Y-129300000D03*
X117050000Y-129300000D03*
X110950000Y-129300000D03*
D16*
X119400300Y-142808620D03*
X118600200Y-142808620D03*
X117800100Y-142808620D03*
X117000000Y-142808620D03*
X116202440Y-142808620D03*
X115402340Y-142808620D03*
X114602240Y-142808620D03*
X113802140Y-142808620D03*
D17*
X112308620Y-144302140D03*
X112308620Y-145102240D03*
X112308620Y-145902340D03*
X112308620Y-146702440D03*
X112308620Y-147500000D03*
X112308620Y-148300100D03*
X112308620Y-149100200D03*
X112308620Y-149900300D03*
D16*
X113802140Y-151393820D03*
X114602240Y-151393820D03*
X115402340Y-151393820D03*
X116202440Y-151393820D03*
X117000000Y-151393820D03*
X117800100Y-151393820D03*
X118600200Y-151393820D03*
X119400300Y-151393820D03*
D17*
X120893820Y-149900300D03*
X120893820Y-149100200D03*
X120893820Y-148300100D03*
X120893820Y-147500000D03*
X120893820Y-146702440D03*
X120893820Y-145902340D03*
X120893820Y-145102240D03*
X120893820Y-144302140D03*
D18*
X119650000Y-137760000D03*
X118700000Y-137760000D03*
X117750000Y-137760000D03*
X117750000Y-140040000D03*
X119650000Y-140040000D03*
D19*
X109200000Y-159500000D03*
X126500000Y-159500000D03*
X121200000Y-133600000D03*
D20*
X110900000Y-134150000D03*
X110900000Y-135650000D03*
X112300000Y-134150000D03*
X112300000Y-135650000D03*
D21*
X113900000Y-135900000D03*
X113900000Y-133900000D03*
D22*
X107500000Y-154900000D03*
D23*
X107500000Y-152360000D03*
X107500000Y-149820000D03*
X107500000Y-147280000D03*
X107500000Y-144740000D03*
X107500000Y-142200000D03*
X107500000Y-139660000D03*
X107500000Y-137120000D03*
X107500000Y-134580000D03*
X107500000Y-132040000D03*
D22*
X127820000Y-154900000D03*
D23*
X127820000Y-152360000D03*
X127820000Y-149820000D03*
X127820000Y-147280000D03*
X127820000Y-144740000D03*
X127820000Y-142200000D03*
X127820000Y-139660000D03*
X127820000Y-137120000D03*
X127820000Y-134580000D03*
X127820000Y-132040000D03*
D22*
X122220000Y-129200000D03*
D23*
X124760000Y-129200000D03*
X127300000Y-129200000D03*
D22*
X121680000Y-160900000D03*
D23*
X119140000Y-160900000D03*
X116600000Y-160900000D03*
X114060000Y-160900000D03*
D24*
X125200000Y-148400000D03*
X123700000Y-148400000D03*
D25*
X122750000Y-137550000D03*
X121450000Y-137550000D03*
X122100000Y-137550000D03*
X121450000Y-139450000D03*
X122750000Y-139450000D03*
D26*
X123452440Y-140950220D03*
X123452440Y-145049780D03*
X125047560Y-145049780D03*
X125047560Y-140950220D03*
D27*
X110000000Y-153750000D03*
X110000000Y-155250000D03*
X111500000Y-153750000D03*
X111500000Y-155250000D03*
D22*
X125250000Y-155800000D03*
D28*
G36*
X110887493Y-142576535D02*
G01*
X110918435Y-142581125D01*
X110948778Y-142588725D01*
X110978230Y-142599263D01*
X111006508Y-142612638D01*
X111033338Y-142628719D01*
X111058463Y-142647353D01*
X111081640Y-142668360D01*
X111102647Y-142691537D01*
X111121281Y-142716662D01*
X111137362Y-142743492D01*
X111150737Y-142771770D01*
X111161275Y-142801222D01*
X111168875Y-142831565D01*
X111173465Y-142862507D01*
X111175000Y-142893750D01*
X111175000Y-143531250D01*
X111173465Y-143562493D01*
X111168875Y-143593435D01*
X111161275Y-143623778D01*
X111150737Y-143653230D01*
X111137362Y-143681508D01*
X111121281Y-143708338D01*
X111102647Y-143733463D01*
X111081640Y-143756640D01*
X111058463Y-143777647D01*
X111033338Y-143796281D01*
X111006508Y-143812362D01*
X110978230Y-143825737D01*
X110948778Y-143836275D01*
X110918435Y-143843875D01*
X110887493Y-143848465D01*
X110856250Y-143850000D01*
X110143750Y-143850000D01*
X110112507Y-143848465D01*
X110081565Y-143843875D01*
X110051222Y-143836275D01*
X110021770Y-143825737D01*
X109993492Y-143812362D01*
X109966662Y-143796281D01*
X109941537Y-143777647D01*
X109918360Y-143756640D01*
X109897353Y-143733463D01*
X109878719Y-143708338D01*
X109862638Y-143681508D01*
X109849263Y-143653230D01*
X109838725Y-143623778D01*
X109831125Y-143593435D01*
X109826535Y-143562493D01*
X109825000Y-143531250D01*
X109825000Y-142893750D01*
X109826535Y-142862507D01*
X109831125Y-142831565D01*
X109838725Y-142801222D01*
X109849263Y-142771770D01*
X109862638Y-142743492D01*
X109878719Y-142716662D01*
X109897353Y-142691537D01*
X109918360Y-142668360D01*
X109941537Y-142647353D01*
X109966662Y-142628719D01*
X109993492Y-142612638D01*
X110021770Y-142599263D01*
X110051222Y-142588725D01*
X110081565Y-142581125D01*
X110112507Y-142576535D01*
X110143750Y-142575000D01*
X110856250Y-142575000D01*
X110887493Y-142576535D01*
X110887493Y-142576535D01*
G37*
D29*
X110500000Y-143212500D03*
D28*
G36*
X110887493Y-144151535D02*
G01*
X110918435Y-144156125D01*
X110948778Y-144163725D01*
X110978230Y-144174263D01*
X111006508Y-144187638D01*
X111033338Y-144203719D01*
X111058463Y-144222353D01*
X111081640Y-144243360D01*
X111102647Y-144266537D01*
X111121281Y-144291662D01*
X111137362Y-144318492D01*
X111150737Y-144346770D01*
X111161275Y-144376222D01*
X111168875Y-144406565D01*
X111173465Y-144437507D01*
X111175000Y-144468750D01*
X111175000Y-145106250D01*
X111173465Y-145137493D01*
X111168875Y-145168435D01*
X111161275Y-145198778D01*
X111150737Y-145228230D01*
X111137362Y-145256508D01*
X111121281Y-145283338D01*
X111102647Y-145308463D01*
X111081640Y-145331640D01*
X111058463Y-145352647D01*
X111033338Y-145371281D01*
X111006508Y-145387362D01*
X110978230Y-145400737D01*
X110948778Y-145411275D01*
X110918435Y-145418875D01*
X110887493Y-145423465D01*
X110856250Y-145425000D01*
X110143750Y-145425000D01*
X110112507Y-145423465D01*
X110081565Y-145418875D01*
X110051222Y-145411275D01*
X110021770Y-145400737D01*
X109993492Y-145387362D01*
X109966662Y-145371281D01*
X109941537Y-145352647D01*
X109918360Y-145331640D01*
X109897353Y-145308463D01*
X109878719Y-145283338D01*
X109862638Y-145256508D01*
X109849263Y-145228230D01*
X109838725Y-145198778D01*
X109831125Y-145168435D01*
X109826535Y-145137493D01*
X109825000Y-145106250D01*
X109825000Y-144468750D01*
X109826535Y-144437507D01*
X109831125Y-144406565D01*
X109838725Y-144376222D01*
X109849263Y-144346770D01*
X109862638Y-144318492D01*
X109878719Y-144291662D01*
X109897353Y-144266537D01*
X109918360Y-144243360D01*
X109941537Y-144222353D01*
X109966662Y-144203719D01*
X109993492Y-144187638D01*
X110021770Y-144174263D01*
X110051222Y-144163725D01*
X110081565Y-144156125D01*
X110112507Y-144151535D01*
X110143750Y-144150000D01*
X110856250Y-144150000D01*
X110887493Y-144151535D01*
X110887493Y-144151535D01*
G37*
D29*
X110500000Y-144787500D03*
D28*
G36*
X120062493Y-154326535D02*
G01*
X120093435Y-154331125D01*
X120123778Y-154338725D01*
X120153230Y-154349263D01*
X120181508Y-154362638D01*
X120208338Y-154378719D01*
X120233463Y-154397353D01*
X120256640Y-154418360D01*
X120277647Y-154441537D01*
X120296281Y-154466662D01*
X120312362Y-154493492D01*
X120325737Y-154521770D01*
X120336275Y-154551222D01*
X120343875Y-154581565D01*
X120348465Y-154612507D01*
X120350000Y-154643750D01*
X120350000Y-155356250D01*
X120348465Y-155387493D01*
X120343875Y-155418435D01*
X120336275Y-155448778D01*
X120325737Y-155478230D01*
X120312362Y-155506508D01*
X120296281Y-155533338D01*
X120277647Y-155558463D01*
X120256640Y-155581640D01*
X120233463Y-155602647D01*
X120208338Y-155621281D01*
X120181508Y-155637362D01*
X120153230Y-155650737D01*
X120123778Y-155661275D01*
X120093435Y-155668875D01*
X120062493Y-155673465D01*
X120031250Y-155675000D01*
X119393750Y-155675000D01*
X119362507Y-155673465D01*
X119331565Y-155668875D01*
X119301222Y-155661275D01*
X119271770Y-155650737D01*
X119243492Y-155637362D01*
X119216662Y-155621281D01*
X119191537Y-155602647D01*
X119168360Y-155581640D01*
X119147353Y-155558463D01*
X119128719Y-155533338D01*
X119112638Y-155506508D01*
X119099263Y-155478230D01*
X119088725Y-155448778D01*
X119081125Y-155418435D01*
X119076535Y-155387493D01*
X119075000Y-155356250D01*
X119075000Y-154643750D01*
X119076535Y-154612507D01*
X119081125Y-154581565D01*
X119088725Y-154551222D01*
X119099263Y-154521770D01*
X119112638Y-154493492D01*
X119128719Y-154466662D01*
X119147353Y-154441537D01*
X119168360Y-154418360D01*
X119191537Y-154397353D01*
X119216662Y-154378719D01*
X119243492Y-154362638D01*
X119271770Y-154349263D01*
X119301222Y-154338725D01*
X119331565Y-154331125D01*
X119362507Y-154326535D01*
X119393750Y-154325000D01*
X120031250Y-154325000D01*
X120062493Y-154326535D01*
X120062493Y-154326535D01*
G37*
D29*
X119712500Y-155000000D03*
D28*
G36*
X121637493Y-154326535D02*
G01*
X121668435Y-154331125D01*
X121698778Y-154338725D01*
X121728230Y-154349263D01*
X121756508Y-154362638D01*
X121783338Y-154378719D01*
X121808463Y-154397353D01*
X121831640Y-154418360D01*
X121852647Y-154441537D01*
X121871281Y-154466662D01*
X121887362Y-154493492D01*
X121900737Y-154521770D01*
X121911275Y-154551222D01*
X121918875Y-154581565D01*
X121923465Y-154612507D01*
X121925000Y-154643750D01*
X121925000Y-155356250D01*
X121923465Y-155387493D01*
X121918875Y-155418435D01*
X121911275Y-155448778D01*
X121900737Y-155478230D01*
X121887362Y-155506508D01*
X121871281Y-155533338D01*
X121852647Y-155558463D01*
X121831640Y-155581640D01*
X121808463Y-155602647D01*
X121783338Y-155621281D01*
X121756508Y-155637362D01*
X121728230Y-155650737D01*
X121698778Y-155661275D01*
X121668435Y-155668875D01*
X121637493Y-155673465D01*
X121606250Y-155675000D01*
X120968750Y-155675000D01*
X120937507Y-155673465D01*
X120906565Y-155668875D01*
X120876222Y-155661275D01*
X120846770Y-155650737D01*
X120818492Y-155637362D01*
X120791662Y-155621281D01*
X120766537Y-155602647D01*
X120743360Y-155581640D01*
X120722353Y-155558463D01*
X120703719Y-155533338D01*
X120687638Y-155506508D01*
X120674263Y-155478230D01*
X120663725Y-155448778D01*
X120656125Y-155418435D01*
X120651535Y-155387493D01*
X120650000Y-155356250D01*
X120650000Y-154643750D01*
X120651535Y-154612507D01*
X120656125Y-154581565D01*
X120663725Y-154551222D01*
X120674263Y-154521770D01*
X120687638Y-154493492D01*
X120703719Y-154466662D01*
X120722353Y-154441537D01*
X120743360Y-154418360D01*
X120766537Y-154397353D01*
X120791662Y-154378719D01*
X120818492Y-154362638D01*
X120846770Y-154349263D01*
X120876222Y-154338725D01*
X120906565Y-154331125D01*
X120937507Y-154326535D01*
X120968750Y-154325000D01*
X121606250Y-154325000D01*
X121637493Y-154326535D01*
X121637493Y-154326535D01*
G37*
D29*
X121287500Y-155000000D03*
M02*
