M48
; DRILL file {KiCad 5.1.4-e60b266~84~ubuntu18.04.1} date Sat 28 Sep 2019 04:56:40 PM MDT
; FORMAT={-:-/ absolute / inch / decimal}
; #@! TF.CreationDate,2019-09-28T16:56:40-06:00
; #@! TF.GenerationSoftware,Kicad,Pcbnew,5.1.4-e60b266~84~ubuntu18.04.1
; #@! TF.FileFunction,Plated,1,2,PTH
FMAT,2
INCH
T1C0.0157
T2C0.0354
T3C0.0394
T4C0.0472
%
G90
G05
T1
X4.0157Y-4.8031
X4.0157Y-4.8819
X4.0157Y-5.1181
X4.0157Y-5.3543
X4.0236Y-3.9055
X4.0866Y-3.8898
X4.0866Y-4.1299
X4.0945Y-4.8031
X4.0945Y-5.1181
X4.0945Y-5.3543
X4.1339Y-4.5079
X4.1496Y-3.9213
X4.1513Y-4.2695
X4.1535Y-4.3898
X4.1575Y-4.626
X4.1663Y-4.5709
X4.1663Y-4.4685
X4.1732Y-4.8819
X4.1732Y-5.1181
X4.1732Y-5.3543
X4.1772Y-4.122
X4.1929Y-3.8898
X4.2302Y-4.6084
X4.2515Y-3.9209
X4.252Y-4.8031
X4.252Y-5.1181
X4.252Y-5.3543
X4.2559Y-3.8898
X4.2835Y-4.4685
X4.315Y-4.5945
X4.326Y-4.5454
X4.3307Y-4.8819
X4.3307Y-5.1181
X4.3307Y-5.3543
X4.3504Y-4.0433
X4.3511Y-4.6105
X4.3858Y-4.2588
X4.3858Y-4.4173
X4.4094Y-4.8031
X4.4094Y-5.1181
X4.4094Y-5.3543
X4.4134Y-4.1969
X4.4134Y-4.5512
X4.4291Y-4.126
X4.4291Y-4.7047
X4.4488Y-4.8819
X4.4677Y-4.7293
X4.4743Y-4.2608
X4.4882Y-5.1181
X4.4882Y-5.3543
X4.5039Y-4.2126
X4.5039Y-4.3622
X4.5118Y-3.8268
X4.522Y-4.5631
X4.5276Y-4.8819
X4.5669Y-4.8031
X4.5669Y-5.1181
X4.5669Y-5.3543
X4.6063Y-4.6181
X4.6181Y-4.5512
X4.6299Y-4.2362
X4.6378Y-4.0315
X4.6457Y-4.8031
X4.6457Y-5.1181
X4.6457Y-5.3543
X4.6614Y-4.4961
X4.6969Y-4.7756
X4.7047Y-4.3465
X4.7165Y-5.3543
X4.7323Y-4.5945
X4.7598Y-3.8228
X4.7638Y-4.6417
X4.7677Y-4.3622
X4.7677Y-4.5472
X4.7717Y-4.7992
X4.7717Y-4.8858
T2
X4.0748Y-3.8268
X4.2717Y-3.8268
T3
X4.5079Y-3.7402
X4.6079Y-3.7402
X4.7079Y-3.7402
X4.0551Y-4.3701
X4.0551Y-4.4701
X4.0551Y-4.5701
X4.0551Y-4.6701
T4
X4.0354Y-3.7205
X4.311Y-3.7205
T0
M30
