G04 #@! TF.FileFunction,Legend,Bot*
%FSLAX46Y46*%
G04 Gerber Fmt 4.6, Leading zero omitted, Abs format (unit mm)*
G04 Created by KiCad (PCBNEW 4.0.7-e2-6376~61~ubuntu18.04.1) date Sun Jul  8 15:07:32 2018*
%MOMM*%
%LPD*%
G01*
G04 APERTURE LIST*
%ADD10C,0.100000*%
%ADD11C,0.175000*%
%ADD12C,1.500000*%
%ADD13C,0.300000*%
%ADD14C,0.150000*%
%ADD15C,0.203200*%
G04 APERTURE END LIST*
D10*
D11*
X126566667Y-136816667D02*
X126133334Y-136816667D01*
X126366667Y-137083333D01*
X126266667Y-137083333D01*
X126200000Y-137116667D01*
X126166667Y-137150000D01*
X126133334Y-137216667D01*
X126133334Y-137383333D01*
X126166667Y-137450000D01*
X126200000Y-137483333D01*
X126266667Y-137516667D01*
X126466667Y-137516667D01*
X126533334Y-137483333D01*
X126566667Y-137450000D01*
X125933333Y-136816667D02*
X125700000Y-137516667D01*
X125466667Y-136816667D01*
X125300000Y-136816667D02*
X124866667Y-136816667D01*
X125100000Y-137083333D01*
X125000000Y-137083333D01*
X124933333Y-137116667D01*
X124900000Y-137150000D01*
X124866667Y-137216667D01*
X124866667Y-137383333D01*
X124900000Y-137450000D01*
X124933333Y-137483333D01*
X125000000Y-137516667D01*
X125200000Y-137516667D01*
X125266667Y-137483333D01*
X125300000Y-137450000D01*
X109533333Y-136816667D02*
X109866666Y-136816667D01*
X109900000Y-137150000D01*
X109866666Y-137116667D01*
X109800000Y-137083333D01*
X109633333Y-137083333D01*
X109566666Y-137116667D01*
X109533333Y-137150000D01*
X109500000Y-137216667D01*
X109500000Y-137383333D01*
X109533333Y-137450000D01*
X109566666Y-137483333D01*
X109633333Y-137516667D01*
X109800000Y-137516667D01*
X109866666Y-137483333D01*
X109900000Y-137450000D01*
X109299999Y-136816667D02*
X109066666Y-137516667D01*
X108833333Y-136816667D01*
X108916667Y-134350000D02*
X108983333Y-134316667D01*
X109083333Y-134316667D01*
X109183333Y-134350000D01*
X109250000Y-134416667D01*
X109283333Y-134483333D01*
X109316667Y-134616667D01*
X109316667Y-134716667D01*
X109283333Y-134850000D01*
X109250000Y-134916667D01*
X109183333Y-134983333D01*
X109083333Y-135016667D01*
X109016667Y-135016667D01*
X108916667Y-134983333D01*
X108883333Y-134950000D01*
X108883333Y-134716667D01*
X109016667Y-134716667D01*
X108916667Y-131750000D02*
X108983333Y-131716667D01*
X109083333Y-131716667D01*
X109183333Y-131750000D01*
X109250000Y-131816667D01*
X109283333Y-131883333D01*
X109316667Y-132016667D01*
X109316667Y-132116667D01*
X109283333Y-132250000D01*
X109250000Y-132316667D01*
X109183333Y-132383333D01*
X109083333Y-132416667D01*
X109016667Y-132416667D01*
X108916667Y-132383333D01*
X108883333Y-132350000D01*
X108883333Y-132116667D01*
X109016667Y-132116667D01*
X126116667Y-134250000D02*
X126183333Y-134216667D01*
X126283333Y-134216667D01*
X126383333Y-134250000D01*
X126450000Y-134316667D01*
X126483333Y-134383333D01*
X126516667Y-134516667D01*
X126516667Y-134616667D01*
X126483333Y-134750000D01*
X126450000Y-134816667D01*
X126383333Y-134883333D01*
X126283333Y-134916667D01*
X126216667Y-134916667D01*
X126116667Y-134883333D01*
X126083333Y-134850000D01*
X126083333Y-134616667D01*
X126216667Y-134616667D01*
X126116667Y-131650000D02*
X126183333Y-131616667D01*
X126283333Y-131616667D01*
X126383333Y-131650000D01*
X126450000Y-131716667D01*
X126483333Y-131783333D01*
X126516667Y-131916667D01*
X126516667Y-132016667D01*
X126483333Y-132150000D01*
X126450000Y-132216667D01*
X126383333Y-132283333D01*
X126283333Y-132316667D01*
X126216667Y-132316667D01*
X126116667Y-132283333D01*
X126083333Y-132250000D01*
X126083333Y-132016667D01*
X126216667Y-132016667D01*
X113916667Y-158850000D02*
X113983333Y-158816667D01*
X114083333Y-158816667D01*
X114183333Y-158850000D01*
X114250000Y-158916667D01*
X114283333Y-158983333D01*
X114316667Y-159116667D01*
X114316667Y-159216667D01*
X114283333Y-159350000D01*
X114250000Y-159416667D01*
X114183333Y-159483333D01*
X114083333Y-159516667D01*
X114016667Y-159516667D01*
X113916667Y-159483333D01*
X113883333Y-159450000D01*
X113883333Y-159216667D01*
X114016667Y-159216667D01*
X117016666Y-159450000D02*
X117050000Y-159483333D01*
X117150000Y-159516667D01*
X117216666Y-159516667D01*
X117316666Y-159483333D01*
X117383333Y-159416667D01*
X117416666Y-159350000D01*
X117450000Y-159216667D01*
X117450000Y-159116667D01*
X117416666Y-158983333D01*
X117383333Y-158916667D01*
X117316666Y-158850000D01*
X117216666Y-158816667D01*
X117150000Y-158816667D01*
X117050000Y-158850000D01*
X117016666Y-158883333D01*
X116383333Y-159516667D02*
X116716666Y-159516667D01*
X116716666Y-158816667D01*
X116149999Y-159516667D02*
X116149999Y-158816667D01*
X115749999Y-159516667D02*
X116049999Y-159116667D01*
X115749999Y-158816667D02*
X116149999Y-159216667D01*
X119466666Y-159516667D02*
X119466666Y-158816667D01*
X119000000Y-158816667D02*
X118866667Y-158816667D01*
X118800000Y-158850000D01*
X118733333Y-158916667D01*
X118700000Y-159050000D01*
X118700000Y-159283333D01*
X118733333Y-159416667D01*
X118800000Y-159483333D01*
X118866667Y-159516667D01*
X119000000Y-159516667D01*
X119066667Y-159483333D01*
X119133333Y-159416667D01*
X119166667Y-159283333D01*
X119166667Y-159050000D01*
X119133333Y-158916667D01*
X119066667Y-158850000D01*
X119000000Y-158816667D01*
X121733333Y-158816667D02*
X122066666Y-158816667D01*
X122100000Y-159150000D01*
X122066666Y-159116667D01*
X122000000Y-159083333D01*
X121833333Y-159083333D01*
X121766666Y-159116667D01*
X121733333Y-159150000D01*
X121700000Y-159216667D01*
X121700000Y-159383333D01*
X121733333Y-159450000D01*
X121766666Y-159483333D01*
X121833333Y-159516667D01*
X122000000Y-159516667D01*
X122066666Y-159483333D01*
X122100000Y-159450000D01*
X121499999Y-158816667D02*
X121266666Y-159516667D01*
X121033333Y-158816667D01*
X122333333Y-130316667D02*
X122666666Y-130316667D01*
X122700000Y-130650000D01*
X122666666Y-130616667D01*
X122600000Y-130583333D01*
X122433333Y-130583333D01*
X122366666Y-130616667D01*
X122333333Y-130650000D01*
X122300000Y-130716667D01*
X122300000Y-130883333D01*
X122333333Y-130950000D01*
X122366666Y-130983333D01*
X122433333Y-131016667D01*
X122600000Y-131016667D01*
X122666666Y-130983333D01*
X122700000Y-130950000D01*
X122099999Y-130316667D02*
X121866666Y-131016667D01*
X121633333Y-130316667D01*
X125250000Y-131016667D02*
X125583333Y-131016667D01*
X125583333Y-130316667D01*
X125016666Y-130650000D02*
X124783333Y-130650000D01*
X124683333Y-131016667D02*
X125016666Y-131016667D01*
X125016666Y-130316667D01*
X124683333Y-130316667D01*
X124383333Y-131016667D02*
X124383333Y-130316667D01*
X124216667Y-130316667D01*
X124116667Y-130350000D01*
X124050000Y-130416667D01*
X124016667Y-130483333D01*
X123983333Y-130616667D01*
X123983333Y-130716667D01*
X124016667Y-130850000D01*
X124050000Y-130916667D01*
X124116667Y-130983333D01*
X124216667Y-131016667D01*
X124383333Y-131016667D01*
X126616667Y-130350000D02*
X126683333Y-130316667D01*
X126783333Y-130316667D01*
X126883333Y-130350000D01*
X126950000Y-130416667D01*
X126983333Y-130483333D01*
X127016667Y-130616667D01*
X127016667Y-130716667D01*
X126983333Y-130850000D01*
X126950000Y-130916667D01*
X126883333Y-130983333D01*
X126783333Y-131016667D01*
X126716667Y-131016667D01*
X126616667Y-130983333D01*
X126583333Y-130950000D01*
X126583333Y-130716667D01*
X126716667Y-130716667D01*
D12*
X114700000Y-137400000D02*
G75*
G03X114700000Y-137400000I-700000J0D01*
G01*
D13*
X116192857Y-133678571D02*
X115335714Y-133678571D01*
X115764285Y-135178571D02*
X115764285Y-133678571D01*
X114835714Y-134392857D02*
X114335714Y-134392857D01*
X114121428Y-135178571D02*
X114835714Y-135178571D01*
X114835714Y-133678571D01*
X114121428Y-133678571D01*
X113550000Y-135107143D02*
X113335714Y-135178571D01*
X112978571Y-135178571D01*
X112835714Y-135107143D01*
X112764285Y-135035714D01*
X112692857Y-134892857D01*
X112692857Y-134750000D01*
X112764285Y-134607143D01*
X112835714Y-134535714D01*
X112978571Y-134464286D01*
X113264285Y-134392857D01*
X113407143Y-134321429D01*
X113478571Y-134250000D01*
X113550000Y-134107143D01*
X113550000Y-133964286D01*
X113478571Y-133821429D01*
X113407143Y-133750000D01*
X113264285Y-133678571D01*
X112907143Y-133678571D01*
X112692857Y-133750000D01*
X112264286Y-133678571D02*
X111407143Y-133678571D01*
X111835714Y-135178571D02*
X111835714Y-133678571D01*
D14*
X124250520Y-155498080D02*
X125500520Y-155498080D01*
X122250520Y-155498080D02*
X122750520Y-155498080D01*
X120250520Y-155498080D02*
X120750520Y-155498080D01*
X118250520Y-155498080D02*
X118750520Y-155498080D01*
X116250520Y-155498080D02*
X116750520Y-155498080D01*
X114250520Y-155498080D02*
X114750520Y-155498080D01*
X112250520Y-155498080D02*
X112750520Y-155498080D01*
X109500520Y-155498080D02*
X110750520Y-155498080D01*
X110750520Y-139498080D02*
X109500520Y-139498080D01*
X112750520Y-139498080D02*
X112250520Y-139498080D01*
X114750520Y-139498080D02*
X114250520Y-139498080D01*
X116750520Y-139498080D02*
X116250520Y-139498080D01*
X118750520Y-139498080D02*
X118250520Y-139498080D01*
X120750520Y-139498080D02*
X120250520Y-139498080D01*
X122750520Y-139498080D02*
X122250520Y-139498080D01*
X125500520Y-139498080D02*
X124250520Y-139498080D01*
D15*
X125498980Y-155496540D02*
X125498980Y-139499620D01*
X109502060Y-139499620D02*
X109502060Y-155496540D01*
X119499500Y-147496040D02*
X115501540Y-147496040D01*
X115501540Y-147496040D02*
X115501540Y-143498080D01*
X115501540Y-143498080D02*
X119499500Y-143498080D01*
X119499500Y-143498080D02*
X119499500Y-147496040D01*
X116002680Y-152249100D02*
X117999120Y-152249100D01*
X117999120Y-150250120D02*
X117999120Y-152249100D01*
X116002680Y-150250120D02*
X117999120Y-150250120D01*
X116002680Y-150250120D02*
X116002680Y-152249100D01*
D14*
X123667187Y-150605223D02*
X123667187Y-151081414D01*
X123952901Y-150509985D02*
X122952901Y-150843318D01*
X123952901Y-151176652D01*
X123952901Y-151509985D02*
X122952901Y-151509985D01*
X123952901Y-152081414D01*
X122952901Y-152081414D01*
X122952901Y-152414747D02*
X122952901Y-152986176D01*
X123952901Y-152700461D02*
X122952901Y-152700461D01*
X123000520Y-142486176D02*
X122952901Y-142390938D01*
X122952901Y-142248081D01*
X123000520Y-142105223D01*
X123095758Y-142009985D01*
X123190996Y-141962366D01*
X123381472Y-141914747D01*
X123524330Y-141914747D01*
X123714806Y-141962366D01*
X123810044Y-142009985D01*
X123905282Y-142105223D01*
X123952901Y-142248081D01*
X123952901Y-142343319D01*
X123905282Y-142486176D01*
X123857663Y-142533795D01*
X123524330Y-142533795D01*
X123524330Y-142343319D01*
X123952901Y-142962366D02*
X122952901Y-142962366D01*
X123952901Y-143533795D01*
X122952901Y-143533795D01*
X123952901Y-144009985D02*
X122952901Y-144009985D01*
X122952901Y-144248080D01*
X123000520Y-144390938D01*
X123095758Y-144486176D01*
X123190996Y-144533795D01*
X123381472Y-144581414D01*
X123524330Y-144581414D01*
X123714806Y-144533795D01*
X123810044Y-144486176D01*
X123905282Y-144390938D01*
X123952901Y-144248080D01*
X123952901Y-144009985D01*
M02*
