%TF.GenerationSoftware,KiCad,Pcbnew,7.0.2-6a45011f42~172~ubuntu22.04.1*%
%TF.CreationDate,2023-04-30T12:53:57-06:00*%
%TF.ProjectId,ring-40mm,72696e67-2d34-4306-9d6d-2e6b69636164,rev?*%
%TF.SameCoordinates,Original*%
%TF.FileFunction,Legend,Bot*%
%TF.FilePolarity,Positive*%
%FSLAX46Y46*%
G04 Gerber Fmt 4.6, Leading zero omitted, Abs format (unit mm)*
G04 Created by KiCad (PCBNEW 7.0.2-6a45011f42~172~ubuntu22.04.1) date 2023-04-30 12:53:57*
%MOMM*%
%LPD*%
G01*
G04 APERTURE LIST*
G04 Aperture macros list*
%AMRoundRect*
0 Rectangle with rounded corners*
0 $1 Rounding radius*
0 $2 $3 $4 $5 $6 $7 $8 $9 X,Y pos of 4 corners*
0 Add a 4 corners polygon primitive as box body*
4,1,4,$2,$3,$4,$5,$6,$7,$8,$9,$2,$3,0*
0 Add four circle primitives for the rounded corners*
1,1,$1+$1,$2,$3*
1,1,$1+$1,$4,$5*
1,1,$1+$1,$6,$7*
1,1,$1+$1,$8,$9*
0 Add four rect primitives between the rounded corners*
20,1,$1+$1,$2,$3,$4,$5,0*
20,1,$1+$1,$4,$5,$6,$7,0*
20,1,$1+$1,$6,$7,$8,$9,0*
20,1,$1+$1,$8,$9,$2,$3,0*%
G04 Aperture macros list end*
%ADD10C,0.150000*%
%ADD11RoundRect,0.050000X-0.850000X0.850000X-0.850000X-0.850000X0.850000X-0.850000X0.850000X0.850000X0*%
%ADD12O,1.800000X1.800000*%
G04 APERTURE END LIST*
D10*
X118810952Y-97342857D02*
X119477619Y-97580952D01*
X119477619Y-97580952D02*
X118810952Y-97819047D01*
X119477619Y-98723809D02*
X119477619Y-98152381D01*
X119477619Y-98438095D02*
X118477619Y-98438095D01*
X118477619Y-98438095D02*
X118620476Y-98342857D01*
X118620476Y-98342857D02*
X118715714Y-98247619D01*
X118715714Y-98247619D02*
X118763333Y-98152381D01*
X119382380Y-99152381D02*
X119430000Y-99200000D01*
X119430000Y-99200000D02*
X119477619Y-99152381D01*
X119477619Y-99152381D02*
X119430000Y-99104762D01*
X119430000Y-99104762D02*
X119382380Y-99152381D01*
X119382380Y-99152381D02*
X119477619Y-99152381D01*
X118477619Y-99819047D02*
X118477619Y-99914285D01*
X118477619Y-99914285D02*
X118525238Y-100009523D01*
X118525238Y-100009523D02*
X118572857Y-100057142D01*
X118572857Y-100057142D02*
X118668095Y-100104761D01*
X118668095Y-100104761D02*
X118858571Y-100152380D01*
X118858571Y-100152380D02*
X119096666Y-100152380D01*
X119096666Y-100152380D02*
X119287142Y-100104761D01*
X119287142Y-100104761D02*
X119382380Y-100057142D01*
X119382380Y-100057142D02*
X119430000Y-100009523D01*
X119430000Y-100009523D02*
X119477619Y-99914285D01*
X119477619Y-99914285D02*
X119477619Y-99819047D01*
X119477619Y-99819047D02*
X119430000Y-99723809D01*
X119430000Y-99723809D02*
X119382380Y-99676190D01*
X119382380Y-99676190D02*
X119287142Y-99628571D01*
X119287142Y-99628571D02*
X119096666Y-99580952D01*
X119096666Y-99580952D02*
X118858571Y-99580952D01*
X118858571Y-99580952D02*
X118668095Y-99628571D01*
X118668095Y-99628571D02*
X118572857Y-99676190D01*
X118572857Y-99676190D02*
X118525238Y-99723809D01*
X118525238Y-99723809D02*
X118477619Y-99819047D01*
X97761904Y-119896666D02*
X97000000Y-119896666D01*
X97380952Y-120277619D02*
X97380952Y-119515714D01*
X102761904Y-119996666D02*
X102000000Y-119996666D01*
X100971428Y-118977619D02*
X100780952Y-118977619D01*
X100780952Y-118977619D02*
X100685714Y-119025238D01*
X100685714Y-119025238D02*
X100590476Y-119120476D01*
X100590476Y-119120476D02*
X100542857Y-119310952D01*
X100542857Y-119310952D02*
X100542857Y-119644285D01*
X100542857Y-119644285D02*
X100590476Y-119834761D01*
X100590476Y-119834761D02*
X100685714Y-119930000D01*
X100685714Y-119930000D02*
X100780952Y-119977619D01*
X100780952Y-119977619D02*
X100971428Y-119977619D01*
X100971428Y-119977619D02*
X101066666Y-119930000D01*
X101066666Y-119930000D02*
X101161904Y-119834761D01*
X101161904Y-119834761D02*
X101209523Y-119644285D01*
X101209523Y-119644285D02*
X101209523Y-119310952D01*
X101209523Y-119310952D02*
X101161904Y-119120476D01*
X101161904Y-119120476D02*
X101066666Y-119025238D01*
X101066666Y-119025238D02*
X100971428Y-118977619D01*
X100114285Y-118977619D02*
X100114285Y-119787142D01*
X100114285Y-119787142D02*
X100066666Y-119882380D01*
X100066666Y-119882380D02*
X100019047Y-119930000D01*
X100019047Y-119930000D02*
X99923809Y-119977619D01*
X99923809Y-119977619D02*
X99733333Y-119977619D01*
X99733333Y-119977619D02*
X99638095Y-119930000D01*
X99638095Y-119930000D02*
X99590476Y-119882380D01*
X99590476Y-119882380D02*
X99542857Y-119787142D01*
X99542857Y-119787142D02*
X99542857Y-118977619D01*
X99209523Y-118977619D02*
X98638095Y-118977619D01*
X98923809Y-119977619D02*
X98923809Y-118977619D01*
X100361904Y-81077619D02*
X100361904Y-80077619D01*
X99885714Y-81077619D02*
X99885714Y-80077619D01*
X99885714Y-80077619D02*
X99314286Y-81077619D01*
X99314286Y-81077619D02*
X99314286Y-80077619D01*
X97761904Y-80296666D02*
X97000000Y-80296666D01*
X97380952Y-80677619D02*
X97380952Y-79915714D01*
X102861904Y-80396666D02*
X102100000Y-80396666D01*
%LPC*%
D11*
%TO.C,J2*%
X102440000Y-121400000D03*
D12*
X99900000Y-121400000D03*
X97360000Y-121400000D03*
%TD*%
D11*
%TO.C,J1*%
X102440000Y-78700000D03*
D12*
X99900000Y-78700000D03*
X97360000Y-78700000D03*
%TD*%
%LPD*%
M02*
