%TF.GenerationSoftware,KiCad,Pcbnew,7.0.2-6a45011f42~172~ubuntu22.04.1*%
%TF.CreationDate,2023-05-13T10:52:22-06:00*%
%TF.ProjectId,ring-40mm,72696e67-2d34-4306-9d6d-2e6b69636164,rev?*%
%TF.SameCoordinates,Original*%
%TF.FileFunction,Copper,L1,Top*%
%TF.FilePolarity,Positive*%
%FSLAX46Y46*%
G04 Gerber Fmt 4.6, Leading zero omitted, Abs format (unit mm)*
G04 Created by KiCad (PCBNEW 7.0.2-6a45011f42~172~ubuntu22.04.1) date 2023-05-13 10:52:22*
%MOMM*%
%LPD*%
G01*
G04 APERTURE LIST*
G04 Aperture macros list*
%AMRoundRect*
0 Rectangle with rounded corners*
0 $1 Rounding radius*
0 $2 $3 $4 $5 $6 $7 $8 $9 X,Y pos of 4 corners*
0 Add a 4 corners polygon primitive as box body*
4,1,4,$2,$3,$4,$5,$6,$7,$8,$9,$2,$3,0*
0 Add four circle primitives for the rounded corners*
1,1,$1+$1,$2,$3*
1,1,$1+$1,$4,$5*
1,1,$1+$1,$6,$7*
1,1,$1+$1,$8,$9*
0 Add four rect primitives between the rounded corners*
20,1,$1+$1,$2,$3,$4,$5,0*
20,1,$1+$1,$4,$5,$6,$7,0*
20,1,$1+$1,$6,$7,$8,$9,0*
20,1,$1+$1,$8,$9,$2,$3,0*%
%AMRotRect*
0 Rectangle, with rotation*
0 The origin of the aperture is its center*
0 $1 length*
0 $2 width*
0 $3 Rotation angle, in degrees counterclockwise*
0 Add horizontal line*
21,1,$1,$2,0,0,$3*%
G04 Aperture macros list end*
%TA.AperFunction,ComponentPad*%
%ADD10R,1.700000X1.700000*%
%TD*%
%TA.AperFunction,ComponentPad*%
%ADD11O,1.700000X1.700000*%
%TD*%
%TA.AperFunction,SMDPad,CuDef*%
%ADD12RotRect,0.450000X0.450000X216.000000*%
%TD*%
%TA.AperFunction,SMDPad,CuDef*%
%ADD13RoundRect,0.140000X-0.213186X-0.055243X0.013339X-0.219823X0.213186X0.055243X-0.013339X0.219823X0*%
%TD*%
%TA.AperFunction,SMDPad,CuDef*%
%ADD14RoundRect,0.140000X-0.080615X-0.204942X0.185681X-0.118417X0.080615X0.204942X-0.185681X0.118417X0*%
%TD*%
%TA.AperFunction,SMDPad,CuDef*%
%ADD15RoundRect,0.237500X-0.237500X0.250000X-0.237500X-0.250000X0.237500X-0.250000X0.237500X0.250000X0*%
%TD*%
%TA.AperFunction,SMDPad,CuDef*%
%ADD16RotRect,0.450000X0.450000X126.000000*%
%TD*%
%TA.AperFunction,SMDPad,CuDef*%
%ADD17RotRect,0.450000X0.450000X162.000000*%
%TD*%
%TA.AperFunction,SMDPad,CuDef*%
%ADD18RoundRect,0.140000X-0.204942X0.080615X-0.118417X-0.185681X0.204942X-0.080615X0.118417X0.185681X0*%
%TD*%
%TA.AperFunction,SMDPad,CuDef*%
%ADD19RotRect,0.450000X0.450000X324.000000*%
%TD*%
%TA.AperFunction,SMDPad,CuDef*%
%ADD20RotRect,0.450000X0.450000X72.000000*%
%TD*%
%TA.AperFunction,SMDPad,CuDef*%
%ADD21RoundRect,0.140000X0.055243X-0.213186X0.219823X0.013339X-0.055243X0.213186X-0.219823X-0.013339X0*%
%TD*%
%TA.AperFunction,SMDPad,CuDef*%
%ADD22RoundRect,0.140000X0.013339X0.219823X-0.213186X0.055243X-0.013339X-0.219823X0.213186X-0.055243X0*%
%TD*%
%TA.AperFunction,SMDPad,CuDef*%
%ADD23R,0.450000X0.450000*%
%TD*%
%TA.AperFunction,SMDPad,CuDef*%
%ADD24RoundRect,0.140000X0.118417X-0.185681X0.204942X0.080615X-0.118417X0.185681X-0.204942X-0.080615X0*%
%TD*%
%TA.AperFunction,SMDPad,CuDef*%
%ADD25RoundRect,0.140000X0.213186X0.055243X-0.013339X0.219823X-0.213186X-0.055243X0.013339X-0.219823X0*%
%TD*%
%TA.AperFunction,SMDPad,CuDef*%
%ADD26RotRect,0.450000X0.450000X54.000000*%
%TD*%
%TA.AperFunction,SMDPad,CuDef*%
%ADD27RoundRect,0.140000X0.185681X0.118417X-0.080615X0.204942X-0.185681X-0.118417X0.080615X-0.204942X0*%
%TD*%
%TA.AperFunction,SMDPad,CuDef*%
%ADD28RoundRect,0.140000X0.219823X-0.013339X0.055243X0.213186X-0.219823X0.013339X-0.055243X-0.213186X0*%
%TD*%
%TA.AperFunction,SMDPad,CuDef*%
%ADD29RoundRect,0.250000X0.475000X-0.250000X0.475000X0.250000X-0.475000X0.250000X-0.475000X-0.250000X0*%
%TD*%
%TA.AperFunction,SMDPad,CuDef*%
%ADD30RoundRect,0.140000X-0.055243X0.213186X-0.219823X-0.013339X0.055243X-0.213186X0.219823X0.013339X0*%
%TD*%
%TA.AperFunction,SMDPad,CuDef*%
%ADD31RotRect,0.450000X0.450000X288.000000*%
%TD*%
%TA.AperFunction,SMDPad,CuDef*%
%ADD32RotRect,0.450000X0.450000X306.000000*%
%TD*%
%TA.AperFunction,SMDPad,CuDef*%
%ADD33RotRect,0.450000X0.450000X108.000000*%
%TD*%
%TA.AperFunction,SMDPad,CuDef*%
%ADD34RotRect,0.450000X0.450000X198.000000*%
%TD*%
%TA.AperFunction,SMDPad,CuDef*%
%ADD35RoundRect,0.140000X0.080615X0.204942X-0.185681X0.118417X-0.080615X-0.204942X0.185681X-0.118417X0*%
%TD*%
%TA.AperFunction,SMDPad,CuDef*%
%ADD36RoundRect,0.140000X-0.140000X-0.170000X0.140000X-0.170000X0.140000X0.170000X-0.140000X0.170000X0*%
%TD*%
%TA.AperFunction,SMDPad,CuDef*%
%ADD37RoundRect,0.140000X0.170000X-0.140000X0.170000X0.140000X-0.170000X0.140000X-0.170000X-0.140000X0*%
%TD*%
%TA.AperFunction,SMDPad,CuDef*%
%ADD38RoundRect,0.140000X-0.013339X-0.219823X0.213186X-0.055243X0.013339X0.219823X-0.213186X0.055243X0*%
%TD*%
%TA.AperFunction,SMDPad,CuDef*%
%ADD39RoundRect,0.140000X0.140000X0.170000X-0.140000X0.170000X-0.140000X-0.170000X0.140000X-0.170000X0*%
%TD*%
%TA.AperFunction,SMDPad,CuDef*%
%ADD40RoundRect,0.140000X-0.219823X0.013339X-0.055243X-0.213186X0.219823X-0.013339X0.055243X0.213186X0*%
%TD*%
%TA.AperFunction,SMDPad,CuDef*%
%ADD41RotRect,0.450000X0.450000X234.000000*%
%TD*%
%TA.AperFunction,SMDPad,CuDef*%
%ADD42RotRect,0.450000X0.450000X342.000000*%
%TD*%
%TA.AperFunction,SMDPad,CuDef*%
%ADD43RoundRect,0.140000X-0.118417X0.185681X-0.204942X-0.080615X0.118417X-0.185681X0.204942X0.080615X0*%
%TD*%
%TA.AperFunction,SMDPad,CuDef*%
%ADD44RotRect,0.450000X0.450000X144.000000*%
%TD*%
%TA.AperFunction,SMDPad,CuDef*%
%ADD45RoundRect,0.140000X-0.185681X-0.118417X0.080615X-0.204942X0.185681X0.118417X-0.080615X0.204942X0*%
%TD*%
%TA.AperFunction,SMDPad,CuDef*%
%ADD46RotRect,0.450000X0.450000X36.000000*%
%TD*%
%TA.AperFunction,SMDPad,CuDef*%
%ADD47RoundRect,0.140000X0.204942X-0.080615X0.118417X0.185681X-0.204942X0.080615X-0.118417X-0.185681X0*%
%TD*%
%TA.AperFunction,SMDPad,CuDef*%
%ADD48RotRect,0.450000X0.450000X18.000000*%
%TD*%
%TA.AperFunction,SMDPad,CuDef*%
%ADD49RoundRect,0.140000X-0.170000X0.140000X-0.170000X-0.140000X0.170000X-0.140000X0.170000X0.140000X0*%
%TD*%
%TA.AperFunction,SMDPad,CuDef*%
%ADD50RotRect,0.450000X0.450000X252.000000*%
%TD*%
%TA.AperFunction,ViaPad*%
%ADD51C,0.500000*%
%TD*%
%TA.AperFunction,Conductor*%
%ADD52C,0.127000*%
%TD*%
%TA.AperFunction,Conductor*%
%ADD53C,0.500000*%
%TD*%
G04 APERTURE END LIST*
D10*
%TO.P,J2,1,Pin_1*%
%TO.N,GND*%
X102440000Y-121400000D03*
D11*
%TO.P,J2,2,Pin_2*%
%TO.N,/SIGNAL_OUT*%
X99900000Y-121400000D03*
%TO.P,J2,3,Pin_3*%
%TO.N,VCC*%
X97360000Y-121400000D03*
%TD*%
D10*
%TO.P,J1,1,Pin_1*%
%TO.N,GND*%
X102440000Y-78700000D03*
D11*
%TO.P,J1,2,Pin_2*%
%TO.N,/SIGNAL_IN*%
X99900000Y-78700000D03*
%TO.P,J1,3,Pin_3*%
%TO.N,VCC*%
X97360000Y-78700000D03*
%TD*%
D12*
%TO.P,D19,1,DOUT*%
%TO.N,Net-(D19-DOUT)*%
X90227517Y-85984405D03*
%TO.P,D19,2,VDD*%
%TO.N,VCC*%
X89539853Y-86484023D03*
%TO.P,D19,3,GND*%
%TO.N,GND*%
X89727899Y-85296741D03*
%TO.P,D19,4,DIN*%
%TO.N,Net-(D18-DOUT)*%
X89040235Y-85796359D03*
%TD*%
D13*
%TO.P,C3,1*%
%TO.N,VCC*%
X110611672Y-84517863D03*
%TO.P,C3,2*%
%TO.N,GND*%
X111388328Y-85082137D03*
%TD*%
D14*
%TO.P,C20,1*%
%TO.N,VCC*%
X93643493Y-82248328D03*
%TO.P,C20,2*%
%TO.N,GND*%
X94556507Y-81951672D03*
%TD*%
D15*
%TO.P,R2,1*%
%TO.N,Net-(D20-DOUT)*%
X97500000Y-116975000D03*
%TO.P,R2,2*%
%TO.N,/SIGNAL_OUT*%
X97500000Y-118800000D03*
%TD*%
D16*
%TO.P,D4,1,DOUT*%
%TO.N,Net-(D4-DOUT)*%
X113983892Y-90355579D03*
%TO.P,D4,2,VDD*%
%TO.N,VCC*%
X113484274Y-89667915D03*
%TO.P,D4,3,GND*%
%TO.N,GND*%
X114671556Y-89855961D03*
%TO.P,D4,4,DIN*%
%TO.N,Net-(D3-DOUT)*%
X114171938Y-89168297D03*
%TD*%
D17*
%TO.P,D2,1,DOUT*%
%TO.N,Net-(D2-DOUT)*%
X105600782Y-83940221D03*
%TO.P,D2,2,VDD*%
%TO.N,VCC*%
X104792384Y-83677557D03*
%TO.P,D2,3,GND*%
%TO.N,GND*%
X105863446Y-83131823D03*
%TO.P,D2,4,DIN*%
%TO.N,Net-(D1-DOUT)*%
X105055048Y-82869159D03*
%TD*%
D18*
%TO.P,C5,1*%
%TO.N,VCC*%
X117751672Y-93772170D03*
%TO.P,C5,2*%
%TO.N,GND*%
X118048328Y-94685184D03*
%TD*%
D19*
%TO.P,D13,1,DOUT*%
%TO.N,Net-(D13-DOUT)*%
X89539853Y-113612336D03*
%TO.P,D13,2,VDD*%
%TO.N,VCC*%
X90227517Y-114111954D03*
%TO.P,D13,3,GND*%
%TO.N,GND*%
X89040235Y-114300000D03*
%TO.P,D13,4,DIN*%
%TO.N,Net-(D12-DOUT)*%
X89727899Y-114799618D03*
%TD*%
D20*
%TO.P,D7,1,DOUT*%
%TO.N,Net-(D7-DOUT)*%
X116028076Y-105728844D03*
%TO.P,D7,2,VDD*%
%TO.N,VCC*%
X116290740Y-104920446D03*
%TO.P,D7,3,GND*%
%TO.N,GND*%
X116836474Y-105991508D03*
%TO.P,D7,4,DIN*%
%TO.N,Net-(D6-DOUT)*%
X117099138Y-105183110D03*
%TD*%
D21*
%TO.P,C18,1*%
%TO.N,VCC*%
X84317863Y-89388328D03*
%TO.P,C18,2*%
%TO.N,GND*%
X84882137Y-88611672D03*
%TD*%
D22*
%TO.P,C9,1*%
%TO.N,VCC*%
X111388328Y-115117863D03*
%TO.P,C9,2*%
%TO.N,GND*%
X110611672Y-115682137D03*
%TD*%
D23*
%TO.P,D1,1,DOUT*%
%TO.N,Net-(D1-DOUT)*%
X100345118Y-82973180D03*
%TO.P,D1,2,VDD*%
%TO.N,VCC*%
X99495118Y-82973180D03*
%TO.P,D1,3,GND*%
%TO.N,GND*%
X100345118Y-82123180D03*
%TO.P,D1,4,DIN*%
%TO.N,Net-(D1-DIN)*%
X99495118Y-82123180D03*
%TD*%
D24*
%TO.P,C17,1*%
%TO.N,VCC*%
X81851672Y-94685184D03*
%TO.P,C17,2*%
%TO.N,GND*%
X82148328Y-93772170D03*
%TD*%
D25*
%TO.P,C13,1*%
%TO.N,VCC*%
X89188328Y-115582137D03*
%TO.P,C13,2*%
%TO.N,GND*%
X88411672Y-115017863D03*
%TD*%
D26*
%TO.P,D8,1,DOUT*%
%TO.N,Net-(D8-DOUT)*%
X113484274Y-110428444D03*
%TO.P,D8,2,VDD*%
%TO.N,VCC*%
X113983892Y-109740780D03*
%TO.P,D8,3,GND*%
%TO.N,GND*%
X114171938Y-110928062D03*
%TO.P,D8,4,DIN*%
%TO.N,Net-(D7-DOUT)*%
X114671556Y-110240398D03*
%TD*%
D27*
%TO.P,C12,1*%
%TO.N,VCC*%
X94505184Y-118148328D03*
%TO.P,C12,2*%
%TO.N,GND*%
X93592170Y-117851672D03*
%TD*%
D23*
%TO.P,D6,1,DOUT*%
%TO.N,Net-(D6-DOUT)*%
X116995118Y-100473180D03*
%TO.P,D6,2,VDD*%
%TO.N,VCC*%
X116995118Y-99623180D03*
%TO.P,D6,3,GND*%
%TO.N,GND*%
X117845118Y-100473180D03*
%TO.P,D6,4,DIN*%
%TO.N,Net-(D5-DOUT)*%
X117845118Y-99623180D03*
%TD*%
D28*
%TO.P,C14,1*%
%TO.N,VCC*%
X84900000Y-111600000D03*
%TO.P,C14,2*%
%TO.N,GND*%
X84335726Y-110823344D03*
%TD*%
D29*
%TO.P,C21,1*%
%TO.N,VCC*%
X102600000Y-82700000D03*
%TO.P,C21,2*%
%TO.N,GND*%
X102600000Y-80800000D03*
%TD*%
D30*
%TO.P,C8,1*%
%TO.N,VCC*%
X115482137Y-110811672D03*
%TO.P,C8,2*%
%TO.N,GND*%
X114917863Y-111588328D03*
%TD*%
D31*
%TO.P,D15,1,DOUT*%
%TO.N,Net-(D15-DOUT)*%
X83549495Y-104920446D03*
%TO.P,D15,2,VDD*%
%TO.N,VCC*%
X83812159Y-105728844D03*
%TO.P,D15,3,GND*%
%TO.N,GND*%
X82741097Y-105183110D03*
%TO.P,D15,4,DIN*%
%TO.N,Net-(D14-DOUT)*%
X83003761Y-105991508D03*
%TD*%
D32*
%TO.P,D14,1,DOUT*%
%TO.N,Net-(D14-DOUT)*%
X85856343Y-109740780D03*
%TO.P,D14,2,VDD*%
%TO.N,VCC*%
X86355961Y-110428444D03*
%TO.P,D14,3,GND*%
%TO.N,GND*%
X85168679Y-110240398D03*
%TO.P,D14,4,DIN*%
%TO.N,Net-(D13-DOUT)*%
X85668297Y-110928062D03*
%TD*%
D23*
%TO.P,D11,1,DOUT*%
%TO.N,Net-(D11-DOUT)*%
X99495118Y-117123180D03*
%TO.P,D11,2,VDD*%
%TO.N,VCC*%
X100345118Y-117123180D03*
%TO.P,D11,3,GND*%
%TO.N,GND*%
X99495118Y-117973180D03*
%TO.P,D11,4,DIN*%
%TO.N,Net-(D10-DOUT)*%
X100345118Y-117973180D03*
%TD*%
D33*
%TO.P,D5,1,DOUT*%
%TO.N,Net-(D5-DOUT)*%
X116290740Y-95175913D03*
%TO.P,D5,2,VDD*%
%TO.N,VCC*%
X116028076Y-94367515D03*
%TO.P,D5,3,GND*%
%TO.N,GND*%
X117099138Y-94913249D03*
%TO.P,D5,4,DIN*%
%TO.N,Net-(D4-DOUT)*%
X116836474Y-94104851D03*
%TD*%
D23*
%TO.P,D16,1,DOUT*%
%TO.N,Net-(D16-DOUT)*%
X82845118Y-99623180D03*
%TO.P,D16,2,VDD*%
%TO.N,VCC*%
X82845118Y-100473180D03*
%TO.P,D16,3,GND*%
%TO.N,GND*%
X81995118Y-99623180D03*
%TO.P,D16,4,DIN*%
%TO.N,Net-(D15-DOUT)*%
X81995118Y-100473180D03*
%TD*%
D34*
%TO.P,D20,1,DOUT*%
%TO.N,Net-(D20-DOUT)*%
X95047851Y-83677557D03*
%TO.P,D20,2,VDD*%
%TO.N,VCC*%
X94239453Y-83940221D03*
%TO.P,D20,3,GND*%
%TO.N,GND*%
X94785187Y-82869159D03*
%TO.P,D20,4,DIN*%
%TO.N,Net-(D19-DOUT)*%
X93976789Y-83131823D03*
%TD*%
D35*
%TO.P,C10,1*%
%TO.N,VCC*%
X106200000Y-117900000D03*
%TO.P,C10,2*%
%TO.N,GND*%
X105286986Y-118196656D03*
%TD*%
D36*
%TO.P,C1,1*%
%TO.N,VCC*%
X99440000Y-81200000D03*
%TO.P,C1,2*%
%TO.N,GND*%
X100400000Y-81200000D03*
%TD*%
D37*
%TO.P,C16,1*%
%TO.N,VCC*%
X81000000Y-100580000D03*
%TO.P,C16,2*%
%TO.N,GND*%
X81000000Y-99620000D03*
%TD*%
D38*
%TO.P,C19,1*%
%TO.N,VCC*%
X88511672Y-85082137D03*
%TO.P,C19,2*%
%TO.N,GND*%
X89288328Y-84517863D03*
%TD*%
D15*
%TO.P,R1,1*%
%TO.N,/SIGNAL_IN*%
X97100000Y-81375000D03*
%TO.P,R1,2*%
%TO.N,Net-(D1-DIN)*%
X97100000Y-83200000D03*
%TD*%
D39*
%TO.P,C11,1*%
%TO.N,VCC*%
X100400000Y-119100000D03*
%TO.P,C11,2*%
%TO.N,GND*%
X99440000Y-119100000D03*
%TD*%
D40*
%TO.P,C4,1*%
%TO.N,VCC*%
X114917863Y-88611672D03*
%TO.P,C4,2*%
%TO.N,GND*%
X115482137Y-89388328D03*
%TD*%
D41*
%TO.P,D18,1,DOUT*%
%TO.N,Net-(D18-DOUT)*%
X86355961Y-89667915D03*
%TO.P,D18,2,VDD*%
%TO.N,VCC*%
X85856343Y-90355579D03*
%TO.P,D18,3,GND*%
%TO.N,GND*%
X85668297Y-89168297D03*
%TO.P,D18,4,DIN*%
%TO.N,Net-(D17-DOUT)*%
X85168679Y-89855961D03*
%TD*%
D42*
%TO.P,D12,1,DOUT*%
%TO.N,Net-(D12-DOUT)*%
X94239453Y-116156138D03*
%TO.P,D12,2,VDD*%
%TO.N,VCC*%
X95047851Y-116418802D03*
%TO.P,D12,3,GND*%
%TO.N,GND*%
X93976789Y-116964536D03*
%TO.P,D12,4,DIN*%
%TO.N,Net-(D11-DOUT)*%
X94785187Y-117227200D03*
%TD*%
D43*
%TO.P,C7,1*%
%TO.N,VCC*%
X118048328Y-105443493D03*
%TO.P,C7,2*%
%TO.N,GND*%
X117751672Y-106356507D03*
%TD*%
D44*
%TO.P,D3,1,DOUT*%
%TO.N,Net-(D3-DOUT)*%
X110300382Y-86484023D03*
%TO.P,D3,2,VDD*%
%TO.N,VCC*%
X109612718Y-85984405D03*
%TO.P,D3,3,GND*%
%TO.N,GND*%
X110800000Y-85796359D03*
%TO.P,D3,4,DIN*%
%TO.N,Net-(D2-DOUT)*%
X110112336Y-85296741D03*
%TD*%
D45*
%TO.P,C2,1*%
%TO.N,VCC*%
X105334815Y-81951672D03*
%TO.P,C2,2*%
%TO.N,GND*%
X106247829Y-82248328D03*
%TD*%
D46*
%TO.P,D9,1,DOUT*%
%TO.N,Net-(D10-DIN)*%
X109612718Y-114111954D03*
%TO.P,D9,2,VDD*%
%TO.N,VCC*%
X110300382Y-113612336D03*
%TO.P,D9,3,GND*%
%TO.N,GND*%
X110112336Y-114799618D03*
%TO.P,D9,4,DIN*%
%TO.N,Net-(D8-DOUT)*%
X110800000Y-114300000D03*
%TD*%
D47*
%TO.P,C15,1*%
%TO.N,VCC*%
X82048328Y-106356507D03*
%TO.P,C15,2*%
%TO.N,GND*%
X81751672Y-105443493D03*
%TD*%
D48*
%TO.P,D10,1,DOUT*%
%TO.N,Net-(D10-DOUT)*%
X104792384Y-116418802D03*
%TO.P,D10,2,VDD*%
%TO.N,VCC*%
X105600782Y-116156138D03*
%TO.P,D10,3,GND*%
%TO.N,GND*%
X105055048Y-117227200D03*
%TO.P,D10,4,DIN*%
%TO.N,Net-(D10-DIN)*%
X105863446Y-116964536D03*
%TD*%
D49*
%TO.P,C6,1*%
%TO.N,VCC*%
X118800000Y-99620000D03*
%TO.P,C6,2*%
%TO.N,GND*%
X118800000Y-100580000D03*
%TD*%
D50*
%TO.P,D17,1,DOUT*%
%TO.N,Net-(D17-DOUT)*%
X83812159Y-94367515D03*
%TO.P,D17,2,VDD*%
%TO.N,VCC*%
X83549495Y-95175913D03*
%TO.P,D17,3,GND*%
%TO.N,GND*%
X83003761Y-94104851D03*
%TO.P,D17,4,DIN*%
%TO.N,Net-(D16-DOUT)*%
X82741097Y-94913249D03*
%TD*%
D51*
%TO.N,GND*%
X85900000Y-88400000D03*
X98800000Y-118500000D03*
X81900000Y-98800000D03*
X117700000Y-95400000D03*
X116100000Y-90000000D03*
X88400000Y-113800000D03*
X109800000Y-115600000D03*
X93400000Y-116800000D03*
X118200000Y-101200000D03*
X104600000Y-117800000D03*
X114100000Y-111600000D03*
X95400000Y-82300000D03*
X117000000Y-106600000D03*
X106900000Y-82500000D03*
X101200000Y-81100000D03*
X90300000Y-84700000D03*
X112100000Y-85500000D03*
X82400000Y-104500000D03*
X84600000Y-109700000D03*
X83100000Y-93300000D03*
%TO.N,Net-(D1-DOUT)*%
X104477286Y-82636966D03*
X101100000Y-82900000D03*
%TO.N,Net-(D1-DIN)*%
X98800000Y-83400000D03*
X98862746Y-82162746D03*
%TO.N,Net-(D2-DOUT)*%
X106300000Y-84200000D03*
X109500000Y-84900000D03*
%TO.N,Net-(D3-DOUT)*%
X113800000Y-88600000D03*
X111200000Y-86500000D03*
%TO.N,Net-(D4-DOUT)*%
X116600000Y-93500000D03*
X114700000Y-90800000D03*
%TO.N,Net-(D5-DOUT)*%
X116900000Y-95800000D03*
X117800000Y-98900000D03*
%TO.N,Net-(D6-DOUT)*%
X117300000Y-101200000D03*
X117300000Y-104500000D03*
%TO.N,Net-(D7-DOUT)*%
X115200000Y-109700000D03*
X116100000Y-106600000D03*
%TO.N,Net-(D8-DOUT)*%
X113400000Y-111300000D03*
X111300000Y-114000000D03*
%TO.N,Net-(D10-DIN)*%
X109300000Y-114800000D03*
X106500000Y-116700000D03*
%TO.N,Net-(D10-DOUT)*%
X104200000Y-116900000D03*
X101000000Y-118000000D03*
%TO.N,Net-(D11-DOUT)*%
X98700000Y-117500000D03*
X95400000Y-117400000D03*
%TO.N,Net-(D12-DOUT)*%
X90300000Y-115100000D03*
X93600000Y-115900000D03*
%TO.N,Net-(D13-DOUT)*%
X86100000Y-111500000D03*
X88900000Y-113100000D03*
%TO.N,Net-(D14-DOUT)*%
X85400000Y-109100000D03*
X83200000Y-106600000D03*
%TO.N,Net-(D15-DOUT)*%
X83400000Y-104300000D03*
X82000000Y-101100000D03*
%TO.N,Net-(D16-DOUT)*%
X82800000Y-98900000D03*
X82500000Y-95600000D03*
%TO.N,Net-(D17-DOUT)*%
X84100000Y-93700000D03*
X84800000Y-90400000D03*
%TO.N,Net-(D18-DOUT)*%
X88500000Y-86200000D03*
X86800000Y-89100000D03*
%TO.N,Net-(D19-DOUT)*%
X93400000Y-83400000D03*
X90800000Y-85600000D03*
%TO.N,/SIGNAL_IN*%
X97900000Y-81315000D03*
%TO.N,/SIGNAL_OUT*%
X98500000Y-119200000D03*
%TD*%
D52*
%TO.N,VCC*%
X84245330Y-89949364D02*
X84317863Y-89388328D01*
X104514928Y-83400100D02*
X104036178Y-82921350D01*
X83599999Y-107099999D02*
X83512132Y-107158578D01*
X99220000Y-81200000D02*
X99440000Y-81200000D01*
X93596940Y-84139054D02*
X94239453Y-83940221D01*
X88068660Y-85746911D02*
X88511672Y-85082137D01*
X82755774Y-101043784D02*
X82845118Y-100473180D01*
X95554474Y-117947088D02*
X94505184Y-118148328D01*
X96120943Y-117362829D02*
X96100000Y-117300000D01*
X82162829Y-96262829D02*
X82150000Y-96250000D01*
X90218292Y-115674686D02*
X89188328Y-115582137D01*
D53*
X102600000Y-82700000D02*
X104000000Y-81300000D01*
D52*
X104514928Y-83400100D02*
X104699899Y-83585071D01*
X83873032Y-106540454D02*
X83812159Y-105728844D01*
X98567111Y-82667111D02*
X98476776Y-82576776D01*
X84250000Y-90650000D02*
X84261921Y-90733447D01*
X89041227Y-86730991D02*
X89539853Y-86484023D01*
X99097969Y-82887000D02*
X99408938Y-82887000D01*
X82630380Y-107009660D02*
X82048328Y-106356507D01*
X90900000Y-115000000D02*
X90900000Y-115017157D01*
X98476776Y-81723223D02*
X98844436Y-81355563D01*
X95730084Y-116835241D02*
X95047851Y-116418802D01*
X104665343Y-81951672D02*
X105334815Y-81951672D01*
X81887013Y-95646685D02*
X81851672Y-94685184D01*
X82399999Y-101599999D02*
X82353058Y-101631294D01*
X90674164Y-114502520D02*
X90227517Y-114111954D01*
X104699899Y-83585071D02*
X104792384Y-83677557D01*
X92923435Y-83908589D02*
X92900000Y-83850000D01*
X92749999Y-83300000D02*
X92755734Y-83334405D01*
X85010318Y-91031875D02*
X85856343Y-90355579D01*
X83158584Y-95904448D02*
X83549495Y-95175913D01*
X104036178Y-82263821D02*
X104124164Y-82175836D01*
X81376017Y-101422279D02*
X81000000Y-100580000D01*
X92937875Y-82810486D02*
X93643493Y-82248328D01*
X88279547Y-86719805D02*
X88350000Y-86750000D01*
X88349994Y-86750013D02*
G75*
G03*
X89041227Y-86730990I325006J758413D01*
G01*
X103899998Y-82592586D02*
G75*
G03*
X104036179Y-82921349I464902J-14D01*
G01*
X84245325Y-89949363D02*
G75*
G03*
X84250000Y-90650000I2576975J-333137D01*
G01*
X90899983Y-115000000D02*
G75*
G03*
X90674164Y-114502520I-660883J0D01*
G01*
X90700033Y-115500033D02*
G75*
G03*
X90900000Y-115017157I-482933J482833D01*
G01*
X88068648Y-85746903D02*
G75*
G03*
X87950000Y-86300000I640152J-426597D01*
G01*
X81376000Y-101422287D02*
G75*
G03*
X81800000Y-101750000I517100J230887D01*
G01*
X99220000Y-81199992D02*
G75*
G03*
X98844436Y-81355563I0J-531108D01*
G01*
X104665343Y-81951699D02*
G75*
G03*
X104124164Y-82175836I-43J-765301D01*
G01*
X92937895Y-82810511D02*
G75*
G03*
X92749999Y-83300000I322205J-404489D01*
G01*
X84550007Y-91099981D02*
G75*
G03*
X85010318Y-91031875I171693J429181D01*
G01*
X98299985Y-82150000D02*
G75*
G03*
X98476776Y-82576776I603515J0D01*
G01*
X83050000Y-107250000D02*
G75*
G03*
X83512132Y-107158578I120700J603600D01*
G01*
X98567115Y-82667107D02*
G75*
G03*
X99097969Y-82887000I530885J530907D01*
G01*
X95554474Y-117947086D02*
G75*
G03*
X96000000Y-117750000I-203874J1062986D01*
G01*
X93200002Y-84149993D02*
G75*
G03*
X93596940Y-84139053I178898J715593D01*
G01*
X82400015Y-101600024D02*
G75*
G03*
X82755773Y-101043784I-455515J683224D01*
G01*
X92755726Y-83334406D02*
G75*
G03*
X92900001Y-83850000I2456874J409506D01*
G01*
X82699999Y-96349998D02*
G75*
G03*
X83158583Y-95904448I-472599J945198D01*
G01*
X104036195Y-82263838D02*
G75*
G03*
X103900000Y-82592586I328705J-328762D01*
G01*
X95999987Y-117749982D02*
G75*
G03*
X96120942Y-117362829I-208087J277482D01*
G01*
X82630381Y-107009659D02*
G75*
G03*
X83050000Y-107250000I569119J507159D01*
G01*
X98476788Y-81723235D02*
G75*
G03*
X98300000Y-82150000I426712J-426765D01*
G01*
X84261955Y-90733442D02*
G75*
G03*
X84550000Y-91099999I461045J65842D01*
G01*
X90218292Y-115674691D02*
G75*
G03*
X90699999Y-115499999I54108J602291D01*
G01*
X81799995Y-101750032D02*
G75*
G03*
X82353058Y-101631294I126405J758632D01*
G01*
X92923417Y-83908596D02*
G75*
G03*
X93200000Y-84149999I374383J149796D01*
G01*
X96099976Y-117300008D02*
G75*
G03*
X95730084Y-116835241I-820576J-273492D01*
G01*
X81887003Y-95646685D02*
G75*
G03*
X82150000Y-96250000I899397J33085D01*
G01*
X83600006Y-107100009D02*
G75*
G03*
X83873031Y-106540454I-342306J513409D01*
G01*
X82162845Y-96262813D02*
G75*
G03*
X82700000Y-96349999I329055J329013D01*
G01*
X87950060Y-86299990D02*
G75*
G03*
X88279547Y-86719805I548640J91390D01*
G01*
%TO.N,GND*%
X116836474Y-105991508D02*
X117751672Y-106356507D01*
X85168679Y-110240398D02*
X84335726Y-110823344D01*
X85668297Y-89168297D02*
X85900000Y-88400000D01*
X99495118Y-117973180D02*
X99440000Y-119100000D01*
X89727899Y-85296741D02*
X89288328Y-84517863D01*
X106470369Y-82248328D02*
X106247829Y-82248328D01*
X116836474Y-105991508D02*
X117000000Y-106600000D01*
X82741097Y-105183110D02*
X81751672Y-105443493D01*
X118200000Y-101200000D02*
X117845118Y-100473180D01*
X112100000Y-85500000D02*
X111786014Y-85186014D01*
X114171938Y-110928062D02*
X114100000Y-111600000D01*
X115017938Y-89509578D02*
X114671556Y-89855961D01*
X105863446Y-82882267D02*
X105863446Y-83131823D01*
X85668297Y-89168297D02*
X84882137Y-88611672D01*
X90300000Y-84700000D02*
X89727899Y-85296741D01*
X117099138Y-94913249D02*
X118048328Y-94685184D01*
X106774164Y-82374164D02*
X106900000Y-82500000D01*
X106039908Y-82456248D02*
X106247829Y-82248328D01*
X93976789Y-116964536D02*
X93592170Y-117851672D01*
X116100000Y-90000000D02*
X115488328Y-89388328D01*
X93400000Y-116800000D02*
X93976789Y-116964536D01*
X94785187Y-82869159D02*
X94556507Y-81951672D01*
X83003761Y-94104851D02*
X82148328Y-93772170D01*
X81995118Y-99623180D02*
X81000000Y-99620000D01*
X110112336Y-114799618D02*
X109800000Y-115600000D01*
X104600000Y-117800000D02*
X105055048Y-117227200D01*
X82741097Y-105183110D02*
X82400000Y-104500000D01*
X105055048Y-117227200D02*
X105286986Y-118196656D01*
D53*
X102600000Y-78860000D02*
X102440000Y-78700000D01*
D52*
X117845118Y-100473180D02*
X118800000Y-100580000D01*
X110112336Y-114799618D02*
X110611672Y-115682137D01*
X99495118Y-117973180D02*
X98800000Y-118500000D01*
X81995118Y-99623180D02*
X81900000Y-98800000D01*
X111388328Y-85208031D02*
X110800000Y-85796359D01*
X85168679Y-110240398D02*
X84600000Y-109700000D01*
X100400000Y-81200000D02*
X100400000Y-82068298D01*
X111535232Y-85082137D02*
X111388328Y-85082137D01*
X115310663Y-89388328D02*
X115482137Y-89388328D01*
D53*
X102600000Y-80800000D02*
X102600000Y-78860000D01*
D52*
X94785187Y-82869159D02*
X95400000Y-82300000D01*
X83100000Y-93300000D02*
X83003761Y-94104851D01*
X88400000Y-113800000D02*
X89040235Y-114300000D01*
X89040235Y-114300000D02*
X88411672Y-115017863D01*
X117099138Y-94913249D02*
X117700000Y-95400000D01*
X114171938Y-110928062D02*
X114917863Y-111588328D01*
X101200000Y-81100000D02*
X100500000Y-81100000D01*
X106774188Y-82374140D02*
G75*
G03*
X106470369Y-82248328I-303788J-303860D01*
G01*
X106039931Y-82456271D02*
G75*
G03*
X105863446Y-82882267I425969J-426029D01*
G01*
X111785999Y-85186029D02*
G75*
G03*
X111535232Y-85082137I-250799J-250771D01*
G01*
X115310663Y-89388301D02*
G75*
G03*
X115017939Y-89509579I37J-413999D01*
G01*
%TO.N,Net-(D1-DOUT)*%
X101100000Y-82900000D02*
X100418298Y-82900000D01*
X104938951Y-82753062D02*
X105055048Y-82869159D01*
X104477286Y-82636966D02*
X104658669Y-82636966D01*
X104938957Y-82753056D02*
G75*
G03*
X104658669Y-82636966I-280257J-280244D01*
G01*
%TO.N,Net-(D1-DIN)*%
X98930289Y-82123180D02*
X99495118Y-82123180D01*
X98882529Y-82142963D02*
X98862746Y-82162746D01*
X98800000Y-83400000D02*
X97300000Y-83400000D01*
X98930289Y-82123166D02*
G75*
G03*
X98882529Y-82142963I11J-67534D01*
G01*
%TO.N,Net-(D2-DOUT)*%
X106300000Y-84200000D02*
X105600782Y-83940221D01*
X109500000Y-84900000D02*
X110112336Y-85296741D01*
%TO.N,Net-(D3-DOUT)*%
X113800000Y-88600000D02*
X114171938Y-89168297D01*
X111200000Y-86500000D02*
X110300382Y-86484023D01*
%TO.N,Net-(D4-DOUT)*%
X114700000Y-90800000D02*
X113983892Y-90355579D01*
X116600000Y-93500000D02*
X116836474Y-94104851D01*
%TO.N,Net-(D5-DOUT)*%
X117800000Y-98900000D02*
X117845118Y-99623180D01*
X116900000Y-95800000D02*
X116290740Y-95175913D01*
%TO.N,Net-(D6-DOUT)*%
X117300000Y-104500000D02*
X117099138Y-105183110D01*
X117300000Y-101200000D02*
X116995118Y-100473180D01*
%TO.N,Net-(D7-DOUT)*%
X116100000Y-106600000D02*
X116028076Y-105728844D01*
X115200000Y-109700000D02*
X114671556Y-110240398D01*
%TO.N,Net-(D8-DOUT)*%
X111300000Y-114000000D02*
X110800000Y-114300000D01*
X113400000Y-111300000D02*
X113484274Y-110428444D01*
%TO.N,Net-(D10-DIN)*%
X109300000Y-114800000D02*
X109612718Y-114111954D01*
X106500000Y-116700000D02*
X105863446Y-116964536D01*
%TO.N,Net-(D10-DOUT)*%
X104200000Y-116900000D02*
X104792384Y-116418802D01*
X101000000Y-118000000D02*
X100345118Y-117973180D01*
%TO.N,Net-(D11-DOUT)*%
X95400000Y-117400000D02*
X94785187Y-117227200D01*
X98700000Y-117500000D02*
X99495118Y-117123180D01*
%TO.N,Net-(D12-DOUT)*%
X93600000Y-115900000D02*
X94239453Y-116156138D01*
X90300000Y-115100000D02*
X89727899Y-114799618D01*
%TO.N,Net-(D13-DOUT)*%
X88900000Y-113100000D02*
X89539853Y-113612336D01*
X86100000Y-111500000D02*
X85668297Y-110928062D01*
%TO.N,Net-(D14-DOUT)*%
X85400000Y-109100000D02*
X85856343Y-109740780D01*
X83200000Y-106600000D02*
X83003761Y-105991508D01*
%TO.N,Net-(D15-DOUT)*%
X83400000Y-104300000D02*
X83549495Y-104920446D01*
X82000000Y-101100000D02*
X81995118Y-100473180D01*
%TO.N,Net-(D16-DOUT)*%
X82800000Y-98900000D02*
X82845118Y-99623180D01*
X82500000Y-95600000D02*
X82741097Y-94913249D01*
%TO.N,Net-(D17-DOUT)*%
X84100000Y-93700000D02*
X83812159Y-94367515D01*
X84800000Y-90400000D02*
X85168679Y-89855961D01*
%TO.N,Net-(D18-DOUT)*%
X88500000Y-86200000D02*
X89040235Y-85796359D01*
X86800000Y-89100000D02*
X86355961Y-89667915D01*
%TO.N,Net-(D19-DOUT)*%
X90800000Y-85600000D02*
X90227517Y-85984405D01*
X93400000Y-83400000D02*
X93976789Y-83131823D01*
%TO.N,Net-(D20-DOUT)*%
X84548964Y-105067880D02*
X84192998Y-103847424D01*
X86579261Y-109171854D02*
X86799962Y-109471377D01*
X96431174Y-115957314D02*
X95750000Y-115750000D01*
X97200000Y-116487500D02*
X97500000Y-116875000D01*
X89609368Y-112449792D02*
X89550000Y-112400000D01*
X86495015Y-90862755D02*
X86400000Y-91000000D01*
X94973925Y-84088778D02*
X95047851Y-83677557D01*
X84488293Y-95267670D02*
X84989807Y-93796564D01*
X88299999Y-88699999D02*
X88465584Y-88534415D01*
X92850000Y-114549999D02*
X93518717Y-114874805D01*
X94524287Y-84682778D02*
X92261135Y-85783771D01*
X83799999Y-98199999D02*
X83785500Y-98308745D01*
X89609360Y-112449801D02*
G75*
G03*
X92850000Y-114549999I10123340J12070201D01*
G01*
X83699995Y-101100000D02*
G75*
G03*
X84192999Y-103847424I13127605J937700D01*
G01*
X84488299Y-95267672D02*
G75*
G03*
X83800000Y-98199999I14568701J-4966628D01*
G01*
X92261137Y-85783775D02*
G75*
G03*
X90250000Y-87000001I5649363J-11612625D01*
G01*
X86799962Y-109471377D02*
G75*
G03*
X89550000Y-112400000I13628938J10042377D01*
G01*
X88299998Y-88699998D02*
G75*
G03*
X86495015Y-90862755I11090102J-11090102D01*
G01*
X97199999Y-116487501D02*
G75*
G03*
X96431174Y-115957314I-1216899J-942099D01*
G01*
X86400009Y-91000006D02*
G75*
G03*
X84989807Y-93796564I9326391J-6456794D01*
G01*
X93518719Y-114874801D02*
G75*
G03*
X95750000Y-115749999I6688981J13771401D01*
G01*
X90249999Y-86999999D02*
G75*
G03*
X88465584Y-88534415I9292601J-12611401D01*
G01*
X94524302Y-84682809D02*
G75*
G03*
X94973925Y-84088778I-359802J739509D01*
G01*
X84548952Y-105067883D02*
G75*
G03*
X86579262Y-109171854I12579248J3668983D01*
G01*
X83785496Y-98308744D02*
G75*
G03*
X83700001Y-101100000I13601804J-1813556D01*
G01*
%TO.N,/SIGNAL_IN*%
X97797573Y-81375000D02*
X97100000Y-81375000D01*
X97900000Y-81315000D02*
X97870000Y-81345000D01*
X97797573Y-81374989D02*
G75*
G03*
X97870000Y-81345000I27J102389D01*
G01*
%TO.N,/SIGNAL_OUT*%
X98500000Y-119200000D02*
X97500000Y-118800000D01*
%TD*%
%TA.AperFunction,Conductor*%
%TO.N,VCC*%
G36*
X104258691Y-76819407D02*
G01*
X104294655Y-76868907D01*
X104299500Y-76899500D01*
X104299500Y-80489198D01*
X104298447Y-80498891D01*
X104300066Y-80501414D01*
X104303241Y-80502412D01*
X104311985Y-80503426D01*
X104788232Y-80619138D01*
X105145294Y-80705892D01*
X105149472Y-80707004D01*
X105228106Y-80729788D01*
X105884104Y-80919868D01*
X105977974Y-80947178D01*
X105985608Y-80949399D01*
X105989633Y-80950663D01*
X106596632Y-81155676D01*
X106818490Y-81231052D01*
X106822388Y-81232468D01*
X107369263Y-81444208D01*
X107638168Y-81549098D01*
X107641883Y-81550637D01*
X108151321Y-81773931D01*
X108443017Y-81902908D01*
X108446587Y-81904574D01*
X108928448Y-82141383D01*
X109231457Y-82291780D01*
X109234928Y-82293590D01*
X109694357Y-82544856D01*
X109800605Y-82603608D01*
X110002081Y-82715019D01*
X110005367Y-82716920D01*
X110445226Y-82983075D01*
X110753261Y-83171732D01*
X110756410Y-83173744D01*
X110934788Y-83292621D01*
X111178060Y-83454746D01*
X111483599Y-83661064D01*
X111486643Y-83663204D01*
X111560164Y-83716981D01*
X111891008Y-83958980D01*
X111952997Y-84004973D01*
X112191709Y-84182088D01*
X112194599Y-84184316D01*
X112582023Y-84494556D01*
X112876175Y-84733759D01*
X112878911Y-84736068D01*
X113249560Y-85060432D01*
X113535686Y-85315021D01*
X113538264Y-85317397D01*
X113892186Y-85655532D01*
X113957581Y-85719139D01*
X114168935Y-85924716D01*
X114171357Y-85927155D01*
X114313117Y-86074961D01*
X114433041Y-86200000D01*
X114508345Y-86278515D01*
X114637213Y-86415506D01*
X114774768Y-86561733D01*
X114777032Y-86564224D01*
X115096885Y-86928296D01*
X115351957Y-87224784D01*
X115353998Y-87227238D01*
X115566121Y-87491087D01*
X115656523Y-87603534D01*
X115899327Y-87912508D01*
X115901277Y-87915075D01*
X116186119Y-88302918D01*
X116415933Y-88623711D01*
X116417729Y-88626303D01*
X116684592Y-89025066D01*
X116900726Y-89356952D01*
X116902368Y-89359561D01*
X117150933Y-89768563D01*
X117352769Y-90110814D01*
X117354258Y-90113430D01*
X117584196Y-90531938D01*
X117771188Y-90883838D01*
X117772529Y-90886455D01*
X117983563Y-91313784D01*
X118155146Y-91674469D01*
X118156341Y-91677077D01*
X118348215Y-92112542D01*
X118503932Y-92481231D01*
X118504984Y-92483823D01*
X118635558Y-92819139D01*
X118675338Y-92921295D01*
X118677423Y-92926648D01*
X118816872Y-93302563D01*
X118817785Y-93305132D01*
X118970538Y-93754535D01*
X119093347Y-94136839D01*
X119094125Y-94139378D01*
X119226972Y-94594563D01*
X119332831Y-94982455D01*
X119333479Y-94984957D01*
X119446234Y-95445163D01*
X119534857Y-95837758D01*
X119535379Y-95840216D01*
X119627871Y-96304616D01*
X119699045Y-96701129D01*
X119699447Y-96703537D01*
X119771530Y-97171276D01*
X119825073Y-97570843D01*
X119825359Y-97573196D01*
X119876817Y-98042476D01*
X119877017Y-98044487D01*
X119912695Y-98445181D01*
X119912873Y-98447478D01*
X119943786Y-98918546D01*
X119943900Y-98920635D01*
X119961759Y-99322570D01*
X119961833Y-99324801D01*
X119972141Y-99796587D01*
X119972165Y-99798750D01*
X119972165Y-100201248D01*
X119972141Y-100203411D01*
X119961833Y-100675197D01*
X119961759Y-100677428D01*
X119943900Y-101079363D01*
X119943786Y-101081452D01*
X119912873Y-101552520D01*
X119912695Y-101554817D01*
X119877017Y-101955511D01*
X119876817Y-101957522D01*
X119825359Y-102426799D01*
X119825072Y-102429157D01*
X119771530Y-102828723D01*
X119699447Y-103296460D01*
X119699046Y-103298868D01*
X119627871Y-103695383D01*
X119535378Y-104159783D01*
X119534856Y-104162241D01*
X119446234Y-104554836D01*
X119333479Y-105015042D01*
X119332831Y-105017544D01*
X119226972Y-105405436D01*
X119094125Y-105860620D01*
X119093347Y-105863159D01*
X118970538Y-106245464D01*
X118817785Y-106694866D01*
X118816872Y-106697435D01*
X118677423Y-107073351D01*
X118504984Y-107516175D01*
X118503932Y-107518767D01*
X118348215Y-107887457D01*
X118156340Y-108322922D01*
X118155146Y-108325530D01*
X117983563Y-108686215D01*
X117772529Y-109113543D01*
X117771188Y-109116160D01*
X117584197Y-109468060D01*
X117354258Y-109886567D01*
X117352769Y-109889184D01*
X117150933Y-110231436D01*
X116902367Y-110640438D01*
X116900725Y-110643046D01*
X116684592Y-110974932D01*
X116417729Y-111373696D01*
X116415933Y-111376288D01*
X116186120Y-111697081D01*
X115901277Y-112084922D01*
X115899327Y-112087489D01*
X115656523Y-112396465D01*
X115354027Y-112772724D01*
X115351920Y-112775257D01*
X115096885Y-113071703D01*
X114777033Y-113435775D01*
X114774768Y-113438266D01*
X114508373Y-113721455D01*
X114171357Y-114072843D01*
X114168935Y-114075282D01*
X113892169Y-114344484D01*
X113538265Y-114682599D01*
X113535686Y-114684977D01*
X113249560Y-114939567D01*
X112878912Y-115263931D01*
X112876176Y-115266239D01*
X112582023Y-115505443D01*
X112194600Y-115815682D01*
X112191709Y-115817911D01*
X111890957Y-116041057D01*
X111486643Y-116336794D01*
X111483599Y-116338934D01*
X111178061Y-116545253D01*
X110756433Y-116826239D01*
X110753237Y-116828281D01*
X110445146Y-117016973D01*
X110005395Y-117283061D01*
X110002052Y-117284996D01*
X109694357Y-117455144D01*
X109234927Y-117706409D01*
X109231439Y-117708227D01*
X108928471Y-117858605D01*
X108446616Y-118095409D01*
X108442986Y-118097103D01*
X108151261Y-118226094D01*
X107641908Y-118449350D01*
X107638142Y-118450910D01*
X107369226Y-118555806D01*
X106822388Y-118767530D01*
X106818490Y-118768946D01*
X106596672Y-118844309D01*
X105989632Y-119049335D01*
X105985609Y-119050599D01*
X105892709Y-119077627D01*
X105883271Y-119080372D01*
X105149461Y-119292998D01*
X105145282Y-119294110D01*
X104311592Y-119496667D01*
X104303214Y-119497673D01*
X104300006Y-119498676D01*
X104298444Y-119501118D01*
X104299500Y-119510824D01*
X104299500Y-123100500D01*
X104280593Y-123158691D01*
X104231093Y-123194655D01*
X104200500Y-123199500D01*
X95599500Y-123199500D01*
X95541309Y-123180593D01*
X95505345Y-123131093D01*
X95500500Y-123100500D01*
X95500500Y-121650000D01*
X96029364Y-121650000D01*
X96086570Y-121863495D01*
X96186398Y-122077576D01*
X96321887Y-122271074D01*
X96488925Y-122438112D01*
X96682423Y-122573601D01*
X96896504Y-122673429D01*
X97110000Y-122730634D01*
X97110000Y-121835501D01*
X97217685Y-121884680D01*
X97324237Y-121900000D01*
X97395763Y-121900000D01*
X97502315Y-121884680D01*
X97610000Y-121835501D01*
X97610000Y-122730633D01*
X97823495Y-122673429D01*
X98037576Y-122573601D01*
X98231074Y-122438112D01*
X98398112Y-122271074D01*
X98533601Y-122077576D01*
X98633429Y-121863494D01*
X98639958Y-121839130D01*
X98673281Y-121787815D01*
X98730402Y-121765888D01*
X98789503Y-121781723D01*
X98824206Y-121820624D01*
X98917634Y-122008256D01*
X99046125Y-122178404D01*
X99203699Y-122322053D01*
X99335622Y-122403736D01*
X99384981Y-122434298D01*
X99541681Y-122495003D01*
X99583804Y-122511322D01*
X99793388Y-122550500D01*
X99793390Y-122550500D01*
X100006612Y-122550500D01*
X100216195Y-122511322D01*
X100216198Y-122511321D01*
X100415019Y-122434298D01*
X100596302Y-122322052D01*
X100629240Y-122292025D01*
X101289500Y-122292025D01*
X101289501Y-122294864D01*
X101289828Y-122297687D01*
X101289829Y-122297697D01*
X101291961Y-122316081D01*
X101292415Y-122319991D01*
X101312451Y-122365368D01*
X101337793Y-122422764D01*
X101337793Y-122422765D01*
X101337794Y-122422765D01*
X101417235Y-122502206D01*
X101520009Y-122547585D01*
X101545135Y-122550500D01*
X103334864Y-122550499D01*
X103359991Y-122547585D01*
X103462765Y-122502206D01*
X103542206Y-122422765D01*
X103587585Y-122319991D01*
X103590500Y-122294865D01*
X103590499Y-120505136D01*
X103587585Y-120480009D01*
X103542206Y-120377235D01*
X103462765Y-120297794D01*
X103462764Y-120297793D01*
X103359989Y-120252414D01*
X103337714Y-120249830D01*
X103337704Y-120249829D01*
X103334865Y-120249500D01*
X103332000Y-120249500D01*
X101547991Y-120249500D01*
X101547973Y-120249500D01*
X101545136Y-120249501D01*
X101542313Y-120249828D01*
X101542302Y-120249829D01*
X101520009Y-120252415D01*
X101417235Y-120297793D01*
X101337793Y-120377235D01*
X101292414Y-120480010D01*
X101289830Y-120502285D01*
X101289829Y-120502296D01*
X101289500Y-120505135D01*
X101289500Y-120507991D01*
X101289500Y-120507999D01*
X101289500Y-122292008D01*
X101289500Y-122292025D01*
X100629240Y-122292025D01*
X100753872Y-122178407D01*
X100882366Y-122008255D01*
X100977405Y-121817389D01*
X101035756Y-121612310D01*
X101055429Y-121400000D01*
X101035756Y-121187690D01*
X100977405Y-120982611D01*
X100882366Y-120791745D01*
X100882365Y-120791744D01*
X100882365Y-120791743D01*
X100753874Y-120621595D01*
X100596300Y-120477946D01*
X100415021Y-120365703D01*
X100415019Y-120365702D01*
X100372898Y-120349384D01*
X100216195Y-120288677D01*
X100006612Y-120249500D01*
X100006610Y-120249500D01*
X99793390Y-120249500D01*
X99793388Y-120249500D01*
X99583804Y-120288677D01*
X99384978Y-120365703D01*
X99203699Y-120477946D01*
X99046125Y-120621595D01*
X98917634Y-120791743D01*
X98824206Y-120979375D01*
X98781343Y-121023037D01*
X98721002Y-121033167D01*
X98666231Y-121005895D01*
X98639958Y-120960870D01*
X98633429Y-120936504D01*
X98533601Y-120722424D01*
X98398112Y-120528925D01*
X98231074Y-120361887D01*
X98037576Y-120226398D01*
X97823495Y-120126570D01*
X97610000Y-120069364D01*
X97610000Y-120964498D01*
X97502315Y-120915320D01*
X97395763Y-120900000D01*
X97324237Y-120900000D01*
X97217685Y-120915320D01*
X97110000Y-120964498D01*
X97110000Y-120069364D01*
X96896505Y-120126570D01*
X96682424Y-120226398D01*
X96488925Y-120361887D01*
X96321887Y-120528925D01*
X96186398Y-120722424D01*
X96086570Y-120936505D01*
X96029364Y-121150000D01*
X96926314Y-121150000D01*
X96900507Y-121190156D01*
X96860000Y-121328111D01*
X96860000Y-121471889D01*
X96900507Y-121609844D01*
X96926314Y-121650000D01*
X96029364Y-121650000D01*
X95500500Y-121650000D01*
X95500499Y-119510934D01*
X95501574Y-119501150D01*
X95499972Y-119498643D01*
X95497234Y-119497784D01*
X95488674Y-119496732D01*
X94654712Y-119294109D01*
X94650532Y-119292997D01*
X93916728Y-119080372D01*
X93903026Y-119076386D01*
X93814389Y-119050599D01*
X93810366Y-119049335D01*
X93203327Y-118844309D01*
X92981508Y-118768946D01*
X92977610Y-118767530D01*
X92484044Y-118576431D01*
X92430727Y-118555788D01*
X92161856Y-118450910D01*
X92158090Y-118449350D01*
X91648738Y-118226094D01*
X91357012Y-118097104D01*
X91353382Y-118095410D01*
X90871528Y-117858605D01*
X90568559Y-117708227D01*
X90565070Y-117706409D01*
X90138293Y-117473001D01*
X90105618Y-117455130D01*
X90086845Y-117444750D01*
X89797946Y-117284996D01*
X89794602Y-117283061D01*
X89373206Y-117028078D01*
X89354826Y-117016956D01*
X89270598Y-116965371D01*
X89163861Y-116899999D01*
X89046761Y-116828281D01*
X89043565Y-116826239D01*
X88621939Y-116545253D01*
X88316399Y-116338934D01*
X88313355Y-116336794D01*
X87912668Y-116043709D01*
X87909024Y-116041044D01*
X87903672Y-116037073D01*
X87849872Y-115997155D01*
X87608289Y-115817910D01*
X87605399Y-115815682D01*
X87217976Y-115505443D01*
X86923823Y-115266239D01*
X86921087Y-115263931D01*
X86913351Y-115257161D01*
X86550439Y-114939567D01*
X86393583Y-114800000D01*
X86264312Y-114684977D01*
X86261732Y-114682599D01*
X86158150Y-114583638D01*
X85907803Y-114344458D01*
X85631063Y-114075282D01*
X85628641Y-114072843D01*
X85424993Y-113860510D01*
X85291590Y-113721417D01*
X85025230Y-113438265D01*
X85022966Y-113435774D01*
X84703114Y-113071703D01*
X84638105Y-112996139D01*
X84448032Y-112775203D01*
X84446011Y-112772773D01*
X84143459Y-112396443D01*
X84022483Y-112242498D01*
X83900656Y-112087470D01*
X83898720Y-112084923D01*
X83898719Y-112084922D01*
X83800285Y-111950894D01*
X83613879Y-111697081D01*
X83384065Y-111376288D01*
X83382269Y-111373695D01*
X83115407Y-110974933D01*
X82899272Y-110643046D01*
X82897630Y-110640437D01*
X82815058Y-110504569D01*
X82649051Y-110231411D01*
X82644227Y-110223231D01*
X82447229Y-109889184D01*
X82445739Y-109886567D01*
X82215802Y-109468060D01*
X82083531Y-109219139D01*
X82028797Y-109116134D01*
X82027483Y-109113571D01*
X81816436Y-108686215D01*
X81686741Y-108413583D01*
X81644837Y-108325497D01*
X81643683Y-108322978D01*
X81451782Y-107887453D01*
X81296066Y-107518767D01*
X81295014Y-107516175D01*
X81122564Y-107073319D01*
X80983107Y-106697383D01*
X80982233Y-106694924D01*
X80829461Y-106245464D01*
X80773434Y-106071052D01*
X80706640Y-105863123D01*
X80705873Y-105860620D01*
X80702163Y-105847909D01*
X80603139Y-105508611D01*
X80573027Y-105405436D01*
X80551429Y-105326297D01*
X80467143Y-105017451D01*
X80466544Y-105015137D01*
X80353761Y-104554818D01*
X80265118Y-104162134D01*
X80264637Y-104159866D01*
X80172126Y-103695374D01*
X80100953Y-103298868D01*
X80100558Y-103296506D01*
X80028465Y-102828695D01*
X79974910Y-102429038D01*
X79974650Y-102426894D01*
X79923170Y-101957420D01*
X79922991Y-101955612D01*
X79887295Y-101554726D01*
X79887132Y-101552613D01*
X79856207Y-101081378D01*
X79856102Y-101079444D01*
X79838235Y-100677318D01*
X79838168Y-100675309D01*
X79827859Y-100203410D01*
X79827835Y-100201248D01*
X79827835Y-99813066D01*
X80389500Y-99813066D01*
X80389714Y-99815355D01*
X80389715Y-99815362D01*
X80392290Y-99842821D01*
X80436147Y-99968156D01*
X80436148Y-99968157D01*
X80515001Y-100074999D01*
X80621843Y-100153852D01*
X80747181Y-100197710D01*
X80776934Y-100200500D01*
X80779245Y-100200500D01*
X81220755Y-100200500D01*
X81223066Y-100200500D01*
X81252819Y-100197710D01*
X81308604Y-100178190D01*
X81337920Y-100167932D01*
X81399090Y-100166559D01*
X81449385Y-100201402D01*
X81469593Y-100259154D01*
X81469618Y-100261376D01*
X81469618Y-100740188D01*
X81469618Y-100740205D01*
X81469619Y-100743044D01*
X81469946Y-100745868D01*
X81469947Y-100745876D01*
X81472533Y-100768171D01*
X81491057Y-100810125D01*
X81497264Y-100870995D01*
X81491957Y-100887996D01*
X81463669Y-100956291D01*
X81444750Y-101100000D01*
X81463669Y-101243709D01*
X81490214Y-101307794D01*
X81519139Y-101377625D01*
X81545186Y-101411570D01*
X81607378Y-101492621D01*
X81657306Y-101530932D01*
X81722375Y-101580861D01*
X81806101Y-101615541D01*
X81856290Y-101636330D01*
X81873008Y-101638531D01*
X82000000Y-101655250D01*
X82143709Y-101636330D01*
X82277625Y-101580861D01*
X82392621Y-101492621D01*
X82480861Y-101377625D01*
X82536330Y-101243709D01*
X82555250Y-101100000D01*
X82536330Y-100956291D01*
X82503315Y-100876586D01*
X82498515Y-100815592D01*
X82504211Y-100798724D01*
X82517703Y-100768171D01*
X82520618Y-100743045D01*
X82520617Y-100247678D01*
X82539524Y-100189488D01*
X82589024Y-100153524D01*
X82619611Y-100148679D01*
X83114982Y-100148679D01*
X83140109Y-100145765D01*
X83160313Y-100136843D01*
X83221181Y-100130634D01*
X83274075Y-100161388D01*
X83298791Y-100217359D01*
X83299297Y-100228418D01*
X83298983Y-100259154D01*
X83298920Y-100265330D01*
X83298949Y-100266301D01*
X83298950Y-100266335D01*
X83316427Y-100838460D01*
X83316458Y-100839464D01*
X83316529Y-100840461D01*
X83316530Y-100840476D01*
X83334259Y-101088625D01*
X83334254Y-101088642D01*
X83357328Y-101411570D01*
X83357331Y-101411602D01*
X83357405Y-101412638D01*
X83357521Y-101413653D01*
X83357524Y-101413685D01*
X83422572Y-101982777D01*
X83422575Y-101982802D01*
X83422688Y-101983787D01*
X83422845Y-101984785D01*
X83422848Y-101984805D01*
X83492501Y-102426799D01*
X83512176Y-102551647D01*
X83512379Y-102552655D01*
X83512385Y-102552688D01*
X83625497Y-103114140D01*
X83625505Y-103114178D01*
X83625710Y-103115193D01*
X83625960Y-103116211D01*
X83625965Y-103116231D01*
X83762828Y-103672375D01*
X83763082Y-103673406D01*
X83765367Y-103681243D01*
X83763509Y-103742398D01*
X83726057Y-103790783D01*
X83667319Y-103807913D01*
X83632442Y-103800423D01*
X83543710Y-103763669D01*
X83400000Y-103744750D01*
X83256290Y-103763669D01*
X83122375Y-103819139D01*
X83007378Y-103907378D01*
X82919140Y-104022373D01*
X82911281Y-104041347D01*
X82871543Y-104087872D01*
X82812048Y-104102155D01*
X82759550Y-104082002D01*
X82706567Y-104041347D01*
X82677625Y-104019139D01*
X82638401Y-104002892D01*
X82543709Y-103963669D01*
X82400000Y-103944750D01*
X82256290Y-103963669D01*
X82122375Y-104019139D01*
X82007378Y-104107378D01*
X81919139Y-104222375D01*
X81863669Y-104356290D01*
X81844750Y-104499999D01*
X81863669Y-104643710D01*
X81879649Y-104682288D01*
X81884449Y-104743285D01*
X81852480Y-104795454D01*
X81809855Y-104816771D01*
X81784436Y-104822474D01*
X81782241Y-104823187D01*
X81782238Y-104823188D01*
X81362335Y-104959622D01*
X81362325Y-104959625D01*
X81360139Y-104960336D01*
X81358029Y-104961247D01*
X81358027Y-104961248D01*
X81332703Y-104972185D01*
X81227054Y-105052627D01*
X81149807Y-105160636D01*
X81119571Y-105251380D01*
X81107830Y-105286616D01*
X81104851Y-105419372D01*
X81111391Y-105448531D01*
X81112096Y-105450700D01*
X81112101Y-105450719D01*
X81201660Y-105726350D01*
X81230713Y-105815765D01*
X81231631Y-105817891D01*
X81231633Y-105817896D01*
X81242559Y-105843198D01*
X81242560Y-105843199D01*
X81323003Y-105948850D01*
X81431013Y-106026096D01*
X81556993Y-106068073D01*
X81689749Y-106071053D01*
X81718908Y-106064512D01*
X82143205Y-105926650D01*
X82170639Y-105914802D01*
X82264883Y-105843043D01*
X82322632Y-105822836D01*
X82381232Y-105840432D01*
X82418298Y-105889113D01*
X82420214Y-105895382D01*
X82420588Y-105897240D01*
X82421469Y-105899952D01*
X82421470Y-105899955D01*
X82572161Y-106363733D01*
X82587374Y-106410552D01*
X82588558Y-106413137D01*
X82588565Y-106413154D01*
X82597909Y-106433548D01*
X82627535Y-106466656D01*
X82652248Y-106522628D01*
X82651912Y-106545593D01*
X82644750Y-106599998D01*
X82663669Y-106743709D01*
X82702185Y-106836695D01*
X82719139Y-106877625D01*
X82750000Y-106917843D01*
X82807378Y-106992621D01*
X82857306Y-107030932D01*
X82922375Y-107080861D01*
X83017067Y-107120083D01*
X83056290Y-107136330D01*
X83073008Y-107138531D01*
X83200000Y-107155250D01*
X83343709Y-107136330D01*
X83477625Y-107080861D01*
X83592621Y-106992621D01*
X83680861Y-106877625D01*
X83736330Y-106743709D01*
X83755250Y-106600000D01*
X83736330Y-106456291D01*
X83736329Y-106456289D01*
X83718462Y-106413154D01*
X83680861Y-106322375D01*
X83621845Y-106245464D01*
X83607229Y-106226415D01*
X83586805Y-106168739D01*
X83587282Y-106156102D01*
X83591926Y-106110573D01*
X83586934Y-106085776D01*
X83433857Y-105614655D01*
X83433857Y-105553472D01*
X83469821Y-105503971D01*
X83497414Y-105489911D01*
X83968539Y-105336833D01*
X83991536Y-105326297D01*
X84075257Y-105251380D01*
X84075258Y-105251376D01*
X84075587Y-105251083D01*
X84131559Y-105226368D01*
X84191368Y-105239273D01*
X84232169Y-105284868D01*
X84236646Y-105297141D01*
X84293774Y-105493039D01*
X84293783Y-105493068D01*
X84294123Y-105494233D01*
X84294521Y-105495381D01*
X84294529Y-105495405D01*
X84507975Y-106110573D01*
X84515678Y-106132773D01*
X84768979Y-106759398D01*
X84769496Y-106760513D01*
X84769501Y-106760524D01*
X84995102Y-107246872D01*
X85053390Y-107372529D01*
X85053961Y-107373614D01*
X85053969Y-107373630D01*
X85199129Y-107649417D01*
X85368195Y-107970625D01*
X85368821Y-107971682D01*
X85630523Y-108413583D01*
X85643906Y-108473287D01*
X85619641Y-108529455D01*
X85566995Y-108560633D01*
X85532418Y-108562183D01*
X85400000Y-108544750D01*
X85256290Y-108563669D01*
X85122375Y-108619139D01*
X85007378Y-108707378D01*
X84919139Y-108822375D01*
X84863669Y-108956290D01*
X84847711Y-109077507D01*
X84821370Y-109132732D01*
X84767599Y-109161927D01*
X84736636Y-109162738D01*
X84600000Y-109144750D01*
X84456290Y-109163669D01*
X84322375Y-109219139D01*
X84207378Y-109307378D01*
X84119139Y-109422375D01*
X84063669Y-109556290D01*
X84044750Y-109700000D01*
X84063669Y-109843709D01*
X84119138Y-109977624D01*
X84198042Y-110080453D01*
X84218466Y-110138128D01*
X84201089Y-110196794D01*
X84174211Y-110223127D01*
X84174981Y-110222595D01*
X84174104Y-110223231D01*
X84174099Y-110223235D01*
X84173120Y-110223946D01*
X84173117Y-110223949D01*
X83815921Y-110483466D01*
X83815906Y-110483477D01*
X83814052Y-110484825D01*
X83812330Y-110486340D01*
X83812311Y-110486356D01*
X83791622Y-110504569D01*
X83716000Y-110613722D01*
X83675911Y-110740318D01*
X83674918Y-110873103D01*
X83707409Y-110981301D01*
X83713109Y-111000283D01*
X83728340Y-111025993D01*
X83729698Y-111027862D01*
X83927416Y-111300000D01*
X83955302Y-111338381D01*
X83975048Y-111360811D01*
X83997388Y-111376288D01*
X84084200Y-111436432D01*
X84084201Y-111436432D01*
X84084202Y-111436433D01*
X84210795Y-111476521D01*
X84343581Y-111477514D01*
X84470761Y-111439324D01*
X84496471Y-111424093D01*
X84857400Y-111161863D01*
X84879830Y-111142118D01*
X84944089Y-111049364D01*
X84992768Y-111012301D01*
X85053938Y-111010928D01*
X85104233Y-111045772D01*
X85105559Y-111047554D01*
X85228784Y-111217159D01*
X85401781Y-111455267D01*
X85418908Y-111473882D01*
X85509418Y-111526510D01*
X85550218Y-111572105D01*
X85557806Y-111599170D01*
X85563670Y-111643709D01*
X85619139Y-111777625D01*
X85630819Y-111792846D01*
X85707378Y-111892621D01*
X85757306Y-111930932D01*
X85822375Y-111980861D01*
X85915425Y-112019403D01*
X85956290Y-112036330D01*
X85971072Y-112038276D01*
X86100000Y-112055250D01*
X86243709Y-112036330D01*
X86377625Y-111980861D01*
X86492621Y-111892621D01*
X86580861Y-111777625D01*
X86636330Y-111643709D01*
X86655250Y-111500000D01*
X86636330Y-111356291D01*
X86580861Y-111222375D01*
X86509277Y-111129085D01*
X86492622Y-111107380D01*
X86377624Y-111019138D01*
X86339122Y-111003191D01*
X86292595Y-110963455D01*
X86280233Y-110932606D01*
X86264469Y-110859546D01*
X86258370Y-110848716D01*
X86252058Y-110837506D01*
X86010165Y-110504570D01*
X85960889Y-110436747D01*
X85941982Y-110378556D01*
X85960889Y-110320365D01*
X85982787Y-110298466D01*
X86383548Y-110007296D01*
X86402163Y-109990169D01*
X86458636Y-109893047D01*
X86458636Y-109893045D01*
X86467938Y-109877049D01*
X86469916Y-109878199D01*
X86484734Y-109849114D01*
X86539249Y-109821334D01*
X86599682Y-109830902D01*
X86634445Y-109860392D01*
X86710274Y-109963315D01*
X86711479Y-109964851D01*
X87138571Y-110498764D01*
X87587754Y-111016816D01*
X87589078Y-111018254D01*
X88057116Y-111516658D01*
X88058508Y-111518055D01*
X88545920Y-111997504D01*
X88547353Y-111998832D01*
X88958799Y-112372647D01*
X88989152Y-112425773D01*
X88982482Y-112486593D01*
X88941337Y-112531878D01*
X88905146Y-112544072D01*
X88756290Y-112563669D01*
X88622375Y-112619139D01*
X88507378Y-112707378D01*
X88419139Y-112822375D01*
X88363669Y-112956290D01*
X88344750Y-113100000D01*
X88351501Y-113151280D01*
X88340351Y-113211441D01*
X88295968Y-113253558D01*
X88266274Y-113262354D01*
X88256293Y-113263668D01*
X88122375Y-113319139D01*
X88007378Y-113407378D01*
X87919139Y-113522375D01*
X87863669Y-113656290D01*
X87844750Y-113800000D01*
X87863669Y-113943709D01*
X87900855Y-114033484D01*
X87919139Y-114077625D01*
X87957450Y-114127552D01*
X88007378Y-114192621D01*
X88094880Y-114259763D01*
X88118156Y-114277624D01*
X88132715Y-114288795D01*
X88129876Y-114292493D01*
X88157078Y-114315800D01*
X88171267Y-114375317D01*
X88147764Y-114431808D01*
X88128965Y-114448771D01*
X88092898Y-114473758D01*
X88074684Y-114494448D01*
X88074668Y-114494467D01*
X88073153Y-114496189D01*
X88071805Y-114498043D01*
X88071794Y-114498058D01*
X87812281Y-114855248D01*
X87812274Y-114855257D01*
X87810923Y-114857118D01*
X87809747Y-114859101D01*
X87809745Y-114859106D01*
X87795691Y-114882829D01*
X87757501Y-115010007D01*
X87758494Y-115142792D01*
X87798583Y-115269388D01*
X87874205Y-115378541D01*
X87893179Y-115395245D01*
X87896635Y-115398287D01*
X88209023Y-115625249D01*
X88234733Y-115640480D01*
X88265844Y-115649822D01*
X88361912Y-115678670D01*
X88361912Y-115678669D01*
X88361913Y-115678670D01*
X88494699Y-115677677D01*
X88621292Y-115637589D01*
X88730446Y-115561967D01*
X88750191Y-115539537D01*
X89012421Y-115178608D01*
X89027652Y-115152898D01*
X89040076Y-115111522D01*
X89074917Y-115061231D01*
X89132669Y-115041022D01*
X89191270Y-115058618D01*
X89197609Y-115063397D01*
X89198593Y-115064202D01*
X89200692Y-115066134D01*
X89637343Y-115383378D01*
X89639833Y-115384780D01*
X89639839Y-115384784D01*
X89658416Y-115395245D01*
X89659384Y-115395790D01*
X89769203Y-115419486D01*
X89784194Y-115417111D01*
X89844624Y-115426681D01*
X89878223Y-115454625D01*
X89907378Y-115492621D01*
X89942437Y-115519522D01*
X90022375Y-115580861D01*
X90117067Y-115620083D01*
X90156290Y-115636330D01*
X90173008Y-115638531D01*
X90300000Y-115655250D01*
X90443709Y-115636330D01*
X90577625Y-115580861D01*
X90692621Y-115492621D01*
X90780861Y-115377625D01*
X90836330Y-115243709D01*
X90855250Y-115100000D01*
X90836330Y-114956291D01*
X90831118Y-114943709D01*
X90812802Y-114899489D01*
X90780861Y-114822375D01*
X90730932Y-114757306D01*
X90692621Y-114707378D01*
X90626041Y-114656290D01*
X90577625Y-114619139D01*
X90538401Y-114602892D01*
X90443709Y-114563669D01*
X90289679Y-114543391D01*
X90244410Y-114525331D01*
X90101005Y-114421142D01*
X89854346Y-114241934D01*
X89818383Y-114192435D01*
X89818383Y-114131250D01*
X89832442Y-114103655D01*
X90123613Y-113702892D01*
X90136025Y-113680851D01*
X90159721Y-113571032D01*
X90157054Y-113554195D01*
X90166625Y-113493765D01*
X90209889Y-113450500D01*
X90270321Y-113440928D01*
X90312031Y-113457904D01*
X90690082Y-113725512D01*
X90690910Y-113726048D01*
X90690915Y-113726052D01*
X91243302Y-114084045D01*
X91243317Y-114084054D01*
X91244139Y-114084587D01*
X91244989Y-114085090D01*
X91244996Y-114085094D01*
X91811586Y-114420171D01*
X91812435Y-114420673D01*
X92394016Y-114733207D01*
X92665390Y-114864997D01*
X92665393Y-114865000D01*
X92665394Y-114865000D01*
X92702102Y-114882829D01*
X93027793Y-115041022D01*
X93385427Y-115214730D01*
X93429509Y-115257161D01*
X93440232Y-115317399D01*
X93413500Y-115372436D01*
X93380060Y-115395245D01*
X93322373Y-115419140D01*
X93207378Y-115507378D01*
X93119139Y-115622375D01*
X93063669Y-115756290D01*
X93044750Y-115899999D01*
X93063669Y-116043709D01*
X93102034Y-116136330D01*
X93119139Y-116177625D01*
X93128417Y-116189717D01*
X93148841Y-116247391D01*
X93131464Y-116306057D01*
X93110142Y-116328525D01*
X93007378Y-116407378D01*
X92919139Y-116522375D01*
X92863669Y-116656290D01*
X92844750Y-116799999D01*
X92863669Y-116943709D01*
X92898616Y-117028078D01*
X92919139Y-117077625D01*
X92930646Y-117092621D01*
X93007378Y-117192621D01*
X93059641Y-117232723D01*
X93116149Y-117276083D01*
X93150804Y-117326506D01*
X93149203Y-117387670D01*
X93134649Y-117414596D01*
X93120862Y-117432703D01*
X93120861Y-117432704D01*
X93120861Y-117432705D01*
X93109013Y-117460139D01*
X93108302Y-117462325D01*
X93108299Y-117462335D01*
X92971865Y-117882238D01*
X92971151Y-117884436D01*
X92970648Y-117886677D01*
X92970642Y-117886700D01*
X92964610Y-117913593D01*
X92964610Y-117913595D01*
X92967590Y-118046351D01*
X93009567Y-118172331D01*
X93086813Y-118280341D01*
X93192464Y-118360784D01*
X93219898Y-118372631D01*
X93456014Y-118449350D01*
X93584943Y-118491242D01*
X93584947Y-118491243D01*
X93587132Y-118491953D01*
X93616291Y-118498493D01*
X93749047Y-118495514D01*
X93875027Y-118453536D01*
X93983036Y-118376290D01*
X94063479Y-118270639D01*
X94075327Y-118243205D01*
X94213189Y-117818908D01*
X94219730Y-117789749D01*
X94218442Y-117732377D01*
X94236037Y-117673780D01*
X94284717Y-117636714D01*
X94345887Y-117635340D01*
X94358641Y-117640150D01*
X94366142Y-117643587D01*
X94879455Y-117810372D01*
X94904252Y-117815365D01*
X94982326Y-117807402D01*
X95042133Y-117820307D01*
X95052637Y-117827349D01*
X95122375Y-117880861D01*
X95256290Y-117936330D01*
X95273008Y-117938531D01*
X95400000Y-117955250D01*
X95543709Y-117936330D01*
X95677625Y-117880861D01*
X95792621Y-117792621D01*
X95880861Y-117677625D01*
X95936330Y-117543709D01*
X95955250Y-117400000D01*
X95936330Y-117256291D01*
X95935898Y-117255249D01*
X95903746Y-117177625D01*
X95880861Y-117122375D01*
X95808504Y-117028078D01*
X95792621Y-117007378D01*
X95727552Y-116957450D01*
X95677625Y-116919139D01*
X95631416Y-116899999D01*
X95543709Y-116863669D01*
X95416717Y-116846951D01*
X95400000Y-116844750D01*
X95399999Y-116844750D01*
X95317248Y-116855644D01*
X95257088Y-116844494D01*
X95238312Y-116831267D01*
X95227228Y-116821349D01*
X95227226Y-116821348D01*
X95206826Y-116812001D01*
X95206818Y-116811998D01*
X95204232Y-116810813D01*
X94733110Y-116657736D01*
X94683611Y-116621773D01*
X94664704Y-116563582D01*
X94669548Y-116532992D01*
X94822625Y-116061870D01*
X94827618Y-116037073D01*
X94821183Y-115973982D01*
X94834088Y-115914176D01*
X94879683Y-115873375D01*
X94940553Y-115867166D01*
X94952185Y-115870430D01*
X95350242Y-116008833D01*
X95352092Y-116009416D01*
X95617336Y-116090109D01*
X95617337Y-116090109D01*
X96270039Y-116288757D01*
X96270040Y-116288758D01*
X96321542Y-116304432D01*
X96328735Y-116306929D01*
X96486599Y-116368614D01*
X96500329Y-116375239D01*
X96643518Y-116458492D01*
X96656067Y-116467146D01*
X96699539Y-116502356D01*
X96732858Y-116553673D01*
X96735523Y-116591091D01*
X96724851Y-116679953D01*
X96724850Y-116679965D01*
X96724500Y-116682882D01*
X96724500Y-117267118D01*
X96724850Y-117270035D01*
X96724851Y-117270046D01*
X96730671Y-117318505D01*
X96734883Y-117353577D01*
X96771993Y-117447681D01*
X96789138Y-117491158D01*
X96878499Y-117609000D01*
X96956406Y-117668078D01*
X96996342Y-117698362D01*
X97133923Y-117752617D01*
X97220382Y-117763000D01*
X97223334Y-117763000D01*
X97776666Y-117763000D01*
X97779618Y-117763000D01*
X97866077Y-117752617D01*
X98003658Y-117698362D01*
X98040449Y-117670462D01*
X98098241Y-117650367D01*
X98156807Y-117668078D01*
X98191733Y-117711460D01*
X98219139Y-117777625D01*
X98307378Y-117892621D01*
X98348069Y-117923844D01*
X98395497Y-117960237D01*
X98430153Y-118010660D01*
X98428552Y-118071824D01*
X98413772Y-118099045D01*
X98320244Y-118220934D01*
X98269820Y-118255590D01*
X98208655Y-118253989D01*
X98162818Y-118220486D01*
X98121500Y-118165999D01*
X98003658Y-118076638D01*
X97866077Y-118022383D01*
X97852670Y-118020773D01*
X97782546Y-118012351D01*
X97782535Y-118012350D01*
X97779618Y-118012000D01*
X97220382Y-118012000D01*
X97217465Y-118012350D01*
X97217453Y-118012351D01*
X97133923Y-118022383D01*
X96996341Y-118076638D01*
X96878499Y-118165999D01*
X96789138Y-118283841D01*
X96734883Y-118421423D01*
X96724851Y-118504953D01*
X96724850Y-118504965D01*
X96724500Y-118507882D01*
X96724500Y-119092118D01*
X96724850Y-119095035D01*
X96724851Y-119095046D01*
X96733273Y-119165170D01*
X96734883Y-119178577D01*
X96780005Y-119292998D01*
X96789138Y-119316158D01*
X96878499Y-119434000D01*
X96936730Y-119478157D01*
X96996342Y-119523362D01*
X97133923Y-119577617D01*
X97220382Y-119588000D01*
X97223334Y-119588000D01*
X97776666Y-119588000D01*
X97779618Y-119588000D01*
X97866077Y-119577617D01*
X97973058Y-119535428D01*
X98034125Y-119531670D01*
X98085741Y-119564525D01*
X98087917Y-119567258D01*
X98107379Y-119592621D01*
X98222375Y-119680861D01*
X98317067Y-119720083D01*
X98356290Y-119736330D01*
X98373008Y-119738531D01*
X98500000Y-119755250D01*
X98643709Y-119736330D01*
X98777625Y-119680861D01*
X98883869Y-119599336D01*
X98941541Y-119578914D01*
X99000207Y-119596291D01*
X99002921Y-119598225D01*
X99091842Y-119663852D01*
X99091843Y-119663852D01*
X99217181Y-119707710D01*
X99246934Y-119710500D01*
X99249245Y-119710500D01*
X99630755Y-119710500D01*
X99633066Y-119710500D01*
X99662819Y-119707710D01*
X99788157Y-119663852D01*
X99894999Y-119584999D01*
X99973852Y-119478157D01*
X100017710Y-119352819D01*
X100020500Y-119323066D01*
X100020500Y-118876934D01*
X100017710Y-118847181D01*
X100015371Y-118840498D01*
X99973852Y-118721843D01*
X99910817Y-118636433D01*
X99891475Y-118578385D01*
X99909946Y-118520055D01*
X99959176Y-118483722D01*
X100020360Y-118483264D01*
X100030444Y-118487074D01*
X100050127Y-118495765D01*
X100075253Y-118498680D01*
X100614982Y-118498679D01*
X100640109Y-118495765D01*
X100658598Y-118487600D01*
X100719465Y-118481390D01*
X100736468Y-118486698D01*
X100856291Y-118536330D01*
X101000000Y-118555250D01*
X101143709Y-118536330D01*
X101277625Y-118480861D01*
X101392621Y-118392621D01*
X101480861Y-118277625D01*
X101536330Y-118143709D01*
X101555250Y-118000000D01*
X101536330Y-117856291D01*
X101480861Y-117722375D01*
X101415131Y-117636714D01*
X101392621Y-117607378D01*
X101327552Y-117557450D01*
X101277625Y-117519139D01*
X101212431Y-117492135D01*
X101143709Y-117463669D01*
X101000000Y-117444750D01*
X100856291Y-117463669D01*
X100799153Y-117487336D01*
X100738156Y-117492135D01*
X100721281Y-117486436D01*
X100640107Y-117450594D01*
X100617832Y-117448010D01*
X100617822Y-117448009D01*
X100614983Y-117447680D01*
X100612118Y-117447680D01*
X100119617Y-117447680D01*
X100061426Y-117428773D01*
X100025462Y-117379273D01*
X100020617Y-117348685D01*
X100020617Y-116899999D01*
X103644750Y-116899999D01*
X103663669Y-117043709D01*
X103696254Y-117122375D01*
X103719139Y-117177625D01*
X103730646Y-117192621D01*
X103807378Y-117292621D01*
X103852253Y-117327054D01*
X103922375Y-117380861D01*
X104003820Y-117414596D01*
X104048891Y-117433265D01*
X104095417Y-117473001D01*
X104109701Y-117532496D01*
X104102471Y-117562613D01*
X104063669Y-117656291D01*
X104044750Y-117800000D01*
X104063669Y-117943709D01*
X104092102Y-118012351D01*
X104119139Y-118077625D01*
X104141970Y-118107379D01*
X104207378Y-118192621D01*
X104243693Y-118220486D01*
X104322375Y-118280861D01*
X104417067Y-118320083D01*
X104456290Y-118336330D01*
X104477111Y-118339071D01*
X104600000Y-118355250D01*
X104641253Y-118349818D01*
X104701411Y-118360967D01*
X104743529Y-118405349D01*
X104748329Y-118417378D01*
X104803115Y-118585992D01*
X104803829Y-118588189D01*
X104815677Y-118615623D01*
X104896120Y-118721274D01*
X105004129Y-118798520D01*
X105130109Y-118840498D01*
X105262865Y-118843477D01*
X105292024Y-118836937D01*
X105659258Y-118717615D01*
X105686692Y-118705768D01*
X105792343Y-118625325D01*
X105869589Y-118517315D01*
X105911566Y-118391335D01*
X105914546Y-118258579D01*
X105908005Y-118229420D01*
X105770143Y-117805123D01*
X105758295Y-117777689D01*
X105703703Y-117705990D01*
X105683496Y-117648241D01*
X105701093Y-117589640D01*
X105749773Y-117552575D01*
X105762927Y-117548967D01*
X105769178Y-117547709D01*
X106282490Y-117380923D01*
X106286092Y-117379273D01*
X106288678Y-117378087D01*
X106305487Y-117370387D01*
X106389208Y-117295470D01*
X106389208Y-117295469D01*
X106402999Y-117283129D01*
X106404856Y-117285205D01*
X106426872Y-117263187D01*
X106484744Y-117253241D01*
X106500000Y-117255250D01*
X106643709Y-117236330D01*
X106777625Y-117180861D01*
X106892621Y-117092621D01*
X106980861Y-116977625D01*
X107036330Y-116843709D01*
X107055250Y-116700000D01*
X107036330Y-116556291D01*
X106980861Y-116422375D01*
X106919149Y-116341951D01*
X106892621Y-116307378D01*
X106819978Y-116251638D01*
X106777625Y-116219139D01*
X106725101Y-116197383D01*
X106643709Y-116163669D01*
X106516717Y-116146951D01*
X106500000Y-116144750D01*
X106499999Y-116144750D01*
X106356290Y-116163669D01*
X106222375Y-116219138D01*
X106107380Y-116307377D01*
X106082847Y-116339349D01*
X106032422Y-116374004D01*
X105994262Y-116377569D01*
X105982512Y-116376370D01*
X105960507Y-116380800D01*
X105960495Y-116380803D01*
X105957714Y-116381363D01*
X105955012Y-116382240D01*
X105955004Y-116382243D01*
X105486595Y-116534439D01*
X105425409Y-116534439D01*
X105375909Y-116498475D01*
X105361848Y-116470880D01*
X105208771Y-115999758D01*
X105207582Y-115997163D01*
X105207579Y-115997155D01*
X105198235Y-115976761D01*
X105123318Y-115893040D01*
X105123317Y-115893040D01*
X105023216Y-115842036D01*
X105012871Y-115840980D01*
X104911449Y-115830636D01*
X104889448Y-115835066D01*
X104889445Y-115835066D01*
X104886652Y-115835629D01*
X104883950Y-115836506D01*
X104883942Y-115836509D01*
X104376052Y-116001533D01*
X104376039Y-116001537D01*
X104373340Y-116002415D01*
X104370759Y-116003597D01*
X104370737Y-116003606D01*
X104350343Y-116012950D01*
X104266622Y-116087867D01*
X104215618Y-116187970D01*
X104207566Y-116266912D01*
X104182851Y-116322884D01*
X104129957Y-116353639D01*
X104121999Y-116355019D01*
X104056290Y-116363669D01*
X103922375Y-116419139D01*
X103807378Y-116507378D01*
X103719139Y-116622375D01*
X103663669Y-116756290D01*
X103644750Y-116899999D01*
X100020617Y-116899999D01*
X100020617Y-116853316D01*
X100017703Y-116828189D01*
X99972324Y-116725415D01*
X99892883Y-116645974D01*
X99892882Y-116645973D01*
X99790107Y-116600594D01*
X99767832Y-116598010D01*
X99767822Y-116598009D01*
X99764983Y-116597680D01*
X99762118Y-116597680D01*
X99228109Y-116597680D01*
X99228091Y-116597680D01*
X99225254Y-116597681D01*
X99222431Y-116598008D01*
X99222420Y-116598009D01*
X99200127Y-116600595D01*
X99097353Y-116645973D01*
X99017911Y-116725415D01*
X98972532Y-116828190D01*
X98969948Y-116850465D01*
X98969947Y-116850476D01*
X98969618Y-116853315D01*
X98969618Y-116856171D01*
X98969618Y-116856179D01*
X98969618Y-116867659D01*
X98950711Y-116925850D01*
X98901211Y-116961814D01*
X98857099Y-116961814D01*
X98856631Y-116965371D01*
X98700000Y-116944750D01*
X98556290Y-116963669D01*
X98412385Y-117023277D01*
X98351389Y-117028078D01*
X98299220Y-116996108D01*
X98275805Y-116939580D01*
X98275500Y-116931813D01*
X98275500Y-116685833D01*
X98275500Y-116682882D01*
X98265117Y-116596423D01*
X98210862Y-116458842D01*
X98171836Y-116407378D01*
X98121500Y-116340999D01*
X98003658Y-116251638D01*
X97992888Y-116247391D01*
X97866077Y-116197383D01*
X97852670Y-116195773D01*
X97782546Y-116187351D01*
X97782535Y-116187350D01*
X97779618Y-116187000D01*
X97776666Y-116187000D01*
X97472218Y-116187000D01*
X97414027Y-116168093D01*
X97401985Y-116157773D01*
X97363877Y-116119414D01*
X97250310Y-116005098D01*
X97244373Y-116000439D01*
X97169708Y-115941845D01*
X97135603Y-115891046D01*
X97137870Y-115829903D01*
X97175643Y-115781769D01*
X97234494Y-115765031D01*
X97245571Y-115766068D01*
X98009820Y-115881260D01*
X98803909Y-115960720D01*
X99600972Y-116000500D01*
X99602195Y-116000500D01*
X100397805Y-116000500D01*
X100399028Y-116000500D01*
X101196091Y-115960720D01*
X101990180Y-115881260D01*
X102779322Y-115762316D01*
X103561553Y-115604184D01*
X104334930Y-115407258D01*
X105097530Y-115172027D01*
X105847457Y-114899077D01*
X106082495Y-114800000D01*
X108744750Y-114800000D01*
X108763669Y-114943709D01*
X108797234Y-115024742D01*
X108819139Y-115077625D01*
X108857450Y-115127552D01*
X108907378Y-115192621D01*
X108937070Y-115215404D01*
X109022375Y-115280861D01*
X109110587Y-115317399D01*
X109156290Y-115336330D01*
X109163840Y-115337323D01*
X109179209Y-115339347D01*
X109234435Y-115365687D01*
X109263631Y-115419457D01*
X109264442Y-115450422D01*
X109244750Y-115599999D01*
X109263669Y-115743709D01*
X109294405Y-115817911D01*
X109319139Y-115877625D01*
X109336308Y-115900000D01*
X109407378Y-115992621D01*
X109433872Y-116012950D01*
X109522375Y-116080861D01*
X109615452Y-116119414D01*
X109656290Y-116136330D01*
X109673008Y-116138531D01*
X109800000Y-116155250D01*
X109943709Y-116136330D01*
X110077625Y-116080861D01*
X110077627Y-116080859D01*
X110087152Y-116076914D01*
X110148149Y-116072113D01*
X110200318Y-116104083D01*
X110205131Y-116110187D01*
X110271794Y-116201941D01*
X110273153Y-116203811D01*
X110274676Y-116205542D01*
X110274684Y-116205551D01*
X110286645Y-116219138D01*
X110292898Y-116226241D01*
X110341297Y-116259772D01*
X110402050Y-116301862D01*
X110402051Y-116301862D01*
X110402052Y-116301863D01*
X110528645Y-116341951D01*
X110661431Y-116342944D01*
X110788611Y-116304754D01*
X110814321Y-116289523D01*
X111126709Y-116062561D01*
X111149139Y-116042815D01*
X111224761Y-115933661D01*
X111264849Y-115807068D01*
X111265842Y-115674282D01*
X111254823Y-115637588D01*
X111236227Y-115575660D01*
X111227652Y-115547102D01*
X111212421Y-115521392D01*
X110950191Y-115160463D01*
X110948664Y-115158729D01*
X110948659Y-115158722D01*
X110930446Y-115138033D01*
X110837187Y-115073423D01*
X110800121Y-115024742D01*
X110798749Y-114963572D01*
X110833593Y-114913278D01*
X110858555Y-114901780D01*
X110868512Y-114896172D01*
X110868515Y-114896172D01*
X110890556Y-114883761D01*
X111327205Y-114566516D01*
X111327219Y-114566502D01*
X111376472Y-114545181D01*
X111429414Y-114538211D01*
X111443710Y-114536330D01*
X111477400Y-114522375D01*
X111577625Y-114480861D01*
X111692621Y-114392621D01*
X111780861Y-114277625D01*
X111836330Y-114143709D01*
X111855250Y-114000000D01*
X111837156Y-113862564D01*
X111836330Y-113856290D01*
X111813014Y-113800000D01*
X111780861Y-113722375D01*
X111724285Y-113648644D01*
X111692621Y-113607378D01*
X111623313Y-113554197D01*
X111577625Y-113519139D01*
X111516366Y-113493765D01*
X111443709Y-113463669D01*
X111306790Y-113445644D01*
X111300000Y-113444750D01*
X111299999Y-113444750D01*
X111156290Y-113463669D01*
X111022375Y-113519138D01*
X110907379Y-113607378D01*
X110875714Y-113648644D01*
X110825288Y-113683299D01*
X110818054Y-113685148D01*
X110731484Y-113703827D01*
X110711930Y-113714839D01*
X110709444Y-113716239D01*
X110707143Y-113717910D01*
X110707141Y-113717912D01*
X110308685Y-114007407D01*
X110250494Y-114026314D01*
X110192303Y-114007407D01*
X110170401Y-113985505D01*
X110134182Y-113935654D01*
X109879234Y-113584749D01*
X109862107Y-113566134D01*
X109764985Y-113509661D01*
X109764984Y-113509660D01*
X109764983Y-113509660D01*
X109654022Y-113492086D01*
X109544202Y-113515781D01*
X109524648Y-113526793D01*
X109522162Y-113528193D01*
X109519861Y-113529864D01*
X109519859Y-113529866D01*
X109148053Y-113800000D01*
X109085513Y-113845438D01*
X109083424Y-113847359D01*
X109083413Y-113847369D01*
X109066899Y-113862564D01*
X109010424Y-113959688D01*
X108997160Y-114043439D01*
X108992850Y-114070650D01*
X108994355Y-114077624D01*
X109016545Y-114180469D01*
X109027557Y-114200024D01*
X109027948Y-114200718D01*
X109027949Y-114200721D01*
X109028956Y-114202508D01*
X109028002Y-114200924D01*
X109043423Y-114259763D01*
X109021183Y-114316763D01*
X109004857Y-114332581D01*
X108907377Y-114407380D01*
X108819139Y-114522375D01*
X108763669Y-114656290D01*
X108744750Y-114800000D01*
X106082495Y-114800000D01*
X106582845Y-114589084D01*
X107301868Y-114242821D01*
X108002737Y-113861148D01*
X108683711Y-113445014D01*
X109343095Y-112995453D01*
X109979250Y-112513584D01*
X110590596Y-112000604D01*
X111175612Y-111457789D01*
X111329515Y-111300000D01*
X112844750Y-111300000D01*
X112863669Y-111443709D01*
X112897966Y-111526509D01*
X112919139Y-111577625D01*
X112957450Y-111627552D01*
X113007378Y-111692621D01*
X113057306Y-111730932D01*
X113122375Y-111780861D01*
X113206507Y-111815709D01*
X113256290Y-111836330D01*
X113273229Y-111838560D01*
X113400000Y-111855250D01*
X113526769Y-111838560D01*
X113586930Y-111849710D01*
X113618233Y-111876445D01*
X113680857Y-111958057D01*
X113698354Y-111980860D01*
X113707380Y-111992622D01*
X113718824Y-112001403D01*
X113822375Y-112080861D01*
X113917067Y-112120083D01*
X113956290Y-112136330D01*
X113975209Y-112138820D01*
X114100000Y-112155250D01*
X114243709Y-112136330D01*
X114377625Y-112080861D01*
X114431099Y-112039827D01*
X114488774Y-112019403D01*
X114547440Y-112036780D01*
X114549557Y-112038275D01*
X114757118Y-112189077D01*
X114782828Y-112204308D01*
X114846417Y-112223403D01*
X114910007Y-112242498D01*
X114910007Y-112242497D01*
X114910008Y-112242498D01*
X115042794Y-112241505D01*
X115169387Y-112201417D01*
X115278541Y-112125795D01*
X115298287Y-112103365D01*
X115525249Y-111790977D01*
X115540480Y-111765267D01*
X115578670Y-111638087D01*
X115577677Y-111505301D01*
X115537589Y-111378708D01*
X115535912Y-111376288D01*
X115461966Y-111269553D01*
X115441277Y-111251340D01*
X115441268Y-111251332D01*
X115439537Y-111249809D01*
X115437671Y-111248453D01*
X115437667Y-111248450D01*
X115100096Y-111003191D01*
X115078608Y-110987579D01*
X115066291Y-110980282D01*
X115052897Y-110972347D01*
X114966779Y-110946487D01*
X114916485Y-110911643D01*
X114896277Y-110853891D01*
X114913874Y-110795290D01*
X114922398Y-110784638D01*
X114938072Y-110767605D01*
X115255316Y-110330954D01*
X115267728Y-110308913D01*
X115275080Y-110295859D01*
X115276295Y-110296543D01*
X115297670Y-110259781D01*
X115332661Y-110243716D01*
X115331668Y-110241318D01*
X115376869Y-110222595D01*
X115477625Y-110180861D01*
X115592621Y-110092621D01*
X115680861Y-109977625D01*
X115736330Y-109843709D01*
X115755250Y-109700000D01*
X115736330Y-109556291D01*
X115680861Y-109422375D01*
X115630932Y-109357306D01*
X115592621Y-109307378D01*
X115524993Y-109255486D01*
X115477625Y-109219139D01*
X115419251Y-109194960D01*
X115343709Y-109163669D01*
X115200000Y-109144750D01*
X115056290Y-109163669D01*
X114922375Y-109219139D01*
X114807378Y-109307378D01*
X114719139Y-109422374D01*
X114658756Y-109568153D01*
X114619019Y-109614678D01*
X114582780Y-109628048D01*
X114519289Y-109638104D01*
X114422168Y-109694577D01*
X114406968Y-109711095D01*
X114406962Y-109711101D01*
X114405040Y-109713191D01*
X114403373Y-109715484D01*
X114403361Y-109715500D01*
X114113873Y-110113949D01*
X114064373Y-110149913D01*
X114003187Y-110149913D01*
X113975589Y-110135851D01*
X113577140Y-109846362D01*
X113577136Y-109846359D01*
X113574830Y-109844684D01*
X113572343Y-109843284D01*
X113572333Y-109843277D01*
X113552790Y-109832272D01*
X113502097Y-109821334D01*
X113442970Y-109808576D01*
X113442968Y-109808576D01*
X113332007Y-109826150D01*
X113234886Y-109882623D01*
X113219686Y-109899141D01*
X113219680Y-109899147D01*
X113217758Y-109901237D01*
X113216091Y-109903530D01*
X113216079Y-109903546D01*
X112902192Y-110335577D01*
X112902184Y-110335589D01*
X112900514Y-110337888D01*
X112899118Y-110340365D01*
X112899107Y-110340384D01*
X112888102Y-110359927D01*
X112864406Y-110469749D01*
X112881980Y-110580710D01*
X112916710Y-110640438D01*
X112938454Y-110677833D01*
X112957067Y-110694960D01*
X112959381Y-110696641D01*
X112959382Y-110696642D01*
X113017846Y-110739118D01*
X113053810Y-110788618D01*
X113053811Y-110849803D01*
X113019925Y-110897752D01*
X113007378Y-110907380D01*
X112919138Y-111022375D01*
X112863669Y-111156290D01*
X112844750Y-111300000D01*
X111329515Y-111300000D01*
X111732843Y-110886488D01*
X112260905Y-110288121D01*
X112758484Y-109664176D01*
X113224344Y-109016205D01*
X113657326Y-108345818D01*
X114056353Y-107654682D01*
X114420435Y-106944515D01*
X114748664Y-106217083D01*
X114893555Y-105847909D01*
X115439910Y-105847909D01*
X115448014Y-105927363D01*
X115451310Y-105959676D01*
X115502314Y-106059778D01*
X115586035Y-106134695D01*
X115604164Y-106143001D01*
X115649191Y-106184427D01*
X115661269Y-106244409D01*
X115641470Y-106293271D01*
X115619138Y-106322374D01*
X115563669Y-106456289D01*
X115544750Y-106600000D01*
X115563669Y-106743709D01*
X115602185Y-106836695D01*
X115619139Y-106877625D01*
X115650000Y-106917843D01*
X115707378Y-106992621D01*
X115757306Y-107030932D01*
X115822375Y-107080861D01*
X115917067Y-107120083D01*
X115956290Y-107136330D01*
X115975210Y-107138820D01*
X116100000Y-107155250D01*
X116243709Y-107136330D01*
X116377625Y-107080861D01*
X116489733Y-106994836D01*
X116547408Y-106974413D01*
X116606074Y-106991790D01*
X116610247Y-106994822D01*
X116722375Y-107080861D01*
X116811652Y-107117840D01*
X116856290Y-107136330D01*
X116873008Y-107138531D01*
X117000000Y-107155250D01*
X117143709Y-107136330D01*
X117277625Y-107080861D01*
X117392621Y-106992621D01*
X117437493Y-106934141D01*
X117487914Y-106899488D01*
X117546626Y-106900257D01*
X117782218Y-106976806D01*
X117782231Y-106976809D01*
X117784436Y-106977526D01*
X117786697Y-106978033D01*
X117786700Y-106978034D01*
X117792002Y-106979223D01*
X117813595Y-106984067D01*
X117946351Y-106981087D01*
X118072331Y-106939110D01*
X118180341Y-106861864D01*
X118260784Y-106756213D01*
X118272631Y-106728779D01*
X118391953Y-106361545D01*
X118398493Y-106332386D01*
X118395514Y-106199630D01*
X118353536Y-106073650D01*
X118276290Y-105965641D01*
X118170639Y-105885198D01*
X118143205Y-105873350D01*
X118111840Y-105863159D01*
X117870832Y-105784851D01*
X117718908Y-105735488D01*
X117716661Y-105734984D01*
X117716643Y-105734979D01*
X117689750Y-105728947D01*
X117689749Y-105728947D01*
X117612236Y-105730686D01*
X117553637Y-105713090D01*
X117516572Y-105664410D01*
X117515199Y-105603240D01*
X117515845Y-105601167D01*
X117682310Y-105088842D01*
X117687303Y-105064045D01*
X117676483Y-104957963D01*
X117689388Y-104898159D01*
X117696421Y-104887667D01*
X117780861Y-104777625D01*
X117836330Y-104643709D01*
X117855250Y-104500000D01*
X117836330Y-104356291D01*
X117780861Y-104222375D01*
X117730153Y-104156291D01*
X117692621Y-104107378D01*
X117627552Y-104057450D01*
X117577625Y-104019139D01*
X117538401Y-104002892D01*
X117443709Y-103963669D01*
X117316717Y-103946951D01*
X117300000Y-103944750D01*
X117299999Y-103944750D01*
X117156290Y-103963669D01*
X117022375Y-104019139D01*
X116907378Y-104107378D01*
X116819139Y-104222375D01*
X116763669Y-104356290D01*
X116744750Y-104500000D01*
X116759883Y-104614949D01*
X116748733Y-104675110D01*
X116735506Y-104693887D01*
X116693286Y-104741069D01*
X116683939Y-104761470D01*
X116683933Y-104761483D01*
X116682751Y-104764065D01*
X116681871Y-104766771D01*
X116681871Y-104766773D01*
X116529675Y-105235185D01*
X116493711Y-105284685D01*
X116435520Y-105303592D01*
X116404927Y-105298747D01*
X115936517Y-105146552D01*
X115936513Y-105146551D01*
X115933808Y-105145672D01*
X115931020Y-105145110D01*
X115931010Y-105145108D01*
X115909010Y-105140678D01*
X115797244Y-105152078D01*
X115697141Y-105203082D01*
X115622224Y-105286803D01*
X115612877Y-105307204D01*
X115612871Y-105307217D01*
X115611689Y-105309799D01*
X115610811Y-105312499D01*
X115610809Y-105312506D01*
X115445784Y-105820402D01*
X115445781Y-105820410D01*
X115444904Y-105823112D01*
X115444343Y-105825895D01*
X115444340Y-105825909D01*
X115439910Y-105847909D01*
X114893555Y-105847909D01*
X115040227Y-105474195D01*
X115294397Y-104717697D01*
X115510542Y-103949469D01*
X115688126Y-103171423D01*
X115826707Y-102385492D01*
X115925940Y-101593631D01*
X115985579Y-100797807D01*
X115987015Y-100740205D01*
X116469618Y-100740205D01*
X116469619Y-100743044D01*
X116469946Y-100745867D01*
X116469947Y-100745877D01*
X116472079Y-100764261D01*
X116472533Y-100768171D01*
X116491057Y-100810125D01*
X116517911Y-100870944D01*
X116597354Y-100950387D01*
X116655093Y-100975880D01*
X116699863Y-100995648D01*
X116745459Y-101036448D01*
X116758365Y-101096257D01*
X116758029Y-101099135D01*
X116744750Y-101199999D01*
X116763669Y-101343709D01*
X116802892Y-101438401D01*
X116819139Y-101477625D01*
X116830646Y-101492621D01*
X116907378Y-101592621D01*
X116957306Y-101630932D01*
X117022375Y-101680861D01*
X117117067Y-101720083D01*
X117156290Y-101736330D01*
X117175209Y-101738820D01*
X117300000Y-101755250D01*
X117443709Y-101736330D01*
X117577625Y-101680861D01*
X117689733Y-101594836D01*
X117747408Y-101574413D01*
X117806074Y-101591790D01*
X117810247Y-101594822D01*
X117922375Y-101680861D01*
X118011652Y-101717840D01*
X118056290Y-101736330D01*
X118075209Y-101738820D01*
X118200000Y-101755250D01*
X118343709Y-101736330D01*
X118477625Y-101680861D01*
X118592621Y-101592621D01*
X118680861Y-101477625D01*
X118736330Y-101343709D01*
X118749117Y-101246578D01*
X118775459Y-101191353D01*
X118829230Y-101162158D01*
X118847271Y-101160500D01*
X119020755Y-101160500D01*
X119023066Y-101160500D01*
X119052819Y-101157710D01*
X119178157Y-101113852D01*
X119284999Y-101034999D01*
X119363852Y-100928157D01*
X119407710Y-100802819D01*
X119410500Y-100773066D01*
X119410500Y-100386934D01*
X119407710Y-100357181D01*
X119363852Y-100231843D01*
X119284999Y-100125001D01*
X119206144Y-100066804D01*
X119178156Y-100046147D01*
X119052821Y-100002290D01*
X119025362Y-99999715D01*
X119025355Y-99999714D01*
X119023066Y-99999500D01*
X118576934Y-99999500D01*
X118574645Y-99999714D01*
X118574637Y-99999715D01*
X118547180Y-100002290D01*
X118499197Y-100019080D01*
X118438027Y-100020452D01*
X118387733Y-99985608D01*
X118367525Y-99927856D01*
X118368159Y-99914237D01*
X118370618Y-99893045D01*
X118370617Y-99353316D01*
X118367703Y-99328189D01*
X118322324Y-99225415D01*
X118314849Y-99208485D01*
X118315293Y-99208288D01*
X118298005Y-99174356D01*
X118304321Y-99120984D01*
X118336330Y-99043709D01*
X118355250Y-98900000D01*
X118336330Y-98756291D01*
X118280861Y-98622375D01*
X118230932Y-98557306D01*
X118192621Y-98507378D01*
X118114196Y-98447201D01*
X118077625Y-98419139D01*
X118038401Y-98402892D01*
X117943709Y-98363669D01*
X117800000Y-98344750D01*
X117656290Y-98363669D01*
X117522375Y-98419139D01*
X117407378Y-98507378D01*
X117319139Y-98622375D01*
X117263669Y-98756290D01*
X117244750Y-98899999D01*
X117263669Y-99043710D01*
X117319137Y-99177622D01*
X117327762Y-99188863D01*
X117348185Y-99246540D01*
X117339785Y-99289116D01*
X117322532Y-99328191D01*
X117319948Y-99350465D01*
X117319947Y-99350476D01*
X117319618Y-99353315D01*
X117319618Y-99356171D01*
X117319618Y-99356179D01*
X117319618Y-99848680D01*
X117300711Y-99906871D01*
X117251211Y-99942835D01*
X117220618Y-99947680D01*
X116728109Y-99947680D01*
X116728091Y-99947680D01*
X116725254Y-99947681D01*
X116722431Y-99948008D01*
X116722420Y-99948009D01*
X116700127Y-99950595D01*
X116597353Y-99995973D01*
X116517911Y-100075415D01*
X116472532Y-100178190D01*
X116469948Y-100200465D01*
X116469947Y-100200476D01*
X116469618Y-100203315D01*
X116469618Y-100206178D01*
X116469618Y-100206179D01*
X116469618Y-100740188D01*
X116469618Y-100740205D01*
X115987015Y-100740205D01*
X116005475Y-100000000D01*
X115985579Y-99202193D01*
X115925940Y-98406369D01*
X115826707Y-97614508D01*
X115688126Y-96828577D01*
X115510542Y-96050531D01*
X115294397Y-95282303D01*
X115285842Y-95256840D01*
X115218648Y-95056847D01*
X115702574Y-95056847D01*
X115706440Y-95076049D01*
X115707567Y-95081645D01*
X115708446Y-95084350D01*
X115708447Y-95084354D01*
X115850346Y-95521073D01*
X115874353Y-95594957D01*
X115875537Y-95597542D01*
X115875544Y-95597559D01*
X115884888Y-95617953D01*
X115884889Y-95617954D01*
X115959806Y-95701675D01*
X116059908Y-95752679D01*
X116161330Y-95763022D01*
X116171674Y-95764078D01*
X116171674Y-95764077D01*
X116171675Y-95764078D01*
X116196472Y-95759086D01*
X116220292Y-95751345D01*
X116281475Y-95751343D01*
X116330976Y-95787305D01*
X116349039Y-95832577D01*
X116363669Y-95943709D01*
X116401314Y-96034592D01*
X116419139Y-96077625D01*
X116457450Y-96127552D01*
X116507378Y-96192621D01*
X116557306Y-96230932D01*
X116622375Y-96280861D01*
X116717067Y-96320083D01*
X116756290Y-96336330D01*
X116775209Y-96338820D01*
X116900000Y-96355250D01*
X117043709Y-96336330D01*
X117177625Y-96280861D01*
X117292621Y-96192621D01*
X117380861Y-96077625D01*
X117418621Y-95986461D01*
X117458357Y-95939936D01*
X117517852Y-95925652D01*
X117547968Y-95932882D01*
X117556291Y-95936330D01*
X117700000Y-95955250D01*
X117843709Y-95936330D01*
X117977625Y-95880861D01*
X118092621Y-95792621D01*
X118180861Y-95677625D01*
X118236330Y-95543709D01*
X118255250Y-95400000D01*
X118244322Y-95316998D01*
X118255472Y-95256840D01*
X118299854Y-95214722D01*
X118311879Y-95209924D01*
X118439861Y-95168341D01*
X118467295Y-95156493D01*
X118572946Y-95076050D01*
X118650192Y-94968041D01*
X118692170Y-94842061D01*
X118695149Y-94709305D01*
X118688609Y-94680146D01*
X118569287Y-94312912D01*
X118557440Y-94285478D01*
X118476997Y-94179827D01*
X118368987Y-94102581D01*
X118368985Y-94102580D01*
X118243007Y-94060604D01*
X118110251Y-94057624D01*
X118110250Y-94057624D01*
X118110249Y-94057624D01*
X118083356Y-94063656D01*
X118083333Y-94063662D01*
X118081092Y-94064165D01*
X118078897Y-94064878D01*
X118078894Y-94064879D01*
X117658991Y-94201313D01*
X117658981Y-94201316D01*
X117656795Y-94202027D01*
X117654685Y-94202938D01*
X117654683Y-94202939D01*
X117629359Y-94213876D01*
X117596750Y-94238704D01*
X117583952Y-94248450D01*
X117575721Y-94254717D01*
X117517969Y-94274925D01*
X117459369Y-94257328D01*
X117422304Y-94208648D01*
X117420138Y-94201561D01*
X117419647Y-94199119D01*
X117252861Y-93685807D01*
X117251672Y-93683212D01*
X117251669Y-93683204D01*
X117242325Y-93662810D01*
X117178043Y-93590974D01*
X117153329Y-93535002D01*
X117153664Y-93512038D01*
X117155250Y-93500000D01*
X117136330Y-93356291D01*
X117080861Y-93222375D01*
X117030152Y-93156290D01*
X116992621Y-93107378D01*
X116923556Y-93054383D01*
X116877625Y-93019139D01*
X116838401Y-93002892D01*
X116743709Y-92963669D01*
X116616717Y-92946951D01*
X116600000Y-92944750D01*
X116599999Y-92944750D01*
X116456290Y-92963669D01*
X116322375Y-93019139D01*
X116207378Y-93107378D01*
X116119139Y-93222375D01*
X116063669Y-93356290D01*
X116044750Y-93499999D01*
X116063669Y-93643709D01*
X116086986Y-93700000D01*
X116119139Y-93777625D01*
X116207379Y-93892621D01*
X116209438Y-93894200D01*
X116210324Y-93894881D01*
X116244979Y-93945306D01*
X116248545Y-93983467D01*
X116248308Y-93985784D01*
X116252738Y-94007789D01*
X116252740Y-94007797D01*
X116253301Y-94010583D01*
X116254180Y-94013288D01*
X116254181Y-94013292D01*
X116406377Y-94481701D01*
X116406377Y-94542887D01*
X116370413Y-94592387D01*
X116342815Y-94606449D01*
X115874408Y-94758644D01*
X115874395Y-94758648D01*
X115871696Y-94759526D01*
X115869115Y-94760708D01*
X115869093Y-94760717D01*
X115848699Y-94770061D01*
X115764978Y-94844978D01*
X115713974Y-94945081D01*
X115702574Y-95056847D01*
X115218648Y-95056847D01*
X115040621Y-94526977D01*
X115040618Y-94526968D01*
X115040227Y-94525805D01*
X115027824Y-94494204D01*
X114956672Y-94312912D01*
X114748664Y-93782917D01*
X114420435Y-93055485D01*
X114056353Y-92345318D01*
X113657326Y-91654182D01*
X113224344Y-90983795D01*
X113218341Y-90975446D01*
X112964664Y-90622603D01*
X112758484Y-90335824D01*
X112376069Y-89856290D01*
X112261678Y-89712848D01*
X112261672Y-89712841D01*
X112260905Y-89711879D01*
X112246452Y-89695502D01*
X111981301Y-89395049D01*
X111732843Y-89113512D01*
X111711874Y-89092014D01*
X111400080Y-88772347D01*
X111231978Y-88600000D01*
X113244750Y-88600000D01*
X113263669Y-88743709D01*
X113295805Y-88821292D01*
X113319139Y-88877625D01*
X113337675Y-88901781D01*
X113407378Y-88992621D01*
X113517194Y-89076886D01*
X113551850Y-89127311D01*
X113553700Y-89134547D01*
X113575765Y-89236812D01*
X113583645Y-89250806D01*
X113588177Y-89258853D01*
X113688446Y-89396861D01*
X113879345Y-89659611D01*
X113898252Y-89717802D01*
X113879345Y-89775993D01*
X113857443Y-89797895D01*
X113458992Y-90087388D01*
X113456687Y-90089063D01*
X113454598Y-90090984D01*
X113454587Y-90090994D01*
X113438985Y-90105350D01*
X113438072Y-90106190D01*
X113416256Y-90143709D01*
X113381598Y-90203313D01*
X113364024Y-90314274D01*
X113387719Y-90424094D01*
X113393565Y-90434475D01*
X113400131Y-90446135D01*
X113717376Y-90882784D01*
X113719305Y-90884880D01*
X113719307Y-90884883D01*
X113722406Y-90888251D01*
X113734503Y-90901399D01*
X113831625Y-90957872D01*
X113942588Y-90975447D01*
X114039129Y-90954615D01*
X114067049Y-90948592D01*
X114067420Y-90950314D01*
X114107995Y-90942141D01*
X114163623Y-90967622D01*
X114188061Y-91002596D01*
X114193215Y-91015037D01*
X114219139Y-91077626D01*
X114307378Y-91192621D01*
X114357306Y-91230932D01*
X114422375Y-91280861D01*
X114517067Y-91320083D01*
X114556290Y-91336330D01*
X114575209Y-91338820D01*
X114700000Y-91355250D01*
X114843709Y-91336330D01*
X114977625Y-91280861D01*
X115092621Y-91192621D01*
X115180861Y-91077625D01*
X115236330Y-90943709D01*
X115255250Y-90800000D01*
X115236330Y-90656291D01*
X115180861Y-90522375D01*
X115122360Y-90446135D01*
X115092622Y-90407379D01*
X115058708Y-90381356D01*
X115024053Y-90330931D01*
X115025655Y-90269766D01*
X115060785Y-90222721D01*
X115198761Y-90122477D01*
X115217376Y-90105350D01*
X115230605Y-90082597D01*
X115276197Y-90041798D01*
X115337067Y-90035588D01*
X115346077Y-90037981D01*
X115357205Y-90041505D01*
X115357206Y-90041505D01*
X115464239Y-90042305D01*
X115522285Y-90061646D01*
X115557878Y-90111413D01*
X115561651Y-90128378D01*
X115563669Y-90143709D01*
X115588358Y-90203312D01*
X115619139Y-90277625D01*
X115647261Y-90314274D01*
X115707378Y-90392621D01*
X115748395Y-90424094D01*
X115822375Y-90480861D01*
X115917067Y-90520083D01*
X115956290Y-90536330D01*
X115975209Y-90538820D01*
X116100000Y-90555250D01*
X116243709Y-90536330D01*
X116377625Y-90480861D01*
X116492621Y-90392621D01*
X116580861Y-90277625D01*
X116636330Y-90143709D01*
X116655250Y-90000000D01*
X116636330Y-89856291D01*
X116580861Y-89722375D01*
X116530932Y-89657306D01*
X116492621Y-89607378D01*
X116427552Y-89557450D01*
X116377625Y-89519139D01*
X116338401Y-89502892D01*
X116243709Y-89463669D01*
X116228834Y-89461711D01*
X116173610Y-89435368D01*
X116144416Y-89381596D01*
X116142762Y-89362821D01*
X116142944Y-89338569D01*
X116104754Y-89211389D01*
X116089523Y-89185679D01*
X115862561Y-88873291D01*
X115842815Y-88850861D01*
X115800135Y-88821292D01*
X115733662Y-88775239D01*
X115607066Y-88735150D01*
X115474281Y-88734157D01*
X115347103Y-88772347D01*
X115323380Y-88786401D01*
X115321392Y-88787579D01*
X115319531Y-88788930D01*
X115319522Y-88788937D01*
X114962332Y-89048450D01*
X114962317Y-89048461D01*
X114960463Y-89049809D01*
X114958731Y-89051332D01*
X114958723Y-89051340D01*
X114938033Y-89069553D01*
X114924959Y-89088424D01*
X114876277Y-89125488D01*
X114815107Y-89126860D01*
X114764814Y-89092014D01*
X114758622Y-89082600D01*
X114758642Y-89082632D01*
X114758570Y-89082521D01*
X114757317Y-89080615D01*
X114755699Y-89077741D01*
X114438454Y-88641092D01*
X114421327Y-88622477D01*
X114421326Y-88622476D01*
X114421325Y-88622475D01*
X114395017Y-88607178D01*
X114354216Y-88561583D01*
X114346628Y-88534516D01*
X114336330Y-88456290D01*
X114310030Y-88392796D01*
X114280861Y-88322375D01*
X114221017Y-88244385D01*
X114192621Y-88207378D01*
X114127552Y-88157450D01*
X114077625Y-88119139D01*
X114038401Y-88102892D01*
X113943709Y-88063669D01*
X113800000Y-88044750D01*
X113656290Y-88063669D01*
X113522375Y-88119139D01*
X113407378Y-88207378D01*
X113319139Y-88322375D01*
X113263669Y-88456290D01*
X113244750Y-88600000D01*
X111231978Y-88600000D01*
X111175612Y-88542211D01*
X110723136Y-88122375D01*
X110591506Y-88000240D01*
X110591498Y-88000233D01*
X110590596Y-87999396D01*
X110589643Y-87998596D01*
X109980198Y-87487211D01*
X109980186Y-87487202D01*
X109979250Y-87486416D01*
X109978286Y-87485686D01*
X109978270Y-87485673D01*
X109344072Y-87005287D01*
X109344070Y-87005286D01*
X109343095Y-87004547D01*
X108683711Y-86554986D01*
X108682689Y-86554361D01*
X108682679Y-86554355D01*
X108102802Y-86200000D01*
X108002738Y-86138852D01*
X107301868Y-85757179D01*
X107300766Y-85756648D01*
X107300744Y-85756637D01*
X106583952Y-85411449D01*
X106583948Y-85411447D01*
X106582845Y-85410916D01*
X106361000Y-85317400D01*
X105848578Y-85101395D01*
X105848559Y-85101387D01*
X105847457Y-85100923D01*
X105846332Y-85100513D01*
X105846323Y-85100510D01*
X105295423Y-84900000D01*
X105295420Y-84899999D01*
X108944750Y-84899999D01*
X108963669Y-85043709D01*
X109002556Y-85137589D01*
X109019139Y-85177625D01*
X109045975Y-85212598D01*
X109107378Y-85292621D01*
X109139670Y-85317399D01*
X109222375Y-85380861D01*
X109293781Y-85410438D01*
X109356289Y-85436330D01*
X109410066Y-85443409D01*
X109466589Y-85450851D01*
X109521814Y-85477192D01*
X109539250Y-85499240D01*
X109566514Y-85546128D01*
X109566515Y-85546129D01*
X109566516Y-85546130D01*
X109585129Y-85563257D01*
X109587433Y-85564931D01*
X109587438Y-85564935D01*
X109723335Y-85663669D01*
X109931139Y-85814647D01*
X109985887Y-85854423D01*
X110021851Y-85903923D01*
X110021851Y-85965108D01*
X110007789Y-85992706D01*
X109718306Y-86391148D01*
X109718299Y-86391157D01*
X109716622Y-86393467D01*
X109715226Y-86395944D01*
X109715215Y-86395963D01*
X109704210Y-86415506D01*
X109680514Y-86525328D01*
X109698088Y-86636289D01*
X109724005Y-86680860D01*
X109754562Y-86733412D01*
X109773175Y-86750539D01*
X109775479Y-86752213D01*
X109775484Y-86752217D01*
X110131987Y-87011230D01*
X110209826Y-87067783D01*
X110212316Y-87069185D01*
X110212322Y-87069189D01*
X110231865Y-87080194D01*
X110231867Y-87080195D01*
X110341686Y-87103891D01*
X110452649Y-87086316D01*
X110549771Y-87029843D01*
X110566898Y-87011230D01*
X110650193Y-86896582D01*
X110699690Y-86860620D01*
X110760876Y-86860619D01*
X110796298Y-86885652D01*
X110797039Y-86884687D01*
X110922375Y-86980861D01*
X111056290Y-87036330D01*
X111073008Y-87038531D01*
X111200000Y-87055250D01*
X111343709Y-87036330D01*
X111477625Y-86980861D01*
X111592621Y-86892621D01*
X111680861Y-86777625D01*
X111736330Y-86643709D01*
X111755250Y-86500000D01*
X111736330Y-86356291D01*
X111731118Y-86343709D01*
X111720083Y-86317067D01*
X111680861Y-86222375D01*
X111630932Y-86157306D01*
X111592621Y-86107378D01*
X111477626Y-86019140D01*
X111477625Y-86019139D01*
X111444307Y-86005338D01*
X111397783Y-85965602D01*
X111383500Y-85906107D01*
X111395932Y-85865299D01*
X111396172Y-85864874D01*
X111407010Y-85814645D01*
X111437764Y-85761753D01*
X111473890Y-85741148D01*
X111502348Y-85732136D01*
X111563530Y-85732594D01*
X111610876Y-85767536D01*
X111611205Y-85767285D01*
X111612079Y-85768424D01*
X111612760Y-85768927D01*
X111613532Y-85770318D01*
X111707378Y-85892621D01*
X111752384Y-85927155D01*
X111822375Y-85980861D01*
X111914788Y-86019139D01*
X111956290Y-86036330D01*
X111975210Y-86038820D01*
X112100000Y-86055250D01*
X112243709Y-86036330D01*
X112377625Y-85980861D01*
X112492621Y-85892621D01*
X112580861Y-85777625D01*
X112636330Y-85643709D01*
X112655250Y-85500000D01*
X112636330Y-85356291D01*
X112580861Y-85222375D01*
X112515802Y-85137589D01*
X112492621Y-85107378D01*
X112424485Y-85055096D01*
X112377625Y-85019139D01*
X112338401Y-85002892D01*
X112243709Y-84963669D01*
X112097288Y-84944393D01*
X112042063Y-84918052D01*
X112015829Y-84876126D01*
X112001417Y-84830612D01*
X111949025Y-84754989D01*
X111925795Y-84721459D01*
X111916165Y-84712981D01*
X111905102Y-84703242D01*
X111905100Y-84703240D01*
X111903365Y-84701713D01*
X111901007Y-84700000D01*
X111649110Y-84516987D01*
X111590977Y-84474751D01*
X111565267Y-84459520D01*
X111565266Y-84459519D01*
X111565265Y-84459519D01*
X111438087Y-84421329D01*
X111305302Y-84422322D01*
X111178706Y-84462411D01*
X111069553Y-84538033D01*
X111051340Y-84558722D01*
X111051324Y-84558741D01*
X111049809Y-84560463D01*
X111048461Y-84562317D01*
X111048450Y-84562332D01*
X110788937Y-84919522D01*
X110788930Y-84919531D01*
X110787579Y-84921392D01*
X110786403Y-84923375D01*
X110786401Y-84923380D01*
X110772346Y-84947105D01*
X110768199Y-84960915D01*
X110733354Y-85011209D01*
X110675601Y-85031415D01*
X110617002Y-85013817D01*
X110615192Y-85012533D01*
X110205202Y-84714659D01*
X110205198Y-84714656D01*
X110202892Y-84712981D01*
X110200405Y-84711581D01*
X110200395Y-84711574D01*
X110180852Y-84700569D01*
X110089514Y-84680861D01*
X110071032Y-84676873D01*
X110071031Y-84676873D01*
X110052942Y-84672970D01*
X110053627Y-84669792D01*
X110024242Y-84665137D01*
X109990509Y-84631399D01*
X109988795Y-84632715D01*
X109892621Y-84507378D01*
X109827552Y-84457450D01*
X109777625Y-84419139D01*
X109738401Y-84402892D01*
X109643709Y-84363669D01*
X109510041Y-84346072D01*
X109500000Y-84344750D01*
X109499999Y-84344750D01*
X109356290Y-84363669D01*
X109222375Y-84419139D01*
X109107378Y-84507378D01*
X109019139Y-84622375D01*
X108963669Y-84756290D01*
X108944750Y-84899999D01*
X105295420Y-84899999D01*
X105097530Y-84827973D01*
X105096400Y-84827624D01*
X105096372Y-84827615D01*
X104336101Y-84593103D01*
X104336093Y-84593100D01*
X104334930Y-84592742D01*
X104333750Y-84592441D01*
X104333741Y-84592439D01*
X103562733Y-84396116D01*
X103562715Y-84396111D01*
X103561553Y-84395816D01*
X103560368Y-84395576D01*
X103560353Y-84395573D01*
X102780531Y-84237928D01*
X102780515Y-84237925D01*
X102779322Y-84237684D01*
X102717581Y-84228378D01*
X101991402Y-84118924D01*
X101991394Y-84118923D01*
X101990180Y-84118740D01*
X101988966Y-84118618D01*
X101988954Y-84118617D01*
X101197321Y-84039403D01*
X101197317Y-84039402D01*
X101196091Y-84039280D01*
X101194879Y-84039219D01*
X101194859Y-84039218D01*
X100400248Y-83999560D01*
X100400212Y-83999559D01*
X100399028Y-83999500D01*
X99600972Y-83999500D01*
X99599787Y-83999559D01*
X99599751Y-83999560D01*
X99192888Y-84019866D01*
X99133827Y-84003883D01*
X99095440Y-83956237D01*
X99092391Y-83895127D01*
X99125842Y-83843896D01*
X99127599Y-83842513D01*
X99192621Y-83792621D01*
X99280861Y-83677625D01*
X99336330Y-83543709D01*
X99355250Y-83400000D01*
X99336330Y-83256291D01*
X99336172Y-83255910D01*
X99310494Y-83193917D01*
X99280861Y-83122375D01*
X99213631Y-83034759D01*
X99192621Y-83007378D01*
X99115887Y-82948499D01*
X99077625Y-82919139D01*
X98997214Y-82885832D01*
X98950688Y-82846096D01*
X98936404Y-82786601D01*
X98959819Y-82730073D01*
X98997214Y-82702904D01*
X99129553Y-82648088D01*
X99190549Y-82643287D01*
X99196713Y-82645368D01*
X99200124Y-82645763D01*
X99200127Y-82645765D01*
X99225253Y-82648680D01*
X99720618Y-82648679D01*
X99778809Y-82667586D01*
X99814773Y-82717086D01*
X99819618Y-82747679D01*
X99819618Y-83240188D01*
X99819618Y-83240205D01*
X99819619Y-83243044D01*
X99819946Y-83245867D01*
X99819947Y-83245877D01*
X99822533Y-83268170D01*
X99867911Y-83370944D01*
X99867912Y-83370945D01*
X99947353Y-83450386D01*
X100050127Y-83495765D01*
X100075253Y-83498680D01*
X100614982Y-83498679D01*
X100640109Y-83495765D01*
X100742883Y-83450386D01*
X100768553Y-83424715D01*
X100823065Y-83396938D01*
X100876439Y-83403254D01*
X100956291Y-83436330D01*
X101100000Y-83455250D01*
X101243709Y-83436330D01*
X101377625Y-83380861D01*
X101492621Y-83292621D01*
X101580861Y-83177625D01*
X101636330Y-83043709D01*
X101655250Y-82900000D01*
X101636330Y-82756291D01*
X101586904Y-82636965D01*
X103922036Y-82636965D01*
X103940955Y-82780675D01*
X103972676Y-82857255D01*
X103996425Y-82914591D01*
X104022444Y-82948499D01*
X104084664Y-83029587D01*
X104118108Y-83055249D01*
X104199661Y-83117827D01*
X104294353Y-83157049D01*
X104333576Y-83173296D01*
X104366451Y-83177624D01*
X104477286Y-83192216D01*
X104477287Y-83192215D01*
X104490209Y-83193917D01*
X104489817Y-83196887D01*
X104530033Y-83204338D01*
X104548814Y-83217568D01*
X104613007Y-83275010D01*
X104636003Y-83285546D01*
X105107122Y-83438621D01*
X105156623Y-83474585D01*
X105175530Y-83532776D01*
X105170685Y-83563368D01*
X105018491Y-84031774D01*
X105018486Y-84031792D01*
X105017610Y-84034489D01*
X105017049Y-84037272D01*
X105017046Y-84037286D01*
X105012616Y-84059286D01*
X105022602Y-84157185D01*
X105024016Y-84171053D01*
X105075020Y-84271155D01*
X105158741Y-84346072D01*
X105181737Y-84356608D01*
X105695050Y-84523393D01*
X105719847Y-84528386D01*
X105793098Y-84520915D01*
X105852907Y-84533820D01*
X105881685Y-84559137D01*
X105907378Y-84592621D01*
X105946155Y-84622375D01*
X106022375Y-84680861D01*
X106096524Y-84711574D01*
X106156290Y-84736330D01*
X106173008Y-84738531D01*
X106300000Y-84755250D01*
X106443709Y-84736330D01*
X106577625Y-84680861D01*
X106692621Y-84592621D01*
X106780861Y-84477625D01*
X106836330Y-84343709D01*
X106855250Y-84200000D01*
X106836330Y-84056291D01*
X106827299Y-84034489D01*
X106814622Y-84003883D01*
X106780861Y-83922375D01*
X106713048Y-83834000D01*
X106692621Y-83807378D01*
X106619978Y-83751638D01*
X106577625Y-83719139D01*
X106538401Y-83702892D01*
X106443709Y-83663669D01*
X106369424Y-83653890D01*
X106314199Y-83627549D01*
X106285004Y-83573778D01*
X106288191Y-83525144D01*
X106297737Y-83495764D01*
X106446618Y-83037555D01*
X106448682Y-83027300D01*
X106478701Y-82973987D01*
X106534325Y-82948499D01*
X106594307Y-82960573D01*
X106606000Y-82968296D01*
X106622375Y-82980861D01*
X106705551Y-83015313D01*
X106756290Y-83036330D01*
X106775209Y-83038820D01*
X106900000Y-83055250D01*
X107043709Y-83036330D01*
X107177625Y-82980861D01*
X107292621Y-82892621D01*
X107380861Y-82777625D01*
X107436330Y-82643709D01*
X107455250Y-82500000D01*
X107437323Y-82363832D01*
X107436330Y-82356290D01*
X107417259Y-82310250D01*
X107380861Y-82222375D01*
X107318567Y-82141192D01*
X107292621Y-82107378D01*
X107227552Y-82057450D01*
X107177625Y-82019139D01*
X107138401Y-82002892D01*
X107043709Y-81963669D01*
X106917916Y-81947108D01*
X106900000Y-81944750D01*
X106899999Y-81944750D01*
X106887078Y-81943049D01*
X106887430Y-81940367D01*
X106846307Y-81932742D01*
X106813029Y-81903334D01*
X106753187Y-81819660D01*
X106721930Y-81795861D01*
X106697984Y-81777628D01*
X106647534Y-81739215D01*
X106622232Y-81728289D01*
X106622227Y-81728287D01*
X106620101Y-81727369D01*
X106617904Y-81726655D01*
X106617901Y-81726654D01*
X106255055Y-81608757D01*
X106255036Y-81608752D01*
X106252867Y-81608047D01*
X106223708Y-81601507D01*
X106090951Y-81604486D01*
X105964972Y-81646463D01*
X105856963Y-81723710D01*
X105776521Y-81829359D01*
X105776520Y-81829360D01*
X105776520Y-81829361D01*
X105764672Y-81856795D01*
X105763961Y-81858981D01*
X105763958Y-81858991D01*
X105627836Y-82277933D01*
X105626810Y-82281092D01*
X105626307Y-82283333D01*
X105626301Y-82283356D01*
X105620269Y-82310250D01*
X105621471Y-82363832D01*
X105603873Y-82422432D01*
X105555192Y-82459497D01*
X105494022Y-82460869D01*
X105481267Y-82456058D01*
X105476694Y-82453963D01*
X105476683Y-82453959D01*
X105474093Y-82452772D01*
X105435927Y-82440371D01*
X104963489Y-82286867D01*
X104963485Y-82286866D01*
X104960780Y-82285987D01*
X104957990Y-82285425D01*
X104957974Y-82285421D01*
X104927488Y-82279282D01*
X104874175Y-82249259D01*
X104870288Y-82244637D01*
X104833925Y-82216735D01*
X104754911Y-82156105D01*
X104715687Y-82139858D01*
X104620995Y-82100635D01*
X104477286Y-82081716D01*
X104333576Y-82100635D01*
X104199661Y-82156105D01*
X104084664Y-82244344D01*
X103996425Y-82359341D01*
X103940955Y-82493256D01*
X103922036Y-82636965D01*
X101586904Y-82636965D01*
X101580861Y-82622375D01*
X101527457Y-82552778D01*
X101492621Y-82507378D01*
X101426187Y-82456402D01*
X101377625Y-82419139D01*
X101330125Y-82399464D01*
X101243709Y-82363669D01*
X101116717Y-82346951D01*
X101100000Y-82344750D01*
X101099999Y-82344750D01*
X100982539Y-82360214D01*
X100922378Y-82349064D01*
X100880261Y-82304681D01*
X100870617Y-82262064D01*
X100870617Y-81853316D01*
X100867703Y-81828189D01*
X100863474Y-81818612D01*
X100846594Y-81780381D01*
X100840385Y-81719512D01*
X100857501Y-81681607D01*
X100883648Y-81646180D01*
X100933414Y-81610588D01*
X100994598Y-81611046D01*
X101001171Y-81613498D01*
X101056291Y-81636330D01*
X101200000Y-81655250D01*
X101343709Y-81636330D01*
X101477625Y-81580861D01*
X101592621Y-81492621D01*
X101608100Y-81472447D01*
X101658524Y-81437791D01*
X101719688Y-81439392D01*
X101746460Y-81453828D01*
X101852658Y-81534361D01*
X101993436Y-81589877D01*
X102081898Y-81600500D01*
X102084850Y-81600500D01*
X103115150Y-81600500D01*
X103118102Y-81600500D01*
X103206564Y-81589877D01*
X103347342Y-81534361D01*
X103467922Y-81442922D01*
X103559361Y-81322342D01*
X103614877Y-81181564D01*
X103625500Y-81093102D01*
X103625500Y-80506898D01*
X103614877Y-80418436D01*
X103559361Y-80277658D01*
X103559360Y-80277657D01*
X103559360Y-80277656D01*
X103467922Y-80157077D01*
X103347343Y-80065639D01*
X103317862Y-80054013D01*
X103286374Y-80041596D01*
X103239178Y-80002660D01*
X103223881Y-79943418D01*
X103246327Y-79886498D01*
X103297943Y-79853643D01*
X103322694Y-79850499D01*
X103332009Y-79850499D01*
X103334864Y-79850499D01*
X103359991Y-79847585D01*
X103462765Y-79802206D01*
X103542206Y-79722765D01*
X103587585Y-79619991D01*
X103590500Y-79594865D01*
X103590499Y-77805136D01*
X103587585Y-77780009D01*
X103542206Y-77677235D01*
X103462765Y-77597794D01*
X103462764Y-77597793D01*
X103359989Y-77552414D01*
X103337714Y-77549830D01*
X103337704Y-77549829D01*
X103334865Y-77549500D01*
X103332000Y-77549500D01*
X101547991Y-77549500D01*
X101547973Y-77549500D01*
X101545136Y-77549501D01*
X101542313Y-77549828D01*
X101542302Y-77549829D01*
X101520009Y-77552415D01*
X101417235Y-77597793D01*
X101337793Y-77677235D01*
X101292414Y-77780010D01*
X101289830Y-77802285D01*
X101289829Y-77802296D01*
X101289500Y-77805135D01*
X101289500Y-77807991D01*
X101289500Y-77807999D01*
X101289500Y-79592008D01*
X101289500Y-79592025D01*
X101289501Y-79594864D01*
X101289828Y-79597687D01*
X101289829Y-79597697D01*
X101291961Y-79616081D01*
X101292415Y-79619991D01*
X101312451Y-79665368D01*
X101337793Y-79722764D01*
X101337793Y-79722765D01*
X101337794Y-79722765D01*
X101417235Y-79802206D01*
X101520009Y-79847585D01*
X101545135Y-79850500D01*
X101877305Y-79850499D01*
X101935494Y-79869406D01*
X101971459Y-79918906D01*
X101971459Y-79980091D01*
X101935495Y-80029592D01*
X101913623Y-80041596D01*
X101852659Y-80065637D01*
X101732077Y-80157077D01*
X101640639Y-80277656D01*
X101585122Y-80418437D01*
X101574851Y-80503969D01*
X101574850Y-80503981D01*
X101574500Y-80506898D01*
X101574500Y-80509849D01*
X101574500Y-80511102D01*
X101574408Y-80511384D01*
X101574323Y-80512809D01*
X101574361Y-80511528D01*
X101555593Y-80569293D01*
X101506093Y-80605257D01*
X101444907Y-80605257D01*
X101437615Y-80602566D01*
X101343710Y-80563669D01*
X101214975Y-80546721D01*
X101200000Y-80544750D01*
X101199999Y-80544750D01*
X101056289Y-80563669D01*
X100922374Y-80619138D01*
X100884770Y-80647993D01*
X100827094Y-80668417D01*
X100768428Y-80651039D01*
X100765715Y-80649106D01*
X100748156Y-80636147D01*
X100622821Y-80592290D01*
X100595362Y-80589715D01*
X100595355Y-80589714D01*
X100593066Y-80589500D01*
X100206934Y-80589500D01*
X100204645Y-80589714D01*
X100204637Y-80589715D01*
X100177178Y-80592290D01*
X100051843Y-80636147D01*
X99945001Y-80715001D01*
X99866147Y-80821843D01*
X99822290Y-80947178D01*
X99822107Y-80949136D01*
X99819500Y-80976934D01*
X99819500Y-81423066D01*
X99819714Y-81425355D01*
X99819715Y-81425362D01*
X99822290Y-81452819D01*
X99826896Y-81465983D01*
X99828268Y-81527153D01*
X99793424Y-81577447D01*
X99735672Y-81597655D01*
X99733451Y-81597680D01*
X99228109Y-81597680D01*
X99228091Y-81597680D01*
X99225254Y-81597681D01*
X99222431Y-81598008D01*
X99222420Y-81598009D01*
X99200127Y-81600595D01*
X99114955Y-81638202D01*
X99054085Y-81644410D01*
X99037083Y-81639102D01*
X99006454Y-81626415D01*
X98862746Y-81607496D01*
X98719036Y-81626415D01*
X98585120Y-81681885D01*
X98518413Y-81733071D01*
X98460737Y-81753495D01*
X98402071Y-81736117D01*
X98364824Y-81687575D01*
X98363223Y-81626411D01*
X98379603Y-81594263D01*
X98380861Y-81592625D01*
X98436330Y-81458709D01*
X98455250Y-81315000D01*
X98438531Y-81188008D01*
X98436330Y-81171290D01*
X98405156Y-81096030D01*
X98380861Y-81037375D01*
X98330932Y-80972306D01*
X98292621Y-80922378D01*
X98209817Y-80858841D01*
X98177625Y-80834139D01*
X98137862Y-80817669D01*
X98043709Y-80778669D01*
X97916717Y-80761951D01*
X97900000Y-80759750D01*
X97899999Y-80759750D01*
X97807672Y-80771905D01*
X97747511Y-80760755D01*
X97733030Y-80748315D01*
X97732342Y-80749223D01*
X97721502Y-80741002D01*
X97721500Y-80741000D01*
X97603658Y-80651638D01*
X97603656Y-80651637D01*
X97521246Y-80619139D01*
X97466077Y-80597383D01*
X97452670Y-80595773D01*
X97382546Y-80587351D01*
X97382535Y-80587350D01*
X97379618Y-80587000D01*
X96820382Y-80587000D01*
X96817465Y-80587350D01*
X96817453Y-80587351D01*
X96733923Y-80597383D01*
X96596341Y-80651638D01*
X96478499Y-80740999D01*
X96389138Y-80858841D01*
X96334883Y-80996423D01*
X96324851Y-81079953D01*
X96324850Y-81079965D01*
X96324500Y-81082882D01*
X96324500Y-81667118D01*
X96324850Y-81670035D01*
X96324851Y-81670046D01*
X96330461Y-81716756D01*
X96334883Y-81753577D01*
X96373432Y-81851330D01*
X96389138Y-81891158D01*
X96478499Y-82009000D01*
X96567059Y-82076156D01*
X96596342Y-82098362D01*
X96733923Y-82152617D01*
X96820382Y-82163000D01*
X96823334Y-82163000D01*
X97376666Y-82163000D01*
X97379618Y-82163000D01*
X97466077Y-82152617D01*
X97603658Y-82098362D01*
X97721500Y-82009000D01*
X97798605Y-81907321D01*
X97848830Y-81872379D01*
X97890408Y-81868987D01*
X97900000Y-81870250D01*
X98043709Y-81851330D01*
X98177625Y-81795861D01*
X98244334Y-81744672D01*
X98302007Y-81724250D01*
X98360673Y-81741627D01*
X98397920Y-81790169D01*
X98399522Y-81851333D01*
X98383144Y-81883479D01*
X98381886Y-81885118D01*
X98326415Y-82019036D01*
X98307496Y-82162746D01*
X98326415Y-82306455D01*
X98350182Y-82363832D01*
X98381885Y-82440371D01*
X98420196Y-82490298D01*
X98470124Y-82555367D01*
X98554524Y-82620129D01*
X98585121Y-82643607D01*
X98665531Y-82676913D01*
X98712057Y-82716649D01*
X98726341Y-82776144D01*
X98702927Y-82832672D01*
X98665532Y-82859841D01*
X98522374Y-82919139D01*
X98397039Y-83015313D01*
X98394224Y-83011645D01*
X98364640Y-83031945D01*
X98336596Y-83036000D01*
X97974500Y-83036000D01*
X97916309Y-83017093D01*
X97880345Y-82967593D01*
X97875500Y-82937000D01*
X97875500Y-82910833D01*
X97875500Y-82907882D01*
X97865117Y-82821423D01*
X97810862Y-82683842D01*
X97783749Y-82648088D01*
X97721500Y-82565999D01*
X97603658Y-82476638D01*
X97569855Y-82463308D01*
X97466077Y-82422383D01*
X97452670Y-82420773D01*
X97382546Y-82412351D01*
X97382535Y-82412350D01*
X97379618Y-82412000D01*
X96820382Y-82412000D01*
X96817465Y-82412350D01*
X96817453Y-82412351D01*
X96733923Y-82422383D01*
X96596341Y-82476638D01*
X96478499Y-82565999D01*
X96389138Y-82683841D01*
X96334883Y-82821423D01*
X96324851Y-82904953D01*
X96324850Y-82904965D01*
X96324500Y-82907882D01*
X96324500Y-83492118D01*
X96324850Y-83495035D01*
X96324851Y-83495046D01*
X96333057Y-83563368D01*
X96334883Y-83578577D01*
X96373942Y-83677624D01*
X96389138Y-83716158D01*
X96478499Y-83834000D01*
X96550758Y-83888795D01*
X96596342Y-83923362D01*
X96733923Y-83977617D01*
X96820382Y-83988000D01*
X96823334Y-83988000D01*
X97376666Y-83988000D01*
X97379618Y-83988000D01*
X97466077Y-83977617D01*
X97603658Y-83923362D01*
X97721500Y-83834000D01*
X97744871Y-83803181D01*
X97795097Y-83768239D01*
X97823755Y-83764000D01*
X98336596Y-83764000D01*
X98394787Y-83782907D01*
X98396857Y-83784922D01*
X98397039Y-83784687D01*
X98532715Y-83888795D01*
X98532070Y-83889634D01*
X98567779Y-83920131D01*
X98582063Y-83979626D01*
X98558649Y-84036154D01*
X98506481Y-84068124D01*
X98493225Y-84070368D01*
X98011045Y-84118617D01*
X98011028Y-84118619D01*
X98009820Y-84118740D01*
X98008610Y-84118922D01*
X98008597Y-84118924D01*
X97221904Y-84237499D01*
X97221895Y-84237500D01*
X97220678Y-84237684D01*
X97219491Y-84237923D01*
X97219468Y-84237928D01*
X96439646Y-84395573D01*
X96439622Y-84395578D01*
X96438447Y-84395816D01*
X96437293Y-84396109D01*
X96437266Y-84396116D01*
X95666258Y-84592439D01*
X95666239Y-84592444D01*
X95665070Y-84592742D01*
X95663916Y-84593097D01*
X95663898Y-84593103D01*
X95293304Y-84707416D01*
X95232125Y-84706500D01*
X95183169Y-84669800D01*
X95165134Y-84611333D01*
X95176828Y-84566118D01*
X95254567Y-84420797D01*
X95315726Y-84244843D01*
X95324655Y-84195101D01*
X95353546Y-84141168D01*
X95391503Y-84118439D01*
X95466895Y-84093944D01*
X95489892Y-84083408D01*
X95573613Y-84008491D01*
X95624617Y-83908389D01*
X95636016Y-83796622D01*
X95631024Y-83771825D01*
X95464238Y-83258513D01*
X95463049Y-83255918D01*
X95463046Y-83255910D01*
X95453702Y-83235516D01*
X95437642Y-83217569D01*
X95388080Y-83162182D01*
X95363367Y-83106212D01*
X95363367Y-83086126D01*
X95373352Y-82988224D01*
X95368870Y-82965962D01*
X95375921Y-82905187D01*
X95417349Y-82860161D01*
X95453000Y-82848272D01*
X95502257Y-82841787D01*
X95543710Y-82836330D01*
X95579698Y-82821423D01*
X95677625Y-82780861D01*
X95792621Y-82692621D01*
X95880861Y-82577625D01*
X95936330Y-82443709D01*
X95955250Y-82300000D01*
X95936330Y-82156291D01*
X95934808Y-82152617D01*
X95903137Y-82076156D01*
X95880861Y-82022375D01*
X95812083Y-81932742D01*
X95792621Y-81907378D01*
X95690946Y-81829361D01*
X95677625Y-81819139D01*
X95621429Y-81795862D01*
X95543709Y-81763669D01*
X95400000Y-81744750D01*
X95256289Y-81763669D01*
X95222591Y-81777628D01*
X95161594Y-81782428D01*
X95109425Y-81750459D01*
X95090551Y-81716756D01*
X95075374Y-81670046D01*
X95039664Y-81560139D01*
X95027816Y-81532705D01*
X94947373Y-81427054D01*
X94839364Y-81349808D01*
X94839363Y-81349807D01*
X94713384Y-81307830D01*
X94713383Y-81307829D01*
X94580628Y-81304851D01*
X94580627Y-81304851D01*
X94553720Y-81310886D01*
X94553717Y-81310886D01*
X94551469Y-81311391D01*
X94549304Y-81312094D01*
X94549280Y-81312101D01*
X94186434Y-81429998D01*
X94186424Y-81430001D01*
X94184235Y-81430713D01*
X94182115Y-81431628D01*
X94182103Y-81431633D01*
X94156801Y-81442559D01*
X94091051Y-81492622D01*
X94051150Y-81523003D01*
X94043028Y-81534360D01*
X93973903Y-81631014D01*
X93931927Y-81756992D01*
X93928947Y-81889750D01*
X93934979Y-81916643D01*
X93934984Y-81916661D01*
X93935488Y-81918908D01*
X93994535Y-82100636D01*
X94041228Y-82244345D01*
X94073350Y-82343205D01*
X94085198Y-82370639D01*
X94085199Y-82370640D01*
X94106526Y-82398650D01*
X94126734Y-82456402D01*
X94109137Y-82515002D01*
X94060457Y-82552067D01*
X94058352Y-82552778D01*
X93560457Y-82714554D01*
X93560444Y-82714558D01*
X93557745Y-82715436D01*
X93555164Y-82716618D01*
X93555142Y-82716627D01*
X93534748Y-82725971D01*
X93437236Y-82813230D01*
X93436392Y-82812287D01*
X93411113Y-82837562D01*
X93379100Y-82847501D01*
X93256289Y-82863669D01*
X93122375Y-82919139D01*
X93007378Y-83007378D01*
X92919139Y-83122375D01*
X92863669Y-83256290D01*
X92844750Y-83400000D01*
X92863669Y-83543709D01*
X92898397Y-83627549D01*
X92919139Y-83677625D01*
X92957450Y-83727552D01*
X93007378Y-83792621D01*
X93057306Y-83830932D01*
X93122375Y-83880861D01*
X93197154Y-83911835D01*
X93256290Y-83936330D01*
X93273008Y-83938531D01*
X93400000Y-83955250D01*
X93543709Y-83936330D01*
X93677625Y-83880861D01*
X93792621Y-83792621D01*
X93824068Y-83751636D01*
X93874491Y-83716981D01*
X93877511Y-83716139D01*
X93879719Y-83715560D01*
X93882521Y-83714996D01*
X94353641Y-83561919D01*
X94414824Y-83561919D01*
X94464325Y-83597883D01*
X94478387Y-83625481D01*
X94586708Y-83958859D01*
X94602335Y-84006952D01*
X94602893Y-84066361D01*
X94587778Y-84116041D01*
X94578464Y-84137305D01*
X94535912Y-84209867D01*
X94521901Y-84228378D01*
X94463624Y-84289031D01*
X94445688Y-84303770D01*
X94370208Y-84352186D01*
X94360065Y-84357880D01*
X92068363Y-85472762D01*
X92068314Y-85472790D01*
X91830873Y-85588307D01*
X91830809Y-85588339D01*
X91829849Y-85588807D01*
X91828897Y-85589325D01*
X91828866Y-85589341D01*
X91491075Y-85773150D01*
X91430924Y-85784356D01*
X91375675Y-85758066D01*
X91346430Y-85704322D01*
X91345603Y-85673273D01*
X91355250Y-85600000D01*
X91338502Y-85472790D01*
X91336330Y-85456290D01*
X91294909Y-85356291D01*
X91280861Y-85322375D01*
X91226416Y-85251421D01*
X91192621Y-85207378D01*
X91101669Y-85137589D01*
X91077625Y-85119139D01*
X91032650Y-85100510D01*
X90943709Y-85063669D01*
X90883398Y-85055729D01*
X90828173Y-85029387D01*
X90798979Y-84975616D01*
X90804856Y-84919693D01*
X90836330Y-84843709D01*
X90855250Y-84700000D01*
X90836330Y-84556291D01*
X90828767Y-84538033D01*
X90803746Y-84477625D01*
X90780861Y-84422375D01*
X90727003Y-84352186D01*
X90692621Y-84307378D01*
X90611123Y-84244843D01*
X90577625Y-84219139D01*
X90519594Y-84195102D01*
X90443709Y-84163669D01*
X90300000Y-84144750D01*
X90156290Y-84163669D01*
X90022377Y-84219137D01*
X89953051Y-84272333D01*
X89895374Y-84292756D01*
X89836709Y-84275378D01*
X89812691Y-84251981D01*
X89628205Y-83998058D01*
X89628204Y-83998056D01*
X89626847Y-83996189D01*
X89625320Y-83994455D01*
X89625315Y-83994448D01*
X89607102Y-83973759D01*
X89497949Y-83898137D01*
X89371353Y-83858048D01*
X89238568Y-83857055D01*
X89111390Y-83895245D01*
X89087667Y-83909299D01*
X89085679Y-83910477D01*
X89083818Y-83911829D01*
X89083809Y-83911835D01*
X88775156Y-84136083D01*
X88775142Y-84136093D01*
X88773291Y-84137439D01*
X88771565Y-84138957D01*
X88771553Y-84138968D01*
X88750861Y-84157184D01*
X88675239Y-84266337D01*
X88635150Y-84392933D01*
X88634157Y-84525718D01*
X88663182Y-84622375D01*
X88672348Y-84652898D01*
X88687579Y-84678608D01*
X88703121Y-84700000D01*
X88946741Y-85035315D01*
X88949809Y-85039537D01*
X88956890Y-85047581D01*
X88971080Y-85063701D01*
X88995338Y-85119873D01*
X88981945Y-85179574D01*
X88950563Y-85212100D01*
X88949679Y-85212598D01*
X88947371Y-85214274D01*
X88947366Y-85214278D01*
X88555151Y-85499240D01*
X88513030Y-85529843D01*
X88510941Y-85531764D01*
X88510930Y-85531774D01*
X88494413Y-85546971D01*
X88456828Y-85611610D01*
X88411233Y-85652411D01*
X88384169Y-85659999D01*
X88356290Y-85663669D01*
X88222375Y-85719139D01*
X88107378Y-85807378D01*
X88019139Y-85922375D01*
X87963669Y-86056290D01*
X87944750Y-86200000D01*
X87963669Y-86343709D01*
X87993572Y-86415900D01*
X88019139Y-86477625D01*
X88055742Y-86525327D01*
X88107378Y-86592621D01*
X88120394Y-86602608D01*
X88222375Y-86680861D01*
X88317067Y-86720083D01*
X88356290Y-86736330D01*
X88373008Y-86738531D01*
X88500000Y-86755250D01*
X88643709Y-86736330D01*
X88777625Y-86680861D01*
X88892621Y-86592621D01*
X88980861Y-86477625D01*
X88987156Y-86462426D01*
X89026891Y-86415900D01*
X89057741Y-86403537D01*
X89108750Y-86392531D01*
X89130791Y-86380120D01*
X89531550Y-86088950D01*
X89589740Y-86070044D01*
X89647931Y-86088951D01*
X89669833Y-86110853D01*
X89697207Y-86148530D01*
X89961001Y-86511610D01*
X89962930Y-86513706D01*
X89962932Y-86513709D01*
X89978129Y-86530226D01*
X90013073Y-86550545D01*
X90053874Y-86596140D01*
X90060082Y-86657010D01*
X90029326Y-86709903D01*
X90022035Y-86715829D01*
X89977545Y-86748610D01*
X89791483Y-86885704D01*
X89791434Y-86885742D01*
X89789999Y-86886863D01*
X89320084Y-87261186D01*
X89318660Y-87262387D01*
X88863130Y-87654120D01*
X88861762Y-87655365D01*
X88421267Y-88063951D01*
X88419937Y-88065256D01*
X88240839Y-88244385D01*
X88147772Y-88337451D01*
X88083379Y-88401845D01*
X88083378Y-88401846D01*
X88083376Y-88401847D01*
X88021281Y-88463943D01*
X87838507Y-88646730D01*
X87837276Y-88648029D01*
X87506062Y-89003995D01*
X87452579Y-89033715D01*
X87391842Y-89026323D01*
X87347050Y-88984642D01*
X87341620Y-88968206D01*
X87341318Y-88968332D01*
X87320412Y-88917863D01*
X87280861Y-88822375D01*
X87220498Y-88743709D01*
X87192621Y-88707378D01*
X87109238Y-88643397D01*
X87077625Y-88619139D01*
X87031419Y-88600000D01*
X86943709Y-88563669D01*
X86813201Y-88546488D01*
X86800000Y-88544750D01*
X86799999Y-88544750D01*
X86656293Y-88563669D01*
X86579283Y-88595567D01*
X86518286Y-88600366D01*
X86466117Y-88568396D01*
X86442703Y-88511868D01*
X86443244Y-88491186D01*
X86455250Y-88400000D01*
X86436330Y-88256291D01*
X86431398Y-88244385D01*
X86409543Y-88191621D01*
X86380861Y-88122375D01*
X86321297Y-88044750D01*
X86292621Y-88007378D01*
X86227552Y-87957450D01*
X86177625Y-87919139D01*
X86138401Y-87902892D01*
X86043709Y-87863669D01*
X85900000Y-87844750D01*
X85756290Y-87863669D01*
X85622375Y-87919139D01*
X85507378Y-88007378D01*
X85419138Y-88122375D01*
X85415643Y-88130814D01*
X85375905Y-88177339D01*
X85316410Y-88191621D01*
X85265989Y-88173019D01*
X85044751Y-88012281D01*
X85044752Y-88012281D01*
X85042882Y-88010923D01*
X85017172Y-87995692D01*
X85017171Y-87995691D01*
X85017170Y-87995691D01*
X84889992Y-87957501D01*
X84757207Y-87958494D01*
X84630611Y-87998583D01*
X84521458Y-88074205D01*
X84503242Y-88094897D01*
X84503231Y-88094909D01*
X84501713Y-88096635D01*
X84500367Y-88098486D01*
X84500357Y-88098500D01*
X84276109Y-88407153D01*
X84276103Y-88407162D01*
X84274751Y-88409023D01*
X84273575Y-88411006D01*
X84273573Y-88411011D01*
X84259519Y-88434734D01*
X84221329Y-88561912D01*
X84222322Y-88694697D01*
X84262411Y-88821293D01*
X84338033Y-88930446D01*
X84358722Y-88948659D01*
X84358729Y-88948664D01*
X84360463Y-88950191D01*
X84362330Y-88951547D01*
X84362332Y-88951549D01*
X84385432Y-88968332D01*
X84721392Y-89212421D01*
X84747102Y-89227652D01*
X84801060Y-89243854D01*
X84851352Y-89278697D01*
X84871561Y-89336449D01*
X84853965Y-89395049D01*
X84852679Y-89396861D01*
X84586603Y-89763086D01*
X84586596Y-89763095D01*
X84584919Y-89765405D01*
X84583523Y-89767882D01*
X84583512Y-89767901D01*
X84572508Y-89787443D01*
X84572507Y-89787444D01*
X84572507Y-89787446D01*
X84557652Y-89856290D01*
X84556067Y-89863637D01*
X84525311Y-89916530D01*
X84519562Y-89921297D01*
X84407377Y-90007380D01*
X84319139Y-90122375D01*
X84263669Y-90256290D01*
X84244750Y-90400000D01*
X84263669Y-90543709D01*
X84289313Y-90605618D01*
X84319139Y-90677625D01*
X84357450Y-90727552D01*
X84407378Y-90792621D01*
X84448325Y-90824040D01*
X84522375Y-90880861D01*
X84617067Y-90920083D01*
X84656290Y-90936330D01*
X84673008Y-90938531D01*
X84800000Y-90955250D01*
X84943709Y-90936330D01*
X85077625Y-90880861D01*
X85192621Y-90792621D01*
X85280861Y-90677625D01*
X85336330Y-90543709D01*
X85343440Y-90489699D01*
X85369780Y-90434475D01*
X85391828Y-90417038D01*
X85418068Y-90401781D01*
X85435195Y-90383168D01*
X85726361Y-89982409D01*
X85775861Y-89946446D01*
X85837046Y-89946445D01*
X85864644Y-89960506D01*
X86265405Y-90251675D01*
X86267895Y-90253077D01*
X86267901Y-90253081D01*
X86287444Y-90264086D01*
X86287446Y-90264087D01*
X86298581Y-90266489D01*
X86351474Y-90297244D01*
X86376189Y-90353216D01*
X86363284Y-90413025D01*
X86359095Y-90419617D01*
X86237984Y-90594542D01*
X86237966Y-90594562D01*
X86079177Y-90823927D01*
X86079111Y-90824040D01*
X85947526Y-91014100D01*
X85947511Y-91014121D01*
X85946878Y-91015037D01*
X85946294Y-91015969D01*
X85946280Y-91015991D01*
X85660613Y-91472260D01*
X85660584Y-91472308D01*
X85660016Y-91473216D01*
X85659480Y-91474165D01*
X85659458Y-91474204D01*
X85395169Y-91943141D01*
X85395144Y-91943187D01*
X85394604Y-91944146D01*
X85394092Y-91945159D01*
X85394082Y-91945180D01*
X85151725Y-92425794D01*
X85151710Y-92425824D01*
X85151207Y-92426823D01*
X85150745Y-92427854D01*
X85150736Y-92427874D01*
X84936093Y-92907379D01*
X84930346Y-92920218D01*
X84929928Y-92921279D01*
X84929922Y-92921295D01*
X84745426Y-93390385D01*
X84706532Y-93437618D01*
X84647304Y-93452968D01*
X84590364Y-93430574D01*
X84574756Y-93414419D01*
X84530152Y-93356290D01*
X84492621Y-93307378D01*
X84423321Y-93254203D01*
X84377625Y-93219139D01*
X84338401Y-93202892D01*
X84243709Y-93163669D01*
X84116717Y-93146951D01*
X84100000Y-93144750D01*
X84099999Y-93144750D01*
X83956290Y-93163669D01*
X83822374Y-93219139D01*
X83796952Y-93238646D01*
X83739276Y-93259069D01*
X83680610Y-93241690D01*
X83643364Y-93193148D01*
X83638533Y-93173024D01*
X83636330Y-93156290D01*
X83616070Y-93107378D01*
X83580861Y-93022375D01*
X83507360Y-92926587D01*
X83492621Y-92907378D01*
X83427552Y-92857450D01*
X83377625Y-92819139D01*
X83338401Y-92802892D01*
X83243709Y-92763669D01*
X83116717Y-92746951D01*
X83100000Y-92744750D01*
X83099999Y-92744750D01*
X82956290Y-92763669D01*
X82822375Y-92819139D01*
X82707378Y-92907378D01*
X82619139Y-93022375D01*
X82563669Y-93156290D01*
X82561473Y-93172973D01*
X82535130Y-93228197D01*
X82481358Y-93257391D01*
X82432727Y-93254203D01*
X82233797Y-93189567D01*
X82115564Y-93151151D01*
X82113317Y-93150647D01*
X82113299Y-93150642D01*
X82086406Y-93144610D01*
X82086405Y-93144610D01*
X82020027Y-93146100D01*
X81953648Y-93147590D01*
X81827670Y-93189566D01*
X81786320Y-93219139D01*
X81732834Y-93257391D01*
X81719658Y-93266814D01*
X81639215Y-93372464D01*
X81628289Y-93397766D01*
X81628284Y-93397778D01*
X81627369Y-93399898D01*
X81626657Y-93402087D01*
X81626654Y-93402097D01*
X81508757Y-93764943D01*
X81508750Y-93764967D01*
X81508047Y-93767132D01*
X81507542Y-93769380D01*
X81507542Y-93769383D01*
X81501507Y-93796290D01*
X81504486Y-93929047D01*
X81546463Y-94055026D01*
X81568464Y-94085788D01*
X81623710Y-94163036D01*
X81729361Y-94243479D01*
X81756795Y-94255327D01*
X82181092Y-94393189D01*
X82183353Y-94393696D01*
X82183356Y-94393697D01*
X82198647Y-94397126D01*
X82209573Y-94399578D01*
X82210247Y-94399729D01*
X82210251Y-94399730D01*
X82216979Y-94399578D01*
X82275577Y-94417173D01*
X82312644Y-94465852D01*
X82314019Y-94527022D01*
X82313356Y-94529145D01*
X82158806Y-95004802D01*
X82158801Y-95004820D01*
X82157925Y-95007517D01*
X82157364Y-95010300D01*
X82157361Y-95010314D01*
X82152931Y-95032314D01*
X82160579Y-95107299D01*
X82147673Y-95167107D01*
X82122359Y-95195883D01*
X82107380Y-95207377D01*
X82019138Y-95322375D01*
X81963669Y-95456290D01*
X81944750Y-95600000D01*
X81963669Y-95743709D01*
X81986986Y-95800000D01*
X82019139Y-95877625D01*
X82028322Y-95889592D01*
X82107378Y-95992621D01*
X82157306Y-96030932D01*
X82222375Y-96080861D01*
X82317067Y-96120083D01*
X82356290Y-96136330D01*
X82375209Y-96138820D01*
X82500000Y-96155250D01*
X82643709Y-96136330D01*
X82777625Y-96080861D01*
X82892621Y-95992621D01*
X82980861Y-95877625D01*
X83036330Y-95743709D01*
X83055250Y-95600000D01*
X83044858Y-95521070D01*
X83056008Y-95460912D01*
X83069236Y-95442133D01*
X83072028Y-95439012D01*
X83072031Y-95439011D01*
X83146948Y-95355290D01*
X83157484Y-95332294D01*
X83310560Y-94861172D01*
X83346523Y-94811673D01*
X83404714Y-94792766D01*
X83435305Y-94797610D01*
X83906427Y-94950687D01*
X83931224Y-94955680D01*
X84042991Y-94944281D01*
X84042991Y-94944280D01*
X84061402Y-94942403D01*
X84061665Y-94944990D01*
X84092963Y-94940030D01*
X84147483Y-94967801D01*
X84175267Y-95022314D01*
X84171193Y-95069756D01*
X84154358Y-95119139D01*
X84143763Y-95150216D01*
X84137342Y-95169053D01*
X84131659Y-95185723D01*
X84131644Y-95185780D01*
X84044098Y-95442553D01*
X84043526Y-95444408D01*
X83867842Y-96034592D01*
X83867337Y-96036489D01*
X83714923Y-96633084D01*
X83714503Y-96634958D01*
X83585578Y-97237109D01*
X83585228Y-97239015D01*
X83480003Y-97845739D01*
X83479726Y-97847671D01*
X83444403Y-98112798D01*
X83430548Y-98216716D01*
X83430544Y-98216723D01*
X83393816Y-98492154D01*
X83367383Y-98547335D01*
X83313564Y-98576440D01*
X83252915Y-98568353D01*
X83217143Y-98539336D01*
X83192619Y-98507377D01*
X83138012Y-98465476D01*
X83077625Y-98419139D01*
X83038401Y-98402892D01*
X82943709Y-98363669D01*
X82800000Y-98344750D01*
X82656290Y-98363669D01*
X82522375Y-98419139D01*
X82461987Y-98465476D01*
X82404311Y-98485900D01*
X82345645Y-98468522D01*
X82323178Y-98447201D01*
X82292621Y-98407378D01*
X82227034Y-98357052D01*
X82177625Y-98319139D01*
X82138401Y-98302892D01*
X82043709Y-98263669D01*
X81900000Y-98244750D01*
X81756290Y-98263669D01*
X81622375Y-98319139D01*
X81507378Y-98407378D01*
X81419139Y-98522375D01*
X81363669Y-98656290D01*
X81344750Y-98800000D01*
X81361992Y-98930966D01*
X81350842Y-98991127D01*
X81306459Y-99033244D01*
X81254598Y-99042456D01*
X81225367Y-99039715D01*
X81225350Y-99039714D01*
X81223066Y-99039500D01*
X80776934Y-99039500D01*
X80774645Y-99039714D01*
X80774637Y-99039715D01*
X80747178Y-99042290D01*
X80621843Y-99086147D01*
X80515001Y-99165001D01*
X80436147Y-99271843D01*
X80392290Y-99397178D01*
X80392290Y-99397181D01*
X80389500Y-99426934D01*
X80389500Y-99813066D01*
X79827835Y-99813066D01*
X79827835Y-99798750D01*
X79827859Y-99796588D01*
X79827859Y-99796587D01*
X79838168Y-99324685D01*
X79838235Y-99322687D01*
X79856102Y-98920544D01*
X79856207Y-98918633D01*
X79887133Y-98447374D01*
X79887294Y-98445287D01*
X79922992Y-98044368D01*
X79923168Y-98042604D01*
X79974648Y-97573118D01*
X79974916Y-97570920D01*
X80028463Y-97171314D01*
X80100560Y-96703478D01*
X80100938Y-96701213D01*
X80172129Y-96304616D01*
X80264631Y-95840160D01*
X80265127Y-95837823D01*
X80353758Y-95445193D01*
X80466553Y-94984822D01*
X80467128Y-94982603D01*
X80573018Y-94594592D01*
X80705895Y-94139303D01*
X80706620Y-94136937D01*
X80829445Y-93754579D01*
X80982250Y-93305027D01*
X80983090Y-93302662D01*
X81122561Y-92926688D01*
X81295035Y-92483770D01*
X81296029Y-92481319D01*
X81451773Y-92112567D01*
X81643707Y-91676967D01*
X81644800Y-91674580D01*
X81816436Y-91313784D01*
X82027511Y-90886372D01*
X82028768Y-90883919D01*
X82215763Y-90532009D01*
X82445770Y-90113375D01*
X82447201Y-90110861D01*
X82649024Y-89768632D01*
X82897654Y-89359522D01*
X82899256Y-89356977D01*
X83115407Y-89025066D01*
X83382297Y-88626261D01*
X83384026Y-88623765D01*
X83613835Y-88302977D01*
X83898750Y-87915035D01*
X83900633Y-87912558D01*
X84143477Y-87603534D01*
X84446031Y-87227201D01*
X84448012Y-87224819D01*
X84703041Y-86928379D01*
X85023074Y-86564102D01*
X85025148Y-86561821D01*
X85291545Y-86278629D01*
X85628680Y-85927114D01*
X85631023Y-85924755D01*
X85907784Y-85655559D01*
X86261733Y-85317399D01*
X86264284Y-85315046D01*
X86550405Y-85060462D01*
X86921185Y-84735983D01*
X86923756Y-84733814D01*
X87217898Y-84494618D01*
X87605450Y-84184275D01*
X87608238Y-84182125D01*
X87909009Y-83958966D01*
X88313385Y-83663182D01*
X88316370Y-83661084D01*
X88621900Y-83454772D01*
X89043637Y-83173712D01*
X89046653Y-83171784D01*
X89354760Y-82983083D01*
X89794676Y-82716893D01*
X89797895Y-82715031D01*
X90105642Y-82544856D01*
X90565108Y-82293569D01*
X90568461Y-82291820D01*
X90871427Y-82141444D01*
X91353410Y-81904575D01*
X91356985Y-81902907D01*
X91648409Y-81774049D01*
X92158151Y-81550622D01*
X92161814Y-81549105D01*
X92430600Y-81444260D01*
X92977642Y-81232456D01*
X92981476Y-81231063D01*
X93202905Y-81155832D01*
X93810393Y-80950654D01*
X93814363Y-80949407D01*
X93915771Y-80919904D01*
X94650530Y-80707003D01*
X94654705Y-80705892D01*
X94705815Y-80693474D01*
X95488293Y-80503358D01*
X95497219Y-80502297D01*
X95499912Y-80501447D01*
X95500594Y-80500381D01*
X95500596Y-80500381D01*
X95500595Y-80500379D01*
X95501570Y-80498858D01*
X95500499Y-80489087D01*
X95500499Y-78950000D01*
X96029364Y-78950000D01*
X96086570Y-79163495D01*
X96186398Y-79377576D01*
X96321887Y-79571074D01*
X96488925Y-79738112D01*
X96682423Y-79873601D01*
X96896504Y-79973429D01*
X97110000Y-80030634D01*
X97110000Y-79135501D01*
X97217685Y-79184680D01*
X97324237Y-79200000D01*
X97395763Y-79200000D01*
X97502315Y-79184680D01*
X97610000Y-79135501D01*
X97610000Y-80030633D01*
X97823495Y-79973429D01*
X98037576Y-79873601D01*
X98231074Y-79738112D01*
X98398112Y-79571074D01*
X98533601Y-79377576D01*
X98633429Y-79163494D01*
X98639958Y-79139130D01*
X98673281Y-79087815D01*
X98730402Y-79065888D01*
X98789503Y-79081723D01*
X98824206Y-79120624D01*
X98917634Y-79308256D01*
X99046125Y-79478404D01*
X99203699Y-79622053D01*
X99335622Y-79703736D01*
X99384981Y-79734298D01*
X99541681Y-79795003D01*
X99583804Y-79811322D01*
X99793388Y-79850500D01*
X99793390Y-79850500D01*
X100006612Y-79850500D01*
X100216195Y-79811322D01*
X100216198Y-79811321D01*
X100415019Y-79734298D01*
X100596302Y-79622052D01*
X100753872Y-79478407D01*
X100882366Y-79308255D01*
X100977405Y-79117389D01*
X101035756Y-78912310D01*
X101055429Y-78700000D01*
X101035756Y-78487690D01*
X100977405Y-78282611D01*
X100882366Y-78091745D01*
X100882365Y-78091744D01*
X100882365Y-78091743D01*
X100753874Y-77921595D01*
X100596300Y-77777946D01*
X100415021Y-77665703D01*
X100415019Y-77665702D01*
X100372898Y-77649384D01*
X100216195Y-77588677D01*
X100006612Y-77549500D01*
X100006610Y-77549500D01*
X99793390Y-77549500D01*
X99793388Y-77549500D01*
X99583804Y-77588677D01*
X99384978Y-77665703D01*
X99203699Y-77777946D01*
X99046125Y-77921595D01*
X98917634Y-78091743D01*
X98824206Y-78279375D01*
X98781343Y-78323037D01*
X98721002Y-78333167D01*
X98666231Y-78305895D01*
X98639958Y-78260870D01*
X98633429Y-78236504D01*
X98533601Y-78022424D01*
X98398112Y-77828925D01*
X98231074Y-77661887D01*
X98037576Y-77526398D01*
X97823495Y-77426570D01*
X97610000Y-77369364D01*
X97610000Y-78264498D01*
X97502315Y-78215320D01*
X97395763Y-78200000D01*
X97324237Y-78200000D01*
X97217685Y-78215320D01*
X97110000Y-78264498D01*
X97110000Y-77369364D01*
X96896505Y-77426570D01*
X96682424Y-77526398D01*
X96488925Y-77661887D01*
X96321887Y-77828925D01*
X96186398Y-78022424D01*
X96086570Y-78236505D01*
X96029364Y-78450000D01*
X96926314Y-78450000D01*
X96900507Y-78490156D01*
X96860000Y-78628111D01*
X96860000Y-78771889D01*
X96900507Y-78909844D01*
X96926314Y-78950000D01*
X96029364Y-78950000D01*
X95500499Y-78950000D01*
X95500500Y-76899500D01*
X95519407Y-76841309D01*
X95568907Y-76805345D01*
X95599500Y-76800500D01*
X104200500Y-76800500D01*
X104258691Y-76819407D01*
G37*
%TD.AperFunction*%
%TD*%
M02*
