%TF.GenerationSoftware,KiCad,Pcbnew,7.0.2-6a45011f42~172~ubuntu22.04.1*%
%TF.CreationDate,2023-05-13T10:52:22-06:00*%
%TF.ProjectId,ring-40mm,72696e67-2d34-4306-9d6d-2e6b69636164,rev?*%
%TF.SameCoordinates,Original*%
%TF.FileFunction,Legend,Bot*%
%TF.FilePolarity,Positive*%
%FSLAX46Y46*%
G04 Gerber Fmt 4.6, Leading zero omitted, Abs format (unit mm)*
G04 Created by KiCad (PCBNEW 7.0.2-6a45011f42~172~ubuntu22.04.1) date 2023-05-13 10:52:22*
%MOMM*%
%LPD*%
G01*
G04 APERTURE LIST*
G04 Aperture macros list*
%AMRoundRect*
0 Rectangle with rounded corners*
0 $1 Rounding radius*
0 $2 $3 $4 $5 $6 $7 $8 $9 X,Y pos of 4 corners*
0 Add a 4 corners polygon primitive as box body*
4,1,4,$2,$3,$4,$5,$6,$7,$8,$9,$2,$3,0*
0 Add four circle primitives for the rounded corners*
1,1,$1+$1,$2,$3*
1,1,$1+$1,$4,$5*
1,1,$1+$1,$6,$7*
1,1,$1+$1,$8,$9*
0 Add four rect primitives between the rounded corners*
20,1,$1+$1,$2,$3,$4,$5,0*
20,1,$1+$1,$4,$5,$6,$7,0*
20,1,$1+$1,$6,$7,$8,$9,0*
20,1,$1+$1,$8,$9,$2,$3,0*%
G04 Aperture macros list end*
%ADD10C,0.200000*%
%ADD11C,0.150000*%
%ADD12RoundRect,0.050000X-0.850000X0.850000X-0.850000X-0.850000X0.850000X-0.850000X0.850000X0.850000X0*%
%ADD13O,1.800000X1.800000*%
G04 APERTURE END LIST*
D10*
X100742857Y-81516428D02*
X100742857Y-80016428D01*
X100028571Y-81516428D02*
X100028571Y-80016428D01*
X100028571Y-80016428D02*
X99171428Y-81516428D01*
X99171428Y-81516428D02*
X99171428Y-80016428D01*
X97942857Y-119745000D02*
X96800000Y-119745000D01*
X97371428Y-120316428D02*
X97371428Y-119173571D01*
X97842857Y-80445000D02*
X96700000Y-80445000D01*
X97271428Y-81016428D02*
X97271428Y-79873571D01*
D11*
X118810952Y-97342857D02*
X119477619Y-97580952D01*
X119477619Y-97580952D02*
X118810952Y-97819047D01*
X119477619Y-98723809D02*
X119477619Y-98152381D01*
X119477619Y-98438095D02*
X118477619Y-98438095D01*
X118477619Y-98438095D02*
X118620476Y-98342857D01*
X118620476Y-98342857D02*
X118715714Y-98247619D01*
X118715714Y-98247619D02*
X118763333Y-98152381D01*
X119382380Y-99152381D02*
X119430000Y-99200000D01*
X119430000Y-99200000D02*
X119477619Y-99152381D01*
X119477619Y-99152381D02*
X119430000Y-99104762D01*
X119430000Y-99104762D02*
X119382380Y-99152381D01*
X119382380Y-99152381D02*
X119477619Y-99152381D01*
X119477619Y-100152380D02*
X119477619Y-99580952D01*
X119477619Y-99866666D02*
X118477619Y-99866666D01*
X118477619Y-99866666D02*
X118620476Y-99771428D01*
X118620476Y-99771428D02*
X118715714Y-99676190D01*
X118715714Y-99676190D02*
X118763333Y-99580952D01*
D10*
X103142857Y-80545000D02*
X102000000Y-80545000D01*
X102942857Y-119745000D02*
X101800000Y-119745000D01*
X101257142Y-117616428D02*
X100971428Y-117616428D01*
X100971428Y-117616428D02*
X100828571Y-117687857D01*
X100828571Y-117687857D02*
X100685714Y-117830714D01*
X100685714Y-117830714D02*
X100614285Y-118116428D01*
X100614285Y-118116428D02*
X100614285Y-118616428D01*
X100614285Y-118616428D02*
X100685714Y-118902142D01*
X100685714Y-118902142D02*
X100828571Y-119045000D01*
X100828571Y-119045000D02*
X100971428Y-119116428D01*
X100971428Y-119116428D02*
X101257142Y-119116428D01*
X101257142Y-119116428D02*
X101400000Y-119045000D01*
X101400000Y-119045000D02*
X101542857Y-118902142D01*
X101542857Y-118902142D02*
X101614285Y-118616428D01*
X101614285Y-118616428D02*
X101614285Y-118116428D01*
X101614285Y-118116428D02*
X101542857Y-117830714D01*
X101542857Y-117830714D02*
X101400000Y-117687857D01*
X101400000Y-117687857D02*
X101257142Y-117616428D01*
X99971428Y-117616428D02*
X99971428Y-118830714D01*
X99971428Y-118830714D02*
X99899999Y-118973571D01*
X99899999Y-118973571D02*
X99828571Y-119045000D01*
X99828571Y-119045000D02*
X99685713Y-119116428D01*
X99685713Y-119116428D02*
X99399999Y-119116428D01*
X99399999Y-119116428D02*
X99257142Y-119045000D01*
X99257142Y-119045000D02*
X99185713Y-118973571D01*
X99185713Y-118973571D02*
X99114285Y-118830714D01*
X99114285Y-118830714D02*
X99114285Y-117616428D01*
X98614284Y-117616428D02*
X97757142Y-117616428D01*
X98185713Y-119116428D02*
X98185713Y-117616428D01*
%LPC*%
D12*
%TO.C,J2*%
X102440000Y-121400000D03*
D13*
X99900000Y-121400000D03*
X97360000Y-121400000D03*
%TD*%
D12*
%TO.C,J1*%
X102440000Y-78700000D03*
D13*
X99900000Y-78700000D03*
X97360000Y-78700000D03*
%TD*%
%LPD*%
M02*
