%TF.GenerationSoftware,KiCad,Pcbnew,7.0.2-6a45011f42~172~ubuntu22.04.1*%
%TF.CreationDate,2023-05-13T10:52:22-06:00*%
%TF.ProjectId,ring-40mm,72696e67-2d34-4306-9d6d-2e6b69636164,rev?*%
%TF.SameCoordinates,Original*%
%TF.FileFunction,Copper,L2,Bot*%
%TF.FilePolarity,Positive*%
%FSLAX46Y46*%
G04 Gerber Fmt 4.6, Leading zero omitted, Abs format (unit mm)*
G04 Created by KiCad (PCBNEW 7.0.2-6a45011f42~172~ubuntu22.04.1) date 2023-05-13 10:52:22*
%MOMM*%
%LPD*%
G01*
G04 APERTURE LIST*
%TA.AperFunction,ComponentPad*%
%ADD10R,1.700000X1.700000*%
%TD*%
%TA.AperFunction,ComponentPad*%
%ADD11O,1.700000X1.700000*%
%TD*%
%TA.AperFunction,ViaPad*%
%ADD12C,0.500000*%
%TD*%
%TA.AperFunction,Conductor*%
%ADD13C,0.127000*%
%TD*%
G04 APERTURE END LIST*
D10*
%TO.P,J2,1,Pin_1*%
%TO.N,GND*%
X102440000Y-121400000D03*
D11*
%TO.P,J2,2,Pin_2*%
%TO.N,/SIGNAL_OUT*%
X99900000Y-121400000D03*
%TO.P,J2,3,Pin_3*%
%TO.N,VCC*%
X97360000Y-121400000D03*
%TD*%
D10*
%TO.P,J1,1,Pin_1*%
%TO.N,GND*%
X102440000Y-78700000D03*
D11*
%TO.P,J1,2,Pin_2*%
%TO.N,/SIGNAL_IN*%
X99900000Y-78700000D03*
%TO.P,J1,3,Pin_3*%
%TO.N,VCC*%
X97360000Y-78700000D03*
%TD*%
D12*
%TO.N,GND*%
X85900000Y-88400000D03*
X98800000Y-118500000D03*
X81900000Y-98800000D03*
X117700000Y-95400000D03*
X116100000Y-90000000D03*
X88400000Y-113800000D03*
X109800000Y-115600000D03*
X93400000Y-116800000D03*
X118200000Y-101200000D03*
X104600000Y-117800000D03*
X114100000Y-111600000D03*
X95400000Y-82300000D03*
X117000000Y-106600000D03*
X106900000Y-82500000D03*
X101200000Y-81100000D03*
X90300000Y-84700000D03*
X112100000Y-85500000D03*
X82400000Y-104500000D03*
X84600000Y-109700000D03*
X83100000Y-93300000D03*
%TO.N,Net-(D1-DOUT)*%
X104477286Y-82636966D03*
X101100000Y-82900000D03*
%TO.N,Net-(D1-DIN)*%
X98800000Y-83400000D03*
X98862746Y-82162746D03*
%TO.N,Net-(D2-DOUT)*%
X106300000Y-84200000D03*
X109500000Y-84900000D03*
%TO.N,Net-(D3-DOUT)*%
X113800000Y-88600000D03*
X111200000Y-86500000D03*
%TO.N,Net-(D4-DOUT)*%
X116600000Y-93500000D03*
X114700000Y-90800000D03*
%TO.N,Net-(D5-DOUT)*%
X116900000Y-95800000D03*
X117800000Y-98900000D03*
%TO.N,Net-(D6-DOUT)*%
X117300000Y-101200000D03*
X117300000Y-104500000D03*
%TO.N,Net-(D7-DOUT)*%
X115200000Y-109700000D03*
X116100000Y-106600000D03*
%TO.N,Net-(D8-DOUT)*%
X113400000Y-111300000D03*
X111300000Y-114000000D03*
%TO.N,Net-(D10-DIN)*%
X109300000Y-114800000D03*
X106500000Y-116700000D03*
%TO.N,Net-(D10-DOUT)*%
X104200000Y-116900000D03*
X101000000Y-118000000D03*
%TO.N,Net-(D11-DOUT)*%
X98700000Y-117500000D03*
X95400000Y-117400000D03*
%TO.N,Net-(D12-DOUT)*%
X90300000Y-115100000D03*
X93600000Y-115900000D03*
%TO.N,Net-(D13-DOUT)*%
X86100000Y-111500000D03*
X88900000Y-113100000D03*
%TO.N,Net-(D14-DOUT)*%
X85400000Y-109100000D03*
X83200000Y-106600000D03*
%TO.N,Net-(D15-DOUT)*%
X83400000Y-104300000D03*
X82000000Y-101100000D03*
%TO.N,Net-(D16-DOUT)*%
X82800000Y-98900000D03*
X82500000Y-95600000D03*
%TO.N,Net-(D17-DOUT)*%
X84100000Y-93700000D03*
X84800000Y-90400000D03*
%TO.N,Net-(D18-DOUT)*%
X88500000Y-86200000D03*
X86800000Y-89100000D03*
%TO.N,Net-(D19-DOUT)*%
X93400000Y-83400000D03*
X90800000Y-85600000D03*
%TO.N,/SIGNAL_IN*%
X97900000Y-81315000D03*
%TO.N,/SIGNAL_OUT*%
X98500000Y-119200000D03*
%TD*%
D13*
%TO.N,Net-(D1-DOUT)*%
X104477286Y-82636966D02*
X104345769Y-82768483D01*
X104028258Y-82900000D02*
X101100000Y-82900000D01*
X104028258Y-82899978D02*
G75*
G03*
X104345768Y-82768482I42J448978D01*
G01*
%TO.N,Net-(D1-DIN)*%
X98831373Y-82194119D02*
X98862746Y-82162746D01*
X98800000Y-82269860D02*
X98800000Y-83400000D01*
X98831396Y-82194142D02*
G75*
G03*
X98800000Y-82269860I75704J-75758D01*
G01*
%TO.N,Net-(D2-DOUT)*%
X106300000Y-84200000D02*
X109500000Y-84900000D01*
%TO.N,Net-(D3-DOUT)*%
X113800000Y-88600000D02*
X111200000Y-86500000D01*
%TO.N,Net-(D4-DOUT)*%
X114700000Y-90800000D02*
X116600000Y-93500000D01*
%TO.N,Net-(D5-DOUT)*%
X116900000Y-95800000D02*
X117800000Y-98900000D01*
%TO.N,Net-(D6-DOUT)*%
X117300000Y-104500000D02*
X117300000Y-101200000D01*
%TO.N,Net-(D7-DOUT)*%
X116100000Y-106600000D02*
X115200000Y-109700000D01*
%TO.N,Net-(D8-DOUT)*%
X113400000Y-111300000D02*
X111300000Y-114000000D01*
%TO.N,Net-(D10-DIN)*%
X109300000Y-114800000D02*
X106500000Y-116700000D01*
%TO.N,Net-(D10-DOUT)*%
X101000000Y-118000000D02*
X104200000Y-116900000D01*
%TO.N,Net-(D11-DOUT)*%
X98700000Y-117500000D02*
X95400000Y-117400000D01*
%TO.N,Net-(D12-DOUT)*%
X90300000Y-115100000D02*
X93600000Y-115900000D01*
%TO.N,Net-(D13-DOUT)*%
X88900000Y-113100000D02*
X86100000Y-111500000D01*
%TO.N,Net-(D14-DOUT)*%
X85400000Y-109100000D02*
X83200000Y-106600000D01*
%TO.N,Net-(D15-DOUT)*%
X83400000Y-104300000D02*
X82000000Y-101100000D01*
%TO.N,Net-(D16-DOUT)*%
X82500000Y-95600000D02*
X82800000Y-98900000D01*
%TO.N,Net-(D17-DOUT)*%
X84800000Y-90400000D02*
X84100000Y-93700000D01*
%TO.N,Net-(D18-DOUT)*%
X88500000Y-86200000D02*
X86800000Y-89100000D01*
%TO.N,Net-(D19-DOUT)*%
X93400000Y-83400000D02*
X90800000Y-85600000D01*
%TO.N,/SIGNAL_IN*%
X97900000Y-81315000D02*
X99900000Y-78700000D01*
%TO.N,/SIGNAL_OUT*%
X98500000Y-119200000D02*
X99900000Y-121400000D01*
%TD*%
%TA.AperFunction,Conductor*%
%TO.N,GND*%
G36*
X104258691Y-76819407D02*
G01*
X104294655Y-76868907D01*
X104299500Y-76899500D01*
X104299500Y-80489198D01*
X104298447Y-80498891D01*
X104300066Y-80501414D01*
X104303241Y-80502412D01*
X104311985Y-80503426D01*
X104911011Y-80648969D01*
X105145294Y-80705892D01*
X105149472Y-80707004D01*
X105228106Y-80729788D01*
X105884104Y-80919868D01*
X105985608Y-80949399D01*
X105989633Y-80950663D01*
X106596632Y-81155676D01*
X106818490Y-81231052D01*
X106822388Y-81232468D01*
X107369263Y-81444208D01*
X107638168Y-81549098D01*
X107641883Y-81550637D01*
X108151321Y-81773931D01*
X108443017Y-81902908D01*
X108446587Y-81904574D01*
X108928448Y-82141383D01*
X109231457Y-82291780D01*
X109234928Y-82293590D01*
X109694357Y-82544856D01*
X109786402Y-82595754D01*
X110002081Y-82715019D01*
X110005367Y-82716920D01*
X110445226Y-82983075D01*
X110753261Y-83171732D01*
X110756410Y-83173744D01*
X110928385Y-83288354D01*
X111178060Y-83454746D01*
X111483599Y-83661064D01*
X111486643Y-83663204D01*
X111506359Y-83677625D01*
X111891008Y-83958980D01*
X111952997Y-84004973D01*
X112191709Y-84182088D01*
X112194599Y-84184316D01*
X112582023Y-84494556D01*
X112876175Y-84733759D01*
X112878911Y-84736068D01*
X113249560Y-85060432D01*
X113535686Y-85315021D01*
X113538264Y-85317397D01*
X113892186Y-85655532D01*
X113900552Y-85663669D01*
X114168935Y-85924716D01*
X114171357Y-85927155D01*
X114295210Y-86056290D01*
X114433041Y-86200000D01*
X114508345Y-86278515D01*
X114581508Y-86356290D01*
X114774768Y-86561733D01*
X114777032Y-86564224D01*
X115096885Y-86928296D01*
X115351957Y-87224784D01*
X115353998Y-87227238D01*
X115566121Y-87491087D01*
X115656523Y-87603534D01*
X115899327Y-87912508D01*
X115901277Y-87915075D01*
X116186119Y-88302918D01*
X116415933Y-88623711D01*
X116417729Y-88626303D01*
X116684592Y-89025066D01*
X116900726Y-89356952D01*
X116902368Y-89359561D01*
X117150933Y-89768563D01*
X117352769Y-90110814D01*
X117354258Y-90113430D01*
X117584196Y-90531938D01*
X117771188Y-90883838D01*
X117772529Y-90886455D01*
X117983563Y-91313784D01*
X118155146Y-91674469D01*
X118156341Y-91677077D01*
X118348215Y-92112542D01*
X118503932Y-92481231D01*
X118504984Y-92483823D01*
X118677423Y-92926648D01*
X118816872Y-93302563D01*
X118817785Y-93305132D01*
X118970538Y-93754535D01*
X119093347Y-94136839D01*
X119094125Y-94139378D01*
X119226972Y-94594563D01*
X119332831Y-94982455D01*
X119333479Y-94984957D01*
X119446234Y-95445163D01*
X119534857Y-95837758D01*
X119535379Y-95840216D01*
X119627871Y-96304616D01*
X119699045Y-96701129D01*
X119699447Y-96703537D01*
X119771530Y-97171276D01*
X119825073Y-97570843D01*
X119825359Y-97573196D01*
X119876817Y-98042476D01*
X119877017Y-98044487D01*
X119912695Y-98445181D01*
X119912873Y-98447478D01*
X119943786Y-98918546D01*
X119943900Y-98920635D01*
X119961759Y-99322570D01*
X119961833Y-99324801D01*
X119972141Y-99796587D01*
X119972165Y-99798750D01*
X119972165Y-100201248D01*
X119972141Y-100203411D01*
X119961833Y-100675197D01*
X119961759Y-100677428D01*
X119943900Y-101079363D01*
X119943786Y-101081452D01*
X119912873Y-101552520D01*
X119912695Y-101554817D01*
X119877017Y-101955511D01*
X119876817Y-101957522D01*
X119825359Y-102426799D01*
X119825072Y-102429157D01*
X119771530Y-102828723D01*
X119699447Y-103296460D01*
X119699046Y-103298868D01*
X119627871Y-103695383D01*
X119535378Y-104159783D01*
X119534856Y-104162241D01*
X119446234Y-104554836D01*
X119333479Y-105015042D01*
X119332831Y-105017544D01*
X119226972Y-105405436D01*
X119094125Y-105860620D01*
X119093347Y-105863159D01*
X118970538Y-106245464D01*
X118817785Y-106694866D01*
X118816872Y-106697435D01*
X118677423Y-107073351D01*
X118504984Y-107516175D01*
X118503932Y-107518767D01*
X118348215Y-107887457D01*
X118156340Y-108322922D01*
X118155146Y-108325530D01*
X117983563Y-108686215D01*
X117772529Y-109113543D01*
X117771188Y-109116160D01*
X117584197Y-109468060D01*
X117354258Y-109886567D01*
X117352769Y-109889184D01*
X117150933Y-110231436D01*
X116902367Y-110640438D01*
X116900725Y-110643046D01*
X116684592Y-110974932D01*
X116417729Y-111373696D01*
X116415933Y-111376288D01*
X116186120Y-111697081D01*
X115901277Y-112084922D01*
X115899327Y-112087489D01*
X115656523Y-112396465D01*
X115354027Y-112772724D01*
X115351920Y-112775257D01*
X115096885Y-113071703D01*
X114777033Y-113435775D01*
X114774768Y-113438266D01*
X114508373Y-113721455D01*
X114171357Y-114072843D01*
X114168935Y-114075282D01*
X113892169Y-114344484D01*
X113538265Y-114682599D01*
X113535686Y-114684977D01*
X113249560Y-114939567D01*
X112878912Y-115263931D01*
X112876176Y-115266239D01*
X112582023Y-115505443D01*
X112194600Y-115815682D01*
X112191709Y-115817911D01*
X111890957Y-116041057D01*
X111486643Y-116336794D01*
X111483599Y-116338934D01*
X111178061Y-116545253D01*
X110756433Y-116826239D01*
X110753237Y-116828281D01*
X110445146Y-117016973D01*
X110005395Y-117283061D01*
X110002052Y-117284996D01*
X109694357Y-117455144D01*
X109234927Y-117706409D01*
X109231439Y-117708227D01*
X108928471Y-117858605D01*
X108446616Y-118095409D01*
X108442986Y-118097103D01*
X108151261Y-118226094D01*
X107641908Y-118449350D01*
X107638142Y-118450910D01*
X107369226Y-118555806D01*
X106822388Y-118767530D01*
X106818490Y-118768946D01*
X106596672Y-118844309D01*
X105989632Y-119049335D01*
X105985609Y-119050599D01*
X105892709Y-119077627D01*
X105883271Y-119080372D01*
X105149461Y-119292998D01*
X105145282Y-119294110D01*
X104311592Y-119496667D01*
X104303214Y-119497673D01*
X104300006Y-119498676D01*
X104298444Y-119501118D01*
X104299500Y-119510824D01*
X104299500Y-123100500D01*
X104280593Y-123158691D01*
X104231093Y-123194655D01*
X104200500Y-123199500D01*
X95599500Y-123199500D01*
X95541309Y-123180593D01*
X95505345Y-123131093D01*
X95500500Y-123100500D01*
X95500500Y-121400000D01*
X96204571Y-121400000D01*
X96224244Y-121612310D01*
X96257957Y-121730798D01*
X96282596Y-121817391D01*
X96377634Y-122008256D01*
X96506125Y-122178404D01*
X96663699Y-122322053D01*
X96720748Y-122357376D01*
X96844981Y-122434298D01*
X96994158Y-122492089D01*
X97043804Y-122511322D01*
X97253388Y-122550500D01*
X97253390Y-122550500D01*
X97466612Y-122550500D01*
X97676195Y-122511322D01*
X97676198Y-122511321D01*
X97875019Y-122434298D01*
X98056302Y-122322052D01*
X98213872Y-122178407D01*
X98342366Y-122008255D01*
X98437405Y-121817389D01*
X98495756Y-121612310D01*
X98515429Y-121400000D01*
X98495756Y-121187690D01*
X98437405Y-120982611D01*
X98342366Y-120791745D01*
X98342365Y-120791744D01*
X98342365Y-120791743D01*
X98213874Y-120621595D01*
X98207767Y-120616028D01*
X98056302Y-120477948D01*
X98056300Y-120477946D01*
X97875021Y-120365703D01*
X97875019Y-120365702D01*
X97832898Y-120349384D01*
X97676195Y-120288677D01*
X97466612Y-120249500D01*
X97466610Y-120249500D01*
X97253390Y-120249500D01*
X97253388Y-120249500D01*
X97043804Y-120288677D01*
X96844978Y-120365703D01*
X96663699Y-120477946D01*
X96506125Y-120621595D01*
X96377634Y-120791743D01*
X96282596Y-120982608D01*
X96282595Y-120982611D01*
X96224244Y-121187690D01*
X96204571Y-121400000D01*
X95500500Y-121400000D01*
X95500499Y-119510934D01*
X95501574Y-119501150D01*
X95499972Y-119498643D01*
X95497234Y-119497784D01*
X95488674Y-119496732D01*
X94654712Y-119294109D01*
X94650532Y-119292997D01*
X94329584Y-119200000D01*
X97944750Y-119200000D01*
X97963669Y-119343709D01*
X97989791Y-119406772D01*
X98019139Y-119477625D01*
X98044614Y-119510824D01*
X98107378Y-119592621D01*
X98157306Y-119630932D01*
X98222375Y-119680861D01*
X98356291Y-119736330D01*
X98368944Y-119737995D01*
X98424167Y-119764333D01*
X98439543Y-119782993D01*
X98898886Y-120504818D01*
X98969656Y-120616028D01*
X98984945Y-120675273D01*
X98965137Y-120728839D01*
X98917634Y-120791743D01*
X98822596Y-120982608D01*
X98822595Y-120982611D01*
X98764244Y-121187690D01*
X98744571Y-121400000D01*
X98764244Y-121612310D01*
X98797957Y-121730798D01*
X98822596Y-121817391D01*
X98917634Y-122008256D01*
X99046125Y-122178404D01*
X99203699Y-122322053D01*
X99260748Y-122357376D01*
X99384981Y-122434298D01*
X99534158Y-122492089D01*
X99583804Y-122511322D01*
X99793388Y-122550500D01*
X99793390Y-122550500D01*
X100006612Y-122550500D01*
X100216195Y-122511322D01*
X100216198Y-122511321D01*
X100415019Y-122434298D01*
X100596302Y-122322052D01*
X100753872Y-122178407D01*
X100882366Y-122008255D01*
X100902379Y-121968062D01*
X100945241Y-121924401D01*
X101005582Y-121914271D01*
X101060353Y-121941543D01*
X101088634Y-121995801D01*
X101090000Y-122012191D01*
X101090000Y-122295181D01*
X101090282Y-122300457D01*
X101096401Y-122357376D01*
X101146646Y-122492089D01*
X101232811Y-122607188D01*
X101347910Y-122693353D01*
X101482623Y-122743598D01*
X101539542Y-122749717D01*
X101544819Y-122750000D01*
X102189999Y-122750000D01*
X102190000Y-122749999D01*
X102190000Y-121835501D01*
X102297685Y-121884680D01*
X102404237Y-121900000D01*
X102475763Y-121900000D01*
X102582315Y-121884680D01*
X102690000Y-121835501D01*
X102690000Y-122749998D01*
X102690001Y-122750000D01*
X103335181Y-122750000D01*
X103340457Y-122749717D01*
X103397376Y-122743598D01*
X103532089Y-122693353D01*
X103647188Y-122607188D01*
X103733353Y-122492089D01*
X103783598Y-122357376D01*
X103789717Y-122300457D01*
X103790000Y-122295181D01*
X103790000Y-121650001D01*
X103789999Y-121650000D01*
X102873686Y-121650000D01*
X102899493Y-121609844D01*
X102940000Y-121471889D01*
X102940000Y-121328111D01*
X102899493Y-121190156D01*
X102873686Y-121150000D01*
X103789999Y-121150000D01*
X103790000Y-121149999D01*
X103790000Y-120504818D01*
X103789717Y-120499542D01*
X103783598Y-120442623D01*
X103733353Y-120307910D01*
X103647188Y-120192811D01*
X103532089Y-120106646D01*
X103397376Y-120056401D01*
X103340457Y-120050282D01*
X103335181Y-120050000D01*
X102690001Y-120050000D01*
X102690000Y-120050001D01*
X102690000Y-120964498D01*
X102582315Y-120915320D01*
X102475763Y-120900000D01*
X102404237Y-120900000D01*
X102297685Y-120915320D01*
X102190000Y-120964498D01*
X102190000Y-120050001D01*
X102189999Y-120050000D01*
X101544819Y-120050000D01*
X101539542Y-120050282D01*
X101482623Y-120056401D01*
X101347910Y-120106646D01*
X101232811Y-120192811D01*
X101146646Y-120307910D01*
X101096401Y-120442623D01*
X101090282Y-120499542D01*
X101090000Y-120504818D01*
X101090000Y-120787808D01*
X101071093Y-120845999D01*
X101021593Y-120881963D01*
X100960407Y-120881963D01*
X100910907Y-120845999D01*
X100902379Y-120831936D01*
X100882365Y-120791743D01*
X100753874Y-120621595D01*
X100747767Y-120616028D01*
X100596302Y-120477948D01*
X100596300Y-120477946D01*
X100415021Y-120365703D01*
X100415019Y-120365702D01*
X100372898Y-120349384D01*
X100216195Y-120288677D01*
X100006612Y-120249500D01*
X100006610Y-120249500D01*
X99793390Y-120249500D01*
X99793388Y-120249500D01*
X99685731Y-120269624D01*
X99625057Y-120261731D01*
X99584021Y-120225464D01*
X99053356Y-119391562D01*
X99038068Y-119332321D01*
X99038723Y-119325530D01*
X99055250Y-119200000D01*
X99036330Y-119056291D01*
X99033972Y-119050599D01*
X99020083Y-119017067D01*
X98980861Y-118922375D01*
X98920959Y-118844309D01*
X98892621Y-118807378D01*
X98827552Y-118757450D01*
X98777625Y-118719139D01*
X98738401Y-118702892D01*
X98643709Y-118663669D01*
X98500000Y-118644750D01*
X98356290Y-118663669D01*
X98222375Y-118719139D01*
X98107378Y-118807378D01*
X98019139Y-118922375D01*
X97963669Y-119056290D01*
X97944750Y-119200000D01*
X94329584Y-119200000D01*
X93916728Y-119080372D01*
X93903026Y-119076386D01*
X93814389Y-119050599D01*
X93810366Y-119049335D01*
X93203327Y-118844309D01*
X92981508Y-118768946D01*
X92977610Y-118767530D01*
X92430773Y-118555806D01*
X92161856Y-118450910D01*
X92158090Y-118449350D01*
X91648738Y-118226094D01*
X91357012Y-118097104D01*
X91353382Y-118095410D01*
X90871528Y-117858605D01*
X90568559Y-117708227D01*
X90565070Y-117706409D01*
X90187658Y-117499999D01*
X90105618Y-117455130D01*
X90086845Y-117444750D01*
X90005917Y-117399999D01*
X94844750Y-117399999D01*
X94863669Y-117543709D01*
X94902892Y-117638401D01*
X94919139Y-117677625D01*
X94941226Y-117706409D01*
X95007378Y-117792621D01*
X95057306Y-117830932D01*
X95122375Y-117880861D01*
X95217067Y-117920083D01*
X95256290Y-117936330D01*
X95273008Y-117938531D01*
X95400000Y-117955250D01*
X95543709Y-117936330D01*
X95677625Y-117880861D01*
X95785386Y-117798172D01*
X95843058Y-117777750D01*
X95848626Y-117777760D01*
X98228729Y-117849886D01*
X98286320Y-117870548D01*
X98304270Y-117888571D01*
X98307377Y-117892621D01*
X98348069Y-117923844D01*
X98422375Y-117980861D01*
X98517067Y-118020083D01*
X98556290Y-118036330D01*
X98573008Y-118038531D01*
X98700000Y-118055250D01*
X98843709Y-118036330D01*
X98931419Y-118000000D01*
X100444750Y-118000000D01*
X100463669Y-118143709D01*
X100488926Y-118204683D01*
X100519139Y-118277625D01*
X100529740Y-118291440D01*
X100607378Y-118392621D01*
X100657306Y-118430932D01*
X100722375Y-118480861D01*
X100817067Y-118520083D01*
X100856290Y-118536330D01*
X100875209Y-118538820D01*
X101000000Y-118555250D01*
X101143709Y-118536330D01*
X101277625Y-118480861D01*
X101392621Y-118392621D01*
X101480861Y-118277625D01*
X101491801Y-118251210D01*
X101531537Y-118204683D01*
X101551081Y-118195471D01*
X103886245Y-117392757D01*
X103947420Y-117391722D01*
X103956294Y-117394910D01*
X104056291Y-117436330D01*
X104200000Y-117455250D01*
X104343709Y-117436330D01*
X104477625Y-117380861D01*
X104592621Y-117292621D01*
X104680861Y-117177625D01*
X104736330Y-117043709D01*
X104755250Y-116900000D01*
X104738531Y-116773008D01*
X104736330Y-116756290D01*
X104713014Y-116700000D01*
X105944750Y-116700000D01*
X105963669Y-116843709D01*
X106002892Y-116938401D01*
X106019139Y-116977625D01*
X106041970Y-117007379D01*
X106107378Y-117092621D01*
X106145975Y-117122237D01*
X106222375Y-117180861D01*
X106317067Y-117220083D01*
X106356290Y-117236330D01*
X106375210Y-117238820D01*
X106500000Y-117255250D01*
X106643709Y-117236330D01*
X106777625Y-117180861D01*
X106892621Y-117092621D01*
X106980861Y-116977625D01*
X107036330Y-116843709D01*
X107040325Y-116813357D01*
X107066664Y-116758133D01*
X107082883Y-116744363D01*
X109126455Y-115357653D01*
X109185222Y-115340625D01*
X109194954Y-115341420D01*
X109300000Y-115355250D01*
X109443709Y-115336330D01*
X109577625Y-115280861D01*
X109692621Y-115192621D01*
X109780861Y-115077625D01*
X109836330Y-114943709D01*
X109855250Y-114800000D01*
X109836330Y-114656291D01*
X109780861Y-114522375D01*
X109717881Y-114440298D01*
X109692621Y-114407378D01*
X109610655Y-114344484D01*
X109577625Y-114319139D01*
X109538401Y-114302892D01*
X109443709Y-114263669D01*
X109316717Y-114246951D01*
X109300000Y-114244750D01*
X109299999Y-114244750D01*
X109156290Y-114263669D01*
X109022375Y-114319139D01*
X108907378Y-114407378D01*
X108819139Y-114522375D01*
X108763669Y-114656290D01*
X108759673Y-114686644D01*
X108733331Y-114741869D01*
X108717109Y-114755640D01*
X106673544Y-116142344D01*
X106614776Y-116159373D01*
X106605034Y-116158577D01*
X106500000Y-116144750D01*
X106356290Y-116163669D01*
X106222375Y-116219139D01*
X106107378Y-116307378D01*
X106019139Y-116422375D01*
X105963669Y-116556290D01*
X105944750Y-116700000D01*
X104713014Y-116700000D01*
X104708880Y-116690021D01*
X104680861Y-116622375D01*
X104621683Y-116545253D01*
X104592621Y-116507378D01*
X104527552Y-116457450D01*
X104477625Y-116419139D01*
X104438401Y-116402892D01*
X104343709Y-116363669D01*
X104216717Y-116346951D01*
X104200000Y-116344750D01*
X104199999Y-116344750D01*
X104056290Y-116363669D01*
X103922375Y-116419139D01*
X103807378Y-116507378D01*
X103719140Y-116622373D01*
X103708197Y-116648792D01*
X103668459Y-116695317D01*
X103648916Y-116704528D01*
X101313755Y-117507240D01*
X101252578Y-117508276D01*
X101243687Y-117505081D01*
X101143710Y-117463669D01*
X101000000Y-117444750D01*
X100856290Y-117463669D01*
X100722375Y-117519139D01*
X100607378Y-117607378D01*
X100519139Y-117722375D01*
X100463669Y-117856290D01*
X100444750Y-118000000D01*
X98931419Y-118000000D01*
X98977625Y-117980861D01*
X99092621Y-117892621D01*
X99180861Y-117777625D01*
X99236330Y-117643709D01*
X99255250Y-117500000D01*
X99236330Y-117356291D01*
X99180861Y-117222375D01*
X99130932Y-117157306D01*
X99092621Y-117107378D01*
X99027552Y-117057450D01*
X98977625Y-117019139D01*
X98938401Y-117002892D01*
X98843709Y-116963669D01*
X98700000Y-116944750D01*
X98556290Y-116963669D01*
X98422375Y-117019139D01*
X98314617Y-117101824D01*
X98256941Y-117122248D01*
X98251351Y-117122237D01*
X95871269Y-117050112D01*
X95813678Y-117029450D01*
X95795727Y-117011425D01*
X95792622Y-117007379D01*
X95735123Y-116963259D01*
X95677625Y-116919139D01*
X95631419Y-116900000D01*
X95543709Y-116863669D01*
X95400000Y-116844750D01*
X95256290Y-116863669D01*
X95122375Y-116919139D01*
X95007378Y-117007378D01*
X94919139Y-117122375D01*
X94863669Y-117256290D01*
X94844750Y-117399999D01*
X90005917Y-117399999D01*
X89797946Y-117284996D01*
X89794602Y-117283061D01*
X89504262Y-117107379D01*
X89354826Y-117016956D01*
X89345794Y-117011425D01*
X89046761Y-116828281D01*
X89043565Y-116826239D01*
X88621939Y-116545253D01*
X88316399Y-116338934D01*
X88313355Y-116336794D01*
X87909042Y-116041057D01*
X87608289Y-115817910D01*
X87605399Y-115815682D01*
X87217976Y-115505443D01*
X86923823Y-115266239D01*
X86921087Y-115263931D01*
X86733763Y-115099999D01*
X89744750Y-115099999D01*
X89763669Y-115243709D01*
X89802034Y-115336330D01*
X89819139Y-115377625D01*
X89853334Y-115422189D01*
X89907378Y-115492621D01*
X89957306Y-115530932D01*
X90022375Y-115580861D01*
X90117067Y-115620083D01*
X90156290Y-115636330D01*
X90173008Y-115638531D01*
X90300000Y-115655250D01*
X90426991Y-115638531D01*
X90443710Y-115636330D01*
X90488347Y-115617840D01*
X90577625Y-115580861D01*
X90578688Y-115580044D01*
X90584953Y-115577825D01*
X90589668Y-115575873D01*
X90589770Y-115576119D01*
X90636362Y-115559617D01*
X90662284Y-115562370D01*
X91045415Y-115655250D01*
X93066660Y-116145248D01*
X93118757Y-116177333D01*
X93121877Y-116181194D01*
X93207378Y-116292621D01*
X93257306Y-116330932D01*
X93322375Y-116380861D01*
X93414788Y-116419139D01*
X93456290Y-116436330D01*
X93473008Y-116438531D01*
X93600000Y-116455250D01*
X93743709Y-116436330D01*
X93877625Y-116380861D01*
X93992621Y-116292621D01*
X94080861Y-116177625D01*
X94136330Y-116043709D01*
X94155250Y-115900000D01*
X94138820Y-115775209D01*
X94136330Y-115756290D01*
X94120083Y-115717067D01*
X94080861Y-115622375D01*
X94026256Y-115551213D01*
X93992621Y-115507378D01*
X93927552Y-115457450D01*
X93877625Y-115419139D01*
X93835057Y-115401507D01*
X93743709Y-115363669D01*
X93600000Y-115344750D01*
X93456289Y-115363669D01*
X93322373Y-115419139D01*
X93321301Y-115419962D01*
X93315008Y-115422189D01*
X93310334Y-115424126D01*
X93310232Y-115423880D01*
X93263624Y-115440382D01*
X93237715Y-115437629D01*
X90833340Y-114854750D01*
X90781241Y-114822665D01*
X90778122Y-114818805D01*
X90713001Y-114733939D01*
X90692621Y-114707379D01*
X90692619Y-114707378D01*
X90692619Y-114707377D01*
X90626041Y-114656290D01*
X90577625Y-114619139D01*
X90538401Y-114602892D01*
X90443709Y-114563669D01*
X90300000Y-114544750D01*
X90156290Y-114563669D01*
X90022375Y-114619139D01*
X89907378Y-114707378D01*
X89819139Y-114822375D01*
X89763669Y-114956290D01*
X89744750Y-115099999D01*
X86733763Y-115099999D01*
X86550439Y-114939567D01*
X86393583Y-114800000D01*
X86264312Y-114684977D01*
X86261732Y-114682599D01*
X85907830Y-114344484D01*
X85631063Y-114075282D01*
X85628641Y-114072843D01*
X85459525Y-113896515D01*
X85291590Y-113721417D01*
X85025230Y-113438265D01*
X85022966Y-113435774D01*
X84703114Y-113071703D01*
X84638105Y-112996139D01*
X84448032Y-112775203D01*
X84446011Y-112772773D01*
X84143459Y-112396443D01*
X83900656Y-112087470D01*
X83898720Y-112084923D01*
X83898719Y-112084922D01*
X83800285Y-111950894D01*
X83613879Y-111697081D01*
X83472691Y-111499999D01*
X85544750Y-111499999D01*
X85563669Y-111643709D01*
X85585777Y-111697081D01*
X85619139Y-111777625D01*
X85653027Y-111821789D01*
X85707378Y-111892621D01*
X85757306Y-111930932D01*
X85822375Y-111980861D01*
X85917067Y-112020083D01*
X85956290Y-112036330D01*
X85972158Y-112038419D01*
X86100000Y-112055250D01*
X86228741Y-112038300D01*
X86256631Y-112034629D01*
X86257129Y-112038419D01*
X86295316Y-112035406D01*
X86321340Y-112045718D01*
X88317485Y-113186371D01*
X88358628Y-113231658D01*
X88359831Y-113234441D01*
X88419139Y-113377626D01*
X88507378Y-113492621D01*
X88557306Y-113530932D01*
X88622375Y-113580861D01*
X88717067Y-113620083D01*
X88756290Y-113636330D01*
X88773008Y-113638531D01*
X88900000Y-113655250D01*
X89043709Y-113636330D01*
X89177625Y-113580861D01*
X89292621Y-113492621D01*
X89380861Y-113377625D01*
X89436330Y-113243709D01*
X89455250Y-113100000D01*
X89436330Y-112956291D01*
X89380861Y-112822375D01*
X89330932Y-112757306D01*
X89292621Y-112707378D01*
X89227552Y-112657450D01*
X89177625Y-112619139D01*
X89138401Y-112602892D01*
X89043709Y-112563669D01*
X88900000Y-112544750D01*
X88743369Y-112565371D01*
X88742870Y-112561583D01*
X88704640Y-112564583D01*
X88678657Y-112554280D01*
X86682514Y-111413627D01*
X86641371Y-111368340D01*
X86640168Y-111365556D01*
X86613013Y-111299999D01*
X86580861Y-111222375D01*
X86530152Y-111156290D01*
X86492621Y-111107378D01*
X86427552Y-111057450D01*
X86377625Y-111019139D01*
X86338401Y-111002892D01*
X86243709Y-110963669D01*
X86116717Y-110946951D01*
X86100000Y-110944750D01*
X86099999Y-110944750D01*
X85956290Y-110963669D01*
X85822375Y-111019139D01*
X85707378Y-111107378D01*
X85619139Y-111222375D01*
X85563669Y-111356290D01*
X85544750Y-111499999D01*
X83472691Y-111499999D01*
X83384065Y-111376288D01*
X83382269Y-111373695D01*
X83115407Y-110974933D01*
X82899272Y-110643046D01*
X82897630Y-110640437D01*
X82684077Y-110289045D01*
X82649051Y-110231411D01*
X82567202Y-110092621D01*
X82447229Y-109889184D01*
X82445739Y-109886567D01*
X82215802Y-109468060D01*
X82096587Y-109243709D01*
X82028797Y-109116134D01*
X82027483Y-109113571D01*
X81816436Y-108686215D01*
X81738650Y-108522701D01*
X81644837Y-108325497D01*
X81643683Y-108322978D01*
X81451782Y-107887453D01*
X81296066Y-107518767D01*
X81295014Y-107516175D01*
X81190146Y-107246872D01*
X81122564Y-107073319D01*
X80983107Y-106697383D01*
X80982233Y-106694924D01*
X80949968Y-106600000D01*
X82644750Y-106600000D01*
X82663669Y-106743709D01*
X82702185Y-106836695D01*
X82719139Y-106877625D01*
X82734541Y-106897697D01*
X82807378Y-106992621D01*
X82857306Y-107030932D01*
X82922375Y-107080861D01*
X83017067Y-107120083D01*
X83056290Y-107136330D01*
X83112771Y-107143765D01*
X83167393Y-107150957D01*
X83222618Y-107177298D01*
X83228792Y-107183708D01*
X84824208Y-108996682D01*
X84848456Y-109052857D01*
X84848040Y-109075004D01*
X84844749Y-109099998D01*
X84863669Y-109243709D01*
X84902892Y-109338401D01*
X84919139Y-109377625D01*
X84953477Y-109422375D01*
X85007378Y-109492621D01*
X85057306Y-109530932D01*
X85122375Y-109580861D01*
X85209155Y-109616806D01*
X85256290Y-109636330D01*
X85275210Y-109638820D01*
X85400000Y-109655250D01*
X85543709Y-109636330D01*
X85677625Y-109580861D01*
X85792621Y-109492621D01*
X85880861Y-109377625D01*
X85936330Y-109243709D01*
X85955250Y-109100000D01*
X85936330Y-108956291D01*
X85880861Y-108822375D01*
X85830932Y-108757306D01*
X85792621Y-108707378D01*
X85727552Y-108657450D01*
X85677625Y-108619139D01*
X85647287Y-108606572D01*
X85543710Y-108563669D01*
X85432606Y-108549042D01*
X85377381Y-108522701D01*
X85371208Y-108516291D01*
X85203338Y-108325530D01*
X83775791Y-106703316D01*
X83751543Y-106647141D01*
X83751958Y-106624997D01*
X83755250Y-106600000D01*
X83736330Y-106456291D01*
X83680861Y-106322375D01*
X83621845Y-106245464D01*
X83592621Y-106207378D01*
X83527552Y-106157450D01*
X83477625Y-106119139D01*
X83438401Y-106102892D01*
X83343709Y-106063669D01*
X83200000Y-106044750D01*
X83056290Y-106063669D01*
X82922375Y-106119139D01*
X82807378Y-106207378D01*
X82719139Y-106322375D01*
X82663669Y-106456290D01*
X82644750Y-106600000D01*
X80949968Y-106600000D01*
X80829461Y-106245464D01*
X80764985Y-106044750D01*
X80706640Y-105863123D01*
X80705873Y-105860620D01*
X80573027Y-105405436D01*
X80555500Y-105341214D01*
X80467143Y-105017451D01*
X80466544Y-105015137D01*
X80353761Y-104554818D01*
X80265118Y-104162134D01*
X80264637Y-104159866D01*
X80172126Y-103695374D01*
X80100953Y-103298868D01*
X80100558Y-103296506D01*
X80028465Y-102828695D01*
X79974910Y-102429038D01*
X79974650Y-102426894D01*
X79923170Y-101957420D01*
X79922991Y-101955612D01*
X79887295Y-101554726D01*
X79887132Y-101552613D01*
X79857429Y-101100000D01*
X81444750Y-101100000D01*
X81463669Y-101243709D01*
X81484569Y-101294165D01*
X81519139Y-101377625D01*
X81574066Y-101449207D01*
X81595869Y-101477622D01*
X81607379Y-101492621D01*
X81722375Y-101580861D01*
X81796301Y-101611481D01*
X81842828Y-101651217D01*
X81849117Y-101663265D01*
X82883804Y-104028267D01*
X82889805Y-104089157D01*
X82884569Y-104105831D01*
X82863670Y-104156289D01*
X82844750Y-104299999D01*
X82863669Y-104443709D01*
X82886986Y-104500000D01*
X82919139Y-104577625D01*
X82957450Y-104627552D01*
X83007378Y-104692621D01*
X83057306Y-104730932D01*
X83122375Y-104780861D01*
X83217067Y-104820083D01*
X83256290Y-104836330D01*
X83273008Y-104838531D01*
X83400000Y-104855250D01*
X83543709Y-104836330D01*
X83677625Y-104780861D01*
X83792621Y-104692621D01*
X83880861Y-104577625D01*
X83936330Y-104443709D01*
X83955250Y-104300000D01*
X83936330Y-104156291D01*
X83936329Y-104156289D01*
X83911712Y-104096857D01*
X83880861Y-104022375D01*
X83823787Y-103947995D01*
X83792621Y-103907378D01*
X83677625Y-103819139D01*
X83603696Y-103788517D01*
X83557171Y-103748780D01*
X83550882Y-103736734D01*
X82959714Y-102385492D01*
X82516193Y-101371731D01*
X82510193Y-101310842D01*
X82515430Y-101294165D01*
X82536330Y-101243708D01*
X82555250Y-101100000D01*
X82536330Y-100956291D01*
X82480861Y-100822375D01*
X82401645Y-100719139D01*
X82392621Y-100707378D01*
X82327552Y-100657450D01*
X82277625Y-100619139D01*
X82238401Y-100602892D01*
X82143709Y-100563669D01*
X82000000Y-100544750D01*
X81856290Y-100563669D01*
X81722375Y-100619139D01*
X81607378Y-100707378D01*
X81519139Y-100822375D01*
X81463669Y-100956290D01*
X81444750Y-101100000D01*
X79857429Y-101100000D01*
X79856207Y-101081378D01*
X79856102Y-101079444D01*
X79838235Y-100677318D01*
X79838168Y-100675309D01*
X79827859Y-100203410D01*
X79827835Y-100201248D01*
X79827835Y-100000000D01*
X83994525Y-100000000D01*
X83994556Y-100001243D01*
X84014389Y-100796563D01*
X84014390Y-100796602D01*
X84014421Y-100797807D01*
X84014511Y-100799011D01*
X84014513Y-100799046D01*
X84073967Y-101592399D01*
X84073969Y-101592425D01*
X84074060Y-101593631D01*
X84074211Y-101594839D01*
X84074212Y-101594845D01*
X84092684Y-101742252D01*
X84173293Y-102385492D01*
X84173503Y-102386686D01*
X84173504Y-102386689D01*
X84311659Y-103170208D01*
X84311664Y-103170237D01*
X84311874Y-103171423D01*
X84312145Y-103172611D01*
X84312147Y-103172620D01*
X84489121Y-103947995D01*
X84489458Y-103949469D01*
X84511628Y-104028267D01*
X84644352Y-104499999D01*
X84705603Y-104717697D01*
X84705989Y-104718846D01*
X84705998Y-104718875D01*
X84959378Y-105473022D01*
X84959389Y-105473053D01*
X84959773Y-105474195D01*
X84960219Y-105475332D01*
X84960228Y-105475356D01*
X85170425Y-106010927D01*
X85251336Y-106217083D01*
X85368800Y-106477411D01*
X85579055Y-106943386D01*
X85579064Y-106943404D01*
X85579565Y-106944515D01*
X85580122Y-106945601D01*
X85580129Y-106945616D01*
X85872638Y-107516175D01*
X85943647Y-107654682D01*
X85944251Y-107655728D01*
X85944258Y-107655741D01*
X86173453Y-108052719D01*
X86342674Y-108345818D01*
X86343333Y-108346839D01*
X86343342Y-108346853D01*
X86452777Y-108516291D01*
X86775656Y-109016205D01*
X86776360Y-109017184D01*
X86776366Y-109017193D01*
X87207459Y-109616806D01*
X87241516Y-109664176D01*
X87242289Y-109665145D01*
X87736031Y-110284280D01*
X87739095Y-110288121D01*
X87739901Y-110289035D01*
X87739910Y-110289045D01*
X88050016Y-110640437D01*
X88267157Y-110886488D01*
X88268013Y-110887365D01*
X88268018Y-110887371D01*
X88287533Y-110907379D01*
X88824388Y-111457789D01*
X89169090Y-111777625D01*
X89404575Y-111996124D01*
X89409404Y-112000604D01*
X89410351Y-112001399D01*
X89410356Y-112001403D01*
X89512949Y-112087489D01*
X90020750Y-112513584D01*
X90021718Y-112514317D01*
X90021729Y-112514326D01*
X90276593Y-112707378D01*
X90656905Y-112995453D01*
X91316289Y-113445014D01*
X91997263Y-113861148D01*
X92698132Y-114242821D01*
X92699248Y-114243358D01*
X92699255Y-114243362D01*
X92741423Y-114263669D01*
X93417155Y-114589084D01*
X94152543Y-114899077D01*
X94902470Y-115172027D01*
X95665070Y-115407258D01*
X96438447Y-115604184D01*
X97220678Y-115762316D01*
X98009820Y-115881260D01*
X98803909Y-115960720D01*
X99600972Y-116000500D01*
X99602195Y-116000500D01*
X100397805Y-116000500D01*
X100399028Y-116000500D01*
X101196091Y-115960720D01*
X101990180Y-115881260D01*
X102779322Y-115762316D01*
X103561553Y-115604184D01*
X104334930Y-115407258D01*
X105097530Y-115172027D01*
X105847457Y-114899077D01*
X106582845Y-114589084D01*
X107301868Y-114242821D01*
X107747762Y-114000000D01*
X110744750Y-114000000D01*
X110763669Y-114143709D01*
X110802521Y-114237504D01*
X110819139Y-114277625D01*
X110850994Y-114319139D01*
X110907378Y-114392621D01*
X110957306Y-114430932D01*
X111022375Y-114480861D01*
X111117067Y-114520083D01*
X111156290Y-114536330D01*
X111175209Y-114538820D01*
X111300000Y-114555250D01*
X111443709Y-114536330D01*
X111577625Y-114480861D01*
X111692621Y-114392621D01*
X111780861Y-114277625D01*
X111836330Y-114143709D01*
X111855250Y-114000000D01*
X111847027Y-113937546D01*
X111858177Y-113877387D01*
X111867028Y-113863853D01*
X113407673Y-111883024D01*
X113458322Y-111848700D01*
X113472895Y-111845652D01*
X113543709Y-111836330D01*
X113677625Y-111780861D01*
X113792621Y-111692621D01*
X113880861Y-111577625D01*
X113936330Y-111443709D01*
X113955250Y-111300000D01*
X113936330Y-111156291D01*
X113880861Y-111022375D01*
X113821297Y-110944750D01*
X113792621Y-110907378D01*
X113727552Y-110857450D01*
X113677625Y-110819139D01*
X113638401Y-110802892D01*
X113543709Y-110763669D01*
X113416717Y-110746951D01*
X113400000Y-110744750D01*
X113399999Y-110744750D01*
X113256290Y-110763669D01*
X113122375Y-110819139D01*
X113007378Y-110907378D01*
X112919139Y-111022375D01*
X112863669Y-111156290D01*
X112844750Y-111300000D01*
X112852971Y-111362451D01*
X112841820Y-111422612D01*
X112832964Y-111436152D01*
X111292326Y-113416974D01*
X111241676Y-113451299D01*
X111227102Y-113454347D01*
X111156290Y-113463669D01*
X111022375Y-113519139D01*
X110907378Y-113607378D01*
X110819139Y-113722375D01*
X110763669Y-113856290D01*
X110744750Y-114000000D01*
X107747762Y-114000000D01*
X108002737Y-113861148D01*
X108683711Y-113445014D01*
X109343095Y-112995453D01*
X109979250Y-112513584D01*
X110590596Y-112000604D01*
X111175612Y-111457789D01*
X111732843Y-110886488D01*
X112260905Y-110288121D01*
X112729916Y-109699999D01*
X114644750Y-109699999D01*
X114663669Y-109843709D01*
X114681422Y-109886567D01*
X114719139Y-109977625D01*
X114757450Y-110027552D01*
X114807378Y-110092621D01*
X114857306Y-110130932D01*
X114922375Y-110180861D01*
X115017067Y-110220083D01*
X115056290Y-110236330D01*
X115073008Y-110238531D01*
X115200000Y-110255250D01*
X115343709Y-110236330D01*
X115477625Y-110180861D01*
X115592621Y-110092621D01*
X115680861Y-109977625D01*
X115736330Y-109843709D01*
X115755250Y-109700000D01*
X115736330Y-109556291D01*
X115736330Y-109556290D01*
X115736330Y-109556289D01*
X115681679Y-109424349D01*
X115676878Y-109363353D01*
X115678062Y-109358886D01*
X116320945Y-107144509D01*
X116355325Y-107093900D01*
X116377168Y-107081211D01*
X116377623Y-107080861D01*
X116377625Y-107080861D01*
X116492621Y-106992621D01*
X116580861Y-106877625D01*
X116636330Y-106743709D01*
X116655250Y-106600000D01*
X116636330Y-106456291D01*
X116580861Y-106322375D01*
X116521845Y-106245464D01*
X116492621Y-106207378D01*
X116427552Y-106157450D01*
X116377625Y-106119139D01*
X116338401Y-106102892D01*
X116243709Y-106063669D01*
X116116717Y-106046951D01*
X116100000Y-106044750D01*
X116099999Y-106044750D01*
X115956290Y-106063669D01*
X115822375Y-106119139D01*
X115707378Y-106207378D01*
X115619139Y-106322375D01*
X115563669Y-106456290D01*
X115544750Y-106600000D01*
X115563669Y-106743708D01*
X115588252Y-106803057D01*
X115618320Y-106875648D01*
X115623121Y-106936643D01*
X115621930Y-106941134D01*
X114979053Y-109155487D01*
X114944672Y-109206099D01*
X114922831Y-109218788D01*
X114807378Y-109307378D01*
X114719139Y-109422375D01*
X114663669Y-109556290D01*
X114644750Y-109699999D01*
X112729916Y-109699999D01*
X112758484Y-109664176D01*
X113224344Y-109016205D01*
X113657326Y-108345818D01*
X114056353Y-107654682D01*
X114420435Y-106944515D01*
X114748664Y-106217083D01*
X115040227Y-105474195D01*
X115294397Y-104717697D01*
X115355647Y-104499999D01*
X116744750Y-104499999D01*
X116763669Y-104643709D01*
X116794316Y-104717697D01*
X116819139Y-104777625D01*
X116857450Y-104827552D01*
X116907378Y-104892621D01*
X116957306Y-104930932D01*
X117022375Y-104980861D01*
X117110937Y-105017544D01*
X117156290Y-105036330D01*
X117175210Y-105038820D01*
X117300000Y-105055250D01*
X117443709Y-105036330D01*
X117577625Y-104980861D01*
X117692621Y-104892621D01*
X117780861Y-104777625D01*
X117836330Y-104643709D01*
X117855250Y-104500000D01*
X117836330Y-104356291D01*
X117780861Y-104222375D01*
X117692621Y-104107379D01*
X117692618Y-104107377D01*
X117684686Y-104097039D01*
X117688354Y-104094224D01*
X117668054Y-104064639D01*
X117663999Y-104036595D01*
X117663999Y-101663405D01*
X117682906Y-101605214D01*
X117684924Y-101603146D01*
X117684686Y-101602963D01*
X117769354Y-101492621D01*
X117780861Y-101477625D01*
X117836330Y-101343709D01*
X117855250Y-101200000D01*
X117836330Y-101056291D01*
X117780861Y-100922375D01*
X117704128Y-100822375D01*
X117692621Y-100807378D01*
X117627552Y-100757450D01*
X117577625Y-100719139D01*
X117538401Y-100702892D01*
X117443709Y-100663669D01*
X117316717Y-100646951D01*
X117300000Y-100644750D01*
X117299999Y-100644750D01*
X117156290Y-100663669D01*
X117022375Y-100719139D01*
X116907378Y-100807378D01*
X116819139Y-100922375D01*
X116763669Y-101056290D01*
X116744750Y-101200000D01*
X116763669Y-101343709D01*
X116777718Y-101377625D01*
X116819139Y-101477625D01*
X116907379Y-101592621D01*
X116907381Y-101592622D01*
X116915314Y-101602961D01*
X116911632Y-101605785D01*
X116931849Y-101635036D01*
X116936000Y-101663403D01*
X116936000Y-104036596D01*
X116917093Y-104094787D01*
X116915077Y-104096857D01*
X116915313Y-104097039D01*
X116819138Y-104222375D01*
X116763669Y-104356290D01*
X116744750Y-104499999D01*
X115355647Y-104499999D01*
X115510542Y-103949469D01*
X115688126Y-103171423D01*
X115826707Y-102385492D01*
X115925940Y-101593631D01*
X115985579Y-100797807D01*
X116005475Y-100000000D01*
X115985579Y-99202193D01*
X115925940Y-98406369D01*
X115826707Y-97614508D01*
X115688126Y-96828577D01*
X115510542Y-96050531D01*
X115440054Y-95800000D01*
X116344750Y-95800000D01*
X116363669Y-95943709D01*
X116383930Y-95992622D01*
X116419139Y-96077625D01*
X116507379Y-96192621D01*
X116622375Y-96280861D01*
X116632716Y-96288796D01*
X116632195Y-96289473D01*
X116668389Y-96320385D01*
X116679053Y-96344512D01*
X117321930Y-98558864D01*
X117319997Y-98620019D01*
X117318320Y-98624351D01*
X117263669Y-98756289D01*
X117244750Y-98899999D01*
X117263669Y-99043709D01*
X117298601Y-99128042D01*
X117319139Y-99177625D01*
X117338945Y-99203436D01*
X117407378Y-99292621D01*
X117449318Y-99324802D01*
X117522375Y-99380861D01*
X117617067Y-99420083D01*
X117656290Y-99436330D01*
X117673008Y-99438531D01*
X117800000Y-99455250D01*
X117943709Y-99436330D01*
X118077625Y-99380861D01*
X118192621Y-99292621D01*
X118280861Y-99177625D01*
X118336330Y-99043709D01*
X118355250Y-98900000D01*
X118336330Y-98756291D01*
X118336329Y-98756289D01*
X118320083Y-98717067D01*
X118280861Y-98622375D01*
X118216499Y-98538497D01*
X118192621Y-98507378D01*
X118067285Y-98411205D01*
X118067803Y-98410528D01*
X118031604Y-98379607D01*
X118020945Y-98355487D01*
X117866386Y-97823117D01*
X117378069Y-96141135D01*
X117380002Y-96079982D01*
X117381679Y-96075650D01*
X117392084Y-96050531D01*
X117436330Y-95943709D01*
X117455250Y-95800000D01*
X117436330Y-95656291D01*
X117380861Y-95522375D01*
X117321590Y-95445132D01*
X117292621Y-95407378D01*
X117227552Y-95357450D01*
X117177625Y-95319139D01*
X117138401Y-95302892D01*
X117043709Y-95263669D01*
X116900000Y-95244750D01*
X116756290Y-95263669D01*
X116622375Y-95319139D01*
X116507378Y-95407378D01*
X116419139Y-95522375D01*
X116363669Y-95656290D01*
X116344750Y-95800000D01*
X115440054Y-95800000D01*
X115294397Y-95282303D01*
X115220940Y-95063669D01*
X115040621Y-94526977D01*
X115040618Y-94526968D01*
X115040227Y-94525805D01*
X114748664Y-93782917D01*
X114420435Y-93055485D01*
X114056353Y-92345318D01*
X113657326Y-91654182D01*
X113224344Y-90983795D01*
X113092204Y-90800000D01*
X114144750Y-90800000D01*
X114163669Y-90943709D01*
X114181668Y-90987161D01*
X114219139Y-91077625D01*
X114257450Y-91127552D01*
X114307378Y-91192621D01*
X114357306Y-91230932D01*
X114422375Y-91280861D01*
X114556291Y-91336330D01*
X114597035Y-91341694D01*
X114652260Y-91368035D01*
X114665076Y-91382873D01*
X116039878Y-93336537D01*
X116057904Y-93395007D01*
X116057068Y-93406433D01*
X116044750Y-93499999D01*
X116063669Y-93643709D01*
X116086986Y-93700000D01*
X116119139Y-93777625D01*
X116157450Y-93827552D01*
X116207378Y-93892621D01*
X116257306Y-93930932D01*
X116322375Y-93980861D01*
X116417067Y-94020083D01*
X116456290Y-94036330D01*
X116475210Y-94038820D01*
X116600000Y-94055250D01*
X116743709Y-94036330D01*
X116877625Y-93980861D01*
X116992621Y-93892621D01*
X117080861Y-93777625D01*
X117136330Y-93643709D01*
X117155250Y-93500000D01*
X117136330Y-93356291D01*
X117080861Y-93222375D01*
X117030932Y-93157306D01*
X116992621Y-93107378D01*
X116923556Y-93054383D01*
X116877625Y-93019139D01*
X116847287Y-93006572D01*
X116743710Y-92963669D01*
X116702962Y-92958305D01*
X116647737Y-92931963D01*
X116634926Y-92917130D01*
X115260120Y-90963459D01*
X115242095Y-90904990D01*
X115242929Y-90893578D01*
X115255250Y-90800000D01*
X115236330Y-90656291D01*
X115180861Y-90522375D01*
X115130932Y-90457306D01*
X115092621Y-90407378D01*
X115027552Y-90357450D01*
X114977625Y-90319139D01*
X114938401Y-90302892D01*
X114843709Y-90263669D01*
X114716717Y-90246951D01*
X114700000Y-90244750D01*
X114699999Y-90244750D01*
X114556290Y-90263669D01*
X114422375Y-90319139D01*
X114307378Y-90407378D01*
X114219139Y-90522375D01*
X114163669Y-90656290D01*
X114144750Y-90800000D01*
X113092204Y-90800000D01*
X112758484Y-90335824D01*
X112260905Y-89711879D01*
X112186828Y-89627940D01*
X111965923Y-89377624D01*
X111732843Y-89113512D01*
X111175612Y-88542211D01*
X110783313Y-88178211D01*
X110591506Y-88000240D01*
X110591498Y-88000233D01*
X110590596Y-87999396D01*
X110589643Y-87998596D01*
X109980198Y-87487211D01*
X109980186Y-87487202D01*
X109979250Y-87486416D01*
X109978286Y-87485686D01*
X109978270Y-87485673D01*
X109344072Y-87005287D01*
X109344070Y-87005286D01*
X109343095Y-87004547D01*
X108683711Y-86554986D01*
X108682689Y-86554361D01*
X108682679Y-86554355D01*
X108593731Y-86500000D01*
X110644750Y-86500000D01*
X110663669Y-86643709D01*
X110702034Y-86736330D01*
X110719139Y-86777625D01*
X110750637Y-86818674D01*
X110807378Y-86892621D01*
X110853813Y-86928251D01*
X110922375Y-86980861D01*
X111017067Y-87020083D01*
X111056290Y-87036330D01*
X111078078Y-87039198D01*
X111200000Y-87055250D01*
X111250892Y-87048549D01*
X111311051Y-87059698D01*
X111326018Y-87069686D01*
X112515367Y-88030313D01*
X113175714Y-88563670D01*
X113216828Y-88596877D01*
X113250217Y-88648149D01*
X113252776Y-88660970D01*
X113263669Y-88743709D01*
X113296254Y-88822375D01*
X113319139Y-88877625D01*
X113356372Y-88926148D01*
X113407378Y-88992621D01*
X113449644Y-89025052D01*
X113522375Y-89080861D01*
X113601203Y-89113512D01*
X113656290Y-89136330D01*
X113673008Y-89138531D01*
X113800000Y-89155250D01*
X113943709Y-89136330D01*
X114077625Y-89080861D01*
X114192621Y-88992621D01*
X114280861Y-88877625D01*
X114336330Y-88743709D01*
X114355250Y-88600000D01*
X114336330Y-88456291D01*
X114280861Y-88322375D01*
X114230932Y-88257306D01*
X114192621Y-88207378D01*
X114127552Y-88157450D01*
X114077625Y-88119139D01*
X114038401Y-88102892D01*
X113943709Y-88063669D01*
X113816717Y-88046951D01*
X113800000Y-88044750D01*
X113799999Y-88044750D01*
X113749106Y-88051450D01*
X113688946Y-88040300D01*
X113673984Y-88030316D01*
X111957231Y-86643709D01*
X111783170Y-86503121D01*
X111749781Y-86451849D01*
X111747222Y-86439026D01*
X111736330Y-86356290D01*
X111720083Y-86317067D01*
X111680861Y-86222375D01*
X111614836Y-86136330D01*
X111592621Y-86107378D01*
X111526041Y-86056290D01*
X111477625Y-86019139D01*
X111438401Y-86002892D01*
X111343709Y-85963669D01*
X111200000Y-85944750D01*
X111056290Y-85963669D01*
X110922375Y-86019139D01*
X110807378Y-86107378D01*
X110719139Y-86222375D01*
X110663669Y-86356290D01*
X110644750Y-86500000D01*
X108593731Y-86500000D01*
X108102802Y-86200000D01*
X108002738Y-86138852D01*
X107301868Y-85757179D01*
X107300766Y-85756648D01*
X107300744Y-85756637D01*
X106583952Y-85411449D01*
X106583948Y-85411447D01*
X106582845Y-85410916D01*
X106361000Y-85317400D01*
X105848578Y-85101395D01*
X105848559Y-85101387D01*
X105847457Y-85100923D01*
X105846332Y-85100513D01*
X105846323Y-85100510D01*
X105295423Y-84900000D01*
X105097530Y-84827973D01*
X105096400Y-84827624D01*
X105096372Y-84827615D01*
X104336101Y-84593103D01*
X104336093Y-84593100D01*
X104334930Y-84592742D01*
X104333750Y-84592441D01*
X104333741Y-84592439D01*
X103562733Y-84396116D01*
X103562715Y-84396111D01*
X103561553Y-84395816D01*
X103560368Y-84395576D01*
X103560353Y-84395573D01*
X102780531Y-84237928D01*
X102780515Y-84237925D01*
X102779322Y-84237684D01*
X102778095Y-84237499D01*
X102529306Y-84200000D01*
X105744750Y-84200000D01*
X105763669Y-84343709D01*
X105798634Y-84428120D01*
X105819139Y-84477625D01*
X105841970Y-84507379D01*
X105907378Y-84592621D01*
X105915031Y-84598493D01*
X106022375Y-84680861D01*
X106117067Y-84720083D01*
X106156290Y-84736330D01*
X106173008Y-84738531D01*
X106300000Y-84755250D01*
X106426991Y-84738531D01*
X106443710Y-84736330D01*
X106488347Y-84717840D01*
X106577625Y-84680861D01*
X106589327Y-84671880D01*
X106647003Y-84651455D01*
X106670750Y-84653707D01*
X108544858Y-85063669D01*
X108974371Y-85157625D01*
X109027177Y-85188531D01*
X109031757Y-85194070D01*
X109041969Y-85207378D01*
X109107379Y-85292621D01*
X109222375Y-85380861D01*
X109308083Y-85416362D01*
X109356290Y-85436330D01*
X109375209Y-85438820D01*
X109500000Y-85455250D01*
X109643709Y-85436330D01*
X109777625Y-85380861D01*
X109892621Y-85292621D01*
X109980861Y-85177625D01*
X110036330Y-85043709D01*
X110055250Y-84900000D01*
X110036330Y-84756291D01*
X110035898Y-84755249D01*
X110005086Y-84680860D01*
X109980861Y-84622375D01*
X109930932Y-84557306D01*
X109892621Y-84507378D01*
X109815945Y-84448543D01*
X109777625Y-84419139D01*
X109738401Y-84402892D01*
X109643709Y-84363669D01*
X109516717Y-84346951D01*
X109500000Y-84344750D01*
X109499999Y-84344750D01*
X109356289Y-84363669D01*
X109222374Y-84419138D01*
X109210669Y-84428120D01*
X109152992Y-84448543D01*
X109129247Y-84446290D01*
X106825626Y-83942373D01*
X106772820Y-83911467D01*
X106768240Y-83905927D01*
X106692621Y-83807378D01*
X106627552Y-83757450D01*
X106577625Y-83719139D01*
X106538401Y-83702892D01*
X106443709Y-83663669D01*
X106316717Y-83646951D01*
X106300000Y-83644750D01*
X106299999Y-83644750D01*
X106156290Y-83663669D01*
X106022375Y-83719139D01*
X105907378Y-83807378D01*
X105819139Y-83922375D01*
X105763669Y-84056290D01*
X105744750Y-84200000D01*
X102529306Y-84200000D01*
X101991402Y-84118924D01*
X101991394Y-84118923D01*
X101990180Y-84118740D01*
X101988966Y-84118618D01*
X101988954Y-84118617D01*
X101197321Y-84039403D01*
X101197317Y-84039402D01*
X101196091Y-84039280D01*
X101194879Y-84039219D01*
X101194859Y-84039218D01*
X100400248Y-83999560D01*
X100400212Y-83999559D01*
X100399028Y-83999500D01*
X99600972Y-83999500D01*
X99599787Y-83999559D01*
X99599751Y-83999560D01*
X99192888Y-84019866D01*
X99133827Y-84003883D01*
X99095440Y-83956237D01*
X99092391Y-83895127D01*
X99125842Y-83843896D01*
X99127599Y-83842513D01*
X99192621Y-83792621D01*
X99280861Y-83677625D01*
X99336330Y-83543709D01*
X99355250Y-83400000D01*
X99337343Y-83263984D01*
X99336330Y-83256290D01*
X99280861Y-83122375D01*
X99184687Y-82997039D01*
X99188354Y-82994224D01*
X99168055Y-82964640D01*
X99164000Y-82936596D01*
X99164000Y-82900000D01*
X100544750Y-82900000D01*
X100563669Y-83043709D01*
X100594370Y-83117826D01*
X100619139Y-83177625D01*
X100657450Y-83227552D01*
X100707378Y-83292621D01*
X100757306Y-83330932D01*
X100822375Y-83380861D01*
X100909242Y-83416842D01*
X100956290Y-83436330D01*
X100975210Y-83438820D01*
X101100000Y-83455250D01*
X101243709Y-83436330D01*
X101377625Y-83380861D01*
X101492621Y-83292621D01*
X101492620Y-83292621D01*
X101502961Y-83284687D01*
X101505775Y-83288354D01*
X101535360Y-83268055D01*
X101563404Y-83264000D01*
X104066940Y-83264000D01*
X104067157Y-83263981D01*
X104092213Y-83263984D01*
X104092213Y-83263983D01*
X104092216Y-83263984D01*
X104218616Y-83243974D01*
X104340330Y-83204435D01*
X104360123Y-83194351D01*
X104417987Y-83184409D01*
X104477286Y-83192216D01*
X104620995Y-83173296D01*
X104754911Y-83117827D01*
X104869907Y-83029587D01*
X104958147Y-82914591D01*
X105013616Y-82780675D01*
X105032536Y-82636966D01*
X105013616Y-82493257D01*
X104958147Y-82359341D01*
X104895680Y-82277933D01*
X104869907Y-82244344D01*
X104804838Y-82194416D01*
X104754911Y-82156105D01*
X104715687Y-82139858D01*
X104620995Y-82100635D01*
X104477286Y-82081716D01*
X104333576Y-82100635D01*
X104199661Y-82156105D01*
X104084664Y-82244344D01*
X103996425Y-82359340D01*
X103948565Y-82474886D01*
X103908828Y-82521411D01*
X103857101Y-82536000D01*
X101563404Y-82536000D01*
X101505213Y-82517093D01*
X101503142Y-82515077D01*
X101502961Y-82515313D01*
X101377624Y-82419138D01*
X101243709Y-82363669D01*
X101116717Y-82346951D01*
X101100000Y-82344750D01*
X101099999Y-82344750D01*
X100956290Y-82363669D01*
X100822375Y-82419139D01*
X100707378Y-82507378D01*
X100619139Y-82622375D01*
X100563669Y-82756290D01*
X100544750Y-82900000D01*
X99164000Y-82900000D01*
X99164000Y-82674296D01*
X99182907Y-82616105D01*
X99202733Y-82595754D01*
X99255367Y-82555367D01*
X99343607Y-82440371D01*
X99399076Y-82306455D01*
X99417996Y-82162746D01*
X99399076Y-82019037D01*
X99343607Y-81885121D01*
X99275115Y-81795861D01*
X99255367Y-81770124D01*
X99175134Y-81708560D01*
X99140371Y-81681885D01*
X99101147Y-81665638D01*
X99006455Y-81626415D01*
X98862746Y-81607496D01*
X98719036Y-81626415D01*
X98585120Y-81681885D01*
X98518413Y-81733071D01*
X98460737Y-81753495D01*
X98402071Y-81736117D01*
X98364824Y-81687575D01*
X98363223Y-81626411D01*
X98379603Y-81594263D01*
X98380861Y-81592625D01*
X98436330Y-81458709D01*
X98455250Y-81315000D01*
X98446345Y-81247367D01*
X98457495Y-81187209D01*
X98465853Y-81174315D01*
X99480757Y-79847329D01*
X99531125Y-79812594D01*
X99577584Y-79810159D01*
X99793388Y-79850500D01*
X99793390Y-79850500D01*
X100006612Y-79850500D01*
X100216195Y-79811322D01*
X100219197Y-79810159D01*
X100415019Y-79734298D01*
X100596302Y-79622052D01*
X100753872Y-79478407D01*
X100882366Y-79308255D01*
X100902379Y-79268062D01*
X100945241Y-79224401D01*
X101005582Y-79214271D01*
X101060353Y-79241543D01*
X101088634Y-79295801D01*
X101090000Y-79312191D01*
X101090000Y-79595181D01*
X101090282Y-79600457D01*
X101096401Y-79657376D01*
X101146646Y-79792089D01*
X101232811Y-79907188D01*
X101347910Y-79993353D01*
X101482623Y-80043598D01*
X101539542Y-80049717D01*
X101544819Y-80050000D01*
X102189999Y-80050000D01*
X102190000Y-80049999D01*
X102190000Y-79135501D01*
X102297685Y-79184680D01*
X102404237Y-79200000D01*
X102475763Y-79200000D01*
X102582315Y-79184680D01*
X102690000Y-79135501D01*
X102690000Y-80049998D01*
X102690001Y-80050000D01*
X103335181Y-80050000D01*
X103340457Y-80049717D01*
X103397376Y-80043598D01*
X103532089Y-79993353D01*
X103647188Y-79907188D01*
X103733353Y-79792089D01*
X103783598Y-79657376D01*
X103789717Y-79600457D01*
X103790000Y-79595181D01*
X103790000Y-78950001D01*
X103789999Y-78950000D01*
X102873686Y-78950000D01*
X102899493Y-78909844D01*
X102940000Y-78771889D01*
X102940000Y-78628111D01*
X102899493Y-78490156D01*
X102873686Y-78450000D01*
X103789999Y-78450000D01*
X103790000Y-78449999D01*
X103790000Y-77804818D01*
X103789717Y-77799542D01*
X103783598Y-77742623D01*
X103733353Y-77607910D01*
X103647188Y-77492811D01*
X103532089Y-77406646D01*
X103397376Y-77356401D01*
X103340457Y-77350282D01*
X103335181Y-77350000D01*
X102690001Y-77350000D01*
X102690000Y-77350001D01*
X102690000Y-78264498D01*
X102582315Y-78215320D01*
X102475763Y-78200000D01*
X102404237Y-78200000D01*
X102297685Y-78215320D01*
X102190000Y-78264498D01*
X102190000Y-77350001D01*
X102189999Y-77350000D01*
X101544819Y-77350000D01*
X101539542Y-77350282D01*
X101482623Y-77356401D01*
X101347910Y-77406646D01*
X101232811Y-77492811D01*
X101146646Y-77607910D01*
X101096401Y-77742623D01*
X101090282Y-77799542D01*
X101090000Y-77804818D01*
X101090000Y-78087808D01*
X101071093Y-78145999D01*
X101021593Y-78181963D01*
X100960407Y-78181963D01*
X100910907Y-78145999D01*
X100902379Y-78131936D01*
X100882365Y-78091743D01*
X100753874Y-77921595D01*
X100596300Y-77777946D01*
X100415021Y-77665703D01*
X100415019Y-77665702D01*
X100372898Y-77649384D01*
X100216195Y-77588677D01*
X100006612Y-77549500D01*
X100006610Y-77549500D01*
X99793390Y-77549500D01*
X99793388Y-77549500D01*
X99583804Y-77588677D01*
X99384978Y-77665703D01*
X99203699Y-77777946D01*
X99046125Y-77921595D01*
X98917634Y-78091743D01*
X98822596Y-78282608D01*
X98822595Y-78282611D01*
X98764244Y-78487690D01*
X98744571Y-78700000D01*
X98764244Y-78912310D01*
X98797957Y-79030798D01*
X98822596Y-79117391D01*
X98913351Y-79299654D01*
X98922364Y-79360172D01*
X98903367Y-79403925D01*
X97887614Y-80732021D01*
X97837245Y-80766757D01*
X97821901Y-80770031D01*
X97756289Y-80778669D01*
X97622375Y-80834139D01*
X97507378Y-80922378D01*
X97419139Y-81037375D01*
X97363669Y-81171290D01*
X97344750Y-81315000D01*
X97363669Y-81458709D01*
X97398637Y-81543128D01*
X97419139Y-81592625D01*
X97445064Y-81626411D01*
X97507378Y-81707621D01*
X97551696Y-81741627D01*
X97622375Y-81795861D01*
X97717067Y-81835083D01*
X97756290Y-81851330D01*
X97775210Y-81853820D01*
X97900000Y-81870250D01*
X98043709Y-81851330D01*
X98177625Y-81795861D01*
X98244334Y-81744672D01*
X98302007Y-81724250D01*
X98360673Y-81741627D01*
X98397920Y-81790169D01*
X98399522Y-81851333D01*
X98383144Y-81883479D01*
X98381886Y-81885118D01*
X98326415Y-82019036D01*
X98307496Y-82162746D01*
X98326415Y-82306455D01*
X98381883Y-82440368D01*
X98381884Y-82440370D01*
X98381885Y-82440371D01*
X98415542Y-82484233D01*
X98435966Y-82541908D01*
X98436000Y-82544500D01*
X98436000Y-82936596D01*
X98417093Y-82994787D01*
X98415077Y-82996857D01*
X98415313Y-82997039D01*
X98319138Y-83122375D01*
X98263669Y-83256290D01*
X98244750Y-83400000D01*
X98263669Y-83543709D01*
X98300083Y-83631619D01*
X98319139Y-83677625D01*
X98350994Y-83719139D01*
X98407378Y-83792621D01*
X98532715Y-83888795D01*
X98532070Y-83889634D01*
X98567779Y-83920131D01*
X98582063Y-83979626D01*
X98558649Y-84036154D01*
X98506481Y-84068124D01*
X98493225Y-84070368D01*
X98011045Y-84118617D01*
X98011028Y-84118619D01*
X98009820Y-84118740D01*
X98008610Y-84118922D01*
X98008597Y-84118924D01*
X97221904Y-84237499D01*
X97221895Y-84237500D01*
X97220678Y-84237684D01*
X97219491Y-84237923D01*
X97219468Y-84237928D01*
X96439646Y-84395573D01*
X96439622Y-84395578D01*
X96438447Y-84395816D01*
X96437293Y-84396109D01*
X96437266Y-84396116D01*
X95666258Y-84592439D01*
X95666239Y-84592444D01*
X95665070Y-84592742D01*
X95663916Y-84593097D01*
X95663898Y-84593103D01*
X94903627Y-84827615D01*
X94903587Y-84827628D01*
X94902470Y-84827973D01*
X94901339Y-84828384D01*
X94901332Y-84828387D01*
X94153676Y-85100510D01*
X94153654Y-85100518D01*
X94152543Y-85100923D01*
X94151454Y-85101381D01*
X94151421Y-85101395D01*
X93418288Y-85410438D01*
X93418274Y-85410444D01*
X93417155Y-85410916D01*
X93416066Y-85411440D01*
X93416047Y-85411449D01*
X92699255Y-85756637D01*
X92699217Y-85756656D01*
X92698132Y-85757179D01*
X92697045Y-85757770D01*
X92697039Y-85757774D01*
X91998337Y-86138266D01*
X91998319Y-86138276D01*
X91997262Y-86138852D01*
X91996229Y-86139482D01*
X91996219Y-86139489D01*
X91317320Y-86554355D01*
X91317292Y-86554372D01*
X91316289Y-86554986D01*
X91315314Y-86555650D01*
X91315295Y-86555663D01*
X90657912Y-87003860D01*
X90657900Y-87003868D01*
X90656905Y-87004547D01*
X90655947Y-87005271D01*
X90655927Y-87005287D01*
X90021729Y-87485673D01*
X90021693Y-87485701D01*
X90020750Y-87486416D01*
X90019832Y-87487185D01*
X90019801Y-87487211D01*
X89410356Y-87998596D01*
X89410328Y-87998619D01*
X89409404Y-87999396D01*
X89408521Y-88000215D01*
X89408493Y-88000240D01*
X88825292Y-88541372D01*
X88824388Y-88542211D01*
X88823541Y-88543079D01*
X88823526Y-88543094D01*
X88268018Y-89112628D01*
X88267994Y-89112653D01*
X88267157Y-89113512D01*
X88266354Y-89114421D01*
X88266340Y-89114437D01*
X87739910Y-89710954D01*
X87739884Y-89710984D01*
X87739095Y-89711879D01*
X87738346Y-89712817D01*
X87738321Y-89712848D01*
X87242289Y-90334854D01*
X87242278Y-90334867D01*
X87241516Y-90335824D01*
X87240817Y-90336795D01*
X87240802Y-90336816D01*
X86776366Y-90982806D01*
X86776347Y-90982833D01*
X86775656Y-90983795D01*
X86775000Y-90984810D01*
X86774995Y-90984818D01*
X86343342Y-91653146D01*
X86343322Y-91653177D01*
X86342674Y-91654182D01*
X86342067Y-91655231D01*
X86342058Y-91655248D01*
X85944258Y-92344258D01*
X85944241Y-92344287D01*
X85943647Y-92345318D01*
X85943092Y-92346398D01*
X85943083Y-92346417D01*
X85580129Y-93054383D01*
X85580114Y-93054414D01*
X85579565Y-93055485D01*
X85579071Y-93056579D01*
X85579055Y-93056613D01*
X85264142Y-93754535D01*
X85251336Y-93782917D01*
X85250884Y-93784066D01*
X85250880Y-93784078D01*
X84960228Y-94524643D01*
X84960214Y-94524680D01*
X84959773Y-94525805D01*
X84959393Y-94526933D01*
X84959378Y-94526977D01*
X84705998Y-95281124D01*
X84705985Y-95281164D01*
X84705603Y-95282303D01*
X84705271Y-95283480D01*
X84705266Y-95283499D01*
X84497720Y-96021166D01*
X84489458Y-96050531D01*
X84489191Y-96051696D01*
X84489186Y-96051720D01*
X84340413Y-96703538D01*
X84311874Y-96828577D01*
X84311666Y-96829754D01*
X84311659Y-96829791D01*
X84180577Y-97573196D01*
X84173293Y-97614508D01*
X84173145Y-97615683D01*
X84173142Y-97615708D01*
X84074212Y-98405154D01*
X84074060Y-98406369D01*
X84073969Y-98407570D01*
X84073967Y-98407600D01*
X84014513Y-99200953D01*
X84014511Y-99200990D01*
X84014421Y-99202193D01*
X84014391Y-99203395D01*
X84014389Y-99203436D01*
X83999544Y-99798750D01*
X83994525Y-100000000D01*
X79827835Y-100000000D01*
X79827835Y-99798750D01*
X79827859Y-99796588D01*
X79827859Y-99796587D01*
X79838168Y-99324685D01*
X79838235Y-99322687D01*
X79856102Y-98920544D01*
X79856207Y-98918633D01*
X79887133Y-98447374D01*
X79887294Y-98445287D01*
X79922992Y-98044368D01*
X79923168Y-98042604D01*
X79974648Y-97573118D01*
X79974916Y-97570920D01*
X80028463Y-97171314D01*
X80100560Y-96703478D01*
X80100938Y-96701213D01*
X80172129Y-96304616D01*
X80264631Y-95840160D01*
X80265127Y-95837823D01*
X80318812Y-95600000D01*
X81944750Y-95600000D01*
X81963669Y-95743709D01*
X82003644Y-95840216D01*
X82019139Y-95877625D01*
X82107379Y-95992621D01*
X82140501Y-96018036D01*
X82175157Y-96068460D01*
X82178827Y-96087615D01*
X82396210Y-98478833D01*
X82382649Y-98538497D01*
X82376159Y-98548063D01*
X82319138Y-98622374D01*
X82263669Y-98756289D01*
X82244750Y-98899999D01*
X82263669Y-99043709D01*
X82298601Y-99128042D01*
X82319139Y-99177625D01*
X82338945Y-99203436D01*
X82407378Y-99292621D01*
X82449318Y-99324802D01*
X82522375Y-99380861D01*
X82617067Y-99420083D01*
X82656290Y-99436330D01*
X82673008Y-99438531D01*
X82800000Y-99455250D01*
X82943709Y-99436330D01*
X83077625Y-99380861D01*
X83192621Y-99292621D01*
X83280861Y-99177625D01*
X83336330Y-99043709D01*
X83355250Y-98900000D01*
X83336330Y-98756291D01*
X83336329Y-98756289D01*
X83320083Y-98717067D01*
X83280861Y-98622375D01*
X83192621Y-98507379D01*
X83159496Y-98481961D01*
X83124841Y-98431536D01*
X83121171Y-98412382D01*
X83121002Y-98410528D01*
X82903788Y-96021165D01*
X82917349Y-95961502D01*
X82923831Y-95951946D01*
X82980861Y-95877625D01*
X83036330Y-95743709D01*
X83055250Y-95600000D01*
X83036330Y-95456291D01*
X82980861Y-95322375D01*
X82921297Y-95244750D01*
X82892621Y-95207378D01*
X82827552Y-95157450D01*
X82777625Y-95119139D01*
X82738401Y-95102892D01*
X82643709Y-95063669D01*
X82516717Y-95046951D01*
X82500000Y-95044750D01*
X82499999Y-95044750D01*
X82356290Y-95063669D01*
X82222375Y-95119139D01*
X82107378Y-95207378D01*
X82019139Y-95322375D01*
X81963669Y-95456290D01*
X81944750Y-95600000D01*
X80318812Y-95600000D01*
X80353758Y-95445193D01*
X80466553Y-94984822D01*
X80467128Y-94982603D01*
X80573018Y-94594592D01*
X80705895Y-94139303D01*
X80706620Y-94136937D01*
X80829445Y-93754579D01*
X80847997Y-93700000D01*
X83544750Y-93700000D01*
X83563669Y-93843709D01*
X83602892Y-93938401D01*
X83619139Y-93977625D01*
X83657450Y-94027552D01*
X83707378Y-94092621D01*
X83757306Y-94130932D01*
X83822375Y-94180861D01*
X83917067Y-94220083D01*
X83956290Y-94236330D01*
X83975209Y-94238820D01*
X84100000Y-94255250D01*
X84243709Y-94236330D01*
X84377625Y-94180861D01*
X84492621Y-94092621D01*
X84580861Y-93977625D01*
X84636330Y-93843709D01*
X84655250Y-93700000D01*
X84636330Y-93556291D01*
X84613013Y-93499999D01*
X84580862Y-93422377D01*
X84580861Y-93422376D01*
X84580861Y-93422375D01*
X84569555Y-93407641D01*
X84549133Y-93349966D01*
X84551254Y-93326833D01*
X85061051Y-90923508D01*
X85091620Y-90870510D01*
X85097628Y-90865512D01*
X85192621Y-90792621D01*
X85209630Y-90770454D01*
X85280861Y-90677625D01*
X85336330Y-90543709D01*
X85355250Y-90400000D01*
X85338820Y-90275209D01*
X85336330Y-90256290D01*
X85320083Y-90217067D01*
X85280861Y-90122375D01*
X85230932Y-90057306D01*
X85192621Y-90007378D01*
X85127552Y-89957450D01*
X85077625Y-89919139D01*
X85038401Y-89902892D01*
X84943709Y-89863669D01*
X84800000Y-89844750D01*
X84656290Y-89863669D01*
X84522375Y-89919139D01*
X84407378Y-90007378D01*
X84319139Y-90122375D01*
X84263669Y-90256290D01*
X84244750Y-90400000D01*
X84263669Y-90543709D01*
X84319139Y-90677625D01*
X84330442Y-90692356D01*
X84350865Y-90750033D01*
X84348744Y-90773165D01*
X83838947Y-93176490D01*
X83808377Y-93229491D01*
X83802370Y-93234489D01*
X83707377Y-93307380D01*
X83619139Y-93422375D01*
X83563669Y-93556290D01*
X83544750Y-93700000D01*
X80847997Y-93700000D01*
X80982250Y-93305027D01*
X80983090Y-93302662D01*
X81122561Y-92926688D01*
X81295035Y-92483770D01*
X81296029Y-92481319D01*
X81451773Y-92112567D01*
X81643707Y-91676967D01*
X81644800Y-91674580D01*
X81816436Y-91313784D01*
X82027511Y-90886372D01*
X82028768Y-90883919D01*
X82215763Y-90532009D01*
X82445770Y-90113375D01*
X82447201Y-90110861D01*
X82649024Y-89768632D01*
X82897654Y-89359522D01*
X82899256Y-89356977D01*
X83066608Y-89100000D01*
X86244750Y-89100000D01*
X86263669Y-89243709D01*
X86270724Y-89260740D01*
X86319139Y-89377625D01*
X86357450Y-89427552D01*
X86407378Y-89492621D01*
X86457306Y-89530932D01*
X86522375Y-89580861D01*
X86617067Y-89620083D01*
X86656290Y-89636330D01*
X86675210Y-89638820D01*
X86800000Y-89655250D01*
X86943709Y-89636330D01*
X87077625Y-89580861D01*
X87192621Y-89492621D01*
X87280861Y-89377625D01*
X87336330Y-89243709D01*
X87355250Y-89100000D01*
X87336330Y-88956291D01*
X87336329Y-88956289D01*
X87335233Y-88947962D01*
X87346383Y-88887802D01*
X87347940Y-88885041D01*
X88580020Y-86783258D01*
X88625759Y-86742620D01*
X88634197Y-86740270D01*
X88643709Y-86736330D01*
X88777625Y-86680861D01*
X88892621Y-86592621D01*
X88980861Y-86477625D01*
X89036330Y-86343709D01*
X89055250Y-86200000D01*
X89036330Y-86056291D01*
X88980861Y-85922375D01*
X88930932Y-85857306D01*
X88892621Y-85807378D01*
X88809645Y-85743709D01*
X88777625Y-85719139D01*
X88738401Y-85702892D01*
X88643709Y-85663669D01*
X88508051Y-85645810D01*
X88500000Y-85644750D01*
X88499999Y-85644750D01*
X88356290Y-85663669D01*
X88222375Y-85719139D01*
X88107378Y-85807378D01*
X88019139Y-85922375D01*
X87963669Y-86056290D01*
X87944750Y-86200000D01*
X87964765Y-86352034D01*
X87953615Y-86412195D01*
X87952019Y-86415022D01*
X86719976Y-88516741D01*
X86674237Y-88557380D01*
X86665805Y-88559729D01*
X86522375Y-88619139D01*
X86407378Y-88707378D01*
X86319139Y-88822375D01*
X86263669Y-88956290D01*
X86244750Y-89100000D01*
X83066608Y-89100000D01*
X83115407Y-89025066D01*
X83382297Y-88626261D01*
X83384026Y-88623765D01*
X83613835Y-88302977D01*
X83898750Y-87915035D01*
X83900633Y-87912558D01*
X84143477Y-87603534D01*
X84446031Y-87227201D01*
X84448012Y-87224819D01*
X84703041Y-86928379D01*
X85023074Y-86564102D01*
X85025148Y-86561821D01*
X85291545Y-86278629D01*
X85628680Y-85927114D01*
X85631023Y-85924755D01*
X85907784Y-85655559D01*
X85965938Y-85599999D01*
X90244750Y-85599999D01*
X90263669Y-85743709D01*
X90302892Y-85838401D01*
X90319139Y-85877625D01*
X90353477Y-85922375D01*
X90407378Y-85992621D01*
X90457306Y-86030932D01*
X90522375Y-86080861D01*
X90617067Y-86120083D01*
X90656290Y-86136330D01*
X90670996Y-86138266D01*
X90800000Y-86155250D01*
X90943709Y-86136330D01*
X91077625Y-86080861D01*
X91192621Y-85992621D01*
X91280861Y-85877625D01*
X91336330Y-85743709D01*
X91349218Y-85645808D01*
X91375558Y-85590585D01*
X91383414Y-85583164D01*
X93286354Y-83972983D01*
X93342987Y-83949830D01*
X93363213Y-83950406D01*
X93400000Y-83955250D01*
X93543709Y-83936330D01*
X93677625Y-83880861D01*
X93792621Y-83792621D01*
X93880861Y-83677625D01*
X93936330Y-83543709D01*
X93955250Y-83400000D01*
X93936330Y-83256291D01*
X93880861Y-83122375D01*
X93809662Y-83029587D01*
X93792621Y-83007378D01*
X93700375Y-82936596D01*
X93677625Y-82919139D01*
X93631419Y-82900000D01*
X93543709Y-82863669D01*
X93400000Y-82844750D01*
X93256290Y-82863669D01*
X93122375Y-82919139D01*
X93007378Y-83007378D01*
X92919139Y-83122375D01*
X92863669Y-83256290D01*
X92850780Y-83354190D01*
X92824438Y-83409415D01*
X92816575Y-83416842D01*
X90913646Y-85027013D01*
X90857011Y-85050168D01*
X90836778Y-85049591D01*
X90800001Y-85044749D01*
X90656290Y-85063669D01*
X90522375Y-85119139D01*
X90407378Y-85207378D01*
X90319139Y-85322375D01*
X90263669Y-85456290D01*
X90244750Y-85599999D01*
X85965938Y-85599999D01*
X86261733Y-85317399D01*
X86264284Y-85315046D01*
X86550405Y-85060462D01*
X86921185Y-84735983D01*
X86923756Y-84733814D01*
X87217898Y-84494618D01*
X87605450Y-84184275D01*
X87608238Y-84182125D01*
X87909009Y-83958966D01*
X88313385Y-83663182D01*
X88316370Y-83661084D01*
X88621900Y-83454772D01*
X89043637Y-83173712D01*
X89046653Y-83171784D01*
X89354760Y-82983083D01*
X89794676Y-82716893D01*
X89797895Y-82715031D01*
X90105642Y-82544856D01*
X90565108Y-82293569D01*
X90568461Y-82291820D01*
X90871427Y-82141444D01*
X91353410Y-81904575D01*
X91356985Y-81902907D01*
X91648409Y-81774049D01*
X92158151Y-81550622D01*
X92161814Y-81549105D01*
X92430600Y-81444260D01*
X92977642Y-81232456D01*
X92981476Y-81231063D01*
X93202905Y-81155832D01*
X93810393Y-80950654D01*
X93814363Y-80949407D01*
X93915771Y-80919904D01*
X94650530Y-80707003D01*
X94654705Y-80705892D01*
X95488293Y-80503358D01*
X95497219Y-80502297D01*
X95499912Y-80501447D01*
X95500594Y-80500381D01*
X95500596Y-80500381D01*
X95500595Y-80500379D01*
X95501570Y-80498858D01*
X95500499Y-80489087D01*
X95500499Y-78700000D01*
X96204571Y-78700000D01*
X96224244Y-78912310D01*
X96257957Y-79030798D01*
X96282596Y-79117391D01*
X96377634Y-79308256D01*
X96506125Y-79478404D01*
X96663699Y-79622053D01*
X96720748Y-79657376D01*
X96844981Y-79734298D01*
X96985555Y-79788756D01*
X97043804Y-79811322D01*
X97253388Y-79850500D01*
X97253390Y-79850500D01*
X97466612Y-79850500D01*
X97676195Y-79811322D01*
X97679197Y-79810159D01*
X97875019Y-79734298D01*
X98056302Y-79622052D01*
X98213872Y-79478407D01*
X98342366Y-79308255D01*
X98437405Y-79117389D01*
X98495756Y-78912310D01*
X98515429Y-78700000D01*
X98495756Y-78487690D01*
X98437405Y-78282611D01*
X98342366Y-78091745D01*
X98342365Y-78091744D01*
X98342365Y-78091743D01*
X98213874Y-77921595D01*
X98056300Y-77777946D01*
X97875021Y-77665703D01*
X97875019Y-77665702D01*
X97832898Y-77649384D01*
X97676195Y-77588677D01*
X97466612Y-77549500D01*
X97466610Y-77549500D01*
X97253390Y-77549500D01*
X97253388Y-77549500D01*
X97043804Y-77588677D01*
X96844978Y-77665703D01*
X96663699Y-77777946D01*
X96506125Y-77921595D01*
X96377634Y-78091743D01*
X96282596Y-78282608D01*
X96282595Y-78282611D01*
X96224244Y-78487690D01*
X96204571Y-78700000D01*
X95500499Y-78700000D01*
X95500500Y-76899500D01*
X95519407Y-76841309D01*
X95568907Y-76805345D01*
X95599500Y-76800500D01*
X104200500Y-76800500D01*
X104258691Y-76819407D01*
G37*
%TD.AperFunction*%
%TD*%
M02*
