M48
; DRILL file {KiCad 7.0.2-6a45011f42~172~ubuntu22.04.1} date Sat 13 May 2023 10:52:24 AM MDT
; FORMAT={-:-/ absolute / metric / decimal}
; #@! TF.CreationDate,2023-05-13T10:52:24-06:00
; #@! TF.GenerationSoftware,Kicad,Pcbnew,7.0.2-6a45011f42~172~ubuntu22.04.1
; #@! TF.FileFunction,Plated,1,2,PTH
FMAT,2
METRIC
; #@! TA.AperFunction,Plated,PTH,ViaDrill
T1C0.300
; #@! TA.AperFunction,Plated,PTH,ComponentDrill
T2C1.000
%
G90
G05
T1
X81.9Y-98.8
X82.0Y-101.1
X82.4Y-104.5
X82.5Y-95.6
X82.8Y-98.9
X83.1Y-93.3
X83.2Y-106.6
X83.4Y-104.3
X84.1Y-93.7
X84.6Y-109.7
X84.8Y-90.4
X85.4Y-109.1
X85.9Y-88.4
X86.1Y-111.5
X86.8Y-89.1
X88.4Y-113.8
X88.5Y-86.2
X88.9Y-113.1
X90.3Y-84.7
X90.3Y-115.1
X90.8Y-85.6
X93.4Y-83.4
X93.4Y-116.8
X93.6Y-115.9
X95.4Y-82.3
X95.4Y-117.4
X97.9Y-81.315
X98.5Y-119.2
X98.7Y-117.5
X98.8Y-83.4
X98.8Y-118.5
X98.863Y-82.163
X101.0Y-118.0
X101.1Y-82.9
X101.2Y-81.1
X104.2Y-116.9
X104.477Y-82.637
X104.6Y-117.8
X106.3Y-84.2
X106.5Y-116.7
X106.9Y-82.5
X109.3Y-114.8
X109.5Y-84.9
X109.8Y-115.6
X111.2Y-86.5
X111.3Y-114.0
X112.1Y-85.5
X113.4Y-111.3
X113.8Y-88.6
X114.1Y-111.6
X114.7Y-90.8
X115.2Y-109.7
X116.1Y-90.0
X116.1Y-106.6
X116.6Y-93.5
X116.9Y-95.8
X117.0Y-106.6
X117.3Y-101.2
X117.3Y-104.5
X117.7Y-95.4
X117.8Y-98.9
X118.2Y-101.2
T2
X97.36Y-78.7
X97.36Y-121.4
X99.9Y-78.7
X99.9Y-121.4
X102.44Y-78.7
X102.44Y-121.4
T0
M30
