%TF.GenerationSoftware,KiCad,Pcbnew,7.0.2-6a45011f42~172~ubuntu22.04.1*%
%TF.CreationDate,2023-05-13T10:52:24-06:00*%
%TF.ProjectId,ring-40mm,72696e67-2d34-4306-9d6d-2e6b69636164,rev?*%
%TF.SameCoordinates,Original*%
%TF.FileFunction,Drillmap*%
%TF.FilePolarity,Positive*%
%FSLAX45Y45*%
G04 Gerber Fmt 4.5, Leading zero omitted, Abs format (unit mm)*
G04 Created by KiCad (PCBNEW 7.0.2-6a45011f42~172~ubuntu22.04.1) date 2023-05-13 10:52:24*
%MOMM*%
%LPD*%
G01*
G04 APERTURE LIST*
%ADD10C,0.100000*%
%ADD11C,0.200000*%
G04 APERTURE END LIST*
D10*
X9550000Y-8050000D02*
G75*
G03*
X9550000Y-11950000I428903J-1950000D01*
G01*
X10430000Y-12320000D02*
X9550000Y-12320000D01*
X10430000Y-11950000D02*
X10430000Y-12320000D01*
X10430000Y-7680000D02*
X9550000Y-7680000D01*
X10430000Y-11950000D02*
G75*
G03*
X10430000Y-8050000I-428903J1950000D01*
G01*
X9550000Y-7680000D02*
X9550000Y-8050000D01*
X10430000Y-8050000D02*
X10430000Y-7680000D01*
X9550000Y-12320000D02*
X9550000Y-11950000D01*
X11600000Y-10000000D02*
G75*
G03*
X11600000Y-10000000I-1600000J0D01*
G01*
D11*
X8224910Y-12637524D02*
X8224910Y-12437524D01*
X8224910Y-12437524D02*
X8272529Y-12437524D01*
X8272529Y-12437524D02*
X8301101Y-12447048D01*
X8301101Y-12447048D02*
X8320148Y-12466095D01*
X8320148Y-12466095D02*
X8329672Y-12485143D01*
X8329672Y-12485143D02*
X8339196Y-12523238D01*
X8339196Y-12523238D02*
X8339196Y-12551809D01*
X8339196Y-12551809D02*
X8329672Y-12589905D01*
X8329672Y-12589905D02*
X8320148Y-12608952D01*
X8320148Y-12608952D02*
X8301101Y-12628000D01*
X8301101Y-12628000D02*
X8272529Y-12637524D01*
X8272529Y-12637524D02*
X8224910Y-12637524D01*
X8424910Y-12637524D02*
X8424910Y-12504190D01*
X8424910Y-12542286D02*
X8434434Y-12523238D01*
X8434434Y-12523238D02*
X8443958Y-12513714D01*
X8443958Y-12513714D02*
X8463006Y-12504190D01*
X8463006Y-12504190D02*
X8482053Y-12504190D01*
X8548720Y-12637524D02*
X8548720Y-12504190D01*
X8548720Y-12437524D02*
X8539196Y-12447048D01*
X8539196Y-12447048D02*
X8548720Y-12456571D01*
X8548720Y-12456571D02*
X8558244Y-12447048D01*
X8558244Y-12447048D02*
X8548720Y-12437524D01*
X8548720Y-12437524D02*
X8548720Y-12456571D01*
X8672529Y-12637524D02*
X8653482Y-12628000D01*
X8653482Y-12628000D02*
X8643958Y-12608952D01*
X8643958Y-12608952D02*
X8643958Y-12437524D01*
X8777291Y-12637524D02*
X8758244Y-12628000D01*
X8758244Y-12628000D02*
X8748720Y-12608952D01*
X8748720Y-12608952D02*
X8748720Y-12437524D01*
X9005863Y-12637524D02*
X9005863Y-12437524D01*
X9005863Y-12437524D02*
X9072530Y-12580381D01*
X9072530Y-12580381D02*
X9139196Y-12437524D01*
X9139196Y-12437524D02*
X9139196Y-12637524D01*
X9320149Y-12637524D02*
X9320149Y-12532762D01*
X9320149Y-12532762D02*
X9310625Y-12513714D01*
X9310625Y-12513714D02*
X9291577Y-12504190D01*
X9291577Y-12504190D02*
X9253482Y-12504190D01*
X9253482Y-12504190D02*
X9234434Y-12513714D01*
X9320149Y-12628000D02*
X9301101Y-12637524D01*
X9301101Y-12637524D02*
X9253482Y-12637524D01*
X9253482Y-12637524D02*
X9234434Y-12628000D01*
X9234434Y-12628000D02*
X9224910Y-12608952D01*
X9224910Y-12608952D02*
X9224910Y-12589905D01*
X9224910Y-12589905D02*
X9234434Y-12570857D01*
X9234434Y-12570857D02*
X9253482Y-12561333D01*
X9253482Y-12561333D02*
X9301101Y-12561333D01*
X9301101Y-12561333D02*
X9320149Y-12551809D01*
X9415387Y-12504190D02*
X9415387Y-12704190D01*
X9415387Y-12513714D02*
X9434434Y-12504190D01*
X9434434Y-12504190D02*
X9472530Y-12504190D01*
X9472530Y-12504190D02*
X9491577Y-12513714D01*
X9491577Y-12513714D02*
X9501101Y-12523238D01*
X9501101Y-12523238D02*
X9510625Y-12542286D01*
X9510625Y-12542286D02*
X9510625Y-12599428D01*
X9510625Y-12599428D02*
X9501101Y-12618476D01*
X9501101Y-12618476D02*
X9491577Y-12628000D01*
X9491577Y-12628000D02*
X9472530Y-12637524D01*
X9472530Y-12637524D02*
X9434434Y-12637524D01*
X9434434Y-12637524D02*
X9415387Y-12628000D01*
X9596339Y-12618476D02*
X9605863Y-12628000D01*
X9605863Y-12628000D02*
X9596339Y-12637524D01*
X9596339Y-12637524D02*
X9586815Y-12628000D01*
X9586815Y-12628000D02*
X9596339Y-12618476D01*
X9596339Y-12618476D02*
X9596339Y-12637524D01*
X9596339Y-12513714D02*
X9605863Y-12523238D01*
X9605863Y-12523238D02*
X9596339Y-12532762D01*
X9596339Y-12532762D02*
X9586815Y-12523238D01*
X9586815Y-12523238D02*
X9596339Y-12513714D01*
X9596339Y-12513714D02*
X9596339Y-12532762D01*
M02*
