%TF.GenerationSoftware,KiCad,Pcbnew,7.0.2-6a45011f42~172~ubuntu22.04.1*%
%TF.CreationDate,2023-04-30T12:53:57-06:00*%
%TF.ProjectId,ring-40mm,72696e67-2d34-4306-9d6d-2e6b69636164,rev?*%
%TF.SameCoordinates,Original*%
%TF.FileFunction,Copper,L2,Bot*%
%TF.FilePolarity,Positive*%
%FSLAX46Y46*%
G04 Gerber Fmt 4.6, Leading zero omitted, Abs format (unit mm)*
G04 Created by KiCad (PCBNEW 7.0.2-6a45011f42~172~ubuntu22.04.1) date 2023-04-30 12:53:57*
%MOMM*%
%LPD*%
G01*
G04 APERTURE LIST*
%TA.AperFunction,ComponentPad*%
%ADD10R,1.700000X1.700000*%
%TD*%
%TA.AperFunction,ComponentPad*%
%ADD11O,1.700000X1.700000*%
%TD*%
%TA.AperFunction,ViaPad*%
%ADD12C,0.500000*%
%TD*%
%TA.AperFunction,Conductor*%
%ADD13C,0.127000*%
%TD*%
G04 APERTURE END LIST*
D10*
%TO.P,J2,1,Pin_1*%
%TO.N,GND*%
X102440000Y-121400000D03*
D11*
%TO.P,J2,2,Pin_2*%
%TO.N,/SIGNAL_OUT*%
X99900000Y-121400000D03*
%TO.P,J2,3,Pin_3*%
%TO.N,VCC*%
X97360000Y-121400000D03*
%TD*%
D10*
%TO.P,J1,1,Pin_1*%
%TO.N,GND*%
X102440000Y-78700000D03*
D11*
%TO.P,J1,2,Pin_2*%
%TO.N,/SIGNAL_IN*%
X99900000Y-78700000D03*
%TO.P,J1,3,Pin_3*%
%TO.N,VCC*%
X97360000Y-78700000D03*
%TD*%
D12*
%TO.N,GND*%
X85900000Y-88400000D03*
X98800000Y-118500000D03*
X81900000Y-98800000D03*
X117700000Y-95400000D03*
X116100000Y-90000000D03*
X88400000Y-113800000D03*
X109800000Y-115600000D03*
X93400000Y-116800000D03*
X118200000Y-101200000D03*
X104600000Y-117800000D03*
X114100000Y-111600000D03*
X95400000Y-82300000D03*
X117000000Y-106600000D03*
X106900000Y-82500000D03*
X101200000Y-81100000D03*
X90300000Y-84700000D03*
X112100000Y-85500000D03*
X82400000Y-104500000D03*
X84600000Y-109700000D03*
X83100000Y-93300000D03*
%TO.N,Net-(D1-DOUT)*%
X104477286Y-82636966D03*
X101100000Y-82900000D03*
%TO.N,Net-(D1-DIN)*%
X98800000Y-83400000D03*
X98862746Y-82162746D03*
%TO.N,Net-(D2-DOUT)*%
X106300000Y-84200000D03*
X109500000Y-84900000D03*
%TO.N,Net-(D3-DOUT)*%
X113800000Y-88600000D03*
X111200000Y-86500000D03*
%TO.N,Net-(D4-DOUT)*%
X116600000Y-93500000D03*
X114700000Y-90800000D03*
%TO.N,Net-(D5-DOUT)*%
X116900000Y-95800000D03*
X117800000Y-98900000D03*
%TO.N,Net-(D6-DOUT)*%
X117300000Y-101200000D03*
X117300000Y-104500000D03*
%TO.N,Net-(D7-DOUT)*%
X115200000Y-109700000D03*
X116100000Y-106600000D03*
%TO.N,Net-(D8-DOUT)*%
X113400000Y-111300000D03*
X111300000Y-114000000D03*
%TO.N,Net-(D10-DIN)*%
X109300000Y-114800000D03*
X106500000Y-116700000D03*
%TO.N,Net-(D10-DOUT)*%
X104200000Y-116900000D03*
X101000000Y-118000000D03*
%TO.N,Net-(D11-DOUT)*%
X98700000Y-117500000D03*
X95400000Y-117400000D03*
%TO.N,Net-(D12-DOUT)*%
X90300000Y-115100000D03*
X93600000Y-115900000D03*
%TO.N,Net-(D13-DOUT)*%
X86100000Y-111500000D03*
X88900000Y-113100000D03*
%TO.N,Net-(D14-DOUT)*%
X85400000Y-109100000D03*
X83200000Y-106600000D03*
%TO.N,Net-(D15-DOUT)*%
X83400000Y-104300000D03*
X82000000Y-101100000D03*
%TO.N,Net-(D16-DOUT)*%
X82800000Y-98900000D03*
X82500000Y-95600000D03*
%TO.N,Net-(D17-DOUT)*%
X84100000Y-93700000D03*
X84800000Y-90400000D03*
%TO.N,Net-(D18-DOUT)*%
X88500000Y-86200000D03*
X86800000Y-89100000D03*
%TO.N,Net-(D19-DOUT)*%
X93400000Y-83400000D03*
X90800000Y-85600000D03*
%TO.N,/SIGNAL_IN*%
X97900000Y-81315000D03*
%TO.N,/SIGNAL_OUT*%
X98500000Y-119200000D03*
%TD*%
D13*
%TO.N,Net-(D1-DIN)*%
X98831396Y-82194142D02*
G75*
G03*
X98800000Y-82269860I75704J-75758D01*
G01*
%TO.N,Net-(D1-DOUT)*%
X104028258Y-82899978D02*
G75*
G03*
X104345768Y-82768482I42J448978D01*
G01*
X104477286Y-82636966D02*
X104345769Y-82768483D01*
X104028258Y-82900000D02*
X101100000Y-82900000D01*
%TO.N,Net-(D1-DIN)*%
X98831373Y-82194119D02*
X98862746Y-82162746D01*
X98800000Y-82269860D02*
X98800000Y-83400000D01*
%TO.N,Net-(D2-DOUT)*%
X106300000Y-84200000D02*
X109500000Y-84900000D01*
%TO.N,Net-(D3-DOUT)*%
X113800000Y-88600000D02*
X111200000Y-86500000D01*
%TO.N,Net-(D4-DOUT)*%
X114700000Y-90800000D02*
X116600000Y-93500000D01*
%TO.N,Net-(D5-DOUT)*%
X116900000Y-95800000D02*
X117800000Y-98900000D01*
%TO.N,Net-(D6-DOUT)*%
X117300000Y-104500000D02*
X117300000Y-101200000D01*
%TO.N,Net-(D7-DOUT)*%
X116100000Y-106600000D02*
X115200000Y-109700000D01*
%TO.N,Net-(D8-DOUT)*%
X113400000Y-111300000D02*
X111300000Y-114000000D01*
%TO.N,Net-(D10-DIN)*%
X109300000Y-114800000D02*
X106500000Y-116700000D01*
%TO.N,Net-(D10-DOUT)*%
X101000000Y-118000000D02*
X104200000Y-116900000D01*
%TO.N,Net-(D11-DOUT)*%
X98700000Y-117500000D02*
X95400000Y-117400000D01*
%TO.N,Net-(D12-DOUT)*%
X90300000Y-115100000D02*
X93600000Y-115900000D01*
%TO.N,Net-(D13-DOUT)*%
X88900000Y-113100000D02*
X86100000Y-111500000D01*
%TO.N,Net-(D14-DOUT)*%
X85400000Y-109100000D02*
X83200000Y-106600000D01*
%TO.N,Net-(D15-DOUT)*%
X83400000Y-104300000D02*
X82000000Y-101100000D01*
%TO.N,Net-(D16-DOUT)*%
X82500000Y-95600000D02*
X82800000Y-98900000D01*
%TO.N,Net-(D17-DOUT)*%
X84800000Y-90400000D02*
X84100000Y-93700000D01*
%TO.N,Net-(D18-DOUT)*%
X88500000Y-86200000D02*
X86800000Y-89100000D01*
%TO.N,Net-(D19-DOUT)*%
X93400000Y-83400000D02*
X90800000Y-85600000D01*
%TO.N,/SIGNAL_IN*%
X97900000Y-81315000D02*
X99900000Y-78700000D01*
%TO.N,/SIGNAL_OUT*%
X98500000Y-119200000D02*
X99900000Y-121400000D01*
%TD*%
%TA.AperFunction,Conductor*%
%TO.N,GND*%
G36*
X104258691Y-76819407D02*
G01*
X104294655Y-76868907D01*
X104299500Y-76899500D01*
X104299500Y-80489198D01*
X104298447Y-80498891D01*
X104300066Y-80501414D01*
X104303241Y-80502412D01*
X104311985Y-80503426D01*
X104870696Y-80639174D01*
X105145294Y-80705892D01*
X105149472Y-80707004D01*
X105228106Y-80729788D01*
X105884104Y-80919868D01*
X105985608Y-80949399D01*
X105989633Y-80950663D01*
X106596632Y-81155676D01*
X106735054Y-81202705D01*
X106818490Y-81231052D01*
X106822388Y-81232468D01*
X107369263Y-81444208D01*
X107638168Y-81549098D01*
X107641883Y-81550637D01*
X108151321Y-81773931D01*
X108443017Y-81902908D01*
X108446587Y-81904574D01*
X108928448Y-82141383D01*
X109231457Y-82291780D01*
X109234928Y-82293590D01*
X109694357Y-82544856D01*
X109785899Y-82595476D01*
X110002081Y-82715019D01*
X110005367Y-82716920D01*
X110445226Y-82983075D01*
X110753261Y-83171732D01*
X110756410Y-83173744D01*
X110948840Y-83301986D01*
X111178060Y-83454746D01*
X111319863Y-83550500D01*
X111483083Y-83660716D01*
X111483599Y-83661064D01*
X111486643Y-83663204D01*
X111543132Y-83704523D01*
X111891008Y-83958980D01*
X111899948Y-83965613D01*
X112191709Y-84182088D01*
X112194599Y-84184316D01*
X112582023Y-84494556D01*
X112876175Y-84733759D01*
X112878911Y-84736068D01*
X113249560Y-85060432D01*
X113535686Y-85315021D01*
X113538264Y-85317397D01*
X113892186Y-85655532D01*
X113897516Y-85660716D01*
X114168935Y-85924716D01*
X114171357Y-85927155D01*
X114373833Y-86138266D01*
X114433041Y-86200000D01*
X114508345Y-86278515D01*
X114582002Y-86356815D01*
X114774768Y-86561733D01*
X114777032Y-86564224D01*
X115096885Y-86928296D01*
X115131148Y-86968122D01*
X115351957Y-87224784D01*
X115353998Y-87227238D01*
X115566121Y-87491087D01*
X115656523Y-87603534D01*
X115899327Y-87912508D01*
X115901277Y-87915075D01*
X116186119Y-88302918D01*
X116415933Y-88623711D01*
X116417729Y-88626303D01*
X116684592Y-89025066D01*
X116900726Y-89356952D01*
X116902368Y-89359561D01*
X117150933Y-89768563D01*
X117352769Y-90110814D01*
X117354258Y-90113430D01*
X117584196Y-90531938D01*
X117771188Y-90883838D01*
X117772529Y-90886455D01*
X117983563Y-91313784D01*
X118155146Y-91674469D01*
X118156341Y-91677077D01*
X118348215Y-92112542D01*
X118503932Y-92481231D01*
X118504984Y-92483823D01*
X118677423Y-92926648D01*
X118816872Y-93302563D01*
X118817785Y-93305132D01*
X118970538Y-93754535D01*
X119093347Y-94136839D01*
X119094125Y-94139378D01*
X119226972Y-94594563D01*
X119332831Y-94982455D01*
X119333479Y-94984957D01*
X119446234Y-95445163D01*
X119534857Y-95837758D01*
X119535379Y-95840216D01*
X119627871Y-96304616D01*
X119699045Y-96701129D01*
X119699447Y-96703537D01*
X119771530Y-97171276D01*
X119825073Y-97570843D01*
X119825359Y-97573196D01*
X119876817Y-98042476D01*
X119877017Y-98044487D01*
X119912695Y-98445181D01*
X119912873Y-98447478D01*
X119943786Y-98918546D01*
X119943900Y-98920635D01*
X119961759Y-99322570D01*
X119961833Y-99324801D01*
X119972141Y-99796587D01*
X119972165Y-99798750D01*
X119972165Y-100201248D01*
X119972141Y-100203411D01*
X119961833Y-100675197D01*
X119961759Y-100677428D01*
X119943900Y-101079363D01*
X119943786Y-101081452D01*
X119912873Y-101552520D01*
X119912695Y-101554817D01*
X119877017Y-101955511D01*
X119876817Y-101957522D01*
X119825359Y-102426799D01*
X119825072Y-102429157D01*
X119771530Y-102828723D01*
X119699447Y-103296460D01*
X119699046Y-103298868D01*
X119627871Y-103695383D01*
X119535378Y-104159783D01*
X119534856Y-104162241D01*
X119446234Y-104554836D01*
X119333479Y-105015042D01*
X119332831Y-105017544D01*
X119226972Y-105405436D01*
X119094125Y-105860620D01*
X119093347Y-105863159D01*
X118970538Y-106245464D01*
X118817785Y-106694866D01*
X118816872Y-106697435D01*
X118677423Y-107073351D01*
X118504984Y-107516175D01*
X118503932Y-107518767D01*
X118348215Y-107887457D01*
X118156340Y-108322922D01*
X118155146Y-108325530D01*
X117983563Y-108686215D01*
X117772529Y-109113543D01*
X117771188Y-109116160D01*
X117584197Y-109468060D01*
X117354258Y-109886567D01*
X117352769Y-109889184D01*
X117150933Y-110231436D01*
X116902367Y-110640438D01*
X116900725Y-110643046D01*
X116684592Y-110974932D01*
X116417729Y-111373696D01*
X116415933Y-111376288D01*
X116186120Y-111697081D01*
X115901277Y-112084922D01*
X115899327Y-112087489D01*
X115656523Y-112396465D01*
X115354027Y-112772724D01*
X115351920Y-112775257D01*
X115096885Y-113071703D01*
X114777033Y-113435775D01*
X114774768Y-113438266D01*
X114508373Y-113721455D01*
X114171357Y-114072843D01*
X114168935Y-114075282D01*
X113892169Y-114344484D01*
X113538265Y-114682599D01*
X113535686Y-114684977D01*
X113249560Y-114939567D01*
X112878912Y-115263931D01*
X112876176Y-115266239D01*
X112582023Y-115505443D01*
X112194600Y-115815682D01*
X112191709Y-115817911D01*
X111890957Y-116041057D01*
X111486643Y-116336794D01*
X111483599Y-116338934D01*
X111178061Y-116545253D01*
X110756433Y-116826239D01*
X110753237Y-116828281D01*
X110445146Y-117016973D01*
X110005395Y-117283061D01*
X110002052Y-117284996D01*
X109694357Y-117455144D01*
X109234927Y-117706409D01*
X109231439Y-117708227D01*
X108928471Y-117858605D01*
X108446616Y-118095409D01*
X108442986Y-118097103D01*
X108151261Y-118226094D01*
X107641908Y-118449350D01*
X107638142Y-118450910D01*
X107369226Y-118555806D01*
X106822388Y-118767530D01*
X106818490Y-118768946D01*
X106596672Y-118844309D01*
X105989632Y-119049335D01*
X105985609Y-119050599D01*
X105892709Y-119077627D01*
X105883271Y-119080372D01*
X105149461Y-119292998D01*
X105145282Y-119294110D01*
X104311592Y-119496667D01*
X104303214Y-119497673D01*
X104300006Y-119498676D01*
X104298444Y-119501118D01*
X104299500Y-119510824D01*
X104299500Y-123100500D01*
X104280593Y-123158691D01*
X104231093Y-123194655D01*
X104200500Y-123199500D01*
X95599500Y-123199500D01*
X95541309Y-123180593D01*
X95505345Y-123131093D01*
X95500500Y-123100500D01*
X95500500Y-121400000D01*
X96104722Y-121400000D01*
X96123792Y-121617973D01*
X96180426Y-121829334D01*
X96272896Y-122027636D01*
X96272897Y-122027638D01*
X96272898Y-122027639D01*
X96315021Y-122087797D01*
X96348137Y-122135092D01*
X96398402Y-122206877D01*
X96553123Y-122361598D01*
X96732361Y-122487102D01*
X96732362Y-122487102D01*
X96732363Y-122487103D01*
X96930665Y-122579573D01*
X96930666Y-122579573D01*
X96930670Y-122579575D01*
X97142023Y-122636207D01*
X97360000Y-122655277D01*
X97577977Y-122636207D01*
X97789330Y-122579575D01*
X97987639Y-122487102D01*
X98166877Y-122361598D01*
X98321598Y-122206877D01*
X98447102Y-122027639D01*
X98539575Y-121829330D01*
X98539576Y-121829325D01*
X98540275Y-121827827D01*
X98582004Y-121783079D01*
X98642065Y-121771404D01*
X98697518Y-121797262D01*
X98719725Y-121827827D01*
X98720423Y-121829325D01*
X98720425Y-121829330D01*
X98812897Y-122027636D01*
X98812899Y-122027641D01*
X98890095Y-122137888D01*
X98938402Y-122206877D01*
X99093123Y-122361598D01*
X99272361Y-122487102D01*
X99272362Y-122487102D01*
X99272363Y-122487103D01*
X99470665Y-122579573D01*
X99470666Y-122579573D01*
X99470670Y-122579575D01*
X99682023Y-122636207D01*
X99845505Y-122650509D01*
X99899999Y-122655277D01*
X99899999Y-122655276D01*
X99900000Y-122655277D01*
X100117977Y-122636207D01*
X100329330Y-122579575D01*
X100527639Y-122487102D01*
X100706877Y-122361598D01*
X100861598Y-122206877D01*
X100909905Y-122137886D01*
X100958768Y-122101066D01*
X101019944Y-122099998D01*
X101070065Y-122135092D01*
X101089985Y-122192944D01*
X101090000Y-122194672D01*
X101090000Y-122295181D01*
X101090282Y-122300457D01*
X101096401Y-122357376D01*
X101146646Y-122492089D01*
X101232811Y-122607188D01*
X101347910Y-122693353D01*
X101482623Y-122743598D01*
X101539542Y-122749717D01*
X101544819Y-122750000D01*
X102189999Y-122750000D01*
X102190000Y-122749999D01*
X102190000Y-121835501D01*
X102297685Y-121884680D01*
X102404237Y-121900000D01*
X102475763Y-121900000D01*
X102582315Y-121884680D01*
X102690000Y-121835501D01*
X102690000Y-122749998D01*
X102690001Y-122750000D01*
X103335181Y-122750000D01*
X103340457Y-122749717D01*
X103397376Y-122743598D01*
X103532089Y-122693353D01*
X103647188Y-122607188D01*
X103733353Y-122492089D01*
X103783598Y-122357376D01*
X103789717Y-122300457D01*
X103790000Y-122295181D01*
X103790000Y-121650001D01*
X103789999Y-121650000D01*
X102873686Y-121650000D01*
X102899493Y-121609844D01*
X102940000Y-121471889D01*
X102940000Y-121328111D01*
X102899493Y-121190156D01*
X102873686Y-121150000D01*
X103789999Y-121150000D01*
X103790000Y-121149999D01*
X103790000Y-120504818D01*
X103789717Y-120499542D01*
X103783598Y-120442623D01*
X103733353Y-120307910D01*
X103647188Y-120192811D01*
X103532089Y-120106646D01*
X103397376Y-120056401D01*
X103340457Y-120050282D01*
X103335181Y-120050000D01*
X102690001Y-120050000D01*
X102690000Y-120050001D01*
X102690000Y-120964498D01*
X102582315Y-120915320D01*
X102475763Y-120900000D01*
X102404237Y-120900000D01*
X102297685Y-120915320D01*
X102190000Y-120964498D01*
X102190000Y-120050001D01*
X102189999Y-120050000D01*
X101544819Y-120050000D01*
X101539542Y-120050282D01*
X101482623Y-120056401D01*
X101347910Y-120106646D01*
X101232811Y-120192811D01*
X101146646Y-120307910D01*
X101096401Y-120442623D01*
X101090282Y-120499542D01*
X101090000Y-120504818D01*
X101090000Y-120605327D01*
X101071093Y-120663518D01*
X101021593Y-120699482D01*
X100960407Y-120699482D01*
X100910907Y-120663518D01*
X100909904Y-120662111D01*
X100861600Y-120593126D01*
X100861598Y-120593123D01*
X100706877Y-120438402D01*
X100527639Y-120312898D01*
X100527638Y-120312897D01*
X100527636Y-120312896D01*
X100329334Y-120220426D01*
X100117973Y-120163792D01*
X99899999Y-120144722D01*
X99724171Y-120160104D01*
X99664554Y-120146340D01*
X99632022Y-120114632D01*
X99157434Y-119368851D01*
X99142144Y-119309607D01*
X99142678Y-119303766D01*
X99155278Y-119200000D01*
X99136237Y-119043182D01*
X99080220Y-118895477D01*
X98990483Y-118765470D01*
X98872240Y-118660717D01*
X98865286Y-118657067D01*
X98732363Y-118587302D01*
X98578987Y-118549500D01*
X98578985Y-118549500D01*
X98421015Y-118549500D01*
X98421013Y-118549500D01*
X98267636Y-118587302D01*
X98127761Y-118660716D01*
X98009517Y-118765470D01*
X97919780Y-118895476D01*
X97863762Y-119043184D01*
X97844721Y-119200000D01*
X97863762Y-119356815D01*
X97863762Y-119356817D01*
X97863763Y-119356818D01*
X97919780Y-119504523D01*
X98009517Y-119634530D01*
X98127760Y-119739283D01*
X98267635Y-119812696D01*
X98267637Y-119812697D01*
X98314831Y-119824329D01*
X98366807Y-119856612D01*
X98374662Y-119867301D01*
X98655050Y-120307910D01*
X98836551Y-120593126D01*
X98849548Y-120613549D01*
X98864838Y-120672793D01*
X98847123Y-120723483D01*
X98812896Y-120772365D01*
X98719724Y-120972172D01*
X98677996Y-121016920D01*
X98617935Y-121028595D01*
X98562482Y-121002737D01*
X98540276Y-120972172D01*
X98447103Y-120772364D01*
X98412876Y-120723483D01*
X98321598Y-120593123D01*
X98166877Y-120438402D01*
X97987639Y-120312898D01*
X97987638Y-120312897D01*
X97987636Y-120312896D01*
X97789334Y-120220426D01*
X97577973Y-120163792D01*
X97360000Y-120144722D01*
X97142026Y-120163792D01*
X96930665Y-120220426D01*
X96732364Y-120312896D01*
X96553126Y-120438399D01*
X96398399Y-120593126D01*
X96272896Y-120772364D01*
X96180426Y-120970665D01*
X96123792Y-121182026D01*
X96104722Y-121400000D01*
X95500500Y-121400000D01*
X95500499Y-119510934D01*
X95501574Y-119501150D01*
X95499972Y-119498643D01*
X95497234Y-119497784D01*
X95488674Y-119496732D01*
X94654712Y-119294109D01*
X94650532Y-119292997D01*
X93916728Y-119080372D01*
X93903026Y-119076386D01*
X93814389Y-119050599D01*
X93810366Y-119049335D01*
X93203327Y-118844309D01*
X92981508Y-118768946D01*
X92977610Y-118767530D01*
X92430773Y-118555806D01*
X92161856Y-118450910D01*
X92158090Y-118449350D01*
X91648738Y-118226094D01*
X91357012Y-118097104D01*
X91353382Y-118095410D01*
X90871528Y-117858605D01*
X90568559Y-117708227D01*
X90565070Y-117706409D01*
X90105642Y-117455144D01*
X90005919Y-117400000D01*
X94744721Y-117400000D01*
X94763762Y-117556815D01*
X94763762Y-117556817D01*
X94763763Y-117556818D01*
X94819780Y-117704523D01*
X94909517Y-117834530D01*
X95027760Y-117939283D01*
X95085238Y-117969450D01*
X95167636Y-118012697D01*
X95321013Y-118050500D01*
X95321015Y-118050500D01*
X95478987Y-118050500D01*
X95632363Y-118012697D01*
X95656555Y-118000000D01*
X95772240Y-117939283D01*
X95812468Y-117903643D01*
X95868558Y-117879208D01*
X95881107Y-117878791D01*
X98191015Y-117948788D01*
X98248605Y-117969450D01*
X98253657Y-117973634D01*
X98327760Y-118039283D01*
X98401173Y-118077814D01*
X98467636Y-118112697D01*
X98621013Y-118150500D01*
X98621015Y-118150500D01*
X98778987Y-118150500D01*
X98932363Y-118112697D01*
X98932365Y-118112696D01*
X99072240Y-118039283D01*
X99116582Y-118000000D01*
X100344721Y-118000000D01*
X100363762Y-118156815D01*
X100363762Y-118156817D01*
X100363763Y-118156818D01*
X100419780Y-118304523D01*
X100509517Y-118434530D01*
X100627760Y-118539283D01*
X100647227Y-118549500D01*
X100767636Y-118612697D01*
X100921013Y-118650500D01*
X100921015Y-118650500D01*
X101078987Y-118650500D01*
X101232363Y-118612697D01*
X101232365Y-118612696D01*
X101372240Y-118539283D01*
X101490483Y-118434530D01*
X101573782Y-118313849D01*
X101622395Y-118276702D01*
X101622831Y-118276550D01*
X103878701Y-117501094D01*
X103939878Y-117500059D01*
X103956891Y-117507057D01*
X103967637Y-117512697D01*
X104121013Y-117550500D01*
X104121015Y-117550500D01*
X104278987Y-117550500D01*
X104432363Y-117512697D01*
X104443109Y-117507057D01*
X104572240Y-117439283D01*
X104690483Y-117334530D01*
X104780220Y-117204523D01*
X104836237Y-117056818D01*
X104855278Y-116900000D01*
X104836237Y-116743182D01*
X104819860Y-116699999D01*
X105844721Y-116699999D01*
X105863762Y-116856815D01*
X105863762Y-116856817D01*
X105863763Y-116856818D01*
X105919780Y-117004523D01*
X106009517Y-117134530D01*
X106127760Y-117239283D01*
X106201173Y-117277814D01*
X106267636Y-117312697D01*
X106421013Y-117350500D01*
X106421015Y-117350500D01*
X106578987Y-117350500D01*
X106732363Y-117312697D01*
X106749753Y-117303570D01*
X106872240Y-117239283D01*
X106990483Y-117134530D01*
X107080220Y-117004523D01*
X107136237Y-116856818D01*
X107136237Y-116856816D01*
X107139346Y-116848619D01*
X107176323Y-116801806D01*
X109145446Y-115465616D01*
X109204211Y-115448588D01*
X109218086Y-115450500D01*
X109221015Y-115450500D01*
X109378987Y-115450500D01*
X109532363Y-115412697D01*
X109532365Y-115412696D01*
X109672240Y-115339283D01*
X109790483Y-115234530D01*
X109880220Y-115104523D01*
X109936237Y-114956818D01*
X109955278Y-114800000D01*
X109936237Y-114643182D01*
X109880220Y-114495477D01*
X109790483Y-114365470D01*
X109672240Y-114260717D01*
X109665287Y-114257067D01*
X109532363Y-114187302D01*
X109378987Y-114149500D01*
X109378985Y-114149500D01*
X109221015Y-114149500D01*
X109221013Y-114149500D01*
X109067636Y-114187302D01*
X108927761Y-114260716D01*
X108809517Y-114365470D01*
X108719778Y-114495480D01*
X108660654Y-114651376D01*
X108623677Y-114698190D01*
X106654554Y-116034381D01*
X106595786Y-116051410D01*
X106581918Y-116049500D01*
X106578985Y-116049500D01*
X106421015Y-116049500D01*
X106421013Y-116049500D01*
X106267636Y-116087302D01*
X106127761Y-116160716D01*
X106009517Y-116265470D01*
X105919780Y-116395476D01*
X105863762Y-116543184D01*
X105844721Y-116699999D01*
X104819860Y-116699999D01*
X104780220Y-116595477D01*
X104690483Y-116465470D01*
X104572240Y-116360717D01*
X104565286Y-116357067D01*
X104432363Y-116287302D01*
X104278987Y-116249500D01*
X104278985Y-116249500D01*
X104121015Y-116249500D01*
X104121013Y-116249500D01*
X103967636Y-116287302D01*
X103827761Y-116360716D01*
X103709515Y-116465471D01*
X103626218Y-116586148D01*
X103577601Y-116623297D01*
X103576926Y-116623532D01*
X101321297Y-117398904D01*
X101260120Y-117399940D01*
X101243109Y-117392942D01*
X101232367Y-117387304D01*
X101078987Y-117349500D01*
X101078985Y-117349500D01*
X100921015Y-117349500D01*
X100921013Y-117349500D01*
X100767636Y-117387302D01*
X100627761Y-117460716D01*
X100509517Y-117565470D01*
X100419780Y-117695476D01*
X100363762Y-117843184D01*
X100344721Y-118000000D01*
X99116582Y-118000000D01*
X99190483Y-117934530D01*
X99280220Y-117804523D01*
X99336237Y-117656818D01*
X99355278Y-117500000D01*
X99336237Y-117343182D01*
X99280220Y-117195477D01*
X99190483Y-117065470D01*
X99072240Y-116960717D01*
X99014759Y-116930548D01*
X98932363Y-116887302D01*
X98778987Y-116849500D01*
X98778985Y-116849500D01*
X98621015Y-116849500D01*
X98621013Y-116849500D01*
X98467636Y-116887302D01*
X98327761Y-116960716D01*
X98287531Y-116996356D01*
X98231436Y-117020790D01*
X98218884Y-117021207D01*
X95908984Y-116951210D01*
X95851393Y-116930548D01*
X95846334Y-116926358D01*
X95772240Y-116860717D01*
X95750868Y-116849500D01*
X95632363Y-116787302D01*
X95478987Y-116749500D01*
X95478985Y-116749500D01*
X95321015Y-116749500D01*
X95321013Y-116749500D01*
X95167636Y-116787302D01*
X95027761Y-116860716D01*
X94909517Y-116965470D01*
X94819780Y-117095476D01*
X94763762Y-117243184D01*
X94744721Y-117400000D01*
X90005919Y-117400000D01*
X89903173Y-117343184D01*
X89797946Y-117284996D01*
X89794602Y-117283061D01*
X89470269Y-117086810D01*
X89354826Y-117016956D01*
X89046761Y-116828281D01*
X89043565Y-116826239D01*
X88621939Y-116545253D01*
X88316399Y-116338934D01*
X88313355Y-116336794D01*
X87933757Y-116059135D01*
X87909024Y-116041044D01*
X87608289Y-115817910D01*
X87605399Y-115815682D01*
X87217976Y-115505443D01*
X86923823Y-115266239D01*
X86921087Y-115263931D01*
X86733763Y-115099999D01*
X89644721Y-115099999D01*
X89663762Y-115256815D01*
X89663762Y-115256817D01*
X89663763Y-115256818D01*
X89719780Y-115404523D01*
X89809517Y-115534530D01*
X89927760Y-115639283D01*
X89964769Y-115658707D01*
X90067636Y-115712697D01*
X90221013Y-115750500D01*
X90221015Y-115750500D01*
X90378987Y-115750500D01*
X90455674Y-115731598D01*
X90532365Y-115712696D01*
X90602176Y-115676054D01*
X90662488Y-115665754D01*
X90671508Y-115667502D01*
X93009820Y-116234366D01*
X93061919Y-116266451D01*
X93067967Y-116274335D01*
X93089927Y-116306149D01*
X93109518Y-116334532D01*
X93227758Y-116439282D01*
X93367636Y-116512697D01*
X93521013Y-116550500D01*
X93521015Y-116550500D01*
X93678987Y-116550500D01*
X93832363Y-116512697D01*
X93832365Y-116512696D01*
X93972240Y-116439283D01*
X94090483Y-116334530D01*
X94180220Y-116204523D01*
X94236237Y-116056818D01*
X94255278Y-115900000D01*
X94236237Y-115743182D01*
X94180220Y-115595477D01*
X94090483Y-115465470D01*
X93972240Y-115360717D01*
X93965287Y-115357067D01*
X93832363Y-115287302D01*
X93678987Y-115249500D01*
X93678985Y-115249500D01*
X93521015Y-115249500D01*
X93521013Y-115249500D01*
X93367636Y-115287302D01*
X93297823Y-115323944D01*
X93237510Y-115334245D01*
X93228491Y-115332497D01*
X90890179Y-114765633D01*
X90838080Y-114733548D01*
X90832032Y-114725664D01*
X90790483Y-114665470D01*
X90672240Y-114560717D01*
X90665287Y-114557067D01*
X90532363Y-114487302D01*
X90378987Y-114449500D01*
X90378985Y-114449500D01*
X90221015Y-114449500D01*
X90221013Y-114449500D01*
X90067636Y-114487302D01*
X89927761Y-114560716D01*
X89809517Y-114665470D01*
X89719780Y-114795476D01*
X89663762Y-114943184D01*
X89644721Y-115099999D01*
X86733763Y-115099999D01*
X86550439Y-114939567D01*
X86388498Y-114795476D01*
X86264312Y-114684977D01*
X86261732Y-114682599D01*
X86134158Y-114560716D01*
X85907803Y-114344458D01*
X85631063Y-114075282D01*
X85628641Y-114072843D01*
X85424993Y-113860510D01*
X85291590Y-113721417D01*
X85025230Y-113438265D01*
X85022966Y-113435774D01*
X84703114Y-113071703D01*
X84638105Y-112996139D01*
X84448032Y-112775203D01*
X84446011Y-112772773D01*
X84143459Y-112396443D01*
X83948819Y-112148759D01*
X83900656Y-112087470D01*
X83898720Y-112084923D01*
X83898719Y-112084922D01*
X83718316Y-111839283D01*
X83613879Y-111697081D01*
X83472691Y-111499999D01*
X85444721Y-111499999D01*
X85463762Y-111656815D01*
X85463762Y-111656817D01*
X85463763Y-111656818D01*
X85519780Y-111804523D01*
X85609517Y-111934530D01*
X85727760Y-112039283D01*
X85801174Y-112077814D01*
X85867636Y-112112697D01*
X86021013Y-112150500D01*
X86021015Y-112150500D01*
X86178985Y-112150500D01*
X86227297Y-112138592D01*
X86288321Y-112143023D01*
X86300105Y-112148758D01*
X88239706Y-113257101D01*
X88280849Y-113302388D01*
X88283154Y-113307951D01*
X88319778Y-113404519D01*
X88319780Y-113404523D01*
X88409517Y-113534530D01*
X88527760Y-113639283D01*
X88601173Y-113677814D01*
X88667636Y-113712697D01*
X88821013Y-113750500D01*
X88821015Y-113750500D01*
X88978987Y-113750500D01*
X89132363Y-113712697D01*
X89132365Y-113712696D01*
X89272240Y-113639283D01*
X89390483Y-113534530D01*
X89480220Y-113404523D01*
X89536237Y-113256818D01*
X89555278Y-113100000D01*
X89536237Y-112943182D01*
X89480220Y-112795477D01*
X89390483Y-112665470D01*
X89272240Y-112560717D01*
X89265287Y-112557067D01*
X89132363Y-112487302D01*
X88978987Y-112449500D01*
X88978985Y-112449500D01*
X88821015Y-112449500D01*
X88821014Y-112449500D01*
X88772698Y-112461407D01*
X88711673Y-112456973D01*
X88699891Y-112451239D01*
X86760292Y-111342897D01*
X86719149Y-111297610D01*
X86716843Y-111292046D01*
X86680220Y-111195478D01*
X86680220Y-111195477D01*
X86590483Y-111065470D01*
X86472240Y-110960717D01*
X86465287Y-110957067D01*
X86332363Y-110887302D01*
X86178987Y-110849500D01*
X86178985Y-110849500D01*
X86021015Y-110849500D01*
X86021013Y-110849500D01*
X85867636Y-110887302D01*
X85727761Y-110960716D01*
X85609517Y-111065470D01*
X85519780Y-111195476D01*
X85463762Y-111343184D01*
X85444721Y-111499999D01*
X83472691Y-111499999D01*
X83384065Y-111376288D01*
X83382269Y-111373695D01*
X83115407Y-110974933D01*
X82899272Y-110643046D01*
X82897630Y-110640437D01*
X82734528Y-110372060D01*
X82649051Y-110231411D01*
X82447229Y-109889184D01*
X82445739Y-109886567D01*
X82215802Y-109468060D01*
X82047873Y-109152034D01*
X82028797Y-109116134D01*
X82027483Y-109113571D01*
X81816436Y-108686215D01*
X81721810Y-108487302D01*
X81644837Y-108325497D01*
X81643683Y-108322978D01*
X81451782Y-107887453D01*
X81296066Y-107518767D01*
X81295014Y-107516175D01*
X81204642Y-107284098D01*
X81122564Y-107073319D01*
X80983107Y-106697383D01*
X80982233Y-106694924D01*
X80949968Y-106600000D01*
X82544721Y-106600000D01*
X82563762Y-106756815D01*
X82563762Y-106756817D01*
X82563763Y-106756818D01*
X82619780Y-106904523D01*
X82709517Y-107034530D01*
X82827760Y-107139283D01*
X82862294Y-107157408D01*
X82967636Y-107212697D01*
X83132686Y-107253377D01*
X83131631Y-107257656D01*
X83167797Y-107269407D01*
X83183927Y-107284098D01*
X84719928Y-109029553D01*
X84744176Y-109085728D01*
X84744055Y-109094515D01*
X84763762Y-109256815D01*
X84763762Y-109256817D01*
X84763763Y-109256818D01*
X84819780Y-109404523D01*
X84909517Y-109534530D01*
X85027760Y-109639283D01*
X85101173Y-109677814D01*
X85167636Y-109712697D01*
X85321013Y-109750500D01*
X85321015Y-109750500D01*
X85478987Y-109750500D01*
X85632363Y-109712697D01*
X85632365Y-109712696D01*
X85772240Y-109639283D01*
X85890483Y-109534530D01*
X85980220Y-109404523D01*
X86036237Y-109256818D01*
X86055278Y-109100000D01*
X86036237Y-108943182D01*
X85980220Y-108795477D01*
X85890483Y-108665470D01*
X85772240Y-108560717D01*
X85765287Y-108557067D01*
X85632363Y-108487302D01*
X85467314Y-108446623D01*
X85468368Y-108442343D01*
X85432203Y-108430593D01*
X85416073Y-108415902D01*
X83880071Y-106670446D01*
X83855823Y-106614271D01*
X83855944Y-106605486D01*
X83836237Y-106443184D01*
X83836237Y-106443182D01*
X83780220Y-106295477D01*
X83690483Y-106165470D01*
X83572240Y-106060717D01*
X83565286Y-106057067D01*
X83432363Y-105987302D01*
X83278987Y-105949500D01*
X83278985Y-105949500D01*
X83121015Y-105949500D01*
X83121013Y-105949500D01*
X82967636Y-105987302D01*
X82827761Y-106060716D01*
X82709517Y-106165470D01*
X82619780Y-106295476D01*
X82563762Y-106443184D01*
X82544721Y-106600000D01*
X80949968Y-106600000D01*
X80829461Y-106245464D01*
X80800486Y-106155266D01*
X80706640Y-105863123D01*
X80705873Y-105860620D01*
X80573027Y-105405436D01*
X80555500Y-105341214D01*
X80467143Y-105017451D01*
X80466544Y-105015137D01*
X80353761Y-104554818D01*
X80265118Y-104162134D01*
X80264637Y-104159866D01*
X80172126Y-103695374D01*
X80100953Y-103298868D01*
X80100558Y-103296506D01*
X80028465Y-102828695D01*
X79974910Y-102429038D01*
X79974650Y-102426894D01*
X79923170Y-101957420D01*
X79922991Y-101955612D01*
X79887295Y-101554726D01*
X79887132Y-101552613D01*
X79857429Y-101100000D01*
X81344721Y-101100000D01*
X81363762Y-101256815D01*
X81363762Y-101256817D01*
X81363763Y-101256818D01*
X81419780Y-101404523D01*
X81509517Y-101534530D01*
X81627760Y-101639283D01*
X81729024Y-101692431D01*
X81771761Y-101736214D01*
X81773715Y-101740409D01*
X82775971Y-104031281D01*
X82781972Y-104092171D01*
X82777838Y-104106066D01*
X82763763Y-104143180D01*
X82744721Y-104300000D01*
X82763762Y-104456815D01*
X82763762Y-104456817D01*
X82763763Y-104456818D01*
X82819780Y-104604523D01*
X82909517Y-104734530D01*
X83027760Y-104839283D01*
X83101173Y-104877814D01*
X83167636Y-104912697D01*
X83321013Y-104950500D01*
X83321015Y-104950500D01*
X83478987Y-104950500D01*
X83632363Y-104912697D01*
X83632365Y-104912696D01*
X83772240Y-104839283D01*
X83890483Y-104734530D01*
X83980220Y-104604523D01*
X84036237Y-104456818D01*
X84055278Y-104300000D01*
X84036237Y-104143182D01*
X83980220Y-103995477D01*
X83890483Y-103865470D01*
X83772240Y-103760717D01*
X83670973Y-103707567D01*
X83628236Y-103663784D01*
X83626290Y-103659607D01*
X82624026Y-101368717D01*
X82618026Y-101307828D01*
X82622155Y-101293947D01*
X82636237Y-101256818D01*
X82655278Y-101100000D01*
X82636237Y-100943182D01*
X82580220Y-100795477D01*
X82490483Y-100665470D01*
X82372240Y-100560717D01*
X82350868Y-100549500D01*
X82232363Y-100487302D01*
X82078987Y-100449500D01*
X82078985Y-100449500D01*
X81921015Y-100449500D01*
X81921013Y-100449500D01*
X81767636Y-100487302D01*
X81627761Y-100560716D01*
X81509517Y-100665470D01*
X81419780Y-100795476D01*
X81363762Y-100943184D01*
X81344721Y-101100000D01*
X79857429Y-101100000D01*
X79856207Y-101081378D01*
X79856102Y-101079444D01*
X79838235Y-100677318D01*
X79838168Y-100675309D01*
X79827859Y-100203410D01*
X79827835Y-100201248D01*
X79827835Y-100000000D01*
X83994525Y-100000000D01*
X83994556Y-100001243D01*
X84014389Y-100796563D01*
X84014390Y-100796602D01*
X84014421Y-100797807D01*
X84014511Y-100799011D01*
X84014513Y-100799046D01*
X84073967Y-101592399D01*
X84073969Y-101592425D01*
X84074060Y-101593631D01*
X84074211Y-101594839D01*
X84074212Y-101594845D01*
X84092684Y-101742252D01*
X84173293Y-102385492D01*
X84173503Y-102386686D01*
X84173504Y-102386689D01*
X84311659Y-103170208D01*
X84311664Y-103170237D01*
X84311874Y-103171423D01*
X84312145Y-103172611D01*
X84312147Y-103172620D01*
X84489121Y-103947995D01*
X84489458Y-103949469D01*
X84522890Y-104068293D01*
X84688473Y-104656815D01*
X84705603Y-104717697D01*
X84705989Y-104718846D01*
X84705998Y-104718875D01*
X84959378Y-105473022D01*
X84959389Y-105473053D01*
X84959773Y-105474195D01*
X84960219Y-105475332D01*
X84960228Y-105475356D01*
X85146317Y-105949500D01*
X85251336Y-106217083D01*
X85353356Y-106443184D01*
X85579055Y-106943386D01*
X85579064Y-106943404D01*
X85579565Y-106944515D01*
X85580122Y-106945601D01*
X85580129Y-106945616D01*
X85753659Y-107284098D01*
X85943647Y-107654682D01*
X85944251Y-107655728D01*
X85944258Y-107655741D01*
X86173453Y-108052719D01*
X86342674Y-108345818D01*
X86343333Y-108346839D01*
X86343342Y-108346853D01*
X86549127Y-108665470D01*
X86775656Y-109016205D01*
X86776360Y-109017184D01*
X86776366Y-109017193D01*
X87207459Y-109616806D01*
X87241516Y-109664176D01*
X87280210Y-109712697D01*
X87736031Y-110284280D01*
X87739095Y-110288121D01*
X87739901Y-110289035D01*
X87739910Y-110289045D01*
X88050016Y-110640437D01*
X88267157Y-110886488D01*
X88824388Y-111457789D01*
X89082284Y-111697081D01*
X89404575Y-111996124D01*
X89409404Y-112000604D01*
X89410351Y-112001399D01*
X89410356Y-112001403D01*
X89989430Y-112487304D01*
X90020750Y-112513584D01*
X90021718Y-112514317D01*
X90021729Y-112514326D01*
X90082974Y-112560717D01*
X90656905Y-112995453D01*
X91316289Y-113445014D01*
X91997263Y-113861148D01*
X92698132Y-114242821D01*
X92699248Y-114243358D01*
X92699255Y-114243362D01*
X92909238Y-114344484D01*
X93417155Y-114589084D01*
X94152543Y-114899077D01*
X94902470Y-115172027D01*
X95665070Y-115407258D01*
X96438447Y-115604184D01*
X97220678Y-115762316D01*
X98009820Y-115881260D01*
X98803909Y-115960720D01*
X99600972Y-116000500D01*
X99602195Y-116000500D01*
X100397805Y-116000500D01*
X100399028Y-116000500D01*
X101196091Y-115960720D01*
X101990180Y-115881260D01*
X102779322Y-115762316D01*
X103561553Y-115604184D01*
X104334930Y-115407258D01*
X105097530Y-115172027D01*
X105847457Y-114899077D01*
X106582845Y-114589084D01*
X107301868Y-114242821D01*
X107747762Y-114000000D01*
X110644721Y-114000000D01*
X110663762Y-114156815D01*
X110663762Y-114156817D01*
X110663763Y-114156818D01*
X110719780Y-114304523D01*
X110809517Y-114434530D01*
X110927760Y-114539283D01*
X110968597Y-114560716D01*
X111067636Y-114612697D01*
X111221013Y-114650500D01*
X111221015Y-114650500D01*
X111378987Y-114650500D01*
X111532363Y-114612697D01*
X111577353Y-114589084D01*
X111672240Y-114539283D01*
X111790483Y-114434530D01*
X111880220Y-114304523D01*
X111936237Y-114156818D01*
X111955278Y-114000000D01*
X111951087Y-113965487D01*
X111962842Y-113905444D01*
X111971215Y-113892780D01*
X113461472Y-111976736D01*
X113512121Y-111942412D01*
X113515865Y-111941409D01*
X113632365Y-111912696D01*
X113772240Y-111839283D01*
X113890483Y-111734530D01*
X113980220Y-111604523D01*
X114036237Y-111456818D01*
X114055278Y-111300000D01*
X114036237Y-111143182D01*
X113980220Y-110995477D01*
X113890483Y-110865470D01*
X113772240Y-110760717D01*
X113731358Y-110739260D01*
X113632363Y-110687302D01*
X113478987Y-110649500D01*
X113478985Y-110649500D01*
X113321015Y-110649500D01*
X113321013Y-110649500D01*
X113167636Y-110687302D01*
X113027761Y-110760716D01*
X112909517Y-110865470D01*
X112819780Y-110995476D01*
X112763762Y-111143184D01*
X112744721Y-111300000D01*
X112748912Y-111334510D01*
X112737157Y-111394556D01*
X112728780Y-111407223D01*
X111238527Y-113323261D01*
X111187877Y-113357586D01*
X111184074Y-113358604D01*
X111067635Y-113387304D01*
X110927761Y-113460716D01*
X110809517Y-113565470D01*
X110719780Y-113695476D01*
X110663762Y-113843184D01*
X110644721Y-114000000D01*
X107747762Y-114000000D01*
X108002737Y-113861148D01*
X108683711Y-113445014D01*
X109343095Y-112995453D01*
X109979250Y-112513584D01*
X110590596Y-112000604D01*
X111175612Y-111457789D01*
X111732843Y-110886488D01*
X112260905Y-110288121D01*
X112729915Y-109700000D01*
X114544721Y-109700000D01*
X114563762Y-109856815D01*
X114563762Y-109856817D01*
X114563763Y-109856818D01*
X114619780Y-110004523D01*
X114709517Y-110134530D01*
X114827760Y-110239283D01*
X114901174Y-110277814D01*
X114967636Y-110312697D01*
X115121013Y-110350500D01*
X115121015Y-110350500D01*
X115278987Y-110350500D01*
X115432363Y-110312697D01*
X115432365Y-110312696D01*
X115572240Y-110239283D01*
X115690483Y-110134530D01*
X115780220Y-110004523D01*
X115836237Y-109856818D01*
X115855278Y-109700000D01*
X115836237Y-109543182D01*
X115787050Y-109413488D01*
X115784095Y-109352377D01*
X115784544Y-109350783D01*
X116406636Y-107208017D01*
X116441016Y-107157408D01*
X116455691Y-107147968D01*
X116472240Y-107139283D01*
X116590483Y-107034530D01*
X116680220Y-106904523D01*
X116736237Y-106756818D01*
X116755278Y-106600000D01*
X116736237Y-106443182D01*
X116680220Y-106295477D01*
X116590483Y-106165470D01*
X116472240Y-106060717D01*
X116465286Y-106057067D01*
X116332363Y-105987302D01*
X116178987Y-105949500D01*
X116178985Y-105949500D01*
X116021015Y-105949500D01*
X116021013Y-105949500D01*
X115867636Y-105987302D01*
X115727761Y-106060716D01*
X115609517Y-106165470D01*
X115519780Y-106295476D01*
X115463762Y-106443184D01*
X115444721Y-106600000D01*
X115463762Y-106756817D01*
X115512947Y-106886508D01*
X115515902Y-106947622D01*
X115515454Y-106949215D01*
X114893363Y-109091978D01*
X114858982Y-109142590D01*
X114844300Y-109152034D01*
X114827762Y-109160714D01*
X114709517Y-109265470D01*
X114619780Y-109395476D01*
X114563762Y-109543184D01*
X114544721Y-109700000D01*
X112729915Y-109700000D01*
X112758484Y-109664176D01*
X113224344Y-109016205D01*
X113657326Y-108345818D01*
X114056353Y-107654682D01*
X114420435Y-106944515D01*
X114748664Y-106217083D01*
X115040227Y-105474195D01*
X115294397Y-104717697D01*
X115355647Y-104500000D01*
X116644721Y-104500000D01*
X116663762Y-104656815D01*
X116663762Y-104656817D01*
X116663763Y-104656818D01*
X116719780Y-104804523D01*
X116809517Y-104934530D01*
X116927760Y-105039283D01*
X117001173Y-105077814D01*
X117067636Y-105112697D01*
X117221013Y-105150500D01*
X117221015Y-105150500D01*
X117378987Y-105150500D01*
X117532363Y-105112697D01*
X117532365Y-105112696D01*
X117672240Y-105039283D01*
X117790483Y-104934530D01*
X117880220Y-104804523D01*
X117936237Y-104656818D01*
X117955278Y-104500000D01*
X117936237Y-104343182D01*
X117880220Y-104195477D01*
X117790483Y-104065470D01*
X117790482Y-104065469D01*
X117783654Y-104055577D01*
X117786712Y-104053466D01*
X117766332Y-104018815D01*
X117764000Y-103997452D01*
X117764000Y-101702548D01*
X117782907Y-101644357D01*
X117786217Y-101640709D01*
X117790480Y-101634532D01*
X117790483Y-101634530D01*
X117880220Y-101504523D01*
X117936237Y-101356818D01*
X117955278Y-101200000D01*
X117936237Y-101043182D01*
X117880220Y-100895477D01*
X117790483Y-100765470D01*
X117672240Y-100660717D01*
X117665287Y-100657067D01*
X117532363Y-100587302D01*
X117378987Y-100549500D01*
X117378985Y-100549500D01*
X117221015Y-100549500D01*
X117221013Y-100549500D01*
X117067636Y-100587302D01*
X116927761Y-100660716D01*
X116809517Y-100765470D01*
X116719780Y-100895476D01*
X116663762Y-101043184D01*
X116644721Y-101200000D01*
X116663762Y-101356815D01*
X116719781Y-101504526D01*
X116816346Y-101644424D01*
X116813288Y-101646534D01*
X116833667Y-101681182D01*
X116836000Y-101702548D01*
X116836000Y-103997452D01*
X116817093Y-104055643D01*
X116813785Y-104059286D01*
X116719780Y-104195476D01*
X116663762Y-104343184D01*
X116644721Y-104500000D01*
X115355647Y-104500000D01*
X115510542Y-103949469D01*
X115688126Y-103171423D01*
X115826707Y-102385492D01*
X115925940Y-101593631D01*
X115985579Y-100797807D01*
X116005475Y-100000000D01*
X115985579Y-99202193D01*
X115925940Y-98406369D01*
X115826707Y-97614508D01*
X115688126Y-96828577D01*
X115510542Y-96050531D01*
X115440054Y-95800000D01*
X116244721Y-95800000D01*
X116263762Y-95956815D01*
X116263762Y-95956817D01*
X116263763Y-95956818D01*
X116319780Y-96104523D01*
X116409517Y-96234530D01*
X116527760Y-96339283D01*
X116544295Y-96347961D01*
X116587033Y-96391743D01*
X116593362Y-96408019D01*
X117215455Y-98550784D01*
X117213522Y-98611939D01*
X117212948Y-98613491D01*
X117163762Y-98743183D01*
X117144721Y-98900000D01*
X117163762Y-99056815D01*
X117163762Y-99056817D01*
X117163763Y-99056818D01*
X117219780Y-99204523D01*
X117309517Y-99334530D01*
X117427760Y-99439283D01*
X117501173Y-99477814D01*
X117567636Y-99512697D01*
X117721013Y-99550500D01*
X117721015Y-99550500D01*
X117878987Y-99550500D01*
X118032363Y-99512697D01*
X118032365Y-99512696D01*
X118172240Y-99439283D01*
X118290483Y-99334530D01*
X118380220Y-99204523D01*
X118436237Y-99056818D01*
X118455278Y-98900000D01*
X118436237Y-98743182D01*
X118380220Y-98595477D01*
X118290483Y-98465470D01*
X118220798Y-98403735D01*
X118172239Y-98360715D01*
X118155700Y-98352035D01*
X118112963Y-98308250D01*
X118106636Y-98291978D01*
X118096698Y-98257748D01*
X117484544Y-96149215D01*
X117486477Y-96088061D01*
X117487005Y-96086629D01*
X117536237Y-95956818D01*
X117555278Y-95800000D01*
X117536237Y-95643182D01*
X117480220Y-95495477D01*
X117390483Y-95365470D01*
X117272240Y-95260717D01*
X117265286Y-95257067D01*
X117132363Y-95187302D01*
X116978987Y-95149500D01*
X116978985Y-95149500D01*
X116821015Y-95149500D01*
X116821013Y-95149500D01*
X116667636Y-95187302D01*
X116527761Y-95260716D01*
X116409517Y-95365470D01*
X116319780Y-95495476D01*
X116263762Y-95643184D01*
X116244721Y-95800000D01*
X115440054Y-95800000D01*
X115294397Y-95282303D01*
X115294001Y-95281124D01*
X115040621Y-94526977D01*
X115040618Y-94526968D01*
X115040227Y-94525805D01*
X114748664Y-93782917D01*
X114420435Y-93055485D01*
X114056353Y-92345318D01*
X113657326Y-91654182D01*
X113224344Y-90983795D01*
X113092204Y-90800000D01*
X114044721Y-90800000D01*
X114063762Y-90956815D01*
X114063762Y-90956817D01*
X114063763Y-90956818D01*
X114119780Y-91104523D01*
X114209517Y-91234530D01*
X114327760Y-91339283D01*
X114467635Y-91412696D01*
X114548003Y-91432504D01*
X114599976Y-91464786D01*
X114605273Y-91471653D01*
X115935754Y-93362337D01*
X115953780Y-93420807D01*
X115953069Y-93431242D01*
X115944721Y-93499998D01*
X115963762Y-93656815D01*
X115963762Y-93656817D01*
X115963763Y-93656818D01*
X116019780Y-93804523D01*
X116109517Y-93934530D01*
X116227760Y-94039283D01*
X116301173Y-94077814D01*
X116367636Y-94112697D01*
X116521013Y-94150500D01*
X116521015Y-94150500D01*
X116678987Y-94150500D01*
X116832363Y-94112697D01*
X116832365Y-94112696D01*
X116972240Y-94039283D01*
X117090483Y-93934530D01*
X117180220Y-93804523D01*
X117236237Y-93656818D01*
X117255278Y-93500000D01*
X117236237Y-93343182D01*
X117180220Y-93195477D01*
X117090483Y-93065470D01*
X116972240Y-92960717D01*
X116832365Y-92887304D01*
X116832364Y-92887303D01*
X116832363Y-92887303D01*
X116751997Y-92867495D01*
X116700022Y-92835211D01*
X116694733Y-92828355D01*
X115364243Y-90937660D01*
X115346218Y-90879191D01*
X115346927Y-90868768D01*
X115355278Y-90800000D01*
X115336237Y-90643182D01*
X115280220Y-90495477D01*
X115190483Y-90365470D01*
X115072240Y-90260717D01*
X115038834Y-90243184D01*
X114932363Y-90187302D01*
X114778987Y-90149500D01*
X114778985Y-90149500D01*
X114621015Y-90149500D01*
X114621013Y-90149500D01*
X114467636Y-90187302D01*
X114327761Y-90260716D01*
X114209517Y-90365470D01*
X114119780Y-90495476D01*
X114063762Y-90643184D01*
X114044721Y-90800000D01*
X113092204Y-90800000D01*
X112758484Y-90335824D01*
X112379599Y-89860717D01*
X112261678Y-89712848D01*
X112261672Y-89712841D01*
X112260905Y-89711879D01*
X112186828Y-89627940D01*
X111989662Y-89404523D01*
X111732843Y-89113512D01*
X111175612Y-88542211D01*
X110769581Y-88165470D01*
X110591506Y-88000240D01*
X110591498Y-88000233D01*
X110590596Y-87999396D01*
X110589643Y-87998596D01*
X109980198Y-87487211D01*
X109980186Y-87487202D01*
X109979250Y-87486416D01*
X109978286Y-87485686D01*
X109978270Y-87485673D01*
X109344072Y-87005287D01*
X109344070Y-87005286D01*
X109343095Y-87004547D01*
X108683711Y-86554986D01*
X108682689Y-86554361D01*
X108682679Y-86554355D01*
X108593731Y-86500000D01*
X110544721Y-86500000D01*
X110563762Y-86656815D01*
X110563762Y-86656817D01*
X110563763Y-86656818D01*
X110619780Y-86804523D01*
X110709517Y-86934530D01*
X110827760Y-87039283D01*
X110901174Y-87077814D01*
X110967636Y-87112697D01*
X111121013Y-87150500D01*
X111121015Y-87150500D01*
X111231937Y-87150500D01*
X111290128Y-87169407D01*
X111294142Y-87172484D01*
X111681900Y-87485673D01*
X113122532Y-88649261D01*
X113155921Y-88700532D01*
X113158605Y-88714342D01*
X113163762Y-88756815D01*
X113163762Y-88756817D01*
X113163763Y-88756818D01*
X113219780Y-88904523D01*
X113309517Y-89034530D01*
X113427760Y-89139283D01*
X113501174Y-89177814D01*
X113567636Y-89212697D01*
X113721013Y-89250500D01*
X113721015Y-89250500D01*
X113878987Y-89250500D01*
X114032363Y-89212697D01*
X114032365Y-89212696D01*
X114172240Y-89139283D01*
X114290483Y-89034530D01*
X114380220Y-88904523D01*
X114436237Y-88756818D01*
X114455278Y-88600000D01*
X114436237Y-88443182D01*
X114380220Y-88295477D01*
X114290483Y-88165470D01*
X114172240Y-88060717D01*
X114165287Y-88057067D01*
X114032363Y-87987302D01*
X113878987Y-87949500D01*
X113878985Y-87949500D01*
X113768063Y-87949500D01*
X113709872Y-87930593D01*
X113705858Y-87927516D01*
X112606141Y-87039283D01*
X111877465Y-86450737D01*
X111844077Y-86399466D01*
X111841394Y-86385661D01*
X111836237Y-86343182D01*
X111780220Y-86195477D01*
X111690483Y-86065470D01*
X111572240Y-85960717D01*
X111565286Y-85957067D01*
X111432363Y-85887302D01*
X111278987Y-85849500D01*
X111278985Y-85849500D01*
X111121015Y-85849500D01*
X111121013Y-85849500D01*
X110967636Y-85887302D01*
X110827761Y-85960716D01*
X110709517Y-86065470D01*
X110619780Y-86195476D01*
X110563762Y-86343184D01*
X110544721Y-86500000D01*
X108593731Y-86500000D01*
X108102802Y-86200000D01*
X108002738Y-86138852D01*
X107301868Y-85757179D01*
X107300766Y-85756648D01*
X107300744Y-85756637D01*
X106583952Y-85411449D01*
X106583948Y-85411447D01*
X106582845Y-85410916D01*
X106552432Y-85398096D01*
X105848578Y-85101395D01*
X105848559Y-85101387D01*
X105847457Y-85100923D01*
X105846332Y-85100513D01*
X105846323Y-85100510D01*
X105295423Y-84900000D01*
X105097530Y-84827973D01*
X105096400Y-84827624D01*
X105096372Y-84827615D01*
X104336101Y-84593103D01*
X104336093Y-84593100D01*
X104334930Y-84592742D01*
X104333750Y-84592441D01*
X104333741Y-84592439D01*
X103562733Y-84396116D01*
X103562715Y-84396111D01*
X103561553Y-84395816D01*
X103560368Y-84395576D01*
X103560353Y-84395573D01*
X102780531Y-84237928D01*
X102780515Y-84237925D01*
X102779322Y-84237684D01*
X102778095Y-84237499D01*
X102529306Y-84200000D01*
X105644721Y-84200000D01*
X105663762Y-84356815D01*
X105663762Y-84356817D01*
X105663763Y-84356818D01*
X105719780Y-84504523D01*
X105809517Y-84634530D01*
X105927760Y-84739283D01*
X106001173Y-84777814D01*
X106067636Y-84812697D01*
X106221013Y-84850500D01*
X106221015Y-84850500D01*
X106378987Y-84850500D01*
X106422453Y-84839786D01*
X106532365Y-84812696D01*
X106617290Y-84768122D01*
X106677600Y-84757821D01*
X106684431Y-84759065D01*
X108917026Y-85247446D01*
X108969831Y-85278351D01*
X108977340Y-85287914D01*
X108982560Y-85295476D01*
X109009518Y-85334532D01*
X109127758Y-85439282D01*
X109267636Y-85512697D01*
X109421013Y-85550500D01*
X109421015Y-85550500D01*
X109578987Y-85550500D01*
X109732363Y-85512697D01*
X109732365Y-85512696D01*
X109872240Y-85439283D01*
X109990483Y-85334530D01*
X110080220Y-85204523D01*
X110136237Y-85056818D01*
X110155278Y-84900000D01*
X110136237Y-84743182D01*
X110080220Y-84595477D01*
X109990483Y-84465470D01*
X109872240Y-84360717D01*
X109849222Y-84348636D01*
X109732363Y-84287302D01*
X109578987Y-84249500D01*
X109578985Y-84249500D01*
X109421015Y-84249500D01*
X109421013Y-84249500D01*
X109267635Y-84287303D01*
X109182709Y-84331876D01*
X109122397Y-84342177D01*
X109115545Y-84340929D01*
X106882974Y-83852553D01*
X106830168Y-83821647D01*
X106822655Y-83812079D01*
X106812763Y-83797748D01*
X106790483Y-83765470D01*
X106672240Y-83660717D01*
X106665287Y-83657067D01*
X106532363Y-83587302D01*
X106378987Y-83549500D01*
X106378985Y-83549500D01*
X106221015Y-83549500D01*
X106221013Y-83549500D01*
X106067636Y-83587302D01*
X105927761Y-83660716D01*
X105809517Y-83765470D01*
X105719780Y-83895476D01*
X105663762Y-84043184D01*
X105644721Y-84200000D01*
X102529306Y-84200000D01*
X101991402Y-84118924D01*
X101991394Y-84118923D01*
X101990180Y-84118740D01*
X101988966Y-84118618D01*
X101988954Y-84118617D01*
X101197321Y-84039403D01*
X101197317Y-84039402D01*
X101196091Y-84039280D01*
X101194879Y-84039219D01*
X101194859Y-84039218D01*
X100400248Y-83999560D01*
X100400212Y-83999559D01*
X100399028Y-83999500D01*
X99600972Y-83999500D01*
X99599789Y-83999558D01*
X99599749Y-83999560D01*
X99356325Y-84011709D01*
X99297265Y-83995726D01*
X99258878Y-83948080D01*
X99255829Y-83886970D01*
X99285744Y-83838728D01*
X99290483Y-83834530D01*
X99380220Y-83704523D01*
X99436237Y-83556818D01*
X99455278Y-83400000D01*
X99436237Y-83243182D01*
X99380220Y-83095477D01*
X99290483Y-82965470D01*
X99290482Y-82965469D01*
X99283654Y-82955577D01*
X99286712Y-82953466D01*
X99266332Y-82918815D01*
X99264278Y-82900000D01*
X100444721Y-82900000D01*
X100463762Y-83056815D01*
X100463762Y-83056817D01*
X100463763Y-83056818D01*
X100519780Y-83204523D01*
X100609517Y-83334530D01*
X100727760Y-83439283D01*
X100801173Y-83477814D01*
X100867636Y-83512697D01*
X101021013Y-83550500D01*
X101021015Y-83550500D01*
X101178987Y-83550500D01*
X101332363Y-83512697D01*
X101332365Y-83512696D01*
X101472240Y-83439283D01*
X101477538Y-83434589D01*
X101529116Y-83388897D01*
X101585210Y-83364462D01*
X101594764Y-83364000D01*
X104070729Y-83364000D01*
X104070960Y-83363980D01*
X104100074Y-83363984D01*
X104242025Y-83341513D01*
X104378713Y-83297110D01*
X104378714Y-83297109D01*
X104386125Y-83294702D01*
X104386497Y-83295847D01*
X104421409Y-83287466D01*
X104556273Y-83287466D01*
X104709649Y-83249663D01*
X104709651Y-83249662D01*
X104849526Y-83176249D01*
X104967769Y-83071496D01*
X105057506Y-82941489D01*
X105113523Y-82793784D01*
X105132564Y-82636966D01*
X105113523Y-82480148D01*
X105057506Y-82332443D01*
X104967769Y-82202436D01*
X104849526Y-82097683D01*
X104842572Y-82094033D01*
X104709649Y-82024268D01*
X104556273Y-81986466D01*
X104556271Y-81986466D01*
X104398301Y-81986466D01*
X104398299Y-81986466D01*
X104244922Y-82024268D01*
X104105047Y-82097682D01*
X104031605Y-82162745D01*
X103986803Y-82202436D01*
X103928225Y-82287302D01*
X103897065Y-82332445D01*
X103882023Y-82372107D01*
X103843710Y-82419811D01*
X103789457Y-82436000D01*
X101594764Y-82436000D01*
X101536573Y-82417093D01*
X101529116Y-82411103D01*
X101472241Y-82360717D01*
X101332363Y-82287302D01*
X101178987Y-82249500D01*
X101178985Y-82249500D01*
X101021015Y-82249500D01*
X101021013Y-82249500D01*
X100867636Y-82287302D01*
X100727761Y-82360716D01*
X100609517Y-82465470D01*
X100519780Y-82595476D01*
X100463762Y-82743184D01*
X100444721Y-82900000D01*
X99264278Y-82900000D01*
X99264000Y-82897452D01*
X99264000Y-82720882D01*
X99282907Y-82662691D01*
X99297352Y-82646779D01*
X99353227Y-82597278D01*
X99353227Y-82597277D01*
X99353229Y-82597276D01*
X99442966Y-82467269D01*
X99498983Y-82319564D01*
X99518024Y-82162746D01*
X99498983Y-82005928D01*
X99442966Y-81858223D01*
X99353229Y-81728216D01*
X99234986Y-81623463D01*
X99227479Y-81619523D01*
X99095109Y-81550048D01*
X98941733Y-81512246D01*
X98941731Y-81512246D01*
X98783761Y-81512246D01*
X98783758Y-81512246D01*
X98662797Y-81542059D01*
X98601773Y-81537627D01*
X98555008Y-81498172D01*
X98540366Y-81438764D01*
X98540825Y-81434024D01*
X98555278Y-81315000D01*
X98550394Y-81274780D01*
X98562149Y-81214737D01*
X98570027Y-81202716D01*
X99522803Y-79956961D01*
X99573170Y-79922227D01*
X99627057Y-79921479D01*
X99682023Y-79936207D01*
X99856404Y-79951463D01*
X99899999Y-79955277D01*
X99899999Y-79955276D01*
X99900000Y-79955277D01*
X100117977Y-79936207D01*
X100329330Y-79879575D01*
X100527639Y-79787102D01*
X100706877Y-79661598D01*
X100861598Y-79506877D01*
X100909905Y-79437886D01*
X100958768Y-79401066D01*
X101019944Y-79399998D01*
X101070065Y-79435092D01*
X101089985Y-79492944D01*
X101090000Y-79494672D01*
X101090000Y-79595181D01*
X101090282Y-79600457D01*
X101096401Y-79657376D01*
X101146646Y-79792089D01*
X101232811Y-79907188D01*
X101347910Y-79993353D01*
X101482623Y-80043598D01*
X101539542Y-80049717D01*
X101544819Y-80050000D01*
X102189999Y-80050000D01*
X102190000Y-80049999D01*
X102190000Y-79135501D01*
X102297685Y-79184680D01*
X102404237Y-79200000D01*
X102475763Y-79200000D01*
X102582315Y-79184680D01*
X102690000Y-79135501D01*
X102690000Y-80049998D01*
X102690001Y-80050000D01*
X103335181Y-80050000D01*
X103340457Y-80049717D01*
X103397376Y-80043598D01*
X103532089Y-79993353D01*
X103647188Y-79907188D01*
X103733353Y-79792089D01*
X103783598Y-79657376D01*
X103789717Y-79600457D01*
X103790000Y-79595181D01*
X103790000Y-78950001D01*
X103789999Y-78950000D01*
X102873686Y-78950000D01*
X102899493Y-78909844D01*
X102940000Y-78771889D01*
X102940000Y-78628111D01*
X102899493Y-78490156D01*
X102873686Y-78450000D01*
X103789999Y-78450000D01*
X103790000Y-78449999D01*
X103790000Y-77804818D01*
X103789717Y-77799542D01*
X103783598Y-77742623D01*
X103733353Y-77607910D01*
X103647188Y-77492811D01*
X103532089Y-77406646D01*
X103397376Y-77356401D01*
X103340457Y-77350282D01*
X103335181Y-77350000D01*
X102690001Y-77350000D01*
X102690000Y-77350001D01*
X102690000Y-78264498D01*
X102582315Y-78215320D01*
X102475763Y-78200000D01*
X102404237Y-78200000D01*
X102297685Y-78215320D01*
X102190000Y-78264498D01*
X102190000Y-77350001D01*
X102189999Y-77350000D01*
X101544819Y-77350000D01*
X101539542Y-77350282D01*
X101482623Y-77356401D01*
X101347910Y-77406646D01*
X101232811Y-77492811D01*
X101146646Y-77607910D01*
X101096401Y-77742623D01*
X101090282Y-77799542D01*
X101090000Y-77804818D01*
X101090000Y-77905327D01*
X101071093Y-77963518D01*
X101021593Y-77999482D01*
X100960407Y-77999482D01*
X100910907Y-77963518D01*
X100909904Y-77962111D01*
X100861600Y-77893126D01*
X100861598Y-77893123D01*
X100706877Y-77738402D01*
X100527639Y-77612898D01*
X100527638Y-77612897D01*
X100527636Y-77612896D01*
X100329334Y-77520426D01*
X100117973Y-77463792D01*
X99900000Y-77444722D01*
X99682026Y-77463792D01*
X99470665Y-77520426D01*
X99272364Y-77612896D01*
X99093126Y-77738399D01*
X98938399Y-77893126D01*
X98812896Y-78072364D01*
X98719724Y-78272172D01*
X98677996Y-78316920D01*
X98617935Y-78328595D01*
X98562482Y-78302737D01*
X98540276Y-78272172D01*
X98447103Y-78072364D01*
X98321600Y-77893126D01*
X98321598Y-77893123D01*
X98166877Y-77738402D01*
X97987639Y-77612898D01*
X97987638Y-77612897D01*
X97987636Y-77612896D01*
X97789334Y-77520426D01*
X97577973Y-77463792D01*
X97360000Y-77444722D01*
X97142026Y-77463792D01*
X96930665Y-77520426D01*
X96732364Y-77612896D01*
X96553126Y-77738399D01*
X96398399Y-77893126D01*
X96272896Y-78072364D01*
X96180426Y-78270665D01*
X96123792Y-78482026D01*
X96104722Y-78700000D01*
X96123792Y-78917973D01*
X96180426Y-79129334D01*
X96272896Y-79327636D01*
X96272897Y-79327638D01*
X96272898Y-79327639D01*
X96283853Y-79343284D01*
X96348137Y-79435092D01*
X96398402Y-79506877D01*
X96553123Y-79661598D01*
X96732361Y-79787102D01*
X96732362Y-79787102D01*
X96732363Y-79787103D01*
X96930665Y-79879573D01*
X96930666Y-79879573D01*
X96930670Y-79879575D01*
X97142023Y-79936207D01*
X97360000Y-79955277D01*
X97577977Y-79936207D01*
X97789330Y-79879575D01*
X97987639Y-79787102D01*
X98166877Y-79661598D01*
X98321598Y-79506877D01*
X98447102Y-79327639D01*
X98539575Y-79129330D01*
X98539577Y-79129320D01*
X98540274Y-79127827D01*
X98582002Y-79083079D01*
X98642064Y-79071404D01*
X98697516Y-79097262D01*
X98719724Y-79127827D01*
X98796236Y-79291908D01*
X98803692Y-79352637D01*
X98785148Y-79393890D01*
X97832731Y-80639174D01*
X97782362Y-80673910D01*
X97777786Y-80675154D01*
X97667636Y-80702303D01*
X97527761Y-80775716D01*
X97409517Y-80880470D01*
X97319780Y-81010476D01*
X97263762Y-81158184D01*
X97244721Y-81315000D01*
X97263762Y-81471815D01*
X97263762Y-81471817D01*
X97263763Y-81471818D01*
X97319780Y-81619523D01*
X97409517Y-81749530D01*
X97527760Y-81854283D01*
X97601173Y-81892814D01*
X97667636Y-81927697D01*
X97821013Y-81965500D01*
X97821015Y-81965500D01*
X97978986Y-81965500D01*
X98081966Y-81940118D01*
X98099947Y-81935686D01*
X98160971Y-81940118D01*
X98207736Y-81979573D01*
X98222379Y-82038980D01*
X98221917Y-82043742D01*
X98207467Y-82162745D01*
X98226508Y-82319561D01*
X98282526Y-82467270D01*
X98291417Y-82480150D01*
X98318475Y-82519350D01*
X98336000Y-82575588D01*
X98336000Y-82897452D01*
X98317093Y-82955643D01*
X98313785Y-82959286D01*
X98219780Y-83095476D01*
X98163762Y-83243184D01*
X98144721Y-83400000D01*
X98163762Y-83556815D01*
X98219780Y-83704523D01*
X98300624Y-83821647D01*
X98309517Y-83834530D01*
X98397951Y-83912874D01*
X98428969Y-83965613D01*
X98423064Y-84026512D01*
X98382491Y-84072311D01*
X98342158Y-84085484D01*
X98011045Y-84118617D01*
X98011028Y-84118619D01*
X98009820Y-84118740D01*
X98008610Y-84118922D01*
X98008597Y-84118924D01*
X97221904Y-84237499D01*
X97221895Y-84237500D01*
X97220678Y-84237684D01*
X97219491Y-84237923D01*
X97219468Y-84237928D01*
X96439646Y-84395573D01*
X96439622Y-84395578D01*
X96438447Y-84395816D01*
X96437293Y-84396109D01*
X96437266Y-84396116D01*
X95666258Y-84592439D01*
X95666239Y-84592444D01*
X95665070Y-84592742D01*
X95663916Y-84593097D01*
X95663898Y-84593103D01*
X94903627Y-84827615D01*
X94903587Y-84827628D01*
X94902470Y-84827973D01*
X94901339Y-84828384D01*
X94901332Y-84828387D01*
X94153676Y-85100510D01*
X94153654Y-85100518D01*
X94152543Y-85100923D01*
X94151454Y-85101381D01*
X94151421Y-85101395D01*
X93418288Y-85410438D01*
X93418274Y-85410444D01*
X93417155Y-85410916D01*
X93416066Y-85411440D01*
X93416047Y-85411449D01*
X92699255Y-85756637D01*
X92699217Y-85756656D01*
X92698132Y-85757179D01*
X92697045Y-85757770D01*
X92697039Y-85757774D01*
X91998337Y-86138266D01*
X91998319Y-86138276D01*
X91997262Y-86138852D01*
X91996229Y-86139482D01*
X91996219Y-86139489D01*
X91317320Y-86554355D01*
X91317292Y-86554372D01*
X91316289Y-86554986D01*
X91315314Y-86555650D01*
X91315295Y-86555663D01*
X90657912Y-87003860D01*
X90657900Y-87003868D01*
X90656905Y-87004547D01*
X90655947Y-87005271D01*
X90655927Y-87005287D01*
X90021729Y-87485673D01*
X90021693Y-87485701D01*
X90020750Y-87486416D01*
X90019832Y-87487185D01*
X90019801Y-87487211D01*
X89410356Y-87998596D01*
X89410328Y-87998619D01*
X89409404Y-87999396D01*
X89408521Y-88000215D01*
X89408493Y-88000240D01*
X88825292Y-88541372D01*
X88824388Y-88542211D01*
X88823541Y-88543079D01*
X88823526Y-88543094D01*
X88268018Y-89112628D01*
X88267994Y-89112653D01*
X88267157Y-89113512D01*
X88266354Y-89114421D01*
X88266340Y-89114437D01*
X87739910Y-89710954D01*
X87739884Y-89710984D01*
X87739095Y-89711879D01*
X87738346Y-89712817D01*
X87738321Y-89712848D01*
X87242289Y-90334854D01*
X87242278Y-90334867D01*
X87241516Y-90335824D01*
X87240817Y-90336795D01*
X87240802Y-90336816D01*
X86776366Y-90982806D01*
X86776347Y-90982833D01*
X86775656Y-90983795D01*
X86775000Y-90984810D01*
X86774995Y-90984818D01*
X86343342Y-91653146D01*
X86343322Y-91653177D01*
X86342674Y-91654182D01*
X86342067Y-91655231D01*
X86342058Y-91655248D01*
X85944258Y-92344258D01*
X85944241Y-92344287D01*
X85943647Y-92345318D01*
X85943092Y-92346398D01*
X85943083Y-92346417D01*
X85580129Y-93054383D01*
X85580114Y-93054414D01*
X85579565Y-93055485D01*
X85579071Y-93056579D01*
X85579055Y-93056613D01*
X85264142Y-93754535D01*
X85251336Y-93782917D01*
X85250884Y-93784066D01*
X85250880Y-93784078D01*
X84960228Y-94524643D01*
X84960214Y-94524680D01*
X84959773Y-94525805D01*
X84959393Y-94526933D01*
X84959378Y-94526977D01*
X84705998Y-95281124D01*
X84705985Y-95281164D01*
X84705603Y-95282303D01*
X84705271Y-95283480D01*
X84705266Y-95283499D01*
X84493960Y-96034530D01*
X84489458Y-96050531D01*
X84489191Y-96051696D01*
X84489186Y-96051720D01*
X84340413Y-96703538D01*
X84311874Y-96828577D01*
X84311666Y-96829754D01*
X84311659Y-96829791D01*
X84180577Y-97573196D01*
X84173293Y-97614508D01*
X84173145Y-97615683D01*
X84173142Y-97615708D01*
X84074390Y-98403735D01*
X84074060Y-98406369D01*
X84073969Y-98407570D01*
X84073967Y-98407600D01*
X84014513Y-99200953D01*
X84014511Y-99200990D01*
X84014421Y-99202193D01*
X84014391Y-99203395D01*
X84014389Y-99203436D01*
X83999544Y-99798750D01*
X83994525Y-100000000D01*
X79827835Y-100000000D01*
X79827835Y-99798750D01*
X79827859Y-99796588D01*
X79827859Y-99796587D01*
X79838168Y-99324685D01*
X79838235Y-99322687D01*
X79856102Y-98920544D01*
X79856207Y-98918633D01*
X79887133Y-98447374D01*
X79887294Y-98445287D01*
X79922992Y-98044368D01*
X79923168Y-98042604D01*
X79974648Y-97573118D01*
X79974916Y-97570920D01*
X80028463Y-97171314D01*
X80100560Y-96703478D01*
X80100938Y-96701213D01*
X80172129Y-96304616D01*
X80264631Y-95840160D01*
X80265127Y-95837823D01*
X80318813Y-95599999D01*
X81844721Y-95599999D01*
X81863762Y-95756815D01*
X81863762Y-95756817D01*
X81863763Y-95756818D01*
X81919780Y-95904523D01*
X82009517Y-96034530D01*
X82009518Y-96034531D01*
X82009519Y-96034532D01*
X82049811Y-96070228D01*
X82080830Y-96122967D01*
X82082755Y-96135367D01*
X82293076Y-98448885D01*
X82279515Y-98508548D01*
X82275959Y-98514085D01*
X82219781Y-98595474D01*
X82163762Y-98743184D01*
X82144721Y-98900000D01*
X82163762Y-99056815D01*
X82163762Y-99056817D01*
X82163763Y-99056818D01*
X82219780Y-99204523D01*
X82309517Y-99334530D01*
X82427760Y-99439283D01*
X82501174Y-99477814D01*
X82567636Y-99512697D01*
X82721013Y-99550500D01*
X82721015Y-99550500D01*
X82878987Y-99550500D01*
X83032363Y-99512697D01*
X83032365Y-99512696D01*
X83172240Y-99439283D01*
X83290483Y-99334530D01*
X83380220Y-99204523D01*
X83436237Y-99056818D01*
X83455278Y-98900000D01*
X83436237Y-98743182D01*
X83380220Y-98595477D01*
X83290483Y-98465470D01*
X83290480Y-98465467D01*
X83250187Y-98429770D01*
X83219168Y-98377030D01*
X83217243Y-98364631D01*
X83214318Y-98332452D01*
X83006922Y-96051111D01*
X83020483Y-95991450D01*
X83024030Y-95985925D01*
X83080220Y-95904523D01*
X83136237Y-95756818D01*
X83155278Y-95600000D01*
X83136237Y-95443182D01*
X83080220Y-95295477D01*
X82990483Y-95165470D01*
X82872240Y-95060717D01*
X82865287Y-95057067D01*
X82732363Y-94987302D01*
X82578987Y-94949500D01*
X82578985Y-94949500D01*
X82421015Y-94949500D01*
X82421013Y-94949500D01*
X82267636Y-94987302D01*
X82127761Y-95060716D01*
X82009517Y-95165470D01*
X81919780Y-95295476D01*
X81863762Y-95443184D01*
X81844721Y-95599999D01*
X80318813Y-95599999D01*
X80353758Y-95445193D01*
X80466553Y-94984822D01*
X80467128Y-94982603D01*
X80573018Y-94594592D01*
X80705895Y-94139303D01*
X80706620Y-94136937D01*
X80829445Y-93754579D01*
X80847997Y-93700000D01*
X83444721Y-93700000D01*
X83463762Y-93856815D01*
X83463762Y-93856817D01*
X83463763Y-93856818D01*
X83519780Y-94004523D01*
X83609517Y-94134530D01*
X83727760Y-94239283D01*
X83801173Y-94277814D01*
X83867636Y-94312697D01*
X84021013Y-94350500D01*
X84021015Y-94350500D01*
X84178987Y-94350500D01*
X84332363Y-94312697D01*
X84332365Y-94312696D01*
X84472240Y-94239283D01*
X84590483Y-94134530D01*
X84680220Y-94004523D01*
X84736237Y-93856818D01*
X84755278Y-93700000D01*
X84736237Y-93543182D01*
X84680220Y-93395477D01*
X84680218Y-93395475D01*
X84680218Y-93395473D01*
X84672843Y-93384789D01*
X84655347Y-93326159D01*
X84657473Y-93308008D01*
X84658084Y-93305132D01*
X85150310Y-90984632D01*
X85180880Y-90931632D01*
X85181345Y-90931216D01*
X85290483Y-90834530D01*
X85380220Y-90704523D01*
X85436237Y-90556818D01*
X85455278Y-90400000D01*
X85436237Y-90243182D01*
X85380220Y-90095477D01*
X85290483Y-89965470D01*
X85172240Y-89860717D01*
X85165286Y-89857067D01*
X85032363Y-89787302D01*
X84878987Y-89749500D01*
X84878985Y-89749500D01*
X84721015Y-89749500D01*
X84721013Y-89749500D01*
X84567636Y-89787302D01*
X84427761Y-89860716D01*
X84309517Y-89965470D01*
X84219780Y-90095476D01*
X84163762Y-90243184D01*
X84144721Y-90400000D01*
X84163762Y-90556815D01*
X84163762Y-90556817D01*
X84163763Y-90556818D01*
X84219780Y-90704523D01*
X84227157Y-90715210D01*
X84244651Y-90773841D01*
X84242525Y-90791990D01*
X83749688Y-93115367D01*
X83719118Y-93168368D01*
X83718492Y-93168927D01*
X83609517Y-93265470D01*
X83519780Y-93395476D01*
X83463762Y-93543184D01*
X83444721Y-93700000D01*
X80847997Y-93700000D01*
X80982250Y-93305027D01*
X80983090Y-93302662D01*
X81122561Y-92926688D01*
X81295035Y-92483770D01*
X81296029Y-92481319D01*
X81451773Y-92112567D01*
X81643707Y-91676967D01*
X81644800Y-91674580D01*
X81816436Y-91313784D01*
X82027511Y-90886372D01*
X82028768Y-90883919D01*
X82215763Y-90532009D01*
X82445770Y-90113375D01*
X82447201Y-90110861D01*
X82649024Y-89768632D01*
X82897654Y-89359522D01*
X82899256Y-89356977D01*
X83066608Y-89099999D01*
X86144721Y-89099999D01*
X86163762Y-89256815D01*
X86163762Y-89256817D01*
X86163763Y-89256818D01*
X86219780Y-89404523D01*
X86309517Y-89534530D01*
X86427760Y-89639283D01*
X86501173Y-89677814D01*
X86567636Y-89712697D01*
X86721013Y-89750500D01*
X86721015Y-89750500D01*
X86878987Y-89750500D01*
X87032363Y-89712697D01*
X87035684Y-89710954D01*
X87172240Y-89639283D01*
X87290483Y-89534530D01*
X87380220Y-89404523D01*
X87436237Y-89256818D01*
X87455278Y-89100000D01*
X87439155Y-88967218D01*
X87450910Y-88907175D01*
X87451990Y-88905283D01*
X88648478Y-86864216D01*
X88694216Y-86823579D01*
X88710189Y-86818161D01*
X88732365Y-86812696D01*
X88872240Y-86739283D01*
X88990483Y-86634530D01*
X89080220Y-86504523D01*
X89136237Y-86356818D01*
X89155278Y-86200000D01*
X89136237Y-86043182D01*
X89080220Y-85895477D01*
X88990483Y-85765470D01*
X88872240Y-85660717D01*
X88862172Y-85655433D01*
X88756556Y-85600000D01*
X90144721Y-85600000D01*
X90163762Y-85756815D01*
X90163762Y-85756817D01*
X90163763Y-85756818D01*
X90219780Y-85904523D01*
X90309517Y-86034530D01*
X90427760Y-86139283D01*
X90497714Y-86175998D01*
X90567636Y-86212697D01*
X90721013Y-86250500D01*
X90721015Y-86250500D01*
X90878987Y-86250500D01*
X91032363Y-86212697D01*
X91032365Y-86212696D01*
X91172240Y-86139283D01*
X91290483Y-86034530D01*
X91380220Y-85904523D01*
X91436237Y-85756818D01*
X91443376Y-85698012D01*
X91469158Y-85642527D01*
X91477694Y-85634383D01*
X93321873Y-84073925D01*
X93378509Y-84050770D01*
X93385822Y-84050500D01*
X93478987Y-84050500D01*
X93632363Y-84012697D01*
X93632365Y-84012696D01*
X93772240Y-83939283D01*
X93890483Y-83834530D01*
X93980220Y-83704523D01*
X94036237Y-83556818D01*
X94055278Y-83400000D01*
X94036237Y-83243182D01*
X93980220Y-83095477D01*
X93890483Y-82965470D01*
X93772240Y-82860717D01*
X93765286Y-82857067D01*
X93632363Y-82787302D01*
X93478987Y-82749500D01*
X93478985Y-82749500D01*
X93321015Y-82749500D01*
X93321013Y-82749500D01*
X93167636Y-82787302D01*
X93027761Y-82860716D01*
X92909517Y-82965470D01*
X92819780Y-83095476D01*
X92763762Y-83243183D01*
X92756622Y-83301986D01*
X92730838Y-83357473D01*
X92722292Y-83365626D01*
X90878126Y-84926075D01*
X90821491Y-84949230D01*
X90814178Y-84949500D01*
X90721013Y-84949500D01*
X90567636Y-84987302D01*
X90427761Y-85060716D01*
X90309517Y-85165470D01*
X90219780Y-85295476D01*
X90163762Y-85443184D01*
X90144721Y-85600000D01*
X88756556Y-85600000D01*
X88732363Y-85587302D01*
X88578987Y-85549500D01*
X88578985Y-85549500D01*
X88421015Y-85549500D01*
X88421013Y-85549500D01*
X88267636Y-85587302D01*
X88127761Y-85660716D01*
X88009517Y-85765470D01*
X87919780Y-85895476D01*
X87863762Y-86043184D01*
X87844721Y-86200000D01*
X87860843Y-86332779D01*
X87849087Y-86392824D01*
X87847972Y-86394777D01*
X86651520Y-88435782D01*
X86605781Y-88476421D01*
X86589807Y-88481839D01*
X86567635Y-88487304D01*
X86427761Y-88560716D01*
X86309517Y-88665470D01*
X86219780Y-88795476D01*
X86163762Y-88943184D01*
X86144721Y-89099999D01*
X83066608Y-89099999D01*
X83115407Y-89025066D01*
X83382297Y-88626261D01*
X83384026Y-88623765D01*
X83613835Y-88302977D01*
X83898750Y-87915035D01*
X83900633Y-87912558D01*
X84143477Y-87603534D01*
X84446031Y-87227201D01*
X84448012Y-87224819D01*
X84703041Y-86928379D01*
X85023074Y-86564102D01*
X85025148Y-86561821D01*
X85291545Y-86278629D01*
X85628680Y-85927114D01*
X85631023Y-85924755D01*
X85907784Y-85655559D01*
X86261733Y-85317399D01*
X86264284Y-85315046D01*
X86550405Y-85060462D01*
X86921185Y-84735983D01*
X86923756Y-84733814D01*
X87217898Y-84494618D01*
X87605450Y-84184275D01*
X87608238Y-84182125D01*
X87909009Y-83958966D01*
X88313385Y-83663182D01*
X88316370Y-83661084D01*
X88621900Y-83454772D01*
X89043637Y-83173712D01*
X89046653Y-83171784D01*
X89354760Y-82983083D01*
X89794676Y-82716893D01*
X89797895Y-82715031D01*
X90105642Y-82544856D01*
X90565108Y-82293569D01*
X90568461Y-82291820D01*
X90871427Y-82141444D01*
X91353410Y-81904575D01*
X91356985Y-81902907D01*
X91648409Y-81774049D01*
X92158151Y-81550622D01*
X92161814Y-81549105D01*
X92430600Y-81444260D01*
X92977642Y-81232456D01*
X92981476Y-81231063D01*
X93202905Y-81155832D01*
X93810393Y-80950654D01*
X93814363Y-80949407D01*
X93915771Y-80919904D01*
X94650530Y-80707003D01*
X94654705Y-80705892D01*
X95488293Y-80503358D01*
X95497219Y-80502297D01*
X95499912Y-80501447D01*
X95500594Y-80500381D01*
X95500596Y-80500381D01*
X95500595Y-80500379D01*
X95501570Y-80498858D01*
X95500499Y-80489087D01*
X95500500Y-76899500D01*
X95519407Y-76841309D01*
X95568907Y-76805345D01*
X95599500Y-76800500D01*
X104200500Y-76800500D01*
X104258691Y-76819407D01*
G37*
%TD.AperFunction*%
%TD*%
M02*
