%TF.GenerationSoftware,KiCad,Pcbnew,7.0.2-6a45011f42~172~ubuntu22.04.1*%
%TF.CreationDate,2023-04-30T12:54:00-06:00*%
%TF.ProjectId,ring-40mm,72696e67-2d34-4306-9d6d-2e6b69636164,rev?*%
%TF.SameCoordinates,Original*%
%TF.FileFunction,Drillmap*%
%TF.FilePolarity,Positive*%
%FSLAX45Y45*%
G04 Gerber Fmt 4.5, Leading zero omitted, Abs format (unit mm)*
G04 Created by KiCad (PCBNEW 7.0.2-6a45011f42~172~ubuntu22.04.1) date 2023-04-30 12:54:00*
%MOMM*%
%LPD*%
G01*
G04 APERTURE LIST*
%ADD10C,0.100000*%
%ADD11C,0.200000*%
%ADD12C,0.030000*%
G04 APERTURE END LIST*
D10*
X9550000Y-8050000D02*
G75*
G03*
X9550000Y-11950000I428903J-1950000D01*
G01*
X10430000Y-12320000D02*
X9550000Y-12320000D01*
X10430000Y-11950000D02*
X10430000Y-12320000D01*
X10430000Y-7680000D02*
X9550000Y-7680000D01*
X10430000Y-11950000D02*
G75*
G03*
X10430000Y-8050000I-428903J1950000D01*
G01*
X9550000Y-7680000D02*
X9550000Y-8050000D01*
X10430000Y-8050000D02*
X10430000Y-7680000D01*
X9550000Y-12320000D02*
X9550000Y-11950000D01*
X11600000Y-10000000D02*
G75*
G03*
X11600000Y-10000000I-1600000J0D01*
G01*
D11*
D12*
X8175000Y-9865000D02*
X8205000Y-9895000D01*
X8205000Y-9865000D02*
X8175000Y-9895000D01*
X8185000Y-10095000D02*
X8215000Y-10125000D01*
X8215000Y-10095000D02*
X8185000Y-10125000D01*
X8225000Y-10435000D02*
X8255000Y-10465000D01*
X8255000Y-10435000D02*
X8225000Y-10465000D01*
X8235000Y-9545000D02*
X8265000Y-9575000D01*
X8265000Y-9545000D02*
X8235000Y-9575000D01*
X8265000Y-9875000D02*
X8295000Y-9905000D01*
X8295000Y-9875000D02*
X8265000Y-9905000D01*
X8295000Y-9315000D02*
X8325000Y-9345000D01*
X8325000Y-9315000D02*
X8295000Y-9345000D01*
X8305000Y-10645000D02*
X8335000Y-10675000D01*
X8335000Y-10645000D02*
X8305000Y-10675000D01*
X8325000Y-10415000D02*
X8355000Y-10445000D01*
X8355000Y-10415000D02*
X8325000Y-10445000D01*
X8395000Y-9355000D02*
X8425000Y-9385000D01*
X8425000Y-9355000D02*
X8395000Y-9385000D01*
X8445000Y-10955000D02*
X8475000Y-10985000D01*
X8475000Y-10955000D02*
X8445000Y-10985000D01*
X8465000Y-9025000D02*
X8495000Y-9055000D01*
X8495000Y-9025000D02*
X8465000Y-9055000D01*
X8525000Y-10895000D02*
X8555000Y-10925000D01*
X8555000Y-10895000D02*
X8525000Y-10925000D01*
X8575000Y-8825000D02*
X8605000Y-8855000D01*
X8605000Y-8825000D02*
X8575000Y-8855000D01*
X8595000Y-11135000D02*
X8625000Y-11165000D01*
X8625000Y-11135000D02*
X8595000Y-11165000D01*
X8665000Y-8895000D02*
X8695000Y-8925000D01*
X8695000Y-8895000D02*
X8665000Y-8925000D01*
X8825000Y-11365000D02*
X8855000Y-11395000D01*
X8855000Y-11365000D02*
X8825000Y-11395000D01*
X8835000Y-8605000D02*
X8865000Y-8635000D01*
X8865000Y-8605000D02*
X8835000Y-8635000D01*
X8875000Y-11295000D02*
X8905000Y-11325000D01*
X8905000Y-11295000D02*
X8875000Y-11325000D01*
X9015000Y-8455000D02*
X9045000Y-8485000D01*
X9045000Y-8455000D02*
X9015000Y-8485000D01*
X9015000Y-11495000D02*
X9045000Y-11525000D01*
X9045000Y-11495000D02*
X9015000Y-11525000D01*
X9065000Y-8545000D02*
X9095000Y-8575000D01*
X9095000Y-8545000D02*
X9065000Y-8575000D01*
X9325000Y-8325000D02*
X9355000Y-8355000D01*
X9355000Y-8325000D02*
X9325000Y-8355000D01*
X9325000Y-11665000D02*
X9355000Y-11695000D01*
X9355000Y-11665000D02*
X9325000Y-11695000D01*
X9345000Y-11575000D02*
X9375000Y-11605000D01*
X9375000Y-11575000D02*
X9345000Y-11605000D01*
X9525000Y-8215000D02*
X9555000Y-8245000D01*
X9555000Y-8215000D02*
X9525000Y-8245000D01*
X9525000Y-11725000D02*
X9555000Y-11755000D01*
X9555000Y-11725000D02*
X9525000Y-11755000D01*
X9775000Y-8116500D02*
X9805000Y-8146500D01*
X9805000Y-8116500D02*
X9775000Y-8146500D01*
X9835000Y-11905000D02*
X9865000Y-11935000D01*
X9865000Y-11905000D02*
X9835000Y-11935000D01*
X9855000Y-11735000D02*
X9885000Y-11765000D01*
X9885000Y-11735000D02*
X9855000Y-11765000D01*
X9865000Y-8325000D02*
X9895000Y-8355000D01*
X9895000Y-8325000D02*
X9865000Y-8355000D01*
X9865000Y-11835000D02*
X9895000Y-11865000D01*
X9895000Y-11835000D02*
X9865000Y-11865000D01*
X9871275Y-8201275D02*
X9901275Y-8231275D01*
X9901275Y-8201275D02*
X9871275Y-8231275D01*
X10085000Y-11785000D02*
X10115000Y-11815000D01*
X10115000Y-11785000D02*
X10085000Y-11815000D01*
X10095000Y-8275000D02*
X10125000Y-8305000D01*
X10125000Y-8275000D02*
X10095000Y-8305000D01*
X10105000Y-8095000D02*
X10135000Y-8125000D01*
X10135000Y-8095000D02*
X10105000Y-8125000D01*
X10405000Y-11675000D02*
X10435000Y-11705000D01*
X10435000Y-11675000D02*
X10405000Y-11705000D01*
X10432729Y-8248697D02*
X10462729Y-8278697D01*
X10462729Y-8248697D02*
X10432729Y-8278697D01*
X10445000Y-11765000D02*
X10475000Y-11795000D01*
X10475000Y-11765000D02*
X10445000Y-11795000D01*
X10615000Y-8405000D02*
X10645000Y-8435000D01*
X10645000Y-8405000D02*
X10615000Y-8435000D01*
X10635000Y-11655000D02*
X10665000Y-11685000D01*
X10665000Y-11655000D02*
X10635000Y-11685000D01*
X10675000Y-8235000D02*
X10705000Y-8265000D01*
X10705000Y-8235000D02*
X10675000Y-8265000D01*
X10915000Y-11465000D02*
X10945000Y-11495000D01*
X10945000Y-11465000D02*
X10915000Y-11495000D01*
X10935000Y-8475000D02*
X10965000Y-8505000D01*
X10965000Y-8475000D02*
X10935000Y-8505000D01*
X10965000Y-11545000D02*
X10995000Y-11575000D01*
X10995000Y-11545000D02*
X10965000Y-11575000D01*
X11105000Y-8635000D02*
X11135000Y-8665000D01*
X11135000Y-8635000D02*
X11105000Y-8665000D01*
X11115000Y-11385000D02*
X11145000Y-11415000D01*
X11145000Y-11385000D02*
X11115000Y-11415000D01*
X11195000Y-8535000D02*
X11225000Y-8565000D01*
X11225000Y-8535000D02*
X11195000Y-8565000D01*
X11325000Y-11115000D02*
X11355000Y-11145000D01*
X11355000Y-11115000D02*
X11325000Y-11145000D01*
X11365000Y-8845000D02*
X11395000Y-8875000D01*
X11395000Y-8845000D02*
X11365000Y-8875000D01*
X11395000Y-11145000D02*
X11425000Y-11175000D01*
X11425000Y-11145000D02*
X11395000Y-11175000D01*
X11455000Y-9065000D02*
X11485000Y-9095000D01*
X11485000Y-9065000D02*
X11455000Y-9095000D01*
X11505000Y-10955000D02*
X11535000Y-10985000D01*
X11535000Y-10955000D02*
X11505000Y-10985000D01*
X11595000Y-8985000D02*
X11625000Y-9015000D01*
X11625000Y-8985000D02*
X11595000Y-9015000D01*
X11595000Y-10645000D02*
X11625000Y-10675000D01*
X11625000Y-10645000D02*
X11595000Y-10675000D01*
X11645000Y-9335000D02*
X11675000Y-9365000D01*
X11675000Y-9335000D02*
X11645000Y-9365000D01*
X11675000Y-9565000D02*
X11705000Y-9595000D01*
X11705000Y-9565000D02*
X11675000Y-9595000D01*
X11685000Y-10645000D02*
X11715000Y-10675000D01*
X11715000Y-10645000D02*
X11685000Y-10675000D01*
X11715000Y-10105000D02*
X11745000Y-10135000D01*
X11745000Y-10105000D02*
X11715000Y-10135000D01*
X11715000Y-10435000D02*
X11745000Y-10465000D01*
X11745000Y-10435000D02*
X11715000Y-10465000D01*
X11755000Y-9525000D02*
X11785000Y-9555000D01*
X11785000Y-9525000D02*
X11755000Y-9555000D01*
X11765000Y-9875000D02*
X11795000Y-9905000D01*
X11795000Y-9875000D02*
X11765000Y-9905000D01*
X11805000Y-10105000D02*
X11835000Y-10135000D01*
X11835000Y-10105000D02*
X11805000Y-10135000D01*
D10*
X9786000Y-7870000D02*
G75*
G03*
X9786000Y-7870000I-50000J0D01*
G01*
X9786000Y-12140000D02*
G75*
G03*
X9786000Y-12140000I-50000J0D01*
G01*
X10040000Y-7870000D02*
G75*
G03*
X10040000Y-7870000I-50000J0D01*
G01*
X10040000Y-12140000D02*
G75*
G03*
X10040000Y-12140000I-50000J0D01*
G01*
X10294000Y-7870000D02*
G75*
G03*
X10294000Y-7870000I-50000J0D01*
G01*
X10294000Y-12140000D02*
G75*
G03*
X10294000Y-12140000I-50000J0D01*
G01*
D11*
X8224910Y-12637524D02*
X8224910Y-12437524D01*
X8224910Y-12437524D02*
X8272529Y-12437524D01*
X8272529Y-12437524D02*
X8301101Y-12447048D01*
X8301101Y-12447048D02*
X8320148Y-12466095D01*
X8320148Y-12466095D02*
X8329672Y-12485143D01*
X8329672Y-12485143D02*
X8339196Y-12523238D01*
X8339196Y-12523238D02*
X8339196Y-12551809D01*
X8339196Y-12551809D02*
X8329672Y-12589905D01*
X8329672Y-12589905D02*
X8320148Y-12608952D01*
X8320148Y-12608952D02*
X8301101Y-12628000D01*
X8301101Y-12628000D02*
X8272529Y-12637524D01*
X8272529Y-12637524D02*
X8224910Y-12637524D01*
X8424910Y-12637524D02*
X8424910Y-12504190D01*
X8424910Y-12542286D02*
X8434434Y-12523238D01*
X8434434Y-12523238D02*
X8443958Y-12513714D01*
X8443958Y-12513714D02*
X8463006Y-12504190D01*
X8463006Y-12504190D02*
X8482053Y-12504190D01*
X8548720Y-12637524D02*
X8548720Y-12504190D01*
X8548720Y-12437524D02*
X8539196Y-12447048D01*
X8539196Y-12447048D02*
X8548720Y-12456571D01*
X8548720Y-12456571D02*
X8558244Y-12447048D01*
X8558244Y-12447048D02*
X8548720Y-12437524D01*
X8548720Y-12437524D02*
X8548720Y-12456571D01*
X8672529Y-12637524D02*
X8653482Y-12628000D01*
X8653482Y-12628000D02*
X8643958Y-12608952D01*
X8643958Y-12608952D02*
X8643958Y-12437524D01*
X8777291Y-12637524D02*
X8758244Y-12628000D01*
X8758244Y-12628000D02*
X8748720Y-12608952D01*
X8748720Y-12608952D02*
X8748720Y-12437524D01*
X9005863Y-12637524D02*
X9005863Y-12437524D01*
X9005863Y-12437524D02*
X9072530Y-12580381D01*
X9072530Y-12580381D02*
X9139196Y-12437524D01*
X9139196Y-12437524D02*
X9139196Y-12637524D01*
X9320149Y-12637524D02*
X9320149Y-12532762D01*
X9320149Y-12532762D02*
X9310625Y-12513714D01*
X9310625Y-12513714D02*
X9291577Y-12504190D01*
X9291577Y-12504190D02*
X9253482Y-12504190D01*
X9253482Y-12504190D02*
X9234434Y-12513714D01*
X9320149Y-12628000D02*
X9301101Y-12637524D01*
X9301101Y-12637524D02*
X9253482Y-12637524D01*
X9253482Y-12637524D02*
X9234434Y-12628000D01*
X9234434Y-12628000D02*
X9224910Y-12608952D01*
X9224910Y-12608952D02*
X9224910Y-12589905D01*
X9224910Y-12589905D02*
X9234434Y-12570857D01*
X9234434Y-12570857D02*
X9253482Y-12561333D01*
X9253482Y-12561333D02*
X9301101Y-12561333D01*
X9301101Y-12561333D02*
X9320149Y-12551809D01*
X9415387Y-12504190D02*
X9415387Y-12704190D01*
X9415387Y-12513714D02*
X9434434Y-12504190D01*
X9434434Y-12504190D02*
X9472530Y-12504190D01*
X9472530Y-12504190D02*
X9491577Y-12513714D01*
X9491577Y-12513714D02*
X9501101Y-12523238D01*
X9501101Y-12523238D02*
X9510625Y-12542286D01*
X9510625Y-12542286D02*
X9510625Y-12599428D01*
X9510625Y-12599428D02*
X9501101Y-12618476D01*
X9501101Y-12618476D02*
X9491577Y-12628000D01*
X9491577Y-12628000D02*
X9472530Y-12637524D01*
X9472530Y-12637524D02*
X9434434Y-12637524D01*
X9434434Y-12637524D02*
X9415387Y-12628000D01*
X9596339Y-12618476D02*
X9605863Y-12628000D01*
X9605863Y-12628000D02*
X9596339Y-12637524D01*
X9596339Y-12637524D02*
X9586815Y-12628000D01*
X9586815Y-12628000D02*
X9596339Y-12618476D01*
X9596339Y-12618476D02*
X9596339Y-12637524D01*
X9596339Y-12513714D02*
X9605863Y-12523238D01*
X9605863Y-12523238D02*
X9596339Y-12532762D01*
X9596339Y-12532762D02*
X9586815Y-12523238D01*
X9586815Y-12523238D02*
X9596339Y-12513714D01*
X9596339Y-12513714D02*
X9596339Y-12532762D01*
D12*
X7947291Y-12950000D02*
X7977291Y-12980000D01*
X7977291Y-12950000D02*
X7947291Y-12980000D01*
D11*
X8263006Y-12857524D02*
X8282053Y-12857524D01*
X8282053Y-12857524D02*
X8301101Y-12867048D01*
X8301101Y-12867048D02*
X8310625Y-12876571D01*
X8310625Y-12876571D02*
X8320148Y-12895619D01*
X8320148Y-12895619D02*
X8329672Y-12933714D01*
X8329672Y-12933714D02*
X8329672Y-12981333D01*
X8329672Y-12981333D02*
X8320148Y-13019428D01*
X8320148Y-13019428D02*
X8310625Y-13038476D01*
X8310625Y-13038476D02*
X8301101Y-13048000D01*
X8301101Y-13048000D02*
X8282053Y-13057524D01*
X8282053Y-13057524D02*
X8263006Y-13057524D01*
X8263006Y-13057524D02*
X8243958Y-13048000D01*
X8243958Y-13048000D02*
X8234434Y-13038476D01*
X8234434Y-13038476D02*
X8224910Y-13019428D01*
X8224910Y-13019428D02*
X8215387Y-12981333D01*
X8215387Y-12981333D02*
X8215387Y-12933714D01*
X8215387Y-12933714D02*
X8224910Y-12895619D01*
X8224910Y-12895619D02*
X8234434Y-12876571D01*
X8234434Y-12876571D02*
X8243958Y-12867048D01*
X8243958Y-12867048D02*
X8263006Y-12857524D01*
X8415387Y-13038476D02*
X8424910Y-13048000D01*
X8424910Y-13048000D02*
X8415387Y-13057524D01*
X8415387Y-13057524D02*
X8405863Y-13048000D01*
X8405863Y-13048000D02*
X8415387Y-13038476D01*
X8415387Y-13038476D02*
X8415387Y-13057524D01*
X8491577Y-12857524D02*
X8615387Y-12857524D01*
X8615387Y-12857524D02*
X8548720Y-12933714D01*
X8548720Y-12933714D02*
X8577291Y-12933714D01*
X8577291Y-12933714D02*
X8596339Y-12943238D01*
X8596339Y-12943238D02*
X8605863Y-12952762D01*
X8605863Y-12952762D02*
X8615387Y-12971809D01*
X8615387Y-12971809D02*
X8615387Y-13019428D01*
X8615387Y-13019428D02*
X8605863Y-13038476D01*
X8605863Y-13038476D02*
X8596339Y-13048000D01*
X8596339Y-13048000D02*
X8577291Y-13057524D01*
X8577291Y-13057524D02*
X8520149Y-13057524D01*
X8520149Y-13057524D02*
X8501101Y-13048000D01*
X8501101Y-13048000D02*
X8491577Y-13038476D01*
X8739196Y-12857524D02*
X8758244Y-12857524D01*
X8758244Y-12857524D02*
X8777291Y-12867048D01*
X8777291Y-12867048D02*
X8786815Y-12876571D01*
X8786815Y-12876571D02*
X8796339Y-12895619D01*
X8796339Y-12895619D02*
X8805863Y-12933714D01*
X8805863Y-12933714D02*
X8805863Y-12981333D01*
X8805863Y-12981333D02*
X8796339Y-13019428D01*
X8796339Y-13019428D02*
X8786815Y-13038476D01*
X8786815Y-13038476D02*
X8777291Y-13048000D01*
X8777291Y-13048000D02*
X8758244Y-13057524D01*
X8758244Y-13057524D02*
X8739196Y-13057524D01*
X8739196Y-13057524D02*
X8720149Y-13048000D01*
X8720149Y-13048000D02*
X8710625Y-13038476D01*
X8710625Y-13038476D02*
X8701101Y-13019428D01*
X8701101Y-13019428D02*
X8691577Y-12981333D01*
X8691577Y-12981333D02*
X8691577Y-12933714D01*
X8691577Y-12933714D02*
X8701101Y-12895619D01*
X8701101Y-12895619D02*
X8710625Y-12876571D01*
X8710625Y-12876571D02*
X8720149Y-12867048D01*
X8720149Y-12867048D02*
X8739196Y-12857524D01*
X8929672Y-12857524D02*
X8948720Y-12857524D01*
X8948720Y-12857524D02*
X8967768Y-12867048D01*
X8967768Y-12867048D02*
X8977291Y-12876571D01*
X8977291Y-12876571D02*
X8986815Y-12895619D01*
X8986815Y-12895619D02*
X8996339Y-12933714D01*
X8996339Y-12933714D02*
X8996339Y-12981333D01*
X8996339Y-12981333D02*
X8986815Y-13019428D01*
X8986815Y-13019428D02*
X8977291Y-13038476D01*
X8977291Y-13038476D02*
X8967768Y-13048000D01*
X8967768Y-13048000D02*
X8948720Y-13057524D01*
X8948720Y-13057524D02*
X8929672Y-13057524D01*
X8929672Y-13057524D02*
X8910625Y-13048000D01*
X8910625Y-13048000D02*
X8901101Y-13038476D01*
X8901101Y-13038476D02*
X8891577Y-13019428D01*
X8891577Y-13019428D02*
X8882053Y-12981333D01*
X8882053Y-12981333D02*
X8882053Y-12933714D01*
X8882053Y-12933714D02*
X8891577Y-12895619D01*
X8891577Y-12895619D02*
X8901101Y-12876571D01*
X8901101Y-12876571D02*
X8910625Y-12867048D01*
X8910625Y-12867048D02*
X8929672Y-12857524D01*
X9082053Y-13057524D02*
X9082053Y-12924190D01*
X9082053Y-12943238D02*
X9091577Y-12933714D01*
X9091577Y-12933714D02*
X9110625Y-12924190D01*
X9110625Y-12924190D02*
X9139196Y-12924190D01*
X9139196Y-12924190D02*
X9158244Y-12933714D01*
X9158244Y-12933714D02*
X9167768Y-12952762D01*
X9167768Y-12952762D02*
X9167768Y-13057524D01*
X9167768Y-12952762D02*
X9177291Y-12933714D01*
X9177291Y-12933714D02*
X9196339Y-12924190D01*
X9196339Y-12924190D02*
X9224910Y-12924190D01*
X9224910Y-12924190D02*
X9243958Y-12933714D01*
X9243958Y-12933714D02*
X9253482Y-12952762D01*
X9253482Y-12952762D02*
X9253482Y-13057524D01*
X9348720Y-13057524D02*
X9348720Y-12924190D01*
X9348720Y-12943238D02*
X9358244Y-12933714D01*
X9358244Y-12933714D02*
X9377291Y-12924190D01*
X9377291Y-12924190D02*
X9405863Y-12924190D01*
X9405863Y-12924190D02*
X9424911Y-12933714D01*
X9424911Y-12933714D02*
X9434434Y-12952762D01*
X9434434Y-12952762D02*
X9434434Y-13057524D01*
X9434434Y-12952762D02*
X9443958Y-12933714D01*
X9443958Y-12933714D02*
X9463006Y-12924190D01*
X9463006Y-12924190D02*
X9491577Y-12924190D01*
X9491577Y-12924190D02*
X9510625Y-12933714D01*
X9510625Y-12933714D02*
X9520149Y-12952762D01*
X9520149Y-12952762D02*
X9520149Y-13057524D01*
X9910625Y-12848000D02*
X9739196Y-13105143D01*
X10167768Y-12857524D02*
X10186815Y-12857524D01*
X10186815Y-12857524D02*
X10205863Y-12867048D01*
X10205863Y-12867048D02*
X10215387Y-12876571D01*
X10215387Y-12876571D02*
X10224911Y-12895619D01*
X10224911Y-12895619D02*
X10234434Y-12933714D01*
X10234434Y-12933714D02*
X10234434Y-12981333D01*
X10234434Y-12981333D02*
X10224911Y-13019428D01*
X10224911Y-13019428D02*
X10215387Y-13038476D01*
X10215387Y-13038476D02*
X10205863Y-13048000D01*
X10205863Y-13048000D02*
X10186815Y-13057524D01*
X10186815Y-13057524D02*
X10167768Y-13057524D01*
X10167768Y-13057524D02*
X10148720Y-13048000D01*
X10148720Y-13048000D02*
X10139196Y-13038476D01*
X10139196Y-13038476D02*
X10129673Y-13019428D01*
X10129673Y-13019428D02*
X10120149Y-12981333D01*
X10120149Y-12981333D02*
X10120149Y-12933714D01*
X10120149Y-12933714D02*
X10129673Y-12895619D01*
X10129673Y-12895619D02*
X10139196Y-12876571D01*
X10139196Y-12876571D02*
X10148720Y-12867048D01*
X10148720Y-12867048D02*
X10167768Y-12857524D01*
X10320149Y-13038476D02*
X10329673Y-13048000D01*
X10329673Y-13048000D02*
X10320149Y-13057524D01*
X10320149Y-13057524D02*
X10310625Y-13048000D01*
X10310625Y-13048000D02*
X10320149Y-13038476D01*
X10320149Y-13038476D02*
X10320149Y-13057524D01*
X10453482Y-12857524D02*
X10472530Y-12857524D01*
X10472530Y-12857524D02*
X10491577Y-12867048D01*
X10491577Y-12867048D02*
X10501101Y-12876571D01*
X10501101Y-12876571D02*
X10510625Y-12895619D01*
X10510625Y-12895619D02*
X10520149Y-12933714D01*
X10520149Y-12933714D02*
X10520149Y-12981333D01*
X10520149Y-12981333D02*
X10510625Y-13019428D01*
X10510625Y-13019428D02*
X10501101Y-13038476D01*
X10501101Y-13038476D02*
X10491577Y-13048000D01*
X10491577Y-13048000D02*
X10472530Y-13057524D01*
X10472530Y-13057524D02*
X10453482Y-13057524D01*
X10453482Y-13057524D02*
X10434434Y-13048000D01*
X10434434Y-13048000D02*
X10424911Y-13038476D01*
X10424911Y-13038476D02*
X10415387Y-13019428D01*
X10415387Y-13019428D02*
X10405863Y-12981333D01*
X10405863Y-12981333D02*
X10405863Y-12933714D01*
X10405863Y-12933714D02*
X10415387Y-12895619D01*
X10415387Y-12895619D02*
X10424911Y-12876571D01*
X10424911Y-12876571D02*
X10434434Y-12867048D01*
X10434434Y-12867048D02*
X10453482Y-12857524D01*
X10710625Y-13057524D02*
X10596339Y-13057524D01*
X10653482Y-13057524D02*
X10653482Y-12857524D01*
X10653482Y-12857524D02*
X10634434Y-12886095D01*
X10634434Y-12886095D02*
X10615387Y-12905143D01*
X10615387Y-12905143D02*
X10596339Y-12914667D01*
X10901101Y-13057524D02*
X10786815Y-13057524D01*
X10843958Y-13057524D02*
X10843958Y-12857524D01*
X10843958Y-12857524D02*
X10824911Y-12886095D01*
X10824911Y-12886095D02*
X10805863Y-12905143D01*
X10805863Y-12905143D02*
X10786815Y-12914667D01*
X11015387Y-12943238D02*
X10996339Y-12933714D01*
X10996339Y-12933714D02*
X10986815Y-12924190D01*
X10986815Y-12924190D02*
X10977292Y-12905143D01*
X10977292Y-12905143D02*
X10977292Y-12895619D01*
X10977292Y-12895619D02*
X10986815Y-12876571D01*
X10986815Y-12876571D02*
X10996339Y-12867048D01*
X10996339Y-12867048D02*
X11015387Y-12857524D01*
X11015387Y-12857524D02*
X11053482Y-12857524D01*
X11053482Y-12857524D02*
X11072530Y-12867048D01*
X11072530Y-12867048D02*
X11082054Y-12876571D01*
X11082054Y-12876571D02*
X11091577Y-12895619D01*
X11091577Y-12895619D02*
X11091577Y-12905143D01*
X11091577Y-12905143D02*
X11082054Y-12924190D01*
X11082054Y-12924190D02*
X11072530Y-12933714D01*
X11072530Y-12933714D02*
X11053482Y-12943238D01*
X11053482Y-12943238D02*
X11015387Y-12943238D01*
X11015387Y-12943238D02*
X10996339Y-12952762D01*
X10996339Y-12952762D02*
X10986815Y-12962286D01*
X10986815Y-12962286D02*
X10977292Y-12981333D01*
X10977292Y-12981333D02*
X10977292Y-13019428D01*
X10977292Y-13019428D02*
X10986815Y-13038476D01*
X10986815Y-13038476D02*
X10996339Y-13048000D01*
X10996339Y-13048000D02*
X11015387Y-13057524D01*
X11015387Y-13057524D02*
X11053482Y-13057524D01*
X11053482Y-13057524D02*
X11072530Y-13048000D01*
X11072530Y-13048000D02*
X11082054Y-13038476D01*
X11082054Y-13038476D02*
X11091577Y-13019428D01*
X11091577Y-13019428D02*
X11091577Y-12981333D01*
X11091577Y-12981333D02*
X11082054Y-12962286D01*
X11082054Y-12962286D02*
X11072530Y-12952762D01*
X11072530Y-12952762D02*
X11053482Y-12943238D01*
X11167768Y-12857524D02*
X11167768Y-12895619D01*
X11243958Y-12857524D02*
X11243958Y-12895619D01*
X11539196Y-13133714D02*
X11529673Y-13124190D01*
X11529673Y-13124190D02*
X11510625Y-13095619D01*
X11510625Y-13095619D02*
X11501101Y-13076571D01*
X11501101Y-13076571D02*
X11491577Y-13048000D01*
X11491577Y-13048000D02*
X11482054Y-13000381D01*
X11482054Y-13000381D02*
X11482054Y-12962286D01*
X11482054Y-12962286D02*
X11491577Y-12914667D01*
X11491577Y-12914667D02*
X11501101Y-12886095D01*
X11501101Y-12886095D02*
X11510625Y-12867048D01*
X11510625Y-12867048D02*
X11529673Y-12838476D01*
X11529673Y-12838476D02*
X11539196Y-12828952D01*
X11701101Y-12857524D02*
X11663006Y-12857524D01*
X11663006Y-12857524D02*
X11643958Y-12867048D01*
X11643958Y-12867048D02*
X11634434Y-12876571D01*
X11634434Y-12876571D02*
X11615387Y-12905143D01*
X11615387Y-12905143D02*
X11605863Y-12943238D01*
X11605863Y-12943238D02*
X11605863Y-13019428D01*
X11605863Y-13019428D02*
X11615387Y-13038476D01*
X11615387Y-13038476D02*
X11624911Y-13048000D01*
X11624911Y-13048000D02*
X11643958Y-13057524D01*
X11643958Y-13057524D02*
X11682054Y-13057524D01*
X11682054Y-13057524D02*
X11701101Y-13048000D01*
X11701101Y-13048000D02*
X11710625Y-13038476D01*
X11710625Y-13038476D02*
X11720149Y-13019428D01*
X11720149Y-13019428D02*
X11720149Y-12971809D01*
X11720149Y-12971809D02*
X11710625Y-12952762D01*
X11710625Y-12952762D02*
X11701101Y-12943238D01*
X11701101Y-12943238D02*
X11682054Y-12933714D01*
X11682054Y-12933714D02*
X11643958Y-12933714D01*
X11643958Y-12933714D02*
X11624911Y-12943238D01*
X11624911Y-12943238D02*
X11615387Y-12952762D01*
X11615387Y-12952762D02*
X11605863Y-12971809D01*
X11796339Y-12876571D02*
X11805863Y-12867048D01*
X11805863Y-12867048D02*
X11824911Y-12857524D01*
X11824911Y-12857524D02*
X11872530Y-12857524D01*
X11872530Y-12857524D02*
X11891577Y-12867048D01*
X11891577Y-12867048D02*
X11901101Y-12876571D01*
X11901101Y-12876571D02*
X11910625Y-12895619D01*
X11910625Y-12895619D02*
X11910625Y-12914667D01*
X11910625Y-12914667D02*
X11901101Y-12943238D01*
X11901101Y-12943238D02*
X11786815Y-13057524D01*
X11786815Y-13057524D02*
X11910625Y-13057524D01*
X12148720Y-13057524D02*
X12148720Y-12857524D01*
X12234435Y-13057524D02*
X12234435Y-12952762D01*
X12234435Y-12952762D02*
X12224911Y-12933714D01*
X12224911Y-12933714D02*
X12205863Y-12924190D01*
X12205863Y-12924190D02*
X12177292Y-12924190D01*
X12177292Y-12924190D02*
X12158244Y-12933714D01*
X12158244Y-12933714D02*
X12148720Y-12943238D01*
X12358244Y-13057524D02*
X12339196Y-13048000D01*
X12339196Y-13048000D02*
X12329673Y-13038476D01*
X12329673Y-13038476D02*
X12320149Y-13019428D01*
X12320149Y-13019428D02*
X12320149Y-12962286D01*
X12320149Y-12962286D02*
X12329673Y-12943238D01*
X12329673Y-12943238D02*
X12339196Y-12933714D01*
X12339196Y-12933714D02*
X12358244Y-12924190D01*
X12358244Y-12924190D02*
X12386816Y-12924190D01*
X12386816Y-12924190D02*
X12405863Y-12933714D01*
X12405863Y-12933714D02*
X12415387Y-12943238D01*
X12415387Y-12943238D02*
X12424911Y-12962286D01*
X12424911Y-12962286D02*
X12424911Y-13019428D01*
X12424911Y-13019428D02*
X12415387Y-13038476D01*
X12415387Y-13038476D02*
X12405863Y-13048000D01*
X12405863Y-13048000D02*
X12386816Y-13057524D01*
X12386816Y-13057524D02*
X12358244Y-13057524D01*
X12539196Y-13057524D02*
X12520149Y-13048000D01*
X12520149Y-13048000D02*
X12510625Y-13028952D01*
X12510625Y-13028952D02*
X12510625Y-12857524D01*
X12691577Y-13048000D02*
X12672530Y-13057524D01*
X12672530Y-13057524D02*
X12634435Y-13057524D01*
X12634435Y-13057524D02*
X12615387Y-13048000D01*
X12615387Y-13048000D02*
X12605863Y-13028952D01*
X12605863Y-13028952D02*
X12605863Y-12952762D01*
X12605863Y-12952762D02*
X12615387Y-12933714D01*
X12615387Y-12933714D02*
X12634435Y-12924190D01*
X12634435Y-12924190D02*
X12672530Y-12924190D01*
X12672530Y-12924190D02*
X12691577Y-12933714D01*
X12691577Y-12933714D02*
X12701101Y-12952762D01*
X12701101Y-12952762D02*
X12701101Y-12971809D01*
X12701101Y-12971809D02*
X12605863Y-12990857D01*
X12777292Y-13048000D02*
X12796339Y-13057524D01*
X12796339Y-13057524D02*
X12834435Y-13057524D01*
X12834435Y-13057524D02*
X12853482Y-13048000D01*
X12853482Y-13048000D02*
X12863006Y-13028952D01*
X12863006Y-13028952D02*
X12863006Y-13019428D01*
X12863006Y-13019428D02*
X12853482Y-13000381D01*
X12853482Y-13000381D02*
X12834435Y-12990857D01*
X12834435Y-12990857D02*
X12805863Y-12990857D01*
X12805863Y-12990857D02*
X12786816Y-12981333D01*
X12786816Y-12981333D02*
X12777292Y-12962286D01*
X12777292Y-12962286D02*
X12777292Y-12952762D01*
X12777292Y-12952762D02*
X12786816Y-12933714D01*
X12786816Y-12933714D02*
X12805863Y-12924190D01*
X12805863Y-12924190D02*
X12834435Y-12924190D01*
X12834435Y-12924190D02*
X12853482Y-12933714D01*
X12929673Y-13133714D02*
X12939197Y-13124190D01*
X12939197Y-13124190D02*
X12958244Y-13095619D01*
X12958244Y-13095619D02*
X12967768Y-13076571D01*
X12967768Y-13076571D02*
X12977292Y-13048000D01*
X12977292Y-13048000D02*
X12986816Y-13000381D01*
X12986816Y-13000381D02*
X12986816Y-12962286D01*
X12986816Y-12962286D02*
X12977292Y-12914667D01*
X12977292Y-12914667D02*
X12967768Y-12886095D01*
X12967768Y-12886095D02*
X12958244Y-12867048D01*
X12958244Y-12867048D02*
X12939197Y-12838476D01*
X12939197Y-12838476D02*
X12929673Y-12828952D01*
D10*
X7977291Y-13229000D02*
G75*
G03*
X7977291Y-13229000I-50000J0D01*
G01*
D11*
X8329672Y-13321524D02*
X8215387Y-13321524D01*
X8272529Y-13321524D02*
X8272529Y-13121524D01*
X8272529Y-13121524D02*
X8253482Y-13150095D01*
X8253482Y-13150095D02*
X8234434Y-13169143D01*
X8234434Y-13169143D02*
X8215387Y-13178667D01*
X8415387Y-13302476D02*
X8424910Y-13312000D01*
X8424910Y-13312000D02*
X8415387Y-13321524D01*
X8415387Y-13321524D02*
X8405863Y-13312000D01*
X8405863Y-13312000D02*
X8415387Y-13302476D01*
X8415387Y-13302476D02*
X8415387Y-13321524D01*
X8548720Y-13121524D02*
X8567768Y-13121524D01*
X8567768Y-13121524D02*
X8586815Y-13131048D01*
X8586815Y-13131048D02*
X8596339Y-13140571D01*
X8596339Y-13140571D02*
X8605863Y-13159619D01*
X8605863Y-13159619D02*
X8615387Y-13197714D01*
X8615387Y-13197714D02*
X8615387Y-13245333D01*
X8615387Y-13245333D02*
X8605863Y-13283428D01*
X8605863Y-13283428D02*
X8596339Y-13302476D01*
X8596339Y-13302476D02*
X8586815Y-13312000D01*
X8586815Y-13312000D02*
X8567768Y-13321524D01*
X8567768Y-13321524D02*
X8548720Y-13321524D01*
X8548720Y-13321524D02*
X8529672Y-13312000D01*
X8529672Y-13312000D02*
X8520149Y-13302476D01*
X8520149Y-13302476D02*
X8510625Y-13283428D01*
X8510625Y-13283428D02*
X8501101Y-13245333D01*
X8501101Y-13245333D02*
X8501101Y-13197714D01*
X8501101Y-13197714D02*
X8510625Y-13159619D01*
X8510625Y-13159619D02*
X8520149Y-13140571D01*
X8520149Y-13140571D02*
X8529672Y-13131048D01*
X8529672Y-13131048D02*
X8548720Y-13121524D01*
X8739196Y-13121524D02*
X8758244Y-13121524D01*
X8758244Y-13121524D02*
X8777291Y-13131048D01*
X8777291Y-13131048D02*
X8786815Y-13140571D01*
X8786815Y-13140571D02*
X8796339Y-13159619D01*
X8796339Y-13159619D02*
X8805863Y-13197714D01*
X8805863Y-13197714D02*
X8805863Y-13245333D01*
X8805863Y-13245333D02*
X8796339Y-13283428D01*
X8796339Y-13283428D02*
X8786815Y-13302476D01*
X8786815Y-13302476D02*
X8777291Y-13312000D01*
X8777291Y-13312000D02*
X8758244Y-13321524D01*
X8758244Y-13321524D02*
X8739196Y-13321524D01*
X8739196Y-13321524D02*
X8720149Y-13312000D01*
X8720149Y-13312000D02*
X8710625Y-13302476D01*
X8710625Y-13302476D02*
X8701101Y-13283428D01*
X8701101Y-13283428D02*
X8691577Y-13245333D01*
X8691577Y-13245333D02*
X8691577Y-13197714D01*
X8691577Y-13197714D02*
X8701101Y-13159619D01*
X8701101Y-13159619D02*
X8710625Y-13140571D01*
X8710625Y-13140571D02*
X8720149Y-13131048D01*
X8720149Y-13131048D02*
X8739196Y-13121524D01*
X8929672Y-13121524D02*
X8948720Y-13121524D01*
X8948720Y-13121524D02*
X8967768Y-13131048D01*
X8967768Y-13131048D02*
X8977291Y-13140571D01*
X8977291Y-13140571D02*
X8986815Y-13159619D01*
X8986815Y-13159619D02*
X8996339Y-13197714D01*
X8996339Y-13197714D02*
X8996339Y-13245333D01*
X8996339Y-13245333D02*
X8986815Y-13283428D01*
X8986815Y-13283428D02*
X8977291Y-13302476D01*
X8977291Y-13302476D02*
X8967768Y-13312000D01*
X8967768Y-13312000D02*
X8948720Y-13321524D01*
X8948720Y-13321524D02*
X8929672Y-13321524D01*
X8929672Y-13321524D02*
X8910625Y-13312000D01*
X8910625Y-13312000D02*
X8901101Y-13302476D01*
X8901101Y-13302476D02*
X8891577Y-13283428D01*
X8891577Y-13283428D02*
X8882053Y-13245333D01*
X8882053Y-13245333D02*
X8882053Y-13197714D01*
X8882053Y-13197714D02*
X8891577Y-13159619D01*
X8891577Y-13159619D02*
X8901101Y-13140571D01*
X8901101Y-13140571D02*
X8910625Y-13131048D01*
X8910625Y-13131048D02*
X8929672Y-13121524D01*
X9082053Y-13321524D02*
X9082053Y-13188190D01*
X9082053Y-13207238D02*
X9091577Y-13197714D01*
X9091577Y-13197714D02*
X9110625Y-13188190D01*
X9110625Y-13188190D02*
X9139196Y-13188190D01*
X9139196Y-13188190D02*
X9158244Y-13197714D01*
X9158244Y-13197714D02*
X9167768Y-13216762D01*
X9167768Y-13216762D02*
X9167768Y-13321524D01*
X9167768Y-13216762D02*
X9177291Y-13197714D01*
X9177291Y-13197714D02*
X9196339Y-13188190D01*
X9196339Y-13188190D02*
X9224910Y-13188190D01*
X9224910Y-13188190D02*
X9243958Y-13197714D01*
X9243958Y-13197714D02*
X9253482Y-13216762D01*
X9253482Y-13216762D02*
X9253482Y-13321524D01*
X9348720Y-13321524D02*
X9348720Y-13188190D01*
X9348720Y-13207238D02*
X9358244Y-13197714D01*
X9358244Y-13197714D02*
X9377291Y-13188190D01*
X9377291Y-13188190D02*
X9405863Y-13188190D01*
X9405863Y-13188190D02*
X9424911Y-13197714D01*
X9424911Y-13197714D02*
X9434434Y-13216762D01*
X9434434Y-13216762D02*
X9434434Y-13321524D01*
X9434434Y-13216762D02*
X9443958Y-13197714D01*
X9443958Y-13197714D02*
X9463006Y-13188190D01*
X9463006Y-13188190D02*
X9491577Y-13188190D01*
X9491577Y-13188190D02*
X9510625Y-13197714D01*
X9510625Y-13197714D02*
X9520149Y-13216762D01*
X9520149Y-13216762D02*
X9520149Y-13321524D01*
X9910625Y-13112000D02*
X9739196Y-13369143D01*
X10167768Y-13121524D02*
X10186815Y-13121524D01*
X10186815Y-13121524D02*
X10205863Y-13131048D01*
X10205863Y-13131048D02*
X10215387Y-13140571D01*
X10215387Y-13140571D02*
X10224911Y-13159619D01*
X10224911Y-13159619D02*
X10234434Y-13197714D01*
X10234434Y-13197714D02*
X10234434Y-13245333D01*
X10234434Y-13245333D02*
X10224911Y-13283428D01*
X10224911Y-13283428D02*
X10215387Y-13302476D01*
X10215387Y-13302476D02*
X10205863Y-13312000D01*
X10205863Y-13312000D02*
X10186815Y-13321524D01*
X10186815Y-13321524D02*
X10167768Y-13321524D01*
X10167768Y-13321524D02*
X10148720Y-13312000D01*
X10148720Y-13312000D02*
X10139196Y-13302476D01*
X10139196Y-13302476D02*
X10129673Y-13283428D01*
X10129673Y-13283428D02*
X10120149Y-13245333D01*
X10120149Y-13245333D02*
X10120149Y-13197714D01*
X10120149Y-13197714D02*
X10129673Y-13159619D01*
X10129673Y-13159619D02*
X10139196Y-13140571D01*
X10139196Y-13140571D02*
X10148720Y-13131048D01*
X10148720Y-13131048D02*
X10167768Y-13121524D01*
X10320149Y-13302476D02*
X10329673Y-13312000D01*
X10329673Y-13312000D02*
X10320149Y-13321524D01*
X10320149Y-13321524D02*
X10310625Y-13312000D01*
X10310625Y-13312000D02*
X10320149Y-13302476D01*
X10320149Y-13302476D02*
X10320149Y-13321524D01*
X10453482Y-13121524D02*
X10472530Y-13121524D01*
X10472530Y-13121524D02*
X10491577Y-13131048D01*
X10491577Y-13131048D02*
X10501101Y-13140571D01*
X10501101Y-13140571D02*
X10510625Y-13159619D01*
X10510625Y-13159619D02*
X10520149Y-13197714D01*
X10520149Y-13197714D02*
X10520149Y-13245333D01*
X10520149Y-13245333D02*
X10510625Y-13283428D01*
X10510625Y-13283428D02*
X10501101Y-13302476D01*
X10501101Y-13302476D02*
X10491577Y-13312000D01*
X10491577Y-13312000D02*
X10472530Y-13321524D01*
X10472530Y-13321524D02*
X10453482Y-13321524D01*
X10453482Y-13321524D02*
X10434434Y-13312000D01*
X10434434Y-13312000D02*
X10424911Y-13302476D01*
X10424911Y-13302476D02*
X10415387Y-13283428D01*
X10415387Y-13283428D02*
X10405863Y-13245333D01*
X10405863Y-13245333D02*
X10405863Y-13197714D01*
X10405863Y-13197714D02*
X10415387Y-13159619D01*
X10415387Y-13159619D02*
X10424911Y-13140571D01*
X10424911Y-13140571D02*
X10434434Y-13131048D01*
X10434434Y-13131048D02*
X10453482Y-13121524D01*
X10586815Y-13121524D02*
X10710625Y-13121524D01*
X10710625Y-13121524D02*
X10643958Y-13197714D01*
X10643958Y-13197714D02*
X10672530Y-13197714D01*
X10672530Y-13197714D02*
X10691577Y-13207238D01*
X10691577Y-13207238D02*
X10701101Y-13216762D01*
X10701101Y-13216762D02*
X10710625Y-13235809D01*
X10710625Y-13235809D02*
X10710625Y-13283428D01*
X10710625Y-13283428D02*
X10701101Y-13302476D01*
X10701101Y-13302476D02*
X10691577Y-13312000D01*
X10691577Y-13312000D02*
X10672530Y-13321524D01*
X10672530Y-13321524D02*
X10615387Y-13321524D01*
X10615387Y-13321524D02*
X10596339Y-13312000D01*
X10596339Y-13312000D02*
X10586815Y-13302476D01*
X10805863Y-13321524D02*
X10843958Y-13321524D01*
X10843958Y-13321524D02*
X10863006Y-13312000D01*
X10863006Y-13312000D02*
X10872530Y-13302476D01*
X10872530Y-13302476D02*
X10891577Y-13273905D01*
X10891577Y-13273905D02*
X10901101Y-13235809D01*
X10901101Y-13235809D02*
X10901101Y-13159619D01*
X10901101Y-13159619D02*
X10891577Y-13140571D01*
X10891577Y-13140571D02*
X10882054Y-13131048D01*
X10882054Y-13131048D02*
X10863006Y-13121524D01*
X10863006Y-13121524D02*
X10824911Y-13121524D01*
X10824911Y-13121524D02*
X10805863Y-13131048D01*
X10805863Y-13131048D02*
X10796339Y-13140571D01*
X10796339Y-13140571D02*
X10786815Y-13159619D01*
X10786815Y-13159619D02*
X10786815Y-13207238D01*
X10786815Y-13207238D02*
X10796339Y-13226286D01*
X10796339Y-13226286D02*
X10805863Y-13235809D01*
X10805863Y-13235809D02*
X10824911Y-13245333D01*
X10824911Y-13245333D02*
X10863006Y-13245333D01*
X10863006Y-13245333D02*
X10882054Y-13235809D01*
X10882054Y-13235809D02*
X10891577Y-13226286D01*
X10891577Y-13226286D02*
X10901101Y-13207238D01*
X11072530Y-13188190D02*
X11072530Y-13321524D01*
X11024911Y-13112000D02*
X10977292Y-13254857D01*
X10977292Y-13254857D02*
X11101101Y-13254857D01*
X11167768Y-13121524D02*
X11167768Y-13159619D01*
X11243958Y-13121524D02*
X11243958Y-13159619D01*
X11539196Y-13397714D02*
X11529673Y-13388190D01*
X11529673Y-13388190D02*
X11510625Y-13359619D01*
X11510625Y-13359619D02*
X11501101Y-13340571D01*
X11501101Y-13340571D02*
X11491577Y-13312000D01*
X11491577Y-13312000D02*
X11482054Y-13264381D01*
X11482054Y-13264381D02*
X11482054Y-13226286D01*
X11482054Y-13226286D02*
X11491577Y-13178667D01*
X11491577Y-13178667D02*
X11501101Y-13150095D01*
X11501101Y-13150095D02*
X11510625Y-13131048D01*
X11510625Y-13131048D02*
X11529673Y-13102476D01*
X11529673Y-13102476D02*
X11539196Y-13092952D01*
X11701101Y-13121524D02*
X11663006Y-13121524D01*
X11663006Y-13121524D02*
X11643958Y-13131048D01*
X11643958Y-13131048D02*
X11634434Y-13140571D01*
X11634434Y-13140571D02*
X11615387Y-13169143D01*
X11615387Y-13169143D02*
X11605863Y-13207238D01*
X11605863Y-13207238D02*
X11605863Y-13283428D01*
X11605863Y-13283428D02*
X11615387Y-13302476D01*
X11615387Y-13302476D02*
X11624911Y-13312000D01*
X11624911Y-13312000D02*
X11643958Y-13321524D01*
X11643958Y-13321524D02*
X11682054Y-13321524D01*
X11682054Y-13321524D02*
X11701101Y-13312000D01*
X11701101Y-13312000D02*
X11710625Y-13302476D01*
X11710625Y-13302476D02*
X11720149Y-13283428D01*
X11720149Y-13283428D02*
X11720149Y-13235809D01*
X11720149Y-13235809D02*
X11710625Y-13216762D01*
X11710625Y-13216762D02*
X11701101Y-13207238D01*
X11701101Y-13207238D02*
X11682054Y-13197714D01*
X11682054Y-13197714D02*
X11643958Y-13197714D01*
X11643958Y-13197714D02*
X11624911Y-13207238D01*
X11624911Y-13207238D02*
X11615387Y-13216762D01*
X11615387Y-13216762D02*
X11605863Y-13235809D01*
X11958244Y-13321524D02*
X11958244Y-13121524D01*
X12043958Y-13321524D02*
X12043958Y-13216762D01*
X12043958Y-13216762D02*
X12034435Y-13197714D01*
X12034435Y-13197714D02*
X12015387Y-13188190D01*
X12015387Y-13188190D02*
X11986815Y-13188190D01*
X11986815Y-13188190D02*
X11967768Y-13197714D01*
X11967768Y-13197714D02*
X11958244Y-13207238D01*
X12167768Y-13321524D02*
X12148720Y-13312000D01*
X12148720Y-13312000D02*
X12139196Y-13302476D01*
X12139196Y-13302476D02*
X12129673Y-13283428D01*
X12129673Y-13283428D02*
X12129673Y-13226286D01*
X12129673Y-13226286D02*
X12139196Y-13207238D01*
X12139196Y-13207238D02*
X12148720Y-13197714D01*
X12148720Y-13197714D02*
X12167768Y-13188190D01*
X12167768Y-13188190D02*
X12196339Y-13188190D01*
X12196339Y-13188190D02*
X12215387Y-13197714D01*
X12215387Y-13197714D02*
X12224911Y-13207238D01*
X12224911Y-13207238D02*
X12234435Y-13226286D01*
X12234435Y-13226286D02*
X12234435Y-13283428D01*
X12234435Y-13283428D02*
X12224911Y-13302476D01*
X12224911Y-13302476D02*
X12215387Y-13312000D01*
X12215387Y-13312000D02*
X12196339Y-13321524D01*
X12196339Y-13321524D02*
X12167768Y-13321524D01*
X12348720Y-13321524D02*
X12329673Y-13312000D01*
X12329673Y-13312000D02*
X12320149Y-13292952D01*
X12320149Y-13292952D02*
X12320149Y-13121524D01*
X12501101Y-13312000D02*
X12482054Y-13321524D01*
X12482054Y-13321524D02*
X12443958Y-13321524D01*
X12443958Y-13321524D02*
X12424911Y-13312000D01*
X12424911Y-13312000D02*
X12415387Y-13292952D01*
X12415387Y-13292952D02*
X12415387Y-13216762D01*
X12415387Y-13216762D02*
X12424911Y-13197714D01*
X12424911Y-13197714D02*
X12443958Y-13188190D01*
X12443958Y-13188190D02*
X12482054Y-13188190D01*
X12482054Y-13188190D02*
X12501101Y-13197714D01*
X12501101Y-13197714D02*
X12510625Y-13216762D01*
X12510625Y-13216762D02*
X12510625Y-13235809D01*
X12510625Y-13235809D02*
X12415387Y-13254857D01*
X12586816Y-13312000D02*
X12605863Y-13321524D01*
X12605863Y-13321524D02*
X12643958Y-13321524D01*
X12643958Y-13321524D02*
X12663006Y-13312000D01*
X12663006Y-13312000D02*
X12672530Y-13292952D01*
X12672530Y-13292952D02*
X12672530Y-13283428D01*
X12672530Y-13283428D02*
X12663006Y-13264381D01*
X12663006Y-13264381D02*
X12643958Y-13254857D01*
X12643958Y-13254857D02*
X12615387Y-13254857D01*
X12615387Y-13254857D02*
X12596339Y-13245333D01*
X12596339Y-13245333D02*
X12586816Y-13226286D01*
X12586816Y-13226286D02*
X12586816Y-13216762D01*
X12586816Y-13216762D02*
X12596339Y-13197714D01*
X12596339Y-13197714D02*
X12615387Y-13188190D01*
X12615387Y-13188190D02*
X12643958Y-13188190D01*
X12643958Y-13188190D02*
X12663006Y-13197714D01*
X12739197Y-13397714D02*
X12748720Y-13388190D01*
X12748720Y-13388190D02*
X12767768Y-13359619D01*
X12767768Y-13359619D02*
X12777292Y-13340571D01*
X12777292Y-13340571D02*
X12786816Y-13312000D01*
X12786816Y-13312000D02*
X12796339Y-13264381D01*
X12796339Y-13264381D02*
X12796339Y-13226286D01*
X12796339Y-13226286D02*
X12786816Y-13178667D01*
X12786816Y-13178667D02*
X12777292Y-13150095D01*
X12777292Y-13150095D02*
X12767768Y-13131048D01*
X12767768Y-13131048D02*
X12748720Y-13102476D01*
X12748720Y-13102476D02*
X12739197Y-13092952D01*
M02*
