%TF.GenerationSoftware,KiCad,Pcbnew,7.0.2-6a45011f42~172~ubuntu22.04.1*%
%TF.CreationDate,2023-04-30T23:05:09-06:00*%
%TF.ProjectId,fancy-node,66616e63-792d-46e6-9f64-652e6b696361,rev?*%
%TF.SameCoordinates,Original*%
%TF.FileFunction,Legend,Top*%
%TF.FilePolarity,Positive*%
%FSLAX46Y46*%
G04 Gerber Fmt 4.6, Leading zero omitted, Abs format (unit mm)*
G04 Created by KiCad (PCBNEW 7.0.2-6a45011f42~172~ubuntu22.04.1) date 2023-04-30 23:05:09*
%MOMM*%
%LPD*%
G01*
G04 APERTURE LIST*
G04 Aperture macros list*
%AMRoundRect*
0 Rectangle with rounded corners*
0 $1 Rounding radius*
0 $2 $3 $4 $5 $6 $7 $8 $9 X,Y pos of 4 corners*
0 Add a 4 corners polygon primitive as box body*
4,1,4,$2,$3,$4,$5,$6,$7,$8,$9,$2,$3,0*
0 Add four circle primitives for the rounded corners*
1,1,$1+$1,$2,$3*
1,1,$1+$1,$4,$5*
1,1,$1+$1,$6,$7*
1,1,$1+$1,$8,$9*
0 Add four rect primitives between the rounded corners*
20,1,$1+$1,$2,$3,$4,$5,0*
20,1,$1+$1,$4,$5,$6,$7,0*
20,1,$1+$1,$6,$7,$8,$9,0*
20,1,$1+$1,$8,$9,$2,$3,0*%
%AMFreePoly0*
4,1,9,3.862500,-0.866500,0.737500,-0.866500,0.737500,-0.450000,-0.737500,-0.450000,-0.737500,0.450000,0.737500,0.450000,0.737500,0.866500,3.862500,0.866500,3.862500,-0.866500,3.862500,-0.866500,$1*%
G04 Aperture macros list end*
%ADD10C,0.150000*%
%ADD11C,0.200000*%
%ADD12C,0.120000*%
%ADD13C,0.127000*%
%ADD14C,1.408000*%
%ADD15C,1.800000*%
%ADD16RoundRect,0.200000X0.275000X-0.200000X0.275000X0.200000X-0.275000X0.200000X-0.275000X-0.200000X0*%
%ADD17RoundRect,0.135000X0.185000X-0.135000X0.185000X0.135000X-0.185000X0.135000X-0.185000X-0.135000X0*%
%ADD18R,0.900000X1.250000*%
%ADD19RoundRect,0.225000X-0.225000X-0.250000X0.225000X-0.250000X0.225000X0.250000X-0.225000X0.250000X0*%
%ADD20RoundRect,0.155000X0.212500X0.155000X-0.212500X0.155000X-0.212500X-0.155000X0.212500X-0.155000X0*%
%ADD21RoundRect,0.225000X-0.250000X0.225000X-0.250000X-0.225000X0.250000X-0.225000X0.250000X0.225000X0*%
%ADD22RoundRect,0.155000X0.155000X-0.212500X0.155000X0.212500X-0.155000X0.212500X-0.155000X-0.212500X0*%
%ADD23RoundRect,0.050000X0.200000X0.675000X-0.200000X0.675000X-0.200000X-0.675000X0.200000X-0.675000X0*%
%ADD24R,1.500000X1.550000*%
%ADD25RoundRect,0.218750X-0.218750X-0.256250X0.218750X-0.256250X0.218750X0.256250X-0.218750X0.256250X0*%
%ADD26RoundRect,0.135000X-0.135000X-0.185000X0.135000X-0.185000X0.135000X0.185000X-0.135000X0.185000X0*%
%ADD27R,0.300000X1.400000*%
%ADD28RoundRect,0.218750X0.218750X0.256250X-0.218750X0.256250X-0.218750X-0.256250X0.218750X-0.256250X0*%
%ADD29R,1.500000X0.900000*%
%ADD30RoundRect,0.200000X-0.275000X0.200000X-0.275000X-0.200000X0.275000X-0.200000X0.275000X0.200000X0*%
%ADD31RoundRect,0.250000X-0.650000X0.325000X-0.650000X-0.325000X0.650000X-0.325000X0.650000X0.325000X0*%
%ADD32RoundRect,0.150000X0.150000X-0.675000X0.150000X0.675000X-0.150000X0.675000X-0.150000X-0.675000X0*%
%ADD33R,3.800000X2.700000*%
%ADD34RoundRect,0.250000X-1.000000X-0.650000X1.000000X-0.650000X1.000000X0.650000X-1.000000X0.650000X0*%
%ADD35RoundRect,0.250000X-0.325000X-0.650000X0.325000X-0.650000X0.325000X0.650000X-0.325000X0.650000X0*%
%ADD36RoundRect,0.147500X-0.147500X-0.172500X0.147500X-0.172500X0.147500X0.172500X-0.147500X0.172500X0*%
%ADD37RoundRect,0.200000X0.200000X0.275000X-0.200000X0.275000X-0.200000X-0.275000X0.200000X-0.275000X0*%
%ADD38RoundRect,0.155000X-0.155000X0.212500X-0.155000X-0.212500X0.155000X-0.212500X0.155000X0.212500X0*%
%ADD39RoundRect,0.250000X1.000000X0.900000X-1.000000X0.900000X-1.000000X-0.900000X1.000000X-0.900000X0*%
%ADD40C,3.200000*%
%ADD41RoundRect,0.225000X0.250000X-0.225000X0.250000X0.225000X-0.250000X0.225000X-0.250000X-0.225000X0*%
%ADD42RoundRect,0.250000X0.900000X-1.000000X0.900000X1.000000X-0.900000X1.000000X-0.900000X-1.000000X0*%
%ADD43RoundRect,0.250000X-1.450000X0.400000X-1.450000X-0.400000X1.450000X-0.400000X1.450000X0.400000X0*%
%ADD44R,0.900000X1.300000*%
%ADD45FreePoly0,90.000000*%
%ADD46R,1.250000X0.900000*%
%ADD47RoundRect,0.150000X-0.150000X0.512500X-0.150000X-0.512500X0.150000X-0.512500X0.150000X0.512500X0*%
%ADD48RoundRect,0.155000X-0.212500X-0.155000X0.212500X-0.155000X0.212500X0.155000X-0.212500X0.155000X0*%
%ADD49RoundRect,0.075000X-0.662500X-0.075000X0.662500X-0.075000X0.662500X0.075000X-0.662500X0.075000X0*%
%ADD50RoundRect,0.075000X-0.075000X-0.662500X0.075000X-0.662500X0.075000X0.662500X-0.075000X0.662500X0*%
%ADD51R,1.700000X1.700000*%
%ADD52O,1.700000X1.700000*%
%ADD53R,1.800000X1.800000*%
%ADD54R,1.000000X1.000000*%
%ADD55C,1.000000*%
%ADD56C,1.700000*%
G04 APERTURE END LIST*
D10*
X83938095Y-112796666D02*
X84700000Y-112796666D01*
X83961904Y-86525238D02*
X83866666Y-86477619D01*
X83866666Y-86477619D02*
X83723809Y-86477619D01*
X83723809Y-86477619D02*
X83580952Y-86525238D01*
X83580952Y-86525238D02*
X83485714Y-86620476D01*
X83485714Y-86620476D02*
X83438095Y-86715714D01*
X83438095Y-86715714D02*
X83390476Y-86906190D01*
X83390476Y-86906190D02*
X83390476Y-87049047D01*
X83390476Y-87049047D02*
X83438095Y-87239523D01*
X83438095Y-87239523D02*
X83485714Y-87334761D01*
X83485714Y-87334761D02*
X83580952Y-87430000D01*
X83580952Y-87430000D02*
X83723809Y-87477619D01*
X83723809Y-87477619D02*
X83819047Y-87477619D01*
X83819047Y-87477619D02*
X83961904Y-87430000D01*
X83961904Y-87430000D02*
X84009523Y-87382380D01*
X84009523Y-87382380D02*
X84009523Y-87049047D01*
X84009523Y-87049047D02*
X83819047Y-87049047D01*
X87377619Y-91857142D02*
X87377619Y-91238095D01*
X87377619Y-91238095D02*
X87758571Y-91571428D01*
X87758571Y-91571428D02*
X87758571Y-91428571D01*
X87758571Y-91428571D02*
X87806190Y-91333333D01*
X87806190Y-91333333D02*
X87853809Y-91285714D01*
X87853809Y-91285714D02*
X87949047Y-91238095D01*
X87949047Y-91238095D02*
X88187142Y-91238095D01*
X88187142Y-91238095D02*
X88282380Y-91285714D01*
X88282380Y-91285714D02*
X88330000Y-91333333D01*
X88330000Y-91333333D02*
X88377619Y-91428571D01*
X88377619Y-91428571D02*
X88377619Y-91714285D01*
X88377619Y-91714285D02*
X88330000Y-91809523D01*
X88330000Y-91809523D02*
X88282380Y-91857142D01*
X87377619Y-90952380D02*
X88377619Y-90619047D01*
X88377619Y-90619047D02*
X87377619Y-90285714D01*
X87377619Y-90047618D02*
X87377619Y-89428571D01*
X87377619Y-89428571D02*
X87758571Y-89761904D01*
X87758571Y-89761904D02*
X87758571Y-89619047D01*
X87758571Y-89619047D02*
X87806190Y-89523809D01*
X87806190Y-89523809D02*
X87853809Y-89476190D01*
X87853809Y-89476190D02*
X87949047Y-89428571D01*
X87949047Y-89428571D02*
X88187142Y-89428571D01*
X88187142Y-89428571D02*
X88282380Y-89476190D01*
X88282380Y-89476190D02*
X88330000Y-89523809D01*
X88330000Y-89523809D02*
X88377619Y-89619047D01*
X88377619Y-89619047D02*
X88377619Y-89904761D01*
X88377619Y-89904761D02*
X88330000Y-89999999D01*
X88330000Y-89999999D02*
X88282380Y-90047618D01*
X86538095Y-112977619D02*
X86538095Y-111977619D01*
X87204761Y-111977619D02*
X87395237Y-111977619D01*
X87395237Y-111977619D02*
X87490475Y-112025238D01*
X87490475Y-112025238D02*
X87585713Y-112120476D01*
X87585713Y-112120476D02*
X87633332Y-112310952D01*
X87633332Y-112310952D02*
X87633332Y-112644285D01*
X87633332Y-112644285D02*
X87585713Y-112834761D01*
X87585713Y-112834761D02*
X87490475Y-112930000D01*
X87490475Y-112930000D02*
X87395237Y-112977619D01*
X87395237Y-112977619D02*
X87204761Y-112977619D01*
X87204761Y-112977619D02*
X87109523Y-112930000D01*
X87109523Y-112930000D02*
X87014285Y-112834761D01*
X87014285Y-112834761D02*
X86966666Y-112644285D01*
X86966666Y-112644285D02*
X86966666Y-112310952D01*
X86966666Y-112310952D02*
X87014285Y-112120476D01*
X87014285Y-112120476D02*
X87109523Y-112025238D01*
X87109523Y-112025238D02*
X87204761Y-111977619D01*
D11*
X96421904Y-116109523D02*
X96421904Y-115347619D01*
X97755238Y-115823809D02*
X96040952Y-115823809D01*
X96040952Y-115823809D02*
X95850476Y-115728571D01*
X95850476Y-115728571D02*
X95755238Y-115538095D01*
X95755238Y-115538095D02*
X95755238Y-115347619D01*
X97755238Y-113823809D02*
X96707619Y-113823809D01*
X96707619Y-113823809D02*
X96517142Y-113919047D01*
X96517142Y-113919047D02*
X96421904Y-114109523D01*
X96421904Y-114109523D02*
X96421904Y-114490476D01*
X96421904Y-114490476D02*
X96517142Y-114680952D01*
X97660000Y-113823809D02*
X97755238Y-114014285D01*
X97755238Y-114014285D02*
X97755238Y-114490476D01*
X97755238Y-114490476D02*
X97660000Y-114680952D01*
X97660000Y-114680952D02*
X97469523Y-114776190D01*
X97469523Y-114776190D02*
X97279047Y-114776190D01*
X97279047Y-114776190D02*
X97088571Y-114680952D01*
X97088571Y-114680952D02*
X96993333Y-114490476D01*
X96993333Y-114490476D02*
X96993333Y-114014285D01*
X96993333Y-114014285D02*
X96898095Y-113823809D01*
X96421904Y-112871428D02*
X97755238Y-112871428D01*
X96612380Y-112871428D02*
X96517142Y-112776190D01*
X96517142Y-112776190D02*
X96421904Y-112585714D01*
X96421904Y-112585714D02*
X96421904Y-112299999D01*
X96421904Y-112299999D02*
X96517142Y-112109523D01*
X96517142Y-112109523D02*
X96707619Y-112014285D01*
X96707619Y-112014285D02*
X97755238Y-112014285D01*
X97660000Y-110204761D02*
X97755238Y-110395237D01*
X97755238Y-110395237D02*
X97755238Y-110776190D01*
X97755238Y-110776190D02*
X97660000Y-110966666D01*
X97660000Y-110966666D02*
X97564761Y-111061904D01*
X97564761Y-111061904D02*
X97374285Y-111157142D01*
X97374285Y-111157142D02*
X96802857Y-111157142D01*
X96802857Y-111157142D02*
X96612380Y-111061904D01*
X96612380Y-111061904D02*
X96517142Y-110966666D01*
X96517142Y-110966666D02*
X96421904Y-110776190D01*
X96421904Y-110776190D02*
X96421904Y-110395237D01*
X96421904Y-110395237D02*
X96517142Y-110204761D01*
X96421904Y-109538094D02*
X97755238Y-109061904D01*
X96421904Y-108585713D02*
X97755238Y-109061904D01*
X97755238Y-109061904D02*
X98231428Y-109252380D01*
X98231428Y-109252380D02*
X98326666Y-109347618D01*
X98326666Y-109347618D02*
X98421904Y-109538094D01*
X96993333Y-107823808D02*
X96993333Y-106299999D01*
X96421904Y-105347618D02*
X97755238Y-105347618D01*
X96612380Y-105347618D02*
X96517142Y-105252380D01*
X96517142Y-105252380D02*
X96421904Y-105061904D01*
X96421904Y-105061904D02*
X96421904Y-104776189D01*
X96421904Y-104776189D02*
X96517142Y-104585713D01*
X96517142Y-104585713D02*
X96707619Y-104490475D01*
X96707619Y-104490475D02*
X97755238Y-104490475D01*
X97755238Y-103252380D02*
X97660000Y-103442856D01*
X97660000Y-103442856D02*
X97564761Y-103538094D01*
X97564761Y-103538094D02*
X97374285Y-103633332D01*
X97374285Y-103633332D02*
X96802857Y-103633332D01*
X96802857Y-103633332D02*
X96612380Y-103538094D01*
X96612380Y-103538094D02*
X96517142Y-103442856D01*
X96517142Y-103442856D02*
X96421904Y-103252380D01*
X96421904Y-103252380D02*
X96421904Y-102966665D01*
X96421904Y-102966665D02*
X96517142Y-102776189D01*
X96517142Y-102776189D02*
X96612380Y-102680951D01*
X96612380Y-102680951D02*
X96802857Y-102585713D01*
X96802857Y-102585713D02*
X97374285Y-102585713D01*
X97374285Y-102585713D02*
X97564761Y-102680951D01*
X97564761Y-102680951D02*
X97660000Y-102776189D01*
X97660000Y-102776189D02*
X97755238Y-102966665D01*
X97755238Y-102966665D02*
X97755238Y-103252380D01*
X97755238Y-100871427D02*
X95755238Y-100871427D01*
X97660000Y-100871427D02*
X97755238Y-101061903D01*
X97755238Y-101061903D02*
X97755238Y-101442856D01*
X97755238Y-101442856D02*
X97660000Y-101633332D01*
X97660000Y-101633332D02*
X97564761Y-101728570D01*
X97564761Y-101728570D02*
X97374285Y-101823808D01*
X97374285Y-101823808D02*
X96802857Y-101823808D01*
X96802857Y-101823808D02*
X96612380Y-101728570D01*
X96612380Y-101728570D02*
X96517142Y-101633332D01*
X96517142Y-101633332D02*
X96421904Y-101442856D01*
X96421904Y-101442856D02*
X96421904Y-101061903D01*
X96421904Y-101061903D02*
X96517142Y-100871427D01*
X97660000Y-99157141D02*
X97755238Y-99347617D01*
X97755238Y-99347617D02*
X97755238Y-99728570D01*
X97755238Y-99728570D02*
X97660000Y-99919046D01*
X97660000Y-99919046D02*
X97469523Y-100014284D01*
X97469523Y-100014284D02*
X96707619Y-100014284D01*
X96707619Y-100014284D02*
X96517142Y-99919046D01*
X96517142Y-99919046D02*
X96421904Y-99728570D01*
X96421904Y-99728570D02*
X96421904Y-99347617D01*
X96421904Y-99347617D02*
X96517142Y-99157141D01*
X96517142Y-99157141D02*
X96707619Y-99061903D01*
X96707619Y-99061903D02*
X96898095Y-99061903D01*
X96898095Y-99061903D02*
X97088571Y-100014284D01*
X96421904Y-96871426D02*
X97755238Y-96395236D01*
X97755238Y-96395236D02*
X96421904Y-95919045D01*
X97755238Y-94109521D02*
X97755238Y-95252378D01*
X97755238Y-94680950D02*
X95755238Y-94680950D01*
X95755238Y-94680950D02*
X96040952Y-94871426D01*
X96040952Y-94871426D02*
X96231428Y-95061902D01*
X96231428Y-95061902D02*
X96326666Y-95252378D01*
X97564761Y-93252378D02*
X97660000Y-93157140D01*
X97660000Y-93157140D02*
X97755238Y-93252378D01*
X97755238Y-93252378D02*
X97660000Y-93347616D01*
X97660000Y-93347616D02*
X97564761Y-93252378D01*
X97564761Y-93252378D02*
X97755238Y-93252378D01*
X95945714Y-92395235D02*
X95850476Y-92299997D01*
X95850476Y-92299997D02*
X95755238Y-92109521D01*
X95755238Y-92109521D02*
X95755238Y-91633330D01*
X95755238Y-91633330D02*
X95850476Y-91442854D01*
X95850476Y-91442854D02*
X95945714Y-91347616D01*
X95945714Y-91347616D02*
X96136190Y-91252378D01*
X96136190Y-91252378D02*
X96326666Y-91252378D01*
X96326666Y-91252378D02*
X96612380Y-91347616D01*
X96612380Y-91347616D02*
X97755238Y-92490473D01*
X97755238Y-92490473D02*
X97755238Y-91252378D01*
D10*
X91690476Y-91391904D02*
X92166666Y-91391904D01*
X91595238Y-91677619D02*
X91928571Y-90677619D01*
X91928571Y-90677619D02*
X92261904Y-91677619D01*
X92785714Y-90677619D02*
X92880952Y-90677619D01*
X92880952Y-90677619D02*
X92976190Y-90725238D01*
X92976190Y-90725238D02*
X93023809Y-90772857D01*
X93023809Y-90772857D02*
X93071428Y-90868095D01*
X93071428Y-90868095D02*
X93119047Y-91058571D01*
X93119047Y-91058571D02*
X93119047Y-91296666D01*
X93119047Y-91296666D02*
X93071428Y-91487142D01*
X93071428Y-91487142D02*
X93023809Y-91582380D01*
X93023809Y-91582380D02*
X92976190Y-91630000D01*
X92976190Y-91630000D02*
X92880952Y-91677619D01*
X92880952Y-91677619D02*
X92785714Y-91677619D01*
X92785714Y-91677619D02*
X92690476Y-91630000D01*
X92690476Y-91630000D02*
X92642857Y-91582380D01*
X92642857Y-91582380D02*
X92595238Y-91487142D01*
X92595238Y-91487142D02*
X92547619Y-91296666D01*
X92547619Y-91296666D02*
X92547619Y-91058571D01*
X92547619Y-91058571D02*
X92595238Y-90868095D01*
X92595238Y-90868095D02*
X92642857Y-90772857D01*
X92642857Y-90772857D02*
X92690476Y-90725238D01*
X92690476Y-90725238D02*
X92785714Y-90677619D01*
X56738095Y-93696666D02*
X57500000Y-93696666D01*
X57119047Y-94077619D02*
X57119047Y-93315714D01*
X58309523Y-93553809D02*
X58452380Y-93601428D01*
X58452380Y-93601428D02*
X58499999Y-93649047D01*
X58499999Y-93649047D02*
X58547618Y-93744285D01*
X58547618Y-93744285D02*
X58547618Y-93887142D01*
X58547618Y-93887142D02*
X58499999Y-93982380D01*
X58499999Y-93982380D02*
X58452380Y-94030000D01*
X58452380Y-94030000D02*
X58357142Y-94077619D01*
X58357142Y-94077619D02*
X57976190Y-94077619D01*
X57976190Y-94077619D02*
X57976190Y-93077619D01*
X57976190Y-93077619D02*
X58309523Y-93077619D01*
X58309523Y-93077619D02*
X58404761Y-93125238D01*
X58404761Y-93125238D02*
X58452380Y-93172857D01*
X58452380Y-93172857D02*
X58499999Y-93268095D01*
X58499999Y-93268095D02*
X58499999Y-93363333D01*
X58499999Y-93363333D02*
X58452380Y-93458571D01*
X58452380Y-93458571D02*
X58404761Y-93506190D01*
X58404761Y-93506190D02*
X58309523Y-93553809D01*
X58309523Y-93553809D02*
X57976190Y-93553809D01*
X58928571Y-93791904D02*
X59404761Y-93791904D01*
X58833333Y-94077619D02*
X59166666Y-93077619D01*
X59166666Y-93077619D02*
X59499999Y-94077619D01*
X59690476Y-93077619D02*
X60261904Y-93077619D01*
X59976190Y-94077619D02*
X59976190Y-93077619D01*
X60452381Y-93077619D02*
X61023809Y-93077619D01*
X60738095Y-94077619D02*
X60738095Y-93077619D01*
X54938095Y-99896666D02*
X55700000Y-99896666D01*
X81438095Y-112896666D02*
X82200000Y-112896666D01*
X81819047Y-113277619D02*
X81819047Y-112515714D01*
X86909523Y-99577619D02*
X86576190Y-99101428D01*
X86338095Y-99577619D02*
X86338095Y-98577619D01*
X86338095Y-98577619D02*
X86719047Y-98577619D01*
X86719047Y-98577619D02*
X86814285Y-98625238D01*
X86814285Y-98625238D02*
X86861904Y-98672857D01*
X86861904Y-98672857D02*
X86909523Y-98768095D01*
X86909523Y-98768095D02*
X86909523Y-98910952D01*
X86909523Y-98910952D02*
X86861904Y-99006190D01*
X86861904Y-99006190D02*
X86814285Y-99053809D01*
X86814285Y-99053809D02*
X86719047Y-99101428D01*
X86719047Y-99101428D02*
X86338095Y-99101428D01*
X87338095Y-99053809D02*
X87671428Y-99053809D01*
X87814285Y-99577619D02*
X87338095Y-99577619D01*
X87338095Y-99577619D02*
X87338095Y-98577619D01*
X87338095Y-98577619D02*
X87814285Y-98577619D01*
X88195238Y-99530000D02*
X88338095Y-99577619D01*
X88338095Y-99577619D02*
X88576190Y-99577619D01*
X88576190Y-99577619D02*
X88671428Y-99530000D01*
X88671428Y-99530000D02*
X88719047Y-99482380D01*
X88719047Y-99482380D02*
X88766666Y-99387142D01*
X88766666Y-99387142D02*
X88766666Y-99291904D01*
X88766666Y-99291904D02*
X88719047Y-99196666D01*
X88719047Y-99196666D02*
X88671428Y-99149047D01*
X88671428Y-99149047D02*
X88576190Y-99101428D01*
X88576190Y-99101428D02*
X88385714Y-99053809D01*
X88385714Y-99053809D02*
X88290476Y-99006190D01*
X88290476Y-99006190D02*
X88242857Y-98958571D01*
X88242857Y-98958571D02*
X88195238Y-98863333D01*
X88195238Y-98863333D02*
X88195238Y-98768095D01*
X88195238Y-98768095D02*
X88242857Y-98672857D01*
X88242857Y-98672857D02*
X88290476Y-98625238D01*
X88290476Y-98625238D02*
X88385714Y-98577619D01*
X88385714Y-98577619D02*
X88623809Y-98577619D01*
X88623809Y-98577619D02*
X88766666Y-98625238D01*
X89195238Y-99053809D02*
X89528571Y-99053809D01*
X89671428Y-99577619D02*
X89195238Y-99577619D01*
X89195238Y-99577619D02*
X89195238Y-98577619D01*
X89195238Y-98577619D02*
X89671428Y-98577619D01*
X89957143Y-98577619D02*
X90528571Y-98577619D01*
X90242857Y-99577619D02*
X90242857Y-98577619D01*
X94590476Y-90091904D02*
X95066666Y-90091904D01*
X94495238Y-90377619D02*
X94828571Y-89377619D01*
X94828571Y-89377619D02*
X95161904Y-90377619D01*
X96019047Y-90377619D02*
X95447619Y-90377619D01*
X95733333Y-90377619D02*
X95733333Y-89377619D01*
X95733333Y-89377619D02*
X95638095Y-89520476D01*
X95638095Y-89520476D02*
X95542857Y-89615714D01*
X95542857Y-89615714D02*
X95447619Y-89663333D01*
X56138095Y-106196666D02*
X56900000Y-106196666D01*
X57414285Y-91477619D02*
X56938095Y-91477619D01*
X56938095Y-91477619D02*
X56938095Y-90477619D01*
X57747619Y-90953809D02*
X58080952Y-90953809D01*
X58223809Y-91477619D02*
X57747619Y-91477619D01*
X57747619Y-91477619D02*
X57747619Y-90477619D01*
X57747619Y-90477619D02*
X58223809Y-90477619D01*
X58652381Y-91477619D02*
X58652381Y-90477619D01*
X58652381Y-90477619D02*
X58890476Y-90477619D01*
X58890476Y-90477619D02*
X59033333Y-90525238D01*
X59033333Y-90525238D02*
X59128571Y-90620476D01*
X59128571Y-90620476D02*
X59176190Y-90715714D01*
X59176190Y-90715714D02*
X59223809Y-90906190D01*
X59223809Y-90906190D02*
X59223809Y-91049047D01*
X59223809Y-91049047D02*
X59176190Y-91239523D01*
X59176190Y-91239523D02*
X59128571Y-91334761D01*
X59128571Y-91334761D02*
X59033333Y-91430000D01*
X59033333Y-91430000D02*
X58890476Y-91477619D01*
X58890476Y-91477619D02*
X58652381Y-91477619D01*
X89803333Y-89663095D02*
X89803333Y-90425000D01*
X89422380Y-90044047D02*
X90184285Y-90044047D01*
X89946190Y-91234523D02*
X89898571Y-91377380D01*
X89898571Y-91377380D02*
X89850952Y-91424999D01*
X89850952Y-91424999D02*
X89755714Y-91472618D01*
X89755714Y-91472618D02*
X89612857Y-91472618D01*
X89612857Y-91472618D02*
X89517619Y-91424999D01*
X89517619Y-91424999D02*
X89470000Y-91377380D01*
X89470000Y-91377380D02*
X89422380Y-91282142D01*
X89422380Y-91282142D02*
X89422380Y-90901190D01*
X89422380Y-90901190D02*
X90422380Y-90901190D01*
X90422380Y-90901190D02*
X90422380Y-91234523D01*
X90422380Y-91234523D02*
X90374761Y-91329761D01*
X90374761Y-91329761D02*
X90327142Y-91377380D01*
X90327142Y-91377380D02*
X90231904Y-91424999D01*
X90231904Y-91424999D02*
X90136666Y-91424999D01*
X90136666Y-91424999D02*
X90041428Y-91377380D01*
X90041428Y-91377380D02*
X89993809Y-91329761D01*
X89993809Y-91329761D02*
X89946190Y-91234523D01*
X89946190Y-91234523D02*
X89946190Y-90901190D01*
X89708095Y-91853571D02*
X89708095Y-92329761D01*
X89422380Y-91758333D02*
X90422380Y-92091666D01*
X90422380Y-92091666D02*
X89422380Y-92424999D01*
X90422380Y-92615476D02*
X90422380Y-93186904D01*
X89422380Y-92901190D02*
X90422380Y-92901190D01*
X90422380Y-93377381D02*
X90422380Y-93948809D01*
X89422380Y-93663095D02*
X90422380Y-93663095D01*
X54938095Y-98596666D02*
X55700000Y-98596666D01*
X55319047Y-98977619D02*
X55319047Y-98215714D01*
X58861904Y-87925238D02*
X58766666Y-87877619D01*
X58766666Y-87877619D02*
X58623809Y-87877619D01*
X58623809Y-87877619D02*
X58480952Y-87925238D01*
X58480952Y-87925238D02*
X58385714Y-88020476D01*
X58385714Y-88020476D02*
X58338095Y-88115714D01*
X58338095Y-88115714D02*
X58290476Y-88306190D01*
X58290476Y-88306190D02*
X58290476Y-88449047D01*
X58290476Y-88449047D02*
X58338095Y-88639523D01*
X58338095Y-88639523D02*
X58385714Y-88734761D01*
X58385714Y-88734761D02*
X58480952Y-88830000D01*
X58480952Y-88830000D02*
X58623809Y-88877619D01*
X58623809Y-88877619D02*
X58719047Y-88877619D01*
X58719047Y-88877619D02*
X58861904Y-88830000D01*
X58861904Y-88830000D02*
X58909523Y-88782380D01*
X58909523Y-88782380D02*
X58909523Y-88449047D01*
X58909523Y-88449047D02*
X58719047Y-88449047D01*
X59338095Y-88877619D02*
X59338095Y-87877619D01*
X59338095Y-87877619D02*
X59909523Y-88877619D01*
X59909523Y-88877619D02*
X59909523Y-87877619D01*
X60385714Y-88877619D02*
X60385714Y-87877619D01*
X60385714Y-87877619D02*
X60623809Y-87877619D01*
X60623809Y-87877619D02*
X60766666Y-87925238D01*
X60766666Y-87925238D02*
X60861904Y-88020476D01*
X60861904Y-88020476D02*
X60909523Y-88115714D01*
X60909523Y-88115714D02*
X60957142Y-88306190D01*
X60957142Y-88306190D02*
X60957142Y-88449047D01*
X60957142Y-88449047D02*
X60909523Y-88639523D01*
X60909523Y-88639523D02*
X60861904Y-88734761D01*
X60861904Y-88734761D02*
X60766666Y-88830000D01*
X60766666Y-88830000D02*
X60623809Y-88877619D01*
X60623809Y-88877619D02*
X60385714Y-88877619D01*
X91609523Y-114882380D02*
X91561904Y-114930000D01*
X91561904Y-114930000D02*
X91419047Y-114977619D01*
X91419047Y-114977619D02*
X91323809Y-114977619D01*
X91323809Y-114977619D02*
X91180952Y-114930000D01*
X91180952Y-114930000D02*
X91085714Y-114834761D01*
X91085714Y-114834761D02*
X91038095Y-114739523D01*
X91038095Y-114739523D02*
X90990476Y-114549047D01*
X90990476Y-114549047D02*
X90990476Y-114406190D01*
X90990476Y-114406190D02*
X91038095Y-114215714D01*
X91038095Y-114215714D02*
X91085714Y-114120476D01*
X91085714Y-114120476D02*
X91180952Y-114025238D01*
X91180952Y-114025238D02*
X91323809Y-113977619D01*
X91323809Y-113977619D02*
X91419047Y-113977619D01*
X91419047Y-113977619D02*
X91561904Y-114025238D01*
X91561904Y-114025238D02*
X91609523Y-114072857D01*
X92514285Y-114977619D02*
X92038095Y-114977619D01*
X92038095Y-114977619D02*
X92038095Y-113977619D01*
X92847619Y-114977619D02*
X92847619Y-113977619D01*
X93419047Y-114977619D02*
X92990476Y-114406190D01*
X93419047Y-113977619D02*
X92847619Y-114549047D01*
X97190476Y-90191904D02*
X97666666Y-90191904D01*
X97095238Y-90477619D02*
X97428571Y-89477619D01*
X97428571Y-89477619D02*
X97761904Y-90477619D01*
X98047619Y-89572857D02*
X98095238Y-89525238D01*
X98095238Y-89525238D02*
X98190476Y-89477619D01*
X98190476Y-89477619D02*
X98428571Y-89477619D01*
X98428571Y-89477619D02*
X98523809Y-89525238D01*
X98523809Y-89525238D02*
X98571428Y-89572857D01*
X98571428Y-89572857D02*
X98619047Y-89668095D01*
X98619047Y-89668095D02*
X98619047Y-89763333D01*
X98619047Y-89763333D02*
X98571428Y-89906190D01*
X98571428Y-89906190D02*
X98000000Y-90477619D01*
X98000000Y-90477619D02*
X98619047Y-90477619D01*
X67928571Y-114890119D02*
X68119047Y-114890119D01*
X68119047Y-114890119D02*
X68214285Y-114937738D01*
X68214285Y-114937738D02*
X68309523Y-115032976D01*
X68309523Y-115032976D02*
X68357142Y-115223452D01*
X68357142Y-115223452D02*
X68357142Y-115556785D01*
X68357142Y-115556785D02*
X68309523Y-115747261D01*
X68309523Y-115747261D02*
X68214285Y-115842500D01*
X68214285Y-115842500D02*
X68119047Y-115890119D01*
X68119047Y-115890119D02*
X67928571Y-115890119D01*
X67928571Y-115890119D02*
X67833333Y-115842500D01*
X67833333Y-115842500D02*
X67738095Y-115747261D01*
X67738095Y-115747261D02*
X67690476Y-115556785D01*
X67690476Y-115556785D02*
X67690476Y-115223452D01*
X67690476Y-115223452D02*
X67738095Y-115032976D01*
X67738095Y-115032976D02*
X67833333Y-114937738D01*
X67833333Y-114937738D02*
X67928571Y-114890119D01*
X68785714Y-115890119D02*
X68785714Y-114890119D01*
X68785714Y-114890119D02*
X69357142Y-115890119D01*
X69357142Y-115890119D02*
X69357142Y-114890119D01*
X56138095Y-108796666D02*
X56900000Y-108796666D01*
X56519047Y-109177619D02*
X56519047Y-108415714D01*
%TO.C,U3*%
X69985714Y-87962619D02*
X69414286Y-87962619D01*
X69700000Y-87962619D02*
X69700000Y-86962619D01*
X69700000Y-86962619D02*
X69604762Y-87105476D01*
X69604762Y-87105476D02*
X69509524Y-87200714D01*
X69509524Y-87200714D02*
X69414286Y-87248333D01*
D12*
%TO.C,R9*%
X70022500Y-89012258D02*
X70022500Y-88537742D01*
X68977500Y-89012258D02*
X68977500Y-88537742D01*
%TO.C,R2*%
X78620000Y-90253641D02*
X78620000Y-89946359D01*
X79380000Y-90253641D02*
X79380000Y-89946359D01*
D10*
%TO.C,SW2*%
X64500000Y-90800000D02*
X64850000Y-90800000D01*
X64500000Y-90800000D02*
X64500000Y-87000000D01*
X65950000Y-90800000D02*
X66350000Y-90800000D01*
X67450000Y-90800000D02*
X67800000Y-90800000D01*
X67800000Y-90800000D02*
X67800000Y-87000000D01*
X64850000Y-87000000D02*
X64500000Y-87000000D01*
X65950000Y-87000000D02*
X66350000Y-87000000D01*
X67800000Y-87000000D02*
X67450000Y-87000000D01*
D12*
%TO.C,R15*%
X79520000Y-103763641D02*
X79520000Y-103456359D01*
X80280000Y-103763641D02*
X80280000Y-103456359D01*
%TO.C,C8*%
X64859420Y-101840000D02*
X65140580Y-101840000D01*
X64859420Y-102860000D02*
X65140580Y-102860000D01*
%TO.C,C1*%
X74315835Y-103660000D02*
X74084165Y-103660000D01*
X74315835Y-102940000D02*
X74084165Y-102940000D01*
%TO.C,C11*%
X58010000Y-103609420D02*
X58010000Y-103890580D01*
X56990000Y-103609420D02*
X56990000Y-103890580D01*
%TO.C,C9*%
X65040000Y-104848335D02*
X65040000Y-104616665D01*
X65760000Y-104848335D02*
X65760000Y-104616665D01*
%TO.C,R11*%
X63477500Y-104887258D02*
X63477500Y-104412742D01*
X64522500Y-104887258D02*
X64522500Y-104412742D01*
D13*
%TO.C,J1*%
X69800000Y-116550000D02*
X79550000Y-116550000D01*
X71550000Y-116350000D02*
X71550000Y-117200000D01*
X71550000Y-117200000D02*
X71550000Y-117250000D01*
X71950000Y-116900000D02*
X72250000Y-116900000D01*
X71950000Y-117200000D02*
X71950000Y-116900000D01*
X72650000Y-117300000D02*
X77350000Y-117300000D01*
X78150000Y-116900000D02*
X77850000Y-116900000D01*
X78150000Y-117200000D02*
X78150000Y-116900000D01*
X78550000Y-116350000D02*
X78550000Y-117200000D01*
X78550000Y-116350000D02*
X78550000Y-117250000D01*
X78550000Y-117200000D02*
X78550000Y-117250000D01*
X71050000Y-117700000D02*
G75*
G03*
X71550000Y-117200000I-1J500001D01*
G01*
X71150000Y-118000000D02*
G75*
G03*
X71950000Y-117200000I-1J800001D01*
G01*
X72250000Y-116900000D02*
G75*
G03*
X72650000Y-117300000I399999J-1D01*
G01*
X77450000Y-117300000D02*
G75*
G03*
X77850000Y-116900000I0J400000D01*
G01*
X78150000Y-117200000D02*
G75*
G03*
X78950000Y-118000000I800000J0D01*
G01*
X78550000Y-117200000D02*
G75*
G03*
X79050000Y-117700000I500000J0D01*
G01*
D12*
%TO.C,D6*%
X77427500Y-104765000D02*
X77427500Y-106235000D01*
X77427500Y-106235000D02*
X79712500Y-106235000D01*
X79712500Y-104765000D02*
X77427500Y-104765000D01*
%TO.C,R6*%
X84136359Y-89920000D02*
X84443641Y-89920000D01*
X84136359Y-90680000D02*
X84443641Y-90680000D01*
D10*
%TO.C,U1*%
X72925000Y-108675000D02*
X73150000Y-108675000D01*
X72925000Y-108675000D02*
X72925000Y-105325000D01*
X73150000Y-108675000D02*
X73150000Y-109900000D01*
X76275000Y-108675000D02*
X75975000Y-108675000D01*
X76275000Y-108675000D02*
X76275000Y-105325000D01*
X72925000Y-105325000D02*
X73225000Y-105325000D01*
X76275000Y-105325000D02*
X75975000Y-105325000D01*
D12*
%TO.C,D1*%
X84597500Y-103135000D02*
X84597500Y-101665000D01*
X84597500Y-101665000D02*
X82312500Y-101665000D01*
X82312500Y-103135000D02*
X84597500Y-103135000D01*
%TO.C,U3*%
X70200000Y-86350000D02*
X77500000Y-86350000D01*
X70200000Y-91850000D02*
X77500000Y-91850000D01*
X77500000Y-91850000D02*
X77500000Y-90700000D01*
%TO.C,R10*%
X67722500Y-104437742D02*
X67722500Y-104912258D01*
X66677500Y-104437742D02*
X66677500Y-104912258D01*
%TO.C,C14*%
X66710000Y-108063748D02*
X66710000Y-109486252D01*
X64890000Y-108063748D02*
X64890000Y-109486252D01*
%TO.C,R1*%
X83520000Y-100743641D02*
X83520000Y-100436359D01*
X84280000Y-100743641D02*
X84280000Y-100436359D01*
%TO.C,U6*%
X80635000Y-106975000D02*
X80635000Y-110425000D01*
X80635000Y-106975000D02*
X80635000Y-105025000D01*
X85755000Y-106975000D02*
X85755000Y-108925000D01*
X85755000Y-106975000D02*
X85755000Y-105025000D01*
%TO.C,D8*%
X57490000Y-108050000D02*
X57490000Y-111350000D01*
X57490000Y-108050000D02*
X63000000Y-108050000D01*
X57490000Y-111350000D02*
X63000000Y-111350000D01*
%TO.C,C10*%
X66013748Y-92590000D02*
X67436252Y-92590000D01*
X66013748Y-94410000D02*
X67436252Y-94410000D01*
%TO.C,C18*%
X84684420Y-111090000D02*
X84965580Y-111090000D01*
X84684420Y-112110000D02*
X84965580Y-112110000D01*
%TO.C,R14*%
X81912258Y-112122500D02*
X81437742Y-112122500D01*
X81912258Y-111077500D02*
X81437742Y-111077500D01*
%TO.C,C17*%
X94060000Y-91116665D02*
X94060000Y-91348335D01*
X93340000Y-91116665D02*
X93340000Y-91348335D01*
%TO.C,R8*%
X76720000Y-109263641D02*
X76720000Y-108956359D01*
X77480000Y-109263641D02*
X77480000Y-108956359D01*
%TO.C,D5*%
X63010000Y-100050000D02*
X63010000Y-95750000D01*
X63010000Y-100050000D02*
X57200000Y-100050000D01*
X63010000Y-95750000D02*
X57200000Y-95750000D01*
%TO.C,R13*%
X78446359Y-108320000D02*
X78753641Y-108320000D01*
X78446359Y-109080000D02*
X78753641Y-109080000D01*
%TO.C,C4*%
X71410000Y-97984420D02*
X71410000Y-98265580D01*
X70390000Y-97984420D02*
X70390000Y-98265580D01*
%TO.C,C6*%
X60710000Y-90809420D02*
X60710000Y-91090580D01*
X59690000Y-90809420D02*
X59690000Y-91090580D01*
%TO.C,C12*%
X66784420Y-95090000D02*
X67065580Y-95090000D01*
X66784420Y-96110000D02*
X67065580Y-96110000D01*
%TO.C,C13*%
X68640000Y-100248335D02*
X68640000Y-100016665D01*
X69360000Y-100248335D02*
X69360000Y-100016665D01*
%TO.C,C16*%
X84490000Y-93240580D02*
X84490000Y-92959420D01*
X85510000Y-93240580D02*
X85510000Y-92959420D01*
%TO.C,D4*%
X68150000Y-108960000D02*
X72450000Y-108960000D01*
X68150000Y-108960000D02*
X68150000Y-103150000D01*
X72450000Y-108960000D02*
X72450000Y-103150000D01*
%TO.C,TH1*%
X56610000Y-111813748D02*
X56610000Y-114586252D01*
X53190000Y-111813748D02*
X53190000Y-114586252D01*
%TO.C,R3*%
X69520000Y-92543641D02*
X69520000Y-92236359D01*
X70280000Y-92543641D02*
X70280000Y-92236359D01*
%TO.C,R4*%
X84620000Y-99553641D02*
X84620000Y-99246359D01*
X85380000Y-99553641D02*
X85380000Y-99246359D01*
%TO.C,D7*%
X77427500Y-106465000D02*
X77427500Y-107935000D01*
X77427500Y-107935000D02*
X79712500Y-107935000D01*
X79712500Y-106465000D02*
X77427500Y-106465000D01*
%TO.C,U4*%
X63770000Y-101150000D02*
X63770000Y-100010000D01*
X63540000Y-100010000D02*
X63770000Y-100010000D01*
X63540000Y-100010000D02*
X63540000Y-97290000D01*
X68260000Y-100010000D02*
X68030000Y-100010000D01*
X63540000Y-97290000D02*
X64850000Y-97290000D01*
X66950000Y-97290000D02*
X68260000Y-97290000D01*
X68260000Y-97290000D02*
X68260000Y-100010000D01*
D10*
%TO.C,SW3*%
X88000000Y-98250000D02*
X88000000Y-97900000D01*
X88000000Y-98250000D02*
X84200000Y-98250000D01*
X88000000Y-96800000D02*
X88000000Y-96400000D01*
X88000000Y-95300000D02*
X88000000Y-94950000D01*
X88000000Y-94950000D02*
X84200000Y-94950000D01*
X84200000Y-97900000D02*
X84200000Y-98250000D01*
X84200000Y-96800000D02*
X84200000Y-96400000D01*
X84200000Y-94950000D02*
X84200000Y-95300000D01*
D12*
%TO.C,D2*%
X70910000Y-111237500D02*
X70910000Y-109437500D01*
X70910000Y-111237500D02*
X70910000Y-112037500D01*
X67790000Y-111237500D02*
X67790000Y-110437500D01*
X67790000Y-111237500D02*
X67790000Y-112037500D01*
%TO.C,R7*%
X86136359Y-89920000D02*
X86443641Y-89920000D01*
X86136359Y-90680000D02*
X86443641Y-90680000D01*
%TO.C,C2*%
X71484165Y-95690000D02*
X71715835Y-95690000D01*
X71484165Y-96410000D02*
X71715835Y-96410000D01*
D10*
%TO.C,SW1*%
X79700000Y-90875000D02*
X80050000Y-90875000D01*
X79700000Y-90875000D02*
X79700000Y-87075000D01*
X81150000Y-90875000D02*
X81550000Y-90875000D01*
X82650000Y-90875000D02*
X83000000Y-90875000D01*
X83000000Y-90875000D02*
X83000000Y-87075000D01*
X80050000Y-87075000D02*
X79700000Y-87075000D01*
X81150000Y-87075000D02*
X81550000Y-87075000D01*
X83000000Y-87075000D02*
X82650000Y-87075000D01*
D12*
%TO.C,U2*%
X74290000Y-93640000D02*
X74290000Y-94090000D01*
X74290000Y-94090000D02*
X73000000Y-94090000D01*
X74290000Y-100860000D02*
X74290000Y-100410000D01*
X74740000Y-93640000D02*
X74290000Y-93640000D01*
X74740000Y-100860000D02*
X74290000Y-100860000D01*
X81060000Y-93640000D02*
X81510000Y-93640000D01*
X81060000Y-100860000D02*
X81510000Y-100860000D01*
X81510000Y-93640000D02*
X81510000Y-94090000D01*
X81510000Y-100860000D02*
X81510000Y-100410000D01*
%TO.C,J5*%
X80490000Y-115830000D02*
X80490000Y-114500000D01*
X81820000Y-115830000D02*
X80490000Y-115830000D01*
X83090000Y-115830000D02*
X90770000Y-115830000D01*
X83090000Y-115830000D02*
X83090000Y-113170000D01*
X90770000Y-115830000D02*
X90770000Y-113170000D01*
X83090000Y-113170000D02*
X90770000Y-113170000D01*
%TO.C,R5*%
X82736359Y-92120000D02*
X83043641Y-92120000D01*
X82736359Y-92880000D02*
X83043641Y-92880000D01*
%TO.C,J2*%
X83750000Y-89230000D02*
X83750000Y-87900000D01*
X85080000Y-89230000D02*
X83750000Y-89230000D01*
X86350000Y-89230000D02*
X99110000Y-89230000D01*
X86350000Y-89230000D02*
X86350000Y-86570000D01*
X99110000Y-89230000D02*
X99110000Y-86570000D01*
X86350000Y-86570000D02*
X99110000Y-86570000D01*
%TO.C,C3*%
X71840000Y-97798335D02*
X71840000Y-97566665D01*
X72560000Y-97798335D02*
X72560000Y-97566665D01*
%TO.C,R16*%
X78446359Y-109420000D02*
X78753641Y-109420000D01*
X78446359Y-110180000D02*
X78753641Y-110180000D01*
%TO.C,R12*%
X77720000Y-103763641D02*
X77720000Y-103456359D01*
X78480000Y-103763641D02*
X78480000Y-103456359D01*
%TO.C,D3*%
X58450000Y-107810000D02*
X62750000Y-107810000D01*
X58450000Y-107810000D02*
X58450000Y-102000000D01*
X62750000Y-107810000D02*
X62750000Y-102000000D01*
%TO.C,C5*%
X71840000Y-100033335D02*
X71840000Y-99801665D01*
X72560000Y-100033335D02*
X72560000Y-99801665D01*
D10*
%TO.C,SW4*%
X57100000Y-113562500D02*
X57100000Y-118462500D01*
X57100000Y-118462500D02*
X67500000Y-118462500D01*
X58700000Y-113562500D02*
X57100000Y-113562500D01*
X67500000Y-113562500D02*
X65700000Y-113562500D01*
X67500000Y-118462500D02*
X67500000Y-113562500D01*
D12*
%TO.C,C15*%
X86660000Y-92859165D02*
X86660000Y-93090835D01*
X85940000Y-92859165D02*
X85940000Y-93090835D01*
%TO.C,C7*%
X78760000Y-88083335D02*
X78760000Y-87851665D01*
X78040000Y-88083335D02*
X78040000Y-87851665D01*
%TD*%
D14*
%TO.C,J1*%
X72550000Y-112400000D03*
X77550000Y-112400000D03*
D15*
X71550000Y-115100000D03*
X78550000Y-115100000D03*
%TD*%
%LPC*%
D16*
%TO.C,R9*%
X69500000Y-89600000D03*
X69500000Y-87950000D03*
%TD*%
D17*
%TO.C,R2*%
X79000000Y-90610000D03*
X79000000Y-89590000D03*
%TD*%
D18*
%TO.C,SW2*%
X65400000Y-90825000D03*
X65400000Y-86975000D03*
X66900000Y-90825000D03*
X66900000Y-86975000D03*
%TD*%
D17*
%TO.C,R15*%
X79900000Y-104120000D03*
X79900000Y-103100000D03*
%TD*%
D19*
%TO.C,C8*%
X64225000Y-102350000D03*
X65775000Y-102350000D03*
%TD*%
D20*
%TO.C,C1*%
X74767500Y-103300000D03*
X73632500Y-103300000D03*
%TD*%
D21*
%TO.C,C11*%
X57500000Y-102975000D03*
X57500000Y-104525000D03*
%TD*%
D22*
%TO.C,C9*%
X65400000Y-105300000D03*
X65400000Y-104165000D03*
%TD*%
D16*
%TO.C,R11*%
X64000000Y-105475000D03*
X64000000Y-103825000D03*
%TD*%
D23*
%TO.C,J1*%
X73750000Y-112425000D03*
X74400000Y-112425000D03*
X75050000Y-112425000D03*
X75700000Y-112425000D03*
X76350000Y-112425000D03*
D14*
X72550000Y-112400000D03*
X77550000Y-112400000D03*
D24*
X74050000Y-115100000D03*
X76050000Y-115100000D03*
D15*
X71550000Y-115100000D03*
D24*
X72000000Y-115100000D03*
X78100000Y-115100000D03*
D15*
X78550000Y-115100000D03*
%TD*%
D25*
%TO.C,D6*%
X78125000Y-105500000D03*
X79700000Y-105500000D03*
%TD*%
D26*
%TO.C,R6*%
X83780000Y-90300000D03*
X84800000Y-90300000D03*
%TD*%
D27*
%TO.C,U1*%
X73600000Y-109200000D03*
X74100000Y-109200000D03*
X74600000Y-109200000D03*
X75100000Y-109200000D03*
X75600000Y-109200000D03*
X75600000Y-104800000D03*
X75100000Y-104800000D03*
X74600000Y-104800000D03*
X74100000Y-104800000D03*
X73600000Y-104800000D03*
%TD*%
D28*
%TO.C,D1*%
X83900000Y-102400000D03*
X82325000Y-102400000D03*
%TD*%
D29*
%TO.C,U3*%
X71400000Y-87450000D03*
X71400000Y-90750000D03*
X76300000Y-90750000D03*
X76300000Y-87450000D03*
%TD*%
D30*
%TO.C,R10*%
X67200000Y-103850000D03*
X67200000Y-105500000D03*
%TD*%
D31*
%TO.C,C14*%
X65800000Y-107300000D03*
X65800000Y-110250000D03*
%TD*%
D17*
%TO.C,R1*%
X83900000Y-101100000D03*
X83900000Y-100080000D03*
%TD*%
D32*
%TO.C,U6*%
X81290000Y-109600000D03*
X82560000Y-109600000D03*
X83830000Y-109600000D03*
X85100000Y-109600000D03*
X85100000Y-104350000D03*
X83830000Y-104350000D03*
X82560000Y-104350000D03*
X81290000Y-104350000D03*
D33*
X83195000Y-106975000D03*
%TD*%
D34*
%TO.C,D8*%
X59000000Y-109700000D03*
X63000000Y-109700000D03*
%TD*%
D35*
%TO.C,C10*%
X65250000Y-93500000D03*
X68200000Y-93500000D03*
%TD*%
D19*
%TO.C,C18*%
X84050000Y-111600000D03*
X85600000Y-111600000D03*
%TD*%
D36*
%TO.C,L1*%
X91700000Y-90200000D03*
X92670000Y-90200000D03*
%TD*%
D37*
%TO.C,R14*%
X82500000Y-111600000D03*
X80850000Y-111600000D03*
%TD*%
D38*
%TO.C,C17*%
X93700000Y-90665000D03*
X93700000Y-91800000D03*
%TD*%
D17*
%TO.C,R8*%
X77100000Y-109620000D03*
X77100000Y-108600000D03*
%TD*%
D39*
%TO.C,D5*%
X61500000Y-97900000D03*
X57200000Y-97900000D03*
%TD*%
D26*
%TO.C,R13*%
X78090000Y-108700000D03*
X79110000Y-108700000D03*
%TD*%
D21*
%TO.C,C4*%
X70900000Y-97350000D03*
X70900000Y-98900000D03*
%TD*%
%TO.C,C6*%
X60200000Y-90175000D03*
X60200000Y-91725000D03*
%TD*%
D19*
%TO.C,C12*%
X66150000Y-95600000D03*
X67700000Y-95600000D03*
%TD*%
D40*
%TO.C,H4*%
X89500000Y-108500000D03*
%TD*%
D22*
%TO.C,C13*%
X69000000Y-100700000D03*
X69000000Y-99565000D03*
%TD*%
D41*
%TO.C,C16*%
X85000000Y-93875000D03*
X85000000Y-92325000D03*
%TD*%
D42*
%TO.C,D4*%
X70300000Y-107450000D03*
X70300000Y-103150000D03*
%TD*%
D43*
%TO.C,TH1*%
X54900000Y-110975000D03*
X54900000Y-115425000D03*
%TD*%
D17*
%TO.C,R3*%
X69900000Y-92900000D03*
X69900000Y-91880000D03*
%TD*%
%TO.C,R4*%
X85000000Y-99910000D03*
X85000000Y-98890000D03*
%TD*%
D25*
%TO.C,D7*%
X78125000Y-107200000D03*
X79700000Y-107200000D03*
%TD*%
D44*
%TO.C,U4*%
X64400000Y-100600000D03*
D45*
X65900000Y-100512500D03*
D44*
X67400000Y-100600000D03*
%TD*%
D46*
%TO.C,SW3*%
X88025000Y-97350000D03*
X84175000Y-97350000D03*
X88025000Y-95850000D03*
X84175000Y-95850000D03*
%TD*%
D47*
%TO.C,D2*%
X70300000Y-110100000D03*
X69350000Y-110100000D03*
X68400000Y-110100000D03*
X68400000Y-112375000D03*
X69350000Y-112375000D03*
X70300000Y-112375000D03*
%TD*%
D26*
%TO.C,R7*%
X85780000Y-90300000D03*
X86800000Y-90300000D03*
%TD*%
D48*
%TO.C,C2*%
X71032500Y-96050000D03*
X72167500Y-96050000D03*
%TD*%
D18*
%TO.C,SW1*%
X80600000Y-90900000D03*
X80600000Y-87050000D03*
X82100000Y-90900000D03*
X82100000Y-87050000D03*
%TD*%
D49*
%TO.C,U2*%
X73737500Y-94500000D03*
X73737500Y-95000000D03*
X73737500Y-95500000D03*
X73737500Y-96000000D03*
X73737500Y-96500000D03*
X73737500Y-97000000D03*
X73737500Y-97500000D03*
X73737500Y-98000000D03*
X73737500Y-98500000D03*
X73737500Y-99000000D03*
X73737500Y-99500000D03*
X73737500Y-100000000D03*
D50*
X75150000Y-101412500D03*
X75650000Y-101412500D03*
X76150000Y-101412500D03*
X76650000Y-101412500D03*
X77150000Y-101412500D03*
X77650000Y-101412500D03*
X78150000Y-101412500D03*
X78650000Y-101412500D03*
X79150000Y-101412500D03*
X79650000Y-101412500D03*
X80150000Y-101412500D03*
X80650000Y-101412500D03*
D49*
X82062500Y-100000000D03*
X82062500Y-99500000D03*
X82062500Y-99000000D03*
X82062500Y-98500000D03*
X82062500Y-98000000D03*
X82062500Y-97500000D03*
X82062500Y-97000000D03*
X82062500Y-96500000D03*
X82062500Y-96000000D03*
X82062500Y-95500000D03*
X82062500Y-95000000D03*
X82062500Y-94500000D03*
D50*
X80650000Y-93087500D03*
X80150000Y-93087500D03*
X79650000Y-93087500D03*
X79150000Y-93087500D03*
X78650000Y-93087500D03*
X78150000Y-93087500D03*
X77650000Y-93087500D03*
X77150000Y-93087500D03*
X76650000Y-93087500D03*
X76150000Y-93087500D03*
X75650000Y-93087500D03*
X75150000Y-93087500D03*
%TD*%
D15*
%TO.C,H1*%
X54000000Y-93400000D03*
X54000000Y-90860000D03*
X54000000Y-88320000D03*
%TD*%
D51*
%TO.C,J5*%
X81820000Y-114500000D03*
D52*
X84360000Y-114500000D03*
X86900000Y-114500000D03*
X89440000Y-114500000D03*
%TD*%
D26*
%TO.C,R5*%
X82380000Y-92500000D03*
X83400000Y-92500000D03*
%TD*%
D51*
%TO.C,J2*%
X85080000Y-87900000D03*
D52*
X87620000Y-87900000D03*
X90160000Y-87900000D03*
X92700000Y-87900000D03*
X95240000Y-87900000D03*
X97780000Y-87900000D03*
%TD*%
D22*
%TO.C,C3*%
X72200000Y-98250000D03*
X72200000Y-97115000D03*
%TD*%
D26*
%TO.C,R16*%
X78090000Y-109800000D03*
X79110000Y-109800000D03*
%TD*%
D17*
%TO.C,R12*%
X78100000Y-104120000D03*
X78100000Y-103100000D03*
%TD*%
D42*
%TO.C,D3*%
X60600000Y-106300000D03*
X60600000Y-102000000D03*
%TD*%
D22*
%TO.C,C5*%
X72200000Y-100485000D03*
X72200000Y-99350000D03*
%TD*%
D53*
%TO.C,SW4*%
X59750000Y-112862500D03*
D15*
X62300000Y-112862500D03*
X64850000Y-112862500D03*
%TD*%
D38*
%TO.C,C15*%
X86300000Y-92407500D03*
X86300000Y-93542500D03*
%TD*%
D22*
%TO.C,C7*%
X78400000Y-87400000D03*
X78400000Y-88535000D03*
%TD*%
D51*
%TO.C,J3*%
X62175000Y-88395000D03*
D52*
X62175000Y-90935000D03*
X62175000Y-93475000D03*
%TD*%
D54*
%TO.C,J6*%
X54200000Y-99900000D03*
D55*
X54200000Y-98650000D03*
%TD*%
D51*
%TO.C,J4*%
X55000000Y-108740000D03*
D56*
X55000000Y-106200000D03*
X55000000Y-103660000D03*
%TD*%
%LPD*%
M02*
