%TF.GenerationSoftware,KiCad,Pcbnew,7.0.6-7.0.6~ubuntu22.04.1*%
%TF.CreationDate,2023-07-30T10:17:08-06:00*%
%TF.ProjectId,fancy-node,66616e63-792d-46e6-9f64-652e6b696361,rev?*%
%TF.SameCoordinates,Original*%
%TF.FileFunction,Copper,L4,Bot*%
%TF.FilePolarity,Positive*%
%FSLAX46Y46*%
G04 Gerber Fmt 4.6, Leading zero omitted, Abs format (unit mm)*
G04 Created by KiCad (PCBNEW 7.0.6-7.0.6~ubuntu22.04.1) date 2023-07-30 10:17:08*
%MOMM*%
%LPD*%
G01*
G04 APERTURE LIST*
G04 Aperture macros list*
%AMFreePoly0*
4,1,6,1.000000,0.000000,0.500000,-0.750000,-0.500000,-0.750000,-0.500000,0.750000,0.500000,0.750000,1.000000,0.000000,1.000000,0.000000,$1*%
%AMFreePoly1*
4,1,6,0.500000,-0.750000,-0.650000,-0.750000,-0.150000,0.000000,-0.650000,0.750000,0.500000,0.750000,0.500000,-0.750000,0.500000,-0.750000,$1*%
G04 Aperture macros list end*
%TA.AperFunction,ComponentPad*%
%ADD10C,1.408000*%
%TD*%
%TA.AperFunction,ComponentPad*%
%ADD11C,1.800000*%
%TD*%
%TA.AperFunction,ComponentPad*%
%ADD12R,1.700000X1.700000*%
%TD*%
%TA.AperFunction,ComponentPad*%
%ADD13O,1.700000X1.700000*%
%TD*%
%TA.AperFunction,ComponentPad*%
%ADD14R,1.800000X1.800000*%
%TD*%
%TA.AperFunction,ComponentPad*%
%ADD15R,1.000000X1.000000*%
%TD*%
%TA.AperFunction,ComponentPad*%
%ADD16C,1.000000*%
%TD*%
%TA.AperFunction,SMDPad,CuDef*%
%ADD17FreePoly0,270.000000*%
%TD*%
%TA.AperFunction,SMDPad,CuDef*%
%ADD18FreePoly1,270.000000*%
%TD*%
%TA.AperFunction,ComponentPad*%
%ADD19C,1.700000*%
%TD*%
%TA.AperFunction,SMDPad,CuDef*%
%ADD20R,2.999740X1.198880*%
%TD*%
%TA.AperFunction,SMDPad,CuDef*%
%ADD21R,0.990600X1.041400*%
%TD*%
%TA.AperFunction,SMDPad,CuDef*%
%ADD22R,1.041400X2.209800*%
%TD*%
%TA.AperFunction,ViaPad*%
%ADD23C,0.600000*%
%TD*%
%TA.AperFunction,ViaPad*%
%ADD24C,1.000000*%
%TD*%
%TA.AperFunction,ViaPad*%
%ADD25C,0.800000*%
%TD*%
%TA.AperFunction,Conductor*%
%ADD26C,0.150000*%
%TD*%
%TA.AperFunction,Conductor*%
%ADD27C,0.500000*%
%TD*%
%TA.AperFunction,Conductor*%
%ADD28C,0.250000*%
%TD*%
%TA.AperFunction,Conductor*%
%ADD29C,0.200000*%
%TD*%
%TA.AperFunction,Conductor*%
%ADD30C,1.000000*%
%TD*%
G04 APERTURE END LIST*
D10*
%TO.P,J1,P$6*%
%TO.N,N/C*%
X72550000Y-112400000D03*
%TO.P,J1,P$7*%
X77550000Y-112400000D03*
D11*
%TO.P,J1,P$12*%
X71550000Y-115100000D03*
%TO.P,J1,P$13*%
X78550000Y-115100000D03*
%TD*%
D12*
%TO.P,J5,1,Pin_1*%
%TO.N,VCC*%
X81820000Y-114500000D03*
D13*
%TO.P,J5,2,Pin_2*%
%TO.N,GND*%
X84360000Y-114500000D03*
%TO.P,J5,3,Pin_3*%
%TO.N,/SWDIO*%
X86900000Y-114500000D03*
%TO.P,J5,4,Pin_4*%
%TO.N,/BOOT0*%
X89440000Y-114500000D03*
%TD*%
D12*
%TO.P,J2,1,Pin_1*%
%TO.N,GND*%
X85080000Y-87500000D03*
D13*
%TO.P,J2,2,Pin_2*%
%TO.N,VCC*%
X87620000Y-87500000D03*
%TO.P,J2,3,Pin_3*%
%TO.N,+BATT*%
X90160000Y-87500000D03*
%TO.P,J2,4,Pin_4*%
%TO.N,Net-(J2-Pin_4)*%
X92700000Y-87500000D03*
%TO.P,J2,5,Pin_5*%
%TO.N,Net-(J2-Pin_5)*%
X95240000Y-87500000D03*
%TO.P,J2,6,Pin_6*%
%TO.N,Net-(J2-Pin_6)*%
X97780000Y-87500000D03*
%TD*%
D14*
%TO.P,SW4,1,A*%
%TO.N,unconnected-(SW4-A-Pad1)*%
X59750000Y-112862500D03*
D11*
%TO.P,SW4,2,B*%
%TO.N,/BATT_DIRECT*%
X62300000Y-112862500D03*
%TO.P,SW4,3,C*%
%TO.N,+BATT*%
X64850000Y-112862500D03*
%TD*%
D12*
%TO.P,J3,1,Pin_1*%
%TO.N,GND*%
X62175000Y-88395000D03*
D13*
%TO.P,J3,2,Pin_2*%
%TO.N,/EXTERNAL_LED*%
X62175000Y-90935000D03*
%TO.P,J3,3,Pin_3*%
%TO.N,+BATT*%
X62175000Y-93475000D03*
%TD*%
D15*
%TO.P,J6,1,Pin_1*%
%TO.N,GND*%
X54200000Y-99900000D03*
D16*
%TO.P,J6,2,Pin_2*%
%TO.N,Net-(J4-Pin_1)*%
X54200000Y-98650000D03*
%TD*%
D17*
%TO.P,JP2,1,A*%
%TO.N,Net-(JP2-A)*%
X92300000Y-90650000D03*
D18*
%TO.P,JP2,2,B*%
%TO.N,/ANTENNA_UFL*%
X92300000Y-92100000D03*
%TD*%
D12*
%TO.P,J4,1,Pin_1*%
%TO.N,Net-(J4-Pin_1)*%
X55000000Y-108740000D03*
D19*
%TO.P,J4,2,Pin_2*%
%TO.N,GND*%
X55000000Y-106200000D03*
%TO.P,J4,3,Pin_3*%
%TO.N,unconnected-(J4-Pin_3-Pad3)*%
X55000000Y-103660000D03*
%TD*%
D20*
%TO.P,U5,1,ANT*%
%TO.N,Net-(JP2-A)*%
X88798080Y-90175520D03*
%TO.P,U5,2,3.3V*%
%TO.N,VCC*%
X88798080Y-92177040D03*
%TO.P,U5,3,GND*%
%TO.N,GND*%
X88798080Y-94176020D03*
%TO.P,U5,5,MOSI*%
%TO.N,/MOSI*%
X88798080Y-98173980D03*
%TO.P,U5,6,SCK*%
%TO.N,/SCK*%
X88798080Y-100172960D03*
%TO.P,U5,7,NSS*%
%TO.N,/NSS*%
X88798080Y-102174480D03*
%TO.P,U5,8,MISO*%
%TO.N,/MISO*%
X73801920Y-102174480D03*
%TO.P,U5,9,DIO0*%
%TO.N,/DIO0*%
X73801920Y-100172960D03*
%TO.P,U5,14,GND*%
%TO.N,GND*%
X73801920Y-90175520D03*
%TD*%
D21*
%TO.P,J7,1,1*%
%TO.N,/ANTENNA_UFL*%
X92552499Y-93974999D03*
D22*
%TO.P,J7,2,2*%
%TO.N,GND*%
X93700000Y-95500000D03*
%TO.P,J7,3,3*%
X91404998Y-95500000D03*
%TD*%
D23*
%TO.N,Net-(U7-NRST)*%
X83607734Y-98555230D03*
X74924500Y-98503500D03*
%TO.N,GND*%
X70200000Y-96000000D03*
D24*
X94000000Y-112700000D03*
X91400000Y-102600000D03*
D23*
X73813336Y-91144907D03*
X66900000Y-88800000D03*
X71458866Y-99710378D03*
X92700000Y-95000000D03*
X65200000Y-95700000D03*
D24*
X76700385Y-111080128D03*
D23*
X79100000Y-88700000D03*
D24*
X88000000Y-104000000D03*
D23*
X80100000Y-111000000D03*
D24*
X94000000Y-97700000D03*
X89200000Y-112400000D03*
X94000000Y-115700000D03*
X63000000Y-102000000D03*
X88100000Y-106400000D03*
D23*
X83244570Y-110971030D03*
X84900000Y-100700000D03*
D24*
X94000000Y-100700000D03*
X94000000Y-106700000D03*
D23*
X68300000Y-99600000D03*
D24*
X94000000Y-103700000D03*
D23*
X82200000Y-89000000D03*
D24*
X89500000Y-95800000D03*
D25*
X86700000Y-94400000D03*
D24*
X68400000Y-102800000D03*
D23*
X64200000Y-99000000D03*
D24*
X94000000Y-109700000D03*
D23*
X69500000Y-111200000D03*
D24*
%TO.N,VCC*%
X68200000Y-91900000D03*
D25*
X85845592Y-91207779D03*
X69882602Y-98570355D03*
X67400000Y-99000000D03*
D23*
X73781893Y-106250000D03*
D25*
X61600000Y-99700000D03*
D23*
%TO.N,+BATT*%
X79200000Y-87300000D03*
D24*
X64200000Y-86700000D03*
%TO.N,/BATT_DIRECT*%
X84995899Y-102948980D03*
X54900000Y-112300000D03*
X61400000Y-104400000D03*
X58300000Y-111512500D03*
D23*
%TO.N,/VBATT_DIV*%
X72600032Y-106600000D03*
X67300000Y-106400000D03*
%TO.N,VBUS*%
X78300000Y-113554000D03*
X85700000Y-112800000D03*
X79686181Y-112786179D03*
%TO.N,/~{RTS}*%
X72300000Y-107900000D03*
X75200000Y-107900000D03*
%TO.N,/LED*%
X82100000Y-100700000D03*
X78100500Y-100249976D03*
%TO.N,/USB+*%
X70400000Y-111200000D03*
X73941481Y-111234783D03*
X72772992Y-110999992D03*
%TO.N,/USB-*%
X73550004Y-110600002D03*
X68400000Y-109000000D03*
X74667803Y-111266236D03*
%TO.N,/EXTERNAL_LED*%
X68400000Y-89800000D03*
%TO.N,/AUX0*%
X76588110Y-94175000D03*
X82300000Y-93875500D03*
%TO.N,/AUX1*%
X83911399Y-91584492D03*
X76100000Y-91800000D03*
%TO.N,/AUX2*%
X84900000Y-91069500D03*
X74992270Y-91524460D03*
%TO.N,/SWDIO*%
X80851849Y-95105923D03*
X86275500Y-96348430D03*
%TO.N,/BOOT0*%
X86950498Y-95500000D03*
X75879217Y-95324589D03*
X77395269Y-103502435D03*
X80600000Y-94400000D03*
X75900000Y-99600000D03*
D25*
%TO.N,Net-(J2-Pin_5)*%
X84800000Y-89400000D03*
D23*
%TO.N,/~{STDBY}*%
X77625000Y-102600000D03*
X83184948Y-103103735D03*
%TO.N,/~{CHRG}*%
X81997428Y-103323088D03*
X79000000Y-103323088D03*
%TO.N,/SW2*%
X69900000Y-94800000D03*
X79100000Y-94400000D03*
%TO.N,Net-(U7-PA8)*%
X80700000Y-98275000D03*
X85475000Y-98900000D03*
%TO.N,Net-(U1-TXD)*%
X78767378Y-110355128D03*
X76200000Y-110100000D03*
%TO.N,Net-(R17-Pad1)*%
X85900000Y-97400000D03*
X89100000Y-97125038D03*
%TO.N,/NSS*%
X76106042Y-100321146D03*
%TO.N,/SCK*%
X76900000Y-100100000D03*
%TO.N,/MISO*%
X76566266Y-102708732D03*
%TO.N,/MOSI*%
X77792071Y-98275000D03*
%TO.N,Net-(U1-RXD)*%
X74500000Y-106900000D03*
X72596629Y-105148520D03*
%TO.N,/DIO0*%
X83400000Y-99300000D03*
%TO.N,/INTERNAL_LED*%
X76800000Y-88600000D03*
X77770878Y-91893501D03*
X82864299Y-91846352D03*
X77700000Y-89800000D03*
%TO.N,Net-(R3-Pad2)*%
X65400000Y-92000000D03*
X70700000Y-91800000D03*
D24*
%TO.N,Net-(JP2-A)*%
X90900000Y-90200000D03*
%TD*%
D26*
%TO.N,Net-(U7-NRST)*%
X76266727Y-98800000D02*
X83157537Y-98800000D01*
X83402307Y-98555230D02*
X83607734Y-98555230D01*
X75970227Y-98503500D02*
X76266727Y-98800000D01*
X83157537Y-98800000D02*
X83402307Y-98555230D01*
X74924500Y-98503500D02*
X75970227Y-98503500D01*
D27*
%TO.N,GND*%
X83273540Y-111000000D02*
X83244570Y-110971030D01*
D28*
X88798080Y-94176020D02*
X86923980Y-94176020D01*
D29*
X73801920Y-91133491D02*
X73813336Y-91144907D01*
D27*
X80029469Y-111070531D02*
X76709982Y-111070531D01*
X80100000Y-111000000D02*
X80029469Y-111070531D01*
D28*
X86923980Y-94176020D02*
X86700000Y-94400000D01*
D29*
X73801920Y-90175520D02*
X73801920Y-91133491D01*
D27*
X80100000Y-111000000D02*
X83273540Y-111000000D01*
X76709982Y-111070531D02*
X76700385Y-111080128D01*
D28*
%TO.N,VCC*%
X66700000Y-99700000D02*
X61600000Y-99700000D01*
X67400000Y-99000000D02*
X69452957Y-99000000D01*
X69452957Y-99000000D02*
X69882602Y-98570355D01*
X86814853Y-92177040D02*
X85845592Y-91207779D01*
X67400000Y-99000000D02*
X66700000Y-99700000D01*
X88798080Y-92177040D02*
X86814853Y-92177040D01*
D29*
%TO.N,+BATT*%
X79200000Y-86600000D02*
X79200000Y-87300000D01*
D27*
X90160000Y-87500000D02*
X88860000Y-86200000D01*
X79600000Y-86200000D02*
X79200000Y-86600000D01*
X64300000Y-86600000D02*
X79200000Y-86600000D01*
X88860000Y-86200000D02*
X79600000Y-86200000D01*
X64300000Y-86600000D02*
X64200000Y-86700000D01*
%TO.N,/BATT_DIRECT*%
X54900000Y-112300000D02*
X55687500Y-111512500D01*
X55687500Y-111512500D02*
X58300000Y-111512500D01*
X72208772Y-104398520D02*
X83546359Y-104398520D01*
X58300000Y-111512500D02*
X60950000Y-111512500D01*
X61400000Y-104400000D02*
X72207292Y-104400000D01*
X60950000Y-111512500D02*
X62300000Y-112862500D01*
X72207292Y-104400000D02*
X72208772Y-104398520D01*
X83546359Y-104398520D02*
X84995899Y-102948980D01*
D26*
%TO.N,/VBATT_DIV*%
X67300000Y-106400000D02*
X72400032Y-106400000D01*
X72400032Y-106400000D02*
X72600032Y-106600000D01*
D27*
%TO.N,VBUS*%
X78300000Y-113554000D02*
X79067821Y-112786179D01*
X85700000Y-112800000D02*
X79700002Y-112800000D01*
X79067821Y-112786179D02*
X79686181Y-112786179D01*
X79700002Y-112800000D02*
X79686181Y-112786179D01*
D26*
%TO.N,/~{RTS}*%
X75200000Y-107900000D02*
X72300000Y-107900000D01*
%TO.N,/LED*%
X82100000Y-100700000D02*
X78550524Y-100700000D01*
X78550524Y-100700000D02*
X78100500Y-100249976D01*
D29*
%TO.N,/USB+*%
X72900000Y-111200000D02*
X73906698Y-111200000D01*
X73906698Y-111200000D02*
X73941481Y-111234783D01*
X70400000Y-111200000D02*
X72900000Y-111200000D01*
X72772992Y-110999992D02*
X72900000Y-111127000D01*
X72900000Y-111127000D02*
X72900000Y-111200000D01*
%TO.N,/USB-*%
X74667803Y-111072512D02*
X74195293Y-110600002D01*
X68400000Y-109000000D02*
X71950002Y-109000000D01*
X71950002Y-109000000D02*
X73550004Y-110600002D01*
X74195293Y-110600002D02*
X73550004Y-110600002D01*
X74667803Y-111266236D02*
X74667803Y-111072512D01*
%TO.N,/EXTERNAL_LED*%
X62175000Y-90935000D02*
X63310000Y-89800000D01*
X63310000Y-89800000D02*
X68400000Y-89800000D01*
D26*
%TO.N,/AUX0*%
X76887610Y-93875500D02*
X76588110Y-94175000D01*
X82300000Y-93875500D02*
X76887610Y-93875500D01*
%TO.N,/AUX1*%
X83648759Y-91321852D02*
X83911399Y-91584492D01*
X76100000Y-91800000D02*
X76578148Y-91321852D01*
X76578148Y-91321852D02*
X83648759Y-91321852D01*
%TO.N,/AUX2*%
X84852851Y-91022351D02*
X75801207Y-91022351D01*
X75299098Y-91524460D02*
X74992270Y-91524460D01*
X84900000Y-91069500D02*
X84852851Y-91022351D01*
X75801207Y-91022351D02*
X75299098Y-91524460D01*
%TO.N,/SWDIO*%
X81907076Y-96161150D02*
X86088220Y-96161150D01*
X80851849Y-95105923D02*
X81907076Y-96161150D01*
X86088220Y-96161150D02*
X86275500Y-96348430D01*
%TO.N,/BOOT0*%
X75526790Y-100926790D02*
X75526790Y-99973210D01*
X78824264Y-95100000D02*
X76103806Y-95100000D01*
X85816823Y-94400000D02*
X80600000Y-94400000D01*
X76103806Y-95100000D02*
X75879217Y-95324589D01*
X77100000Y-103207166D02*
X77100000Y-102500000D01*
X77395269Y-103502435D02*
X77100000Y-103207166D01*
X75526790Y-99973210D02*
X75900000Y-99600000D01*
X86916823Y-95500000D02*
X85816823Y-94400000D01*
X86950498Y-95500000D02*
X86916823Y-95500000D01*
X78999264Y-94925000D02*
X78824264Y-95100000D01*
X80075000Y-94925000D02*
X78999264Y-94925000D01*
X77100000Y-102500000D02*
X75526790Y-100926790D01*
X80600000Y-94400000D02*
X80075000Y-94925000D01*
%TO.N,Net-(J2-Pin_5)*%
X95240000Y-87500000D02*
X93665000Y-89075000D01*
X93665000Y-89075000D02*
X85125000Y-89075000D01*
X85125000Y-89075000D02*
X84800000Y-89400000D01*
%TO.N,/~{STDBY}*%
X83184948Y-103103735D02*
X82681213Y-102600000D01*
X82681213Y-102600000D02*
X77625000Y-102600000D01*
%TO.N,/~{CHRG}*%
X81997428Y-103323088D02*
X79000000Y-103323088D01*
%TO.N,/SW2*%
X79100000Y-94400000D02*
X78700000Y-94800000D01*
X78700000Y-94800000D02*
X69900000Y-94800000D01*
%TO.N,Net-(U7-PA8)*%
X85475000Y-98900000D02*
X84698791Y-98900000D01*
X83829021Y-98030230D02*
X80944770Y-98030230D01*
X84698791Y-98900000D02*
X83829021Y-98030230D01*
X80944770Y-98030230D02*
X80700000Y-98275000D01*
%TO.N,Net-(U1-TXD)*%
X76455128Y-110355128D02*
X76200000Y-110100000D01*
X78767378Y-110355128D02*
X76455128Y-110355128D01*
%TO.N,Net-(R17-Pad1)*%
X86174962Y-97125038D02*
X89100000Y-97125038D01*
X85900000Y-97400000D02*
X86174962Y-97125038D01*
%TO.N,/NSS*%
X77959376Y-102174480D02*
X76106042Y-100321146D01*
X88798080Y-102174480D02*
X77959376Y-102174480D01*
%TO.N,/SCK*%
X78355331Y-99725000D02*
X77275000Y-99725000D01*
X77275000Y-99725000D02*
X76900000Y-100100000D01*
X88798080Y-100172960D02*
X78803291Y-100172960D01*
X78803291Y-100172960D02*
X78355331Y-99725000D01*
%TO.N,/MISO*%
X76035664Y-102174480D02*
X73801920Y-102174480D01*
X76444083Y-102582899D02*
X76035664Y-102174480D01*
%TO.N,/MOSI*%
X88798080Y-98173980D02*
X84397035Y-98173980D01*
X84397035Y-98173980D02*
X83953285Y-97730230D01*
X78336841Y-97730230D02*
X77792071Y-98275000D01*
X83953285Y-97730230D02*
X78336841Y-97730230D01*
%TO.N,Net-(U1-RXD)*%
X72596629Y-105826960D02*
X72596629Y-105148520D01*
X74500000Y-106900000D02*
X74375000Y-106775000D01*
X74375000Y-106775000D02*
X73544669Y-106775000D01*
X73544669Y-106775000D02*
X72596629Y-105826960D01*
%TO.N,/DIO0*%
X76117463Y-99075000D02*
X76342463Y-99300000D01*
X76342463Y-99300000D02*
X83400000Y-99300000D01*
X73801920Y-100172960D02*
X74899880Y-99075000D01*
X74899880Y-99075000D02*
X76117463Y-99075000D01*
D29*
%TO.N,/INTERNAL_LED*%
X77700000Y-89500000D02*
X76800000Y-88600000D01*
D26*
X77818027Y-91846352D02*
X77770878Y-91893501D01*
D29*
X77700000Y-89800000D02*
X77700000Y-89500000D01*
D26*
X82864299Y-91846352D02*
X77818027Y-91846352D01*
%TO.N,Net-(R3-Pad2)*%
X69800000Y-90900000D02*
X70700000Y-91800000D01*
X67700000Y-90900000D02*
X69800000Y-90900000D01*
X65400000Y-92000000D02*
X66600000Y-92000000D01*
X66600000Y-92000000D02*
X67700000Y-90900000D01*
D30*
%TO.N,/ANTENNA_UFL*%
X92300000Y-93722500D02*
X92300000Y-92600000D01*
D27*
X92300000Y-92100000D02*
X92300000Y-92600000D01*
D30*
X92552499Y-93974999D02*
X92300000Y-93722500D01*
%TO.N,Net-(JP2-A)*%
X88822560Y-90200000D02*
X90900000Y-90200000D01*
X90900000Y-90200000D02*
X91850000Y-90200000D01*
X91850000Y-90200000D02*
X92300000Y-90650000D01*
%TD*%
%TA.AperFunction,Conductor*%
%TO.N,GND*%
G36*
X91414794Y-94219685D02*
G01*
X91456174Y-94263822D01*
X91474588Y-94296998D01*
X91474589Y-94296999D01*
X91474591Y-94297002D01*
X91496968Y-94323067D01*
X91501693Y-94329335D01*
X91520599Y-94358020D01*
X91524574Y-94362896D01*
X91523596Y-94363692D01*
X91553865Y-94419125D01*
X91556699Y-94445482D01*
X91556699Y-94543568D01*
X91556700Y-94543575D01*
X91563107Y-94603182D01*
X91613401Y-94738027D01*
X91613405Y-94738034D01*
X91699651Y-94853243D01*
X91699654Y-94853246D01*
X91814863Y-94939492D01*
X91814870Y-94939496D01*
X91949716Y-94989790D01*
X91949715Y-94989790D01*
X91956643Y-94990534D01*
X92009326Y-94996199D01*
X93095671Y-94996198D01*
X93155282Y-94989790D01*
X93290130Y-94939495D01*
X93405345Y-94853245D01*
X93491595Y-94738030D01*
X93541890Y-94603182D01*
X93548299Y-94543572D01*
X93548298Y-94323999D01*
X93567982Y-94256961D01*
X93620786Y-94211206D01*
X93672298Y-94200000D01*
X94337789Y-94200000D01*
X94361980Y-94202383D01*
X94421480Y-94214218D01*
X94466175Y-94232730D01*
X94506272Y-94259522D01*
X94540477Y-94293727D01*
X94567267Y-94333822D01*
X94585781Y-94378519D01*
X94597616Y-94438019D01*
X94599999Y-94462210D01*
X94599999Y-116237789D01*
X94597616Y-116261980D01*
X94585781Y-116321480D01*
X94567267Y-116366179D01*
X94540481Y-116406268D01*
X94506269Y-116440479D01*
X94471975Y-116463394D01*
X94466179Y-116467267D01*
X94421482Y-116485781D01*
X94391578Y-116491729D01*
X94364491Y-116497117D01*
X94340303Y-116499500D01*
X86859697Y-116499500D01*
X86835507Y-116497117D01*
X86817334Y-116493502D01*
X86778518Y-116485781D01*
X86733822Y-116467267D01*
X86693727Y-116440477D01*
X86659522Y-116406272D01*
X86632730Y-116366175D01*
X86614218Y-116321480D01*
X86602383Y-116261980D01*
X86600000Y-116237789D01*
X86600000Y-115964734D01*
X86619685Y-115897695D01*
X86672489Y-115851940D01*
X86734807Y-115841206D01*
X86856373Y-115851842D01*
X86899999Y-115855659D01*
X86900000Y-115855659D01*
X86900001Y-115855659D01*
X86942507Y-115851940D01*
X87135408Y-115835063D01*
X87363663Y-115773903D01*
X87577830Y-115674035D01*
X87771401Y-115538495D01*
X87938495Y-115371401D01*
X88068426Y-115185840D01*
X88123001Y-115142217D01*
X88192499Y-115135023D01*
X88254854Y-115166546D01*
X88271574Y-115185841D01*
X88401505Y-115371401D01*
X88568599Y-115538495D01*
X88665384Y-115606264D01*
X88762165Y-115674032D01*
X88762167Y-115674033D01*
X88762170Y-115674035D01*
X88976337Y-115773903D01*
X89204592Y-115835063D01*
X89392918Y-115851539D01*
X89439999Y-115855659D01*
X89440000Y-115855659D01*
X89440001Y-115855659D01*
X89482507Y-115851940D01*
X89675408Y-115835063D01*
X89903663Y-115773903D01*
X90117830Y-115674035D01*
X90311401Y-115538495D01*
X90478495Y-115371401D01*
X90614035Y-115177830D01*
X90713903Y-114963663D01*
X90775063Y-114735408D01*
X90795659Y-114500000D01*
X90775063Y-114264592D01*
X90713903Y-114036337D01*
X90614035Y-113822171D01*
X90608425Y-113814158D01*
X90478494Y-113628597D01*
X90311402Y-113461506D01*
X90311395Y-113461501D01*
X90117834Y-113325967D01*
X90117830Y-113325965D01*
X90117828Y-113325964D01*
X89903663Y-113226097D01*
X89903659Y-113226096D01*
X89903655Y-113226094D01*
X89675413Y-113164938D01*
X89675403Y-113164936D01*
X89440001Y-113144341D01*
X89439999Y-113144341D01*
X89204596Y-113164936D01*
X89204586Y-113164938D01*
X88976344Y-113226094D01*
X88976335Y-113226098D01*
X88762171Y-113325964D01*
X88762169Y-113325965D01*
X88568597Y-113461505D01*
X88401505Y-113628597D01*
X88271575Y-113814158D01*
X88216998Y-113857783D01*
X88147500Y-113864977D01*
X88085145Y-113833454D01*
X88068425Y-113814158D01*
X87938494Y-113628597D01*
X87771402Y-113461506D01*
X87771395Y-113461501D01*
X87577834Y-113325967D01*
X87577830Y-113325965D01*
X87577828Y-113325964D01*
X87363663Y-113226097D01*
X87363659Y-113226096D01*
X87363655Y-113226094D01*
X87135413Y-113164938D01*
X87135403Y-113164936D01*
X86900001Y-113144341D01*
X86899998Y-113144341D01*
X86734807Y-113158793D01*
X86666307Y-113145026D01*
X86616124Y-113096411D01*
X86600000Y-113035265D01*
X86600000Y-108567763D01*
X87645787Y-108567763D01*
X87675413Y-108837013D01*
X87675415Y-108837024D01*
X87743926Y-109099082D01*
X87743928Y-109099088D01*
X87849870Y-109348390D01*
X87921998Y-109466575D01*
X87990979Y-109579605D01*
X87990986Y-109579615D01*
X88164253Y-109787819D01*
X88164259Y-109787824D01*
X88365998Y-109968582D01*
X88591910Y-110118044D01*
X88837176Y-110233020D01*
X88837183Y-110233022D01*
X88837185Y-110233023D01*
X89096557Y-110311057D01*
X89096564Y-110311058D01*
X89096569Y-110311060D01*
X89364561Y-110350500D01*
X89364566Y-110350500D01*
X89567636Y-110350500D01*
X89619133Y-110346730D01*
X89770156Y-110335677D01*
X89882758Y-110310593D01*
X90034546Y-110276782D01*
X90034548Y-110276781D01*
X90034553Y-110276780D01*
X90287558Y-110180014D01*
X90523777Y-110047441D01*
X90738177Y-109881888D01*
X90926186Y-109686881D01*
X91083799Y-109466579D01*
X91157787Y-109322669D01*
X91207649Y-109225690D01*
X91207651Y-109225684D01*
X91207656Y-109225675D01*
X91295118Y-108969305D01*
X91344319Y-108702933D01*
X91354212Y-108432235D01*
X91324586Y-108162982D01*
X91256072Y-107900912D01*
X91150130Y-107651610D01*
X91009018Y-107420390D01*
X90919747Y-107313119D01*
X90835746Y-107212180D01*
X90835740Y-107212175D01*
X90634002Y-107031418D01*
X90408092Y-106881957D01*
X90408090Y-106881956D01*
X90162824Y-106766980D01*
X90162819Y-106766978D01*
X90162814Y-106766976D01*
X89903442Y-106688942D01*
X89903428Y-106688939D01*
X89787791Y-106671921D01*
X89635439Y-106649500D01*
X89432369Y-106649500D01*
X89432364Y-106649500D01*
X89229844Y-106664323D01*
X89229831Y-106664325D01*
X88965453Y-106723217D01*
X88965446Y-106723220D01*
X88712439Y-106819987D01*
X88476226Y-106952557D01*
X88261822Y-107118112D01*
X88073822Y-107313109D01*
X88073816Y-107313116D01*
X87916202Y-107533419D01*
X87916199Y-107533424D01*
X87792350Y-107774309D01*
X87792343Y-107774327D01*
X87704884Y-108030685D01*
X87704881Y-108030699D01*
X87655681Y-108297068D01*
X87655680Y-108297075D01*
X87645787Y-108567763D01*
X86600000Y-108567763D01*
X86600000Y-103021426D01*
X86619685Y-102954387D01*
X86672489Y-102908632D01*
X86741647Y-102898688D01*
X86805203Y-102927713D01*
X86840182Y-102978094D01*
X86854411Y-103016246D01*
X86854416Y-103016255D01*
X86940662Y-103131464D01*
X86940665Y-103131467D01*
X87055874Y-103217713D01*
X87055881Y-103217717D01*
X87190727Y-103268011D01*
X87190726Y-103268011D01*
X87197654Y-103268755D01*
X87250337Y-103274420D01*
X90345822Y-103274419D01*
X90405433Y-103268011D01*
X90540281Y-103217716D01*
X90655496Y-103131466D01*
X90741746Y-103016251D01*
X90792041Y-102881403D01*
X90798450Y-102821793D01*
X90798449Y-101527168D01*
X90792041Y-101467557D01*
X90761980Y-101386960D01*
X90741747Y-101332711D01*
X90741745Y-101332708D01*
X90678356Y-101248030D01*
X90653939Y-101182565D01*
X90668791Y-101114292D01*
X90678356Y-101099409D01*
X90741746Y-101014731D01*
X90792041Y-100879883D01*
X90798450Y-100820273D01*
X90798449Y-99525648D01*
X90792041Y-99466037D01*
X90761980Y-99385440D01*
X90741747Y-99331191D01*
X90741745Y-99331188D01*
X90679307Y-99247782D01*
X90654889Y-99182317D01*
X90669740Y-99114044D01*
X90679304Y-99099162D01*
X90741746Y-99015751D01*
X90792041Y-98880903D01*
X90798450Y-98821293D01*
X90798449Y-97526668D01*
X90792041Y-97467057D01*
X90767030Y-97400000D01*
X90741747Y-97332211D01*
X90741743Y-97332204D01*
X90655497Y-97216995D01*
X90655494Y-97216992D01*
X90540285Y-97130746D01*
X90540278Y-97130742D01*
X90405432Y-97080448D01*
X90405433Y-97080448D01*
X90345833Y-97074041D01*
X90345831Y-97074040D01*
X90345823Y-97074040D01*
X90345815Y-97074040D01*
X90010632Y-97074040D01*
X89943593Y-97054355D01*
X89897838Y-97001551D01*
X89887411Y-96963924D01*
X89885368Y-96945783D01*
X89825789Y-96775516D01*
X89729816Y-96622776D01*
X89602262Y-96495222D01*
X89532493Y-96451383D01*
X89449523Y-96399249D01*
X89279254Y-96339669D01*
X89279249Y-96339668D01*
X89100004Y-96319473D01*
X89099996Y-96319473D01*
X88920750Y-96339668D01*
X88920745Y-96339669D01*
X88750476Y-96399249D01*
X88597737Y-96495222D01*
X88579741Y-96513219D01*
X88518418Y-96546704D01*
X88492060Y-96549538D01*
X87197162Y-96549538D01*
X87130123Y-96529853D01*
X87084368Y-96477049D01*
X87073941Y-96411657D01*
X87075339Y-96399249D01*
X87077740Y-96377939D01*
X87104805Y-96313528D01*
X87160003Y-96274783D01*
X87300020Y-96225789D01*
X87452760Y-96129816D01*
X87580314Y-96002262D01*
X87676287Y-95849522D01*
X87735866Y-95679255D01*
X87749657Y-95556854D01*
X87756063Y-95500003D01*
X87756063Y-95499996D01*
X87735867Y-95320750D01*
X87735866Y-95320745D01*
X87676286Y-95150476D01*
X87580313Y-94997737D01*
X87452760Y-94870184D01*
X87300021Y-94774211D01*
X87129752Y-94714631D01*
X87129748Y-94714630D01*
X86965033Y-94696072D01*
X86900619Y-94669006D01*
X86891236Y-94660533D01*
X86678576Y-94447873D01*
X86645091Y-94386550D01*
X86650075Y-94316858D01*
X86691947Y-94260925D01*
X86697352Y-94257100D01*
X86733822Y-94232732D01*
X86778514Y-94214219D01*
X86838028Y-94202381D01*
X86862211Y-94200000D01*
X91347755Y-94200000D01*
X91414794Y-94219685D01*
G37*
%TD.AperFunction*%
%TD*%
M02*
