%TF.GenerationSoftware,KiCad,Pcbnew,7.0.6-7.0.6~ubuntu22.04.1*%
%TF.CreationDate,2023-07-30T10:17:08-06:00*%
%TF.ProjectId,fancy-node,66616e63-792d-46e6-9f64-652e6b696361,rev?*%
%TF.SameCoordinates,Original*%
%TF.FileFunction,Legend,Bot*%
%TF.FilePolarity,Positive*%
%FSLAX46Y46*%
G04 Gerber Fmt 4.6, Leading zero omitted, Abs format (unit mm)*
G04 Created by KiCad (PCBNEW 7.0.6-7.0.6~ubuntu22.04.1) date 2023-07-30 10:17:08*
%MOMM*%
%LPD*%
G01*
G04 APERTURE LIST*
G04 Aperture macros list*
%AMFreePoly0*
4,1,6,1.000000,0.000000,0.500000,-0.750000,-0.500000,-0.750000,-0.500000,0.750000,0.500000,0.750000,1.000000,0.000000,1.000000,0.000000,$1*%
%AMFreePoly1*
4,1,6,0.500000,-0.750000,-0.650000,-0.750000,-0.150000,0.000000,-0.650000,0.750000,0.500000,0.750000,0.500000,-0.750000,0.500000,-0.750000,$1*%
G04 Aperture macros list end*
%ADD10C,0.150000*%
%ADD11C,0.120000*%
%ADD12C,0.203200*%
%ADD13C,0.152400*%
%ADD14C,1.408000*%
%ADD15C,1.800000*%
%ADD16C,3.200000*%
%ADD17R,1.700000X1.700000*%
%ADD18O,1.700000X1.700000*%
%ADD19R,1.800000X1.800000*%
%ADD20R,1.000000X1.000000*%
%ADD21C,1.000000*%
%ADD22FreePoly0,270.000000*%
%ADD23FreePoly1,270.000000*%
%ADD24C,1.700000*%
%ADD25R,2.999740X1.198880*%
%ADD26R,0.990600X1.041400*%
%ADD27R,1.041400X2.209800*%
G04 APERTURE END LIST*
D10*
X54463220Y-102088866D02*
X53701316Y-102088866D01*
X56472744Y-115169819D02*
X56282268Y-115169819D01*
X56282268Y-115169819D02*
X56187030Y-115217438D01*
X56187030Y-115217438D02*
X56091792Y-115312676D01*
X56091792Y-115312676D02*
X56044173Y-115503152D01*
X56044173Y-115503152D02*
X56044173Y-115836485D01*
X56044173Y-115836485D02*
X56091792Y-116026961D01*
X56091792Y-116026961D02*
X56187030Y-116122200D01*
X56187030Y-116122200D02*
X56282268Y-116169819D01*
X56282268Y-116169819D02*
X56472744Y-116169819D01*
X56472744Y-116169819D02*
X56567982Y-116122200D01*
X56567982Y-116122200D02*
X56663220Y-116026961D01*
X56663220Y-116026961D02*
X56710839Y-115836485D01*
X56710839Y-115836485D02*
X56710839Y-115503152D01*
X56710839Y-115503152D02*
X56663220Y-115312676D01*
X56663220Y-115312676D02*
X56567982Y-115217438D01*
X56567982Y-115217438D02*
X56472744Y-115169819D01*
X55615601Y-116169819D02*
X55615601Y-115169819D01*
X55615601Y-115169819D02*
X55044173Y-116169819D01*
X55044173Y-116169819D02*
X55044173Y-115169819D01*
X84563220Y-112788866D02*
X83801316Y-112788866D01*
X91672744Y-86169819D02*
X91577506Y-86169819D01*
X91577506Y-86169819D02*
X91482268Y-86217438D01*
X91482268Y-86217438D02*
X91434649Y-86265057D01*
X91434649Y-86265057D02*
X91387030Y-86360295D01*
X91387030Y-86360295D02*
X91339411Y-86550771D01*
X91339411Y-86550771D02*
X91339411Y-86788866D01*
X91339411Y-86788866D02*
X91387030Y-86979342D01*
X91387030Y-86979342D02*
X91434649Y-87074580D01*
X91434649Y-87074580D02*
X91482268Y-87122200D01*
X91482268Y-87122200D02*
X91577506Y-87169819D01*
X91577506Y-87169819D02*
X91672744Y-87169819D01*
X91672744Y-87169819D02*
X91767982Y-87122200D01*
X91767982Y-87122200D02*
X91815601Y-87074580D01*
X91815601Y-87074580D02*
X91863220Y-86979342D01*
X91863220Y-86979342D02*
X91910839Y-86788866D01*
X91910839Y-86788866D02*
X91910839Y-86550771D01*
X91910839Y-86550771D02*
X91863220Y-86360295D01*
X91863220Y-86360295D02*
X91815601Y-86265057D01*
X91815601Y-86265057D02*
X91767982Y-86217438D01*
X91767982Y-86217438D02*
X91672744Y-86169819D01*
X82063220Y-112888866D02*
X81301316Y-112888866D01*
X81682268Y-113269819D02*
X81682268Y-112507914D01*
X53763220Y-108788866D02*
X53001316Y-108788866D01*
X53382268Y-109169819D02*
X53382268Y-108407914D01*
X96810839Y-86165057D02*
X96763220Y-86117438D01*
X96763220Y-86117438D02*
X96667982Y-86069819D01*
X96667982Y-86069819D02*
X96429887Y-86069819D01*
X96429887Y-86069819D02*
X96334649Y-86117438D01*
X96334649Y-86117438D02*
X96287030Y-86165057D01*
X96287030Y-86165057D02*
X96239411Y-86260295D01*
X96239411Y-86260295D02*
X96239411Y-86355533D01*
X96239411Y-86355533D02*
X96287030Y-86498390D01*
X96287030Y-86498390D02*
X96858458Y-87069819D01*
X96858458Y-87069819D02*
X96239411Y-87069819D01*
X88829887Y-86646009D02*
X88687030Y-86693628D01*
X88687030Y-86693628D02*
X88639411Y-86741247D01*
X88639411Y-86741247D02*
X88591792Y-86836485D01*
X88591792Y-86836485D02*
X88591792Y-86979342D01*
X88591792Y-86979342D02*
X88639411Y-87074580D01*
X88639411Y-87074580D02*
X88687030Y-87122200D01*
X88687030Y-87122200D02*
X88782268Y-87169819D01*
X88782268Y-87169819D02*
X89163220Y-87169819D01*
X89163220Y-87169819D02*
X89163220Y-86169819D01*
X89163220Y-86169819D02*
X88829887Y-86169819D01*
X88829887Y-86169819D02*
X88734649Y-86217438D01*
X88734649Y-86217438D02*
X88687030Y-86265057D01*
X88687030Y-86265057D02*
X88639411Y-86360295D01*
X88639411Y-86360295D02*
X88639411Y-86455533D01*
X88639411Y-86455533D02*
X88687030Y-86550771D01*
X88687030Y-86550771D02*
X88734649Y-86598390D01*
X88734649Y-86598390D02*
X88829887Y-86646009D01*
X88829887Y-86646009D02*
X89163220Y-86646009D01*
X60239411Y-87917438D02*
X60334649Y-87869819D01*
X60334649Y-87869819D02*
X60477506Y-87869819D01*
X60477506Y-87869819D02*
X60620363Y-87917438D01*
X60620363Y-87917438D02*
X60715601Y-88012676D01*
X60715601Y-88012676D02*
X60763220Y-88107914D01*
X60763220Y-88107914D02*
X60810839Y-88298390D01*
X60810839Y-88298390D02*
X60810839Y-88441247D01*
X60810839Y-88441247D02*
X60763220Y-88631723D01*
X60763220Y-88631723D02*
X60715601Y-88726961D01*
X60715601Y-88726961D02*
X60620363Y-88822200D01*
X60620363Y-88822200D02*
X60477506Y-88869819D01*
X60477506Y-88869819D02*
X60382268Y-88869819D01*
X60382268Y-88869819D02*
X60239411Y-88822200D01*
X60239411Y-88822200D02*
X60191792Y-88774580D01*
X60191792Y-88774580D02*
X60191792Y-88441247D01*
X60191792Y-88441247D02*
X60382268Y-88441247D01*
X59763220Y-88869819D02*
X59763220Y-87869819D01*
X59763220Y-87869819D02*
X59191792Y-88869819D01*
X59191792Y-88869819D02*
X59191792Y-87869819D01*
X58715601Y-88869819D02*
X58715601Y-87869819D01*
X58715601Y-87869819D02*
X58477506Y-87869819D01*
X58477506Y-87869819D02*
X58334649Y-87917438D01*
X58334649Y-87917438D02*
X58239411Y-88012676D01*
X58239411Y-88012676D02*
X58191792Y-88107914D01*
X58191792Y-88107914D02*
X58144173Y-88298390D01*
X58144173Y-88298390D02*
X58144173Y-88441247D01*
X58144173Y-88441247D02*
X58191792Y-88631723D01*
X58191792Y-88631723D02*
X58239411Y-88726961D01*
X58239411Y-88726961D02*
X58334649Y-88822200D01*
X58334649Y-88822200D02*
X58477506Y-88869819D01*
X58477506Y-88869819D02*
X58715601Y-88869819D01*
X86758458Y-86169819D02*
X86139411Y-86169819D01*
X86139411Y-86169819D02*
X86472744Y-86550771D01*
X86472744Y-86550771D02*
X86329887Y-86550771D01*
X86329887Y-86550771D02*
X86234649Y-86598390D01*
X86234649Y-86598390D02*
X86187030Y-86646009D01*
X86187030Y-86646009D02*
X86139411Y-86741247D01*
X86139411Y-86741247D02*
X86139411Y-86979342D01*
X86139411Y-86979342D02*
X86187030Y-87074580D01*
X86187030Y-87074580D02*
X86234649Y-87122200D01*
X86234649Y-87122200D02*
X86329887Y-87169819D01*
X86329887Y-87169819D02*
X86615601Y-87169819D01*
X86615601Y-87169819D02*
X86710839Y-87122200D01*
X86710839Y-87122200D02*
X86758458Y-87074580D01*
X55663220Y-99888866D02*
X54901316Y-99888866D01*
X87463220Y-112969819D02*
X87463220Y-111969819D01*
X86796554Y-111969819D02*
X86606078Y-111969819D01*
X86606078Y-111969819D02*
X86510840Y-112017438D01*
X86510840Y-112017438D02*
X86415602Y-112112676D01*
X86415602Y-112112676D02*
X86367983Y-112303152D01*
X86367983Y-112303152D02*
X86367983Y-112636485D01*
X86367983Y-112636485D02*
X86415602Y-112826961D01*
X86415602Y-112826961D02*
X86510840Y-112922200D01*
X86510840Y-112922200D02*
X86606078Y-112969819D01*
X86606078Y-112969819D02*
X86796554Y-112969819D01*
X86796554Y-112969819D02*
X86891792Y-112922200D01*
X86891792Y-112922200D02*
X86987030Y-112826961D01*
X86987030Y-112826961D02*
X87034649Y-112636485D01*
X87034649Y-112636485D02*
X87034649Y-112303152D01*
X87034649Y-112303152D02*
X86987030Y-112112676D01*
X86987030Y-112112676D02*
X86891792Y-112017438D01*
X86891792Y-112017438D02*
X86796554Y-111969819D01*
X60387030Y-91369819D02*
X60863220Y-91369819D01*
X60863220Y-91369819D02*
X60863220Y-90369819D01*
X60053696Y-90846009D02*
X59720363Y-90846009D01*
X59577506Y-91369819D02*
X60053696Y-91369819D01*
X60053696Y-91369819D02*
X60053696Y-90369819D01*
X60053696Y-90369819D02*
X59577506Y-90369819D01*
X59148934Y-91369819D02*
X59148934Y-90369819D01*
X59148934Y-90369819D02*
X58910839Y-90369819D01*
X58910839Y-90369819D02*
X58767982Y-90417438D01*
X58767982Y-90417438D02*
X58672744Y-90512676D01*
X58672744Y-90512676D02*
X58625125Y-90607914D01*
X58625125Y-90607914D02*
X58577506Y-90798390D01*
X58577506Y-90798390D02*
X58577506Y-90941247D01*
X58577506Y-90941247D02*
X58625125Y-91131723D01*
X58625125Y-91131723D02*
X58672744Y-91226961D01*
X58672744Y-91226961D02*
X58767982Y-91322200D01*
X58767982Y-91322200D02*
X58910839Y-91369819D01*
X58910839Y-91369819D02*
X59148934Y-91369819D01*
X92691792Y-114874580D02*
X92739411Y-114922200D01*
X92739411Y-114922200D02*
X92882268Y-114969819D01*
X92882268Y-114969819D02*
X92977506Y-114969819D01*
X92977506Y-114969819D02*
X93120363Y-114922200D01*
X93120363Y-114922200D02*
X93215601Y-114826961D01*
X93215601Y-114826961D02*
X93263220Y-114731723D01*
X93263220Y-114731723D02*
X93310839Y-114541247D01*
X93310839Y-114541247D02*
X93310839Y-114398390D01*
X93310839Y-114398390D02*
X93263220Y-114207914D01*
X93263220Y-114207914D02*
X93215601Y-114112676D01*
X93215601Y-114112676D02*
X93120363Y-114017438D01*
X93120363Y-114017438D02*
X92977506Y-113969819D01*
X92977506Y-113969819D02*
X92882268Y-113969819D01*
X92882268Y-113969819D02*
X92739411Y-114017438D01*
X92739411Y-114017438D02*
X92691792Y-114065057D01*
X91787030Y-114969819D02*
X92263220Y-114969819D01*
X92263220Y-114969819D02*
X92263220Y-113969819D01*
X91453696Y-114969819D02*
X91453696Y-113969819D01*
X90882268Y-114969819D02*
X91310839Y-114398390D01*
X90882268Y-113969819D02*
X91453696Y-114541247D01*
X55663220Y-98588866D02*
X54901316Y-98588866D01*
X55282268Y-98969819D02*
X55282268Y-98207914D01*
X54263220Y-96288866D02*
X53501316Y-96288866D01*
X53882268Y-96669819D02*
X53882268Y-95907914D01*
X69872744Y-115269819D02*
X69682268Y-115269819D01*
X69682268Y-115269819D02*
X69587030Y-115317438D01*
X69587030Y-115317438D02*
X69491792Y-115412676D01*
X69491792Y-115412676D02*
X69444173Y-115603152D01*
X69444173Y-115603152D02*
X69444173Y-115936485D01*
X69444173Y-115936485D02*
X69491792Y-116126961D01*
X69491792Y-116126961D02*
X69587030Y-116222200D01*
X69587030Y-116222200D02*
X69682268Y-116269819D01*
X69682268Y-116269819D02*
X69872744Y-116269819D01*
X69872744Y-116269819D02*
X69967982Y-116222200D01*
X69967982Y-116222200D02*
X70063220Y-116126961D01*
X70063220Y-116126961D02*
X70110839Y-115936485D01*
X70110839Y-115936485D02*
X70110839Y-115603152D01*
X70110839Y-115603152D02*
X70063220Y-115412676D01*
X70063220Y-115412676D02*
X69967982Y-115317438D01*
X69967982Y-115317438D02*
X69872744Y-115269819D01*
X68682268Y-115746009D02*
X69015601Y-115746009D01*
X69015601Y-116269819D02*
X69015601Y-115269819D01*
X69015601Y-115269819D02*
X68539411Y-115269819D01*
X67825125Y-115746009D02*
X68158458Y-115746009D01*
X68158458Y-116269819D02*
X68158458Y-115269819D01*
X68158458Y-115269819D02*
X67682268Y-115269819D01*
X93739411Y-87069819D02*
X94310839Y-87069819D01*
X94025125Y-87069819D02*
X94025125Y-86069819D01*
X94025125Y-86069819D02*
X94120363Y-86212676D01*
X94120363Y-86212676D02*
X94215601Y-86307914D01*
X94215601Y-86307914D02*
X94310839Y-86355533D01*
X83339411Y-86517438D02*
X83434649Y-86469819D01*
X83434649Y-86469819D02*
X83577506Y-86469819D01*
X83577506Y-86469819D02*
X83720363Y-86517438D01*
X83720363Y-86517438D02*
X83815601Y-86612676D01*
X83815601Y-86612676D02*
X83863220Y-86707914D01*
X83863220Y-86707914D02*
X83910839Y-86898390D01*
X83910839Y-86898390D02*
X83910839Y-87041247D01*
X83910839Y-87041247D02*
X83863220Y-87231723D01*
X83863220Y-87231723D02*
X83815601Y-87326961D01*
X83815601Y-87326961D02*
X83720363Y-87422200D01*
X83720363Y-87422200D02*
X83577506Y-87469819D01*
X83577506Y-87469819D02*
X83482268Y-87469819D01*
X83482268Y-87469819D02*
X83339411Y-87422200D01*
X83339411Y-87422200D02*
X83291792Y-87374580D01*
X83291792Y-87374580D02*
X83291792Y-87041247D01*
X83291792Y-87041247D02*
X83482268Y-87041247D01*
X53763220Y-106188866D02*
X53001316Y-106188866D01*
X60795291Y-93688866D02*
X60033387Y-93688866D01*
X60414339Y-94069819D02*
X60414339Y-93307914D01*
X59223863Y-93546009D02*
X59081006Y-93593628D01*
X59081006Y-93593628D02*
X59033387Y-93641247D01*
X59033387Y-93641247D02*
X58985768Y-93736485D01*
X58985768Y-93736485D02*
X58985768Y-93879342D01*
X58985768Y-93879342D02*
X59033387Y-93974580D01*
X59033387Y-93974580D02*
X59081006Y-94022200D01*
X59081006Y-94022200D02*
X59176244Y-94069819D01*
X59176244Y-94069819D02*
X59557196Y-94069819D01*
X59557196Y-94069819D02*
X59557196Y-93069819D01*
X59557196Y-93069819D02*
X59223863Y-93069819D01*
X59223863Y-93069819D02*
X59128625Y-93117438D01*
X59128625Y-93117438D02*
X59081006Y-93165057D01*
X59081006Y-93165057D02*
X59033387Y-93260295D01*
X59033387Y-93260295D02*
X59033387Y-93355533D01*
X59033387Y-93355533D02*
X59081006Y-93450771D01*
X59081006Y-93450771D02*
X59128625Y-93498390D01*
X59128625Y-93498390D02*
X59223863Y-93546009D01*
X59223863Y-93546009D02*
X59557196Y-93546009D01*
X58604815Y-93784104D02*
X58128625Y-93784104D01*
X58700053Y-94069819D02*
X58366720Y-93069819D01*
X58366720Y-93069819D02*
X58033387Y-94069819D01*
X57842910Y-93069819D02*
X57271482Y-93069819D01*
X57557196Y-94069819D02*
X57557196Y-93069819D01*
X57081005Y-93069819D02*
X56509577Y-93069819D01*
X56795291Y-94069819D02*
X56795291Y-93069819D01*
X52511133Y-100138220D02*
X52511133Y-99376316D01*
X52511133Y-98938220D02*
X52511133Y-98176316D01*
X52130180Y-98557268D02*
X52892085Y-98557268D01*
X86942856Y-90569104D02*
X86466666Y-90569104D01*
X87038094Y-90854819D02*
X86704761Y-89854819D01*
X86704761Y-89854819D02*
X86371428Y-90854819D01*
X86038094Y-90854819D02*
X86038094Y-89854819D01*
X86038094Y-89854819D02*
X85466666Y-90854819D01*
X85466666Y-90854819D02*
X85466666Y-89854819D01*
X85133332Y-89854819D02*
X84561904Y-89854819D01*
X84847618Y-90854819D02*
X84847618Y-89854819D01*
X77811904Y-90477438D02*
X77907142Y-90429819D01*
X77907142Y-90429819D02*
X78049999Y-90429819D01*
X78049999Y-90429819D02*
X78192856Y-90477438D01*
X78192856Y-90477438D02*
X78288094Y-90572676D01*
X78288094Y-90572676D02*
X78335713Y-90667914D01*
X78335713Y-90667914D02*
X78383332Y-90858390D01*
X78383332Y-90858390D02*
X78383332Y-91001247D01*
X78383332Y-91001247D02*
X78335713Y-91191723D01*
X78335713Y-91191723D02*
X78288094Y-91286961D01*
X78288094Y-91286961D02*
X78192856Y-91382200D01*
X78192856Y-91382200D02*
X78049999Y-91429819D01*
X78049999Y-91429819D02*
X77954761Y-91429819D01*
X77954761Y-91429819D02*
X77811904Y-91382200D01*
X77811904Y-91382200D02*
X77764285Y-91334580D01*
X77764285Y-91334580D02*
X77764285Y-91001247D01*
X77764285Y-91001247D02*
X77954761Y-91001247D01*
X77335713Y-91429819D02*
X77335713Y-90429819D01*
X77335713Y-90429819D02*
X76764285Y-91429819D01*
X76764285Y-91429819D02*
X76764285Y-90429819D01*
X76288094Y-91429819D02*
X76288094Y-90429819D01*
X76288094Y-90429819D02*
X76049999Y-90429819D01*
X76049999Y-90429819D02*
X75907142Y-90477438D01*
X75907142Y-90477438D02*
X75811904Y-90572676D01*
X75811904Y-90572676D02*
X75764285Y-90667914D01*
X75764285Y-90667914D02*
X75716666Y-90858390D01*
X75716666Y-90858390D02*
X75716666Y-91001247D01*
X75716666Y-91001247D02*
X75764285Y-91191723D01*
X75764285Y-91191723D02*
X75811904Y-91286961D01*
X75811904Y-91286961D02*
X75907142Y-91382200D01*
X75907142Y-91382200D02*
X76049999Y-91429819D01*
X76049999Y-91429819D02*
X76288094Y-91429819D01*
D11*
%TO.C,J3*%
X63445000Y-88395000D02*
X63445000Y-87125000D01*
X63445000Y-87125000D02*
X62175000Y-87125000D01*
X61132071Y-93855000D02*
X60735000Y-93855000D01*
X61132071Y-93095000D02*
X60735000Y-93095000D01*
X61132071Y-91315000D02*
X60735000Y-91315000D01*
X61132071Y-90555000D02*
X60735000Y-90555000D01*
X61065000Y-88775000D02*
X60735000Y-88775000D01*
X61065000Y-88015000D02*
X60735000Y-88015000D01*
X60735000Y-94805000D02*
X58075000Y-94805000D01*
X60735000Y-92205000D02*
X58075000Y-92205000D01*
X60735000Y-89665000D02*
X58075000Y-89665000D01*
X60735000Y-87065000D02*
X60735000Y-94805000D01*
X58075000Y-94805000D02*
X58075000Y-87065000D01*
X58075000Y-93095000D02*
X52075000Y-93095000D01*
X58075000Y-90555000D02*
X52075000Y-90555000D01*
X58075000Y-88675000D02*
X52075000Y-88675000D01*
X58075000Y-88555000D02*
X52075000Y-88555000D01*
X58075000Y-88435000D02*
X52075000Y-88435000D01*
X58075000Y-88315000D02*
X52075000Y-88315000D01*
X58075000Y-88195000D02*
X52075000Y-88195000D01*
X58075000Y-88075000D02*
X52075000Y-88075000D01*
X58075000Y-88015000D02*
X52075000Y-88015000D01*
X58075000Y-87065000D02*
X60735000Y-87065000D01*
X52075000Y-93855000D02*
X58075000Y-93855000D01*
X52075000Y-93095000D02*
X52075000Y-93855000D01*
X52075000Y-91315000D02*
X58075000Y-91315000D01*
X52075000Y-90555000D02*
X52075000Y-91315000D01*
X52075000Y-88775000D02*
X58075000Y-88775000D01*
X52075000Y-88015000D02*
X52075000Y-88775000D01*
%TO.C,J6*%
X58200000Y-101775000D02*
X53200000Y-101775000D01*
X53200000Y-101775000D02*
X53200000Y-96775000D01*
X53200000Y-96775000D02*
X58200000Y-96775000D01*
X58200000Y-96775000D02*
X58200000Y-101775000D01*
%TO.C,JP2*%
X93300000Y-89975000D02*
X91300000Y-89975000D01*
X91300000Y-89975000D02*
X91300000Y-92775000D01*
X93300000Y-92775000D02*
X93300000Y-89975000D01*
X91300000Y-92775000D02*
X93300000Y-92775000D01*
D10*
%TO.C,J4*%
X53700000Y-108740000D02*
X53700000Y-110040000D01*
X53700000Y-110040000D02*
X55000000Y-110040000D01*
X56500000Y-103245000D02*
X55900000Y-103245000D01*
X56500000Y-104075000D02*
X55900000Y-104075000D01*
X56500000Y-105785000D02*
X55900000Y-105785000D01*
X56500000Y-106615000D02*
X55900000Y-106615000D01*
X56500000Y-108325000D02*
X56000000Y-108325000D01*
X56500000Y-109155000D02*
X56000000Y-109155000D01*
D11*
X56530000Y-110110000D02*
X66530000Y-110110000D01*
X66530000Y-110110000D02*
X66530000Y-102290000D01*
X66530000Y-102290000D02*
X56530000Y-102290000D01*
X56530000Y-102290000D02*
X56530000Y-110110000D01*
D10*
%TO.C,U5*%
X89300000Y-104175000D02*
X89300000Y-102925000D01*
X89300000Y-101425000D02*
X89300000Y-100925000D01*
X89300000Y-99425000D02*
X89300000Y-98925000D01*
X89300000Y-97425000D02*
X89300000Y-96925000D01*
X89300000Y-95425000D02*
X89300000Y-94925000D01*
X89300000Y-93425000D02*
X89300000Y-92925000D01*
X89300000Y-91425000D02*
X89300000Y-90925000D01*
X89300000Y-89425000D02*
X89300000Y-88175000D01*
D12*
X89300000Y-88175000D02*
X73301540Y-88176540D01*
X86051020Y-97672840D02*
X86051020Y-95676400D01*
X84052040Y-97672840D02*
X86051020Y-97672840D01*
X84052040Y-97672840D02*
X84052040Y-95676400D01*
X84052040Y-95676400D02*
X86051020Y-95676400D01*
X81297960Y-98173980D02*
X77300000Y-98173980D01*
X81297960Y-94176020D02*
X81297960Y-98173980D01*
X77300000Y-98173980D02*
X77300000Y-94176020D01*
X77300000Y-94176020D02*
X81297960Y-94176020D01*
X73301540Y-104173460D02*
X89298460Y-104173460D01*
D10*
X73300000Y-102925000D02*
X73300000Y-104175000D01*
X73300000Y-100925000D02*
X73300000Y-101425000D01*
X73300000Y-98925000D02*
X73300000Y-99425000D01*
X73300000Y-96925000D02*
X73300000Y-97425000D01*
X73300000Y-94925000D02*
X73300000Y-95425000D01*
X73300000Y-92925000D02*
X73300000Y-93425000D01*
X73300000Y-90925000D02*
X73300000Y-91425000D01*
X73300000Y-88175000D02*
X73300000Y-89425000D01*
D13*
%TO.C,J7*%
X94178099Y-97225800D02*
X90926899Y-97225800D01*
X94178099Y-96937640D02*
X94178099Y-97225800D01*
X94178099Y-93872999D02*
X94178099Y-94062360D01*
X93380539Y-93872999D02*
X94178099Y-93872999D01*
D10*
X93052499Y-93049399D02*
X92152499Y-93049399D01*
D13*
X90926899Y-97225800D02*
X90926899Y-96937640D01*
X90926899Y-94062360D02*
X90926899Y-93872999D01*
X90926899Y-93872999D02*
X91724459Y-93872999D01*
%TD*%
%LPC*%
D14*
%TO.C,J1*%
X72550000Y-112400000D03*
X77550000Y-112400000D03*
D15*
X71550000Y-115100000D03*
X78550000Y-115100000D03*
%TD*%
D16*
%TO.C,H4*%
X89500000Y-108500000D03*
%TD*%
D15*
%TO.C,H1*%
X54000000Y-93400000D03*
X54000000Y-90860000D03*
X54000000Y-88320000D03*
%TD*%
D17*
%TO.C,J5*%
X81820000Y-114500000D03*
D18*
X84360000Y-114500000D03*
X86900000Y-114500000D03*
X89440000Y-114500000D03*
%TD*%
D17*
%TO.C,J2*%
X85080000Y-87500000D03*
D18*
X87620000Y-87500000D03*
X90160000Y-87500000D03*
X92700000Y-87500000D03*
X95240000Y-87500000D03*
X97780000Y-87500000D03*
%TD*%
D19*
%TO.C,SW4*%
X59750000Y-112862500D03*
D15*
X62300000Y-112862500D03*
X64850000Y-112862500D03*
%TD*%
D17*
%TO.C,J3*%
X62175000Y-88395000D03*
D18*
X62175000Y-90935000D03*
X62175000Y-93475000D03*
%TD*%
D20*
%TO.C,J6*%
X54200000Y-99900000D03*
D21*
X54200000Y-98650000D03*
%TD*%
D22*
%TO.C,JP2*%
X92300000Y-90650000D03*
D23*
X92300000Y-92100000D03*
%TD*%
D17*
%TO.C,J4*%
X55000000Y-108740000D03*
D24*
X55000000Y-106200000D03*
X55000000Y-103660000D03*
%TD*%
D25*
%TO.C,U5*%
X88798080Y-90175520D03*
X88798080Y-92177040D03*
X88798080Y-94176020D03*
X88798080Y-98173980D03*
X88798080Y-100172960D03*
X88798080Y-102174480D03*
X73801920Y-102174480D03*
X73801920Y-100172960D03*
X73801920Y-90175520D03*
%TD*%
D26*
%TO.C,J7*%
X92552499Y-93974999D03*
D27*
X93700000Y-95500000D03*
X91404998Y-95500000D03*
%TD*%
%LPD*%
M02*
