%TF.GenerationSoftware,KiCad,Pcbnew,7.0.2-6a45011f42~172~ubuntu22.04.1*%
%TF.CreationDate,2023-04-30T23:05:16-06:00*%
%TF.ProjectId,fancy-node,66616e63-792d-46e6-9f64-652e6b696361,rev?*%
%TF.SameCoordinates,Original*%
%TF.FileFunction,Drillmap*%
%TF.FilePolarity,Positive*%
%FSLAX45Y45*%
G04 Gerber Fmt 4.5, Leading zero omitted, Abs format (unit mm)*
G04 Created by KiCad (PCBNEW 7.0.2-6a45011f42~172~ubuntu22.04.1) date 2023-04-30 23:05:16*
%MOMM*%
%LPD*%
G01*
G04 APERTURE LIST*
%ADD10C,0.200000*%
%ADD11C,0.180000*%
%ADD12C,0.320000*%
G04 APERTURE END LIST*
D10*
X5270000Y-8580000D02*
X9980000Y-8580000D01*
X9980000Y-11650000D01*
X5270000Y-11650000D01*
X5270000Y-8580000D01*
D11*
X5310000Y-8742000D02*
X5490000Y-8922000D01*
X5490000Y-8742000D02*
X5310000Y-8922000D01*
X5310000Y-8996000D02*
X5490000Y-9176000D01*
X5490000Y-8996000D02*
X5310000Y-9176000D01*
X5310000Y-9250000D02*
X5490000Y-9430000D01*
X5490000Y-9250000D02*
X5310000Y-9430000D01*
D12*
X9110000Y-10850000D02*
G75*
G03*
X9110000Y-10850000I-160000J0D01*
G01*
D10*
X5507619Y-11972524D02*
X5507619Y-11772524D01*
X5507619Y-11772524D02*
X5555238Y-11772524D01*
X5555238Y-11772524D02*
X5583810Y-11782048D01*
X5583810Y-11782048D02*
X5602857Y-11801095D01*
X5602857Y-11801095D02*
X5612381Y-11820143D01*
X5612381Y-11820143D02*
X5621905Y-11858238D01*
X5621905Y-11858238D02*
X5621905Y-11886809D01*
X5621905Y-11886809D02*
X5612381Y-11924905D01*
X5612381Y-11924905D02*
X5602857Y-11943952D01*
X5602857Y-11943952D02*
X5583810Y-11963000D01*
X5583810Y-11963000D02*
X5555238Y-11972524D01*
X5555238Y-11972524D02*
X5507619Y-11972524D01*
X5707619Y-11972524D02*
X5707619Y-11839190D01*
X5707619Y-11877286D02*
X5717143Y-11858238D01*
X5717143Y-11858238D02*
X5726667Y-11848714D01*
X5726667Y-11848714D02*
X5745714Y-11839190D01*
X5745714Y-11839190D02*
X5764762Y-11839190D01*
X5831428Y-11972524D02*
X5831428Y-11839190D01*
X5831428Y-11772524D02*
X5821905Y-11782048D01*
X5821905Y-11782048D02*
X5831428Y-11791571D01*
X5831428Y-11791571D02*
X5840952Y-11782048D01*
X5840952Y-11782048D02*
X5831428Y-11772524D01*
X5831428Y-11772524D02*
X5831428Y-11791571D01*
X5955238Y-11972524D02*
X5936190Y-11963000D01*
X5936190Y-11963000D02*
X5926667Y-11943952D01*
X5926667Y-11943952D02*
X5926667Y-11772524D01*
X6060000Y-11972524D02*
X6040952Y-11963000D01*
X6040952Y-11963000D02*
X6031428Y-11943952D01*
X6031428Y-11943952D02*
X6031428Y-11772524D01*
X6288571Y-11972524D02*
X6288571Y-11772524D01*
X6288571Y-11772524D02*
X6355238Y-11915381D01*
X6355238Y-11915381D02*
X6421905Y-11772524D01*
X6421905Y-11772524D02*
X6421905Y-11972524D01*
X6602857Y-11972524D02*
X6602857Y-11867762D01*
X6602857Y-11867762D02*
X6593333Y-11848714D01*
X6593333Y-11848714D02*
X6574286Y-11839190D01*
X6574286Y-11839190D02*
X6536190Y-11839190D01*
X6536190Y-11839190D02*
X6517143Y-11848714D01*
X6602857Y-11963000D02*
X6583809Y-11972524D01*
X6583809Y-11972524D02*
X6536190Y-11972524D01*
X6536190Y-11972524D02*
X6517143Y-11963000D01*
X6517143Y-11963000D02*
X6507619Y-11943952D01*
X6507619Y-11943952D02*
X6507619Y-11924905D01*
X6507619Y-11924905D02*
X6517143Y-11905857D01*
X6517143Y-11905857D02*
X6536190Y-11896333D01*
X6536190Y-11896333D02*
X6583809Y-11896333D01*
X6583809Y-11896333D02*
X6602857Y-11886809D01*
X6698095Y-11839190D02*
X6698095Y-12039190D01*
X6698095Y-11848714D02*
X6717143Y-11839190D01*
X6717143Y-11839190D02*
X6755238Y-11839190D01*
X6755238Y-11839190D02*
X6774286Y-11848714D01*
X6774286Y-11848714D02*
X6783809Y-11858238D01*
X6783809Y-11858238D02*
X6793333Y-11877286D01*
X6793333Y-11877286D02*
X6793333Y-11934428D01*
X6793333Y-11934428D02*
X6783809Y-11953476D01*
X6783809Y-11953476D02*
X6774286Y-11963000D01*
X6774286Y-11963000D02*
X6755238Y-11972524D01*
X6755238Y-11972524D02*
X6717143Y-11972524D01*
X6717143Y-11972524D02*
X6698095Y-11963000D01*
X6879048Y-11953476D02*
X6888571Y-11963000D01*
X6888571Y-11963000D02*
X6879048Y-11972524D01*
X6879048Y-11972524D02*
X6869524Y-11963000D01*
X6869524Y-11963000D02*
X6879048Y-11953476D01*
X6879048Y-11953476D02*
X6879048Y-11972524D01*
X6879048Y-11848714D02*
X6888571Y-11858238D01*
X6888571Y-11858238D02*
X6879048Y-11867762D01*
X6879048Y-11867762D02*
X6869524Y-11858238D01*
X6869524Y-11858238D02*
X6879048Y-11848714D01*
X6879048Y-11848714D02*
X6879048Y-11867762D01*
D11*
X5080000Y-12210000D02*
X5260000Y-12390000D01*
X5260000Y-12210000D02*
X5080000Y-12390000D01*
D10*
X5612381Y-12392524D02*
X5498095Y-12392524D01*
X5555238Y-12392524D02*
X5555238Y-12192524D01*
X5555238Y-12192524D02*
X5536190Y-12221095D01*
X5536190Y-12221095D02*
X5517143Y-12240143D01*
X5517143Y-12240143D02*
X5498095Y-12249667D01*
X5698095Y-12373476D02*
X5707619Y-12383000D01*
X5707619Y-12383000D02*
X5698095Y-12392524D01*
X5698095Y-12392524D02*
X5688571Y-12383000D01*
X5688571Y-12383000D02*
X5698095Y-12373476D01*
X5698095Y-12373476D02*
X5698095Y-12392524D01*
X5821905Y-12278238D02*
X5802857Y-12268714D01*
X5802857Y-12268714D02*
X5793333Y-12259190D01*
X5793333Y-12259190D02*
X5783809Y-12240143D01*
X5783809Y-12240143D02*
X5783809Y-12230619D01*
X5783809Y-12230619D02*
X5793333Y-12211571D01*
X5793333Y-12211571D02*
X5802857Y-12202048D01*
X5802857Y-12202048D02*
X5821905Y-12192524D01*
X5821905Y-12192524D02*
X5860000Y-12192524D01*
X5860000Y-12192524D02*
X5879048Y-12202048D01*
X5879048Y-12202048D02*
X5888571Y-12211571D01*
X5888571Y-12211571D02*
X5898095Y-12230619D01*
X5898095Y-12230619D02*
X5898095Y-12240143D01*
X5898095Y-12240143D02*
X5888571Y-12259190D01*
X5888571Y-12259190D02*
X5879048Y-12268714D01*
X5879048Y-12268714D02*
X5860000Y-12278238D01*
X5860000Y-12278238D02*
X5821905Y-12278238D01*
X5821905Y-12278238D02*
X5802857Y-12287762D01*
X5802857Y-12287762D02*
X5793333Y-12297286D01*
X5793333Y-12297286D02*
X5783809Y-12316333D01*
X5783809Y-12316333D02*
X5783809Y-12354428D01*
X5783809Y-12354428D02*
X5793333Y-12373476D01*
X5793333Y-12373476D02*
X5802857Y-12383000D01*
X5802857Y-12383000D02*
X5821905Y-12392524D01*
X5821905Y-12392524D02*
X5860000Y-12392524D01*
X5860000Y-12392524D02*
X5879048Y-12383000D01*
X5879048Y-12383000D02*
X5888571Y-12373476D01*
X5888571Y-12373476D02*
X5898095Y-12354428D01*
X5898095Y-12354428D02*
X5898095Y-12316333D01*
X5898095Y-12316333D02*
X5888571Y-12297286D01*
X5888571Y-12297286D02*
X5879048Y-12287762D01*
X5879048Y-12287762D02*
X5860000Y-12278238D01*
X6021905Y-12192524D02*
X6040952Y-12192524D01*
X6040952Y-12192524D02*
X6060000Y-12202048D01*
X6060000Y-12202048D02*
X6069524Y-12211571D01*
X6069524Y-12211571D02*
X6079048Y-12230619D01*
X6079048Y-12230619D02*
X6088571Y-12268714D01*
X6088571Y-12268714D02*
X6088571Y-12316333D01*
X6088571Y-12316333D02*
X6079048Y-12354428D01*
X6079048Y-12354428D02*
X6069524Y-12373476D01*
X6069524Y-12373476D02*
X6060000Y-12383000D01*
X6060000Y-12383000D02*
X6040952Y-12392524D01*
X6040952Y-12392524D02*
X6021905Y-12392524D01*
X6021905Y-12392524D02*
X6002857Y-12383000D01*
X6002857Y-12383000D02*
X5993333Y-12373476D01*
X5993333Y-12373476D02*
X5983809Y-12354428D01*
X5983809Y-12354428D02*
X5974286Y-12316333D01*
X5974286Y-12316333D02*
X5974286Y-12268714D01*
X5974286Y-12268714D02*
X5983809Y-12230619D01*
X5983809Y-12230619D02*
X5993333Y-12211571D01*
X5993333Y-12211571D02*
X6002857Y-12202048D01*
X6002857Y-12202048D02*
X6021905Y-12192524D01*
X6212381Y-12192524D02*
X6231429Y-12192524D01*
X6231429Y-12192524D02*
X6250476Y-12202048D01*
X6250476Y-12202048D02*
X6260000Y-12211571D01*
X6260000Y-12211571D02*
X6269524Y-12230619D01*
X6269524Y-12230619D02*
X6279048Y-12268714D01*
X6279048Y-12268714D02*
X6279048Y-12316333D01*
X6279048Y-12316333D02*
X6269524Y-12354428D01*
X6269524Y-12354428D02*
X6260000Y-12373476D01*
X6260000Y-12373476D02*
X6250476Y-12383000D01*
X6250476Y-12383000D02*
X6231429Y-12392524D01*
X6231429Y-12392524D02*
X6212381Y-12392524D01*
X6212381Y-12392524D02*
X6193333Y-12383000D01*
X6193333Y-12383000D02*
X6183809Y-12373476D01*
X6183809Y-12373476D02*
X6174286Y-12354428D01*
X6174286Y-12354428D02*
X6164762Y-12316333D01*
X6164762Y-12316333D02*
X6164762Y-12268714D01*
X6164762Y-12268714D02*
X6174286Y-12230619D01*
X6174286Y-12230619D02*
X6183809Y-12211571D01*
X6183809Y-12211571D02*
X6193333Y-12202048D01*
X6193333Y-12202048D02*
X6212381Y-12192524D01*
X6364762Y-12392524D02*
X6364762Y-12259190D01*
X6364762Y-12278238D02*
X6374286Y-12268714D01*
X6374286Y-12268714D02*
X6393333Y-12259190D01*
X6393333Y-12259190D02*
X6421905Y-12259190D01*
X6421905Y-12259190D02*
X6440952Y-12268714D01*
X6440952Y-12268714D02*
X6450476Y-12287762D01*
X6450476Y-12287762D02*
X6450476Y-12392524D01*
X6450476Y-12287762D02*
X6460000Y-12268714D01*
X6460000Y-12268714D02*
X6479048Y-12259190D01*
X6479048Y-12259190D02*
X6507619Y-12259190D01*
X6507619Y-12259190D02*
X6526667Y-12268714D01*
X6526667Y-12268714D02*
X6536190Y-12287762D01*
X6536190Y-12287762D02*
X6536190Y-12392524D01*
X6631429Y-12392524D02*
X6631429Y-12259190D01*
X6631429Y-12278238D02*
X6640952Y-12268714D01*
X6640952Y-12268714D02*
X6660000Y-12259190D01*
X6660000Y-12259190D02*
X6688571Y-12259190D01*
X6688571Y-12259190D02*
X6707619Y-12268714D01*
X6707619Y-12268714D02*
X6717143Y-12287762D01*
X6717143Y-12287762D02*
X6717143Y-12392524D01*
X6717143Y-12287762D02*
X6726667Y-12268714D01*
X6726667Y-12268714D02*
X6745714Y-12259190D01*
X6745714Y-12259190D02*
X6774286Y-12259190D01*
X6774286Y-12259190D02*
X6793333Y-12268714D01*
X6793333Y-12268714D02*
X6802857Y-12287762D01*
X6802857Y-12287762D02*
X6802857Y-12392524D01*
X7193333Y-12183000D02*
X7021905Y-12440143D01*
X7450476Y-12192524D02*
X7469524Y-12192524D01*
X7469524Y-12192524D02*
X7488572Y-12202048D01*
X7488572Y-12202048D02*
X7498095Y-12211571D01*
X7498095Y-12211571D02*
X7507619Y-12230619D01*
X7507619Y-12230619D02*
X7517143Y-12268714D01*
X7517143Y-12268714D02*
X7517143Y-12316333D01*
X7517143Y-12316333D02*
X7507619Y-12354428D01*
X7507619Y-12354428D02*
X7498095Y-12373476D01*
X7498095Y-12373476D02*
X7488572Y-12383000D01*
X7488572Y-12383000D02*
X7469524Y-12392524D01*
X7469524Y-12392524D02*
X7450476Y-12392524D01*
X7450476Y-12392524D02*
X7431429Y-12383000D01*
X7431429Y-12383000D02*
X7421905Y-12373476D01*
X7421905Y-12373476D02*
X7412381Y-12354428D01*
X7412381Y-12354428D02*
X7402857Y-12316333D01*
X7402857Y-12316333D02*
X7402857Y-12268714D01*
X7402857Y-12268714D02*
X7412381Y-12230619D01*
X7412381Y-12230619D02*
X7421905Y-12211571D01*
X7421905Y-12211571D02*
X7431429Y-12202048D01*
X7431429Y-12202048D02*
X7450476Y-12192524D01*
X7602857Y-12373476D02*
X7612381Y-12383000D01*
X7612381Y-12383000D02*
X7602857Y-12392524D01*
X7602857Y-12392524D02*
X7593333Y-12383000D01*
X7593333Y-12383000D02*
X7602857Y-12373476D01*
X7602857Y-12373476D02*
X7602857Y-12392524D01*
X7736191Y-12192524D02*
X7755238Y-12192524D01*
X7755238Y-12192524D02*
X7774286Y-12202048D01*
X7774286Y-12202048D02*
X7783810Y-12211571D01*
X7783810Y-12211571D02*
X7793333Y-12230619D01*
X7793333Y-12230619D02*
X7802857Y-12268714D01*
X7802857Y-12268714D02*
X7802857Y-12316333D01*
X7802857Y-12316333D02*
X7793333Y-12354428D01*
X7793333Y-12354428D02*
X7783810Y-12373476D01*
X7783810Y-12373476D02*
X7774286Y-12383000D01*
X7774286Y-12383000D02*
X7755238Y-12392524D01*
X7755238Y-12392524D02*
X7736191Y-12392524D01*
X7736191Y-12392524D02*
X7717143Y-12383000D01*
X7717143Y-12383000D02*
X7707619Y-12373476D01*
X7707619Y-12373476D02*
X7698095Y-12354428D01*
X7698095Y-12354428D02*
X7688572Y-12316333D01*
X7688572Y-12316333D02*
X7688572Y-12268714D01*
X7688572Y-12268714D02*
X7698095Y-12230619D01*
X7698095Y-12230619D02*
X7707619Y-12211571D01*
X7707619Y-12211571D02*
X7717143Y-12202048D01*
X7717143Y-12202048D02*
X7736191Y-12192524D01*
X7869524Y-12192524D02*
X8002857Y-12192524D01*
X8002857Y-12192524D02*
X7917143Y-12392524D01*
X8117143Y-12192524D02*
X8136191Y-12192524D01*
X8136191Y-12192524D02*
X8155238Y-12202048D01*
X8155238Y-12202048D02*
X8164762Y-12211571D01*
X8164762Y-12211571D02*
X8174286Y-12230619D01*
X8174286Y-12230619D02*
X8183810Y-12268714D01*
X8183810Y-12268714D02*
X8183810Y-12316333D01*
X8183810Y-12316333D02*
X8174286Y-12354428D01*
X8174286Y-12354428D02*
X8164762Y-12373476D01*
X8164762Y-12373476D02*
X8155238Y-12383000D01*
X8155238Y-12383000D02*
X8136191Y-12392524D01*
X8136191Y-12392524D02*
X8117143Y-12392524D01*
X8117143Y-12392524D02*
X8098095Y-12383000D01*
X8098095Y-12383000D02*
X8088572Y-12373476D01*
X8088572Y-12373476D02*
X8079048Y-12354428D01*
X8079048Y-12354428D02*
X8069524Y-12316333D01*
X8069524Y-12316333D02*
X8069524Y-12268714D01*
X8069524Y-12268714D02*
X8079048Y-12230619D01*
X8079048Y-12230619D02*
X8088572Y-12211571D01*
X8088572Y-12211571D02*
X8098095Y-12202048D01*
X8098095Y-12202048D02*
X8117143Y-12192524D01*
X8279048Y-12392524D02*
X8317143Y-12392524D01*
X8317143Y-12392524D02*
X8336191Y-12383000D01*
X8336191Y-12383000D02*
X8345714Y-12373476D01*
X8345714Y-12373476D02*
X8364762Y-12344905D01*
X8364762Y-12344905D02*
X8374286Y-12306809D01*
X8374286Y-12306809D02*
X8374286Y-12230619D01*
X8374286Y-12230619D02*
X8364762Y-12211571D01*
X8364762Y-12211571D02*
X8355238Y-12202048D01*
X8355238Y-12202048D02*
X8336191Y-12192524D01*
X8336191Y-12192524D02*
X8298095Y-12192524D01*
X8298095Y-12192524D02*
X8279048Y-12202048D01*
X8279048Y-12202048D02*
X8269524Y-12211571D01*
X8269524Y-12211571D02*
X8260000Y-12230619D01*
X8260000Y-12230619D02*
X8260000Y-12278238D01*
X8260000Y-12278238D02*
X8269524Y-12297286D01*
X8269524Y-12297286D02*
X8279048Y-12306809D01*
X8279048Y-12306809D02*
X8298095Y-12316333D01*
X8298095Y-12316333D02*
X8336191Y-12316333D01*
X8336191Y-12316333D02*
X8355238Y-12306809D01*
X8355238Y-12306809D02*
X8364762Y-12297286D01*
X8364762Y-12297286D02*
X8374286Y-12278238D01*
X8450476Y-12192524D02*
X8450476Y-12230619D01*
X8526667Y-12192524D02*
X8526667Y-12230619D01*
X8821905Y-12468714D02*
X8812381Y-12459190D01*
X8812381Y-12459190D02*
X8793334Y-12430619D01*
X8793334Y-12430619D02*
X8783810Y-12411571D01*
X8783810Y-12411571D02*
X8774286Y-12383000D01*
X8774286Y-12383000D02*
X8764762Y-12335381D01*
X8764762Y-12335381D02*
X8764762Y-12297286D01*
X8764762Y-12297286D02*
X8774286Y-12249667D01*
X8774286Y-12249667D02*
X8783810Y-12221095D01*
X8783810Y-12221095D02*
X8793334Y-12202048D01*
X8793334Y-12202048D02*
X8812381Y-12173476D01*
X8812381Y-12173476D02*
X8821905Y-12163952D01*
X8879048Y-12192524D02*
X9002857Y-12192524D01*
X9002857Y-12192524D02*
X8936191Y-12268714D01*
X8936191Y-12268714D02*
X8964762Y-12268714D01*
X8964762Y-12268714D02*
X8983810Y-12278238D01*
X8983810Y-12278238D02*
X8993334Y-12287762D01*
X8993334Y-12287762D02*
X9002857Y-12306809D01*
X9002857Y-12306809D02*
X9002857Y-12354428D01*
X9002857Y-12354428D02*
X8993334Y-12373476D01*
X8993334Y-12373476D02*
X8983810Y-12383000D01*
X8983810Y-12383000D02*
X8964762Y-12392524D01*
X8964762Y-12392524D02*
X8907619Y-12392524D01*
X8907619Y-12392524D02*
X8888572Y-12383000D01*
X8888572Y-12383000D02*
X8879048Y-12373476D01*
X9240953Y-12392524D02*
X9240953Y-12192524D01*
X9326667Y-12392524D02*
X9326667Y-12287762D01*
X9326667Y-12287762D02*
X9317143Y-12268714D01*
X9317143Y-12268714D02*
X9298096Y-12259190D01*
X9298096Y-12259190D02*
X9269524Y-12259190D01*
X9269524Y-12259190D02*
X9250477Y-12268714D01*
X9250477Y-12268714D02*
X9240953Y-12278238D01*
X9450477Y-12392524D02*
X9431429Y-12383000D01*
X9431429Y-12383000D02*
X9421905Y-12373476D01*
X9421905Y-12373476D02*
X9412381Y-12354428D01*
X9412381Y-12354428D02*
X9412381Y-12297286D01*
X9412381Y-12297286D02*
X9421905Y-12278238D01*
X9421905Y-12278238D02*
X9431429Y-12268714D01*
X9431429Y-12268714D02*
X9450477Y-12259190D01*
X9450477Y-12259190D02*
X9479048Y-12259190D01*
X9479048Y-12259190D02*
X9498096Y-12268714D01*
X9498096Y-12268714D02*
X9507619Y-12278238D01*
X9507619Y-12278238D02*
X9517143Y-12297286D01*
X9517143Y-12297286D02*
X9517143Y-12354428D01*
X9517143Y-12354428D02*
X9507619Y-12373476D01*
X9507619Y-12373476D02*
X9498096Y-12383000D01*
X9498096Y-12383000D02*
X9479048Y-12392524D01*
X9479048Y-12392524D02*
X9450477Y-12392524D01*
X9631429Y-12392524D02*
X9612381Y-12383000D01*
X9612381Y-12383000D02*
X9602858Y-12363952D01*
X9602858Y-12363952D02*
X9602858Y-12192524D01*
X9783810Y-12383000D02*
X9764762Y-12392524D01*
X9764762Y-12392524D02*
X9726667Y-12392524D01*
X9726667Y-12392524D02*
X9707619Y-12383000D01*
X9707619Y-12383000D02*
X9698096Y-12363952D01*
X9698096Y-12363952D02*
X9698096Y-12287762D01*
X9698096Y-12287762D02*
X9707619Y-12268714D01*
X9707619Y-12268714D02*
X9726667Y-12259190D01*
X9726667Y-12259190D02*
X9764762Y-12259190D01*
X9764762Y-12259190D02*
X9783810Y-12268714D01*
X9783810Y-12268714D02*
X9793334Y-12287762D01*
X9793334Y-12287762D02*
X9793334Y-12306809D01*
X9793334Y-12306809D02*
X9698096Y-12325857D01*
X9869524Y-12383000D02*
X9888572Y-12392524D01*
X9888572Y-12392524D02*
X9926667Y-12392524D01*
X9926667Y-12392524D02*
X9945715Y-12383000D01*
X9945715Y-12383000D02*
X9955239Y-12363952D01*
X9955239Y-12363952D02*
X9955239Y-12354428D01*
X9955239Y-12354428D02*
X9945715Y-12335381D01*
X9945715Y-12335381D02*
X9926667Y-12325857D01*
X9926667Y-12325857D02*
X9898096Y-12325857D01*
X9898096Y-12325857D02*
X9879048Y-12316333D01*
X9879048Y-12316333D02*
X9869524Y-12297286D01*
X9869524Y-12297286D02*
X9869524Y-12287762D01*
X9869524Y-12287762D02*
X9879048Y-12268714D01*
X9879048Y-12268714D02*
X9898096Y-12259190D01*
X9898096Y-12259190D02*
X9926667Y-12259190D01*
X9926667Y-12259190D02*
X9945715Y-12268714D01*
X10021905Y-12468714D02*
X10031429Y-12459190D01*
X10031429Y-12459190D02*
X10050477Y-12430619D01*
X10050477Y-12430619D02*
X10060000Y-12411571D01*
X10060000Y-12411571D02*
X10069524Y-12383000D01*
X10069524Y-12383000D02*
X10079048Y-12335381D01*
X10079048Y-12335381D02*
X10079048Y-12297286D01*
X10079048Y-12297286D02*
X10069524Y-12249667D01*
X10069524Y-12249667D02*
X10060000Y-12221095D01*
X10060000Y-12221095D02*
X10050477Y-12202048D01*
X10050477Y-12202048D02*
X10031429Y-12173476D01*
X10031429Y-12173476D02*
X10021905Y-12163952D01*
X10383810Y-12468714D02*
X10374286Y-12459190D01*
X10374286Y-12459190D02*
X10355239Y-12430619D01*
X10355239Y-12430619D02*
X10345715Y-12411571D01*
X10345715Y-12411571D02*
X10336191Y-12383000D01*
X10336191Y-12383000D02*
X10326667Y-12335381D01*
X10326667Y-12335381D02*
X10326667Y-12297286D01*
X10326667Y-12297286D02*
X10336191Y-12249667D01*
X10336191Y-12249667D02*
X10345715Y-12221095D01*
X10345715Y-12221095D02*
X10355239Y-12202048D01*
X10355239Y-12202048D02*
X10374286Y-12173476D01*
X10374286Y-12173476D02*
X10383810Y-12163952D01*
X10460000Y-12259190D02*
X10460000Y-12392524D01*
X10460000Y-12278238D02*
X10469524Y-12268714D01*
X10469524Y-12268714D02*
X10488572Y-12259190D01*
X10488572Y-12259190D02*
X10517143Y-12259190D01*
X10517143Y-12259190D02*
X10536191Y-12268714D01*
X10536191Y-12268714D02*
X10545715Y-12287762D01*
X10545715Y-12287762D02*
X10545715Y-12392524D01*
X10669524Y-12392524D02*
X10650477Y-12383000D01*
X10650477Y-12383000D02*
X10640953Y-12373476D01*
X10640953Y-12373476D02*
X10631429Y-12354428D01*
X10631429Y-12354428D02*
X10631429Y-12297286D01*
X10631429Y-12297286D02*
X10640953Y-12278238D01*
X10640953Y-12278238D02*
X10650477Y-12268714D01*
X10650477Y-12268714D02*
X10669524Y-12259190D01*
X10669524Y-12259190D02*
X10698096Y-12259190D01*
X10698096Y-12259190D02*
X10717143Y-12268714D01*
X10717143Y-12268714D02*
X10726667Y-12278238D01*
X10726667Y-12278238D02*
X10736191Y-12297286D01*
X10736191Y-12297286D02*
X10736191Y-12354428D01*
X10736191Y-12354428D02*
X10726667Y-12373476D01*
X10726667Y-12373476D02*
X10717143Y-12383000D01*
X10717143Y-12383000D02*
X10698096Y-12392524D01*
X10698096Y-12392524D02*
X10669524Y-12392524D01*
X10793334Y-12259190D02*
X10869524Y-12259190D01*
X10821905Y-12192524D02*
X10821905Y-12363952D01*
X10821905Y-12363952D02*
X10831429Y-12383000D01*
X10831429Y-12383000D02*
X10850477Y-12392524D01*
X10850477Y-12392524D02*
X10869524Y-12392524D01*
X11088572Y-12259190D02*
X11088572Y-12459190D01*
X11088572Y-12268714D02*
X11107620Y-12259190D01*
X11107620Y-12259190D02*
X11145715Y-12259190D01*
X11145715Y-12259190D02*
X11164762Y-12268714D01*
X11164762Y-12268714D02*
X11174286Y-12278238D01*
X11174286Y-12278238D02*
X11183810Y-12297286D01*
X11183810Y-12297286D02*
X11183810Y-12354428D01*
X11183810Y-12354428D02*
X11174286Y-12373476D01*
X11174286Y-12373476D02*
X11164762Y-12383000D01*
X11164762Y-12383000D02*
X11145715Y-12392524D01*
X11145715Y-12392524D02*
X11107620Y-12392524D01*
X11107620Y-12392524D02*
X11088572Y-12383000D01*
X11298096Y-12392524D02*
X11279048Y-12383000D01*
X11279048Y-12383000D02*
X11269524Y-12363952D01*
X11269524Y-12363952D02*
X11269524Y-12192524D01*
X11460000Y-12392524D02*
X11460000Y-12287762D01*
X11460000Y-12287762D02*
X11450477Y-12268714D01*
X11450477Y-12268714D02*
X11431429Y-12259190D01*
X11431429Y-12259190D02*
X11393334Y-12259190D01*
X11393334Y-12259190D02*
X11374286Y-12268714D01*
X11460000Y-12383000D02*
X11440953Y-12392524D01*
X11440953Y-12392524D02*
X11393334Y-12392524D01*
X11393334Y-12392524D02*
X11374286Y-12383000D01*
X11374286Y-12383000D02*
X11364762Y-12363952D01*
X11364762Y-12363952D02*
X11364762Y-12344905D01*
X11364762Y-12344905D02*
X11374286Y-12325857D01*
X11374286Y-12325857D02*
X11393334Y-12316333D01*
X11393334Y-12316333D02*
X11440953Y-12316333D01*
X11440953Y-12316333D02*
X11460000Y-12306809D01*
X11526667Y-12259190D02*
X11602858Y-12259190D01*
X11555239Y-12192524D02*
X11555239Y-12363952D01*
X11555239Y-12363952D02*
X11564762Y-12383000D01*
X11564762Y-12383000D02*
X11583810Y-12392524D01*
X11583810Y-12392524D02*
X11602858Y-12392524D01*
X11745715Y-12383000D02*
X11726667Y-12392524D01*
X11726667Y-12392524D02*
X11688572Y-12392524D01*
X11688572Y-12392524D02*
X11669524Y-12383000D01*
X11669524Y-12383000D02*
X11660000Y-12363952D01*
X11660000Y-12363952D02*
X11660000Y-12287762D01*
X11660000Y-12287762D02*
X11669524Y-12268714D01*
X11669524Y-12268714D02*
X11688572Y-12259190D01*
X11688572Y-12259190D02*
X11726667Y-12259190D01*
X11726667Y-12259190D02*
X11745715Y-12268714D01*
X11745715Y-12268714D02*
X11755239Y-12287762D01*
X11755239Y-12287762D02*
X11755239Y-12306809D01*
X11755239Y-12306809D02*
X11660000Y-12325857D01*
X11926667Y-12392524D02*
X11926667Y-12192524D01*
X11926667Y-12383000D02*
X11907620Y-12392524D01*
X11907620Y-12392524D02*
X11869524Y-12392524D01*
X11869524Y-12392524D02*
X11850477Y-12383000D01*
X11850477Y-12383000D02*
X11840953Y-12373476D01*
X11840953Y-12373476D02*
X11831429Y-12354428D01*
X11831429Y-12354428D02*
X11831429Y-12297286D01*
X11831429Y-12297286D02*
X11840953Y-12278238D01*
X11840953Y-12278238D02*
X11850477Y-12268714D01*
X11850477Y-12268714D02*
X11869524Y-12259190D01*
X11869524Y-12259190D02*
X11907620Y-12259190D01*
X11907620Y-12259190D02*
X11926667Y-12268714D01*
X12002858Y-12468714D02*
X12012381Y-12459190D01*
X12012381Y-12459190D02*
X12031429Y-12430619D01*
X12031429Y-12430619D02*
X12040953Y-12411571D01*
X12040953Y-12411571D02*
X12050477Y-12383000D01*
X12050477Y-12383000D02*
X12060000Y-12335381D01*
X12060000Y-12335381D02*
X12060000Y-12297286D01*
X12060000Y-12297286D02*
X12050477Y-12249667D01*
X12050477Y-12249667D02*
X12040953Y-12221095D01*
X12040953Y-12221095D02*
X12031429Y-12202048D01*
X12031429Y-12202048D02*
X12012381Y-12173476D01*
X12012381Y-12173476D02*
X12002858Y-12163952D01*
X5260000Y-12600000D02*
G75*
G03*
X5260000Y-12600000I-100000J0D01*
G01*
X5488571Y-12492524D02*
X5612381Y-12492524D01*
X5612381Y-12492524D02*
X5545714Y-12568714D01*
X5545714Y-12568714D02*
X5574286Y-12568714D01*
X5574286Y-12568714D02*
X5593333Y-12578238D01*
X5593333Y-12578238D02*
X5602857Y-12587762D01*
X5602857Y-12587762D02*
X5612381Y-12606809D01*
X5612381Y-12606809D02*
X5612381Y-12654428D01*
X5612381Y-12654428D02*
X5602857Y-12673476D01*
X5602857Y-12673476D02*
X5593333Y-12683000D01*
X5593333Y-12683000D02*
X5574286Y-12692524D01*
X5574286Y-12692524D02*
X5517143Y-12692524D01*
X5517143Y-12692524D02*
X5498095Y-12683000D01*
X5498095Y-12683000D02*
X5488571Y-12673476D01*
X5698095Y-12673476D02*
X5707619Y-12683000D01*
X5707619Y-12683000D02*
X5698095Y-12692524D01*
X5698095Y-12692524D02*
X5688571Y-12683000D01*
X5688571Y-12683000D02*
X5698095Y-12673476D01*
X5698095Y-12673476D02*
X5698095Y-12692524D01*
X5783809Y-12511571D02*
X5793333Y-12502048D01*
X5793333Y-12502048D02*
X5812381Y-12492524D01*
X5812381Y-12492524D02*
X5860000Y-12492524D01*
X5860000Y-12492524D02*
X5879048Y-12502048D01*
X5879048Y-12502048D02*
X5888571Y-12511571D01*
X5888571Y-12511571D02*
X5898095Y-12530619D01*
X5898095Y-12530619D02*
X5898095Y-12549667D01*
X5898095Y-12549667D02*
X5888571Y-12578238D01*
X5888571Y-12578238D02*
X5774286Y-12692524D01*
X5774286Y-12692524D02*
X5898095Y-12692524D01*
X6021905Y-12492524D02*
X6040952Y-12492524D01*
X6040952Y-12492524D02*
X6060000Y-12502048D01*
X6060000Y-12502048D02*
X6069524Y-12511571D01*
X6069524Y-12511571D02*
X6079048Y-12530619D01*
X6079048Y-12530619D02*
X6088571Y-12568714D01*
X6088571Y-12568714D02*
X6088571Y-12616333D01*
X6088571Y-12616333D02*
X6079048Y-12654428D01*
X6079048Y-12654428D02*
X6069524Y-12673476D01*
X6069524Y-12673476D02*
X6060000Y-12683000D01*
X6060000Y-12683000D02*
X6040952Y-12692524D01*
X6040952Y-12692524D02*
X6021905Y-12692524D01*
X6021905Y-12692524D02*
X6002857Y-12683000D01*
X6002857Y-12683000D02*
X5993333Y-12673476D01*
X5993333Y-12673476D02*
X5983809Y-12654428D01*
X5983809Y-12654428D02*
X5974286Y-12616333D01*
X5974286Y-12616333D02*
X5974286Y-12568714D01*
X5974286Y-12568714D02*
X5983809Y-12530619D01*
X5983809Y-12530619D02*
X5993333Y-12511571D01*
X5993333Y-12511571D02*
X6002857Y-12502048D01*
X6002857Y-12502048D02*
X6021905Y-12492524D01*
X6212381Y-12492524D02*
X6231429Y-12492524D01*
X6231429Y-12492524D02*
X6250476Y-12502048D01*
X6250476Y-12502048D02*
X6260000Y-12511571D01*
X6260000Y-12511571D02*
X6269524Y-12530619D01*
X6269524Y-12530619D02*
X6279048Y-12568714D01*
X6279048Y-12568714D02*
X6279048Y-12616333D01*
X6279048Y-12616333D02*
X6269524Y-12654428D01*
X6269524Y-12654428D02*
X6260000Y-12673476D01*
X6260000Y-12673476D02*
X6250476Y-12683000D01*
X6250476Y-12683000D02*
X6231429Y-12692524D01*
X6231429Y-12692524D02*
X6212381Y-12692524D01*
X6212381Y-12692524D02*
X6193333Y-12683000D01*
X6193333Y-12683000D02*
X6183809Y-12673476D01*
X6183809Y-12673476D02*
X6174286Y-12654428D01*
X6174286Y-12654428D02*
X6164762Y-12616333D01*
X6164762Y-12616333D02*
X6164762Y-12568714D01*
X6164762Y-12568714D02*
X6174286Y-12530619D01*
X6174286Y-12530619D02*
X6183809Y-12511571D01*
X6183809Y-12511571D02*
X6193333Y-12502048D01*
X6193333Y-12502048D02*
X6212381Y-12492524D01*
X6364762Y-12692524D02*
X6364762Y-12559190D01*
X6364762Y-12578238D02*
X6374286Y-12568714D01*
X6374286Y-12568714D02*
X6393333Y-12559190D01*
X6393333Y-12559190D02*
X6421905Y-12559190D01*
X6421905Y-12559190D02*
X6440952Y-12568714D01*
X6440952Y-12568714D02*
X6450476Y-12587762D01*
X6450476Y-12587762D02*
X6450476Y-12692524D01*
X6450476Y-12587762D02*
X6460000Y-12568714D01*
X6460000Y-12568714D02*
X6479048Y-12559190D01*
X6479048Y-12559190D02*
X6507619Y-12559190D01*
X6507619Y-12559190D02*
X6526667Y-12568714D01*
X6526667Y-12568714D02*
X6536190Y-12587762D01*
X6536190Y-12587762D02*
X6536190Y-12692524D01*
X6631429Y-12692524D02*
X6631429Y-12559190D01*
X6631429Y-12578238D02*
X6640952Y-12568714D01*
X6640952Y-12568714D02*
X6660000Y-12559190D01*
X6660000Y-12559190D02*
X6688571Y-12559190D01*
X6688571Y-12559190D02*
X6707619Y-12568714D01*
X6707619Y-12568714D02*
X6717143Y-12587762D01*
X6717143Y-12587762D02*
X6717143Y-12692524D01*
X6717143Y-12587762D02*
X6726667Y-12568714D01*
X6726667Y-12568714D02*
X6745714Y-12559190D01*
X6745714Y-12559190D02*
X6774286Y-12559190D01*
X6774286Y-12559190D02*
X6793333Y-12568714D01*
X6793333Y-12568714D02*
X6802857Y-12587762D01*
X6802857Y-12587762D02*
X6802857Y-12692524D01*
X7193333Y-12483000D02*
X7021905Y-12740143D01*
X7450476Y-12492524D02*
X7469524Y-12492524D01*
X7469524Y-12492524D02*
X7488572Y-12502048D01*
X7488572Y-12502048D02*
X7498095Y-12511571D01*
X7498095Y-12511571D02*
X7507619Y-12530619D01*
X7507619Y-12530619D02*
X7517143Y-12568714D01*
X7517143Y-12568714D02*
X7517143Y-12616333D01*
X7517143Y-12616333D02*
X7507619Y-12654428D01*
X7507619Y-12654428D02*
X7498095Y-12673476D01*
X7498095Y-12673476D02*
X7488572Y-12683000D01*
X7488572Y-12683000D02*
X7469524Y-12692524D01*
X7469524Y-12692524D02*
X7450476Y-12692524D01*
X7450476Y-12692524D02*
X7431429Y-12683000D01*
X7431429Y-12683000D02*
X7421905Y-12673476D01*
X7421905Y-12673476D02*
X7412381Y-12654428D01*
X7412381Y-12654428D02*
X7402857Y-12616333D01*
X7402857Y-12616333D02*
X7402857Y-12568714D01*
X7402857Y-12568714D02*
X7412381Y-12530619D01*
X7412381Y-12530619D02*
X7421905Y-12511571D01*
X7421905Y-12511571D02*
X7431429Y-12502048D01*
X7431429Y-12502048D02*
X7450476Y-12492524D01*
X7602857Y-12673476D02*
X7612381Y-12683000D01*
X7612381Y-12683000D02*
X7602857Y-12692524D01*
X7602857Y-12692524D02*
X7593333Y-12683000D01*
X7593333Y-12683000D02*
X7602857Y-12673476D01*
X7602857Y-12673476D02*
X7602857Y-12692524D01*
X7802857Y-12692524D02*
X7688572Y-12692524D01*
X7745714Y-12692524D02*
X7745714Y-12492524D01*
X7745714Y-12492524D02*
X7726667Y-12521095D01*
X7726667Y-12521095D02*
X7707619Y-12540143D01*
X7707619Y-12540143D02*
X7688572Y-12549667D01*
X7879048Y-12511571D02*
X7888572Y-12502048D01*
X7888572Y-12502048D02*
X7907619Y-12492524D01*
X7907619Y-12492524D02*
X7955238Y-12492524D01*
X7955238Y-12492524D02*
X7974286Y-12502048D01*
X7974286Y-12502048D02*
X7983810Y-12511571D01*
X7983810Y-12511571D02*
X7993333Y-12530619D01*
X7993333Y-12530619D02*
X7993333Y-12549667D01*
X7993333Y-12549667D02*
X7983810Y-12578238D01*
X7983810Y-12578238D02*
X7869524Y-12692524D01*
X7869524Y-12692524D02*
X7993333Y-12692524D01*
X8164762Y-12492524D02*
X8126667Y-12492524D01*
X8126667Y-12492524D02*
X8107619Y-12502048D01*
X8107619Y-12502048D02*
X8098095Y-12511571D01*
X8098095Y-12511571D02*
X8079048Y-12540143D01*
X8079048Y-12540143D02*
X8069524Y-12578238D01*
X8069524Y-12578238D02*
X8069524Y-12654428D01*
X8069524Y-12654428D02*
X8079048Y-12673476D01*
X8079048Y-12673476D02*
X8088572Y-12683000D01*
X8088572Y-12683000D02*
X8107619Y-12692524D01*
X8107619Y-12692524D02*
X8145714Y-12692524D01*
X8145714Y-12692524D02*
X8164762Y-12683000D01*
X8164762Y-12683000D02*
X8174286Y-12673476D01*
X8174286Y-12673476D02*
X8183810Y-12654428D01*
X8183810Y-12654428D02*
X8183810Y-12606809D01*
X8183810Y-12606809D02*
X8174286Y-12587762D01*
X8174286Y-12587762D02*
X8164762Y-12578238D01*
X8164762Y-12578238D02*
X8145714Y-12568714D01*
X8145714Y-12568714D02*
X8107619Y-12568714D01*
X8107619Y-12568714D02*
X8088572Y-12578238D01*
X8088572Y-12578238D02*
X8079048Y-12587762D01*
X8079048Y-12587762D02*
X8069524Y-12606809D01*
X8307619Y-12492524D02*
X8326667Y-12492524D01*
X8326667Y-12492524D02*
X8345714Y-12502048D01*
X8345714Y-12502048D02*
X8355238Y-12511571D01*
X8355238Y-12511571D02*
X8364762Y-12530619D01*
X8364762Y-12530619D02*
X8374286Y-12568714D01*
X8374286Y-12568714D02*
X8374286Y-12616333D01*
X8374286Y-12616333D02*
X8364762Y-12654428D01*
X8364762Y-12654428D02*
X8355238Y-12673476D01*
X8355238Y-12673476D02*
X8345714Y-12683000D01*
X8345714Y-12683000D02*
X8326667Y-12692524D01*
X8326667Y-12692524D02*
X8307619Y-12692524D01*
X8307619Y-12692524D02*
X8288572Y-12683000D01*
X8288572Y-12683000D02*
X8279048Y-12673476D01*
X8279048Y-12673476D02*
X8269524Y-12654428D01*
X8269524Y-12654428D02*
X8260000Y-12616333D01*
X8260000Y-12616333D02*
X8260000Y-12568714D01*
X8260000Y-12568714D02*
X8269524Y-12530619D01*
X8269524Y-12530619D02*
X8279048Y-12511571D01*
X8279048Y-12511571D02*
X8288572Y-12502048D01*
X8288572Y-12502048D02*
X8307619Y-12492524D01*
X8450476Y-12492524D02*
X8450476Y-12530619D01*
X8526667Y-12492524D02*
X8526667Y-12530619D01*
X8821905Y-12768714D02*
X8812381Y-12759190D01*
X8812381Y-12759190D02*
X8793334Y-12730619D01*
X8793334Y-12730619D02*
X8783810Y-12711571D01*
X8783810Y-12711571D02*
X8774286Y-12683000D01*
X8774286Y-12683000D02*
X8764762Y-12635381D01*
X8764762Y-12635381D02*
X8764762Y-12597286D01*
X8764762Y-12597286D02*
X8774286Y-12549667D01*
X8774286Y-12549667D02*
X8783810Y-12521095D01*
X8783810Y-12521095D02*
X8793334Y-12502048D01*
X8793334Y-12502048D02*
X8812381Y-12473476D01*
X8812381Y-12473476D02*
X8821905Y-12463952D01*
X9002857Y-12692524D02*
X8888572Y-12692524D01*
X8945715Y-12692524D02*
X8945715Y-12492524D01*
X8945715Y-12492524D02*
X8926667Y-12521095D01*
X8926667Y-12521095D02*
X8907619Y-12540143D01*
X8907619Y-12540143D02*
X8888572Y-12549667D01*
X9240953Y-12692524D02*
X9240953Y-12492524D01*
X9326667Y-12692524D02*
X9326667Y-12587762D01*
X9326667Y-12587762D02*
X9317143Y-12568714D01*
X9317143Y-12568714D02*
X9298096Y-12559190D01*
X9298096Y-12559190D02*
X9269524Y-12559190D01*
X9269524Y-12559190D02*
X9250477Y-12568714D01*
X9250477Y-12568714D02*
X9240953Y-12578238D01*
X9450477Y-12692524D02*
X9431429Y-12683000D01*
X9431429Y-12683000D02*
X9421905Y-12673476D01*
X9421905Y-12673476D02*
X9412381Y-12654428D01*
X9412381Y-12654428D02*
X9412381Y-12597286D01*
X9412381Y-12597286D02*
X9421905Y-12578238D01*
X9421905Y-12578238D02*
X9431429Y-12568714D01*
X9431429Y-12568714D02*
X9450477Y-12559190D01*
X9450477Y-12559190D02*
X9479048Y-12559190D01*
X9479048Y-12559190D02*
X9498096Y-12568714D01*
X9498096Y-12568714D02*
X9507619Y-12578238D01*
X9507619Y-12578238D02*
X9517143Y-12597286D01*
X9517143Y-12597286D02*
X9517143Y-12654428D01*
X9517143Y-12654428D02*
X9507619Y-12673476D01*
X9507619Y-12673476D02*
X9498096Y-12683000D01*
X9498096Y-12683000D02*
X9479048Y-12692524D01*
X9479048Y-12692524D02*
X9450477Y-12692524D01*
X9631429Y-12692524D02*
X9612381Y-12683000D01*
X9612381Y-12683000D02*
X9602858Y-12663952D01*
X9602858Y-12663952D02*
X9602858Y-12492524D01*
X9783810Y-12683000D02*
X9764762Y-12692524D01*
X9764762Y-12692524D02*
X9726667Y-12692524D01*
X9726667Y-12692524D02*
X9707619Y-12683000D01*
X9707619Y-12683000D02*
X9698096Y-12663952D01*
X9698096Y-12663952D02*
X9698096Y-12587762D01*
X9698096Y-12587762D02*
X9707619Y-12568714D01*
X9707619Y-12568714D02*
X9726667Y-12559190D01*
X9726667Y-12559190D02*
X9764762Y-12559190D01*
X9764762Y-12559190D02*
X9783810Y-12568714D01*
X9783810Y-12568714D02*
X9793334Y-12587762D01*
X9793334Y-12587762D02*
X9793334Y-12606809D01*
X9793334Y-12606809D02*
X9698096Y-12625857D01*
X9860000Y-12768714D02*
X9869524Y-12759190D01*
X9869524Y-12759190D02*
X9888572Y-12730619D01*
X9888572Y-12730619D02*
X9898096Y-12711571D01*
X9898096Y-12711571D02*
X9907619Y-12683000D01*
X9907619Y-12683000D02*
X9917143Y-12635381D01*
X9917143Y-12635381D02*
X9917143Y-12597286D01*
X9917143Y-12597286D02*
X9907619Y-12549667D01*
X9907619Y-12549667D02*
X9898096Y-12521095D01*
X9898096Y-12521095D02*
X9888572Y-12502048D01*
X9888572Y-12502048D02*
X9869524Y-12473476D01*
X9869524Y-12473476D02*
X9860000Y-12463952D01*
X10221905Y-12768714D02*
X10212381Y-12759190D01*
X10212381Y-12759190D02*
X10193334Y-12730619D01*
X10193334Y-12730619D02*
X10183810Y-12711571D01*
X10183810Y-12711571D02*
X10174286Y-12683000D01*
X10174286Y-12683000D02*
X10164762Y-12635381D01*
X10164762Y-12635381D02*
X10164762Y-12597286D01*
X10164762Y-12597286D02*
X10174286Y-12549667D01*
X10174286Y-12549667D02*
X10183810Y-12521095D01*
X10183810Y-12521095D02*
X10193334Y-12502048D01*
X10193334Y-12502048D02*
X10212381Y-12473476D01*
X10212381Y-12473476D02*
X10221905Y-12463952D01*
X10298096Y-12559190D02*
X10298096Y-12692524D01*
X10298096Y-12578238D02*
X10307619Y-12568714D01*
X10307619Y-12568714D02*
X10326667Y-12559190D01*
X10326667Y-12559190D02*
X10355239Y-12559190D01*
X10355239Y-12559190D02*
X10374286Y-12568714D01*
X10374286Y-12568714D02*
X10383810Y-12587762D01*
X10383810Y-12587762D02*
X10383810Y-12692524D01*
X10507619Y-12692524D02*
X10488572Y-12683000D01*
X10488572Y-12683000D02*
X10479048Y-12673476D01*
X10479048Y-12673476D02*
X10469524Y-12654428D01*
X10469524Y-12654428D02*
X10469524Y-12597286D01*
X10469524Y-12597286D02*
X10479048Y-12578238D01*
X10479048Y-12578238D02*
X10488572Y-12568714D01*
X10488572Y-12568714D02*
X10507619Y-12559190D01*
X10507619Y-12559190D02*
X10536191Y-12559190D01*
X10536191Y-12559190D02*
X10555239Y-12568714D01*
X10555239Y-12568714D02*
X10564762Y-12578238D01*
X10564762Y-12578238D02*
X10574286Y-12597286D01*
X10574286Y-12597286D02*
X10574286Y-12654428D01*
X10574286Y-12654428D02*
X10564762Y-12673476D01*
X10564762Y-12673476D02*
X10555239Y-12683000D01*
X10555239Y-12683000D02*
X10536191Y-12692524D01*
X10536191Y-12692524D02*
X10507619Y-12692524D01*
X10631429Y-12559190D02*
X10707619Y-12559190D01*
X10660000Y-12492524D02*
X10660000Y-12663952D01*
X10660000Y-12663952D02*
X10669524Y-12683000D01*
X10669524Y-12683000D02*
X10688572Y-12692524D01*
X10688572Y-12692524D02*
X10707619Y-12692524D01*
X10926667Y-12559190D02*
X10926667Y-12759190D01*
X10926667Y-12568714D02*
X10945715Y-12559190D01*
X10945715Y-12559190D02*
X10983810Y-12559190D01*
X10983810Y-12559190D02*
X11002858Y-12568714D01*
X11002858Y-12568714D02*
X11012381Y-12578238D01*
X11012381Y-12578238D02*
X11021905Y-12597286D01*
X11021905Y-12597286D02*
X11021905Y-12654428D01*
X11021905Y-12654428D02*
X11012381Y-12673476D01*
X11012381Y-12673476D02*
X11002858Y-12683000D01*
X11002858Y-12683000D02*
X10983810Y-12692524D01*
X10983810Y-12692524D02*
X10945715Y-12692524D01*
X10945715Y-12692524D02*
X10926667Y-12683000D01*
X11136191Y-12692524D02*
X11117143Y-12683000D01*
X11117143Y-12683000D02*
X11107620Y-12663952D01*
X11107620Y-12663952D02*
X11107620Y-12492524D01*
X11298096Y-12692524D02*
X11298096Y-12587762D01*
X11298096Y-12587762D02*
X11288572Y-12568714D01*
X11288572Y-12568714D02*
X11269524Y-12559190D01*
X11269524Y-12559190D02*
X11231429Y-12559190D01*
X11231429Y-12559190D02*
X11212381Y-12568714D01*
X11298096Y-12683000D02*
X11279048Y-12692524D01*
X11279048Y-12692524D02*
X11231429Y-12692524D01*
X11231429Y-12692524D02*
X11212381Y-12683000D01*
X11212381Y-12683000D02*
X11202858Y-12663952D01*
X11202858Y-12663952D02*
X11202858Y-12644905D01*
X11202858Y-12644905D02*
X11212381Y-12625857D01*
X11212381Y-12625857D02*
X11231429Y-12616333D01*
X11231429Y-12616333D02*
X11279048Y-12616333D01*
X11279048Y-12616333D02*
X11298096Y-12606809D01*
X11364762Y-12559190D02*
X11440953Y-12559190D01*
X11393334Y-12492524D02*
X11393334Y-12663952D01*
X11393334Y-12663952D02*
X11402858Y-12683000D01*
X11402858Y-12683000D02*
X11421905Y-12692524D01*
X11421905Y-12692524D02*
X11440953Y-12692524D01*
X11583810Y-12683000D02*
X11564762Y-12692524D01*
X11564762Y-12692524D02*
X11526667Y-12692524D01*
X11526667Y-12692524D02*
X11507619Y-12683000D01*
X11507619Y-12683000D02*
X11498096Y-12663952D01*
X11498096Y-12663952D02*
X11498096Y-12587762D01*
X11498096Y-12587762D02*
X11507619Y-12568714D01*
X11507619Y-12568714D02*
X11526667Y-12559190D01*
X11526667Y-12559190D02*
X11564762Y-12559190D01*
X11564762Y-12559190D02*
X11583810Y-12568714D01*
X11583810Y-12568714D02*
X11593334Y-12587762D01*
X11593334Y-12587762D02*
X11593334Y-12606809D01*
X11593334Y-12606809D02*
X11498096Y-12625857D01*
X11764762Y-12692524D02*
X11764762Y-12492524D01*
X11764762Y-12683000D02*
X11745715Y-12692524D01*
X11745715Y-12692524D02*
X11707619Y-12692524D01*
X11707619Y-12692524D02*
X11688572Y-12683000D01*
X11688572Y-12683000D02*
X11679048Y-12673476D01*
X11679048Y-12673476D02*
X11669524Y-12654428D01*
X11669524Y-12654428D02*
X11669524Y-12597286D01*
X11669524Y-12597286D02*
X11679048Y-12578238D01*
X11679048Y-12578238D02*
X11688572Y-12568714D01*
X11688572Y-12568714D02*
X11707619Y-12559190D01*
X11707619Y-12559190D02*
X11745715Y-12559190D01*
X11745715Y-12559190D02*
X11764762Y-12568714D01*
X11840953Y-12768714D02*
X11850477Y-12759190D01*
X11850477Y-12759190D02*
X11869524Y-12730619D01*
X11869524Y-12730619D02*
X11879048Y-12711571D01*
X11879048Y-12711571D02*
X11888572Y-12683000D01*
X11888572Y-12683000D02*
X11898096Y-12635381D01*
X11898096Y-12635381D02*
X11898096Y-12597286D01*
X11898096Y-12597286D02*
X11888572Y-12549667D01*
X11888572Y-12549667D02*
X11879048Y-12521095D01*
X11879048Y-12521095D02*
X11869524Y-12502048D01*
X11869524Y-12502048D02*
X11850477Y-12473476D01*
X11850477Y-12473476D02*
X11840953Y-12463952D01*
M02*
