%TF.GenerationSoftware,KiCad,Pcbnew,6.0.6-3a73a75311~116~ubuntu20.04.1*%
%TF.CreationDate,2022-07-24T13:39:07-06:00*%
%TF.ProjectId,fancy-node,66616e63-792d-46e6-9f64-652e6b696361,rev?*%
%TF.SameCoordinates,Original*%
%TF.FileFunction,Legend,Top*%
%TF.FilePolarity,Positive*%
%FSLAX46Y46*%
G04 Gerber Fmt 4.6, Leading zero omitted, Abs format (unit mm)*
G04 Created by KiCad (PCBNEW 6.0.6-3a73a75311~116~ubuntu20.04.1) date 2022-07-24 13:39:07*
%MOMM*%
%LPD*%
G01*
G04 APERTURE LIST*
G04 Aperture macros list*
%AMRoundRect*
0 Rectangle with rounded corners*
0 $1 Rounding radius*
0 $2 $3 $4 $5 $6 $7 $8 $9 X,Y pos of 4 corners*
0 Add a 4 corners polygon primitive as box body*
4,1,4,$2,$3,$4,$5,$6,$7,$8,$9,$2,$3,0*
0 Add four circle primitives for the rounded corners*
1,1,$1+$1,$2,$3*
1,1,$1+$1,$4,$5*
1,1,$1+$1,$6,$7*
1,1,$1+$1,$8,$9*
0 Add four rect primitives between the rounded corners*
20,1,$1+$1,$2,$3,$4,$5,0*
20,1,$1+$1,$4,$5,$6,$7,0*
20,1,$1+$1,$6,$7,$8,$9,0*
20,1,$1+$1,$8,$9,$2,$3,0*%
%AMFreePoly0*
4,1,9,3.862500,-0.866500,0.737500,-0.866500,0.737500,-0.450000,-0.737500,-0.450000,-0.737500,0.450000,0.737500,0.450000,0.737500,0.866500,3.862500,0.866500,3.862500,-0.866500,3.862500,-0.866500,$1*%
G04 Aperture macros list end*
%ADD10C,0.150000*%
%ADD11C,0.120000*%
%ADD12C,0.127000*%
%ADD13C,1.408000*%
%ADD14C,1.800000*%
%ADD15RoundRect,0.135000X-0.135000X-0.185000X0.135000X-0.185000X0.135000X0.185000X-0.135000X0.185000X0*%
%ADD16C,1.650000*%
%ADD17RoundRect,0.500000X-0.500000X-1.250000X0.500000X-1.250000X0.500000X1.250000X-0.500000X1.250000X0*%
%ADD18RoundRect,0.155000X0.155000X-0.212500X0.155000X0.212500X-0.155000X0.212500X-0.155000X-0.212500X0*%
%ADD19RoundRect,0.250000X-0.325000X-0.650000X0.325000X-0.650000X0.325000X0.650000X-0.325000X0.650000X0*%
%ADD20R,2.500000X2.300000*%
%ADD21RoundRect,0.200000X-0.275000X0.200000X-0.275000X-0.200000X0.275000X-0.200000X0.275000X0.200000X0*%
%ADD22RoundRect,0.225000X-0.250000X0.225000X-0.250000X-0.225000X0.250000X-0.225000X0.250000X0.225000X0*%
%ADD23RoundRect,0.200000X0.200000X0.275000X-0.200000X0.275000X-0.200000X-0.275000X0.200000X-0.275000X0*%
%ADD24RoundRect,0.150000X0.150000X-0.825000X0.150000X0.825000X-0.150000X0.825000X-0.150000X-0.825000X0*%
%ADD25RoundRect,0.225000X0.225000X0.250000X-0.225000X0.250000X-0.225000X-0.250000X0.225000X-0.250000X0*%
%ADD26R,1.500000X1.000000*%
%ADD27RoundRect,0.150000X0.675000X0.150000X-0.675000X0.150000X-0.675000X-0.150000X0.675000X-0.150000X0*%
%ADD28R,2.700000X3.800000*%
%ADD29RoundRect,0.075000X-0.075000X0.662500X-0.075000X-0.662500X0.075000X-0.662500X0.075000X0.662500X0*%
%ADD30RoundRect,0.075000X-0.662500X0.075000X-0.662500X-0.075000X0.662500X-0.075000X0.662500X0.075000X0*%
%ADD31RoundRect,0.135000X0.185000X-0.135000X0.185000X0.135000X-0.185000X0.135000X-0.185000X-0.135000X0*%
%ADD32RoundRect,0.200000X-0.200000X-0.275000X0.200000X-0.275000X0.200000X0.275000X-0.200000X0.275000X0*%
%ADD33RoundRect,0.250000X0.400000X1.450000X-0.400000X1.450000X-0.400000X-1.450000X0.400000X-1.450000X0*%
%ADD34C,3.200000*%
%ADD35R,1.700000X1.700000*%
%ADD36O,1.700000X1.700000*%
%ADD37RoundRect,0.155000X0.212500X0.155000X-0.212500X0.155000X-0.212500X-0.155000X0.212500X-0.155000X0*%
%ADD38R,2.300000X2.500000*%
%ADD39RoundRect,0.155000X-0.212500X-0.155000X0.212500X-0.155000X0.212500X0.155000X-0.212500X0.155000X0*%
%ADD40RoundRect,0.225000X-0.225000X-0.250000X0.225000X-0.250000X0.225000X0.250000X-0.225000X0.250000X0*%
%ADD41RoundRect,0.135000X0.135000X0.185000X-0.135000X0.185000X-0.135000X-0.185000X0.135000X-0.185000X0*%
%ADD42R,1.500000X2.000000*%
%ADD43RoundRect,0.218750X-0.256250X0.218750X-0.256250X-0.218750X0.256250X-0.218750X0.256250X0.218750X0*%
%ADD44RoundRect,0.147500X-0.172500X0.147500X-0.172500X-0.147500X0.172500X-0.147500X0.172500X0.147500X0*%
%ADD45RoundRect,0.225000X0.250000X-0.225000X0.250000X0.225000X-0.250000X0.225000X-0.250000X-0.225000X0*%
%ADD46RoundRect,0.050000X0.200000X0.675000X-0.200000X0.675000X-0.200000X-0.675000X0.200000X-0.675000X0*%
%ADD47R,1.500000X1.550000*%
%ADD48RoundRect,0.150000X0.512500X0.150000X-0.512500X0.150000X-0.512500X-0.150000X0.512500X-0.150000X0*%
%ADD49R,1.300000X0.900000*%
%ADD50FreePoly0,0.000000*%
%ADD51C,1.700000*%
G04 APERTURE END LIST*
D10*
X30209523Y-93371428D02*
X30971428Y-93371428D01*
X30590476Y-93752380D02*
X30590476Y-92990476D01*
X31780952Y-93228571D02*
X31923809Y-93276190D01*
X31971428Y-93323809D01*
X32019047Y-93419047D01*
X32019047Y-93561904D01*
X31971428Y-93657142D01*
X31923809Y-93704761D01*
X31828571Y-93752380D01*
X31447619Y-93752380D01*
X31447619Y-92752380D01*
X31780952Y-92752380D01*
X31876190Y-92800000D01*
X31923809Y-92847619D01*
X31971428Y-92942857D01*
X31971428Y-93038095D01*
X31923809Y-93133333D01*
X31876190Y-93180952D01*
X31780952Y-93228571D01*
X31447619Y-93228571D01*
X32400000Y-93466666D02*
X32876190Y-93466666D01*
X32304761Y-93752380D02*
X32638095Y-92752380D01*
X32971428Y-93752380D01*
X33161904Y-92752380D02*
X33733333Y-92752380D01*
X33447619Y-93752380D02*
X33447619Y-92752380D01*
X80861904Y-91552380D02*
X81480952Y-91552380D01*
X81147619Y-91933333D01*
X81290476Y-91933333D01*
X81385714Y-91980952D01*
X81433333Y-92028571D01*
X81480952Y-92123809D01*
X81480952Y-92361904D01*
X81433333Y-92457142D01*
X81385714Y-92504761D01*
X81290476Y-92552380D01*
X81004761Y-92552380D01*
X80909523Y-92504761D01*
X80861904Y-92457142D01*
X81766666Y-91552380D02*
X82100000Y-92552380D01*
X82433333Y-91552380D01*
X82671428Y-91552380D02*
X83290476Y-91552380D01*
X82957142Y-91933333D01*
X83100000Y-91933333D01*
X83195238Y-91980952D01*
X83242857Y-92028571D01*
X83290476Y-92123809D01*
X83290476Y-92361904D01*
X83242857Y-92457142D01*
X83195238Y-92504761D01*
X83100000Y-92552380D01*
X82814285Y-92552380D01*
X82719047Y-92504761D01*
X82671428Y-92457142D01*
X72119047Y-90071428D02*
X72880952Y-90071428D01*
X72500000Y-90452380D02*
X72500000Y-89690476D01*
X77119047Y-90071428D02*
X77880952Y-90071428D01*
X45138095Y-80485714D02*
X45519047Y-80485714D01*
X45280952Y-81152380D02*
X45280952Y-80295238D01*
X45328571Y-80200000D01*
X45423809Y-80152380D01*
X45519047Y-80152380D01*
X46280952Y-81152380D02*
X46280952Y-80628571D01*
X46233333Y-80533333D01*
X46138095Y-80485714D01*
X45947619Y-80485714D01*
X45852380Y-80533333D01*
X46280952Y-81104761D02*
X46185714Y-81152380D01*
X45947619Y-81152380D01*
X45852380Y-81104761D01*
X45804761Y-81009523D01*
X45804761Y-80914285D01*
X45852380Y-80819047D01*
X45947619Y-80771428D01*
X46185714Y-80771428D01*
X46280952Y-80723809D01*
X46757142Y-80485714D02*
X46757142Y-81152380D01*
X46757142Y-80580952D02*
X46804761Y-80533333D01*
X46900000Y-80485714D01*
X47042857Y-80485714D01*
X47138095Y-80533333D01*
X47185714Y-80628571D01*
X47185714Y-81152380D01*
X48090476Y-81104761D02*
X47995238Y-81152380D01*
X47804761Y-81152380D01*
X47709523Y-81104761D01*
X47661904Y-81057142D01*
X47614285Y-80961904D01*
X47614285Y-80676190D01*
X47661904Y-80580952D01*
X47709523Y-80533333D01*
X47804761Y-80485714D01*
X47995238Y-80485714D01*
X48090476Y-80533333D01*
X48423809Y-80485714D02*
X48661904Y-81152380D01*
X48900000Y-80485714D02*
X48661904Y-81152380D01*
X48566666Y-81390476D01*
X48519047Y-81438095D01*
X48423809Y-81485714D01*
X49280952Y-80771428D02*
X50042857Y-80771428D01*
X50519047Y-80485714D02*
X50519047Y-81152380D01*
X50519047Y-80580952D02*
X50566666Y-80533333D01*
X50661904Y-80485714D01*
X50804761Y-80485714D01*
X50900000Y-80533333D01*
X50947619Y-80628571D01*
X50947619Y-81152380D01*
X51566666Y-81152380D02*
X51471428Y-81104761D01*
X51423809Y-81057142D01*
X51376190Y-80961904D01*
X51376190Y-80676190D01*
X51423809Y-80580952D01*
X51471428Y-80533333D01*
X51566666Y-80485714D01*
X51709523Y-80485714D01*
X51804761Y-80533333D01*
X51852380Y-80580952D01*
X51900000Y-80676190D01*
X51900000Y-80961904D01*
X51852380Y-81057142D01*
X51804761Y-81104761D01*
X51709523Y-81152380D01*
X51566666Y-81152380D01*
X52757142Y-81152380D02*
X52757142Y-80152380D01*
X52757142Y-81104761D02*
X52661904Y-81152380D01*
X52471428Y-81152380D01*
X52376190Y-81104761D01*
X52328571Y-81057142D01*
X52280952Y-80961904D01*
X52280952Y-80676190D01*
X52328571Y-80580952D01*
X52376190Y-80533333D01*
X52471428Y-80485714D01*
X52661904Y-80485714D01*
X52757142Y-80533333D01*
X53614285Y-81104761D02*
X53519047Y-81152380D01*
X53328571Y-81152380D01*
X53233333Y-81104761D01*
X53185714Y-81009523D01*
X53185714Y-80628571D01*
X53233333Y-80533333D01*
X53328571Y-80485714D01*
X53519047Y-80485714D01*
X53614285Y-80533333D01*
X53661904Y-80628571D01*
X53661904Y-80723809D01*
X53185714Y-80819047D01*
X54757142Y-80485714D02*
X54995238Y-81152380D01*
X55233333Y-80485714D01*
X56138095Y-81152380D02*
X55566666Y-81152380D01*
X55852380Y-81152380D02*
X55852380Y-80152380D01*
X55757142Y-80295238D01*
X55661904Y-80390476D01*
X55566666Y-80438095D01*
X56566666Y-81057142D02*
X56614285Y-81104761D01*
X56566666Y-81152380D01*
X56519047Y-81104761D01*
X56566666Y-81057142D01*
X56566666Y-81152380D01*
X57233333Y-80152380D02*
X57328571Y-80152380D01*
X57423809Y-80200000D01*
X57471428Y-80247619D01*
X57519047Y-80342857D01*
X57566666Y-80533333D01*
X57566666Y-80771428D01*
X57519047Y-80961904D01*
X57471428Y-81057142D01*
X57423809Y-81104761D01*
X57328571Y-81152380D01*
X57233333Y-81152380D01*
X57138095Y-81104761D01*
X57090476Y-81057142D01*
X57042857Y-80961904D01*
X56995238Y-80771428D01*
X56995238Y-80533333D01*
X57042857Y-80342857D01*
X57090476Y-80247619D01*
X57138095Y-80200000D01*
X57233333Y-80152380D01*
X52766666Y-70504761D02*
X52909523Y-70552380D01*
X53147619Y-70552380D01*
X53242857Y-70504761D01*
X53290476Y-70457142D01*
X53338095Y-70361904D01*
X53338095Y-70266666D01*
X53290476Y-70171428D01*
X53242857Y-70123809D01*
X53147619Y-70076190D01*
X52957142Y-70028571D01*
X52861904Y-69980952D01*
X52814285Y-69933333D01*
X52766666Y-69838095D01*
X52766666Y-69742857D01*
X52814285Y-69647619D01*
X52861904Y-69600000D01*
X52957142Y-69552380D01*
X53195238Y-69552380D01*
X53338095Y-69600000D01*
X53671428Y-69552380D02*
X53909523Y-70552380D01*
X54100000Y-69838095D01*
X54290476Y-70552380D01*
X54528571Y-69552380D01*
X55338095Y-69885714D02*
X55338095Y-70552380D01*
X55100000Y-69504761D02*
X54861904Y-70219047D01*
X55480952Y-70219047D01*
X30838095Y-90400000D02*
X30742857Y-90352380D01*
X30600000Y-90352380D01*
X30457142Y-90400000D01*
X30361904Y-90495238D01*
X30314285Y-90590476D01*
X30266666Y-90780952D01*
X30266666Y-90923809D01*
X30314285Y-91114285D01*
X30361904Y-91209523D01*
X30457142Y-91304761D01*
X30600000Y-91352380D01*
X30695238Y-91352380D01*
X30838095Y-91304761D01*
X30885714Y-91257142D01*
X30885714Y-90923809D01*
X30695238Y-90923809D01*
X31314285Y-91352380D02*
X31314285Y-90352380D01*
X31885714Y-91352380D01*
X31885714Y-90352380D01*
X32361904Y-91352380D02*
X32361904Y-90352380D01*
X32600000Y-90352380D01*
X32742857Y-90400000D01*
X32838095Y-90495238D01*
X32885714Y-90590476D01*
X32933333Y-90780952D01*
X32933333Y-90923809D01*
X32885714Y-91114285D01*
X32838095Y-91209523D01*
X32742857Y-91304761D01*
X32600000Y-91352380D01*
X32361904Y-91352380D01*
X82809523Y-84857142D02*
X82761904Y-84904761D01*
X82619047Y-84952380D01*
X82523809Y-84952380D01*
X82380952Y-84904761D01*
X82285714Y-84809523D01*
X82238095Y-84714285D01*
X82190476Y-84523809D01*
X82190476Y-84380952D01*
X82238095Y-84190476D01*
X82285714Y-84095238D01*
X82380952Y-84000000D01*
X82523809Y-83952380D01*
X82619047Y-83952380D01*
X82761904Y-84000000D01*
X82809523Y-84047619D01*
X83238095Y-84952380D02*
X83238095Y-83952380D01*
X83809523Y-84952380D02*
X83380952Y-84380952D01*
X83809523Y-83952380D02*
X83238095Y-84523809D01*
X82276190Y-87552380D02*
X82276190Y-86552380D01*
X82942857Y-86552380D02*
X83133333Y-86552380D01*
X83228571Y-86600000D01*
X83323809Y-86695238D01*
X83371428Y-86885714D01*
X83371428Y-87219047D01*
X83323809Y-87409523D01*
X83228571Y-87504761D01*
X83133333Y-87552380D01*
X82942857Y-87552380D01*
X82847619Y-87504761D01*
X82752380Y-87409523D01*
X82704761Y-87219047D01*
X82704761Y-86885714D01*
X82752380Y-86695238D01*
X82847619Y-86600000D01*
X82942857Y-86552380D01*
X74738095Y-90552380D02*
X74738095Y-89552380D01*
X74976190Y-89552380D01*
X75119047Y-89600000D01*
X75214285Y-89695238D01*
X75261904Y-89790476D01*
X75309523Y-89980952D01*
X75309523Y-90123809D01*
X75261904Y-90314285D01*
X75214285Y-90409523D01*
X75119047Y-90504761D01*
X74976190Y-90552380D01*
X74738095Y-90552380D01*
X60166666Y-70504761D02*
X60309523Y-70552380D01*
X60547619Y-70552380D01*
X60642857Y-70504761D01*
X60690476Y-70457142D01*
X60738095Y-70361904D01*
X60738095Y-70266666D01*
X60690476Y-70171428D01*
X60642857Y-70123809D01*
X60547619Y-70076190D01*
X60357142Y-70028571D01*
X60261904Y-69980952D01*
X60214285Y-69933333D01*
X60166666Y-69838095D01*
X60166666Y-69742857D01*
X60214285Y-69647619D01*
X60261904Y-69600000D01*
X60357142Y-69552380D01*
X60595238Y-69552380D01*
X60738095Y-69600000D01*
X61071428Y-69552380D02*
X61309523Y-70552380D01*
X61500000Y-69838095D01*
X61690476Y-70552380D01*
X61928571Y-69552380D01*
X62833333Y-70552380D02*
X62261904Y-70552380D01*
X62547619Y-70552380D02*
X62547619Y-69552380D01*
X62452380Y-69695238D01*
X62357142Y-69790476D01*
X62261904Y-69838095D01*
X80152380Y-78452380D02*
X79676190Y-78785714D01*
X80152380Y-79023809D02*
X79152380Y-79023809D01*
X79152380Y-78642857D01*
X79200000Y-78547619D01*
X79247619Y-78500000D01*
X79342857Y-78452380D01*
X79485714Y-78452380D01*
X79580952Y-78500000D01*
X79628571Y-78547619D01*
X79676190Y-78642857D01*
X79676190Y-79023809D01*
X79628571Y-78023809D02*
X79628571Y-77690476D01*
X80152380Y-77547619D02*
X80152380Y-78023809D01*
X79152380Y-78023809D01*
X79152380Y-77547619D01*
X80104761Y-77166666D02*
X80152380Y-77023809D01*
X80152380Y-76785714D01*
X80104761Y-76690476D01*
X80057142Y-76642857D01*
X79961904Y-76595238D01*
X79866666Y-76595238D01*
X79771428Y-76642857D01*
X79723809Y-76690476D01*
X79676190Y-76785714D01*
X79628571Y-76976190D01*
X79580952Y-77071428D01*
X79533333Y-77119047D01*
X79438095Y-77166666D01*
X79342857Y-77166666D01*
X79247619Y-77119047D01*
X79200000Y-77071428D01*
X79152380Y-76976190D01*
X79152380Y-76738095D01*
X79200000Y-76595238D01*
X79628571Y-76166666D02*
X79628571Y-75833333D01*
X80152380Y-75690476D02*
X80152380Y-76166666D01*
X79152380Y-76166666D01*
X79152380Y-75690476D01*
X79152380Y-75404761D02*
X79152380Y-74833333D01*
X80152380Y-75119047D02*
X79152380Y-75119047D01*
X83161904Y-89400000D02*
X83066666Y-89352380D01*
X82923809Y-89352380D01*
X82780952Y-89400000D01*
X82685714Y-89495238D01*
X82638095Y-89590476D01*
X82590476Y-89780952D01*
X82590476Y-89923809D01*
X82638095Y-90114285D01*
X82685714Y-90209523D01*
X82780952Y-90304761D01*
X82923809Y-90352380D01*
X83019047Y-90352380D01*
X83161904Y-90304761D01*
X83209523Y-90257142D01*
X83209523Y-89923809D01*
X83019047Y-89923809D01*
%TO.C,U3*%
X71335714Y-85352380D02*
X70764285Y-85352380D01*
X71050000Y-85352380D02*
X71050000Y-84352380D01*
X70954761Y-84495238D01*
X70859523Y-84590476D01*
X70764285Y-84638095D01*
D11*
%TO.C,R4*%
X57446359Y-78820000D02*
X57753641Y-78820000D01*
X57446359Y-79580000D02*
X57753641Y-79580000D01*
%TO.C,SW4*%
X36600000Y-101750000D02*
X51400000Y-101750000D01*
X51400000Y-101750000D02*
X51400000Y-99950000D01*
X36600000Y-94450000D02*
X51400000Y-94450000D01*
X51400000Y-94450000D02*
X51400000Y-96250000D01*
X36600000Y-94450000D02*
X36600000Y-96250000D01*
X36600000Y-101750000D02*
X36600000Y-99950000D01*
%TO.C,C1*%
X56540000Y-91315835D02*
X56540000Y-91084165D01*
X57260000Y-91315835D02*
X57260000Y-91084165D01*
%TO.C,C7*%
X79140000Y-88348335D02*
X79140000Y-88116665D01*
X79860000Y-88348335D02*
X79860000Y-88116665D01*
%TO.C,C14*%
X44788748Y-86410000D02*
X46211252Y-86410000D01*
X44788748Y-84590000D02*
X46211252Y-84590000D01*
%TO.C,D5*%
X64250000Y-87450000D02*
X69950000Y-87450000D01*
X64250000Y-83150000D02*
X69950000Y-83150000D01*
X64250000Y-83150000D02*
X64250000Y-87450000D01*
%TO.C,R8*%
X80877500Y-89362742D02*
X80877500Y-89837258D01*
X81922500Y-89362742D02*
X81922500Y-89837258D01*
%TO.C,C8*%
X56690000Y-84459420D02*
X56690000Y-84740580D01*
X57710000Y-84459420D02*
X57710000Y-84740580D01*
%TO.C,R10*%
X80837258Y-86622500D02*
X80362742Y-86622500D01*
X80837258Y-85577500D02*
X80362742Y-85577500D01*
%TO.C,U1*%
X67760000Y-91700000D02*
X67760000Y-93650000D01*
X67760000Y-91700000D02*
X67760000Y-89750000D01*
X57640000Y-91700000D02*
X57640000Y-95150000D01*
X57640000Y-91700000D02*
X57640000Y-89750000D01*
%TO.C,D3*%
X42950000Y-89950000D02*
X42950000Y-85650000D01*
X42950000Y-89950000D02*
X37250000Y-89950000D01*
X42950000Y-85650000D02*
X37250000Y-85650000D01*
%TO.C,C16*%
X49440580Y-70710000D02*
X49159420Y-70710000D01*
X49440580Y-69690000D02*
X49159420Y-69690000D01*
%TO.C,U3*%
X78850000Y-89250000D02*
X78850000Y-88100000D01*
X71550000Y-83750000D02*
X78850000Y-83750000D01*
X71550000Y-89250000D02*
X78850000Y-89250000D01*
%TO.C,U6*%
X51700000Y-84640000D02*
X53650000Y-84640000D01*
X51700000Y-89760000D02*
X49750000Y-89760000D01*
X51700000Y-84640000D02*
X49750000Y-84640000D01*
X51700000Y-89760000D02*
X55150000Y-89760000D01*
%TO.C,U2*%
X68990000Y-73840000D02*
X68990000Y-73390000D01*
X75760000Y-73390000D02*
X75760000Y-72100000D01*
X68990000Y-73390000D02*
X69440000Y-73390000D01*
X68990000Y-80160000D02*
X68990000Y-80610000D01*
X76210000Y-73390000D02*
X75760000Y-73390000D01*
X76210000Y-80160000D02*
X76210000Y-80610000D01*
X76210000Y-80610000D02*
X75760000Y-80610000D01*
X76210000Y-73840000D02*
X76210000Y-73390000D01*
X68990000Y-80610000D02*
X69440000Y-80610000D01*
%TO.C,R9*%
X70520000Y-88753641D02*
X70520000Y-88446359D01*
X71280000Y-88753641D02*
X71280000Y-88446359D01*
%TO.C,R11*%
X80362742Y-83422500D02*
X80837258Y-83422500D01*
X80362742Y-82377500D02*
X80837258Y-82377500D01*
%TO.C,TH1*%
X41386252Y-90490000D02*
X38613748Y-90490000D01*
X41386252Y-93910000D02*
X38613748Y-93910000D01*
%TO.C,J2*%
X65770000Y-65270000D02*
X78530000Y-65270000D01*
X65770000Y-67930000D02*
X78530000Y-67930000D01*
X65770000Y-67930000D02*
X65770000Y-65270000D01*
X78530000Y-67930000D02*
X78530000Y-65270000D01*
X63170000Y-67930000D02*
X63170000Y-66600000D01*
X64500000Y-67930000D02*
X63170000Y-67930000D01*
%TO.C,R5*%
X76220000Y-71953641D02*
X76220000Y-71646359D01*
X76980000Y-71953641D02*
X76980000Y-71646359D01*
%TO.C,R14*%
X51862742Y-90577500D02*
X52337258Y-90577500D01*
X51862742Y-91622500D02*
X52337258Y-91622500D01*
%TO.C,C2*%
X74315835Y-71460000D02*
X74084165Y-71460000D01*
X74315835Y-70740000D02*
X74084165Y-70740000D01*
%TO.C,C4*%
X71940580Y-70310000D02*
X71659420Y-70310000D01*
X71940580Y-69290000D02*
X71659420Y-69290000D01*
%TO.C,D4*%
X47750000Y-94050000D02*
X47750000Y-88350000D01*
X43450000Y-94050000D02*
X43450000Y-88350000D01*
X43450000Y-94050000D02*
X47750000Y-94050000D01*
%TO.C,R7*%
X77880000Y-69663641D02*
X77880000Y-69356359D01*
X77120000Y-69663641D02*
X77120000Y-69356359D01*
%TO.C,R12*%
X55980000Y-97353641D02*
X55980000Y-97046359D01*
X55220000Y-97353641D02*
X55220000Y-97046359D01*
%TO.C,C10*%
X63388748Y-82210000D02*
X64811252Y-82210000D01*
X63388748Y-80390000D02*
X64811252Y-80390000D01*
%TO.C,R6*%
X75980000Y-69663641D02*
X75980000Y-69356359D01*
X75220000Y-69663641D02*
X75220000Y-69356359D01*
%TO.C,C3*%
X71784165Y-70740000D02*
X72015835Y-70740000D01*
X71784165Y-71460000D02*
X72015835Y-71460000D01*
%TO.C,J3*%
X72065000Y-92767929D02*
X72065000Y-93165000D01*
X77525000Y-90455000D02*
X78795000Y-90455000D01*
X78855000Y-95825000D02*
X78855000Y-93165000D01*
X72825000Y-101825000D02*
X72065000Y-101825000D01*
X77905000Y-101825000D02*
X77145000Y-101825000D01*
X76255000Y-93165000D02*
X76255000Y-95825000D01*
X77365000Y-95825000D02*
X77365000Y-101825000D01*
X77905000Y-95825000D02*
X77905000Y-101825000D01*
X73715000Y-93165000D02*
X73715000Y-95825000D01*
X77145000Y-101825000D02*
X77145000Y-95825000D01*
X75365000Y-92767929D02*
X75365000Y-93165000D01*
X77485000Y-95825000D02*
X77485000Y-101825000D01*
X75365000Y-101825000D02*
X74605000Y-101825000D01*
X72065000Y-101825000D02*
X72065000Y-95825000D01*
X78855000Y-93165000D02*
X71115000Y-93165000D01*
X77905000Y-92835000D02*
X77905000Y-93165000D01*
X75365000Y-95825000D02*
X75365000Y-101825000D01*
X72825000Y-92767929D02*
X72825000Y-93165000D01*
X71115000Y-93165000D02*
X71115000Y-95825000D01*
X74605000Y-101825000D02*
X74605000Y-95825000D01*
X78795000Y-90455000D02*
X78795000Y-91725000D01*
X72825000Y-95825000D02*
X72825000Y-101825000D01*
X77605000Y-95825000D02*
X77605000Y-101825000D01*
X77145000Y-92835000D02*
X77145000Y-93165000D01*
X77725000Y-95825000D02*
X77725000Y-101825000D01*
X77245000Y-95825000D02*
X77245000Y-101825000D01*
X77845000Y-95825000D02*
X77845000Y-101825000D01*
X74605000Y-92767929D02*
X74605000Y-93165000D01*
X71115000Y-95825000D02*
X78855000Y-95825000D01*
%TO.C,C13*%
X67584165Y-82660000D02*
X67815835Y-82660000D01*
X67584165Y-81940000D02*
X67815835Y-81940000D01*
%TO.C,R13*%
X52920000Y-97353641D02*
X52920000Y-97046359D01*
X53680000Y-97353641D02*
X53680000Y-97046359D01*
%TO.C,C12*%
X63859420Y-79810000D02*
X64140580Y-79810000D01*
X63859420Y-78790000D02*
X64140580Y-78790000D01*
%TO.C,C17*%
X42948335Y-65040000D02*
X42716665Y-65040000D01*
X42948335Y-65760000D02*
X42716665Y-65760000D01*
%TO.C,J5*%
X86330000Y-92100000D02*
X86330000Y-93430000D01*
X86330000Y-90830000D02*
X83670000Y-90830000D01*
X86330000Y-83150000D02*
X83670000Y-83150000D01*
X83670000Y-90830000D02*
X83670000Y-83150000D01*
X86330000Y-90830000D02*
X86330000Y-83150000D01*
X86330000Y-93430000D02*
X85000000Y-93430000D01*
%TO.C,R3*%
X52953641Y-79180000D02*
X52646359Y-79180000D01*
X52953641Y-78420000D02*
X52646359Y-78420000D01*
D10*
%TO.C,SW2*%
X55500000Y-76100000D02*
X52700000Y-76100000D01*
X56700000Y-71100000D02*
X56700000Y-75900000D01*
X52700000Y-70900000D02*
X55500000Y-70900000D01*
X51500000Y-75900000D02*
X51500000Y-71100000D01*
D11*
%TO.C,R2*%
X59953641Y-78420000D02*
X59646359Y-78420000D01*
X59953641Y-79180000D02*
X59646359Y-79180000D01*
%TO.C,C9*%
X80715580Y-83990000D02*
X80434420Y-83990000D01*
X80715580Y-85010000D02*
X80434420Y-85010000D01*
%TO.C,D7*%
X52565000Y-98415000D02*
X52565000Y-100700000D01*
X54035000Y-98415000D02*
X52565000Y-98415000D01*
X54035000Y-100700000D02*
X54035000Y-98415000D01*
%TO.C,C15*%
X49284165Y-69260000D02*
X49515835Y-69260000D01*
X49284165Y-68540000D02*
X49515835Y-68540000D01*
D10*
%TO.C,SW1*%
X62900000Y-76100000D02*
X60100000Y-76100000D01*
X60100000Y-70900000D02*
X62900000Y-70900000D01*
X58900000Y-75900000D02*
X58900000Y-71100000D01*
X64100000Y-71100000D02*
X64100000Y-75900000D01*
D11*
%TO.C,C18*%
X57210000Y-87840580D02*
X57210000Y-87559420D01*
X56190000Y-87840580D02*
X56190000Y-87559420D01*
D12*
%TO.C,J1*%
X66200000Y-102500000D02*
X66200000Y-102200000D01*
X66200000Y-102200000D02*
X65900000Y-102200000D01*
X66600000Y-102500000D02*
X66600000Y-102550000D01*
X66600000Y-101650000D02*
X66600000Y-102550000D01*
X60000000Y-102500000D02*
X60000000Y-102200000D01*
X66600000Y-101650000D02*
X66600000Y-102500000D01*
X59600000Y-101650000D02*
X59600000Y-102500000D01*
X60700000Y-102600000D02*
X65400000Y-102600000D01*
X59600000Y-102500000D02*
X59600000Y-102550000D01*
X60000000Y-102200000D02*
X60300000Y-102200000D01*
X57850000Y-101850000D02*
X67600000Y-101850000D01*
X60300000Y-102200000D02*
G75*
G03*
X60700000Y-102600000I399999J-1D01*
G01*
X59100000Y-103000000D02*
G75*
G03*
X59600000Y-102500000I-1J500001D01*
G01*
X66200000Y-102500000D02*
G75*
G03*
X67000000Y-103300000I800000J0D01*
G01*
X66600000Y-102500000D02*
G75*
G03*
X67100000Y-103000000I500000J0D01*
G01*
X65500000Y-102600000D02*
G75*
G03*
X65900000Y-102200000I0J400000D01*
G01*
X59200000Y-103300000D02*
G75*
G03*
X60000000Y-102500000I-1J800001D01*
G01*
D11*
%TO.C,R1*%
X65020000Y-70753641D02*
X65020000Y-70446359D01*
X65780000Y-70753641D02*
X65780000Y-70446359D01*
%TO.C,D2*%
X54562500Y-92540000D02*
X55362500Y-92540000D01*
X54562500Y-95660000D02*
X53762500Y-95660000D01*
X54562500Y-92540000D02*
X53762500Y-92540000D01*
X54562500Y-95660000D02*
X56362500Y-95660000D01*
D10*
%TO.C,SW3*%
X81900000Y-74700000D02*
X84700000Y-74700000D01*
X85900000Y-74900000D02*
X85900000Y-79700000D01*
X84700000Y-79900000D02*
X81900000Y-79900000D01*
X80700000Y-79700000D02*
X80700000Y-74900000D01*
D11*
%TO.C,U4*%
X62460000Y-86350000D02*
X62460000Y-87660000D01*
X59740000Y-82940000D02*
X62460000Y-82940000D01*
X62460000Y-82940000D02*
X62460000Y-84250000D01*
X58600000Y-83170000D02*
X59740000Y-83170000D01*
X59740000Y-82940000D02*
X59740000Y-83170000D01*
X62460000Y-87660000D02*
X59740000Y-87660000D01*
X59740000Y-87660000D02*
X59740000Y-87430000D01*
%TO.C,D6*%
X56335000Y-100700000D02*
X56335000Y-98415000D01*
X54865000Y-98415000D02*
X54865000Y-100700000D01*
X56335000Y-98415000D02*
X54865000Y-98415000D01*
%TO.C,C5*%
X67284165Y-71260000D02*
X67515835Y-71260000D01*
X67284165Y-70540000D02*
X67515835Y-70540000D01*
%TO.C,C11*%
X34290000Y-96759420D02*
X34290000Y-97040580D01*
X35310000Y-96759420D02*
X35310000Y-97040580D01*
%TO.C,D1*%
X64665000Y-71727500D02*
X64665000Y-74012500D01*
X66135000Y-71727500D02*
X64665000Y-71727500D01*
X66135000Y-74012500D02*
X66135000Y-71727500D01*
%TO.C,C6*%
X70310000Y-92940580D02*
X70310000Y-92659420D01*
X69290000Y-92940580D02*
X69290000Y-92659420D01*
%TD*%
D13*
%TO.C,J1*%
X60600000Y-97700000D03*
X65600000Y-97700000D03*
D14*
X59600000Y-100400000D03*
X66600000Y-100400000D03*
%TD*%
%LPC*%
D15*
%TO.C,R4*%
X57090000Y-79200000D03*
X58110000Y-79200000D03*
%TD*%
D16*
%TO.C,SW4*%
X42000000Y-99350000D03*
X42000000Y-96850000D03*
X44000000Y-99350000D03*
X44000000Y-96850000D03*
X46000000Y-99350000D03*
X46000000Y-96850000D03*
D17*
X51050000Y-98100000D03*
X36950000Y-98100000D03*
%TD*%
D18*
%TO.C,C1*%
X56900000Y-91767500D03*
X56900000Y-90632500D03*
%TD*%
%TO.C,C7*%
X79500000Y-88800000D03*
X79500000Y-87665000D03*
%TD*%
D19*
%TO.C,C14*%
X44025000Y-85500000D03*
X46975000Y-85500000D03*
%TD*%
D20*
%TO.C,D5*%
X65650000Y-85300000D03*
X69950000Y-85300000D03*
%TD*%
D21*
%TO.C,R8*%
X81400000Y-88775000D03*
X81400000Y-90425000D03*
%TD*%
D22*
%TO.C,C8*%
X57200000Y-83825000D03*
X57200000Y-85375000D03*
%TD*%
D23*
%TO.C,R10*%
X81425000Y-86100000D03*
X79775000Y-86100000D03*
%TD*%
D24*
%TO.C,U1*%
X58255000Y-94175000D03*
X59525000Y-94175000D03*
X60795000Y-94175000D03*
X62065000Y-94175000D03*
X63335000Y-94175000D03*
X64605000Y-94175000D03*
X65875000Y-94175000D03*
X67145000Y-94175000D03*
X67145000Y-89225000D03*
X65875000Y-89225000D03*
X64605000Y-89225000D03*
X63335000Y-89225000D03*
X62065000Y-89225000D03*
X60795000Y-89225000D03*
X59525000Y-89225000D03*
X58255000Y-89225000D03*
%TD*%
D20*
%TO.C,D3*%
X41550000Y-87800000D03*
X37250000Y-87800000D03*
%TD*%
D25*
%TO.C,C16*%
X50075000Y-70200000D03*
X48525000Y-70200000D03*
%TD*%
D26*
%TO.C,U3*%
X72750000Y-84900000D03*
X72750000Y-88100000D03*
X77650000Y-88100000D03*
X77650000Y-84900000D03*
%TD*%
D14*
%TO.C,H1*%
X75000000Y-100100000D03*
X77540000Y-100100000D03*
X72460000Y-100100000D03*
%TD*%
D27*
%TO.C,U6*%
X54325000Y-89105000D03*
X54325000Y-87835000D03*
X54325000Y-86565000D03*
X54325000Y-85295000D03*
X49075000Y-85295000D03*
X49075000Y-86565000D03*
X49075000Y-87835000D03*
X49075000Y-89105000D03*
D28*
X51700000Y-87200000D03*
%TD*%
D29*
%TO.C,U2*%
X75350000Y-72837500D03*
X74850000Y-72837500D03*
X74350000Y-72837500D03*
X73850000Y-72837500D03*
X73350000Y-72837500D03*
X72850000Y-72837500D03*
X72350000Y-72837500D03*
X71850000Y-72837500D03*
X71350000Y-72837500D03*
X70850000Y-72837500D03*
X70350000Y-72837500D03*
X69850000Y-72837500D03*
D30*
X68437500Y-74250000D03*
X68437500Y-74750000D03*
X68437500Y-75250000D03*
X68437500Y-75750000D03*
X68437500Y-76250000D03*
X68437500Y-76750000D03*
X68437500Y-77250000D03*
X68437500Y-77750000D03*
X68437500Y-78250000D03*
X68437500Y-78750000D03*
X68437500Y-79250000D03*
X68437500Y-79750000D03*
D29*
X69850000Y-81162500D03*
X70350000Y-81162500D03*
X70850000Y-81162500D03*
X71350000Y-81162500D03*
X71850000Y-81162500D03*
X72350000Y-81162500D03*
X72850000Y-81162500D03*
X73350000Y-81162500D03*
X73850000Y-81162500D03*
X74350000Y-81162500D03*
X74850000Y-81162500D03*
X75350000Y-81162500D03*
D30*
X76762500Y-79750000D03*
X76762500Y-79250000D03*
X76762500Y-78750000D03*
X76762500Y-78250000D03*
X76762500Y-77750000D03*
X76762500Y-77250000D03*
X76762500Y-76750000D03*
X76762500Y-76250000D03*
X76762500Y-75750000D03*
X76762500Y-75250000D03*
X76762500Y-74750000D03*
X76762500Y-74250000D03*
%TD*%
D31*
%TO.C,R9*%
X70900000Y-89110000D03*
X70900000Y-88090000D03*
%TD*%
D32*
%TO.C,R11*%
X79775000Y-82900000D03*
X81425000Y-82900000D03*
%TD*%
D33*
%TO.C,TH1*%
X42225000Y-92200000D03*
X37775000Y-92200000D03*
%TD*%
D34*
%TO.C,H4*%
X30300000Y-98000000D03*
%TD*%
D35*
%TO.C,J2*%
X64500000Y-66600000D03*
D36*
X67040000Y-66600000D03*
X69580000Y-66600000D03*
X72120000Y-66600000D03*
X74660000Y-66600000D03*
X77200000Y-66600000D03*
%TD*%
D31*
%TO.C,R5*%
X76600000Y-72310000D03*
X76600000Y-71290000D03*
%TD*%
D32*
%TO.C,R14*%
X51275000Y-91100000D03*
X52925000Y-91100000D03*
%TD*%
D37*
%TO.C,C2*%
X74767500Y-71100000D03*
X73632500Y-71100000D03*
%TD*%
D25*
%TO.C,C4*%
X72575000Y-69800000D03*
X71025000Y-69800000D03*
%TD*%
D38*
%TO.C,D4*%
X45600000Y-92650000D03*
X45600000Y-88350000D03*
%TD*%
D34*
%TO.C,H2*%
X83200000Y-97800000D03*
%TD*%
D31*
%TO.C,R7*%
X77500000Y-70020000D03*
X77500000Y-69000000D03*
%TD*%
%TO.C,R12*%
X55600000Y-97710000D03*
X55600000Y-96690000D03*
%TD*%
D19*
%TO.C,C10*%
X62625000Y-81300000D03*
X65575000Y-81300000D03*
%TD*%
D34*
%TO.C,H3*%
X83500000Y-68000000D03*
%TD*%
D31*
%TO.C,R6*%
X75600000Y-70020000D03*
X75600000Y-69000000D03*
%TD*%
D39*
%TO.C,C3*%
X71332500Y-71100000D03*
X72467500Y-71100000D03*
%TD*%
D35*
%TO.C,J3*%
X77525000Y-91725000D03*
D36*
X74985000Y-91725000D03*
X72445000Y-91725000D03*
%TD*%
D39*
%TO.C,C13*%
X67132500Y-82300000D03*
X68267500Y-82300000D03*
%TD*%
D31*
%TO.C,R13*%
X53300000Y-97710000D03*
X53300000Y-96690000D03*
%TD*%
D40*
%TO.C,C12*%
X63225000Y-79300000D03*
X64775000Y-79300000D03*
%TD*%
D37*
%TO.C,C17*%
X43400000Y-65400000D03*
X42265000Y-65400000D03*
%TD*%
D35*
%TO.C,J5*%
X85000000Y-92100000D03*
D36*
X85000000Y-89560000D03*
X85000000Y-87020000D03*
X85000000Y-84480000D03*
%TD*%
D41*
%TO.C,R3*%
X53310000Y-78800000D03*
X52290000Y-78800000D03*
%TD*%
D42*
%TO.C,SW2*%
X51850000Y-77000000D03*
X51850000Y-70000000D03*
X56350000Y-70000000D03*
X56350000Y-77000000D03*
%TD*%
D41*
%TO.C,R2*%
X60310000Y-78800000D03*
X59290000Y-78800000D03*
%TD*%
D25*
%TO.C,C9*%
X81350000Y-84500000D03*
X79800000Y-84500000D03*
%TD*%
D43*
%TO.C,D7*%
X53300000Y-99112500D03*
X53300000Y-100687500D03*
%TD*%
D39*
%TO.C,C15*%
X48832500Y-68900000D03*
X49967500Y-68900000D03*
%TD*%
D44*
%TO.C,L1*%
X41000000Y-65415000D03*
X41000000Y-66385000D03*
%TD*%
D42*
%TO.C,SW1*%
X59250000Y-70000000D03*
X59250000Y-77000000D03*
X63750000Y-70000000D03*
X63750000Y-77000000D03*
%TD*%
D45*
%TO.C,C18*%
X56700000Y-88475000D03*
X56700000Y-86925000D03*
%TD*%
D46*
%TO.C,J1*%
X61800000Y-97725000D03*
X62450000Y-97725000D03*
X63100000Y-97725000D03*
X63750000Y-97725000D03*
X64400000Y-97725000D03*
D13*
X60600000Y-97700000D03*
X65600000Y-97700000D03*
D14*
X59600000Y-100400000D03*
X66600000Y-100400000D03*
D47*
X62100000Y-100400000D03*
X64100000Y-100400000D03*
X60050000Y-100400000D03*
X66150000Y-100400000D03*
%TD*%
D31*
%TO.C,R1*%
X65400000Y-71110000D03*
X65400000Y-70090000D03*
%TD*%
D48*
%TO.C,D2*%
X55700000Y-95050000D03*
X55700000Y-94100000D03*
X55700000Y-93150000D03*
X53425000Y-93150000D03*
X53425000Y-94100000D03*
X53425000Y-95050000D03*
%TD*%
D42*
%TO.C,SW3*%
X81050000Y-80800000D03*
X81050000Y-73800000D03*
X85550000Y-80800000D03*
X85550000Y-73800000D03*
%TD*%
D49*
%TO.C,U4*%
X59150000Y-83800000D03*
D50*
X59237500Y-85300000D03*
D49*
X59150000Y-86800000D03*
%TD*%
D43*
%TO.C,D6*%
X55600000Y-99112500D03*
X55600000Y-100687500D03*
%TD*%
D39*
%TO.C,C5*%
X66832500Y-70900000D03*
X67967500Y-70900000D03*
%TD*%
D22*
%TO.C,C11*%
X34800000Y-96125000D03*
X34800000Y-97675000D03*
%TD*%
D43*
%TO.C,D1*%
X65400000Y-72425000D03*
X65400000Y-74000000D03*
%TD*%
D45*
%TO.C,C6*%
X69800000Y-93575000D03*
X69800000Y-92025000D03*
%TD*%
D35*
%TO.C,J4*%
X29100000Y-93300000D03*
D51*
X29100000Y-90760000D03*
X29100000Y-88220000D03*
%TD*%
M02*
