%TF.GenerationSoftware,KiCad,Pcbnew,7.0.6-7.0.6~ubuntu22.04.1*%
%TF.CreationDate,2023-07-30T10:17:08-06:00*%
%TF.ProjectId,fancy-node,66616e63-792d-46e6-9f64-652e6b696361,rev?*%
%TF.SameCoordinates,Original*%
%TF.FileFunction,Legend,Top*%
%TF.FilePolarity,Positive*%
%FSLAX46Y46*%
G04 Gerber Fmt 4.6, Leading zero omitted, Abs format (unit mm)*
G04 Created by KiCad (PCBNEW 7.0.6-7.0.6~ubuntu22.04.1) date 2023-07-30 10:17:08*
%MOMM*%
%LPD*%
G01*
G04 APERTURE LIST*
G04 Aperture macros list*
%AMRoundRect*
0 Rectangle with rounded corners*
0 $1 Rounding radius*
0 $2 $3 $4 $5 $6 $7 $8 $9 X,Y pos of 4 corners*
0 Add a 4 corners polygon primitive as box body*
4,1,4,$2,$3,$4,$5,$6,$7,$8,$9,$2,$3,0*
0 Add four circle primitives for the rounded corners*
1,1,$1+$1,$2,$3*
1,1,$1+$1,$4,$5*
1,1,$1+$1,$6,$7*
1,1,$1+$1,$8,$9*
0 Add four rect primitives between the rounded corners*
20,1,$1+$1,$2,$3,$4,$5,0*
20,1,$1+$1,$4,$5,$6,$7,0*
20,1,$1+$1,$6,$7,$8,$9,0*
20,1,$1+$1,$8,$9,$2,$3,0*%
%AMFreePoly0*
4,1,9,3.862500,-0.866500,0.737500,-0.866500,0.737500,-0.450000,-0.737500,-0.450000,-0.737500,0.450000,0.737500,0.450000,0.737500,0.866500,3.862500,0.866500,3.862500,-0.866500,3.862500,-0.866500,$1*%
G04 Aperture macros list end*
%ADD10C,0.150000*%
%ADD11C,0.200000*%
%ADD12C,0.120000*%
%ADD13C,0.127000*%
%ADD14C,1.408000*%
%ADD15C,1.800000*%
%ADD16RoundRect,0.135000X0.185000X-0.135000X0.185000X0.135000X-0.185000X0.135000X-0.185000X-0.135000X0*%
%ADD17R,0.900000X1.250000*%
%ADD18RoundRect,0.225000X-0.225000X-0.250000X0.225000X-0.250000X0.225000X0.250000X-0.225000X0.250000X0*%
%ADD19RoundRect,0.075000X-0.662500X-0.075000X0.662500X-0.075000X0.662500X0.075000X-0.662500X0.075000X0*%
%ADD20RoundRect,0.075000X-0.075000X-0.662500X0.075000X-0.662500X0.075000X0.662500X-0.075000X0.662500X0*%
%ADD21RoundRect,0.155000X0.212500X0.155000X-0.212500X0.155000X-0.212500X-0.155000X0.212500X-0.155000X0*%
%ADD22RoundRect,0.225000X-0.250000X0.225000X-0.250000X-0.225000X0.250000X-0.225000X0.250000X0.225000X0*%
%ADD23RoundRect,0.155000X0.155000X-0.212500X0.155000X0.212500X-0.155000X0.212500X-0.155000X-0.212500X0*%
%ADD24RoundRect,0.200000X0.275000X-0.200000X0.275000X0.200000X-0.275000X0.200000X-0.275000X-0.200000X0*%
%ADD25RoundRect,0.050000X0.200000X0.675000X-0.200000X0.675000X-0.200000X-0.675000X0.200000X-0.675000X0*%
%ADD26R,1.500000X1.550000*%
%ADD27RoundRect,0.218750X-0.218750X-0.256250X0.218750X-0.256250X0.218750X0.256250X-0.218750X0.256250X0*%
%ADD28RoundRect,0.135000X-0.135000X-0.185000X0.135000X-0.185000X0.135000X0.185000X-0.135000X0.185000X0*%
%ADD29R,0.300000X1.400000*%
%ADD30RoundRect,0.218750X0.218750X0.256250X-0.218750X0.256250X-0.218750X-0.256250X0.218750X-0.256250X0*%
%ADD31R,1.500000X0.900000*%
%ADD32RoundRect,0.135000X0.135000X0.185000X-0.135000X0.185000X-0.135000X-0.185000X0.135000X-0.185000X0*%
%ADD33RoundRect,0.200000X-0.275000X0.200000X-0.275000X-0.200000X0.275000X-0.200000X0.275000X0.200000X0*%
%ADD34RoundRect,0.250000X-0.650000X0.325000X-0.650000X-0.325000X0.650000X-0.325000X0.650000X0.325000X0*%
%ADD35RoundRect,0.150000X0.150000X-0.675000X0.150000X0.675000X-0.150000X0.675000X-0.150000X-0.675000X0*%
%ADD36R,3.800000X2.700000*%
%ADD37RoundRect,0.250000X-1.000000X-0.650000X1.000000X-0.650000X1.000000X0.650000X-1.000000X0.650000X0*%
%ADD38RoundRect,0.250000X-0.325000X-0.650000X0.325000X-0.650000X0.325000X0.650000X-0.325000X0.650000X0*%
%ADD39RoundRect,0.147500X-0.147500X-0.172500X0.147500X-0.172500X0.147500X0.172500X-0.147500X0.172500X0*%
%ADD40RoundRect,0.200000X0.200000X0.275000X-0.200000X0.275000X-0.200000X-0.275000X0.200000X-0.275000X0*%
%ADD41RoundRect,0.155000X-0.155000X0.212500X-0.155000X-0.212500X0.155000X-0.212500X0.155000X0.212500X0*%
%ADD42RoundRect,0.250000X1.000000X0.900000X-1.000000X0.900000X-1.000000X-0.900000X1.000000X-0.900000X0*%
%ADD43C,3.200000*%
%ADD44RoundRect,0.225000X0.250000X-0.225000X0.250000X0.225000X-0.250000X0.225000X-0.250000X-0.225000X0*%
%ADD45RoundRect,0.250000X0.900000X-1.000000X0.900000X1.000000X-0.900000X1.000000X-0.900000X-1.000000X0*%
%ADD46RoundRect,0.250000X-1.450000X0.400000X-1.450000X-0.400000X1.450000X-0.400000X1.450000X0.400000X0*%
%ADD47RoundRect,0.135000X-0.185000X0.135000X-0.185000X-0.135000X0.185000X-0.135000X0.185000X0.135000X0*%
%ADD48R,0.900000X1.300000*%
%ADD49FreePoly0,90.000000*%
%ADD50R,1.250000X0.900000*%
%ADD51RoundRect,0.150000X-0.150000X0.512500X-0.150000X-0.512500X0.150000X-0.512500X0.150000X0.512500X0*%
%ADD52RoundRect,0.155000X-0.212500X-0.155000X0.212500X-0.155000X0.212500X0.155000X-0.212500X0.155000X0*%
%ADD53R,1.700000X1.700000*%
%ADD54O,1.700000X1.700000*%
%ADD55R,1.800000X1.800000*%
%ADD56R,1.000000X1.000000*%
%ADD57C,1.000000*%
%ADD58C,1.700000*%
G04 APERTURE END LIST*
D10*
X84036779Y-112788866D02*
X84798684Y-112788866D01*
X84060588Y-86517438D02*
X83965350Y-86469819D01*
X83965350Y-86469819D02*
X83822493Y-86469819D01*
X83822493Y-86469819D02*
X83679636Y-86517438D01*
X83679636Y-86517438D02*
X83584398Y-86612676D01*
X83584398Y-86612676D02*
X83536779Y-86707914D01*
X83536779Y-86707914D02*
X83489160Y-86898390D01*
X83489160Y-86898390D02*
X83489160Y-87041247D01*
X83489160Y-87041247D02*
X83536779Y-87231723D01*
X83536779Y-87231723D02*
X83584398Y-87326961D01*
X83584398Y-87326961D02*
X83679636Y-87422200D01*
X83679636Y-87422200D02*
X83822493Y-87469819D01*
X83822493Y-87469819D02*
X83917731Y-87469819D01*
X83917731Y-87469819D02*
X84060588Y-87422200D01*
X84060588Y-87422200D02*
X84108207Y-87374580D01*
X84108207Y-87374580D02*
X84108207Y-87041247D01*
X84108207Y-87041247D02*
X83917731Y-87041247D01*
X87369819Y-91758458D02*
X87369819Y-91139411D01*
X87369819Y-91139411D02*
X87750771Y-91472744D01*
X87750771Y-91472744D02*
X87750771Y-91329887D01*
X87750771Y-91329887D02*
X87798390Y-91234649D01*
X87798390Y-91234649D02*
X87846009Y-91187030D01*
X87846009Y-91187030D02*
X87941247Y-91139411D01*
X87941247Y-91139411D02*
X88179342Y-91139411D01*
X88179342Y-91139411D02*
X88274580Y-91187030D01*
X88274580Y-91187030D02*
X88322200Y-91234649D01*
X88322200Y-91234649D02*
X88369819Y-91329887D01*
X88369819Y-91329887D02*
X88369819Y-91615601D01*
X88369819Y-91615601D02*
X88322200Y-91710839D01*
X88322200Y-91710839D02*
X88274580Y-91758458D01*
X87369819Y-90853696D02*
X88369819Y-90520363D01*
X88369819Y-90520363D02*
X87369819Y-90187030D01*
X87369819Y-89948934D02*
X87369819Y-89329887D01*
X87369819Y-89329887D02*
X87750771Y-89663220D01*
X87750771Y-89663220D02*
X87750771Y-89520363D01*
X87750771Y-89520363D02*
X87798390Y-89425125D01*
X87798390Y-89425125D02*
X87846009Y-89377506D01*
X87846009Y-89377506D02*
X87941247Y-89329887D01*
X87941247Y-89329887D02*
X88179342Y-89329887D01*
X88179342Y-89329887D02*
X88274580Y-89377506D01*
X88274580Y-89377506D02*
X88322200Y-89425125D01*
X88322200Y-89425125D02*
X88369819Y-89520363D01*
X88369819Y-89520363D02*
X88369819Y-89806077D01*
X88369819Y-89806077D02*
X88322200Y-89901315D01*
X88322200Y-89901315D02*
X88274580Y-89948934D01*
X86636779Y-112969819D02*
X86636779Y-111969819D01*
X87303445Y-111969819D02*
X87493921Y-111969819D01*
X87493921Y-111969819D02*
X87589159Y-112017438D01*
X87589159Y-112017438D02*
X87684397Y-112112676D01*
X87684397Y-112112676D02*
X87732016Y-112303152D01*
X87732016Y-112303152D02*
X87732016Y-112636485D01*
X87732016Y-112636485D02*
X87684397Y-112826961D01*
X87684397Y-112826961D02*
X87589159Y-112922200D01*
X87589159Y-112922200D02*
X87493921Y-112969819D01*
X87493921Y-112969819D02*
X87303445Y-112969819D01*
X87303445Y-112969819D02*
X87208207Y-112922200D01*
X87208207Y-112922200D02*
X87112969Y-112826961D01*
X87112969Y-112826961D02*
X87065350Y-112636485D01*
X87065350Y-112636485D02*
X87065350Y-112303152D01*
X87065350Y-112303152D02*
X87112969Y-112112676D01*
X87112969Y-112112676D02*
X87208207Y-112017438D01*
X87208207Y-112017438D02*
X87303445Y-111969819D01*
D11*
X96411504Y-115977945D02*
X96411504Y-115216041D01*
X97744838Y-115692231D02*
X96030552Y-115692231D01*
X96030552Y-115692231D02*
X95840076Y-115596993D01*
X95840076Y-115596993D02*
X95744838Y-115406517D01*
X95744838Y-115406517D02*
X95744838Y-115216041D01*
X97744838Y-113692231D02*
X96697219Y-113692231D01*
X96697219Y-113692231D02*
X96506742Y-113787469D01*
X96506742Y-113787469D02*
X96411504Y-113977945D01*
X96411504Y-113977945D02*
X96411504Y-114358898D01*
X96411504Y-114358898D02*
X96506742Y-114549374D01*
X97649600Y-113692231D02*
X97744838Y-113882707D01*
X97744838Y-113882707D02*
X97744838Y-114358898D01*
X97744838Y-114358898D02*
X97649600Y-114549374D01*
X97649600Y-114549374D02*
X97459123Y-114644612D01*
X97459123Y-114644612D02*
X97268647Y-114644612D01*
X97268647Y-114644612D02*
X97078171Y-114549374D01*
X97078171Y-114549374D02*
X96982933Y-114358898D01*
X96982933Y-114358898D02*
X96982933Y-113882707D01*
X96982933Y-113882707D02*
X96887695Y-113692231D01*
X96411504Y-112739850D02*
X97744838Y-112739850D01*
X96601980Y-112739850D02*
X96506742Y-112644612D01*
X96506742Y-112644612D02*
X96411504Y-112454136D01*
X96411504Y-112454136D02*
X96411504Y-112168421D01*
X96411504Y-112168421D02*
X96506742Y-111977945D01*
X96506742Y-111977945D02*
X96697219Y-111882707D01*
X96697219Y-111882707D02*
X97744838Y-111882707D01*
X97649600Y-110073183D02*
X97744838Y-110263659D01*
X97744838Y-110263659D02*
X97744838Y-110644612D01*
X97744838Y-110644612D02*
X97649600Y-110835088D01*
X97649600Y-110835088D02*
X97554361Y-110930326D01*
X97554361Y-110930326D02*
X97363885Y-111025564D01*
X97363885Y-111025564D02*
X96792457Y-111025564D01*
X96792457Y-111025564D02*
X96601980Y-110930326D01*
X96601980Y-110930326D02*
X96506742Y-110835088D01*
X96506742Y-110835088D02*
X96411504Y-110644612D01*
X96411504Y-110644612D02*
X96411504Y-110263659D01*
X96411504Y-110263659D02*
X96506742Y-110073183D01*
X96411504Y-109406516D02*
X97744838Y-108930326D01*
X96411504Y-108454135D02*
X97744838Y-108930326D01*
X97744838Y-108930326D02*
X98221028Y-109120802D01*
X98221028Y-109120802D02*
X98316266Y-109216040D01*
X98316266Y-109216040D02*
X98411504Y-109406516D01*
X96982933Y-107692230D02*
X96982933Y-106168421D01*
X96411504Y-105216040D02*
X97744838Y-105216040D01*
X96601980Y-105216040D02*
X96506742Y-105120802D01*
X96506742Y-105120802D02*
X96411504Y-104930326D01*
X96411504Y-104930326D02*
X96411504Y-104644611D01*
X96411504Y-104644611D02*
X96506742Y-104454135D01*
X96506742Y-104454135D02*
X96697219Y-104358897D01*
X96697219Y-104358897D02*
X97744838Y-104358897D01*
X97744838Y-103120802D02*
X97649600Y-103311278D01*
X97649600Y-103311278D02*
X97554361Y-103406516D01*
X97554361Y-103406516D02*
X97363885Y-103501754D01*
X97363885Y-103501754D02*
X96792457Y-103501754D01*
X96792457Y-103501754D02*
X96601980Y-103406516D01*
X96601980Y-103406516D02*
X96506742Y-103311278D01*
X96506742Y-103311278D02*
X96411504Y-103120802D01*
X96411504Y-103120802D02*
X96411504Y-102835087D01*
X96411504Y-102835087D02*
X96506742Y-102644611D01*
X96506742Y-102644611D02*
X96601980Y-102549373D01*
X96601980Y-102549373D02*
X96792457Y-102454135D01*
X96792457Y-102454135D02*
X97363885Y-102454135D01*
X97363885Y-102454135D02*
X97554361Y-102549373D01*
X97554361Y-102549373D02*
X97649600Y-102644611D01*
X97649600Y-102644611D02*
X97744838Y-102835087D01*
X97744838Y-102835087D02*
X97744838Y-103120802D01*
X97744838Y-100739849D02*
X95744838Y-100739849D01*
X97649600Y-100739849D02*
X97744838Y-100930325D01*
X97744838Y-100930325D02*
X97744838Y-101311278D01*
X97744838Y-101311278D02*
X97649600Y-101501754D01*
X97649600Y-101501754D02*
X97554361Y-101596992D01*
X97554361Y-101596992D02*
X97363885Y-101692230D01*
X97363885Y-101692230D02*
X96792457Y-101692230D01*
X96792457Y-101692230D02*
X96601980Y-101596992D01*
X96601980Y-101596992D02*
X96506742Y-101501754D01*
X96506742Y-101501754D02*
X96411504Y-101311278D01*
X96411504Y-101311278D02*
X96411504Y-100930325D01*
X96411504Y-100930325D02*
X96506742Y-100739849D01*
X97649600Y-99025563D02*
X97744838Y-99216039D01*
X97744838Y-99216039D02*
X97744838Y-99596992D01*
X97744838Y-99596992D02*
X97649600Y-99787468D01*
X97649600Y-99787468D02*
X97459123Y-99882706D01*
X97459123Y-99882706D02*
X96697219Y-99882706D01*
X96697219Y-99882706D02*
X96506742Y-99787468D01*
X96506742Y-99787468D02*
X96411504Y-99596992D01*
X96411504Y-99596992D02*
X96411504Y-99216039D01*
X96411504Y-99216039D02*
X96506742Y-99025563D01*
X96506742Y-99025563D02*
X96697219Y-98930325D01*
X96697219Y-98930325D02*
X96887695Y-98930325D01*
X96887695Y-98930325D02*
X97078171Y-99882706D01*
X96411504Y-96739848D02*
X97744838Y-96263658D01*
X97744838Y-96263658D02*
X96411504Y-95787467D01*
X97744838Y-93977943D02*
X97744838Y-95120800D01*
X97744838Y-94549372D02*
X95744838Y-94549372D01*
X95744838Y-94549372D02*
X96030552Y-94739848D01*
X96030552Y-94739848D02*
X96221028Y-94930324D01*
X96221028Y-94930324D02*
X96316266Y-95120800D01*
X97554361Y-93120800D02*
X97649600Y-93025562D01*
X97649600Y-93025562D02*
X97744838Y-93120800D01*
X97744838Y-93120800D02*
X97649600Y-93216038D01*
X97649600Y-93216038D02*
X97554361Y-93120800D01*
X97554361Y-93120800D02*
X97744838Y-93120800D01*
X95744838Y-92358895D02*
X95744838Y-91120800D01*
X95744838Y-91120800D02*
X96506742Y-91787467D01*
X96506742Y-91787467D02*
X96506742Y-91501752D01*
X96506742Y-91501752D02*
X96601980Y-91311276D01*
X96601980Y-91311276D02*
X96697219Y-91216038D01*
X96697219Y-91216038D02*
X96887695Y-91120800D01*
X96887695Y-91120800D02*
X97363885Y-91120800D01*
X97363885Y-91120800D02*
X97554361Y-91216038D01*
X97554361Y-91216038D02*
X97649600Y-91311276D01*
X97649600Y-91311276D02*
X97744838Y-91501752D01*
X97744838Y-91501752D02*
X97744838Y-92073181D01*
X97744838Y-92073181D02*
X97649600Y-92263657D01*
X97649600Y-92263657D02*
X97554361Y-92358895D01*
D10*
X91789160Y-91384104D02*
X92265350Y-91384104D01*
X91693922Y-91669819D02*
X92027255Y-90669819D01*
X92027255Y-90669819D02*
X92360588Y-91669819D01*
X92884398Y-90669819D02*
X92979636Y-90669819D01*
X92979636Y-90669819D02*
X93074874Y-90717438D01*
X93074874Y-90717438D02*
X93122493Y-90765057D01*
X93122493Y-90765057D02*
X93170112Y-90860295D01*
X93170112Y-90860295D02*
X93217731Y-91050771D01*
X93217731Y-91050771D02*
X93217731Y-91288866D01*
X93217731Y-91288866D02*
X93170112Y-91479342D01*
X93170112Y-91479342D02*
X93122493Y-91574580D01*
X93122493Y-91574580D02*
X93074874Y-91622200D01*
X93074874Y-91622200D02*
X92979636Y-91669819D01*
X92979636Y-91669819D02*
X92884398Y-91669819D01*
X92884398Y-91669819D02*
X92789160Y-91622200D01*
X92789160Y-91622200D02*
X92741541Y-91574580D01*
X92741541Y-91574580D02*
X92693922Y-91479342D01*
X92693922Y-91479342D02*
X92646303Y-91288866D01*
X92646303Y-91288866D02*
X92646303Y-91050771D01*
X92646303Y-91050771D02*
X92693922Y-90860295D01*
X92693922Y-90860295D02*
X92741541Y-90765057D01*
X92741541Y-90765057D02*
X92789160Y-90717438D01*
X92789160Y-90717438D02*
X92884398Y-90669819D01*
X56836779Y-93688866D02*
X57598684Y-93688866D01*
X57217731Y-94069819D02*
X57217731Y-93307914D01*
X58408207Y-93546009D02*
X58551064Y-93593628D01*
X58551064Y-93593628D02*
X58598683Y-93641247D01*
X58598683Y-93641247D02*
X58646302Y-93736485D01*
X58646302Y-93736485D02*
X58646302Y-93879342D01*
X58646302Y-93879342D02*
X58598683Y-93974580D01*
X58598683Y-93974580D02*
X58551064Y-94022200D01*
X58551064Y-94022200D02*
X58455826Y-94069819D01*
X58455826Y-94069819D02*
X58074874Y-94069819D01*
X58074874Y-94069819D02*
X58074874Y-93069819D01*
X58074874Y-93069819D02*
X58408207Y-93069819D01*
X58408207Y-93069819D02*
X58503445Y-93117438D01*
X58503445Y-93117438D02*
X58551064Y-93165057D01*
X58551064Y-93165057D02*
X58598683Y-93260295D01*
X58598683Y-93260295D02*
X58598683Y-93355533D01*
X58598683Y-93355533D02*
X58551064Y-93450771D01*
X58551064Y-93450771D02*
X58503445Y-93498390D01*
X58503445Y-93498390D02*
X58408207Y-93546009D01*
X58408207Y-93546009D02*
X58074874Y-93546009D01*
X59027255Y-93784104D02*
X59503445Y-93784104D01*
X58932017Y-94069819D02*
X59265350Y-93069819D01*
X59265350Y-93069819D02*
X59598683Y-94069819D01*
X59789160Y-93069819D02*
X60360588Y-93069819D01*
X60074874Y-94069819D02*
X60074874Y-93069819D01*
X60551065Y-93069819D02*
X61122493Y-93069819D01*
X60836779Y-94069819D02*
X60836779Y-93069819D01*
X55036779Y-99888866D02*
X55798684Y-99888866D01*
X81536779Y-112888866D02*
X82298684Y-112888866D01*
X81917731Y-113269819D02*
X81917731Y-112507914D01*
X87008207Y-99569819D02*
X86674874Y-99093628D01*
X86436779Y-99569819D02*
X86436779Y-98569819D01*
X86436779Y-98569819D02*
X86817731Y-98569819D01*
X86817731Y-98569819D02*
X86912969Y-98617438D01*
X86912969Y-98617438D02*
X86960588Y-98665057D01*
X86960588Y-98665057D02*
X87008207Y-98760295D01*
X87008207Y-98760295D02*
X87008207Y-98903152D01*
X87008207Y-98903152D02*
X86960588Y-98998390D01*
X86960588Y-98998390D02*
X86912969Y-99046009D01*
X86912969Y-99046009D02*
X86817731Y-99093628D01*
X86817731Y-99093628D02*
X86436779Y-99093628D01*
X87436779Y-99046009D02*
X87770112Y-99046009D01*
X87912969Y-99569819D02*
X87436779Y-99569819D01*
X87436779Y-99569819D02*
X87436779Y-98569819D01*
X87436779Y-98569819D02*
X87912969Y-98569819D01*
X88293922Y-99522200D02*
X88436779Y-99569819D01*
X88436779Y-99569819D02*
X88674874Y-99569819D01*
X88674874Y-99569819D02*
X88770112Y-99522200D01*
X88770112Y-99522200D02*
X88817731Y-99474580D01*
X88817731Y-99474580D02*
X88865350Y-99379342D01*
X88865350Y-99379342D02*
X88865350Y-99284104D01*
X88865350Y-99284104D02*
X88817731Y-99188866D01*
X88817731Y-99188866D02*
X88770112Y-99141247D01*
X88770112Y-99141247D02*
X88674874Y-99093628D01*
X88674874Y-99093628D02*
X88484398Y-99046009D01*
X88484398Y-99046009D02*
X88389160Y-98998390D01*
X88389160Y-98998390D02*
X88341541Y-98950771D01*
X88341541Y-98950771D02*
X88293922Y-98855533D01*
X88293922Y-98855533D02*
X88293922Y-98760295D01*
X88293922Y-98760295D02*
X88341541Y-98665057D01*
X88341541Y-98665057D02*
X88389160Y-98617438D01*
X88389160Y-98617438D02*
X88484398Y-98569819D01*
X88484398Y-98569819D02*
X88722493Y-98569819D01*
X88722493Y-98569819D02*
X88865350Y-98617438D01*
X89293922Y-99046009D02*
X89627255Y-99046009D01*
X89770112Y-99569819D02*
X89293922Y-99569819D01*
X89293922Y-99569819D02*
X89293922Y-98569819D01*
X89293922Y-98569819D02*
X89770112Y-98569819D01*
X90055827Y-98569819D02*
X90627255Y-98569819D01*
X90341541Y-99569819D02*
X90341541Y-98569819D01*
X94689160Y-90084104D02*
X95165350Y-90084104D01*
X94593922Y-90369819D02*
X94927255Y-89369819D01*
X94927255Y-89369819D02*
X95260588Y-90369819D01*
X96117731Y-90369819D02*
X95546303Y-90369819D01*
X95832017Y-90369819D02*
X95832017Y-89369819D01*
X95832017Y-89369819D02*
X95736779Y-89512676D01*
X95736779Y-89512676D02*
X95641541Y-89607914D01*
X95641541Y-89607914D02*
X95546303Y-89655533D01*
X56236779Y-106188866D02*
X56998684Y-106188866D01*
X57512969Y-91469819D02*
X57036779Y-91469819D01*
X57036779Y-91469819D02*
X57036779Y-90469819D01*
X57846303Y-90946009D02*
X58179636Y-90946009D01*
X58322493Y-91469819D02*
X57846303Y-91469819D01*
X57846303Y-91469819D02*
X57846303Y-90469819D01*
X57846303Y-90469819D02*
X58322493Y-90469819D01*
X58751065Y-91469819D02*
X58751065Y-90469819D01*
X58751065Y-90469819D02*
X58989160Y-90469819D01*
X58989160Y-90469819D02*
X59132017Y-90517438D01*
X59132017Y-90517438D02*
X59227255Y-90612676D01*
X59227255Y-90612676D02*
X59274874Y-90707914D01*
X59274874Y-90707914D02*
X59322493Y-90898390D01*
X59322493Y-90898390D02*
X59322493Y-91041247D01*
X59322493Y-91041247D02*
X59274874Y-91231723D01*
X59274874Y-91231723D02*
X59227255Y-91326961D01*
X59227255Y-91326961D02*
X59132017Y-91422200D01*
X59132017Y-91422200D02*
X58989160Y-91469819D01*
X58989160Y-91469819D02*
X58751065Y-91469819D01*
X89811133Y-89761779D02*
X89811133Y-90523684D01*
X89430180Y-90142731D02*
X90192085Y-90142731D01*
X89953990Y-91333207D02*
X89906371Y-91476064D01*
X89906371Y-91476064D02*
X89858752Y-91523683D01*
X89858752Y-91523683D02*
X89763514Y-91571302D01*
X89763514Y-91571302D02*
X89620657Y-91571302D01*
X89620657Y-91571302D02*
X89525419Y-91523683D01*
X89525419Y-91523683D02*
X89477800Y-91476064D01*
X89477800Y-91476064D02*
X89430180Y-91380826D01*
X89430180Y-91380826D02*
X89430180Y-90999874D01*
X89430180Y-90999874D02*
X90430180Y-90999874D01*
X90430180Y-90999874D02*
X90430180Y-91333207D01*
X90430180Y-91333207D02*
X90382561Y-91428445D01*
X90382561Y-91428445D02*
X90334942Y-91476064D01*
X90334942Y-91476064D02*
X90239704Y-91523683D01*
X90239704Y-91523683D02*
X90144466Y-91523683D01*
X90144466Y-91523683D02*
X90049228Y-91476064D01*
X90049228Y-91476064D02*
X90001609Y-91428445D01*
X90001609Y-91428445D02*
X89953990Y-91333207D01*
X89953990Y-91333207D02*
X89953990Y-90999874D01*
X89715895Y-91952255D02*
X89715895Y-92428445D01*
X89430180Y-91857017D02*
X90430180Y-92190350D01*
X90430180Y-92190350D02*
X89430180Y-92523683D01*
X90430180Y-92714160D02*
X90430180Y-93285588D01*
X89430180Y-92999874D02*
X90430180Y-92999874D01*
X90430180Y-93476065D02*
X90430180Y-94047493D01*
X89430180Y-93761779D02*
X90430180Y-93761779D01*
X55036779Y-98588866D02*
X55798684Y-98588866D01*
X55417731Y-98969819D02*
X55417731Y-98207914D01*
X58960588Y-87917438D02*
X58865350Y-87869819D01*
X58865350Y-87869819D02*
X58722493Y-87869819D01*
X58722493Y-87869819D02*
X58579636Y-87917438D01*
X58579636Y-87917438D02*
X58484398Y-88012676D01*
X58484398Y-88012676D02*
X58436779Y-88107914D01*
X58436779Y-88107914D02*
X58389160Y-88298390D01*
X58389160Y-88298390D02*
X58389160Y-88441247D01*
X58389160Y-88441247D02*
X58436779Y-88631723D01*
X58436779Y-88631723D02*
X58484398Y-88726961D01*
X58484398Y-88726961D02*
X58579636Y-88822200D01*
X58579636Y-88822200D02*
X58722493Y-88869819D01*
X58722493Y-88869819D02*
X58817731Y-88869819D01*
X58817731Y-88869819D02*
X58960588Y-88822200D01*
X58960588Y-88822200D02*
X59008207Y-88774580D01*
X59008207Y-88774580D02*
X59008207Y-88441247D01*
X59008207Y-88441247D02*
X58817731Y-88441247D01*
X59436779Y-88869819D02*
X59436779Y-87869819D01*
X59436779Y-87869819D02*
X60008207Y-88869819D01*
X60008207Y-88869819D02*
X60008207Y-87869819D01*
X60484398Y-88869819D02*
X60484398Y-87869819D01*
X60484398Y-87869819D02*
X60722493Y-87869819D01*
X60722493Y-87869819D02*
X60865350Y-87917438D01*
X60865350Y-87917438D02*
X60960588Y-88012676D01*
X60960588Y-88012676D02*
X61008207Y-88107914D01*
X61008207Y-88107914D02*
X61055826Y-88298390D01*
X61055826Y-88298390D02*
X61055826Y-88441247D01*
X61055826Y-88441247D02*
X61008207Y-88631723D01*
X61008207Y-88631723D02*
X60960588Y-88726961D01*
X60960588Y-88726961D02*
X60865350Y-88822200D01*
X60865350Y-88822200D02*
X60722493Y-88869819D01*
X60722493Y-88869819D02*
X60484398Y-88869819D01*
X91708207Y-114874580D02*
X91660588Y-114922200D01*
X91660588Y-114922200D02*
X91517731Y-114969819D01*
X91517731Y-114969819D02*
X91422493Y-114969819D01*
X91422493Y-114969819D02*
X91279636Y-114922200D01*
X91279636Y-114922200D02*
X91184398Y-114826961D01*
X91184398Y-114826961D02*
X91136779Y-114731723D01*
X91136779Y-114731723D02*
X91089160Y-114541247D01*
X91089160Y-114541247D02*
X91089160Y-114398390D01*
X91089160Y-114398390D02*
X91136779Y-114207914D01*
X91136779Y-114207914D02*
X91184398Y-114112676D01*
X91184398Y-114112676D02*
X91279636Y-114017438D01*
X91279636Y-114017438D02*
X91422493Y-113969819D01*
X91422493Y-113969819D02*
X91517731Y-113969819D01*
X91517731Y-113969819D02*
X91660588Y-114017438D01*
X91660588Y-114017438D02*
X91708207Y-114065057D01*
X92612969Y-114969819D02*
X92136779Y-114969819D01*
X92136779Y-114969819D02*
X92136779Y-113969819D01*
X92946303Y-114969819D02*
X92946303Y-113969819D01*
X93517731Y-114969819D02*
X93089160Y-114398390D01*
X93517731Y-113969819D02*
X92946303Y-114541247D01*
X68027255Y-115269819D02*
X68217731Y-115269819D01*
X68217731Y-115269819D02*
X68312969Y-115317438D01*
X68312969Y-115317438D02*
X68408207Y-115412676D01*
X68408207Y-115412676D02*
X68455826Y-115603152D01*
X68455826Y-115603152D02*
X68455826Y-115936485D01*
X68455826Y-115936485D02*
X68408207Y-116126961D01*
X68408207Y-116126961D02*
X68312969Y-116222200D01*
X68312969Y-116222200D02*
X68217731Y-116269819D01*
X68217731Y-116269819D02*
X68027255Y-116269819D01*
X68027255Y-116269819D02*
X67932017Y-116222200D01*
X67932017Y-116222200D02*
X67836779Y-116126961D01*
X67836779Y-116126961D02*
X67789160Y-115936485D01*
X67789160Y-115936485D02*
X67789160Y-115603152D01*
X67789160Y-115603152D02*
X67836779Y-115412676D01*
X67836779Y-115412676D02*
X67932017Y-115317438D01*
X67932017Y-115317438D02*
X68027255Y-115269819D01*
X69217731Y-115746009D02*
X68884398Y-115746009D01*
X68884398Y-116269819D02*
X68884398Y-115269819D01*
X68884398Y-115269819D02*
X69360588Y-115269819D01*
X70074874Y-115746009D02*
X69741541Y-115746009D01*
X69741541Y-116269819D02*
X69741541Y-115269819D01*
X69741541Y-115269819D02*
X70217731Y-115269819D01*
X97289160Y-90184104D02*
X97765350Y-90184104D01*
X97193922Y-90469819D02*
X97527255Y-89469819D01*
X97527255Y-89469819D02*
X97860588Y-90469819D01*
X98146303Y-89565057D02*
X98193922Y-89517438D01*
X98193922Y-89517438D02*
X98289160Y-89469819D01*
X98289160Y-89469819D02*
X98527255Y-89469819D01*
X98527255Y-89469819D02*
X98622493Y-89517438D01*
X98622493Y-89517438D02*
X98670112Y-89565057D01*
X98670112Y-89565057D02*
X98717731Y-89660295D01*
X98717731Y-89660295D02*
X98717731Y-89755533D01*
X98717731Y-89755533D02*
X98670112Y-89898390D01*
X98670112Y-89898390D02*
X98098684Y-90469819D01*
X98098684Y-90469819D02*
X98717731Y-90469819D01*
X56236779Y-108788866D02*
X56998684Y-108788866D01*
X56617731Y-109169819D02*
X56617731Y-108407914D01*
X69985714Y-87954819D02*
X69414286Y-87954819D01*
X69700000Y-87954819D02*
X69700000Y-86954819D01*
X69700000Y-86954819D02*
X69604762Y-87097676D01*
X69604762Y-87097676D02*
X69509524Y-87192914D01*
X69509524Y-87192914D02*
X69414286Y-87240533D01*
D12*
%TO.C,R2*%
X78620000Y-90253641D02*
X78620000Y-89946359D01*
X79380000Y-90253641D02*
X79380000Y-89946359D01*
D10*
%TO.C,SW2*%
X64500000Y-90800000D02*
X64850000Y-90800000D01*
X64500000Y-90800000D02*
X64500000Y-87000000D01*
X65950000Y-90800000D02*
X66350000Y-90800000D01*
X67450000Y-90800000D02*
X67800000Y-90800000D01*
X67800000Y-90800000D02*
X67800000Y-87000000D01*
X64850000Y-87000000D02*
X64500000Y-87000000D01*
X65950000Y-87000000D02*
X66350000Y-87000000D01*
X67800000Y-87000000D02*
X67450000Y-87000000D01*
D12*
%TO.C,R15*%
X79520000Y-103763641D02*
X79520000Y-103456359D01*
X80280000Y-103763641D02*
X80280000Y-103456359D01*
%TO.C,C8*%
X64859420Y-101840000D02*
X65140580Y-101840000D01*
X64859420Y-102860000D02*
X65140580Y-102860000D01*
%TO.C,U7*%
X74290000Y-93640000D02*
X74290000Y-94090000D01*
X74290000Y-94090000D02*
X73000000Y-94090000D01*
X74290000Y-100860000D02*
X74290000Y-100410000D01*
X74740000Y-93640000D02*
X74290000Y-93640000D01*
X74740000Y-100860000D02*
X74290000Y-100860000D01*
X81060000Y-93640000D02*
X81510000Y-93640000D01*
X81060000Y-100860000D02*
X81510000Y-100860000D01*
X81510000Y-93640000D02*
X81510000Y-94090000D01*
X81510000Y-100860000D02*
X81510000Y-100410000D01*
%TO.C,C1*%
X74315835Y-103660000D02*
X74084165Y-103660000D01*
X74315835Y-102940000D02*
X74084165Y-102940000D01*
%TO.C,C11*%
X58010000Y-103609420D02*
X58010000Y-103890580D01*
X56990000Y-103609420D02*
X56990000Y-103890580D01*
%TO.C,C9*%
X65040000Y-104848335D02*
X65040000Y-104616665D01*
X65760000Y-104848335D02*
X65760000Y-104616665D01*
%TO.C,R11*%
X63477500Y-104887258D02*
X63477500Y-104412742D01*
X64522500Y-104887258D02*
X64522500Y-104412742D01*
D13*
%TO.C,J1*%
X69800000Y-116550000D02*
X79550000Y-116550000D01*
X71550000Y-116350000D02*
X71550000Y-117200000D01*
X71550000Y-117200000D02*
X71550000Y-117250000D01*
X71950000Y-116900000D02*
X72250000Y-116900000D01*
X71950000Y-117200000D02*
X71950000Y-116900000D01*
X72650000Y-117300000D02*
X77350000Y-117300000D01*
X78150000Y-116900000D02*
X77850000Y-116900000D01*
X78150000Y-117200000D02*
X78150000Y-116900000D01*
X78550000Y-116350000D02*
X78550000Y-117200000D01*
X78550000Y-116350000D02*
X78550000Y-117250000D01*
X78550000Y-117200000D02*
X78550000Y-117250000D01*
X71050000Y-117700000D02*
G75*
G03*
X71550000Y-117200000I-1J500001D01*
G01*
X71150000Y-118000000D02*
G75*
G03*
X71950000Y-117200000I-1J800001D01*
G01*
X72250000Y-116900000D02*
G75*
G03*
X72650000Y-117300000I399999J-1D01*
G01*
X77450000Y-117300000D02*
G75*
G03*
X77850000Y-116900000I0J400000D01*
G01*
X78150000Y-117200000D02*
G75*
G03*
X78950000Y-118000000I800000J0D01*
G01*
X78550000Y-117200000D02*
G75*
G03*
X79050000Y-117700000I500000J0D01*
G01*
D12*
%TO.C,D6*%
X77427500Y-104765000D02*
X77427500Y-106235000D01*
X77427500Y-106235000D02*
X79712500Y-106235000D01*
X79712500Y-104765000D02*
X77427500Y-104765000D01*
%TO.C,R6*%
X84136359Y-89920000D02*
X84443641Y-89920000D01*
X84136359Y-90680000D02*
X84443641Y-90680000D01*
D10*
%TO.C,U1*%
X72925000Y-108875000D02*
X73150000Y-108875000D01*
X72925000Y-108875000D02*
X72925000Y-105525000D01*
X73150000Y-108875000D02*
X73150000Y-110100000D01*
X76275000Y-108875000D02*
X75975000Y-108875000D01*
X76275000Y-108875000D02*
X76275000Y-105525000D01*
X72925000Y-105525000D02*
X73225000Y-105525000D01*
X76275000Y-105525000D02*
X75975000Y-105525000D01*
D12*
%TO.C,D1*%
X84597500Y-103135000D02*
X84597500Y-101665000D01*
X84597500Y-101665000D02*
X82312500Y-101665000D01*
X82312500Y-103135000D02*
X84597500Y-103135000D01*
%TO.C,U3*%
X70200000Y-86350000D02*
X77500000Y-86350000D01*
X70200000Y-91850000D02*
X77500000Y-91850000D01*
X77500000Y-91850000D02*
X77500000Y-90700000D01*
%TO.C,R19*%
X73863641Y-102080000D02*
X73556359Y-102080000D01*
X73863641Y-101320000D02*
X73556359Y-101320000D01*
%TO.C,R10*%
X67722500Y-104437742D02*
X67722500Y-104912258D01*
X66677500Y-104437742D02*
X66677500Y-104912258D01*
%TO.C,C14*%
X66710000Y-108063748D02*
X66710000Y-109486252D01*
X64890000Y-108063748D02*
X64890000Y-109486252D01*
%TO.C,R1*%
X83520000Y-100743641D02*
X83520000Y-100436359D01*
X84280000Y-100743641D02*
X84280000Y-100436359D01*
%TO.C,U6*%
X80635000Y-106975000D02*
X80635000Y-110425000D01*
X80635000Y-106975000D02*
X80635000Y-105025000D01*
X85755000Y-106975000D02*
X85755000Y-108925000D01*
X85755000Y-106975000D02*
X85755000Y-105025000D01*
%TO.C,D8*%
X57490000Y-108050000D02*
X57490000Y-111350000D01*
X57490000Y-108050000D02*
X63000000Y-108050000D01*
X57490000Y-111350000D02*
X63000000Y-111350000D01*
%TO.C,C10*%
X66013748Y-92590000D02*
X67436252Y-92590000D01*
X66013748Y-94410000D02*
X67436252Y-94410000D01*
%TO.C,R18*%
X76453641Y-103880000D02*
X76146359Y-103880000D01*
X76453641Y-103120000D02*
X76146359Y-103120000D01*
%TO.C,C18*%
X84684420Y-111090000D02*
X84965580Y-111090000D01*
X84684420Y-112110000D02*
X84965580Y-112110000D01*
%TO.C,R14*%
X81912258Y-112122500D02*
X81437742Y-112122500D01*
X81912258Y-111077500D02*
X81437742Y-111077500D01*
%TO.C,C17*%
X94060000Y-91116665D02*
X94060000Y-91348335D01*
X93340000Y-91116665D02*
X93340000Y-91348335D01*
%TO.C,R8*%
X76720000Y-109263641D02*
X76720000Y-108956359D01*
X77480000Y-109263641D02*
X77480000Y-108956359D01*
%TO.C,D5*%
X63010000Y-100050000D02*
X63010000Y-95750000D01*
X63010000Y-100050000D02*
X57200000Y-100050000D01*
X63010000Y-95750000D02*
X57200000Y-95750000D01*
%TO.C,R13*%
X78536359Y-108320000D02*
X78843641Y-108320000D01*
X78536359Y-109080000D02*
X78843641Y-109080000D01*
%TO.C,C4*%
X71410000Y-97984420D02*
X71410000Y-98265580D01*
X70390000Y-97984420D02*
X70390000Y-98265580D01*
%TO.C,C6*%
X60710000Y-90809420D02*
X60710000Y-91090580D01*
X59690000Y-90809420D02*
X59690000Y-91090580D01*
%TO.C,C12*%
X66784420Y-95090000D02*
X67065580Y-95090000D01*
X66784420Y-96110000D02*
X67065580Y-96110000D01*
%TO.C,C13*%
X68640000Y-100248335D02*
X68640000Y-100016665D01*
X69360000Y-100248335D02*
X69360000Y-100016665D01*
%TO.C,C16*%
X84490000Y-93240580D02*
X84490000Y-92959420D01*
X85510000Y-93240580D02*
X85510000Y-92959420D01*
%TO.C,D4*%
X68150000Y-108960000D02*
X72450000Y-108960000D01*
X68150000Y-108960000D02*
X68150000Y-103150000D01*
X72450000Y-108960000D02*
X72450000Y-103150000D01*
%TO.C,TH1*%
X56610000Y-111813748D02*
X56610000Y-114586252D01*
X53190000Y-111813748D02*
X53190000Y-114586252D01*
%TO.C,R3*%
X69520000Y-92543641D02*
X69520000Y-92236359D01*
X70280000Y-92543641D02*
X70280000Y-92236359D01*
%TO.C,R4*%
X84620000Y-99553641D02*
X84620000Y-99246359D01*
X85380000Y-99553641D02*
X85380000Y-99246359D01*
%TO.C,D7*%
X77427500Y-106465000D02*
X77427500Y-107935000D01*
X77427500Y-107935000D02*
X79712500Y-107935000D01*
X79712500Y-106465000D02*
X77427500Y-106465000D01*
%TO.C,R17*%
X86480000Y-100056359D02*
X86480000Y-100363641D01*
X85720000Y-100056359D02*
X85720000Y-100363641D01*
%TO.C,U4*%
X63770000Y-101150000D02*
X63770000Y-100010000D01*
X63540000Y-100010000D02*
X63770000Y-100010000D01*
X63540000Y-100010000D02*
X63540000Y-97290000D01*
X68260000Y-100010000D02*
X68030000Y-100010000D01*
X63540000Y-97290000D02*
X64850000Y-97290000D01*
X66950000Y-97290000D02*
X68260000Y-97290000D01*
X68260000Y-97290000D02*
X68260000Y-100010000D01*
D10*
%TO.C,SW3*%
X88000000Y-98250000D02*
X88000000Y-97900000D01*
X88000000Y-98250000D02*
X84200000Y-98250000D01*
X88000000Y-96800000D02*
X88000000Y-96400000D01*
X88000000Y-95300000D02*
X88000000Y-94950000D01*
X88000000Y-94950000D02*
X84200000Y-94950000D01*
X84200000Y-97900000D02*
X84200000Y-98250000D01*
X84200000Y-96800000D02*
X84200000Y-96400000D01*
X84200000Y-94950000D02*
X84200000Y-95300000D01*
D12*
%TO.C,D2*%
X70910000Y-111237500D02*
X70910000Y-109437500D01*
X70910000Y-111237500D02*
X70910000Y-112037500D01*
X67790000Y-111237500D02*
X67790000Y-110437500D01*
X67790000Y-111237500D02*
X67790000Y-112037500D01*
%TO.C,R7*%
X86136359Y-89920000D02*
X86443641Y-89920000D01*
X86136359Y-90680000D02*
X86443641Y-90680000D01*
%TO.C,C2*%
X71484165Y-95690000D02*
X71715835Y-95690000D01*
X71484165Y-96410000D02*
X71715835Y-96410000D01*
D10*
%TO.C,SW1*%
X79700000Y-90875000D02*
X80050000Y-90875000D01*
X79700000Y-90875000D02*
X79700000Y-87075000D01*
X81150000Y-90875000D02*
X81550000Y-90875000D01*
X82650000Y-90875000D02*
X83000000Y-90875000D01*
X83000000Y-90875000D02*
X83000000Y-87075000D01*
X80050000Y-87075000D02*
X79700000Y-87075000D01*
X81150000Y-87075000D02*
X81550000Y-87075000D01*
X83000000Y-87075000D02*
X82650000Y-87075000D01*
D12*
%TO.C,R9*%
X68977500Y-89012258D02*
X68977500Y-88537742D01*
X70022500Y-89012258D02*
X70022500Y-88537742D01*
%TO.C,J5*%
X80490000Y-115830000D02*
X80490000Y-114500000D01*
X81820000Y-115830000D02*
X80490000Y-115830000D01*
X83090000Y-115830000D02*
X90770000Y-115830000D01*
X83090000Y-115830000D02*
X83090000Y-113170000D01*
X90770000Y-115830000D02*
X90770000Y-113170000D01*
X83090000Y-113170000D02*
X90770000Y-113170000D01*
%TO.C,R5*%
X82736359Y-92120000D02*
X83043641Y-92120000D01*
X82736359Y-92880000D02*
X83043641Y-92880000D01*
%TO.C,J2*%
X83750000Y-88830000D02*
X83750000Y-87500000D01*
X85080000Y-88830000D02*
X83750000Y-88830000D01*
X86350000Y-88830000D02*
X99110000Y-88830000D01*
X86350000Y-88830000D02*
X86350000Y-86170000D01*
X99110000Y-88830000D02*
X99110000Y-86170000D01*
X86350000Y-86170000D02*
X99110000Y-86170000D01*
%TO.C,C3*%
X71840000Y-97798335D02*
X71840000Y-97566665D01*
X72560000Y-97798335D02*
X72560000Y-97566665D01*
%TO.C,R16*%
X78536359Y-109420000D02*
X78843641Y-109420000D01*
X78536359Y-110180000D02*
X78843641Y-110180000D01*
%TO.C,R12*%
X77720000Y-103763641D02*
X77720000Y-103456359D01*
X78480000Y-103763641D02*
X78480000Y-103456359D01*
%TO.C,D3*%
X58450000Y-107810000D02*
X62750000Y-107810000D01*
X58450000Y-107810000D02*
X58450000Y-102000000D01*
X62750000Y-107810000D02*
X62750000Y-102000000D01*
%TO.C,C5*%
X71840000Y-100033335D02*
X71840000Y-99801665D01*
X72560000Y-100033335D02*
X72560000Y-99801665D01*
D10*
%TO.C,SW4*%
X57100000Y-113562500D02*
X57100000Y-118462500D01*
X57100000Y-118462500D02*
X67500000Y-118462500D01*
X58700000Y-113562500D02*
X57100000Y-113562500D01*
X67500000Y-113562500D02*
X65700000Y-113562500D01*
X67500000Y-118462500D02*
X67500000Y-113562500D01*
D12*
%TO.C,C15*%
X86660000Y-92859165D02*
X86660000Y-93090835D01*
X85940000Y-92859165D02*
X85940000Y-93090835D01*
%TO.C,C7*%
X78040000Y-88083335D02*
X78040000Y-87851665D01*
X78760000Y-88083335D02*
X78760000Y-87851665D01*
%TD*%
D14*
%TO.C,J1*%
X72550000Y-112400000D03*
X77550000Y-112400000D03*
D15*
X71550000Y-115100000D03*
X78550000Y-115100000D03*
%TD*%
%LPC*%
D16*
%TO.C,R2*%
X79000000Y-90610000D03*
X79000000Y-89590000D03*
%TD*%
D17*
%TO.C,SW2*%
X65400000Y-90825000D03*
X65400000Y-86975000D03*
X66900000Y-90825000D03*
X66900000Y-86975000D03*
%TD*%
D16*
%TO.C,R15*%
X79900000Y-104120000D03*
X79900000Y-103100000D03*
%TD*%
D18*
%TO.C,C8*%
X64225000Y-102350000D03*
X65775000Y-102350000D03*
%TD*%
D19*
%TO.C,U7*%
X73737500Y-94500000D03*
X73737500Y-95000000D03*
X73737500Y-95500000D03*
X73737500Y-96000000D03*
X73737500Y-96500000D03*
X73737500Y-97000000D03*
X73737500Y-97500000D03*
X73737500Y-98000000D03*
X73737500Y-98500000D03*
X73737500Y-99000000D03*
X73737500Y-99500000D03*
X73737500Y-100000000D03*
D20*
X75150000Y-101412500D03*
X75650000Y-101412500D03*
X76150000Y-101412500D03*
X76650000Y-101412500D03*
X77150000Y-101412500D03*
X77650000Y-101412500D03*
X78150000Y-101412500D03*
X78650000Y-101412500D03*
X79150000Y-101412500D03*
X79650000Y-101412500D03*
X80150000Y-101412500D03*
X80650000Y-101412500D03*
D19*
X82062500Y-100000000D03*
X82062500Y-99500000D03*
X82062500Y-99000000D03*
X82062500Y-98500000D03*
X82062500Y-98000000D03*
X82062500Y-97500000D03*
X82062500Y-97000000D03*
X82062500Y-96500000D03*
X82062500Y-96000000D03*
X82062500Y-95500000D03*
X82062500Y-95000000D03*
X82062500Y-94500000D03*
D20*
X80650000Y-93087500D03*
X80150000Y-93087500D03*
X79650000Y-93087500D03*
X79150000Y-93087500D03*
X78650000Y-93087500D03*
X78150000Y-93087500D03*
X77650000Y-93087500D03*
X77150000Y-93087500D03*
X76650000Y-93087500D03*
X76150000Y-93087500D03*
X75650000Y-93087500D03*
X75150000Y-93087500D03*
%TD*%
D21*
%TO.C,C1*%
X74767500Y-103300000D03*
X73632500Y-103300000D03*
%TD*%
D22*
%TO.C,C11*%
X57500000Y-102975000D03*
X57500000Y-104525000D03*
%TD*%
D23*
%TO.C,C9*%
X65400000Y-105300000D03*
X65400000Y-104165000D03*
%TD*%
D24*
%TO.C,R11*%
X64000000Y-105475000D03*
X64000000Y-103825000D03*
%TD*%
D25*
%TO.C,J1*%
X73750000Y-112425000D03*
X74400000Y-112425000D03*
X75050000Y-112425000D03*
X75700000Y-112425000D03*
X76350000Y-112425000D03*
D14*
X72550000Y-112400000D03*
X77550000Y-112400000D03*
D26*
X74050000Y-115100000D03*
X76050000Y-115100000D03*
D15*
X71550000Y-115100000D03*
D26*
X72000000Y-115100000D03*
X78100000Y-115100000D03*
D15*
X78550000Y-115100000D03*
%TD*%
D27*
%TO.C,D6*%
X78125000Y-105500000D03*
X79700000Y-105500000D03*
%TD*%
D28*
%TO.C,R6*%
X83780000Y-90300000D03*
X84800000Y-90300000D03*
%TD*%
D29*
%TO.C,U1*%
X73600000Y-109400000D03*
X74100000Y-109400000D03*
X74600000Y-109400000D03*
X75100000Y-109400000D03*
X75600000Y-109400000D03*
X75600000Y-105000000D03*
X75100000Y-105000000D03*
X74600000Y-105000000D03*
X74100000Y-105000000D03*
X73600000Y-105000000D03*
%TD*%
D30*
%TO.C,D1*%
X83900000Y-102400000D03*
X82325000Y-102400000D03*
%TD*%
D31*
%TO.C,U3*%
X71400000Y-87450000D03*
X71400000Y-90750000D03*
X76300000Y-90750000D03*
X76300000Y-87450000D03*
%TD*%
D32*
%TO.C,R19*%
X74220000Y-101700000D03*
X73200000Y-101700000D03*
%TD*%
D33*
%TO.C,R10*%
X67200000Y-103850000D03*
X67200000Y-105500000D03*
%TD*%
D34*
%TO.C,C14*%
X65800000Y-107300000D03*
X65800000Y-110250000D03*
%TD*%
D16*
%TO.C,R1*%
X83900000Y-101100000D03*
X83900000Y-100080000D03*
%TD*%
D35*
%TO.C,U6*%
X81290000Y-109600000D03*
X82560000Y-109600000D03*
X83830000Y-109600000D03*
X85100000Y-109600000D03*
X85100000Y-104350000D03*
X83830000Y-104350000D03*
X82560000Y-104350000D03*
X81290000Y-104350000D03*
D36*
X83195000Y-106975000D03*
%TD*%
D37*
%TO.C,D8*%
X59000000Y-109700000D03*
X63000000Y-109700000D03*
%TD*%
D38*
%TO.C,C10*%
X65250000Y-93500000D03*
X68200000Y-93500000D03*
%TD*%
D32*
%TO.C,R18*%
X76810000Y-103500000D03*
X75790000Y-103500000D03*
%TD*%
D18*
%TO.C,C18*%
X84050000Y-111600000D03*
X85600000Y-111600000D03*
%TD*%
D39*
%TO.C,L1*%
X91700000Y-90200000D03*
X92670000Y-90200000D03*
%TD*%
D40*
%TO.C,R14*%
X82500000Y-111600000D03*
X80850000Y-111600000D03*
%TD*%
D41*
%TO.C,C17*%
X93700000Y-90665000D03*
X93700000Y-91800000D03*
%TD*%
D16*
%TO.C,R8*%
X77100000Y-109620000D03*
X77100000Y-108600000D03*
%TD*%
D42*
%TO.C,D5*%
X61500000Y-97900000D03*
X57200000Y-97900000D03*
%TD*%
D28*
%TO.C,R13*%
X78180000Y-108700000D03*
X79200000Y-108700000D03*
%TD*%
D22*
%TO.C,C4*%
X70900000Y-97350000D03*
X70900000Y-98900000D03*
%TD*%
%TO.C,C6*%
X60200000Y-90175000D03*
X60200000Y-91725000D03*
%TD*%
D18*
%TO.C,C12*%
X66150000Y-95600000D03*
X67700000Y-95600000D03*
%TD*%
D43*
%TO.C,H4*%
X89500000Y-108500000D03*
%TD*%
D23*
%TO.C,C13*%
X69000000Y-100700000D03*
X69000000Y-99565000D03*
%TD*%
D44*
%TO.C,C16*%
X85000000Y-93875000D03*
X85000000Y-92325000D03*
%TD*%
D45*
%TO.C,D4*%
X70300000Y-107450000D03*
X70300000Y-103150000D03*
%TD*%
D46*
%TO.C,TH1*%
X54900000Y-110975000D03*
X54900000Y-115425000D03*
%TD*%
D16*
%TO.C,R3*%
X69900000Y-92900000D03*
X69900000Y-91880000D03*
%TD*%
%TO.C,R4*%
X85000000Y-99910000D03*
X85000000Y-98890000D03*
%TD*%
D27*
%TO.C,D7*%
X78125000Y-107200000D03*
X79700000Y-107200000D03*
%TD*%
D47*
%TO.C,R17*%
X86100000Y-99700000D03*
X86100000Y-100720000D03*
%TD*%
D48*
%TO.C,U4*%
X64400000Y-100600000D03*
D49*
X65900000Y-100512500D03*
D48*
X67400000Y-100600000D03*
%TD*%
D50*
%TO.C,SW3*%
X88025000Y-97350000D03*
X84175000Y-97350000D03*
X88025000Y-95850000D03*
X84175000Y-95850000D03*
%TD*%
D51*
%TO.C,D2*%
X70300000Y-110100000D03*
X69350000Y-110100000D03*
X68400000Y-110100000D03*
X68400000Y-112375000D03*
X69350000Y-112375000D03*
X70300000Y-112375000D03*
%TD*%
D28*
%TO.C,R7*%
X85780000Y-90300000D03*
X86800000Y-90300000D03*
%TD*%
D52*
%TO.C,C2*%
X71032500Y-96050000D03*
X72167500Y-96050000D03*
%TD*%
D17*
%TO.C,SW1*%
X80600000Y-90900000D03*
X80600000Y-87050000D03*
X82100000Y-90900000D03*
X82100000Y-87050000D03*
%TD*%
D15*
%TO.C,H1*%
X54000000Y-93400000D03*
X54000000Y-90860000D03*
X54000000Y-88320000D03*
%TD*%
D24*
%TO.C,R9*%
X69500000Y-89600000D03*
X69500000Y-87950000D03*
%TD*%
D53*
%TO.C,J5*%
X81820000Y-114500000D03*
D54*
X84360000Y-114500000D03*
X86900000Y-114500000D03*
X89440000Y-114500000D03*
%TD*%
D28*
%TO.C,R5*%
X82380000Y-92500000D03*
X83400000Y-92500000D03*
%TD*%
D53*
%TO.C,J2*%
X85080000Y-87500000D03*
D54*
X87620000Y-87500000D03*
X90160000Y-87500000D03*
X92700000Y-87500000D03*
X95240000Y-87500000D03*
X97780000Y-87500000D03*
%TD*%
D23*
%TO.C,C3*%
X72200000Y-98250000D03*
X72200000Y-97115000D03*
%TD*%
D28*
%TO.C,R16*%
X78180000Y-109800000D03*
X79200000Y-109800000D03*
%TD*%
D16*
%TO.C,R12*%
X78100000Y-104120000D03*
X78100000Y-103100000D03*
%TD*%
D45*
%TO.C,D3*%
X60600000Y-106300000D03*
X60600000Y-102000000D03*
%TD*%
D23*
%TO.C,C5*%
X72200000Y-100485000D03*
X72200000Y-99350000D03*
%TD*%
D55*
%TO.C,SW4*%
X59750000Y-112862500D03*
D15*
X62300000Y-112862500D03*
X64850000Y-112862500D03*
%TD*%
D41*
%TO.C,C15*%
X86300000Y-92407500D03*
X86300000Y-93542500D03*
%TD*%
D23*
%TO.C,C7*%
X78400000Y-88535000D03*
X78400000Y-87400000D03*
%TD*%
D53*
%TO.C,J3*%
X62175000Y-88395000D03*
D54*
X62175000Y-90935000D03*
X62175000Y-93475000D03*
%TD*%
D56*
%TO.C,J6*%
X54200000Y-99900000D03*
D57*
X54200000Y-98650000D03*
%TD*%
D53*
%TO.C,J4*%
X55000000Y-108740000D03*
D58*
X55000000Y-106200000D03*
X55000000Y-103660000D03*
%TD*%
%LPD*%
M02*
