%FSLAX45Y45*%
G04 Gerber Fmt 4.5, Leading zero omitted, Abs format (unit mm)*
G04 Created by KiCad (PCBNEW 6.0.5-a6ca702e91~116~ubuntu20.04.1) date 2022-06-29 22:36:20*
%MOMM*%
%LPD*%
G01*
G04 APERTURE LIST*
%TA.AperFunction,Profile*%
%ADD10C,0.100000*%
%TD*%
%ADD11C,0.200000*%
%ADD12C,0.038000*%
%ADD13C,0.040000*%
%ADD14C,0.090000*%
%ADD15C,0.100000*%
%ADD16C,0.120000*%
G04 APERTURE END LIST*
D10*
X2780000Y-10150000D02*
X8600000Y-10150000D01*
X8600000Y-6450000D02*
X2800000Y-6450000D01*
X2680000Y-10050000D02*
G75*
G03*
X2780000Y-10150000I100000J0D01*
G01*
X2680000Y-10050000D02*
X2680000Y-6570000D01*
X8600000Y-10150000D02*
G75*
G03*
X8700000Y-10050000I0J100000D01*
G01*
X2800000Y-6450000D02*
G75*
G03*
X2680000Y-6570000I0J-120000D01*
G01*
X8700000Y-6550000D02*
G75*
G03*
X8600000Y-6450000I-100000J0D01*
G01*
X8700000Y-10050000D02*
X8700000Y-6550000D01*
D11*
D12*
X2761000Y-6521000D02*
X2799000Y-6559000D01*
X2799000Y-6521000D02*
X2761000Y-6559000D01*
X2761000Y-6721000D02*
X2799000Y-6759000D01*
X2799000Y-6721000D02*
X2761000Y-6759000D01*
X2761000Y-6921000D02*
X2799000Y-6959000D01*
X2799000Y-6921000D02*
X2761000Y-6959000D01*
X2761000Y-7121000D02*
X2799000Y-7159000D01*
X2799000Y-7121000D02*
X2761000Y-7159000D01*
X2761000Y-7321000D02*
X2799000Y-7359000D01*
X2799000Y-7321000D02*
X2761000Y-7359000D01*
X2761000Y-7521000D02*
X2799000Y-7559000D01*
X2799000Y-7521000D02*
X2761000Y-7559000D01*
X2761000Y-7721000D02*
X2799000Y-7759000D01*
X2799000Y-7721000D02*
X2761000Y-7759000D01*
X2761000Y-7921000D02*
X2799000Y-7959000D01*
X2799000Y-7921000D02*
X2761000Y-7959000D01*
X2761000Y-8121000D02*
X2799000Y-8159000D01*
X2799000Y-8121000D02*
X2761000Y-8159000D01*
X2761000Y-8321000D02*
X2799000Y-8359000D01*
X2799000Y-8321000D02*
X2761000Y-8359000D01*
X3361000Y-6721000D02*
X3399000Y-6759000D01*
X3399000Y-6721000D02*
X3361000Y-6759000D01*
X3361000Y-6921000D02*
X3399000Y-6959000D01*
X3399000Y-6921000D02*
X3361000Y-6959000D01*
X3361000Y-7121000D02*
X3399000Y-7159000D01*
X3399000Y-7121000D02*
X3361000Y-7159000D01*
X3361000Y-7321000D02*
X3399000Y-7359000D01*
X3399000Y-7321000D02*
X3361000Y-7359000D01*
X3361000Y-7521000D02*
X3399000Y-7559000D01*
X3399000Y-7521000D02*
X3361000Y-7559000D01*
X3361000Y-7721000D02*
X3399000Y-7759000D01*
X3399000Y-7721000D02*
X3361000Y-7759000D01*
X3361000Y-7921000D02*
X3399000Y-7959000D01*
X3399000Y-7921000D02*
X3361000Y-7959000D01*
X3361000Y-8121000D02*
X3399000Y-8159000D01*
X3399000Y-8121000D02*
X3361000Y-8159000D01*
X3361000Y-8321000D02*
X3399000Y-8359000D01*
X3399000Y-8321000D02*
X3361000Y-8359000D01*
X4101000Y-8411000D02*
X4139000Y-8449000D01*
X4139000Y-8411000D02*
X4101000Y-8449000D01*
X4351000Y-8701000D02*
X4389000Y-8739000D01*
X4389000Y-8701000D02*
X4351000Y-8739000D01*
X4471000Y-8261000D02*
X4509000Y-8299000D01*
X4509000Y-8261000D02*
X4471000Y-8299000D01*
X4481000Y-6511000D02*
X4519000Y-6549000D01*
X4519000Y-6511000D02*
X4481000Y-6549000D01*
D13*
X2830000Y-10020000D02*
G75*
G03*
X2830000Y-10020000I-20000J0D01*
G01*
X4104951Y-8595049D02*
G75*
G03*
X4104951Y-8595049I-20000J0D01*
G01*
X4110000Y-6750000D02*
G75*
G03*
X4110000Y-6750000I-20000J0D01*
G01*
X4110000Y-6860000D02*
G75*
G03*
X4110000Y-6860000I-20000J0D01*
G01*
X4110000Y-7050000D02*
G75*
G03*
X4110000Y-7050000I-20000J0D01*
G01*
X4110000Y-7250000D02*
G75*
G03*
X4110000Y-7250000I-20000J0D01*
G01*
X4110000Y-7440000D02*
G75*
G03*
X4110000Y-7440000I-20000J0D01*
G01*
X4110000Y-7620000D02*
G75*
G03*
X4110000Y-7620000I-20000J0D01*
G01*
X4110000Y-7800000D02*
G75*
G03*
X4110000Y-7800000I-20000J0D01*
G01*
X4110000Y-7970000D02*
G75*
G03*
X4110000Y-7970000I-20000J0D01*
G01*
X4110000Y-8130000D02*
G75*
G03*
X4110000Y-8130000I-20000J0D01*
G01*
X4110000Y-8280000D02*
G75*
G03*
X4110000Y-8280000I-20000J0D01*
G01*
X4390000Y-6660000D02*
G75*
G03*
X4390000Y-6660000I-20000J0D01*
G01*
X4410000Y-6950000D02*
G75*
G03*
X4410000Y-6950000I-20000J0D01*
G01*
X4410000Y-7240000D02*
G75*
G03*
X4410000Y-7240000I-20000J0D01*
G01*
X4410000Y-7560000D02*
G75*
G03*
X4410000Y-7560000I-20000J0D01*
G01*
X4420000Y-7910000D02*
G75*
G03*
X4420000Y-7910000I-20000J0D01*
G01*
X4450000Y-6530000D02*
G75*
G03*
X4450000Y-6530000I-20000J0D01*
G01*
X4510000Y-6760000D02*
G75*
G03*
X4510000Y-6760000I-20000J0D01*
G01*
X4670000Y-6900000D02*
G75*
G03*
X4670000Y-6900000I-20000J0D01*
G01*
X4700000Y-7080000D02*
G75*
G03*
X4700000Y-7080000I-20000J0D01*
G01*
X4720000Y-7740000D02*
G75*
G03*
X4720000Y-7740000I-20000J0D01*
G01*
X4730000Y-7410000D02*
G75*
G03*
X4730000Y-7410000I-20000J0D01*
G01*
X4824950Y-8580000D02*
G75*
G03*
X4824950Y-8580000I-20000J0D01*
G01*
X4880000Y-9610000D02*
G75*
G03*
X4880000Y-9610000I-20000J0D01*
G01*
X4935000Y-7115000D02*
G75*
G03*
X4935000Y-7115000I-20000J0D01*
G01*
X4950000Y-7280000D02*
G75*
G03*
X4950000Y-7280000I-20000J0D01*
G01*
X4970000Y-7600000D02*
G75*
G03*
X4970000Y-7600000I-20000J0D01*
G01*
X4970000Y-8120000D02*
G75*
G03*
X4970000Y-8120000I-20000J0D01*
G01*
X4990000Y-7910000D02*
G75*
G03*
X4990000Y-7910000I-20000J0D01*
G01*
X5120000Y-6840000D02*
G75*
G03*
X5120000Y-6840000I-20000J0D01*
G01*
X5180000Y-8120000D02*
G75*
G03*
X5180000Y-8120000I-20000J0D01*
G01*
X5190000Y-7400000D02*
G75*
G03*
X5190000Y-7400000I-20000J0D01*
G01*
X5240000Y-9340000D02*
G75*
G03*
X5240000Y-9340000I-20000J0D01*
G01*
X5370000Y-8140000D02*
G75*
G03*
X5370000Y-8140000I-20000J0D01*
G01*
X5430000Y-7880000D02*
G75*
G03*
X5430000Y-7880000I-20000J0D01*
G01*
X5507420Y-9659909D02*
G75*
G03*
X5507420Y-9659909I-20000J0D01*
G01*
X5510000Y-9580000D02*
G75*
G03*
X5510000Y-9580000I-20000J0D01*
G01*
X5521030Y-8982837D02*
G75*
G03*
X5521030Y-8982837I-20000J0D01*
G01*
X5530000Y-7660000D02*
G75*
G03*
X5530000Y-7660000I-20000J0D01*
G01*
X5560000Y-6750000D02*
G75*
G03*
X5560000Y-6750000I-20000J0D01*
G01*
X5630000Y-9100000D02*
G75*
G03*
X5630000Y-9100000I-20000J0D01*
G01*
X5640000Y-7380000D02*
G75*
G03*
X5640000Y-7380000I-20000J0D01*
G01*
X5730000Y-9500000D02*
G75*
G03*
X5730000Y-9500000I-20000J0D01*
G01*
X5744390Y-9332113D02*
G75*
G03*
X5744390Y-9332113I-20000J0D01*
G01*
X5760000Y-6730000D02*
G75*
G03*
X5760000Y-6730000I-20000J0D01*
G01*
X5770000Y-7560000D02*
G75*
G03*
X5770000Y-7560000I-20000J0D01*
G01*
X5790000Y-7760000D02*
G75*
G03*
X5790000Y-7760000I-20000J0D01*
G01*
X5850000Y-9900000D02*
G75*
G03*
X5850000Y-9900000I-20000J0D01*
G01*
X5900000Y-9080000D02*
G75*
G03*
X5900000Y-9080000I-20000J0D01*
G01*
X5922254Y-8779579D02*
G75*
G03*
X5922254Y-8779579I-20000J0D01*
G01*
X6000000Y-6730000D02*
G75*
G03*
X6000000Y-6730000I-20000J0D01*
G01*
X6020000Y-7500000D02*
G75*
G03*
X6020000Y-7500000I-20000J0D01*
G01*
X6030000Y-8280000D02*
G75*
G03*
X6030000Y-8280000I-20000J0D01*
G01*
X6064950Y-7790000D02*
G75*
G03*
X6064950Y-7790000I-20000J0D01*
G01*
X6110000Y-6840000D02*
G75*
G03*
X6110000Y-6840000I-20000J0D01*
G01*
X6120000Y-9600000D02*
G75*
G03*
X6120000Y-9600000I-20000J0D01*
G01*
X6160000Y-6600000D02*
G75*
G03*
X6160000Y-6600000I-20000J0D01*
G01*
X6160000Y-8360000D02*
G75*
G03*
X6160000Y-8360000I-20000J0D01*
G01*
X6200000Y-7040000D02*
G75*
G03*
X6200000Y-7040000I-20000J0D01*
G01*
X6230000Y-9080000D02*
G75*
G03*
X6230000Y-9080000I-20000J0D01*
G01*
X6250000Y-8280000D02*
G75*
G03*
X6250000Y-8280000I-20000J0D01*
G01*
X6270000Y-6760050D02*
G75*
G03*
X6270000Y-6760050I-20000J0D01*
G01*
X6270000Y-9560000D02*
G75*
G03*
X6270000Y-9560000I-20000J0D01*
G01*
X6290000Y-7370000D02*
G75*
G03*
X6290000Y-7370000I-20000J0D01*
G01*
X6340000Y-9630000D02*
G75*
G03*
X6340000Y-9630000I-20000J0D01*
G01*
X6384950Y-8150000D02*
G75*
G03*
X6384950Y-8150000I-20000J0D01*
G01*
X6430000Y-9620000D02*
G75*
G03*
X6430000Y-9620000I-20000J0D01*
G01*
X6450000Y-7190000D02*
G75*
G03*
X6450000Y-7190000I-20000J0D01*
G01*
X6460000Y-8360000D02*
G75*
G03*
X6460000Y-8360000I-20000J0D01*
G01*
X6460000Y-9900000D02*
G75*
G03*
X6460000Y-9900000I-20000J0D01*
G01*
X6470000Y-8180000D02*
G75*
G03*
X6470000Y-8180000I-20000J0D01*
G01*
X6480000Y-9560000D02*
G75*
G03*
X6480000Y-9560000I-20000J0D01*
G01*
X6560000Y-8740000D02*
G75*
G03*
X6560000Y-8740000I-20000J0D01*
G01*
X6580000Y-7720000D02*
G75*
G03*
X6580000Y-7720000I-20000J0D01*
G01*
X6680000Y-8150000D02*
G75*
G03*
X6680000Y-8150000I-20000J0D01*
G01*
X6700000Y-7850000D02*
G75*
G03*
X6700000Y-7850000I-20000J0D01*
G01*
X6710000Y-7000000D02*
G75*
G03*
X6710000Y-7000000I-20000J0D01*
G01*
X6720000Y-8080000D02*
G75*
G03*
X6720000Y-8080000I-20000J0D01*
G01*
X6744065Y-7782644D02*
G75*
G03*
X6744065Y-7782644I-20000J0D01*
G01*
X6750491Y-7707970D02*
G75*
G03*
X6750491Y-7707970I-20000J0D01*
G01*
X6850000Y-9030000D02*
G75*
G03*
X6850000Y-9030000I-20000J0D01*
G01*
X6870000Y-9570000D02*
G75*
G03*
X6870000Y-9570000I-20000J0D01*
G01*
X6940000Y-6950000D02*
G75*
G03*
X6940000Y-6950000I-20000J0D01*
G01*
X6940000Y-10050000D02*
G75*
G03*
X6940000Y-10050000I-20000J0D01*
G01*
X6960000Y-8720000D02*
G75*
G03*
X6960000Y-8720000I-20000J0D01*
G01*
X6978052Y-7696477D02*
G75*
G03*
X6978052Y-7696477I-20000J0D01*
G01*
X6989700Y-7577158D02*
G75*
G03*
X6989700Y-7577158I-20000J0D01*
G01*
X6990000Y-8280000D02*
G75*
G03*
X6990000Y-8280000I-20000J0D01*
G01*
X6990093Y-7502209D02*
G75*
G03*
X6990093Y-7502209I-20000J0D01*
G01*
X7030000Y-7950000D02*
G75*
G03*
X7030000Y-7950000I-20000J0D01*
G01*
X7110000Y-6850000D02*
G75*
G03*
X7110000Y-6850000I-20000J0D01*
G01*
X7110000Y-7430000D02*
G75*
G03*
X7110000Y-7430000I-20000J0D01*
G01*
X7160000Y-7890000D02*
G75*
G03*
X7160000Y-7890000I-20000J0D01*
G01*
X7278258Y-6871420D02*
G75*
G03*
X7278258Y-6871420I-20000J0D01*
G01*
X7380000Y-9800000D02*
G75*
G03*
X7380000Y-9800000I-20000J0D01*
G01*
X7410000Y-7030000D02*
G75*
G03*
X7410000Y-7030000I-20000J0D01*
G01*
X7460000Y-9040000D02*
G75*
G03*
X7460000Y-9040000I-20000J0D01*
G01*
X7650000Y-9800000D02*
G75*
G03*
X7650000Y-9800000I-20000J0D01*
G01*
X7678215Y-8408216D02*
G75*
G03*
X7678215Y-8408216I-20000J0D01*
G01*
X7784950Y-8394886D02*
G75*
G03*
X7784950Y-8394886I-20000J0D01*
G01*
X7840000Y-8660000D02*
G75*
G03*
X7840000Y-8660000I-20000J0D01*
G01*
X7870000Y-9810000D02*
G75*
G03*
X7870000Y-9810000I-20000J0D01*
G01*
X8000000Y-7440000D02*
G75*
G03*
X8000000Y-7440000I-20000J0D01*
G01*
X8020000Y-9030000D02*
G75*
G03*
X8020000Y-9030000I-20000J0D01*
G01*
X8060000Y-7720000D02*
G75*
G03*
X8060000Y-7720000I-20000J0D01*
G01*
X8160000Y-9440000D02*
G75*
G03*
X8160000Y-9440000I-20000J0D01*
G01*
X8290000Y-8320000D02*
G75*
G03*
X8290000Y-8320000I-20000J0D01*
G01*
X8390000Y-8820000D02*
G75*
G03*
X8390000Y-8820000I-20000J0D01*
G01*
X8580000Y-6590000D02*
G75*
G03*
X8580000Y-6590000I-20000J0D01*
G01*
X8600000Y-7740000D02*
G75*
G03*
X8600000Y-7740000I-20000J0D01*
G01*
X8600000Y-10040000D02*
G75*
G03*
X8600000Y-10040000I-20000J0D01*
G01*
D14*
X6060000Y-9725000D02*
X6060000Y-9815000D01*
X6015000Y-9770000D02*
X6105000Y-9770000D01*
X6560000Y-9725000D02*
X6560000Y-9815000D01*
X6515000Y-9770000D02*
X6605000Y-9770000D01*
D15*
X2945356Y-8857356D02*
X2945356Y-8786644D01*
X2874644Y-8786644D01*
X2874644Y-8857356D01*
X2945356Y-8857356D01*
X2945356Y-9111356D02*
X2945356Y-9040644D01*
X2874644Y-9040644D01*
X2874644Y-9111356D01*
X2945356Y-9111356D01*
X2945356Y-9365356D02*
X2945356Y-9294644D01*
X2874644Y-9294644D01*
X2874644Y-9365356D01*
X2945356Y-9365356D01*
X3730356Y-9845356D02*
X3730356Y-9774644D01*
X3659644Y-9774644D01*
X3659644Y-9845356D01*
X3730356Y-9845356D01*
D11*
X3655000Y-9750000D02*
X3655000Y-9870000D01*
X3735000Y-9750000D02*
X3735000Y-9870000D01*
X3655000Y-9870000D02*
G75*
G03*
X3735000Y-9870000I40000J0D01*
G01*
X3735000Y-9750000D02*
G75*
G03*
X3655000Y-9750000I-40000J0D01*
G01*
D15*
X4235356Y-9720356D02*
X4235356Y-9649644D01*
X4164644Y-9649644D01*
X4164644Y-9720356D01*
X4235356Y-9720356D01*
X4235356Y-9970356D02*
X4235356Y-9899644D01*
X4164644Y-9899644D01*
X4164644Y-9970356D01*
X4235356Y-9970356D01*
X4435356Y-9720356D02*
X4435356Y-9649644D01*
X4364644Y-9649644D01*
X4364644Y-9720356D01*
X4435356Y-9720356D01*
X4435356Y-9970356D02*
X4435356Y-9899644D01*
X4364644Y-9899644D01*
X4364644Y-9970356D01*
X4435356Y-9970356D01*
X4635356Y-9720356D02*
X4635356Y-9649644D01*
X4564644Y-9649644D01*
X4564644Y-9720356D01*
X4635356Y-9720356D01*
X4635356Y-9970356D02*
X4635356Y-9899644D01*
X4564644Y-9899644D01*
X4564644Y-9970356D01*
X4635356Y-9970356D01*
X5140356Y-9845356D02*
X5140356Y-9774644D01*
X5069644Y-9774644D01*
X5069644Y-9845356D01*
X5140356Y-9845356D01*
D11*
X5065000Y-9750000D02*
X5065000Y-9870000D01*
X5145000Y-9750000D02*
X5145000Y-9870000D01*
X5065000Y-9870000D02*
G75*
G03*
X5145000Y-9870000I40000J0D01*
G01*
X5145000Y-9750000D02*
G75*
G03*
X5065000Y-9750000I-40000J0D01*
G01*
D15*
X6485356Y-6695356D02*
X6485356Y-6624644D01*
X6414644Y-6624644D01*
X6414644Y-6695356D01*
X6485356Y-6695356D01*
X6739356Y-6695356D02*
X6739356Y-6624644D01*
X6668644Y-6624644D01*
X6668644Y-6695356D01*
X6739356Y-6695356D01*
X6993356Y-6695356D02*
X6993356Y-6624644D01*
X6922644Y-6624644D01*
X6922644Y-6695356D01*
X6993356Y-6695356D01*
X7247356Y-6695356D02*
X7247356Y-6624644D01*
X7176644Y-6624644D01*
X7176644Y-6695356D01*
X7247356Y-6695356D01*
X7279856Y-9207856D02*
X7279856Y-9137144D01*
X7209144Y-9137144D01*
X7209144Y-9207856D01*
X7279856Y-9207856D01*
X7501356Y-6695356D02*
X7501356Y-6624644D01*
X7430644Y-6624644D01*
X7430644Y-6695356D01*
X7501356Y-6695356D01*
X7533856Y-9207856D02*
X7533856Y-9137144D01*
X7463144Y-9137144D01*
X7463144Y-9207856D01*
X7533856Y-9207856D01*
X7755356Y-6695356D02*
X7755356Y-6624644D01*
X7684644Y-6624644D01*
X7684644Y-6695356D01*
X7755356Y-6695356D01*
X7787856Y-9207856D02*
X7787856Y-9137144D01*
X7717144Y-9137144D01*
X7717144Y-9207856D01*
X7787856Y-9207856D01*
X8535356Y-8483356D02*
X8535356Y-8412644D01*
X8464644Y-8412644D01*
X8464644Y-8483356D01*
X8535356Y-8483356D01*
X8535356Y-8737356D02*
X8535356Y-8666644D01*
X8464644Y-8666644D01*
X8464644Y-8737356D01*
X8535356Y-8737356D01*
X8535356Y-8991356D02*
X8535356Y-8920644D01*
X8464644Y-8920644D01*
X8464644Y-8991356D01*
X8535356Y-8991356D01*
X8535356Y-9245356D02*
X8535356Y-9174644D01*
X8464644Y-9174644D01*
X8464644Y-9245356D01*
X8535356Y-9245356D01*
D16*
X5960000Y-10100000D02*
X6020000Y-10040000D01*
X5960000Y-9980000D01*
X5900000Y-10040000D01*
X5960000Y-10100000D01*
X6660000Y-10100000D02*
X6720000Y-10040000D01*
X6660000Y-9980000D01*
X6600000Y-10040000D01*
X6660000Y-10100000D01*
D11*
X2932619Y-10465476D02*
X2932619Y-10265476D01*
X2980238Y-10265476D01*
X3008809Y-10275000D01*
X3027857Y-10294048D01*
X3037381Y-10313095D01*
X3046905Y-10351190D01*
X3046905Y-10379762D01*
X3037381Y-10417857D01*
X3027857Y-10436905D01*
X3008809Y-10455952D01*
X2980238Y-10465476D01*
X2932619Y-10465476D01*
X3132619Y-10465476D02*
X3132619Y-10332143D01*
X3132619Y-10370238D02*
X3142143Y-10351190D01*
X3151667Y-10341667D01*
X3170714Y-10332143D01*
X3189762Y-10332143D01*
X3256428Y-10465476D02*
X3256428Y-10332143D01*
X3256428Y-10265476D02*
X3246905Y-10275000D01*
X3256428Y-10284524D01*
X3265952Y-10275000D01*
X3256428Y-10265476D01*
X3256428Y-10284524D01*
X3380238Y-10465476D02*
X3361190Y-10455952D01*
X3351667Y-10436905D01*
X3351667Y-10265476D01*
X3485000Y-10465476D02*
X3465952Y-10455952D01*
X3456428Y-10436905D01*
X3456428Y-10265476D01*
X3713571Y-10465476D02*
X3713571Y-10265476D01*
X3780238Y-10408333D01*
X3846905Y-10265476D01*
X3846905Y-10465476D01*
X4027857Y-10465476D02*
X4027857Y-10360714D01*
X4018333Y-10341667D01*
X3999286Y-10332143D01*
X3961190Y-10332143D01*
X3942143Y-10341667D01*
X4027857Y-10455952D02*
X4008809Y-10465476D01*
X3961190Y-10465476D01*
X3942143Y-10455952D01*
X3932619Y-10436905D01*
X3932619Y-10417857D01*
X3942143Y-10398810D01*
X3961190Y-10389286D01*
X4008809Y-10389286D01*
X4027857Y-10379762D01*
X4123095Y-10332143D02*
X4123095Y-10532143D01*
X4123095Y-10341667D02*
X4142143Y-10332143D01*
X4180238Y-10332143D01*
X4199286Y-10341667D01*
X4208810Y-10351190D01*
X4218333Y-10370238D01*
X4218333Y-10427381D01*
X4208810Y-10446429D01*
X4199286Y-10455952D01*
X4180238Y-10465476D01*
X4142143Y-10465476D01*
X4123095Y-10455952D01*
X4304048Y-10446429D02*
X4313571Y-10455952D01*
X4304048Y-10465476D01*
X4294524Y-10455952D01*
X4304048Y-10446429D01*
X4304048Y-10465476D01*
X4304048Y-10341667D02*
X4313571Y-10351190D01*
X4304048Y-10360714D01*
X4294524Y-10351190D01*
X4304048Y-10341667D01*
X4304048Y-10360714D01*
D12*
X2637000Y-10776000D02*
X2675000Y-10814000D01*
X2675000Y-10776000D02*
X2637000Y-10814000D01*
D11*
X2970714Y-10685476D02*
X2989762Y-10685476D01*
X3008809Y-10695000D01*
X3018333Y-10704524D01*
X3027857Y-10723571D01*
X3037381Y-10761667D01*
X3037381Y-10809286D01*
X3027857Y-10847381D01*
X3018333Y-10866429D01*
X3008809Y-10875952D01*
X2989762Y-10885476D01*
X2970714Y-10885476D01*
X2951667Y-10875952D01*
X2942143Y-10866429D01*
X2932619Y-10847381D01*
X2923095Y-10809286D01*
X2923095Y-10761667D01*
X2932619Y-10723571D01*
X2942143Y-10704524D01*
X2951667Y-10695000D01*
X2970714Y-10685476D01*
X3123095Y-10866429D02*
X3132619Y-10875952D01*
X3123095Y-10885476D01*
X3113571Y-10875952D01*
X3123095Y-10866429D01*
X3123095Y-10885476D01*
X3199286Y-10685476D02*
X3323095Y-10685476D01*
X3256428Y-10761667D01*
X3285000Y-10761667D01*
X3304048Y-10771190D01*
X3313571Y-10780714D01*
X3323095Y-10799762D01*
X3323095Y-10847381D01*
X3313571Y-10866429D01*
X3304048Y-10875952D01*
X3285000Y-10885476D01*
X3227857Y-10885476D01*
X3208809Y-10875952D01*
X3199286Y-10866429D01*
X3437381Y-10771190D02*
X3418333Y-10761667D01*
X3408809Y-10752143D01*
X3399286Y-10733095D01*
X3399286Y-10723571D01*
X3408809Y-10704524D01*
X3418333Y-10695000D01*
X3437381Y-10685476D01*
X3475476Y-10685476D01*
X3494524Y-10695000D01*
X3504048Y-10704524D01*
X3513571Y-10723571D01*
X3513571Y-10733095D01*
X3504048Y-10752143D01*
X3494524Y-10761667D01*
X3475476Y-10771190D01*
X3437381Y-10771190D01*
X3418333Y-10780714D01*
X3408809Y-10790238D01*
X3399286Y-10809286D01*
X3399286Y-10847381D01*
X3408809Y-10866429D01*
X3418333Y-10875952D01*
X3437381Y-10885476D01*
X3475476Y-10885476D01*
X3494524Y-10875952D01*
X3504048Y-10866429D01*
X3513571Y-10847381D01*
X3513571Y-10809286D01*
X3504048Y-10790238D01*
X3494524Y-10780714D01*
X3475476Y-10771190D01*
X3637381Y-10685476D02*
X3656428Y-10685476D01*
X3675476Y-10695000D01*
X3685000Y-10704524D01*
X3694524Y-10723571D01*
X3704048Y-10761667D01*
X3704048Y-10809286D01*
X3694524Y-10847381D01*
X3685000Y-10866429D01*
X3675476Y-10875952D01*
X3656428Y-10885476D01*
X3637381Y-10885476D01*
X3618333Y-10875952D01*
X3608809Y-10866429D01*
X3599286Y-10847381D01*
X3589762Y-10809286D01*
X3589762Y-10761667D01*
X3599286Y-10723571D01*
X3608809Y-10704524D01*
X3618333Y-10695000D01*
X3637381Y-10685476D01*
X3789762Y-10885476D02*
X3789762Y-10752143D01*
X3789762Y-10771190D02*
X3799286Y-10761667D01*
X3818333Y-10752143D01*
X3846905Y-10752143D01*
X3865952Y-10761667D01*
X3875476Y-10780714D01*
X3875476Y-10885476D01*
X3875476Y-10780714D02*
X3885000Y-10761667D01*
X3904048Y-10752143D01*
X3932619Y-10752143D01*
X3951667Y-10761667D01*
X3961190Y-10780714D01*
X3961190Y-10885476D01*
X4056428Y-10885476D02*
X4056428Y-10752143D01*
X4056428Y-10771190D02*
X4065952Y-10761667D01*
X4085000Y-10752143D01*
X4113571Y-10752143D01*
X4132619Y-10761667D01*
X4142143Y-10780714D01*
X4142143Y-10885476D01*
X4142143Y-10780714D02*
X4151667Y-10761667D01*
X4170714Y-10752143D01*
X4199286Y-10752143D01*
X4218333Y-10761667D01*
X4227857Y-10780714D01*
X4227857Y-10885476D01*
X4618333Y-10675952D02*
X4446905Y-10933095D01*
X4875476Y-10685476D02*
X4894524Y-10685476D01*
X4913571Y-10695000D01*
X4923095Y-10704524D01*
X4932619Y-10723571D01*
X4942143Y-10761667D01*
X4942143Y-10809286D01*
X4932619Y-10847381D01*
X4923095Y-10866429D01*
X4913571Y-10875952D01*
X4894524Y-10885476D01*
X4875476Y-10885476D01*
X4856429Y-10875952D01*
X4846905Y-10866429D01*
X4837381Y-10847381D01*
X4827857Y-10809286D01*
X4827857Y-10761667D01*
X4837381Y-10723571D01*
X4846905Y-10704524D01*
X4856429Y-10695000D01*
X4875476Y-10685476D01*
X5027857Y-10866429D02*
X5037381Y-10875952D01*
X5027857Y-10885476D01*
X5018333Y-10875952D01*
X5027857Y-10866429D01*
X5027857Y-10885476D01*
X5161190Y-10685476D02*
X5180238Y-10685476D01*
X5199286Y-10695000D01*
X5208810Y-10704524D01*
X5218333Y-10723571D01*
X5227857Y-10761667D01*
X5227857Y-10809286D01*
X5218333Y-10847381D01*
X5208810Y-10866429D01*
X5199286Y-10875952D01*
X5180238Y-10885476D01*
X5161190Y-10885476D01*
X5142143Y-10875952D01*
X5132619Y-10866429D01*
X5123095Y-10847381D01*
X5113571Y-10809286D01*
X5113571Y-10761667D01*
X5123095Y-10723571D01*
X5132619Y-10704524D01*
X5142143Y-10695000D01*
X5161190Y-10685476D01*
X5418333Y-10885476D02*
X5304048Y-10885476D01*
X5361190Y-10885476D02*
X5361190Y-10685476D01*
X5342143Y-10714048D01*
X5323095Y-10733095D01*
X5304048Y-10742619D01*
X5599286Y-10685476D02*
X5504048Y-10685476D01*
X5494524Y-10780714D01*
X5504048Y-10771190D01*
X5523095Y-10761667D01*
X5570714Y-10761667D01*
X5589762Y-10771190D01*
X5599286Y-10780714D01*
X5608809Y-10799762D01*
X5608809Y-10847381D01*
X5599286Y-10866429D01*
X5589762Y-10875952D01*
X5570714Y-10885476D01*
X5523095Y-10885476D01*
X5504048Y-10875952D01*
X5494524Y-10866429D01*
X5732619Y-10685476D02*
X5751667Y-10685476D01*
X5770714Y-10695000D01*
X5780238Y-10704524D01*
X5789762Y-10723571D01*
X5799286Y-10761667D01*
X5799286Y-10809286D01*
X5789762Y-10847381D01*
X5780238Y-10866429D01*
X5770714Y-10875952D01*
X5751667Y-10885476D01*
X5732619Y-10885476D01*
X5713571Y-10875952D01*
X5704048Y-10866429D01*
X5694524Y-10847381D01*
X5685000Y-10809286D01*
X5685000Y-10761667D01*
X5694524Y-10723571D01*
X5704048Y-10704524D01*
X5713571Y-10695000D01*
X5732619Y-10685476D01*
X5875476Y-10685476D02*
X5875476Y-10723571D01*
X5951667Y-10685476D02*
X5951667Y-10723571D01*
X6246905Y-10961667D02*
X6237381Y-10952143D01*
X6218333Y-10923571D01*
X6208809Y-10904524D01*
X6199286Y-10875952D01*
X6189762Y-10828333D01*
X6189762Y-10790238D01*
X6199286Y-10742619D01*
X6208809Y-10714048D01*
X6218333Y-10695000D01*
X6237381Y-10666429D01*
X6246905Y-10656905D01*
X6313571Y-10704524D02*
X6323095Y-10695000D01*
X6342143Y-10685476D01*
X6389762Y-10685476D01*
X6408809Y-10695000D01*
X6418333Y-10704524D01*
X6427857Y-10723571D01*
X6427857Y-10742619D01*
X6418333Y-10771190D01*
X6304048Y-10885476D01*
X6427857Y-10885476D01*
X6494524Y-10685476D02*
X6618333Y-10685476D01*
X6551667Y-10761667D01*
X6580238Y-10761667D01*
X6599286Y-10771190D01*
X6608809Y-10780714D01*
X6618333Y-10799762D01*
X6618333Y-10847381D01*
X6608809Y-10866429D01*
X6599286Y-10875952D01*
X6580238Y-10885476D01*
X6523095Y-10885476D01*
X6504048Y-10875952D01*
X6494524Y-10866429D01*
X6856428Y-10885476D02*
X6856428Y-10685476D01*
X6942143Y-10885476D02*
X6942143Y-10780714D01*
X6932619Y-10761667D01*
X6913571Y-10752143D01*
X6885000Y-10752143D01*
X6865952Y-10761667D01*
X6856428Y-10771190D01*
X7065952Y-10885476D02*
X7046905Y-10875952D01*
X7037381Y-10866429D01*
X7027857Y-10847381D01*
X7027857Y-10790238D01*
X7037381Y-10771190D01*
X7046905Y-10761667D01*
X7065952Y-10752143D01*
X7094524Y-10752143D01*
X7113571Y-10761667D01*
X7123095Y-10771190D01*
X7132619Y-10790238D01*
X7132619Y-10847381D01*
X7123095Y-10866429D01*
X7113571Y-10875952D01*
X7094524Y-10885476D01*
X7065952Y-10885476D01*
X7246905Y-10885476D02*
X7227857Y-10875952D01*
X7218333Y-10856905D01*
X7218333Y-10685476D01*
X7399286Y-10875952D02*
X7380238Y-10885476D01*
X7342143Y-10885476D01*
X7323095Y-10875952D01*
X7313571Y-10856905D01*
X7313571Y-10780714D01*
X7323095Y-10761667D01*
X7342143Y-10752143D01*
X7380238Y-10752143D01*
X7399286Y-10761667D01*
X7408809Y-10780714D01*
X7408809Y-10799762D01*
X7313571Y-10818810D01*
X7485000Y-10875952D02*
X7504048Y-10885476D01*
X7542143Y-10885476D01*
X7561190Y-10875952D01*
X7570714Y-10856905D01*
X7570714Y-10847381D01*
X7561190Y-10828333D01*
X7542143Y-10818810D01*
X7513571Y-10818810D01*
X7494524Y-10809286D01*
X7485000Y-10790238D01*
X7485000Y-10780714D01*
X7494524Y-10761667D01*
X7513571Y-10752143D01*
X7542143Y-10752143D01*
X7561190Y-10761667D01*
X7637381Y-10961667D02*
X7646905Y-10952143D01*
X7665952Y-10923571D01*
X7675476Y-10904524D01*
X7685000Y-10875952D01*
X7694524Y-10828333D01*
X7694524Y-10790238D01*
X7685000Y-10742619D01*
X7675476Y-10714048D01*
X7665952Y-10695000D01*
X7646905Y-10666429D01*
X7637381Y-10656905D01*
D13*
X2675000Y-11059000D02*
G75*
G03*
X2675000Y-11059000I-20000J0D01*
G01*
D11*
X2970714Y-10949476D02*
X2989762Y-10949476D01*
X3008809Y-10959000D01*
X3018333Y-10968524D01*
X3027857Y-10987571D01*
X3037381Y-11025667D01*
X3037381Y-11073286D01*
X3027857Y-11111381D01*
X3018333Y-11130429D01*
X3008809Y-11139952D01*
X2989762Y-11149476D01*
X2970714Y-11149476D01*
X2951667Y-11139952D01*
X2942143Y-11130429D01*
X2932619Y-11111381D01*
X2923095Y-11073286D01*
X2923095Y-11025667D01*
X2932619Y-10987571D01*
X2942143Y-10968524D01*
X2951667Y-10959000D01*
X2970714Y-10949476D01*
X3123095Y-11130429D02*
X3132619Y-11139952D01*
X3123095Y-11149476D01*
X3113571Y-11139952D01*
X3123095Y-11130429D01*
X3123095Y-11149476D01*
X3304048Y-11016143D02*
X3304048Y-11149476D01*
X3256428Y-10939952D02*
X3208809Y-11082810D01*
X3332619Y-11082810D01*
X3446905Y-10949476D02*
X3465952Y-10949476D01*
X3485000Y-10959000D01*
X3494524Y-10968524D01*
X3504048Y-10987571D01*
X3513571Y-11025667D01*
X3513571Y-11073286D01*
X3504048Y-11111381D01*
X3494524Y-11130429D01*
X3485000Y-11139952D01*
X3465952Y-11149476D01*
X3446905Y-11149476D01*
X3427857Y-11139952D01*
X3418333Y-11130429D01*
X3408809Y-11111381D01*
X3399286Y-11073286D01*
X3399286Y-11025667D01*
X3408809Y-10987571D01*
X3418333Y-10968524D01*
X3427857Y-10959000D01*
X3446905Y-10949476D01*
X3637381Y-10949476D02*
X3656428Y-10949476D01*
X3675476Y-10959000D01*
X3685000Y-10968524D01*
X3694524Y-10987571D01*
X3704048Y-11025667D01*
X3704048Y-11073286D01*
X3694524Y-11111381D01*
X3685000Y-11130429D01*
X3675476Y-11139952D01*
X3656428Y-11149476D01*
X3637381Y-11149476D01*
X3618333Y-11139952D01*
X3608809Y-11130429D01*
X3599286Y-11111381D01*
X3589762Y-11073286D01*
X3589762Y-11025667D01*
X3599286Y-10987571D01*
X3608809Y-10968524D01*
X3618333Y-10959000D01*
X3637381Y-10949476D01*
X3789762Y-11149476D02*
X3789762Y-11016143D01*
X3789762Y-11035190D02*
X3799286Y-11025667D01*
X3818333Y-11016143D01*
X3846905Y-11016143D01*
X3865952Y-11025667D01*
X3875476Y-11044714D01*
X3875476Y-11149476D01*
X3875476Y-11044714D02*
X3885000Y-11025667D01*
X3904048Y-11016143D01*
X3932619Y-11016143D01*
X3951667Y-11025667D01*
X3961190Y-11044714D01*
X3961190Y-11149476D01*
X4056428Y-11149476D02*
X4056428Y-11016143D01*
X4056428Y-11035190D02*
X4065952Y-11025667D01*
X4085000Y-11016143D01*
X4113571Y-11016143D01*
X4132619Y-11025667D01*
X4142143Y-11044714D01*
X4142143Y-11149476D01*
X4142143Y-11044714D02*
X4151667Y-11025667D01*
X4170714Y-11016143D01*
X4199286Y-11016143D01*
X4218333Y-11025667D01*
X4227857Y-11044714D01*
X4227857Y-11149476D01*
X4618333Y-10939952D02*
X4446905Y-11197095D01*
X4875476Y-10949476D02*
X4894524Y-10949476D01*
X4913571Y-10959000D01*
X4923095Y-10968524D01*
X4932619Y-10987571D01*
X4942143Y-11025667D01*
X4942143Y-11073286D01*
X4932619Y-11111381D01*
X4923095Y-11130429D01*
X4913571Y-11139952D01*
X4894524Y-11149476D01*
X4875476Y-11149476D01*
X4856429Y-11139952D01*
X4846905Y-11130429D01*
X4837381Y-11111381D01*
X4827857Y-11073286D01*
X4827857Y-11025667D01*
X4837381Y-10987571D01*
X4846905Y-10968524D01*
X4856429Y-10959000D01*
X4875476Y-10949476D01*
X5027857Y-11130429D02*
X5037381Y-11139952D01*
X5027857Y-11149476D01*
X5018333Y-11139952D01*
X5027857Y-11130429D01*
X5027857Y-11149476D01*
X5161190Y-10949476D02*
X5180238Y-10949476D01*
X5199286Y-10959000D01*
X5208810Y-10968524D01*
X5218333Y-10987571D01*
X5227857Y-11025667D01*
X5227857Y-11073286D01*
X5218333Y-11111381D01*
X5208810Y-11130429D01*
X5199286Y-11139952D01*
X5180238Y-11149476D01*
X5161190Y-11149476D01*
X5142143Y-11139952D01*
X5132619Y-11130429D01*
X5123095Y-11111381D01*
X5113571Y-11073286D01*
X5113571Y-11025667D01*
X5123095Y-10987571D01*
X5132619Y-10968524D01*
X5142143Y-10959000D01*
X5161190Y-10949476D01*
X5418333Y-11149476D02*
X5304048Y-11149476D01*
X5361190Y-11149476D02*
X5361190Y-10949476D01*
X5342143Y-10978048D01*
X5323095Y-10997095D01*
X5304048Y-11006619D01*
X5599286Y-10949476D02*
X5504048Y-10949476D01*
X5494524Y-11044714D01*
X5504048Y-11035190D01*
X5523095Y-11025667D01*
X5570714Y-11025667D01*
X5589762Y-11035190D01*
X5599286Y-11044714D01*
X5608809Y-11063762D01*
X5608809Y-11111381D01*
X5599286Y-11130429D01*
X5589762Y-11139952D01*
X5570714Y-11149476D01*
X5523095Y-11149476D01*
X5504048Y-11139952D01*
X5494524Y-11130429D01*
X5675476Y-10949476D02*
X5808809Y-10949476D01*
X5723095Y-11149476D01*
X5875476Y-10949476D02*
X5875476Y-10987571D01*
X5951667Y-10949476D02*
X5951667Y-10987571D01*
X6246905Y-11225667D02*
X6237381Y-11216143D01*
X6218333Y-11187571D01*
X6208809Y-11168524D01*
X6199286Y-11139952D01*
X6189762Y-11092333D01*
X6189762Y-11054238D01*
X6199286Y-11006619D01*
X6208809Y-10978048D01*
X6218333Y-10959000D01*
X6237381Y-10930429D01*
X6246905Y-10920905D01*
X6427857Y-11149476D02*
X6313571Y-11149476D01*
X6370714Y-11149476D02*
X6370714Y-10949476D01*
X6351667Y-10978048D01*
X6332619Y-10997095D01*
X6313571Y-11006619D01*
X6618333Y-11149476D02*
X6504048Y-11149476D01*
X6561190Y-11149476D02*
X6561190Y-10949476D01*
X6542143Y-10978048D01*
X6523095Y-10997095D01*
X6504048Y-11006619D01*
X6694524Y-10968524D02*
X6704048Y-10959000D01*
X6723095Y-10949476D01*
X6770714Y-10949476D01*
X6789762Y-10959000D01*
X6799286Y-10968524D01*
X6808809Y-10987571D01*
X6808809Y-11006619D01*
X6799286Y-11035190D01*
X6685000Y-11149476D01*
X6808809Y-11149476D01*
X7046905Y-11149476D02*
X7046905Y-10949476D01*
X7132619Y-11149476D02*
X7132619Y-11044714D01*
X7123095Y-11025667D01*
X7104048Y-11016143D01*
X7075476Y-11016143D01*
X7056428Y-11025667D01*
X7046905Y-11035190D01*
X7256428Y-11149476D02*
X7237381Y-11139952D01*
X7227857Y-11130429D01*
X7218333Y-11111381D01*
X7218333Y-11054238D01*
X7227857Y-11035190D01*
X7237381Y-11025667D01*
X7256428Y-11016143D01*
X7285000Y-11016143D01*
X7304048Y-11025667D01*
X7313571Y-11035190D01*
X7323095Y-11054238D01*
X7323095Y-11111381D01*
X7313571Y-11130429D01*
X7304048Y-11139952D01*
X7285000Y-11149476D01*
X7256428Y-11149476D01*
X7437381Y-11149476D02*
X7418333Y-11139952D01*
X7408809Y-11120905D01*
X7408809Y-10949476D01*
X7589762Y-11139952D02*
X7570714Y-11149476D01*
X7532619Y-11149476D01*
X7513571Y-11139952D01*
X7504048Y-11120905D01*
X7504048Y-11044714D01*
X7513571Y-11025667D01*
X7532619Y-11016143D01*
X7570714Y-11016143D01*
X7589762Y-11025667D01*
X7599286Y-11044714D01*
X7599286Y-11063762D01*
X7504048Y-11082810D01*
X7675476Y-11139952D02*
X7694524Y-11149476D01*
X7732619Y-11149476D01*
X7751667Y-11139952D01*
X7761190Y-11120905D01*
X7761190Y-11111381D01*
X7751667Y-11092333D01*
X7732619Y-11082810D01*
X7704048Y-11082810D01*
X7685000Y-11073286D01*
X7675476Y-11054238D01*
X7675476Y-11044714D01*
X7685000Y-11025667D01*
X7704048Y-11016143D01*
X7732619Y-11016143D01*
X7751667Y-11025667D01*
X7827857Y-11225667D02*
X7837381Y-11216143D01*
X7856428Y-11187571D01*
X7865952Y-11168524D01*
X7875476Y-11139952D01*
X7885000Y-11092333D01*
X7885000Y-11054238D01*
X7875476Y-11006619D01*
X7865952Y-10978048D01*
X7856428Y-10959000D01*
X7837381Y-10930429D01*
X7827857Y-10920905D01*
D14*
X2630000Y-11278000D02*
X2630000Y-11368000D01*
X2585000Y-11323000D02*
X2675000Y-11323000D01*
D11*
X2970714Y-11213476D02*
X2989762Y-11213476D01*
X3008809Y-11223000D01*
X3018333Y-11232524D01*
X3027857Y-11251571D01*
X3037381Y-11289667D01*
X3037381Y-11337286D01*
X3027857Y-11375381D01*
X3018333Y-11394428D01*
X3008809Y-11403952D01*
X2989762Y-11413476D01*
X2970714Y-11413476D01*
X2951667Y-11403952D01*
X2942143Y-11394428D01*
X2932619Y-11375381D01*
X2923095Y-11337286D01*
X2923095Y-11289667D01*
X2932619Y-11251571D01*
X2942143Y-11232524D01*
X2951667Y-11223000D01*
X2970714Y-11213476D01*
X3123095Y-11394428D02*
X3132619Y-11403952D01*
X3123095Y-11413476D01*
X3113571Y-11403952D01*
X3123095Y-11394428D01*
X3123095Y-11413476D01*
X3227857Y-11413476D02*
X3265952Y-11413476D01*
X3285000Y-11403952D01*
X3294524Y-11394428D01*
X3313571Y-11365857D01*
X3323095Y-11327762D01*
X3323095Y-11251571D01*
X3313571Y-11232524D01*
X3304048Y-11223000D01*
X3285000Y-11213476D01*
X3246905Y-11213476D01*
X3227857Y-11223000D01*
X3218333Y-11232524D01*
X3208809Y-11251571D01*
X3208809Y-11299190D01*
X3218333Y-11318238D01*
X3227857Y-11327762D01*
X3246905Y-11337286D01*
X3285000Y-11337286D01*
X3304048Y-11327762D01*
X3313571Y-11318238D01*
X3323095Y-11299190D01*
X3446905Y-11213476D02*
X3465952Y-11213476D01*
X3485000Y-11223000D01*
X3494524Y-11232524D01*
X3504048Y-11251571D01*
X3513571Y-11289667D01*
X3513571Y-11337286D01*
X3504048Y-11375381D01*
X3494524Y-11394428D01*
X3485000Y-11403952D01*
X3465952Y-11413476D01*
X3446905Y-11413476D01*
X3427857Y-11403952D01*
X3418333Y-11394428D01*
X3408809Y-11375381D01*
X3399286Y-11337286D01*
X3399286Y-11289667D01*
X3408809Y-11251571D01*
X3418333Y-11232524D01*
X3427857Y-11223000D01*
X3446905Y-11213476D01*
X3637381Y-11213476D02*
X3656428Y-11213476D01*
X3675476Y-11223000D01*
X3685000Y-11232524D01*
X3694524Y-11251571D01*
X3704048Y-11289667D01*
X3704048Y-11337286D01*
X3694524Y-11375381D01*
X3685000Y-11394428D01*
X3675476Y-11403952D01*
X3656428Y-11413476D01*
X3637381Y-11413476D01*
X3618333Y-11403952D01*
X3608809Y-11394428D01*
X3599286Y-11375381D01*
X3589762Y-11337286D01*
X3589762Y-11289667D01*
X3599286Y-11251571D01*
X3608809Y-11232524D01*
X3618333Y-11223000D01*
X3637381Y-11213476D01*
X3789762Y-11413476D02*
X3789762Y-11280143D01*
X3789762Y-11299190D02*
X3799286Y-11289667D01*
X3818333Y-11280143D01*
X3846905Y-11280143D01*
X3865952Y-11289667D01*
X3875476Y-11308714D01*
X3875476Y-11413476D01*
X3875476Y-11308714D02*
X3885000Y-11289667D01*
X3904048Y-11280143D01*
X3932619Y-11280143D01*
X3951667Y-11289667D01*
X3961190Y-11308714D01*
X3961190Y-11413476D01*
X4056428Y-11413476D02*
X4056428Y-11280143D01*
X4056428Y-11299190D02*
X4065952Y-11289667D01*
X4085000Y-11280143D01*
X4113571Y-11280143D01*
X4132619Y-11289667D01*
X4142143Y-11308714D01*
X4142143Y-11413476D01*
X4142143Y-11308714D02*
X4151667Y-11289667D01*
X4170714Y-11280143D01*
X4199286Y-11280143D01*
X4218333Y-11289667D01*
X4227857Y-11308714D01*
X4227857Y-11413476D01*
X4618333Y-11203952D02*
X4446905Y-11461095D01*
X4875476Y-11213476D02*
X4894524Y-11213476D01*
X4913571Y-11223000D01*
X4923095Y-11232524D01*
X4932619Y-11251571D01*
X4942143Y-11289667D01*
X4942143Y-11337286D01*
X4932619Y-11375381D01*
X4923095Y-11394428D01*
X4913571Y-11403952D01*
X4894524Y-11413476D01*
X4875476Y-11413476D01*
X4856429Y-11403952D01*
X4846905Y-11394428D01*
X4837381Y-11375381D01*
X4827857Y-11337286D01*
X4827857Y-11289667D01*
X4837381Y-11251571D01*
X4846905Y-11232524D01*
X4856429Y-11223000D01*
X4875476Y-11213476D01*
X5027857Y-11394428D02*
X5037381Y-11403952D01*
X5027857Y-11413476D01*
X5018333Y-11403952D01*
X5027857Y-11394428D01*
X5027857Y-11413476D01*
X5161190Y-11213476D02*
X5180238Y-11213476D01*
X5199286Y-11223000D01*
X5208810Y-11232524D01*
X5218333Y-11251571D01*
X5227857Y-11289667D01*
X5227857Y-11337286D01*
X5218333Y-11375381D01*
X5208810Y-11394428D01*
X5199286Y-11403952D01*
X5180238Y-11413476D01*
X5161190Y-11413476D01*
X5142143Y-11403952D01*
X5132619Y-11394428D01*
X5123095Y-11375381D01*
X5113571Y-11337286D01*
X5113571Y-11289667D01*
X5123095Y-11251571D01*
X5132619Y-11232524D01*
X5142143Y-11223000D01*
X5161190Y-11213476D01*
X5294524Y-11213476D02*
X5418333Y-11213476D01*
X5351667Y-11289667D01*
X5380238Y-11289667D01*
X5399286Y-11299190D01*
X5408810Y-11308714D01*
X5418333Y-11327762D01*
X5418333Y-11375381D01*
X5408810Y-11394428D01*
X5399286Y-11403952D01*
X5380238Y-11413476D01*
X5323095Y-11413476D01*
X5304048Y-11403952D01*
X5294524Y-11394428D01*
X5599286Y-11213476D02*
X5504048Y-11213476D01*
X5494524Y-11308714D01*
X5504048Y-11299190D01*
X5523095Y-11289667D01*
X5570714Y-11289667D01*
X5589762Y-11299190D01*
X5599286Y-11308714D01*
X5608809Y-11327762D01*
X5608809Y-11375381D01*
X5599286Y-11394428D01*
X5589762Y-11403952D01*
X5570714Y-11413476D01*
X5523095Y-11413476D01*
X5504048Y-11403952D01*
X5494524Y-11394428D01*
X5780238Y-11280143D02*
X5780238Y-11413476D01*
X5732619Y-11203952D02*
X5685000Y-11346809D01*
X5808809Y-11346809D01*
X5875476Y-11213476D02*
X5875476Y-11251571D01*
X5951667Y-11213476D02*
X5951667Y-11251571D01*
X6246905Y-11489667D02*
X6237381Y-11480143D01*
X6218333Y-11451571D01*
X6208809Y-11432524D01*
X6199286Y-11403952D01*
X6189762Y-11356333D01*
X6189762Y-11318238D01*
X6199286Y-11270619D01*
X6208809Y-11242048D01*
X6218333Y-11223000D01*
X6237381Y-11194428D01*
X6246905Y-11184905D01*
X6313571Y-11232524D02*
X6323095Y-11223000D01*
X6342143Y-11213476D01*
X6389762Y-11213476D01*
X6408809Y-11223000D01*
X6418333Y-11232524D01*
X6427857Y-11251571D01*
X6427857Y-11270619D01*
X6418333Y-11299190D01*
X6304048Y-11413476D01*
X6427857Y-11413476D01*
X6665952Y-11413476D02*
X6665952Y-11213476D01*
X6751667Y-11413476D02*
X6751667Y-11308714D01*
X6742143Y-11289667D01*
X6723095Y-11280143D01*
X6694524Y-11280143D01*
X6675476Y-11289667D01*
X6665952Y-11299190D01*
X6875476Y-11413476D02*
X6856428Y-11403952D01*
X6846905Y-11394428D01*
X6837381Y-11375381D01*
X6837381Y-11318238D01*
X6846905Y-11299190D01*
X6856428Y-11289667D01*
X6875476Y-11280143D01*
X6904048Y-11280143D01*
X6923095Y-11289667D01*
X6932619Y-11299190D01*
X6942143Y-11318238D01*
X6942143Y-11375381D01*
X6932619Y-11394428D01*
X6923095Y-11403952D01*
X6904048Y-11413476D01*
X6875476Y-11413476D01*
X7056428Y-11413476D02*
X7037381Y-11403952D01*
X7027857Y-11384905D01*
X7027857Y-11213476D01*
X7208809Y-11403952D02*
X7189762Y-11413476D01*
X7151667Y-11413476D01*
X7132619Y-11403952D01*
X7123095Y-11384905D01*
X7123095Y-11308714D01*
X7132619Y-11289667D01*
X7151667Y-11280143D01*
X7189762Y-11280143D01*
X7208809Y-11289667D01*
X7218333Y-11308714D01*
X7218333Y-11327762D01*
X7123095Y-11346809D01*
X7294524Y-11403952D02*
X7313571Y-11413476D01*
X7351667Y-11413476D01*
X7370714Y-11403952D01*
X7380238Y-11384905D01*
X7380238Y-11375381D01*
X7370714Y-11356333D01*
X7351667Y-11346809D01*
X7323095Y-11346809D01*
X7304048Y-11337286D01*
X7294524Y-11318238D01*
X7294524Y-11308714D01*
X7304048Y-11289667D01*
X7323095Y-11280143D01*
X7351667Y-11280143D01*
X7370714Y-11289667D01*
X7446905Y-11489667D02*
X7456428Y-11480143D01*
X7475476Y-11451571D01*
X7485000Y-11432524D01*
X7494524Y-11403952D01*
X7504048Y-11356333D01*
X7504048Y-11318238D01*
X7494524Y-11270619D01*
X7485000Y-11242048D01*
X7475476Y-11223000D01*
X7456428Y-11194428D01*
X7446905Y-11184905D01*
D15*
X2660356Y-11622356D02*
X2660356Y-11551644D01*
X2589644Y-11551644D01*
X2589644Y-11622356D01*
X2660356Y-11622356D01*
D11*
X3037381Y-11677476D02*
X2923095Y-11677476D01*
X2980238Y-11677476D02*
X2980238Y-11477476D01*
X2961190Y-11506048D01*
X2942143Y-11525095D01*
X2923095Y-11534619D01*
X3123095Y-11658428D02*
X3132619Y-11667952D01*
X3123095Y-11677476D01*
X3113571Y-11667952D01*
X3123095Y-11658428D01*
X3123095Y-11677476D01*
X3256428Y-11477476D02*
X3275476Y-11477476D01*
X3294524Y-11487000D01*
X3304048Y-11496524D01*
X3313571Y-11515571D01*
X3323095Y-11553667D01*
X3323095Y-11601286D01*
X3313571Y-11639381D01*
X3304048Y-11658428D01*
X3294524Y-11667952D01*
X3275476Y-11677476D01*
X3256428Y-11677476D01*
X3237381Y-11667952D01*
X3227857Y-11658428D01*
X3218333Y-11639381D01*
X3208809Y-11601286D01*
X3208809Y-11553667D01*
X3218333Y-11515571D01*
X3227857Y-11496524D01*
X3237381Y-11487000D01*
X3256428Y-11477476D01*
X3446905Y-11477476D02*
X3465952Y-11477476D01*
X3485000Y-11487000D01*
X3494524Y-11496524D01*
X3504048Y-11515571D01*
X3513571Y-11553667D01*
X3513571Y-11601286D01*
X3504048Y-11639381D01*
X3494524Y-11658428D01*
X3485000Y-11667952D01*
X3465952Y-11677476D01*
X3446905Y-11677476D01*
X3427857Y-11667952D01*
X3418333Y-11658428D01*
X3408809Y-11639381D01*
X3399286Y-11601286D01*
X3399286Y-11553667D01*
X3408809Y-11515571D01*
X3418333Y-11496524D01*
X3427857Y-11487000D01*
X3446905Y-11477476D01*
X3637381Y-11477476D02*
X3656428Y-11477476D01*
X3675476Y-11487000D01*
X3685000Y-11496524D01*
X3694524Y-11515571D01*
X3704048Y-11553667D01*
X3704048Y-11601286D01*
X3694524Y-11639381D01*
X3685000Y-11658428D01*
X3675476Y-11667952D01*
X3656428Y-11677476D01*
X3637381Y-11677476D01*
X3618333Y-11667952D01*
X3608809Y-11658428D01*
X3599286Y-11639381D01*
X3589762Y-11601286D01*
X3589762Y-11553667D01*
X3599286Y-11515571D01*
X3608809Y-11496524D01*
X3618333Y-11487000D01*
X3637381Y-11477476D01*
X3789762Y-11677476D02*
X3789762Y-11544143D01*
X3789762Y-11563190D02*
X3799286Y-11553667D01*
X3818333Y-11544143D01*
X3846905Y-11544143D01*
X3865952Y-11553667D01*
X3875476Y-11572714D01*
X3875476Y-11677476D01*
X3875476Y-11572714D02*
X3885000Y-11553667D01*
X3904048Y-11544143D01*
X3932619Y-11544143D01*
X3951667Y-11553667D01*
X3961190Y-11572714D01*
X3961190Y-11677476D01*
X4056428Y-11677476D02*
X4056428Y-11544143D01*
X4056428Y-11563190D02*
X4065952Y-11553667D01*
X4085000Y-11544143D01*
X4113571Y-11544143D01*
X4132619Y-11553667D01*
X4142143Y-11572714D01*
X4142143Y-11677476D01*
X4142143Y-11572714D02*
X4151667Y-11553667D01*
X4170714Y-11544143D01*
X4199286Y-11544143D01*
X4218333Y-11553667D01*
X4227857Y-11572714D01*
X4227857Y-11677476D01*
X4618333Y-11467952D02*
X4446905Y-11725095D01*
X4875476Y-11477476D02*
X4894524Y-11477476D01*
X4913571Y-11487000D01*
X4923095Y-11496524D01*
X4932619Y-11515571D01*
X4942143Y-11553667D01*
X4942143Y-11601286D01*
X4932619Y-11639381D01*
X4923095Y-11658428D01*
X4913571Y-11667952D01*
X4894524Y-11677476D01*
X4875476Y-11677476D01*
X4856429Y-11667952D01*
X4846905Y-11658428D01*
X4837381Y-11639381D01*
X4827857Y-11601286D01*
X4827857Y-11553667D01*
X4837381Y-11515571D01*
X4846905Y-11496524D01*
X4856429Y-11487000D01*
X4875476Y-11477476D01*
X5027857Y-11658428D02*
X5037381Y-11667952D01*
X5027857Y-11677476D01*
X5018333Y-11667952D01*
X5027857Y-11658428D01*
X5027857Y-11677476D01*
X5161190Y-11477476D02*
X5180238Y-11477476D01*
X5199286Y-11487000D01*
X5208810Y-11496524D01*
X5218333Y-11515571D01*
X5227857Y-11553667D01*
X5227857Y-11601286D01*
X5218333Y-11639381D01*
X5208810Y-11658428D01*
X5199286Y-11667952D01*
X5180238Y-11677476D01*
X5161190Y-11677476D01*
X5142143Y-11667952D01*
X5132619Y-11658428D01*
X5123095Y-11639381D01*
X5113571Y-11601286D01*
X5113571Y-11553667D01*
X5123095Y-11515571D01*
X5132619Y-11496524D01*
X5142143Y-11487000D01*
X5161190Y-11477476D01*
X5294524Y-11477476D02*
X5418333Y-11477476D01*
X5351667Y-11553667D01*
X5380238Y-11553667D01*
X5399286Y-11563190D01*
X5408810Y-11572714D01*
X5418333Y-11591762D01*
X5418333Y-11639381D01*
X5408810Y-11658428D01*
X5399286Y-11667952D01*
X5380238Y-11677476D01*
X5323095Y-11677476D01*
X5304048Y-11667952D01*
X5294524Y-11658428D01*
X5513571Y-11677476D02*
X5551667Y-11677476D01*
X5570714Y-11667952D01*
X5580238Y-11658428D01*
X5599286Y-11629857D01*
X5608809Y-11591762D01*
X5608809Y-11515571D01*
X5599286Y-11496524D01*
X5589762Y-11487000D01*
X5570714Y-11477476D01*
X5532619Y-11477476D01*
X5513571Y-11487000D01*
X5504048Y-11496524D01*
X5494524Y-11515571D01*
X5494524Y-11563190D01*
X5504048Y-11582238D01*
X5513571Y-11591762D01*
X5532619Y-11601286D01*
X5570714Y-11601286D01*
X5589762Y-11591762D01*
X5599286Y-11582238D01*
X5608809Y-11563190D01*
X5780238Y-11544143D02*
X5780238Y-11677476D01*
X5732619Y-11467952D02*
X5685000Y-11610809D01*
X5808809Y-11610809D01*
X5875476Y-11477476D02*
X5875476Y-11515571D01*
X5951667Y-11477476D02*
X5951667Y-11515571D01*
X6246905Y-11753667D02*
X6237381Y-11744143D01*
X6218333Y-11715571D01*
X6208809Y-11696524D01*
X6199286Y-11667952D01*
X6189762Y-11620333D01*
X6189762Y-11582238D01*
X6199286Y-11534619D01*
X6208809Y-11506048D01*
X6218333Y-11487000D01*
X6237381Y-11458428D01*
X6246905Y-11448905D01*
X6313571Y-11496524D02*
X6323095Y-11487000D01*
X6342143Y-11477476D01*
X6389762Y-11477476D01*
X6408809Y-11487000D01*
X6418333Y-11496524D01*
X6427857Y-11515571D01*
X6427857Y-11534619D01*
X6418333Y-11563190D01*
X6304048Y-11677476D01*
X6427857Y-11677476D01*
X6504048Y-11496524D02*
X6513571Y-11487000D01*
X6532619Y-11477476D01*
X6580238Y-11477476D01*
X6599286Y-11487000D01*
X6608809Y-11496524D01*
X6618333Y-11515571D01*
X6618333Y-11534619D01*
X6608809Y-11563190D01*
X6494524Y-11677476D01*
X6618333Y-11677476D01*
X6856428Y-11677476D02*
X6856428Y-11477476D01*
X6942143Y-11677476D02*
X6942143Y-11572714D01*
X6932619Y-11553667D01*
X6913571Y-11544143D01*
X6885000Y-11544143D01*
X6865952Y-11553667D01*
X6856428Y-11563190D01*
X7065952Y-11677476D02*
X7046905Y-11667952D01*
X7037381Y-11658428D01*
X7027857Y-11639381D01*
X7027857Y-11582238D01*
X7037381Y-11563190D01*
X7046905Y-11553667D01*
X7065952Y-11544143D01*
X7094524Y-11544143D01*
X7113571Y-11553667D01*
X7123095Y-11563190D01*
X7132619Y-11582238D01*
X7132619Y-11639381D01*
X7123095Y-11658428D01*
X7113571Y-11667952D01*
X7094524Y-11677476D01*
X7065952Y-11677476D01*
X7246905Y-11677476D02*
X7227857Y-11667952D01*
X7218333Y-11648905D01*
X7218333Y-11477476D01*
X7399286Y-11667952D02*
X7380238Y-11677476D01*
X7342143Y-11677476D01*
X7323095Y-11667952D01*
X7313571Y-11648905D01*
X7313571Y-11572714D01*
X7323095Y-11553667D01*
X7342143Y-11544143D01*
X7380238Y-11544143D01*
X7399286Y-11553667D01*
X7408809Y-11572714D01*
X7408809Y-11591762D01*
X7313571Y-11610809D01*
X7485000Y-11667952D02*
X7504048Y-11677476D01*
X7542143Y-11677476D01*
X7561190Y-11667952D01*
X7570714Y-11648905D01*
X7570714Y-11639381D01*
X7561190Y-11620333D01*
X7542143Y-11610809D01*
X7513571Y-11610809D01*
X7494524Y-11601286D01*
X7485000Y-11582238D01*
X7485000Y-11572714D01*
X7494524Y-11553667D01*
X7513571Y-11544143D01*
X7542143Y-11544143D01*
X7561190Y-11553667D01*
X7808809Y-11601286D02*
X7961190Y-11601286D01*
X7885000Y-11677476D02*
X7885000Y-11525095D01*
X8199286Y-11496524D02*
X8208809Y-11487000D01*
X8227857Y-11477476D01*
X8275476Y-11477476D01*
X8294524Y-11487000D01*
X8304048Y-11496524D01*
X8313571Y-11515571D01*
X8313571Y-11534619D01*
X8304048Y-11563190D01*
X8189762Y-11677476D01*
X8313571Y-11677476D01*
X8542143Y-11667952D02*
X8561190Y-11677476D01*
X8599286Y-11677476D01*
X8618333Y-11667952D01*
X8627857Y-11648905D01*
X8627857Y-11639381D01*
X8618333Y-11620333D01*
X8599286Y-11610809D01*
X8570714Y-11610809D01*
X8551667Y-11601286D01*
X8542143Y-11582238D01*
X8542143Y-11572714D01*
X8551667Y-11553667D01*
X8570714Y-11544143D01*
X8599286Y-11544143D01*
X8618333Y-11553667D01*
X8742143Y-11677476D02*
X8723095Y-11667952D01*
X8713571Y-11648905D01*
X8713571Y-11477476D01*
X8846905Y-11677476D02*
X8827857Y-11667952D01*
X8818333Y-11658428D01*
X8808810Y-11639381D01*
X8808810Y-11582238D01*
X8818333Y-11563190D01*
X8827857Y-11553667D01*
X8846905Y-11544143D01*
X8875476Y-11544143D01*
X8894524Y-11553667D01*
X8904048Y-11563190D01*
X8913571Y-11582238D01*
X8913571Y-11639381D01*
X8904048Y-11658428D01*
X8894524Y-11667952D01*
X8875476Y-11677476D01*
X8846905Y-11677476D01*
X8970714Y-11544143D02*
X9046905Y-11544143D01*
X8999286Y-11477476D02*
X8999286Y-11648905D01*
X9008810Y-11667952D01*
X9027857Y-11677476D01*
X9046905Y-11677476D01*
X9104048Y-11667952D02*
X9123095Y-11677476D01*
X9161190Y-11677476D01*
X9180238Y-11667952D01*
X9189762Y-11648905D01*
X9189762Y-11639381D01*
X9180238Y-11620333D01*
X9161190Y-11610809D01*
X9132619Y-11610809D01*
X9113571Y-11601286D01*
X9104048Y-11582238D01*
X9104048Y-11572714D01*
X9113571Y-11553667D01*
X9132619Y-11544143D01*
X9161190Y-11544143D01*
X9180238Y-11553667D01*
X9256429Y-11753667D02*
X9265952Y-11744143D01*
X9285000Y-11715571D01*
X9294524Y-11696524D01*
X9304048Y-11667952D01*
X9313571Y-11620333D01*
X9313571Y-11582238D01*
X9304048Y-11534619D01*
X9294524Y-11506048D01*
X9285000Y-11487000D01*
X9265952Y-11458428D01*
X9256429Y-11448905D01*
D16*
X2615000Y-11911000D02*
X2675000Y-11851000D01*
X2615000Y-11791000D01*
X2555000Y-11851000D01*
X2615000Y-11911000D01*
D11*
X3037381Y-11941476D02*
X2923095Y-11941476D01*
X2980238Y-11941476D02*
X2980238Y-11741476D01*
X2961190Y-11770048D01*
X2942143Y-11789095D01*
X2923095Y-11798619D01*
X3123095Y-11922428D02*
X3132619Y-11931952D01*
X3123095Y-11941476D01*
X3113571Y-11931952D01*
X3123095Y-11922428D01*
X3123095Y-11941476D01*
X3208809Y-11760524D02*
X3218333Y-11751000D01*
X3237381Y-11741476D01*
X3285000Y-11741476D01*
X3304048Y-11751000D01*
X3313571Y-11760524D01*
X3323095Y-11779571D01*
X3323095Y-11798619D01*
X3313571Y-11827190D01*
X3199286Y-11941476D01*
X3323095Y-11941476D01*
X3446905Y-11741476D02*
X3465952Y-11741476D01*
X3485000Y-11751000D01*
X3494524Y-11760524D01*
X3504048Y-11779571D01*
X3513571Y-11817667D01*
X3513571Y-11865286D01*
X3504048Y-11903381D01*
X3494524Y-11922428D01*
X3485000Y-11931952D01*
X3465952Y-11941476D01*
X3446905Y-11941476D01*
X3427857Y-11931952D01*
X3418333Y-11922428D01*
X3408809Y-11903381D01*
X3399286Y-11865286D01*
X3399286Y-11817667D01*
X3408809Y-11779571D01*
X3418333Y-11760524D01*
X3427857Y-11751000D01*
X3446905Y-11741476D01*
X3637381Y-11741476D02*
X3656428Y-11741476D01*
X3675476Y-11751000D01*
X3685000Y-11760524D01*
X3694524Y-11779571D01*
X3704048Y-11817667D01*
X3704048Y-11865286D01*
X3694524Y-11903381D01*
X3685000Y-11922428D01*
X3675476Y-11931952D01*
X3656428Y-11941476D01*
X3637381Y-11941476D01*
X3618333Y-11931952D01*
X3608809Y-11922428D01*
X3599286Y-11903381D01*
X3589762Y-11865286D01*
X3589762Y-11817667D01*
X3599286Y-11779571D01*
X3608809Y-11760524D01*
X3618333Y-11751000D01*
X3637381Y-11741476D01*
X3789762Y-11941476D02*
X3789762Y-11808143D01*
X3789762Y-11827190D02*
X3799286Y-11817667D01*
X3818333Y-11808143D01*
X3846905Y-11808143D01*
X3865952Y-11817667D01*
X3875476Y-11836714D01*
X3875476Y-11941476D01*
X3875476Y-11836714D02*
X3885000Y-11817667D01*
X3904048Y-11808143D01*
X3932619Y-11808143D01*
X3951667Y-11817667D01*
X3961190Y-11836714D01*
X3961190Y-11941476D01*
X4056428Y-11941476D02*
X4056428Y-11808143D01*
X4056428Y-11827190D02*
X4065952Y-11817667D01*
X4085000Y-11808143D01*
X4113571Y-11808143D01*
X4132619Y-11817667D01*
X4142143Y-11836714D01*
X4142143Y-11941476D01*
X4142143Y-11836714D02*
X4151667Y-11817667D01*
X4170714Y-11808143D01*
X4199286Y-11808143D01*
X4218333Y-11817667D01*
X4227857Y-11836714D01*
X4227857Y-11941476D01*
X4618333Y-11731952D02*
X4446905Y-11989095D01*
X4875476Y-11741476D02*
X4894524Y-11741476D01*
X4913571Y-11751000D01*
X4923095Y-11760524D01*
X4932619Y-11779571D01*
X4942143Y-11817667D01*
X4942143Y-11865286D01*
X4932619Y-11903381D01*
X4923095Y-11922428D01*
X4913571Y-11931952D01*
X4894524Y-11941476D01*
X4875476Y-11941476D01*
X4856429Y-11931952D01*
X4846905Y-11922428D01*
X4837381Y-11903381D01*
X4827857Y-11865286D01*
X4827857Y-11817667D01*
X4837381Y-11779571D01*
X4846905Y-11760524D01*
X4856429Y-11751000D01*
X4875476Y-11741476D01*
X5027857Y-11922428D02*
X5037381Y-11931952D01*
X5027857Y-11941476D01*
X5018333Y-11931952D01*
X5027857Y-11922428D01*
X5027857Y-11941476D01*
X5161190Y-11741476D02*
X5180238Y-11741476D01*
X5199286Y-11751000D01*
X5208810Y-11760524D01*
X5218333Y-11779571D01*
X5227857Y-11817667D01*
X5227857Y-11865286D01*
X5218333Y-11903381D01*
X5208810Y-11922428D01*
X5199286Y-11931952D01*
X5180238Y-11941476D01*
X5161190Y-11941476D01*
X5142143Y-11931952D01*
X5132619Y-11922428D01*
X5123095Y-11903381D01*
X5113571Y-11865286D01*
X5113571Y-11817667D01*
X5123095Y-11779571D01*
X5132619Y-11760524D01*
X5142143Y-11751000D01*
X5161190Y-11741476D01*
X5399286Y-11808143D02*
X5399286Y-11941476D01*
X5351667Y-11731952D02*
X5304048Y-11874809D01*
X5427857Y-11874809D01*
X5485000Y-11741476D02*
X5618333Y-11741476D01*
X5532619Y-11941476D01*
X5685000Y-11760524D02*
X5694524Y-11751000D01*
X5713571Y-11741476D01*
X5761190Y-11741476D01*
X5780238Y-11751000D01*
X5789762Y-11760524D01*
X5799286Y-11779571D01*
X5799286Y-11798619D01*
X5789762Y-11827190D01*
X5675476Y-11941476D01*
X5799286Y-11941476D01*
X5875476Y-11741476D02*
X5875476Y-11779571D01*
X5951667Y-11741476D02*
X5951667Y-11779571D01*
X6246905Y-12017667D02*
X6237381Y-12008143D01*
X6218333Y-11979571D01*
X6208809Y-11960524D01*
X6199286Y-11931952D01*
X6189762Y-11884333D01*
X6189762Y-11846238D01*
X6199286Y-11798619D01*
X6208809Y-11770048D01*
X6218333Y-11751000D01*
X6237381Y-11722428D01*
X6246905Y-11712905D01*
X6313571Y-11760524D02*
X6323095Y-11751000D01*
X6342143Y-11741476D01*
X6389762Y-11741476D01*
X6408809Y-11751000D01*
X6418333Y-11760524D01*
X6427857Y-11779571D01*
X6427857Y-11798619D01*
X6418333Y-11827190D01*
X6304048Y-11941476D01*
X6427857Y-11941476D01*
X6665952Y-11941476D02*
X6665952Y-11741476D01*
X6751667Y-11941476D02*
X6751667Y-11836714D01*
X6742143Y-11817667D01*
X6723095Y-11808143D01*
X6694524Y-11808143D01*
X6675476Y-11817667D01*
X6665952Y-11827190D01*
X6875476Y-11941476D02*
X6856428Y-11931952D01*
X6846905Y-11922428D01*
X6837381Y-11903381D01*
X6837381Y-11846238D01*
X6846905Y-11827190D01*
X6856428Y-11817667D01*
X6875476Y-11808143D01*
X6904048Y-11808143D01*
X6923095Y-11817667D01*
X6932619Y-11827190D01*
X6942143Y-11846238D01*
X6942143Y-11903381D01*
X6932619Y-11922428D01*
X6923095Y-11931952D01*
X6904048Y-11941476D01*
X6875476Y-11941476D01*
X7056428Y-11941476D02*
X7037381Y-11931952D01*
X7027857Y-11912905D01*
X7027857Y-11741476D01*
X7208809Y-11931952D02*
X7189762Y-11941476D01*
X7151667Y-11941476D01*
X7132619Y-11931952D01*
X7123095Y-11912905D01*
X7123095Y-11836714D01*
X7132619Y-11817667D01*
X7151667Y-11808143D01*
X7189762Y-11808143D01*
X7208809Y-11817667D01*
X7218333Y-11836714D01*
X7218333Y-11855762D01*
X7123095Y-11874809D01*
X7294524Y-11931952D02*
X7313571Y-11941476D01*
X7351667Y-11941476D01*
X7370714Y-11931952D01*
X7380238Y-11912905D01*
X7380238Y-11903381D01*
X7370714Y-11884333D01*
X7351667Y-11874809D01*
X7323095Y-11874809D01*
X7304048Y-11865286D01*
X7294524Y-11846238D01*
X7294524Y-11836714D01*
X7304048Y-11817667D01*
X7323095Y-11808143D01*
X7351667Y-11808143D01*
X7370714Y-11817667D01*
X7446905Y-12017667D02*
X7456428Y-12008143D01*
X7475476Y-11979571D01*
X7485000Y-11960524D01*
X7494524Y-11931952D01*
X7504048Y-11884333D01*
X7504048Y-11846238D01*
X7494524Y-11798619D01*
X7485000Y-11770048D01*
X7475476Y-11751000D01*
X7456428Y-11722428D01*
X7446905Y-11712905D01*
M02*
