%TF.GenerationSoftware,KiCad,Pcbnew,7.0.2-6a45011f42~172~ubuntu22.04.1*%
%TF.CreationDate,2023-04-30T08:48:56-06:00*%
%TF.ProjectId,fancy-node,66616e63-792d-46e6-9f64-652e6b696361,rev?*%
%TF.SameCoordinates,Original*%
%TF.FileFunction,Copper,L1,Top*%
%TF.FilePolarity,Positive*%
%FSLAX46Y46*%
G04 Gerber Fmt 4.6, Leading zero omitted, Abs format (unit mm)*
G04 Created by KiCad (PCBNEW 7.0.2-6a45011f42~172~ubuntu22.04.1) date 2023-04-30 08:48:56*
%MOMM*%
%LPD*%
G01*
G04 APERTURE LIST*
G04 Aperture macros list*
%AMRoundRect*
0 Rectangle with rounded corners*
0 $1 Rounding radius*
0 $2 $3 $4 $5 $6 $7 $8 $9 X,Y pos of 4 corners*
0 Add a 4 corners polygon primitive as box body*
4,1,4,$2,$3,$4,$5,$6,$7,$8,$9,$2,$3,0*
0 Add four circle primitives for the rounded corners*
1,1,$1+$1,$2,$3*
1,1,$1+$1,$4,$5*
1,1,$1+$1,$6,$7*
1,1,$1+$1,$8,$9*
0 Add four rect primitives between the rounded corners*
20,1,$1+$1,$2,$3,$4,$5,0*
20,1,$1+$1,$4,$5,$6,$7,0*
20,1,$1+$1,$6,$7,$8,$9,0*
20,1,$1+$1,$8,$9,$2,$3,0*%
%AMFreePoly0*
4,1,9,3.862500,-0.866500,0.737500,-0.866500,0.737500,-0.450000,-0.737500,-0.450000,-0.737500,0.450000,0.737500,0.450000,0.737500,0.866500,3.862500,0.866500,3.862500,-0.866500,3.862500,-0.866500,$1*%
G04 Aperture macros list end*
%TA.AperFunction,ComponentPad*%
%ADD10R,1.700000X1.700000*%
%TD*%
%TA.AperFunction,ComponentPad*%
%ADD11O,1.700000X1.700000*%
%TD*%
%TA.AperFunction,SMDPad,CuDef*%
%ADD12RoundRect,0.135000X0.185000X-0.135000X0.185000X0.135000X-0.185000X0.135000X-0.185000X-0.135000X0*%
%TD*%
%TA.AperFunction,SMDPad,CuDef*%
%ADD13R,0.900000X1.250000*%
%TD*%
%TA.AperFunction,SMDPad,CuDef*%
%ADD14RoundRect,0.225000X-0.225000X-0.250000X0.225000X-0.250000X0.225000X0.250000X-0.225000X0.250000X0*%
%TD*%
%TA.AperFunction,SMDPad,CuDef*%
%ADD15RoundRect,0.155000X0.212500X0.155000X-0.212500X0.155000X-0.212500X-0.155000X0.212500X-0.155000X0*%
%TD*%
%TA.AperFunction,SMDPad,CuDef*%
%ADD16RoundRect,0.225000X-0.250000X0.225000X-0.250000X-0.225000X0.250000X-0.225000X0.250000X0.225000X0*%
%TD*%
%TA.AperFunction,SMDPad,CuDef*%
%ADD17RoundRect,0.155000X0.155000X-0.212500X0.155000X0.212500X-0.155000X0.212500X-0.155000X-0.212500X0*%
%TD*%
%TA.AperFunction,SMDPad,CuDef*%
%ADD18RoundRect,0.200000X0.275000X-0.200000X0.275000X0.200000X-0.275000X0.200000X-0.275000X-0.200000X0*%
%TD*%
%TA.AperFunction,SMDPad,CuDef*%
%ADD19R,0.400000X1.350000*%
%TD*%
%TA.AperFunction,ComponentPad*%
%ADD20C,1.408000*%
%TD*%
%TA.AperFunction,SMDPad,CuDef*%
%ADD21R,1.500000X1.550000*%
%TD*%
%TA.AperFunction,ComponentPad*%
%ADD22C,1.800000*%
%TD*%
%TA.AperFunction,SMDPad,CuDef*%
%ADD23RoundRect,0.218750X-0.218750X-0.256250X0.218750X-0.256250X0.218750X0.256250X-0.218750X0.256250X0*%
%TD*%
%TA.AperFunction,SMDPad,CuDef*%
%ADD24RoundRect,0.135000X-0.135000X-0.185000X0.135000X-0.185000X0.135000X0.185000X-0.135000X0.185000X0*%
%TD*%
%TA.AperFunction,SMDPad,CuDef*%
%ADD25R,0.300000X1.400000*%
%TD*%
%TA.AperFunction,SMDPad,CuDef*%
%ADD26RoundRect,0.218750X0.218750X0.256250X-0.218750X0.256250X-0.218750X-0.256250X0.218750X-0.256250X0*%
%TD*%
%TA.AperFunction,SMDPad,CuDef*%
%ADD27R,1.500000X0.900000*%
%TD*%
%TA.AperFunction,SMDPad,CuDef*%
%ADD28RoundRect,0.200000X-0.275000X0.200000X-0.275000X-0.200000X0.275000X-0.200000X0.275000X0.200000X0*%
%TD*%
%TA.AperFunction,SMDPad,CuDef*%
%ADD29RoundRect,0.250000X-0.650000X0.325000X-0.650000X-0.325000X0.650000X-0.325000X0.650000X0.325000X0*%
%TD*%
%TA.AperFunction,SMDPad,CuDef*%
%ADD30RoundRect,0.150000X0.150000X-0.675000X0.150000X0.675000X-0.150000X0.675000X-0.150000X-0.675000X0*%
%TD*%
%TA.AperFunction,SMDPad,CuDef*%
%ADD31R,3.800000X2.700000*%
%TD*%
%TA.AperFunction,SMDPad,CuDef*%
%ADD32RoundRect,0.250000X-1.000000X-0.650000X1.000000X-0.650000X1.000000X0.650000X-1.000000X0.650000X0*%
%TD*%
%TA.AperFunction,SMDPad,CuDef*%
%ADD33RoundRect,0.250000X-0.325000X-0.650000X0.325000X-0.650000X0.325000X0.650000X-0.325000X0.650000X0*%
%TD*%
%TA.AperFunction,SMDPad,CuDef*%
%ADD34RoundRect,0.147500X-0.147500X-0.172500X0.147500X-0.172500X0.147500X0.172500X-0.147500X0.172500X0*%
%TD*%
%TA.AperFunction,SMDPad,CuDef*%
%ADD35RoundRect,0.200000X0.200000X0.275000X-0.200000X0.275000X-0.200000X-0.275000X0.200000X-0.275000X0*%
%TD*%
%TA.AperFunction,SMDPad,CuDef*%
%ADD36RoundRect,0.155000X-0.155000X0.212500X-0.155000X-0.212500X0.155000X-0.212500X0.155000X0.212500X0*%
%TD*%
%TA.AperFunction,SMDPad,CuDef*%
%ADD37RoundRect,0.250000X1.000000X0.900000X-1.000000X0.900000X-1.000000X-0.900000X1.000000X-0.900000X0*%
%TD*%
%TA.AperFunction,SMDPad,CuDef*%
%ADD38RoundRect,0.225000X0.250000X-0.225000X0.250000X0.225000X-0.250000X0.225000X-0.250000X-0.225000X0*%
%TD*%
%TA.AperFunction,SMDPad,CuDef*%
%ADD39RoundRect,0.250000X0.900000X-1.000000X0.900000X1.000000X-0.900000X1.000000X-0.900000X-1.000000X0*%
%TD*%
%TA.AperFunction,SMDPad,CuDef*%
%ADD40RoundRect,0.250000X-1.450000X0.400000X-1.450000X-0.400000X1.450000X-0.400000X1.450000X0.400000X0*%
%TD*%
%TA.AperFunction,SMDPad,CuDef*%
%ADD41R,0.900000X1.300000*%
%TD*%
%TA.AperFunction,SMDPad,CuDef*%
%ADD42FreePoly0,90.000000*%
%TD*%
%TA.AperFunction,SMDPad,CuDef*%
%ADD43R,1.250000X0.900000*%
%TD*%
%TA.AperFunction,SMDPad,CuDef*%
%ADD44RoundRect,0.150000X-0.150000X0.512500X-0.150000X-0.512500X0.150000X-0.512500X0.150000X0.512500X0*%
%TD*%
%TA.AperFunction,SMDPad,CuDef*%
%ADD45RoundRect,0.155000X-0.212500X-0.155000X0.212500X-0.155000X0.212500X0.155000X-0.212500X0.155000X0*%
%TD*%
%TA.AperFunction,SMDPad,CuDef*%
%ADD46RoundRect,0.075000X-0.662500X-0.075000X0.662500X-0.075000X0.662500X0.075000X-0.662500X0.075000X0*%
%TD*%
%TA.AperFunction,SMDPad,CuDef*%
%ADD47RoundRect,0.075000X-0.075000X-0.662500X0.075000X-0.662500X0.075000X0.662500X-0.075000X0.662500X0*%
%TD*%
%TA.AperFunction,ComponentPad*%
%ADD48R,1.800000X1.800000*%
%TD*%
%TA.AperFunction,ComponentPad*%
%ADD49R,1.000000X1.000000*%
%TD*%
%TA.AperFunction,ComponentPad*%
%ADD50C,1.000000*%
%TD*%
%TA.AperFunction,ComponentPad*%
%ADD51C,1.700000*%
%TD*%
%TA.AperFunction,ViaPad*%
%ADD52C,0.600000*%
%TD*%
%TA.AperFunction,ViaPad*%
%ADD53C,1.000000*%
%TD*%
%TA.AperFunction,ViaPad*%
%ADD54C,0.800000*%
%TD*%
%TA.AperFunction,Conductor*%
%ADD55C,0.150000*%
%TD*%
%TA.AperFunction,Conductor*%
%ADD56C,0.250000*%
%TD*%
%TA.AperFunction,Conductor*%
%ADD57C,0.500000*%
%TD*%
%TA.AperFunction,Conductor*%
%ADD58C,0.200000*%
%TD*%
%TA.AperFunction,Conductor*%
%ADD59C,1.000000*%
%TD*%
%TA.AperFunction,Conductor*%
%ADD60C,0.750000*%
%TD*%
G04 APERTURE END LIST*
D10*
%TO.P,J2,1,Pin_1*%
%TO.N,GND*%
X85080000Y-87900000D03*
D11*
%TO.P,J2,2,Pin_2*%
%TO.N,VCC*%
X87620000Y-87900000D03*
%TO.P,J2,3,Pin_3*%
%TO.N,+BATT*%
X90160000Y-87900000D03*
%TO.P,J2,4,Pin_4*%
%TO.N,Net-(J2-Pin_4)*%
X92700000Y-87900000D03*
%TO.P,J2,5,Pin_5*%
%TO.N,Net-(J2-Pin_5)*%
X95240000Y-87900000D03*
%TO.P,J2,6,Pin_6*%
%TO.N,Net-(J2-Pin_6)*%
X97780000Y-87900000D03*
%TD*%
D12*
%TO.P,R2,1*%
%TO.N,Net-(U2-PB1)*%
X79000000Y-90610000D03*
%TO.P,R2,2*%
%TO.N,Net-(R2-Pad2)*%
X79000000Y-89590000D03*
%TD*%
D13*
%TO.P,SW2,1,1*%
%TO.N,Net-(R3-Pad2)*%
X65400000Y-90825000D03*
X65400000Y-86975000D03*
%TO.P,SW2,2,2*%
%TO.N,GND*%
X66900000Y-90825000D03*
X66900000Y-86975000D03*
%TD*%
D12*
%TO.P,R15,1*%
%TO.N,VBUS*%
X79900000Y-104120000D03*
%TO.P,R15,2*%
%TO.N,Net-(U6-CE)*%
X79900000Y-103100000D03*
%TD*%
D14*
%TO.P,C8,1*%
%TO.N,GND*%
X64225000Y-102350000D03*
%TO.P,C8,2*%
%TO.N,+BATT*%
X65775000Y-102350000D03*
%TD*%
D15*
%TO.P,C1,1*%
%TO.N,GND*%
X74767500Y-103300000D03*
%TO.P,C1,2*%
%TO.N,VCC*%
X73632500Y-103300000D03*
%TD*%
D16*
%TO.P,C11,1*%
%TO.N,GND*%
X57500000Y-102975000D03*
%TO.P,C11,2*%
%TO.N,/BATT_DIRECT*%
X57500000Y-104525000D03*
%TD*%
D17*
%TO.P,C9,1*%
%TO.N,/VBATT_DIV*%
X65400000Y-105300000D03*
%TO.P,C9,2*%
%TO.N,GND*%
X65400000Y-104165000D03*
%TD*%
D18*
%TO.P,R11,1*%
%TO.N,/VBATT_DIV*%
X64000000Y-105475000D03*
%TO.P,R11,2*%
%TO.N,GND*%
X64000000Y-103825000D03*
%TD*%
D19*
%TO.P,J1,1,VBUS*%
%TO.N,VBUS*%
X73750000Y-112425000D03*
%TO.P,J1,2,D-*%
%TO.N,/USB-*%
X74400000Y-112425000D03*
%TO.P,J1,3,D+*%
%TO.N,/USB+*%
X75050000Y-112425000D03*
%TO.P,J1,4,ID*%
%TO.N,unconnected-(J1-ID-Pad4)*%
X75700000Y-112425000D03*
%TO.P,J1,5,GND*%
%TO.N,GND*%
X76350000Y-112425000D03*
D20*
%TO.P,J1,P$6*%
%TO.N,N/C*%
X72550000Y-112400000D03*
%TO.P,J1,P$7*%
X77550000Y-112400000D03*
D21*
%TO.P,J1,P$10*%
X74050000Y-115100000D03*
%TO.P,J1,P$11*%
X76050000Y-115100000D03*
D22*
%TO.P,J1,P$12*%
X71550000Y-115100000D03*
D21*
X72000000Y-115100000D03*
%TO.P,J1,P$13*%
X78100000Y-115100000D03*
D22*
X78550000Y-115100000D03*
%TD*%
D23*
%TO.P,D6,1,K*%
%TO.N,Net-(D6-K)*%
X78125000Y-105500000D03*
%TO.P,D6,2,A*%
%TO.N,VBUS*%
X79700000Y-105500000D03*
%TD*%
D24*
%TO.P,R6,1*%
%TO.N,/AUX1*%
X83780000Y-90300000D03*
%TO.P,R6,2*%
%TO.N,Net-(J2-Pin_5)*%
X84800000Y-90300000D03*
%TD*%
D25*
%TO.P,U1,1,UD+*%
%TO.N,/USB+*%
X73600000Y-109200000D03*
%TO.P,U1,2,UD-*%
%TO.N,/USB-*%
X74100000Y-109200000D03*
%TO.P,U1,3,GND*%
%TO.N,GND*%
X74600000Y-109200000D03*
%TO.P,U1,4,~{RTS}*%
%TO.N,Net-(U1-~{RTS})*%
X75100000Y-109200000D03*
%TO.P,U1,5,~{CTS}*%
%TO.N,Net-(U1-~{CTS})*%
X75600000Y-109200000D03*
%TO.P,U1,6,TNOW/~{DTR}*%
%TO.N,/~{DTR}*%
X75600000Y-104800000D03*
%TO.P,U1,7,VCC*%
%TO.N,VCC*%
X75100000Y-104800000D03*
%TO.P,U1,8,TXD*%
%TO.N,/USART_RX*%
X74600000Y-104800000D03*
%TO.P,U1,9,RXD*%
%TO.N,/USART_TX*%
X74100000Y-104800000D03*
%TO.P,U1,10,V3*%
%TO.N,VCC*%
X73600000Y-104800000D03*
%TD*%
D26*
%TO.P,D1,1,K*%
%TO.N,Net-(D1-K)*%
X83900000Y-102400000D03*
%TO.P,D1,2,A*%
%TO.N,Net-(D1-A)*%
X82325000Y-102400000D03*
%TD*%
D27*
%TO.P,U3,1,VDD*%
%TO.N,+BATT*%
X71400000Y-87450000D03*
%TO.P,U3,2,DOUT*%
%TO.N,Net-(U3-DOUT)*%
X71400000Y-90750000D03*
%TO.P,U3,3,GND*%
%TO.N,GND*%
X76300000Y-90750000D03*
%TO.P,U3,4,DIN*%
%TO.N,/INTERNAL_LED*%
X76300000Y-87450000D03*
%TD*%
D28*
%TO.P,R10,1*%
%TO.N,+BATT*%
X67200000Y-103850000D03*
%TO.P,R10,2*%
%TO.N,/VBATT_DIV*%
X67200000Y-105500000D03*
%TD*%
D29*
%TO.P,C14,1*%
%TO.N,GND*%
X65800000Y-107300000D03*
%TO.P,C14,2*%
%TO.N,+BATT*%
X65800000Y-110250000D03*
%TD*%
D12*
%TO.P,R1,1*%
%TO.N,Net-(D1-K)*%
X83900000Y-101100000D03*
%TO.P,R1,2*%
%TO.N,GND*%
X83900000Y-100080000D03*
%TD*%
D30*
%TO.P,U6,1,TEMP*%
%TO.N,GND*%
X81290000Y-109600000D03*
%TO.P,U6,2,PROG*%
%TO.N,Net-(U6-PROG)*%
X82560000Y-109600000D03*
%TO.P,U6,3,GND*%
%TO.N,GND*%
X83830000Y-109600000D03*
%TO.P,U6,4,VCC*%
%TO.N,VBUS*%
X85100000Y-109600000D03*
%TO.P,U6,5,BAT*%
%TO.N,/BATT_DIRECT*%
X85100000Y-104350000D03*
%TO.P,U6,6,~{STDBY}*%
%TO.N,/~{STDBY}*%
X83830000Y-104350000D03*
%TO.P,U6,7,~{CHRG}*%
%TO.N,/~{CHRG}*%
X82560000Y-104350000D03*
%TO.P,U6,8,CE*%
%TO.N,Net-(U6-CE)*%
X81290000Y-104350000D03*
D31*
%TO.P,U6,~*%
%TO.N,N/C*%
X83195000Y-106975000D03*
%TD*%
D32*
%TO.P,D8,1,K*%
%TO.N,/BATT_DIRECT*%
X59000000Y-109700000D03*
%TO.P,D8,2,A*%
%TO.N,GND*%
X63000000Y-109700000D03*
%TD*%
D33*
%TO.P,C10,1*%
%TO.N,GND*%
X65250000Y-93500000D03*
%TO.P,C10,2*%
%TO.N,VCC*%
X68200000Y-93500000D03*
%TD*%
D14*
%TO.P,C18,1*%
%TO.N,GND*%
X84050000Y-111600000D03*
%TO.P,C18,2*%
%TO.N,VBUS*%
X85600000Y-111600000D03*
%TD*%
D34*
%TO.P,L1,1,1*%
%TO.N,Net-(JP2-A)*%
X91700000Y-90200000D03*
%TO.P,L1,2,2*%
%TO.N,/ANTENNA*%
X92670000Y-90200000D03*
%TD*%
D35*
%TO.P,R14,1*%
%TO.N,Net-(U6-PROG)*%
X82500000Y-111600000D03*
%TO.P,R14,2*%
%TO.N,GND*%
X80850000Y-111600000D03*
%TD*%
D36*
%TO.P,C17,1*%
%TO.N,/ANTENNA*%
X93700000Y-90665000D03*
%TO.P,C17,2*%
%TO.N,GND*%
X93700000Y-91800000D03*
%TD*%
D12*
%TO.P,R8,1*%
%TO.N,Net-(U1-~{CTS})*%
X77100000Y-109620000D03*
%TO.P,R8,2*%
%TO.N,/~{DTR}*%
X77100000Y-108600000D03*
%TD*%
D37*
%TO.P,D5,1,A1*%
%TO.N,VCC*%
X61500000Y-97900000D03*
%TO.P,D5,2,A2*%
%TO.N,GND*%
X57200000Y-97900000D03*
%TD*%
D24*
%TO.P,R13,1*%
%TO.N,Net-(D7-K)*%
X78090000Y-108700000D03*
%TO.P,R13,2*%
%TO.N,/~{CHRG}*%
X79110000Y-108700000D03*
%TD*%
D16*
%TO.P,C4,1*%
%TO.N,VCC*%
X70900000Y-97350000D03*
%TO.P,C4,2*%
%TO.N,GND*%
X70900000Y-98900000D03*
%TD*%
%TO.P,C6,1*%
%TO.N,GND*%
X60200000Y-90175000D03*
%TO.P,C6,2*%
%TO.N,+BATT*%
X60200000Y-91725000D03*
%TD*%
D14*
%TO.P,C12,1*%
%TO.N,GND*%
X66150000Y-95600000D03*
%TO.P,C12,2*%
%TO.N,VCC*%
X67700000Y-95600000D03*
%TD*%
D17*
%TO.P,C13,1*%
%TO.N,VCC*%
X69000000Y-100700000D03*
%TO.P,C13,2*%
%TO.N,GND*%
X69000000Y-99565000D03*
%TD*%
D38*
%TO.P,C16,1*%
%TO.N,GND*%
X85000000Y-93875000D03*
%TO.P,C16,2*%
%TO.N,VCC*%
X85000000Y-92325000D03*
%TD*%
D39*
%TO.P,D4,1,A1*%
%TO.N,+BATT*%
X70300000Y-107450000D03*
%TO.P,D4,2,A2*%
%TO.N,GND*%
X70300000Y-103150000D03*
%TD*%
D40*
%TO.P,TH1,1*%
%TO.N,/BATT_DIRECT*%
X54900000Y-110975000D03*
%TO.P,TH1,2*%
%TO.N,Net-(J4-Pin_1)*%
X54900000Y-115425000D03*
%TD*%
D12*
%TO.P,R3,1*%
%TO.N,Net-(U2-PB2)*%
X69900000Y-92900000D03*
%TO.P,R3,2*%
%TO.N,Net-(R3-Pad2)*%
X69900000Y-91880000D03*
%TD*%
%TO.P,R4,1*%
%TO.N,/DIO0*%
X85000000Y-99910000D03*
%TO.P,R4,2*%
%TO.N,Net-(U2-PA8)*%
X85000000Y-98890000D03*
%TD*%
D23*
%TO.P,D7,1,K*%
%TO.N,Net-(D7-K)*%
X78125000Y-107200000D03*
%TO.P,D7,2,A*%
%TO.N,VBUS*%
X79700000Y-107200000D03*
%TD*%
D41*
%TO.P,U4,1,GND*%
%TO.N,GND*%
X64400000Y-100600000D03*
D42*
%TO.P,U4,2,VIN*%
%TO.N,+BATT*%
X65900000Y-100512500D03*
D41*
%TO.P,U4,3,VOUT*%
%TO.N,VCC*%
X67400000Y-100600000D03*
%TD*%
D43*
%TO.P,SW3,1,1*%
%TO.N,Net-(U2-NRST)*%
X88025000Y-97350000D03*
X84175000Y-97350000D03*
%TO.P,SW3,2,2*%
%TO.N,GND*%
X88025000Y-95850000D03*
X84175000Y-95850000D03*
%TD*%
D44*
%TO.P,D2,1,IO1*%
%TO.N,/USB+*%
X70300000Y-110100000D03*
%TO.P,D2,2,GND*%
%TO.N,GND*%
X69350000Y-110100000D03*
%TO.P,D2,3,IO2*%
%TO.N,/USB-*%
X68400000Y-110100000D03*
%TO.P,D2,4,IO3*%
%TO.N,unconnected-(D2-IO3-Pad4)*%
X68400000Y-112375000D03*
%TO.P,D2,5,REF*%
%TO.N,VBUS*%
X69350000Y-112375000D03*
%TO.P,D2,6,IO4*%
%TO.N,/EXTERNAL_LED*%
X70300000Y-112375000D03*
%TD*%
D24*
%TO.P,R7,1*%
%TO.N,/AUX2*%
X85780000Y-90300000D03*
%TO.P,R7,2*%
%TO.N,Net-(J2-Pin_6)*%
X86800000Y-90300000D03*
%TD*%
D45*
%TO.P,C2,1*%
%TO.N,GND*%
X71032500Y-96050000D03*
%TO.P,C2,2*%
%TO.N,VCC*%
X72167500Y-96050000D03*
%TD*%
D13*
%TO.P,SW1,1,1*%
%TO.N,Net-(R2-Pad2)*%
X80600000Y-90900000D03*
X80600000Y-87050000D03*
%TO.P,SW1,2,2*%
%TO.N,GND*%
X82100000Y-90900000D03*
X82100000Y-87050000D03*
%TD*%
D46*
%TO.P,U2,1,PC13*%
%TO.N,unconnected-(U2-PC13-Pad1)*%
X73737500Y-94500000D03*
%TO.P,U2,2,PC14-OSC32_IN*%
%TO.N,unconnected-(U2-PC14-OSC32_IN-Pad2)*%
X73737500Y-95000000D03*
%TO.P,U2,3,PC15-OSC32_OUT*%
%TO.N,unconnected-(U2-PC15-OSC32_OUT-Pad3)*%
X73737500Y-95500000D03*
%TO.P,U2,4,VBAT*%
%TO.N,unconnected-(U2-VBAT-Pad4)*%
X73737500Y-96000000D03*
%TO.P,U2,5,VREF+*%
%TO.N,VCC*%
X73737500Y-96500000D03*
%TO.P,U2,6,VDD/VDDA*%
X73737500Y-97000000D03*
%TO.P,U2,7,VSS/VSSA*%
%TO.N,GND*%
X73737500Y-97500000D03*
%TO.P,U2,8,PF0-OSC_IN*%
%TO.N,unconnected-(U2-PF0-OSC_IN-Pad8)*%
X73737500Y-98000000D03*
%TO.P,U2,9,PF1-OSC_OUT*%
%TO.N,unconnected-(U2-PF1-OSC_OUT-Pad9)*%
X73737500Y-98500000D03*
%TO.P,U2,10,NRST*%
%TO.N,Net-(U2-NRST)*%
X73737500Y-99000000D03*
%TO.P,U2,11,PA0*%
%TO.N,/AUX2*%
X73737500Y-99500000D03*
%TO.P,U2,12,PA1*%
%TO.N,/VBATT_DIV*%
X73737500Y-100000000D03*
D47*
%TO.P,U2,13,PA2*%
%TO.N,/USART_TX*%
X75150000Y-101412500D03*
%TO.P,U2,14,PA3*%
%TO.N,/USART_RX*%
X75650000Y-101412500D03*
%TO.P,U2,15,PA4*%
%TO.N,/NSS*%
X76150000Y-101412500D03*
%TO.P,U2,16,PA5*%
%TO.N,/SCK*%
X76650000Y-101412500D03*
%TO.P,U2,17,PA6*%
%TO.N,/MISO*%
X77150000Y-101412500D03*
%TO.P,U2,18,PA7*%
%TO.N,/MOSI*%
X77650000Y-101412500D03*
%TO.P,U2,19,PB0*%
%TO.N,Net-(D1-A)*%
X78150000Y-101412500D03*
%TO.P,U2,20,PB1*%
%TO.N,Net-(U2-PB1)*%
X78650000Y-101412500D03*
%TO.P,U2,21,PB2*%
%TO.N,Net-(U2-PB2)*%
X79150000Y-101412500D03*
%TO.P,U2,22,PB10*%
%TO.N,unconnected-(U2-PB10-Pad22)*%
X79650000Y-101412500D03*
%TO.P,U2,23,PB11*%
%TO.N,unconnected-(U2-PB11-Pad23)*%
X80150000Y-101412500D03*
%TO.P,U2,24,PB12*%
%TO.N,unconnected-(U2-PB12-Pad24)*%
X80650000Y-101412500D03*
D46*
%TO.P,U2,25,PB13*%
%TO.N,unconnected-(U2-PB13-Pad25)*%
X82062500Y-100000000D03*
%TO.P,U2,26,PB14*%
%TO.N,unconnected-(U2-PB14-Pad26)*%
X82062500Y-99500000D03*
%TO.P,U2,27,PB15*%
%TO.N,unconnected-(U2-PB15-Pad27)*%
X82062500Y-99000000D03*
%TO.P,U2,28,PA8*%
%TO.N,Net-(U2-PA8)*%
X82062500Y-98500000D03*
%TO.P,U2,29,PA9*%
%TO.N,unconnected-(U2-PA9-Pad29)*%
X82062500Y-98000000D03*
%TO.P,U2,30,PC6*%
%TO.N,unconnected-(U2-PC6-Pad30)*%
X82062500Y-97500000D03*
%TO.P,U2,31,PC7*%
%TO.N,unconnected-(U2-PC7-Pad31)*%
X82062500Y-97000000D03*
%TO.P,U2,32,PA10*%
%TO.N,/INTERNAL_LED*%
X82062500Y-96500000D03*
%TO.P,U2,33,PA11*%
%TO.N,unconnected-(U2-PA11-Pad33)*%
X82062500Y-96000000D03*
%TO.P,U2,34,PA12*%
%TO.N,unconnected-(U2-PA12-Pad34)*%
X82062500Y-95500000D03*
%TO.P,U2,35,PA13*%
%TO.N,/SWDIO*%
X82062500Y-95000000D03*
%TO.P,U2,36,PA14-BOOT0*%
%TO.N,/BOOT0*%
X82062500Y-94500000D03*
D47*
%TO.P,U2,37,PA15*%
%TO.N,unconnected-(U2-PA15-Pad37)*%
X80650000Y-93087500D03*
%TO.P,U2,38,PD0*%
%TO.N,unconnected-(U2-PD0-Pad38)*%
X80150000Y-93087500D03*
%TO.P,U2,39,PD1*%
%TO.N,unconnected-(U2-PD1-Pad39)*%
X79650000Y-93087500D03*
%TO.P,U2,40,PD2*%
%TO.N,unconnected-(U2-PD2-Pad40)*%
X79150000Y-93087500D03*
%TO.P,U2,41,PD3*%
%TO.N,unconnected-(U2-PD3-Pad41)*%
X78650000Y-93087500D03*
%TO.P,U2,42,PB3*%
%TO.N,unconnected-(U2-PB3-Pad42)*%
X78150000Y-93087500D03*
%TO.P,U2,43,PB4*%
%TO.N,unconnected-(U2-PB4-Pad43)*%
X77650000Y-93087500D03*
%TO.P,U2,44,PB5*%
%TO.N,unconnected-(U2-PB5-Pad44)*%
X77150000Y-93087500D03*
%TO.P,U2,45,PB6*%
%TO.N,/AUX0*%
X76650000Y-93087500D03*
%TO.P,U2,46,PB7*%
%TO.N,/AUX1*%
X76150000Y-93087500D03*
%TO.P,U2,47,PB8*%
%TO.N,unconnected-(U2-PB8-Pad47)*%
X75650000Y-93087500D03*
%TO.P,U2,48,PB9*%
%TO.N,unconnected-(U2-PB9-Pad48)*%
X75150000Y-93087500D03*
%TD*%
D24*
%TO.P,R9,1*%
%TO.N,/EXTERNAL_LED*%
X68780000Y-90700000D03*
%TO.P,R9,2*%
%TO.N,Net-(U3-DOUT)*%
X69800000Y-90700000D03*
%TD*%
D10*
%TO.P,J5,1,Pin_1*%
%TO.N,VCC*%
X81820000Y-114500000D03*
D11*
%TO.P,J5,2,Pin_2*%
%TO.N,GND*%
X84360000Y-114500000D03*
%TO.P,J5,3,Pin_3*%
%TO.N,/SWDIO*%
X86900000Y-114500000D03*
%TO.P,J5,4,Pin_4*%
%TO.N,/BOOT0*%
X89440000Y-114500000D03*
%TD*%
D24*
%TO.P,R5,1*%
%TO.N,/AUX0*%
X82380000Y-92500000D03*
%TO.P,R5,2*%
%TO.N,Net-(J2-Pin_4)*%
X83400000Y-92500000D03*
%TD*%
D17*
%TO.P,C3,1*%
%TO.N,GND*%
X72200000Y-98250000D03*
%TO.P,C3,2*%
%TO.N,VCC*%
X72200000Y-97115000D03*
%TD*%
D24*
%TO.P,R16,2*%
%TO.N,/BOOT0*%
X79110000Y-109800000D03*
%TO.P,R16,1*%
%TO.N,Net-(U1-~{RTS})*%
X78090000Y-109800000D03*
%TD*%
D12*
%TO.P,R12,1*%
%TO.N,Net-(D6-K)*%
X78100000Y-104120000D03*
%TO.P,R12,2*%
%TO.N,/~{STDBY}*%
X78100000Y-103100000D03*
%TD*%
D39*
%TO.P,D3,1,A1*%
%TO.N,/BATT_DIRECT*%
X60600000Y-106300000D03*
%TO.P,D3,2,A2*%
%TO.N,GND*%
X60600000Y-102000000D03*
%TD*%
D17*
%TO.P,C5,1*%
%TO.N,/~{DTR}*%
X72200000Y-100485000D03*
%TO.P,C5,2*%
%TO.N,Net-(U2-NRST)*%
X72200000Y-99350000D03*
%TD*%
D48*
%TO.P,SW4,1,A*%
%TO.N,unconnected-(SW4-A-Pad1)*%
X59750000Y-112862500D03*
D22*
%TO.P,SW4,2,B*%
%TO.N,/BATT_DIRECT*%
X62300000Y-112862500D03*
%TO.P,SW4,3,C*%
%TO.N,+BATT*%
X64850000Y-112862500D03*
%TD*%
D36*
%TO.P,C15,1*%
%TO.N,VCC*%
X86300000Y-92407500D03*
%TO.P,C15,2*%
%TO.N,GND*%
X86300000Y-93542500D03*
%TD*%
D17*
%TO.P,C7,1*%
%TO.N,GND*%
X69800000Y-88535000D03*
%TO.P,C7,2*%
%TO.N,+BATT*%
X69800000Y-87400000D03*
%TD*%
D10*
%TO.P,J3,1,Pin_1*%
%TO.N,GND*%
X62175000Y-88395000D03*
D11*
%TO.P,J3,2,Pin_2*%
%TO.N,/EXTERNAL_LED*%
X62175000Y-90935000D03*
%TO.P,J3,3,Pin_3*%
%TO.N,+BATT*%
X62175000Y-93475000D03*
%TD*%
D49*
%TO.P,J6,1,Pin_1*%
%TO.N,GND*%
X54200000Y-99900000D03*
D50*
%TO.P,J6,2,Pin_2*%
%TO.N,Net-(J4-Pin_1)*%
X54200000Y-98650000D03*
%TD*%
D10*
%TO.P,J4,1,Pin_1*%
%TO.N,Net-(J4-Pin_1)*%
X55000000Y-108740000D03*
D51*
%TO.P,J4,2,Pin_2*%
%TO.N,GND*%
X55000000Y-106200000D03*
%TO.P,J4,3,Pin_3*%
%TO.N,unconnected-(J4-Pin_3-Pad3)*%
X55000000Y-103660000D03*
%TD*%
D52*
%TO.N,/~{DTR}*%
X72300000Y-107200000D03*
X75398234Y-107049000D03*
%TO.N,GND*%
X70200000Y-96000000D03*
X71082500Y-89817500D03*
D53*
X94000000Y-112700000D03*
X91400000Y-102600000D03*
D52*
X73813336Y-91144907D03*
X66900000Y-88800000D03*
X71458866Y-99710378D03*
X92700000Y-95000000D03*
X65200000Y-95700000D03*
D53*
X76700955Y-111070531D03*
X88000000Y-104000000D03*
D52*
X80100000Y-111000000D03*
D53*
X94000000Y-97700000D03*
X89200000Y-112400000D03*
X94000000Y-115700000D03*
X63000000Y-102000000D03*
X88100000Y-106400000D03*
D52*
X83244570Y-110971030D03*
X84900000Y-100700000D03*
D53*
X94000000Y-100700000D03*
X94000000Y-106700000D03*
D52*
X68300000Y-99600000D03*
D53*
X94000000Y-103700000D03*
D52*
X82200000Y-89000000D03*
D53*
X89500000Y-95800000D03*
D54*
X86700000Y-94400000D03*
D53*
X68400000Y-102800000D03*
D52*
X64200000Y-99000000D03*
D53*
X94000000Y-109700000D03*
D52*
X69500000Y-111200000D03*
D53*
%TO.N,VCC*%
X68200000Y-91900000D03*
D54*
X85845592Y-91207779D03*
X69882602Y-98570355D03*
X67400000Y-99000000D03*
D52*
X73800000Y-106000000D03*
D54*
X61600000Y-99700000D03*
D53*
%TO.N,+BATT*%
X71000000Y-88600000D03*
X64200000Y-86700000D03*
%TO.N,/BATT_DIRECT*%
X84995899Y-102948980D03*
X54900000Y-112300000D03*
X61400000Y-104400000D03*
X58300000Y-111512500D03*
D52*
%TO.N,/VBATT_DIV*%
X72620403Y-106475500D03*
X67300000Y-106400000D03*
%TO.N,VBUS*%
X78300000Y-113554000D03*
X85700000Y-112800000D03*
X79686181Y-112786179D03*
%TO.N,Net-(U2-NRST)*%
X74900625Y-96731445D03*
X83300000Y-96700000D03*
%TO.N,Net-(D1-A)*%
X82100000Y-100700000D03*
X78100000Y-100300000D03*
%TO.N,/USB+*%
X70400000Y-111200000D03*
X73730184Y-111174541D03*
X73127708Y-110372292D03*
%TO.N,/USB-*%
X74000000Y-110500000D03*
X68400000Y-109000000D03*
X74501441Y-111470247D03*
%TO.N,/EXTERNAL_LED*%
X68600000Y-89800000D03*
%TO.N,/AUX0*%
X76600000Y-94200000D03*
X82300000Y-93875500D03*
%TO.N,/AUX1*%
X83911399Y-91584492D03*
X76100000Y-91800000D03*
%TO.N,/AUX2*%
X84900000Y-91069500D03*
X74992270Y-91524460D03*
%TO.N,/SWDIO*%
X80851849Y-95105923D03*
X86275500Y-96348430D03*
%TO.N,/BOOT0*%
X86950498Y-95500000D03*
X80600000Y-94400000D03*
X79450000Y-113550000D03*
D54*
%TO.N,Net-(J2-Pin_5)*%
X84800000Y-89400000D03*
D52*
%TO.N,Net-(U2-PB1)*%
X71800000Y-95200000D03*
X78500000Y-95300000D03*
X71900000Y-92000000D03*
X78400000Y-90200000D03*
%TO.N,/~{STDBY}*%
X77320661Y-102805918D03*
X83184948Y-103103735D03*
%TO.N,/~{CHRG}*%
X81997428Y-103323088D03*
X79000000Y-103323088D03*
%TO.N,Net-(U2-PB2)*%
X79100000Y-94600000D03*
X69900000Y-94600000D03*
%TO.N,/USART_RX*%
X77383394Y-104827600D03*
X75275234Y-105980296D03*
%TO.N,/USART_TX*%
X74548648Y-106164218D03*
X77238000Y-105700000D03*
%TO.N,Net-(U2-PA8)*%
X80700000Y-98700000D03*
X85700000Y-98900000D03*
%TO.N,/NSS*%
X76100000Y-100300000D03*
%TO.N,/SCK*%
X76900000Y-100100000D03*
%TO.N,/MISO*%
X76600000Y-102600000D03*
%TO.N,/MOSI*%
X77700000Y-98400000D03*
%TO.N,/DIO0*%
X84200000Y-99300000D03*
%TO.N,/INTERNAL_LED*%
X77770878Y-91893501D03*
X82864299Y-91846352D03*
%TO.N,Net-(R3-Pad2)*%
X65400000Y-92000000D03*
X70700000Y-91800000D03*
D53*
%TO.N,Net-(JP2-A)*%
X90900000Y-90200000D03*
%TD*%
D55*
%TO.N,VCC*%
X73600000Y-104800000D02*
X73600000Y-105800000D01*
X73600000Y-105800000D02*
X73800000Y-106000000D01*
%TO.N,/~{DTR}*%
X75600000Y-104800000D02*
X75799734Y-104999734D01*
%TO.N,/USART_RX*%
X74600000Y-104800000D02*
X74600000Y-105473814D01*
%TO.N,/USART_TX*%
X74548648Y-106006892D02*
X74548648Y-106164218D01*
D56*
%TO.N,GND*%
X72990000Y-106002466D02*
X72990000Y-102966888D01*
X74182500Y-102715000D02*
X74767500Y-103300000D01*
X73241888Y-102715000D02*
X74182500Y-102715000D01*
X73200000Y-106212466D02*
X72990000Y-106002466D01*
D55*
%TO.N,/USART_TX*%
X74100000Y-105558244D02*
X74548648Y-106006892D01*
%TO.N,/~{DTR}*%
X75799734Y-106647500D02*
X75398234Y-107049000D01*
%TO.N,/USART_RX*%
X75106482Y-105980296D02*
X75275234Y-105980296D01*
%TO.N,/USART_TX*%
X74100000Y-104800000D02*
X74100000Y-105558244D01*
%TO.N,/~{DTR}*%
X75799734Y-104999734D02*
X75799734Y-106647500D01*
D56*
%TO.N,GND*%
X73200000Y-107112466D02*
X73200000Y-106212466D01*
X73924500Y-107574500D02*
X73662034Y-107574500D01*
X73662034Y-107574500D02*
X73200000Y-107112466D01*
X72990000Y-102966888D02*
X73241888Y-102715000D01*
X74600000Y-108250000D02*
X73924500Y-107574500D01*
D55*
%TO.N,/USART_RX*%
X74600000Y-105473814D02*
X75106482Y-105980296D01*
D56*
%TO.N,GND*%
X74600000Y-109200000D02*
X74600000Y-108250000D01*
D55*
%TO.N,/~{DTR}*%
X77100000Y-108600000D02*
X75549000Y-107049000D01*
X75549000Y-107049000D02*
X75398234Y-107049000D01*
%TO.N,/VBATT_DIV*%
X72600000Y-106455097D02*
X72620403Y-106475500D01*
X73737500Y-100000000D02*
X72600000Y-101137500D01*
X72600000Y-101137500D02*
X72600000Y-106455097D01*
%TO.N,/~{DTR}*%
X72093428Y-106993428D02*
X72300000Y-107200000D01*
X72093428Y-100791572D02*
X72093428Y-106993428D01*
X72300000Y-100585000D02*
X72093428Y-100791572D01*
D57*
%TO.N,GND*%
X76350000Y-111421486D02*
X76700955Y-111070531D01*
D55*
%TO.N,Net-(U1-~{RTS})*%
X75446031Y-110346031D02*
X77543969Y-110346031D01*
D57*
%TO.N,GND*%
X76350000Y-112425000D02*
X76350000Y-111421486D01*
D55*
%TO.N,Net-(U1-~{RTS})*%
X75100000Y-109200000D02*
X75100000Y-110000000D01*
X75100000Y-110000000D02*
X75446031Y-110346031D01*
X77543969Y-110346031D02*
X78090000Y-109800000D01*
%TO.N,GND*%
X83900000Y-100080000D02*
X84280000Y-100080000D01*
D56*
X71550000Y-98250000D02*
X70900000Y-98900000D01*
X70250000Y-96050000D02*
X70200000Y-96000000D01*
X66150000Y-95600000D02*
X65300000Y-95600000D01*
D55*
X82100000Y-87050000D02*
X82100000Y-88900000D01*
D57*
X84050000Y-109820000D02*
X83830000Y-109600000D01*
X59625000Y-102975000D02*
X60600000Y-102000000D01*
D55*
X81290000Y-109600000D02*
X81290000Y-111160000D01*
D57*
X68750000Y-103150000D02*
X68400000Y-102800000D01*
X63000000Y-106000000D02*
X64300000Y-107300000D01*
D55*
X66900000Y-88800000D02*
X66900000Y-90825000D01*
D57*
X55200000Y-99900000D02*
X57200000Y-97900000D01*
D56*
X69350000Y-110100000D02*
X69350000Y-111050000D01*
D55*
X69000000Y-99565000D02*
X68335000Y-99565000D01*
X81290000Y-111160000D02*
X80850000Y-111600000D01*
X84280000Y-100080000D02*
X84900000Y-100700000D01*
D57*
X63000000Y-104825000D02*
X64000000Y-103825000D01*
D56*
X73737500Y-97500000D02*
X72950000Y-97500000D01*
X85332500Y-93542500D02*
X85000000Y-93875000D01*
D57*
X64400000Y-100600000D02*
X64400000Y-102175000D01*
X63000000Y-106000000D02*
X63000000Y-104825000D01*
X83830000Y-110385600D02*
X83830000Y-109600000D01*
D58*
X71315000Y-90050000D02*
X75600000Y-90050000D01*
D57*
X54200000Y-99900000D02*
X55200000Y-99900000D01*
X55000000Y-106200000D02*
X55000000Y-105475000D01*
D56*
X86300000Y-93542500D02*
X85332500Y-93542500D01*
D55*
X66900000Y-88700000D02*
X66900000Y-88800000D01*
D57*
X63000000Y-102000000D02*
X63875000Y-102000000D01*
D56*
X76350000Y-112425000D02*
X76350000Y-111750000D01*
D55*
X82100000Y-88900000D02*
X82200000Y-89000000D01*
D56*
X72950000Y-97500000D02*
X72200000Y-98250000D01*
D55*
X88025000Y-95250000D02*
X87175000Y-94400000D01*
D57*
X64300000Y-107300000D02*
X65800000Y-107300000D01*
D58*
X75600000Y-90050000D02*
X76300000Y-90750000D01*
D56*
X69350000Y-111050000D02*
X69500000Y-111200000D01*
D55*
X88025000Y-95850000D02*
X88025000Y-95250000D01*
D56*
X64400000Y-100600000D02*
X64400000Y-99200000D01*
D57*
X84050000Y-111600000D02*
X84050000Y-109820000D01*
X70300000Y-103150000D02*
X68750000Y-103150000D01*
X93700000Y-94000000D02*
X92700000Y-95000000D01*
D56*
X76350000Y-111750000D02*
X74600000Y-110000000D01*
D57*
X83244570Y-110971030D02*
X83830000Y-110385600D01*
D55*
X64340000Y-104165000D02*
X64000000Y-103825000D01*
X82100000Y-89100000D02*
X82100000Y-90900000D01*
D56*
X71032500Y-96050000D02*
X70250000Y-96050000D01*
D55*
X66900000Y-86975000D02*
X66900000Y-88700000D01*
D56*
X74600000Y-110000000D02*
X74600000Y-109200000D01*
D57*
X54425000Y-99900000D02*
X57500000Y-102975000D01*
D56*
X60395000Y-90175000D02*
X62175000Y-88395000D01*
D55*
X82200000Y-89000000D02*
X82100000Y-89100000D01*
D58*
X69800000Y-88535000D02*
X71315000Y-90050000D01*
D56*
X64400000Y-99200000D02*
X64200000Y-99000000D01*
X86300000Y-94000000D02*
X86700000Y-94400000D01*
X66150000Y-95600000D02*
X66150000Y-94400000D01*
D55*
X68335000Y-99565000D02*
X68300000Y-99600000D01*
D57*
X55000000Y-105475000D02*
X57500000Y-102975000D01*
X64225000Y-103600000D02*
X64000000Y-103825000D01*
D55*
X80700000Y-111600000D02*
X80100000Y-111000000D01*
X87175000Y-94400000D02*
X86700000Y-94400000D01*
D56*
X65300000Y-95600000D02*
X65200000Y-95700000D01*
D57*
X60600000Y-102000000D02*
X62700000Y-102000000D01*
X64225000Y-102350000D02*
X64225000Y-103600000D01*
D56*
X72200000Y-98250000D02*
X71550000Y-98250000D01*
D57*
X63875000Y-102000000D02*
X64225000Y-102350000D01*
D56*
X86300000Y-93542500D02*
X86300000Y-94000000D01*
D55*
X70900000Y-99151512D02*
X71458866Y-99710378D01*
X65400000Y-104165000D02*
X64340000Y-104165000D01*
D56*
X66150000Y-94400000D02*
X65250000Y-93500000D01*
D57*
X93700000Y-91800000D02*
X93700000Y-94000000D01*
X62700000Y-102000000D02*
X63000000Y-102000000D01*
X63000000Y-109700000D02*
X63000000Y-106000000D01*
X57500000Y-102975000D02*
X59625000Y-102975000D01*
D56*
%TO.N,VCC*%
X72617500Y-96500000D02*
X73737500Y-96500000D01*
X69882602Y-97117398D02*
X70365000Y-96635000D01*
X69882602Y-98367398D02*
X70900000Y-97350000D01*
D55*
X86275000Y-90778371D02*
X85845592Y-91207779D01*
D56*
X67400000Y-94300000D02*
X68200000Y-93500000D01*
X72315000Y-97000000D02*
X73737500Y-97000000D01*
X68200000Y-93500000D02*
X68200000Y-91900000D01*
D55*
X86275000Y-89245000D02*
X86275000Y-90778371D01*
D56*
X70365000Y-96635000D02*
X71582500Y-96635000D01*
X67400000Y-99000000D02*
X67400000Y-94300000D01*
X70900000Y-97350000D02*
X71965000Y-97350000D01*
D55*
X75100000Y-103950000D02*
X75025000Y-103875000D01*
D56*
X72167500Y-96050000D02*
X72617500Y-96500000D01*
X69882602Y-98570355D02*
X69882602Y-98367398D01*
D55*
X87620000Y-87900000D02*
X86275000Y-89245000D01*
D56*
X71582500Y-96635000D02*
X72167500Y-96050000D01*
X71965000Y-97350000D02*
X72200000Y-97115000D01*
X86300000Y-92407500D02*
X86300000Y-91662187D01*
X73600000Y-104800000D02*
X73600000Y-103332500D01*
X86300000Y-92407500D02*
X85082500Y-92407500D01*
D55*
X74207500Y-103875000D02*
X73632500Y-103300000D01*
X75100000Y-104800000D02*
X75100000Y-103950000D01*
D56*
X67400000Y-100600000D02*
X68900000Y-100600000D01*
X61600000Y-99700000D02*
X61600000Y-98000000D01*
X86300000Y-91662187D02*
X85845592Y-91207779D01*
D55*
X75025000Y-103875000D02*
X74207500Y-103875000D01*
D56*
X69882602Y-98570355D02*
X69882602Y-97117398D01*
X67400000Y-100600000D02*
X67400000Y-99000000D01*
D57*
%TO.N,+BATT*%
X68600000Y-107450000D02*
X68125000Y-107925000D01*
X61950000Y-93475000D02*
X60200000Y-91725000D01*
X68125000Y-104775000D02*
X67200000Y-103850000D01*
X70300000Y-107450000D02*
X68600000Y-107450000D01*
D58*
X71000000Y-88600000D02*
X71000000Y-87850000D01*
D57*
X64850000Y-111200000D02*
X65800000Y-110250000D01*
X65900000Y-98900000D02*
X64300000Y-97300000D01*
X64200000Y-95500000D02*
X64200000Y-86700000D01*
X64300000Y-95600000D02*
X64200000Y-95500000D01*
D58*
X71000000Y-87850000D02*
X71400000Y-87450000D01*
D57*
X65800000Y-110250000D02*
X68125000Y-107925000D01*
X67200000Y-103775000D02*
X65775000Y-102350000D01*
D58*
X71400000Y-87450000D02*
X69850000Y-87450000D01*
D57*
X64850000Y-112862500D02*
X64850000Y-111200000D01*
X65775000Y-102350000D02*
X65775000Y-100637500D01*
X68125000Y-107925000D02*
X68125000Y-104775000D01*
X64300000Y-95600000D02*
X62175000Y-93475000D01*
X64300000Y-97300000D02*
X64300000Y-95600000D01*
%TO.N,/BATT_DIRECT*%
X85100000Y-104350000D02*
X85100000Y-103053081D01*
X59275000Y-106300000D02*
X57500000Y-104525000D01*
X60600000Y-105200000D02*
X61400000Y-104400000D01*
X59000000Y-109700000D02*
X59000000Y-110812500D01*
X59000000Y-109700000D02*
X59000000Y-107900000D01*
X60600000Y-106300000D02*
X59275000Y-106300000D01*
X54900000Y-110975000D02*
X54900000Y-112300000D01*
X85100000Y-103053081D02*
X84995899Y-102948980D01*
X59000000Y-107900000D02*
X60600000Y-106300000D01*
X60600000Y-106300000D02*
X60600000Y-105200000D01*
X59000000Y-110812500D02*
X58300000Y-111512500D01*
D55*
%TO.N,/VBATT_DIV*%
X64000000Y-105475000D02*
X67175000Y-105475000D01*
X67200000Y-105500000D02*
X67200000Y-106300000D01*
X67200000Y-106300000D02*
X67300000Y-106400000D01*
%TO.N,VBUS*%
X79459501Y-110828033D02*
X79459501Y-112559499D01*
D57*
X69967972Y-113554000D02*
X69350000Y-112936028D01*
X73750000Y-113550000D02*
X73754000Y-113554000D01*
X73750000Y-112425000D02*
X73750000Y-113550000D01*
D55*
X79459501Y-112559499D02*
X79686181Y-112786179D01*
D57*
X85700000Y-112800000D02*
X85100000Y-112200000D01*
X69350000Y-112936028D02*
X69350000Y-112375000D01*
X73754000Y-113554000D02*
X78300000Y-113554000D01*
X73750000Y-112832003D02*
X73028003Y-113554000D01*
D55*
X79900000Y-110387534D02*
X79459501Y-110828033D01*
D57*
X85100000Y-112200000D02*
X85100000Y-109600000D01*
X73028003Y-113554000D02*
X69967972Y-113554000D01*
D55*
X79900000Y-104120000D02*
X79900000Y-110387534D01*
D57*
X73750000Y-112425000D02*
X73750000Y-112832003D01*
D55*
%TO.N,Net-(U2-NRST)*%
X72550000Y-99000000D02*
X72200000Y-99350000D01*
X83950000Y-97350000D02*
X83300000Y-96700000D01*
X74900625Y-96731445D02*
X74900625Y-98498639D01*
X74900625Y-98498639D02*
X74399264Y-99000000D01*
X73737500Y-99000000D02*
X72550000Y-99000000D01*
D59*
%TO.N,/ANTENNA*%
X98100000Y-90200000D02*
X93300000Y-90200000D01*
D55*
%TO.N,Net-(D1-K)*%
X83900000Y-102400000D02*
X83900000Y-101100000D01*
%TO.N,Net-(D1-A)*%
X82325000Y-100925000D02*
X82100000Y-100700000D01*
X82325000Y-102400000D02*
X82325000Y-100925000D01*
X78100000Y-100300000D02*
X78100000Y-101362500D01*
D58*
%TO.N,/USB+*%
X75050000Y-112425000D02*
X75050000Y-111257699D01*
X75050000Y-111257699D02*
X74642301Y-110850000D01*
X74642301Y-110850000D02*
X74394584Y-110850000D01*
X70400000Y-111200000D02*
X70400000Y-110200000D01*
X73600000Y-109200000D02*
X73127708Y-109672292D01*
X74218084Y-111026500D02*
X73878225Y-111026500D01*
X73878225Y-111026500D02*
X73730184Y-111174541D01*
X73127708Y-109672292D02*
X73127708Y-110372292D01*
X74394584Y-110850000D02*
X74218084Y-111026500D01*
%TO.N,/USB-*%
X74400000Y-111571688D02*
X74501441Y-111470247D01*
X74400000Y-112425000D02*
X74400000Y-111571688D01*
X68400000Y-109000000D02*
X68400000Y-110100000D01*
X74100000Y-110400000D02*
X74000000Y-110500000D01*
X74100000Y-109200000D02*
X74100000Y-110400000D01*
%TO.N,/EXTERNAL_LED*%
X68780000Y-90700000D02*
X68780000Y-89980000D01*
X69100000Y-98724744D02*
X69100000Y-91020000D01*
X68780000Y-89980000D02*
X68600000Y-89800000D01*
X69100000Y-91020000D02*
X68780000Y-90700000D01*
X71750000Y-101374744D02*
X69100000Y-98724744D01*
X71750000Y-110925000D02*
X71750000Y-101374744D01*
X70300000Y-112375000D02*
X71750000Y-110925000D01*
D55*
%TO.N,Net-(D6-K)*%
X78125000Y-105500000D02*
X78125000Y-104145000D01*
%TO.N,Net-(D7-K)*%
X78125000Y-107200000D02*
X78125000Y-108665000D01*
%TO.N,/AUX0*%
X76600000Y-94200000D02*
X76600000Y-93137500D01*
X82300000Y-92580000D02*
X82300000Y-93875500D01*
%TO.N,/AUX1*%
X83911399Y-90431399D02*
X83911399Y-91584492D01*
X76150000Y-91850000D02*
X76100000Y-91800000D01*
X76150000Y-93087500D02*
X76150000Y-91850000D01*
%TO.N,/AUX2*%
X84900000Y-91069500D02*
X85010500Y-91069500D01*
X74775000Y-93874264D02*
X74775000Y-91741730D01*
X74700000Y-99500000D02*
X75425125Y-98774875D01*
X73737500Y-99500000D02*
X74700000Y-99500000D01*
X85010500Y-91069500D02*
X85780000Y-90300000D01*
X75425125Y-94524389D02*
X74775000Y-93874264D01*
X75425125Y-98774875D02*
X75425125Y-94524389D01*
X74775000Y-91741730D02*
X74992270Y-91524460D01*
%TO.N,/SWDIO*%
X82062500Y-95000000D02*
X80957772Y-95000000D01*
X86375500Y-113975500D02*
X86375500Y-96448430D01*
X86375500Y-96448430D02*
X86275500Y-96348430D01*
X80957772Y-95000000D02*
X80851849Y-95105923D01*
%TO.N,/BOOT0*%
X80600000Y-94400000D02*
X81962500Y-94400000D01*
X79110000Y-109800000D02*
X79110000Y-113210000D01*
X81962500Y-94400000D02*
X82062500Y-94500000D01*
X86950498Y-95450498D02*
X86950498Y-95500000D01*
X89440000Y-114500000D02*
X86800000Y-111860000D01*
X79110000Y-113210000D02*
X79450000Y-113550000D01*
X86800000Y-111860000D02*
X86800000Y-95600996D01*
X86800000Y-95600996D02*
X86950498Y-95450498D01*
%TO.N,Net-(J2-Pin_4)*%
X92700000Y-87900000D02*
X91575000Y-86775000D01*
X83204501Y-91444798D02*
X83388799Y-91629096D01*
X91575000Y-86775000D02*
X84055000Y-86775000D01*
X83204501Y-87625499D02*
X83204501Y-91444798D01*
X84055000Y-86775000D02*
X83204501Y-87625499D01*
X83388799Y-91629096D02*
X83388799Y-92488799D01*
%TO.N,Net-(J2-Pin_5)*%
X84800000Y-89400000D02*
X84800000Y-90300000D01*
%TO.N,Net-(J2-Pin_6)*%
X89350991Y-90300000D02*
X86800000Y-90300000D01*
X90675991Y-88975000D02*
X89350991Y-90300000D01*
X97780000Y-87900000D02*
X96705000Y-88975000D01*
X96705000Y-88975000D02*
X90675991Y-88975000D01*
D57*
%TO.N,Net-(J4-Pin_1)*%
X53300000Y-98842894D02*
X53300000Y-107040000D01*
X57050000Y-110285051D02*
X57050000Y-113275000D01*
X53300000Y-107040000D02*
X55000000Y-108740000D01*
X53492894Y-98650000D02*
X53300000Y-98842894D01*
X55504949Y-108740000D02*
X57050000Y-110285051D01*
X57050000Y-113275000D02*
X54900000Y-115425000D01*
X54200000Y-98650000D02*
X53492894Y-98650000D01*
D55*
%TO.N,Net-(U2-PB1)*%
X71800000Y-95200000D02*
X71800000Y-92100000D01*
X71800000Y-92100000D02*
X71900000Y-92000000D01*
X78650000Y-95450000D02*
X78500000Y-95300000D01*
X78590000Y-90200000D02*
X79000000Y-90610000D01*
X78400000Y-90200000D02*
X78590000Y-90200000D01*
X78650000Y-101412500D02*
X78650000Y-95450000D01*
%TO.N,/~{STDBY}*%
X78100000Y-103100000D02*
X77805918Y-102805918D01*
X77805918Y-102805918D02*
X77320661Y-102805918D01*
X83830000Y-103748787D02*
X83184948Y-103103735D01*
%TO.N,/~{CHRG}*%
X82560000Y-103885660D02*
X81997428Y-103323088D01*
X78987500Y-103335588D02*
X79000000Y-103323088D01*
X78987500Y-108577500D02*
X78987500Y-103335588D01*
%TO.N,Net-(U2-PB2)*%
X79150000Y-94650000D02*
X79100000Y-94600000D01*
X79150000Y-101412500D02*
X79150000Y-94650000D01*
X69900000Y-94600000D02*
X69900000Y-92900000D01*
%TO.N,/USART_RX*%
X77383394Y-104827600D02*
X77383394Y-104459836D01*
X75650000Y-102726442D02*
X75650000Y-101412500D01*
X77383394Y-104459836D02*
X75650000Y-102726442D01*
%TO.N,/USART_TX*%
X75150000Y-102650000D02*
X75150000Y-101412500D01*
X76858394Y-104358394D02*
X75150000Y-102650000D01*
X76858394Y-105320394D02*
X76858394Y-104358394D01*
X77238000Y-105700000D02*
X76858394Y-105320394D01*
%TO.N,Net-(U2-PA8)*%
X80900000Y-98500000D02*
X82062500Y-98500000D01*
X80700000Y-98700000D02*
X80900000Y-98500000D01*
X85000000Y-98890000D02*
X85690000Y-98890000D01*
X85690000Y-98890000D02*
X85700000Y-98900000D01*
%TO.N,Net-(U1-~{CTS})*%
X76680000Y-109200000D02*
X77100000Y-109620000D01*
X75600000Y-109200000D02*
X76680000Y-109200000D01*
%TO.N,Net-(U3-DOUT)*%
X71400000Y-90750000D02*
X69850000Y-90750000D01*
%TO.N,Net-(U6-PROG)*%
X82500000Y-111600000D02*
X82500000Y-109660000D01*
%TO.N,Net-(U6-CE)*%
X81150000Y-104350000D02*
X79900000Y-103100000D01*
%TO.N,Net-(U1-~{RTS})*%
X78090000Y-109810000D02*
X77600000Y-110300000D01*
%TO.N,/NSS*%
X76100000Y-100300000D02*
X76100000Y-101362500D01*
%TO.N,/SCK*%
X76900000Y-100100000D02*
X76650000Y-100350000D01*
X76650000Y-100350000D02*
X76650000Y-101412500D01*
%TO.N,/MISO*%
X76624264Y-102600000D02*
X77150000Y-102074264D01*
X76600000Y-102600000D02*
X76624264Y-102600000D01*
%TO.N,/MOSI*%
X77575500Y-98524500D02*
X77700000Y-98400000D01*
X77575500Y-101338000D02*
X77575500Y-98524500D01*
%TO.N,/DIO0*%
X84810000Y-99910000D02*
X84200000Y-99300000D01*
%TO.N,/INTERNAL_LED*%
X77770878Y-88920878D02*
X77770878Y-91893501D01*
X82905000Y-93380000D02*
X82905000Y-91887053D01*
X76300000Y-87450000D02*
X77770878Y-88920878D01*
X82905000Y-91887053D02*
X82864299Y-91846352D01*
X83025000Y-93500000D02*
X82905000Y-93380000D01*
X83025000Y-96199264D02*
X83025000Y-93500000D01*
X82724264Y-96500000D02*
X83025000Y-96199264D01*
%TO.N,Net-(R3-Pad2)*%
X65400000Y-90825000D02*
X65400000Y-92000000D01*
X65400000Y-86975000D02*
X65400000Y-90825000D01*
X70700000Y-91800000D02*
X69980000Y-91800000D01*
%TO.N,Net-(R2-Pad2)*%
X79000000Y-89590000D02*
X79290000Y-89590000D01*
X79290000Y-89590000D02*
X80600000Y-90900000D01*
X80600000Y-87050000D02*
X80600000Y-90900000D01*
D60*
%TO.N,Net-(JP2-A)*%
X90900000Y-90200000D02*
X91700000Y-90200000D01*
%TD*%
%TA.AperFunction,Conductor*%
%TO.N,/ANTENNA*%
G36*
X99543039Y-89719685D02*
G01*
X99588794Y-89772489D01*
X99600000Y-89824000D01*
X99600000Y-116176000D01*
X99580315Y-116243039D01*
X99527511Y-116288794D01*
X99476000Y-116300000D01*
X98724000Y-116300000D01*
X98656961Y-116280315D01*
X98611206Y-116227511D01*
X98600000Y-116176000D01*
X98600000Y-90700000D01*
X95924000Y-90700000D01*
X95856961Y-90680315D01*
X95811206Y-90627511D01*
X95800000Y-90576000D01*
X95800000Y-89824000D01*
X95819685Y-89756961D01*
X95872489Y-89711206D01*
X95924000Y-89700000D01*
X99476000Y-89700000D01*
X99543039Y-89719685D01*
G37*
%TD.AperFunction*%
%TD*%
%TA.AperFunction,Conductor*%
%TO.N,GND*%
G36*
X94361980Y-94202383D02*
G01*
X94421480Y-94214218D01*
X94466175Y-94232730D01*
X94506272Y-94259522D01*
X94540477Y-94293727D01*
X94567267Y-94333822D01*
X94585781Y-94378519D01*
X94597616Y-94438019D01*
X94599999Y-94462210D01*
X94599999Y-116237789D01*
X94597616Y-116261980D01*
X94585781Y-116321480D01*
X94567267Y-116366179D01*
X94540481Y-116406268D01*
X94506269Y-116440479D01*
X94471975Y-116463394D01*
X94466179Y-116467267D01*
X94421482Y-116485781D01*
X94391578Y-116491729D01*
X94364491Y-116497117D01*
X94340303Y-116499500D01*
X86859697Y-116499500D01*
X86835507Y-116497117D01*
X86817334Y-116493502D01*
X86778518Y-116485781D01*
X86733822Y-116467267D01*
X86693727Y-116440477D01*
X86659522Y-116406272D01*
X86632730Y-116366175D01*
X86614218Y-116321480D01*
X86602383Y-116261980D01*
X86600000Y-116237789D01*
X86600000Y-115964734D01*
X86619685Y-115897695D01*
X86672489Y-115851940D01*
X86734807Y-115841206D01*
X86900000Y-115855659D01*
X87135408Y-115835063D01*
X87363663Y-115773903D01*
X87577830Y-115674035D01*
X87771401Y-115538495D01*
X87938495Y-115371401D01*
X88068427Y-115185838D01*
X88123001Y-115142216D01*
X88192499Y-115135022D01*
X88254854Y-115166545D01*
X88271572Y-115185838D01*
X88401505Y-115371401D01*
X88568599Y-115538495D01*
X88762170Y-115674035D01*
X88976337Y-115773903D01*
X89204592Y-115835062D01*
X89204592Y-115835063D01*
X89439999Y-115855659D01*
X89439999Y-115855658D01*
X89440000Y-115855659D01*
X89675408Y-115835063D01*
X89903663Y-115773903D01*
X90117830Y-115674035D01*
X90311401Y-115538495D01*
X90478495Y-115371401D01*
X90614035Y-115177830D01*
X90713903Y-114963663D01*
X90775063Y-114735408D01*
X90795659Y-114500000D01*
X90775063Y-114264592D01*
X90713903Y-114036337D01*
X90614035Y-113822171D01*
X90478495Y-113628599D01*
X90311401Y-113461505D01*
X90117830Y-113325965D01*
X89903663Y-113226097D01*
X89825431Y-113205135D01*
X89675407Y-113164936D01*
X89440000Y-113144340D01*
X89204591Y-113164936D01*
X89048357Y-113206798D01*
X88978508Y-113205135D01*
X88928584Y-113174704D01*
X87411819Y-111657938D01*
X87378334Y-111596615D01*
X87375500Y-111570257D01*
X87375500Y-108567764D01*
X87645787Y-108567764D01*
X87675413Y-108837016D01*
X87743928Y-109099087D01*
X87849871Y-109348392D01*
X87990982Y-109579611D01*
X88080253Y-109686881D01*
X88164255Y-109787820D01*
X88365998Y-109968582D01*
X88591910Y-110118044D01*
X88698211Y-110167876D01*
X88837177Y-110233021D01*
X89096562Y-110311058D01*
X89096569Y-110311060D01*
X89364561Y-110350500D01*
X89364564Y-110350500D01*
X89565369Y-110350500D01*
X89567631Y-110350500D01*
X89770156Y-110335677D01*
X90034553Y-110276780D01*
X90287558Y-110180014D01*
X90523777Y-110047441D01*
X90738177Y-109881888D01*
X90926186Y-109686881D01*
X91083799Y-109466579D01*
X91207656Y-109225675D01*
X91295118Y-108969305D01*
X91344319Y-108702933D01*
X91354212Y-108432235D01*
X91324586Y-108162982D01*
X91256072Y-107900912D01*
X91150130Y-107651610D01*
X91009018Y-107420390D01*
X91009017Y-107420388D01*
X90835746Y-107212181D01*
X90730759Y-107118112D01*
X90634002Y-107031418D01*
X90408090Y-106881956D01*
X90408086Y-106881954D01*
X90162822Y-106766978D01*
X89903437Y-106688941D01*
X89903431Y-106688940D01*
X89635439Y-106649500D01*
X89432369Y-106649500D01*
X89430120Y-106649664D01*
X89430109Y-106649665D01*
X89229843Y-106664322D01*
X88965449Y-106723219D01*
X88712441Y-106819986D01*
X88476223Y-106952559D01*
X88261825Y-107118109D01*
X88073813Y-107313120D01*
X87916201Y-107533420D01*
X87792342Y-107774329D01*
X87704881Y-108030695D01*
X87655680Y-108297066D01*
X87645787Y-108567764D01*
X87375500Y-108567764D01*
X87375500Y-98424499D01*
X87395185Y-98357460D01*
X87447989Y-98311705D01*
X87499500Y-98300499D01*
X88694561Y-98300499D01*
X88697872Y-98300499D01*
X88757483Y-98294091D01*
X88892331Y-98243796D01*
X89007546Y-98157546D01*
X89093796Y-98042331D01*
X89144091Y-97907483D01*
X89150500Y-97847873D01*
X89150499Y-96852128D01*
X89144091Y-96792517D01*
X89093796Y-96657669D01*
X89007546Y-96542454D01*
X88892331Y-96456204D01*
X88757483Y-96405909D01*
X88697873Y-96399500D01*
X88694551Y-96399500D01*
X87499500Y-96399500D01*
X87432461Y-96379815D01*
X87386706Y-96327011D01*
X87375500Y-96275500D01*
X87375500Y-96246893D01*
X87395185Y-96179854D01*
X87433530Y-96141898D01*
X87452760Y-96129816D01*
X87580314Y-96002262D01*
X87676287Y-95849522D01*
X87735866Y-95679255D01*
X87756063Y-95500000D01*
X87735866Y-95320745D01*
X87676287Y-95150478D01*
X87580314Y-94997738D01*
X87580313Y-94997737D01*
X87580312Y-94997735D01*
X87452762Y-94870185D01*
X87390365Y-94830978D01*
X87300020Y-94774211D01*
X87129753Y-94714632D01*
X87129751Y-94714631D01*
X87129749Y-94714631D01*
X86950498Y-94694434D01*
X86771241Y-94714631D01*
X86764950Y-94716833D01*
X86695171Y-94720392D01*
X86634545Y-94685661D01*
X86602320Y-94623666D01*
X86600000Y-94599790D01*
X86600000Y-94462210D01*
X86602383Y-94438019D01*
X86614218Y-94378519D01*
X86632729Y-94333826D01*
X86659524Y-94293724D01*
X86693724Y-94259524D01*
X86733826Y-94232729D01*
X86778514Y-94214219D01*
X86838028Y-94202381D01*
X86862211Y-94200000D01*
X94337789Y-94200000D01*
X94361980Y-94202383D01*
G37*
%TD.AperFunction*%
%TD*%
M02*
