M48
; DRILL file {KiCad 7.0.2-6a45011f42~172~ubuntu22.04.1} date Sun 30 Apr 2023 08:42:18 AM MDT
; FORMAT={-:-/ absolute / metric / decimal}
; #@! TF.CreationDate,2023-04-30T08:42:18-06:00
; #@! TF.GenerationSoftware,Kicad,Pcbnew,7.0.2-6a45011f42~172~ubuntu22.04.1
; #@! TF.FileFunction,Plated,1,4,PTH
FMAT,2
METRIC
; #@! TA.AperFunction,Plated,PTH,ViaDrill
T1C0.300
; #@! TA.AperFunction,Plated,PTH,ViaDrill
T2C0.380
; #@! TA.AperFunction,Plated,PTH,ViaDrill
T3C0.400
; #@! TA.AperFunction,Plated,PTH,ComponentDrill
T4C0.500
; #@! TA.AperFunction,Plated,PTH,ViaDrill
T5C0.600
; #@! TA.AperFunction,Plated,PTH,ComponentDrill
T6C0.900
; #@! TA.AperFunction,Plated,PTH,ComponentDrill
T7C1.000
; #@! TA.AperFunction,Plated,PTH,ComponentDrill
T8C1.200
%
G90
G05
T1
X64.2Y-99.0
X65.2Y-95.7
X65.4Y-92.0
X66.9Y-88.8
X67.3Y-106.4
X68.3Y-99.6
X68.4Y-109.0
X68.6Y-89.8
X69.5Y-111.2
X69.9Y-94.6
X70.2Y-96.0
X70.4Y-111.2
X70.7Y-91.8
X71.082Y-89.817
X71.459Y-99.71
X71.8Y-95.2
X71.9Y-92.0
X72.3Y-107.2
X72.62Y-106.475
X73.128Y-110.372
X73.73Y-111.175
X73.8Y-106.0
X73.813Y-91.145
X74.0Y-110.5
X74.501Y-111.47
X74.549Y-106.164
X74.901Y-96.731
X74.992Y-91.524
X75.275Y-105.98
X75.398Y-107.049
X76.1Y-91.8
X76.1Y-100.3
X76.6Y-94.2
X76.6Y-102.6
X76.9Y-100.1
X77.238Y-105.7
X77.321Y-102.806
X77.383Y-104.828
X77.7Y-98.4
X77.771Y-91.894
X78.1Y-100.3
X78.3Y-113.554
X78.4Y-90.2
X78.5Y-95.3
X79.0Y-103.323
X79.1Y-94.6
X79.45Y-113.55
X79.686Y-112.786
X80.1Y-111.0
X80.6Y-94.4
X80.7Y-98.7
X80.852Y-95.106
X81.997Y-103.323
X82.1Y-100.7
X82.2Y-89.0
X82.3Y-93.876
X82.864Y-91.846
X83.185Y-103.104
X83.245Y-110.971
X83.3Y-96.7
X83.911Y-91.584
X84.2Y-99.3
X84.9Y-91.069
X84.9Y-100.7
X85.7Y-98.9
X85.7Y-112.8
X86.275Y-96.348
X86.95Y-95.5
X92.7Y-95.0
T2
X88.0Y-104.0
X88.1Y-106.4
X89.2Y-112.4
X89.5Y-95.8
X90.9Y-90.2
X91.4Y-102.6
X94.0Y-97.7
X94.0Y-100.7
X94.0Y-103.7
X94.0Y-106.7
X94.0Y-109.7
X94.0Y-112.7
X94.0Y-115.7
T3
X61.6Y-99.7
X67.4Y-99.0
X69.883Y-98.57
X84.8Y-89.4
X85.846Y-91.208
X86.7Y-94.4
T4
X54.2Y-98.65
X54.2Y-99.9
T5
X54.9Y-112.3
X58.3Y-111.512
X61.4Y-104.4
X63.0Y-102.0
X64.2Y-86.7
X68.2Y-91.9
X68.4Y-102.8
X71.0Y-88.6
X76.701Y-111.071
X84.996Y-102.949
T6
X59.75Y-112.862
X62.3Y-112.862
X64.85Y-112.862
X72.55Y-112.4
X77.55Y-112.4
T7
X55.0Y-103.66
X55.0Y-106.2
X55.0Y-108.74
X62.175Y-88.395
X62.175Y-90.935
X62.175Y-93.475
X81.82Y-114.5
X84.36Y-114.5
X85.08Y-87.9
X86.9Y-114.5
X87.62Y-87.9
X89.44Y-114.5
X90.16Y-87.9
X92.7Y-87.9
X95.24Y-87.9
X97.78Y-87.9
T8
X71.55Y-115.1
X78.55Y-115.1
T0
M30
