%TF.GenerationSoftware,KiCad,Pcbnew,7.0.2-6a45011f42~172~ubuntu22.04.1*%
%TF.CreationDate,2023-04-30T08:48:56-06:00*%
%TF.ProjectId,fancy-node,66616e63-792d-46e6-9f64-652e6b696361,rev?*%
%TF.SameCoordinates,Original*%
%TF.FileFunction,Paste,Top*%
%TF.FilePolarity,Positive*%
%FSLAX46Y46*%
G04 Gerber Fmt 4.6, Leading zero omitted, Abs format (unit mm)*
G04 Created by KiCad (PCBNEW 7.0.2-6a45011f42~172~ubuntu22.04.1) date 2023-04-30 08:48:56*
%MOMM*%
%LPD*%
G01*
G04 APERTURE LIST*
G04 Aperture macros list*
%AMRoundRect*
0 Rectangle with rounded corners*
0 $1 Rounding radius*
0 $2 $3 $4 $5 $6 $7 $8 $9 X,Y pos of 4 corners*
0 Add a 4 corners polygon primitive as box body*
4,1,4,$2,$3,$4,$5,$6,$7,$8,$9,$2,$3,0*
0 Add four circle primitives for the rounded corners*
1,1,$1+$1,$2,$3*
1,1,$1+$1,$4,$5*
1,1,$1+$1,$6,$7*
1,1,$1+$1,$8,$9*
0 Add four rect primitives between the rounded corners*
20,1,$1+$1,$2,$3,$4,$5,0*
20,1,$1+$1,$4,$5,$6,$7,0*
20,1,$1+$1,$6,$7,$8,$9,0*
20,1,$1+$1,$8,$9,$2,$3,0*%
%AMFreePoly0*
4,1,9,3.862500,-0.866500,0.737500,-0.866500,0.737500,-0.450000,-0.737500,-0.450000,-0.737500,0.450000,0.737500,0.450000,0.737500,0.866500,3.862500,0.866500,3.862500,-0.866500,3.862500,-0.866500,$1*%
G04 Aperture macros list end*
%ADD10RoundRect,0.135000X0.185000X-0.135000X0.185000X0.135000X-0.185000X0.135000X-0.185000X-0.135000X0*%
%ADD11R,0.900000X1.250000*%
%ADD12RoundRect,0.225000X-0.225000X-0.250000X0.225000X-0.250000X0.225000X0.250000X-0.225000X0.250000X0*%
%ADD13RoundRect,0.155000X0.212500X0.155000X-0.212500X0.155000X-0.212500X-0.155000X0.212500X-0.155000X0*%
%ADD14RoundRect,0.225000X-0.250000X0.225000X-0.250000X-0.225000X0.250000X-0.225000X0.250000X0.225000X0*%
%ADD15RoundRect,0.155000X0.155000X-0.212500X0.155000X0.212500X-0.155000X0.212500X-0.155000X-0.212500X0*%
%ADD16RoundRect,0.200000X0.275000X-0.200000X0.275000X0.200000X-0.275000X0.200000X-0.275000X-0.200000X0*%
%ADD17R,0.320000X1.080000*%
%ADD18R,1.500000X1.550000*%
%ADD19RoundRect,0.218750X-0.218750X-0.256250X0.218750X-0.256250X0.218750X0.256250X-0.218750X0.256250X0*%
%ADD20RoundRect,0.135000X-0.135000X-0.185000X0.135000X-0.185000X0.135000X0.185000X-0.135000X0.185000X0*%
%ADD21R,0.300000X1.400000*%
%ADD22RoundRect,0.218750X0.218750X0.256250X-0.218750X0.256250X-0.218750X-0.256250X0.218750X-0.256250X0*%
%ADD23R,1.500000X0.900000*%
%ADD24RoundRect,0.200000X-0.275000X0.200000X-0.275000X-0.200000X0.275000X-0.200000X0.275000X0.200000X0*%
%ADD25RoundRect,0.250000X-0.650000X0.325000X-0.650000X-0.325000X0.650000X-0.325000X0.650000X0.325000X0*%
%ADD26RoundRect,0.150000X0.150000X-0.675000X0.150000X0.675000X-0.150000X0.675000X-0.150000X-0.675000X0*%
%ADD27R,3.800000X2.700000*%
%ADD28RoundRect,0.250000X-1.000000X-0.650000X1.000000X-0.650000X1.000000X0.650000X-1.000000X0.650000X0*%
%ADD29RoundRect,0.250000X-0.325000X-0.650000X0.325000X-0.650000X0.325000X0.650000X-0.325000X0.650000X0*%
%ADD30RoundRect,0.147500X-0.147500X-0.172500X0.147500X-0.172500X0.147500X0.172500X-0.147500X0.172500X0*%
%ADD31RoundRect,0.200000X0.200000X0.275000X-0.200000X0.275000X-0.200000X-0.275000X0.200000X-0.275000X0*%
%ADD32RoundRect,0.155000X-0.155000X0.212500X-0.155000X-0.212500X0.155000X-0.212500X0.155000X0.212500X0*%
%ADD33RoundRect,0.250000X1.000000X0.900000X-1.000000X0.900000X-1.000000X-0.900000X1.000000X-0.900000X0*%
%ADD34RoundRect,0.225000X0.250000X-0.225000X0.250000X0.225000X-0.250000X0.225000X-0.250000X-0.225000X0*%
%ADD35RoundRect,0.250000X0.900000X-1.000000X0.900000X1.000000X-0.900000X1.000000X-0.900000X-1.000000X0*%
%ADD36RoundRect,0.250000X-1.450000X0.400000X-1.450000X-0.400000X1.450000X-0.400000X1.450000X0.400000X0*%
%ADD37R,0.900000X1.300000*%
%ADD38FreePoly0,90.000000*%
%ADD39R,1.250000X0.900000*%
%ADD40RoundRect,0.150000X-0.150000X0.512500X-0.150000X-0.512500X0.150000X-0.512500X0.150000X0.512500X0*%
%ADD41RoundRect,0.155000X-0.212500X-0.155000X0.212500X-0.155000X0.212500X0.155000X-0.212500X0.155000X0*%
%ADD42RoundRect,0.075000X-0.662500X-0.075000X0.662500X-0.075000X0.662500X0.075000X-0.662500X0.075000X0*%
%ADD43RoundRect,0.075000X-0.075000X-0.662500X0.075000X-0.662500X0.075000X0.662500X-0.075000X0.662500X0*%
G04 APERTURE END LIST*
D10*
%TO.C,R2*%
X79000000Y-90610000D03*
X79000000Y-89590000D03*
%TD*%
D11*
%TO.C,SW2*%
X65400000Y-90825000D03*
X65400000Y-86975000D03*
X66900000Y-90825000D03*
X66900000Y-86975000D03*
%TD*%
D10*
%TO.C,R15*%
X79900000Y-104120000D03*
X79900000Y-103100000D03*
%TD*%
D12*
%TO.C,C8*%
X64225000Y-102350000D03*
X65775000Y-102350000D03*
%TD*%
D13*
%TO.C,C1*%
X74767500Y-103300000D03*
X73632500Y-103300000D03*
%TD*%
D14*
%TO.C,C11*%
X57500000Y-102975000D03*
X57500000Y-104525000D03*
%TD*%
D15*
%TO.C,C9*%
X65400000Y-105300000D03*
X65400000Y-104165000D03*
%TD*%
D16*
%TO.C,R11*%
X64000000Y-105475000D03*
X64000000Y-103825000D03*
%TD*%
D17*
%TO.C,J1*%
X73750000Y-112425000D03*
X74400000Y-112425000D03*
X75050000Y-112425000D03*
X75700000Y-112425000D03*
X76350000Y-112425000D03*
D18*
X74050000Y-115100000D03*
X76050000Y-115100000D03*
X72000000Y-115100000D03*
X78100000Y-115100000D03*
%TD*%
D19*
%TO.C,D6*%
X78125000Y-105500000D03*
X79700000Y-105500000D03*
%TD*%
D20*
%TO.C,R6*%
X83780000Y-90300000D03*
X84800000Y-90300000D03*
%TD*%
D21*
%TO.C,U1*%
X73600000Y-109200000D03*
X74100000Y-109200000D03*
X74600000Y-109200000D03*
X75100000Y-109200000D03*
X75600000Y-109200000D03*
X75600000Y-104800000D03*
X75100000Y-104800000D03*
X74600000Y-104800000D03*
X74100000Y-104800000D03*
X73600000Y-104800000D03*
%TD*%
D22*
%TO.C,D1*%
X83900000Y-102400000D03*
X82325000Y-102400000D03*
%TD*%
D23*
%TO.C,U3*%
X71400000Y-87450000D03*
X71400000Y-90750000D03*
X76300000Y-90750000D03*
X76300000Y-87450000D03*
%TD*%
D24*
%TO.C,R10*%
X67200000Y-103850000D03*
X67200000Y-105500000D03*
%TD*%
D25*
%TO.C,C14*%
X65800000Y-107300000D03*
X65800000Y-110250000D03*
%TD*%
D10*
%TO.C,R1*%
X83900000Y-101100000D03*
X83900000Y-100080000D03*
%TD*%
D26*
%TO.C,U6*%
X81290000Y-109600000D03*
X82560000Y-109600000D03*
X83830000Y-109600000D03*
X85100000Y-109600000D03*
X85100000Y-104350000D03*
X83830000Y-104350000D03*
X82560000Y-104350000D03*
X81290000Y-104350000D03*
D27*
X83195000Y-106975000D03*
%TD*%
D28*
%TO.C,D8*%
X59000000Y-109700000D03*
X63000000Y-109700000D03*
%TD*%
D29*
%TO.C,C10*%
X65250000Y-93500000D03*
X68200000Y-93500000D03*
%TD*%
D12*
%TO.C,C18*%
X84050000Y-111600000D03*
X85600000Y-111600000D03*
%TD*%
D30*
%TO.C,L1*%
X91700000Y-90200000D03*
X92670000Y-90200000D03*
%TD*%
D31*
%TO.C,R14*%
X82500000Y-111600000D03*
X80850000Y-111600000D03*
%TD*%
D32*
%TO.C,C17*%
X93700000Y-90665000D03*
X93700000Y-91800000D03*
%TD*%
D10*
%TO.C,R8*%
X77100000Y-109620000D03*
X77100000Y-108600000D03*
%TD*%
D33*
%TO.C,D5*%
X61500000Y-97900000D03*
X57200000Y-97900000D03*
%TD*%
D20*
%TO.C,R13*%
X78090000Y-108700000D03*
X79110000Y-108700000D03*
%TD*%
D14*
%TO.C,C4*%
X70900000Y-97350000D03*
X70900000Y-98900000D03*
%TD*%
%TO.C,C6*%
X60200000Y-90175000D03*
X60200000Y-91725000D03*
%TD*%
D12*
%TO.C,C12*%
X66150000Y-95600000D03*
X67700000Y-95600000D03*
%TD*%
D15*
%TO.C,C13*%
X69000000Y-100700000D03*
X69000000Y-99565000D03*
%TD*%
D34*
%TO.C,C16*%
X85000000Y-93875000D03*
X85000000Y-92325000D03*
%TD*%
D35*
%TO.C,D4*%
X70300000Y-107450000D03*
X70300000Y-103150000D03*
%TD*%
D36*
%TO.C,TH1*%
X54900000Y-110975000D03*
X54900000Y-115425000D03*
%TD*%
D10*
%TO.C,R3*%
X69900000Y-92900000D03*
X69900000Y-91880000D03*
%TD*%
%TO.C,R4*%
X85000000Y-99910000D03*
X85000000Y-98890000D03*
%TD*%
D19*
%TO.C,D7*%
X78125000Y-107200000D03*
X79700000Y-107200000D03*
%TD*%
D37*
%TO.C,U4*%
X64400000Y-100600000D03*
D38*
X65900000Y-100512500D03*
D37*
X67400000Y-100600000D03*
%TD*%
D39*
%TO.C,SW3*%
X88025000Y-97350000D03*
X84175000Y-97350000D03*
X88025000Y-95850000D03*
X84175000Y-95850000D03*
%TD*%
D40*
%TO.C,D2*%
X70300000Y-110100000D03*
X69350000Y-110100000D03*
X68400000Y-110100000D03*
X68400000Y-112375000D03*
X69350000Y-112375000D03*
X70300000Y-112375000D03*
%TD*%
D20*
%TO.C,R7*%
X85780000Y-90300000D03*
X86800000Y-90300000D03*
%TD*%
D41*
%TO.C,C2*%
X71032500Y-96050000D03*
X72167500Y-96050000D03*
%TD*%
D11*
%TO.C,SW1*%
X80600000Y-90900000D03*
X80600000Y-87050000D03*
X82100000Y-90900000D03*
X82100000Y-87050000D03*
%TD*%
D42*
%TO.C,U2*%
X73737500Y-94500000D03*
X73737500Y-95000000D03*
X73737500Y-95500000D03*
X73737500Y-96000000D03*
X73737500Y-96500000D03*
X73737500Y-97000000D03*
X73737500Y-97500000D03*
X73737500Y-98000000D03*
X73737500Y-98500000D03*
X73737500Y-99000000D03*
X73737500Y-99500000D03*
X73737500Y-100000000D03*
D43*
X75150000Y-101412500D03*
X75650000Y-101412500D03*
X76150000Y-101412500D03*
X76650000Y-101412500D03*
X77150000Y-101412500D03*
X77650000Y-101412500D03*
X78150000Y-101412500D03*
X78650000Y-101412500D03*
X79150000Y-101412500D03*
X79650000Y-101412500D03*
X80150000Y-101412500D03*
X80650000Y-101412500D03*
D42*
X82062500Y-100000000D03*
X82062500Y-99500000D03*
X82062500Y-99000000D03*
X82062500Y-98500000D03*
X82062500Y-98000000D03*
X82062500Y-97500000D03*
X82062500Y-97000000D03*
X82062500Y-96500000D03*
X82062500Y-96000000D03*
X82062500Y-95500000D03*
X82062500Y-95000000D03*
X82062500Y-94500000D03*
D43*
X80650000Y-93087500D03*
X80150000Y-93087500D03*
X79650000Y-93087500D03*
X79150000Y-93087500D03*
X78650000Y-93087500D03*
X78150000Y-93087500D03*
X77650000Y-93087500D03*
X77150000Y-93087500D03*
X76650000Y-93087500D03*
X76150000Y-93087500D03*
X75650000Y-93087500D03*
X75150000Y-93087500D03*
%TD*%
D20*
%TO.C,R9*%
X68780000Y-90700000D03*
X69800000Y-90700000D03*
%TD*%
%TO.C,R5*%
X82380000Y-92500000D03*
X83400000Y-92500000D03*
%TD*%
D15*
%TO.C,C3*%
X72200000Y-98250000D03*
X72200000Y-97115000D03*
%TD*%
D20*
%TO.C,R16*%
X79110000Y-109800000D03*
X78090000Y-109800000D03*
%TD*%
D10*
%TO.C,R12*%
X78100000Y-104120000D03*
X78100000Y-103100000D03*
%TD*%
D35*
%TO.C,D3*%
X60600000Y-106300000D03*
X60600000Y-102000000D03*
%TD*%
D15*
%TO.C,C5*%
X72200000Y-100485000D03*
X72200000Y-99350000D03*
%TD*%
D32*
%TO.C,C15*%
X86300000Y-92407500D03*
X86300000Y-93542500D03*
%TD*%
D15*
%TO.C,C7*%
X69800000Y-88535000D03*
X69800000Y-87400000D03*
%TD*%
M02*
