%TF.GenerationSoftware,KiCad,Pcbnew,7.0.2-6a45011f42~172~ubuntu22.04.1*%
%TF.CreationDate,2023-04-30T23:05:09-06:00*%
%TF.ProjectId,fancy-node,66616e63-792d-46e6-9f64-652e6b696361,rev?*%
%TF.SameCoordinates,Original*%
%TF.FileFunction,Copper,L4,Bot*%
%TF.FilePolarity,Positive*%
%FSLAX46Y46*%
G04 Gerber Fmt 4.6, Leading zero omitted, Abs format (unit mm)*
G04 Created by KiCad (PCBNEW 7.0.2-6a45011f42~172~ubuntu22.04.1) date 2023-04-30 23:05:09*
%MOMM*%
%LPD*%
G01*
G04 APERTURE LIST*
G04 Aperture macros list*
%AMFreePoly0*
4,1,6,1.000000,0.000000,0.500000,-0.750000,-0.500000,-0.750000,-0.500000,0.750000,0.500000,0.750000,1.000000,0.000000,1.000000,0.000000,$1*%
%AMFreePoly1*
4,1,6,0.500000,-0.750000,-0.650000,-0.750000,-0.150000,0.000000,-0.650000,0.750000,0.500000,0.750000,0.500000,-0.750000,0.500000,-0.750000,$1*%
G04 Aperture macros list end*
%TA.AperFunction,ComponentPad*%
%ADD10C,1.408000*%
%TD*%
%TA.AperFunction,ComponentPad*%
%ADD11C,1.800000*%
%TD*%
%TA.AperFunction,ComponentPad*%
%ADD12R,1.700000X1.700000*%
%TD*%
%TA.AperFunction,ComponentPad*%
%ADD13O,1.700000X1.700000*%
%TD*%
%TA.AperFunction,ComponentPad*%
%ADD14R,1.800000X1.800000*%
%TD*%
%TA.AperFunction,ComponentPad*%
%ADD15R,1.000000X1.000000*%
%TD*%
%TA.AperFunction,ComponentPad*%
%ADD16C,1.000000*%
%TD*%
%TA.AperFunction,SMDPad,CuDef*%
%ADD17FreePoly0,270.000000*%
%TD*%
%TA.AperFunction,SMDPad,CuDef*%
%ADD18FreePoly1,270.000000*%
%TD*%
%TA.AperFunction,ComponentPad*%
%ADD19C,1.700000*%
%TD*%
%TA.AperFunction,SMDPad,CuDef*%
%ADD20R,2.999740X1.198880*%
%TD*%
%TA.AperFunction,SMDPad,CuDef*%
%ADD21R,0.990600X1.041400*%
%TD*%
%TA.AperFunction,SMDPad,CuDef*%
%ADD22R,1.041400X2.209800*%
%TD*%
%TA.AperFunction,ViaPad*%
%ADD23C,0.600000*%
%TD*%
%TA.AperFunction,ViaPad*%
%ADD24C,1.000000*%
%TD*%
%TA.AperFunction,ViaPad*%
%ADD25C,0.800000*%
%TD*%
%TA.AperFunction,Conductor*%
%ADD26C,0.200000*%
%TD*%
%TA.AperFunction,Conductor*%
%ADD27C,0.500000*%
%TD*%
%TA.AperFunction,Conductor*%
%ADD28C,0.150000*%
%TD*%
%TA.AperFunction,Conductor*%
%ADD29C,0.250000*%
%TD*%
%TA.AperFunction,Conductor*%
%ADD30C,1.000000*%
%TD*%
G04 APERTURE END LIST*
D10*
%TO.P,J1,P$6*%
%TO.N,N/C*%
X72550000Y-112400000D03*
%TO.P,J1,P$7*%
X77550000Y-112400000D03*
D11*
%TO.P,J1,P$12*%
X71550000Y-115100000D03*
%TO.P,J1,P$13*%
X78550000Y-115100000D03*
%TD*%
D12*
%TO.P,J5,1,Pin_1*%
%TO.N,VCC*%
X81820000Y-114500000D03*
D13*
%TO.P,J5,2,Pin_2*%
%TO.N,GND*%
X84360000Y-114500000D03*
%TO.P,J5,3,Pin_3*%
%TO.N,/SWDIO*%
X86900000Y-114500000D03*
%TO.P,J5,4,Pin_4*%
%TO.N,/BOOT0*%
X89440000Y-114500000D03*
%TD*%
D12*
%TO.P,J2,1,Pin_1*%
%TO.N,GND*%
X85080000Y-87900000D03*
D13*
%TO.P,J2,2,Pin_2*%
%TO.N,VCC*%
X87620000Y-87900000D03*
%TO.P,J2,3,Pin_3*%
%TO.N,+BATT*%
X90160000Y-87900000D03*
%TO.P,J2,4,Pin_4*%
%TO.N,Net-(J2-Pin_4)*%
X92700000Y-87900000D03*
%TO.P,J2,5,Pin_5*%
%TO.N,Net-(J2-Pin_5)*%
X95240000Y-87900000D03*
%TO.P,J2,6,Pin_6*%
%TO.N,Net-(J2-Pin_6)*%
X97780000Y-87900000D03*
%TD*%
D14*
%TO.P,SW4,1,A*%
%TO.N,unconnected-(SW4-A-Pad1)*%
X59750000Y-112862500D03*
D11*
%TO.P,SW4,2,B*%
%TO.N,/BATT_DIRECT*%
X62300000Y-112862500D03*
%TO.P,SW4,3,C*%
%TO.N,+BATT*%
X64850000Y-112862500D03*
%TD*%
D12*
%TO.P,J3,1,Pin_1*%
%TO.N,GND*%
X62175000Y-88395000D03*
D13*
%TO.P,J3,2,Pin_2*%
%TO.N,/EXTERNAL_LED*%
X62175000Y-90935000D03*
%TO.P,J3,3,Pin_3*%
%TO.N,+BATT*%
X62175000Y-93475000D03*
%TD*%
D15*
%TO.P,J6,1,Pin_1*%
%TO.N,GND*%
X54200000Y-99900000D03*
D16*
%TO.P,J6,2,Pin_2*%
%TO.N,Net-(J4-Pin_1)*%
X54200000Y-98650000D03*
%TD*%
D17*
%TO.P,JP2,1,A*%
%TO.N,Net-(JP2-A)*%
X92300000Y-90650000D03*
D18*
%TO.P,JP2,2,B*%
%TO.N,/ANTENNA_UFL*%
X92300000Y-92100000D03*
%TD*%
D12*
%TO.P,J4,1,Pin_1*%
%TO.N,Net-(J4-Pin_1)*%
X55000000Y-108740000D03*
D19*
%TO.P,J4,2,Pin_2*%
%TO.N,GND*%
X55000000Y-106200000D03*
%TO.P,J4,3,Pin_3*%
%TO.N,unconnected-(J4-Pin_3-Pad3)*%
X55000000Y-103660000D03*
%TD*%
D20*
%TO.P,U5,1,ANT*%
%TO.N,Net-(JP2-A)*%
X88798080Y-90175520D03*
%TO.P,U5,2,3.3V*%
%TO.N,VCC*%
X88798080Y-92177040D03*
%TO.P,U5,3,GND*%
%TO.N,GND*%
X88798080Y-94176020D03*
%TO.P,U5,5,MOSI*%
%TO.N,/MOSI*%
X88798080Y-98173980D03*
%TO.P,U5,6,SCK*%
%TO.N,/SCK*%
X88798080Y-100172960D03*
%TO.P,U5,7,NSS*%
%TO.N,/NSS*%
X88798080Y-102174480D03*
%TO.P,U5,8,MISO*%
%TO.N,/MISO*%
X73801920Y-102174480D03*
%TO.P,U5,9,DIO0*%
%TO.N,/DIO0*%
X73801920Y-100172960D03*
%TO.P,U5,14,GND*%
%TO.N,GND*%
X73801920Y-90175520D03*
%TD*%
D21*
%TO.P,J7,1,1*%
%TO.N,/ANTENNA_UFL*%
X92552499Y-93974999D03*
D22*
%TO.P,J7,2,2*%
%TO.N,GND*%
X93700000Y-95500000D03*
%TO.P,J7,3,3*%
X91404998Y-95500000D03*
%TD*%
D23*
%TO.N,GND*%
X79100000Y-88700000D03*
%TO.N,+BATT*%
X79200000Y-87300000D03*
%TO.N,/INTERNAL_LED*%
X77700000Y-89800000D03*
X76800000Y-88600000D03*
%TO.N,/~{DTR}*%
X72300000Y-107200000D03*
X75398234Y-107049000D03*
%TO.N,GND*%
X70200000Y-96000000D03*
D24*
X94000000Y-112700000D03*
X91400000Y-102600000D03*
D23*
X73813336Y-91144907D03*
X66900000Y-88800000D03*
X71458866Y-99710378D03*
X92700000Y-95000000D03*
X65200000Y-95700000D03*
D24*
X76700955Y-111070531D03*
X88000000Y-104000000D03*
D23*
X80100000Y-111000000D03*
D24*
X94000000Y-97700000D03*
X89200000Y-112400000D03*
X94000000Y-115700000D03*
X63000000Y-102000000D03*
X88100000Y-106400000D03*
D23*
X83244570Y-110971030D03*
X84900000Y-100700000D03*
D24*
X94000000Y-100700000D03*
X94000000Y-106700000D03*
D23*
X68300000Y-99600000D03*
D24*
X94000000Y-103700000D03*
D23*
X82200000Y-89000000D03*
D24*
X89500000Y-95800000D03*
D25*
X86700000Y-94400000D03*
D24*
X68400000Y-102800000D03*
D23*
X64200000Y-99000000D03*
D24*
X94000000Y-109700000D03*
D23*
X69500000Y-111200000D03*
D24*
%TO.N,VCC*%
X68200000Y-91900000D03*
D25*
X85845592Y-91207779D03*
X69882602Y-98570355D03*
X67400000Y-99000000D03*
D23*
X73800000Y-106000000D03*
D25*
X61600000Y-99700000D03*
D24*
%TO.N,+BATT*%
X64200000Y-86700000D03*
%TO.N,/BATT_DIRECT*%
X84995899Y-102948980D03*
X54900000Y-112300000D03*
X61400000Y-104400000D03*
X58300000Y-111512500D03*
D23*
%TO.N,/VBATT_DIV*%
X72620403Y-106475500D03*
X67300000Y-106400000D03*
%TO.N,VBUS*%
X78300000Y-113554000D03*
X85700000Y-112800000D03*
X79686181Y-112786179D03*
%TO.N,Net-(U2-NRST)*%
X74900625Y-96731445D03*
X83300000Y-96700000D03*
%TO.N,Net-(D1-A)*%
X82100000Y-100700000D03*
X78100000Y-100300000D03*
%TO.N,/USB+*%
X70400000Y-111200000D03*
X73730184Y-111174541D03*
X73127708Y-110372292D03*
%TO.N,/USB-*%
X74000000Y-110500000D03*
X68400000Y-109000000D03*
X74501441Y-111470247D03*
%TO.N,/EXTERNAL_LED*%
X68400000Y-89800000D03*
%TO.N,/AUX0*%
X76600000Y-94200000D03*
X82300000Y-93875500D03*
%TO.N,/AUX1*%
X83911399Y-91584492D03*
X76100000Y-91800000D03*
%TO.N,/AUX2*%
X84900000Y-91069500D03*
X74992270Y-91524460D03*
%TO.N,/SWDIO*%
X80851849Y-95105923D03*
X86275500Y-96348430D03*
%TO.N,/BOOT0*%
X86950498Y-95500000D03*
X80600000Y-94400000D03*
X79450000Y-113550000D03*
D25*
%TO.N,Net-(J2-Pin_5)*%
X84800000Y-89400000D03*
D23*
%TO.N,Net-(U2-PB1)*%
X71800000Y-95200000D03*
X78500000Y-95300000D03*
X71900000Y-92000000D03*
X78400000Y-90200000D03*
%TO.N,/~{STDBY}*%
X77320661Y-102805918D03*
X83184948Y-103103735D03*
%TO.N,/~{CHRG}*%
X81997428Y-103323088D03*
X79000000Y-103323088D03*
%TO.N,Net-(U2-PB2)*%
X79100000Y-94600000D03*
X69900000Y-94600000D03*
%TO.N,/USART_RX*%
X77383394Y-104827600D03*
X75275234Y-105980296D03*
%TO.N,/USART_TX*%
X74548648Y-106164218D03*
X77238000Y-105700000D03*
%TO.N,Net-(U2-PA8)*%
X80700000Y-98700000D03*
X85700000Y-98900000D03*
%TO.N,/NSS*%
X76100000Y-100300000D03*
%TO.N,/SCK*%
X76900000Y-100100000D03*
%TO.N,/MISO*%
X76600000Y-102600000D03*
%TO.N,/MOSI*%
X77700000Y-98400000D03*
%TO.N,/DIO0*%
X84200000Y-99300000D03*
%TO.N,/INTERNAL_LED*%
X77770878Y-91893501D03*
X82864299Y-91846352D03*
%TO.N,Net-(R3-Pad2)*%
X65400000Y-92000000D03*
X70700000Y-91800000D03*
D24*
%TO.N,Net-(JP2-A)*%
X90900000Y-90200000D03*
%TD*%
D26*
%TO.N,/EXTERNAL_LED*%
X63310000Y-89800000D02*
X68400000Y-89800000D01*
X62175000Y-90935000D02*
X63310000Y-89800000D01*
D27*
%TO.N,+BATT*%
X79200000Y-86600000D02*
X71000000Y-86600000D01*
X88860000Y-86600000D02*
X79200000Y-86600000D01*
D26*
X79200000Y-86600000D02*
X79200000Y-87300000D01*
D28*
%TO.N,Net-(U2-PB1)*%
X71900000Y-92000000D02*
X73752018Y-92000000D01*
D26*
%TO.N,/INTERNAL_LED*%
X77700000Y-89500000D02*
X76800000Y-88600000D01*
D28*
%TO.N,Net-(U2-PB1)*%
X73752018Y-92000000D02*
X74752058Y-90999960D01*
X74752058Y-90999960D02*
X75399334Y-90999960D01*
X76074794Y-90324500D02*
X78275500Y-90324500D01*
X78275500Y-90324500D02*
X78400000Y-90200000D01*
D26*
%TO.N,/INTERNAL_LED*%
X77700000Y-89800000D02*
X77700000Y-89500000D01*
D28*
%TO.N,Net-(U2-PB1)*%
X75399334Y-90999960D02*
X76074794Y-90324500D01*
%TO.N,/~{DTR}*%
X72451000Y-107049000D02*
X75398234Y-107049000D01*
X72300000Y-107200000D02*
X72451000Y-107049000D01*
D27*
%TO.N,GND*%
X80100000Y-111000000D02*
X83400000Y-111000000D01*
X76771486Y-111000000D02*
X76700955Y-111070531D01*
D29*
X88798080Y-94176020D02*
X86923980Y-94176020D01*
D26*
X73801920Y-91133491D02*
X73813336Y-91144907D01*
D27*
X80100000Y-111000000D02*
X76771486Y-111000000D01*
X83273540Y-111000000D02*
X83244570Y-110971030D01*
D29*
X86923980Y-94176020D02*
X86700000Y-94400000D01*
D26*
X73801920Y-90175520D02*
X73801920Y-91133491D01*
D27*
X83400000Y-111000000D02*
X83273540Y-111000000D01*
D29*
%TO.N,VCC*%
X66700000Y-99700000D02*
X61600000Y-99700000D01*
X67400000Y-99000000D02*
X69452957Y-99000000D01*
X69452957Y-99000000D02*
X69882602Y-98570355D01*
X86814853Y-92177040D02*
X85845592Y-91207779D01*
X67400000Y-99000000D02*
X66700000Y-99700000D01*
X88798080Y-92177040D02*
X86814853Y-92177040D01*
D27*
%TO.N,+BATT*%
X71000000Y-86600000D02*
X64300000Y-86600000D01*
X90160000Y-87900000D02*
X88860000Y-86600000D01*
X64300000Y-86600000D02*
X64200000Y-86700000D01*
%TO.N,/BATT_DIRECT*%
X54900000Y-112300000D02*
X55687500Y-111512500D01*
X61721900Y-104078100D02*
X83866779Y-104078100D01*
X55687500Y-111512500D02*
X58300000Y-111512500D01*
X58300000Y-111512500D02*
X60950000Y-111512500D01*
X61400000Y-104400000D02*
X61721900Y-104078100D01*
X60950000Y-111512500D02*
X62300000Y-112862500D01*
X83866779Y-104078100D02*
X84995899Y-102948980D01*
D28*
%TO.N,/VBATT_DIV*%
X67300000Y-106400000D02*
X67400000Y-106500000D01*
X67400000Y-106500000D02*
X72595903Y-106500000D01*
X72595903Y-106500000D02*
X72620403Y-106475500D01*
D27*
%TO.N,VBUS*%
X78300000Y-113554000D02*
X79067821Y-112786179D01*
X85700000Y-112800000D02*
X79700002Y-112800000D01*
X79067821Y-112786179D02*
X79686181Y-112786179D01*
X79700002Y-112800000D02*
X79686181Y-112786179D01*
D28*
%TO.N,Net-(U2-NRST)*%
X74932070Y-96700000D02*
X74900625Y-96731445D01*
X83300000Y-96700000D02*
X74932070Y-96700000D01*
%TO.N,Net-(D1-A)*%
X82100000Y-100700000D02*
X78500000Y-100700000D01*
X78500000Y-100700000D02*
X78100000Y-100300000D01*
D26*
%TO.N,/USB+*%
X73555643Y-111000000D02*
X73730184Y-111174541D01*
X73730184Y-111174541D02*
X73730184Y-110974768D01*
X70600000Y-111000000D02*
X73555643Y-111000000D01*
X73730184Y-110974768D02*
X73127708Y-110372292D01*
X70400000Y-111200000D02*
X70600000Y-111000000D01*
%TO.N,/USB-*%
X74000000Y-110500000D02*
X74501441Y-111001441D01*
X68400000Y-109000000D02*
X72500000Y-109000000D01*
X74501441Y-111001441D02*
X74501441Y-111470247D01*
X72500000Y-109000000D02*
X74000000Y-110500000D01*
D28*
%TO.N,/AUX0*%
X76924500Y-93875500D02*
X82300000Y-93875500D01*
X76600000Y-94200000D02*
X76924500Y-93875500D01*
%TO.N,/AUX1*%
X83648759Y-91321852D02*
X83911399Y-91584492D01*
X76100000Y-91800000D02*
X76578148Y-91321852D01*
X76578148Y-91321852D02*
X83648759Y-91321852D01*
%TO.N,/AUX2*%
X84852851Y-91022351D02*
X75801207Y-91022351D01*
X75299098Y-91524460D02*
X74992270Y-91524460D01*
X84900000Y-91069500D02*
X84852851Y-91022351D01*
X75801207Y-91022351D02*
X75299098Y-91524460D01*
%TO.N,/SWDIO*%
X81907076Y-96161150D02*
X86088220Y-96161150D01*
X80851849Y-95105923D02*
X81907076Y-96161150D01*
X86088220Y-96161150D02*
X86275500Y-96348430D01*
%TO.N,/BOOT0*%
X85816823Y-94400000D02*
X80600000Y-94400000D01*
X88365000Y-113425000D02*
X79575000Y-113425000D01*
X86916823Y-95500000D02*
X85816823Y-94400000D01*
X86950498Y-95500000D02*
X86916823Y-95500000D01*
X89440000Y-114500000D02*
X88365000Y-113425000D01*
X79575000Y-113425000D02*
X79450000Y-113550000D01*
%TO.N,Net-(J2-Pin_5)*%
X85125000Y-89075000D02*
X84800000Y-89400000D01*
X94065000Y-89075000D02*
X85125000Y-89075000D01*
X95240000Y-87900000D02*
X94065000Y-89075000D01*
%TO.N,Net-(U2-PB1)*%
X78500000Y-95300000D02*
X71900000Y-95300000D01*
X71900000Y-95300000D02*
X71800000Y-95200000D01*
%TO.N,/~{STDBY}*%
X77327991Y-102798588D02*
X77320661Y-102805918D01*
X83184948Y-103103735D02*
X82879801Y-102798588D01*
X82879801Y-102798588D02*
X77327991Y-102798588D01*
%TO.N,/~{CHRG}*%
X81997428Y-103323088D02*
X79000000Y-103323088D01*
%TO.N,Net-(U2-PB2)*%
X78975500Y-94724500D02*
X72066256Y-94724500D01*
X79100000Y-94600000D02*
X78975500Y-94724500D01*
X71941756Y-94600000D02*
X69900000Y-94600000D01*
X72066256Y-94724500D02*
X71941756Y-94600000D01*
%TO.N,/USART_RX*%
X77383394Y-104827600D02*
X76427930Y-104827600D01*
X76427930Y-104827600D02*
X75275234Y-105980296D01*
%TO.N,/USART_TX*%
X77238000Y-105700000D02*
X76413500Y-106524500D01*
X76413500Y-106524500D02*
X74908930Y-106524500D01*
X74908930Y-106524500D02*
X74548648Y-106164218D01*
%TO.N,Net-(U2-PA8)*%
X85700000Y-98900000D02*
X85500000Y-98700000D01*
X85500000Y-98700000D02*
X80700000Y-98700000D01*
%TO.N,/NSS*%
X77974480Y-102174480D02*
X76100000Y-100300000D01*
X88798080Y-102174480D02*
X77974480Y-102174480D01*
%TO.N,/SCK*%
X77224500Y-99775500D02*
X76900000Y-100100000D01*
X88798080Y-100172960D02*
X78714716Y-100172960D01*
X78714716Y-100172960D02*
X78317256Y-99775500D01*
X78317256Y-99775500D02*
X77224500Y-99775500D01*
%TO.N,/MISO*%
X73801920Y-102174480D02*
X76174480Y-102174480D01*
X76174480Y-102174480D02*
X76600000Y-102600000D01*
%TO.N,/MOSI*%
X77926020Y-98173980D02*
X88798080Y-98173980D01*
X77700000Y-98400000D02*
X77926020Y-98173980D01*
%TO.N,/DIO0*%
X74674880Y-99300000D02*
X84200000Y-99300000D01*
X73801920Y-100172960D02*
X74674880Y-99300000D01*
%TO.N,/INTERNAL_LED*%
X77818027Y-91846352D02*
X77770878Y-91893501D01*
X82864299Y-91846352D02*
X77818027Y-91846352D01*
%TO.N,Net-(R3-Pad2)*%
X69800000Y-90900000D02*
X70700000Y-91800000D01*
X67700000Y-90900000D02*
X69800000Y-90900000D01*
X65400000Y-92000000D02*
X66600000Y-92000000D01*
X66600000Y-92000000D02*
X67700000Y-90900000D01*
D30*
%TO.N,/ANTENNA_UFL*%
X92300000Y-93722500D02*
X92300000Y-92600000D01*
D27*
X92300000Y-92100000D02*
X92300000Y-92600000D01*
D30*
X92552499Y-93974999D02*
X92300000Y-93722500D01*
%TO.N,Net-(JP2-A)*%
X88822560Y-90200000D02*
X90900000Y-90200000D01*
X90900000Y-90200000D02*
X91850000Y-90200000D01*
X91850000Y-90200000D02*
X92300000Y-90650000D01*
X88798080Y-90175520D02*
X88822560Y-90200000D01*
%TD*%
%TA.AperFunction,Conductor*%
%TO.N,GND*%
G36*
X91414794Y-94219685D02*
G01*
X91456173Y-94263820D01*
X91472773Y-94293727D01*
X91474592Y-94297003D01*
X91494404Y-94320081D01*
X91503856Y-94332616D01*
X91527537Y-94368548D01*
X91526588Y-94369172D01*
X91553865Y-94419125D01*
X91556699Y-94445482D01*
X91556699Y-94540259D01*
X91556699Y-94540277D01*
X91556700Y-94543571D01*
X91557052Y-94546851D01*
X91557053Y-94546858D01*
X91563108Y-94603183D01*
X91587658Y-94669005D01*
X91613403Y-94738030D01*
X91699653Y-94853245D01*
X91814868Y-94939495D01*
X91949716Y-94989790D01*
X92009326Y-94996199D01*
X93095671Y-94996198D01*
X93155282Y-94989790D01*
X93290130Y-94939495D01*
X93405345Y-94853245D01*
X93491595Y-94738030D01*
X93541890Y-94603182D01*
X93548299Y-94543572D01*
X93548298Y-94323999D01*
X93567982Y-94256961D01*
X93620786Y-94211206D01*
X93672298Y-94200000D01*
X94337789Y-94200000D01*
X94361980Y-94202383D01*
X94421480Y-94214218D01*
X94466175Y-94232730D01*
X94506272Y-94259522D01*
X94540477Y-94293727D01*
X94567267Y-94333822D01*
X94585781Y-94378519D01*
X94597616Y-94438019D01*
X94599999Y-94462210D01*
X94599999Y-116237789D01*
X94597616Y-116261980D01*
X94585781Y-116321480D01*
X94567267Y-116366179D01*
X94540481Y-116406268D01*
X94506269Y-116440479D01*
X94471975Y-116463394D01*
X94466179Y-116467267D01*
X94421482Y-116485781D01*
X94391578Y-116491729D01*
X94364491Y-116497117D01*
X94340303Y-116499500D01*
X86859697Y-116499500D01*
X86835507Y-116497117D01*
X86817334Y-116493502D01*
X86778518Y-116485781D01*
X86733822Y-116467267D01*
X86693727Y-116440477D01*
X86659522Y-116406272D01*
X86632730Y-116366175D01*
X86614218Y-116321480D01*
X86602383Y-116261980D01*
X86600000Y-116237789D01*
X86600000Y-115964734D01*
X86619685Y-115897695D01*
X86672489Y-115851940D01*
X86734807Y-115841206D01*
X86900000Y-115855659D01*
X87135408Y-115835063D01*
X87363663Y-115773903D01*
X87577830Y-115674035D01*
X87771401Y-115538495D01*
X87938495Y-115371401D01*
X88068427Y-115185838D01*
X88123001Y-115142216D01*
X88192499Y-115135022D01*
X88254854Y-115166545D01*
X88271572Y-115185838D01*
X88401505Y-115371401D01*
X88568599Y-115538495D01*
X88762170Y-115674035D01*
X88976337Y-115773903D01*
X89204592Y-115835062D01*
X89204592Y-115835063D01*
X89439999Y-115855659D01*
X89439999Y-115855658D01*
X89440000Y-115855659D01*
X89675408Y-115835063D01*
X89903663Y-115773903D01*
X90117830Y-115674035D01*
X90311401Y-115538495D01*
X90478495Y-115371401D01*
X90614035Y-115177830D01*
X90713903Y-114963663D01*
X90775063Y-114735408D01*
X90795659Y-114500000D01*
X90775063Y-114264592D01*
X90713903Y-114036337D01*
X90614035Y-113822171D01*
X90478495Y-113628599D01*
X90311401Y-113461505D01*
X90117830Y-113325965D01*
X89903663Y-113226097D01*
X89825431Y-113205135D01*
X89675407Y-113164936D01*
X89440000Y-113144340D01*
X89204591Y-113164936D01*
X89048357Y-113206798D01*
X88978508Y-113205135D01*
X88928584Y-113174704D01*
X88804360Y-113050480D01*
X88793666Y-113038286D01*
X88775452Y-113014549D01*
X88745271Y-112991391D01*
X88745268Y-112991388D01*
X88661679Y-112927248D01*
X88656759Y-112922933D01*
X88515236Y-112864313D01*
X88402732Y-112849501D01*
X88402708Y-112849499D01*
X88365000Y-112844534D01*
X88335345Y-112848439D01*
X88319160Y-112849500D01*
X86724000Y-112849500D01*
X86656961Y-112829815D01*
X86611206Y-112777011D01*
X86600000Y-112725500D01*
X86600000Y-108567764D01*
X87645787Y-108567764D01*
X87675413Y-108837016D01*
X87743928Y-109099087D01*
X87849871Y-109348392D01*
X87990982Y-109579611D01*
X88080253Y-109686881D01*
X88164255Y-109787820D01*
X88365998Y-109968582D01*
X88591910Y-110118044D01*
X88698211Y-110167876D01*
X88837177Y-110233021D01*
X89096562Y-110311058D01*
X89096569Y-110311060D01*
X89364561Y-110350500D01*
X89364564Y-110350500D01*
X89565369Y-110350500D01*
X89567631Y-110350500D01*
X89770156Y-110335677D01*
X90034553Y-110276780D01*
X90287558Y-110180014D01*
X90523777Y-110047441D01*
X90738177Y-109881888D01*
X90926186Y-109686881D01*
X91083799Y-109466579D01*
X91207656Y-109225675D01*
X91295118Y-108969305D01*
X91344319Y-108702933D01*
X91354212Y-108432235D01*
X91324586Y-108162982D01*
X91256072Y-107900912D01*
X91150130Y-107651610D01*
X91009018Y-107420390D01*
X91009017Y-107420388D01*
X90835746Y-107212181D01*
X90730759Y-107118112D01*
X90634002Y-107031418D01*
X90408090Y-106881956D01*
X90408086Y-106881954D01*
X90162822Y-106766978D01*
X89903437Y-106688941D01*
X89903431Y-106688940D01*
X89635439Y-106649500D01*
X89432369Y-106649500D01*
X89430120Y-106649664D01*
X89430109Y-106649665D01*
X89229843Y-106664322D01*
X88965449Y-106723219D01*
X88712441Y-106819986D01*
X88476223Y-106952559D01*
X88261825Y-107118109D01*
X88073813Y-107313120D01*
X87916201Y-107533420D01*
X87792342Y-107774329D01*
X87704881Y-108030695D01*
X87655680Y-108297066D01*
X87645787Y-108567764D01*
X86600000Y-108567764D01*
X86600000Y-103021425D01*
X86619685Y-102954386D01*
X86672489Y-102908631D01*
X86741647Y-102898687D01*
X86805203Y-102927712D01*
X86840181Y-102978090D01*
X86854414Y-103016251D01*
X86940664Y-103131466D01*
X87055879Y-103217716D01*
X87190727Y-103268011D01*
X87250337Y-103274420D01*
X90345822Y-103274419D01*
X90405433Y-103268011D01*
X90540281Y-103217716D01*
X90655496Y-103131466D01*
X90741746Y-103016251D01*
X90792041Y-102881403D01*
X90798450Y-102821793D01*
X90798449Y-101527168D01*
X90792041Y-101467557D01*
X90741746Y-101332709D01*
X90678353Y-101248028D01*
X90653938Y-101182567D01*
X90668789Y-101114294D01*
X90678348Y-101099418D01*
X90741746Y-101014731D01*
X90792041Y-100879883D01*
X90798450Y-100820273D01*
X90798449Y-99525648D01*
X90792041Y-99466037D01*
X90741746Y-99331189D01*
X90679305Y-99247779D01*
X90654889Y-99182317D01*
X90669740Y-99114044D01*
X90679301Y-99099165D01*
X90741746Y-99015751D01*
X90792041Y-98880903D01*
X90798450Y-98821293D01*
X90798449Y-97526668D01*
X90792041Y-97467057D01*
X90741746Y-97332209D01*
X90655496Y-97216994D01*
X90540281Y-97130744D01*
X90405433Y-97080449D01*
X90345823Y-97074040D01*
X90342500Y-97074040D01*
X87253649Y-97074040D01*
X87253630Y-97074040D01*
X87250338Y-97074041D01*
X87247058Y-97074393D01*
X87247050Y-97074394D01*
X87190725Y-97080449D01*
X87055879Y-97130744D01*
X86940664Y-97216994D01*
X86854413Y-97332211D01*
X86840180Y-97370370D01*
X86798308Y-97426303D01*
X86732844Y-97450719D01*
X86664571Y-97435866D01*
X86615166Y-97386461D01*
X86600000Y-97327038D01*
X86599999Y-97158470D01*
X86619684Y-97091435D01*
X86658025Y-97053481D01*
X86777762Y-96978246D01*
X86905316Y-96850692D01*
X87001289Y-96697952D01*
X87060868Y-96527685D01*
X87077740Y-96377939D01*
X87104806Y-96313526D01*
X87160003Y-96274783D01*
X87300020Y-96225789D01*
X87452760Y-96129816D01*
X87580314Y-96002262D01*
X87676287Y-95849522D01*
X87735866Y-95679255D01*
X87756063Y-95500000D01*
X87735866Y-95320745D01*
X87676287Y-95150478D01*
X87580314Y-94997738D01*
X87580313Y-94997737D01*
X87580312Y-94997735D01*
X87452762Y-94870185D01*
X87390365Y-94830978D01*
X87300020Y-94774211D01*
X87129753Y-94714632D01*
X87129751Y-94714631D01*
X87129749Y-94714631D01*
X86965033Y-94696072D01*
X86900619Y-94669005D01*
X86891236Y-94660533D01*
X86678576Y-94447873D01*
X86645091Y-94386550D01*
X86650075Y-94316858D01*
X86691947Y-94260925D01*
X86697352Y-94257100D01*
X86733822Y-94232732D01*
X86778514Y-94214219D01*
X86838028Y-94202381D01*
X86862211Y-94200000D01*
X91347755Y-94200000D01*
X91414794Y-94219685D01*
G37*
%TD.AperFunction*%
%TD*%
M02*
