%TF.GenerationSoftware,KiCad,Pcbnew,6.0.5-a6ca702e91~116~ubuntu20.04.1*%
%TF.CreationDate,2022-06-29T22:37:49-06:00*%
%TF.ProjectId,fancy-node,66616e63-792d-46e6-9f64-652e6b696361,rev?*%
%TF.SameCoordinates,Original*%
%TF.FileFunction,Soldermask,Bot*%
%TF.FilePolarity,Negative*%
%FSLAX46Y46*%
G04 Gerber Fmt 4.6, Leading zero omitted, Abs format (unit mm)*
G04 Created by KiCad (PCBNEW 6.0.5-a6ca702e91~116~ubuntu20.04.1) date 2022-06-29 22:37:49*
%MOMM*%
%LPD*%
G01*
G04 APERTURE LIST*
G04 Aperture macros list*
%AMRoundRect*
0 Rectangle with rounded corners*
0 $1 Rounding radius*
0 $2 $3 $4 $5 $6 $7 $8 $9 X,Y pos of 4 corners*
0 Add a 4 corners polygon primitive as box body*
4,1,4,$2,$3,$4,$5,$6,$7,$8,$9,$2,$3,0*
0 Add four circle primitives for the rounded corners*
1,1,$1+$1,$2,$3*
1,1,$1+$1,$4,$5*
1,1,$1+$1,$6,$7*
1,1,$1+$1,$8,$9*
0 Add four rect primitives between the rounded corners*
20,1,$1+$1,$2,$3,$4,$5,0*
20,1,$1+$1,$4,$5,$6,$7,0*
20,1,$1+$1,$6,$7,$8,$9,0*
20,1,$1+$1,$8,$9,$2,$3,0*%
G04 Aperture macros list end*
%ADD10C,1.650000*%
%ADD11RoundRect,0.500000X-0.500000X-1.250000X0.500000X-1.250000X0.500000X1.250000X-0.500000X1.250000X0*%
%ADD12C,1.800000*%
%ADD13C,3.200000*%
%ADD14R,1.700000X1.700000*%
%ADD15O,1.700000X1.700000*%
%ADD16C,1.408000*%
%ADD17C,1.700000*%
%ADD18R,1.198880X2.999740*%
G04 APERTURE END LIST*
D10*
%TO.C,SW3*%
X42000000Y-99350000D03*
X42000000Y-96850000D03*
X44000000Y-99350000D03*
X44000000Y-96850000D03*
X46000000Y-99350000D03*
X46000000Y-96850000D03*
D11*
X51050000Y-98100000D03*
X36950000Y-98100000D03*
%TD*%
D12*
%TO.C,H5*%
X75000000Y-100100000D03*
X77540000Y-100100000D03*
X72460000Y-100100000D03*
%TD*%
D13*
%TO.C,H3*%
X30300000Y-98000000D03*
%TD*%
D14*
%TO.C,J1*%
X64500000Y-66600000D03*
D15*
X67040000Y-66600000D03*
X69580000Y-66600000D03*
X72120000Y-66600000D03*
X74660000Y-66600000D03*
X77200000Y-66600000D03*
%TD*%
D13*
%TO.C,H1*%
X83200000Y-97800000D03*
%TD*%
%TO.C,H2*%
X83500000Y-68000000D03*
%TD*%
D14*
%TO.C,J5*%
X77525000Y-91725000D03*
D15*
X74985000Y-91725000D03*
X72445000Y-91725000D03*
%TD*%
D14*
%TO.C,J3*%
X85000000Y-92100000D03*
D15*
X85000000Y-89560000D03*
X85000000Y-87020000D03*
X85000000Y-84480000D03*
%TD*%
D16*
%TO.C,J4*%
X60600000Y-97700000D03*
X65600000Y-97700000D03*
D12*
X59600000Y-100400000D03*
X66600000Y-100400000D03*
%TD*%
D14*
%TO.C,J2*%
X29100000Y-93300000D03*
D17*
X29100000Y-90760000D03*
X29100000Y-88220000D03*
%TD*%
D18*
%TO.C,U6*%
X46500520Y-66401920D03*
X48502040Y-66401920D03*
X50501020Y-66401920D03*
X54498980Y-66401920D03*
X56497960Y-66401920D03*
X58499480Y-66401920D03*
X58499480Y-81398080D03*
X56497960Y-81398080D03*
X46500520Y-81398080D03*
%TD*%
M02*
