%TF.GenerationSoftware,KiCad,Pcbnew,7.0.6-7.0.6~ubuntu22.04.1*%
%TF.CreationDate,2023-07-30T10:17:08-06:00*%
%TF.ProjectId,fancy-node,66616e63-792d-46e6-9f64-652e6b696361,rev?*%
%TF.SameCoordinates,Original*%
%TF.FileFunction,Copper,L1,Top*%
%TF.FilePolarity,Positive*%
%FSLAX46Y46*%
G04 Gerber Fmt 4.6, Leading zero omitted, Abs format (unit mm)*
G04 Created by KiCad (PCBNEW 7.0.6-7.0.6~ubuntu22.04.1) date 2023-07-30 10:17:08*
%MOMM*%
%LPD*%
G01*
G04 APERTURE LIST*
G04 Aperture macros list*
%AMRoundRect*
0 Rectangle with rounded corners*
0 $1 Rounding radius*
0 $2 $3 $4 $5 $6 $7 $8 $9 X,Y pos of 4 corners*
0 Add a 4 corners polygon primitive as box body*
4,1,4,$2,$3,$4,$5,$6,$7,$8,$9,$2,$3,0*
0 Add four circle primitives for the rounded corners*
1,1,$1+$1,$2,$3*
1,1,$1+$1,$4,$5*
1,1,$1+$1,$6,$7*
1,1,$1+$1,$8,$9*
0 Add four rect primitives between the rounded corners*
20,1,$1+$1,$2,$3,$4,$5,0*
20,1,$1+$1,$4,$5,$6,$7,0*
20,1,$1+$1,$6,$7,$8,$9,0*
20,1,$1+$1,$8,$9,$2,$3,0*%
%AMFreePoly0*
4,1,9,3.862500,-0.866500,0.737500,-0.866500,0.737500,-0.450000,-0.737500,-0.450000,-0.737500,0.450000,0.737500,0.450000,0.737500,0.866500,3.862500,0.866500,3.862500,-0.866500,3.862500,-0.866500,$1*%
G04 Aperture macros list end*
%TA.AperFunction,SMDPad,CuDef*%
%ADD10RoundRect,0.135000X0.185000X-0.135000X0.185000X0.135000X-0.185000X0.135000X-0.185000X-0.135000X0*%
%TD*%
%TA.AperFunction,SMDPad,CuDef*%
%ADD11R,0.900000X1.250000*%
%TD*%
%TA.AperFunction,SMDPad,CuDef*%
%ADD12RoundRect,0.225000X-0.225000X-0.250000X0.225000X-0.250000X0.225000X0.250000X-0.225000X0.250000X0*%
%TD*%
%TA.AperFunction,SMDPad,CuDef*%
%ADD13RoundRect,0.075000X-0.662500X-0.075000X0.662500X-0.075000X0.662500X0.075000X-0.662500X0.075000X0*%
%TD*%
%TA.AperFunction,SMDPad,CuDef*%
%ADD14RoundRect,0.075000X-0.075000X-0.662500X0.075000X-0.662500X0.075000X0.662500X-0.075000X0.662500X0*%
%TD*%
%TA.AperFunction,SMDPad,CuDef*%
%ADD15RoundRect,0.155000X0.212500X0.155000X-0.212500X0.155000X-0.212500X-0.155000X0.212500X-0.155000X0*%
%TD*%
%TA.AperFunction,SMDPad,CuDef*%
%ADD16RoundRect,0.225000X-0.250000X0.225000X-0.250000X-0.225000X0.250000X-0.225000X0.250000X0.225000X0*%
%TD*%
%TA.AperFunction,SMDPad,CuDef*%
%ADD17RoundRect,0.155000X0.155000X-0.212500X0.155000X0.212500X-0.155000X0.212500X-0.155000X-0.212500X0*%
%TD*%
%TA.AperFunction,SMDPad,CuDef*%
%ADD18RoundRect,0.200000X0.275000X-0.200000X0.275000X0.200000X-0.275000X0.200000X-0.275000X-0.200000X0*%
%TD*%
%TA.AperFunction,SMDPad,CuDef*%
%ADD19R,0.400000X1.350000*%
%TD*%
%TA.AperFunction,ComponentPad*%
%ADD20C,1.408000*%
%TD*%
%TA.AperFunction,SMDPad,CuDef*%
%ADD21R,1.500000X1.550000*%
%TD*%
%TA.AperFunction,ComponentPad*%
%ADD22C,1.800000*%
%TD*%
%TA.AperFunction,SMDPad,CuDef*%
%ADD23RoundRect,0.218750X-0.218750X-0.256250X0.218750X-0.256250X0.218750X0.256250X-0.218750X0.256250X0*%
%TD*%
%TA.AperFunction,SMDPad,CuDef*%
%ADD24RoundRect,0.135000X-0.135000X-0.185000X0.135000X-0.185000X0.135000X0.185000X-0.135000X0.185000X0*%
%TD*%
%TA.AperFunction,SMDPad,CuDef*%
%ADD25R,0.300000X1.400000*%
%TD*%
%TA.AperFunction,SMDPad,CuDef*%
%ADD26RoundRect,0.218750X0.218750X0.256250X-0.218750X0.256250X-0.218750X-0.256250X0.218750X-0.256250X0*%
%TD*%
%TA.AperFunction,SMDPad,CuDef*%
%ADD27R,1.500000X0.900000*%
%TD*%
%TA.AperFunction,SMDPad,CuDef*%
%ADD28RoundRect,0.135000X0.135000X0.185000X-0.135000X0.185000X-0.135000X-0.185000X0.135000X-0.185000X0*%
%TD*%
%TA.AperFunction,SMDPad,CuDef*%
%ADD29RoundRect,0.200000X-0.275000X0.200000X-0.275000X-0.200000X0.275000X-0.200000X0.275000X0.200000X0*%
%TD*%
%TA.AperFunction,SMDPad,CuDef*%
%ADD30RoundRect,0.250000X-0.650000X0.325000X-0.650000X-0.325000X0.650000X-0.325000X0.650000X0.325000X0*%
%TD*%
%TA.AperFunction,SMDPad,CuDef*%
%ADD31RoundRect,0.150000X0.150000X-0.675000X0.150000X0.675000X-0.150000X0.675000X-0.150000X-0.675000X0*%
%TD*%
%TA.AperFunction,SMDPad,CuDef*%
%ADD32R,3.800000X2.700000*%
%TD*%
%TA.AperFunction,SMDPad,CuDef*%
%ADD33RoundRect,0.250000X-1.000000X-0.650000X1.000000X-0.650000X1.000000X0.650000X-1.000000X0.650000X0*%
%TD*%
%TA.AperFunction,SMDPad,CuDef*%
%ADD34RoundRect,0.250000X-0.325000X-0.650000X0.325000X-0.650000X0.325000X0.650000X-0.325000X0.650000X0*%
%TD*%
%TA.AperFunction,SMDPad,CuDef*%
%ADD35RoundRect,0.147500X-0.147500X-0.172500X0.147500X-0.172500X0.147500X0.172500X-0.147500X0.172500X0*%
%TD*%
%TA.AperFunction,SMDPad,CuDef*%
%ADD36RoundRect,0.200000X0.200000X0.275000X-0.200000X0.275000X-0.200000X-0.275000X0.200000X-0.275000X0*%
%TD*%
%TA.AperFunction,SMDPad,CuDef*%
%ADD37RoundRect,0.155000X-0.155000X0.212500X-0.155000X-0.212500X0.155000X-0.212500X0.155000X0.212500X0*%
%TD*%
%TA.AperFunction,SMDPad,CuDef*%
%ADD38RoundRect,0.250000X1.000000X0.900000X-1.000000X0.900000X-1.000000X-0.900000X1.000000X-0.900000X0*%
%TD*%
%TA.AperFunction,SMDPad,CuDef*%
%ADD39RoundRect,0.225000X0.250000X-0.225000X0.250000X0.225000X-0.250000X0.225000X-0.250000X-0.225000X0*%
%TD*%
%TA.AperFunction,SMDPad,CuDef*%
%ADD40RoundRect,0.250000X0.900000X-1.000000X0.900000X1.000000X-0.900000X1.000000X-0.900000X-1.000000X0*%
%TD*%
%TA.AperFunction,SMDPad,CuDef*%
%ADD41RoundRect,0.250000X-1.450000X0.400000X-1.450000X-0.400000X1.450000X-0.400000X1.450000X0.400000X0*%
%TD*%
%TA.AperFunction,SMDPad,CuDef*%
%ADD42RoundRect,0.135000X-0.185000X0.135000X-0.185000X-0.135000X0.185000X-0.135000X0.185000X0.135000X0*%
%TD*%
%TA.AperFunction,SMDPad,CuDef*%
%ADD43R,0.900000X1.300000*%
%TD*%
%TA.AperFunction,SMDPad,CuDef*%
%ADD44FreePoly0,90.000000*%
%TD*%
%TA.AperFunction,SMDPad,CuDef*%
%ADD45R,1.250000X0.900000*%
%TD*%
%TA.AperFunction,SMDPad,CuDef*%
%ADD46RoundRect,0.150000X-0.150000X0.512500X-0.150000X-0.512500X0.150000X-0.512500X0.150000X0.512500X0*%
%TD*%
%TA.AperFunction,SMDPad,CuDef*%
%ADD47RoundRect,0.155000X-0.212500X-0.155000X0.212500X-0.155000X0.212500X0.155000X-0.212500X0.155000X0*%
%TD*%
%TA.AperFunction,ComponentPad*%
%ADD48R,1.700000X1.700000*%
%TD*%
%TA.AperFunction,ComponentPad*%
%ADD49O,1.700000X1.700000*%
%TD*%
%TA.AperFunction,ComponentPad*%
%ADD50R,1.800000X1.800000*%
%TD*%
%TA.AperFunction,ComponentPad*%
%ADD51R,1.000000X1.000000*%
%TD*%
%TA.AperFunction,ComponentPad*%
%ADD52C,1.000000*%
%TD*%
%TA.AperFunction,ComponentPad*%
%ADD53C,1.700000*%
%TD*%
%TA.AperFunction,ViaPad*%
%ADD54C,0.600000*%
%TD*%
%TA.AperFunction,ViaPad*%
%ADD55C,1.000000*%
%TD*%
%TA.AperFunction,ViaPad*%
%ADD56C,0.800000*%
%TD*%
%TA.AperFunction,Conductor*%
%ADD57C,0.150000*%
%TD*%
%TA.AperFunction,Conductor*%
%ADD58C,0.250000*%
%TD*%
%TA.AperFunction,Conductor*%
%ADD59C,0.500000*%
%TD*%
%TA.AperFunction,Conductor*%
%ADD60C,0.200000*%
%TD*%
%TA.AperFunction,Conductor*%
%ADD61C,1.000000*%
%TD*%
%TA.AperFunction,Conductor*%
%ADD62C,0.130000*%
%TD*%
%TA.AperFunction,Conductor*%
%ADD63C,0.750000*%
%TD*%
G04 APERTURE END LIST*
D10*
%TO.P,R2,1*%
%TO.N,/SW1*%
X79000000Y-90610000D03*
%TO.P,R2,2*%
%TO.N,Net-(R2-Pad2)*%
X79000000Y-89590000D03*
%TD*%
D11*
%TO.P,SW2,1,1*%
%TO.N,Net-(R3-Pad2)*%
X65400000Y-90825000D03*
X65400000Y-86975000D03*
%TO.P,SW2,2,2*%
%TO.N,GND*%
X66900000Y-90825000D03*
X66900000Y-86975000D03*
%TD*%
D10*
%TO.P,R15,1*%
%TO.N,VBUS*%
X79900000Y-104120000D03*
%TO.P,R15,2*%
%TO.N,Net-(U6-CE)*%
X79900000Y-103100000D03*
%TD*%
D12*
%TO.P,C8,1*%
%TO.N,GND*%
X64225000Y-102350000D03*
%TO.P,C8,2*%
%TO.N,+BATT*%
X65775000Y-102350000D03*
%TD*%
D13*
%TO.P,U7,1,PC13*%
%TO.N,unconnected-(U7-PC13-Pad1)*%
X73737500Y-94500000D03*
%TO.P,U7,2,PC14*%
%TO.N,unconnected-(U7-PC14-Pad2)*%
X73737500Y-95000000D03*
%TO.P,U7,3,PC15*%
%TO.N,unconnected-(U7-PC15-Pad3)*%
X73737500Y-95500000D03*
%TO.P,U7,4,VBAT*%
%TO.N,unconnected-(U7-VBAT-Pad4)*%
X73737500Y-96000000D03*
%TO.P,U7,5,VREF+*%
%TO.N,VCC*%
X73737500Y-96500000D03*
%TO.P,U7,6,VDD*%
X73737500Y-97000000D03*
%TO.P,U7,7,VSS*%
%TO.N,GND*%
X73737500Y-97500000D03*
%TO.P,U7,8,PF0*%
%TO.N,unconnected-(U7-PF0-Pad8)*%
X73737500Y-98000000D03*
%TO.P,U7,9,PF1*%
%TO.N,unconnected-(U7-PF1-Pad9)*%
X73737500Y-98500000D03*
%TO.P,U7,10,NRST*%
%TO.N,Net-(U7-NRST)*%
X73737500Y-99000000D03*
%TO.P,U7,11,PA0*%
%TO.N,/AUX2*%
X73737500Y-99500000D03*
%TO.P,U7,12,PA1*%
%TO.N,/VBATT_DIV*%
X73737500Y-100000000D03*
D14*
%TO.P,U7,13,PA2*%
%TO.N,/USART_TX*%
X75150000Y-101412500D03*
%TO.P,U7,14,PA3*%
%TO.N,/USART_RX*%
X75650000Y-101412500D03*
%TO.P,U7,15,PA4*%
%TO.N,/NSS*%
X76150000Y-101412500D03*
%TO.P,U7,16,PA5*%
%TO.N,/SCK*%
X76650000Y-101412500D03*
%TO.P,U7,17,PA6*%
%TO.N,/MISO*%
X77150000Y-101412500D03*
%TO.P,U7,18,PA7*%
%TO.N,/MOSI*%
X77650000Y-101412500D03*
%TO.P,U7,19,PB0*%
%TO.N,/LED*%
X78150000Y-101412500D03*
%TO.P,U7,20,PB1*%
%TO.N,unconnected-(U7-PB1-Pad20)*%
X78650000Y-101412500D03*
%TO.P,U7,21,PB2*%
%TO.N,unconnected-(U7-PB2-Pad21)*%
X79150000Y-101412500D03*
%TO.P,U7,22,PB10*%
%TO.N,unconnected-(U7-PB10-Pad22)*%
X79650000Y-101412500D03*
%TO.P,U7,23,PB11*%
%TO.N,unconnected-(U7-PB11-Pad23)*%
X80150000Y-101412500D03*
%TO.P,U7,24,PB12*%
%TO.N,unconnected-(U7-PB12-Pad24)*%
X80650000Y-101412500D03*
D13*
%TO.P,U7,25,PB13*%
%TO.N,unconnected-(U7-PB13-Pad25)*%
X82062500Y-100000000D03*
%TO.P,U7,26,PB14*%
%TO.N,unconnected-(U7-PB14-Pad26)*%
X82062500Y-99500000D03*
%TO.P,U7,27,PB15*%
%TO.N,unconnected-(U7-PB15-Pad27)*%
X82062500Y-99000000D03*
%TO.P,U7,28,PA8*%
%TO.N,Net-(U7-PA8)*%
X82062500Y-98500000D03*
%TO.P,U7,29,PA9/NC*%
%TO.N,unconnected-(U7-PA9{slash}NC-Pad29)*%
X82062500Y-98000000D03*
%TO.P,U7,30,PC6*%
%TO.N,unconnected-(U7-PC6-Pad30)*%
X82062500Y-97500000D03*
%TO.P,U7,31,PC7*%
%TO.N,unconnected-(U7-PC7-Pad31)*%
X82062500Y-97000000D03*
%TO.P,U7,32,PA10/NC*%
%TO.N,/INTERNAL_LED*%
X82062500Y-96500000D03*
%TO.P,U7,33,PA11/PA9*%
%TO.N,unconnected-(U7-PA11{slash}PA9-Pad33)*%
X82062500Y-96000000D03*
%TO.P,U7,34,PA12/PA10*%
%TO.N,unconnected-(U7-PA12{slash}PA10-Pad34)*%
X82062500Y-95500000D03*
%TO.P,U7,35,PA13*%
%TO.N,/SWDIO*%
X82062500Y-95000000D03*
%TO.P,U7,36,PA14*%
%TO.N,/BOOT0*%
X82062500Y-94500000D03*
D14*
%TO.P,U7,37,PA15*%
%TO.N,unconnected-(U7-PA15-Pad37)*%
X80650000Y-93087500D03*
%TO.P,U7,38,PD0*%
%TO.N,/SW1*%
X80150000Y-93087500D03*
%TO.P,U7,39,PD1*%
%TO.N,/SW2*%
X79650000Y-93087500D03*
%TO.P,U7,40,PD2*%
%TO.N,unconnected-(U7-PD2-Pad40)*%
X79150000Y-93087500D03*
%TO.P,U7,41,PD3*%
%TO.N,unconnected-(U7-PD3-Pad41)*%
X78650000Y-93087500D03*
%TO.P,U7,42,PB3*%
%TO.N,unconnected-(U7-PB3-Pad42)*%
X78150000Y-93087500D03*
%TO.P,U7,43,PB4*%
%TO.N,unconnected-(U7-PB4-Pad43)*%
X77650000Y-93087500D03*
%TO.P,U7,44,PB5*%
%TO.N,unconnected-(U7-PB5-Pad44)*%
X77150000Y-93087500D03*
%TO.P,U7,45,PB6*%
%TO.N,/AUX0*%
X76650000Y-93087500D03*
%TO.P,U7,46,PB7*%
%TO.N,/AUX1*%
X76150000Y-93087500D03*
%TO.P,U7,47,PB8*%
%TO.N,unconnected-(U7-PB8-Pad47)*%
X75650000Y-93087500D03*
%TO.P,U7,48,PB9*%
%TO.N,unconnected-(U7-PB9-Pad48)*%
X75150000Y-93087500D03*
%TD*%
D15*
%TO.P,C1,1*%
%TO.N,GND*%
X74767500Y-103300000D03*
%TO.P,C1,2*%
%TO.N,VCC*%
X73632500Y-103300000D03*
%TD*%
D16*
%TO.P,C11,1*%
%TO.N,GND*%
X57500000Y-102975000D03*
%TO.P,C11,2*%
%TO.N,/BATT_DIRECT*%
X57500000Y-104525000D03*
%TD*%
D17*
%TO.P,C9,1*%
%TO.N,/VBATT_DIV*%
X65400000Y-105300000D03*
%TO.P,C9,2*%
%TO.N,GND*%
X65400000Y-104165000D03*
%TD*%
D18*
%TO.P,R11,1*%
%TO.N,/VBATT_DIV*%
X64000000Y-105475000D03*
%TO.P,R11,2*%
%TO.N,GND*%
X64000000Y-103825000D03*
%TD*%
D19*
%TO.P,J1,1,VBUS*%
%TO.N,VBUS*%
X73750000Y-112425000D03*
%TO.P,J1,2,D-*%
%TO.N,/USB-*%
X74400000Y-112425000D03*
%TO.P,J1,3,D+*%
%TO.N,/USB+*%
X75050000Y-112425000D03*
%TO.P,J1,4,ID*%
%TO.N,unconnected-(J1-ID-Pad4)*%
X75700000Y-112425000D03*
%TO.P,J1,5,GND*%
%TO.N,GND*%
X76350000Y-112425000D03*
D20*
%TO.P,J1,P$6*%
%TO.N,N/C*%
X72550000Y-112400000D03*
%TO.P,J1,P$7*%
X77550000Y-112400000D03*
D21*
%TO.P,J1,P$10*%
X74050000Y-115100000D03*
%TO.P,J1,P$11*%
X76050000Y-115100000D03*
D22*
%TO.P,J1,P$12*%
X71550000Y-115100000D03*
D21*
X72000000Y-115100000D03*
%TO.P,J1,P$13*%
X78100000Y-115100000D03*
D22*
X78550000Y-115100000D03*
%TD*%
D23*
%TO.P,D6,1,K*%
%TO.N,Net-(D6-K)*%
X78125000Y-105500000D03*
%TO.P,D6,2,A*%
%TO.N,VBUS*%
X79700000Y-105500000D03*
%TD*%
D24*
%TO.P,R6,1*%
%TO.N,/AUX1*%
X83780000Y-90300000D03*
%TO.P,R6,2*%
%TO.N,Net-(J2-Pin_5)*%
X84800000Y-90300000D03*
%TD*%
D25*
%TO.P,U1,1,UD+*%
%TO.N,/USB+*%
X73600000Y-109400000D03*
%TO.P,U1,2,UD-*%
%TO.N,/USB-*%
X74100000Y-109400000D03*
%TO.P,U1,3,GND*%
%TO.N,GND*%
X74600000Y-109400000D03*
%TO.P,U1,4,~{RTS}*%
%TO.N,/~{RTS}*%
X75100000Y-109400000D03*
%TO.P,U1,5,~{CTS}*%
%TO.N,unconnected-(U1-~{CTS}-Pad5)*%
X75600000Y-109400000D03*
%TO.P,U1,6,TNOW/~{DTR}*%
%TO.N,Net-(U1-TNOW{slash}~{DTR})*%
X75600000Y-105000000D03*
%TO.P,U1,7,VCC*%
%TO.N,VCC*%
X75100000Y-105000000D03*
%TO.P,U1,8,TXD*%
%TO.N,Net-(U1-TXD)*%
X74600000Y-105000000D03*
%TO.P,U1,9,RXD*%
%TO.N,Net-(U1-RXD)*%
X74100000Y-105000000D03*
%TO.P,U1,10,V3*%
%TO.N,VCC*%
X73600000Y-105000000D03*
%TD*%
D26*
%TO.P,D1,1,K*%
%TO.N,Net-(D1-K)*%
X83900000Y-102400000D03*
%TO.P,D1,2,A*%
%TO.N,/LED*%
X82325000Y-102400000D03*
%TD*%
D27*
%TO.P,U3,1,VDD*%
%TO.N,+BATT*%
X71400000Y-87450000D03*
%TO.P,U3,2,DOUT*%
%TO.N,Net-(U3-DOUT)*%
X71400000Y-90750000D03*
%TO.P,U3,3,GND*%
%TO.N,GND*%
X76300000Y-90750000D03*
%TO.P,U3,4,DIN*%
%TO.N,/INTERNAL_LED*%
X76300000Y-87450000D03*
%TD*%
D28*
%TO.P,R19,1*%
%TO.N,/USART_TX*%
X74220000Y-101700000D03*
%TO.P,R19,2*%
%TO.N,Net-(U1-RXD)*%
X73200000Y-101700000D03*
%TD*%
D29*
%TO.P,R10,1*%
%TO.N,+BATT*%
X67200000Y-103850000D03*
%TO.P,R10,2*%
%TO.N,/VBATT_DIV*%
X67200000Y-105500000D03*
%TD*%
D30*
%TO.P,C14,1*%
%TO.N,GND*%
X65800000Y-107300000D03*
%TO.P,C14,2*%
%TO.N,+BATT*%
X65800000Y-110250000D03*
%TD*%
D10*
%TO.P,R1,1*%
%TO.N,Net-(D1-K)*%
X83900000Y-101100000D03*
%TO.P,R1,2*%
%TO.N,GND*%
X83900000Y-100080000D03*
%TD*%
D31*
%TO.P,U6,1,TEMP*%
%TO.N,GND*%
X81290000Y-109600000D03*
%TO.P,U6,2,PROG*%
%TO.N,Net-(U6-PROG)*%
X82560000Y-109600000D03*
%TO.P,U6,3,GND*%
%TO.N,GND*%
X83830000Y-109600000D03*
%TO.P,U6,4,VCC*%
%TO.N,VBUS*%
X85100000Y-109600000D03*
%TO.P,U6,5,BAT*%
%TO.N,/BATT_DIRECT*%
X85100000Y-104350000D03*
%TO.P,U6,6,~{STDBY}*%
%TO.N,/~{STDBY}*%
X83830000Y-104350000D03*
%TO.P,U6,7,~{CHRG}*%
%TO.N,/~{CHRG}*%
X82560000Y-104350000D03*
%TO.P,U6,8,CE*%
%TO.N,Net-(U6-CE)*%
X81290000Y-104350000D03*
D32*
%TO.P,U6,~*%
%TO.N,N/C*%
X83195000Y-106975000D03*
%TD*%
D33*
%TO.P,D8,1,K*%
%TO.N,/BATT_DIRECT*%
X59000000Y-109700000D03*
%TO.P,D8,2,A*%
%TO.N,GND*%
X63000000Y-109700000D03*
%TD*%
D34*
%TO.P,C10,1*%
%TO.N,GND*%
X65250000Y-93500000D03*
%TO.P,C10,2*%
%TO.N,VCC*%
X68200000Y-93500000D03*
%TD*%
D28*
%TO.P,R18,1*%
%TO.N,/BOOT0*%
X76810000Y-103500000D03*
%TO.P,R18,2*%
%TO.N,Net-(U1-TNOW{slash}~{DTR})*%
X75790000Y-103500000D03*
%TD*%
D12*
%TO.P,C18,1*%
%TO.N,GND*%
X84050000Y-111600000D03*
%TO.P,C18,2*%
%TO.N,VBUS*%
X85600000Y-111600000D03*
%TD*%
D35*
%TO.P,L1,1,1*%
%TO.N,Net-(JP2-A)*%
X91700000Y-90200000D03*
%TO.P,L1,2,2*%
%TO.N,/ANTENNA*%
X92670000Y-90200000D03*
%TD*%
D36*
%TO.P,R14,1*%
%TO.N,Net-(U6-PROG)*%
X82500000Y-111600000D03*
%TO.P,R14,2*%
%TO.N,GND*%
X80850000Y-111600000D03*
%TD*%
D37*
%TO.P,C17,1*%
%TO.N,/ANTENNA*%
X93700000Y-90665000D03*
%TO.P,C17,2*%
%TO.N,GND*%
X93700000Y-91800000D03*
%TD*%
D10*
%TO.P,R8,1*%
%TO.N,GND*%
X77100000Y-109620000D03*
%TO.P,R8,2*%
%TO.N,Net-(U1-TNOW{slash}~{DTR})*%
X77100000Y-108600000D03*
%TD*%
D38*
%TO.P,D5,1,A1*%
%TO.N,VCC*%
X61500000Y-97900000D03*
%TO.P,D5,2,A2*%
%TO.N,GND*%
X57200000Y-97900000D03*
%TD*%
D24*
%TO.P,R13,1*%
%TO.N,Net-(D7-K)*%
X78180000Y-108700000D03*
%TO.P,R13,2*%
%TO.N,/~{CHRG}*%
X79200000Y-108700000D03*
%TD*%
D16*
%TO.P,C4,1*%
%TO.N,VCC*%
X70900000Y-97350000D03*
%TO.P,C4,2*%
%TO.N,GND*%
X70900000Y-98900000D03*
%TD*%
%TO.P,C6,1*%
%TO.N,GND*%
X60200000Y-90175000D03*
%TO.P,C6,2*%
%TO.N,+BATT*%
X60200000Y-91725000D03*
%TD*%
D12*
%TO.P,C12,1*%
%TO.N,GND*%
X66150000Y-95600000D03*
%TO.P,C12,2*%
%TO.N,VCC*%
X67700000Y-95600000D03*
%TD*%
D17*
%TO.P,C13,1*%
%TO.N,VCC*%
X69000000Y-100700000D03*
%TO.P,C13,2*%
%TO.N,GND*%
X69000000Y-99565000D03*
%TD*%
D39*
%TO.P,C16,1*%
%TO.N,GND*%
X85000000Y-93875000D03*
%TO.P,C16,2*%
%TO.N,VCC*%
X85000000Y-92325000D03*
%TD*%
D40*
%TO.P,D4,1,A1*%
%TO.N,+BATT*%
X70300000Y-107450000D03*
%TO.P,D4,2,A2*%
%TO.N,GND*%
X70300000Y-103150000D03*
%TD*%
D41*
%TO.P,TH1,1*%
%TO.N,/BATT_DIRECT*%
X54900000Y-110975000D03*
%TO.P,TH1,2*%
%TO.N,Net-(J4-Pin_1)*%
X54900000Y-115425000D03*
%TD*%
D10*
%TO.P,R3,1*%
%TO.N,/SW2*%
X69900000Y-92900000D03*
%TO.P,R3,2*%
%TO.N,Net-(R3-Pad2)*%
X69900000Y-91880000D03*
%TD*%
%TO.P,R4,1*%
%TO.N,/DIO0*%
X85000000Y-99910000D03*
%TO.P,R4,2*%
%TO.N,Net-(U7-PA8)*%
X85000000Y-98890000D03*
%TD*%
D23*
%TO.P,D7,1,K*%
%TO.N,Net-(D7-K)*%
X78125000Y-107200000D03*
%TO.P,D7,2,A*%
%TO.N,VBUS*%
X79700000Y-107200000D03*
%TD*%
D42*
%TO.P,R17,1*%
%TO.N,Net-(R17-Pad1)*%
X86100000Y-99700000D03*
%TO.P,R17,2*%
%TO.N,Net-(U7-NRST)*%
X86100000Y-100720000D03*
%TD*%
D43*
%TO.P,U4,1,GND*%
%TO.N,GND*%
X64400000Y-100600000D03*
D44*
%TO.P,U4,2,VIN*%
%TO.N,+BATT*%
X65900000Y-100512500D03*
D43*
%TO.P,U4,3,VOUT*%
%TO.N,VCC*%
X67400000Y-100600000D03*
%TD*%
D45*
%TO.P,SW3,1,1*%
%TO.N,Net-(R17-Pad1)*%
X88025000Y-97350000D03*
X84175000Y-97350000D03*
%TO.P,SW3,2,2*%
%TO.N,GND*%
X88025000Y-95850000D03*
X84175000Y-95850000D03*
%TD*%
D46*
%TO.P,D2,1,IO1*%
%TO.N,/USB+*%
X70300000Y-110100000D03*
%TO.P,D2,2,GND*%
%TO.N,GND*%
X69350000Y-110100000D03*
%TO.P,D2,3,IO2*%
%TO.N,/USB-*%
X68400000Y-110100000D03*
%TO.P,D2,4,IO3*%
%TO.N,unconnected-(D2-IO3-Pad4)*%
X68400000Y-112375000D03*
%TO.P,D2,5,REF*%
%TO.N,VBUS*%
X69350000Y-112375000D03*
%TO.P,D2,6,IO4*%
%TO.N,/EXTERNAL_LED*%
X70300000Y-112375000D03*
%TD*%
D24*
%TO.P,R7,1*%
%TO.N,/AUX2*%
X85780000Y-90300000D03*
%TO.P,R7,2*%
%TO.N,Net-(J2-Pin_6)*%
X86800000Y-90300000D03*
%TD*%
D47*
%TO.P,C2,1*%
%TO.N,GND*%
X71032500Y-96050000D03*
%TO.P,C2,2*%
%TO.N,VCC*%
X72167500Y-96050000D03*
%TD*%
D11*
%TO.P,SW1,1,1*%
%TO.N,Net-(R2-Pad2)*%
X80600000Y-90900000D03*
X80600000Y-87050000D03*
%TO.P,SW1,2,2*%
%TO.N,GND*%
X82100000Y-90900000D03*
X82100000Y-87050000D03*
%TD*%
D18*
%TO.P,R9,1*%
%TO.N,/EXTERNAL_LED*%
X69500000Y-89600000D03*
%TO.P,R9,2*%
%TO.N,Net-(U3-DOUT)*%
X69500000Y-87950000D03*
%TD*%
D48*
%TO.P,J5,1,Pin_1*%
%TO.N,VCC*%
X81820000Y-114500000D03*
D49*
%TO.P,J5,2,Pin_2*%
%TO.N,GND*%
X84360000Y-114500000D03*
%TO.P,J5,3,Pin_3*%
%TO.N,/SWDIO*%
X86900000Y-114500000D03*
%TO.P,J5,4,Pin_4*%
%TO.N,/BOOT0*%
X89440000Y-114500000D03*
%TD*%
D24*
%TO.P,R5,1*%
%TO.N,/AUX0*%
X82380000Y-92500000D03*
%TO.P,R5,2*%
%TO.N,Net-(J2-Pin_4)*%
X83400000Y-92500000D03*
%TD*%
D48*
%TO.P,J2,1,Pin_1*%
%TO.N,GND*%
X85080000Y-87500000D03*
D49*
%TO.P,J2,2,Pin_2*%
%TO.N,VCC*%
X87620000Y-87500000D03*
%TO.P,J2,3,Pin_3*%
%TO.N,+BATT*%
X90160000Y-87500000D03*
%TO.P,J2,4,Pin_4*%
%TO.N,Net-(J2-Pin_4)*%
X92700000Y-87500000D03*
%TO.P,J2,5,Pin_5*%
%TO.N,Net-(J2-Pin_5)*%
X95240000Y-87500000D03*
%TO.P,J2,6,Pin_6*%
%TO.N,Net-(J2-Pin_6)*%
X97780000Y-87500000D03*
%TD*%
D17*
%TO.P,C3,1*%
%TO.N,GND*%
X72200000Y-98250000D03*
%TO.P,C3,2*%
%TO.N,VCC*%
X72200000Y-97115000D03*
%TD*%
D24*
%TO.P,R16,1*%
%TO.N,/USART_RX*%
X78180000Y-109800000D03*
%TO.P,R16,2*%
%TO.N,Net-(U1-TXD)*%
X79200000Y-109800000D03*
%TD*%
D10*
%TO.P,R12,1*%
%TO.N,Net-(D6-K)*%
X78100000Y-104120000D03*
%TO.P,R12,2*%
%TO.N,/~{STDBY}*%
X78100000Y-103100000D03*
%TD*%
D40*
%TO.P,D3,1,A1*%
%TO.N,/BATT_DIRECT*%
X60600000Y-106300000D03*
%TO.P,D3,2,A2*%
%TO.N,GND*%
X60600000Y-102000000D03*
%TD*%
D17*
%TO.P,C5,1*%
%TO.N,/~{RTS}*%
X72200000Y-100485000D03*
%TO.P,C5,2*%
%TO.N,Net-(U7-NRST)*%
X72200000Y-99350000D03*
%TD*%
D50*
%TO.P,SW4,1,A*%
%TO.N,unconnected-(SW4-A-Pad1)*%
X59750000Y-112862500D03*
D22*
%TO.P,SW4,2,B*%
%TO.N,/BATT_DIRECT*%
X62300000Y-112862500D03*
%TO.P,SW4,3,C*%
%TO.N,+BATT*%
X64850000Y-112862500D03*
%TD*%
D37*
%TO.P,C15,1*%
%TO.N,VCC*%
X86300000Y-92407500D03*
%TO.P,C15,2*%
%TO.N,GND*%
X86300000Y-93542500D03*
%TD*%
D17*
%TO.P,C7,1*%
%TO.N,GND*%
X78400000Y-88535000D03*
%TO.P,C7,2*%
%TO.N,+BATT*%
X78400000Y-87400000D03*
%TD*%
D48*
%TO.P,J3,1,Pin_1*%
%TO.N,GND*%
X62175000Y-88395000D03*
D49*
%TO.P,J3,2,Pin_2*%
%TO.N,/EXTERNAL_LED*%
X62175000Y-90935000D03*
%TO.P,J3,3,Pin_3*%
%TO.N,+BATT*%
X62175000Y-93475000D03*
%TD*%
D51*
%TO.P,J6,1,Pin_1*%
%TO.N,GND*%
X54200000Y-99900000D03*
D52*
%TO.P,J6,2,Pin_2*%
%TO.N,Net-(J4-Pin_1)*%
X54200000Y-98650000D03*
%TD*%
D48*
%TO.P,J4,1,Pin_1*%
%TO.N,Net-(J4-Pin_1)*%
X55000000Y-108740000D03*
D53*
%TO.P,J4,2,Pin_2*%
%TO.N,GND*%
X55000000Y-106200000D03*
%TO.P,J4,3,Pin_3*%
%TO.N,unconnected-(J4-Pin_3-Pad3)*%
X55000000Y-103660000D03*
%TD*%
D54*
%TO.N,Net-(U7-NRST)*%
X83607734Y-98555230D03*
X74924500Y-98503500D03*
%TO.N,GND*%
X70200000Y-96000000D03*
D55*
X94000000Y-112700000D03*
X91400000Y-102600000D03*
D54*
X73813336Y-91144907D03*
X66900000Y-88800000D03*
X71458866Y-99710378D03*
X92700000Y-95000000D03*
X65200000Y-95700000D03*
D55*
X76700385Y-111080128D03*
D54*
X79100000Y-88700000D03*
D55*
X88000000Y-104000000D03*
D54*
X80100000Y-111000000D03*
D55*
X94000000Y-97700000D03*
X89200000Y-112400000D03*
X94000000Y-115700000D03*
X63000000Y-102000000D03*
X88100000Y-106400000D03*
D54*
X83244570Y-110971030D03*
X84900000Y-100700000D03*
D55*
X94000000Y-100700000D03*
X94000000Y-106700000D03*
D54*
X68300000Y-99600000D03*
D55*
X94000000Y-103700000D03*
D54*
X82200000Y-89000000D03*
D55*
X89500000Y-95800000D03*
D56*
X86700000Y-94400000D03*
D55*
X68400000Y-102800000D03*
D54*
X64200000Y-99000000D03*
D55*
X94000000Y-109700000D03*
D54*
X69500000Y-111200000D03*
D55*
%TO.N,VCC*%
X68200000Y-91900000D03*
D56*
X85845592Y-91207779D03*
X69882602Y-98570355D03*
X67400000Y-99000000D03*
D54*
X73781893Y-106250000D03*
D56*
X61600000Y-99700000D03*
D54*
%TO.N,+BATT*%
X79200000Y-87300000D03*
D55*
X64200000Y-86700000D03*
%TO.N,/BATT_DIRECT*%
X84995899Y-102948980D03*
X54900000Y-112300000D03*
X61400000Y-104400000D03*
X58300000Y-111512500D03*
D54*
%TO.N,/VBATT_DIV*%
X72600032Y-106600000D03*
X67300000Y-106400000D03*
%TO.N,VBUS*%
X78300000Y-113554000D03*
X85700000Y-112800000D03*
X79686181Y-112786179D03*
%TO.N,/~{RTS}*%
X72300000Y-107900000D03*
X75200000Y-107900000D03*
%TO.N,/LED*%
X82100000Y-100700000D03*
X78100500Y-100249976D03*
%TO.N,/USB+*%
X70400000Y-111200000D03*
X73941481Y-111234783D03*
X72772992Y-110999992D03*
%TO.N,/USB-*%
X73550004Y-110600002D03*
X68400000Y-109000000D03*
X74667803Y-111266236D03*
%TO.N,/EXTERNAL_LED*%
X68400000Y-89800000D03*
%TO.N,/AUX0*%
X76588110Y-94175000D03*
X82300000Y-93875500D03*
%TO.N,/AUX1*%
X83911399Y-91584492D03*
X76100000Y-91800000D03*
%TO.N,/AUX2*%
X84900000Y-91069500D03*
X74992270Y-91524460D03*
%TO.N,/SWDIO*%
X80851849Y-95105923D03*
X86275500Y-96348430D03*
%TO.N,/BOOT0*%
X86950498Y-95500000D03*
X75879217Y-95324589D03*
X77395269Y-103502435D03*
X80600000Y-94400000D03*
X75900000Y-99600000D03*
D56*
%TO.N,Net-(J2-Pin_5)*%
X84800000Y-89400000D03*
D54*
%TO.N,/~{STDBY}*%
X77625000Y-102600000D03*
X83184948Y-103103735D03*
%TO.N,/~{CHRG}*%
X81997428Y-103323088D03*
X79000000Y-103323088D03*
%TO.N,/SW2*%
X69900000Y-94800000D03*
X79100000Y-94400000D03*
%TO.N,Net-(U7-PA8)*%
X80700000Y-98275000D03*
X85475000Y-98900000D03*
%TO.N,Net-(U1-TXD)*%
X78767378Y-110355128D03*
X76200000Y-110100000D03*
%TO.N,Net-(R17-Pad1)*%
X85900000Y-97400000D03*
X89100000Y-97125038D03*
%TO.N,/NSS*%
X76106042Y-100321146D03*
%TO.N,/SCK*%
X76900000Y-100100000D03*
%TO.N,/MISO*%
X76566266Y-102708732D03*
%TO.N,/MOSI*%
X77792071Y-98275000D03*
%TO.N,Net-(U1-RXD)*%
X74500000Y-106900000D03*
X72596629Y-105148520D03*
%TO.N,/DIO0*%
X83400000Y-99300000D03*
%TO.N,/INTERNAL_LED*%
X76800000Y-88600000D03*
X77770878Y-91893501D03*
X82864299Y-91846352D03*
X77700000Y-89800000D03*
%TO.N,Net-(R3-Pad2)*%
X65400000Y-92000000D03*
X70700000Y-91800000D03*
D55*
%TO.N,Net-(JP2-A)*%
X90900000Y-90200000D03*
%TD*%
D57*
%TO.N,Net-(U7-NRST)*%
X72550000Y-99000000D02*
X72200000Y-99350000D01*
X74428000Y-99000000D02*
X74924500Y-98503500D01*
X83836113Y-98555230D02*
X84695883Y-99415000D01*
X85545000Y-99625883D02*
X85545000Y-100165000D01*
X84695883Y-99415000D02*
X85334117Y-99415000D01*
X83607734Y-98555230D02*
X83836113Y-98555230D01*
X85334117Y-99415000D02*
X85545000Y-99625883D01*
X73737500Y-99000000D02*
X74428000Y-99000000D01*
X73737500Y-99000000D02*
X72550000Y-99000000D01*
X85545000Y-100165000D02*
X86100000Y-100720000D01*
%TO.N,GND*%
X83900000Y-100080000D02*
X84280000Y-100080000D01*
D58*
X71550000Y-98250000D02*
X70900000Y-98900000D01*
X74600000Y-109400000D02*
X74600000Y-108450000D01*
X70250000Y-96050000D02*
X70200000Y-96000000D01*
X66150000Y-95600000D02*
X65300000Y-95600000D01*
D57*
X82100000Y-87050000D02*
X82100000Y-88900000D01*
D59*
X84050000Y-109820000D02*
X83830000Y-109600000D01*
X59625000Y-102975000D02*
X60600000Y-102000000D01*
D57*
X81290000Y-109600000D02*
X81290000Y-111160000D01*
D59*
X68750000Y-103150000D02*
X68400000Y-102800000D01*
X63000000Y-106000000D02*
X64300000Y-107300000D01*
D57*
X66900000Y-88800000D02*
X66900000Y-90825000D01*
D59*
X55200000Y-99900000D02*
X57200000Y-97900000D01*
D58*
X69350000Y-110100000D02*
X69350000Y-111050000D01*
D57*
X69000000Y-99565000D02*
X68335000Y-99565000D01*
X81290000Y-111160000D02*
X80850000Y-111600000D01*
X84280000Y-100080000D02*
X84900000Y-100700000D01*
D59*
X63000000Y-104825000D02*
X64000000Y-103825000D01*
D60*
X74650000Y-110350000D02*
X75350000Y-110350000D01*
D58*
X73737500Y-97500000D02*
X72950000Y-97500000D01*
X85332500Y-93542500D02*
X85000000Y-93875000D01*
D59*
X64400000Y-100600000D02*
X64400000Y-102175000D01*
D60*
X75350000Y-110350000D02*
X76080128Y-111080128D01*
X76080128Y-111080128D02*
X76700385Y-111080128D01*
D59*
X63000000Y-106000000D02*
X63000000Y-104825000D01*
X83830000Y-110385600D02*
X83830000Y-109600000D01*
D57*
X77100000Y-110680513D02*
X77100000Y-109620000D01*
D59*
X54200000Y-99900000D02*
X55200000Y-99900000D01*
D57*
X78400000Y-88535000D02*
X78935000Y-88535000D01*
D59*
X55000000Y-106200000D02*
X55000000Y-105475000D01*
D58*
X86300000Y-93542500D02*
X85332500Y-93542500D01*
D57*
X66900000Y-88700000D02*
X66900000Y-88800000D01*
D59*
X63000000Y-102000000D02*
X63875000Y-102000000D01*
D58*
X72990000Y-102966888D02*
X73241888Y-102715000D01*
X76350000Y-112425000D02*
X76350000Y-111750000D01*
D57*
X82100000Y-88900000D02*
X82200000Y-89000000D01*
D58*
X72950000Y-97500000D02*
X72200000Y-98250000D01*
D57*
X88025000Y-95250000D02*
X87175000Y-94400000D01*
D60*
X74600000Y-109400000D02*
X74600000Y-110300000D01*
D59*
X64300000Y-107300000D02*
X65800000Y-107300000D01*
D58*
X69350000Y-111050000D02*
X69500000Y-111200000D01*
D57*
X88025000Y-95850000D02*
X88025000Y-95250000D01*
D58*
X64400000Y-100600000D02*
X64400000Y-99200000D01*
X74182500Y-102715000D02*
X74767500Y-103300000D01*
X73175000Y-107025000D02*
X73175000Y-104806820D01*
D60*
X78400000Y-88751376D02*
X77900876Y-89250500D01*
D59*
X76350000Y-111430513D02*
X76700385Y-111080128D01*
X84050000Y-111600000D02*
X84050000Y-109820000D01*
X70300000Y-103150000D02*
X68750000Y-103150000D01*
D60*
X77900876Y-89250500D02*
X77149500Y-89250500D01*
D59*
X93700000Y-94000000D02*
X92700000Y-95000000D01*
D60*
X76300000Y-90100000D02*
X76300000Y-90750000D01*
D59*
X83244570Y-110971030D02*
X83830000Y-110385600D01*
D57*
X64340000Y-104165000D02*
X64000000Y-103825000D01*
D58*
X72990000Y-104621820D02*
X72990000Y-102966888D01*
D57*
X82100000Y-89100000D02*
X82100000Y-90900000D01*
D58*
X71032500Y-96050000D02*
X70250000Y-96050000D01*
D57*
X66900000Y-86975000D02*
X66900000Y-88700000D01*
D60*
X74600000Y-110300000D02*
X74650000Y-110350000D01*
D59*
X54425000Y-99900000D02*
X57500000Y-102975000D01*
D58*
X60395000Y-90175000D02*
X62175000Y-88395000D01*
D57*
X82200000Y-89000000D02*
X82100000Y-89100000D01*
D58*
X64400000Y-99200000D02*
X64200000Y-99000000D01*
X86300000Y-94000000D02*
X86700000Y-94400000D01*
X66150000Y-95600000D02*
X66150000Y-94400000D01*
D57*
X68335000Y-99565000D02*
X68300000Y-99600000D01*
D59*
X55000000Y-105475000D02*
X57500000Y-102975000D01*
X64225000Y-103600000D02*
X64000000Y-103825000D01*
D57*
X76700385Y-111080128D02*
X77100000Y-110680513D01*
X80700000Y-111600000D02*
X80100000Y-111000000D01*
D58*
X73175000Y-104806820D02*
X72990000Y-104621820D01*
D57*
X78935000Y-88535000D02*
X79100000Y-88700000D01*
X87175000Y-94400000D02*
X86700000Y-94400000D01*
D58*
X65300000Y-95600000D02*
X65200000Y-95700000D01*
X74600000Y-108450000D02*
X73175000Y-107025000D01*
D59*
X60600000Y-102000000D02*
X62700000Y-102000000D01*
X64225000Y-102350000D02*
X64225000Y-103600000D01*
D58*
X72200000Y-98250000D02*
X71550000Y-98250000D01*
D60*
X77149500Y-89250500D02*
X76300000Y-90100000D01*
D59*
X63875000Y-102000000D02*
X64225000Y-102350000D01*
D58*
X86300000Y-93542500D02*
X86300000Y-94000000D01*
D57*
X70900000Y-99151512D02*
X71458866Y-99710378D01*
X65400000Y-104165000D02*
X64340000Y-104165000D01*
D58*
X66150000Y-94400000D02*
X65250000Y-93500000D01*
D59*
X93700000Y-91800000D02*
X93700000Y-94000000D01*
X76350000Y-112425000D02*
X76350000Y-111430513D01*
X62700000Y-102000000D02*
X63000000Y-102000000D01*
D58*
X73241888Y-102715000D02*
X74182500Y-102715000D01*
D59*
X63000000Y-109700000D02*
X63000000Y-106000000D01*
X57500000Y-102975000D02*
X59625000Y-102975000D01*
D58*
%TO.N,VCC*%
X72617500Y-96500000D02*
X73737500Y-96500000D01*
X69882602Y-97117398D02*
X70365000Y-96635000D01*
X69882602Y-98367398D02*
X70900000Y-97350000D01*
X67400000Y-94300000D02*
X68200000Y-93500000D01*
X72315000Y-97000000D02*
X73737500Y-97000000D01*
X68200000Y-93500000D02*
X68200000Y-91900000D01*
X70365000Y-96635000D02*
X71582500Y-96635000D01*
X67400000Y-99000000D02*
X67400000Y-94300000D01*
X70900000Y-97350000D02*
X71965000Y-97350000D01*
X73600000Y-105000000D02*
X73600000Y-103332500D01*
X72167500Y-96050000D02*
X72617500Y-96500000D01*
X69882602Y-98570355D02*
X69882602Y-98367398D01*
D57*
X75025000Y-103875000D02*
X74207500Y-103875000D01*
X75100000Y-105000000D02*
X75100000Y-103950000D01*
D58*
X71582500Y-96635000D02*
X72167500Y-96050000D01*
X71965000Y-97350000D02*
X72200000Y-97115000D01*
X86300000Y-92407500D02*
X86300000Y-91662187D01*
X86300000Y-92407500D02*
X85082500Y-92407500D01*
D57*
X75100000Y-103950000D02*
X75025000Y-103875000D01*
D58*
X67400000Y-100600000D02*
X68900000Y-100600000D01*
X61600000Y-99700000D02*
X61600000Y-98000000D01*
D57*
X73600000Y-106068107D02*
X73781893Y-106250000D01*
D58*
X86300000Y-91662187D02*
X85845592Y-91207779D01*
D57*
X86275000Y-88845000D02*
X86275000Y-90778371D01*
X74207500Y-103875000D02*
X73632500Y-103300000D01*
X86275000Y-90778371D02*
X85845592Y-91207779D01*
D58*
X69882602Y-98570355D02*
X69882602Y-97117398D01*
X67400000Y-100600000D02*
X67400000Y-99000000D01*
D57*
X87620000Y-87500000D02*
X86275000Y-88845000D01*
X73600000Y-105000000D02*
X73600000Y-106068107D01*
D60*
%TO.N,+BATT*%
X71400000Y-87450000D02*
X72150000Y-86700000D01*
D59*
X68600000Y-107450000D02*
X68125000Y-107925000D01*
X61950000Y-93475000D02*
X60200000Y-91725000D01*
X68125000Y-104775000D02*
X67200000Y-103850000D01*
X70300000Y-107450000D02*
X68600000Y-107450000D01*
X64850000Y-111200000D02*
X65800000Y-110250000D01*
X65900000Y-98900000D02*
X64300000Y-97300000D01*
X64200000Y-95500000D02*
X64200000Y-86700000D01*
D60*
X79200000Y-87300000D02*
X78500000Y-87300000D01*
D59*
X64300000Y-95600000D02*
X64200000Y-95500000D01*
X65800000Y-110250000D02*
X68125000Y-107925000D01*
X67200000Y-103775000D02*
X65775000Y-102350000D01*
D60*
X77700000Y-86700000D02*
X78400000Y-87400000D01*
D59*
X64850000Y-112862500D02*
X64850000Y-111200000D01*
X65775000Y-102350000D02*
X65775000Y-100637500D01*
X68125000Y-107925000D02*
X68125000Y-104775000D01*
D60*
X72150000Y-86700000D02*
X77700000Y-86700000D01*
D59*
X64300000Y-95600000D02*
X62175000Y-93475000D01*
X64300000Y-97300000D02*
X64300000Y-95600000D01*
%TO.N,/BATT_DIRECT*%
X85100000Y-104350000D02*
X85100000Y-103053081D01*
X59275000Y-106300000D02*
X57500000Y-104525000D01*
X60600000Y-105200000D02*
X61400000Y-104400000D01*
X59000000Y-109700000D02*
X59000000Y-110812500D01*
X59000000Y-109700000D02*
X59000000Y-107900000D01*
X60600000Y-106300000D02*
X59275000Y-106300000D01*
X54900000Y-110975000D02*
X54900000Y-112300000D01*
X85100000Y-103053081D02*
X84995899Y-102948980D01*
X59000000Y-107900000D02*
X60600000Y-106300000D01*
X60600000Y-106300000D02*
X60600000Y-105200000D01*
X59000000Y-110812500D02*
X58300000Y-111512500D01*
D57*
%TO.N,/VBATT_DIV*%
X72071629Y-105361013D02*
X72075000Y-105364384D01*
X73737500Y-100000000D02*
X72325000Y-101412500D01*
X64000000Y-105475000D02*
X67175000Y-105475000D01*
X72071629Y-104926087D02*
X72071629Y-105361013D01*
X72325000Y-104615990D02*
X72075000Y-104865990D01*
X72325000Y-101412500D02*
X72325000Y-104615990D01*
X72075000Y-105364384D02*
X72075000Y-105663298D01*
X67200000Y-105500000D02*
X67200000Y-106300000D01*
X72075000Y-105663298D02*
X72600032Y-106188330D01*
X67200000Y-106300000D02*
X67300000Y-106400000D01*
X72600032Y-106188330D02*
X72600032Y-106600000D01*
X72075000Y-104922716D02*
X72071629Y-104926087D01*
X72075000Y-104865990D02*
X72075000Y-104922716D01*
%TO.N,VBUS*%
X79459501Y-110828033D02*
X79459501Y-112559499D01*
D59*
X69967972Y-113554000D02*
X69350000Y-112936028D01*
X73750000Y-113550000D02*
X73754000Y-113554000D01*
X73750000Y-112425000D02*
X73750000Y-113550000D01*
D57*
X79459501Y-112559499D02*
X79686181Y-112786179D01*
D59*
X85700000Y-112800000D02*
X85100000Y-112200000D01*
X69350000Y-112936028D02*
X69350000Y-112375000D01*
X73754000Y-113554000D02*
X78300000Y-113554000D01*
X73750000Y-112832003D02*
X73028003Y-113554000D01*
D57*
X79900000Y-110387534D02*
X79459501Y-110828033D01*
D59*
X85100000Y-112200000D02*
X85100000Y-109600000D01*
X73028003Y-113554000D02*
X69967972Y-113554000D01*
D57*
X79900000Y-104120000D02*
X79900000Y-110387534D01*
D59*
X73750000Y-112425000D02*
X73750000Y-112832003D01*
D57*
%TO.N,/~{RTS}*%
X72075000Y-106087563D02*
X71775000Y-105787562D01*
X72025000Y-104491727D02*
X72025000Y-100660000D01*
X71775000Y-104741726D02*
X72025000Y-104491727D01*
X71775000Y-105488648D02*
X71771629Y-105485277D01*
X75100000Y-108000000D02*
X75200000Y-107900000D01*
X71771629Y-104801823D02*
X71775000Y-104798452D01*
X71771629Y-105485277D02*
X71771629Y-104801823D01*
X72300000Y-107900000D02*
X72075000Y-107675000D01*
X72075000Y-107675000D02*
X72075000Y-106087563D01*
X75100000Y-109400000D02*
X75100000Y-108000000D01*
X71775000Y-104798452D02*
X71775000Y-104741726D01*
X71775000Y-105787562D02*
X71775000Y-105488648D01*
D61*
%TO.N,/ANTENNA*%
X98100000Y-90200000D02*
X93300000Y-90200000D01*
D57*
%TO.N,Net-(D1-K)*%
X83900000Y-102400000D02*
X83900000Y-101100000D01*
%TO.N,/LED*%
X78100000Y-100250476D02*
X78100500Y-100249976D01*
X78100000Y-101362500D02*
X78100000Y-100250476D01*
X82325000Y-100925000D02*
X82100000Y-100700000D01*
X82325000Y-102400000D02*
X82325000Y-100925000D01*
D60*
%TO.N,/USB+*%
X74476264Y-110700000D02*
X73941481Y-111234783D01*
X75300000Y-111124496D02*
X74875504Y-110700000D01*
X74875504Y-110700000D02*
X74476264Y-110700000D01*
X72772992Y-110227008D02*
X72772992Y-110999992D01*
X73600000Y-109400000D02*
X72772992Y-110227008D01*
X70400000Y-111200000D02*
X70400000Y-110200000D01*
X75050000Y-111750000D02*
X75300000Y-111500000D01*
X75300000Y-111500000D02*
X75300000Y-111124496D01*
X75050000Y-112425000D02*
X75050000Y-111750000D01*
%TO.N,/USB-*%
X74400000Y-111534039D02*
X74667803Y-111266236D01*
X74100000Y-109400000D02*
X74100000Y-110300000D01*
X74400000Y-112425000D02*
X74400000Y-111534039D01*
X73799998Y-110600002D02*
X73550004Y-110600002D01*
X68400000Y-109000000D02*
X68400000Y-110100000D01*
X74100000Y-110300000D02*
X73799998Y-110600002D01*
D57*
%TO.N,/EXTERNAL_LED*%
X69500000Y-89600000D02*
X68600000Y-89600000D01*
D60*
X71700000Y-104357107D02*
X71700000Y-101942893D01*
X70300000Y-112375000D02*
X71750000Y-110925000D01*
X71750000Y-106222183D02*
X71400000Y-105872183D01*
X71400000Y-105872183D02*
X71400000Y-104657107D01*
X69100000Y-90500000D02*
X68400000Y-89800000D01*
X71700000Y-101942893D02*
X71675000Y-101917892D01*
X71675000Y-101917892D02*
X71675000Y-101299744D01*
X71675000Y-101299744D02*
X69100000Y-98724744D01*
D57*
X68600000Y-89600000D02*
X68400000Y-89800000D01*
D60*
X71750000Y-110925000D02*
X71750000Y-106222183D01*
X71400000Y-104657107D02*
X71700000Y-104357107D01*
X69100000Y-98724744D02*
X69100000Y-90500000D01*
D57*
%TO.N,Net-(D6-K)*%
X78125000Y-105500000D02*
X78125000Y-104145000D01*
%TO.N,Net-(D7-K)*%
X78125000Y-107200000D02*
X78125000Y-108665000D01*
%TO.N,/AUX0*%
X76600000Y-93137500D02*
X76600000Y-94163110D01*
X76600000Y-94163110D02*
X76588110Y-94175000D01*
X82300000Y-92580000D02*
X82300000Y-93875500D01*
%TO.N,/AUX1*%
X83911399Y-90431399D02*
X83911399Y-91584492D01*
X76150000Y-91850000D02*
X76100000Y-91800000D01*
X76150000Y-93087500D02*
X76150000Y-91850000D01*
%TO.N,/AUX2*%
X75449500Y-95637335D02*
X74775000Y-94962835D01*
X84900000Y-91069500D02*
X85010500Y-91069500D01*
X74775000Y-94962835D02*
X74775000Y-91741730D01*
X73737500Y-99500000D02*
X74670463Y-99500000D01*
X74775000Y-91741730D02*
X74992270Y-91524460D01*
X85010500Y-91069500D02*
X85780000Y-90300000D01*
X74670463Y-99500000D02*
X75449500Y-98720963D01*
X75449500Y-98720963D02*
X75449500Y-95637335D01*
%TO.N,/SWDIO*%
X82062500Y-95000000D02*
X80957772Y-95000000D01*
X86500000Y-113851000D02*
X86500000Y-101939117D01*
X86500000Y-101939117D02*
X86645000Y-101794117D01*
X80957772Y-95000000D02*
X80851849Y-95105923D01*
X86645000Y-101794117D02*
X86645000Y-96717930D01*
X86645000Y-96717930D02*
X86275500Y-96348430D01*
%TO.N,/BOOT0*%
X77392834Y-103500000D02*
X77395269Y-103502435D01*
X80600000Y-94400000D02*
X81962500Y-94400000D01*
X81962500Y-94400000D02*
X82062500Y-94500000D01*
X76810000Y-103500000D02*
X77392834Y-103500000D01*
X75900000Y-95345372D02*
X75879217Y-95324589D01*
X86950498Y-112010498D02*
X86950498Y-95500000D01*
X75900000Y-99600000D02*
X75900000Y-95345372D01*
X89440000Y-114500000D02*
X86950498Y-112010498D01*
%TO.N,Net-(J2-Pin_4)*%
X83204501Y-87095499D02*
X83204501Y-91444798D01*
X83204501Y-91444798D02*
X83388799Y-91629096D01*
X91550000Y-86350000D02*
X83950000Y-86350000D01*
X92700000Y-87500000D02*
X91550000Y-86350000D01*
X83950000Y-86350000D02*
X83204501Y-87095499D01*
X83388799Y-91629096D02*
X83388799Y-92488799D01*
%TO.N,Net-(J2-Pin_5)*%
X84800000Y-89400000D02*
X84800000Y-90300000D01*
%TO.N,Net-(J2-Pin_6)*%
X96305000Y-88975000D02*
X90675991Y-88975000D01*
X97780000Y-87500000D02*
X96305000Y-88975000D01*
X89350991Y-90300000D02*
X86800000Y-90300000D01*
X90675991Y-88975000D02*
X89350991Y-90300000D01*
D59*
%TO.N,Net-(J4-Pin_1)*%
X53300000Y-98842894D02*
X53300000Y-107040000D01*
X57050000Y-110285051D02*
X57050000Y-113275000D01*
X53300000Y-107040000D02*
X55000000Y-108740000D01*
X53492894Y-98650000D02*
X53300000Y-98842894D01*
X55504949Y-108740000D02*
X57050000Y-110285051D01*
X57050000Y-113275000D02*
X54900000Y-115425000D01*
X54200000Y-98650000D02*
X53492894Y-98650000D01*
D57*
%TO.N,/SW1*%
X80150000Y-91975000D02*
X79000000Y-90825000D01*
X79000000Y-90825000D02*
X79000000Y-90610000D01*
X80150000Y-93087500D02*
X80150000Y-91975000D01*
%TO.N,/~{STDBY}*%
X78100000Y-103100000D02*
X77625000Y-102625000D01*
X77625000Y-102625000D02*
X77625000Y-102600000D01*
X83830000Y-103748787D02*
X83184948Y-103103735D01*
%TO.N,/~{CHRG}*%
X82560000Y-103885660D02*
X81997428Y-103323088D01*
X78987500Y-103335588D02*
X79000000Y-103323088D01*
X78987500Y-108577500D02*
X78987500Y-103335588D01*
%TO.N,/SW2*%
X79650000Y-93087500D02*
X79650000Y-93850000D01*
X69900000Y-94800000D02*
X69900000Y-92900000D01*
X79650000Y-93850000D02*
X79100000Y-94400000D01*
%TO.N,/USART_RX*%
X78180000Y-109800000D02*
X77685000Y-109305000D01*
X77685000Y-109305000D02*
X77685000Y-107862557D01*
D62*
X75650000Y-102530883D02*
X76295000Y-103175883D01*
D57*
X77685000Y-107862557D02*
X76295000Y-106472557D01*
D62*
X75650000Y-101412500D02*
X75650000Y-102530883D01*
D57*
X76295000Y-106472557D02*
X76295000Y-103175883D01*
%TO.N,/USART_TX*%
X74220000Y-101700000D02*
X74862500Y-101700000D01*
X74862500Y-101700000D02*
X75150000Y-101412500D01*
%TO.N,Net-(U7-PA8)*%
X85465000Y-98890000D02*
X85475000Y-98900000D01*
X82062500Y-98500000D02*
X80925000Y-98500000D01*
X80925000Y-98500000D02*
X80700000Y-98275000D01*
X85000000Y-98890000D02*
X85465000Y-98890000D01*
%TO.N,Net-(U1-TNOW{slash}~{DTR})*%
X75600000Y-105000000D02*
X75600000Y-103690000D01*
X75600000Y-107100000D02*
X77100000Y-108600000D01*
X75600000Y-105000000D02*
X75600000Y-107100000D01*
%TO.N,Net-(U3-DOUT)*%
X71400000Y-89850000D02*
X69500000Y-87950000D01*
X71400000Y-90750000D02*
X71400000Y-89850000D01*
%TO.N,Net-(U6-PROG)*%
X82500000Y-111600000D02*
X82500000Y-109660000D01*
%TO.N,Net-(U6-CE)*%
X81150000Y-104350000D02*
X79900000Y-103100000D01*
%TO.N,Net-(U1-TXD)*%
X74600000Y-105900000D02*
X74600000Y-105000000D01*
X75300000Y-106600000D02*
X74600000Y-105900000D01*
X75300000Y-107224264D02*
X75300000Y-106600000D01*
X76200000Y-110100000D02*
X76200000Y-108124264D01*
X76200000Y-108124264D02*
X75300000Y-107224264D01*
X79200000Y-109922506D02*
X78767378Y-110355128D01*
%TO.N,Net-(R17-Pad1)*%
X86000000Y-97500000D02*
X85900000Y-97400000D01*
X86000000Y-99700000D02*
X86000000Y-97500000D01*
X89100000Y-97125038D02*
X88249962Y-97125038D01*
%TO.N,/NSS*%
X76100000Y-100327188D02*
X76106042Y-100321146D01*
X76100000Y-101362500D02*
X76100000Y-100327188D01*
%TO.N,/SCK*%
X76900000Y-100100000D02*
X76650000Y-100350000D01*
X76650000Y-100350000D02*
X76650000Y-101412500D01*
%TO.N,/MISO*%
X76566266Y-102657998D02*
X76566266Y-102708732D01*
X76566266Y-102657998D02*
X77150000Y-102074264D01*
%TO.N,/MOSI*%
X77575500Y-100676236D02*
X77500000Y-100600736D01*
X77575500Y-101338000D02*
X77575500Y-100676236D01*
X77500000Y-98567071D02*
X77792071Y-98275000D01*
X77500000Y-100600736D02*
X77500000Y-98567071D01*
%TO.N,Net-(U1-RXD)*%
X72625000Y-105120149D02*
X72596629Y-105148520D01*
X74100000Y-105825644D02*
X74500000Y-106225644D01*
X74100000Y-105000000D02*
X74100000Y-105825644D01*
X72625000Y-102275000D02*
X72625000Y-105120149D01*
X73200000Y-101700000D02*
X72625000Y-102275000D01*
X74500000Y-106225644D02*
X74500000Y-106900000D01*
%TO.N,/DIO0*%
X84766619Y-99910000D02*
X84156619Y-99300000D01*
X84156619Y-99300000D02*
X83400000Y-99300000D01*
D60*
%TO.N,/INTERNAL_LED*%
X77700000Y-91822623D02*
X77700000Y-89800000D01*
X76800000Y-87950000D02*
X76300000Y-87450000D01*
D57*
X82905000Y-93380000D02*
X82905000Y-91887053D01*
X82905000Y-91887053D02*
X82864299Y-91846352D01*
D60*
X76800000Y-88600000D02*
X76800000Y-87950000D01*
X77770878Y-91893501D02*
X77700000Y-91822623D01*
D57*
X83025000Y-93500000D02*
X82905000Y-93380000D01*
X83025000Y-96199264D02*
X83025000Y-93500000D01*
X82724264Y-96500000D02*
X83025000Y-96199264D01*
%TO.N,Net-(R3-Pad2)*%
X65400000Y-90825000D02*
X65400000Y-92000000D01*
X65400000Y-86975000D02*
X65400000Y-90825000D01*
X70700000Y-91800000D02*
X69980000Y-91800000D01*
%TO.N,Net-(R2-Pad2)*%
X79000000Y-89590000D02*
X79290000Y-89590000D01*
X79290000Y-89590000D02*
X80600000Y-90900000D01*
X80600000Y-87050000D02*
X80600000Y-90900000D01*
D63*
%TO.N,Net-(JP2-A)*%
X90900000Y-90200000D02*
X91700000Y-90200000D01*
%TD*%
%TA.AperFunction,Conductor*%
%TO.N,/ANTENNA*%
G36*
X99543039Y-89719685D02*
G01*
X99588794Y-89772489D01*
X99600000Y-89824000D01*
X99600000Y-116176000D01*
X99580315Y-116243039D01*
X99527511Y-116288794D01*
X99476000Y-116300000D01*
X98724000Y-116300000D01*
X98656961Y-116280315D01*
X98611206Y-116227511D01*
X98600000Y-116176000D01*
X98600000Y-90700000D01*
X95924000Y-90700000D01*
X95856961Y-90680315D01*
X95811206Y-90627511D01*
X95800000Y-90576000D01*
X95800000Y-89824000D01*
X95819685Y-89756961D01*
X95872489Y-89711206D01*
X95924000Y-89700000D01*
X99476000Y-89700000D01*
X99543039Y-89719685D01*
G37*
%TD.AperFunction*%
%TD*%
%TA.AperFunction,Conductor*%
%TO.N,GND*%
G36*
X94361980Y-94202383D02*
G01*
X94421480Y-94214218D01*
X94466175Y-94232730D01*
X94506272Y-94259522D01*
X94540477Y-94293727D01*
X94567267Y-94333822D01*
X94585781Y-94378519D01*
X94597616Y-94438019D01*
X94599999Y-94462210D01*
X94599999Y-116237789D01*
X94597616Y-116261980D01*
X94585781Y-116321480D01*
X94567267Y-116366179D01*
X94540481Y-116406268D01*
X94506269Y-116440479D01*
X94471975Y-116463394D01*
X94466179Y-116467267D01*
X94421482Y-116485781D01*
X94391578Y-116491729D01*
X94364491Y-116497117D01*
X94340303Y-116499500D01*
X86859697Y-116499500D01*
X86835507Y-116497117D01*
X86817334Y-116493502D01*
X86778518Y-116485781D01*
X86733822Y-116467267D01*
X86693727Y-116440477D01*
X86659522Y-116406272D01*
X86632730Y-116366175D01*
X86614218Y-116321480D01*
X86602383Y-116261980D01*
X86600000Y-116237789D01*
X86600000Y-115964734D01*
X86619685Y-115897695D01*
X86672489Y-115851940D01*
X86734807Y-115841206D01*
X86856373Y-115851842D01*
X86899999Y-115855659D01*
X86900000Y-115855659D01*
X86900001Y-115855659D01*
X86942507Y-115851940D01*
X87135408Y-115835063D01*
X87363663Y-115773903D01*
X87577830Y-115674035D01*
X87771401Y-115538495D01*
X87938495Y-115371401D01*
X88068426Y-115185840D01*
X88123001Y-115142217D01*
X88192499Y-115135023D01*
X88254854Y-115166546D01*
X88271574Y-115185841D01*
X88401505Y-115371401D01*
X88568599Y-115538495D01*
X88665384Y-115606264D01*
X88762165Y-115674032D01*
X88762167Y-115674033D01*
X88762170Y-115674035D01*
X88976337Y-115773903D01*
X89204592Y-115835063D01*
X89392918Y-115851539D01*
X89439999Y-115855659D01*
X89440000Y-115855659D01*
X89440001Y-115855659D01*
X89482507Y-115851940D01*
X89675408Y-115835063D01*
X89903663Y-115773903D01*
X90117830Y-115674035D01*
X90311401Y-115538495D01*
X90478495Y-115371401D01*
X90614035Y-115177830D01*
X90713903Y-114963663D01*
X90775063Y-114735408D01*
X90795659Y-114500000D01*
X90775063Y-114264592D01*
X90713903Y-114036337D01*
X90614035Y-113822171D01*
X90478495Y-113628599D01*
X90478494Y-113628597D01*
X90311402Y-113461506D01*
X90311395Y-113461501D01*
X90117834Y-113325967D01*
X90117830Y-113325965D01*
X89903663Y-113226097D01*
X89903659Y-113226096D01*
X89903655Y-113226094D01*
X89675413Y-113164938D01*
X89675403Y-113164936D01*
X89440001Y-113144341D01*
X89439999Y-113144341D01*
X89204591Y-113164937D01*
X89048357Y-113206798D01*
X88978507Y-113205135D01*
X88928584Y-113174704D01*
X87562317Y-111808437D01*
X87528832Y-111747114D01*
X87525998Y-111720756D01*
X87525998Y-109195101D01*
X87545683Y-109128062D01*
X87598487Y-109082307D01*
X87667645Y-109072363D01*
X87731201Y-109101388D01*
X87764118Y-109146601D01*
X87849870Y-109348390D01*
X87921998Y-109466575D01*
X87990979Y-109579605D01*
X87990986Y-109579615D01*
X88164253Y-109787819D01*
X88164259Y-109787824D01*
X88365998Y-109968582D01*
X88591910Y-110118044D01*
X88837176Y-110233020D01*
X88837183Y-110233022D01*
X88837185Y-110233023D01*
X89096557Y-110311057D01*
X89096564Y-110311058D01*
X89096569Y-110311060D01*
X89364561Y-110350500D01*
X89364566Y-110350500D01*
X89567636Y-110350500D01*
X89619133Y-110346730D01*
X89770156Y-110335677D01*
X89882758Y-110310593D01*
X90034546Y-110276782D01*
X90034548Y-110276781D01*
X90034553Y-110276780D01*
X90287558Y-110180014D01*
X90523777Y-110047441D01*
X90738177Y-109881888D01*
X90926186Y-109686881D01*
X91083799Y-109466579D01*
X91157787Y-109322669D01*
X91207649Y-109225690D01*
X91207651Y-109225684D01*
X91207656Y-109225675D01*
X91295118Y-108969305D01*
X91344319Y-108702933D01*
X91354212Y-108432235D01*
X91324586Y-108162982D01*
X91256072Y-107900912D01*
X91150130Y-107651610D01*
X91009018Y-107420390D01*
X90919747Y-107313119D01*
X90835746Y-107212180D01*
X90835740Y-107212175D01*
X90634002Y-107031418D01*
X90408092Y-106881957D01*
X90408090Y-106881956D01*
X90162824Y-106766980D01*
X90162819Y-106766978D01*
X90162814Y-106766976D01*
X89903442Y-106688942D01*
X89903428Y-106688939D01*
X89787791Y-106671921D01*
X89635439Y-106649500D01*
X89432369Y-106649500D01*
X89432364Y-106649500D01*
X89229844Y-106664323D01*
X89229831Y-106664325D01*
X88965453Y-106723217D01*
X88965446Y-106723220D01*
X88712439Y-106819987D01*
X88476226Y-106952557D01*
X88261822Y-107118112D01*
X88073822Y-107313109D01*
X88073816Y-107313116D01*
X87916202Y-107533419D01*
X87916199Y-107533424D01*
X87792350Y-107774309D01*
X87792343Y-107774327D01*
X87767356Y-107847570D01*
X87727080Y-107904663D01*
X87662331Y-107930917D01*
X87593666Y-107917998D01*
X87542886Y-107870006D01*
X87525998Y-107807532D01*
X87525998Y-98424499D01*
X87545683Y-98357460D01*
X87598487Y-98311705D01*
X87649998Y-98300499D01*
X88697871Y-98300499D01*
X88697872Y-98300499D01*
X88757483Y-98294091D01*
X88892331Y-98243796D01*
X89007546Y-98157546D01*
X89093796Y-98042331D01*
X89110407Y-97997791D01*
X89152276Y-97941859D01*
X89212707Y-97917904D01*
X89279249Y-97910407D01*
X89279252Y-97910406D01*
X89279255Y-97910406D01*
X89449522Y-97850827D01*
X89602262Y-97754854D01*
X89729816Y-97627300D01*
X89825789Y-97474560D01*
X89885368Y-97304293D01*
X89905565Y-97125038D01*
X89897164Y-97050478D01*
X89885369Y-96945788D01*
X89885368Y-96945783D01*
X89825788Y-96775514D01*
X89729815Y-96622775D01*
X89602262Y-96495222D01*
X89449523Y-96399249D01*
X89279254Y-96339669D01*
X89279249Y-96339668D01*
X89100004Y-96319473D01*
X89099996Y-96319473D01*
X88920750Y-96339668D01*
X88920742Y-96339670D01*
X88763965Y-96394529D01*
X88709761Y-96400777D01*
X88697885Y-96399500D01*
X88697873Y-96399500D01*
X87649998Y-96399500D01*
X87582959Y-96379815D01*
X87537204Y-96327011D01*
X87525998Y-96275500D01*
X87525998Y-96107940D01*
X87545683Y-96040901D01*
X87562317Y-96020259D01*
X87562317Y-96020258D01*
X87580314Y-96002262D01*
X87676287Y-95849522D01*
X87735866Y-95679255D01*
X87756063Y-95500000D01*
X87735866Y-95320745D01*
X87676287Y-95150478D01*
X87580314Y-94997738D01*
X87452760Y-94870184D01*
X87452759Y-94870184D01*
X87300021Y-94774211D01*
X87129752Y-94714631D01*
X87129747Y-94714630D01*
X86950502Y-94694435D01*
X86950494Y-94694435D01*
X86771248Y-94714630D01*
X86771236Y-94714633D01*
X86764953Y-94716832D01*
X86695174Y-94720393D01*
X86634547Y-94685663D01*
X86602321Y-94623669D01*
X86600000Y-94599790D01*
X86600000Y-94462210D01*
X86602383Y-94438019D01*
X86614218Y-94378519D01*
X86632729Y-94333826D01*
X86659524Y-94293724D01*
X86693724Y-94259524D01*
X86733826Y-94232729D01*
X86778514Y-94214219D01*
X86838028Y-94202381D01*
X86862211Y-94200000D01*
X94337789Y-94200000D01*
X94361980Y-94202383D01*
G37*
%TD.AperFunction*%
%TD*%
M02*
