%TF.GenerationSoftware,KiCad,Pcbnew,6.0.5-a6ca702e91~116~ubuntu20.04.1*%
%TF.CreationDate,2022-06-29T22:37:49-06:00*%
%TF.ProjectId,fancy-node,66616e63-792d-46e6-9f64-652e6b696361,rev?*%
%TF.SameCoordinates,Original*%
%TF.FileFunction,Paste,Top*%
%TF.FilePolarity,Positive*%
%FSLAX46Y46*%
G04 Gerber Fmt 4.6, Leading zero omitted, Abs format (unit mm)*
G04 Created by KiCad (PCBNEW 6.0.5-a6ca702e91~116~ubuntu20.04.1) date 2022-06-29 22:37:49*
%MOMM*%
%LPD*%
G01*
G04 APERTURE LIST*
G04 Aperture macros list*
%AMRoundRect*
0 Rectangle with rounded corners*
0 $1 Rounding radius*
0 $2 $3 $4 $5 $6 $7 $8 $9 X,Y pos of 4 corners*
0 Add a 4 corners polygon primitive as box body*
4,1,4,$2,$3,$4,$5,$6,$7,$8,$9,$2,$3,0*
0 Add four circle primitives for the rounded corners*
1,1,$1+$1,$2,$3*
1,1,$1+$1,$4,$5*
1,1,$1+$1,$6,$7*
1,1,$1+$1,$8,$9*
0 Add four rect primitives between the rounded corners*
20,1,$1+$1,$2,$3,$4,$5,0*
20,1,$1+$1,$4,$5,$6,$7,0*
20,1,$1+$1,$6,$7,$8,$9,0*
20,1,$1+$1,$8,$9,$2,$3,0*%
%AMFreePoly0*
4,1,9,3.862500,-0.866500,0.737500,-0.866500,0.737500,-0.450000,-0.737500,-0.450000,-0.737500,0.450000,0.737500,0.450000,0.737500,0.866500,3.862500,0.866500,3.862500,-0.866500,3.862500,-0.866500,$1*%
G04 Aperture macros list end*
%ADD10RoundRect,0.155000X0.155000X-0.212500X0.155000X0.212500X-0.155000X0.212500X-0.155000X-0.212500X0*%
%ADD11RoundRect,0.250000X-0.325000X-0.650000X0.325000X-0.650000X0.325000X0.650000X-0.325000X0.650000X0*%
%ADD12R,2.500000X2.300000*%
%ADD13RoundRect,0.200000X-0.275000X0.200000X-0.275000X-0.200000X0.275000X-0.200000X0.275000X0.200000X0*%
%ADD14RoundRect,0.225000X-0.250000X0.225000X-0.250000X-0.225000X0.250000X-0.225000X0.250000X0.225000X0*%
%ADD15RoundRect,0.200000X0.200000X0.275000X-0.200000X0.275000X-0.200000X-0.275000X0.200000X-0.275000X0*%
%ADD16RoundRect,0.150000X0.150000X-0.825000X0.150000X0.825000X-0.150000X0.825000X-0.150000X-0.825000X0*%
%ADD17RoundRect,0.225000X0.225000X0.250000X-0.225000X0.250000X-0.225000X-0.250000X0.225000X-0.250000X0*%
%ADD18R,1.500000X1.000000*%
%ADD19RoundRect,0.150000X0.675000X0.150000X-0.675000X0.150000X-0.675000X-0.150000X0.675000X-0.150000X0*%
%ADD20R,2.700000X3.800000*%
%ADD21RoundRect,0.075000X-0.075000X0.662500X-0.075000X-0.662500X0.075000X-0.662500X0.075000X0.662500X0*%
%ADD22RoundRect,0.075000X-0.662500X0.075000X-0.662500X-0.075000X0.662500X-0.075000X0.662500X0.075000X0*%
%ADD23RoundRect,0.135000X0.185000X-0.135000X0.185000X0.135000X-0.185000X0.135000X-0.185000X-0.135000X0*%
%ADD24RoundRect,0.200000X-0.200000X-0.275000X0.200000X-0.275000X0.200000X0.275000X-0.200000X0.275000X0*%
%ADD25RoundRect,0.250000X0.400000X1.450000X-0.400000X1.450000X-0.400000X-1.450000X0.400000X-1.450000X0*%
%ADD26RoundRect,0.155000X0.212500X0.155000X-0.212500X0.155000X-0.212500X-0.155000X0.212500X-0.155000X0*%
%ADD27R,2.300000X2.500000*%
%ADD28RoundRect,0.155000X-0.212500X-0.155000X0.212500X-0.155000X0.212500X0.155000X-0.212500X0.155000X0*%
%ADD29RoundRect,0.225000X-0.225000X-0.250000X0.225000X-0.250000X0.225000X0.250000X-0.225000X0.250000X0*%
%ADD30RoundRect,0.135000X0.135000X0.185000X-0.135000X0.185000X-0.135000X-0.185000X0.135000X-0.185000X0*%
%ADD31R,1.500000X2.000000*%
%ADD32RoundRect,0.218750X-0.256250X0.218750X-0.256250X-0.218750X0.256250X-0.218750X0.256250X0.218750X0*%
%ADD33RoundRect,0.147500X-0.172500X0.147500X-0.172500X-0.147500X0.172500X-0.147500X0.172500X0.147500X0*%
%ADD34RoundRect,0.225000X0.250000X-0.225000X0.250000X0.225000X-0.250000X0.225000X-0.250000X-0.225000X0*%
%ADD35R,0.320000X1.080000*%
%ADD36R,1.500000X1.550000*%
%ADD37RoundRect,0.150000X0.512500X0.150000X-0.512500X0.150000X-0.512500X-0.150000X0.512500X-0.150000X0*%
%ADD38R,1.300000X0.900000*%
%ADD39FreePoly0,0.000000*%
G04 APERTURE END LIST*
D10*
%TO.C,C3*%
X56900000Y-91767500D03*
X56900000Y-90632500D03*
%TD*%
%TO.C,C8*%
X79500000Y-88800000D03*
X79500000Y-87665000D03*
%TD*%
D11*
%TO.C,C10*%
X44025000Y-85500000D03*
X46975000Y-85500000D03*
%TD*%
D12*
%TO.C,D31*%
X65650000Y-85300000D03*
X69950000Y-85300000D03*
%TD*%
D13*
%TO.C,R3*%
X81400000Y-88775000D03*
X81400000Y-90425000D03*
%TD*%
D14*
%TO.C,C11*%
X57200000Y-83825000D03*
X57200000Y-85375000D03*
%TD*%
D15*
%TO.C,R29*%
X81425000Y-86100000D03*
X79775000Y-86100000D03*
%TD*%
D16*
%TO.C,U1*%
X58255000Y-94175000D03*
X59525000Y-94175000D03*
X60795000Y-94175000D03*
X62065000Y-94175000D03*
X63335000Y-94175000D03*
X64605000Y-94175000D03*
X65875000Y-94175000D03*
X67145000Y-94175000D03*
X67145000Y-89225000D03*
X65875000Y-89225000D03*
X64605000Y-89225000D03*
X63335000Y-89225000D03*
X62065000Y-89225000D03*
X60795000Y-89225000D03*
X59525000Y-89225000D03*
X58255000Y-89225000D03*
%TD*%
D12*
%TO.C,D26*%
X41550000Y-87800000D03*
X37250000Y-87800000D03*
%TD*%
D17*
%TO.C,C16*%
X50075000Y-70200000D03*
X48525000Y-70200000D03*
%TD*%
D18*
%TO.C,U3*%
X72750000Y-84900000D03*
X72750000Y-88100000D03*
X77650000Y-88100000D03*
X77650000Y-84900000D03*
%TD*%
D19*
%TO.C,U7*%
X54325000Y-89105000D03*
X54325000Y-87835000D03*
X54325000Y-86565000D03*
X54325000Y-85295000D03*
X49075000Y-85295000D03*
X49075000Y-86565000D03*
X49075000Y-87835000D03*
X49075000Y-89105000D03*
D20*
X51700000Y-87200000D03*
%TD*%
D21*
%TO.C,U2*%
X75350000Y-72837500D03*
X74850000Y-72837500D03*
X74350000Y-72837500D03*
X73850000Y-72837500D03*
X73350000Y-72837500D03*
X72850000Y-72837500D03*
X72350000Y-72837500D03*
X71850000Y-72837500D03*
X71350000Y-72837500D03*
X70850000Y-72837500D03*
X70350000Y-72837500D03*
X69850000Y-72837500D03*
D22*
X68437500Y-74250000D03*
X68437500Y-74750000D03*
X68437500Y-75250000D03*
X68437500Y-75750000D03*
X68437500Y-76250000D03*
X68437500Y-76750000D03*
X68437500Y-77250000D03*
X68437500Y-77750000D03*
X68437500Y-78250000D03*
X68437500Y-78750000D03*
X68437500Y-79250000D03*
X68437500Y-79750000D03*
D21*
X69850000Y-81162500D03*
X70350000Y-81162500D03*
X70850000Y-81162500D03*
X71350000Y-81162500D03*
X71850000Y-81162500D03*
X72350000Y-81162500D03*
X72850000Y-81162500D03*
X73350000Y-81162500D03*
X73850000Y-81162500D03*
X74350000Y-81162500D03*
X74850000Y-81162500D03*
X75350000Y-81162500D03*
D22*
X76762500Y-79750000D03*
X76762500Y-79250000D03*
X76762500Y-78750000D03*
X76762500Y-78250000D03*
X76762500Y-77750000D03*
X76762500Y-77250000D03*
X76762500Y-76750000D03*
X76762500Y-76250000D03*
X76762500Y-75750000D03*
X76762500Y-75250000D03*
X76762500Y-74750000D03*
X76762500Y-74250000D03*
%TD*%
D23*
%TO.C,R4*%
X70900000Y-89110000D03*
X70900000Y-88090000D03*
%TD*%
D24*
%TO.C,R30*%
X79775000Y-82900000D03*
X81425000Y-82900000D03*
%TD*%
D25*
%TO.C,TH1*%
X42225000Y-92200000D03*
X37775000Y-92200000D03*
%TD*%
D23*
%TO.C,R6*%
X76600000Y-72310000D03*
X76600000Y-71290000D03*
%TD*%
D24*
%TO.C,R33*%
X51275000Y-91100000D03*
X52925000Y-91100000D03*
%TD*%
D26*
%TO.C,C4*%
X74767500Y-71100000D03*
X73632500Y-71100000D03*
%TD*%
D17*
%TO.C,C7*%
X72575000Y-69800000D03*
X71025000Y-69800000D03*
%TD*%
D27*
%TO.C,D30*%
X45600000Y-92650000D03*
X45600000Y-88350000D03*
%TD*%
D23*
%TO.C,R8*%
X77500000Y-70020000D03*
X77500000Y-69000000D03*
%TD*%
%TO.C,R31*%
X55600000Y-97710000D03*
X55600000Y-96690000D03*
%TD*%
D11*
%TO.C,C9*%
X62625000Y-81300000D03*
X65575000Y-81300000D03*
%TD*%
D23*
%TO.C,R7*%
X75600000Y-70020000D03*
X75600000Y-69000000D03*
%TD*%
D28*
%TO.C,C6*%
X71332500Y-71100000D03*
X72467500Y-71100000D03*
%TD*%
%TO.C,C25*%
X67132500Y-82300000D03*
X68267500Y-82300000D03*
%TD*%
D23*
%TO.C,R32*%
X53300000Y-97710000D03*
X53300000Y-96690000D03*
%TD*%
D29*
%TO.C,C14*%
X63225000Y-79300000D03*
X64775000Y-79300000D03*
%TD*%
D26*
%TO.C,C19*%
X43400000Y-65400000D03*
X42265000Y-65400000D03*
%TD*%
D30*
%TO.C,R5*%
X53310000Y-78800000D03*
X52290000Y-78800000D03*
%TD*%
D31*
%TO.C,SW4*%
X51850000Y-77000000D03*
X51850000Y-70000000D03*
X56350000Y-70000000D03*
X56350000Y-77000000D03*
%TD*%
D30*
%TO.C,R2*%
X60310000Y-78800000D03*
X59290000Y-78800000D03*
%TD*%
D17*
%TO.C,C13*%
X81350000Y-84500000D03*
X79800000Y-84500000D03*
%TD*%
D32*
%TO.C,D39*%
X53300000Y-99112500D03*
X53300000Y-100687500D03*
%TD*%
D28*
%TO.C,C15*%
X48832500Y-68900000D03*
X49967500Y-68900000D03*
%TD*%
D33*
%TO.C,L1*%
X41000000Y-65415000D03*
X41000000Y-66385000D03*
%TD*%
D31*
%TO.C,SW1*%
X59250000Y-70000000D03*
X59250000Y-77000000D03*
X63750000Y-70000000D03*
X63750000Y-77000000D03*
%TD*%
D34*
%TO.C,C17*%
X56700000Y-88475000D03*
X56700000Y-86925000D03*
%TD*%
D35*
%TO.C,J4*%
X61800000Y-97725000D03*
X62450000Y-97725000D03*
X63100000Y-97725000D03*
X63750000Y-97725000D03*
X64400000Y-97725000D03*
D36*
X62100000Y-100400000D03*
X64100000Y-100400000D03*
X60050000Y-100400000D03*
X66150000Y-100400000D03*
%TD*%
D23*
%TO.C,R1*%
X65400000Y-71110000D03*
X65400000Y-70090000D03*
%TD*%
D37*
%TO.C,D2*%
X55700000Y-95050000D03*
X55700000Y-94100000D03*
X55700000Y-93150000D03*
X53425000Y-93150000D03*
X53425000Y-94100000D03*
X53425000Y-95050000D03*
%TD*%
D31*
%TO.C,SW2*%
X81050000Y-80800000D03*
X81050000Y-73800000D03*
X85550000Y-80800000D03*
X85550000Y-73800000D03*
%TD*%
D38*
%TO.C,U5*%
X59150000Y-83800000D03*
D39*
X59237500Y-85300000D03*
D38*
X59150000Y-86800000D03*
%TD*%
D32*
%TO.C,D35*%
X55600000Y-99112500D03*
X55600000Y-100687500D03*
%TD*%
D28*
%TO.C,C1*%
X66832500Y-70900000D03*
X67967500Y-70900000D03*
%TD*%
D14*
%TO.C,C12*%
X34800000Y-96125000D03*
X34800000Y-97675000D03*
%TD*%
D32*
%TO.C,D1*%
X65400000Y-72425000D03*
X65400000Y-74000000D03*
%TD*%
D34*
%TO.C,C18*%
X69800000Y-93575000D03*
X69800000Y-92025000D03*
%TD*%
M02*
