%TF.GenerationSoftware,KiCad,Pcbnew,7.0.2-6a45011f42~172~ubuntu22.04.1*%
%TF.CreationDate,2023-04-30T08:48:57-06:00*%
%TF.ProjectId,fancy-node,66616e63-792d-46e6-9f64-652e6b696361,rev?*%
%TF.SameCoordinates,Original*%
%TF.FileFunction,Legend,Bot*%
%TF.FilePolarity,Positive*%
%FSLAX46Y46*%
G04 Gerber Fmt 4.6, Leading zero omitted, Abs format (unit mm)*
G04 Created by KiCad (PCBNEW 7.0.2-6a45011f42~172~ubuntu22.04.1) date 2023-04-30 08:48:57*
%MOMM*%
%LPD*%
G01*
G04 APERTURE LIST*
G04 Aperture macros list*
%AMFreePoly0*
4,1,6,1.000000,0.000000,0.500000,-0.750000,-0.500000,-0.750000,-0.500000,0.750000,0.500000,0.750000,1.000000,0.000000,1.000000,0.000000,$1*%
%AMFreePoly1*
4,1,6,0.500000,-0.750000,-0.650000,-0.750000,-0.150000,0.000000,-0.650000,0.750000,0.500000,0.750000,0.500000,-0.750000,0.500000,-0.750000,$1*%
G04 Aperture macros list end*
%ADD10C,0.150000*%
%ADD11C,0.152400*%
%ADD12C,0.120000*%
%ADD13C,0.203200*%
%ADD14R,0.990600X1.041400*%
%ADD15R,1.041400X2.209800*%
%ADD16R,1.700000X1.700000*%
%ADD17O,1.700000X1.700000*%
%ADD18C,1.408000*%
%ADD19C,1.800000*%
%ADD20C,3.200000*%
%ADD21R,1.800000X1.800000*%
%ADD22R,1.000000X1.000000*%
%ADD23C,1.000000*%
%ADD24FreePoly0,270.000000*%
%ADD25FreePoly1,270.000000*%
%ADD26C,1.700000*%
%ADD27R,2.999740X1.198880*%
G04 APERTURE END LIST*
D10*
X54561904Y-102096666D02*
X53800000Y-102096666D01*
X54361904Y-96296666D02*
X53600000Y-96296666D01*
X53980952Y-96677619D02*
X53980952Y-95915714D01*
X96909523Y-86172857D02*
X96861904Y-86125238D01*
X96861904Y-86125238D02*
X96766666Y-86077619D01*
X96766666Y-86077619D02*
X96528571Y-86077619D01*
X96528571Y-86077619D02*
X96433333Y-86125238D01*
X96433333Y-86125238D02*
X96385714Y-86172857D01*
X96385714Y-86172857D02*
X96338095Y-86268095D01*
X96338095Y-86268095D02*
X96338095Y-86363333D01*
X96338095Y-86363333D02*
X96385714Y-86506190D01*
X96385714Y-86506190D02*
X96957142Y-87077619D01*
X96957142Y-87077619D02*
X96338095Y-87077619D01*
X93838095Y-87077619D02*
X94409523Y-87077619D01*
X94123809Y-87077619D02*
X94123809Y-86077619D01*
X94123809Y-86077619D02*
X94219047Y-86220476D01*
X94219047Y-86220476D02*
X94314285Y-86315714D01*
X94314285Y-86315714D02*
X94409523Y-86363333D01*
X91771428Y-86177619D02*
X91676190Y-86177619D01*
X91676190Y-86177619D02*
X91580952Y-86225238D01*
X91580952Y-86225238D02*
X91533333Y-86272857D01*
X91533333Y-86272857D02*
X91485714Y-86368095D01*
X91485714Y-86368095D02*
X91438095Y-86558571D01*
X91438095Y-86558571D02*
X91438095Y-86796666D01*
X91438095Y-86796666D02*
X91485714Y-86987142D01*
X91485714Y-86987142D02*
X91533333Y-87082380D01*
X91533333Y-87082380D02*
X91580952Y-87130000D01*
X91580952Y-87130000D02*
X91676190Y-87177619D01*
X91676190Y-87177619D02*
X91771428Y-87177619D01*
X91771428Y-87177619D02*
X91866666Y-87130000D01*
X91866666Y-87130000D02*
X91914285Y-87082380D01*
X91914285Y-87082380D02*
X91961904Y-86987142D01*
X91961904Y-86987142D02*
X92009523Y-86796666D01*
X92009523Y-86796666D02*
X92009523Y-86558571D01*
X92009523Y-86558571D02*
X91961904Y-86368095D01*
X91961904Y-86368095D02*
X91914285Y-86272857D01*
X91914285Y-86272857D02*
X91866666Y-86225238D01*
X91866666Y-86225238D02*
X91771428Y-86177619D01*
X88928571Y-86653809D02*
X88785714Y-86701428D01*
X88785714Y-86701428D02*
X88738095Y-86749047D01*
X88738095Y-86749047D02*
X88690476Y-86844285D01*
X88690476Y-86844285D02*
X88690476Y-86987142D01*
X88690476Y-86987142D02*
X88738095Y-87082380D01*
X88738095Y-87082380D02*
X88785714Y-87130000D01*
X88785714Y-87130000D02*
X88880952Y-87177619D01*
X88880952Y-87177619D02*
X89261904Y-87177619D01*
X89261904Y-87177619D02*
X89261904Y-86177619D01*
X89261904Y-86177619D02*
X88928571Y-86177619D01*
X88928571Y-86177619D02*
X88833333Y-86225238D01*
X88833333Y-86225238D02*
X88785714Y-86272857D01*
X88785714Y-86272857D02*
X88738095Y-86368095D01*
X88738095Y-86368095D02*
X88738095Y-86463333D01*
X88738095Y-86463333D02*
X88785714Y-86558571D01*
X88785714Y-86558571D02*
X88833333Y-86606190D01*
X88833333Y-86606190D02*
X88928571Y-86653809D01*
X88928571Y-86653809D02*
X89261904Y-86653809D01*
X86857142Y-86177619D02*
X86238095Y-86177619D01*
X86238095Y-86177619D02*
X86571428Y-86558571D01*
X86571428Y-86558571D02*
X86428571Y-86558571D01*
X86428571Y-86558571D02*
X86333333Y-86606190D01*
X86333333Y-86606190D02*
X86285714Y-86653809D01*
X86285714Y-86653809D02*
X86238095Y-86749047D01*
X86238095Y-86749047D02*
X86238095Y-86987142D01*
X86238095Y-86987142D02*
X86285714Y-87082380D01*
X86285714Y-87082380D02*
X86333333Y-87130000D01*
X86333333Y-87130000D02*
X86428571Y-87177619D01*
X86428571Y-87177619D02*
X86714285Y-87177619D01*
X86714285Y-87177619D02*
X86809523Y-87130000D01*
X86809523Y-87130000D02*
X86857142Y-87082380D01*
X83438095Y-86525238D02*
X83533333Y-86477619D01*
X83533333Y-86477619D02*
X83676190Y-86477619D01*
X83676190Y-86477619D02*
X83819047Y-86525238D01*
X83819047Y-86525238D02*
X83914285Y-86620476D01*
X83914285Y-86620476D02*
X83961904Y-86715714D01*
X83961904Y-86715714D02*
X84009523Y-86906190D01*
X84009523Y-86906190D02*
X84009523Y-87049047D01*
X84009523Y-87049047D02*
X83961904Y-87239523D01*
X83961904Y-87239523D02*
X83914285Y-87334761D01*
X83914285Y-87334761D02*
X83819047Y-87430000D01*
X83819047Y-87430000D02*
X83676190Y-87477619D01*
X83676190Y-87477619D02*
X83580952Y-87477619D01*
X83580952Y-87477619D02*
X83438095Y-87430000D01*
X83438095Y-87430000D02*
X83390476Y-87382380D01*
X83390476Y-87382380D02*
X83390476Y-87049047D01*
X83390476Y-87049047D02*
X83580952Y-87049047D01*
X60893975Y-93696666D02*
X60132071Y-93696666D01*
X60513023Y-94077619D02*
X60513023Y-93315714D01*
X59322547Y-93553809D02*
X59179690Y-93601428D01*
X59179690Y-93601428D02*
X59132071Y-93649047D01*
X59132071Y-93649047D02*
X59084452Y-93744285D01*
X59084452Y-93744285D02*
X59084452Y-93887142D01*
X59084452Y-93887142D02*
X59132071Y-93982380D01*
X59132071Y-93982380D02*
X59179690Y-94030000D01*
X59179690Y-94030000D02*
X59274928Y-94077619D01*
X59274928Y-94077619D02*
X59655880Y-94077619D01*
X59655880Y-94077619D02*
X59655880Y-93077619D01*
X59655880Y-93077619D02*
X59322547Y-93077619D01*
X59322547Y-93077619D02*
X59227309Y-93125238D01*
X59227309Y-93125238D02*
X59179690Y-93172857D01*
X59179690Y-93172857D02*
X59132071Y-93268095D01*
X59132071Y-93268095D02*
X59132071Y-93363333D01*
X59132071Y-93363333D02*
X59179690Y-93458571D01*
X59179690Y-93458571D02*
X59227309Y-93506190D01*
X59227309Y-93506190D02*
X59322547Y-93553809D01*
X59322547Y-93553809D02*
X59655880Y-93553809D01*
X58703499Y-93791904D02*
X58227309Y-93791904D01*
X58798737Y-94077619D02*
X58465404Y-93077619D01*
X58465404Y-93077619D02*
X58132071Y-94077619D01*
X57941594Y-93077619D02*
X57370166Y-93077619D01*
X57655880Y-94077619D02*
X57655880Y-93077619D01*
X57179689Y-93077619D02*
X56608261Y-93077619D01*
X56893975Y-94077619D02*
X56893975Y-93077619D01*
X60485714Y-91377619D02*
X60961904Y-91377619D01*
X60961904Y-91377619D02*
X60961904Y-90377619D01*
X60152380Y-90853809D02*
X59819047Y-90853809D01*
X59676190Y-91377619D02*
X60152380Y-91377619D01*
X60152380Y-91377619D02*
X60152380Y-90377619D01*
X60152380Y-90377619D02*
X59676190Y-90377619D01*
X59247618Y-91377619D02*
X59247618Y-90377619D01*
X59247618Y-90377619D02*
X59009523Y-90377619D01*
X59009523Y-90377619D02*
X58866666Y-90425238D01*
X58866666Y-90425238D02*
X58771428Y-90520476D01*
X58771428Y-90520476D02*
X58723809Y-90615714D01*
X58723809Y-90615714D02*
X58676190Y-90806190D01*
X58676190Y-90806190D02*
X58676190Y-90949047D01*
X58676190Y-90949047D02*
X58723809Y-91139523D01*
X58723809Y-91139523D02*
X58771428Y-91234761D01*
X58771428Y-91234761D02*
X58866666Y-91330000D01*
X58866666Y-91330000D02*
X59009523Y-91377619D01*
X59009523Y-91377619D02*
X59247618Y-91377619D01*
X60338095Y-87925238D02*
X60433333Y-87877619D01*
X60433333Y-87877619D02*
X60576190Y-87877619D01*
X60576190Y-87877619D02*
X60719047Y-87925238D01*
X60719047Y-87925238D02*
X60814285Y-88020476D01*
X60814285Y-88020476D02*
X60861904Y-88115714D01*
X60861904Y-88115714D02*
X60909523Y-88306190D01*
X60909523Y-88306190D02*
X60909523Y-88449047D01*
X60909523Y-88449047D02*
X60861904Y-88639523D01*
X60861904Y-88639523D02*
X60814285Y-88734761D01*
X60814285Y-88734761D02*
X60719047Y-88830000D01*
X60719047Y-88830000D02*
X60576190Y-88877619D01*
X60576190Y-88877619D02*
X60480952Y-88877619D01*
X60480952Y-88877619D02*
X60338095Y-88830000D01*
X60338095Y-88830000D02*
X60290476Y-88782380D01*
X60290476Y-88782380D02*
X60290476Y-88449047D01*
X60290476Y-88449047D02*
X60480952Y-88449047D01*
X59861904Y-88877619D02*
X59861904Y-87877619D01*
X59861904Y-87877619D02*
X59290476Y-88877619D01*
X59290476Y-88877619D02*
X59290476Y-87877619D01*
X58814285Y-88877619D02*
X58814285Y-87877619D01*
X58814285Y-87877619D02*
X58576190Y-87877619D01*
X58576190Y-87877619D02*
X58433333Y-87925238D01*
X58433333Y-87925238D02*
X58338095Y-88020476D01*
X58338095Y-88020476D02*
X58290476Y-88115714D01*
X58290476Y-88115714D02*
X58242857Y-88306190D01*
X58242857Y-88306190D02*
X58242857Y-88449047D01*
X58242857Y-88449047D02*
X58290476Y-88639523D01*
X58290476Y-88639523D02*
X58338095Y-88734761D01*
X58338095Y-88734761D02*
X58433333Y-88830000D01*
X58433333Y-88830000D02*
X58576190Y-88877619D01*
X58576190Y-88877619D02*
X58814285Y-88877619D01*
X69171428Y-114877619D02*
X68980952Y-114877619D01*
X68980952Y-114877619D02*
X68885714Y-114925238D01*
X68885714Y-114925238D02*
X68790476Y-115020476D01*
X68790476Y-115020476D02*
X68742857Y-115210952D01*
X68742857Y-115210952D02*
X68742857Y-115544285D01*
X68742857Y-115544285D02*
X68790476Y-115734761D01*
X68790476Y-115734761D02*
X68885714Y-115830000D01*
X68885714Y-115830000D02*
X68980952Y-115877619D01*
X68980952Y-115877619D02*
X69171428Y-115877619D01*
X69171428Y-115877619D02*
X69266666Y-115830000D01*
X69266666Y-115830000D02*
X69361904Y-115734761D01*
X69361904Y-115734761D02*
X69409523Y-115544285D01*
X69409523Y-115544285D02*
X69409523Y-115210952D01*
X69409523Y-115210952D02*
X69361904Y-115020476D01*
X69361904Y-115020476D02*
X69266666Y-114925238D01*
X69266666Y-114925238D02*
X69171428Y-114877619D01*
X68314285Y-115877619D02*
X68314285Y-114877619D01*
X68314285Y-114877619D02*
X67742857Y-115877619D01*
X67742857Y-115877619D02*
X67742857Y-114877619D01*
X84661904Y-112796666D02*
X83900000Y-112796666D01*
X82161904Y-112896666D02*
X81400000Y-112896666D01*
X81780952Y-113277619D02*
X81780952Y-112515714D01*
X53861904Y-108796666D02*
X53100000Y-108796666D01*
X53480952Y-109177619D02*
X53480952Y-108415714D01*
X55761904Y-99896666D02*
X55000000Y-99896666D01*
X87561904Y-112977619D02*
X87561904Y-111977619D01*
X86895238Y-111977619D02*
X86704762Y-111977619D01*
X86704762Y-111977619D02*
X86609524Y-112025238D01*
X86609524Y-112025238D02*
X86514286Y-112120476D01*
X86514286Y-112120476D02*
X86466667Y-112310952D01*
X86466667Y-112310952D02*
X86466667Y-112644285D01*
X86466667Y-112644285D02*
X86514286Y-112834761D01*
X86514286Y-112834761D02*
X86609524Y-112930000D01*
X86609524Y-112930000D02*
X86704762Y-112977619D01*
X86704762Y-112977619D02*
X86895238Y-112977619D01*
X86895238Y-112977619D02*
X86990476Y-112930000D01*
X86990476Y-112930000D02*
X87085714Y-112834761D01*
X87085714Y-112834761D02*
X87133333Y-112644285D01*
X87133333Y-112644285D02*
X87133333Y-112310952D01*
X87133333Y-112310952D02*
X87085714Y-112120476D01*
X87085714Y-112120476D02*
X86990476Y-112025238D01*
X86990476Y-112025238D02*
X86895238Y-111977619D01*
X92790476Y-114882380D02*
X92838095Y-114930000D01*
X92838095Y-114930000D02*
X92980952Y-114977619D01*
X92980952Y-114977619D02*
X93076190Y-114977619D01*
X93076190Y-114977619D02*
X93219047Y-114930000D01*
X93219047Y-114930000D02*
X93314285Y-114834761D01*
X93314285Y-114834761D02*
X93361904Y-114739523D01*
X93361904Y-114739523D02*
X93409523Y-114549047D01*
X93409523Y-114549047D02*
X93409523Y-114406190D01*
X93409523Y-114406190D02*
X93361904Y-114215714D01*
X93361904Y-114215714D02*
X93314285Y-114120476D01*
X93314285Y-114120476D02*
X93219047Y-114025238D01*
X93219047Y-114025238D02*
X93076190Y-113977619D01*
X93076190Y-113977619D02*
X92980952Y-113977619D01*
X92980952Y-113977619D02*
X92838095Y-114025238D01*
X92838095Y-114025238D02*
X92790476Y-114072857D01*
X91885714Y-114977619D02*
X92361904Y-114977619D01*
X92361904Y-114977619D02*
X92361904Y-113977619D01*
X91552380Y-114977619D02*
X91552380Y-113977619D01*
X90980952Y-114977619D02*
X91409523Y-114406190D01*
X90980952Y-113977619D02*
X91552380Y-114549047D01*
X55761904Y-98596666D02*
X55000000Y-98596666D01*
X55380952Y-98977619D02*
X55380952Y-98215714D01*
X56671428Y-114890119D02*
X56480952Y-114890119D01*
X56480952Y-114890119D02*
X56385714Y-114937738D01*
X56385714Y-114937738D02*
X56290476Y-115032976D01*
X56290476Y-115032976D02*
X56242857Y-115223452D01*
X56242857Y-115223452D02*
X56242857Y-115556785D01*
X56242857Y-115556785D02*
X56290476Y-115747261D01*
X56290476Y-115747261D02*
X56385714Y-115842500D01*
X56385714Y-115842500D02*
X56480952Y-115890119D01*
X56480952Y-115890119D02*
X56671428Y-115890119D01*
X56671428Y-115890119D02*
X56766666Y-115842500D01*
X56766666Y-115842500D02*
X56861904Y-115747261D01*
X56861904Y-115747261D02*
X56909523Y-115556785D01*
X56909523Y-115556785D02*
X56909523Y-115223452D01*
X56909523Y-115223452D02*
X56861904Y-115032976D01*
X56861904Y-115032976D02*
X56766666Y-114937738D01*
X56766666Y-114937738D02*
X56671428Y-114890119D01*
X55480952Y-115366309D02*
X55814285Y-115366309D01*
X55814285Y-115890119D02*
X55814285Y-114890119D01*
X55814285Y-114890119D02*
X55338095Y-114890119D01*
X54623809Y-115366309D02*
X54957142Y-115366309D01*
X54957142Y-115890119D02*
X54957142Y-114890119D01*
X54957142Y-114890119D02*
X54480952Y-114890119D01*
X53861904Y-106196666D02*
X53100000Y-106196666D01*
%TO.C,J6*%
X52503333Y-100236904D02*
X52503333Y-99475000D01*
X52503333Y-99036904D02*
X52503333Y-98275000D01*
X52122380Y-98655952D02*
X52884285Y-98655952D01*
%TO.C,U5*%
X86942856Y-90576904D02*
X86466666Y-90576904D01*
X87038094Y-90862619D02*
X86704761Y-89862619D01*
X86704761Y-89862619D02*
X86371428Y-90862619D01*
X86038094Y-90862619D02*
X86038094Y-89862619D01*
X86038094Y-89862619D02*
X85466666Y-90862619D01*
X85466666Y-90862619D02*
X85466666Y-89862619D01*
X85133332Y-89862619D02*
X84561904Y-89862619D01*
X84847618Y-90862619D02*
X84847618Y-89862619D01*
X77811904Y-90485238D02*
X77907142Y-90437619D01*
X77907142Y-90437619D02*
X78049999Y-90437619D01*
X78049999Y-90437619D02*
X78192856Y-90485238D01*
X78192856Y-90485238D02*
X78288094Y-90580476D01*
X78288094Y-90580476D02*
X78335713Y-90675714D01*
X78335713Y-90675714D02*
X78383332Y-90866190D01*
X78383332Y-90866190D02*
X78383332Y-91009047D01*
X78383332Y-91009047D02*
X78335713Y-91199523D01*
X78335713Y-91199523D02*
X78288094Y-91294761D01*
X78288094Y-91294761D02*
X78192856Y-91390000D01*
X78192856Y-91390000D02*
X78049999Y-91437619D01*
X78049999Y-91437619D02*
X77954761Y-91437619D01*
X77954761Y-91437619D02*
X77811904Y-91390000D01*
X77811904Y-91390000D02*
X77764285Y-91342380D01*
X77764285Y-91342380D02*
X77764285Y-91009047D01*
X77764285Y-91009047D02*
X77954761Y-91009047D01*
X77335713Y-91437619D02*
X77335713Y-90437619D01*
X77335713Y-90437619D02*
X76764285Y-91437619D01*
X76764285Y-91437619D02*
X76764285Y-90437619D01*
X76288094Y-91437619D02*
X76288094Y-90437619D01*
X76288094Y-90437619D02*
X76049999Y-90437619D01*
X76049999Y-90437619D02*
X75907142Y-90485238D01*
X75907142Y-90485238D02*
X75811904Y-90580476D01*
X75811904Y-90580476D02*
X75764285Y-90675714D01*
X75764285Y-90675714D02*
X75716666Y-90866190D01*
X75716666Y-90866190D02*
X75716666Y-91009047D01*
X75716666Y-91009047D02*
X75764285Y-91199523D01*
X75764285Y-91199523D02*
X75811904Y-91294761D01*
X75811904Y-91294761D02*
X75907142Y-91390000D01*
X75907142Y-91390000D02*
X76049999Y-91437619D01*
X76049999Y-91437619D02*
X76288094Y-91437619D01*
D11*
%TO.C,J7*%
X94178099Y-93872999D02*
X94178099Y-94062360D01*
X94178099Y-96937640D02*
X94178099Y-97225800D01*
X94178099Y-97225800D02*
X90926899Y-97225800D01*
X93380539Y-93872999D02*
X94178099Y-93872999D01*
D10*
X93052499Y-93049399D02*
X92152499Y-93049399D01*
D11*
X90926899Y-93872999D02*
X91724459Y-93872999D01*
X90926899Y-94062360D02*
X90926899Y-93872999D01*
X90926899Y-97225800D02*
X90926899Y-96937640D01*
D12*
%TO.C,J3*%
X63445000Y-88395000D02*
X63445000Y-87125000D01*
X63445000Y-87125000D02*
X62175000Y-87125000D01*
X61132071Y-93855000D02*
X60735000Y-93855000D01*
X61132071Y-93095000D02*
X60735000Y-93095000D01*
X61132071Y-91315000D02*
X60735000Y-91315000D01*
X61132071Y-90555000D02*
X60735000Y-90555000D01*
X61065000Y-88775000D02*
X60735000Y-88775000D01*
X61065000Y-88015000D02*
X60735000Y-88015000D01*
X60735000Y-94805000D02*
X58075000Y-94805000D01*
X60735000Y-92205000D02*
X58075000Y-92205000D01*
X60735000Y-89665000D02*
X58075000Y-89665000D01*
X60735000Y-87065000D02*
X60735000Y-94805000D01*
X58075000Y-94805000D02*
X58075000Y-87065000D01*
X58075000Y-93095000D02*
X52075000Y-93095000D01*
X58075000Y-90555000D02*
X52075000Y-90555000D01*
X58075000Y-88675000D02*
X52075000Y-88675000D01*
X58075000Y-88555000D02*
X52075000Y-88555000D01*
X58075000Y-88435000D02*
X52075000Y-88435000D01*
X58075000Y-88315000D02*
X52075000Y-88315000D01*
X58075000Y-88195000D02*
X52075000Y-88195000D01*
X58075000Y-88075000D02*
X52075000Y-88075000D01*
X58075000Y-88015000D02*
X52075000Y-88015000D01*
X58075000Y-87065000D02*
X60735000Y-87065000D01*
X52075000Y-93855000D02*
X58075000Y-93855000D01*
X52075000Y-93095000D02*
X52075000Y-93855000D01*
X52075000Y-91315000D02*
X58075000Y-91315000D01*
X52075000Y-90555000D02*
X52075000Y-91315000D01*
X52075000Y-88775000D02*
X58075000Y-88775000D01*
X52075000Y-88015000D02*
X52075000Y-88775000D01*
%TO.C,J6*%
X58200000Y-101775000D02*
X53200000Y-101775000D01*
X53200000Y-101775000D02*
X53200000Y-96775000D01*
X53200000Y-96775000D02*
X58200000Y-96775000D01*
X58200000Y-96775000D02*
X58200000Y-101775000D01*
%TO.C,JP2*%
X93300000Y-89975000D02*
X91300000Y-89975000D01*
X91300000Y-89975000D02*
X91300000Y-92775000D01*
X93300000Y-92775000D02*
X93300000Y-89975000D01*
X91300000Y-92775000D02*
X93300000Y-92775000D01*
D10*
%TO.C,J4*%
X53700000Y-108740000D02*
X53700000Y-110040000D01*
X53700000Y-110040000D02*
X55000000Y-110040000D01*
X56500000Y-103245000D02*
X55900000Y-103245000D01*
X56500000Y-104075000D02*
X55900000Y-104075000D01*
X56500000Y-105785000D02*
X55900000Y-105785000D01*
X56500000Y-106615000D02*
X55900000Y-106615000D01*
X56500000Y-108325000D02*
X56000000Y-108325000D01*
X56500000Y-109155000D02*
X56000000Y-109155000D01*
D12*
X56530000Y-110110000D02*
X66530000Y-110110000D01*
X66530000Y-110110000D02*
X66530000Y-102290000D01*
X66530000Y-102290000D02*
X56530000Y-102290000D01*
X56530000Y-102290000D02*
X56530000Y-110110000D01*
D10*
%TO.C,U5*%
X89300000Y-104175000D02*
X89300000Y-102925000D01*
X89300000Y-101425000D02*
X89300000Y-100925000D01*
X89300000Y-99425000D02*
X89300000Y-98925000D01*
X89300000Y-97425000D02*
X89300000Y-96925000D01*
X89300000Y-95425000D02*
X89300000Y-94925000D01*
X89300000Y-93425000D02*
X89300000Y-92925000D01*
X89300000Y-91425000D02*
X89300000Y-90925000D01*
X89300000Y-89425000D02*
X89300000Y-88175000D01*
D13*
X89298460Y-88176540D02*
X73301540Y-88176540D01*
X86051020Y-97672840D02*
X86051020Y-95676400D01*
X84052040Y-97672840D02*
X86051020Y-97672840D01*
X84052040Y-97672840D02*
X84052040Y-95676400D01*
X84052040Y-95676400D02*
X86051020Y-95676400D01*
X81297960Y-98173980D02*
X77300000Y-98173980D01*
X81297960Y-94176020D02*
X81297960Y-98173980D01*
X77300000Y-98173980D02*
X77300000Y-94176020D01*
X77300000Y-94176020D02*
X81297960Y-94176020D01*
X73301540Y-104173460D02*
X89298460Y-104173460D01*
D10*
X73300000Y-102925000D02*
X73300000Y-104175000D01*
X73300000Y-100925000D02*
X73300000Y-101425000D01*
X73300000Y-98925000D02*
X73300000Y-99425000D01*
X73300000Y-96925000D02*
X73300000Y-97425000D01*
X73300000Y-94925000D02*
X73300000Y-95425000D01*
X73300000Y-92925000D02*
X73300000Y-93425000D01*
X73300000Y-90925000D02*
X73300000Y-91425000D01*
X73300000Y-88175000D02*
X73300000Y-89425000D01*
%TD*%
%LPC*%
D14*
%TO.C,J7*%
X92552499Y-93974999D03*
D15*
X93700000Y-95500000D03*
X91404998Y-95500000D03*
%TD*%
D16*
%TO.C,J2*%
X85080000Y-87900000D03*
D17*
X87620000Y-87900000D03*
X90160000Y-87900000D03*
X92700000Y-87900000D03*
X95240000Y-87900000D03*
X97780000Y-87900000D03*
%TD*%
D18*
%TO.C,J1*%
X72550000Y-112400000D03*
X77550000Y-112400000D03*
D19*
X71550000Y-115100000D03*
X78550000Y-115100000D03*
%TD*%
D20*
%TO.C,H4*%
X89500000Y-108500000D03*
%TD*%
D19*
%TO.C,H1*%
X54000000Y-93400000D03*
X54000000Y-90860000D03*
X54000000Y-88320000D03*
%TD*%
D16*
%TO.C,J5*%
X81820000Y-114500000D03*
D17*
X84360000Y-114500000D03*
X86900000Y-114500000D03*
X89440000Y-114500000D03*
%TD*%
D21*
%TO.C,SW4*%
X59750000Y-112862500D03*
D19*
X62300000Y-112862500D03*
X64850000Y-112862500D03*
%TD*%
D16*
%TO.C,J3*%
X62175000Y-88395000D03*
D17*
X62175000Y-90935000D03*
X62175000Y-93475000D03*
%TD*%
D22*
%TO.C,J6*%
X54200000Y-99900000D03*
D23*
X54200000Y-98650000D03*
%TD*%
D24*
%TO.C,JP2*%
X92300000Y-90650000D03*
D25*
X92300000Y-92100000D03*
%TD*%
D16*
%TO.C,J4*%
X55000000Y-108740000D03*
D26*
X55000000Y-106200000D03*
X55000000Y-103660000D03*
%TD*%
D27*
%TO.C,U5*%
X88798080Y-90175520D03*
X88798080Y-92177040D03*
X88798080Y-94176020D03*
X88798080Y-98173980D03*
X88798080Y-100172960D03*
X88798080Y-102174480D03*
X73801920Y-102174480D03*
X73801920Y-100172960D03*
X73801920Y-90175520D03*
%TD*%
%LPD*%
M02*
