M48
; DRILL file {KiCad 6.0.6-3a73a75311~116~ubuntu20.04.1} date Sun 24 Jul 2022 01:39:08 PM MDT
; FORMAT={-:-/ absolute / metric / decimal}
; #@! TF.CreationDate,2022-07-24T13:39:08-06:00
; #@! TF.GenerationSoftware,Kicad,Pcbnew,6.0.6-3a73a75311~116~ubuntu20.04.1
; #@! TF.FileFunction,Plated,1,2,PTH
FMAT,2
METRIC
; #@! TA.AperFunction,Plated,PTH,ViaDrill
T1C0.380
; #@! TA.AperFunction,Plated,PTH,ViaDrill
T2C0.400
; #@! TA.AperFunction,Plated,PTH,ComponentDrill
T3C0.900
; #@! TA.AperFunction,Plated,PTH,ComponentDrill
T4C1.000
; #@! TA.AperFunction,Plated,PTH,ComponentDrill
T5C1.200
%
G90
G05
T1
X27.8Y-65.4
X27.8Y-67.4
X27.8Y-69.4
X27.8Y-71.4
X27.8Y-73.4
X27.8Y-75.4
X27.8Y-77.4
X27.8Y-79.4
X27.8Y-81.4
X27.8Y-83.4
X33.8Y-67.4
X33.8Y-69.4
X33.8Y-71.4
X33.8Y-73.4
X33.8Y-75.4
X33.8Y-77.4
X33.8Y-79.4
X33.8Y-81.4
X33.8Y-83.4
X41.2Y-84.3
X43.7Y-87.2
X44.9Y-82.8
X45.0Y-65.3
T2
X28.1Y-100.2
X40.85Y-85.95
X40.9Y-67.5
X40.9Y-68.6
X40.9Y-70.5
X40.9Y-72.5
X40.9Y-74.4
X40.9Y-76.2
X40.9Y-78.0
X40.9Y-79.7
X40.9Y-81.3
X40.9Y-82.8
X43.7Y-66.6
X43.9Y-69.5
X43.9Y-72.4
X43.9Y-75.6
X44.0Y-79.1
X44.3Y-65.3
X44.9Y-67.6
X46.5Y-69.0
X46.8Y-70.8
X47.0Y-77.4
X47.1Y-74.1
X48.049Y-85.8
X48.6Y-96.1
X49.15Y-71.15
X49.3Y-72.8
X49.5Y-76.0
X49.5Y-81.2
X49.7Y-79.1
X51.0Y-68.4
X51.6Y-81.2
X51.7Y-74.0
X52.2Y-93.4
X53.5Y-81.4
X54.1Y-78.8
X54.874Y-96.599
X54.9Y-95.8
X55.01Y-89.828
X55.1Y-76.6
X55.4Y-67.5
X56.1Y-79.2
X56.1Y-91.0
X56.2Y-73.8
X57.1Y-95.0
X57.244Y-93.321
X57.4Y-67.3
X57.5Y-75.6
X57.7Y-77.6
X58.3Y-99.0
X58.8Y-90.8
X59.023Y-87.796
X59.474Y-79.651
X59.8Y-67.3
X60.0Y-75.0
X60.1Y-82.8
X60.45Y-77.9
X60.9Y-68.4
X61.0Y-96.0
X61.4Y-66.0
X61.4Y-83.6
X61.8Y-70.4
X62.1Y-90.8
X62.3Y-82.8
X62.5Y-67.6
X62.5Y-95.6
X62.7Y-73.7
X63.2Y-96.3
X63.649Y-81.5
X64.1Y-96.2
X64.3Y-71.9
X64.4Y-83.6
X64.4Y-99.0
X64.5Y-81.8
X64.6Y-95.6
X65.4Y-87.4
X65.6Y-77.2
X66.6Y-81.5
X66.8Y-78.5
X66.9Y-70.0
X67.0Y-80.8
X67.241Y-77.826
X67.305Y-77.08
X68.3Y-90.3
X68.5Y-95.7
X69.2Y-69.5
X69.2Y-100.5
X69.4Y-87.2
X69.581Y-76.965
X69.697Y-75.772
X69.7Y-82.8
X69.701Y-75.022
X70.1Y-79.5
X70.6Y-75.3
X70.9Y-68.5
X70.9Y-74.3
X71.4Y-78.9
X72.583Y-68.714
X73.6Y-98.0
X73.9Y-70.3
X74.0Y-84.9
X74.4Y-90.4
X75.5Y-89.6
X76.3Y-84.9
X76.3Y-98.0
X76.582Y-84.082
X77.65Y-83.949
X78.2Y-86.6
X78.5Y-98.1
X79.8Y-74.4
X79.8Y-75.3
X80.0Y-90.3
X80.4Y-77.2
X81.4Y-94.4
X82.7Y-83.2
X83.7Y-88.2
X85.6Y-65.9
X85.8Y-77.4
X85.8Y-100.4
T3
X60.6Y-97.7
X65.6Y-97.7
T4
X29.1Y-88.22
X29.1Y-90.76
X29.1Y-93.3
X42.0Y-96.85
X42.0Y-99.35
X44.0Y-96.85
X44.0Y-99.35
X46.0Y-96.85
X46.0Y-99.35
X64.5Y-66.6
X67.04Y-66.6
X69.58Y-66.6
X72.12Y-66.6
X72.445Y-91.725
X74.66Y-66.6
X74.985Y-91.725
X77.2Y-66.6
X77.525Y-91.725
X85.0Y-84.48
X85.0Y-87.02
X85.0Y-89.56
X85.0Y-92.1
T5
X59.6Y-100.4
X66.6Y-100.4
T4
X36.95Y-97.5G85X36.95Y-98.7
G05
X51.05Y-97.5G85X51.05Y-98.7
G05
T0
M30
