%FSLAX45Y45*%
G04 Gerber Fmt 4.5, Leading zero omitted, Abs format (unit mm)*
G04 Created by KiCad (PCBNEW 6.0.5-a6ca702e91~116~ubuntu20.04.1) date 2022-06-29 22:36:20*
%MOMM*%
%LPD*%
G01*
G04 APERTURE LIST*
%TA.AperFunction,Profile*%
%ADD10C,0.100000*%
%TD*%
%ADD11C,0.200000*%
%ADD12C,0.180000*%
%ADD13C,0.320000*%
G04 APERTURE END LIST*
D10*
X2780000Y-10150000D02*
X8600000Y-10150000D01*
X8600000Y-6450000D02*
X2800000Y-6450000D01*
X2680000Y-10050000D02*
G75*
G03*
X2780000Y-10150000I100000J0D01*
G01*
X2680000Y-10050000D02*
X2680000Y-6570000D01*
X8600000Y-10150000D02*
G75*
G03*
X8700000Y-10050000I0J100000D01*
G01*
X2800000Y-6450000D02*
G75*
G03*
X2680000Y-6570000I0J-120000D01*
G01*
X8700000Y-6550000D02*
G75*
G03*
X8600000Y-6450000I-100000J0D01*
G01*
X8700000Y-10050000D02*
X8700000Y-6550000D01*
D11*
D12*
X7156000Y-9920000D02*
X7336000Y-10100000D01*
X7336000Y-9920000D02*
X7156000Y-10100000D01*
X7410000Y-9920000D02*
X7590000Y-10100000D01*
X7590000Y-9920000D02*
X7410000Y-10100000D01*
X7664000Y-9920000D02*
X7844000Y-10100000D01*
X7844000Y-9920000D02*
X7664000Y-10100000D01*
D13*
X3190000Y-9800000D02*
G75*
G03*
X3190000Y-9800000I-160000J0D01*
G01*
X8480000Y-9780000D02*
G75*
G03*
X8480000Y-9780000I-160000J0D01*
G01*
X8510000Y-6800000D02*
G75*
G03*
X8510000Y-6800000I-160000J0D01*
G01*
D11*
X2932619Y-10465476D02*
X2932619Y-10265476D01*
X2980238Y-10265476D01*
X3008809Y-10275000D01*
X3027857Y-10294048D01*
X3037381Y-10313095D01*
X3046905Y-10351190D01*
X3046905Y-10379762D01*
X3037381Y-10417857D01*
X3027857Y-10436905D01*
X3008809Y-10455952D01*
X2980238Y-10465476D01*
X2932619Y-10465476D01*
X3132619Y-10465476D02*
X3132619Y-10332143D01*
X3132619Y-10370238D02*
X3142143Y-10351190D01*
X3151667Y-10341667D01*
X3170714Y-10332143D01*
X3189762Y-10332143D01*
X3256428Y-10465476D02*
X3256428Y-10332143D01*
X3256428Y-10265476D02*
X3246905Y-10275000D01*
X3256428Y-10284524D01*
X3265952Y-10275000D01*
X3256428Y-10265476D01*
X3256428Y-10284524D01*
X3380238Y-10465476D02*
X3361190Y-10455952D01*
X3351667Y-10436905D01*
X3351667Y-10265476D01*
X3485000Y-10465476D02*
X3465952Y-10455952D01*
X3456428Y-10436905D01*
X3456428Y-10265476D01*
X3713571Y-10465476D02*
X3713571Y-10265476D01*
X3780238Y-10408333D01*
X3846905Y-10265476D01*
X3846905Y-10465476D01*
X4027857Y-10465476D02*
X4027857Y-10360714D01*
X4018333Y-10341667D01*
X3999286Y-10332143D01*
X3961190Y-10332143D01*
X3942143Y-10341667D01*
X4027857Y-10455952D02*
X4008809Y-10465476D01*
X3961190Y-10465476D01*
X3942143Y-10455952D01*
X3932619Y-10436905D01*
X3932619Y-10417857D01*
X3942143Y-10398810D01*
X3961190Y-10389286D01*
X4008809Y-10389286D01*
X4027857Y-10379762D01*
X4123095Y-10332143D02*
X4123095Y-10532143D01*
X4123095Y-10341667D02*
X4142143Y-10332143D01*
X4180238Y-10332143D01*
X4199286Y-10341667D01*
X4208810Y-10351190D01*
X4218333Y-10370238D01*
X4218333Y-10427381D01*
X4208810Y-10446429D01*
X4199286Y-10455952D01*
X4180238Y-10465476D01*
X4142143Y-10465476D01*
X4123095Y-10455952D01*
X4304048Y-10446429D02*
X4313571Y-10455952D01*
X4304048Y-10465476D01*
X4294524Y-10455952D01*
X4304048Y-10446429D01*
X4304048Y-10465476D01*
X4304048Y-10341667D02*
X4313571Y-10351190D01*
X4304048Y-10360714D01*
X4294524Y-10351190D01*
X4304048Y-10341667D01*
X4304048Y-10360714D01*
D12*
X2495000Y-10705000D02*
X2675000Y-10885000D01*
X2675000Y-10705000D02*
X2495000Y-10885000D01*
D11*
X3037381Y-10885476D02*
X2923095Y-10885476D01*
X2980238Y-10885476D02*
X2980238Y-10685476D01*
X2961190Y-10714048D01*
X2942143Y-10733095D01*
X2923095Y-10742619D01*
X3123095Y-10866429D02*
X3132619Y-10875952D01*
X3123095Y-10885476D01*
X3113571Y-10875952D01*
X3123095Y-10866429D01*
X3123095Y-10885476D01*
X3246905Y-10771190D02*
X3227857Y-10761667D01*
X3218333Y-10752143D01*
X3208809Y-10733095D01*
X3208809Y-10723571D01*
X3218333Y-10704524D01*
X3227857Y-10695000D01*
X3246905Y-10685476D01*
X3285000Y-10685476D01*
X3304048Y-10695000D01*
X3313571Y-10704524D01*
X3323095Y-10723571D01*
X3323095Y-10733095D01*
X3313571Y-10752143D01*
X3304048Y-10761667D01*
X3285000Y-10771190D01*
X3246905Y-10771190D01*
X3227857Y-10780714D01*
X3218333Y-10790238D01*
X3208809Y-10809286D01*
X3208809Y-10847381D01*
X3218333Y-10866429D01*
X3227857Y-10875952D01*
X3246905Y-10885476D01*
X3285000Y-10885476D01*
X3304048Y-10875952D01*
X3313571Y-10866429D01*
X3323095Y-10847381D01*
X3323095Y-10809286D01*
X3313571Y-10790238D01*
X3304048Y-10780714D01*
X3285000Y-10771190D01*
X3446905Y-10685476D02*
X3465952Y-10685476D01*
X3485000Y-10695000D01*
X3494524Y-10704524D01*
X3504048Y-10723571D01*
X3513571Y-10761667D01*
X3513571Y-10809286D01*
X3504048Y-10847381D01*
X3494524Y-10866429D01*
X3485000Y-10875952D01*
X3465952Y-10885476D01*
X3446905Y-10885476D01*
X3427857Y-10875952D01*
X3418333Y-10866429D01*
X3408809Y-10847381D01*
X3399286Y-10809286D01*
X3399286Y-10761667D01*
X3408809Y-10723571D01*
X3418333Y-10704524D01*
X3427857Y-10695000D01*
X3446905Y-10685476D01*
X3637381Y-10685476D02*
X3656428Y-10685476D01*
X3675476Y-10695000D01*
X3685000Y-10704524D01*
X3694524Y-10723571D01*
X3704048Y-10761667D01*
X3704048Y-10809286D01*
X3694524Y-10847381D01*
X3685000Y-10866429D01*
X3675476Y-10875952D01*
X3656428Y-10885476D01*
X3637381Y-10885476D01*
X3618333Y-10875952D01*
X3608809Y-10866429D01*
X3599286Y-10847381D01*
X3589762Y-10809286D01*
X3589762Y-10761667D01*
X3599286Y-10723571D01*
X3608809Y-10704524D01*
X3618333Y-10695000D01*
X3637381Y-10685476D01*
X3789762Y-10885476D02*
X3789762Y-10752143D01*
X3789762Y-10771190D02*
X3799286Y-10761667D01*
X3818333Y-10752143D01*
X3846905Y-10752143D01*
X3865952Y-10761667D01*
X3875476Y-10780714D01*
X3875476Y-10885476D01*
X3875476Y-10780714D02*
X3885000Y-10761667D01*
X3904048Y-10752143D01*
X3932619Y-10752143D01*
X3951667Y-10761667D01*
X3961190Y-10780714D01*
X3961190Y-10885476D01*
X4056428Y-10885476D02*
X4056428Y-10752143D01*
X4056428Y-10771190D02*
X4065952Y-10761667D01*
X4085000Y-10752143D01*
X4113571Y-10752143D01*
X4132619Y-10761667D01*
X4142143Y-10780714D01*
X4142143Y-10885476D01*
X4142143Y-10780714D02*
X4151667Y-10761667D01*
X4170714Y-10752143D01*
X4199286Y-10752143D01*
X4218333Y-10761667D01*
X4227857Y-10780714D01*
X4227857Y-10885476D01*
X4618333Y-10675952D02*
X4446905Y-10933095D01*
X4875476Y-10685476D02*
X4894524Y-10685476D01*
X4913571Y-10695000D01*
X4923095Y-10704524D01*
X4932619Y-10723571D01*
X4942143Y-10761667D01*
X4942143Y-10809286D01*
X4932619Y-10847381D01*
X4923095Y-10866429D01*
X4913571Y-10875952D01*
X4894524Y-10885476D01*
X4875476Y-10885476D01*
X4856429Y-10875952D01*
X4846905Y-10866429D01*
X4837381Y-10847381D01*
X4827857Y-10809286D01*
X4827857Y-10761667D01*
X4837381Y-10723571D01*
X4846905Y-10704524D01*
X4856429Y-10695000D01*
X4875476Y-10685476D01*
X5027857Y-10866429D02*
X5037381Y-10875952D01*
X5027857Y-10885476D01*
X5018333Y-10875952D01*
X5027857Y-10866429D01*
X5027857Y-10885476D01*
X5161190Y-10685476D02*
X5180238Y-10685476D01*
X5199286Y-10695000D01*
X5208810Y-10704524D01*
X5218333Y-10723571D01*
X5227857Y-10761667D01*
X5227857Y-10809286D01*
X5218333Y-10847381D01*
X5208810Y-10866429D01*
X5199286Y-10875952D01*
X5180238Y-10885476D01*
X5161190Y-10885476D01*
X5142143Y-10875952D01*
X5132619Y-10866429D01*
X5123095Y-10847381D01*
X5113571Y-10809286D01*
X5113571Y-10761667D01*
X5123095Y-10723571D01*
X5132619Y-10704524D01*
X5142143Y-10695000D01*
X5161190Y-10685476D01*
X5294524Y-10685476D02*
X5427857Y-10685476D01*
X5342143Y-10885476D01*
X5542143Y-10685476D02*
X5561190Y-10685476D01*
X5580238Y-10695000D01*
X5589762Y-10704524D01*
X5599286Y-10723571D01*
X5608809Y-10761667D01*
X5608809Y-10809286D01*
X5599286Y-10847381D01*
X5589762Y-10866429D01*
X5580238Y-10875952D01*
X5561190Y-10885476D01*
X5542143Y-10885476D01*
X5523095Y-10875952D01*
X5513571Y-10866429D01*
X5504048Y-10847381D01*
X5494524Y-10809286D01*
X5494524Y-10761667D01*
X5504048Y-10723571D01*
X5513571Y-10704524D01*
X5523095Y-10695000D01*
X5542143Y-10685476D01*
X5704048Y-10885476D02*
X5742143Y-10885476D01*
X5761190Y-10875952D01*
X5770714Y-10866429D01*
X5789762Y-10837857D01*
X5799286Y-10799762D01*
X5799286Y-10723571D01*
X5789762Y-10704524D01*
X5780238Y-10695000D01*
X5761190Y-10685476D01*
X5723095Y-10685476D01*
X5704048Y-10695000D01*
X5694524Y-10704524D01*
X5685000Y-10723571D01*
X5685000Y-10771190D01*
X5694524Y-10790238D01*
X5704048Y-10799762D01*
X5723095Y-10809286D01*
X5761190Y-10809286D01*
X5780238Y-10799762D01*
X5789762Y-10790238D01*
X5799286Y-10771190D01*
X5875476Y-10685476D02*
X5875476Y-10723571D01*
X5951667Y-10685476D02*
X5951667Y-10723571D01*
X6246905Y-10961667D02*
X6237381Y-10952143D01*
X6218333Y-10923571D01*
X6208809Y-10904524D01*
X6199286Y-10875952D01*
X6189762Y-10828333D01*
X6189762Y-10790238D01*
X6199286Y-10742619D01*
X6208809Y-10714048D01*
X6218333Y-10695000D01*
X6237381Y-10666429D01*
X6246905Y-10656905D01*
X6304048Y-10685476D02*
X6427857Y-10685476D01*
X6361190Y-10761667D01*
X6389762Y-10761667D01*
X6408809Y-10771190D01*
X6418333Y-10780714D01*
X6427857Y-10799762D01*
X6427857Y-10847381D01*
X6418333Y-10866429D01*
X6408809Y-10875952D01*
X6389762Y-10885476D01*
X6332619Y-10885476D01*
X6313571Y-10875952D01*
X6304048Y-10866429D01*
X6665952Y-10885476D02*
X6665952Y-10685476D01*
X6751667Y-10885476D02*
X6751667Y-10780714D01*
X6742143Y-10761667D01*
X6723095Y-10752143D01*
X6694524Y-10752143D01*
X6675476Y-10761667D01*
X6665952Y-10771190D01*
X6875476Y-10885476D02*
X6856428Y-10875952D01*
X6846905Y-10866429D01*
X6837381Y-10847381D01*
X6837381Y-10790238D01*
X6846905Y-10771190D01*
X6856428Y-10761667D01*
X6875476Y-10752143D01*
X6904048Y-10752143D01*
X6923095Y-10761667D01*
X6932619Y-10771190D01*
X6942143Y-10790238D01*
X6942143Y-10847381D01*
X6932619Y-10866429D01*
X6923095Y-10875952D01*
X6904048Y-10885476D01*
X6875476Y-10885476D01*
X7056428Y-10885476D02*
X7037381Y-10875952D01*
X7027857Y-10856905D01*
X7027857Y-10685476D01*
X7208809Y-10875952D02*
X7189762Y-10885476D01*
X7151667Y-10885476D01*
X7132619Y-10875952D01*
X7123095Y-10856905D01*
X7123095Y-10780714D01*
X7132619Y-10761667D01*
X7151667Y-10752143D01*
X7189762Y-10752143D01*
X7208809Y-10761667D01*
X7218333Y-10780714D01*
X7218333Y-10799762D01*
X7123095Y-10818810D01*
X7294524Y-10875952D02*
X7313571Y-10885476D01*
X7351667Y-10885476D01*
X7370714Y-10875952D01*
X7380238Y-10856905D01*
X7380238Y-10847381D01*
X7370714Y-10828333D01*
X7351667Y-10818810D01*
X7323095Y-10818810D01*
X7304048Y-10809286D01*
X7294524Y-10790238D01*
X7294524Y-10780714D01*
X7304048Y-10761667D01*
X7323095Y-10752143D01*
X7351667Y-10752143D01*
X7370714Y-10761667D01*
X7446905Y-10961667D02*
X7456428Y-10952143D01*
X7475476Y-10923571D01*
X7485000Y-10904524D01*
X7494524Y-10875952D01*
X7504048Y-10828333D01*
X7504048Y-10790238D01*
X7494524Y-10742619D01*
X7485000Y-10714048D01*
X7475476Y-10695000D01*
X7456428Y-10666429D01*
X7446905Y-10656905D01*
X7808809Y-10961667D02*
X7799286Y-10952143D01*
X7780238Y-10923571D01*
X7770714Y-10904524D01*
X7761190Y-10875952D01*
X7751667Y-10828333D01*
X7751667Y-10790238D01*
X7761190Y-10742619D01*
X7770714Y-10714048D01*
X7780238Y-10695000D01*
X7799286Y-10666429D01*
X7808809Y-10656905D01*
X7885000Y-10752143D02*
X7885000Y-10885476D01*
X7885000Y-10771190D02*
X7894524Y-10761667D01*
X7913571Y-10752143D01*
X7942143Y-10752143D01*
X7961190Y-10761667D01*
X7970714Y-10780714D01*
X7970714Y-10885476D01*
X8094524Y-10885476D02*
X8075476Y-10875952D01*
X8065952Y-10866429D01*
X8056428Y-10847381D01*
X8056428Y-10790238D01*
X8065952Y-10771190D01*
X8075476Y-10761667D01*
X8094524Y-10752143D01*
X8123095Y-10752143D01*
X8142143Y-10761667D01*
X8151667Y-10771190D01*
X8161190Y-10790238D01*
X8161190Y-10847381D01*
X8151667Y-10866429D01*
X8142143Y-10875952D01*
X8123095Y-10885476D01*
X8094524Y-10885476D01*
X8218333Y-10752143D02*
X8294524Y-10752143D01*
X8246905Y-10685476D02*
X8246905Y-10856905D01*
X8256428Y-10875952D01*
X8275476Y-10885476D01*
X8294524Y-10885476D01*
X8513571Y-10752143D02*
X8513571Y-10952143D01*
X8513571Y-10761667D02*
X8532619Y-10752143D01*
X8570714Y-10752143D01*
X8589762Y-10761667D01*
X8599286Y-10771190D01*
X8608810Y-10790238D01*
X8608810Y-10847381D01*
X8599286Y-10866429D01*
X8589762Y-10875952D01*
X8570714Y-10885476D01*
X8532619Y-10885476D01*
X8513571Y-10875952D01*
X8723095Y-10885476D02*
X8704048Y-10875952D01*
X8694524Y-10856905D01*
X8694524Y-10685476D01*
X8885000Y-10885476D02*
X8885000Y-10780714D01*
X8875476Y-10761667D01*
X8856429Y-10752143D01*
X8818333Y-10752143D01*
X8799286Y-10761667D01*
X8885000Y-10875952D02*
X8865952Y-10885476D01*
X8818333Y-10885476D01*
X8799286Y-10875952D01*
X8789762Y-10856905D01*
X8789762Y-10837857D01*
X8799286Y-10818810D01*
X8818333Y-10809286D01*
X8865952Y-10809286D01*
X8885000Y-10799762D01*
X8951667Y-10752143D02*
X9027857Y-10752143D01*
X8980238Y-10685476D02*
X8980238Y-10856905D01*
X8989762Y-10875952D01*
X9008810Y-10885476D01*
X9027857Y-10885476D01*
X9170714Y-10875952D02*
X9151667Y-10885476D01*
X9113571Y-10885476D01*
X9094524Y-10875952D01*
X9085000Y-10856905D01*
X9085000Y-10780714D01*
X9094524Y-10761667D01*
X9113571Y-10752143D01*
X9151667Y-10752143D01*
X9170714Y-10761667D01*
X9180238Y-10780714D01*
X9180238Y-10799762D01*
X9085000Y-10818810D01*
X9351667Y-10885476D02*
X9351667Y-10685476D01*
X9351667Y-10875952D02*
X9332619Y-10885476D01*
X9294524Y-10885476D01*
X9275476Y-10875952D01*
X9265952Y-10866429D01*
X9256429Y-10847381D01*
X9256429Y-10790238D01*
X9265952Y-10771190D01*
X9275476Y-10761667D01*
X9294524Y-10752143D01*
X9332619Y-10752143D01*
X9351667Y-10761667D01*
X9427857Y-10961667D02*
X9437381Y-10952143D01*
X9456429Y-10923571D01*
X9465952Y-10904524D01*
X9475476Y-10875952D01*
X9485000Y-10828333D01*
X9485000Y-10790238D01*
X9475476Y-10742619D01*
X9465952Y-10714048D01*
X9456429Y-10695000D01*
X9437381Y-10666429D01*
X9427857Y-10656905D01*
X2675000Y-11095000D02*
G75*
G03*
X2675000Y-11095000I-100000J0D01*
G01*
X2913571Y-10985476D02*
X3037381Y-10985476D01*
X2970714Y-11061667D01*
X2999286Y-11061667D01*
X3018333Y-11071190D01*
X3027857Y-11080714D01*
X3037381Y-11099762D01*
X3037381Y-11147381D01*
X3027857Y-11166429D01*
X3018333Y-11175952D01*
X2999286Y-11185476D01*
X2942143Y-11185476D01*
X2923095Y-11175952D01*
X2913571Y-11166429D01*
X3123095Y-11166429D02*
X3132619Y-11175952D01*
X3123095Y-11185476D01*
X3113571Y-11175952D01*
X3123095Y-11166429D01*
X3123095Y-11185476D01*
X3208809Y-11004524D02*
X3218333Y-10995000D01*
X3237381Y-10985476D01*
X3285000Y-10985476D01*
X3304048Y-10995000D01*
X3313571Y-11004524D01*
X3323095Y-11023571D01*
X3323095Y-11042619D01*
X3313571Y-11071190D01*
X3199286Y-11185476D01*
X3323095Y-11185476D01*
X3446905Y-10985476D02*
X3465952Y-10985476D01*
X3485000Y-10995000D01*
X3494524Y-11004524D01*
X3504048Y-11023571D01*
X3513571Y-11061667D01*
X3513571Y-11109286D01*
X3504048Y-11147381D01*
X3494524Y-11166429D01*
X3485000Y-11175952D01*
X3465952Y-11185476D01*
X3446905Y-11185476D01*
X3427857Y-11175952D01*
X3418333Y-11166429D01*
X3408809Y-11147381D01*
X3399286Y-11109286D01*
X3399286Y-11061667D01*
X3408809Y-11023571D01*
X3418333Y-11004524D01*
X3427857Y-10995000D01*
X3446905Y-10985476D01*
X3637381Y-10985476D02*
X3656428Y-10985476D01*
X3675476Y-10995000D01*
X3685000Y-11004524D01*
X3694524Y-11023571D01*
X3704048Y-11061667D01*
X3704048Y-11109286D01*
X3694524Y-11147381D01*
X3685000Y-11166429D01*
X3675476Y-11175952D01*
X3656428Y-11185476D01*
X3637381Y-11185476D01*
X3618333Y-11175952D01*
X3608809Y-11166429D01*
X3599286Y-11147381D01*
X3589762Y-11109286D01*
X3589762Y-11061667D01*
X3599286Y-11023571D01*
X3608809Y-11004524D01*
X3618333Y-10995000D01*
X3637381Y-10985476D01*
X3789762Y-11185476D02*
X3789762Y-11052143D01*
X3789762Y-11071190D02*
X3799286Y-11061667D01*
X3818333Y-11052143D01*
X3846905Y-11052143D01*
X3865952Y-11061667D01*
X3875476Y-11080714D01*
X3875476Y-11185476D01*
X3875476Y-11080714D02*
X3885000Y-11061667D01*
X3904048Y-11052143D01*
X3932619Y-11052143D01*
X3951667Y-11061667D01*
X3961190Y-11080714D01*
X3961190Y-11185476D01*
X4056428Y-11185476D02*
X4056428Y-11052143D01*
X4056428Y-11071190D02*
X4065952Y-11061667D01*
X4085000Y-11052143D01*
X4113571Y-11052143D01*
X4132619Y-11061667D01*
X4142143Y-11080714D01*
X4142143Y-11185476D01*
X4142143Y-11080714D02*
X4151667Y-11061667D01*
X4170714Y-11052143D01*
X4199286Y-11052143D01*
X4218333Y-11061667D01*
X4227857Y-11080714D01*
X4227857Y-11185476D01*
X4618333Y-10975952D02*
X4446905Y-11233095D01*
X4875476Y-10985476D02*
X4894524Y-10985476D01*
X4913571Y-10995000D01*
X4923095Y-11004524D01*
X4932619Y-11023571D01*
X4942143Y-11061667D01*
X4942143Y-11109286D01*
X4932619Y-11147381D01*
X4923095Y-11166429D01*
X4913571Y-11175952D01*
X4894524Y-11185476D01*
X4875476Y-11185476D01*
X4856429Y-11175952D01*
X4846905Y-11166429D01*
X4837381Y-11147381D01*
X4827857Y-11109286D01*
X4827857Y-11061667D01*
X4837381Y-11023571D01*
X4846905Y-11004524D01*
X4856429Y-10995000D01*
X4875476Y-10985476D01*
X5027857Y-11166429D02*
X5037381Y-11175952D01*
X5027857Y-11185476D01*
X5018333Y-11175952D01*
X5027857Y-11166429D01*
X5027857Y-11185476D01*
X5227857Y-11185476D02*
X5113571Y-11185476D01*
X5170714Y-11185476D02*
X5170714Y-10985476D01*
X5151667Y-11014048D01*
X5132619Y-11033095D01*
X5113571Y-11042619D01*
X5304048Y-11004524D02*
X5313571Y-10995000D01*
X5332619Y-10985476D01*
X5380238Y-10985476D01*
X5399286Y-10995000D01*
X5408810Y-11004524D01*
X5418333Y-11023571D01*
X5418333Y-11042619D01*
X5408810Y-11071190D01*
X5294524Y-11185476D01*
X5418333Y-11185476D01*
X5589762Y-10985476D02*
X5551667Y-10985476D01*
X5532619Y-10995000D01*
X5523095Y-11004524D01*
X5504048Y-11033095D01*
X5494524Y-11071190D01*
X5494524Y-11147381D01*
X5504048Y-11166429D01*
X5513571Y-11175952D01*
X5532619Y-11185476D01*
X5570714Y-11185476D01*
X5589762Y-11175952D01*
X5599286Y-11166429D01*
X5608809Y-11147381D01*
X5608809Y-11099762D01*
X5599286Y-11080714D01*
X5589762Y-11071190D01*
X5570714Y-11061667D01*
X5532619Y-11061667D01*
X5513571Y-11071190D01*
X5504048Y-11080714D01*
X5494524Y-11099762D01*
X5732619Y-10985476D02*
X5751667Y-10985476D01*
X5770714Y-10995000D01*
X5780238Y-11004524D01*
X5789762Y-11023571D01*
X5799286Y-11061667D01*
X5799286Y-11109286D01*
X5789762Y-11147381D01*
X5780238Y-11166429D01*
X5770714Y-11175952D01*
X5751667Y-11185476D01*
X5732619Y-11185476D01*
X5713571Y-11175952D01*
X5704048Y-11166429D01*
X5694524Y-11147381D01*
X5685000Y-11109286D01*
X5685000Y-11061667D01*
X5694524Y-11023571D01*
X5704048Y-11004524D01*
X5713571Y-10995000D01*
X5732619Y-10985476D01*
X5875476Y-10985476D02*
X5875476Y-11023571D01*
X5951667Y-10985476D02*
X5951667Y-11023571D01*
X6246905Y-11261667D02*
X6237381Y-11252143D01*
X6218333Y-11223571D01*
X6208809Y-11204524D01*
X6199286Y-11175952D01*
X6189762Y-11128333D01*
X6189762Y-11090238D01*
X6199286Y-11042619D01*
X6208809Y-11014048D01*
X6218333Y-10995000D01*
X6237381Y-10966429D01*
X6246905Y-10956905D01*
X6304048Y-10985476D02*
X6427857Y-10985476D01*
X6361190Y-11061667D01*
X6389762Y-11061667D01*
X6408809Y-11071190D01*
X6418333Y-11080714D01*
X6427857Y-11099762D01*
X6427857Y-11147381D01*
X6418333Y-11166429D01*
X6408809Y-11175952D01*
X6389762Y-11185476D01*
X6332619Y-11185476D01*
X6313571Y-11175952D01*
X6304048Y-11166429D01*
X6665952Y-11185476D02*
X6665952Y-10985476D01*
X6751667Y-11185476D02*
X6751667Y-11080714D01*
X6742143Y-11061667D01*
X6723095Y-11052143D01*
X6694524Y-11052143D01*
X6675476Y-11061667D01*
X6665952Y-11071190D01*
X6875476Y-11185476D02*
X6856428Y-11175952D01*
X6846905Y-11166429D01*
X6837381Y-11147381D01*
X6837381Y-11090238D01*
X6846905Y-11071190D01*
X6856428Y-11061667D01*
X6875476Y-11052143D01*
X6904048Y-11052143D01*
X6923095Y-11061667D01*
X6932619Y-11071190D01*
X6942143Y-11090238D01*
X6942143Y-11147381D01*
X6932619Y-11166429D01*
X6923095Y-11175952D01*
X6904048Y-11185476D01*
X6875476Y-11185476D01*
X7056428Y-11185476D02*
X7037381Y-11175952D01*
X7027857Y-11156905D01*
X7027857Y-10985476D01*
X7208809Y-11175952D02*
X7189762Y-11185476D01*
X7151667Y-11185476D01*
X7132619Y-11175952D01*
X7123095Y-11156905D01*
X7123095Y-11080714D01*
X7132619Y-11061667D01*
X7151667Y-11052143D01*
X7189762Y-11052143D01*
X7208809Y-11061667D01*
X7218333Y-11080714D01*
X7218333Y-11099762D01*
X7123095Y-11118810D01*
X7294524Y-11175952D02*
X7313571Y-11185476D01*
X7351667Y-11185476D01*
X7370714Y-11175952D01*
X7380238Y-11156905D01*
X7380238Y-11147381D01*
X7370714Y-11128333D01*
X7351667Y-11118810D01*
X7323095Y-11118810D01*
X7304048Y-11109286D01*
X7294524Y-11090238D01*
X7294524Y-11080714D01*
X7304048Y-11061667D01*
X7323095Y-11052143D01*
X7351667Y-11052143D01*
X7370714Y-11061667D01*
X7446905Y-11261667D02*
X7456428Y-11252143D01*
X7475476Y-11223571D01*
X7485000Y-11204524D01*
X7494524Y-11175952D01*
X7504048Y-11128333D01*
X7504048Y-11090238D01*
X7494524Y-11042619D01*
X7485000Y-11014048D01*
X7475476Y-10995000D01*
X7456428Y-10966429D01*
X7446905Y-10956905D01*
X7808809Y-11261667D02*
X7799286Y-11252143D01*
X7780238Y-11223571D01*
X7770714Y-11204524D01*
X7761190Y-11175952D01*
X7751667Y-11128333D01*
X7751667Y-11090238D01*
X7761190Y-11042619D01*
X7770714Y-11014048D01*
X7780238Y-10995000D01*
X7799286Y-10966429D01*
X7808809Y-10956905D01*
X7885000Y-11052143D02*
X7885000Y-11185476D01*
X7885000Y-11071190D02*
X7894524Y-11061667D01*
X7913571Y-11052143D01*
X7942143Y-11052143D01*
X7961190Y-11061667D01*
X7970714Y-11080714D01*
X7970714Y-11185476D01*
X8094524Y-11185476D02*
X8075476Y-11175952D01*
X8065952Y-11166429D01*
X8056428Y-11147381D01*
X8056428Y-11090238D01*
X8065952Y-11071190D01*
X8075476Y-11061667D01*
X8094524Y-11052143D01*
X8123095Y-11052143D01*
X8142143Y-11061667D01*
X8151667Y-11071190D01*
X8161190Y-11090238D01*
X8161190Y-11147381D01*
X8151667Y-11166429D01*
X8142143Y-11175952D01*
X8123095Y-11185476D01*
X8094524Y-11185476D01*
X8218333Y-11052143D02*
X8294524Y-11052143D01*
X8246905Y-10985476D02*
X8246905Y-11156905D01*
X8256428Y-11175952D01*
X8275476Y-11185476D01*
X8294524Y-11185476D01*
X8513571Y-11052143D02*
X8513571Y-11252143D01*
X8513571Y-11061667D02*
X8532619Y-11052143D01*
X8570714Y-11052143D01*
X8589762Y-11061667D01*
X8599286Y-11071190D01*
X8608810Y-11090238D01*
X8608810Y-11147381D01*
X8599286Y-11166429D01*
X8589762Y-11175952D01*
X8570714Y-11185476D01*
X8532619Y-11185476D01*
X8513571Y-11175952D01*
X8723095Y-11185476D02*
X8704048Y-11175952D01*
X8694524Y-11156905D01*
X8694524Y-10985476D01*
X8885000Y-11185476D02*
X8885000Y-11080714D01*
X8875476Y-11061667D01*
X8856429Y-11052143D01*
X8818333Y-11052143D01*
X8799286Y-11061667D01*
X8885000Y-11175952D02*
X8865952Y-11185476D01*
X8818333Y-11185476D01*
X8799286Y-11175952D01*
X8789762Y-11156905D01*
X8789762Y-11137857D01*
X8799286Y-11118810D01*
X8818333Y-11109286D01*
X8865952Y-11109286D01*
X8885000Y-11099762D01*
X8951667Y-11052143D02*
X9027857Y-11052143D01*
X8980238Y-10985476D02*
X8980238Y-11156905D01*
X8989762Y-11175952D01*
X9008810Y-11185476D01*
X9027857Y-11185476D01*
X9170714Y-11175952D02*
X9151667Y-11185476D01*
X9113571Y-11185476D01*
X9094524Y-11175952D01*
X9085000Y-11156905D01*
X9085000Y-11080714D01*
X9094524Y-11061667D01*
X9113571Y-11052143D01*
X9151667Y-11052143D01*
X9170714Y-11061667D01*
X9180238Y-11080714D01*
X9180238Y-11099762D01*
X9085000Y-11118810D01*
X9351667Y-11185476D02*
X9351667Y-10985476D01*
X9351667Y-11175952D02*
X9332619Y-11185476D01*
X9294524Y-11185476D01*
X9275476Y-11175952D01*
X9265952Y-11166429D01*
X9256429Y-11147381D01*
X9256429Y-11090238D01*
X9265952Y-11071190D01*
X9275476Y-11061667D01*
X9294524Y-11052143D01*
X9332619Y-11052143D01*
X9351667Y-11061667D01*
X9427857Y-11261667D02*
X9437381Y-11252143D01*
X9456429Y-11223571D01*
X9465952Y-11204524D01*
X9475476Y-11175952D01*
X9485000Y-11128333D01*
X9485000Y-11090238D01*
X9475476Y-11042619D01*
X9465952Y-11014048D01*
X9456429Y-10995000D01*
X9437381Y-10966429D01*
X9427857Y-10956905D01*
M02*
