%TF.GenerationSoftware,KiCad,Pcbnew,7.0.2-6a45011f42~172~ubuntu22.04.1*%
%TF.CreationDate,2023-04-30T08:42:19-06:00*%
%TF.ProjectId,fancy-node,66616e63-792d-46e6-9f64-652e6b696361,rev?*%
%TF.SameCoordinates,Original*%
%TF.FileFunction,Drillmap*%
%TF.FilePolarity,Positive*%
%FSLAX45Y45*%
G04 Gerber Fmt 4.5, Leading zero omitted, Abs format (unit mm)*
G04 Created by KiCad (PCBNEW 7.0.2-6a45011f42~172~ubuntu22.04.1) date 2023-04-30 08:42:19*
%MOMM*%
%LPD*%
G01*
G04 APERTURE LIST*
%ADD10C,0.200000*%
%ADD11C,0.030000*%
%ADD12C,0.038000*%
%ADD13C,0.040000*%
%ADD14C,0.050000*%
%ADD15C,0.060000*%
%ADD16C,0.090000*%
%ADD17C,0.100000*%
%ADD18C,0.120000*%
G04 APERTURE END LIST*
D10*
X5270000Y-8580000D02*
X9980000Y-8580000D01*
X9980000Y-11650000D01*
X5270000Y-11650000D01*
X5270000Y-8580000D01*
D11*
X6405000Y-9885000D02*
X6435000Y-9915000D01*
X6435000Y-9885000D02*
X6405000Y-9915000D01*
X6505000Y-9555000D02*
X6535000Y-9585000D01*
X6535000Y-9555000D02*
X6505000Y-9585000D01*
X6525000Y-9185000D02*
X6555000Y-9215000D01*
X6555000Y-9185000D02*
X6525000Y-9215000D01*
X6675000Y-8865000D02*
X6705000Y-8895000D01*
X6705000Y-8865000D02*
X6675000Y-8895000D01*
X6715000Y-10625000D02*
X6745000Y-10655000D01*
X6745000Y-10625000D02*
X6715000Y-10655000D01*
X6815000Y-9945000D02*
X6845000Y-9975000D01*
X6845000Y-9945000D02*
X6815000Y-9975000D01*
X6825000Y-10885000D02*
X6855000Y-10915000D01*
X6855000Y-10885000D02*
X6825000Y-10915000D01*
X6845000Y-8965000D02*
X6875000Y-8995000D01*
X6875000Y-8965000D02*
X6845000Y-8995000D01*
X6935000Y-11105000D02*
X6965000Y-11135000D01*
X6965000Y-11105000D02*
X6935000Y-11135000D01*
X6975000Y-9445000D02*
X7005000Y-9475000D01*
X7005000Y-9445000D02*
X6975000Y-9475000D01*
X7005000Y-9585000D02*
X7035000Y-9615000D01*
X7035000Y-9585000D02*
X7005000Y-9615000D01*
X7025000Y-11105000D02*
X7055000Y-11135000D01*
X7055000Y-11105000D02*
X7025000Y-11135000D01*
X7055000Y-9165000D02*
X7085000Y-9195000D01*
X7085000Y-9165000D02*
X7055000Y-9195000D01*
X7093250Y-8966750D02*
X7123250Y-8996750D01*
X7123250Y-8966750D02*
X7093250Y-8996750D01*
X7130887Y-9956038D02*
X7160887Y-9986038D01*
X7160887Y-9956038D02*
X7130887Y-9986038D01*
X7165000Y-9505000D02*
X7195000Y-9535000D01*
X7195000Y-9505000D02*
X7165000Y-9535000D01*
X7175000Y-9185000D02*
X7205000Y-9215000D01*
X7205000Y-9185000D02*
X7175000Y-9215000D01*
X7215000Y-10705000D02*
X7245000Y-10735000D01*
X7245000Y-10705000D02*
X7215000Y-10735000D01*
X7247040Y-10632550D02*
X7277040Y-10662550D01*
X7277040Y-10632550D02*
X7247040Y-10662550D01*
X7297771Y-11022229D02*
X7327771Y-11052229D01*
X7327771Y-11022229D02*
X7297771Y-11052229D01*
X7358018Y-11102454D02*
X7388018Y-11132454D01*
X7388018Y-11102454D02*
X7358018Y-11132454D01*
X7365000Y-10585000D02*
X7395000Y-10615000D01*
X7395000Y-10585000D02*
X7365000Y-10615000D01*
X7366334Y-9099491D02*
X7396334Y-9129491D01*
X7396334Y-9099491D02*
X7366334Y-9129491D01*
X7385000Y-11035000D02*
X7415000Y-11065000D01*
X7415000Y-11035000D02*
X7385000Y-11065000D01*
X7435144Y-11132025D02*
X7465144Y-11162025D01*
X7465144Y-11132025D02*
X7435144Y-11162025D01*
X7439865Y-10601422D02*
X7469865Y-10631422D01*
X7469865Y-10601422D02*
X7439865Y-10631422D01*
X7475062Y-9658145D02*
X7505062Y-9688145D01*
X7505062Y-9658145D02*
X7475062Y-9688145D01*
X7484227Y-9137446D02*
X7514227Y-9167446D01*
X7514227Y-9137446D02*
X7484227Y-9167446D01*
X7512523Y-10583030D02*
X7542523Y-10613030D01*
X7542523Y-10583030D02*
X7512523Y-10613030D01*
X7524823Y-10689900D02*
X7554823Y-10719900D01*
X7554823Y-10689900D02*
X7524823Y-10719900D01*
X7595000Y-9165000D02*
X7625000Y-9195000D01*
X7625000Y-9165000D02*
X7595000Y-9195000D01*
X7595000Y-10015000D02*
X7625000Y-10045000D01*
X7625000Y-10015000D02*
X7595000Y-10045000D01*
X7645000Y-9405000D02*
X7675000Y-9435000D01*
X7675000Y-9405000D02*
X7645000Y-9435000D01*
X7645000Y-10245000D02*
X7675000Y-10275000D01*
X7675000Y-10245000D02*
X7645000Y-10275000D01*
X7675000Y-9995000D02*
X7705000Y-10025000D01*
X7705000Y-9995000D02*
X7675000Y-10025000D01*
X7708800Y-10555000D02*
X7738800Y-10585000D01*
X7738800Y-10555000D02*
X7708800Y-10585000D01*
X7717066Y-10265592D02*
X7747066Y-10295592D01*
X7747066Y-10265592D02*
X7717066Y-10295592D01*
X7723339Y-10467760D02*
X7753339Y-10497760D01*
X7753339Y-10467760D02*
X7723339Y-10497760D01*
X7755000Y-9825000D02*
X7785000Y-9855000D01*
X7785000Y-9825000D02*
X7755000Y-9855000D01*
X7762088Y-9174350D02*
X7792088Y-9204350D01*
X7792088Y-9174350D02*
X7762088Y-9204350D01*
X7795000Y-10015000D02*
X7825000Y-10045000D01*
X7825000Y-10015000D02*
X7795000Y-10045000D01*
X7815000Y-11340400D02*
X7845000Y-11370400D01*
X7845000Y-11340400D02*
X7815000Y-11370400D01*
X7825000Y-9005000D02*
X7855000Y-9035000D01*
X7855000Y-9005000D02*
X7825000Y-9035000D01*
X7835000Y-9515000D02*
X7865000Y-9545000D01*
X7865000Y-9515000D02*
X7835000Y-9545000D01*
X7885000Y-10317309D02*
X7915000Y-10347309D01*
X7915000Y-10317309D02*
X7885000Y-10347309D01*
X7895000Y-9445000D02*
X7925000Y-9475000D01*
X7925000Y-9445000D02*
X7895000Y-9475000D01*
X7930000Y-11340000D02*
X7960000Y-11370000D01*
X7960000Y-11340000D02*
X7930000Y-11370000D01*
X7953618Y-11263618D02*
X7983618Y-11293618D01*
X7983618Y-11263618D02*
X7953618Y-11293618D01*
X7995000Y-11085000D02*
X8025000Y-11115000D01*
X8025000Y-11085000D02*
X7995000Y-11115000D01*
X8045000Y-9425000D02*
X8075000Y-9455000D01*
X8075000Y-9425000D02*
X8045000Y-9455000D01*
X8055000Y-9855000D02*
X8085000Y-9885000D01*
X8085000Y-9855000D02*
X8055000Y-9885000D01*
X8070185Y-9495592D02*
X8100185Y-9525592D01*
X8100185Y-9495592D02*
X8070185Y-9525592D01*
X8184743Y-10317309D02*
X8214743Y-10347309D01*
X8214743Y-10317309D02*
X8184743Y-10347309D01*
X8195000Y-10055000D02*
X8225000Y-10085000D01*
X8225000Y-10055000D02*
X8195000Y-10085000D01*
X8205000Y-8885000D02*
X8235000Y-8915000D01*
X8235000Y-8885000D02*
X8205000Y-8915000D01*
X8215000Y-9372550D02*
X8245000Y-9402550D01*
X8245000Y-9372550D02*
X8215000Y-9402550D01*
X8271430Y-9169635D02*
X8301430Y-9199635D01*
X8301430Y-9169635D02*
X8271430Y-9199635D01*
X8303495Y-10295374D02*
X8333495Y-10325374D01*
X8333495Y-10295374D02*
X8303495Y-10325374D01*
X8309457Y-11082103D02*
X8339457Y-11112103D01*
X8339457Y-11082103D02*
X8309457Y-11112103D01*
X8315000Y-9655000D02*
X8345000Y-9685000D01*
X8345000Y-9655000D02*
X8315000Y-9685000D01*
X8376140Y-9143449D02*
X8406140Y-9173449D01*
X8406140Y-9143449D02*
X8376140Y-9173449D01*
X8405000Y-9915000D02*
X8435000Y-9945000D01*
X8435000Y-9915000D02*
X8405000Y-9945000D01*
X8475000Y-9091950D02*
X8505000Y-9121950D01*
X8505000Y-9091950D02*
X8475000Y-9121950D01*
X8475000Y-10055000D02*
X8505000Y-10085000D01*
X8505000Y-10055000D02*
X8475000Y-10085000D01*
X8555000Y-9875000D02*
X8585000Y-9905000D01*
X8585000Y-9875000D02*
X8555000Y-9905000D01*
X8555000Y-11265000D02*
X8585000Y-11295000D01*
X8585000Y-11265000D02*
X8555000Y-11295000D01*
X8612550Y-9619843D02*
X8642550Y-9649843D01*
X8642550Y-9619843D02*
X8612550Y-9649843D01*
X8680050Y-9535000D02*
X8710050Y-9565000D01*
X8710050Y-9535000D02*
X8680050Y-9565000D01*
X9255000Y-9485000D02*
X9285000Y-9515000D01*
X9285000Y-9485000D02*
X9255000Y-9515000D01*
D12*
X8819000Y-10400000D02*
G75*
G03*
X8819000Y-10400000I-19000J0D01*
G01*
X8829000Y-10640000D02*
G75*
G03*
X8829000Y-10640000I-19000J0D01*
G01*
X8939000Y-11240000D02*
G75*
G03*
X8939000Y-11240000I-19000J0D01*
G01*
X8969000Y-9580000D02*
G75*
G03*
X8969000Y-9580000I-19000J0D01*
G01*
X9109000Y-9020000D02*
G75*
G03*
X9109000Y-9020000I-19000J0D01*
G01*
X9159000Y-10260000D02*
G75*
G03*
X9159000Y-10260000I-19000J0D01*
G01*
X9419000Y-9770000D02*
G75*
G03*
X9419000Y-9770000I-19000J0D01*
G01*
X9419000Y-10070000D02*
G75*
G03*
X9419000Y-10070000I-19000J0D01*
G01*
X9419000Y-10370000D02*
G75*
G03*
X9419000Y-10370000I-19000J0D01*
G01*
X9419000Y-10670000D02*
G75*
G03*
X9419000Y-10670000I-19000J0D01*
G01*
X9419000Y-10970000D02*
G75*
G03*
X9419000Y-10970000I-19000J0D01*
G01*
X9419000Y-11270000D02*
G75*
G03*
X9419000Y-11270000I-19000J0D01*
G01*
X9419000Y-11570000D02*
G75*
G03*
X9419000Y-11570000I-19000J0D01*
G01*
D13*
X6160000Y-9950000D02*
X6160000Y-9990000D01*
X6140000Y-9970000D02*
X6180000Y-9970000D01*
X6740000Y-9880000D02*
X6740000Y-9920000D01*
X6720000Y-9900000D02*
X6760000Y-9900000D01*
X6988260Y-9837036D02*
X6988260Y-9877036D01*
X6968260Y-9857036D02*
X7008260Y-9857036D01*
X8480000Y-8920000D02*
X8480000Y-8960000D01*
X8460000Y-8940000D02*
X8500000Y-8940000D01*
X8584559Y-9100778D02*
X8584559Y-9140778D01*
X8564559Y-9120778D02*
X8604559Y-9120778D01*
X8670000Y-9420000D02*
X8670000Y-9460000D01*
X8650000Y-9440000D02*
X8690000Y-9440000D01*
D14*
X5437678Y-9882678D02*
X5437678Y-9847322D01*
X5402322Y-9847322D01*
X5402322Y-9882678D01*
X5437678Y-9882678D01*
X5437678Y-10007678D02*
X5437678Y-9972322D01*
X5402322Y-9972322D01*
X5402322Y-10007678D01*
X5437678Y-10007678D01*
D15*
X5490000Y-11260000D02*
X5520000Y-11230000D01*
X5490000Y-11200000D01*
X5460000Y-11230000D01*
X5490000Y-11260000D01*
X5830000Y-11181250D02*
X5860000Y-11151250D01*
X5830000Y-11121250D01*
X5800000Y-11151250D01*
X5830000Y-11181250D01*
X6140000Y-10470000D02*
X6170000Y-10440000D01*
X6140000Y-10410000D01*
X6110000Y-10440000D01*
X6140000Y-10470000D01*
X6300000Y-10230000D02*
X6330000Y-10200000D01*
X6300000Y-10170000D01*
X6270000Y-10200000D01*
X6300000Y-10230000D01*
X6420000Y-8700000D02*
X6450000Y-8670000D01*
X6420000Y-8640000D01*
X6390000Y-8670000D01*
X6420000Y-8700000D01*
X6820000Y-9220000D02*
X6850000Y-9190000D01*
X6820000Y-9160000D01*
X6790000Y-9190000D01*
X6820000Y-9220000D01*
X6840000Y-10310000D02*
X6870000Y-10280000D01*
X6840000Y-10250000D01*
X6810000Y-10280000D01*
X6840000Y-10310000D01*
X7100000Y-8890000D02*
X7130000Y-8860000D01*
X7100000Y-8830000D01*
X7070000Y-8860000D01*
X7100000Y-8890000D01*
X7670095Y-11137053D02*
X7700095Y-11107053D01*
X7670095Y-11077053D01*
X7640095Y-11107053D01*
X7670095Y-11137053D01*
X8499590Y-10324898D02*
X8529590Y-10294898D01*
X8499590Y-10264898D01*
X8469590Y-10294898D01*
X8499590Y-10324898D01*
D16*
X5930000Y-11241250D02*
X6020000Y-11331250D01*
X6020000Y-11241250D02*
X5930000Y-11331250D01*
X6020000Y-11286250D02*
G75*
G03*
X6020000Y-11286250I-45000J0D01*
G01*
X6185000Y-11241250D02*
X6275000Y-11331250D01*
X6275000Y-11241250D02*
X6185000Y-11331250D01*
X6275000Y-11286250D02*
G75*
G03*
X6275000Y-11286250I-45000J0D01*
G01*
X6440000Y-11241250D02*
X6530000Y-11331250D01*
X6530000Y-11241250D02*
X6440000Y-11331250D01*
X6530000Y-11286250D02*
G75*
G03*
X6530000Y-11286250I-45000J0D01*
G01*
X7210000Y-11195000D02*
X7300000Y-11285000D01*
X7300000Y-11195000D02*
X7210000Y-11285000D01*
X7300000Y-11240000D02*
G75*
G03*
X7300000Y-11240000I-45000J0D01*
G01*
X7710000Y-11195000D02*
X7800000Y-11285000D01*
X7800000Y-11195000D02*
X7710000Y-11285000D01*
X7800000Y-11240000D02*
G75*
G03*
X7800000Y-11240000I-45000J0D01*
G01*
D17*
X5450000Y-10316000D02*
X5550000Y-10416000D01*
X5550000Y-10316000D02*
X5450000Y-10416000D01*
X5500000Y-10316000D02*
X5500000Y-10416000D01*
X5450000Y-10366000D02*
X5550000Y-10366000D01*
X5450000Y-10570000D02*
X5550000Y-10670000D01*
X5550000Y-10570000D02*
X5450000Y-10670000D01*
X5500000Y-10570000D02*
X5500000Y-10670000D01*
X5450000Y-10620000D02*
X5550000Y-10620000D01*
X5450000Y-10824000D02*
X5550000Y-10924000D01*
X5550000Y-10824000D02*
X5450000Y-10924000D01*
X5500000Y-10824000D02*
X5500000Y-10924000D01*
X5450000Y-10874000D02*
X5550000Y-10874000D01*
X6167500Y-8789500D02*
X6267500Y-8889500D01*
X6267500Y-8789500D02*
X6167500Y-8889500D01*
X6217500Y-8789500D02*
X6217500Y-8889500D01*
X6167500Y-8839500D02*
X6267500Y-8839500D01*
X6167500Y-9043500D02*
X6267500Y-9143500D01*
X6267500Y-9043500D02*
X6167500Y-9143500D01*
X6217500Y-9043500D02*
X6217500Y-9143500D01*
X6167500Y-9093500D02*
X6267500Y-9093500D01*
X6167500Y-9297500D02*
X6267500Y-9397500D01*
X6267500Y-9297500D02*
X6167500Y-9397500D01*
X6217500Y-9297500D02*
X6217500Y-9397500D01*
X6167500Y-9347500D02*
X6267500Y-9347500D01*
X8132000Y-11400000D02*
X8232000Y-11500000D01*
X8232000Y-11400000D02*
X8132000Y-11500000D01*
X8182000Y-11400000D02*
X8182000Y-11500000D01*
X8132000Y-11450000D02*
X8232000Y-11450000D01*
X8386000Y-11400000D02*
X8486000Y-11500000D01*
X8486000Y-11400000D02*
X8386000Y-11500000D01*
X8436000Y-11400000D02*
X8436000Y-11500000D01*
X8386000Y-11450000D02*
X8486000Y-11450000D01*
X8458000Y-8740000D02*
X8558000Y-8840000D01*
X8558000Y-8740000D02*
X8458000Y-8840000D01*
X8508000Y-8740000D02*
X8508000Y-8840000D01*
X8458000Y-8790000D02*
X8558000Y-8790000D01*
X8640000Y-11400000D02*
X8740000Y-11500000D01*
X8740000Y-11400000D02*
X8640000Y-11500000D01*
X8690000Y-11400000D02*
X8690000Y-11500000D01*
X8640000Y-11450000D02*
X8740000Y-11450000D01*
X8712000Y-8740000D02*
X8812000Y-8840000D01*
X8812000Y-8740000D02*
X8712000Y-8840000D01*
X8762000Y-8740000D02*
X8762000Y-8840000D01*
X8712000Y-8790000D02*
X8812000Y-8790000D01*
X8894000Y-11400000D02*
X8994000Y-11500000D01*
X8994000Y-11400000D02*
X8894000Y-11500000D01*
X8944000Y-11400000D02*
X8944000Y-11500000D01*
X8894000Y-11450000D02*
X8994000Y-11450000D01*
X8966000Y-8740000D02*
X9066000Y-8840000D01*
X9066000Y-8740000D02*
X8966000Y-8840000D01*
X9016000Y-8740000D02*
X9016000Y-8840000D01*
X8966000Y-8790000D02*
X9066000Y-8790000D01*
X9220000Y-8740000D02*
X9320000Y-8840000D01*
X9320000Y-8740000D02*
X9220000Y-8840000D01*
X9270000Y-8740000D02*
X9270000Y-8840000D01*
X9220000Y-8790000D02*
X9320000Y-8790000D01*
X9474000Y-8740000D02*
X9574000Y-8840000D01*
X9574000Y-8740000D02*
X9474000Y-8840000D01*
X9524000Y-8740000D02*
X9524000Y-8840000D01*
X9474000Y-8790000D02*
X9574000Y-8790000D01*
X9728000Y-8740000D02*
X9828000Y-8840000D01*
X9828000Y-8740000D02*
X9728000Y-8840000D01*
X9778000Y-8740000D02*
X9778000Y-8840000D01*
X9728000Y-8790000D02*
X9828000Y-8790000D01*
D18*
X7095000Y-11450000D02*
X7215000Y-11570000D01*
X7215000Y-11450000D02*
X7095000Y-11570000D01*
X7197427Y-11552427D02*
X7197427Y-11467573D01*
X7112573Y-11467573D01*
X7112573Y-11552427D01*
X7197427Y-11552427D01*
X7795000Y-11450000D02*
X7915000Y-11570000D01*
X7915000Y-11450000D02*
X7795000Y-11570000D01*
X7897427Y-11552427D02*
X7897427Y-11467573D01*
X7812573Y-11467573D01*
X7812573Y-11552427D01*
X7897427Y-11552427D01*
D10*
X5507619Y-11972524D02*
X5507619Y-11772524D01*
X5507619Y-11772524D02*
X5555238Y-11772524D01*
X5555238Y-11772524D02*
X5583810Y-11782048D01*
X5583810Y-11782048D02*
X5602857Y-11801095D01*
X5602857Y-11801095D02*
X5612381Y-11820143D01*
X5612381Y-11820143D02*
X5621905Y-11858238D01*
X5621905Y-11858238D02*
X5621905Y-11886809D01*
X5621905Y-11886809D02*
X5612381Y-11924905D01*
X5612381Y-11924905D02*
X5602857Y-11943952D01*
X5602857Y-11943952D02*
X5583810Y-11963000D01*
X5583810Y-11963000D02*
X5555238Y-11972524D01*
X5555238Y-11972524D02*
X5507619Y-11972524D01*
X5707619Y-11972524D02*
X5707619Y-11839190D01*
X5707619Y-11877286D02*
X5717143Y-11858238D01*
X5717143Y-11858238D02*
X5726667Y-11848714D01*
X5726667Y-11848714D02*
X5745714Y-11839190D01*
X5745714Y-11839190D02*
X5764762Y-11839190D01*
X5831428Y-11972524D02*
X5831428Y-11839190D01*
X5831428Y-11772524D02*
X5821905Y-11782048D01*
X5821905Y-11782048D02*
X5831428Y-11791571D01*
X5831428Y-11791571D02*
X5840952Y-11782048D01*
X5840952Y-11782048D02*
X5831428Y-11772524D01*
X5831428Y-11772524D02*
X5831428Y-11791571D01*
X5955238Y-11972524D02*
X5936190Y-11963000D01*
X5936190Y-11963000D02*
X5926667Y-11943952D01*
X5926667Y-11943952D02*
X5926667Y-11772524D01*
X6060000Y-11972524D02*
X6040952Y-11963000D01*
X6040952Y-11963000D02*
X6031428Y-11943952D01*
X6031428Y-11943952D02*
X6031428Y-11772524D01*
X6288571Y-11972524D02*
X6288571Y-11772524D01*
X6288571Y-11772524D02*
X6355238Y-11915381D01*
X6355238Y-11915381D02*
X6421905Y-11772524D01*
X6421905Y-11772524D02*
X6421905Y-11972524D01*
X6602857Y-11972524D02*
X6602857Y-11867762D01*
X6602857Y-11867762D02*
X6593333Y-11848714D01*
X6593333Y-11848714D02*
X6574286Y-11839190D01*
X6574286Y-11839190D02*
X6536190Y-11839190D01*
X6536190Y-11839190D02*
X6517143Y-11848714D01*
X6602857Y-11963000D02*
X6583809Y-11972524D01*
X6583809Y-11972524D02*
X6536190Y-11972524D01*
X6536190Y-11972524D02*
X6517143Y-11963000D01*
X6517143Y-11963000D02*
X6507619Y-11943952D01*
X6507619Y-11943952D02*
X6507619Y-11924905D01*
X6507619Y-11924905D02*
X6517143Y-11905857D01*
X6517143Y-11905857D02*
X6536190Y-11896333D01*
X6536190Y-11896333D02*
X6583809Y-11896333D01*
X6583809Y-11896333D02*
X6602857Y-11886809D01*
X6698095Y-11839190D02*
X6698095Y-12039190D01*
X6698095Y-11848714D02*
X6717143Y-11839190D01*
X6717143Y-11839190D02*
X6755238Y-11839190D01*
X6755238Y-11839190D02*
X6774286Y-11848714D01*
X6774286Y-11848714D02*
X6783809Y-11858238D01*
X6783809Y-11858238D02*
X6793333Y-11877286D01*
X6793333Y-11877286D02*
X6793333Y-11934428D01*
X6793333Y-11934428D02*
X6783809Y-11953476D01*
X6783809Y-11953476D02*
X6774286Y-11963000D01*
X6774286Y-11963000D02*
X6755238Y-11972524D01*
X6755238Y-11972524D02*
X6717143Y-11972524D01*
X6717143Y-11972524D02*
X6698095Y-11963000D01*
X6879048Y-11953476D02*
X6888571Y-11963000D01*
X6888571Y-11963000D02*
X6879048Y-11972524D01*
X6879048Y-11972524D02*
X6869524Y-11963000D01*
X6869524Y-11963000D02*
X6879048Y-11953476D01*
X6879048Y-11953476D02*
X6879048Y-11972524D01*
X6879048Y-11848714D02*
X6888571Y-11858238D01*
X6888571Y-11858238D02*
X6879048Y-11867762D01*
X6879048Y-11867762D02*
X6869524Y-11858238D01*
X6869524Y-11858238D02*
X6879048Y-11848714D01*
X6879048Y-11848714D02*
X6879048Y-11867762D01*
D11*
X5230000Y-12285000D02*
X5260000Y-12315000D01*
X5260000Y-12285000D02*
X5230000Y-12315000D01*
D10*
X5545714Y-12192524D02*
X5564762Y-12192524D01*
X5564762Y-12192524D02*
X5583810Y-12202048D01*
X5583810Y-12202048D02*
X5593333Y-12211571D01*
X5593333Y-12211571D02*
X5602857Y-12230619D01*
X5602857Y-12230619D02*
X5612381Y-12268714D01*
X5612381Y-12268714D02*
X5612381Y-12316333D01*
X5612381Y-12316333D02*
X5602857Y-12354428D01*
X5602857Y-12354428D02*
X5593333Y-12373476D01*
X5593333Y-12373476D02*
X5583810Y-12383000D01*
X5583810Y-12383000D02*
X5564762Y-12392524D01*
X5564762Y-12392524D02*
X5545714Y-12392524D01*
X5545714Y-12392524D02*
X5526667Y-12383000D01*
X5526667Y-12383000D02*
X5517143Y-12373476D01*
X5517143Y-12373476D02*
X5507619Y-12354428D01*
X5507619Y-12354428D02*
X5498095Y-12316333D01*
X5498095Y-12316333D02*
X5498095Y-12268714D01*
X5498095Y-12268714D02*
X5507619Y-12230619D01*
X5507619Y-12230619D02*
X5517143Y-12211571D01*
X5517143Y-12211571D02*
X5526667Y-12202048D01*
X5526667Y-12202048D02*
X5545714Y-12192524D01*
X5698095Y-12373476D02*
X5707619Y-12383000D01*
X5707619Y-12383000D02*
X5698095Y-12392524D01*
X5698095Y-12392524D02*
X5688571Y-12383000D01*
X5688571Y-12383000D02*
X5698095Y-12373476D01*
X5698095Y-12373476D02*
X5698095Y-12392524D01*
X5774286Y-12192524D02*
X5898095Y-12192524D01*
X5898095Y-12192524D02*
X5831428Y-12268714D01*
X5831428Y-12268714D02*
X5860000Y-12268714D01*
X5860000Y-12268714D02*
X5879048Y-12278238D01*
X5879048Y-12278238D02*
X5888571Y-12287762D01*
X5888571Y-12287762D02*
X5898095Y-12306809D01*
X5898095Y-12306809D02*
X5898095Y-12354428D01*
X5898095Y-12354428D02*
X5888571Y-12373476D01*
X5888571Y-12373476D02*
X5879048Y-12383000D01*
X5879048Y-12383000D02*
X5860000Y-12392524D01*
X5860000Y-12392524D02*
X5802857Y-12392524D01*
X5802857Y-12392524D02*
X5783809Y-12383000D01*
X5783809Y-12383000D02*
X5774286Y-12373476D01*
X6021905Y-12192524D02*
X6040952Y-12192524D01*
X6040952Y-12192524D02*
X6060000Y-12202048D01*
X6060000Y-12202048D02*
X6069524Y-12211571D01*
X6069524Y-12211571D02*
X6079048Y-12230619D01*
X6079048Y-12230619D02*
X6088571Y-12268714D01*
X6088571Y-12268714D02*
X6088571Y-12316333D01*
X6088571Y-12316333D02*
X6079048Y-12354428D01*
X6079048Y-12354428D02*
X6069524Y-12373476D01*
X6069524Y-12373476D02*
X6060000Y-12383000D01*
X6060000Y-12383000D02*
X6040952Y-12392524D01*
X6040952Y-12392524D02*
X6021905Y-12392524D01*
X6021905Y-12392524D02*
X6002857Y-12383000D01*
X6002857Y-12383000D02*
X5993333Y-12373476D01*
X5993333Y-12373476D02*
X5983809Y-12354428D01*
X5983809Y-12354428D02*
X5974286Y-12316333D01*
X5974286Y-12316333D02*
X5974286Y-12268714D01*
X5974286Y-12268714D02*
X5983809Y-12230619D01*
X5983809Y-12230619D02*
X5993333Y-12211571D01*
X5993333Y-12211571D02*
X6002857Y-12202048D01*
X6002857Y-12202048D02*
X6021905Y-12192524D01*
X6212381Y-12192524D02*
X6231429Y-12192524D01*
X6231429Y-12192524D02*
X6250476Y-12202048D01*
X6250476Y-12202048D02*
X6260000Y-12211571D01*
X6260000Y-12211571D02*
X6269524Y-12230619D01*
X6269524Y-12230619D02*
X6279048Y-12268714D01*
X6279048Y-12268714D02*
X6279048Y-12316333D01*
X6279048Y-12316333D02*
X6269524Y-12354428D01*
X6269524Y-12354428D02*
X6260000Y-12373476D01*
X6260000Y-12373476D02*
X6250476Y-12383000D01*
X6250476Y-12383000D02*
X6231429Y-12392524D01*
X6231429Y-12392524D02*
X6212381Y-12392524D01*
X6212381Y-12392524D02*
X6193333Y-12383000D01*
X6193333Y-12383000D02*
X6183809Y-12373476D01*
X6183809Y-12373476D02*
X6174286Y-12354428D01*
X6174286Y-12354428D02*
X6164762Y-12316333D01*
X6164762Y-12316333D02*
X6164762Y-12268714D01*
X6164762Y-12268714D02*
X6174286Y-12230619D01*
X6174286Y-12230619D02*
X6183809Y-12211571D01*
X6183809Y-12211571D02*
X6193333Y-12202048D01*
X6193333Y-12202048D02*
X6212381Y-12192524D01*
X6364762Y-12392524D02*
X6364762Y-12259190D01*
X6364762Y-12278238D02*
X6374286Y-12268714D01*
X6374286Y-12268714D02*
X6393333Y-12259190D01*
X6393333Y-12259190D02*
X6421905Y-12259190D01*
X6421905Y-12259190D02*
X6440952Y-12268714D01*
X6440952Y-12268714D02*
X6450476Y-12287762D01*
X6450476Y-12287762D02*
X6450476Y-12392524D01*
X6450476Y-12287762D02*
X6460000Y-12268714D01*
X6460000Y-12268714D02*
X6479048Y-12259190D01*
X6479048Y-12259190D02*
X6507619Y-12259190D01*
X6507619Y-12259190D02*
X6526667Y-12268714D01*
X6526667Y-12268714D02*
X6536190Y-12287762D01*
X6536190Y-12287762D02*
X6536190Y-12392524D01*
X6631429Y-12392524D02*
X6631429Y-12259190D01*
X6631429Y-12278238D02*
X6640952Y-12268714D01*
X6640952Y-12268714D02*
X6660000Y-12259190D01*
X6660000Y-12259190D02*
X6688571Y-12259190D01*
X6688571Y-12259190D02*
X6707619Y-12268714D01*
X6707619Y-12268714D02*
X6717143Y-12287762D01*
X6717143Y-12287762D02*
X6717143Y-12392524D01*
X6717143Y-12287762D02*
X6726667Y-12268714D01*
X6726667Y-12268714D02*
X6745714Y-12259190D01*
X6745714Y-12259190D02*
X6774286Y-12259190D01*
X6774286Y-12259190D02*
X6793333Y-12268714D01*
X6793333Y-12268714D02*
X6802857Y-12287762D01*
X6802857Y-12287762D02*
X6802857Y-12392524D01*
X7193333Y-12183000D02*
X7021905Y-12440143D01*
X7450476Y-12192524D02*
X7469524Y-12192524D01*
X7469524Y-12192524D02*
X7488572Y-12202048D01*
X7488572Y-12202048D02*
X7498095Y-12211571D01*
X7498095Y-12211571D02*
X7507619Y-12230619D01*
X7507619Y-12230619D02*
X7517143Y-12268714D01*
X7517143Y-12268714D02*
X7517143Y-12316333D01*
X7517143Y-12316333D02*
X7507619Y-12354428D01*
X7507619Y-12354428D02*
X7498095Y-12373476D01*
X7498095Y-12373476D02*
X7488572Y-12383000D01*
X7488572Y-12383000D02*
X7469524Y-12392524D01*
X7469524Y-12392524D02*
X7450476Y-12392524D01*
X7450476Y-12392524D02*
X7431429Y-12383000D01*
X7431429Y-12383000D02*
X7421905Y-12373476D01*
X7421905Y-12373476D02*
X7412381Y-12354428D01*
X7412381Y-12354428D02*
X7402857Y-12316333D01*
X7402857Y-12316333D02*
X7402857Y-12268714D01*
X7402857Y-12268714D02*
X7412381Y-12230619D01*
X7412381Y-12230619D02*
X7421905Y-12211571D01*
X7421905Y-12211571D02*
X7431429Y-12202048D01*
X7431429Y-12202048D02*
X7450476Y-12192524D01*
X7602857Y-12373476D02*
X7612381Y-12383000D01*
X7612381Y-12383000D02*
X7602857Y-12392524D01*
X7602857Y-12392524D02*
X7593333Y-12383000D01*
X7593333Y-12383000D02*
X7602857Y-12373476D01*
X7602857Y-12373476D02*
X7602857Y-12392524D01*
X7736191Y-12192524D02*
X7755238Y-12192524D01*
X7755238Y-12192524D02*
X7774286Y-12202048D01*
X7774286Y-12202048D02*
X7783810Y-12211571D01*
X7783810Y-12211571D02*
X7793333Y-12230619D01*
X7793333Y-12230619D02*
X7802857Y-12268714D01*
X7802857Y-12268714D02*
X7802857Y-12316333D01*
X7802857Y-12316333D02*
X7793333Y-12354428D01*
X7793333Y-12354428D02*
X7783810Y-12373476D01*
X7783810Y-12373476D02*
X7774286Y-12383000D01*
X7774286Y-12383000D02*
X7755238Y-12392524D01*
X7755238Y-12392524D02*
X7736191Y-12392524D01*
X7736191Y-12392524D02*
X7717143Y-12383000D01*
X7717143Y-12383000D02*
X7707619Y-12373476D01*
X7707619Y-12373476D02*
X7698095Y-12354428D01*
X7698095Y-12354428D02*
X7688572Y-12316333D01*
X7688572Y-12316333D02*
X7688572Y-12268714D01*
X7688572Y-12268714D02*
X7698095Y-12230619D01*
X7698095Y-12230619D02*
X7707619Y-12211571D01*
X7707619Y-12211571D02*
X7717143Y-12202048D01*
X7717143Y-12202048D02*
X7736191Y-12192524D01*
X7993333Y-12392524D02*
X7879048Y-12392524D01*
X7936191Y-12392524D02*
X7936191Y-12192524D01*
X7936191Y-12192524D02*
X7917143Y-12221095D01*
X7917143Y-12221095D02*
X7898095Y-12240143D01*
X7898095Y-12240143D02*
X7879048Y-12249667D01*
X8183810Y-12392524D02*
X8069524Y-12392524D01*
X8126667Y-12392524D02*
X8126667Y-12192524D01*
X8126667Y-12192524D02*
X8107619Y-12221095D01*
X8107619Y-12221095D02*
X8088572Y-12240143D01*
X8088572Y-12240143D02*
X8069524Y-12249667D01*
X8298095Y-12278238D02*
X8279048Y-12268714D01*
X8279048Y-12268714D02*
X8269524Y-12259190D01*
X8269524Y-12259190D02*
X8260000Y-12240143D01*
X8260000Y-12240143D02*
X8260000Y-12230619D01*
X8260000Y-12230619D02*
X8269524Y-12211571D01*
X8269524Y-12211571D02*
X8279048Y-12202048D01*
X8279048Y-12202048D02*
X8298095Y-12192524D01*
X8298095Y-12192524D02*
X8336191Y-12192524D01*
X8336191Y-12192524D02*
X8355238Y-12202048D01*
X8355238Y-12202048D02*
X8364762Y-12211571D01*
X8364762Y-12211571D02*
X8374286Y-12230619D01*
X8374286Y-12230619D02*
X8374286Y-12240143D01*
X8374286Y-12240143D02*
X8364762Y-12259190D01*
X8364762Y-12259190D02*
X8355238Y-12268714D01*
X8355238Y-12268714D02*
X8336191Y-12278238D01*
X8336191Y-12278238D02*
X8298095Y-12278238D01*
X8298095Y-12278238D02*
X8279048Y-12287762D01*
X8279048Y-12287762D02*
X8269524Y-12297286D01*
X8269524Y-12297286D02*
X8260000Y-12316333D01*
X8260000Y-12316333D02*
X8260000Y-12354428D01*
X8260000Y-12354428D02*
X8269524Y-12373476D01*
X8269524Y-12373476D02*
X8279048Y-12383000D01*
X8279048Y-12383000D02*
X8298095Y-12392524D01*
X8298095Y-12392524D02*
X8336191Y-12392524D01*
X8336191Y-12392524D02*
X8355238Y-12383000D01*
X8355238Y-12383000D02*
X8364762Y-12373476D01*
X8364762Y-12373476D02*
X8374286Y-12354428D01*
X8374286Y-12354428D02*
X8374286Y-12316333D01*
X8374286Y-12316333D02*
X8364762Y-12297286D01*
X8364762Y-12297286D02*
X8355238Y-12287762D01*
X8355238Y-12287762D02*
X8336191Y-12278238D01*
X8450476Y-12192524D02*
X8450476Y-12230619D01*
X8526667Y-12192524D02*
X8526667Y-12230619D01*
X8821905Y-12468714D02*
X8812381Y-12459190D01*
X8812381Y-12459190D02*
X8793334Y-12430619D01*
X8793334Y-12430619D02*
X8783810Y-12411571D01*
X8783810Y-12411571D02*
X8774286Y-12383000D01*
X8774286Y-12383000D02*
X8764762Y-12335381D01*
X8764762Y-12335381D02*
X8764762Y-12297286D01*
X8764762Y-12297286D02*
X8774286Y-12249667D01*
X8774286Y-12249667D02*
X8783810Y-12221095D01*
X8783810Y-12221095D02*
X8793334Y-12202048D01*
X8793334Y-12202048D02*
X8812381Y-12173476D01*
X8812381Y-12173476D02*
X8821905Y-12163952D01*
X8983810Y-12192524D02*
X8945715Y-12192524D01*
X8945715Y-12192524D02*
X8926667Y-12202048D01*
X8926667Y-12202048D02*
X8917143Y-12211571D01*
X8917143Y-12211571D02*
X8898096Y-12240143D01*
X8898096Y-12240143D02*
X8888572Y-12278238D01*
X8888572Y-12278238D02*
X8888572Y-12354428D01*
X8888572Y-12354428D02*
X8898096Y-12373476D01*
X8898096Y-12373476D02*
X8907619Y-12383000D01*
X8907619Y-12383000D02*
X8926667Y-12392524D01*
X8926667Y-12392524D02*
X8964762Y-12392524D01*
X8964762Y-12392524D02*
X8983810Y-12383000D01*
X8983810Y-12383000D02*
X8993334Y-12373476D01*
X8993334Y-12373476D02*
X9002857Y-12354428D01*
X9002857Y-12354428D02*
X9002857Y-12306809D01*
X9002857Y-12306809D02*
X8993334Y-12287762D01*
X8993334Y-12287762D02*
X8983810Y-12278238D01*
X8983810Y-12278238D02*
X8964762Y-12268714D01*
X8964762Y-12268714D02*
X8926667Y-12268714D01*
X8926667Y-12268714D02*
X8907619Y-12278238D01*
X8907619Y-12278238D02*
X8898096Y-12287762D01*
X8898096Y-12287762D02*
X8888572Y-12306809D01*
X9098096Y-12392524D02*
X9136191Y-12392524D01*
X9136191Y-12392524D02*
X9155238Y-12383000D01*
X9155238Y-12383000D02*
X9164762Y-12373476D01*
X9164762Y-12373476D02*
X9183810Y-12344905D01*
X9183810Y-12344905D02*
X9193334Y-12306809D01*
X9193334Y-12306809D02*
X9193334Y-12230619D01*
X9193334Y-12230619D02*
X9183810Y-12211571D01*
X9183810Y-12211571D02*
X9174286Y-12202048D01*
X9174286Y-12202048D02*
X9155238Y-12192524D01*
X9155238Y-12192524D02*
X9117143Y-12192524D01*
X9117143Y-12192524D02*
X9098096Y-12202048D01*
X9098096Y-12202048D02*
X9088572Y-12211571D01*
X9088572Y-12211571D02*
X9079048Y-12230619D01*
X9079048Y-12230619D02*
X9079048Y-12278238D01*
X9079048Y-12278238D02*
X9088572Y-12297286D01*
X9088572Y-12297286D02*
X9098096Y-12306809D01*
X9098096Y-12306809D02*
X9117143Y-12316333D01*
X9117143Y-12316333D02*
X9155238Y-12316333D01*
X9155238Y-12316333D02*
X9174286Y-12306809D01*
X9174286Y-12306809D02*
X9183810Y-12297286D01*
X9183810Y-12297286D02*
X9193334Y-12278238D01*
X9431429Y-12392524D02*
X9431429Y-12192524D01*
X9517143Y-12392524D02*
X9517143Y-12287762D01*
X9517143Y-12287762D02*
X9507619Y-12268714D01*
X9507619Y-12268714D02*
X9488572Y-12259190D01*
X9488572Y-12259190D02*
X9460000Y-12259190D01*
X9460000Y-12259190D02*
X9440953Y-12268714D01*
X9440953Y-12268714D02*
X9431429Y-12278238D01*
X9640953Y-12392524D02*
X9621905Y-12383000D01*
X9621905Y-12383000D02*
X9612381Y-12373476D01*
X9612381Y-12373476D02*
X9602858Y-12354428D01*
X9602858Y-12354428D02*
X9602858Y-12297286D01*
X9602858Y-12297286D02*
X9612381Y-12278238D01*
X9612381Y-12278238D02*
X9621905Y-12268714D01*
X9621905Y-12268714D02*
X9640953Y-12259190D01*
X9640953Y-12259190D02*
X9669524Y-12259190D01*
X9669524Y-12259190D02*
X9688572Y-12268714D01*
X9688572Y-12268714D02*
X9698096Y-12278238D01*
X9698096Y-12278238D02*
X9707619Y-12297286D01*
X9707619Y-12297286D02*
X9707619Y-12354428D01*
X9707619Y-12354428D02*
X9698096Y-12373476D01*
X9698096Y-12373476D02*
X9688572Y-12383000D01*
X9688572Y-12383000D02*
X9669524Y-12392524D01*
X9669524Y-12392524D02*
X9640953Y-12392524D01*
X9821905Y-12392524D02*
X9802858Y-12383000D01*
X9802858Y-12383000D02*
X9793334Y-12363952D01*
X9793334Y-12363952D02*
X9793334Y-12192524D01*
X9974286Y-12383000D02*
X9955239Y-12392524D01*
X9955239Y-12392524D02*
X9917143Y-12392524D01*
X9917143Y-12392524D02*
X9898096Y-12383000D01*
X9898096Y-12383000D02*
X9888572Y-12363952D01*
X9888572Y-12363952D02*
X9888572Y-12287762D01*
X9888572Y-12287762D02*
X9898096Y-12268714D01*
X9898096Y-12268714D02*
X9917143Y-12259190D01*
X9917143Y-12259190D02*
X9955239Y-12259190D01*
X9955239Y-12259190D02*
X9974286Y-12268714D01*
X9974286Y-12268714D02*
X9983810Y-12287762D01*
X9983810Y-12287762D02*
X9983810Y-12306809D01*
X9983810Y-12306809D02*
X9888572Y-12325857D01*
X10060000Y-12383000D02*
X10079048Y-12392524D01*
X10079048Y-12392524D02*
X10117143Y-12392524D01*
X10117143Y-12392524D02*
X10136191Y-12383000D01*
X10136191Y-12383000D02*
X10145715Y-12363952D01*
X10145715Y-12363952D02*
X10145715Y-12354428D01*
X10145715Y-12354428D02*
X10136191Y-12335381D01*
X10136191Y-12335381D02*
X10117143Y-12325857D01*
X10117143Y-12325857D02*
X10088572Y-12325857D01*
X10088572Y-12325857D02*
X10069524Y-12316333D01*
X10069524Y-12316333D02*
X10060000Y-12297286D01*
X10060000Y-12297286D02*
X10060000Y-12287762D01*
X10060000Y-12287762D02*
X10069524Y-12268714D01*
X10069524Y-12268714D02*
X10088572Y-12259190D01*
X10088572Y-12259190D02*
X10117143Y-12259190D01*
X10117143Y-12259190D02*
X10136191Y-12268714D01*
X10212381Y-12468714D02*
X10221905Y-12459190D01*
X10221905Y-12459190D02*
X10240953Y-12430619D01*
X10240953Y-12430619D02*
X10250477Y-12411571D01*
X10250477Y-12411571D02*
X10260000Y-12383000D01*
X10260000Y-12383000D02*
X10269524Y-12335381D01*
X10269524Y-12335381D02*
X10269524Y-12297286D01*
X10269524Y-12297286D02*
X10260000Y-12249667D01*
X10260000Y-12249667D02*
X10250477Y-12221095D01*
X10250477Y-12221095D02*
X10240953Y-12202048D01*
X10240953Y-12202048D02*
X10221905Y-12173476D01*
X10221905Y-12173476D02*
X10212381Y-12163952D01*
D12*
X5260000Y-12564000D02*
G75*
G03*
X5260000Y-12564000I-19000J0D01*
G01*
D10*
X5545714Y-12456524D02*
X5564762Y-12456524D01*
X5564762Y-12456524D02*
X5583810Y-12466048D01*
X5583810Y-12466048D02*
X5593333Y-12475571D01*
X5593333Y-12475571D02*
X5602857Y-12494619D01*
X5602857Y-12494619D02*
X5612381Y-12532714D01*
X5612381Y-12532714D02*
X5612381Y-12580333D01*
X5612381Y-12580333D02*
X5602857Y-12618428D01*
X5602857Y-12618428D02*
X5593333Y-12637476D01*
X5593333Y-12637476D02*
X5583810Y-12647000D01*
X5583810Y-12647000D02*
X5564762Y-12656524D01*
X5564762Y-12656524D02*
X5545714Y-12656524D01*
X5545714Y-12656524D02*
X5526667Y-12647000D01*
X5526667Y-12647000D02*
X5517143Y-12637476D01*
X5517143Y-12637476D02*
X5507619Y-12618428D01*
X5507619Y-12618428D02*
X5498095Y-12580333D01*
X5498095Y-12580333D02*
X5498095Y-12532714D01*
X5498095Y-12532714D02*
X5507619Y-12494619D01*
X5507619Y-12494619D02*
X5517143Y-12475571D01*
X5517143Y-12475571D02*
X5526667Y-12466048D01*
X5526667Y-12466048D02*
X5545714Y-12456524D01*
X5698095Y-12637476D02*
X5707619Y-12647000D01*
X5707619Y-12647000D02*
X5698095Y-12656524D01*
X5698095Y-12656524D02*
X5688571Y-12647000D01*
X5688571Y-12647000D02*
X5698095Y-12637476D01*
X5698095Y-12637476D02*
X5698095Y-12656524D01*
X5774286Y-12456524D02*
X5898095Y-12456524D01*
X5898095Y-12456524D02*
X5831428Y-12532714D01*
X5831428Y-12532714D02*
X5860000Y-12532714D01*
X5860000Y-12532714D02*
X5879048Y-12542238D01*
X5879048Y-12542238D02*
X5888571Y-12551762D01*
X5888571Y-12551762D02*
X5898095Y-12570809D01*
X5898095Y-12570809D02*
X5898095Y-12618428D01*
X5898095Y-12618428D02*
X5888571Y-12637476D01*
X5888571Y-12637476D02*
X5879048Y-12647000D01*
X5879048Y-12647000D02*
X5860000Y-12656524D01*
X5860000Y-12656524D02*
X5802857Y-12656524D01*
X5802857Y-12656524D02*
X5783809Y-12647000D01*
X5783809Y-12647000D02*
X5774286Y-12637476D01*
X6012381Y-12542238D02*
X5993333Y-12532714D01*
X5993333Y-12532714D02*
X5983809Y-12523190D01*
X5983809Y-12523190D02*
X5974286Y-12504143D01*
X5974286Y-12504143D02*
X5974286Y-12494619D01*
X5974286Y-12494619D02*
X5983809Y-12475571D01*
X5983809Y-12475571D02*
X5993333Y-12466048D01*
X5993333Y-12466048D02*
X6012381Y-12456524D01*
X6012381Y-12456524D02*
X6050476Y-12456524D01*
X6050476Y-12456524D02*
X6069524Y-12466048D01*
X6069524Y-12466048D02*
X6079048Y-12475571D01*
X6079048Y-12475571D02*
X6088571Y-12494619D01*
X6088571Y-12494619D02*
X6088571Y-12504143D01*
X6088571Y-12504143D02*
X6079048Y-12523190D01*
X6079048Y-12523190D02*
X6069524Y-12532714D01*
X6069524Y-12532714D02*
X6050476Y-12542238D01*
X6050476Y-12542238D02*
X6012381Y-12542238D01*
X6012381Y-12542238D02*
X5993333Y-12551762D01*
X5993333Y-12551762D02*
X5983809Y-12561286D01*
X5983809Y-12561286D02*
X5974286Y-12580333D01*
X5974286Y-12580333D02*
X5974286Y-12618428D01*
X5974286Y-12618428D02*
X5983809Y-12637476D01*
X5983809Y-12637476D02*
X5993333Y-12647000D01*
X5993333Y-12647000D02*
X6012381Y-12656524D01*
X6012381Y-12656524D02*
X6050476Y-12656524D01*
X6050476Y-12656524D02*
X6069524Y-12647000D01*
X6069524Y-12647000D02*
X6079048Y-12637476D01*
X6079048Y-12637476D02*
X6088571Y-12618428D01*
X6088571Y-12618428D02*
X6088571Y-12580333D01*
X6088571Y-12580333D02*
X6079048Y-12561286D01*
X6079048Y-12561286D02*
X6069524Y-12551762D01*
X6069524Y-12551762D02*
X6050476Y-12542238D01*
X6212381Y-12456524D02*
X6231429Y-12456524D01*
X6231429Y-12456524D02*
X6250476Y-12466048D01*
X6250476Y-12466048D02*
X6260000Y-12475571D01*
X6260000Y-12475571D02*
X6269524Y-12494619D01*
X6269524Y-12494619D02*
X6279048Y-12532714D01*
X6279048Y-12532714D02*
X6279048Y-12580333D01*
X6279048Y-12580333D02*
X6269524Y-12618428D01*
X6269524Y-12618428D02*
X6260000Y-12637476D01*
X6260000Y-12637476D02*
X6250476Y-12647000D01*
X6250476Y-12647000D02*
X6231429Y-12656524D01*
X6231429Y-12656524D02*
X6212381Y-12656524D01*
X6212381Y-12656524D02*
X6193333Y-12647000D01*
X6193333Y-12647000D02*
X6183809Y-12637476D01*
X6183809Y-12637476D02*
X6174286Y-12618428D01*
X6174286Y-12618428D02*
X6164762Y-12580333D01*
X6164762Y-12580333D02*
X6164762Y-12532714D01*
X6164762Y-12532714D02*
X6174286Y-12494619D01*
X6174286Y-12494619D02*
X6183809Y-12475571D01*
X6183809Y-12475571D02*
X6193333Y-12466048D01*
X6193333Y-12466048D02*
X6212381Y-12456524D01*
X6364762Y-12656524D02*
X6364762Y-12523190D01*
X6364762Y-12542238D02*
X6374286Y-12532714D01*
X6374286Y-12532714D02*
X6393333Y-12523190D01*
X6393333Y-12523190D02*
X6421905Y-12523190D01*
X6421905Y-12523190D02*
X6440952Y-12532714D01*
X6440952Y-12532714D02*
X6450476Y-12551762D01*
X6450476Y-12551762D02*
X6450476Y-12656524D01*
X6450476Y-12551762D02*
X6460000Y-12532714D01*
X6460000Y-12532714D02*
X6479048Y-12523190D01*
X6479048Y-12523190D02*
X6507619Y-12523190D01*
X6507619Y-12523190D02*
X6526667Y-12532714D01*
X6526667Y-12532714D02*
X6536190Y-12551762D01*
X6536190Y-12551762D02*
X6536190Y-12656524D01*
X6631429Y-12656524D02*
X6631429Y-12523190D01*
X6631429Y-12542238D02*
X6640952Y-12532714D01*
X6640952Y-12532714D02*
X6660000Y-12523190D01*
X6660000Y-12523190D02*
X6688571Y-12523190D01*
X6688571Y-12523190D02*
X6707619Y-12532714D01*
X6707619Y-12532714D02*
X6717143Y-12551762D01*
X6717143Y-12551762D02*
X6717143Y-12656524D01*
X6717143Y-12551762D02*
X6726667Y-12532714D01*
X6726667Y-12532714D02*
X6745714Y-12523190D01*
X6745714Y-12523190D02*
X6774286Y-12523190D01*
X6774286Y-12523190D02*
X6793333Y-12532714D01*
X6793333Y-12532714D02*
X6802857Y-12551762D01*
X6802857Y-12551762D02*
X6802857Y-12656524D01*
X7193333Y-12447000D02*
X7021905Y-12704143D01*
X7450476Y-12456524D02*
X7469524Y-12456524D01*
X7469524Y-12456524D02*
X7488572Y-12466048D01*
X7488572Y-12466048D02*
X7498095Y-12475571D01*
X7498095Y-12475571D02*
X7507619Y-12494619D01*
X7507619Y-12494619D02*
X7517143Y-12532714D01*
X7517143Y-12532714D02*
X7517143Y-12580333D01*
X7517143Y-12580333D02*
X7507619Y-12618428D01*
X7507619Y-12618428D02*
X7498095Y-12637476D01*
X7498095Y-12637476D02*
X7488572Y-12647000D01*
X7488572Y-12647000D02*
X7469524Y-12656524D01*
X7469524Y-12656524D02*
X7450476Y-12656524D01*
X7450476Y-12656524D02*
X7431429Y-12647000D01*
X7431429Y-12647000D02*
X7421905Y-12637476D01*
X7421905Y-12637476D02*
X7412381Y-12618428D01*
X7412381Y-12618428D02*
X7402857Y-12580333D01*
X7402857Y-12580333D02*
X7402857Y-12532714D01*
X7402857Y-12532714D02*
X7412381Y-12494619D01*
X7412381Y-12494619D02*
X7421905Y-12475571D01*
X7421905Y-12475571D02*
X7431429Y-12466048D01*
X7431429Y-12466048D02*
X7450476Y-12456524D01*
X7602857Y-12637476D02*
X7612381Y-12647000D01*
X7612381Y-12647000D02*
X7602857Y-12656524D01*
X7602857Y-12656524D02*
X7593333Y-12647000D01*
X7593333Y-12647000D02*
X7602857Y-12637476D01*
X7602857Y-12637476D02*
X7602857Y-12656524D01*
X7736191Y-12456524D02*
X7755238Y-12456524D01*
X7755238Y-12456524D02*
X7774286Y-12466048D01*
X7774286Y-12466048D02*
X7783810Y-12475571D01*
X7783810Y-12475571D02*
X7793333Y-12494619D01*
X7793333Y-12494619D02*
X7802857Y-12532714D01*
X7802857Y-12532714D02*
X7802857Y-12580333D01*
X7802857Y-12580333D02*
X7793333Y-12618428D01*
X7793333Y-12618428D02*
X7783810Y-12637476D01*
X7783810Y-12637476D02*
X7774286Y-12647000D01*
X7774286Y-12647000D02*
X7755238Y-12656524D01*
X7755238Y-12656524D02*
X7736191Y-12656524D01*
X7736191Y-12656524D02*
X7717143Y-12647000D01*
X7717143Y-12647000D02*
X7707619Y-12637476D01*
X7707619Y-12637476D02*
X7698095Y-12618428D01*
X7698095Y-12618428D02*
X7688572Y-12580333D01*
X7688572Y-12580333D02*
X7688572Y-12532714D01*
X7688572Y-12532714D02*
X7698095Y-12494619D01*
X7698095Y-12494619D02*
X7707619Y-12475571D01*
X7707619Y-12475571D02*
X7717143Y-12466048D01*
X7717143Y-12466048D02*
X7736191Y-12456524D01*
X7993333Y-12656524D02*
X7879048Y-12656524D01*
X7936191Y-12656524D02*
X7936191Y-12456524D01*
X7936191Y-12456524D02*
X7917143Y-12485095D01*
X7917143Y-12485095D02*
X7898095Y-12504143D01*
X7898095Y-12504143D02*
X7879048Y-12513667D01*
X8174286Y-12456524D02*
X8079048Y-12456524D01*
X8079048Y-12456524D02*
X8069524Y-12551762D01*
X8069524Y-12551762D02*
X8079048Y-12542238D01*
X8079048Y-12542238D02*
X8098095Y-12532714D01*
X8098095Y-12532714D02*
X8145714Y-12532714D01*
X8145714Y-12532714D02*
X8164762Y-12542238D01*
X8164762Y-12542238D02*
X8174286Y-12551762D01*
X8174286Y-12551762D02*
X8183810Y-12570809D01*
X8183810Y-12570809D02*
X8183810Y-12618428D01*
X8183810Y-12618428D02*
X8174286Y-12637476D01*
X8174286Y-12637476D02*
X8164762Y-12647000D01*
X8164762Y-12647000D02*
X8145714Y-12656524D01*
X8145714Y-12656524D02*
X8098095Y-12656524D01*
X8098095Y-12656524D02*
X8079048Y-12647000D01*
X8079048Y-12647000D02*
X8069524Y-12637476D01*
X8307619Y-12456524D02*
X8326667Y-12456524D01*
X8326667Y-12456524D02*
X8345714Y-12466048D01*
X8345714Y-12466048D02*
X8355238Y-12475571D01*
X8355238Y-12475571D02*
X8364762Y-12494619D01*
X8364762Y-12494619D02*
X8374286Y-12532714D01*
X8374286Y-12532714D02*
X8374286Y-12580333D01*
X8374286Y-12580333D02*
X8364762Y-12618428D01*
X8364762Y-12618428D02*
X8355238Y-12637476D01*
X8355238Y-12637476D02*
X8345714Y-12647000D01*
X8345714Y-12647000D02*
X8326667Y-12656524D01*
X8326667Y-12656524D02*
X8307619Y-12656524D01*
X8307619Y-12656524D02*
X8288572Y-12647000D01*
X8288572Y-12647000D02*
X8279048Y-12637476D01*
X8279048Y-12637476D02*
X8269524Y-12618428D01*
X8269524Y-12618428D02*
X8260000Y-12580333D01*
X8260000Y-12580333D02*
X8260000Y-12532714D01*
X8260000Y-12532714D02*
X8269524Y-12494619D01*
X8269524Y-12494619D02*
X8279048Y-12475571D01*
X8279048Y-12475571D02*
X8288572Y-12466048D01*
X8288572Y-12466048D02*
X8307619Y-12456524D01*
X8450476Y-12456524D02*
X8450476Y-12494619D01*
X8526667Y-12456524D02*
X8526667Y-12494619D01*
X8821905Y-12732714D02*
X8812381Y-12723190D01*
X8812381Y-12723190D02*
X8793334Y-12694619D01*
X8793334Y-12694619D02*
X8783810Y-12675571D01*
X8783810Y-12675571D02*
X8774286Y-12647000D01*
X8774286Y-12647000D02*
X8764762Y-12599381D01*
X8764762Y-12599381D02*
X8764762Y-12561286D01*
X8764762Y-12561286D02*
X8774286Y-12513667D01*
X8774286Y-12513667D02*
X8783810Y-12485095D01*
X8783810Y-12485095D02*
X8793334Y-12466048D01*
X8793334Y-12466048D02*
X8812381Y-12437476D01*
X8812381Y-12437476D02*
X8821905Y-12427952D01*
X9002857Y-12656524D02*
X8888572Y-12656524D01*
X8945715Y-12656524D02*
X8945715Y-12456524D01*
X8945715Y-12456524D02*
X8926667Y-12485095D01*
X8926667Y-12485095D02*
X8907619Y-12504143D01*
X8907619Y-12504143D02*
X8888572Y-12513667D01*
X9069524Y-12456524D02*
X9193334Y-12456524D01*
X9193334Y-12456524D02*
X9126667Y-12532714D01*
X9126667Y-12532714D02*
X9155238Y-12532714D01*
X9155238Y-12532714D02*
X9174286Y-12542238D01*
X9174286Y-12542238D02*
X9183810Y-12551762D01*
X9183810Y-12551762D02*
X9193334Y-12570809D01*
X9193334Y-12570809D02*
X9193334Y-12618428D01*
X9193334Y-12618428D02*
X9183810Y-12637476D01*
X9183810Y-12637476D02*
X9174286Y-12647000D01*
X9174286Y-12647000D02*
X9155238Y-12656524D01*
X9155238Y-12656524D02*
X9098096Y-12656524D01*
X9098096Y-12656524D02*
X9079048Y-12647000D01*
X9079048Y-12647000D02*
X9069524Y-12637476D01*
X9431429Y-12656524D02*
X9431429Y-12456524D01*
X9517143Y-12656524D02*
X9517143Y-12551762D01*
X9517143Y-12551762D02*
X9507619Y-12532714D01*
X9507619Y-12532714D02*
X9488572Y-12523190D01*
X9488572Y-12523190D02*
X9460000Y-12523190D01*
X9460000Y-12523190D02*
X9440953Y-12532714D01*
X9440953Y-12532714D02*
X9431429Y-12542238D01*
X9640953Y-12656524D02*
X9621905Y-12647000D01*
X9621905Y-12647000D02*
X9612381Y-12637476D01*
X9612381Y-12637476D02*
X9602858Y-12618428D01*
X9602858Y-12618428D02*
X9602858Y-12561286D01*
X9602858Y-12561286D02*
X9612381Y-12542238D01*
X9612381Y-12542238D02*
X9621905Y-12532714D01*
X9621905Y-12532714D02*
X9640953Y-12523190D01*
X9640953Y-12523190D02*
X9669524Y-12523190D01*
X9669524Y-12523190D02*
X9688572Y-12532714D01*
X9688572Y-12532714D02*
X9698096Y-12542238D01*
X9698096Y-12542238D02*
X9707619Y-12561286D01*
X9707619Y-12561286D02*
X9707619Y-12618428D01*
X9707619Y-12618428D02*
X9698096Y-12637476D01*
X9698096Y-12637476D02*
X9688572Y-12647000D01*
X9688572Y-12647000D02*
X9669524Y-12656524D01*
X9669524Y-12656524D02*
X9640953Y-12656524D01*
X9821905Y-12656524D02*
X9802858Y-12647000D01*
X9802858Y-12647000D02*
X9793334Y-12627952D01*
X9793334Y-12627952D02*
X9793334Y-12456524D01*
X9974286Y-12647000D02*
X9955239Y-12656524D01*
X9955239Y-12656524D02*
X9917143Y-12656524D01*
X9917143Y-12656524D02*
X9898096Y-12647000D01*
X9898096Y-12647000D02*
X9888572Y-12627952D01*
X9888572Y-12627952D02*
X9888572Y-12551762D01*
X9888572Y-12551762D02*
X9898096Y-12532714D01*
X9898096Y-12532714D02*
X9917143Y-12523190D01*
X9917143Y-12523190D02*
X9955239Y-12523190D01*
X9955239Y-12523190D02*
X9974286Y-12532714D01*
X9974286Y-12532714D02*
X9983810Y-12551762D01*
X9983810Y-12551762D02*
X9983810Y-12570809D01*
X9983810Y-12570809D02*
X9888572Y-12589857D01*
X10060000Y-12647000D02*
X10079048Y-12656524D01*
X10079048Y-12656524D02*
X10117143Y-12656524D01*
X10117143Y-12656524D02*
X10136191Y-12647000D01*
X10136191Y-12647000D02*
X10145715Y-12627952D01*
X10145715Y-12627952D02*
X10145715Y-12618428D01*
X10145715Y-12618428D02*
X10136191Y-12599381D01*
X10136191Y-12599381D02*
X10117143Y-12589857D01*
X10117143Y-12589857D02*
X10088572Y-12589857D01*
X10088572Y-12589857D02*
X10069524Y-12580333D01*
X10069524Y-12580333D02*
X10060000Y-12561286D01*
X10060000Y-12561286D02*
X10060000Y-12551762D01*
X10060000Y-12551762D02*
X10069524Y-12532714D01*
X10069524Y-12532714D02*
X10088572Y-12523190D01*
X10088572Y-12523190D02*
X10117143Y-12523190D01*
X10117143Y-12523190D02*
X10136191Y-12532714D01*
X10212381Y-12732714D02*
X10221905Y-12723190D01*
X10221905Y-12723190D02*
X10240953Y-12694619D01*
X10240953Y-12694619D02*
X10250477Y-12675571D01*
X10250477Y-12675571D02*
X10260000Y-12647000D01*
X10260000Y-12647000D02*
X10269524Y-12599381D01*
X10269524Y-12599381D02*
X10269524Y-12561286D01*
X10269524Y-12561286D02*
X10260000Y-12513667D01*
X10260000Y-12513667D02*
X10250477Y-12485095D01*
X10250477Y-12485095D02*
X10240953Y-12466048D01*
X10240953Y-12466048D02*
X10221905Y-12437476D01*
X10221905Y-12437476D02*
X10212381Y-12427952D01*
D13*
X5240000Y-12808000D02*
X5240000Y-12848000D01*
X5220000Y-12828000D02*
X5260000Y-12828000D01*
D10*
X5545714Y-12720524D02*
X5564762Y-12720524D01*
X5564762Y-12720524D02*
X5583810Y-12730048D01*
X5583810Y-12730048D02*
X5593333Y-12739571D01*
X5593333Y-12739571D02*
X5602857Y-12758619D01*
X5602857Y-12758619D02*
X5612381Y-12796714D01*
X5612381Y-12796714D02*
X5612381Y-12844333D01*
X5612381Y-12844333D02*
X5602857Y-12882428D01*
X5602857Y-12882428D02*
X5593333Y-12901476D01*
X5593333Y-12901476D02*
X5583810Y-12911000D01*
X5583810Y-12911000D02*
X5564762Y-12920524D01*
X5564762Y-12920524D02*
X5545714Y-12920524D01*
X5545714Y-12920524D02*
X5526667Y-12911000D01*
X5526667Y-12911000D02*
X5517143Y-12901476D01*
X5517143Y-12901476D02*
X5507619Y-12882428D01*
X5507619Y-12882428D02*
X5498095Y-12844333D01*
X5498095Y-12844333D02*
X5498095Y-12796714D01*
X5498095Y-12796714D02*
X5507619Y-12758619D01*
X5507619Y-12758619D02*
X5517143Y-12739571D01*
X5517143Y-12739571D02*
X5526667Y-12730048D01*
X5526667Y-12730048D02*
X5545714Y-12720524D01*
X5698095Y-12901476D02*
X5707619Y-12911000D01*
X5707619Y-12911000D02*
X5698095Y-12920524D01*
X5698095Y-12920524D02*
X5688571Y-12911000D01*
X5688571Y-12911000D02*
X5698095Y-12901476D01*
X5698095Y-12901476D02*
X5698095Y-12920524D01*
X5879048Y-12787190D02*
X5879048Y-12920524D01*
X5831428Y-12711000D02*
X5783809Y-12853857D01*
X5783809Y-12853857D02*
X5907619Y-12853857D01*
X6021905Y-12720524D02*
X6040952Y-12720524D01*
X6040952Y-12720524D02*
X6060000Y-12730048D01*
X6060000Y-12730048D02*
X6069524Y-12739571D01*
X6069524Y-12739571D02*
X6079048Y-12758619D01*
X6079048Y-12758619D02*
X6088571Y-12796714D01*
X6088571Y-12796714D02*
X6088571Y-12844333D01*
X6088571Y-12844333D02*
X6079048Y-12882428D01*
X6079048Y-12882428D02*
X6069524Y-12901476D01*
X6069524Y-12901476D02*
X6060000Y-12911000D01*
X6060000Y-12911000D02*
X6040952Y-12920524D01*
X6040952Y-12920524D02*
X6021905Y-12920524D01*
X6021905Y-12920524D02*
X6002857Y-12911000D01*
X6002857Y-12911000D02*
X5993333Y-12901476D01*
X5993333Y-12901476D02*
X5983809Y-12882428D01*
X5983809Y-12882428D02*
X5974286Y-12844333D01*
X5974286Y-12844333D02*
X5974286Y-12796714D01*
X5974286Y-12796714D02*
X5983809Y-12758619D01*
X5983809Y-12758619D02*
X5993333Y-12739571D01*
X5993333Y-12739571D02*
X6002857Y-12730048D01*
X6002857Y-12730048D02*
X6021905Y-12720524D01*
X6212381Y-12720524D02*
X6231429Y-12720524D01*
X6231429Y-12720524D02*
X6250476Y-12730048D01*
X6250476Y-12730048D02*
X6260000Y-12739571D01*
X6260000Y-12739571D02*
X6269524Y-12758619D01*
X6269524Y-12758619D02*
X6279048Y-12796714D01*
X6279048Y-12796714D02*
X6279048Y-12844333D01*
X6279048Y-12844333D02*
X6269524Y-12882428D01*
X6269524Y-12882428D02*
X6260000Y-12901476D01*
X6260000Y-12901476D02*
X6250476Y-12911000D01*
X6250476Y-12911000D02*
X6231429Y-12920524D01*
X6231429Y-12920524D02*
X6212381Y-12920524D01*
X6212381Y-12920524D02*
X6193333Y-12911000D01*
X6193333Y-12911000D02*
X6183809Y-12901476D01*
X6183809Y-12901476D02*
X6174286Y-12882428D01*
X6174286Y-12882428D02*
X6164762Y-12844333D01*
X6164762Y-12844333D02*
X6164762Y-12796714D01*
X6164762Y-12796714D02*
X6174286Y-12758619D01*
X6174286Y-12758619D02*
X6183809Y-12739571D01*
X6183809Y-12739571D02*
X6193333Y-12730048D01*
X6193333Y-12730048D02*
X6212381Y-12720524D01*
X6364762Y-12920524D02*
X6364762Y-12787190D01*
X6364762Y-12806238D02*
X6374286Y-12796714D01*
X6374286Y-12796714D02*
X6393333Y-12787190D01*
X6393333Y-12787190D02*
X6421905Y-12787190D01*
X6421905Y-12787190D02*
X6440952Y-12796714D01*
X6440952Y-12796714D02*
X6450476Y-12815762D01*
X6450476Y-12815762D02*
X6450476Y-12920524D01*
X6450476Y-12815762D02*
X6460000Y-12796714D01*
X6460000Y-12796714D02*
X6479048Y-12787190D01*
X6479048Y-12787190D02*
X6507619Y-12787190D01*
X6507619Y-12787190D02*
X6526667Y-12796714D01*
X6526667Y-12796714D02*
X6536190Y-12815762D01*
X6536190Y-12815762D02*
X6536190Y-12920524D01*
X6631429Y-12920524D02*
X6631429Y-12787190D01*
X6631429Y-12806238D02*
X6640952Y-12796714D01*
X6640952Y-12796714D02*
X6660000Y-12787190D01*
X6660000Y-12787190D02*
X6688571Y-12787190D01*
X6688571Y-12787190D02*
X6707619Y-12796714D01*
X6707619Y-12796714D02*
X6717143Y-12815762D01*
X6717143Y-12815762D02*
X6717143Y-12920524D01*
X6717143Y-12815762D02*
X6726667Y-12796714D01*
X6726667Y-12796714D02*
X6745714Y-12787190D01*
X6745714Y-12787190D02*
X6774286Y-12787190D01*
X6774286Y-12787190D02*
X6793333Y-12796714D01*
X6793333Y-12796714D02*
X6802857Y-12815762D01*
X6802857Y-12815762D02*
X6802857Y-12920524D01*
X7193333Y-12711000D02*
X7021905Y-12968143D01*
X7450476Y-12720524D02*
X7469524Y-12720524D01*
X7469524Y-12720524D02*
X7488572Y-12730048D01*
X7488572Y-12730048D02*
X7498095Y-12739571D01*
X7498095Y-12739571D02*
X7507619Y-12758619D01*
X7507619Y-12758619D02*
X7517143Y-12796714D01*
X7517143Y-12796714D02*
X7517143Y-12844333D01*
X7517143Y-12844333D02*
X7507619Y-12882428D01*
X7507619Y-12882428D02*
X7498095Y-12901476D01*
X7498095Y-12901476D02*
X7488572Y-12911000D01*
X7488572Y-12911000D02*
X7469524Y-12920524D01*
X7469524Y-12920524D02*
X7450476Y-12920524D01*
X7450476Y-12920524D02*
X7431429Y-12911000D01*
X7431429Y-12911000D02*
X7421905Y-12901476D01*
X7421905Y-12901476D02*
X7412381Y-12882428D01*
X7412381Y-12882428D02*
X7402857Y-12844333D01*
X7402857Y-12844333D02*
X7402857Y-12796714D01*
X7402857Y-12796714D02*
X7412381Y-12758619D01*
X7412381Y-12758619D02*
X7421905Y-12739571D01*
X7421905Y-12739571D02*
X7431429Y-12730048D01*
X7431429Y-12730048D02*
X7450476Y-12720524D01*
X7602857Y-12901476D02*
X7612381Y-12911000D01*
X7612381Y-12911000D02*
X7602857Y-12920524D01*
X7602857Y-12920524D02*
X7593333Y-12911000D01*
X7593333Y-12911000D02*
X7602857Y-12901476D01*
X7602857Y-12901476D02*
X7602857Y-12920524D01*
X7736191Y-12720524D02*
X7755238Y-12720524D01*
X7755238Y-12720524D02*
X7774286Y-12730048D01*
X7774286Y-12730048D02*
X7783810Y-12739571D01*
X7783810Y-12739571D02*
X7793333Y-12758619D01*
X7793333Y-12758619D02*
X7802857Y-12796714D01*
X7802857Y-12796714D02*
X7802857Y-12844333D01*
X7802857Y-12844333D02*
X7793333Y-12882428D01*
X7793333Y-12882428D02*
X7783810Y-12901476D01*
X7783810Y-12901476D02*
X7774286Y-12911000D01*
X7774286Y-12911000D02*
X7755238Y-12920524D01*
X7755238Y-12920524D02*
X7736191Y-12920524D01*
X7736191Y-12920524D02*
X7717143Y-12911000D01*
X7717143Y-12911000D02*
X7707619Y-12901476D01*
X7707619Y-12901476D02*
X7698095Y-12882428D01*
X7698095Y-12882428D02*
X7688572Y-12844333D01*
X7688572Y-12844333D02*
X7688572Y-12796714D01*
X7688572Y-12796714D02*
X7698095Y-12758619D01*
X7698095Y-12758619D02*
X7707619Y-12739571D01*
X7707619Y-12739571D02*
X7717143Y-12730048D01*
X7717143Y-12730048D02*
X7736191Y-12720524D01*
X7993333Y-12920524D02*
X7879048Y-12920524D01*
X7936191Y-12920524D02*
X7936191Y-12720524D01*
X7936191Y-12720524D02*
X7917143Y-12749095D01*
X7917143Y-12749095D02*
X7898095Y-12768143D01*
X7898095Y-12768143D02*
X7879048Y-12777667D01*
X8174286Y-12720524D02*
X8079048Y-12720524D01*
X8079048Y-12720524D02*
X8069524Y-12815762D01*
X8069524Y-12815762D02*
X8079048Y-12806238D01*
X8079048Y-12806238D02*
X8098095Y-12796714D01*
X8098095Y-12796714D02*
X8145714Y-12796714D01*
X8145714Y-12796714D02*
X8164762Y-12806238D01*
X8164762Y-12806238D02*
X8174286Y-12815762D01*
X8174286Y-12815762D02*
X8183810Y-12834809D01*
X8183810Y-12834809D02*
X8183810Y-12882428D01*
X8183810Y-12882428D02*
X8174286Y-12901476D01*
X8174286Y-12901476D02*
X8164762Y-12911000D01*
X8164762Y-12911000D02*
X8145714Y-12920524D01*
X8145714Y-12920524D02*
X8098095Y-12920524D01*
X8098095Y-12920524D02*
X8079048Y-12911000D01*
X8079048Y-12911000D02*
X8069524Y-12901476D01*
X8250476Y-12720524D02*
X8383810Y-12720524D01*
X8383810Y-12720524D02*
X8298095Y-12920524D01*
X8450476Y-12720524D02*
X8450476Y-12758619D01*
X8526667Y-12720524D02*
X8526667Y-12758619D01*
X8821905Y-12996714D02*
X8812381Y-12987190D01*
X8812381Y-12987190D02*
X8793334Y-12958619D01*
X8793334Y-12958619D02*
X8783810Y-12939571D01*
X8783810Y-12939571D02*
X8774286Y-12911000D01*
X8774286Y-12911000D02*
X8764762Y-12863381D01*
X8764762Y-12863381D02*
X8764762Y-12825286D01*
X8764762Y-12825286D02*
X8774286Y-12777667D01*
X8774286Y-12777667D02*
X8783810Y-12749095D01*
X8783810Y-12749095D02*
X8793334Y-12730048D01*
X8793334Y-12730048D02*
X8812381Y-12701476D01*
X8812381Y-12701476D02*
X8821905Y-12691952D01*
X8983810Y-12720524D02*
X8945715Y-12720524D01*
X8945715Y-12720524D02*
X8926667Y-12730048D01*
X8926667Y-12730048D02*
X8917143Y-12739571D01*
X8917143Y-12739571D02*
X8898096Y-12768143D01*
X8898096Y-12768143D02*
X8888572Y-12806238D01*
X8888572Y-12806238D02*
X8888572Y-12882428D01*
X8888572Y-12882428D02*
X8898096Y-12901476D01*
X8898096Y-12901476D02*
X8907619Y-12911000D01*
X8907619Y-12911000D02*
X8926667Y-12920524D01*
X8926667Y-12920524D02*
X8964762Y-12920524D01*
X8964762Y-12920524D02*
X8983810Y-12911000D01*
X8983810Y-12911000D02*
X8993334Y-12901476D01*
X8993334Y-12901476D02*
X9002857Y-12882428D01*
X9002857Y-12882428D02*
X9002857Y-12834809D01*
X9002857Y-12834809D02*
X8993334Y-12815762D01*
X8993334Y-12815762D02*
X8983810Y-12806238D01*
X8983810Y-12806238D02*
X8964762Y-12796714D01*
X8964762Y-12796714D02*
X8926667Y-12796714D01*
X8926667Y-12796714D02*
X8907619Y-12806238D01*
X8907619Y-12806238D02*
X8898096Y-12815762D01*
X8898096Y-12815762D02*
X8888572Y-12834809D01*
X9240953Y-12920524D02*
X9240953Y-12720524D01*
X9326667Y-12920524D02*
X9326667Y-12815762D01*
X9326667Y-12815762D02*
X9317143Y-12796714D01*
X9317143Y-12796714D02*
X9298096Y-12787190D01*
X9298096Y-12787190D02*
X9269524Y-12787190D01*
X9269524Y-12787190D02*
X9250477Y-12796714D01*
X9250477Y-12796714D02*
X9240953Y-12806238D01*
X9450477Y-12920524D02*
X9431429Y-12911000D01*
X9431429Y-12911000D02*
X9421905Y-12901476D01*
X9421905Y-12901476D02*
X9412381Y-12882428D01*
X9412381Y-12882428D02*
X9412381Y-12825286D01*
X9412381Y-12825286D02*
X9421905Y-12806238D01*
X9421905Y-12806238D02*
X9431429Y-12796714D01*
X9431429Y-12796714D02*
X9450477Y-12787190D01*
X9450477Y-12787190D02*
X9479048Y-12787190D01*
X9479048Y-12787190D02*
X9498096Y-12796714D01*
X9498096Y-12796714D02*
X9507619Y-12806238D01*
X9507619Y-12806238D02*
X9517143Y-12825286D01*
X9517143Y-12825286D02*
X9517143Y-12882428D01*
X9517143Y-12882428D02*
X9507619Y-12901476D01*
X9507619Y-12901476D02*
X9498096Y-12911000D01*
X9498096Y-12911000D02*
X9479048Y-12920524D01*
X9479048Y-12920524D02*
X9450477Y-12920524D01*
X9631429Y-12920524D02*
X9612381Y-12911000D01*
X9612381Y-12911000D02*
X9602858Y-12891952D01*
X9602858Y-12891952D02*
X9602858Y-12720524D01*
X9783810Y-12911000D02*
X9764762Y-12920524D01*
X9764762Y-12920524D02*
X9726667Y-12920524D01*
X9726667Y-12920524D02*
X9707619Y-12911000D01*
X9707619Y-12911000D02*
X9698096Y-12891952D01*
X9698096Y-12891952D02*
X9698096Y-12815762D01*
X9698096Y-12815762D02*
X9707619Y-12796714D01*
X9707619Y-12796714D02*
X9726667Y-12787190D01*
X9726667Y-12787190D02*
X9764762Y-12787190D01*
X9764762Y-12787190D02*
X9783810Y-12796714D01*
X9783810Y-12796714D02*
X9793334Y-12815762D01*
X9793334Y-12815762D02*
X9793334Y-12834809D01*
X9793334Y-12834809D02*
X9698096Y-12853857D01*
X9869524Y-12911000D02*
X9888572Y-12920524D01*
X9888572Y-12920524D02*
X9926667Y-12920524D01*
X9926667Y-12920524D02*
X9945715Y-12911000D01*
X9945715Y-12911000D02*
X9955239Y-12891952D01*
X9955239Y-12891952D02*
X9955239Y-12882428D01*
X9955239Y-12882428D02*
X9945715Y-12863381D01*
X9945715Y-12863381D02*
X9926667Y-12853857D01*
X9926667Y-12853857D02*
X9898096Y-12853857D01*
X9898096Y-12853857D02*
X9879048Y-12844333D01*
X9879048Y-12844333D02*
X9869524Y-12825286D01*
X9869524Y-12825286D02*
X9869524Y-12815762D01*
X9869524Y-12815762D02*
X9879048Y-12796714D01*
X9879048Y-12796714D02*
X9898096Y-12787190D01*
X9898096Y-12787190D02*
X9926667Y-12787190D01*
X9926667Y-12787190D02*
X9945715Y-12796714D01*
X10021905Y-12996714D02*
X10031429Y-12987190D01*
X10031429Y-12987190D02*
X10050477Y-12958619D01*
X10050477Y-12958619D02*
X10060000Y-12939571D01*
X10060000Y-12939571D02*
X10069524Y-12911000D01*
X10069524Y-12911000D02*
X10079048Y-12863381D01*
X10079048Y-12863381D02*
X10079048Y-12825286D01*
X10079048Y-12825286D02*
X10069524Y-12777667D01*
X10069524Y-12777667D02*
X10060000Y-12749095D01*
X10060000Y-12749095D02*
X10050477Y-12730048D01*
X10050477Y-12730048D02*
X10031429Y-12701476D01*
X10031429Y-12701476D02*
X10021905Y-12691952D01*
D14*
X5252678Y-13109678D02*
X5252678Y-13074322D01*
X5217322Y-13074322D01*
X5217322Y-13109678D01*
X5252678Y-13109678D01*
D10*
X5545714Y-12984524D02*
X5564762Y-12984524D01*
X5564762Y-12984524D02*
X5583810Y-12994048D01*
X5583810Y-12994048D02*
X5593333Y-13003571D01*
X5593333Y-13003571D02*
X5602857Y-13022619D01*
X5602857Y-13022619D02*
X5612381Y-13060714D01*
X5612381Y-13060714D02*
X5612381Y-13108333D01*
X5612381Y-13108333D02*
X5602857Y-13146428D01*
X5602857Y-13146428D02*
X5593333Y-13165476D01*
X5593333Y-13165476D02*
X5583810Y-13175000D01*
X5583810Y-13175000D02*
X5564762Y-13184524D01*
X5564762Y-13184524D02*
X5545714Y-13184524D01*
X5545714Y-13184524D02*
X5526667Y-13175000D01*
X5526667Y-13175000D02*
X5517143Y-13165476D01*
X5517143Y-13165476D02*
X5507619Y-13146428D01*
X5507619Y-13146428D02*
X5498095Y-13108333D01*
X5498095Y-13108333D02*
X5498095Y-13060714D01*
X5498095Y-13060714D02*
X5507619Y-13022619D01*
X5507619Y-13022619D02*
X5517143Y-13003571D01*
X5517143Y-13003571D02*
X5526667Y-12994048D01*
X5526667Y-12994048D02*
X5545714Y-12984524D01*
X5698095Y-13165476D02*
X5707619Y-13175000D01*
X5707619Y-13175000D02*
X5698095Y-13184524D01*
X5698095Y-13184524D02*
X5688571Y-13175000D01*
X5688571Y-13175000D02*
X5698095Y-13165476D01*
X5698095Y-13165476D02*
X5698095Y-13184524D01*
X5888571Y-12984524D02*
X5793333Y-12984524D01*
X5793333Y-12984524D02*
X5783809Y-13079762D01*
X5783809Y-13079762D02*
X5793333Y-13070238D01*
X5793333Y-13070238D02*
X5812381Y-13060714D01*
X5812381Y-13060714D02*
X5860000Y-13060714D01*
X5860000Y-13060714D02*
X5879048Y-13070238D01*
X5879048Y-13070238D02*
X5888571Y-13079762D01*
X5888571Y-13079762D02*
X5898095Y-13098809D01*
X5898095Y-13098809D02*
X5898095Y-13146428D01*
X5898095Y-13146428D02*
X5888571Y-13165476D01*
X5888571Y-13165476D02*
X5879048Y-13175000D01*
X5879048Y-13175000D02*
X5860000Y-13184524D01*
X5860000Y-13184524D02*
X5812381Y-13184524D01*
X5812381Y-13184524D02*
X5793333Y-13175000D01*
X5793333Y-13175000D02*
X5783809Y-13165476D01*
X6021905Y-12984524D02*
X6040952Y-12984524D01*
X6040952Y-12984524D02*
X6060000Y-12994048D01*
X6060000Y-12994048D02*
X6069524Y-13003571D01*
X6069524Y-13003571D02*
X6079048Y-13022619D01*
X6079048Y-13022619D02*
X6088571Y-13060714D01*
X6088571Y-13060714D02*
X6088571Y-13108333D01*
X6088571Y-13108333D02*
X6079048Y-13146428D01*
X6079048Y-13146428D02*
X6069524Y-13165476D01*
X6069524Y-13165476D02*
X6060000Y-13175000D01*
X6060000Y-13175000D02*
X6040952Y-13184524D01*
X6040952Y-13184524D02*
X6021905Y-13184524D01*
X6021905Y-13184524D02*
X6002857Y-13175000D01*
X6002857Y-13175000D02*
X5993333Y-13165476D01*
X5993333Y-13165476D02*
X5983809Y-13146428D01*
X5983809Y-13146428D02*
X5974286Y-13108333D01*
X5974286Y-13108333D02*
X5974286Y-13060714D01*
X5974286Y-13060714D02*
X5983809Y-13022619D01*
X5983809Y-13022619D02*
X5993333Y-13003571D01*
X5993333Y-13003571D02*
X6002857Y-12994048D01*
X6002857Y-12994048D02*
X6021905Y-12984524D01*
X6212381Y-12984524D02*
X6231429Y-12984524D01*
X6231429Y-12984524D02*
X6250476Y-12994048D01*
X6250476Y-12994048D02*
X6260000Y-13003571D01*
X6260000Y-13003571D02*
X6269524Y-13022619D01*
X6269524Y-13022619D02*
X6279048Y-13060714D01*
X6279048Y-13060714D02*
X6279048Y-13108333D01*
X6279048Y-13108333D02*
X6269524Y-13146428D01*
X6269524Y-13146428D02*
X6260000Y-13165476D01*
X6260000Y-13165476D02*
X6250476Y-13175000D01*
X6250476Y-13175000D02*
X6231429Y-13184524D01*
X6231429Y-13184524D02*
X6212381Y-13184524D01*
X6212381Y-13184524D02*
X6193333Y-13175000D01*
X6193333Y-13175000D02*
X6183809Y-13165476D01*
X6183809Y-13165476D02*
X6174286Y-13146428D01*
X6174286Y-13146428D02*
X6164762Y-13108333D01*
X6164762Y-13108333D02*
X6164762Y-13060714D01*
X6164762Y-13060714D02*
X6174286Y-13022619D01*
X6174286Y-13022619D02*
X6183809Y-13003571D01*
X6183809Y-13003571D02*
X6193333Y-12994048D01*
X6193333Y-12994048D02*
X6212381Y-12984524D01*
X6364762Y-13184524D02*
X6364762Y-13051190D01*
X6364762Y-13070238D02*
X6374286Y-13060714D01*
X6374286Y-13060714D02*
X6393333Y-13051190D01*
X6393333Y-13051190D02*
X6421905Y-13051190D01*
X6421905Y-13051190D02*
X6440952Y-13060714D01*
X6440952Y-13060714D02*
X6450476Y-13079762D01*
X6450476Y-13079762D02*
X6450476Y-13184524D01*
X6450476Y-13079762D02*
X6460000Y-13060714D01*
X6460000Y-13060714D02*
X6479048Y-13051190D01*
X6479048Y-13051190D02*
X6507619Y-13051190D01*
X6507619Y-13051190D02*
X6526667Y-13060714D01*
X6526667Y-13060714D02*
X6536190Y-13079762D01*
X6536190Y-13079762D02*
X6536190Y-13184524D01*
X6631429Y-13184524D02*
X6631429Y-13051190D01*
X6631429Y-13070238D02*
X6640952Y-13060714D01*
X6640952Y-13060714D02*
X6660000Y-13051190D01*
X6660000Y-13051190D02*
X6688571Y-13051190D01*
X6688571Y-13051190D02*
X6707619Y-13060714D01*
X6707619Y-13060714D02*
X6717143Y-13079762D01*
X6717143Y-13079762D02*
X6717143Y-13184524D01*
X6717143Y-13079762D02*
X6726667Y-13060714D01*
X6726667Y-13060714D02*
X6745714Y-13051190D01*
X6745714Y-13051190D02*
X6774286Y-13051190D01*
X6774286Y-13051190D02*
X6793333Y-13060714D01*
X6793333Y-13060714D02*
X6802857Y-13079762D01*
X6802857Y-13079762D02*
X6802857Y-13184524D01*
X7193333Y-12975000D02*
X7021905Y-13232143D01*
X7450476Y-12984524D02*
X7469524Y-12984524D01*
X7469524Y-12984524D02*
X7488572Y-12994048D01*
X7488572Y-12994048D02*
X7498095Y-13003571D01*
X7498095Y-13003571D02*
X7507619Y-13022619D01*
X7507619Y-13022619D02*
X7517143Y-13060714D01*
X7517143Y-13060714D02*
X7517143Y-13108333D01*
X7517143Y-13108333D02*
X7507619Y-13146428D01*
X7507619Y-13146428D02*
X7498095Y-13165476D01*
X7498095Y-13165476D02*
X7488572Y-13175000D01*
X7488572Y-13175000D02*
X7469524Y-13184524D01*
X7469524Y-13184524D02*
X7450476Y-13184524D01*
X7450476Y-13184524D02*
X7431429Y-13175000D01*
X7431429Y-13175000D02*
X7421905Y-13165476D01*
X7421905Y-13165476D02*
X7412381Y-13146428D01*
X7412381Y-13146428D02*
X7402857Y-13108333D01*
X7402857Y-13108333D02*
X7402857Y-13060714D01*
X7402857Y-13060714D02*
X7412381Y-13022619D01*
X7412381Y-13022619D02*
X7421905Y-13003571D01*
X7421905Y-13003571D02*
X7431429Y-12994048D01*
X7431429Y-12994048D02*
X7450476Y-12984524D01*
X7602857Y-13165476D02*
X7612381Y-13175000D01*
X7612381Y-13175000D02*
X7602857Y-13184524D01*
X7602857Y-13184524D02*
X7593333Y-13175000D01*
X7593333Y-13175000D02*
X7602857Y-13165476D01*
X7602857Y-13165476D02*
X7602857Y-13184524D01*
X7736191Y-12984524D02*
X7755238Y-12984524D01*
X7755238Y-12984524D02*
X7774286Y-12994048D01*
X7774286Y-12994048D02*
X7783810Y-13003571D01*
X7783810Y-13003571D02*
X7793333Y-13022619D01*
X7793333Y-13022619D02*
X7802857Y-13060714D01*
X7802857Y-13060714D02*
X7802857Y-13108333D01*
X7802857Y-13108333D02*
X7793333Y-13146428D01*
X7793333Y-13146428D02*
X7783810Y-13165476D01*
X7783810Y-13165476D02*
X7774286Y-13175000D01*
X7774286Y-13175000D02*
X7755238Y-13184524D01*
X7755238Y-13184524D02*
X7736191Y-13184524D01*
X7736191Y-13184524D02*
X7717143Y-13175000D01*
X7717143Y-13175000D02*
X7707619Y-13165476D01*
X7707619Y-13165476D02*
X7698095Y-13146428D01*
X7698095Y-13146428D02*
X7688572Y-13108333D01*
X7688572Y-13108333D02*
X7688572Y-13060714D01*
X7688572Y-13060714D02*
X7698095Y-13022619D01*
X7698095Y-13022619D02*
X7707619Y-13003571D01*
X7707619Y-13003571D02*
X7717143Y-12994048D01*
X7717143Y-12994048D02*
X7736191Y-12984524D01*
X7993333Y-13184524D02*
X7879048Y-13184524D01*
X7936191Y-13184524D02*
X7936191Y-12984524D01*
X7936191Y-12984524D02*
X7917143Y-13013095D01*
X7917143Y-13013095D02*
X7898095Y-13032143D01*
X7898095Y-13032143D02*
X7879048Y-13041667D01*
X8088572Y-13184524D02*
X8126667Y-13184524D01*
X8126667Y-13184524D02*
X8145714Y-13175000D01*
X8145714Y-13175000D02*
X8155238Y-13165476D01*
X8155238Y-13165476D02*
X8174286Y-13136905D01*
X8174286Y-13136905D02*
X8183810Y-13098809D01*
X8183810Y-13098809D02*
X8183810Y-13022619D01*
X8183810Y-13022619D02*
X8174286Y-13003571D01*
X8174286Y-13003571D02*
X8164762Y-12994048D01*
X8164762Y-12994048D02*
X8145714Y-12984524D01*
X8145714Y-12984524D02*
X8107619Y-12984524D01*
X8107619Y-12984524D02*
X8088572Y-12994048D01*
X8088572Y-12994048D02*
X8079048Y-13003571D01*
X8079048Y-13003571D02*
X8069524Y-13022619D01*
X8069524Y-13022619D02*
X8069524Y-13070238D01*
X8069524Y-13070238D02*
X8079048Y-13089286D01*
X8079048Y-13089286D02*
X8088572Y-13098809D01*
X8088572Y-13098809D02*
X8107619Y-13108333D01*
X8107619Y-13108333D02*
X8145714Y-13108333D01*
X8145714Y-13108333D02*
X8164762Y-13098809D01*
X8164762Y-13098809D02*
X8174286Y-13089286D01*
X8174286Y-13089286D02*
X8183810Y-13070238D01*
X8250476Y-12984524D02*
X8383810Y-12984524D01*
X8383810Y-12984524D02*
X8298095Y-13184524D01*
X8450476Y-12984524D02*
X8450476Y-13022619D01*
X8526667Y-12984524D02*
X8526667Y-13022619D01*
X8821905Y-13260714D02*
X8812381Y-13251190D01*
X8812381Y-13251190D02*
X8793334Y-13222619D01*
X8793334Y-13222619D02*
X8783810Y-13203571D01*
X8783810Y-13203571D02*
X8774286Y-13175000D01*
X8774286Y-13175000D02*
X8764762Y-13127381D01*
X8764762Y-13127381D02*
X8764762Y-13089286D01*
X8764762Y-13089286D02*
X8774286Y-13041667D01*
X8774286Y-13041667D02*
X8783810Y-13013095D01*
X8783810Y-13013095D02*
X8793334Y-12994048D01*
X8793334Y-12994048D02*
X8812381Y-12965476D01*
X8812381Y-12965476D02*
X8821905Y-12955952D01*
X8888572Y-13003571D02*
X8898096Y-12994048D01*
X8898096Y-12994048D02*
X8917143Y-12984524D01*
X8917143Y-12984524D02*
X8964762Y-12984524D01*
X8964762Y-12984524D02*
X8983810Y-12994048D01*
X8983810Y-12994048D02*
X8993334Y-13003571D01*
X8993334Y-13003571D02*
X9002857Y-13022619D01*
X9002857Y-13022619D02*
X9002857Y-13041667D01*
X9002857Y-13041667D02*
X8993334Y-13070238D01*
X8993334Y-13070238D02*
X8879048Y-13184524D01*
X8879048Y-13184524D02*
X9002857Y-13184524D01*
X9240953Y-13184524D02*
X9240953Y-12984524D01*
X9326667Y-13184524D02*
X9326667Y-13079762D01*
X9326667Y-13079762D02*
X9317143Y-13060714D01*
X9317143Y-13060714D02*
X9298096Y-13051190D01*
X9298096Y-13051190D02*
X9269524Y-13051190D01*
X9269524Y-13051190D02*
X9250477Y-13060714D01*
X9250477Y-13060714D02*
X9240953Y-13070238D01*
X9450477Y-13184524D02*
X9431429Y-13175000D01*
X9431429Y-13175000D02*
X9421905Y-13165476D01*
X9421905Y-13165476D02*
X9412381Y-13146428D01*
X9412381Y-13146428D02*
X9412381Y-13089286D01*
X9412381Y-13089286D02*
X9421905Y-13070238D01*
X9421905Y-13070238D02*
X9431429Y-13060714D01*
X9431429Y-13060714D02*
X9450477Y-13051190D01*
X9450477Y-13051190D02*
X9479048Y-13051190D01*
X9479048Y-13051190D02*
X9498096Y-13060714D01*
X9498096Y-13060714D02*
X9507619Y-13070238D01*
X9507619Y-13070238D02*
X9517143Y-13089286D01*
X9517143Y-13089286D02*
X9517143Y-13146428D01*
X9517143Y-13146428D02*
X9507619Y-13165476D01*
X9507619Y-13165476D02*
X9498096Y-13175000D01*
X9498096Y-13175000D02*
X9479048Y-13184524D01*
X9479048Y-13184524D02*
X9450477Y-13184524D01*
X9631429Y-13184524D02*
X9612381Y-13175000D01*
X9612381Y-13175000D02*
X9602858Y-13155952D01*
X9602858Y-13155952D02*
X9602858Y-12984524D01*
X9783810Y-13175000D02*
X9764762Y-13184524D01*
X9764762Y-13184524D02*
X9726667Y-13184524D01*
X9726667Y-13184524D02*
X9707619Y-13175000D01*
X9707619Y-13175000D02*
X9698096Y-13155952D01*
X9698096Y-13155952D02*
X9698096Y-13079762D01*
X9698096Y-13079762D02*
X9707619Y-13060714D01*
X9707619Y-13060714D02*
X9726667Y-13051190D01*
X9726667Y-13051190D02*
X9764762Y-13051190D01*
X9764762Y-13051190D02*
X9783810Y-13060714D01*
X9783810Y-13060714D02*
X9793334Y-13079762D01*
X9793334Y-13079762D02*
X9793334Y-13098809D01*
X9793334Y-13098809D02*
X9698096Y-13117857D01*
X9869524Y-13175000D02*
X9888572Y-13184524D01*
X9888572Y-13184524D02*
X9926667Y-13184524D01*
X9926667Y-13184524D02*
X9945715Y-13175000D01*
X9945715Y-13175000D02*
X9955239Y-13155952D01*
X9955239Y-13155952D02*
X9955239Y-13146428D01*
X9955239Y-13146428D02*
X9945715Y-13127381D01*
X9945715Y-13127381D02*
X9926667Y-13117857D01*
X9926667Y-13117857D02*
X9898096Y-13117857D01*
X9898096Y-13117857D02*
X9879048Y-13108333D01*
X9879048Y-13108333D02*
X9869524Y-13089286D01*
X9869524Y-13089286D02*
X9869524Y-13079762D01*
X9869524Y-13079762D02*
X9879048Y-13060714D01*
X9879048Y-13060714D02*
X9898096Y-13051190D01*
X9898096Y-13051190D02*
X9926667Y-13051190D01*
X9926667Y-13051190D02*
X9945715Y-13060714D01*
X10021905Y-13260714D02*
X10031429Y-13251190D01*
X10031429Y-13251190D02*
X10050477Y-13222619D01*
X10050477Y-13222619D02*
X10060000Y-13203571D01*
X10060000Y-13203571D02*
X10069524Y-13175000D01*
X10069524Y-13175000D02*
X10079048Y-13127381D01*
X10079048Y-13127381D02*
X10079048Y-13089286D01*
X10079048Y-13089286D02*
X10069524Y-13041667D01*
X10069524Y-13041667D02*
X10060000Y-13013095D01*
X10060000Y-13013095D02*
X10050477Y-12994048D01*
X10050477Y-12994048D02*
X10031429Y-12965476D01*
X10031429Y-12965476D02*
X10021905Y-12955952D01*
D15*
X5230000Y-13386000D02*
X5260000Y-13356000D01*
X5230000Y-13326000D01*
X5200000Y-13356000D01*
X5230000Y-13386000D01*
D10*
X5545714Y-13248524D02*
X5564762Y-13248524D01*
X5564762Y-13248524D02*
X5583810Y-13258048D01*
X5583810Y-13258048D02*
X5593333Y-13267571D01*
X5593333Y-13267571D02*
X5602857Y-13286619D01*
X5602857Y-13286619D02*
X5612381Y-13324714D01*
X5612381Y-13324714D02*
X5612381Y-13372333D01*
X5612381Y-13372333D02*
X5602857Y-13410428D01*
X5602857Y-13410428D02*
X5593333Y-13429476D01*
X5593333Y-13429476D02*
X5583810Y-13439000D01*
X5583810Y-13439000D02*
X5564762Y-13448524D01*
X5564762Y-13448524D02*
X5545714Y-13448524D01*
X5545714Y-13448524D02*
X5526667Y-13439000D01*
X5526667Y-13439000D02*
X5517143Y-13429476D01*
X5517143Y-13429476D02*
X5507619Y-13410428D01*
X5507619Y-13410428D02*
X5498095Y-13372333D01*
X5498095Y-13372333D02*
X5498095Y-13324714D01*
X5498095Y-13324714D02*
X5507619Y-13286619D01*
X5507619Y-13286619D02*
X5517143Y-13267571D01*
X5517143Y-13267571D02*
X5526667Y-13258048D01*
X5526667Y-13258048D02*
X5545714Y-13248524D01*
X5698095Y-13429476D02*
X5707619Y-13439000D01*
X5707619Y-13439000D02*
X5698095Y-13448524D01*
X5698095Y-13448524D02*
X5688571Y-13439000D01*
X5688571Y-13439000D02*
X5698095Y-13429476D01*
X5698095Y-13429476D02*
X5698095Y-13448524D01*
X5879048Y-13248524D02*
X5840952Y-13248524D01*
X5840952Y-13248524D02*
X5821905Y-13258048D01*
X5821905Y-13258048D02*
X5812381Y-13267571D01*
X5812381Y-13267571D02*
X5793333Y-13296143D01*
X5793333Y-13296143D02*
X5783809Y-13334238D01*
X5783809Y-13334238D02*
X5783809Y-13410428D01*
X5783809Y-13410428D02*
X5793333Y-13429476D01*
X5793333Y-13429476D02*
X5802857Y-13439000D01*
X5802857Y-13439000D02*
X5821905Y-13448524D01*
X5821905Y-13448524D02*
X5860000Y-13448524D01*
X5860000Y-13448524D02*
X5879048Y-13439000D01*
X5879048Y-13439000D02*
X5888571Y-13429476D01*
X5888571Y-13429476D02*
X5898095Y-13410428D01*
X5898095Y-13410428D02*
X5898095Y-13362809D01*
X5898095Y-13362809D02*
X5888571Y-13343762D01*
X5888571Y-13343762D02*
X5879048Y-13334238D01*
X5879048Y-13334238D02*
X5860000Y-13324714D01*
X5860000Y-13324714D02*
X5821905Y-13324714D01*
X5821905Y-13324714D02*
X5802857Y-13334238D01*
X5802857Y-13334238D02*
X5793333Y-13343762D01*
X5793333Y-13343762D02*
X5783809Y-13362809D01*
X6021905Y-13248524D02*
X6040952Y-13248524D01*
X6040952Y-13248524D02*
X6060000Y-13258048D01*
X6060000Y-13258048D02*
X6069524Y-13267571D01*
X6069524Y-13267571D02*
X6079048Y-13286619D01*
X6079048Y-13286619D02*
X6088571Y-13324714D01*
X6088571Y-13324714D02*
X6088571Y-13372333D01*
X6088571Y-13372333D02*
X6079048Y-13410428D01*
X6079048Y-13410428D02*
X6069524Y-13429476D01*
X6069524Y-13429476D02*
X6060000Y-13439000D01*
X6060000Y-13439000D02*
X6040952Y-13448524D01*
X6040952Y-13448524D02*
X6021905Y-13448524D01*
X6021905Y-13448524D02*
X6002857Y-13439000D01*
X6002857Y-13439000D02*
X5993333Y-13429476D01*
X5993333Y-13429476D02*
X5983809Y-13410428D01*
X5983809Y-13410428D02*
X5974286Y-13372333D01*
X5974286Y-13372333D02*
X5974286Y-13324714D01*
X5974286Y-13324714D02*
X5983809Y-13286619D01*
X5983809Y-13286619D02*
X5993333Y-13267571D01*
X5993333Y-13267571D02*
X6002857Y-13258048D01*
X6002857Y-13258048D02*
X6021905Y-13248524D01*
X6212381Y-13248524D02*
X6231429Y-13248524D01*
X6231429Y-13248524D02*
X6250476Y-13258048D01*
X6250476Y-13258048D02*
X6260000Y-13267571D01*
X6260000Y-13267571D02*
X6269524Y-13286619D01*
X6269524Y-13286619D02*
X6279048Y-13324714D01*
X6279048Y-13324714D02*
X6279048Y-13372333D01*
X6279048Y-13372333D02*
X6269524Y-13410428D01*
X6269524Y-13410428D02*
X6260000Y-13429476D01*
X6260000Y-13429476D02*
X6250476Y-13439000D01*
X6250476Y-13439000D02*
X6231429Y-13448524D01*
X6231429Y-13448524D02*
X6212381Y-13448524D01*
X6212381Y-13448524D02*
X6193333Y-13439000D01*
X6193333Y-13439000D02*
X6183809Y-13429476D01*
X6183809Y-13429476D02*
X6174286Y-13410428D01*
X6174286Y-13410428D02*
X6164762Y-13372333D01*
X6164762Y-13372333D02*
X6164762Y-13324714D01*
X6164762Y-13324714D02*
X6174286Y-13286619D01*
X6174286Y-13286619D02*
X6183809Y-13267571D01*
X6183809Y-13267571D02*
X6193333Y-13258048D01*
X6193333Y-13258048D02*
X6212381Y-13248524D01*
X6364762Y-13448524D02*
X6364762Y-13315190D01*
X6364762Y-13334238D02*
X6374286Y-13324714D01*
X6374286Y-13324714D02*
X6393333Y-13315190D01*
X6393333Y-13315190D02*
X6421905Y-13315190D01*
X6421905Y-13315190D02*
X6440952Y-13324714D01*
X6440952Y-13324714D02*
X6450476Y-13343762D01*
X6450476Y-13343762D02*
X6450476Y-13448524D01*
X6450476Y-13343762D02*
X6460000Y-13324714D01*
X6460000Y-13324714D02*
X6479048Y-13315190D01*
X6479048Y-13315190D02*
X6507619Y-13315190D01*
X6507619Y-13315190D02*
X6526667Y-13324714D01*
X6526667Y-13324714D02*
X6536190Y-13343762D01*
X6536190Y-13343762D02*
X6536190Y-13448524D01*
X6631429Y-13448524D02*
X6631429Y-13315190D01*
X6631429Y-13334238D02*
X6640952Y-13324714D01*
X6640952Y-13324714D02*
X6660000Y-13315190D01*
X6660000Y-13315190D02*
X6688571Y-13315190D01*
X6688571Y-13315190D02*
X6707619Y-13324714D01*
X6707619Y-13324714D02*
X6717143Y-13343762D01*
X6717143Y-13343762D02*
X6717143Y-13448524D01*
X6717143Y-13343762D02*
X6726667Y-13324714D01*
X6726667Y-13324714D02*
X6745714Y-13315190D01*
X6745714Y-13315190D02*
X6774286Y-13315190D01*
X6774286Y-13315190D02*
X6793333Y-13324714D01*
X6793333Y-13324714D02*
X6802857Y-13343762D01*
X6802857Y-13343762D02*
X6802857Y-13448524D01*
X7193333Y-13239000D02*
X7021905Y-13496143D01*
X7450476Y-13248524D02*
X7469524Y-13248524D01*
X7469524Y-13248524D02*
X7488572Y-13258048D01*
X7488572Y-13258048D02*
X7498095Y-13267571D01*
X7498095Y-13267571D02*
X7507619Y-13286619D01*
X7507619Y-13286619D02*
X7517143Y-13324714D01*
X7517143Y-13324714D02*
X7517143Y-13372333D01*
X7517143Y-13372333D02*
X7507619Y-13410428D01*
X7507619Y-13410428D02*
X7498095Y-13429476D01*
X7498095Y-13429476D02*
X7488572Y-13439000D01*
X7488572Y-13439000D02*
X7469524Y-13448524D01*
X7469524Y-13448524D02*
X7450476Y-13448524D01*
X7450476Y-13448524D02*
X7431429Y-13439000D01*
X7431429Y-13439000D02*
X7421905Y-13429476D01*
X7421905Y-13429476D02*
X7412381Y-13410428D01*
X7412381Y-13410428D02*
X7402857Y-13372333D01*
X7402857Y-13372333D02*
X7402857Y-13324714D01*
X7402857Y-13324714D02*
X7412381Y-13286619D01*
X7412381Y-13286619D02*
X7421905Y-13267571D01*
X7421905Y-13267571D02*
X7431429Y-13258048D01*
X7431429Y-13258048D02*
X7450476Y-13248524D01*
X7602857Y-13429476D02*
X7612381Y-13439000D01*
X7612381Y-13439000D02*
X7602857Y-13448524D01*
X7602857Y-13448524D02*
X7593333Y-13439000D01*
X7593333Y-13439000D02*
X7602857Y-13429476D01*
X7602857Y-13429476D02*
X7602857Y-13448524D01*
X7736191Y-13248524D02*
X7755238Y-13248524D01*
X7755238Y-13248524D02*
X7774286Y-13258048D01*
X7774286Y-13258048D02*
X7783810Y-13267571D01*
X7783810Y-13267571D02*
X7793333Y-13286619D01*
X7793333Y-13286619D02*
X7802857Y-13324714D01*
X7802857Y-13324714D02*
X7802857Y-13372333D01*
X7802857Y-13372333D02*
X7793333Y-13410428D01*
X7793333Y-13410428D02*
X7783810Y-13429476D01*
X7783810Y-13429476D02*
X7774286Y-13439000D01*
X7774286Y-13439000D02*
X7755238Y-13448524D01*
X7755238Y-13448524D02*
X7736191Y-13448524D01*
X7736191Y-13448524D02*
X7717143Y-13439000D01*
X7717143Y-13439000D02*
X7707619Y-13429476D01*
X7707619Y-13429476D02*
X7698095Y-13410428D01*
X7698095Y-13410428D02*
X7688572Y-13372333D01*
X7688572Y-13372333D02*
X7688572Y-13324714D01*
X7688572Y-13324714D02*
X7698095Y-13286619D01*
X7698095Y-13286619D02*
X7707619Y-13267571D01*
X7707619Y-13267571D02*
X7717143Y-13258048D01*
X7717143Y-13258048D02*
X7736191Y-13248524D01*
X7879048Y-13267571D02*
X7888572Y-13258048D01*
X7888572Y-13258048D02*
X7907619Y-13248524D01*
X7907619Y-13248524D02*
X7955238Y-13248524D01*
X7955238Y-13248524D02*
X7974286Y-13258048D01*
X7974286Y-13258048D02*
X7983810Y-13267571D01*
X7983810Y-13267571D02*
X7993333Y-13286619D01*
X7993333Y-13286619D02*
X7993333Y-13305667D01*
X7993333Y-13305667D02*
X7983810Y-13334238D01*
X7983810Y-13334238D02*
X7869524Y-13448524D01*
X7869524Y-13448524D02*
X7993333Y-13448524D01*
X8060000Y-13248524D02*
X8183810Y-13248524D01*
X8183810Y-13248524D02*
X8117143Y-13324714D01*
X8117143Y-13324714D02*
X8145714Y-13324714D01*
X8145714Y-13324714D02*
X8164762Y-13334238D01*
X8164762Y-13334238D02*
X8174286Y-13343762D01*
X8174286Y-13343762D02*
X8183810Y-13362809D01*
X8183810Y-13362809D02*
X8183810Y-13410428D01*
X8183810Y-13410428D02*
X8174286Y-13429476D01*
X8174286Y-13429476D02*
X8164762Y-13439000D01*
X8164762Y-13439000D02*
X8145714Y-13448524D01*
X8145714Y-13448524D02*
X8088572Y-13448524D01*
X8088572Y-13448524D02*
X8069524Y-13439000D01*
X8069524Y-13439000D02*
X8060000Y-13429476D01*
X8355238Y-13248524D02*
X8317143Y-13248524D01*
X8317143Y-13248524D02*
X8298095Y-13258048D01*
X8298095Y-13258048D02*
X8288572Y-13267571D01*
X8288572Y-13267571D02*
X8269524Y-13296143D01*
X8269524Y-13296143D02*
X8260000Y-13334238D01*
X8260000Y-13334238D02*
X8260000Y-13410428D01*
X8260000Y-13410428D02*
X8269524Y-13429476D01*
X8269524Y-13429476D02*
X8279048Y-13439000D01*
X8279048Y-13439000D02*
X8298095Y-13448524D01*
X8298095Y-13448524D02*
X8336191Y-13448524D01*
X8336191Y-13448524D02*
X8355238Y-13439000D01*
X8355238Y-13439000D02*
X8364762Y-13429476D01*
X8364762Y-13429476D02*
X8374286Y-13410428D01*
X8374286Y-13410428D02*
X8374286Y-13362809D01*
X8374286Y-13362809D02*
X8364762Y-13343762D01*
X8364762Y-13343762D02*
X8355238Y-13334238D01*
X8355238Y-13334238D02*
X8336191Y-13324714D01*
X8336191Y-13324714D02*
X8298095Y-13324714D01*
X8298095Y-13324714D02*
X8279048Y-13334238D01*
X8279048Y-13334238D02*
X8269524Y-13343762D01*
X8269524Y-13343762D02*
X8260000Y-13362809D01*
X8450476Y-13248524D02*
X8450476Y-13286619D01*
X8526667Y-13248524D02*
X8526667Y-13286619D01*
X8821905Y-13524714D02*
X8812381Y-13515190D01*
X8812381Y-13515190D02*
X8793334Y-13486619D01*
X8793334Y-13486619D02*
X8783810Y-13467571D01*
X8783810Y-13467571D02*
X8774286Y-13439000D01*
X8774286Y-13439000D02*
X8764762Y-13391381D01*
X8764762Y-13391381D02*
X8764762Y-13353286D01*
X8764762Y-13353286D02*
X8774286Y-13305667D01*
X8774286Y-13305667D02*
X8783810Y-13277095D01*
X8783810Y-13277095D02*
X8793334Y-13258048D01*
X8793334Y-13258048D02*
X8812381Y-13229476D01*
X8812381Y-13229476D02*
X8821905Y-13219952D01*
X9002857Y-13448524D02*
X8888572Y-13448524D01*
X8945715Y-13448524D02*
X8945715Y-13248524D01*
X8945715Y-13248524D02*
X8926667Y-13277095D01*
X8926667Y-13277095D02*
X8907619Y-13296143D01*
X8907619Y-13296143D02*
X8888572Y-13305667D01*
X9126667Y-13248524D02*
X9145715Y-13248524D01*
X9145715Y-13248524D02*
X9164762Y-13258048D01*
X9164762Y-13258048D02*
X9174286Y-13267571D01*
X9174286Y-13267571D02*
X9183810Y-13286619D01*
X9183810Y-13286619D02*
X9193334Y-13324714D01*
X9193334Y-13324714D02*
X9193334Y-13372333D01*
X9193334Y-13372333D02*
X9183810Y-13410428D01*
X9183810Y-13410428D02*
X9174286Y-13429476D01*
X9174286Y-13429476D02*
X9164762Y-13439000D01*
X9164762Y-13439000D02*
X9145715Y-13448524D01*
X9145715Y-13448524D02*
X9126667Y-13448524D01*
X9126667Y-13448524D02*
X9107619Y-13439000D01*
X9107619Y-13439000D02*
X9098096Y-13429476D01*
X9098096Y-13429476D02*
X9088572Y-13410428D01*
X9088572Y-13410428D02*
X9079048Y-13372333D01*
X9079048Y-13372333D02*
X9079048Y-13324714D01*
X9079048Y-13324714D02*
X9088572Y-13286619D01*
X9088572Y-13286619D02*
X9098096Y-13267571D01*
X9098096Y-13267571D02*
X9107619Y-13258048D01*
X9107619Y-13258048D02*
X9126667Y-13248524D01*
X9431429Y-13448524D02*
X9431429Y-13248524D01*
X9517143Y-13448524D02*
X9517143Y-13343762D01*
X9517143Y-13343762D02*
X9507619Y-13324714D01*
X9507619Y-13324714D02*
X9488572Y-13315190D01*
X9488572Y-13315190D02*
X9460000Y-13315190D01*
X9460000Y-13315190D02*
X9440953Y-13324714D01*
X9440953Y-13324714D02*
X9431429Y-13334238D01*
X9640953Y-13448524D02*
X9621905Y-13439000D01*
X9621905Y-13439000D02*
X9612381Y-13429476D01*
X9612381Y-13429476D02*
X9602858Y-13410428D01*
X9602858Y-13410428D02*
X9602858Y-13353286D01*
X9602858Y-13353286D02*
X9612381Y-13334238D01*
X9612381Y-13334238D02*
X9621905Y-13324714D01*
X9621905Y-13324714D02*
X9640953Y-13315190D01*
X9640953Y-13315190D02*
X9669524Y-13315190D01*
X9669524Y-13315190D02*
X9688572Y-13324714D01*
X9688572Y-13324714D02*
X9698096Y-13334238D01*
X9698096Y-13334238D02*
X9707619Y-13353286D01*
X9707619Y-13353286D02*
X9707619Y-13410428D01*
X9707619Y-13410428D02*
X9698096Y-13429476D01*
X9698096Y-13429476D02*
X9688572Y-13439000D01*
X9688572Y-13439000D02*
X9669524Y-13448524D01*
X9669524Y-13448524D02*
X9640953Y-13448524D01*
X9821905Y-13448524D02*
X9802858Y-13439000D01*
X9802858Y-13439000D02*
X9793334Y-13419952D01*
X9793334Y-13419952D02*
X9793334Y-13248524D01*
X9974286Y-13439000D02*
X9955239Y-13448524D01*
X9955239Y-13448524D02*
X9917143Y-13448524D01*
X9917143Y-13448524D02*
X9898096Y-13439000D01*
X9898096Y-13439000D02*
X9888572Y-13419952D01*
X9888572Y-13419952D02*
X9888572Y-13343762D01*
X9888572Y-13343762D02*
X9898096Y-13324714D01*
X9898096Y-13324714D02*
X9917143Y-13315190D01*
X9917143Y-13315190D02*
X9955239Y-13315190D01*
X9955239Y-13315190D02*
X9974286Y-13324714D01*
X9974286Y-13324714D02*
X9983810Y-13343762D01*
X9983810Y-13343762D02*
X9983810Y-13362809D01*
X9983810Y-13362809D02*
X9888572Y-13381857D01*
X10060000Y-13439000D02*
X10079048Y-13448524D01*
X10079048Y-13448524D02*
X10117143Y-13448524D01*
X10117143Y-13448524D02*
X10136191Y-13439000D01*
X10136191Y-13439000D02*
X10145715Y-13419952D01*
X10145715Y-13419952D02*
X10145715Y-13410428D01*
X10145715Y-13410428D02*
X10136191Y-13391381D01*
X10136191Y-13391381D02*
X10117143Y-13381857D01*
X10117143Y-13381857D02*
X10088572Y-13381857D01*
X10088572Y-13381857D02*
X10069524Y-13372333D01*
X10069524Y-13372333D02*
X10060000Y-13353286D01*
X10060000Y-13353286D02*
X10060000Y-13343762D01*
X10060000Y-13343762D02*
X10069524Y-13324714D01*
X10069524Y-13324714D02*
X10088572Y-13315190D01*
X10088572Y-13315190D02*
X10117143Y-13315190D01*
X10117143Y-13315190D02*
X10136191Y-13324714D01*
X10212381Y-13524714D02*
X10221905Y-13515190D01*
X10221905Y-13515190D02*
X10240953Y-13486619D01*
X10240953Y-13486619D02*
X10250477Y-13467571D01*
X10250477Y-13467571D02*
X10260000Y-13439000D01*
X10260000Y-13439000D02*
X10269524Y-13391381D01*
X10269524Y-13391381D02*
X10269524Y-13353286D01*
X10269524Y-13353286D02*
X10260000Y-13305667D01*
X10260000Y-13305667D02*
X10250477Y-13277095D01*
X10250477Y-13277095D02*
X10240953Y-13258048D01*
X10240953Y-13258048D02*
X10221905Y-13229476D01*
X10221905Y-13229476D02*
X10212381Y-13219952D01*
D16*
X5170000Y-13575000D02*
X5260000Y-13665000D01*
X5260000Y-13575000D02*
X5170000Y-13665000D01*
X5260000Y-13620000D02*
G75*
G03*
X5260000Y-13620000I-45000J0D01*
G01*
D10*
X5545714Y-13512524D02*
X5564762Y-13512524D01*
X5564762Y-13512524D02*
X5583810Y-13522048D01*
X5583810Y-13522048D02*
X5593333Y-13531571D01*
X5593333Y-13531571D02*
X5602857Y-13550619D01*
X5602857Y-13550619D02*
X5612381Y-13588714D01*
X5612381Y-13588714D02*
X5612381Y-13636333D01*
X5612381Y-13636333D02*
X5602857Y-13674428D01*
X5602857Y-13674428D02*
X5593333Y-13693476D01*
X5593333Y-13693476D02*
X5583810Y-13703000D01*
X5583810Y-13703000D02*
X5564762Y-13712524D01*
X5564762Y-13712524D02*
X5545714Y-13712524D01*
X5545714Y-13712524D02*
X5526667Y-13703000D01*
X5526667Y-13703000D02*
X5517143Y-13693476D01*
X5517143Y-13693476D02*
X5507619Y-13674428D01*
X5507619Y-13674428D02*
X5498095Y-13636333D01*
X5498095Y-13636333D02*
X5498095Y-13588714D01*
X5498095Y-13588714D02*
X5507619Y-13550619D01*
X5507619Y-13550619D02*
X5517143Y-13531571D01*
X5517143Y-13531571D02*
X5526667Y-13522048D01*
X5526667Y-13522048D02*
X5545714Y-13512524D01*
X5698095Y-13693476D02*
X5707619Y-13703000D01*
X5707619Y-13703000D02*
X5698095Y-13712524D01*
X5698095Y-13712524D02*
X5688571Y-13703000D01*
X5688571Y-13703000D02*
X5698095Y-13693476D01*
X5698095Y-13693476D02*
X5698095Y-13712524D01*
X5802857Y-13712524D02*
X5840952Y-13712524D01*
X5840952Y-13712524D02*
X5860000Y-13703000D01*
X5860000Y-13703000D02*
X5869524Y-13693476D01*
X5869524Y-13693476D02*
X5888571Y-13664905D01*
X5888571Y-13664905D02*
X5898095Y-13626809D01*
X5898095Y-13626809D02*
X5898095Y-13550619D01*
X5898095Y-13550619D02*
X5888571Y-13531571D01*
X5888571Y-13531571D02*
X5879048Y-13522048D01*
X5879048Y-13522048D02*
X5860000Y-13512524D01*
X5860000Y-13512524D02*
X5821905Y-13512524D01*
X5821905Y-13512524D02*
X5802857Y-13522048D01*
X5802857Y-13522048D02*
X5793333Y-13531571D01*
X5793333Y-13531571D02*
X5783809Y-13550619D01*
X5783809Y-13550619D02*
X5783809Y-13598238D01*
X5783809Y-13598238D02*
X5793333Y-13617286D01*
X5793333Y-13617286D02*
X5802857Y-13626809D01*
X5802857Y-13626809D02*
X5821905Y-13636333D01*
X5821905Y-13636333D02*
X5860000Y-13636333D01*
X5860000Y-13636333D02*
X5879048Y-13626809D01*
X5879048Y-13626809D02*
X5888571Y-13617286D01*
X5888571Y-13617286D02*
X5898095Y-13598238D01*
X6021905Y-13512524D02*
X6040952Y-13512524D01*
X6040952Y-13512524D02*
X6060000Y-13522048D01*
X6060000Y-13522048D02*
X6069524Y-13531571D01*
X6069524Y-13531571D02*
X6079048Y-13550619D01*
X6079048Y-13550619D02*
X6088571Y-13588714D01*
X6088571Y-13588714D02*
X6088571Y-13636333D01*
X6088571Y-13636333D02*
X6079048Y-13674428D01*
X6079048Y-13674428D02*
X6069524Y-13693476D01*
X6069524Y-13693476D02*
X6060000Y-13703000D01*
X6060000Y-13703000D02*
X6040952Y-13712524D01*
X6040952Y-13712524D02*
X6021905Y-13712524D01*
X6021905Y-13712524D02*
X6002857Y-13703000D01*
X6002857Y-13703000D02*
X5993333Y-13693476D01*
X5993333Y-13693476D02*
X5983809Y-13674428D01*
X5983809Y-13674428D02*
X5974286Y-13636333D01*
X5974286Y-13636333D02*
X5974286Y-13588714D01*
X5974286Y-13588714D02*
X5983809Y-13550619D01*
X5983809Y-13550619D02*
X5993333Y-13531571D01*
X5993333Y-13531571D02*
X6002857Y-13522048D01*
X6002857Y-13522048D02*
X6021905Y-13512524D01*
X6212381Y-13512524D02*
X6231429Y-13512524D01*
X6231429Y-13512524D02*
X6250476Y-13522048D01*
X6250476Y-13522048D02*
X6260000Y-13531571D01*
X6260000Y-13531571D02*
X6269524Y-13550619D01*
X6269524Y-13550619D02*
X6279048Y-13588714D01*
X6279048Y-13588714D02*
X6279048Y-13636333D01*
X6279048Y-13636333D02*
X6269524Y-13674428D01*
X6269524Y-13674428D02*
X6260000Y-13693476D01*
X6260000Y-13693476D02*
X6250476Y-13703000D01*
X6250476Y-13703000D02*
X6231429Y-13712524D01*
X6231429Y-13712524D02*
X6212381Y-13712524D01*
X6212381Y-13712524D02*
X6193333Y-13703000D01*
X6193333Y-13703000D02*
X6183809Y-13693476D01*
X6183809Y-13693476D02*
X6174286Y-13674428D01*
X6174286Y-13674428D02*
X6164762Y-13636333D01*
X6164762Y-13636333D02*
X6164762Y-13588714D01*
X6164762Y-13588714D02*
X6174286Y-13550619D01*
X6174286Y-13550619D02*
X6183809Y-13531571D01*
X6183809Y-13531571D02*
X6193333Y-13522048D01*
X6193333Y-13522048D02*
X6212381Y-13512524D01*
X6364762Y-13712524D02*
X6364762Y-13579190D01*
X6364762Y-13598238D02*
X6374286Y-13588714D01*
X6374286Y-13588714D02*
X6393333Y-13579190D01*
X6393333Y-13579190D02*
X6421905Y-13579190D01*
X6421905Y-13579190D02*
X6440952Y-13588714D01*
X6440952Y-13588714D02*
X6450476Y-13607762D01*
X6450476Y-13607762D02*
X6450476Y-13712524D01*
X6450476Y-13607762D02*
X6460000Y-13588714D01*
X6460000Y-13588714D02*
X6479048Y-13579190D01*
X6479048Y-13579190D02*
X6507619Y-13579190D01*
X6507619Y-13579190D02*
X6526667Y-13588714D01*
X6526667Y-13588714D02*
X6536190Y-13607762D01*
X6536190Y-13607762D02*
X6536190Y-13712524D01*
X6631429Y-13712524D02*
X6631429Y-13579190D01*
X6631429Y-13598238D02*
X6640952Y-13588714D01*
X6640952Y-13588714D02*
X6660000Y-13579190D01*
X6660000Y-13579190D02*
X6688571Y-13579190D01*
X6688571Y-13579190D02*
X6707619Y-13588714D01*
X6707619Y-13588714D02*
X6717143Y-13607762D01*
X6717143Y-13607762D02*
X6717143Y-13712524D01*
X6717143Y-13607762D02*
X6726667Y-13588714D01*
X6726667Y-13588714D02*
X6745714Y-13579190D01*
X6745714Y-13579190D02*
X6774286Y-13579190D01*
X6774286Y-13579190D02*
X6793333Y-13588714D01*
X6793333Y-13588714D02*
X6802857Y-13607762D01*
X6802857Y-13607762D02*
X6802857Y-13712524D01*
X7193333Y-13503000D02*
X7021905Y-13760143D01*
X7450476Y-13512524D02*
X7469524Y-13512524D01*
X7469524Y-13512524D02*
X7488572Y-13522048D01*
X7488572Y-13522048D02*
X7498095Y-13531571D01*
X7498095Y-13531571D02*
X7507619Y-13550619D01*
X7507619Y-13550619D02*
X7517143Y-13588714D01*
X7517143Y-13588714D02*
X7517143Y-13636333D01*
X7517143Y-13636333D02*
X7507619Y-13674428D01*
X7507619Y-13674428D02*
X7498095Y-13693476D01*
X7498095Y-13693476D02*
X7488572Y-13703000D01*
X7488572Y-13703000D02*
X7469524Y-13712524D01*
X7469524Y-13712524D02*
X7450476Y-13712524D01*
X7450476Y-13712524D02*
X7431429Y-13703000D01*
X7431429Y-13703000D02*
X7421905Y-13693476D01*
X7421905Y-13693476D02*
X7412381Y-13674428D01*
X7412381Y-13674428D02*
X7402857Y-13636333D01*
X7402857Y-13636333D02*
X7402857Y-13588714D01*
X7402857Y-13588714D02*
X7412381Y-13550619D01*
X7412381Y-13550619D02*
X7421905Y-13531571D01*
X7421905Y-13531571D02*
X7431429Y-13522048D01*
X7431429Y-13522048D02*
X7450476Y-13512524D01*
X7602857Y-13693476D02*
X7612381Y-13703000D01*
X7612381Y-13703000D02*
X7602857Y-13712524D01*
X7602857Y-13712524D02*
X7593333Y-13703000D01*
X7593333Y-13703000D02*
X7602857Y-13693476D01*
X7602857Y-13693476D02*
X7602857Y-13712524D01*
X7736191Y-13512524D02*
X7755238Y-13512524D01*
X7755238Y-13512524D02*
X7774286Y-13522048D01*
X7774286Y-13522048D02*
X7783810Y-13531571D01*
X7783810Y-13531571D02*
X7793333Y-13550619D01*
X7793333Y-13550619D02*
X7802857Y-13588714D01*
X7802857Y-13588714D02*
X7802857Y-13636333D01*
X7802857Y-13636333D02*
X7793333Y-13674428D01*
X7793333Y-13674428D02*
X7783810Y-13693476D01*
X7783810Y-13693476D02*
X7774286Y-13703000D01*
X7774286Y-13703000D02*
X7755238Y-13712524D01*
X7755238Y-13712524D02*
X7736191Y-13712524D01*
X7736191Y-13712524D02*
X7717143Y-13703000D01*
X7717143Y-13703000D02*
X7707619Y-13693476D01*
X7707619Y-13693476D02*
X7698095Y-13674428D01*
X7698095Y-13674428D02*
X7688572Y-13636333D01*
X7688572Y-13636333D02*
X7688572Y-13588714D01*
X7688572Y-13588714D02*
X7698095Y-13550619D01*
X7698095Y-13550619D02*
X7707619Y-13531571D01*
X7707619Y-13531571D02*
X7717143Y-13522048D01*
X7717143Y-13522048D02*
X7736191Y-13512524D01*
X7869524Y-13512524D02*
X7993333Y-13512524D01*
X7993333Y-13512524D02*
X7926667Y-13588714D01*
X7926667Y-13588714D02*
X7955238Y-13588714D01*
X7955238Y-13588714D02*
X7974286Y-13598238D01*
X7974286Y-13598238D02*
X7983810Y-13607762D01*
X7983810Y-13607762D02*
X7993333Y-13626809D01*
X7993333Y-13626809D02*
X7993333Y-13674428D01*
X7993333Y-13674428D02*
X7983810Y-13693476D01*
X7983810Y-13693476D02*
X7974286Y-13703000D01*
X7974286Y-13703000D02*
X7955238Y-13712524D01*
X7955238Y-13712524D02*
X7898095Y-13712524D01*
X7898095Y-13712524D02*
X7879048Y-13703000D01*
X7879048Y-13703000D02*
X7869524Y-13693476D01*
X8174286Y-13512524D02*
X8079048Y-13512524D01*
X8079048Y-13512524D02*
X8069524Y-13607762D01*
X8069524Y-13607762D02*
X8079048Y-13598238D01*
X8079048Y-13598238D02*
X8098095Y-13588714D01*
X8098095Y-13588714D02*
X8145714Y-13588714D01*
X8145714Y-13588714D02*
X8164762Y-13598238D01*
X8164762Y-13598238D02*
X8174286Y-13607762D01*
X8174286Y-13607762D02*
X8183810Y-13626809D01*
X8183810Y-13626809D02*
X8183810Y-13674428D01*
X8183810Y-13674428D02*
X8174286Y-13693476D01*
X8174286Y-13693476D02*
X8164762Y-13703000D01*
X8164762Y-13703000D02*
X8145714Y-13712524D01*
X8145714Y-13712524D02*
X8098095Y-13712524D01*
X8098095Y-13712524D02*
X8079048Y-13703000D01*
X8079048Y-13703000D02*
X8069524Y-13693476D01*
X8355238Y-13579190D02*
X8355238Y-13712524D01*
X8307619Y-13503000D02*
X8260000Y-13645857D01*
X8260000Y-13645857D02*
X8383810Y-13645857D01*
X8450476Y-13512524D02*
X8450476Y-13550619D01*
X8526667Y-13512524D02*
X8526667Y-13550619D01*
X8821905Y-13788714D02*
X8812381Y-13779190D01*
X8812381Y-13779190D02*
X8793334Y-13750619D01*
X8793334Y-13750619D02*
X8783810Y-13731571D01*
X8783810Y-13731571D02*
X8774286Y-13703000D01*
X8774286Y-13703000D02*
X8764762Y-13655381D01*
X8764762Y-13655381D02*
X8764762Y-13617286D01*
X8764762Y-13617286D02*
X8774286Y-13569667D01*
X8774286Y-13569667D02*
X8783810Y-13541095D01*
X8783810Y-13541095D02*
X8793334Y-13522048D01*
X8793334Y-13522048D02*
X8812381Y-13493476D01*
X8812381Y-13493476D02*
X8821905Y-13483952D01*
X8993334Y-13512524D02*
X8898096Y-13512524D01*
X8898096Y-13512524D02*
X8888572Y-13607762D01*
X8888572Y-13607762D02*
X8898096Y-13598238D01*
X8898096Y-13598238D02*
X8917143Y-13588714D01*
X8917143Y-13588714D02*
X8964762Y-13588714D01*
X8964762Y-13588714D02*
X8983810Y-13598238D01*
X8983810Y-13598238D02*
X8993334Y-13607762D01*
X8993334Y-13607762D02*
X9002857Y-13626809D01*
X9002857Y-13626809D02*
X9002857Y-13674428D01*
X9002857Y-13674428D02*
X8993334Y-13693476D01*
X8993334Y-13693476D02*
X8983810Y-13703000D01*
X8983810Y-13703000D02*
X8964762Y-13712524D01*
X8964762Y-13712524D02*
X8917143Y-13712524D01*
X8917143Y-13712524D02*
X8898096Y-13703000D01*
X8898096Y-13703000D02*
X8888572Y-13693476D01*
X9240953Y-13712524D02*
X9240953Y-13512524D01*
X9326667Y-13712524D02*
X9326667Y-13607762D01*
X9326667Y-13607762D02*
X9317143Y-13588714D01*
X9317143Y-13588714D02*
X9298096Y-13579190D01*
X9298096Y-13579190D02*
X9269524Y-13579190D01*
X9269524Y-13579190D02*
X9250477Y-13588714D01*
X9250477Y-13588714D02*
X9240953Y-13598238D01*
X9450477Y-13712524D02*
X9431429Y-13703000D01*
X9431429Y-13703000D02*
X9421905Y-13693476D01*
X9421905Y-13693476D02*
X9412381Y-13674428D01*
X9412381Y-13674428D02*
X9412381Y-13617286D01*
X9412381Y-13617286D02*
X9421905Y-13598238D01*
X9421905Y-13598238D02*
X9431429Y-13588714D01*
X9431429Y-13588714D02*
X9450477Y-13579190D01*
X9450477Y-13579190D02*
X9479048Y-13579190D01*
X9479048Y-13579190D02*
X9498096Y-13588714D01*
X9498096Y-13588714D02*
X9507619Y-13598238D01*
X9507619Y-13598238D02*
X9517143Y-13617286D01*
X9517143Y-13617286D02*
X9517143Y-13674428D01*
X9517143Y-13674428D02*
X9507619Y-13693476D01*
X9507619Y-13693476D02*
X9498096Y-13703000D01*
X9498096Y-13703000D02*
X9479048Y-13712524D01*
X9479048Y-13712524D02*
X9450477Y-13712524D01*
X9631429Y-13712524D02*
X9612381Y-13703000D01*
X9612381Y-13703000D02*
X9602858Y-13683952D01*
X9602858Y-13683952D02*
X9602858Y-13512524D01*
X9783810Y-13703000D02*
X9764762Y-13712524D01*
X9764762Y-13712524D02*
X9726667Y-13712524D01*
X9726667Y-13712524D02*
X9707619Y-13703000D01*
X9707619Y-13703000D02*
X9698096Y-13683952D01*
X9698096Y-13683952D02*
X9698096Y-13607762D01*
X9698096Y-13607762D02*
X9707619Y-13588714D01*
X9707619Y-13588714D02*
X9726667Y-13579190D01*
X9726667Y-13579190D02*
X9764762Y-13579190D01*
X9764762Y-13579190D02*
X9783810Y-13588714D01*
X9783810Y-13588714D02*
X9793334Y-13607762D01*
X9793334Y-13607762D02*
X9793334Y-13626809D01*
X9793334Y-13626809D02*
X9698096Y-13645857D01*
X9869524Y-13703000D02*
X9888572Y-13712524D01*
X9888572Y-13712524D02*
X9926667Y-13712524D01*
X9926667Y-13712524D02*
X9945715Y-13703000D01*
X9945715Y-13703000D02*
X9955239Y-13683952D01*
X9955239Y-13683952D02*
X9955239Y-13674428D01*
X9955239Y-13674428D02*
X9945715Y-13655381D01*
X9945715Y-13655381D02*
X9926667Y-13645857D01*
X9926667Y-13645857D02*
X9898096Y-13645857D01*
X9898096Y-13645857D02*
X9879048Y-13636333D01*
X9879048Y-13636333D02*
X9869524Y-13617286D01*
X9869524Y-13617286D02*
X9869524Y-13607762D01*
X9869524Y-13607762D02*
X9879048Y-13588714D01*
X9879048Y-13588714D02*
X9898096Y-13579190D01*
X9898096Y-13579190D02*
X9926667Y-13579190D01*
X9926667Y-13579190D02*
X9945715Y-13588714D01*
X10021905Y-13788714D02*
X10031429Y-13779190D01*
X10031429Y-13779190D02*
X10050477Y-13750619D01*
X10050477Y-13750619D02*
X10060000Y-13731571D01*
X10060000Y-13731571D02*
X10069524Y-13703000D01*
X10069524Y-13703000D02*
X10079048Y-13655381D01*
X10079048Y-13655381D02*
X10079048Y-13617286D01*
X10079048Y-13617286D02*
X10069524Y-13569667D01*
X10069524Y-13569667D02*
X10060000Y-13541095D01*
X10060000Y-13541095D02*
X10050477Y-13522048D01*
X10050477Y-13522048D02*
X10031429Y-13493476D01*
X10031429Y-13493476D02*
X10021905Y-13483952D01*
D17*
X5160000Y-13834000D02*
X5260000Y-13934000D01*
X5260000Y-13834000D02*
X5160000Y-13934000D01*
X5210000Y-13834000D02*
X5210000Y-13934000D01*
X5160000Y-13884000D02*
X5260000Y-13884000D01*
D10*
X5612381Y-13976524D02*
X5498095Y-13976524D01*
X5555238Y-13976524D02*
X5555238Y-13776524D01*
X5555238Y-13776524D02*
X5536190Y-13805095D01*
X5536190Y-13805095D02*
X5517143Y-13824143D01*
X5517143Y-13824143D02*
X5498095Y-13833667D01*
X5698095Y-13957476D02*
X5707619Y-13967000D01*
X5707619Y-13967000D02*
X5698095Y-13976524D01*
X5698095Y-13976524D02*
X5688571Y-13967000D01*
X5688571Y-13967000D02*
X5698095Y-13957476D01*
X5698095Y-13957476D02*
X5698095Y-13976524D01*
X5831428Y-13776524D02*
X5850476Y-13776524D01*
X5850476Y-13776524D02*
X5869524Y-13786048D01*
X5869524Y-13786048D02*
X5879048Y-13795571D01*
X5879048Y-13795571D02*
X5888571Y-13814619D01*
X5888571Y-13814619D02*
X5898095Y-13852714D01*
X5898095Y-13852714D02*
X5898095Y-13900333D01*
X5898095Y-13900333D02*
X5888571Y-13938428D01*
X5888571Y-13938428D02*
X5879048Y-13957476D01*
X5879048Y-13957476D02*
X5869524Y-13967000D01*
X5869524Y-13967000D02*
X5850476Y-13976524D01*
X5850476Y-13976524D02*
X5831428Y-13976524D01*
X5831428Y-13976524D02*
X5812381Y-13967000D01*
X5812381Y-13967000D02*
X5802857Y-13957476D01*
X5802857Y-13957476D02*
X5793333Y-13938428D01*
X5793333Y-13938428D02*
X5783809Y-13900333D01*
X5783809Y-13900333D02*
X5783809Y-13852714D01*
X5783809Y-13852714D02*
X5793333Y-13814619D01*
X5793333Y-13814619D02*
X5802857Y-13795571D01*
X5802857Y-13795571D02*
X5812381Y-13786048D01*
X5812381Y-13786048D02*
X5831428Y-13776524D01*
X6021905Y-13776524D02*
X6040952Y-13776524D01*
X6040952Y-13776524D02*
X6060000Y-13786048D01*
X6060000Y-13786048D02*
X6069524Y-13795571D01*
X6069524Y-13795571D02*
X6079048Y-13814619D01*
X6079048Y-13814619D02*
X6088571Y-13852714D01*
X6088571Y-13852714D02*
X6088571Y-13900333D01*
X6088571Y-13900333D02*
X6079048Y-13938428D01*
X6079048Y-13938428D02*
X6069524Y-13957476D01*
X6069524Y-13957476D02*
X6060000Y-13967000D01*
X6060000Y-13967000D02*
X6040952Y-13976524D01*
X6040952Y-13976524D02*
X6021905Y-13976524D01*
X6021905Y-13976524D02*
X6002857Y-13967000D01*
X6002857Y-13967000D02*
X5993333Y-13957476D01*
X5993333Y-13957476D02*
X5983809Y-13938428D01*
X5983809Y-13938428D02*
X5974286Y-13900333D01*
X5974286Y-13900333D02*
X5974286Y-13852714D01*
X5974286Y-13852714D02*
X5983809Y-13814619D01*
X5983809Y-13814619D02*
X5993333Y-13795571D01*
X5993333Y-13795571D02*
X6002857Y-13786048D01*
X6002857Y-13786048D02*
X6021905Y-13776524D01*
X6212381Y-13776524D02*
X6231429Y-13776524D01*
X6231429Y-13776524D02*
X6250476Y-13786048D01*
X6250476Y-13786048D02*
X6260000Y-13795571D01*
X6260000Y-13795571D02*
X6269524Y-13814619D01*
X6269524Y-13814619D02*
X6279048Y-13852714D01*
X6279048Y-13852714D02*
X6279048Y-13900333D01*
X6279048Y-13900333D02*
X6269524Y-13938428D01*
X6269524Y-13938428D02*
X6260000Y-13957476D01*
X6260000Y-13957476D02*
X6250476Y-13967000D01*
X6250476Y-13967000D02*
X6231429Y-13976524D01*
X6231429Y-13976524D02*
X6212381Y-13976524D01*
X6212381Y-13976524D02*
X6193333Y-13967000D01*
X6193333Y-13967000D02*
X6183809Y-13957476D01*
X6183809Y-13957476D02*
X6174286Y-13938428D01*
X6174286Y-13938428D02*
X6164762Y-13900333D01*
X6164762Y-13900333D02*
X6164762Y-13852714D01*
X6164762Y-13852714D02*
X6174286Y-13814619D01*
X6174286Y-13814619D02*
X6183809Y-13795571D01*
X6183809Y-13795571D02*
X6193333Y-13786048D01*
X6193333Y-13786048D02*
X6212381Y-13776524D01*
X6364762Y-13976524D02*
X6364762Y-13843190D01*
X6364762Y-13862238D02*
X6374286Y-13852714D01*
X6374286Y-13852714D02*
X6393333Y-13843190D01*
X6393333Y-13843190D02*
X6421905Y-13843190D01*
X6421905Y-13843190D02*
X6440952Y-13852714D01*
X6440952Y-13852714D02*
X6450476Y-13871762D01*
X6450476Y-13871762D02*
X6450476Y-13976524D01*
X6450476Y-13871762D02*
X6460000Y-13852714D01*
X6460000Y-13852714D02*
X6479048Y-13843190D01*
X6479048Y-13843190D02*
X6507619Y-13843190D01*
X6507619Y-13843190D02*
X6526667Y-13852714D01*
X6526667Y-13852714D02*
X6536190Y-13871762D01*
X6536190Y-13871762D02*
X6536190Y-13976524D01*
X6631429Y-13976524D02*
X6631429Y-13843190D01*
X6631429Y-13862238D02*
X6640952Y-13852714D01*
X6640952Y-13852714D02*
X6660000Y-13843190D01*
X6660000Y-13843190D02*
X6688571Y-13843190D01*
X6688571Y-13843190D02*
X6707619Y-13852714D01*
X6707619Y-13852714D02*
X6717143Y-13871762D01*
X6717143Y-13871762D02*
X6717143Y-13976524D01*
X6717143Y-13871762D02*
X6726667Y-13852714D01*
X6726667Y-13852714D02*
X6745714Y-13843190D01*
X6745714Y-13843190D02*
X6774286Y-13843190D01*
X6774286Y-13843190D02*
X6793333Y-13852714D01*
X6793333Y-13852714D02*
X6802857Y-13871762D01*
X6802857Y-13871762D02*
X6802857Y-13976524D01*
X7193333Y-13767000D02*
X7021905Y-14024143D01*
X7450476Y-13776524D02*
X7469524Y-13776524D01*
X7469524Y-13776524D02*
X7488572Y-13786048D01*
X7488572Y-13786048D02*
X7498095Y-13795571D01*
X7498095Y-13795571D02*
X7507619Y-13814619D01*
X7507619Y-13814619D02*
X7517143Y-13852714D01*
X7517143Y-13852714D02*
X7517143Y-13900333D01*
X7517143Y-13900333D02*
X7507619Y-13938428D01*
X7507619Y-13938428D02*
X7498095Y-13957476D01*
X7498095Y-13957476D02*
X7488572Y-13967000D01*
X7488572Y-13967000D02*
X7469524Y-13976524D01*
X7469524Y-13976524D02*
X7450476Y-13976524D01*
X7450476Y-13976524D02*
X7431429Y-13967000D01*
X7431429Y-13967000D02*
X7421905Y-13957476D01*
X7421905Y-13957476D02*
X7412381Y-13938428D01*
X7412381Y-13938428D02*
X7402857Y-13900333D01*
X7402857Y-13900333D02*
X7402857Y-13852714D01*
X7402857Y-13852714D02*
X7412381Y-13814619D01*
X7412381Y-13814619D02*
X7421905Y-13795571D01*
X7421905Y-13795571D02*
X7431429Y-13786048D01*
X7431429Y-13786048D02*
X7450476Y-13776524D01*
X7602857Y-13957476D02*
X7612381Y-13967000D01*
X7612381Y-13967000D02*
X7602857Y-13976524D01*
X7602857Y-13976524D02*
X7593333Y-13967000D01*
X7593333Y-13967000D02*
X7602857Y-13957476D01*
X7602857Y-13957476D02*
X7602857Y-13976524D01*
X7736191Y-13776524D02*
X7755238Y-13776524D01*
X7755238Y-13776524D02*
X7774286Y-13786048D01*
X7774286Y-13786048D02*
X7783810Y-13795571D01*
X7783810Y-13795571D02*
X7793333Y-13814619D01*
X7793333Y-13814619D02*
X7802857Y-13852714D01*
X7802857Y-13852714D02*
X7802857Y-13900333D01*
X7802857Y-13900333D02*
X7793333Y-13938428D01*
X7793333Y-13938428D02*
X7783810Y-13957476D01*
X7783810Y-13957476D02*
X7774286Y-13967000D01*
X7774286Y-13967000D02*
X7755238Y-13976524D01*
X7755238Y-13976524D02*
X7736191Y-13976524D01*
X7736191Y-13976524D02*
X7717143Y-13967000D01*
X7717143Y-13967000D02*
X7707619Y-13957476D01*
X7707619Y-13957476D02*
X7698095Y-13938428D01*
X7698095Y-13938428D02*
X7688572Y-13900333D01*
X7688572Y-13900333D02*
X7688572Y-13852714D01*
X7688572Y-13852714D02*
X7698095Y-13814619D01*
X7698095Y-13814619D02*
X7707619Y-13795571D01*
X7707619Y-13795571D02*
X7717143Y-13786048D01*
X7717143Y-13786048D02*
X7736191Y-13776524D01*
X7869524Y-13776524D02*
X7993333Y-13776524D01*
X7993333Y-13776524D02*
X7926667Y-13852714D01*
X7926667Y-13852714D02*
X7955238Y-13852714D01*
X7955238Y-13852714D02*
X7974286Y-13862238D01*
X7974286Y-13862238D02*
X7983810Y-13871762D01*
X7983810Y-13871762D02*
X7993333Y-13890809D01*
X7993333Y-13890809D02*
X7993333Y-13938428D01*
X7993333Y-13938428D02*
X7983810Y-13957476D01*
X7983810Y-13957476D02*
X7974286Y-13967000D01*
X7974286Y-13967000D02*
X7955238Y-13976524D01*
X7955238Y-13976524D02*
X7898095Y-13976524D01*
X7898095Y-13976524D02*
X7879048Y-13967000D01*
X7879048Y-13967000D02*
X7869524Y-13957476D01*
X8088572Y-13976524D02*
X8126667Y-13976524D01*
X8126667Y-13976524D02*
X8145714Y-13967000D01*
X8145714Y-13967000D02*
X8155238Y-13957476D01*
X8155238Y-13957476D02*
X8174286Y-13928905D01*
X8174286Y-13928905D02*
X8183810Y-13890809D01*
X8183810Y-13890809D02*
X8183810Y-13814619D01*
X8183810Y-13814619D02*
X8174286Y-13795571D01*
X8174286Y-13795571D02*
X8164762Y-13786048D01*
X8164762Y-13786048D02*
X8145714Y-13776524D01*
X8145714Y-13776524D02*
X8107619Y-13776524D01*
X8107619Y-13776524D02*
X8088572Y-13786048D01*
X8088572Y-13786048D02*
X8079048Y-13795571D01*
X8079048Y-13795571D02*
X8069524Y-13814619D01*
X8069524Y-13814619D02*
X8069524Y-13862238D01*
X8069524Y-13862238D02*
X8079048Y-13881286D01*
X8079048Y-13881286D02*
X8088572Y-13890809D01*
X8088572Y-13890809D02*
X8107619Y-13900333D01*
X8107619Y-13900333D02*
X8145714Y-13900333D01*
X8145714Y-13900333D02*
X8164762Y-13890809D01*
X8164762Y-13890809D02*
X8174286Y-13881286D01*
X8174286Y-13881286D02*
X8183810Y-13862238D01*
X8355238Y-13843190D02*
X8355238Y-13976524D01*
X8307619Y-13767000D02*
X8260000Y-13909857D01*
X8260000Y-13909857D02*
X8383810Y-13909857D01*
X8450476Y-13776524D02*
X8450476Y-13814619D01*
X8526667Y-13776524D02*
X8526667Y-13814619D01*
X8821905Y-14052714D02*
X8812381Y-14043190D01*
X8812381Y-14043190D02*
X8793334Y-14014619D01*
X8793334Y-14014619D02*
X8783810Y-13995571D01*
X8783810Y-13995571D02*
X8774286Y-13967000D01*
X8774286Y-13967000D02*
X8764762Y-13919381D01*
X8764762Y-13919381D02*
X8764762Y-13881286D01*
X8764762Y-13881286D02*
X8774286Y-13833667D01*
X8774286Y-13833667D02*
X8783810Y-13805095D01*
X8783810Y-13805095D02*
X8793334Y-13786048D01*
X8793334Y-13786048D02*
X8812381Y-13757476D01*
X8812381Y-13757476D02*
X8821905Y-13747952D01*
X9002857Y-13976524D02*
X8888572Y-13976524D01*
X8945715Y-13976524D02*
X8945715Y-13776524D01*
X8945715Y-13776524D02*
X8926667Y-13805095D01*
X8926667Y-13805095D02*
X8907619Y-13824143D01*
X8907619Y-13824143D02*
X8888572Y-13833667D01*
X9174286Y-13776524D02*
X9136191Y-13776524D01*
X9136191Y-13776524D02*
X9117143Y-13786048D01*
X9117143Y-13786048D02*
X9107619Y-13795571D01*
X9107619Y-13795571D02*
X9088572Y-13824143D01*
X9088572Y-13824143D02*
X9079048Y-13862238D01*
X9079048Y-13862238D02*
X9079048Y-13938428D01*
X9079048Y-13938428D02*
X9088572Y-13957476D01*
X9088572Y-13957476D02*
X9098096Y-13967000D01*
X9098096Y-13967000D02*
X9117143Y-13976524D01*
X9117143Y-13976524D02*
X9155238Y-13976524D01*
X9155238Y-13976524D02*
X9174286Y-13967000D01*
X9174286Y-13967000D02*
X9183810Y-13957476D01*
X9183810Y-13957476D02*
X9193334Y-13938428D01*
X9193334Y-13938428D02*
X9193334Y-13890809D01*
X9193334Y-13890809D02*
X9183810Y-13871762D01*
X9183810Y-13871762D02*
X9174286Y-13862238D01*
X9174286Y-13862238D02*
X9155238Y-13852714D01*
X9155238Y-13852714D02*
X9117143Y-13852714D01*
X9117143Y-13852714D02*
X9098096Y-13862238D01*
X9098096Y-13862238D02*
X9088572Y-13871762D01*
X9088572Y-13871762D02*
X9079048Y-13890809D01*
X9431429Y-13976524D02*
X9431429Y-13776524D01*
X9517143Y-13976524D02*
X9517143Y-13871762D01*
X9517143Y-13871762D02*
X9507619Y-13852714D01*
X9507619Y-13852714D02*
X9488572Y-13843190D01*
X9488572Y-13843190D02*
X9460000Y-13843190D01*
X9460000Y-13843190D02*
X9440953Y-13852714D01*
X9440953Y-13852714D02*
X9431429Y-13862238D01*
X9640953Y-13976524D02*
X9621905Y-13967000D01*
X9621905Y-13967000D02*
X9612381Y-13957476D01*
X9612381Y-13957476D02*
X9602858Y-13938428D01*
X9602858Y-13938428D02*
X9602858Y-13881286D01*
X9602858Y-13881286D02*
X9612381Y-13862238D01*
X9612381Y-13862238D02*
X9621905Y-13852714D01*
X9621905Y-13852714D02*
X9640953Y-13843190D01*
X9640953Y-13843190D02*
X9669524Y-13843190D01*
X9669524Y-13843190D02*
X9688572Y-13852714D01*
X9688572Y-13852714D02*
X9698096Y-13862238D01*
X9698096Y-13862238D02*
X9707619Y-13881286D01*
X9707619Y-13881286D02*
X9707619Y-13938428D01*
X9707619Y-13938428D02*
X9698096Y-13957476D01*
X9698096Y-13957476D02*
X9688572Y-13967000D01*
X9688572Y-13967000D02*
X9669524Y-13976524D01*
X9669524Y-13976524D02*
X9640953Y-13976524D01*
X9821905Y-13976524D02*
X9802858Y-13967000D01*
X9802858Y-13967000D02*
X9793334Y-13947952D01*
X9793334Y-13947952D02*
X9793334Y-13776524D01*
X9974286Y-13967000D02*
X9955239Y-13976524D01*
X9955239Y-13976524D02*
X9917143Y-13976524D01*
X9917143Y-13976524D02*
X9898096Y-13967000D01*
X9898096Y-13967000D02*
X9888572Y-13947952D01*
X9888572Y-13947952D02*
X9888572Y-13871762D01*
X9888572Y-13871762D02*
X9898096Y-13852714D01*
X9898096Y-13852714D02*
X9917143Y-13843190D01*
X9917143Y-13843190D02*
X9955239Y-13843190D01*
X9955239Y-13843190D02*
X9974286Y-13852714D01*
X9974286Y-13852714D02*
X9983810Y-13871762D01*
X9983810Y-13871762D02*
X9983810Y-13890809D01*
X9983810Y-13890809D02*
X9888572Y-13909857D01*
X10060000Y-13967000D02*
X10079048Y-13976524D01*
X10079048Y-13976524D02*
X10117143Y-13976524D01*
X10117143Y-13976524D02*
X10136191Y-13967000D01*
X10136191Y-13967000D02*
X10145715Y-13947952D01*
X10145715Y-13947952D02*
X10145715Y-13938428D01*
X10145715Y-13938428D02*
X10136191Y-13919381D01*
X10136191Y-13919381D02*
X10117143Y-13909857D01*
X10117143Y-13909857D02*
X10088572Y-13909857D01*
X10088572Y-13909857D02*
X10069524Y-13900333D01*
X10069524Y-13900333D02*
X10060000Y-13881286D01*
X10060000Y-13881286D02*
X10060000Y-13871762D01*
X10060000Y-13871762D02*
X10069524Y-13852714D01*
X10069524Y-13852714D02*
X10088572Y-13843190D01*
X10088572Y-13843190D02*
X10117143Y-13843190D01*
X10117143Y-13843190D02*
X10136191Y-13852714D01*
X10212381Y-14052714D02*
X10221905Y-14043190D01*
X10221905Y-14043190D02*
X10240953Y-14014619D01*
X10240953Y-14014619D02*
X10250477Y-13995571D01*
X10250477Y-13995571D02*
X10260000Y-13967000D01*
X10260000Y-13967000D02*
X10269524Y-13919381D01*
X10269524Y-13919381D02*
X10269524Y-13881286D01*
X10269524Y-13881286D02*
X10260000Y-13833667D01*
X10260000Y-13833667D02*
X10250477Y-13805095D01*
X10250477Y-13805095D02*
X10240953Y-13786048D01*
X10240953Y-13786048D02*
X10221905Y-13757476D01*
X10221905Y-13757476D02*
X10212381Y-13747952D01*
D18*
X5140000Y-14088000D02*
X5260000Y-14208000D01*
X5260000Y-14088000D02*
X5140000Y-14208000D01*
X5242427Y-14190427D02*
X5242427Y-14105573D01*
X5157573Y-14105573D01*
X5157573Y-14190427D01*
X5242427Y-14190427D01*
D10*
X5612381Y-14240524D02*
X5498095Y-14240524D01*
X5555238Y-14240524D02*
X5555238Y-14040524D01*
X5555238Y-14040524D02*
X5536190Y-14069095D01*
X5536190Y-14069095D02*
X5517143Y-14088143D01*
X5517143Y-14088143D02*
X5498095Y-14097667D01*
X5698095Y-14221476D02*
X5707619Y-14231000D01*
X5707619Y-14231000D02*
X5698095Y-14240524D01*
X5698095Y-14240524D02*
X5688571Y-14231000D01*
X5688571Y-14231000D02*
X5698095Y-14221476D01*
X5698095Y-14221476D02*
X5698095Y-14240524D01*
X5783809Y-14059571D02*
X5793333Y-14050048D01*
X5793333Y-14050048D02*
X5812381Y-14040524D01*
X5812381Y-14040524D02*
X5860000Y-14040524D01*
X5860000Y-14040524D02*
X5879048Y-14050048D01*
X5879048Y-14050048D02*
X5888571Y-14059571D01*
X5888571Y-14059571D02*
X5898095Y-14078619D01*
X5898095Y-14078619D02*
X5898095Y-14097667D01*
X5898095Y-14097667D02*
X5888571Y-14126238D01*
X5888571Y-14126238D02*
X5774286Y-14240524D01*
X5774286Y-14240524D02*
X5898095Y-14240524D01*
X6021905Y-14040524D02*
X6040952Y-14040524D01*
X6040952Y-14040524D02*
X6060000Y-14050048D01*
X6060000Y-14050048D02*
X6069524Y-14059571D01*
X6069524Y-14059571D02*
X6079048Y-14078619D01*
X6079048Y-14078619D02*
X6088571Y-14116714D01*
X6088571Y-14116714D02*
X6088571Y-14164333D01*
X6088571Y-14164333D02*
X6079048Y-14202428D01*
X6079048Y-14202428D02*
X6069524Y-14221476D01*
X6069524Y-14221476D02*
X6060000Y-14231000D01*
X6060000Y-14231000D02*
X6040952Y-14240524D01*
X6040952Y-14240524D02*
X6021905Y-14240524D01*
X6021905Y-14240524D02*
X6002857Y-14231000D01*
X6002857Y-14231000D02*
X5993333Y-14221476D01*
X5993333Y-14221476D02*
X5983809Y-14202428D01*
X5983809Y-14202428D02*
X5974286Y-14164333D01*
X5974286Y-14164333D02*
X5974286Y-14116714D01*
X5974286Y-14116714D02*
X5983809Y-14078619D01*
X5983809Y-14078619D02*
X5993333Y-14059571D01*
X5993333Y-14059571D02*
X6002857Y-14050048D01*
X6002857Y-14050048D02*
X6021905Y-14040524D01*
X6212381Y-14040524D02*
X6231429Y-14040524D01*
X6231429Y-14040524D02*
X6250476Y-14050048D01*
X6250476Y-14050048D02*
X6260000Y-14059571D01*
X6260000Y-14059571D02*
X6269524Y-14078619D01*
X6269524Y-14078619D02*
X6279048Y-14116714D01*
X6279048Y-14116714D02*
X6279048Y-14164333D01*
X6279048Y-14164333D02*
X6269524Y-14202428D01*
X6269524Y-14202428D02*
X6260000Y-14221476D01*
X6260000Y-14221476D02*
X6250476Y-14231000D01*
X6250476Y-14231000D02*
X6231429Y-14240524D01*
X6231429Y-14240524D02*
X6212381Y-14240524D01*
X6212381Y-14240524D02*
X6193333Y-14231000D01*
X6193333Y-14231000D02*
X6183809Y-14221476D01*
X6183809Y-14221476D02*
X6174286Y-14202428D01*
X6174286Y-14202428D02*
X6164762Y-14164333D01*
X6164762Y-14164333D02*
X6164762Y-14116714D01*
X6164762Y-14116714D02*
X6174286Y-14078619D01*
X6174286Y-14078619D02*
X6183809Y-14059571D01*
X6183809Y-14059571D02*
X6193333Y-14050048D01*
X6193333Y-14050048D02*
X6212381Y-14040524D01*
X6364762Y-14240524D02*
X6364762Y-14107190D01*
X6364762Y-14126238D02*
X6374286Y-14116714D01*
X6374286Y-14116714D02*
X6393333Y-14107190D01*
X6393333Y-14107190D02*
X6421905Y-14107190D01*
X6421905Y-14107190D02*
X6440952Y-14116714D01*
X6440952Y-14116714D02*
X6450476Y-14135762D01*
X6450476Y-14135762D02*
X6450476Y-14240524D01*
X6450476Y-14135762D02*
X6460000Y-14116714D01*
X6460000Y-14116714D02*
X6479048Y-14107190D01*
X6479048Y-14107190D02*
X6507619Y-14107190D01*
X6507619Y-14107190D02*
X6526667Y-14116714D01*
X6526667Y-14116714D02*
X6536190Y-14135762D01*
X6536190Y-14135762D02*
X6536190Y-14240524D01*
X6631429Y-14240524D02*
X6631429Y-14107190D01*
X6631429Y-14126238D02*
X6640952Y-14116714D01*
X6640952Y-14116714D02*
X6660000Y-14107190D01*
X6660000Y-14107190D02*
X6688571Y-14107190D01*
X6688571Y-14107190D02*
X6707619Y-14116714D01*
X6707619Y-14116714D02*
X6717143Y-14135762D01*
X6717143Y-14135762D02*
X6717143Y-14240524D01*
X6717143Y-14135762D02*
X6726667Y-14116714D01*
X6726667Y-14116714D02*
X6745714Y-14107190D01*
X6745714Y-14107190D02*
X6774286Y-14107190D01*
X6774286Y-14107190D02*
X6793333Y-14116714D01*
X6793333Y-14116714D02*
X6802857Y-14135762D01*
X6802857Y-14135762D02*
X6802857Y-14240524D01*
X7193333Y-14031000D02*
X7021905Y-14288143D01*
X7450476Y-14040524D02*
X7469524Y-14040524D01*
X7469524Y-14040524D02*
X7488572Y-14050048D01*
X7488572Y-14050048D02*
X7498095Y-14059571D01*
X7498095Y-14059571D02*
X7507619Y-14078619D01*
X7507619Y-14078619D02*
X7517143Y-14116714D01*
X7517143Y-14116714D02*
X7517143Y-14164333D01*
X7517143Y-14164333D02*
X7507619Y-14202428D01*
X7507619Y-14202428D02*
X7498095Y-14221476D01*
X7498095Y-14221476D02*
X7488572Y-14231000D01*
X7488572Y-14231000D02*
X7469524Y-14240524D01*
X7469524Y-14240524D02*
X7450476Y-14240524D01*
X7450476Y-14240524D02*
X7431429Y-14231000D01*
X7431429Y-14231000D02*
X7421905Y-14221476D01*
X7421905Y-14221476D02*
X7412381Y-14202428D01*
X7412381Y-14202428D02*
X7402857Y-14164333D01*
X7402857Y-14164333D02*
X7402857Y-14116714D01*
X7402857Y-14116714D02*
X7412381Y-14078619D01*
X7412381Y-14078619D02*
X7421905Y-14059571D01*
X7421905Y-14059571D02*
X7431429Y-14050048D01*
X7431429Y-14050048D02*
X7450476Y-14040524D01*
X7602857Y-14221476D02*
X7612381Y-14231000D01*
X7612381Y-14231000D02*
X7602857Y-14240524D01*
X7602857Y-14240524D02*
X7593333Y-14231000D01*
X7593333Y-14231000D02*
X7602857Y-14221476D01*
X7602857Y-14221476D02*
X7602857Y-14240524D01*
X7736191Y-14040524D02*
X7755238Y-14040524D01*
X7755238Y-14040524D02*
X7774286Y-14050048D01*
X7774286Y-14050048D02*
X7783810Y-14059571D01*
X7783810Y-14059571D02*
X7793333Y-14078619D01*
X7793333Y-14078619D02*
X7802857Y-14116714D01*
X7802857Y-14116714D02*
X7802857Y-14164333D01*
X7802857Y-14164333D02*
X7793333Y-14202428D01*
X7793333Y-14202428D02*
X7783810Y-14221476D01*
X7783810Y-14221476D02*
X7774286Y-14231000D01*
X7774286Y-14231000D02*
X7755238Y-14240524D01*
X7755238Y-14240524D02*
X7736191Y-14240524D01*
X7736191Y-14240524D02*
X7717143Y-14231000D01*
X7717143Y-14231000D02*
X7707619Y-14221476D01*
X7707619Y-14221476D02*
X7698095Y-14202428D01*
X7698095Y-14202428D02*
X7688572Y-14164333D01*
X7688572Y-14164333D02*
X7688572Y-14116714D01*
X7688572Y-14116714D02*
X7698095Y-14078619D01*
X7698095Y-14078619D02*
X7707619Y-14059571D01*
X7707619Y-14059571D02*
X7717143Y-14050048D01*
X7717143Y-14050048D02*
X7736191Y-14040524D01*
X7974286Y-14107190D02*
X7974286Y-14240524D01*
X7926667Y-14031000D02*
X7879048Y-14173857D01*
X7879048Y-14173857D02*
X8002857Y-14173857D01*
X8060000Y-14040524D02*
X8193333Y-14040524D01*
X8193333Y-14040524D02*
X8107619Y-14240524D01*
X8260000Y-14059571D02*
X8269524Y-14050048D01*
X8269524Y-14050048D02*
X8288572Y-14040524D01*
X8288572Y-14040524D02*
X8336191Y-14040524D01*
X8336191Y-14040524D02*
X8355238Y-14050048D01*
X8355238Y-14050048D02*
X8364762Y-14059571D01*
X8364762Y-14059571D02*
X8374286Y-14078619D01*
X8374286Y-14078619D02*
X8374286Y-14097667D01*
X8374286Y-14097667D02*
X8364762Y-14126238D01*
X8364762Y-14126238D02*
X8250476Y-14240524D01*
X8250476Y-14240524D02*
X8374286Y-14240524D01*
X8450476Y-14040524D02*
X8450476Y-14078619D01*
X8526667Y-14040524D02*
X8526667Y-14078619D01*
X8821905Y-14316714D02*
X8812381Y-14307190D01*
X8812381Y-14307190D02*
X8793334Y-14278619D01*
X8793334Y-14278619D02*
X8783810Y-14259571D01*
X8783810Y-14259571D02*
X8774286Y-14231000D01*
X8774286Y-14231000D02*
X8764762Y-14183381D01*
X8764762Y-14183381D02*
X8764762Y-14145286D01*
X8764762Y-14145286D02*
X8774286Y-14097667D01*
X8774286Y-14097667D02*
X8783810Y-14069095D01*
X8783810Y-14069095D02*
X8793334Y-14050048D01*
X8793334Y-14050048D02*
X8812381Y-14021476D01*
X8812381Y-14021476D02*
X8821905Y-14011952D01*
X8888572Y-14059571D02*
X8898096Y-14050048D01*
X8898096Y-14050048D02*
X8917143Y-14040524D01*
X8917143Y-14040524D02*
X8964762Y-14040524D01*
X8964762Y-14040524D02*
X8983810Y-14050048D01*
X8983810Y-14050048D02*
X8993334Y-14059571D01*
X8993334Y-14059571D02*
X9002857Y-14078619D01*
X9002857Y-14078619D02*
X9002857Y-14097667D01*
X9002857Y-14097667D02*
X8993334Y-14126238D01*
X8993334Y-14126238D02*
X8879048Y-14240524D01*
X8879048Y-14240524D02*
X9002857Y-14240524D01*
X9240953Y-14240524D02*
X9240953Y-14040524D01*
X9326667Y-14240524D02*
X9326667Y-14135762D01*
X9326667Y-14135762D02*
X9317143Y-14116714D01*
X9317143Y-14116714D02*
X9298096Y-14107190D01*
X9298096Y-14107190D02*
X9269524Y-14107190D01*
X9269524Y-14107190D02*
X9250477Y-14116714D01*
X9250477Y-14116714D02*
X9240953Y-14126238D01*
X9450477Y-14240524D02*
X9431429Y-14231000D01*
X9431429Y-14231000D02*
X9421905Y-14221476D01*
X9421905Y-14221476D02*
X9412381Y-14202428D01*
X9412381Y-14202428D02*
X9412381Y-14145286D01*
X9412381Y-14145286D02*
X9421905Y-14126238D01*
X9421905Y-14126238D02*
X9431429Y-14116714D01*
X9431429Y-14116714D02*
X9450477Y-14107190D01*
X9450477Y-14107190D02*
X9479048Y-14107190D01*
X9479048Y-14107190D02*
X9498096Y-14116714D01*
X9498096Y-14116714D02*
X9507619Y-14126238D01*
X9507619Y-14126238D02*
X9517143Y-14145286D01*
X9517143Y-14145286D02*
X9517143Y-14202428D01*
X9517143Y-14202428D02*
X9507619Y-14221476D01*
X9507619Y-14221476D02*
X9498096Y-14231000D01*
X9498096Y-14231000D02*
X9479048Y-14240524D01*
X9479048Y-14240524D02*
X9450477Y-14240524D01*
X9631429Y-14240524D02*
X9612381Y-14231000D01*
X9612381Y-14231000D02*
X9602858Y-14211952D01*
X9602858Y-14211952D02*
X9602858Y-14040524D01*
X9783810Y-14231000D02*
X9764762Y-14240524D01*
X9764762Y-14240524D02*
X9726667Y-14240524D01*
X9726667Y-14240524D02*
X9707619Y-14231000D01*
X9707619Y-14231000D02*
X9698096Y-14211952D01*
X9698096Y-14211952D02*
X9698096Y-14135762D01*
X9698096Y-14135762D02*
X9707619Y-14116714D01*
X9707619Y-14116714D02*
X9726667Y-14107190D01*
X9726667Y-14107190D02*
X9764762Y-14107190D01*
X9764762Y-14107190D02*
X9783810Y-14116714D01*
X9783810Y-14116714D02*
X9793334Y-14135762D01*
X9793334Y-14135762D02*
X9793334Y-14154809D01*
X9793334Y-14154809D02*
X9698096Y-14173857D01*
X9869524Y-14231000D02*
X9888572Y-14240524D01*
X9888572Y-14240524D02*
X9926667Y-14240524D01*
X9926667Y-14240524D02*
X9945715Y-14231000D01*
X9945715Y-14231000D02*
X9955239Y-14211952D01*
X9955239Y-14211952D02*
X9955239Y-14202428D01*
X9955239Y-14202428D02*
X9945715Y-14183381D01*
X9945715Y-14183381D02*
X9926667Y-14173857D01*
X9926667Y-14173857D02*
X9898096Y-14173857D01*
X9898096Y-14173857D02*
X9879048Y-14164333D01*
X9879048Y-14164333D02*
X9869524Y-14145286D01*
X9869524Y-14145286D02*
X9869524Y-14135762D01*
X9869524Y-14135762D02*
X9879048Y-14116714D01*
X9879048Y-14116714D02*
X9898096Y-14107190D01*
X9898096Y-14107190D02*
X9926667Y-14107190D01*
X9926667Y-14107190D02*
X9945715Y-14116714D01*
X10021905Y-14316714D02*
X10031429Y-14307190D01*
X10031429Y-14307190D02*
X10050477Y-14278619D01*
X10050477Y-14278619D02*
X10060000Y-14259571D01*
X10060000Y-14259571D02*
X10069524Y-14231000D01*
X10069524Y-14231000D02*
X10079048Y-14183381D01*
X10079048Y-14183381D02*
X10079048Y-14145286D01*
X10079048Y-14145286D02*
X10069524Y-14097667D01*
X10069524Y-14097667D02*
X10060000Y-14069095D01*
X10060000Y-14069095D02*
X10050477Y-14050048D01*
X10050477Y-14050048D02*
X10031429Y-14021476D01*
X10031429Y-14021476D02*
X10021905Y-14011952D01*
M02*
