%TF.GenerationSoftware,KiCad,Pcbnew,7.0.2-6a45011f42~172~ubuntu22.04.1*%
%TF.CreationDate,2023-04-30T08:48:56-06:00*%
%TF.ProjectId,fancy-node,66616e63-792d-46e6-9f64-652e6b696361,rev?*%
%TF.SameCoordinates,Original*%
%TF.FileFunction,Copper,L2,Inr*%
%TF.FilePolarity,Positive*%
%FSLAX46Y46*%
G04 Gerber Fmt 4.6, Leading zero omitted, Abs format (unit mm)*
G04 Created by KiCad (PCBNEW 7.0.2-6a45011f42~172~ubuntu22.04.1) date 2023-04-30 08:48:56*
%MOMM*%
%LPD*%
G01*
G04 APERTURE LIST*
%TA.AperFunction,ComponentPad*%
%ADD10R,1.700000X1.700000*%
%TD*%
%TA.AperFunction,ComponentPad*%
%ADD11O,1.700000X1.700000*%
%TD*%
%TA.AperFunction,ComponentPad*%
%ADD12C,1.408000*%
%TD*%
%TA.AperFunction,ComponentPad*%
%ADD13C,1.800000*%
%TD*%
%TA.AperFunction,ComponentPad*%
%ADD14R,1.800000X1.800000*%
%TD*%
%TA.AperFunction,ComponentPad*%
%ADD15R,1.000000X1.000000*%
%TD*%
%TA.AperFunction,ComponentPad*%
%ADD16C,1.000000*%
%TD*%
%TA.AperFunction,ComponentPad*%
%ADD17C,1.700000*%
%TD*%
%TA.AperFunction,ViaPad*%
%ADD18C,0.600000*%
%TD*%
%TA.AperFunction,ViaPad*%
%ADD19C,1.000000*%
%TD*%
%TA.AperFunction,ViaPad*%
%ADD20C,0.800000*%
%TD*%
G04 APERTURE END LIST*
D10*
%TO.N,GND*%
%TO.C,J2*%
X85080000Y-87900000D03*
D11*
%TO.N,VCC*%
X87620000Y-87900000D03*
%TO.N,+BATT*%
X90160000Y-87900000D03*
%TO.N,Net-(J2-Pin_4)*%
X92700000Y-87900000D03*
%TO.N,Net-(J2-Pin_5)*%
X95240000Y-87900000D03*
%TO.N,Net-(J2-Pin_6)*%
X97780000Y-87900000D03*
%TD*%
D12*
%TO.N,N/C*%
%TO.C,J1*%
X72550000Y-112400000D03*
X77550000Y-112400000D03*
D13*
X71550000Y-115100000D03*
X78550000Y-115100000D03*
%TD*%
D10*
%TO.N,VCC*%
%TO.C,J5*%
X81820000Y-114500000D03*
D11*
%TO.N,GND*%
X84360000Y-114500000D03*
%TO.N,/SWDIO*%
X86900000Y-114500000D03*
%TO.N,/BOOT0*%
X89440000Y-114500000D03*
%TD*%
D14*
%TO.N,unconnected-(SW4-A-Pad1)*%
%TO.C,SW4*%
X59750000Y-112862500D03*
D13*
%TO.N,/BATT_DIRECT*%
X62300000Y-112862500D03*
%TO.N,+BATT*%
X64850000Y-112862500D03*
%TD*%
D10*
%TO.N,GND*%
%TO.C,J3*%
X62175000Y-88395000D03*
D11*
%TO.N,/EXTERNAL_LED*%
X62175000Y-90935000D03*
%TO.N,+BATT*%
X62175000Y-93475000D03*
%TD*%
D15*
%TO.N,GND*%
%TO.C,J6*%
X54200000Y-99900000D03*
D16*
%TO.N,Net-(J4-Pin_1)*%
X54200000Y-98650000D03*
%TD*%
D10*
%TO.N,Net-(J4-Pin_1)*%
%TO.C,J4*%
X55000000Y-108740000D03*
D17*
%TO.N,GND*%
X55000000Y-106200000D03*
%TO.N,unconnected-(J4-Pin_3-Pad3)*%
X55000000Y-103660000D03*
%TD*%
D18*
%TO.N,/~{DTR}*%
X72300000Y-107200000D03*
X75398234Y-107049000D03*
%TO.N,GND*%
X70200000Y-96000000D03*
X71082500Y-89817500D03*
D19*
X94000000Y-112700000D03*
X91400000Y-102600000D03*
D18*
X73813336Y-91144907D03*
X66900000Y-88800000D03*
X71458866Y-99710378D03*
X92700000Y-95000000D03*
X65200000Y-95700000D03*
D19*
X76700955Y-111070531D03*
X88000000Y-104000000D03*
D18*
X80100000Y-111000000D03*
D19*
X94000000Y-97700000D03*
X89200000Y-112400000D03*
X94000000Y-115700000D03*
X63000000Y-102000000D03*
X88100000Y-106400000D03*
D18*
X83244570Y-110971030D03*
X84900000Y-100700000D03*
D19*
X94000000Y-100700000D03*
X94000000Y-106700000D03*
D18*
X68300000Y-99600000D03*
D19*
X94000000Y-103700000D03*
D18*
X82200000Y-89000000D03*
D19*
X89500000Y-95800000D03*
D20*
X86700000Y-94400000D03*
D19*
X68400000Y-102800000D03*
D18*
X64200000Y-99000000D03*
D19*
X94000000Y-109700000D03*
D18*
X69500000Y-111200000D03*
D19*
%TO.N,VCC*%
X68200000Y-91900000D03*
D20*
X85845592Y-91207779D03*
X69882602Y-98570355D03*
X67400000Y-99000000D03*
D18*
X73800000Y-106000000D03*
D20*
X61600000Y-99700000D03*
D19*
%TO.N,+BATT*%
X71000000Y-88600000D03*
X64200000Y-86700000D03*
%TO.N,/BATT_DIRECT*%
X84995899Y-102948980D03*
X54900000Y-112300000D03*
X61400000Y-104400000D03*
X58300000Y-111512500D03*
D18*
%TO.N,/VBATT_DIV*%
X72620403Y-106475500D03*
X67300000Y-106400000D03*
%TO.N,VBUS*%
X78300000Y-113554000D03*
X85700000Y-112800000D03*
X79686181Y-112786179D03*
%TO.N,Net-(U2-NRST)*%
X74900625Y-96731445D03*
X83300000Y-96700000D03*
%TO.N,Net-(D1-A)*%
X82100000Y-100700000D03*
X78100000Y-100300000D03*
%TO.N,/USB+*%
X70400000Y-111200000D03*
X73730184Y-111174541D03*
X73127708Y-110372292D03*
%TO.N,/USB-*%
X74000000Y-110500000D03*
X68400000Y-109000000D03*
X74501441Y-111470247D03*
%TO.N,/EXTERNAL_LED*%
X68600000Y-89800000D03*
%TO.N,/AUX0*%
X76600000Y-94200000D03*
X82300000Y-93875500D03*
%TO.N,/AUX1*%
X83911399Y-91584492D03*
X76100000Y-91800000D03*
%TO.N,/AUX2*%
X84900000Y-91069500D03*
X74992270Y-91524460D03*
%TO.N,/SWDIO*%
X80851849Y-95105923D03*
X86275500Y-96348430D03*
%TO.N,/BOOT0*%
X86950498Y-95500000D03*
X80600000Y-94400000D03*
X79450000Y-113550000D03*
D20*
%TO.N,Net-(J2-Pin_5)*%
X84800000Y-89400000D03*
D18*
%TO.N,Net-(U2-PB1)*%
X71800000Y-95200000D03*
X78500000Y-95300000D03*
X71900000Y-92000000D03*
X78400000Y-90200000D03*
%TO.N,/~{STDBY}*%
X77320661Y-102805918D03*
X83184948Y-103103735D03*
%TO.N,/~{CHRG}*%
X81997428Y-103323088D03*
X79000000Y-103323088D03*
%TO.N,Net-(U2-PB2)*%
X79100000Y-94600000D03*
X69900000Y-94600000D03*
%TO.N,/USART_RX*%
X77383394Y-104827600D03*
X75275234Y-105980296D03*
%TO.N,/USART_TX*%
X74548648Y-106164218D03*
X77238000Y-105700000D03*
%TO.N,Net-(U2-PA8)*%
X80700000Y-98700000D03*
X85700000Y-98900000D03*
%TO.N,/NSS*%
X76100000Y-100300000D03*
%TO.N,/SCK*%
X76900000Y-100100000D03*
%TO.N,/MISO*%
X76600000Y-102600000D03*
%TO.N,/MOSI*%
X77700000Y-98400000D03*
%TO.N,/DIO0*%
X84200000Y-99300000D03*
%TO.N,/INTERNAL_LED*%
X77770878Y-91893501D03*
X82864299Y-91846352D03*
%TO.N,Net-(R3-Pad2)*%
X65400000Y-92000000D03*
X70700000Y-91800000D03*
D19*
%TO.N,Net-(JP2-A)*%
X90900000Y-90200000D03*
%TD*%
%TA.AperFunction,Conductor*%
%TO.N,GND*%
G36*
X63448775Y-85820185D02*
G01*
X63494530Y-85872989D01*
X63504474Y-85942147D01*
X63477590Y-86003162D01*
X63431194Y-86059696D01*
X63364089Y-86141463D01*
X63271185Y-86315273D01*
X63213976Y-86503866D01*
X63194659Y-86700000D01*
X63215173Y-86908286D01*
X63211223Y-86908675D01*
X63211632Y-86956295D01*
X63174364Y-87015396D01*
X63111060Y-87044966D01*
X63079118Y-87045675D01*
X63076131Y-87045354D01*
X63069518Y-87045000D01*
X62425000Y-87045000D01*
X62425000Y-87959498D01*
X62317315Y-87910320D01*
X62210763Y-87895000D01*
X62139237Y-87895000D01*
X62032685Y-87910320D01*
X61924999Y-87959498D01*
X61925000Y-87045000D01*
X61280482Y-87045000D01*
X61273867Y-87045354D01*
X61217628Y-87051400D01*
X61082910Y-87101647D01*
X60967811Y-87187811D01*
X60881647Y-87302910D01*
X60831400Y-87437628D01*
X60825354Y-87493867D01*
X60825000Y-87500481D01*
X60825000Y-88145000D01*
X61741314Y-88145000D01*
X61715507Y-88185156D01*
X61675000Y-88323111D01*
X61675000Y-88466889D01*
X61715507Y-88604844D01*
X61741314Y-88645000D01*
X60825000Y-88645000D01*
X60825000Y-89289518D01*
X60825354Y-89296132D01*
X60831400Y-89352371D01*
X60881647Y-89487089D01*
X60967811Y-89602188D01*
X61082911Y-89688352D01*
X61214471Y-89737422D01*
X61270404Y-89779294D01*
X61294821Y-89844758D01*
X61279969Y-89913031D01*
X61258819Y-89941285D01*
X61136503Y-90063601D01*
X61000965Y-90257170D01*
X60901097Y-90471336D01*
X60839936Y-90699592D01*
X60819340Y-90935000D01*
X60839936Y-91170407D01*
X60874262Y-91298514D01*
X60901097Y-91398663D01*
X61000965Y-91612830D01*
X61136505Y-91806401D01*
X61303599Y-91973495D01*
X61489160Y-92103426D01*
X61532783Y-92158002D01*
X61539976Y-92227501D01*
X61508454Y-92289855D01*
X61489158Y-92306575D01*
X61332801Y-92416058D01*
X61303595Y-92436508D01*
X61136505Y-92603598D01*
X61000965Y-92797170D01*
X60901097Y-93011336D01*
X60839936Y-93239592D01*
X60819340Y-93474999D01*
X60839936Y-93710407D01*
X60877072Y-93849001D01*
X60901097Y-93938663D01*
X61000965Y-94152830D01*
X61136505Y-94346401D01*
X61303599Y-94513495D01*
X61497170Y-94649035D01*
X61711337Y-94748903D01*
X61939592Y-94810062D01*
X61939592Y-94810063D01*
X62174999Y-94830659D01*
X62174999Y-94830658D01*
X62175000Y-94830659D01*
X62410408Y-94810063D01*
X62638663Y-94748903D01*
X62852830Y-94649035D01*
X62922859Y-94600000D01*
X69094434Y-94600000D01*
X69114631Y-94779251D01*
X69114631Y-94779253D01*
X69114632Y-94779255D01*
X69174211Y-94949522D01*
X69218965Y-95020748D01*
X69270185Y-95102264D01*
X69397735Y-95229814D01*
X69397737Y-95229815D01*
X69397738Y-95229816D01*
X69550478Y-95325789D01*
X69720745Y-95385368D01*
X69855186Y-95400515D01*
X69899999Y-95405565D01*
X69899999Y-95405564D01*
X69900000Y-95405565D01*
X70079255Y-95385368D01*
X70249522Y-95325789D01*
X70402262Y-95229816D01*
X70432078Y-95200000D01*
X70994434Y-95200000D01*
X71014631Y-95379251D01*
X71014631Y-95379253D01*
X71014632Y-95379255D01*
X71074211Y-95549522D01*
X71111073Y-95608187D01*
X71170185Y-95702264D01*
X71297735Y-95829814D01*
X71297737Y-95829815D01*
X71297738Y-95829816D01*
X71450478Y-95925789D01*
X71620745Y-95985368D01*
X71800000Y-96005565D01*
X71979255Y-95985368D01*
X72149522Y-95925789D01*
X72302262Y-95829816D01*
X72429816Y-95702262D01*
X72525789Y-95549522D01*
X72585368Y-95379255D01*
X72594298Y-95299999D01*
X77694434Y-95299999D01*
X77714631Y-95479251D01*
X77714631Y-95479253D01*
X77714632Y-95479255D01*
X77774211Y-95649522D01*
X77817625Y-95718615D01*
X77870185Y-95802264D01*
X77997735Y-95929814D01*
X77997737Y-95929815D01*
X77997738Y-95929816D01*
X78150478Y-96025789D01*
X78320745Y-96085368D01*
X78500000Y-96105565D01*
X78679255Y-96085368D01*
X78849522Y-96025789D01*
X79002262Y-95929816D01*
X79129816Y-95802262D01*
X79225789Y-95649522D01*
X79285368Y-95479255D01*
X79287907Y-95456711D01*
X79314971Y-95392301D01*
X79370172Y-95353554D01*
X79449522Y-95325789D01*
X79602262Y-95229816D01*
X79729816Y-95102262D01*
X79817019Y-94963478D01*
X79869352Y-94917189D01*
X79938406Y-94906540D01*
X80002254Y-94934915D01*
X80009699Y-94941777D01*
X80016981Y-94949060D01*
X80050462Y-95010385D01*
X80052514Y-95050618D01*
X80046283Y-95105921D01*
X80066480Y-95285174D01*
X80066480Y-95285176D01*
X80066481Y-95285178D01*
X80126060Y-95455445D01*
X80141021Y-95479255D01*
X80222034Y-95608187D01*
X80349584Y-95735737D01*
X80349586Y-95735738D01*
X80349587Y-95735739D01*
X80502327Y-95831712D01*
X80672594Y-95891291D01*
X80807035Y-95906438D01*
X80851848Y-95911488D01*
X80851848Y-95911487D01*
X80851849Y-95911488D01*
X81031104Y-95891291D01*
X81201371Y-95831712D01*
X81354111Y-95735739D01*
X81481665Y-95608185D01*
X81577638Y-95455445D01*
X81637217Y-95285178D01*
X81657414Y-95105923D01*
X81637217Y-94926668D01*
X81577638Y-94756401D01*
X81481665Y-94603661D01*
X81481664Y-94603659D01*
X81434873Y-94556869D01*
X81401387Y-94495546D01*
X81399333Y-94455305D01*
X81405565Y-94400000D01*
X81405521Y-94399614D01*
X81405766Y-94398217D01*
X81407130Y-94386115D01*
X81407870Y-94386198D01*
X81417573Y-94330794D01*
X81464919Y-94279412D01*
X81532529Y-94261785D01*
X81598936Y-94283508D01*
X81633734Y-94319754D01*
X81670183Y-94377762D01*
X81797735Y-94505314D01*
X81797737Y-94505315D01*
X81797738Y-94505316D01*
X81950478Y-94601289D01*
X82120745Y-94660868D01*
X82300000Y-94681065D01*
X82479255Y-94660868D01*
X82649522Y-94601289D01*
X82802262Y-94505316D01*
X82929816Y-94377762D01*
X83025789Y-94225022D01*
X83085368Y-94054755D01*
X83105565Y-93875500D01*
X83085368Y-93696245D01*
X83025789Y-93525978D01*
X82929816Y-93373238D01*
X82929815Y-93373237D01*
X82929814Y-93373235D01*
X82802264Y-93245685D01*
X82739867Y-93206479D01*
X82649522Y-93149711D01*
X82479255Y-93090132D01*
X82479253Y-93090131D01*
X82479251Y-93090131D01*
X82299999Y-93069934D01*
X82120748Y-93090131D01*
X82120745Y-93090131D01*
X82120745Y-93090132D01*
X81950478Y-93149711D01*
X81950476Y-93149711D01*
X81950476Y-93149712D01*
X81797735Y-93245685D01*
X81670185Y-93373235D01*
X81574212Y-93525976D01*
X81574211Y-93525978D01*
X81550257Y-93594434D01*
X81514631Y-93696248D01*
X81494434Y-93875500D01*
X81494478Y-93875889D01*
X81494232Y-93877288D01*
X81492870Y-93889384D01*
X81492128Y-93889300D01*
X81482423Y-93944711D01*
X81435074Y-93996090D01*
X81367464Y-94013714D01*
X81301058Y-93991987D01*
X81266264Y-93955744D01*
X81229815Y-93897736D01*
X81102264Y-93770185D01*
X81007129Y-93710408D01*
X80949522Y-93674211D01*
X80779255Y-93614632D01*
X80779253Y-93614631D01*
X80779251Y-93614631D01*
X80600000Y-93594434D01*
X80420748Y-93614631D01*
X80420745Y-93614631D01*
X80420745Y-93614632D01*
X80250478Y-93674211D01*
X80250476Y-93674211D01*
X80250476Y-93674212D01*
X80097735Y-93770185D01*
X79970184Y-93897736D01*
X79882982Y-94036519D01*
X79830647Y-94082810D01*
X79761594Y-94093458D01*
X79697745Y-94065083D01*
X79690307Y-94058228D01*
X79602264Y-93970185D01*
X79486965Y-93897738D01*
X79449522Y-93874211D01*
X79279255Y-93814632D01*
X79279253Y-93814631D01*
X79279251Y-93814631D01*
X79099999Y-93794434D01*
X78920748Y-93814631D01*
X78920745Y-93814631D01*
X78920745Y-93814632D01*
X78750478Y-93874211D01*
X78750476Y-93874211D01*
X78750476Y-93874212D01*
X78597735Y-93970185D01*
X78470185Y-94097735D01*
X78374212Y-94250476D01*
X78374211Y-94250478D01*
X78316772Y-94414631D01*
X78314631Y-94420749D01*
X78312091Y-94443290D01*
X78285023Y-94507704D01*
X78229826Y-94546445D01*
X78150480Y-94574209D01*
X77997735Y-94670185D01*
X77870185Y-94797735D01*
X77774811Y-94949523D01*
X77774211Y-94950478D01*
X77714632Y-95120745D01*
X77714631Y-95120748D01*
X77694434Y-95299999D01*
X72594298Y-95299999D01*
X72605565Y-95200000D01*
X72585368Y-95020745D01*
X72525789Y-94850478D01*
X72429816Y-94697738D01*
X72429815Y-94697737D01*
X72429814Y-94697735D01*
X72302264Y-94570185D01*
X72154605Y-94477405D01*
X72149522Y-94474211D01*
X71979255Y-94414632D01*
X71979253Y-94414631D01*
X71979251Y-94414631D01*
X71800000Y-94394434D01*
X71620748Y-94414631D01*
X71620745Y-94414631D01*
X71620745Y-94414632D01*
X71450478Y-94474211D01*
X71450476Y-94474211D01*
X71450476Y-94474212D01*
X71297735Y-94570185D01*
X71170185Y-94697735D01*
X71086664Y-94830659D01*
X71074211Y-94850478D01*
X71019944Y-95005565D01*
X71014631Y-95020748D01*
X70994434Y-95200000D01*
X70432078Y-95200000D01*
X70529816Y-95102262D01*
X70625789Y-94949522D01*
X70685368Y-94779255D01*
X70705565Y-94600000D01*
X70685368Y-94420745D01*
X70625789Y-94250478D01*
X70594072Y-94200000D01*
X75794434Y-94200000D01*
X75814631Y-94379251D01*
X75814631Y-94379253D01*
X75814632Y-94379255D01*
X75874211Y-94549522D01*
X75908228Y-94603659D01*
X75970185Y-94702264D01*
X76097735Y-94829814D01*
X76097737Y-94829815D01*
X76097738Y-94829816D01*
X76250478Y-94925789D01*
X76420745Y-94985368D01*
X76600000Y-95005565D01*
X76779255Y-94985368D01*
X76949522Y-94925789D01*
X77102262Y-94829816D01*
X77229816Y-94702262D01*
X77325789Y-94549522D01*
X77385368Y-94379255D01*
X77405565Y-94200000D01*
X77385368Y-94020745D01*
X77325789Y-93850478D01*
X77229816Y-93697738D01*
X77229815Y-93697737D01*
X77229814Y-93697735D01*
X77102264Y-93570185D01*
X77031905Y-93525976D01*
X76949522Y-93474211D01*
X76779255Y-93414632D01*
X76779253Y-93414631D01*
X76779251Y-93414631D01*
X76600000Y-93394434D01*
X76420748Y-93414631D01*
X76420745Y-93414631D01*
X76420745Y-93414632D01*
X76250478Y-93474211D01*
X76250476Y-93474211D01*
X76250476Y-93474212D01*
X76097735Y-93570185D01*
X75970185Y-93697735D01*
X75889117Y-93826755D01*
X75874211Y-93850478D01*
X75837377Y-93955744D01*
X75814631Y-94020748D01*
X75794434Y-94200000D01*
X70594072Y-94200000D01*
X70529816Y-94097738D01*
X70529815Y-94097737D01*
X70529814Y-94097735D01*
X70402264Y-93970185D01*
X70286965Y-93897738D01*
X70249522Y-93874211D01*
X70079255Y-93814632D01*
X70079253Y-93814631D01*
X70079251Y-93814631D01*
X69899999Y-93794434D01*
X69720748Y-93814631D01*
X69720745Y-93814631D01*
X69720745Y-93814632D01*
X69550478Y-93874211D01*
X69550476Y-93874211D01*
X69550476Y-93874212D01*
X69397735Y-93970185D01*
X69270185Y-94097735D01*
X69174212Y-94250476D01*
X69174211Y-94250478D01*
X69129672Y-94377764D01*
X69114631Y-94420748D01*
X69094434Y-94600000D01*
X62922859Y-94600000D01*
X63046401Y-94513495D01*
X63213495Y-94346401D01*
X63349035Y-94152830D01*
X63448903Y-93938663D01*
X63510063Y-93710408D01*
X63530659Y-93475000D01*
X63510063Y-93239592D01*
X63448903Y-93011337D01*
X63349035Y-92797171D01*
X63213495Y-92603599D01*
X63046401Y-92436505D01*
X62860839Y-92306573D01*
X62817216Y-92251998D01*
X62810022Y-92182500D01*
X62841545Y-92120145D01*
X62860837Y-92103428D01*
X63008548Y-92000000D01*
X64594434Y-92000000D01*
X64614631Y-92179251D01*
X64614631Y-92179253D01*
X64614632Y-92179255D01*
X64674211Y-92349522D01*
X64716018Y-92416058D01*
X64770185Y-92502264D01*
X64897735Y-92629814D01*
X64897737Y-92629815D01*
X64897738Y-92629816D01*
X65050478Y-92725789D01*
X65220745Y-92785368D01*
X65400000Y-92805565D01*
X65579255Y-92785368D01*
X65749522Y-92725789D01*
X65902262Y-92629816D01*
X66029816Y-92502262D01*
X66125789Y-92349522D01*
X66185368Y-92179255D01*
X66205565Y-92000000D01*
X66194298Y-91900000D01*
X67194659Y-91900000D01*
X67213976Y-92096133D01*
X67271185Y-92284726D01*
X67327486Y-92390057D01*
X67364090Y-92458538D01*
X67489117Y-92610883D01*
X67641462Y-92735910D01*
X67815273Y-92828814D01*
X68003868Y-92886024D01*
X68200000Y-92905341D01*
X68396132Y-92886024D01*
X68584727Y-92828814D01*
X68758538Y-92735910D01*
X68910883Y-92610883D01*
X69035910Y-92458538D01*
X69128814Y-92284727D01*
X69186024Y-92096132D01*
X69205341Y-91900000D01*
X69195492Y-91800000D01*
X69894434Y-91800000D01*
X69914631Y-91979251D01*
X69914631Y-91979253D01*
X69914632Y-91979255D01*
X69974211Y-92149522D01*
X70014918Y-92214306D01*
X70070185Y-92302264D01*
X70197735Y-92429814D01*
X70197737Y-92429815D01*
X70197738Y-92429816D01*
X70350478Y-92525789D01*
X70520745Y-92585368D01*
X70655186Y-92600515D01*
X70699999Y-92605565D01*
X70699999Y-92605564D01*
X70700000Y-92605565D01*
X70879255Y-92585368D01*
X71049522Y-92525789D01*
X71115754Y-92484172D01*
X71182989Y-92465172D01*
X71249824Y-92485539D01*
X71269406Y-92501485D01*
X71397735Y-92629814D01*
X71397737Y-92629815D01*
X71397738Y-92629816D01*
X71550478Y-92725789D01*
X71720745Y-92785368D01*
X71900000Y-92805565D01*
X72079255Y-92785368D01*
X72249522Y-92725789D01*
X72402262Y-92629816D01*
X72529816Y-92502262D01*
X72625789Y-92349522D01*
X72685368Y-92179255D01*
X72705565Y-92000000D01*
X72685368Y-91820745D01*
X72625789Y-91650478D01*
X72546606Y-91524459D01*
X74186704Y-91524459D01*
X74206901Y-91703711D01*
X74206901Y-91703713D01*
X74206902Y-91703715D01*
X74266481Y-91873982D01*
X74297868Y-91923934D01*
X74362455Y-92026724D01*
X74490005Y-92154274D01*
X74490007Y-92154275D01*
X74490008Y-92154276D01*
X74642748Y-92250249D01*
X74813015Y-92309828D01*
X74941113Y-92324261D01*
X74992269Y-92330025D01*
X74992269Y-92330024D01*
X74992270Y-92330025D01*
X75171525Y-92309828D01*
X75326914Y-92255454D01*
X75396692Y-92251893D01*
X75457319Y-92286621D01*
X75467213Y-92299290D01*
X75470182Y-92302259D01*
X75470184Y-92302262D01*
X75597738Y-92429816D01*
X75750478Y-92525789D01*
X75920745Y-92585368D01*
X76100000Y-92605565D01*
X76279255Y-92585368D01*
X76449522Y-92525789D01*
X76602262Y-92429816D01*
X76729816Y-92302262D01*
X76808640Y-92176813D01*
X76860974Y-92130523D01*
X76930028Y-92119874D01*
X76993876Y-92148249D01*
X77030674Y-92201828D01*
X77045089Y-92243023D01*
X77087349Y-92310279D01*
X77141063Y-92395765D01*
X77268613Y-92523315D01*
X77268615Y-92523316D01*
X77268616Y-92523317D01*
X77421356Y-92619290D01*
X77591623Y-92678869D01*
X77726064Y-92694016D01*
X77770877Y-92699066D01*
X77770877Y-92699065D01*
X77770878Y-92699066D01*
X77950133Y-92678869D01*
X78120400Y-92619290D01*
X78273140Y-92523317D01*
X78400694Y-92395763D01*
X78496667Y-92243023D01*
X78556246Y-92072756D01*
X78576443Y-91893501D01*
X78575528Y-91885384D01*
X78556246Y-91714249D01*
X78556246Y-91714246D01*
X78496667Y-91543979D01*
X78400694Y-91391239D01*
X78400693Y-91391238D01*
X78400692Y-91391236D01*
X78273140Y-91263684D01*
X78204875Y-91220790D01*
X78158585Y-91168456D01*
X78147937Y-91099402D01*
X78176312Y-91035554D01*
X78234702Y-90997182D01*
X78284729Y-90992577D01*
X78400000Y-91005565D01*
X78579255Y-90985368D01*
X78749522Y-90925789D01*
X78902262Y-90829816D01*
X79029816Y-90702262D01*
X79125789Y-90549522D01*
X79185368Y-90379255D01*
X79205565Y-90200000D01*
X79185368Y-90020745D01*
X79125789Y-89850478D01*
X79029816Y-89697738D01*
X79029815Y-89697737D01*
X79029814Y-89697735D01*
X78902264Y-89570185D01*
X78778334Y-89492315D01*
X78749522Y-89474211D01*
X78579255Y-89414632D01*
X78579253Y-89414631D01*
X78579251Y-89414631D01*
X78400000Y-89394434D01*
X78220748Y-89414631D01*
X78220745Y-89414631D01*
X78220745Y-89414632D01*
X78050478Y-89474211D01*
X78050476Y-89474211D01*
X78050476Y-89474212D01*
X77897735Y-89570185D01*
X77770185Y-89697735D01*
X77677805Y-89844758D01*
X77674211Y-89850478D01*
X77652323Y-89913031D01*
X77614631Y-90020748D01*
X77594434Y-90200000D01*
X77614631Y-90379251D01*
X77614631Y-90379253D01*
X77614632Y-90379255D01*
X77674211Y-90549522D01*
X77685343Y-90567238D01*
X77770185Y-90702264D01*
X77897736Y-90829815D01*
X77966001Y-90872709D01*
X78012292Y-90925044D01*
X78022940Y-90994097D01*
X77994565Y-91057946D01*
X77936175Y-91096318D01*
X77886145Y-91100923D01*
X77770877Y-91087935D01*
X77591626Y-91108132D01*
X77591623Y-91108132D01*
X77591623Y-91108133D01*
X77421356Y-91167712D01*
X77421354Y-91167712D01*
X77421354Y-91167713D01*
X77268613Y-91263686D01*
X77141061Y-91391238D01*
X77062236Y-91516687D01*
X77009902Y-91562977D01*
X76940848Y-91573625D01*
X76877000Y-91545250D01*
X76840202Y-91491668D01*
X76825789Y-91450478D01*
X76729816Y-91297738D01*
X76729815Y-91297737D01*
X76729814Y-91297735D01*
X76602264Y-91170185D01*
X76471365Y-91087936D01*
X76449522Y-91074211D01*
X76279255Y-91014632D01*
X76279253Y-91014631D01*
X76279251Y-91014631D01*
X76100000Y-90994434D01*
X75920747Y-91014631D01*
X75765356Y-91069005D01*
X75695578Y-91072566D01*
X75634950Y-91037837D01*
X75625053Y-91025164D01*
X75494534Y-90894645D01*
X75391357Y-90829815D01*
X75341792Y-90798671D01*
X75171525Y-90739092D01*
X75171523Y-90739091D01*
X75171521Y-90739091D01*
X74992270Y-90718894D01*
X74813018Y-90739091D01*
X74813015Y-90739091D01*
X74813015Y-90739092D01*
X74642748Y-90798671D01*
X74642746Y-90798671D01*
X74642746Y-90798672D01*
X74490005Y-90894645D01*
X74362455Y-91022195D01*
X74269328Y-91170407D01*
X74266481Y-91174938D01*
X74217182Y-91315827D01*
X74206901Y-91345208D01*
X74186704Y-91524459D01*
X72546606Y-91524459D01*
X72529816Y-91497738D01*
X72529815Y-91497737D01*
X72529814Y-91497735D01*
X72402264Y-91370185D01*
X72286960Y-91297735D01*
X72249522Y-91274211D01*
X72079255Y-91214632D01*
X72079253Y-91214631D01*
X72079251Y-91214631D01*
X71900000Y-91194434D01*
X71720748Y-91214631D01*
X71720745Y-91214631D01*
X71720745Y-91214632D01*
X71550478Y-91274211D01*
X71550475Y-91274212D01*
X71550474Y-91274213D01*
X71484245Y-91315827D01*
X71417009Y-91334827D01*
X71350173Y-91314459D01*
X71330593Y-91298514D01*
X71202264Y-91170185D01*
X71071365Y-91087936D01*
X71049522Y-91074211D01*
X70879255Y-91014632D01*
X70879253Y-91014631D01*
X70879251Y-91014631D01*
X70699999Y-90994434D01*
X70520748Y-91014631D01*
X70520745Y-91014631D01*
X70520745Y-91014632D01*
X70350478Y-91074211D01*
X70350476Y-91074211D01*
X70350476Y-91074212D01*
X70197735Y-91170185D01*
X70070185Y-91297735D01*
X69974212Y-91450476D01*
X69974211Y-91450478D01*
X69948324Y-91524459D01*
X69914631Y-91620748D01*
X69894434Y-91800000D01*
X69195492Y-91800000D01*
X69186024Y-91703868D01*
X69128814Y-91515273D01*
X69035910Y-91341462D01*
X68910883Y-91189117D01*
X68758538Y-91064090D01*
X68649046Y-91005565D01*
X68584726Y-90971185D01*
X68396133Y-90913976D01*
X68298066Y-90904317D01*
X68200000Y-90894659D01*
X68199999Y-90894659D01*
X68003866Y-90913976D01*
X67815273Y-90971185D01*
X67641463Y-91064089D01*
X67489117Y-91189117D01*
X67364089Y-91341463D01*
X67271185Y-91515273D01*
X67213976Y-91703866D01*
X67194659Y-91900000D01*
X66194298Y-91900000D01*
X66185368Y-91820745D01*
X66125789Y-91650478D01*
X66029816Y-91497738D01*
X66029815Y-91497737D01*
X66029814Y-91497735D01*
X65902264Y-91370185D01*
X65786960Y-91297735D01*
X65749522Y-91274211D01*
X65579255Y-91214632D01*
X65579253Y-91214631D01*
X65579251Y-91214631D01*
X65400000Y-91194434D01*
X65220748Y-91214631D01*
X65220745Y-91214631D01*
X65220745Y-91214632D01*
X65050478Y-91274211D01*
X65050476Y-91274211D01*
X65050476Y-91274212D01*
X64897735Y-91370185D01*
X64770185Y-91497735D01*
X64674212Y-91650476D01*
X64674211Y-91650478D01*
X64652028Y-91713873D01*
X64614631Y-91820748D01*
X64594434Y-92000000D01*
X63008548Y-92000000D01*
X63046401Y-91973495D01*
X63213495Y-91806401D01*
X63349035Y-91612830D01*
X63448903Y-91398663D01*
X63510063Y-91170408D01*
X63530659Y-90935000D01*
X63510063Y-90699592D01*
X63448903Y-90471337D01*
X63349035Y-90257171D01*
X63213495Y-90063599D01*
X63091181Y-89941285D01*
X63057696Y-89879962D01*
X63062680Y-89810270D01*
X63070368Y-89800000D01*
X67794434Y-89800000D01*
X67814631Y-89979251D01*
X67814631Y-89979253D01*
X67814632Y-89979255D01*
X67874211Y-90149522D01*
X67911398Y-90208705D01*
X67970185Y-90302264D01*
X68097735Y-90429814D01*
X68097737Y-90429815D01*
X68097738Y-90429816D01*
X68250478Y-90525789D01*
X68420745Y-90585368D01*
X68600000Y-90605565D01*
X68779255Y-90585368D01*
X68949522Y-90525789D01*
X69102262Y-90429816D01*
X69229816Y-90302262D01*
X69325789Y-90149522D01*
X69385368Y-89979255D01*
X69405565Y-89800000D01*
X69385368Y-89620745D01*
X69325789Y-89450478D01*
X69229816Y-89297738D01*
X69229815Y-89297737D01*
X69229814Y-89297735D01*
X69102264Y-89170185D01*
X69024720Y-89121461D01*
X68949522Y-89074211D01*
X68779255Y-89014632D01*
X68779253Y-89014631D01*
X68779251Y-89014631D01*
X68600000Y-88994434D01*
X68420748Y-89014631D01*
X68420745Y-89014631D01*
X68420745Y-89014632D01*
X68250478Y-89074211D01*
X68250476Y-89074211D01*
X68250476Y-89074212D01*
X68097735Y-89170185D01*
X67970185Y-89297735D01*
X67874212Y-89450476D01*
X67874211Y-89450478D01*
X67820022Y-89605341D01*
X67814631Y-89620748D01*
X67794434Y-89800000D01*
X63070368Y-89800000D01*
X63104552Y-89754337D01*
X63135528Y-89737422D01*
X63267089Y-89688352D01*
X63382188Y-89602188D01*
X63468352Y-89487089D01*
X63518599Y-89352371D01*
X63524645Y-89296132D01*
X63525000Y-89289518D01*
X63525000Y-88645000D01*
X62608686Y-88645000D01*
X62634493Y-88604844D01*
X62635915Y-88600000D01*
X69994659Y-88600000D01*
X70013976Y-88796133D01*
X70071185Y-88984726D01*
X70088063Y-89016302D01*
X70164090Y-89158538D01*
X70289117Y-89310883D01*
X70441462Y-89435910D01*
X70615273Y-89528814D01*
X70803868Y-89586024D01*
X71000000Y-89605341D01*
X71196132Y-89586024D01*
X71384727Y-89528814D01*
X71558538Y-89435910D01*
X71710883Y-89310883D01*
X71835910Y-89158538D01*
X71928814Y-88984727D01*
X71986024Y-88796132D01*
X72005341Y-88600000D01*
X71986024Y-88403868D01*
X71928814Y-88215273D01*
X71835910Y-88041462D01*
X71710883Y-87889117D01*
X71558538Y-87764090D01*
X71536091Y-87752091D01*
X71384726Y-87671185D01*
X71196133Y-87613976D01*
X71000000Y-87594659D01*
X70803866Y-87613976D01*
X70615273Y-87671185D01*
X70441463Y-87764089D01*
X70289117Y-87889117D01*
X70164089Y-88041463D01*
X70071185Y-88215273D01*
X70013976Y-88403866D01*
X69994659Y-88600000D01*
X62635915Y-88600000D01*
X62675000Y-88466889D01*
X62675000Y-88323111D01*
X62634493Y-88185156D01*
X62608686Y-88145000D01*
X63525000Y-88145000D01*
X63525000Y-87680541D01*
X63544685Y-87613502D01*
X63597489Y-87567747D01*
X63666647Y-87557803D01*
X63707453Y-87571183D01*
X63786626Y-87613502D01*
X63815273Y-87628814D01*
X64003868Y-87686024D01*
X64200000Y-87705341D01*
X64396132Y-87686024D01*
X64584727Y-87628814D01*
X64758538Y-87535910D01*
X64910883Y-87410883D01*
X65035910Y-87258538D01*
X65128814Y-87084727D01*
X65186024Y-86896132D01*
X65205341Y-86700000D01*
X65186024Y-86503868D01*
X65128814Y-86315273D01*
X65035910Y-86141462D01*
X64922409Y-86003162D01*
X64895098Y-85938856D01*
X64906889Y-85869988D01*
X64954041Y-85818428D01*
X65018264Y-85800500D01*
X85840303Y-85800500D01*
X85864493Y-85802882D01*
X85921480Y-85814218D01*
X85966175Y-85832730D01*
X86006272Y-85859522D01*
X86040477Y-85893727D01*
X86067267Y-85933822D01*
X86085781Y-85978517D01*
X86089542Y-85997427D01*
X86097617Y-86038022D01*
X86100000Y-86062210D01*
X86100000Y-86426000D01*
X86080315Y-86493039D01*
X86027511Y-86538794D01*
X85976000Y-86550000D01*
X85330000Y-86550000D01*
X85330000Y-87464498D01*
X85222315Y-87415320D01*
X85115763Y-87400000D01*
X85044237Y-87400000D01*
X84937685Y-87415320D01*
X84830000Y-87464498D01*
X84830000Y-86550000D01*
X84185482Y-86550000D01*
X84178867Y-86550354D01*
X84122628Y-86556400D01*
X83987910Y-86606647D01*
X83872811Y-86692811D01*
X83786647Y-86807910D01*
X83736400Y-86942628D01*
X83730354Y-86998867D01*
X83730000Y-87005481D01*
X83730000Y-87650000D01*
X84646314Y-87650000D01*
X84620507Y-87690156D01*
X84580000Y-87828111D01*
X84580000Y-87971889D01*
X84620507Y-88109844D01*
X84646314Y-88150000D01*
X83730000Y-88150000D01*
X83730000Y-88794518D01*
X83730354Y-88801132D01*
X83736400Y-88857371D01*
X83786647Y-88992089D01*
X83883495Y-89121461D01*
X83881326Y-89123084D01*
X83906987Y-89157364D01*
X83914125Y-89213656D01*
X83894540Y-89399999D01*
X83914326Y-89588257D01*
X83972820Y-89768284D01*
X84067466Y-89932216D01*
X84194129Y-90072889D01*
X84347267Y-90184150D01*
X84402419Y-90208705D01*
X84455656Y-90253955D01*
X84475978Y-90320804D01*
X84456933Y-90388028D01*
X84417958Y-90426977D01*
X84397738Y-90439682D01*
X84270184Y-90567236D01*
X84166778Y-90731807D01*
X84163993Y-90730057D01*
X84136332Y-90768621D01*
X84071378Y-90794365D01*
X84046132Y-90794107D01*
X83911399Y-90778926D01*
X83732147Y-90799123D01*
X83732144Y-90799123D01*
X83732144Y-90799124D01*
X83561877Y-90858703D01*
X83561875Y-90858703D01*
X83561875Y-90858704D01*
X83409137Y-90954675D01*
X83290714Y-91073098D01*
X83229391Y-91106582D01*
X83162080Y-91102458D01*
X83043554Y-91060984D01*
X83043552Y-91060983D01*
X83043550Y-91060983D01*
X82864299Y-91040786D01*
X82685047Y-91060983D01*
X82685044Y-91060983D01*
X82685044Y-91060984D01*
X82514777Y-91120563D01*
X82514775Y-91120563D01*
X82514775Y-91120564D01*
X82362034Y-91216537D01*
X82234484Y-91344087D01*
X82141754Y-91491667D01*
X82138510Y-91496830D01*
X82132057Y-91515273D01*
X82078930Y-91667100D01*
X82058733Y-91846351D01*
X82078930Y-92025603D01*
X82078930Y-92025605D01*
X82078931Y-92025607D01*
X82138510Y-92195874D01*
X82173709Y-92251893D01*
X82234484Y-92348616D01*
X82362034Y-92476166D01*
X82362036Y-92476167D01*
X82362037Y-92476168D01*
X82514777Y-92572141D01*
X82685044Y-92631720D01*
X82864299Y-92651917D01*
X83043554Y-92631720D01*
X83213821Y-92572141D01*
X83366561Y-92476168D01*
X83484984Y-92357744D01*
X83546305Y-92324261D01*
X83613617Y-92328385D01*
X83669184Y-92347829D01*
X83732143Y-92369860D01*
X83911399Y-92390057D01*
X84090654Y-92369860D01*
X84260921Y-92310281D01*
X84413661Y-92214308D01*
X84541215Y-92086754D01*
X84637188Y-91934014D01*
X84637188Y-91934012D01*
X84644621Y-91922184D01*
X84647406Y-91923934D01*
X84675049Y-91885384D01*
X84739998Y-91859628D01*
X84765263Y-91859883D01*
X84900000Y-91875065D01*
X85079255Y-91854868D01*
X85105724Y-91845605D01*
X85175499Y-91842043D01*
X85236127Y-91876770D01*
X85238826Y-91879673D01*
X85239721Y-91880667D01*
X85392862Y-91991930D01*
X85392863Y-91991930D01*
X85392864Y-91991931D01*
X85565789Y-92068923D01*
X85750944Y-92108279D01*
X85750946Y-92108279D01*
X85940238Y-92108279D01*
X85950216Y-92106158D01*
X86019882Y-92111471D01*
X86075617Y-92153607D01*
X86099724Y-92219186D01*
X86100000Y-92227447D01*
X86100000Y-94200000D01*
X94337789Y-94200000D01*
X94361980Y-94202383D01*
X94421480Y-94214218D01*
X94466175Y-94232730D01*
X94506272Y-94259522D01*
X94540477Y-94293727D01*
X94567267Y-94333822D01*
X94585781Y-94378519D01*
X94597616Y-94438019D01*
X94599999Y-94462210D01*
X94599999Y-116237789D01*
X94597616Y-116261980D01*
X94585781Y-116321480D01*
X94567266Y-116366179D01*
X94541910Y-116404130D01*
X94540481Y-116406268D01*
X94506269Y-116440479D01*
X94471975Y-116463394D01*
X94466179Y-116467267D01*
X94421482Y-116485781D01*
X94391578Y-116491729D01*
X94364491Y-116497117D01*
X94340303Y-116499500D01*
X79393276Y-116499500D01*
X79326237Y-116479815D01*
X79280482Y-116427011D01*
X79270538Y-116357853D01*
X79299563Y-116294297D01*
X79317114Y-116277646D01*
X79318622Y-116276471D01*
X79318626Y-116276470D01*
X79501784Y-116133913D01*
X79658979Y-115963153D01*
X79785924Y-115768849D01*
X79879157Y-115556300D01*
X79936134Y-115331305D01*
X79955300Y-115100000D01*
X79936134Y-114868695D01*
X79879157Y-114643700D01*
X79785924Y-114431151D01*
X79785922Y-114431149D01*
X79781796Y-114421741D01*
X79783421Y-114421027D01*
X79766765Y-114365833D01*
X79785948Y-114298648D01*
X79824789Y-114259912D01*
X79952262Y-114179816D01*
X80079816Y-114052262D01*
X80175789Y-113899522D01*
X80228459Y-113748999D01*
X80269180Y-113692224D01*
X80334133Y-113666477D01*
X80402694Y-113679933D01*
X80453097Y-113728320D01*
X80469500Y-113789955D01*
X80469500Y-115394560D01*
X80469500Y-115394578D01*
X80469501Y-115397872D01*
X80475909Y-115457483D01*
X80526204Y-115592331D01*
X80612454Y-115707546D01*
X80727669Y-115793796D01*
X80862517Y-115844091D01*
X80922127Y-115850500D01*
X82717872Y-115850499D01*
X82777483Y-115844091D01*
X82912331Y-115793796D01*
X83027546Y-115707546D01*
X83113796Y-115592331D01*
X83163003Y-115460399D01*
X83204873Y-115404467D01*
X83270337Y-115380050D01*
X83338610Y-115394901D01*
X83366865Y-115416053D01*
X83488918Y-115538106D01*
X83682423Y-115673600D01*
X83896509Y-115773430D01*
X84110000Y-115830634D01*
X84110000Y-114935501D01*
X84217685Y-114984680D01*
X84324237Y-115000000D01*
X84395763Y-115000000D01*
X84502315Y-114984680D01*
X84610000Y-114935501D01*
X84610000Y-115830633D01*
X84823490Y-115773430D01*
X85037576Y-115673600D01*
X85231081Y-115538106D01*
X85398109Y-115371078D01*
X85528119Y-115185405D01*
X85582696Y-115141780D01*
X85652194Y-115134586D01*
X85714549Y-115166109D01*
X85731265Y-115185400D01*
X85861505Y-115371401D01*
X86028599Y-115538495D01*
X86222170Y-115674035D01*
X86436337Y-115773903D01*
X86664592Y-115835063D01*
X86900000Y-115855659D01*
X87135408Y-115835063D01*
X87363663Y-115773903D01*
X87577830Y-115674035D01*
X87771401Y-115538495D01*
X87938495Y-115371401D01*
X88068427Y-115185838D01*
X88123001Y-115142216D01*
X88192499Y-115135022D01*
X88254854Y-115166545D01*
X88271572Y-115185838D01*
X88401505Y-115371401D01*
X88568599Y-115538495D01*
X88762170Y-115674035D01*
X88976337Y-115773903D01*
X89188059Y-115830633D01*
X89204592Y-115835063D01*
X89439999Y-115855659D01*
X89439999Y-115855658D01*
X89440000Y-115855659D01*
X89675408Y-115835063D01*
X89903663Y-115773903D01*
X90117830Y-115674035D01*
X90311401Y-115538495D01*
X90478495Y-115371401D01*
X90614035Y-115177830D01*
X90713903Y-114963663D01*
X90775063Y-114735408D01*
X90795659Y-114500000D01*
X90775063Y-114264592D01*
X90713903Y-114036337D01*
X90614035Y-113822171D01*
X90478495Y-113628599D01*
X90311401Y-113461505D01*
X90117830Y-113325965D01*
X89903663Y-113226097D01*
X89831738Y-113206825D01*
X89675407Y-113164936D01*
X89439999Y-113144340D01*
X89204592Y-113164936D01*
X88976336Y-113226097D01*
X88762170Y-113325965D01*
X88568598Y-113461505D01*
X88401505Y-113628598D01*
X88271575Y-113814159D01*
X88216998Y-113857784D01*
X88147500Y-113864978D01*
X88085145Y-113833455D01*
X88068425Y-113814159D01*
X87988140Y-113699500D01*
X87938495Y-113628599D01*
X87771401Y-113461505D01*
X87577830Y-113325965D01*
X87363663Y-113226097D01*
X87291738Y-113206825D01*
X87135407Y-113164936D01*
X86900000Y-113144340D01*
X86664590Y-113164936D01*
X86621754Y-113176414D01*
X86551904Y-113174751D01*
X86494042Y-113135587D01*
X86466539Y-113071359D01*
X86472621Y-113015684D01*
X86485368Y-112979254D01*
X86486786Y-112966674D01*
X86505565Y-112800000D01*
X86485368Y-112620745D01*
X86425789Y-112450478D01*
X86329816Y-112297738D01*
X86329815Y-112297737D01*
X86329814Y-112297735D01*
X86202264Y-112170185D01*
X86096721Y-112103868D01*
X86049522Y-112074211D01*
X85879255Y-112014632D01*
X85879253Y-112014631D01*
X85879251Y-112014631D01*
X85699999Y-111994434D01*
X85520748Y-112014631D01*
X85520745Y-112014631D01*
X85520745Y-112014632D01*
X85350478Y-112074211D01*
X85350476Y-112074211D01*
X85350476Y-112074212D01*
X85197735Y-112170185D01*
X85070185Y-112297735D01*
X84982895Y-112436657D01*
X84974211Y-112450478D01*
X84952346Y-112512965D01*
X84914631Y-112620748D01*
X84894434Y-112800000D01*
X84914631Y-112979251D01*
X84914631Y-112979253D01*
X84914632Y-112979255D01*
X84942064Y-113057651D01*
X84945625Y-113127428D01*
X84910896Y-113188056D01*
X84848903Y-113220283D01*
X84792929Y-113218379D01*
X84610000Y-113169363D01*
X84610000Y-114064498D01*
X84502315Y-114015320D01*
X84395763Y-114000000D01*
X84324237Y-114000000D01*
X84217685Y-114015320D01*
X84110000Y-114064498D01*
X84110000Y-113169364D01*
X84109999Y-113169364D01*
X83896507Y-113226569D01*
X83682421Y-113326400D01*
X83488924Y-113461888D01*
X83366865Y-113583947D01*
X83305542Y-113617431D01*
X83235850Y-113612447D01*
X83179917Y-113570575D01*
X83163002Y-113539598D01*
X83113796Y-113407669D01*
X83027546Y-113292454D01*
X82912331Y-113206204D01*
X82777483Y-113155909D01*
X82717873Y-113149500D01*
X82714550Y-113149500D01*
X80925439Y-113149500D01*
X80925420Y-113149500D01*
X80922128Y-113149501D01*
X80918848Y-113149853D01*
X80918840Y-113149854D01*
X80862515Y-113155909D01*
X80727669Y-113206204D01*
X80612453Y-113292454D01*
X80571540Y-113347108D01*
X80515606Y-113388979D01*
X80445914Y-113393963D01*
X80384591Y-113360478D01*
X80351107Y-113299154D01*
X80356091Y-113229463D01*
X80367280Y-113206825D01*
X80403077Y-113149854D01*
X80411970Y-113135701D01*
X80471549Y-112965434D01*
X80491746Y-112786179D01*
X80471549Y-112606924D01*
X80411970Y-112436657D01*
X80315997Y-112283917D01*
X80315996Y-112283916D01*
X80315995Y-112283914D01*
X80188445Y-112156364D01*
X80104898Y-112103868D01*
X80035703Y-112060390D01*
X79865436Y-112000811D01*
X79865434Y-112000810D01*
X79865432Y-112000810D01*
X79686180Y-111980613D01*
X79506929Y-112000810D01*
X79506926Y-112000810D01*
X79506926Y-112000811D01*
X79336659Y-112060390D01*
X79336657Y-112060390D01*
X79336657Y-112060391D01*
X79183916Y-112156364D01*
X79056365Y-112283915D01*
X78983117Y-112400490D01*
X78930782Y-112446781D01*
X78861729Y-112457429D01*
X78797880Y-112429054D01*
X78759508Y-112370665D01*
X78754652Y-112345959D01*
X78750393Y-112300000D01*
X78739063Y-112177726D01*
X78739063Y-112177723D01*
X78677974Y-111963019D01*
X78578476Y-111763198D01*
X78443949Y-111585055D01*
X78278983Y-111434670D01*
X78089195Y-111317158D01*
X78021652Y-111290992D01*
X77881039Y-111236518D01*
X77661613Y-111195500D01*
X77438387Y-111195500D01*
X77218961Y-111236518D01*
X77010804Y-111317158D01*
X76821016Y-111434670D01*
X76656050Y-111585055D01*
X76521523Y-111763198D01*
X76422025Y-111963019D01*
X76360936Y-112177723D01*
X76340340Y-112399999D01*
X76360936Y-112622276D01*
X76422025Y-112836980D01*
X76521523Y-113036801D01*
X76656050Y-113214944D01*
X76778313Y-113326400D01*
X76821017Y-113365330D01*
X76829763Y-113370745D01*
X77010804Y-113482841D01*
X77010806Y-113482841D01*
X77010808Y-113482843D01*
X77218961Y-113563482D01*
X77411292Y-113599435D01*
X77473569Y-113631101D01*
X77508842Y-113691413D01*
X77511723Y-113707439D01*
X77514632Y-113733255D01*
X77574211Y-113903522D01*
X77586783Y-113923530D01*
X77594242Y-113935401D01*
X77613242Y-114002638D01*
X77592874Y-114069473D01*
X77580479Y-114085353D01*
X77521488Y-114149436D01*
X77441020Y-114236848D01*
X77314076Y-114431150D01*
X77220844Y-114643696D01*
X77220842Y-114643700D01*
X77220843Y-114643700D01*
X77197620Y-114735407D01*
X77163865Y-114868700D01*
X77144699Y-115099999D01*
X77163865Y-115331299D01*
X77163865Y-115331301D01*
X77163866Y-115331305D01*
X77196558Y-115460401D01*
X77220844Y-115556303D01*
X77287185Y-115707545D01*
X77314076Y-115768849D01*
X77441021Y-115963153D01*
X77598216Y-116133913D01*
X77781374Y-116276470D01*
X77781377Y-116276471D01*
X77782886Y-116277646D01*
X77823699Y-116334357D01*
X77827374Y-116404130D01*
X77792743Y-116464813D01*
X77730801Y-116497140D01*
X77706724Y-116499500D01*
X72393276Y-116499500D01*
X72326237Y-116479815D01*
X72280482Y-116427011D01*
X72270538Y-116357853D01*
X72299563Y-116294297D01*
X72317114Y-116277646D01*
X72318622Y-116276471D01*
X72318626Y-116276470D01*
X72501784Y-116133913D01*
X72658979Y-115963153D01*
X72785924Y-115768849D01*
X72879157Y-115556300D01*
X72936134Y-115331305D01*
X72955300Y-115100000D01*
X72936134Y-114868695D01*
X72879157Y-114643700D01*
X72785924Y-114431151D01*
X72658979Y-114236847D01*
X72501784Y-114066087D01*
X72318626Y-113923530D01*
X72114503Y-113813064D01*
X72114499Y-113813062D01*
X72114498Y-113813062D01*
X71894984Y-113737702D01*
X71713625Y-113707439D01*
X71666049Y-113699500D01*
X71433951Y-113699500D01*
X71388164Y-113707140D01*
X71205015Y-113737702D01*
X70985501Y-113813062D01*
X70985497Y-113813063D01*
X70985497Y-113813064D01*
X70880320Y-113869983D01*
X70781372Y-113923531D01*
X70598215Y-114066087D01*
X70441020Y-114236848D01*
X70314076Y-114431150D01*
X70220844Y-114643696D01*
X70220842Y-114643700D01*
X70220843Y-114643700D01*
X70197620Y-114735407D01*
X70163865Y-114868700D01*
X70144699Y-115099999D01*
X70163865Y-115331299D01*
X70163865Y-115331301D01*
X70163866Y-115331305D01*
X70196558Y-115460401D01*
X70220844Y-115556303D01*
X70287185Y-115707545D01*
X70314076Y-115768849D01*
X70441021Y-115963153D01*
X70598216Y-116133913D01*
X70781374Y-116276470D01*
X70781377Y-116276471D01*
X70782886Y-116277646D01*
X70823699Y-116334357D01*
X70827374Y-116404130D01*
X70792743Y-116464813D01*
X70730801Y-116497140D01*
X70706724Y-116499500D01*
X52959697Y-116499500D01*
X52935507Y-116497117D01*
X52917334Y-116493502D01*
X52878518Y-116485781D01*
X52833822Y-116467267D01*
X52793727Y-116440477D01*
X52759522Y-116406272D01*
X52732730Y-116366175D01*
X52714218Y-116321483D01*
X52702881Y-116264485D01*
X52700500Y-116240302D01*
X52700500Y-112300000D01*
X53894659Y-112300000D01*
X53913976Y-112496133D01*
X53971185Y-112684726D01*
X53971186Y-112684727D01*
X54064090Y-112858538D01*
X54189117Y-113010883D01*
X54341462Y-113135910D01*
X54515273Y-113228814D01*
X54703868Y-113286024D01*
X54900000Y-113305341D01*
X55096132Y-113286024D01*
X55284727Y-113228814D01*
X55458538Y-113135910D01*
X55610883Y-113010883D01*
X55735910Y-112858538D01*
X55828814Y-112684727D01*
X55886024Y-112496132D01*
X55905341Y-112300000D01*
X55886024Y-112103868D01*
X55828814Y-111915273D01*
X55735910Y-111741462D01*
X55610883Y-111589117D01*
X55517525Y-111512500D01*
X57294659Y-111512500D01*
X57313976Y-111708633D01*
X57371185Y-111897226D01*
X57415486Y-111980106D01*
X57464090Y-112071038D01*
X57589117Y-112223383D01*
X57741462Y-112348410D01*
X57915273Y-112441314D01*
X58103868Y-112498524D01*
X58237654Y-112511700D01*
X58302441Y-112537860D01*
X58342800Y-112594895D01*
X58349500Y-112635103D01*
X58349500Y-113807060D01*
X58349500Y-113807078D01*
X58349501Y-113810372D01*
X58349853Y-113813652D01*
X58349854Y-113813659D01*
X58355909Y-113869984D01*
X58374662Y-113920262D01*
X58406204Y-114004831D01*
X58492454Y-114120046D01*
X58607669Y-114206296D01*
X58742517Y-114256591D01*
X58802127Y-114263000D01*
X60697872Y-114262999D01*
X60757483Y-114256591D01*
X60892331Y-114206296D01*
X61007546Y-114120046D01*
X61093796Y-114004831D01*
X61125338Y-113920261D01*
X61167209Y-113864328D01*
X61232674Y-113839911D01*
X61300947Y-113854763D01*
X61332748Y-113879611D01*
X61348216Y-113896413D01*
X61531374Y-114038970D01*
X61735497Y-114149436D01*
X61823991Y-114179816D01*
X61955015Y-114224797D01*
X61955017Y-114224797D01*
X61955019Y-114224798D01*
X62183951Y-114263000D01*
X62183952Y-114263000D01*
X62416048Y-114263000D01*
X62416049Y-114263000D01*
X62644981Y-114224798D01*
X62864503Y-114149436D01*
X63068626Y-114038970D01*
X63251784Y-113896413D01*
X63408979Y-113725653D01*
X63471191Y-113630429D01*
X63524338Y-113585073D01*
X63593569Y-113575649D01*
X63656905Y-113605151D01*
X63678808Y-113630428D01*
X63741021Y-113725653D01*
X63898216Y-113896413D01*
X64081374Y-114038970D01*
X64285497Y-114149436D01*
X64373991Y-114179816D01*
X64505015Y-114224797D01*
X64505017Y-114224797D01*
X64505019Y-114224798D01*
X64733951Y-114263000D01*
X64733952Y-114263000D01*
X64966048Y-114263000D01*
X64966049Y-114263000D01*
X65194981Y-114224798D01*
X65414503Y-114149436D01*
X65618626Y-114038970D01*
X65801784Y-113896413D01*
X65958979Y-113725653D01*
X66085924Y-113531349D01*
X66179157Y-113318800D01*
X66236134Y-113093805D01*
X66255300Y-112862500D01*
X66236134Y-112631195D01*
X66179157Y-112406200D01*
X66176437Y-112400000D01*
X71340340Y-112400000D01*
X71360936Y-112622276D01*
X71422025Y-112836980D01*
X71521523Y-113036801D01*
X71656050Y-113214944D01*
X71778313Y-113326400D01*
X71821017Y-113365330D01*
X71829763Y-113370745D01*
X72010804Y-113482841D01*
X72010806Y-113482841D01*
X72010808Y-113482843D01*
X72218961Y-113563482D01*
X72438387Y-113604500D01*
X72438389Y-113604500D01*
X72661611Y-113604500D01*
X72661613Y-113604500D01*
X72881039Y-113563482D01*
X73089192Y-113482843D01*
X73278983Y-113365330D01*
X73443950Y-113214943D01*
X73578474Y-113036804D01*
X73578474Y-113036802D01*
X73578476Y-113036801D01*
X73677974Y-112836980D01*
X73739063Y-112622276D01*
X73750530Y-112498523D01*
X73759660Y-112400000D01*
X73739063Y-112177726D01*
X73735399Y-112164848D01*
X73735983Y-112094981D01*
X73774249Y-112036522D01*
X73838045Y-112008030D01*
X73907118Y-112018552D01*
X73942345Y-112043230D01*
X73999176Y-112100061D01*
X73999178Y-112100062D01*
X73999179Y-112100063D01*
X74151919Y-112196036D01*
X74322186Y-112255615D01*
X74456627Y-112270762D01*
X74501440Y-112275812D01*
X74501440Y-112275811D01*
X74501441Y-112275812D01*
X74680696Y-112255615D01*
X74850963Y-112196036D01*
X75003703Y-112100063D01*
X75131257Y-111972509D01*
X75227230Y-111819769D01*
X75286809Y-111649502D01*
X75307006Y-111470247D01*
X75286809Y-111290992D01*
X75227230Y-111120725D01*
X75131257Y-110967985D01*
X75131256Y-110967984D01*
X75131255Y-110967982D01*
X75003704Y-110840431D01*
X74848816Y-110743109D01*
X74802525Y-110690774D01*
X74791568Y-110624231D01*
X74805565Y-110499999D01*
X74791176Y-110372292D01*
X74785368Y-110320745D01*
X74725789Y-110150478D01*
X74629816Y-109997738D01*
X74629815Y-109997737D01*
X74629814Y-109997735D01*
X74502264Y-109870185D01*
X74439867Y-109830979D01*
X74349522Y-109774211D01*
X74179255Y-109714632D01*
X74179253Y-109714631D01*
X74179251Y-109714631D01*
X74000000Y-109694434D01*
X73820745Y-109714631D01*
X73726108Y-109747745D01*
X73656329Y-109751306D01*
X73619184Y-109735697D01*
X73477234Y-109646505D01*
X73477232Y-109646504D01*
X73477230Y-109646503D01*
X73306963Y-109586924D01*
X73306961Y-109586923D01*
X73306959Y-109586923D01*
X73127708Y-109566726D01*
X72948456Y-109586923D01*
X72948453Y-109586923D01*
X72948453Y-109586924D01*
X72778186Y-109646503D01*
X72778184Y-109646503D01*
X72778184Y-109646504D01*
X72625443Y-109742477D01*
X72497893Y-109870027D01*
X72401920Y-110022768D01*
X72401919Y-110022770D01*
X72378220Y-110090499D01*
X72342339Y-110193040D01*
X72322142Y-110372292D01*
X72342339Y-110551543D01*
X72342339Y-110551545D01*
X72342340Y-110551547D01*
X72401919Y-110721814D01*
X72401920Y-110721815D01*
X72497893Y-110874556D01*
X72607156Y-110983819D01*
X72640641Y-111045142D01*
X72635657Y-111114834D01*
X72593785Y-111170767D01*
X72528321Y-111195184D01*
X72519475Y-111195500D01*
X72438387Y-111195500D01*
X72218960Y-111236518D01*
X72218961Y-111236518D01*
X72010804Y-111317158D01*
X71821016Y-111434670D01*
X71656050Y-111585055D01*
X71521523Y-111763198D01*
X71422025Y-111963019D01*
X71360936Y-112177723D01*
X71340340Y-112400000D01*
X66176437Y-112400000D01*
X66085924Y-112193651D01*
X65958979Y-111999347D01*
X65801784Y-111828587D01*
X65618626Y-111686030D01*
X65414503Y-111575564D01*
X65414499Y-111575562D01*
X65414498Y-111575562D01*
X65194984Y-111500202D01*
X65023281Y-111471550D01*
X64966049Y-111462000D01*
X64733951Y-111462000D01*
X64695544Y-111468409D01*
X64505015Y-111500202D01*
X64285501Y-111575562D01*
X64285497Y-111575563D01*
X64285497Y-111575564D01*
X64231189Y-111604954D01*
X64081372Y-111686031D01*
X63898215Y-111828587D01*
X63741018Y-111999349D01*
X63678808Y-112094570D01*
X63625662Y-112139926D01*
X63556431Y-112149350D01*
X63493095Y-112119848D01*
X63471192Y-112094570D01*
X63408981Y-111999349D01*
X63251784Y-111828587D01*
X63167769Y-111763196D01*
X63068626Y-111686030D01*
X62864503Y-111575564D01*
X62864499Y-111575562D01*
X62864498Y-111575562D01*
X62644984Y-111500202D01*
X62473282Y-111471550D01*
X62416049Y-111462000D01*
X62183951Y-111462000D01*
X62145544Y-111468409D01*
X61955015Y-111500202D01*
X61735501Y-111575562D01*
X61735497Y-111575563D01*
X61735497Y-111575564D01*
X61681189Y-111604954D01*
X61531372Y-111686031D01*
X61348215Y-111828587D01*
X61332750Y-111845388D01*
X61272863Y-111881378D01*
X61203025Y-111879278D01*
X61145408Y-111839754D01*
X61125338Y-111804738D01*
X61093796Y-111720169D01*
X61007546Y-111604954D01*
X60892331Y-111518704D01*
X60757483Y-111468409D01*
X60697873Y-111462000D01*
X60694551Y-111462000D01*
X59412755Y-111462000D01*
X59345716Y-111442315D01*
X59299961Y-111389511D01*
X59289352Y-111350155D01*
X59288269Y-111339167D01*
X59286024Y-111316368D01*
X59250724Y-111200000D01*
X69594434Y-111200000D01*
X69614631Y-111379251D01*
X69614631Y-111379253D01*
X69614632Y-111379255D01*
X69674211Y-111549522D01*
X69696538Y-111585055D01*
X69770185Y-111702264D01*
X69897735Y-111829814D01*
X69897737Y-111829815D01*
X69897738Y-111829816D01*
X70050478Y-111925789D01*
X70220745Y-111985368D01*
X70400000Y-112005565D01*
X70579255Y-111985368D01*
X70749522Y-111925789D01*
X70902262Y-111829816D01*
X71029816Y-111702262D01*
X71125789Y-111549522D01*
X71185368Y-111379255D01*
X71205565Y-111200000D01*
X71185368Y-111020745D01*
X71125789Y-110850478D01*
X71029816Y-110697738D01*
X71029815Y-110697737D01*
X71029814Y-110697735D01*
X70902264Y-110570185D01*
X70790563Y-110499999D01*
X70749522Y-110474211D01*
X70579255Y-110414632D01*
X70579253Y-110414631D01*
X70579251Y-110414631D01*
X70399999Y-110394434D01*
X70220748Y-110414631D01*
X70220745Y-110414631D01*
X70220745Y-110414632D01*
X70050478Y-110474211D01*
X70050476Y-110474211D01*
X70050476Y-110474212D01*
X69897735Y-110570185D01*
X69770185Y-110697735D01*
X69704912Y-110801617D01*
X69674211Y-110850478D01*
X69638000Y-110953963D01*
X69614631Y-111020748D01*
X69594434Y-111200000D01*
X59250724Y-111200000D01*
X59228814Y-111127773D01*
X59135910Y-110953962D01*
X59010883Y-110801617D01*
X58858538Y-110676590D01*
X58836091Y-110664592D01*
X58684726Y-110583685D01*
X58496133Y-110526476D01*
X58300000Y-110507159D01*
X58103866Y-110526476D01*
X57915273Y-110583685D01*
X57741463Y-110676589D01*
X57589117Y-110801617D01*
X57464089Y-110953963D01*
X57371185Y-111127773D01*
X57313976Y-111316366D01*
X57294659Y-111512500D01*
X55517525Y-111512500D01*
X55458538Y-111464090D01*
X55319011Y-111389511D01*
X55284726Y-111371185D01*
X55096133Y-111313976D01*
X54998066Y-111304317D01*
X54900000Y-111294659D01*
X54899999Y-111294659D01*
X54703866Y-111313976D01*
X54515273Y-111371185D01*
X54341463Y-111464089D01*
X54189117Y-111589117D01*
X54064089Y-111741463D01*
X53971185Y-111915273D01*
X53913976Y-112103866D01*
X53894659Y-112300000D01*
X52700500Y-112300000D01*
X52700500Y-103660000D01*
X53644340Y-103660000D01*
X53664936Y-103895407D01*
X53680722Y-103954320D01*
X53726097Y-104123663D01*
X53825965Y-104337830D01*
X53961505Y-104531401D01*
X54128599Y-104698495D01*
X54314596Y-104828732D01*
X54358219Y-104883307D01*
X54365412Y-104952806D01*
X54333890Y-105015160D01*
X54314594Y-105031881D01*
X54238626Y-105085073D01*
X54867466Y-105713913D01*
X54857685Y-105715320D01*
X54726900Y-105775048D01*
X54618239Y-105869202D01*
X54540507Y-105990156D01*
X54516923Y-106070476D01*
X53885072Y-105438625D01*
X53826399Y-105522422D01*
X53726569Y-105736507D01*
X53665430Y-105964681D01*
X53644842Y-106200000D01*
X53665430Y-106435318D01*
X53726569Y-106663492D01*
X53826400Y-106877580D01*
X53885073Y-106961373D01*
X54516923Y-106329523D01*
X54540507Y-106409844D01*
X54618239Y-106530798D01*
X54726900Y-106624952D01*
X54857685Y-106684680D01*
X54867466Y-106686086D01*
X54200369Y-107353181D01*
X54139046Y-107386666D01*
X54112700Y-107389500D01*
X54105445Y-107389500D01*
X54105426Y-107389500D01*
X54102128Y-107389501D01*
X54098848Y-107389853D01*
X54098840Y-107389854D01*
X54042515Y-107395909D01*
X53907669Y-107446204D01*
X53792454Y-107532454D01*
X53706204Y-107647668D01*
X53655909Y-107782516D01*
X53650824Y-107829816D01*
X53649500Y-107842127D01*
X53649500Y-107845448D01*
X53649500Y-107845449D01*
X53649500Y-109634560D01*
X53649500Y-109634578D01*
X53649501Y-109637872D01*
X53649853Y-109641152D01*
X53649854Y-109641159D01*
X53655909Y-109697484D01*
X53666466Y-109725789D01*
X53706204Y-109832331D01*
X53792454Y-109947546D01*
X53907669Y-110033796D01*
X54042517Y-110084091D01*
X54102127Y-110090500D01*
X55897872Y-110090499D01*
X55957483Y-110084091D01*
X56092331Y-110033796D01*
X56207546Y-109947546D01*
X56293796Y-109832331D01*
X56344091Y-109697483D01*
X56350500Y-109637873D01*
X56350500Y-109000000D01*
X67594434Y-109000000D01*
X67614631Y-109179251D01*
X67614631Y-109179253D01*
X67614632Y-109179255D01*
X67674211Y-109349522D01*
X67674212Y-109349523D01*
X67770185Y-109502264D01*
X67897735Y-109629814D01*
X67897737Y-109629815D01*
X67897738Y-109629816D01*
X68050478Y-109725789D01*
X68220745Y-109785368D01*
X68355186Y-109800515D01*
X68399999Y-109805565D01*
X68399999Y-109805564D01*
X68400000Y-109805565D01*
X68579255Y-109785368D01*
X68749522Y-109725789D01*
X68902262Y-109629816D01*
X69029816Y-109502262D01*
X69125789Y-109349522D01*
X69185368Y-109179255D01*
X69205565Y-109000000D01*
X69185368Y-108820745D01*
X69125789Y-108650478D01*
X69073816Y-108567764D01*
X87645787Y-108567764D01*
X87675413Y-108837016D01*
X87675414Y-108837018D01*
X87743928Y-109099088D01*
X87797720Y-109225670D01*
X87849871Y-109348392D01*
X87990982Y-109579611D01*
X88152930Y-109774212D01*
X88164255Y-109787820D01*
X88365998Y-109968582D01*
X88591910Y-110118044D01*
X88661094Y-110150476D01*
X88837177Y-110233021D01*
X89096562Y-110311058D01*
X89096569Y-110311060D01*
X89364561Y-110350500D01*
X89364564Y-110350500D01*
X89565369Y-110350500D01*
X89567631Y-110350500D01*
X89770156Y-110335677D01*
X90034553Y-110276780D01*
X90287558Y-110180014D01*
X90523777Y-110047441D01*
X90738177Y-109881888D01*
X90926186Y-109686881D01*
X91083799Y-109466579D01*
X91207656Y-109225675D01*
X91295118Y-108969305D01*
X91344319Y-108702933D01*
X91354212Y-108432235D01*
X91324586Y-108162982D01*
X91256072Y-107900912D01*
X91150130Y-107651610D01*
X91009018Y-107420390D01*
X91009017Y-107420388D01*
X90835746Y-107212181D01*
X90734663Y-107121610D01*
X90634002Y-107031418D01*
X90408090Y-106881956D01*
X90382042Y-106869745D01*
X90162822Y-106766978D01*
X89903437Y-106688941D01*
X89903431Y-106688940D01*
X89635439Y-106649500D01*
X89432369Y-106649500D01*
X89430120Y-106649664D01*
X89430109Y-106649665D01*
X89229843Y-106664322D01*
X88965449Y-106723219D01*
X88712441Y-106819986D01*
X88476223Y-106952559D01*
X88261825Y-107118109D01*
X88073813Y-107313120D01*
X87916201Y-107533420D01*
X87792342Y-107774329D01*
X87704881Y-108030695D01*
X87655680Y-108297066D01*
X87645787Y-108567764D01*
X69073816Y-108567764D01*
X69029816Y-108497738D01*
X69029815Y-108497737D01*
X69029814Y-108497735D01*
X68902264Y-108370185D01*
X68785895Y-108297066D01*
X68749522Y-108274211D01*
X68579255Y-108214632D01*
X68579253Y-108214631D01*
X68579251Y-108214631D01*
X68400000Y-108194434D01*
X68220748Y-108214631D01*
X68220745Y-108214631D01*
X68220745Y-108214632D01*
X68050478Y-108274211D01*
X68050476Y-108274211D01*
X68050476Y-108274212D01*
X67897735Y-108370185D01*
X67770185Y-108497735D01*
X67674212Y-108650476D01*
X67614631Y-108820748D01*
X67594434Y-109000000D01*
X56350500Y-109000000D01*
X56350499Y-107842128D01*
X56344091Y-107782517D01*
X56293796Y-107647669D01*
X56207546Y-107532454D01*
X56092331Y-107446204D01*
X55957483Y-107395909D01*
X55897873Y-107389500D01*
X55894551Y-107389500D01*
X55887310Y-107389500D01*
X55820271Y-107369815D01*
X55799629Y-107353181D01*
X55132533Y-106686086D01*
X55142315Y-106684680D01*
X55273100Y-106624952D01*
X55381761Y-106530798D01*
X55459493Y-106409844D01*
X55483076Y-106329524D01*
X56114925Y-106961373D01*
X56173600Y-106877576D01*
X56273430Y-106663492D01*
X56334569Y-106435318D01*
X56337659Y-106400000D01*
X66494434Y-106400000D01*
X66514631Y-106579251D01*
X66514631Y-106579253D01*
X66514632Y-106579255D01*
X66574211Y-106749522D01*
X66585181Y-106766980D01*
X66670185Y-106902264D01*
X66797735Y-107029814D01*
X66797737Y-107029815D01*
X66797738Y-107029816D01*
X66950478Y-107125789D01*
X67120745Y-107185368D01*
X67250600Y-107199999D01*
X67299999Y-107205565D01*
X67299999Y-107205564D01*
X67300000Y-107205565D01*
X67349400Y-107199999D01*
X71494434Y-107199999D01*
X71514631Y-107379251D01*
X71514631Y-107379253D01*
X71514632Y-107379255D01*
X71574211Y-107549522D01*
X71575306Y-107551264D01*
X71670185Y-107702264D01*
X71797735Y-107829814D01*
X71797737Y-107829815D01*
X71797738Y-107829816D01*
X71950478Y-107925789D01*
X72120745Y-107985368D01*
X72255186Y-108000515D01*
X72299999Y-108005565D01*
X72299999Y-108005564D01*
X72300000Y-108005565D01*
X72479255Y-107985368D01*
X72649522Y-107925789D01*
X72802262Y-107829816D01*
X72929816Y-107702262D01*
X73025789Y-107549522D01*
X73085368Y-107379255D01*
X73105565Y-107200000D01*
X73104395Y-107189613D01*
X73116449Y-107120791D01*
X73139931Y-107088049D01*
X73250219Y-106977762D01*
X73346192Y-106825022D01*
X73347548Y-106821145D01*
X73388269Y-106764370D01*
X73453221Y-106738621D01*
X73505541Y-106745056D01*
X73620745Y-106785368D01*
X73755186Y-106800515D01*
X73799999Y-106805565D01*
X73799999Y-106805564D01*
X73800000Y-106805565D01*
X73979255Y-106785368D01*
X73979255Y-106785367D01*
X73981366Y-106785130D01*
X74050188Y-106797184D01*
X74061220Y-106803355D01*
X74199126Y-106890007D01*
X74369393Y-106949586D01*
X74485928Y-106962716D01*
X74550342Y-106989782D01*
X74589897Y-107047377D01*
X74595265Y-107072052D01*
X74612865Y-107228250D01*
X74612865Y-107228251D01*
X74612866Y-107228255D01*
X74672445Y-107398522D01*
X74686186Y-107420390D01*
X74768419Y-107551264D01*
X74895969Y-107678814D01*
X74895971Y-107678815D01*
X74895972Y-107678816D01*
X75048712Y-107774789D01*
X75218979Y-107834368D01*
X75317327Y-107845449D01*
X75398233Y-107854565D01*
X75398233Y-107854564D01*
X75398234Y-107854565D01*
X75577489Y-107834368D01*
X75747756Y-107774789D01*
X75900496Y-107678816D01*
X76028050Y-107551262D01*
X76124023Y-107398522D01*
X76183602Y-107228255D01*
X76203799Y-107049000D01*
X76183602Y-106869745D01*
X76124023Y-106699478D01*
X76028050Y-106546738D01*
X76028049Y-106546737D01*
X76028048Y-106546735D01*
X75997671Y-106516358D01*
X75964186Y-106455035D01*
X75969170Y-106385343D01*
X75980359Y-106362704D01*
X76001023Y-106329818D01*
X76060602Y-106159551D01*
X76080799Y-105980296D01*
X76060602Y-105801041D01*
X76025246Y-105700000D01*
X76432434Y-105700000D01*
X76452631Y-105879251D01*
X76452631Y-105879253D01*
X76452632Y-105879255D01*
X76512211Y-106049522D01*
X76512812Y-106050478D01*
X76608185Y-106202264D01*
X76735735Y-106329814D01*
X76735737Y-106329815D01*
X76735738Y-106329816D01*
X76888478Y-106425789D01*
X77058745Y-106485368D01*
X77238000Y-106505565D01*
X77417255Y-106485368D01*
X77587522Y-106425789D01*
X77740262Y-106329816D01*
X77867816Y-106202262D01*
X77963789Y-106049522D01*
X78023368Y-105879255D01*
X78043565Y-105700000D01*
X78023368Y-105520745D01*
X77996554Y-105444118D01*
X77992992Y-105374342D01*
X78008603Y-105337192D01*
X78013206Y-105329865D01*
X78013210Y-105329862D01*
X78109183Y-105177122D01*
X78168762Y-105006855D01*
X78188959Y-104827600D01*
X78168762Y-104648345D01*
X78109183Y-104478078D01*
X78013210Y-104325338D01*
X78013209Y-104325337D01*
X78013208Y-104325335D01*
X77885658Y-104197785D01*
X77823261Y-104158578D01*
X77732916Y-104101811D01*
X77562649Y-104042232D01*
X77562647Y-104042231D01*
X77562645Y-104042231D01*
X77383393Y-104022034D01*
X77204142Y-104042231D01*
X77204139Y-104042231D01*
X77204139Y-104042232D01*
X77033872Y-104101811D01*
X77033870Y-104101811D01*
X77033870Y-104101812D01*
X76881129Y-104197785D01*
X76753579Y-104325335D01*
X76657606Y-104478076D01*
X76657605Y-104478078D01*
X76616296Y-104596132D01*
X76598025Y-104648348D01*
X76577828Y-104827599D01*
X76598025Y-105006853D01*
X76624838Y-105083481D01*
X76628399Y-105153260D01*
X76612790Y-105190407D01*
X76560132Y-105274212D01*
X76512211Y-105350478D01*
X76452632Y-105520745D01*
X76452631Y-105520748D01*
X76432434Y-105700000D01*
X76025246Y-105700000D01*
X76001023Y-105630774D01*
X75905050Y-105478034D01*
X75905049Y-105478033D01*
X75905048Y-105478031D01*
X75777498Y-105350481D01*
X75656116Y-105274212D01*
X75624756Y-105254507D01*
X75454489Y-105194928D01*
X75454487Y-105194927D01*
X75454485Y-105194927D01*
X75275233Y-105174730D01*
X75095982Y-105194927D01*
X75095979Y-105194927D01*
X75095979Y-105194928D01*
X74925712Y-105254507D01*
X74925709Y-105254508D01*
X74925708Y-105254509D01*
X74764571Y-105355757D01*
X74697335Y-105374757D01*
X74684717Y-105373983D01*
X74548648Y-105358652D01*
X74367280Y-105379087D01*
X74298458Y-105367032D01*
X74287425Y-105360861D01*
X74227504Y-105323210D01*
X74149522Y-105274211D01*
X73979255Y-105214632D01*
X73979253Y-105214631D01*
X73979251Y-105214631D01*
X73800000Y-105194434D01*
X73620748Y-105214631D01*
X73620745Y-105214631D01*
X73620745Y-105214632D01*
X73450478Y-105274211D01*
X73450476Y-105274211D01*
X73450476Y-105274212D01*
X73297735Y-105370185D01*
X73170185Y-105497735D01*
X73074208Y-105650482D01*
X73072851Y-105654361D01*
X73032127Y-105711135D01*
X72967172Y-105736879D01*
X72914858Y-105730442D01*
X72799655Y-105690131D01*
X72620403Y-105669934D01*
X72441151Y-105690131D01*
X72441148Y-105690131D01*
X72441148Y-105690132D01*
X72270881Y-105749711D01*
X72270879Y-105749711D01*
X72270879Y-105749712D01*
X72118138Y-105845685D01*
X71990588Y-105973235D01*
X71894615Y-106125976D01*
X71894614Y-106125978D01*
X71861454Y-106220745D01*
X71835034Y-106296248D01*
X71814837Y-106475499D01*
X71816008Y-106485891D01*
X71803951Y-106554712D01*
X71780469Y-106587452D01*
X71670183Y-106697738D01*
X71590206Y-106825022D01*
X71574211Y-106850478D01*
X71514632Y-107020745D01*
X71514631Y-107020748D01*
X71494434Y-107199999D01*
X67349400Y-107199999D01*
X67479255Y-107185368D01*
X67649522Y-107125789D01*
X67802262Y-107029816D01*
X67929816Y-106902262D01*
X68025789Y-106749522D01*
X68085368Y-106579255D01*
X68105565Y-106400000D01*
X68085368Y-106220745D01*
X68025789Y-106050478D01*
X67929816Y-105897738D01*
X67929815Y-105897737D01*
X67929814Y-105897735D01*
X67802264Y-105770185D01*
X67739013Y-105730442D01*
X67649522Y-105674211D01*
X67479255Y-105614632D01*
X67479253Y-105614631D01*
X67479251Y-105614631D01*
X67299999Y-105594434D01*
X67120748Y-105614631D01*
X67120745Y-105614631D01*
X67120745Y-105614632D01*
X66950478Y-105674211D01*
X66950476Y-105674211D01*
X66950476Y-105674212D01*
X66797735Y-105770185D01*
X66670185Y-105897735D01*
X66574811Y-106049523D01*
X66574211Y-106050478D01*
X66521099Y-106202264D01*
X66514631Y-106220748D01*
X66494434Y-106400000D01*
X56337659Y-106400000D01*
X56355157Y-106200000D01*
X56334569Y-105964681D01*
X56273430Y-105736507D01*
X56173599Y-105522421D01*
X56114926Y-105438626D01*
X56114925Y-105438625D01*
X55483076Y-106070474D01*
X55459493Y-105990156D01*
X55381761Y-105869202D01*
X55273100Y-105775048D01*
X55142315Y-105715320D01*
X55132533Y-105713913D01*
X55761373Y-105085073D01*
X55761373Y-105085072D01*
X55685405Y-105031880D01*
X55641780Y-104977304D01*
X55634586Y-104907805D01*
X55666108Y-104845451D01*
X55685399Y-104828734D01*
X55871401Y-104698495D01*
X56038495Y-104531401D01*
X56130503Y-104400000D01*
X60394659Y-104400000D01*
X60413976Y-104596133D01*
X60471185Y-104784726D01*
X60523878Y-104883307D01*
X60564090Y-104958538D01*
X60689117Y-105110883D01*
X60841462Y-105235910D01*
X61015273Y-105328814D01*
X61203868Y-105386024D01*
X61400000Y-105405341D01*
X61596132Y-105386024D01*
X61784727Y-105328814D01*
X61958538Y-105235910D01*
X62110883Y-105110883D01*
X62235910Y-104958538D01*
X62328814Y-104784727D01*
X62386024Y-104596132D01*
X62405341Y-104400000D01*
X62386024Y-104203868D01*
X62328814Y-104015273D01*
X62235910Y-103841462D01*
X62110883Y-103689117D01*
X61958538Y-103564090D01*
X61897950Y-103531705D01*
X61784726Y-103471185D01*
X61596133Y-103413976D01*
X61400000Y-103394659D01*
X61203866Y-103413976D01*
X61015273Y-103471185D01*
X60841463Y-103564089D01*
X60689117Y-103689117D01*
X60564089Y-103841463D01*
X60471185Y-104015273D01*
X60413976Y-104203866D01*
X60394659Y-104400000D01*
X56130503Y-104400000D01*
X56174035Y-104337830D01*
X56273903Y-104123663D01*
X56335063Y-103895408D01*
X56355659Y-103660000D01*
X56341865Y-103502343D01*
X56335063Y-103424592D01*
X56328055Y-103398438D01*
X56273903Y-103196337D01*
X56174035Y-102982171D01*
X56038495Y-102788599D01*
X55871401Y-102621505D01*
X55840689Y-102600000D01*
X75794434Y-102600000D01*
X75814631Y-102779251D01*
X75814631Y-102779253D01*
X75814632Y-102779255D01*
X75874211Y-102949522D01*
X75874212Y-102949523D01*
X75970185Y-103102264D01*
X76097735Y-103229814D01*
X76097737Y-103229815D01*
X76097738Y-103229816D01*
X76250478Y-103325789D01*
X76420745Y-103385368D01*
X76536746Y-103398438D01*
X76599999Y-103405565D01*
X76599999Y-103405564D01*
X76600000Y-103405565D01*
X76709828Y-103393190D01*
X76778649Y-103405244D01*
X76811393Y-103428729D01*
X76818396Y-103435732D01*
X76818398Y-103435733D01*
X76818399Y-103435734D01*
X76971139Y-103531707D01*
X77141406Y-103591286D01*
X77271971Y-103605997D01*
X77320660Y-103611483D01*
X77320660Y-103611482D01*
X77320661Y-103611483D01*
X77499916Y-103591286D01*
X77670183Y-103531707D01*
X77822923Y-103435734D01*
X77950477Y-103308180D01*
X77967378Y-103281281D01*
X78019711Y-103234991D01*
X78088764Y-103224341D01*
X78152613Y-103252715D01*
X78190986Y-103311104D01*
X78195592Y-103333369D01*
X78214631Y-103502338D01*
X78214631Y-103502339D01*
X78214632Y-103502343D01*
X78274211Y-103672610D01*
X78274212Y-103672611D01*
X78370185Y-103825352D01*
X78497735Y-103952902D01*
X78497737Y-103952903D01*
X78497738Y-103952904D01*
X78650478Y-104048877D01*
X78820745Y-104108456D01*
X79000000Y-104128653D01*
X79179255Y-104108456D01*
X79349522Y-104048877D01*
X79502262Y-103952904D01*
X79629816Y-103825350D01*
X79725789Y-103672610D01*
X79785368Y-103502343D01*
X79805565Y-103323088D01*
X79805565Y-103323087D01*
X81191862Y-103323087D01*
X81212059Y-103502339D01*
X81212059Y-103502341D01*
X81212060Y-103502343D01*
X81271639Y-103672610D01*
X81271640Y-103672611D01*
X81367613Y-103825352D01*
X81495163Y-103952902D01*
X81495165Y-103952903D01*
X81495166Y-103952904D01*
X81647906Y-104048877D01*
X81818173Y-104108456D01*
X81997428Y-104128653D01*
X82176683Y-104108456D01*
X82346950Y-104048877D01*
X82499690Y-103952904D01*
X82627244Y-103825350D01*
X82627245Y-103825347D01*
X82635089Y-103817504D01*
X82696412Y-103784019D01*
X82766104Y-103789003D01*
X82788743Y-103800191D01*
X82835426Y-103829524D01*
X83005693Y-103889103D01*
X83184948Y-103909300D01*
X83364203Y-103889103D01*
X83534470Y-103829524D01*
X83687210Y-103733551D01*
X83814764Y-103605997D01*
X83910737Y-103453257D01*
X83910738Y-103453254D01*
X83916094Y-103444730D01*
X83968428Y-103398438D01*
X84037481Y-103387789D01*
X84101330Y-103416164D01*
X84130446Y-103452247D01*
X84159989Y-103507518D01*
X84285016Y-103659863D01*
X84437361Y-103784890D01*
X84611172Y-103877794D01*
X84799767Y-103935004D01*
X84995899Y-103954321D01*
X85192031Y-103935004D01*
X85380626Y-103877794D01*
X85554437Y-103784890D01*
X85706782Y-103659863D01*
X85831809Y-103507518D01*
X85924713Y-103333707D01*
X85981923Y-103145112D01*
X86001240Y-102948980D01*
X85981923Y-102752848D01*
X85924713Y-102564253D01*
X85831809Y-102390442D01*
X85706782Y-102238097D01*
X85554437Y-102113070D01*
X85492809Y-102080129D01*
X85380625Y-102020165D01*
X85192032Y-101962956D01*
X84995899Y-101943639D01*
X84799765Y-101962956D01*
X84611172Y-102020165D01*
X84437362Y-102113069D01*
X84285016Y-102238097D01*
X84159988Y-102390443D01*
X84067085Y-102564252D01*
X84056269Y-102599908D01*
X84017971Y-102658346D01*
X83954159Y-102686802D01*
X83885092Y-102676241D01*
X83832699Y-102630016D01*
X83832615Y-102629882D01*
X83814764Y-102601472D01*
X83687212Y-102473920D01*
X83602584Y-102420745D01*
X83534470Y-102377946D01*
X83364203Y-102318367D01*
X83364201Y-102318366D01*
X83364199Y-102318366D01*
X83184947Y-102298169D01*
X83005696Y-102318366D01*
X83005693Y-102318366D01*
X83005693Y-102318367D01*
X82835426Y-102377946D01*
X82835424Y-102377946D01*
X82835424Y-102377947D01*
X82682683Y-102473920D01*
X82547285Y-102609319D01*
X82485962Y-102642804D01*
X82416270Y-102637820D01*
X82393633Y-102626632D01*
X82353593Y-102601473D01*
X82346952Y-102597300D01*
X82346951Y-102597299D01*
X82346950Y-102597299D01*
X82176683Y-102537720D01*
X82176681Y-102537719D01*
X82176679Y-102537719D01*
X81997428Y-102517522D01*
X81818176Y-102537719D01*
X81818173Y-102537719D01*
X81818173Y-102537720D01*
X81647906Y-102597299D01*
X81647904Y-102597299D01*
X81647904Y-102597300D01*
X81495163Y-102693273D01*
X81367613Y-102820823D01*
X81287087Y-102948980D01*
X81271639Y-102973566D01*
X81268628Y-102982171D01*
X81212059Y-103143836D01*
X81191862Y-103323087D01*
X79805565Y-103323087D01*
X79785368Y-103143833D01*
X79725789Y-102973566D01*
X79629816Y-102820826D01*
X79629815Y-102820825D01*
X79629814Y-102820823D01*
X79502264Y-102693273D01*
X79396254Y-102626663D01*
X79349522Y-102597299D01*
X79179255Y-102537720D01*
X79179253Y-102537719D01*
X79179251Y-102537719D01*
X79000000Y-102517522D01*
X78820748Y-102537719D01*
X78820745Y-102537719D01*
X78820745Y-102537720D01*
X78650478Y-102597299D01*
X78650476Y-102597299D01*
X78650476Y-102597300D01*
X78497735Y-102693273D01*
X78370183Y-102820825D01*
X78353281Y-102847725D01*
X78300946Y-102894016D01*
X78231892Y-102904663D01*
X78168044Y-102876287D01*
X78129673Y-102817897D01*
X78125068Y-102795636D01*
X78109599Y-102658346D01*
X78106029Y-102626663D01*
X78046450Y-102456396D01*
X77950477Y-102303656D01*
X77950476Y-102303655D01*
X77950475Y-102303653D01*
X77822925Y-102176103D01*
X77722608Y-102113070D01*
X77670183Y-102080129D01*
X77499916Y-102020550D01*
X77499914Y-102020549D01*
X77499912Y-102020549D01*
X77320660Y-102000352D01*
X77210830Y-102012727D01*
X77142008Y-102000672D01*
X77109266Y-101977188D01*
X77102262Y-101970184D01*
X76949522Y-101874211D01*
X76779255Y-101814632D01*
X76779253Y-101814631D01*
X76779251Y-101814631D01*
X76599999Y-101794434D01*
X76420748Y-101814631D01*
X76420745Y-101814631D01*
X76420745Y-101814632D01*
X76250478Y-101874211D01*
X76250476Y-101874211D01*
X76250476Y-101874212D01*
X76097735Y-101970185D01*
X75970185Y-102097735D01*
X75874212Y-102250476D01*
X75874211Y-102250478D01*
X75825235Y-102390443D01*
X75814631Y-102420748D01*
X75794434Y-102600000D01*
X55840689Y-102600000D01*
X55677830Y-102485965D01*
X55463663Y-102386097D01*
X55402502Y-102369709D01*
X55235407Y-102324936D01*
X55000000Y-102304340D01*
X54764592Y-102324936D01*
X54536336Y-102386097D01*
X54322170Y-102485965D01*
X54128598Y-102621505D01*
X53961505Y-102788598D01*
X53825965Y-102982170D01*
X53726097Y-103196336D01*
X53664936Y-103424592D01*
X53644340Y-103660000D01*
X52700500Y-103660000D01*
X52700500Y-100150000D01*
X53200000Y-100150000D01*
X53200000Y-100444518D01*
X53200354Y-100451132D01*
X53206400Y-100507371D01*
X53256647Y-100642089D01*
X53342811Y-100757188D01*
X53457910Y-100843352D01*
X53592628Y-100893599D01*
X53648867Y-100899645D01*
X53655482Y-100900000D01*
X53950000Y-100900000D01*
X53950000Y-100150000D01*
X53200000Y-100150000D01*
X52700500Y-100150000D01*
X52700500Y-98650000D01*
X53194659Y-98650000D01*
X53213975Y-98846129D01*
X53213976Y-98846132D01*
X53271186Y-99034727D01*
X53271187Y-99034730D01*
X53274732Y-99046414D01*
X53270906Y-99047574D01*
X53280586Y-99094082D01*
X53262783Y-99141171D01*
X53262878Y-99141207D01*
X53206400Y-99292628D01*
X53200354Y-99348867D01*
X53200000Y-99355481D01*
X53200000Y-99650000D01*
X54139679Y-99650000D01*
X54151832Y-99650596D01*
X54165571Y-99651950D01*
X54102455Y-99664505D01*
X54019760Y-99719760D01*
X53964505Y-99802455D01*
X53945102Y-99900000D01*
X53964505Y-99997545D01*
X54019760Y-100080240D01*
X54102455Y-100135495D01*
X54175376Y-100150000D01*
X54224624Y-100150000D01*
X54450000Y-100150000D01*
X54450000Y-100900000D01*
X54744518Y-100900000D01*
X54751132Y-100899645D01*
X54807371Y-100893599D01*
X54942089Y-100843352D01*
X55057188Y-100757188D01*
X55143352Y-100642089D01*
X55193599Y-100507371D01*
X55199645Y-100451132D01*
X55200000Y-100444518D01*
X55200000Y-100150000D01*
X54450000Y-100150000D01*
X54224624Y-100150000D01*
X54297545Y-100135495D01*
X54380240Y-100080240D01*
X54435495Y-99997545D01*
X54454898Y-99900000D01*
X54435495Y-99802455D01*
X54380240Y-99719760D01*
X54350667Y-99700000D01*
X60694540Y-99700000D01*
X60714326Y-99888257D01*
X60772820Y-100068284D01*
X60867466Y-100232216D01*
X60994129Y-100372889D01*
X61147269Y-100484151D01*
X61320197Y-100561144D01*
X61505352Y-100600500D01*
X61505354Y-100600500D01*
X61694648Y-100600500D01*
X61818083Y-100574262D01*
X61879803Y-100561144D01*
X62052730Y-100484151D01*
X62205871Y-100372888D01*
X62271500Y-100300000D01*
X75294434Y-100300000D01*
X75314631Y-100479251D01*
X75314631Y-100479253D01*
X75314632Y-100479255D01*
X75374211Y-100649522D01*
X75416018Y-100716058D01*
X75470185Y-100802264D01*
X75597735Y-100929814D01*
X75597737Y-100929815D01*
X75597738Y-100929816D01*
X75750478Y-101025789D01*
X75920745Y-101085368D01*
X76055186Y-101100515D01*
X76099999Y-101105565D01*
X76099999Y-101105564D01*
X76100000Y-101105565D01*
X76279255Y-101085368D01*
X76449522Y-101025789D01*
X76602262Y-100929816D01*
X76611980Y-100920096D01*
X76673301Y-100886611D01*
X76713546Y-100884557D01*
X76900000Y-100905565D01*
X77079255Y-100885368D01*
X77249522Y-100825789D01*
X77315754Y-100784172D01*
X77382989Y-100765172D01*
X77449824Y-100785539D01*
X77469406Y-100801485D01*
X77597735Y-100929814D01*
X77597737Y-100929815D01*
X77597738Y-100929816D01*
X77750478Y-101025789D01*
X77920745Y-101085368D01*
X78100000Y-101105565D01*
X78279255Y-101085368D01*
X78449522Y-101025789D01*
X78602262Y-100929816D01*
X78729816Y-100802262D01*
X78794072Y-100700000D01*
X81294434Y-100700000D01*
X81314631Y-100879251D01*
X81314631Y-100879253D01*
X81314632Y-100879255D01*
X81374211Y-101049522D01*
X81374212Y-101049523D01*
X81470185Y-101202264D01*
X81597735Y-101329814D01*
X81597737Y-101329815D01*
X81597738Y-101329816D01*
X81750478Y-101425789D01*
X81920745Y-101485368D01*
X82055186Y-101500515D01*
X82099999Y-101505565D01*
X82099999Y-101505564D01*
X82100000Y-101505565D01*
X82279255Y-101485368D01*
X82449522Y-101425789D01*
X82602262Y-101329816D01*
X82729816Y-101202262D01*
X82825789Y-101049522D01*
X82885368Y-100879255D01*
X82905565Y-100700000D01*
X82885368Y-100520745D01*
X82825789Y-100350478D01*
X82729816Y-100197738D01*
X82729815Y-100197737D01*
X82729814Y-100197735D01*
X82602264Y-100070185D01*
X82531605Y-100025787D01*
X82449522Y-99974211D01*
X82279255Y-99914632D01*
X82279253Y-99914631D01*
X82279251Y-99914631D01*
X82100000Y-99894434D01*
X81920748Y-99914631D01*
X81920745Y-99914631D01*
X81920745Y-99914632D01*
X81750478Y-99974211D01*
X81750476Y-99974211D01*
X81750476Y-99974212D01*
X81597735Y-100070185D01*
X81470185Y-100197735D01*
X81405929Y-100299999D01*
X81374211Y-100350478D01*
X81366369Y-100372889D01*
X81314631Y-100520748D01*
X81294434Y-100700000D01*
X78794072Y-100700000D01*
X78825789Y-100649522D01*
X78885368Y-100479255D01*
X78905565Y-100300000D01*
X78885368Y-100120745D01*
X78825789Y-99950478D01*
X78729816Y-99797738D01*
X78729815Y-99797737D01*
X78729814Y-99797735D01*
X78602264Y-99670185D01*
X78486965Y-99597738D01*
X78449522Y-99574211D01*
X78279255Y-99514632D01*
X78279253Y-99514631D01*
X78279251Y-99514631D01*
X78099999Y-99494434D01*
X77920748Y-99514631D01*
X77920745Y-99514631D01*
X77920745Y-99514632D01*
X77750478Y-99574211D01*
X77750475Y-99574212D01*
X77750474Y-99574213D01*
X77684245Y-99615827D01*
X77617009Y-99634827D01*
X77550173Y-99614459D01*
X77530593Y-99598514D01*
X77402264Y-99470185D01*
X77294165Y-99402262D01*
X77249522Y-99374211D01*
X77079255Y-99314632D01*
X77079253Y-99314631D01*
X77079251Y-99314631D01*
X76900000Y-99294434D01*
X76720748Y-99314631D01*
X76720745Y-99314631D01*
X76720745Y-99314632D01*
X76550478Y-99374211D01*
X76550476Y-99374211D01*
X76550476Y-99374212D01*
X76397735Y-99470185D01*
X76388012Y-99479908D01*
X76326687Y-99513390D01*
X76286452Y-99515442D01*
X76100000Y-99494434D01*
X75920748Y-99514631D01*
X75920745Y-99514631D01*
X75920745Y-99514632D01*
X75750478Y-99574211D01*
X75750476Y-99574211D01*
X75750476Y-99574212D01*
X75597735Y-99670185D01*
X75470185Y-99797735D01*
X75374212Y-99950476D01*
X75374211Y-99950478D01*
X75365906Y-99974212D01*
X75314631Y-100120748D01*
X75294434Y-100300000D01*
X62271500Y-100300000D01*
X62332533Y-100232216D01*
X62427179Y-100068284D01*
X62485674Y-99888256D01*
X62505460Y-99700000D01*
X62485674Y-99511744D01*
X62427179Y-99331716D01*
X62427179Y-99331715D01*
X62332533Y-99167783D01*
X62205870Y-99027110D01*
X62168556Y-99000000D01*
X66494540Y-99000000D01*
X66514326Y-99188257D01*
X66572820Y-99368284D01*
X66667466Y-99532216D01*
X66794129Y-99672889D01*
X66947269Y-99784151D01*
X67120197Y-99861144D01*
X67305352Y-99900500D01*
X67305354Y-99900500D01*
X67494648Y-99900500D01*
X67618083Y-99874262D01*
X67679803Y-99861144D01*
X67852730Y-99784151D01*
X67960895Y-99705565D01*
X68005870Y-99672889D01*
X68026480Y-99650000D01*
X68132533Y-99532216D01*
X68227179Y-99368284D01*
X68285674Y-99188256D01*
X68305460Y-99000000D01*
X68285674Y-98811744D01*
X68249366Y-98699999D01*
X68227179Y-98631715D01*
X68191753Y-98570355D01*
X68977142Y-98570355D01*
X68996928Y-98758612D01*
X69055422Y-98938639D01*
X69150068Y-99102571D01*
X69276731Y-99243244D01*
X69429871Y-99354506D01*
X69602799Y-99431499D01*
X69787954Y-99470855D01*
X69787956Y-99470855D01*
X69977250Y-99470855D01*
X70100686Y-99444617D01*
X70162405Y-99431499D01*
X70335332Y-99354506D01*
X70390214Y-99314632D01*
X70488472Y-99243244D01*
X70522399Y-99205565D01*
X70615135Y-99102571D01*
X70709781Y-98938639D01*
X70768276Y-98758611D01*
X70788062Y-98570355D01*
X70770157Y-98400000D01*
X76894434Y-98400000D01*
X76914631Y-98579251D01*
X76914631Y-98579253D01*
X76914632Y-98579255D01*
X76974211Y-98749522D01*
X77013308Y-98811744D01*
X77070185Y-98902264D01*
X77197735Y-99029814D01*
X77197737Y-99029815D01*
X77197738Y-99029816D01*
X77350478Y-99125789D01*
X77520745Y-99185368D01*
X77655186Y-99200515D01*
X77699999Y-99205565D01*
X77699999Y-99205564D01*
X77700000Y-99205565D01*
X77879255Y-99185368D01*
X78049522Y-99125789D01*
X78202262Y-99029816D01*
X78329816Y-98902262D01*
X78425789Y-98749522D01*
X78443118Y-98699999D01*
X79894434Y-98699999D01*
X79914631Y-98879251D01*
X79914631Y-98879253D01*
X79914632Y-98879255D01*
X79974211Y-99049522D01*
X80018965Y-99120748D01*
X80070185Y-99202264D01*
X80197735Y-99329814D01*
X80197737Y-99329815D01*
X80197738Y-99329816D01*
X80350478Y-99425789D01*
X80520745Y-99485368D01*
X80700000Y-99505565D01*
X80879255Y-99485368D01*
X81049522Y-99425789D01*
X81202262Y-99329816D01*
X81232078Y-99300000D01*
X83394434Y-99300000D01*
X83414631Y-99479251D01*
X83414631Y-99479253D01*
X83414632Y-99479255D01*
X83474211Y-99649522D01*
X83509425Y-99705565D01*
X83570185Y-99802264D01*
X83697735Y-99929814D01*
X83697737Y-99929815D01*
X83697738Y-99929816D01*
X83850478Y-100025789D01*
X84020745Y-100085368D01*
X84155186Y-100100515D01*
X84199999Y-100105565D01*
X84199999Y-100105564D01*
X84200000Y-100105565D01*
X84379255Y-100085368D01*
X84549522Y-100025789D01*
X84702262Y-99929816D01*
X84829816Y-99802262D01*
X84925789Y-99649522D01*
X84962132Y-99545657D01*
X85002853Y-99488884D01*
X85067805Y-99463136D01*
X85136367Y-99476592D01*
X85166854Y-99498933D01*
X85197735Y-99529814D01*
X85197737Y-99529815D01*
X85197738Y-99529816D01*
X85350478Y-99625789D01*
X85520745Y-99685368D01*
X85650609Y-99700000D01*
X85699999Y-99705565D01*
X85699999Y-99705564D01*
X85700000Y-99705565D01*
X85879255Y-99685368D01*
X86049522Y-99625789D01*
X86202262Y-99529816D01*
X86329816Y-99402262D01*
X86425789Y-99249522D01*
X86485368Y-99079255D01*
X86505565Y-98900000D01*
X86485368Y-98720745D01*
X86425789Y-98550478D01*
X86329816Y-98397738D01*
X86329815Y-98397737D01*
X86329814Y-98397735D01*
X86202264Y-98270185D01*
X86086960Y-98197735D01*
X86049522Y-98174211D01*
X85879255Y-98114632D01*
X85879253Y-98114631D01*
X85879251Y-98114631D01*
X85699999Y-98094434D01*
X85520748Y-98114631D01*
X85520745Y-98114631D01*
X85520745Y-98114632D01*
X85350478Y-98174211D01*
X85350476Y-98174211D01*
X85350476Y-98174212D01*
X85197735Y-98270185D01*
X85070185Y-98397735D01*
X84974209Y-98550480D01*
X84937867Y-98654340D01*
X84897145Y-98711116D01*
X84832192Y-98736863D01*
X84763631Y-98723406D01*
X84733145Y-98701066D01*
X84702264Y-98670185D01*
X84557543Y-98579251D01*
X84549522Y-98574211D01*
X84379255Y-98514632D01*
X84379253Y-98514631D01*
X84379251Y-98514631D01*
X84199999Y-98494434D01*
X84020748Y-98514631D01*
X84020745Y-98514631D01*
X84020745Y-98514632D01*
X83850478Y-98574211D01*
X83850476Y-98574211D01*
X83850476Y-98574212D01*
X83697735Y-98670185D01*
X83570185Y-98797735D01*
X83481650Y-98938639D01*
X83474211Y-98950478D01*
X83440236Y-99047574D01*
X83414631Y-99120748D01*
X83394434Y-99300000D01*
X81232078Y-99300000D01*
X81329816Y-99202262D01*
X81425789Y-99049522D01*
X81485368Y-98879255D01*
X81505565Y-98700000D01*
X81485368Y-98520745D01*
X81425789Y-98350478D01*
X81329816Y-98197738D01*
X81329815Y-98197737D01*
X81329814Y-98197735D01*
X81202264Y-98070185D01*
X81139867Y-98030979D01*
X81049522Y-97974211D01*
X80879255Y-97914632D01*
X80879253Y-97914631D01*
X80879251Y-97914631D01*
X80699999Y-97894434D01*
X80520748Y-97914631D01*
X80520745Y-97914631D01*
X80520745Y-97914632D01*
X80350478Y-97974211D01*
X80350476Y-97974211D01*
X80350476Y-97974212D01*
X80197735Y-98070185D01*
X80070185Y-98197735D01*
X79974212Y-98350476D01*
X79974211Y-98350478D01*
X79957675Y-98397735D01*
X79914631Y-98520748D01*
X79894434Y-98699999D01*
X78443118Y-98699999D01*
X78485368Y-98579255D01*
X78505565Y-98400000D01*
X78485368Y-98220745D01*
X78425789Y-98050478D01*
X78329816Y-97897738D01*
X78329815Y-97897737D01*
X78329814Y-97897735D01*
X78202264Y-97770185D01*
X78105224Y-97709211D01*
X78049522Y-97674211D01*
X77879255Y-97614632D01*
X77879253Y-97614631D01*
X77879251Y-97614631D01*
X77699999Y-97594434D01*
X77520748Y-97614631D01*
X77520745Y-97614631D01*
X77520745Y-97614632D01*
X77350478Y-97674211D01*
X77350476Y-97674211D01*
X77350476Y-97674212D01*
X77197735Y-97770185D01*
X77070185Y-97897735D01*
X76981964Y-98038139D01*
X76974211Y-98050478D01*
X76921167Y-98202070D01*
X76914631Y-98220748D01*
X76894434Y-98400000D01*
X70770157Y-98400000D01*
X70768276Y-98382099D01*
X70714258Y-98215849D01*
X70709781Y-98202070D01*
X70615135Y-98038138D01*
X70488472Y-97897465D01*
X70335332Y-97786203D01*
X70162404Y-97709210D01*
X69977250Y-97669855D01*
X69977248Y-97669855D01*
X69787956Y-97669855D01*
X69787954Y-97669855D01*
X69602799Y-97709210D01*
X69429871Y-97786203D01*
X69276731Y-97897465D01*
X69150068Y-98038138D01*
X69055422Y-98202070D01*
X68996928Y-98382097D01*
X68977142Y-98570355D01*
X68191753Y-98570355D01*
X68132533Y-98467783D01*
X68005870Y-98327110D01*
X67852730Y-98215848D01*
X67679802Y-98138855D01*
X67494648Y-98099500D01*
X67494646Y-98099500D01*
X67305354Y-98099500D01*
X67305352Y-98099500D01*
X67120197Y-98138855D01*
X66947269Y-98215848D01*
X66794129Y-98327110D01*
X66667466Y-98467783D01*
X66572820Y-98631715D01*
X66514326Y-98811742D01*
X66494540Y-99000000D01*
X62168556Y-99000000D01*
X62052730Y-98915848D01*
X61879802Y-98838855D01*
X61694648Y-98799500D01*
X61694646Y-98799500D01*
X61505354Y-98799500D01*
X61505352Y-98799500D01*
X61320197Y-98838855D01*
X61147269Y-98915848D01*
X60994129Y-99027110D01*
X60867466Y-99167783D01*
X60772820Y-99331715D01*
X60714326Y-99511742D01*
X60694540Y-99700000D01*
X54350667Y-99700000D01*
X54297545Y-99664505D01*
X54234428Y-99651950D01*
X54248167Y-99650596D01*
X54260321Y-99650000D01*
X55200000Y-99650000D01*
X55200000Y-99355481D01*
X55199645Y-99348867D01*
X55193599Y-99292628D01*
X55137122Y-99141207D01*
X55137295Y-99141142D01*
X55119328Y-99092973D01*
X55129000Y-99047546D01*
X55125268Y-99046414D01*
X55128812Y-99034730D01*
X55128814Y-99034727D01*
X55186024Y-98846132D01*
X55205341Y-98650000D01*
X55186024Y-98453868D01*
X55128814Y-98265273D01*
X55035910Y-98091462D01*
X54910883Y-97939117D01*
X54758538Y-97814090D01*
X54676396Y-97770184D01*
X54584726Y-97721185D01*
X54396133Y-97663976D01*
X54298066Y-97654317D01*
X54200000Y-97644659D01*
X54199999Y-97644659D01*
X54003866Y-97663976D01*
X53815273Y-97721185D01*
X53641463Y-97814089D01*
X53489117Y-97939117D01*
X53364089Y-98091463D01*
X53271185Y-98265273D01*
X53213976Y-98453866D01*
X53194659Y-98650000D01*
X52700500Y-98650000D01*
X52700500Y-96731444D01*
X74095059Y-96731444D01*
X74115256Y-96910696D01*
X74115256Y-96910698D01*
X74115257Y-96910700D01*
X74174836Y-97080967D01*
X74174837Y-97080968D01*
X74270810Y-97233709D01*
X74398360Y-97361259D01*
X74398362Y-97361260D01*
X74398363Y-97361261D01*
X74551103Y-97457234D01*
X74721370Y-97516813D01*
X74900625Y-97537010D01*
X75079880Y-97516813D01*
X75250147Y-97457234D01*
X75402887Y-97361261D01*
X75530441Y-97233707D01*
X75626414Y-97080967D01*
X75685993Y-96910700D01*
X75706190Y-96731445D01*
X75702647Y-96700000D01*
X82494434Y-96700000D01*
X82514631Y-96879251D01*
X82514631Y-96879253D01*
X82514632Y-96879255D01*
X82574211Y-97049522D01*
X82574212Y-97049523D01*
X82670185Y-97202264D01*
X82797735Y-97329814D01*
X82797737Y-97329815D01*
X82797738Y-97329816D01*
X82950478Y-97425789D01*
X83120745Y-97485368D01*
X83255186Y-97500515D01*
X83299999Y-97505565D01*
X83299999Y-97505564D01*
X83300000Y-97505565D01*
X83479255Y-97485368D01*
X83649522Y-97425789D01*
X83802262Y-97329816D01*
X83929816Y-97202262D01*
X84025789Y-97049522D01*
X84085368Y-96879255D01*
X84105565Y-96700000D01*
X84085368Y-96520745D01*
X84025789Y-96350478D01*
X84024502Y-96348429D01*
X85469934Y-96348429D01*
X85490131Y-96527681D01*
X85490131Y-96527683D01*
X85490132Y-96527685D01*
X85549711Y-96697952D01*
X85570756Y-96731445D01*
X85645685Y-96850694D01*
X85773235Y-96978244D01*
X85773237Y-96978245D01*
X85773238Y-96978246D01*
X85925978Y-97074219D01*
X86096245Y-97133798D01*
X86230686Y-97148945D01*
X86275499Y-97153995D01*
X86275499Y-97153994D01*
X86275500Y-97153995D01*
X86454755Y-97133798D01*
X86625022Y-97074219D01*
X86777762Y-96978246D01*
X86905316Y-96850692D01*
X87001289Y-96697952D01*
X87060868Y-96527685D01*
X87077740Y-96377939D01*
X87104806Y-96313526D01*
X87160003Y-96274783D01*
X87300020Y-96225789D01*
X87452760Y-96129816D01*
X87580314Y-96002262D01*
X87676287Y-95849522D01*
X87735866Y-95679255D01*
X87756063Y-95500000D01*
X87735866Y-95320745D01*
X87676287Y-95150478D01*
X87580314Y-94997738D01*
X87580313Y-94997737D01*
X87580312Y-94997735D01*
X87452762Y-94870185D01*
X87308041Y-94779251D01*
X87300020Y-94774211D01*
X87129753Y-94714632D01*
X87129751Y-94714631D01*
X87129749Y-94714631D01*
X86950498Y-94694434D01*
X86771246Y-94714631D01*
X86771243Y-94714631D01*
X86771243Y-94714632D01*
X86600976Y-94774211D01*
X86600974Y-94774211D01*
X86600974Y-94774212D01*
X86448233Y-94870185D01*
X86320683Y-94997735D01*
X86224710Y-95150476D01*
X86224709Y-95150478D01*
X86172390Y-95299999D01*
X86165129Y-95320749D01*
X86148257Y-95470490D01*
X86121190Y-95534904D01*
X86065992Y-95573647D01*
X85925980Y-95622639D01*
X85773235Y-95718615D01*
X85645685Y-95846165D01*
X85549712Y-95998906D01*
X85549711Y-95998908D01*
X85513767Y-96101630D01*
X85490131Y-96169178D01*
X85469934Y-96348429D01*
X84024502Y-96348429D01*
X83929816Y-96197738D01*
X83929815Y-96197737D01*
X83929814Y-96197735D01*
X83802264Y-96070185D01*
X83699566Y-96005656D01*
X83649522Y-95974211D01*
X83479255Y-95914632D01*
X83479253Y-95914631D01*
X83479251Y-95914631D01*
X83300000Y-95894434D01*
X83120748Y-95914631D01*
X83120745Y-95914631D01*
X83120745Y-95914632D01*
X82950478Y-95974211D01*
X82950476Y-95974211D01*
X82950476Y-95974212D01*
X82797735Y-96070185D01*
X82670185Y-96197735D01*
X82574212Y-96350476D01*
X82514631Y-96520748D01*
X82494434Y-96700000D01*
X75702647Y-96700000D01*
X75685993Y-96552190D01*
X75626414Y-96381923D01*
X75530441Y-96229183D01*
X75530440Y-96229182D01*
X75530439Y-96229180D01*
X75402889Y-96101630D01*
X75282185Y-96025787D01*
X75250147Y-96005656D01*
X75079880Y-95946077D01*
X75079878Y-95946076D01*
X75079876Y-95946076D01*
X74900625Y-95925879D01*
X74721373Y-95946076D01*
X74721370Y-95946076D01*
X74721370Y-95946077D01*
X74551103Y-96005656D01*
X74551101Y-96005656D01*
X74551101Y-96005657D01*
X74398360Y-96101630D01*
X74270810Y-96229180D01*
X74174837Y-96381921D01*
X74174836Y-96381923D01*
X74123833Y-96527681D01*
X74115256Y-96552193D01*
X74095059Y-96731444D01*
X52700500Y-96731444D01*
X52700500Y-93893794D01*
X52720185Y-93826755D01*
X52772989Y-93781000D01*
X52842147Y-93771056D01*
X52905703Y-93800081D01*
X52940126Y-93849000D01*
X52950392Y-93875500D01*
X52965701Y-93915017D01*
X53054373Y-94058228D01*
X53077948Y-94096302D01*
X53195293Y-94225023D01*
X53221594Y-94253873D01*
X53391747Y-94382368D01*
X53581827Y-94477014D01*
X53582611Y-94477405D01*
X53689099Y-94507704D01*
X53787689Y-94535756D01*
X53802361Y-94537115D01*
X53946806Y-94550500D01*
X53949678Y-94550500D01*
X54050322Y-94550500D01*
X54053194Y-94550500D01*
X54212310Y-94535756D01*
X54417389Y-94477405D01*
X54531179Y-94420745D01*
X54608252Y-94382368D01*
X54608255Y-94382366D01*
X54778407Y-94253872D01*
X54922052Y-94096302D01*
X55034298Y-93915019D01*
X55111321Y-93716198D01*
X55150500Y-93506610D01*
X55150500Y-93293390D01*
X55111321Y-93083802D01*
X55034298Y-92884981D01*
X54922052Y-92703698D01*
X54778407Y-92546128D01*
X54778406Y-92546127D01*
X54778405Y-92546126D01*
X54608252Y-92417631D01*
X54417390Y-92322595D01*
X54212310Y-92264243D01*
X54096049Y-92253471D01*
X54031112Y-92227685D01*
X53999194Y-92183128D01*
X53978330Y-92219503D01*
X53916317Y-92251693D01*
X53903950Y-92253471D01*
X53787689Y-92264243D01*
X53582609Y-92322595D01*
X53391747Y-92417631D01*
X53221594Y-92546126D01*
X53077947Y-92703698D01*
X52965702Y-92884980D01*
X52940127Y-92950999D01*
X52897554Y-93006400D01*
X52831787Y-93029991D01*
X52763707Y-93014280D01*
X52714928Y-92964256D01*
X52700500Y-92906205D01*
X52700500Y-91353794D01*
X52720185Y-91286755D01*
X52772989Y-91241000D01*
X52842147Y-91231056D01*
X52905703Y-91260081D01*
X52940126Y-91309000D01*
X52965702Y-91375019D01*
X52975745Y-91391239D01*
X53077947Y-91556301D01*
X53221594Y-91713873D01*
X53391747Y-91842368D01*
X53555557Y-91923934D01*
X53582611Y-91937405D01*
X53706132Y-91972550D01*
X53787689Y-91995756D01*
X53903950Y-92006529D01*
X53968887Y-92032315D01*
X54000804Y-92076871D01*
X54021669Y-92040497D01*
X54083682Y-92008307D01*
X54096049Y-92006529D01*
X54212310Y-91995756D01*
X54225757Y-91991930D01*
X54417389Y-91937405D01*
X54521862Y-91885384D01*
X54608252Y-91842368D01*
X54608255Y-91842366D01*
X54778407Y-91713872D01*
X54922052Y-91556302D01*
X55034298Y-91375019D01*
X55111321Y-91176198D01*
X55150500Y-90966610D01*
X55150500Y-90753390D01*
X55111321Y-90543802D01*
X55034298Y-90344981D01*
X54922052Y-90163698D01*
X54778407Y-90006128D01*
X54778406Y-90006127D01*
X54778405Y-90006126D01*
X54608252Y-89877631D01*
X54417390Y-89782595D01*
X54212310Y-89724243D01*
X54096049Y-89713471D01*
X54031112Y-89687685D01*
X53999194Y-89643128D01*
X53978330Y-89679503D01*
X53916317Y-89711693D01*
X53903950Y-89713471D01*
X53787689Y-89724243D01*
X53582609Y-89782595D01*
X53391747Y-89877631D01*
X53221594Y-90006126D01*
X53077947Y-90163698D01*
X52965702Y-90344980D01*
X52952426Y-90379251D01*
X52940428Y-90410223D01*
X52940127Y-90410999D01*
X52897554Y-90466400D01*
X52831787Y-90489991D01*
X52763707Y-90474280D01*
X52714928Y-90424256D01*
X52700500Y-90366205D01*
X52700500Y-88813794D01*
X52720185Y-88746755D01*
X52772989Y-88701000D01*
X52842147Y-88691056D01*
X52905703Y-88720081D01*
X52940126Y-88769000D01*
X52950012Y-88794518D01*
X52965701Y-88835017D01*
X53077947Y-89016301D01*
X53221594Y-89173873D01*
X53391747Y-89302368D01*
X53561640Y-89386963D01*
X53582611Y-89397405D01*
X53643157Y-89414632D01*
X53787689Y-89455756D01*
X53903950Y-89466529D01*
X53968887Y-89492315D01*
X54000804Y-89536871D01*
X54021669Y-89500497D01*
X54083682Y-89468307D01*
X54096049Y-89466529D01*
X54212310Y-89455756D01*
X54230867Y-89450476D01*
X54417389Y-89397405D01*
X54512430Y-89350080D01*
X54608252Y-89302368D01*
X54625268Y-89289518D01*
X54778407Y-89173872D01*
X54922052Y-89016302D01*
X55034298Y-88835019D01*
X55111321Y-88636198D01*
X55150500Y-88426610D01*
X55150500Y-88213390D01*
X55111321Y-88003802D01*
X55034298Y-87804981D01*
X54922052Y-87623698D01*
X54778407Y-87466128D01*
X54778406Y-87466127D01*
X54778405Y-87466126D01*
X54608252Y-87337631D01*
X54417390Y-87242595D01*
X54212310Y-87184243D01*
X54056054Y-87169765D01*
X54056053Y-87169764D01*
X54053194Y-87169500D01*
X53946806Y-87169500D01*
X53943947Y-87169764D01*
X53943945Y-87169765D01*
X53787689Y-87184243D01*
X53582609Y-87242595D01*
X53391747Y-87337631D01*
X53221594Y-87466126D01*
X53077947Y-87623698D01*
X52965702Y-87804980D01*
X52940127Y-87870999D01*
X52897554Y-87926400D01*
X52831787Y-87949991D01*
X52763707Y-87934280D01*
X52714928Y-87884256D01*
X52700500Y-87826205D01*
X52700500Y-86059696D01*
X52702883Y-86035505D01*
X52714218Y-85978519D01*
X52732729Y-85933826D01*
X52759524Y-85893724D01*
X52793724Y-85859524D01*
X52833826Y-85832729D01*
X52878514Y-85814219D01*
X52935515Y-85802881D01*
X52959697Y-85800500D01*
X63381736Y-85800500D01*
X63448775Y-85820185D01*
G37*
%TD.AperFunction*%
%TD*%
M02*
