G04 #@! TF.FileFunction,Copper,L2,Bot,Signal*
%FSLAX46Y46*%
G04 Gerber Fmt 4.6, Leading zero omitted, Abs format (unit mm)*
G04 Created by KiCad (PCBNEW 4.0.6+dfsg1-1) date Sat Jan 27 12:23:12 2018*
%MOMM*%
%LPD*%
G01*
G04 APERTURE LIST*
%ADD10C,0.100000*%
%ADD11C,1.879600*%
%ADD12C,1.408000*%
%ADD13C,1.800000*%
%ADD14R,1.879600X1.879600*%
%ADD15C,3.200000*%
%ADD16R,0.840000X0.840000*%
%ADD17C,0.840000*%
%ADD18O,1.850000X0.850000*%
%ADD19R,1.000000X1.000000*%
%ADD20C,1.000000*%
%ADD21C,0.600000*%
%ADD22C,0.250000*%
%ADD23C,0.254000*%
G04 APERTURE END LIST*
D10*
D11*
X152200000Y-73600000D03*
X152200000Y-71060000D03*
X152200000Y-68520000D03*
X160800000Y-72100000D03*
X160800000Y-74640000D03*
X160800000Y-77180000D03*
X160800000Y-79720000D03*
X160800000Y-82260000D03*
D12*
X159430869Y-47524860D03*
X154506831Y-48393101D03*
D13*
X159946827Y-44692231D03*
X153053173Y-45907769D03*
D14*
X150500000Y-65000000D03*
D11*
X150500000Y-62460000D03*
X150500000Y-59920000D03*
X150500000Y-57380000D03*
X163700000Y-52200000D03*
D15*
X150700000Y-78000000D03*
X172200000Y-51400000D03*
D16*
X155700000Y-77500000D03*
D17*
X156700000Y-78150000D03*
X155700000Y-78800000D03*
X156700000Y-79450000D03*
X155700000Y-80100000D03*
D18*
X155920000Y-75225000D03*
X155920000Y-82375000D03*
D19*
X153700000Y-54500000D03*
D20*
X155750000Y-49600000D03*
D21*
X168000000Y-79500000D03*
X161900000Y-51050000D03*
X151050000Y-55450000D03*
X147850000Y-58650000D03*
X147900000Y-66700000D03*
X149450000Y-70150000D03*
X166500000Y-45150000D03*
X169700000Y-47900000D03*
X177100000Y-55050000D03*
X159500000Y-61000000D03*
X164964801Y-54900000D03*
X173700000Y-54900000D03*
X173700000Y-77800000D03*
X169300000Y-79550000D03*
X152700000Y-58400000D03*
X160100000Y-58400000D03*
X169300000Y-74600000D03*
X164100000Y-77000000D03*
X159400000Y-69500000D03*
X159400000Y-62450000D03*
X152074980Y-59939155D03*
X164700000Y-59900000D03*
X162400000Y-73700000D03*
X170500000Y-73700000D03*
X163100000Y-79600000D03*
X163100000Y-73000000D03*
X169200000Y-73000000D03*
X158500000Y-56200000D03*
X165500000Y-56200000D03*
X171800000Y-70600000D03*
X177100000Y-70600000D03*
X167375021Y-65505052D03*
X164074980Y-64400000D03*
X166649990Y-70400000D03*
X164074980Y-70400000D03*
X166300000Y-49300000D03*
X157825000Y-49050000D03*
X170600000Y-76400000D03*
X175000000Y-76300000D03*
X160100000Y-68400000D03*
X172600000Y-68400000D03*
X171800000Y-77100000D03*
X167025000Y-50400000D03*
X157200000Y-49575000D03*
D22*
X177100000Y-55050000D02*
X176800001Y-54750001D01*
X176800001Y-54750001D02*
X176749999Y-54750001D01*
X164964801Y-54900000D02*
X165700000Y-54900000D01*
X165700000Y-54900000D02*
X173700000Y-54900000D01*
X169300000Y-74600000D02*
X169250000Y-74650000D01*
X169250000Y-74650000D02*
X160810000Y-74650000D01*
X160810000Y-74650000D02*
X160800000Y-74640000D01*
X169300000Y-79550000D02*
X171050000Y-77800000D01*
X171050000Y-77800000D02*
X173700000Y-77800000D01*
X160100000Y-58400000D02*
X152700000Y-58400000D01*
X159400000Y-62450000D02*
X150510000Y-62450000D01*
X150510000Y-62450000D02*
X150500000Y-62460000D01*
X159400001Y-70000000D02*
X159400001Y-75111907D01*
X159400001Y-69799999D02*
X159400001Y-70000000D01*
X159400001Y-70000000D02*
X159400000Y-69924264D01*
X159400000Y-69924264D02*
X159400000Y-69500000D01*
X159400001Y-75111907D02*
X160203293Y-75915199D01*
X160203293Y-75915199D02*
X163015199Y-75915199D01*
X163015199Y-75915199D02*
X164100000Y-77000000D01*
X152114135Y-59900000D02*
X152074980Y-59939155D01*
X164700000Y-59900000D02*
X152114135Y-59900000D01*
X170500000Y-73700000D02*
X162400000Y-73700000D01*
X163100000Y-79600000D02*
X160920000Y-79600000D01*
X160920000Y-79600000D02*
X160800000Y-79720000D01*
X169200000Y-73000000D02*
X163100000Y-73000000D01*
X165500000Y-56200000D02*
X158500000Y-56200000D01*
X177100000Y-70600000D02*
X171800000Y-70600000D01*
X165180032Y-65505052D02*
X166950757Y-65505052D01*
X166950757Y-65505052D02*
X167375021Y-65505052D01*
X164074980Y-64400000D02*
X165180032Y-65505052D01*
X164074980Y-70400000D02*
X166649990Y-70400000D01*
X166050000Y-49050000D02*
X166300000Y-49300000D01*
X157825000Y-49050000D02*
X166050000Y-49050000D01*
X175000000Y-76300000D02*
X170700000Y-76300000D01*
X170700000Y-76300000D02*
X170600000Y-76400000D01*
X172600000Y-68400000D02*
X160100000Y-68400000D01*
X165525000Y-49925000D02*
X166000000Y-50400000D01*
X166000000Y-50400000D02*
X167025000Y-50400000D01*
X157550000Y-49925000D02*
X165525000Y-49925000D01*
X157550000Y-49925000D02*
X157200000Y-49575000D01*
D23*
G36*
X164772476Y-44414015D02*
X168635941Y-45628445D01*
X171714608Y-47685545D01*
X174819239Y-50286014D01*
X176876338Y-53364679D01*
X178749488Y-56955294D01*
X179471845Y-60586828D01*
X179828341Y-64620943D01*
X179105985Y-68252475D01*
X177891554Y-72115942D01*
X175834453Y-75194611D01*
X175553050Y-75530571D01*
X175530327Y-75507808D01*
X175186799Y-75365162D01*
X174814833Y-75364838D01*
X174471057Y-75506883D01*
X174437882Y-75540000D01*
X170967028Y-75540000D01*
X170786799Y-75465162D01*
X170414833Y-75464838D01*
X170071057Y-75606883D01*
X169807808Y-75869673D01*
X169665162Y-76213201D01*
X169664838Y-76585167D01*
X169806883Y-76928943D01*
X170069673Y-77192192D01*
X170413201Y-77334838D01*
X170440336Y-77334862D01*
X169160320Y-78614878D01*
X169114833Y-78614838D01*
X168771057Y-78756883D01*
X168507808Y-79019673D01*
X168365162Y-79363201D01*
X168364838Y-79735167D01*
X168506883Y-80078943D01*
X168769673Y-80342192D01*
X169113201Y-80484838D01*
X169485167Y-80485162D01*
X169828943Y-80343117D01*
X170092192Y-80080327D01*
X170234838Y-79736799D01*
X170234879Y-79689923D01*
X171364802Y-78560000D01*
X172843730Y-78560000D01*
X170155320Y-80356338D01*
X166955529Y-82025604D01*
X166323975Y-82277372D01*
X162933172Y-82951845D01*
X162199552Y-83016675D01*
X162386045Y-82510167D01*
X162361049Y-81884172D01*
X162169580Y-81421923D01*
X161908968Y-81330637D01*
X160979605Y-82260000D01*
X160993748Y-82274143D01*
X160814143Y-82453748D01*
X160800000Y-82439605D01*
X160785858Y-82453748D01*
X160606253Y-82274143D01*
X160620395Y-82260000D01*
X159691032Y-81330637D01*
X159430420Y-81421923D01*
X159213955Y-82009833D01*
X159238951Y-82635828D01*
X159430420Y-83098077D01*
X159691030Y-83189362D01*
X159637288Y-83243104D01*
X158899057Y-83308341D01*
X157291003Y-82988480D01*
X157429874Y-82780644D01*
X157510562Y-82375000D01*
X157429874Y-81969356D01*
X157200095Y-81625467D01*
X156856206Y-81395688D01*
X156450562Y-81315000D01*
X155389438Y-81315000D01*
X154983794Y-81395688D01*
X154639905Y-81625467D01*
X154410126Y-81969356D01*
X154345143Y-82296046D01*
X151404058Y-81371554D01*
X150596429Y-80831913D01*
X155147692Y-80831913D01*
X155174905Y-81038796D01*
X155574137Y-81168279D01*
X155992531Y-81135127D01*
X156225095Y-81038796D01*
X156252308Y-80831913D01*
X155700000Y-80279605D01*
X155147692Y-80831913D01*
X150596429Y-80831913D01*
X148325389Y-79314453D01*
X147284530Y-78442619D01*
X148464613Y-78442619D01*
X148804155Y-79264372D01*
X149432321Y-79893636D01*
X150253481Y-80234611D01*
X151142619Y-80235387D01*
X151774891Y-79974137D01*
X154631721Y-79974137D01*
X154664873Y-80392531D01*
X154761204Y-80625095D01*
X154968087Y-80652308D01*
X155520395Y-80100000D01*
X155506253Y-80085858D01*
X155685858Y-79906253D01*
X155700000Y-79920395D01*
X155714143Y-79906253D01*
X155770150Y-79962260D01*
X155805093Y-80046829D01*
X156101610Y-80343864D01*
X156138991Y-80359386D01*
X156431913Y-80652308D01*
X156638796Y-80625095D01*
X156677752Y-80504981D01*
X156908932Y-80505183D01*
X157296829Y-80344907D01*
X157593864Y-80048390D01*
X157754817Y-79660773D01*
X157755183Y-79241068D01*
X157594907Y-78853171D01*
X157541996Y-78800168D01*
X157593864Y-78748390D01*
X157754817Y-78360773D01*
X157755183Y-77941068D01*
X157594907Y-77553171D01*
X157298390Y-77256136D01*
X156910773Y-77095183D01*
X156767440Y-77095058D01*
X156767440Y-77080000D01*
X156723162Y-76844683D01*
X156584090Y-76628559D01*
X156371890Y-76483569D01*
X156120000Y-76432560D01*
X155280000Y-76432560D01*
X155044683Y-76476838D01*
X154828559Y-76615910D01*
X154683569Y-76828110D01*
X154632560Y-77080000D01*
X154632560Y-77920000D01*
X154676838Y-78155317D01*
X154767108Y-78295600D01*
X154645183Y-78589227D01*
X154644817Y-79008932D01*
X154805093Y-79396829D01*
X154957131Y-79549133D01*
X154761204Y-79574905D01*
X154631721Y-79974137D01*
X151774891Y-79974137D01*
X151964372Y-79895845D01*
X152593636Y-79267679D01*
X152934611Y-78446519D01*
X152935387Y-77557381D01*
X152595845Y-76735628D01*
X151967679Y-76106364D01*
X151146519Y-75765389D01*
X150257381Y-75764613D01*
X149435628Y-76104155D01*
X148806364Y-76732321D01*
X148465389Y-77553481D01*
X148464613Y-78442619D01*
X147284530Y-78442619D01*
X145220761Y-76713986D01*
X144225853Y-75225000D01*
X154329438Y-75225000D01*
X154410126Y-75630644D01*
X154639905Y-75974533D01*
X154983794Y-76204312D01*
X155389438Y-76285000D01*
X156450562Y-76285000D01*
X156856206Y-76204312D01*
X157200095Y-75974533D01*
X157429874Y-75630644D01*
X157510562Y-75225000D01*
X157429874Y-74819356D01*
X157200095Y-74475467D01*
X156856206Y-74245688D01*
X156450562Y-74165000D01*
X155389438Y-74165000D01*
X154983794Y-74245688D01*
X154639905Y-74475467D01*
X154410126Y-74819356D01*
X154329438Y-75225000D01*
X144225853Y-75225000D01*
X143163662Y-73635320D01*
X141982868Y-71371873D01*
X150624927Y-71371873D01*
X150864171Y-71950887D01*
X151242896Y-72330273D01*
X150865728Y-72706783D01*
X150625474Y-73285379D01*
X150624927Y-73911873D01*
X150864171Y-74490887D01*
X151306783Y-74934272D01*
X151885379Y-75174526D01*
X152511873Y-75175073D01*
X153090887Y-74935829D01*
X153534272Y-74493217D01*
X153774526Y-73914621D01*
X153775073Y-73288127D01*
X153535829Y-72709113D01*
X153157104Y-72329727D01*
X153534272Y-71953217D01*
X153774526Y-71374621D01*
X153775073Y-70748127D01*
X153535829Y-70169113D01*
X153094885Y-69727399D01*
X153109677Y-69685167D01*
X158464838Y-69685167D01*
X158606883Y-70028943D01*
X158640001Y-70062119D01*
X158640001Y-75111907D01*
X158697853Y-75402746D01*
X158862600Y-75649308D01*
X159482916Y-76269624D01*
X159465728Y-76286783D01*
X159225474Y-76865379D01*
X159224927Y-77491873D01*
X159464171Y-78070887D01*
X159842896Y-78450273D01*
X159465728Y-78826783D01*
X159225474Y-79405379D01*
X159224927Y-80031873D01*
X159464171Y-80610887D01*
X159905115Y-81052601D01*
X159870637Y-81151032D01*
X160800000Y-82080395D01*
X161729363Y-81151032D01*
X161694687Y-81052036D01*
X162134272Y-80613217D01*
X162239417Y-80360000D01*
X162537537Y-80360000D01*
X162569673Y-80392192D01*
X162913201Y-80534838D01*
X163285167Y-80535162D01*
X163628943Y-80393117D01*
X163892192Y-80130327D01*
X164034838Y-79786799D01*
X164035162Y-79414833D01*
X163893117Y-79071057D01*
X163630327Y-78807808D01*
X163286799Y-78665162D01*
X162914833Y-78664838D01*
X162571057Y-78806883D01*
X162537882Y-78840000D01*
X162140327Y-78840000D01*
X162135829Y-78829113D01*
X161757104Y-78449727D01*
X162134272Y-78073217D01*
X162374526Y-77494621D01*
X162375073Y-76868127D01*
X162295357Y-76675199D01*
X162700397Y-76675199D01*
X163164878Y-77139680D01*
X163164838Y-77185167D01*
X163306883Y-77528943D01*
X163569673Y-77792192D01*
X163913201Y-77934838D01*
X164285167Y-77935162D01*
X164628943Y-77793117D01*
X164892192Y-77530327D01*
X165034838Y-77186799D01*
X165035162Y-76814833D01*
X164893117Y-76471057D01*
X164630327Y-76207808D01*
X164286799Y-76065162D01*
X164239923Y-76065121D01*
X163584802Y-75410000D01*
X168812559Y-75410000D01*
X169113201Y-75534838D01*
X169485167Y-75535162D01*
X169828943Y-75393117D01*
X170092192Y-75130327D01*
X170234838Y-74786799D01*
X170234999Y-74602365D01*
X170313201Y-74634838D01*
X170685167Y-74635162D01*
X171028943Y-74493117D01*
X171292192Y-74230327D01*
X171434838Y-73886799D01*
X171435162Y-73514833D01*
X171293117Y-73171057D01*
X171030327Y-72907808D01*
X170686799Y-72765162D01*
X170314833Y-72764838D01*
X170135141Y-72839085D01*
X170135162Y-72814833D01*
X169993117Y-72471057D01*
X169730327Y-72207808D01*
X169386799Y-72065162D01*
X169014833Y-72064838D01*
X168671057Y-72206883D01*
X168637882Y-72240000D01*
X163662463Y-72240000D01*
X163630327Y-72207808D01*
X163286799Y-72065162D01*
X162914833Y-72064838D01*
X162571057Y-72206883D01*
X162374536Y-72403061D01*
X162375073Y-71788127D01*
X162135829Y-71209113D01*
X161693217Y-70765728D01*
X161258378Y-70585167D01*
X163139818Y-70585167D01*
X163281863Y-70928943D01*
X163544653Y-71192192D01*
X163888181Y-71334838D01*
X164260147Y-71335162D01*
X164603923Y-71193117D01*
X164637098Y-71160000D01*
X166087527Y-71160000D01*
X166119663Y-71192192D01*
X166463191Y-71334838D01*
X166835157Y-71335162D01*
X167178933Y-71193117D01*
X167442182Y-70930327D01*
X167502457Y-70785167D01*
X170864838Y-70785167D01*
X171006883Y-71128943D01*
X171269673Y-71392192D01*
X171613201Y-71534838D01*
X171985167Y-71535162D01*
X172328943Y-71393117D01*
X172362118Y-71360000D01*
X176537537Y-71360000D01*
X176569673Y-71392192D01*
X176913201Y-71534838D01*
X177285167Y-71535162D01*
X177628943Y-71393117D01*
X177892192Y-71130327D01*
X178034838Y-70786799D01*
X178035162Y-70414833D01*
X177893117Y-70071057D01*
X177630327Y-69807808D01*
X177286799Y-69665162D01*
X176914833Y-69664838D01*
X176571057Y-69806883D01*
X176537882Y-69840000D01*
X172362463Y-69840000D01*
X172330327Y-69807808D01*
X171986799Y-69665162D01*
X171614833Y-69664838D01*
X171271057Y-69806883D01*
X171007808Y-70069673D01*
X170865162Y-70413201D01*
X170864838Y-70785167D01*
X167502457Y-70785167D01*
X167584828Y-70586799D01*
X167585152Y-70214833D01*
X167443107Y-69871057D01*
X167180317Y-69607808D01*
X166836789Y-69465162D01*
X166464823Y-69464838D01*
X166121047Y-69606883D01*
X166087872Y-69640000D01*
X164637443Y-69640000D01*
X164605307Y-69607808D01*
X164261779Y-69465162D01*
X163889813Y-69464838D01*
X163546037Y-69606883D01*
X163282788Y-69869673D01*
X163140142Y-70213201D01*
X163139818Y-70585167D01*
X161258378Y-70585167D01*
X161114621Y-70525474D01*
X160488127Y-70524927D01*
X160160001Y-70660506D01*
X160160001Y-70062462D01*
X160192192Y-70030327D01*
X160334838Y-69686799D01*
X160335162Y-69314833D01*
X160335046Y-69314552D01*
X160628943Y-69193117D01*
X160662118Y-69160000D01*
X172037537Y-69160000D01*
X172069673Y-69192192D01*
X172413201Y-69334838D01*
X172785167Y-69335162D01*
X173128943Y-69193117D01*
X173392192Y-68930327D01*
X173534838Y-68586799D01*
X173535162Y-68214833D01*
X173393117Y-67871057D01*
X173130327Y-67607808D01*
X172786799Y-67465162D01*
X172414833Y-67464838D01*
X172071057Y-67606883D01*
X172037882Y-67640000D01*
X160662463Y-67640000D01*
X160630327Y-67607808D01*
X160286799Y-67465162D01*
X159914833Y-67464838D01*
X159571057Y-67606883D01*
X159307808Y-67869673D01*
X159165162Y-68213201D01*
X159164838Y-68585167D01*
X159164954Y-68585448D01*
X158871057Y-68706883D01*
X158607808Y-68969673D01*
X158465162Y-69313201D01*
X158464838Y-69685167D01*
X153109677Y-69685167D01*
X153129363Y-69628968D01*
X152200000Y-68699605D01*
X151270637Y-69628968D01*
X151305313Y-69727964D01*
X150865728Y-70166783D01*
X150625474Y-70745379D01*
X150624927Y-71371873D01*
X141982868Y-71371873D01*
X141290513Y-70044708D01*
X140937469Y-68269833D01*
X150613955Y-68269833D01*
X150638951Y-68895828D01*
X150830420Y-69358077D01*
X151091032Y-69449363D01*
X152020395Y-68520000D01*
X152379605Y-68520000D01*
X153308968Y-69449363D01*
X153569580Y-69358077D01*
X153786045Y-68770167D01*
X153761049Y-68144172D01*
X153569580Y-67681923D01*
X153308968Y-67590637D01*
X152379605Y-68520000D01*
X152020395Y-68520000D01*
X151091032Y-67590637D01*
X150830420Y-67681923D01*
X150613955Y-68269833D01*
X140937469Y-68269833D01*
X140766643Y-67411032D01*
X151270637Y-67411032D01*
X152200000Y-68340395D01*
X153129363Y-67411032D01*
X153038077Y-67150420D01*
X152450167Y-66933955D01*
X151824172Y-66958951D01*
X151361923Y-67150420D01*
X151270637Y-67411032D01*
X140766643Y-67411032D01*
X140568155Y-66413172D01*
X140360223Y-64060200D01*
X148912760Y-64060200D01*
X148912760Y-65939800D01*
X148957038Y-66175117D01*
X149096110Y-66391241D01*
X149308310Y-66536231D01*
X149560200Y-66587240D01*
X151439800Y-66587240D01*
X151675117Y-66542962D01*
X151891241Y-66403890D01*
X152036231Y-66191690D01*
X152087240Y-65939800D01*
X152087240Y-64585167D01*
X163139818Y-64585167D01*
X163281863Y-64928943D01*
X163544653Y-65192192D01*
X163888181Y-65334838D01*
X163935057Y-65334879D01*
X164642631Y-66042453D01*
X164889193Y-66207200D01*
X165180032Y-66265052D01*
X166812558Y-66265052D01*
X166844694Y-66297244D01*
X167188222Y-66439890D01*
X167560188Y-66440214D01*
X167903964Y-66298169D01*
X168167213Y-66035379D01*
X168309859Y-65691851D01*
X168310183Y-65319885D01*
X168168138Y-64976109D01*
X167905348Y-64712860D01*
X167561820Y-64570214D01*
X167189854Y-64569890D01*
X166846078Y-64711935D01*
X166812903Y-64745052D01*
X165494834Y-64745052D01*
X165010102Y-64260320D01*
X165010142Y-64214833D01*
X164868097Y-63871057D01*
X164605307Y-63607808D01*
X164261779Y-63465162D01*
X163889813Y-63464838D01*
X163546037Y-63606883D01*
X163282788Y-63869673D01*
X163140142Y-64213201D01*
X163139818Y-64585167D01*
X152087240Y-64585167D01*
X152087240Y-64060200D01*
X152042962Y-63824883D01*
X151903890Y-63608759D01*
X151710590Y-63476683D01*
X151834272Y-63353217D01*
X151893741Y-63210000D01*
X158837537Y-63210000D01*
X158869673Y-63242192D01*
X159213201Y-63384838D01*
X159585167Y-63385162D01*
X159928943Y-63243117D01*
X160192192Y-62980327D01*
X160334838Y-62636799D01*
X160335162Y-62264833D01*
X160193117Y-61921057D01*
X159930327Y-61657808D01*
X159586799Y-61515162D01*
X159214833Y-61514838D01*
X158871057Y-61656883D01*
X158837882Y-61690000D01*
X151885779Y-61690000D01*
X151835829Y-61569113D01*
X151457104Y-61189727D01*
X151807112Y-60840330D01*
X151888181Y-60873993D01*
X152260147Y-60874317D01*
X152603923Y-60732272D01*
X152676321Y-60660000D01*
X164137537Y-60660000D01*
X164169673Y-60692192D01*
X164513201Y-60834838D01*
X164885167Y-60835162D01*
X165228943Y-60693117D01*
X165492192Y-60430327D01*
X165634838Y-60086799D01*
X165635162Y-59714833D01*
X165493117Y-59371057D01*
X165230327Y-59107808D01*
X164886799Y-58965162D01*
X164514833Y-58964838D01*
X164171057Y-59106883D01*
X164137882Y-59140000D01*
X160682153Y-59140000D01*
X160892192Y-58930327D01*
X161034838Y-58586799D01*
X161035162Y-58214833D01*
X160893117Y-57871057D01*
X160630327Y-57607808D01*
X160286799Y-57465162D01*
X159914833Y-57464838D01*
X159571057Y-57606883D01*
X159537882Y-57640000D01*
X153262463Y-57640000D01*
X153230327Y-57607808D01*
X152886799Y-57465162D01*
X152514833Y-57464838D01*
X152171057Y-57606883D01*
X152050195Y-57727534D01*
X152086045Y-57630167D01*
X152061049Y-57004172D01*
X151869580Y-56541923D01*
X151608968Y-56450637D01*
X150679605Y-57380000D01*
X151608968Y-58309363D01*
X151765126Y-58254665D01*
X151764838Y-58585167D01*
X151906883Y-58928943D01*
X151981882Y-59004073D01*
X151889813Y-59003993D01*
X151833840Y-59027121D01*
X151394885Y-58587399D01*
X151429363Y-58488968D01*
X150500000Y-57559605D01*
X149570637Y-58488968D01*
X149605313Y-58587964D01*
X149165728Y-59026783D01*
X148925474Y-59605379D01*
X148924927Y-60231873D01*
X149164171Y-60810887D01*
X149542896Y-61190273D01*
X149165728Y-61566783D01*
X148925474Y-62145379D01*
X148924927Y-62771873D01*
X149164171Y-63350887D01*
X149291549Y-63478488D01*
X149108759Y-63596110D01*
X148963769Y-63808310D01*
X148912760Y-64060200D01*
X140360223Y-64060200D01*
X140211659Y-62379057D01*
X140934015Y-58747524D01*
X141442515Y-57129833D01*
X148913955Y-57129833D01*
X148938951Y-57755828D01*
X149130420Y-58218077D01*
X149391032Y-58309363D01*
X150320395Y-57380000D01*
X149391032Y-56450637D01*
X149130420Y-56541923D01*
X148913955Y-57129833D01*
X141442515Y-57129833D01*
X141712467Y-56271032D01*
X149570637Y-56271032D01*
X150500000Y-57200395D01*
X151315228Y-56385167D01*
X157564838Y-56385167D01*
X157706883Y-56728943D01*
X157969673Y-56992192D01*
X158313201Y-57134838D01*
X158685167Y-57135162D01*
X159028943Y-56993117D01*
X159062118Y-56960000D01*
X164937537Y-56960000D01*
X164969673Y-56992192D01*
X165313201Y-57134838D01*
X165685167Y-57135162D01*
X166028943Y-56993117D01*
X166292192Y-56730327D01*
X166434838Y-56386799D01*
X166435162Y-56014833D01*
X166293117Y-55671057D01*
X166282079Y-55660000D01*
X173137537Y-55660000D01*
X173169673Y-55692192D01*
X173513201Y-55834838D01*
X173885167Y-55835162D01*
X174228943Y-55693117D01*
X174492192Y-55430327D01*
X174634838Y-55086799D01*
X174635162Y-54714833D01*
X174493117Y-54371057D01*
X174230327Y-54107808D01*
X173886799Y-53965162D01*
X173514833Y-53964838D01*
X173171057Y-54106883D01*
X173137882Y-54140000D01*
X165527264Y-54140000D01*
X165495128Y-54107808D01*
X165151600Y-53965162D01*
X164779634Y-53964838D01*
X164435858Y-54106883D01*
X164172609Y-54369673D01*
X164029963Y-54713201D01*
X164029639Y-55085167D01*
X164171684Y-55428943D01*
X164182722Y-55440000D01*
X159062463Y-55440000D01*
X159030327Y-55407808D01*
X158686799Y-55265162D01*
X158314833Y-55264838D01*
X157971057Y-55406883D01*
X157707808Y-55669673D01*
X157565162Y-56013201D01*
X157564838Y-56385167D01*
X151315228Y-56385167D01*
X151429363Y-56271032D01*
X151338077Y-56010420D01*
X150750167Y-55793955D01*
X150124172Y-55818951D01*
X149661923Y-56010420D01*
X149570637Y-56271032D01*
X141712467Y-56271032D01*
X142148445Y-54884059D01*
X142739154Y-54000000D01*
X152552560Y-54000000D01*
X152552560Y-55000000D01*
X152596838Y-55235317D01*
X152735910Y-55451441D01*
X152948110Y-55596431D01*
X153200000Y-55647440D01*
X154200000Y-55647440D01*
X154435317Y-55603162D01*
X154651441Y-55464090D01*
X154796431Y-55251890D01*
X154847440Y-55000000D01*
X154847440Y-54000000D01*
X154803162Y-53764683D01*
X154664090Y-53548559D01*
X154451890Y-53403569D01*
X154200000Y-53352560D01*
X153200000Y-53352560D01*
X152964683Y-53396838D01*
X152748559Y-53535910D01*
X152603569Y-53748110D01*
X152552560Y-54000000D01*
X142739154Y-54000000D01*
X144205545Y-51805392D01*
X146806014Y-48700761D01*
X149884679Y-46643662D01*
X151518274Y-45791449D01*
X151517908Y-46211760D01*
X151751105Y-46776140D01*
X152182530Y-47208320D01*
X152746503Y-47442502D01*
X153357164Y-47443034D01*
X153708830Y-47297729D01*
X153372344Y-47633628D01*
X153168064Y-48125589D01*
X153167599Y-48658276D01*
X153371020Y-49150593D01*
X153747358Y-49527588D01*
X154239319Y-49731868D01*
X154772006Y-49732333D01*
X155264323Y-49528912D01*
X155641318Y-49152574D01*
X155845598Y-48660613D01*
X155846063Y-48127926D01*
X155642642Y-47635609D01*
X155266304Y-47258614D01*
X154774343Y-47054334D01*
X154241656Y-47053869D01*
X153962054Y-47169398D01*
X154353724Y-46778412D01*
X154587906Y-46214439D01*
X154588438Y-45603778D01*
X154355241Y-45039398D01*
X154242833Y-44926794D01*
X158498214Y-44178162D01*
X158412094Y-44385561D01*
X158411562Y-44996222D01*
X158644759Y-45560602D01*
X159076184Y-45992782D01*
X159541399Y-46185956D01*
X159165694Y-46185628D01*
X158673377Y-46389049D01*
X158296382Y-46765387D01*
X158092102Y-47257348D01*
X158091637Y-47790035D01*
X158270334Y-48222516D01*
X158011799Y-48115162D01*
X157639833Y-48114838D01*
X157296057Y-48256883D01*
X157032808Y-48519673D01*
X156976300Y-48655760D01*
X156671057Y-48781883D01*
X156407808Y-49044673D01*
X156265162Y-49388201D01*
X156264838Y-49760167D01*
X156406883Y-50103943D01*
X156669673Y-50367192D01*
X157013201Y-50509838D01*
X157083686Y-50509899D01*
X157259161Y-50627148D01*
X157550000Y-50685000D01*
X163242739Y-50685000D01*
X162809113Y-50864171D01*
X162365728Y-51306783D01*
X162125474Y-51885379D01*
X162124927Y-52511873D01*
X162364171Y-53090887D01*
X162806783Y-53534272D01*
X163385379Y-53774526D01*
X164011873Y-53775073D01*
X164590887Y-53535829D01*
X165034272Y-53093217D01*
X165274526Y-52514621D01*
X165275073Y-51888127D01*
X165256270Y-51842619D01*
X169964613Y-51842619D01*
X170304155Y-52664372D01*
X170932321Y-53293636D01*
X171753481Y-53634611D01*
X172642619Y-53635387D01*
X173464372Y-53295845D01*
X174093636Y-52667679D01*
X174434611Y-51846519D01*
X174435387Y-50957381D01*
X174095845Y-50135628D01*
X173467679Y-49506364D01*
X172646519Y-49165389D01*
X171757381Y-49164613D01*
X170935628Y-49504155D01*
X170306364Y-50132321D01*
X169965389Y-50953481D01*
X169964613Y-51842619D01*
X165256270Y-51842619D01*
X165035829Y-51309113D01*
X164593217Y-50865728D01*
X164157976Y-50685000D01*
X165210198Y-50685000D01*
X165462599Y-50937401D01*
X165709160Y-51102148D01*
X165757414Y-51111746D01*
X166000000Y-51160000D01*
X166462537Y-51160000D01*
X166494673Y-51192192D01*
X166838201Y-51334838D01*
X167210167Y-51335162D01*
X167553943Y-51193117D01*
X167817192Y-50930327D01*
X167959838Y-50586799D01*
X167960162Y-50214833D01*
X167818117Y-49871057D01*
X167555327Y-49607808D01*
X167234849Y-49474733D01*
X167235162Y-49114833D01*
X167093117Y-48771057D01*
X166830327Y-48507808D01*
X166486799Y-48365162D01*
X166366589Y-48365057D01*
X166340839Y-48347852D01*
X166050000Y-48290000D01*
X160559679Y-48290000D01*
X160565356Y-48284333D01*
X160769636Y-47792372D01*
X160770101Y-47259685D01*
X160566680Y-46767368D01*
X160190342Y-46390373D01*
X159797139Y-46227101D01*
X160250818Y-46227496D01*
X160815198Y-45994299D01*
X161247378Y-45562874D01*
X161481560Y-44998901D01*
X161482092Y-44388240D01*
X161248895Y-43823860D01*
X161138836Y-43713608D01*
X161198511Y-43703109D01*
X164772476Y-44414015D01*
X164772476Y-44414015D01*
G37*
X164772476Y-44414015D02*
X168635941Y-45628445D01*
X171714608Y-47685545D01*
X174819239Y-50286014D01*
X176876338Y-53364679D01*
X178749488Y-56955294D01*
X179471845Y-60586828D01*
X179828341Y-64620943D01*
X179105985Y-68252475D01*
X177891554Y-72115942D01*
X175834453Y-75194611D01*
X175553050Y-75530571D01*
X175530327Y-75507808D01*
X175186799Y-75365162D01*
X174814833Y-75364838D01*
X174471057Y-75506883D01*
X174437882Y-75540000D01*
X170967028Y-75540000D01*
X170786799Y-75465162D01*
X170414833Y-75464838D01*
X170071057Y-75606883D01*
X169807808Y-75869673D01*
X169665162Y-76213201D01*
X169664838Y-76585167D01*
X169806883Y-76928943D01*
X170069673Y-77192192D01*
X170413201Y-77334838D01*
X170440336Y-77334862D01*
X169160320Y-78614878D01*
X169114833Y-78614838D01*
X168771057Y-78756883D01*
X168507808Y-79019673D01*
X168365162Y-79363201D01*
X168364838Y-79735167D01*
X168506883Y-80078943D01*
X168769673Y-80342192D01*
X169113201Y-80484838D01*
X169485167Y-80485162D01*
X169828943Y-80343117D01*
X170092192Y-80080327D01*
X170234838Y-79736799D01*
X170234879Y-79689923D01*
X171364802Y-78560000D01*
X172843730Y-78560000D01*
X170155320Y-80356338D01*
X166955529Y-82025604D01*
X166323975Y-82277372D01*
X162933172Y-82951845D01*
X162199552Y-83016675D01*
X162386045Y-82510167D01*
X162361049Y-81884172D01*
X162169580Y-81421923D01*
X161908968Y-81330637D01*
X160979605Y-82260000D01*
X160993748Y-82274143D01*
X160814143Y-82453748D01*
X160800000Y-82439605D01*
X160785858Y-82453748D01*
X160606253Y-82274143D01*
X160620395Y-82260000D01*
X159691032Y-81330637D01*
X159430420Y-81421923D01*
X159213955Y-82009833D01*
X159238951Y-82635828D01*
X159430420Y-83098077D01*
X159691030Y-83189362D01*
X159637288Y-83243104D01*
X158899057Y-83308341D01*
X157291003Y-82988480D01*
X157429874Y-82780644D01*
X157510562Y-82375000D01*
X157429874Y-81969356D01*
X157200095Y-81625467D01*
X156856206Y-81395688D01*
X156450562Y-81315000D01*
X155389438Y-81315000D01*
X154983794Y-81395688D01*
X154639905Y-81625467D01*
X154410126Y-81969356D01*
X154345143Y-82296046D01*
X151404058Y-81371554D01*
X150596429Y-80831913D01*
X155147692Y-80831913D01*
X155174905Y-81038796D01*
X155574137Y-81168279D01*
X155992531Y-81135127D01*
X156225095Y-81038796D01*
X156252308Y-80831913D01*
X155700000Y-80279605D01*
X155147692Y-80831913D01*
X150596429Y-80831913D01*
X148325389Y-79314453D01*
X147284530Y-78442619D01*
X148464613Y-78442619D01*
X148804155Y-79264372D01*
X149432321Y-79893636D01*
X150253481Y-80234611D01*
X151142619Y-80235387D01*
X151774891Y-79974137D01*
X154631721Y-79974137D01*
X154664873Y-80392531D01*
X154761204Y-80625095D01*
X154968087Y-80652308D01*
X155520395Y-80100000D01*
X155506253Y-80085858D01*
X155685858Y-79906253D01*
X155700000Y-79920395D01*
X155714143Y-79906253D01*
X155770150Y-79962260D01*
X155805093Y-80046829D01*
X156101610Y-80343864D01*
X156138991Y-80359386D01*
X156431913Y-80652308D01*
X156638796Y-80625095D01*
X156677752Y-80504981D01*
X156908932Y-80505183D01*
X157296829Y-80344907D01*
X157593864Y-80048390D01*
X157754817Y-79660773D01*
X157755183Y-79241068D01*
X157594907Y-78853171D01*
X157541996Y-78800168D01*
X157593864Y-78748390D01*
X157754817Y-78360773D01*
X157755183Y-77941068D01*
X157594907Y-77553171D01*
X157298390Y-77256136D01*
X156910773Y-77095183D01*
X156767440Y-77095058D01*
X156767440Y-77080000D01*
X156723162Y-76844683D01*
X156584090Y-76628559D01*
X156371890Y-76483569D01*
X156120000Y-76432560D01*
X155280000Y-76432560D01*
X155044683Y-76476838D01*
X154828559Y-76615910D01*
X154683569Y-76828110D01*
X154632560Y-77080000D01*
X154632560Y-77920000D01*
X154676838Y-78155317D01*
X154767108Y-78295600D01*
X154645183Y-78589227D01*
X154644817Y-79008932D01*
X154805093Y-79396829D01*
X154957131Y-79549133D01*
X154761204Y-79574905D01*
X154631721Y-79974137D01*
X151774891Y-79974137D01*
X151964372Y-79895845D01*
X152593636Y-79267679D01*
X152934611Y-78446519D01*
X152935387Y-77557381D01*
X152595845Y-76735628D01*
X151967679Y-76106364D01*
X151146519Y-75765389D01*
X150257381Y-75764613D01*
X149435628Y-76104155D01*
X148806364Y-76732321D01*
X148465389Y-77553481D01*
X148464613Y-78442619D01*
X147284530Y-78442619D01*
X145220761Y-76713986D01*
X144225853Y-75225000D01*
X154329438Y-75225000D01*
X154410126Y-75630644D01*
X154639905Y-75974533D01*
X154983794Y-76204312D01*
X155389438Y-76285000D01*
X156450562Y-76285000D01*
X156856206Y-76204312D01*
X157200095Y-75974533D01*
X157429874Y-75630644D01*
X157510562Y-75225000D01*
X157429874Y-74819356D01*
X157200095Y-74475467D01*
X156856206Y-74245688D01*
X156450562Y-74165000D01*
X155389438Y-74165000D01*
X154983794Y-74245688D01*
X154639905Y-74475467D01*
X154410126Y-74819356D01*
X154329438Y-75225000D01*
X144225853Y-75225000D01*
X143163662Y-73635320D01*
X141982868Y-71371873D01*
X150624927Y-71371873D01*
X150864171Y-71950887D01*
X151242896Y-72330273D01*
X150865728Y-72706783D01*
X150625474Y-73285379D01*
X150624927Y-73911873D01*
X150864171Y-74490887D01*
X151306783Y-74934272D01*
X151885379Y-75174526D01*
X152511873Y-75175073D01*
X153090887Y-74935829D01*
X153534272Y-74493217D01*
X153774526Y-73914621D01*
X153775073Y-73288127D01*
X153535829Y-72709113D01*
X153157104Y-72329727D01*
X153534272Y-71953217D01*
X153774526Y-71374621D01*
X153775073Y-70748127D01*
X153535829Y-70169113D01*
X153094885Y-69727399D01*
X153109677Y-69685167D01*
X158464838Y-69685167D01*
X158606883Y-70028943D01*
X158640001Y-70062119D01*
X158640001Y-75111907D01*
X158697853Y-75402746D01*
X158862600Y-75649308D01*
X159482916Y-76269624D01*
X159465728Y-76286783D01*
X159225474Y-76865379D01*
X159224927Y-77491873D01*
X159464171Y-78070887D01*
X159842896Y-78450273D01*
X159465728Y-78826783D01*
X159225474Y-79405379D01*
X159224927Y-80031873D01*
X159464171Y-80610887D01*
X159905115Y-81052601D01*
X159870637Y-81151032D01*
X160800000Y-82080395D01*
X161729363Y-81151032D01*
X161694687Y-81052036D01*
X162134272Y-80613217D01*
X162239417Y-80360000D01*
X162537537Y-80360000D01*
X162569673Y-80392192D01*
X162913201Y-80534838D01*
X163285167Y-80535162D01*
X163628943Y-80393117D01*
X163892192Y-80130327D01*
X164034838Y-79786799D01*
X164035162Y-79414833D01*
X163893117Y-79071057D01*
X163630327Y-78807808D01*
X163286799Y-78665162D01*
X162914833Y-78664838D01*
X162571057Y-78806883D01*
X162537882Y-78840000D01*
X162140327Y-78840000D01*
X162135829Y-78829113D01*
X161757104Y-78449727D01*
X162134272Y-78073217D01*
X162374526Y-77494621D01*
X162375073Y-76868127D01*
X162295357Y-76675199D01*
X162700397Y-76675199D01*
X163164878Y-77139680D01*
X163164838Y-77185167D01*
X163306883Y-77528943D01*
X163569673Y-77792192D01*
X163913201Y-77934838D01*
X164285167Y-77935162D01*
X164628943Y-77793117D01*
X164892192Y-77530327D01*
X165034838Y-77186799D01*
X165035162Y-76814833D01*
X164893117Y-76471057D01*
X164630327Y-76207808D01*
X164286799Y-76065162D01*
X164239923Y-76065121D01*
X163584802Y-75410000D01*
X168812559Y-75410000D01*
X169113201Y-75534838D01*
X169485167Y-75535162D01*
X169828943Y-75393117D01*
X170092192Y-75130327D01*
X170234838Y-74786799D01*
X170234999Y-74602365D01*
X170313201Y-74634838D01*
X170685167Y-74635162D01*
X171028943Y-74493117D01*
X171292192Y-74230327D01*
X171434838Y-73886799D01*
X171435162Y-73514833D01*
X171293117Y-73171057D01*
X171030327Y-72907808D01*
X170686799Y-72765162D01*
X170314833Y-72764838D01*
X170135141Y-72839085D01*
X170135162Y-72814833D01*
X169993117Y-72471057D01*
X169730327Y-72207808D01*
X169386799Y-72065162D01*
X169014833Y-72064838D01*
X168671057Y-72206883D01*
X168637882Y-72240000D01*
X163662463Y-72240000D01*
X163630327Y-72207808D01*
X163286799Y-72065162D01*
X162914833Y-72064838D01*
X162571057Y-72206883D01*
X162374536Y-72403061D01*
X162375073Y-71788127D01*
X162135829Y-71209113D01*
X161693217Y-70765728D01*
X161258378Y-70585167D01*
X163139818Y-70585167D01*
X163281863Y-70928943D01*
X163544653Y-71192192D01*
X163888181Y-71334838D01*
X164260147Y-71335162D01*
X164603923Y-71193117D01*
X164637098Y-71160000D01*
X166087527Y-71160000D01*
X166119663Y-71192192D01*
X166463191Y-71334838D01*
X166835157Y-71335162D01*
X167178933Y-71193117D01*
X167442182Y-70930327D01*
X167502457Y-70785167D01*
X170864838Y-70785167D01*
X171006883Y-71128943D01*
X171269673Y-71392192D01*
X171613201Y-71534838D01*
X171985167Y-71535162D01*
X172328943Y-71393117D01*
X172362118Y-71360000D01*
X176537537Y-71360000D01*
X176569673Y-71392192D01*
X176913201Y-71534838D01*
X177285167Y-71535162D01*
X177628943Y-71393117D01*
X177892192Y-71130327D01*
X178034838Y-70786799D01*
X178035162Y-70414833D01*
X177893117Y-70071057D01*
X177630327Y-69807808D01*
X177286799Y-69665162D01*
X176914833Y-69664838D01*
X176571057Y-69806883D01*
X176537882Y-69840000D01*
X172362463Y-69840000D01*
X172330327Y-69807808D01*
X171986799Y-69665162D01*
X171614833Y-69664838D01*
X171271057Y-69806883D01*
X171007808Y-70069673D01*
X170865162Y-70413201D01*
X170864838Y-70785167D01*
X167502457Y-70785167D01*
X167584828Y-70586799D01*
X167585152Y-70214833D01*
X167443107Y-69871057D01*
X167180317Y-69607808D01*
X166836789Y-69465162D01*
X166464823Y-69464838D01*
X166121047Y-69606883D01*
X166087872Y-69640000D01*
X164637443Y-69640000D01*
X164605307Y-69607808D01*
X164261779Y-69465162D01*
X163889813Y-69464838D01*
X163546037Y-69606883D01*
X163282788Y-69869673D01*
X163140142Y-70213201D01*
X163139818Y-70585167D01*
X161258378Y-70585167D01*
X161114621Y-70525474D01*
X160488127Y-70524927D01*
X160160001Y-70660506D01*
X160160001Y-70062462D01*
X160192192Y-70030327D01*
X160334838Y-69686799D01*
X160335162Y-69314833D01*
X160335046Y-69314552D01*
X160628943Y-69193117D01*
X160662118Y-69160000D01*
X172037537Y-69160000D01*
X172069673Y-69192192D01*
X172413201Y-69334838D01*
X172785167Y-69335162D01*
X173128943Y-69193117D01*
X173392192Y-68930327D01*
X173534838Y-68586799D01*
X173535162Y-68214833D01*
X173393117Y-67871057D01*
X173130327Y-67607808D01*
X172786799Y-67465162D01*
X172414833Y-67464838D01*
X172071057Y-67606883D01*
X172037882Y-67640000D01*
X160662463Y-67640000D01*
X160630327Y-67607808D01*
X160286799Y-67465162D01*
X159914833Y-67464838D01*
X159571057Y-67606883D01*
X159307808Y-67869673D01*
X159165162Y-68213201D01*
X159164838Y-68585167D01*
X159164954Y-68585448D01*
X158871057Y-68706883D01*
X158607808Y-68969673D01*
X158465162Y-69313201D01*
X158464838Y-69685167D01*
X153109677Y-69685167D01*
X153129363Y-69628968D01*
X152200000Y-68699605D01*
X151270637Y-69628968D01*
X151305313Y-69727964D01*
X150865728Y-70166783D01*
X150625474Y-70745379D01*
X150624927Y-71371873D01*
X141982868Y-71371873D01*
X141290513Y-70044708D01*
X140937469Y-68269833D01*
X150613955Y-68269833D01*
X150638951Y-68895828D01*
X150830420Y-69358077D01*
X151091032Y-69449363D01*
X152020395Y-68520000D01*
X152379605Y-68520000D01*
X153308968Y-69449363D01*
X153569580Y-69358077D01*
X153786045Y-68770167D01*
X153761049Y-68144172D01*
X153569580Y-67681923D01*
X153308968Y-67590637D01*
X152379605Y-68520000D01*
X152020395Y-68520000D01*
X151091032Y-67590637D01*
X150830420Y-67681923D01*
X150613955Y-68269833D01*
X140937469Y-68269833D01*
X140766643Y-67411032D01*
X151270637Y-67411032D01*
X152200000Y-68340395D01*
X153129363Y-67411032D01*
X153038077Y-67150420D01*
X152450167Y-66933955D01*
X151824172Y-66958951D01*
X151361923Y-67150420D01*
X151270637Y-67411032D01*
X140766643Y-67411032D01*
X140568155Y-66413172D01*
X140360223Y-64060200D01*
X148912760Y-64060200D01*
X148912760Y-65939800D01*
X148957038Y-66175117D01*
X149096110Y-66391241D01*
X149308310Y-66536231D01*
X149560200Y-66587240D01*
X151439800Y-66587240D01*
X151675117Y-66542962D01*
X151891241Y-66403890D01*
X152036231Y-66191690D01*
X152087240Y-65939800D01*
X152087240Y-64585167D01*
X163139818Y-64585167D01*
X163281863Y-64928943D01*
X163544653Y-65192192D01*
X163888181Y-65334838D01*
X163935057Y-65334879D01*
X164642631Y-66042453D01*
X164889193Y-66207200D01*
X165180032Y-66265052D01*
X166812558Y-66265052D01*
X166844694Y-66297244D01*
X167188222Y-66439890D01*
X167560188Y-66440214D01*
X167903964Y-66298169D01*
X168167213Y-66035379D01*
X168309859Y-65691851D01*
X168310183Y-65319885D01*
X168168138Y-64976109D01*
X167905348Y-64712860D01*
X167561820Y-64570214D01*
X167189854Y-64569890D01*
X166846078Y-64711935D01*
X166812903Y-64745052D01*
X165494834Y-64745052D01*
X165010102Y-64260320D01*
X165010142Y-64214833D01*
X164868097Y-63871057D01*
X164605307Y-63607808D01*
X164261779Y-63465162D01*
X163889813Y-63464838D01*
X163546037Y-63606883D01*
X163282788Y-63869673D01*
X163140142Y-64213201D01*
X163139818Y-64585167D01*
X152087240Y-64585167D01*
X152087240Y-64060200D01*
X152042962Y-63824883D01*
X151903890Y-63608759D01*
X151710590Y-63476683D01*
X151834272Y-63353217D01*
X151893741Y-63210000D01*
X158837537Y-63210000D01*
X158869673Y-63242192D01*
X159213201Y-63384838D01*
X159585167Y-63385162D01*
X159928943Y-63243117D01*
X160192192Y-62980327D01*
X160334838Y-62636799D01*
X160335162Y-62264833D01*
X160193117Y-61921057D01*
X159930327Y-61657808D01*
X159586799Y-61515162D01*
X159214833Y-61514838D01*
X158871057Y-61656883D01*
X158837882Y-61690000D01*
X151885779Y-61690000D01*
X151835829Y-61569113D01*
X151457104Y-61189727D01*
X151807112Y-60840330D01*
X151888181Y-60873993D01*
X152260147Y-60874317D01*
X152603923Y-60732272D01*
X152676321Y-60660000D01*
X164137537Y-60660000D01*
X164169673Y-60692192D01*
X164513201Y-60834838D01*
X164885167Y-60835162D01*
X165228943Y-60693117D01*
X165492192Y-60430327D01*
X165634838Y-60086799D01*
X165635162Y-59714833D01*
X165493117Y-59371057D01*
X165230327Y-59107808D01*
X164886799Y-58965162D01*
X164514833Y-58964838D01*
X164171057Y-59106883D01*
X164137882Y-59140000D01*
X160682153Y-59140000D01*
X160892192Y-58930327D01*
X161034838Y-58586799D01*
X161035162Y-58214833D01*
X160893117Y-57871057D01*
X160630327Y-57607808D01*
X160286799Y-57465162D01*
X159914833Y-57464838D01*
X159571057Y-57606883D01*
X159537882Y-57640000D01*
X153262463Y-57640000D01*
X153230327Y-57607808D01*
X152886799Y-57465162D01*
X152514833Y-57464838D01*
X152171057Y-57606883D01*
X152050195Y-57727534D01*
X152086045Y-57630167D01*
X152061049Y-57004172D01*
X151869580Y-56541923D01*
X151608968Y-56450637D01*
X150679605Y-57380000D01*
X151608968Y-58309363D01*
X151765126Y-58254665D01*
X151764838Y-58585167D01*
X151906883Y-58928943D01*
X151981882Y-59004073D01*
X151889813Y-59003993D01*
X151833840Y-59027121D01*
X151394885Y-58587399D01*
X151429363Y-58488968D01*
X150500000Y-57559605D01*
X149570637Y-58488968D01*
X149605313Y-58587964D01*
X149165728Y-59026783D01*
X148925474Y-59605379D01*
X148924927Y-60231873D01*
X149164171Y-60810887D01*
X149542896Y-61190273D01*
X149165728Y-61566783D01*
X148925474Y-62145379D01*
X148924927Y-62771873D01*
X149164171Y-63350887D01*
X149291549Y-63478488D01*
X149108759Y-63596110D01*
X148963769Y-63808310D01*
X148912760Y-64060200D01*
X140360223Y-64060200D01*
X140211659Y-62379057D01*
X140934015Y-58747524D01*
X141442515Y-57129833D01*
X148913955Y-57129833D01*
X148938951Y-57755828D01*
X149130420Y-58218077D01*
X149391032Y-58309363D01*
X150320395Y-57380000D01*
X149391032Y-56450637D01*
X149130420Y-56541923D01*
X148913955Y-57129833D01*
X141442515Y-57129833D01*
X141712467Y-56271032D01*
X149570637Y-56271032D01*
X150500000Y-57200395D01*
X151315228Y-56385167D01*
X157564838Y-56385167D01*
X157706883Y-56728943D01*
X157969673Y-56992192D01*
X158313201Y-57134838D01*
X158685167Y-57135162D01*
X159028943Y-56993117D01*
X159062118Y-56960000D01*
X164937537Y-56960000D01*
X164969673Y-56992192D01*
X165313201Y-57134838D01*
X165685167Y-57135162D01*
X166028943Y-56993117D01*
X166292192Y-56730327D01*
X166434838Y-56386799D01*
X166435162Y-56014833D01*
X166293117Y-55671057D01*
X166282079Y-55660000D01*
X173137537Y-55660000D01*
X173169673Y-55692192D01*
X173513201Y-55834838D01*
X173885167Y-55835162D01*
X174228943Y-55693117D01*
X174492192Y-55430327D01*
X174634838Y-55086799D01*
X174635162Y-54714833D01*
X174493117Y-54371057D01*
X174230327Y-54107808D01*
X173886799Y-53965162D01*
X173514833Y-53964838D01*
X173171057Y-54106883D01*
X173137882Y-54140000D01*
X165527264Y-54140000D01*
X165495128Y-54107808D01*
X165151600Y-53965162D01*
X164779634Y-53964838D01*
X164435858Y-54106883D01*
X164172609Y-54369673D01*
X164029963Y-54713201D01*
X164029639Y-55085167D01*
X164171684Y-55428943D01*
X164182722Y-55440000D01*
X159062463Y-55440000D01*
X159030327Y-55407808D01*
X158686799Y-55265162D01*
X158314833Y-55264838D01*
X157971057Y-55406883D01*
X157707808Y-55669673D01*
X157565162Y-56013201D01*
X157564838Y-56385167D01*
X151315228Y-56385167D01*
X151429363Y-56271032D01*
X151338077Y-56010420D01*
X150750167Y-55793955D01*
X150124172Y-55818951D01*
X149661923Y-56010420D01*
X149570637Y-56271032D01*
X141712467Y-56271032D01*
X142148445Y-54884059D01*
X142739154Y-54000000D01*
X152552560Y-54000000D01*
X152552560Y-55000000D01*
X152596838Y-55235317D01*
X152735910Y-55451441D01*
X152948110Y-55596431D01*
X153200000Y-55647440D01*
X154200000Y-55647440D01*
X154435317Y-55603162D01*
X154651441Y-55464090D01*
X154796431Y-55251890D01*
X154847440Y-55000000D01*
X154847440Y-54000000D01*
X154803162Y-53764683D01*
X154664090Y-53548559D01*
X154451890Y-53403569D01*
X154200000Y-53352560D01*
X153200000Y-53352560D01*
X152964683Y-53396838D01*
X152748559Y-53535910D01*
X152603569Y-53748110D01*
X152552560Y-54000000D01*
X142739154Y-54000000D01*
X144205545Y-51805392D01*
X146806014Y-48700761D01*
X149884679Y-46643662D01*
X151518274Y-45791449D01*
X151517908Y-46211760D01*
X151751105Y-46776140D01*
X152182530Y-47208320D01*
X152746503Y-47442502D01*
X153357164Y-47443034D01*
X153708830Y-47297729D01*
X153372344Y-47633628D01*
X153168064Y-48125589D01*
X153167599Y-48658276D01*
X153371020Y-49150593D01*
X153747358Y-49527588D01*
X154239319Y-49731868D01*
X154772006Y-49732333D01*
X155264323Y-49528912D01*
X155641318Y-49152574D01*
X155845598Y-48660613D01*
X155846063Y-48127926D01*
X155642642Y-47635609D01*
X155266304Y-47258614D01*
X154774343Y-47054334D01*
X154241656Y-47053869D01*
X153962054Y-47169398D01*
X154353724Y-46778412D01*
X154587906Y-46214439D01*
X154588438Y-45603778D01*
X154355241Y-45039398D01*
X154242833Y-44926794D01*
X158498214Y-44178162D01*
X158412094Y-44385561D01*
X158411562Y-44996222D01*
X158644759Y-45560602D01*
X159076184Y-45992782D01*
X159541399Y-46185956D01*
X159165694Y-46185628D01*
X158673377Y-46389049D01*
X158296382Y-46765387D01*
X158092102Y-47257348D01*
X158091637Y-47790035D01*
X158270334Y-48222516D01*
X158011799Y-48115162D01*
X157639833Y-48114838D01*
X157296057Y-48256883D01*
X157032808Y-48519673D01*
X156976300Y-48655760D01*
X156671057Y-48781883D01*
X156407808Y-49044673D01*
X156265162Y-49388201D01*
X156264838Y-49760167D01*
X156406883Y-50103943D01*
X156669673Y-50367192D01*
X157013201Y-50509838D01*
X157083686Y-50509899D01*
X157259161Y-50627148D01*
X157550000Y-50685000D01*
X163242739Y-50685000D01*
X162809113Y-50864171D01*
X162365728Y-51306783D01*
X162125474Y-51885379D01*
X162124927Y-52511873D01*
X162364171Y-53090887D01*
X162806783Y-53534272D01*
X163385379Y-53774526D01*
X164011873Y-53775073D01*
X164590887Y-53535829D01*
X165034272Y-53093217D01*
X165274526Y-52514621D01*
X165275073Y-51888127D01*
X165256270Y-51842619D01*
X169964613Y-51842619D01*
X170304155Y-52664372D01*
X170932321Y-53293636D01*
X171753481Y-53634611D01*
X172642619Y-53635387D01*
X173464372Y-53295845D01*
X174093636Y-52667679D01*
X174434611Y-51846519D01*
X174435387Y-50957381D01*
X174095845Y-50135628D01*
X173467679Y-49506364D01*
X172646519Y-49165389D01*
X171757381Y-49164613D01*
X170935628Y-49504155D01*
X170306364Y-50132321D01*
X169965389Y-50953481D01*
X169964613Y-51842619D01*
X165256270Y-51842619D01*
X165035829Y-51309113D01*
X164593217Y-50865728D01*
X164157976Y-50685000D01*
X165210198Y-50685000D01*
X165462599Y-50937401D01*
X165709160Y-51102148D01*
X165757414Y-51111746D01*
X166000000Y-51160000D01*
X166462537Y-51160000D01*
X166494673Y-51192192D01*
X166838201Y-51334838D01*
X167210167Y-51335162D01*
X167553943Y-51193117D01*
X167817192Y-50930327D01*
X167959838Y-50586799D01*
X167960162Y-50214833D01*
X167818117Y-49871057D01*
X167555327Y-49607808D01*
X167234849Y-49474733D01*
X167235162Y-49114833D01*
X167093117Y-48771057D01*
X166830327Y-48507808D01*
X166486799Y-48365162D01*
X166366589Y-48365057D01*
X166340839Y-48347852D01*
X166050000Y-48290000D01*
X160559679Y-48290000D01*
X160565356Y-48284333D01*
X160769636Y-47792372D01*
X160770101Y-47259685D01*
X160566680Y-46767368D01*
X160190342Y-46390373D01*
X159797139Y-46227101D01*
X160250818Y-46227496D01*
X160815198Y-45994299D01*
X161247378Y-45562874D01*
X161481560Y-44998901D01*
X161482092Y-44388240D01*
X161248895Y-43823860D01*
X161138836Y-43713608D01*
X161198511Y-43703109D01*
X164772476Y-44414015D01*
M02*
