G04 #@! TF.FileFunction,Paste,Top*
%FSLAX46Y46*%
G04 Gerber Fmt 4.6, Leading zero omitted, Abs format (unit mm)*
G04 Created by KiCad (PCBNEW 4.0.6+dfsg1-1) date Thu Jan 25 22:00:33 2018*
%MOMM*%
%LPD*%
G01*
G04 APERTURE LIST*
%ADD10C,0.100000*%
%ADD11R,2.999740X1.198880*%
%ADD12C,1.879600*%
%ADD13R,0.508000X1.143000*%
%ADD14R,0.450000X1.350000*%
%ADD15R,1.500000X1.550000*%
%ADD16R,1.198880X0.797560*%
%ADD17R,0.998220X1.099820*%
%ADD18R,1.099820X0.998220*%
%ADD19R,1.651000X0.998220*%
%ADD20R,1.879600X1.879600*%
%ADD21R,1.060000X0.650000*%
G04 APERTURE END LIST*
D10*
D11*
X162101920Y-56400520D03*
X162101920Y-58402040D03*
X162101920Y-60401020D03*
X162101920Y-62400000D03*
X162101920Y-64398980D03*
X162101920Y-66397960D03*
X162101920Y-68399480D03*
X177098080Y-68399480D03*
X177098080Y-66397960D03*
X177098080Y-64398980D03*
X177098080Y-62400000D03*
X177098080Y-60401020D03*
X177098080Y-58402040D03*
X177098080Y-56400520D03*
D12*
X152200000Y-73600000D03*
X152200000Y-71060000D03*
X152200000Y-68520000D03*
X160800000Y-72100000D03*
X160800000Y-74640000D03*
X160800000Y-77180000D03*
X160800000Y-79720000D03*
X160800000Y-82260000D03*
D13*
X171810000Y-71898000D03*
X170540000Y-71898000D03*
X169270000Y-71898000D03*
X168000000Y-71898000D03*
X166730000Y-71898000D03*
X165460000Y-71898000D03*
X164190000Y-71898000D03*
X164190000Y-78248000D03*
X165460000Y-78248000D03*
X168000000Y-78248000D03*
X169270000Y-78248000D03*
X170540000Y-78248000D03*
X171810000Y-78248000D03*
X166730000Y-78248000D03*
D14*
X155800000Y-46425000D03*
X156450000Y-46425000D03*
X157100000Y-46425000D03*
X157750000Y-46425000D03*
X158400000Y-46425000D03*
D15*
X156100000Y-49100000D03*
X158100000Y-49100000D03*
X154050000Y-49100000D03*
X160150000Y-49100000D03*
D16*
X165077920Y-44660606D03*
X165077920Y-46458926D03*
D17*
X162877920Y-44611406D03*
X162877920Y-46308126D03*
D18*
X168496720Y-47900000D03*
X166800000Y-47900000D03*
D19*
X145924440Y-51102340D03*
X145924440Y-54297660D03*
X151075560Y-54297660D03*
X151075560Y-51102340D03*
X142724440Y-56702340D03*
X142724440Y-59897660D03*
X147875560Y-59897660D03*
X147875560Y-56702340D03*
X142724440Y-62302340D03*
X142724440Y-65497660D03*
X147875560Y-65497660D03*
X147875560Y-62302340D03*
X144324440Y-68002340D03*
X144324440Y-71197660D03*
X149475560Y-71197660D03*
X149475560Y-68002340D03*
D20*
X150500000Y-65000000D03*
D12*
X150500000Y-62460000D03*
X150500000Y-59920000D03*
X150500000Y-57380000D03*
X163700000Y-52200000D03*
D18*
X157148360Y-56200000D03*
X155451640Y-56200000D03*
D21*
X162900000Y-47950000D03*
X162900000Y-48900000D03*
X162900000Y-49850000D03*
X165100000Y-49850000D03*
X165100000Y-47950000D03*
M02*
