G04 #@! TF.FileFunction,Paste,Top*
%FSLAX46Y46*%
G04 Gerber Fmt 4.6, Leading zero omitted, Abs format (unit mm)*
G04 Created by KiCad (PCBNEW 4.0.6+dfsg1-1) date Sat Jan 27 12:23:12 2018*
%MOMM*%
%LPD*%
G01*
G04 APERTURE LIST*
%ADD10C,0.100000*%
%ADD11C,1.879600*%
%ADD12R,0.508000X1.143000*%
%ADD13R,1.198880X0.797560*%
%ADD14R,0.998220X1.099820*%
%ADD15R,1.099820X0.998220*%
%ADD16R,1.879600X1.879600*%
%ADD17R,1.060000X0.650000*%
%ADD18R,1.651000X0.998220*%
%ADD19R,2.999740X1.198880*%
G04 APERTURE END LIST*
D10*
D11*
X152200000Y-73600000D03*
X152200000Y-71060000D03*
X152200000Y-68520000D03*
X160800000Y-72100000D03*
X160800000Y-74640000D03*
X160800000Y-77180000D03*
X160800000Y-79720000D03*
X160800000Y-82260000D03*
D12*
X171810000Y-71898000D03*
X170540000Y-71898000D03*
X169270000Y-71898000D03*
X168000000Y-71898000D03*
X166730000Y-71898000D03*
X165460000Y-71898000D03*
X164190000Y-71898000D03*
X164190000Y-78248000D03*
X165460000Y-78248000D03*
X168000000Y-78248000D03*
X169270000Y-78248000D03*
X170540000Y-78248000D03*
X171810000Y-78248000D03*
X166730000Y-78248000D03*
D10*
G36*
X158140390Y-48412434D02*
X157905965Y-47082944D01*
X158349128Y-47004802D01*
X158583553Y-48334292D01*
X158140390Y-48412434D01*
X158140390Y-48412434D01*
G37*
G36*
X157500265Y-48525305D02*
X157265840Y-47195815D01*
X157709003Y-47117673D01*
X157943428Y-48447163D01*
X157500265Y-48525305D01*
X157500265Y-48525305D01*
G37*
G36*
X156860140Y-48638177D02*
X156625715Y-47308687D01*
X157068878Y-47230545D01*
X157303303Y-48560035D01*
X156860140Y-48638177D01*
X156860140Y-48638177D01*
G37*
G36*
X156220015Y-48751048D02*
X155985590Y-47421558D01*
X156428753Y-47343416D01*
X156663178Y-48672906D01*
X156220015Y-48751048D01*
X156220015Y-48751048D01*
G37*
G36*
X155579890Y-48863919D02*
X155345465Y-47534429D01*
X155788628Y-47456287D01*
X156023053Y-48785777D01*
X155579890Y-48863919D01*
X155579890Y-48863919D01*
G37*
G36*
X158088836Y-44232890D02*
X158357991Y-45759342D01*
X156880780Y-46019814D01*
X156611625Y-44493362D01*
X158088836Y-44232890D01*
X158088836Y-44232890D01*
G37*
G36*
X156119220Y-44580186D02*
X156388375Y-46106638D01*
X154911164Y-46367110D01*
X154642009Y-44840658D01*
X156119220Y-44580186D01*
X156119220Y-44580186D01*
G37*
G36*
X160107692Y-43876911D02*
X160376847Y-45403363D01*
X158899636Y-45663835D01*
X158630481Y-44137383D01*
X160107692Y-43876911D01*
X160107692Y-43876911D01*
G37*
G36*
X154100364Y-44936165D02*
X154369519Y-46462617D01*
X152892308Y-46723089D01*
X152623153Y-45196637D01*
X154100364Y-44936165D01*
X154100364Y-44936165D01*
G37*
D13*
X165077920Y-44660606D03*
X165077920Y-46458926D03*
D14*
X162877920Y-44611406D03*
X162877920Y-46308126D03*
D15*
X168496720Y-47900000D03*
X166800000Y-47900000D03*
D16*
X150500000Y-65000000D03*
D11*
X150500000Y-62460000D03*
X150500000Y-59920000D03*
X150500000Y-57380000D03*
X163700000Y-52200000D03*
D15*
X157148360Y-56200000D03*
X155451640Y-56200000D03*
D17*
X162900000Y-47950000D03*
X162900000Y-48900000D03*
X162900000Y-49850000D03*
X165100000Y-49850000D03*
X165100000Y-47950000D03*
D18*
X145924440Y-51102340D03*
X145924440Y-54297660D03*
X151075560Y-54297660D03*
X151075560Y-51102340D03*
X142724440Y-56702340D03*
X142724440Y-59897660D03*
X147875560Y-59897660D03*
X147875560Y-56702340D03*
X142724440Y-62302340D03*
X142724440Y-65497660D03*
X147875560Y-65497660D03*
X147875560Y-62302340D03*
X144324440Y-68002340D03*
X144324440Y-71197660D03*
X149475560Y-71197660D03*
X149475560Y-68002340D03*
D19*
X162101920Y-56400520D03*
X162101920Y-58402040D03*
X162101920Y-60401020D03*
X162101920Y-62400000D03*
X162101920Y-64398980D03*
X162101920Y-66397960D03*
X162101920Y-68399480D03*
X177098080Y-68399480D03*
X177098080Y-66397960D03*
X177098080Y-64398980D03*
X177098080Y-62400000D03*
X177098080Y-60401020D03*
X177098080Y-58402040D03*
X177098080Y-56400520D03*
M02*
