M48
;DRILL file {KiCad 4.0.6+dfsg1-1} date Thu Jan 25 22:00:39 2018
;FORMAT={-:-/ absolute / inch / decimal}
FMAT,2
INCH,TZ
T1C0.016
T2C0.035
T3C0.040
T4C0.047
T5C0.106
%
G90
G05
M72
T1
X5.8209Y-2.3091
X5.8228Y-2.626
X5.8839Y-2.7618
X5.9469Y-2.1831
X5.9872Y-2.3598
X6.0118Y-2.2992
X6.1131Y-1.7715
X6.1575Y-1.8819
X6.185Y-1.7321
X6.2402Y-2.2126
X6.2756Y-2.4587
X6.2756Y-2.7362
X6.2795Y-2.4016
X6.3031Y-2.2992
X6.3031Y-2.6929
X6.3543Y-1.8189
X6.374Y-2.0098
X6.3937Y-2.9016
X6.4213Y-2.874
X6.4213Y-3.1339
X6.4596Y-2.5354
X6.4596Y-2.7717
X6.4606Y-3.0315
X6.4843Y-2.3583
X6.4947Y-2.1614
X6.5157Y-2.2126
X6.5472Y-1.9409
X6.5551Y-1.7776
X6.563Y-2.7717
X6.5827Y-1.9409
X6.6142Y-2.5354
X6.6142Y-3.1299
X6.6614Y-2.874
X6.6654Y-2.937
X6.6654Y-3.1319
X6.6811Y-1.8858
X6.7126Y-2.9016
X6.7165Y-3.0079
X6.7638Y-2.7795
X6.7638Y-3.0354
X6.7953Y-2.6929
X6.8386Y-2.1614
X6.8386Y-3.063
X6.8898Y-3.0039
X6.9724Y-2.1673
X6.9724Y-2.7795
T2
X6.0866Y-1.8268
X6.2835Y-1.8268
T3
X5.9252Y-2.2591
X5.9252Y-2.3591
X5.9252Y-2.4591
X5.9252Y-2.5591
X5.9921Y-2.6976
X5.9921Y-2.7976
X5.9921Y-2.8976
X6.3307Y-2.8386
X6.3307Y-2.9386
X6.3307Y-3.0386
X6.3307Y-3.1386
X6.3307Y-3.2386
X6.4449Y-2.0551
T4
X6.0472Y-1.9331
X6.3228Y-1.9331
T5
X5.9331Y-3.0709
X6.7795Y-2.0236
T0
M30
