<?xml version="1.0" standalone="no"?>
 <!DOCTYPE svg PUBLIC "-//W3C//DTD SVG 1.1//EN" 
 "http://www.w3.org/Graphics/SVG/1.1/DTD/svg11.dtd"> 
<svg xmlns="http://www.w3.org/2000/svg" version="1.1" 
    width="4.7752cm" height="4.5593cm" viewBox="0 0 18800 17950 ">
<title>SVG Picture created as firefly2-brd.svg date 2018/07/23 21:14:35 </title>
  <desc>Picture generated by PCBNEW </desc>
<g style="fill:#000000; fill-opacity:1;stroke:#000000; stroke-opacity:1;
stroke-linecap:round; stroke-linejoin:round; "
 transform="translate(0 0) scale(1 1)">
</g>
<g style="fill:#000000; fill-opacity:0.0; 
stroke:#000000; stroke-width:-0.000393701; stroke-opacity:1; 
stroke-linecap:round; stroke-linejoin:round;">
</g>
<g style="fill:#840000; fill-opacity:0.0; 
stroke:#840000; stroke-width:-0.000393701; stroke-opacity:1; 
stroke-linecap:round; stroke-linejoin:round;">
</g>
<g style="fill:#840000; fill-opacity:0.0; 
stroke:#840000; stroke-width:0; stroke-opacity:1; 
stroke-linecap:round; stroke-linejoin:round;">
</g>
<g style="fill:#840000; fill-opacity:1.0; 
stroke:#840000; stroke-width:0; stroke-opacity:1; 
stroke-linecap:round; stroke-linejoin:round;">
<polyline style="fill-rule:evenodd;"
points="6228,14870
6716,14870
6716,15358
6228,15358
6228,14870
" /> 
<circle cx="6866.38" cy="15370.3" r="244.094" /> 
</g>
<g style="fill:#840000; fill-opacity:1.0; 
stroke:#840000; stroke-width:39.3701; stroke-opacity:1; 
stroke-linecap:round; stroke-linejoin:round;">
</g>
<g style="fill:#840000; fill-opacity:1.0; 
stroke:#840000; stroke-width:0; stroke-opacity:1; 
stroke-linecap:round; stroke-linejoin:round;">
<circle cx="6472.68" cy="15626.2" r="244.094" /> 
</g>
<g style="fill:#840000; fill-opacity:1.0; 
stroke:#840000; stroke-width:39.3701; stroke-opacity:1; 
stroke-linecap:round; stroke-linejoin:round;">
</g>
<g style="fill:#840000; fill-opacity:1.0; 
stroke:#840000; stroke-width:0; stroke-opacity:1; 
stroke-linecap:round; stroke-linejoin:round;">
<circle cx="6866.38" cy="15882.1" r="244.094" /> 
</g>
<g style="fill:#840000; fill-opacity:1.0; 
stroke:#840000; stroke-width:39.3701; stroke-opacity:1; 
stroke-linecap:round; stroke-linejoin:round;">
</g>
<g style="fill:#840000; fill-opacity:1.0; 
stroke:#840000; stroke-width:0; stroke-opacity:1; 
stroke-linecap:round; stroke-linejoin:round;">
<circle cx="6472.68" cy="16138" r="244.094" /> 
</g>
<g style="fill:#840000; fill-opacity:1.0; 
stroke:#840000; stroke-width:39.3701; stroke-opacity:1; 
stroke-linecap:round; stroke-linejoin:round;">
</g>
<g style="fill:#840000; fill-opacity:1.0; 
stroke:#840000; stroke-width:492.126; stroke-opacity:1; 
stroke-linecap:round; stroke-linejoin:round;">
</g>
<g style="fill:#840000; fill-opacity:0.0; 
stroke:#840000; stroke-width:492.126; stroke-opacity:1; 
stroke-linecap:round; stroke-linejoin:round;">
<path d="M6756 14218
L6362 14218
" />
<path d="M6756 17033
L6362 17033
" />
</g>
<g style="fill:#840000; fill-opacity:0.0; 
stroke:#840000; stroke-width:0; stroke-opacity:1; 
stroke-linecap:round; stroke-linejoin:round;">
</g>
<g style="fill:#840000; fill-opacity:1.0; 
stroke:#840000; stroke-width:0; stroke-opacity:1; 
stroke-linecap:round; stroke-linejoin:round;">
<polyline style="fill-rule:evenodd;"
points="9850,1949
10479,1949
10479,2421
9850,2421
9850,1949
" /> 
<polyline style="fill-rule:evenodd;"
points="9850,2657
10479,2657
10479,3129
9850,3129
9850,2657
" /> 
<polyline style="fill-rule:evenodd;"
points="9023,1870
9573,1870
9573,2461
9023,2461
9023,1870
" /> 
<polyline style="fill-rule:evenodd;"
points="9023,2538
9573,2538
9573,3129
9023,3129
9023,2538
" /> 
<polyline style="fill-rule:evenodd;"
points="11806,3185
11806,3736
11215,3736
11215,3185
11806,3185
" /> 
<polyline style="fill-rule:evenodd;"
points="11138,3185
11138,3736
10547,3736
10547,3185
11138,3185
" /> 
<circle cx="9622.29" cy="5153.73" r="448.74" /> 
</g>
<g style="fill:#840000; fill-opacity:1.0; 
stroke:#840000; stroke-width:39.3701; stroke-opacity:1; 
stroke-linecap:round; stroke-linejoin:round;">
</g>
<g style="fill:#840000; fill-opacity:1.0; 
stroke:#840000; stroke-width:0; stroke-opacity:1; 
stroke-linecap:round; stroke-linejoin:round;">
<polyline style="fill-rule:evenodd;"
points="9019,3687
9019,3273
9594,3273
9594,3687
9019,3687
" /> 
<polyline style="fill-rule:evenodd;"
points="9019,4061
9019,3647
9594,3647
9594,4061
9019,4061
" /> 
<polyline style="fill-rule:evenodd;"
points="9019,4435
9019,4021
9594,4021
9594,4435
9019,4435
" /> 
<polyline style="fill-rule:evenodd;"
points="9886,4435
9886,4021
10460,4021
10460,4435
9886,4435
" /> 
<polyline style="fill-rule:evenodd;"
points="9886,3687
9886,3273
10460,3273
10460,3687
9886,3687
" /> 
<circle cx="4504.18" cy="15311.2" r="708.661" /> 
</g>
<g style="fill:#840000; fill-opacity:1.0; 
stroke:#840000; stroke-width:39.3701; stroke-opacity:1; 
stroke-linecap:round; stroke-linejoin:round;">
</g>
<g style="fill:#840000; fill-opacity:1.0; 
stroke:#840000; stroke-width:0; stroke-opacity:1; 
stroke-linecap:round; stroke-linejoin:round;">
<circle cx="12968.7" cy="4838.77" r="708.661" /> 
</g>
<g style="fill:#840000; fill-opacity:1.0; 
stroke:#840000; stroke-width:39.3701; stroke-opacity:1; 
stroke-linecap:round; stroke-linejoin:round;">
</g>
<g style="fill:#840000; fill-opacity:1.0; 
stroke:#840000; stroke-width:0; stroke-opacity:1; 
stroke-linecap:round; stroke-linejoin:round;">
<polyline style="fill-rule:evenodd;"
points="2220,4996
2220,4446
3027,4446
3027,4996
2220,4996
" /> 
<polyline style="fill-rule:evenodd;"
points="2220,6254
2220,5704
3027,5704
3027,6254
2220,6254
" /> 
<polyline style="fill-rule:evenodd;"
points="4248,6254
4248,5704
5055,5704
5055,6254
4248,6254
" /> 
<polyline style="fill-rule:evenodd;"
points="4248,4996
4248,4446
5055,4446
5055,4996
4248,4996
" /> 
<polyline style="fill-rule:evenodd;"
points="960,7201
960,6651
1767,6651
1767,7201
960,7201
" /> 
<polyline style="fill-rule:evenodd;"
points="960,8459
960,7909
1767,7909
1767,8459
960,8459
" /> 
<polyline style="fill-rule:evenodd;"
points="2988,8459
2988,7909
3795,7909
3795,8459
2988,8459
" /> 
<polyline style="fill-rule:evenodd;"
points="2988,7201
2988,6651
3795,6651
3795,7201
2988,7201
" /> 
<polyline style="fill-rule:evenodd;"
points="960,9406
960,8855
1767,8855
1767,9406
960,9406
" /> 
<polyline style="fill-rule:evenodd;"
points="960,10664
960,10113
1767,10113
1767,10664
960,10664
" /> 
<polyline style="fill-rule:evenodd;"
points="2988,10664
2988,10113
3795,10113
3795,10664
2988,10664
" /> 
<polyline style="fill-rule:evenodd;"
points="2988,9406
2988,8855
3795,8855
3795,9406
2988,9406
" /> 
<polyline style="fill-rule:evenodd;"
points="1590,11650
1590,11099
2397,11099
2397,11650
1590,11650
" /> 
<polyline style="fill-rule:evenodd;"
points="1590,12908
1590,12357
2397,12357
2397,12908
1590,12908
" /> 
<polyline style="fill-rule:evenodd;"
points="3618,12908
3618,12357
4425,12357
4425,12908
3618,12908
" /> 
<polyline style="fill-rule:evenodd;"
points="3618,11650
3618,11099
4425,11099
4425,11650
3618,11650
" /> 
<polyline style="fill-rule:evenodd;"
points="5409,6334
5409,5783
5960,5783
5960,6334
5409,6334
" /> 
<polyline style="fill-rule:evenodd;"
points="8304,6964
8304,6335
9642,6335
9642,6964
8304,6964
" /> 
<polyline style="fill-rule:evenodd;"
points="8304,7752
8304,7123
9642,7123
9642,7752
8304,7752
" /> 
<polyline style="fill-rule:evenodd;"
points="8304,8539
8304,7910
9642,7910
9642,8539
8304,8539
" /> 
<polyline style="fill-rule:evenodd;"
points="8304,9326
8304,8697
9642,8697
9642,9326
8304,9326
" /> 
<polyline style="fill-rule:evenodd;"
points="8304,10113
8304,9484
9642,9484
9642,10113
8304,10113
" /> 
<polyline style="fill-rule:evenodd;"
points="8304,10900
8304,10271
9642,10271
9642,10900
8304,10900
" /> 
<polyline style="fill-rule:evenodd;"
points="8304,11688
8304,11059
9642,11059
9642,11688
8304,11688
" /> 
<polyline style="fill-rule:evenodd;"
points="14208,11688
14208,11059
15546,11059
15546,11688
14208,11688
" /> 
<polyline style="fill-rule:evenodd;"
points="14208,10900
14208,10271
15546,10271
15546,10900
14208,10900
" /> 
<polyline style="fill-rule:evenodd;"
points="14208,10113
14208,9484
15546,9484
15546,10113
14208,10113
" /> 
<polyline style="fill-rule:evenodd;"
points="14208,9326
14208,8697
15546,8697
15546,9326
14208,9326
" /> 
<polyline style="fill-rule:evenodd;"
points="14208,8539
14208,7910
15546,7910
15546,8539
14208,8539
" /> 
<polyline style="fill-rule:evenodd;"
points="14208,7752
14208,7123
15546,7123
15546,7752
14208,7752
" /> 
<polyline style="fill-rule:evenodd;"
points="14208,6964
14208,6335
15546,6335
15546,6964
14208,6964
" /> 
<polyline style="fill-rule:evenodd;"
points="8821,13511
8821,13134
9478,13134
9478,13511
8821,13511
" /> 
<polyline style="fill-rule:evenodd;"
points="8821,13826
8821,13449
9478,13449
9478,13826
8821,13826
" /> 
<polyline style="fill-rule:evenodd;"
points="8821,14141
8821,13764
9478,13764
9478,14141
8821,14141
" /> 
<polyline style="fill-rule:evenodd;"
points="8821,14456
8821,14079
9478,14079
9478,14456
8821,14456
" /> 
<polyline style="fill-rule:evenodd;"
points="8821,14770
8821,14393
9478,14393
9478,14770
8821,14770
" /> 
<polyline style="fill-rule:evenodd;"
points="8821,15085
8821,14708
9478,14708
9478,15085
8821,15085
" /> 
<polyline style="fill-rule:evenodd;"
points="8821,15400
8821,15023
9478,15023
9478,15400
8821,15400
" /> 
<polyline style="fill-rule:evenodd;"
points="8821,15715
8821,15338
9478,15338
9478,15715
8821,15715
" /> 
<polyline style="fill-rule:evenodd;"
points="9549,16443
9549,15786
9926,15786
9926,16443
9549,16443
" /> 
<polyline style="fill-rule:evenodd;"
points="9864,16443
9864,15786
10241,15786
10241,16443
9864,16443
" /> 
<polyline style="fill-rule:evenodd;"
points="10179,16443
10179,15786
10556,15786
10556,16443
10179,16443
" /> 
<polyline style="fill-rule:evenodd;"
points="10494,16443
10494,15786
10871,15786
10871,16443
10494,16443
" /> 
<polyline style="fill-rule:evenodd;"
points="10808,16443
10808,15786
11185,15786
11185,16443
10808,16443
" /> 
<polyline style="fill-rule:evenodd;"
points="11123,16443
11123,15786
11500,15786
11500,16443
11123,16443
" /> 
<polyline style="fill-rule:evenodd;"
points="11438,16443
11438,15786
11815,15786
11815,16443
11438,16443
" /> 
<polyline style="fill-rule:evenodd;"
points="11753,16443
11753,15786
12130,15786
12130,16443
11753,16443
" /> 
<polyline style="fill-rule:evenodd;"
points="12201,15715
12201,15338
12858,15338
12858,15715
12201,15715
" /> 
<polyline style="fill-rule:evenodd;"
points="12201,15400
12201,15023
12858,15023
12858,15400
12201,15400
" /> 
<polyline style="fill-rule:evenodd;"
points="12201,15085
12201,14708
12858,14708
12858,15085
12201,15085
" /> 
<polyline style="fill-rule:evenodd;"
points="12201,14770
12201,14393
12858,14393
12858,14770
12201,14770
" /> 
<polyline style="fill-rule:evenodd;"
points="12201,14456
12201,14079
12858,14079
12858,14456
12201,14456
" /> 
<polyline style="fill-rule:evenodd;"
points="12201,14141
12201,13764
12858,13764
12858,14141
12201,14141
" /> 
<polyline style="fill-rule:evenodd;"
points="12201,13826
12201,13449
12858,13449
12858,13826
12201,13826
" /> 
<polyline style="fill-rule:evenodd;"
points="12201,13511
12201,13134
12858,13134
12858,13511
12201,13511
" /> 
<polyline style="fill-rule:evenodd;"
points="11753,13063
11753,12406
12130,12406
12130,13063
11753,13063
" /> 
<polyline style="fill-rule:evenodd;"
points="11438,13063
11438,12406
11815,12406
11815,13063
11438,13063
" /> 
<polyline style="fill-rule:evenodd;"
points="11123,13063
11123,12406
11500,12406
11500,13063
11123,13063
" /> 
<polyline style="fill-rule:evenodd;"
points="10808,13063
10808,12406
11185,12406
11185,13063
10808,13063
" /> 
<polyline style="fill-rule:evenodd;"
points="10494,13063
10494,12406
10871,12406
10871,13063
10494,13063
" /> 
<polyline style="fill-rule:evenodd;"
points="10179,13063
10179,12406
10556,12406
10556,13063
10179,13063
" /> 
<polyline style="fill-rule:evenodd;"
points="9864,13063
9864,12406
10241,12406
10241,13063
9864,13063
" /> 
<polyline style="fill-rule:evenodd;"
points="9549,13063
9549,12406
9926,12406
9926,13063
9549,13063
" /> 
<polyline style="fill-rule:evenodd;"
points="14263,12366
14263,12839
13750,12839
13750,12366
14263,12366
" /> 
<polyline style="fill-rule:evenodd;"
points="13595,12366
13595,12839
13082,12839
13082,12366
13595,12366
" /> 
<polyline style="fill-rule:evenodd;"
points="4012,10606
4012,9779
4838,9779
4838,10606
4012,10606
" /> 
</g>
<g style="fill:#840000; fill-opacity:1.0; 
stroke:#840000; stroke-width:826.772; stroke-opacity:1; 
stroke-linecap:round; stroke-linejoin:round;">
</g>
<g style="fill:#840000; fill-opacity:0.0; 
stroke:#840000; stroke-width:826.772; stroke-opacity:1; 
stroke-linecap:round; stroke-linejoin:round;">
<path d="M4425 9193
L4425 9193
" />
<path d="M4425 8193
L4425 8193
" />
<path d="M4425 7193
L4425 7193
" />
</g>
<g style="fill:#840000; fill-opacity:0.0; 
stroke:#840000; stroke-width:0; stroke-opacity:1; 
stroke-linecap:round; stroke-linejoin:round;">
</g>
<g style="fill:#840000; fill-opacity:1.0; 
stroke:#840000; stroke-width:0; stroke-opacity:1; 
stroke-linecap:round; stroke-linejoin:round;">
<polyline style="fill-rule:evenodd;"
points="6492,5065
6177,5065
6177,4651
6492,4651
6492,5065
" /> 
<polyline style="fill-rule:evenodd;"
points="7004,5065
6689,5065
6689,4651
7004,4651
7004,5065
" /> 
<polyline style="fill-rule:evenodd;"
points="6748,5065
6433,5065
6433,4651
6748,4651
6748,5065
" /> 
<polyline style="fill-rule:evenodd;"
points="7004,4317
6689,4317
6689,3903
7004,3903
7004,4317
" /> 
<polyline style="fill-rule:evenodd;"
points="6492,4317
6177,4317
6177,3903
6492,3903
6492,4317
" /> 
<polyline style="fill-rule:evenodd;"
points="7949,6590
7949,7102
7594,7102
7594,6590
7949,6590
" /> 
<polyline style="fill-rule:evenodd;"
points="7358,6590
7358,7102
7004,7102
7004,6590
7358,6590
" /> 
<polyline style="fill-rule:evenodd;"
points="6976,6315
6976,5803
7330,5803
7330,6315
6976,6315
" /> 
<polyline style="fill-rule:evenodd;"
points="7566,6315
7566,5803
7920,5803
7920,6315
7566,6315
" /> 
<polyline style="fill-rule:evenodd;"
points="8559,4740
8559,5409
8126,5409
8126,4740
8559,4740
" /> 
<polyline style="fill-rule:evenodd;"
points="7811,4740
7811,5409
7378,5409
7378,4740
7811,4740
" /> 
<polyline style="fill-rule:evenodd;"
points="7319,3756
7319,3283
7830,3283
7830,3756
7319,3756
" /> 
<polyline style="fill-rule:evenodd;"
points="7319,4504
7319,4031
7830,4031
7830,4504
7319,4504
" /> 
<polyline style="fill-rule:evenodd;"
points="8106,4130
8106,3657
8618,3657
8618,4130
8106,4130
" /> 
</g>
<g style="fill:#000000; fill-opacity:1.0; 
stroke:#000000; stroke-width:0; stroke-opacity:1; 
stroke-linecap:round; stroke-linejoin:round;">
</g>
<g style="fill:#C2C200; fill-opacity:1.0; 
stroke:#C2C200; stroke-width:0; stroke-opacity:1; 
stroke-linecap:round; stroke-linejoin:round;">
</g>
<g style="fill:#C2C200; fill-opacity:0.0; 
stroke:#C2C200; stroke-width:0; stroke-opacity:1; 
stroke-linecap:round; stroke-linejoin:round;">
</g>
<g style="fill:#C2C200; fill-opacity:0.0; 
stroke:#C2C200; stroke-width:59.0551; stroke-opacity:1; 
stroke-linecap:round; stroke-linejoin:round;">
<path d="M14352 12733
L14352 12339
L14446 12339
L14502 12358
L14539 12395
L14558 12433
L14577 12508
L14577 12564
L14558 12639
L14539 12677
L14502 12714
L14446 12733
L14352 12733
" />
<path d="M14746 12733
L14746 12339
L14970 12733
L14970 12339
" />
<path d="M15158 12733
L15158 12339
L15308 12339
L15345 12358
L15364 12377
L15383 12414
L15383 12470
L15364 12508
L15345 12527
L15308 12545
L15158 12545
" />
<path d="M10312 1559
L10312 1784
" />
<path d="M10312 1672
L9918 1672
L9974 1709
L10012 1747
L10030 1784
" />
<path d="M9918 1316
L9918 1278
L9937 1241
L9955 1222
L9993 1203
L10068 1184
L10162 1184
L10237 1203
L10274 1222
L10293 1241
L10312 1278
L10312 1316
L10293 1353
L10274 1372
L10237 1391
L10162 1409
L10068 1409
L9993 1391
L9955 1372
L9937 1353
L9918 1316
" />
<path d="M10049 847
L10312 847
" />
<path d="M10049 1016
L10255 1016
L10293 997
L10312 959
L10312 903
L10293 866
L10274 847
" />
<path d="M10105 528
L10105 659
" />
<path d="M10312 659
L9918 659
L9918 472
" />
<path d="M12065 3284
L11840 3284
" />
<path d="M11952 3284
L11952 2890
L11915 2947
L11877 2984
L11840 3003
" />
<path d="M12402 3022
L12402 3284
" />
<path d="M12233 3022
L12233 3228
L12252 3265
L12290 3284
L12346 3284
L12383 3265
L12402 3247
" />
<path d="M12721 3078
L12590 3078
" />
<path d="M12590 3284
L12590 2890
L12777 2890
" />
<path d="M9524 1372
L9524 1597
" />
<path d="M9524 1484
L9131 1484
L9187 1522
L9224 1559
L9243 1597
" />
<path d="M9262 1034
L9524 1034
" />
<path d="M9262 1203
L9468 1203
L9506 1184
L9524 1147
L9524 1091
L9506 1053
L9487 1034
" />
<path d="M9318 716
L9318 847
" />
<path d="M9524 847
L9131 847
L9131 659
" />
</g>
<g style="fill:#C2C200; fill-opacity:0.0; 
stroke:#C2C200; stroke-width:39.3701; stroke-opacity:1; 
stroke-linecap:round; stroke-linejoin:round;">
<path d="M5185 5809
L5185 6309
" />
<path d="M5185 6309
L6185 6309
" />
<path d="M6185 6309
L6185 5809
" />
<path d="M6185 5809
L5185 5809
" />
<path d="M6157 4218
L6157 4553
" />
<path d="M6354 4750
L7023 4750
" />
<path d="M6157 4218
L7023 4218
" />
<path d="M7023 4218
L7023 4750
" />
<path d="M6157 4553
L6354 4750
" />
<path d="M7791 6689
L7791 7004
" />
<path d="M7161 6689
L7791 6689
" />
<path d="M7161 7004
L7161 6689
" />
<path d="M7791 7004
L7161 7004
" />
<path d="M7133 6216
L7133 5901
" />
<path d="M7763 6216
L7133 6216
" />
<path d="M7763 5901
L7763 6216
" />
<path d="M7133 5901
L7763 5901
" />
<path d="M8362 4830
L8362 5319
" />
<path d="M7575 4830
L8362 4830
" />
<path d="M7575 5319
L7575 4830
" />
<path d="M8362 5319
L7575 5319
" />
<path d="M7693 3519
L7693 4484
" />
<path d="M7909 3295
L8244 3295
" />
<path d="M7693 3519
L7909 3295
" />
<path d="M8244 3295
L8244 4492
" />
<path d="M7693 4492
L8244 4492
" />
</g>
<g style="fill:#C2C200; fill-opacity:0.0; 
stroke:#C2C200; stroke-width:59.0551; stroke-opacity:1; 
stroke-linecap:round; stroke-linejoin:round;">
<path d="M10537 4268
L10537 3875
L10668 4156
L10799 3875
L10799 4268
" />
<path d="M10987 4268
L10987 3875
" />
<path d="M11399 4231
L11380 4250
L11324 4268
L11287 4268
L11230 4250
L11193 4212
L11174 4175
L11155 4100
L11155 4043
L11174 3968
L11193 3931
L11230 3893
L11287 3875
L11324 3875
L11380 3893
L11399 3912
" />
<path d="M11755 3875
L11568 3875
L11549 4062
L11568 4043
L11605 4025
L11699 4025
L11737 4043
L11755 4062
L11774 4100
L11774 4193
L11755 4231
L11737 4250
L11699 4268
L11605 4268
L11568 4250
L11549 4231
" />
<path d="M12130 3875
L11943 3875
L11924 4062
L11943 4043
L11980 4025
L12074 4025
L12111 4043
L12130 4062
L12149 4100
L12149 4193
L12130 4231
L12111 4250
L12074 4268
L11980 4268
L11943 4250
L11924 4231
" />
<path d="M12393 3875
L12430 3875
L12468 3893
L12486 3912
L12505 3950
L12524 4025
L12524 4118
L12505 4193
L12486 4231
L12468 4250
L12430 4268
L12393 4268
L12355 4250
L12336 4231
L12318 4193
L12299 4118
L12299 4025
L12318 3950
L12336 3912
L12355 3893
L12393 3875
" />
<path d="M12861 4006
L12861 4268
" />
<path d="M12768 3856
L12674 4137
L12918 4137
" />
<path d="M3969 15292
L3969 14898
" />
<path d="M4138 15292
L4138 15086
L4119 15048
L4082 15029
L4026 15029
L3988 15048
L3969 15067
" />
<path d="M4382 15292
L4344 15273
L4326 15254
L4307 15217
L4307 15104
L4326 15067
L4344 15048
L4382 15029
L4438 15029
L4476 15048
L4494 15067
L4513 15104
L4513 15217
L4494 15254
L4476 15273
L4438 15292
L4382 15292
" />
<path d="M4738 15292
L4701 15273
L4682 15236
L4682 14898
" />
<path d="M5038 15273
L5000 15292
L4925 15292
L4888 15273
L4869 15236
L4869 15086
L4888 15048
L4925 15029
L5000 15029
L5038 15048
L5057 15086
L5057 15123
L4869 15161
" />
<path d="M12434 4820
L12434 4426
" />
<path d="M12603 4820
L12603 4613
L12584 4576
L12546 4557
L12490 4557
L12453 4576
L12434 4595
" />
<path d="M12846 4820
L12809 4801
L12790 4782
L12771 4745
L12771 4632
L12790 4595
L12809 4576
L12846 4557
L12903 4557
L12940 4576
L12959 4595
L12978 4632
L12978 4745
L12959 4782
L12940 4801
L12903 4820
L12846 4820
" />
<path d="M13203 4820
L13165 4801
L13146 4763
L13146 4426
" />
<path d="M13503 4801
L13465 4820
L13390 4820
L13353 4801
L13334 4763
L13334 4613
L13353 4576
L13390 4557
L13465 4557
L13503 4576
L13521 4613
L13521 4651
L13334 4688
" />
<path d="M6375 3715
L6375 3453
L6768 3622
" />
<path d="M6506 3134
L6768 3134
" />
<path d="M6356 3228
L6637 3322
L6637 3078
" />
<path d="M6768 2740
L6768 2928
L6375 2928
" />
<path d="M6375 2665
L6768 2534
L6375 2403
" />
<path d="M6731 2047
L6750 2065
L6768 2122
L6768 2159
L6750 2215
L6712 2253
L6675 2272
L6600 2290
L6543 2290
L6468 2272
L6431 2253
L6393 2215
L6375 2159
L6375 2122
L6393 2065
L6412 2047
" />
<path d="M6768 1672
L6768 1897
" />
<path d="M6768 1784
L6375 1784
L6431 1822
L6468 1859
L6487 1897
" />
<path d="M6393 1297
L6375 1334
L6375 1391
L6393 1447
L6431 1484
L6468 1503
L6543 1522
L6600 1522
L6675 1503
L6712 1484
L6750 1447
L6768 1391
L6768 1353
L6750 1297
L6731 1278
L6600 1278
L6600 1353
" />
<path d="M6768 903
L6768 1128
" />
<path d="M6768 1016
L6375 1016
L6431 1053
L6468 1091
L6487 1128
" />
<path d="M6412 753
L6393 734
L6375 697
L6375 603
L6393 566
L6412 547
L6450 528
L6487 528
L6543 547
L6768 772
L6768 528
" />
<path d="M6375 172
L6375 359
L6562 378
L6543 359
L6525 322
L6525 228
L6543 191
L6562 172
L6600 153
L6693 153
L6731 172
L6750 191
L6768 228
L6768 322
L6750 359
L6731 378
" />
</g>
<g style="fill:#C2C200; fill-opacity:0.0; 
stroke:#C2C200; stroke-width:29.5276; stroke-opacity:1; 
stroke-linecap:round; stroke-linejoin:round;">
<path d="M6440 4376
L6440 4535
L6450 4554
L6459 4564
L6478 4573
L6515 4573
L6534 4564
L6543 4554
L6553 4535
L6553 4376
" />
<path d="M6731 4442
L6731 4573
" />
<path d="M6684 4367
L6637 4507
L6759 4507
" />
</g>
<g style="fill:#C2C200; fill-opacity:0.0; 
stroke:#C2C200; stroke-width:59.0551; stroke-opacity:1; 
stroke-linecap:round; stroke-linejoin:round;">
<path d="M8259 5974
L8259 6237
" />
<path d="M8165 5824
L8071 6106
L8315 6106
" />
<path d="M8428 5843
L8690 5843
L8521 6237
" />
<path d="M8915 5843
L8952 5843
L8990 5862
L9009 5881
L9027 5918
L9046 5993
L9046 6087
L9027 6162
L9009 6199
L8990 6218
L8952 6237
L8915 6237
L8878 6218
L8859 6199
L8840 6162
L8821 6087
L8821 5993
L8840 5918
L8859 5881
L8878 5862
L8915 5843
" />
</g>
<g style="fill:#C2C200; fill-opacity:0.0; 
stroke:#C2C200; stroke-width:29.5276; stroke-opacity:1; 
stroke-linecap:round; stroke-linejoin:round;">
<path d="M7450 6917
L7397 6842
" />
<path d="M7360 6917
L7360 6760
L7420 6760
L7435 6767
L7442 6775
L7450 6790
L7450 6812
L7442 6827
L7435 6835
L7420 6842
L7360 6842
" />
<path d="M7600 6917
L7510 6917
" />
<path d="M7555 6917
L7555 6760
L7540 6782
L7525 6797
L7510 6805
" />
</g>
<g style="fill:#C2C200; fill-opacity:0.0; 
stroke:#C2C200; stroke-width:59.0551; stroke-opacity:1; 
stroke-linecap:round; stroke-linejoin:round;">
<path d="M7214 7615
L6989 7615
" />
<path d="M7101 7615
L7101 7221
L7064 7277
L7026 7315
L6989 7334
" />
<path d="M7457 7221
L7495 7221
L7532 7240
L7551 7259
L7570 7296
L7589 7371
L7589 7465
L7570 7540
L7551 7577
L7532 7596
L7495 7615
L7457 7615
L7420 7596
L7401 7577
L7382 7540
L7364 7465
L7364 7371
L7382 7296
L7401 7259
L7420 7240
L7457 7221
" />
<path d="M7757 7615
L7757 7221
" />
<path d="M7795 7465
L7907 7615
" />
<path d="M7907 7352
L7757 7502
" />
</g>
<g style="fill:#C2C200; fill-opacity:0.0; 
stroke:#C2C200; stroke-width:29.5276; stroke-opacity:1; 
stroke-linecap:round; stroke-linejoin:round;">
<path d="M7422 6130
L7369 6055
" />
<path d="M7332 6130
L7332 5973
L7392 5973
L7407 5980
L7414 5988
L7422 6003
L7422 6025
L7414 6040
L7407 6047
L7392 6055
L7332 6055
" />
<path d="M7482 5988
L7489 5980
L7504 5973
L7542 5973
L7557 5980
L7564 5988
L7572 6003
L7572 6017
L7564 6040
L7474 6130
L7572 6130
" />
</g>
<g style="fill:#C2C200; fill-opacity:0.0; 
stroke:#C2C200; stroke-width:59.0551; stroke-opacity:1; 
stroke-linecap:round; stroke-linejoin:round;">
<path d="M8456 4896
L8474 4878
L8512 4859
L8606 4859
L8643 4878
L8662 4896
L8681 4934
L8681 4971
L8662 5028
L8437 5253
L8681 5253
" />
<path d="M8924 4859
L8962 4859
L8999 4878
L9018 4896
L9037 4934
L9056 5009
L9056 5103
L9037 5178
L9018 5215
L8999 5234
L8962 5253
L8924 5253
L8887 5234
L8868 5215
L8849 5178
L8831 5103
L8831 5009
L8849 4934
L8868 4896
L8887 4878
L8924 4859
" />
</g>
<g style="fill:#C2C200; fill-opacity:0.0; 
stroke:#C2C200; stroke-width:29.5276; stroke-opacity:1; 
stroke-linecap:round; stroke-linejoin:round;">
<path d="M7935 5164
L7870 5070
" />
<path d="M7823 5164
L7823 4967
L7898 4967
L7917 4976
L7926 4985
L7935 5004
L7935 5032
L7926 5051
L7917 5060
L7898 5070
L7823 5070
" />
<path d="M8001 4967
L8123 4967
L8057 5042
L8085 5042
L8104 5051
L8114 5060
L8123 5079
L8123 5126
L8114 5145
L8104 5154
L8085 5164
L8029 5164
L8010 5154
L8001 5145
" />
</g>
<g style="fill:#C2C200; fill-opacity:0.0; 
stroke:#C2C200; stroke-width:59.0551; stroke-opacity:1; 
stroke-linecap:round; stroke-linejoin:round;">
<path d="M8146 3143
L7753 3143
L8034 3012
L7753 2881
L8146 2881
" />
<path d="M7753 2619
L7753 2544
L7771 2506
L7809 2469
L7884 2450
L8015 2450
L8090 2469
L8128 2506
L8146 2544
L8146 2619
L8128 2656
L8090 2694
L8015 2712
L7884 2712
L7809 2694
L7771 2656
L7753 2619
" />
<path d="M8128 2300
L8146 2244
L8146 2150
L8128 2112
L8109 2094
L8071 2075
L8034 2075
L7996 2094
L7978 2112
L7959 2150
L7940 2225
L7921 2262
L7903 2281
L7865 2300
L7828 2300
L7790 2281
L7771 2262
L7753 2225
L7753 2131
L7771 2075
" />
<path d="M7940 1775
L7940 1906
" />
<path d="M8146 1906
L7753 1906
L7753 1719
" />
<path d="M7940 1569
L7940 1437
" />
<path d="M8146 1381
L8146 1569
L7753 1569
L7753 1381
" />
<path d="M7753 1269
L7753 1044
" />
<path d="M8146 1156
L7753 1156
" />
</g>
<g style="fill:#C2C200; fill-opacity:0.0; 
stroke:#C2C200; stroke-width:29.5276; stroke-opacity:1; 
stroke-linecap:round; stroke-linejoin:round;">
<path d="M7860 4043
L8020 4043
L8039 4034
L8048 4025
L8057 4006
L8057 3968
L8048 3950
L8039 3940
L8020 3931
L7860 3931
" />
<path d="M7860 3743
L7860 3837
L7954 3847
L7945 3837
L7935 3818
L7935 3772
L7945 3753
L7954 3743
L7973 3734
L8020 3734
L8039 3743
L8048 3753
L8057 3772
L8057 3818
L8048 3837
L8039 3847
" />
</g>
<g style="fill:#000000; fill-opacity:0.0; 
stroke:#000000; stroke-width:29.5276; stroke-opacity:1; 
stroke-linecap:round; stroke-linejoin:round;">
</g>
<g style="fill:#C2C200; fill-opacity:0.0; 
stroke:#C2C200; stroke-width:29.5276; stroke-opacity:1; 
stroke-linecap:round; stroke-linejoin:round;">
</g>
<g style="fill:#C2C200; fill-opacity:0.0; 
stroke:#C2C200; stroke-width:59.0551; stroke-opacity:1; 
stroke-linecap:round; stroke-linejoin:round;">
<path d="M4694.95 2238.88 A8143.94 8143.94 0.0 1 0 8913.63 1492.31 " />
<path d="M8913 1492
L4701 2240
" />
</g> 
</svg>
