G04 #@! TF.FileFunction,Legend,Top*
%FSLAX46Y46*%
G04 Gerber Fmt 4.6, Leading zero omitted, Abs format (unit mm)*
G04 Created by KiCad (PCBNEW 4.0.6+dfsg1-1) date Sat Jan 27 12:23:12 2018*
%MOMM*%
%LPD*%
G01*
G04 APERTURE LIST*
%ADD10C,0.100000*%
%ADD11C,0.300000*%
%ADD12C,0.066040*%
%ADD13C,0.150000*%
%ADD14C,0.127000*%
%ADD15C,0.050800*%
%ADD16C,0.101600*%
%ADD17C,0.450000*%
%ADD18C,0.203200*%
%ADD19C,0.120000*%
G04 APERTURE END LIST*
D10*
D11*
X153264287Y-74978571D02*
X152550001Y-74978571D01*
X152478572Y-75692857D01*
X152550001Y-75621429D01*
X152692858Y-75550000D01*
X153050001Y-75550000D01*
X153192858Y-75621429D01*
X153264287Y-75692857D01*
X153335715Y-75835714D01*
X153335715Y-76192857D01*
X153264287Y-76335714D01*
X153192858Y-76407143D01*
X153050001Y-76478571D01*
X152692858Y-76478571D01*
X152550001Y-76407143D01*
X152478572Y-76335714D01*
X153764286Y-74978571D02*
X154264286Y-76478571D01*
X154764286Y-74978571D01*
X154657143Y-67325000D02*
X154514286Y-67253571D01*
X154300000Y-67253571D01*
X154085715Y-67325000D01*
X153942857Y-67467857D01*
X153871429Y-67610714D01*
X153800000Y-67896429D01*
X153800000Y-68110714D01*
X153871429Y-68396429D01*
X153942857Y-68539286D01*
X154085715Y-68682143D01*
X154300000Y-68753571D01*
X154442857Y-68753571D01*
X154657143Y-68682143D01*
X154728572Y-68610714D01*
X154728572Y-68110714D01*
X154442857Y-68110714D01*
X155371429Y-68753571D02*
X155371429Y-67253571D01*
X156228572Y-68753571D01*
X156228572Y-67253571D01*
X156942858Y-68753571D02*
X156942858Y-67253571D01*
X157300001Y-67253571D01*
X157514286Y-67325000D01*
X157657144Y-67467857D01*
X157728572Y-67610714D01*
X157800001Y-67896429D01*
X157800001Y-68110714D01*
X157728572Y-68396429D01*
X157657144Y-68539286D01*
X157514286Y-68682143D01*
X157300001Y-68753571D01*
X156942858Y-68753571D01*
X153550001Y-71303571D02*
X153550001Y-69803571D01*
X153907144Y-69803571D01*
X154121429Y-69875000D01*
X154264287Y-70017857D01*
X154335715Y-70160714D01*
X154407144Y-70446429D01*
X154407144Y-70660714D01*
X154335715Y-70946429D01*
X154264287Y-71089286D01*
X154121429Y-71232143D01*
X153907144Y-71303571D01*
X153550001Y-71303571D01*
X154978572Y-70875000D02*
X155692858Y-70875000D01*
X154835715Y-71303571D02*
X155335715Y-69803571D01*
X155835715Y-71303571D01*
X156121429Y-69803571D02*
X156978572Y-69803571D01*
X156550001Y-71303571D02*
X156550001Y-69803571D01*
X157407143Y-70875000D02*
X158121429Y-70875000D01*
X157264286Y-71303571D02*
X157764286Y-69803571D01*
X158264286Y-71303571D01*
X152857143Y-56975000D02*
X152714286Y-56903571D01*
X152500000Y-56903571D01*
X152285715Y-56975000D01*
X152142857Y-57117857D01*
X152071429Y-57260714D01*
X152000000Y-57546429D01*
X152000000Y-57760714D01*
X152071429Y-58046429D01*
X152142857Y-58189286D01*
X152285715Y-58332143D01*
X152500000Y-58403571D01*
X152642857Y-58403571D01*
X152857143Y-58332143D01*
X152928572Y-58260714D01*
X152928572Y-57760714D01*
X152642857Y-57760714D01*
X153571429Y-58403571D02*
X153571429Y-56903571D01*
X154428572Y-58403571D01*
X154428572Y-56903571D01*
X155142858Y-58403571D02*
X155142858Y-56903571D01*
X155500001Y-56903571D01*
X155714286Y-56975000D01*
X155857144Y-57117857D01*
X155928572Y-57260714D01*
X156000001Y-57546429D01*
X156000001Y-57760714D01*
X155928572Y-58046429D01*
X155857144Y-58189286D01*
X155714286Y-58332143D01*
X155500001Y-58403571D01*
X155142858Y-58403571D01*
X153107143Y-60810714D02*
X153035714Y-60882143D01*
X152821428Y-60953571D01*
X152678571Y-60953571D01*
X152464286Y-60882143D01*
X152321428Y-60739286D01*
X152250000Y-60596429D01*
X152178571Y-60310714D01*
X152178571Y-60096429D01*
X152250000Y-59810714D01*
X152321428Y-59667857D01*
X152464286Y-59525000D01*
X152678571Y-59453571D01*
X152821428Y-59453571D01*
X153035714Y-59525000D01*
X153107143Y-59596429D01*
X154464286Y-60953571D02*
X153750000Y-60953571D01*
X153750000Y-59453571D01*
X154964286Y-60953571D02*
X154964286Y-59453571D01*
X155821429Y-60953571D02*
X155178572Y-60096429D01*
X155821429Y-59453571D02*
X154964286Y-60310714D01*
X152464286Y-63503571D02*
X152464286Y-62003571D01*
X152821429Y-62003571D01*
X153035714Y-62075000D01*
X153178572Y-62217857D01*
X153250000Y-62360714D01*
X153321429Y-62646429D01*
X153321429Y-62860714D01*
X153250000Y-63146429D01*
X153178572Y-63289286D01*
X153035714Y-63432143D01*
X152821429Y-63503571D01*
X152464286Y-63503571D01*
X153964286Y-63503571D02*
X153964286Y-62003571D01*
X154964286Y-62003571D02*
X155250000Y-62003571D01*
X155392858Y-62075000D01*
X155535715Y-62217857D01*
X155607143Y-62503571D01*
X155607143Y-63003571D01*
X155535715Y-63289286D01*
X155392858Y-63432143D01*
X155250000Y-63503571D01*
X154964286Y-63503571D01*
X154821429Y-63432143D01*
X154678572Y-63289286D01*
X154607143Y-63003571D01*
X154607143Y-62503571D01*
X154678572Y-62217857D01*
X154821429Y-62075000D01*
X154964286Y-62003571D01*
X152142858Y-64553571D02*
X153071429Y-64553571D01*
X152571429Y-65125000D01*
X152785715Y-65125000D01*
X152928572Y-65196429D01*
X153000001Y-65267857D01*
X153071429Y-65410714D01*
X153071429Y-65767857D01*
X153000001Y-65910714D01*
X152928572Y-65982143D01*
X152785715Y-66053571D01*
X152357143Y-66053571D01*
X152214286Y-65982143D01*
X152142858Y-65910714D01*
X153500000Y-64553571D02*
X154000000Y-66053571D01*
X154500000Y-64553571D01*
X154857143Y-64553571D02*
X155785714Y-64553571D01*
X155285714Y-65125000D01*
X155500000Y-65125000D01*
X155642857Y-65196429D01*
X155714286Y-65267857D01*
X155785714Y-65410714D01*
X155785714Y-65767857D01*
X155714286Y-65910714D01*
X155642857Y-65982143D01*
X155500000Y-66053571D01*
X155071428Y-66053571D01*
X154928571Y-65982143D01*
X154857143Y-65910714D01*
D12*
X152454000Y-68774000D02*
X152454000Y-68266000D01*
X152454000Y-68266000D02*
X151946000Y-68266000D01*
X151946000Y-68774000D02*
X151946000Y-68266000D01*
X152454000Y-68774000D02*
X151946000Y-68774000D01*
X152454000Y-71314000D02*
X152454000Y-70806000D01*
X152454000Y-70806000D02*
X151946000Y-70806000D01*
X151946000Y-71314000D02*
X151946000Y-70806000D01*
X152454000Y-71314000D02*
X151946000Y-71314000D01*
X152454000Y-73854000D02*
X152454000Y-73346000D01*
X152454000Y-73346000D02*
X151946000Y-73346000D01*
X151946000Y-73854000D02*
X151946000Y-73346000D01*
X152454000Y-73854000D02*
X151946000Y-73854000D01*
X160546000Y-82006000D02*
X160546000Y-82514000D01*
X160546000Y-82514000D02*
X161054000Y-82514000D01*
X161054000Y-82006000D02*
X161054000Y-82514000D01*
X160546000Y-82006000D02*
X161054000Y-82006000D01*
X160546000Y-79466000D02*
X160546000Y-79974000D01*
X160546000Y-79974000D02*
X161054000Y-79974000D01*
X161054000Y-79466000D02*
X161054000Y-79974000D01*
X160546000Y-79466000D02*
X161054000Y-79466000D01*
X160546000Y-76926000D02*
X160546000Y-77434000D01*
X160546000Y-77434000D02*
X161054000Y-77434000D01*
X161054000Y-76926000D02*
X161054000Y-77434000D01*
X160546000Y-76926000D02*
X161054000Y-76926000D01*
X160546000Y-74386000D02*
X160546000Y-74894000D01*
X160546000Y-74894000D02*
X161054000Y-74894000D01*
X161054000Y-74386000D02*
X161054000Y-74894000D01*
X160546000Y-74386000D02*
X161054000Y-74386000D01*
X160546000Y-71846000D02*
X160546000Y-72354000D01*
X160546000Y-72354000D02*
X161054000Y-72354000D01*
X161054000Y-71846000D02*
X161054000Y-72354000D01*
X160546000Y-71846000D02*
X161054000Y-71846000D01*
D13*
X162920000Y-77486000D02*
X162920000Y-72660000D01*
X162920000Y-72660000D02*
X173080000Y-72660000D01*
X173080000Y-72660000D02*
X173080000Y-77486000D01*
X173080000Y-77486000D02*
X162920000Y-77486000D01*
X173080000Y-75708000D02*
X172445000Y-75708000D01*
X172445000Y-75708000D02*
X172445000Y-74438000D01*
X172445000Y-74438000D02*
X173080000Y-74438000D01*
D14*
X159729767Y-43461222D02*
X159582166Y-42624135D01*
X159582166Y-42624135D02*
X159573484Y-42574895D01*
X152836113Y-44676759D02*
X152679829Y-43790432D01*
X161418451Y-42960376D02*
X151816575Y-44653446D01*
X159582166Y-42624135D02*
G75*
G02X159987746Y-42044907I492404J86824D01*
G01*
X159837171Y-41766830D02*
G75*
G03X159188243Y-42693594I138918J-787846D01*
G01*
X159188243Y-42693594D02*
X159240337Y-42989037D01*
X159240337Y-42989037D02*
X158944895Y-43041131D01*
X158944895Y-43041131D02*
G75*
G03X158481513Y-42716667I-393923J-69459D01*
G01*
X152836113Y-44676759D02*
X152688512Y-43839672D01*
X152688512Y-43839672D02*
X152679829Y-43790432D01*
X152688511Y-43839672D02*
G75*
G03X152109284Y-43434093I-492403J-86824D01*
G01*
X152155670Y-43121286D02*
G75*
G02X153082435Y-43770213I138919J-787846D01*
G01*
X153082435Y-43770213D02*
X153134529Y-44065655D01*
X153134529Y-44065655D02*
X153429972Y-44013561D01*
X153429972Y-44013562D02*
G75*
G02X153754435Y-43550179I393923J69460D01*
G01*
X158481513Y-42716667D02*
X153852916Y-43532814D01*
D12*
X162408020Y-44621566D02*
X162408020Y-45121946D01*
X162408020Y-45121946D02*
X163357980Y-45121946D01*
X163357980Y-44621566D02*
X163357980Y-45121946D01*
X162408020Y-44621566D02*
X163357980Y-44621566D01*
X162408020Y-45789966D02*
X162408020Y-46287806D01*
X162408020Y-46287806D02*
X163357980Y-46287806D01*
X163357980Y-45789966D02*
X163357980Y-46287806D01*
X162408020Y-45789966D02*
X163357980Y-45789966D01*
X162578200Y-45261646D02*
X162578200Y-45657886D01*
X162578200Y-45657886D02*
X163177640Y-45657886D01*
X163177640Y-45261646D02*
X163177640Y-45657886D01*
X162578200Y-45261646D02*
X163177640Y-45261646D01*
D15*
X163860900Y-43989106D02*
X163860900Y-46930426D01*
X163860900Y-46930426D02*
X161894940Y-46930426D01*
X161894940Y-46930426D02*
X161894940Y-43989106D01*
X161894940Y-43989106D02*
X163860900Y-43989106D01*
D16*
X163309720Y-45104166D02*
X163309720Y-45815366D01*
X162461360Y-45104166D02*
X162461360Y-45815366D01*
D12*
X168486560Y-47430100D02*
X167986180Y-47430100D01*
X167986180Y-47430100D02*
X167986180Y-48380060D01*
X168486560Y-48380060D02*
X167986180Y-48380060D01*
X168486560Y-47430100D02*
X168486560Y-48380060D01*
X167318160Y-47430100D02*
X166820320Y-47430100D01*
X166820320Y-47430100D02*
X166820320Y-48380060D01*
X167318160Y-48380060D02*
X166820320Y-48380060D01*
X167318160Y-47430100D02*
X167318160Y-48380060D01*
X167846480Y-47600280D02*
X167450240Y-47600280D01*
X167450240Y-47600280D02*
X167450240Y-48199720D01*
X167846480Y-48199720D02*
X167450240Y-48199720D01*
X167846480Y-47600280D02*
X167846480Y-48199720D01*
D15*
X169119020Y-48882980D02*
X166177700Y-48882980D01*
X166177700Y-48882980D02*
X166177700Y-46917020D01*
X166177700Y-46917020D02*
X169119020Y-46917020D01*
X169119020Y-46917020D02*
X169119020Y-48882980D01*
D16*
X168003960Y-48331800D02*
X167292760Y-48331800D01*
X168003960Y-47483440D02*
X167292760Y-47483440D01*
D12*
X150754000Y-57634000D02*
X150754000Y-57126000D01*
X150754000Y-57126000D02*
X150246000Y-57126000D01*
X150246000Y-57634000D02*
X150246000Y-57126000D01*
X150754000Y-57634000D02*
X150246000Y-57634000D01*
X150754000Y-60174000D02*
X150754000Y-59666000D01*
X150754000Y-59666000D02*
X150246000Y-59666000D01*
X150246000Y-60174000D02*
X150246000Y-59666000D01*
X150754000Y-60174000D02*
X150246000Y-60174000D01*
X150754000Y-62714000D02*
X150754000Y-62206000D01*
X150754000Y-62206000D02*
X150246000Y-62206000D01*
X150246000Y-62714000D02*
X150246000Y-62206000D01*
X150754000Y-62714000D02*
X150246000Y-62714000D01*
X150754000Y-65254000D02*
X150754000Y-64746000D01*
X150754000Y-64746000D02*
X150246000Y-64746000D01*
X150246000Y-65254000D02*
X150246000Y-64746000D01*
X150754000Y-65254000D02*
X150246000Y-65254000D01*
X163446000Y-52454000D02*
X163954000Y-52454000D01*
X163954000Y-52454000D02*
X163954000Y-51946000D01*
X163446000Y-51946000D02*
X163954000Y-51946000D01*
X163446000Y-52454000D02*
X163446000Y-51946000D01*
X157138200Y-55730100D02*
X156637820Y-55730100D01*
X156637820Y-55730100D02*
X156637820Y-56680060D01*
X157138200Y-56680060D02*
X156637820Y-56680060D01*
X157138200Y-55730100D02*
X157138200Y-56680060D01*
X155969800Y-55730100D02*
X155471960Y-55730100D01*
X155471960Y-55730100D02*
X155471960Y-56680060D01*
X155969800Y-56680060D02*
X155471960Y-56680060D01*
X155969800Y-55730100D02*
X155969800Y-56680060D01*
X156498120Y-55900280D02*
X156101880Y-55900280D01*
X156101880Y-55900280D02*
X156101880Y-56499720D01*
X156498120Y-56499720D02*
X156101880Y-56499720D01*
X156498120Y-55900280D02*
X156498120Y-56499720D01*
D16*
X156655600Y-56631800D02*
X155944400Y-56631800D01*
X156655600Y-55783440D02*
X155944400Y-55783440D01*
D15*
X157900200Y-56885800D02*
X154699800Y-56885800D01*
X154699800Y-56885800D02*
X154699800Y-55514200D01*
X154699800Y-55514200D02*
X157900200Y-55514200D01*
X157900200Y-55514200D02*
X157900200Y-56885800D01*
D13*
X163800000Y-47200000D02*
G75*
G03X163800000Y-47200000I-100000J0D01*
G01*
X164250000Y-47450000D02*
X163750000Y-47450000D01*
X164250000Y-50350000D02*
X164250000Y-47450000D01*
X163750000Y-50350000D02*
X164250000Y-50350000D01*
X163750000Y-47450000D02*
X163750000Y-50350000D01*
D17*
X152724253Y-78000000D02*
G75*
G03X152724253Y-78000000I-2024253J0D01*
G01*
X174224253Y-51400000D02*
G75*
G03X174224253Y-51400000I-2024253J0D01*
G01*
D14*
X146000640Y-50200640D02*
X146000640Y-55199360D01*
X146000640Y-55199360D02*
X150999360Y-55199360D01*
X150999360Y-55199360D02*
X150999360Y-50200640D01*
X150999360Y-50200640D02*
X146000640Y-50200640D01*
D18*
X151000000Y-52700000D02*
X148500000Y-55200000D01*
D14*
X142800640Y-55800640D02*
X142800640Y-60799360D01*
X142800640Y-60799360D02*
X147799360Y-60799360D01*
X147799360Y-60799360D02*
X147799360Y-55800640D01*
X147799360Y-55800640D02*
X142800640Y-55800640D01*
D18*
X147800000Y-58300000D02*
X145300000Y-60800000D01*
D14*
X142800640Y-61400640D02*
X142800640Y-66399360D01*
X142800640Y-66399360D02*
X147799360Y-66399360D01*
X147799360Y-66399360D02*
X147799360Y-61400640D01*
X147799360Y-61400640D02*
X142800640Y-61400640D01*
D18*
X147800000Y-63900000D02*
X145300000Y-66400000D01*
D14*
X144400640Y-67100640D02*
X144400640Y-72099360D01*
X144400640Y-72099360D02*
X149399360Y-72099360D01*
X149399360Y-72099360D02*
X149399360Y-67100640D01*
X149399360Y-67100640D02*
X144400640Y-67100640D01*
D18*
X149400000Y-69600000D02*
X146900000Y-72100000D01*
D13*
X161600000Y-55650000D02*
X161600000Y-54400000D01*
X161600000Y-57650000D02*
X161600000Y-57150000D01*
X161600000Y-59650000D02*
X161600000Y-59150000D01*
X161600000Y-61650000D02*
X161600000Y-61150000D01*
X161600000Y-63650000D02*
X161600000Y-63150000D01*
X161600000Y-65650000D02*
X161600000Y-65150000D01*
X161600000Y-67650000D02*
X161600000Y-67150000D01*
X161600000Y-70400000D02*
X161600000Y-69150000D01*
X177600000Y-69150000D02*
X177600000Y-70400000D01*
X177600000Y-67150000D02*
X177600000Y-67650000D01*
X177600000Y-65150000D02*
X177600000Y-65650000D01*
X177600000Y-63150000D02*
X177600000Y-63650000D01*
X177600000Y-61150000D02*
X177600000Y-61650000D01*
X177600000Y-59150000D02*
X177600000Y-59650000D01*
X177600000Y-57150000D02*
X177600000Y-57650000D01*
X177600000Y-54400000D02*
X177600000Y-55650000D01*
D18*
X161601540Y-54401540D02*
X177598460Y-54401540D01*
X177598460Y-70398460D02*
X161601540Y-70398460D01*
X165602040Y-60401020D02*
X165602040Y-64398980D01*
X165602040Y-64398980D02*
X169600000Y-64398980D01*
X169600000Y-64398980D02*
X169600000Y-60401020D01*
X169600000Y-60401020D02*
X165602040Y-60401020D01*
X171598980Y-62897840D02*
X171598980Y-60901400D01*
X173597960Y-60901400D02*
X171598980Y-60901400D01*
X173597960Y-62897840D02*
X173597960Y-60901400D01*
X173597960Y-62897840D02*
X171598980Y-62897840D01*
D19*
X152310000Y-55135000D02*
X152310000Y-55255000D01*
X152310000Y-55255000D02*
X155090000Y-55255000D01*
X155090000Y-55255000D02*
X155090000Y-55135000D01*
X155090000Y-55135000D02*
X152310000Y-55135000D01*
X152310000Y-54500000D02*
X152310000Y-53745000D01*
X152310000Y-53745000D02*
X153700000Y-53745000D01*
D13*
X172707143Y-68566667D02*
X173183334Y-68566667D01*
X172611905Y-68852381D02*
X172945238Y-67852381D01*
X173278572Y-68852381D01*
X173611905Y-68852381D02*
X173611905Y-67852381D01*
X174183334Y-68852381D01*
X174183334Y-67852381D01*
X174516667Y-67852381D02*
X175088096Y-67852381D01*
X174802381Y-68852381D02*
X174802381Y-67852381D01*
X164838096Y-67900000D02*
X164742858Y-67852381D01*
X164600001Y-67852381D01*
X164457143Y-67900000D01*
X164361905Y-67995238D01*
X164314286Y-68090476D01*
X164266667Y-68280952D01*
X164266667Y-68423810D01*
X164314286Y-68614286D01*
X164361905Y-68709524D01*
X164457143Y-68804762D01*
X164600001Y-68852381D01*
X164695239Y-68852381D01*
X164838096Y-68804762D01*
X164885715Y-68757143D01*
X164885715Y-68423810D01*
X164695239Y-68423810D01*
X165314286Y-68852381D02*
X165314286Y-67852381D01*
X165885715Y-68852381D01*
X165885715Y-67852381D01*
X166361905Y-68852381D02*
X166361905Y-67852381D01*
X166600000Y-67852381D01*
X166742858Y-67900000D01*
X166838096Y-67995238D01*
X166885715Y-68090476D01*
X166933334Y-68280952D01*
X166933334Y-68423810D01*
X166885715Y-68614286D01*
X166838096Y-68709524D01*
X166742858Y-68804762D01*
X166600000Y-68852381D01*
X166361905Y-68852381D01*
M02*
