<?xml version="1.0" standalone="no"?>
 <!DOCTYPE svg PUBLIC "-//W3C//DTD SVG 1.1//EN" 
 "http://www.w3.org/Graphics/SVG/1.1/DTD/svg11.dtd"> 
<svg xmlns="http://www.w3.org/2000/svg" version="1.1" 
    width="4.7752cm" height="4.18846cm" viewBox="0 0 18800 16490 ">
<title>SVG Picture created as firefly2-brd.svg date 2018/07/01 16:58:35 </title>
  <desc>Picture generated by PCBNEW </desc>
<g style="fill:#000000; fill-opacity:1;stroke:#000000; stroke-opacity:1;
stroke-linecap:round; stroke-linejoin:round; "
 transform="translate(0 0) scale(1 1)">
</g>
<g style="fill:#000000; fill-opacity:0.0; 
stroke:#000000; stroke-width:-0.000393701; stroke-opacity:1; 
stroke-linecap:round; stroke-linejoin:round;">
</g>
<g style="fill:#840000; fill-opacity:0.0; 
stroke:#840000; stroke-width:-0.000393701; stroke-opacity:1; 
stroke-linecap:round; stroke-linejoin:round;">
</g>
<g style="fill:#840000; fill-opacity:0.0; 
stroke:#840000; stroke-width:59.0551; stroke-opacity:1; 
stroke-linecap:round; stroke-linejoin:round;">
<path d="M12811 12588
L12811 13257
" />
<path d="M12811 13257
L12417 13651
" />
<path d="M12417 13651
L12811 14045
" />
<path d="M12811 14045
L12811 15738
" />
<path d="M12811 15738
L11669 15738
" />
<path d="M11669 15738
L11669 12588
" />
<path d="M11669 12588
L12811 12588
" />
<path d="M11393 12176
L11393 12101
L11374 12063
L11355 12044
L11299 12007
L11224 11988
L11074 11988
L11037 12007
L11018 12026
L10999 12063
L10999 12138
L11018 12176
L11037 12194
L11074 12213
L11168 12213
L11205 12194
L11224 12176
L11243 12138
L11243 12063
L11224 12026
L11205 12007
L11168 11988
" />
<path d="M10999 12588
L10999 12363
" />
<path d="M10999 12476
L11393 12476
L11337 12438
L11299 12401
L11280 12363
" />
<path d="M11262 12926
L10999 12926
" />
<path d="M11412 12832
L11130 12738
L11130 12982
" />
<path d="M10999 13338
L10999 13113
" />
<path d="M10999 13226
L11393 13226
L11337 13188
L11299 13151
L11280 13113
" />
<path d="M11393 13582
L11393 13619
L11374 13657
L11355 13675
L11318 13694
L11243 13713
L11149 13713
L11074 13694
L11037 13675
L11018 13657
L10999 13619
L10999 13582
L11018 13544
L11037 13525
L11074 13507
L11149 13488
L11243 13488
L11318 13507
L11355 13525
L11374 13544
L11393 13582
" />
<path d="M11393 14069
L11393 13882
L11205 13863
L11224 13882
L11243 13919
L11243 14013
L11224 14050
L11205 14069
L11168 14088
L11074 14088
L11037 14069
L11018 14050
L10999 14013
L10999 13919
L11018 13882
L11037 13863
" />
<path d="M10999 14463
L10999 14238
" />
<path d="M10999 14350
L11393 14350
L11337 14313
L11299 14275
L11280 14238
" />
<path d="M11393 14819
L11393 14632
L11205 14613
L11224 14632
L11243 14669
L11243 14763
L11224 14800
L11205 14819
L11168 14838
L11074 14838
L11037 14819
L11018 14800
L10999 14763
L10999 14669
L11018 14632
L11037 14613
" />
<path d="M11393 15082
L11393 15119
L11374 15157
L11355 15175
L11318 15194
L11243 15213
L11149 15213
L11074 15194
L11037 15175
L11018 15157
L10999 15119
L10999 15082
L11018 15044
L11037 15025
L11074 15007
L11149 14988
L11243 14988
L11318 15007
L11355 15025
L11374 15044
L11393 15082
" />
<path d="M11393 15344
L11393 15606
L10999 15438
" />
<path d="M11355 15738
L11374 15756
L11393 15794
L11393 15888
L11374 15925
L11355 15944
L11318 15963
L11280 15963
L11224 15944
L10999 15719
L10999 15963
" />
<path d="M10999 16338
L10999 16113
" />
<path d="M10999 16225
L11393 16225
L11337 16188
L11299 16150
L11280 16113
" />
<path d="M12456 14032
L12175 14032
L12118 14013
L12081 13975
L12062 13919
L12062 13882
" />
<path d="M12418 14200
L12437 14219
L12456 14257
L12456 14350
L12437 14388
L12418 14407
L12381 14425
L12343 14425
L12287 14407
L12062 14182
L12062 14425
" />
</g>
<g style="fill:#000000; fill-opacity:0.0; 
stroke:#000000; stroke-width:59.0551; stroke-opacity:1; 
stroke-linecap:round; stroke-linejoin:round;">
</g>
<g style="fill:#840084; fill-opacity:0.0; 
stroke:#840084; stroke-width:59.0551; stroke-opacity:1; 
stroke-linecap:round; stroke-linejoin:round;">
</g>
<g style="fill:#840084; fill-opacity:0.0; 
stroke:#840084; stroke-width:118.11; stroke-opacity:1; 
stroke-linecap:round; stroke-linejoin:round;">
<path d="M7881 2881
L7965 2909
L7993 2937
L8021 2993
L8021 3077
L7993 3134
L7965 3162
L7909 3190
L7684 3190
L7684 2599
L7881 2599
L7937 2627
L7965 2656
L7993 2712
L7993 2768
L7965 2824
L7937 2852
L7881 2881
L7684 2881
" />
<path d="M8218 2796
L8359 3190
" />
<path d="M8499 2796
L8359 3190
L8303 3330
L8275 3359
L8218 3387
" />
<path d="M8724 3134
L8753 3162
L8724 3190
L8696 3162
L8724 3134
L8724 3190
" />
<path d="M8724 2824
L8753 2852
L8724 2881
L8696 2852
L8724 2824
L8724 2881
" />
<path d="M9793 3134
L9765 3162
L9681 3190
L9624 3190
L9540 3162
L9484 3106
L9456 3049
L9427 2937
L9427 2852
L9456 2740
L9484 2684
L9540 2627
L9624 2599
L9681 2599
L9765 2627
L9793 2656
" />
<path d="M10299 3190
L10299 2881
L10271 2824
L10215 2796
L10102 2796
L10046 2824
" />
<path d="M10299 3162
L10243 3190
L10102 3190
L10046 3162
L10018 3106
L10018 3049
L10046 2993
L10102 2965
L10243 2965
L10299 2937
" />
<path d="M10580 2796
L10580 3190
" />
<path d="M10580 2852
L10609 2824
L10665 2796
L10749 2796
L10805 2824
L10834 2881
L10834 3190
" />
<path d="M11368 3190
L11368 2599
" />
<path d="M11368 3162
L11312 3190
L11199 3190
L11143 3162
L11115 3134
L11087 3077
L11087 2909
L11115 2852
L11143 2824
L11199 2796
L11312 2796
L11368 2824
" />
<path d="M11593 2796
L11733 3190
" />
<path d="M11874 2796
L11733 3190
L11677 3330
L11649 3359
L11593 3387
" />
<path d="M12549 3190
L12549 2599
" />
<path d="M12886 3190
L12633 2852
" />
<path d="M12886 2599
L12549 2937
" />
<path d="M13140 3190
L13140 2796
" />
<path d="M13140 2599
L13111 2627
L13140 2656
L13168 2627
L13140 2599
L13140 2656
" />
<path d="M13421 2796
L13421 3190
" />
<path d="M13421 2852
L13449 2824
L13505 2796
L13589 2796
L13646 2824
L13674 2881
L13674 3190
" />
<path d="M14208 2796
L14208 3274
L14180 3330
L14152 3359
L14096 3387
L14011 3387
L13955 3359
" />
<path d="M14208 3162
L14152 3190
L14039 3190
L13983 3162
L13955 3134
L13927 3077
L13927 2909
L13955 2852
L13983 2824
L14039 2796
L14152 2796
L14208 2824
" />
<path d="M14742 3190
L14742 2599
" />
<path d="M14742 3162
L14686 3190
L14574 3190
L14517 3162
L14489 3134
L14461 3077
L14461 2909
L14489 2852
L14517 2824
L14574 2796
L14686 2796
L14742 2824
" />
<path d="M15108 3190
L15052 3162
L15024 3134
L14996 3077
L14996 2909
L15024 2852
L15052 2824
L15108 2796
L15192 2796
L15249 2824
L15277 2852
L15305 2909
L15305 3077
L15277 3134
L15249 3162
L15192 3190
L15108 3190
" />
<path d="M15558 3190
L15558 2796
" />
<path d="M15558 2852
L15586 2824
L15642 2796
L15727 2796
L15783 2824
L15811 2881
L15811 3190
" />
<path d="M15811 2881
L15839 2824
L15895 2796
L15980 2796
L16036 2824
L16064 2881
L16064 3190
" />
</g>
<g style="fill:#840084; fill-opacity:0.0; 
stroke:#840084; stroke-width:59.0551; stroke-opacity:1; 
stroke-linecap:round; stroke-linejoin:round;">
<path d="M5476 6446
L5476 6092
" />
<path d="M5339 6328
L5476 6446
" />
<path d="M5339 6289
L5339 6328
" />
<path d="M5299 6289
L5339 6289
" />
<path d="M5299 6348
L5299 6289
" />
<path d="M5378 6348
L5299 6348
" />
<path d="M5378 6328
L5378 6348
" />
<path d="M5378 6250
L5378 6328
" />
<path d="M5260 6250
L5378 6250
" />
<path d="M5260 6387
L5260 6250
" />
<path d="M5417 6387
L5260 6387
" />
<path d="M5417 6368
L5417 6387
" />
<path d="M5417 6210
L5417 6368
" />
<path d="M5221 6210
L5417 6210
" />
<path d="M5221 6427
L5221 6210
" />
<path d="M5457 6427
L5221 6427
" />
<path d="M5457 6151
L5457 6427
" />
<path d="M5181 6151
L5457 6151
" />
<path d="M5181 6486
L5181 6151
" />
<path d="M5516 6486
L5181 6486
" />
<path d="M5516 6092
L5516 6486
" />
<path d="M5142 6092
L5516 6092
" />
<path d="M5142 6525
L5142 6092
" />
<path d="M5575 6525
L5142 6525
" />
<path d="M5575 6053
L5575 6525
" />
<path d="M5102 6053
L5575 6053
" />
<path d="M5102 6564
L5102 6053
" />
<path d="M5614 6564
L5102 6564
" />
<path d="M5614 6053
L5614 6564
" />
<path d="M6244 6309
L6244 6348
" />
<path d="M6284 6309
L6244 6309
" />
<path d="M6284 6250
L6284 6309
" />
<path d="M6205 6250
L6284 6250
" />
<path d="M6205 6368
L6205 6250
" />
<path d="M6323 6368
L6205 6368
" />
<path d="M6323 6210
L6323 6368
" />
<path d="M6165 6210
L6323 6210
" />
<path d="M6165 6407
L6165 6210
" />
<path d="M6362 6407
L6165 6407
" />
<path d="M6362 6151
L6362 6407
" />
<path d="M6323 6151
L6362 6151
" />
<path d="M6126 6151
L6323 6151
" />
<path d="M6126 6446
L6126 6151
" />
<path d="M6402 6446
L6126 6446
" />
<path d="M6402 6131
L6402 6446
" />
<path d="M6087 6131
L6402 6131
" />
<path d="M6087 6486
L6087 6131
" />
<path d="M6441 6486
L6087 6486
" />
<path d="M6441 6092
L6441 6486
" />
<path d="M6047 6092
L6441 6092
" />
<path d="M6047 6525
L6047 6092
" />
<path d="M6480 6525
L6047 6525
" />
<path d="M6480 6053
L6480 6525
" />
<path d="M6008 6053
L6480 6053
" />
<path d="M6008 6564
L6008 6053
" />
<path d="M6520 6564
L6008 6564
" />
<path d="M6520 6053
L6520 6564
" />
<path d="M7248 6348
L7268 6328
" />
<path d="M7169 6348
L7248 6348
" />
<path d="M7169 6289
L7169 6348
" />
<path d="M7307 6289
L7169 6289
" />
<path d="M7307 6387
L7307 6289
" />
<path d="M7130 6387
L7307 6387
" />
<path d="M7130 6250
L7130 6387
" />
<path d="M7347 6250
L7130 6250
" />
<path d="M7347 6427
L7347 6250
" />
<path d="M7091 6427
L7347 6427
" />
<path d="M7091 6210
L7091 6427
" />
<path d="M7386 6210
L7091 6210
" />
<path d="M7386 6486
L7386 6210
" />
<path d="M7071 6486
L7386 6486
" />
<path d="M7071 6466
L7071 6486
" />
<path d="M7032 6486
L7071 6466
" />
<path d="M7051 6466
L7032 6486
" />
<path d="M7051 6171
L7051 6466
" />
<path d="M7012 6171
L7051 6171
" />
<path d="M7425 6171
L7012 6171
" />
<path d="M7425 6525
L7425 6171
" />
<path d="M6992 6525
L7425 6525
" />
<path d="M6992 6131
L6992 6525
" />
<path d="M6972 6131
L6992 6131
" />
<path d="M7465 6131
L6972 6131
" />
<path d="M7465 6072
L7465 6131
" />
<path d="M7465 6564
L7465 6072
" />
<path d="M6953 6564
L7465 6564
" />
<path d="M6953 6072
L6953 6564
" />
<path d="M7445 6072
L6953 6072
" />
<path d="M8075 6309
L8035 6309
" />
<path d="M8154 6309
L8075 6309
" />
<path d="M8154 6348
L8154 6309
" />
<path d="M8035 6348
L8154 6348
" />
<path d="M8035 6269
L8035 6348
" />
<path d="M8055 6269
L8035 6269
" />
<path d="M8193 6269
L8055 6269
" />
<path d="M8193 6407
L8193 6269
" />
<path d="M8035 6407
L8193 6407
" />
<path d="M7996 6387
L7996 6407
" />
<path d="M7996 6230
L7996 6387
" />
<path d="M8232 6230
L7996 6230
" />
<path d="M8232 6446
L8232 6230
" />
<path d="M7957 6446
L8232 6446
" />
<path d="M7957 6190
L7957 6446
" />
<path d="M8272 6190
L7957 6190
" />
<path d="M8272 6486
L8272 6190
" />
<path d="M7917 6486
L8272 6486
" />
<path d="M7917 6151
L7917 6486
" />
<path d="M8311 6151
L7917 6151
" />
<path d="M8311 6525
L8311 6151
" />
<path d="M7878 6525
L8311 6525
" />
<path d="M7878 6112
L7878 6525
" />
<path d="M8350 6112
L7878 6112
" />
<path d="M8350 6564
L8350 6112
" />
<path d="M7839 6564
L8350 6564
" />
<path d="M7839 6072
L7839 6564
" />
<path d="M8350 6072
L7839 6072
" />
<path d="M5654 6013
L5654 6604
" />
<path d="M5063 6013
L5654 6013
" />
<path d="M5063 6604
L5063 6013
" />
<path d="M5654 6604
L5063 6604
" />
<path d="M6559 6013
L6559 6604
" />
<path d="M5969 6013
L6559 6013
" />
<path d="M5969 6604
L5969 6013
" />
<path d="M6559 6604
L5969 6604
" />
<path d="M7504 6013
L7504 6604
" />
<path d="M6913 6013
L7504 6013
" />
<path d="M6913 6604
L6913 6013
" />
<path d="M7504 6604
L6913 6604
" />
<path d="M8390 6013
L8390 6604
" />
<path d="M7799 6013
L8390 6013
" />
<path d="M7799 6604
L7799 6013
" />
<path d="M8390 6604
L7799 6604
" />
</g>
<g style="fill:#840084; fill-opacity:0.0; 
stroke:#840084; stroke-width:118.11; stroke-opacity:1; 
stroke-linecap:round; stroke-linejoin:round;">
<path d="M8487 7290
L8487 7627
" />
<path d="M7896 7459
L8487 7459
" />
<path d="M8206 7824
L8206 8021
" />
<path d="M7896 8106
L7896 7824
L8487 7824
L8487 8106
" />
<path d="M7924 8330
L7896 8415
L7896 8555
L7924 8612
L7953 8640
L8009 8668
L8065 8668
L8121 8640
L8149 8612
L8177 8555
L8206 8443
L8234 8387
L8262 8359
L8318 8330
L8374 8330
L8431 8359
L8459 8387
L8487 8443
L8487 8584
L8459 8668
" />
<path d="M8487 8837
L8487 9174
" />
<path d="M7896 9005
L8487 9005
" />
<path d="M6949 7712
L6920 7684
L6892 7599
L6892 7543
L6920 7459
L6977 7402
L7033 7374
L7145 7346
L7230 7346
L7342 7374
L7399 7402
L7455 7459
L7483 7543
L7483 7599
L7455 7684
L7427 7712
" />
<path d="M7061 7937
L7061 8218
" />
<path d="M6892 7881
L7483 8077
L6892 8274
" />
<path d="M6892 8752
L6892 8471
L7483 8471
" />
<path d="M5888 7374
L6479 7374
L6479 7599
L6451 7656
L6423 7684
L6366 7712
L6282 7712
L6226 7684
L6198 7656
L6170 7599
L6170 7374
" />
<path d="M5888 8302
L6170 8106
" />
<path d="M5888 7965
L6479 7965
L6479 8190
L6451 8246
L6423 8274
L6366 8302
L6282 8302
L6226 8274
L6198 8246
L6170 8190
L6170 7965
" />
<path d="M6198 8555
L6198 8752
" />
<path d="M5888 8837
L5888 8555
L6479 8555
L6479 8837
" />
<path d="M5888 9090
L6479 9090
L6479 9315
L6451 9371
L6423 9399
L6366 9427
L6282 9427
L6226 9399
L6198 9371
L6170 9315
L6170 9090
" />
<path d="M5888 10018
L6170 9821
" />
<path d="M5888 9680
L6479 9680
L6479 9905
L6451 9962
L6423 9990
L6366 10018
L6282 10018
L6226 9990
L6198 9962
L6170 9905
L6170 9680
" />
<path d="M6479 10383
L6479 10496
L6451 10552
L6395 10608
L6282 10636
L6085 10636
L5973 10608
L5917 10552
L5888 10496
L5888 10383
L5917 10327
L5973 10271
L6085 10243
L6282 10243
L6395 10271
L6451 10327
L6479 10383
" />
<path d="M5888 10890
L6479 10890
L6479 11030
L6451 11115
L6395 11171
L6338 11199
L6226 11227
L6141 11227
L6029 11199
L5973 11171
L5917 11115
L5888 11030
L5888 10890
" />
<path d="M4884 7374
L5475 7374
L5475 7599
L5447 7656
L5419 7684
L5363 7712
L5278 7712
L5222 7684
L5194 7656
L5166 7599
L5166 7374
" />
<path d="M4884 8302
L5166 8106
" />
<path d="M4884 7965
L5475 7965
L5475 8190
L5447 8246
L5419 8274
L5363 8302
L5278 8302
L5222 8274
L5194 8246
L5166 8190
L5166 7965
" />
<path d="M5475 8668
L5475 8780
L5447 8837
L5391 8893
L5278 8921
L5081 8921
L4969 8893
L4913 8837
L4884 8780
L4884 8668
L4913 8612
L4969 8555
L5081 8527
L5278 8527
L5391 8555
L5447 8612
L5475 8668
" />
<path d="M4884 9174
L5475 9174
L5475 9315
L5447 9399
L5391 9455
L5334 9483
L5222 9512
L5138 9512
L5025 9483
L4969 9455
L4913 9399
L4884 9315
L4884 9174
" />
<path d="M10184 3747
L9987 3747
" />
<path d="M9987 4056
L9987 3465
L10268 3465
" />
<path d="M10493 4056
L10493 3662
" />
<path d="M10493 3465
L10465 3494
L10493 3522
L10521 3494
L10493 3465
L10493 3522
" />
<path d="M10775 4056
L10775 3662
" />
<path d="M10775 3775
L10803 3719
L10831 3690
L10887 3662
L10943 3662
" />
<path d="M11365 4028
L11309 4056
L11196 4056
L11140 4028
L11112 3972
L11112 3747
L11140 3690
L11196 3662
L11309 3662
L11365 3690
L11393 3747
L11393 3803
L11112 3859
" />
<path d="M11562 3662
L11787 3662
" />
<path d="M11646 4056
L11646 3550
L11674 3494
L11731 3465
L11787 3465
" />
<path d="M12068 4056
L12012 4028
L11984 3972
L11984 3465
" />
<path d="M12237 3662
L12377 4056
" />
<path d="M12518 3662
L12377 4056
L12321 4197
L12293 4225
L12237 4253
" />
<path d="M13109 3465
L13305 4056
L13502 3465
" />
<path d="M13671 3522
L13699 3494
L13755 3465
L13896 3465
L13952 3494
L13980 3522
L14008 3578
L14008 3634
L13980 3719
L13643 4056
L14008 4056
" />
<path d="M14262 4000
L14290 4028
L14262 4056
L14233 4028
L14262 4000
L14262 4056
" />
<path d="M14852 4056
L14515 4056
" />
<path d="M14683 4056
L14683 3465
L14627 3550
L14571 3606
L14515 3634
" />
<path d="M9084 11182
L8803 11182
L8775 11463
L8803 11435
L8859 11407
L9000 11407
L9056 11435
L9084 11463
L9113 11519
L9113 11660
L9084 11716
L9056 11744
L9000 11773
L8859 11773
L8803 11744
L8775 11716
" />
<path d="M9281 11182
L9478 11773
L9675 11182
" />
<path d="M8466 12186
L8831 12186
L8634 12411
L8719 12411
L8775 12439
L8803 12467
L8831 12523
L8831 12664
L8803 12720
L8775 12748
L8719 12776
L8550 12776
L8494 12748
L8466 12720
" />
<path d="M9000 12186
L9197 12776
L9394 12186
" />
<path d="M9534 12186
L9900 12186
L9703 12411
L9787 12411
L9844 12439
L9872 12467
L9900 12523
L9900 12664
L9872 12720
L9844 12748
L9787 12776
L9619 12776
L9562 12748
L9534 12720
" />
<path d="M8185 13612
L8466 13612
" />
<path d="M8128 13780
L8325 13190
L8522 13780
" />
<path d="M8719 13190
L8719 13668
L8747 13724
L8775 13752
L8831 13780
L8944 13780
L9000 13752
L9028 13724
L9056 13668
L9056 13190
" />
<path d="M9281 13190
L9675 13780
" />
<path d="M9675 13190
L9281 13780
" />
<path d="M10209 13780
L9872 13780
" />
<path d="M10041 13780
L10041 13190
L9984 13274
L9928 13330
L9872 13359
" />
<path d="M8185 14616
L8466 14616
" />
<path d="M8128 14784
L8325 14194
L8522 14784
" />
<path d="M8719 14194
L8719 14672
L8747 14728
L8775 14756
L8831 14784
L8944 14784
L9000 14756
L9028 14728
L9056 14672
L9056 14194
" />
<path d="M9281 14194
L9675 14784
" />
<path d="M9675 14194
L9281 14784
" />
<path d="M9872 14250
L9900 14222
L9956 14194
L10097 14194
L10153 14222
L10181 14250
L10209 14306
L10209 14363
L10181 14447
L9844 14784
L10209 14784
" />
<path d="M8747 15226
L8691 15198
L8606 15198
L8522 15226
L8466 15282
L8438 15338
L8409 15451
L8409 15535
L8438 15648
L8466 15704
L8522 15760
L8606 15788
L8663 15788
L8747 15760
L8775 15732
L8775 15535
L8663 15535
" />
<path d="M9028 15788
L9028 15198
L9366 15788
L9366 15198
" />
<path d="M9647 15788
L9647 15198
L9787 15198
L9872 15226
L9928 15282
L9956 15338
L9984 15451
L9984 15535
L9956 15648
L9928 15704
L9872 15760
L9787 15788
L9647 15788
" />
</g>
<g style="fill:#840084; fill-opacity:0.0; 
stroke:#840084; stroke-width:80; stroke-opacity:1; 
stroke-linecap:round; stroke-linejoin:round;">
<path d="M13955 10616
L14205 10366
" />
<path d="M14205 10366
L14205 9866
" />
<path d="M14205 9866
L13955 9616
" />
<path d="M13455 9616
L13205 9866
" />
<path d="M13205 9866
L13205 10366
" />
<path d="M13205 10366
L13455 10616
" />
<path d="M14205 12366
L14205 11866
" />
<path d="M14205 11866
L13955 11616
" />
<path d="M13455 11616
L13205 11866
" />
<path d="M13955 11616
L14205 11366
" />
<path d="M14205 11366
L14205 10866
" />
<path d="M14205 10866
L13955 10616
" />
<path d="M13455 10616
L13205 10866
" />
<path d="M13205 10866
L13205 11366
" />
<path d="M13205 11366
L13455 11616
" />
<path d="M13955 12616
L13455 12616
" />
<path d="M14205 12366
L13955 12616
" />
<path d="M13455 12616
L13205 12366
" />
<path d="M13205 11866
L13205 12366
" />
<path d="M13955 9616
L13455 9616
" />
</g>
<g style="fill:#840084; fill-opacity:0.0; 
stroke:#840084; stroke-width:59.0551; stroke-opacity:1; 
stroke-linecap:round; stroke-linejoin:round;">
<path d="M12683 12529
L12870 12529
" />
<path d="M12870 12529
L12870 15797
" />
<path d="M12870 15797
L12683 15797
" />
<path d="M11797 12529
L11610 12529
" />
<path d="M11610 12529
L11610 15797
" />
<path d="M11610 15797
L11797 15797
" />
<path d="M12988 13257
L12988 14045
" />
</g>
<g style="fill:#840084; fill-opacity:0.0; 
stroke:#840084; stroke-width:26; stroke-opacity:1; 
stroke-linecap:round; stroke-linejoin:round;">
<path d="M10672 15350
L10672 15550
" />
<path d="M10672 15550
L10872 15550
" />
<path d="M10872 15350
L10872 15550
" />
<path d="M10672 15350
L10872 15350
" />
<path d="M10672 14350
L10672 14550
" />
<path d="M10672 14550
L10872 14550
" />
<path d="M10872 14350
L10872 14550
" />
<path d="M10672 14350
L10872 14350
" />
<path d="M10672 13350
L10672 13550
" />
<path d="M10672 13550
L10872 13550
" />
<path d="M10872 13350
L10872 13550
" />
<path d="M10672 13350
L10872 13350
" />
<path d="M10672 12350
L10672 12550
" />
<path d="M10672 12550
L10872 12550
" />
<path d="M10872 12350
L10872 12550
" />
<path d="M10672 12350
L10872 12350
" />
<path d="M10672 11350
L10672 11550
" />
<path d="M10672 11550
L10872 11550
" />
<path d="M10872 11350
L10872 11550
" />
<path d="M10672 11350
L10872 11350
" />
</g>
<g style="fill:#840084; fill-opacity:0.0; 
stroke:#840084; stroke-width:60; stroke-opacity:1; 
stroke-linecap:round; stroke-linejoin:round;">
<path d="M8399 958
L8399 1194
" />
<path d="M8871 958
L8871 1194
" />
</g>
<g style="fill:#840084; fill-opacity:0.0; 
stroke:#840084; stroke-width:80; stroke-opacity:1; 
stroke-linecap:round; stroke-linejoin:round;">
<path d="M8677 3440
L8927 3190
" />
<path d="M8927 3190
L9427 3190
" />
<path d="M9427 3190
L9677 3440
" />
<path d="M9677 3440
L9677 3940
" />
<path d="M9677 3940
L9427 4190
" />
<path d="M9427 4190
L8927 4190
" />
<path d="M8927 4190
L8677 3940
" />
<path d="M8677 3940
L8677 3440
" />
<path d="M13874 5980
L13874 5480
" />
<path d="M13874 5480
L14124 5230
" />
<path d="M14624 5230
L14874 5480
" />
<path d="M14124 7230
L13874 6980
" />
<path d="M13874 6980
L13874 6480
" />
<path d="M13874 6480
L14124 6230
" />
<path d="M14624 6230
L14874 6480
" />
<path d="M14874 6480
L14874 6980
" />
<path d="M14874 6980
L14624 7230
" />
<path d="M13874 5980
L14124 6230
" />
<path d="M14624 6230
L14874 5980
" />
<path d="M14874 5480
L14874 5980
" />
<path d="M13874 8980
L13874 8480
" />
<path d="M13874 8480
L14124 8230
" />
<path d="M14624 8230
L14874 8480
" />
<path d="M14124 8230
L13874 7980
" />
<path d="M13874 7980
L13874 7480
" />
<path d="M13874 7480
L14124 7230
" />
<path d="M14624 7230
L14874 7480
" />
<path d="M14874 7480
L14874 7980
" />
<path d="M14874 7980
L14624 8230
" />
<path d="M14124 9230
L14624 9230
" />
<path d="M13874 8980
L14124 9230
" />
<path d="M14624 9230
L14874 8980
" />
<path d="M14874 8480
L14874 8980
" />
<path d="M14124 5230
L14624 5230
" />
</g>
<g style="fill:#840084; fill-opacity:0.0; 
stroke:#840084; stroke-width:50; stroke-opacity:1; 
stroke-linecap:round; stroke-linejoin:round;">
<path d="M14449 11765
L14949 11765
L14949 11574
L14925 11527
L14901 11503
L14853 11479
L14782 11479
L14734 11503
L14710 11527
L14687 11574
L14687 11765
" />
<path d="M14901 11288
L14925 11265
L14949 11217
L14949 11098
L14925 11050
L14901 11027
L14853 11003
L14806 11003
L14734 11027
L14449 11312
L14449 11003
" />
</g>
<g style="fill:#840000; fill-opacity:0.0; 
stroke:#840000; stroke-width:50; stroke-opacity:1; 
stroke-linecap:round; stroke-linejoin:round;">
</g>
<g style="fill:#840000; fill-opacity:0.0; 
stroke:#840000; stroke-width:59.0551; stroke-opacity:1; 
stroke-linecap:round; stroke-linejoin:round;">
<path d="M13519 14032
L13238 14032
L13181 14013
L13144 13975
L13125 13919
L13125 13882
" />
<path d="M13481 14200
L13500 14219
L13519 14257
L13519 14350
L13500 14388
L13481 14407
L13444 14425
L13406 14425
L13350 14407
L13125 14182
L13125 14425
" />
</g>
<g style="fill:#840084; fill-opacity:0.0; 
stroke:#840084; stroke-width:59.0551; stroke-opacity:1; 
stroke-linecap:round; stroke-linejoin:round;">
</g>
<g style="fill:#840084; fill-opacity:0.0; 
stroke:#840084; stroke-width:10; stroke-opacity:1; 
stroke-linecap:round; stroke-linejoin:round;">
<path d="M8173 1203
L8165 1210
L8157 1233
L8157 1249
L8165 1271
L8180 1287
L8195 1294
L8226 1302
L8249 1302
L8279 1294
L8294 1287
L8310 1271
L8317 1249
L8317 1233
L8310 1210
L8302 1203
" />
<path d="M8157 1050
L8157 1142
" />
<path d="M8157 1096
L8317 1096
L8294 1111
L8279 1127
L8272 1142
" />
<path d="M9032 1328
L9032 1419
" />
<path d="M9032 1373
L9192 1373
L9169 1389
L9154 1404
L9147 1419
" />
<path d="M9192 1229
L9192 1213
L9185 1198
L9177 1190
L9162 1183
L9131 1175
L9093 1175
L9063 1183
L9048 1190
L9040 1198
L9032 1213
L9032 1229
L9040 1244
L9048 1251
L9063 1259
L9093 1267
L9131 1267
L9162 1259
L9177 1251
L9185 1244
L9192 1229
" />
<path d="M9139 1038
L9032 1038
" />
<path d="M9139 1107
L9055 1107
L9040 1099
L9032 1084
L9032 1061
L9040 1046
L9048 1038
" />
<path d="M9116 909
L9116 962
" />
<path d="M9032 962
L9192 962
L9192 886
" />
<path d="M9064 1113
L9056 1121
L9048 1144
L9048 1159
L9056 1182
L9071 1197
L9087 1205
L9117 1213
L9140 1213
L9170 1205
L9186 1197
L9201 1182
L9208 1159
L9208 1144
L9201 1121
L9193 1113
" />
<path d="M9193 1053
L9201 1045
L9208 1030
L9208 992
L9201 976
L9193 969
L9178 961
L9163 961
L9140 969
L9048 1060
L9048 961
" />
<path d="M9798 1212
L9798 1303
" />
<path d="M9798 1258
L9958 1258
L9936 1273
L9920 1288
L9913 1303
" />
<path d="M9905 1075
L9798 1075
" />
<path d="M9905 1143
L9821 1143
L9806 1136
L9798 1121
L9798 1098
L9806 1083
L9814 1075
" />
<path d="M9882 945
L9882 999
" />
<path d="M9798 999
L9958 999
L9958 923
" />
<path d="M7699 2435
L7707 2442
L7730 2450
L7745 2450
L7768 2442
L7783 2427
L7791 2412
L7798 2381
L7798 2358
L7791 2328
L7783 2313
L7768 2298
L7745 2290
L7730 2290
L7707 2298
L7699 2305
" />
<path d="M7646 2290
L7547 2290
L7600 2351
L7578 2351
L7562 2358
L7555 2366
L7547 2381
L7547 2419
L7555 2435
L7562 2442
L7578 2450
L7623 2450
L7638 2442
L7646 2435
" />
<path d="M7798 1700
L7889 1700
" />
<path d="M7844 1700
L7844 1540
L7859 1563
L7874 1578
L7889 1586
" />
<path d="M7661 1593
L7661 1700
" />
<path d="M7729 1593
L7729 1677
L7722 1692
L7707 1700
L7684 1700
L7668 1692
L7661 1685
" />
<path d="M7531 1616
L7585 1616
" />
<path d="M7585 1700
L7585 1540
L7508 1540
" />
</g>
<g style="fill:#840084; fill-opacity:0.0; 
stroke:#840084; stroke-width:40; stroke-opacity:1; 
stroke-linecap:round; stroke-linejoin:round;">
<path d="M7827 2947
L7827 2447
L7637 2447
L7589 2470
L7565 2494
L7542 2542
L7542 2613
L7565 2661
L7589 2685
L7637 2709
L7827 2709
" />
<path d="M7089 2447
L7327 2447
L7351 2685
L7327 2661
L7280 2637
L7161 2637
L7113 2661
L7089 2685
L7065 2732
L7065 2851
L7089 2899
L7113 2923
L7161 2947
L7280 2947
L7327 2923
L7351 2899
" />
<path d="M10189 4869
L10213 4893
L10284 4917
L10332 4917
L10403 4893
L10451 4845
L10475 4798
L10499 4702
L10499 4631
L10475 4536
L10451 4488
L10403 4440
L10332 4417
L10284 4417
L10213 4440
L10189 4464
" />
<path d="M9880 4417
L9784 4417
L9737 4440
L9689 4488
L9665 4583
L9665 4750
L9689 4845
L9737 4893
L9784 4917
L9880 4917
L9927 4893
L9975 4845
L9999 4750
L9999 4583
L9975 4488
L9927 4440
L9880 4417
" />
<path d="M9451 4917
L9451 4417
L9165 4917
L9165 4417
" />
<path d="M8927 4917
L8927 4417
L8641 4917
L8641 4417
" />
<path d="M8522 4964
L8141 4964
" />
<path d="M7927 4417
L7880 4417
L7832 4440
L7808 4464
L7784 4512
L7761 4607
L7761 4726
L7784 4821
L7808 4869
L7832 4893
L7880 4917
L7927 4917
L7975 4893
L7999 4869
L8022 4821
L8046 4726
L8046 4607
L8022 4512
L7999 4464
L7975 4440
L7927 4417
" />
<path d="M7284 4917
L7570 4917
" />
<path d="M7427 4917
L7427 4417
L7475 4488
L7522 4536
L7570 4559
" />
<path d="M7118 4417
L6784 4917
" />
<path d="M6784 4417
L7118 4917
" />
<path d="M6499 4417
L6451 4417
L6403 4440
L6380 4464
L6356 4512
L6332 4607
L6332 4726
L6356 4821
L6380 4869
L6403 4893
L6451 4917
L6499 4917
L6546 4893
L6570 4869
L6594 4821
L6618 4726
L6618 4607
L6594 4512
L6570 4464
L6546 4440
L6499 4417
" />
<path d="M5856 4917
L6141 4917
" />
<path d="M5999 4917
L5999 4417
L6046 4488
L6094 4536
L6141 4559
" />
</g>
<g style="fill:#840084; fill-opacity:0.0; 
stroke:#840084; stroke-width:30; stroke-opacity:1; 
stroke-linecap:round; stroke-linejoin:round;">
<path d="M12783 3396
L12783 2996
L12687 2996
L12630 3015
L12592 3053
L12573 3091
L12554 3168
L12554 3225
L12573 3301
L12592 3339
L12630 3377
L12687 3396
L12783 3396
" />
<path d="M12173 3396
L12402 3396
" />
<path d="M12287 3396
L12287 2996
L12326 3053
L12364 3091
L12402 3111
" />
</g>
<g style="fill:#840084; fill-opacity:0.0; 
stroke:#840084; stroke-width:20; stroke-opacity:1; 
stroke-linecap:round; stroke-linejoin:round;">
<path d="M13562 4265
L13505 4505
L13459 4333
L13413 4505
L13356 4265
" />
<path d="M13276 4493
L13242 4505
L13185 4505
L13162 4493
L13150 4482
L13139 4459
L13139 4436
L13150 4413
L13162 4402
L13185 4391
L13230 4379
L13253 4368
L13265 4356
L13276 4333
L13276 4311
L13265 4288
L13253 4276
L13230 4265
L13173 4265
L13139 4276
" />
<path d="M13047 4288
L13036 4276
L13013 4265
L12956 4265
L12933 4276
L12922 4288
L12910 4311
L12910 4333
L12922 4368
L13059 4505
L12910 4505
" />
<path d="M12773 4368
L12796 4356
L12807 4345
L12819 4322
L12819 4311
L12807 4288
L12796 4276
L12773 4265
L12727 4265
L12705 4276
L12693 4288
L12682 4311
L12682 4322
L12693 4345
L12705 4356
L12727 4368
L12773 4368
L12796 4379
L12807 4391
L12819 4413
L12819 4459
L12807 4482
L12796 4493
L12773 4505
L12727 4505
L12705 4493
L12693 4482
L12682 4459
L12682 4413
L12693 4391
L12705 4379
L12727 4368
" />
<path d="M12453 4505
L12590 4505
" />
<path d="M12522 4505
L12522 4265
L12545 4299
L12567 4322
L12590 4333
" />
<path d="M12362 4288
L12350 4276
L12327 4265
L12270 4265
L12247 4276
L12236 4288
L12225 4311
L12225 4333
L12236 4368
L12373 4505
L12225 4505
" />
<path d="M12042 4379
L12007 4391
L11996 4402
L11985 4425
L11985 4459
L11996 4482
L12007 4493
L12030 4505
L12122 4505
L12122 4265
L12042 4265
L12019 4276
L12007 4288
L11996 4311
L11996 4333
L12007 4356
L12019 4368
L12042 4379
L12122 4379
" />
</g>
<g style="fill:#840084; fill-opacity:0.0; 
stroke:#840084; stroke-width:30; stroke-opacity:1; 
stroke-linecap:round; stroke-linejoin:round;">
<path d="M14043 5601
L14043 5201
L13947 5201
L13890 5220
L13852 5258
L13833 5296
L13814 5372
L13814 5430
L13833 5506
L13852 5544
L13890 5582
L13947 5601
L14043 5601
" />
<path d="M13662 5239
L13643 5220
L13604 5201
L13509 5201
L13471 5220
L13452 5239
L13433 5277
L13433 5315
L13452 5372
L13681 5601
L13433 5601
" />
</g>
<g style="fill:#840084; fill-opacity:0.0; 
stroke:#840084; stroke-width:20; stroke-opacity:1; 
stroke-linecap:round; stroke-linejoin:round;">
<path d="M14822 6470
L14764 6710
L14719 6538
L14673 6710
L14616 6470
" />
<path d="M14536 6698
L14502 6710
L14444 6710
L14422 6698
L14410 6687
L14399 6664
L14399 6641
L14410 6618
L14422 6607
L14444 6595
L14490 6584
L14513 6572
L14524 6561
L14536 6538
L14536 6515
L14524 6492
L14513 6481
L14490 6470
L14433 6470
L14399 6481
" />
<path d="M14307 6492
L14296 6481
L14273 6470
L14216 6470
L14193 6481
L14182 6492
L14170 6515
L14170 6538
L14182 6572
L14319 6710
L14170 6710
" />
<path d="M14033 6572
L14056 6561
L14067 6550
L14079 6527
L14079 6515
L14067 6492
L14056 6481
L14033 6470
L13987 6470
L13964 6481
L13953 6492
L13942 6515
L13942 6527
L13953 6550
L13964 6561
L13987 6572
L14033 6572
L14056 6584
L14067 6595
L14079 6618
L14079 6664
L14067 6687
L14056 6698
L14033 6710
L13987 6710
L13964 6698
L13953 6687
L13942 6664
L13942 6618
L13953 6595
L13964 6584
L13987 6572
" />
<path d="M13713 6710
L13850 6710
" />
<path d="M13782 6710
L13782 6470
L13804 6504
L13827 6527
L13850 6538
" />
<path d="M13622 6492
L13610 6481
L13587 6470
L13530 6470
L13507 6481
L13496 6492
L13484 6515
L13484 6538
L13496 6572
L13633 6710
L13484 6710
" />
<path d="M13302 6584
L13267 6595
L13256 6607
L13244 6630
L13244 6664
L13256 6687
L13267 6698
L13290 6710
L13382 6710
L13382 6470
L13302 6470
L13279 6481
L13267 6492
L13256 6515
L13256 6538
L13267 6561
L13279 6572
L13302 6584
L13382 6584
" />
</g>
<g style="fill:#840084; fill-opacity:0.0; 
stroke:#840084; stroke-width:30; stroke-opacity:1; 
stroke-linecap:round; stroke-linejoin:round;">
<path d="M14043 7806
L14043 7406
L13947 7406
L13890 7425
L13852 7463
L13833 7501
L13814 7577
L13814 7634
L13833 7710
L13852 7749
L13890 7787
L13947 7806
L14043 7806
" />
<path d="M13681 7406
L13433 7406
L13566 7558
L13509 7558
L13471 7577
L13452 7596
L13433 7634
L13433 7730
L13452 7768
L13471 7787
L13509 7806
L13623 7806
L13662 7787
L13681 7768
" />
</g>
<g style="fill:#840084; fill-opacity:0.0; 
stroke:#840084; stroke-width:20; stroke-opacity:1; 
stroke-linecap:round; stroke-linejoin:round;">
<path d="M14822 8674
L14764 8914
L14719 8743
L14673 8914
L14616 8674
" />
<path d="M14536 8903
L14502 8914
L14444 8914
L14422 8903
L14410 8891
L14399 8869
L14399 8846
L14410 8823
L14422 8811
L14444 8800
L14490 8789
L14513 8777
L14524 8766
L14536 8743
L14536 8720
L14524 8697
L14513 8686
L14490 8674
L14433 8674
L14399 8686
" />
<path d="M14307 8697
L14296 8686
L14273 8674
L14216 8674
L14193 8686
L14182 8697
L14170 8720
L14170 8743
L14182 8777
L14319 8914
L14170 8914
" />
<path d="M14033 8777
L14056 8766
L14067 8754
L14079 8731
L14079 8720
L14067 8697
L14056 8686
L14033 8674
L13987 8674
L13964 8686
L13953 8697
L13942 8720
L13942 8731
L13953 8754
L13964 8766
L13987 8777
L14033 8777
L14056 8789
L14067 8800
L14079 8823
L14079 8869
L14067 8891
L14056 8903
L14033 8914
L13987 8914
L13964 8903
L13953 8891
L13942 8869
L13942 8823
L13953 8800
L13964 8789
L13987 8777
" />
<path d="M13713 8914
L13850 8914
" />
<path d="M13782 8914
L13782 8674
L13804 8709
L13827 8731
L13850 8743
" />
<path d="M13622 8697
L13610 8686
L13587 8674
L13530 8674
L13507 8686
L13496 8697
L13484 8720
L13484 8743
L13496 8777
L13633 8914
L13484 8914
" />
<path d="M13302 8789
L13267 8800
L13256 8811
L13244 8834
L13244 8869
L13256 8891
L13267 8903
L13290 8914
L13382 8914
L13382 8674
L13302 8674
L13279 8686
L13267 8697
L13256 8720
L13256 8743
L13267 8766
L13279 8777
L13302 8789
L13382 8789
" />
</g>
<g style="fill:#840084; fill-opacity:0.0; 
stroke:#840084; stroke-width:30; stroke-opacity:1; 
stroke-linecap:round; stroke-linejoin:round;">
<path d="M13413 10050
L13413 9650
L13317 9650
L13260 9669
L13222 9707
L13203 9745
L13184 9821
L13184 9878
L13203 9955
L13222 9993
L13260 10031
L13317 10050
L13413 10050
" />
<path d="M12841 9783
L12841 10050
" />
<path d="M12936 9631
L13032 9916
L12784 9916
" />
</g>
<g style="fill:#840084; fill-opacity:0.0; 
stroke:#840084; stroke-width:20; stroke-opacity:1; 
stroke-linecap:round; stroke-linejoin:round;">
<path d="M14192 10918
L14135 11158
L14089 10987
L14043 11158
L13986 10918
" />
<path d="M13906 11147
L13872 11158
L13815 11158
L13792 11147
L13780 11136
L13769 11113
L13769 11090
L13780 11067
L13792 11056
L13815 11044
L13860 11033
L13883 11021
L13895 11010
L13906 10987
L13906 10964
L13895 10941
L13883 10930
L13860 10918
L13803 10918
L13769 10930
" />
<path d="M13677 10941
L13666 10930
L13643 10918
L13586 10918
L13563 10930
L13552 10941
L13540 10964
L13540 10987
L13552 11021
L13689 11158
L13540 11158
" />
<path d="M13403 11021
L13426 11010
L13437 10998
L13449 10976
L13449 10964
L13437 10941
L13426 10930
L13403 10918
L13357 10918
L13335 10930
L13323 10941
L13312 10964
L13312 10976
L13323 10998
L13335 11010
L13357 11021
L13403 11021
L13426 11033
L13437 11044
L13449 11067
L13449 11113
L13437 11136
L13426 11147
L13403 11158
L13357 11158
L13335 11147
L13323 11136
L13312 11113
L13312 11067
L13323 11044
L13335 11033
L13357 11021
" />
<path d="M13083 11158
L13220 11158
" />
<path d="M13152 11158
L13152 10918
L13175 10953
L13197 10976
L13220 10987
" />
<path d="M12992 10941
L12980 10930
L12957 10918
L12900 10918
L12877 10930
L12866 10941
L12855 10964
L12855 10987
L12866 11021
L13003 11158
L12855 11158
" />
<path d="M12672 11033
L12637 11044
L12626 11056
L12615 11078
L12615 11113
L12626 11136
L12637 11147
L12660 11158
L12752 11158
L12752 10918
L12672 10918
L12649 10930
L12637 10941
L12626 10964
L12626 10987
L12637 11010
L12649 11021
L12672 11033
L12752 11033
" />
</g>
<g style="fill:#840084; fill-opacity:0.0; 
stroke:#840084; stroke-width:40; stroke-opacity:1; 
stroke-linecap:round; stroke-linejoin:round;">
<path d="M8786 3482
L8786 3887
L8810 3934
L8834 3958
L8881 3982
L8977 3982
L9024 3958
L9048 3934
L9072 3887
L9072 3482
" />
<path d="M9286 3530
L9310 3506
L9358 3482
L9477 3482
L9524 3506
L9548 3530
L9572 3577
L9572 3625
L9548 3696
L9262 3982
L9572 3982
" />
</g>
<g style="fill:#840084; fill-opacity:0.0; 
stroke:#840084; stroke-width:10; stroke-opacity:1; 
stroke-linecap:round; stroke-linejoin:round;">
<path d="M8932 10794
L8932 10924
L8924 10939
L8916 10946
L8901 10954
L8871 10954
L8855 10946
L8848 10939
L8840 10924
L8840 10794
" />
<path d="M8680 10954
L8772 10954
" />
<path d="M8726 10954
L8726 10794
L8741 10817
L8756 10832
L8772 10840
" />
<path d="M9143 15446
L9120 15454
L9082 15454
L9066 15446
L9059 15439
L9051 15424
L9051 15408
L9059 15393
L9066 15385
L9082 15378
L9112 15370
L9127 15363
L9135 15355
L9143 15340
L9143 15324
L9135 15309
L9127 15302
L9112 15294
L9074 15294
L9051 15302
" />
<path d="M8990 15408
L8914 15408
" />
<path d="M9005 15454
L8952 15294
L8899 15454
" />
<path d="M8845 15454
L8845 15294
L8792 15408
L8739 15294
L8739 15454
" />
<path d="M8663 15454
L8663 15294
L8624 15294
L8602 15302
L8586 15317
L8579 15332
L8571 15363
L8571 15385
L8579 15416
L8586 15431
L8602 15446
L8624 15454
L8663 15454
" />
<path d="M8510 15309
L8503 15302
L8487 15294
L8449 15294
L8434 15302
L8426 15309
L8419 15324
L8419 15340
L8426 15363
L8518 15454
L8419 15454
" />
<path d="M8266 15454
L8358 15454
" />
<path d="M8312 15454
L8312 15294
L8327 15317
L8343 15332
L8358 15340
" />
<path d="M8198 15370
L8144 15370
" />
<path d="M8122 15454
L8198 15454
L8198 15294
L8122 15294
" />
<path d="M7969 15454
L8061 15454
" />
<path d="M8015 15454
L8015 15294
L8030 15317
L8045 15332
L8061 15340
" />
<path d="M7878 15363
L7893 15355
L7901 15347
L7908 15332
L7908 15324
L7901 15309
L7893 15302
L7878 15294
L7847 15294
L7832 15302
L7824 15309
L7817 15324
L7817 15332
L7824 15347
L7832 15355
L7847 15363
L7878 15363
L7893 15370
L7901 15378
L7908 15393
L7908 15424
L7901 15439
L7893 15446
L7878 15454
L7847 15454
L7832 15446
L7824 15439
L7817 15424
L7817 15393
L7824 15378
L7832 15370
L7847 15363
" />
</g>
<g style="fill:#840084; fill-opacity:0.0; 
stroke:#840084; stroke-width:50; stroke-opacity:1; 
stroke-linecap:round; stroke-linejoin:round;">
<path d="M13515 8553
L13755 8553
L13755 8644
L13744 8667
L13733 8678
L13710 8690
L13675 8690
L13653 8678
L13641 8667
L13630 8644
L13630 8553
" />
<path d="M13755 8770
L13755 8918
L13664 8838
L13664 8873
L13653 8896
L13641 8907
L13618 8918
L13561 8918
L13538 8907
L13527 8896
L13515 8873
L13515 8804
L13527 8781
L13538 8770
" />
<path d="M15038 7764
L15027 7753
L15015 7718
L15015 7696
L15027 7661
L15050 7638
L15073 7627
L15118 7616
L15153 7616
L15198 7627
L15221 7638
L15244 7661
L15255 7696
L15255 7718
L15244 7753
L15233 7764
" />
<path d="M15255 7913
L15255 7958
L15244 7981
L15221 8004
L15175 8016
L15095 8016
L15050 8004
L15027 7981
L15015 7958
L15015 7913
L15027 7890
L15050 7867
L15095 7856
L15175 7856
L15221 7867
L15244 7890
L15255 7913
" />
<path d="M15015 8118
L15255 8118
L15015 8256
L15255 8256
" />
<path d="M15015 8370
L15255 8370
L15015 8507
L15255 8507
" />
<path d="M14993 8564
L14993 8747
" />
<path d="M15255 8850
L15255 8873
L15244 8896
L15233 8907
L15210 8918
L15164 8930
L15107 8930
L15061 8918
L15038 8907
L15027 8896
L15015 8873
L15015 8850
L15027 8827
L15038 8816
L15061 8804
L15107 8793
L15164 8793
L15210 8804
L15233 8816
L15244 8827
L15255 8850
" />
<path d="M15015 9158
L15015 9021
" />
<path d="M15015 9090
L15255 9090
L15221 9067
L15198 9044
L15187 9021
" />
<path d="M15255 9238
L15015 9398
" />
<path d="M15255 9398
L15015 9238
" />
<path d="M15255 9536
L15255 9558
L15244 9581
L15233 9593
L15210 9604
L15164 9616
L15107 9616
L15061 9604
L15038 9593
L15027 9581
L15015 9558
L15015 9536
L15027 9513
L15038 9501
L15061 9490
L15107 9478
L15164 9478
L15210 9490
L15233 9501
L15244 9513
L15255 9536
" />
<path d="M15175 9821
L15015 9821
" />
<path d="M15267 9764
L15095 9707
L15095 9856
" />
</g>
<g style="fill:#000000; fill-opacity:0.0; 
stroke:#000000; stroke-width:50; stroke-opacity:1; 
stroke-linecap:round; stroke-linejoin:round;">
</g>
<g style="fill:#840000; fill-opacity:0.0; 
stroke:#840000; stroke-width:50; stroke-opacity:1; 
stroke-linecap:round; stroke-linejoin:round;">
</g>
<g style="fill:#840000; fill-opacity:0.0; 
stroke:#840000; stroke-width:0; stroke-opacity:1; 
stroke-linecap:round; stroke-linejoin:round;">
</g>
<g style="fill:#840000; fill-opacity:1.0; 
stroke:#840000; stroke-width:0; stroke-opacity:1; 
stroke-linecap:round; stroke-linejoin:round;">
<polyline style="fill-rule:evenodd;"
points="4827,11092
4827,10698
4433,10698
4433,11092
4827,11092
" /> 
<circle cx="13705.3" cy="12116.1" r="370" /> 
</g>
<g style="fill:#840000; fill-opacity:1.0; 
stroke:#840000; stroke-width:39.3701; stroke-opacity:1; 
stroke-linecap:round; stroke-linejoin:round;">
</g>
<g style="fill:#840000; fill-opacity:1.0; 
stroke:#840000; stroke-width:0; stroke-opacity:1; 
stroke-linecap:round; stroke-linejoin:round;">
<circle cx="13705.3" cy="11116.1" r="370" /> 
</g>
<g style="fill:#840000; fill-opacity:1.0; 
stroke:#840000; stroke-width:39.3701; stroke-opacity:1; 
stroke-linecap:round; stroke-linejoin:round;">
</g>
<g style="fill:#840000; fill-opacity:1.0; 
stroke:#840000; stroke-width:0; stroke-opacity:1; 
stroke-linecap:round; stroke-linejoin:round;">
<circle cx="13705.3" cy="10116.1" r="370" /> 
</g>
<g style="fill:#840000; fill-opacity:1.0; 
stroke:#840000; stroke-width:39.3701; stroke-opacity:1; 
stroke-linecap:round; stroke-linejoin:round;">
</g>
<g style="fill:#840000; fill-opacity:1.0; 
stroke:#840000; stroke-width:0; stroke-opacity:1; 
stroke-linecap:round; stroke-linejoin:round;">
<polyline style="fill-rule:evenodd;"
points="12492,13486
12161,13486
12161,13816
12492,13816
12492,13486
" /> 
<circle cx="11933.6" cy="13907.5" r="165.354" /> 
</g>
<g style="fill:#840000; fill-opacity:1.0; 
stroke:#840000; stroke-width:39.3701; stroke-opacity:1; 
stroke-linecap:round; stroke-linejoin:round;">
</g>
<g style="fill:#840000; fill-opacity:1.0; 
stroke:#840000; stroke-width:0; stroke-opacity:1; 
stroke-linecap:round; stroke-linejoin:round;">
<circle cx="12327.3" cy="14163.4" r="165.354" /> 
</g>
<g style="fill:#840000; fill-opacity:1.0; 
stroke:#840000; stroke-width:39.3701; stroke-opacity:1; 
stroke-linecap:round; stroke-linejoin:round;">
</g>
<g style="fill:#840000; fill-opacity:1.0; 
stroke:#840000; stroke-width:0; stroke-opacity:1; 
stroke-linecap:round; stroke-linejoin:round;">
<circle cx="11933.6" cy="14419.3" r="165.354" /> 
</g>
<g style="fill:#840000; fill-opacity:1.0; 
stroke:#840000; stroke-width:39.3701; stroke-opacity:1; 
stroke-linecap:round; stroke-linejoin:round;">
</g>
<g style="fill:#840000; fill-opacity:1.0; 
stroke:#840000; stroke-width:0; stroke-opacity:1; 
stroke-linecap:round; stroke-linejoin:round;">
<circle cx="12327.3" cy="14675.2" r="165.354" /> 
</g>
<g style="fill:#840000; fill-opacity:1.0; 
stroke:#840000; stroke-width:39.3701; stroke-opacity:1; 
stroke-linecap:round; stroke-linejoin:round;">
</g>
<g style="fill:#840000; fill-opacity:1.0; 
stroke:#840000; stroke-width:334.646; stroke-opacity:1; 
stroke-linecap:round; stroke-linejoin:round;">
</g>
<g style="fill:#840000; fill-opacity:0.0; 
stroke:#840000; stroke-width:334.646; stroke-opacity:1; 
stroke-linecap:round; stroke-linejoin:round;">
<path d="M12043 12755
L12437 12755
" />
<path d="M12043 15570
L12437 15570
" />
</g>
<g style="fill:#840000; fill-opacity:1.0; 
stroke:#840000; stroke-width:0; stroke-opacity:1; 
stroke-linecap:round; stroke-linejoin:round;">
<circle cx="10772.2" cy="11450.8" r="370" /> 
</g>
<g style="fill:#840000; fill-opacity:1.0; 
stroke:#840000; stroke-width:39.3701; stroke-opacity:1; 
stroke-linecap:round; stroke-linejoin:round;">
</g>
<g style="fill:#840000; fill-opacity:1.0; 
stroke:#840000; stroke-width:0; stroke-opacity:1; 
stroke-linecap:round; stroke-linejoin:round;">
<circle cx="10772.2" cy="12450.8" r="370" /> 
</g>
<g style="fill:#840000; fill-opacity:1.0; 
stroke:#840000; stroke-width:39.3701; stroke-opacity:1; 
stroke-linecap:round; stroke-linejoin:round;">
</g>
<g style="fill:#840000; fill-opacity:1.0; 
stroke:#840000; stroke-width:0; stroke-opacity:1; 
stroke-linecap:round; stroke-linejoin:round;">
<circle cx="10772.2" cy="13450.8" r="370" /> 
</g>
<g style="fill:#840000; fill-opacity:1.0; 
stroke:#840000; stroke-width:39.3701; stroke-opacity:1; 
stroke-linecap:round; stroke-linejoin:round;">
</g>
<g style="fill:#840000; fill-opacity:1.0; 
stroke:#840000; stroke-width:0; stroke-opacity:1; 
stroke-linecap:round; stroke-linejoin:round;">
<circle cx="10772.2" cy="14450.8" r="370" /> 
</g>
<g style="fill:#840000; fill-opacity:1.0; 
stroke:#840000; stroke-width:39.3701; stroke-opacity:1; 
stroke-linecap:round; stroke-linejoin:round;">
</g>
<g style="fill:#840000; fill-opacity:1.0; 
stroke:#840000; stroke-width:0; stroke-opacity:1; 
stroke-linecap:round; stroke-linejoin:round;">
<circle cx="10772.2" cy="15450.8" r="370" /> 
</g>
<g style="fill:#840000; fill-opacity:1.0; 
stroke:#840000; stroke-width:39.3701; stroke-opacity:1; 
stroke-linecap:round; stroke-linejoin:round;">
</g>
<g style="fill:#840000; fill-opacity:1.0; 
stroke:#840000; stroke-width:0; stroke-opacity:1; 
stroke-linecap:round; stroke-linejoin:round;">
<circle cx="9177.71" cy="3690.95" r="370" /> 
</g>
<g style="fill:#840000; fill-opacity:1.0; 
stroke:#840000; stroke-width:39.3701; stroke-opacity:1; 
stroke-linecap:round; stroke-linejoin:round;">
</g>
<g style="fill:#840000; fill-opacity:1.0; 
stroke:#840000; stroke-width:0; stroke-opacity:1; 
stroke-linecap:round; stroke-linejoin:round;">
<circle cx="14295.8" cy="13848.4" r="629.921" /> 
</g>
<g style="fill:#840000; fill-opacity:1.0; 
stroke:#840000; stroke-width:39.3701; stroke-opacity:1; 
stroke-linecap:round; stroke-linejoin:round;">
</g>
<g style="fill:#840000; fill-opacity:1.0; 
stroke:#840000; stroke-width:0; stroke-opacity:1; 
stroke-linecap:round; stroke-linejoin:round;">
<circle cx="5831.26" cy="3375.98" r="629.921" /> 
</g>
<g style="fill:#840000; fill-opacity:1.0; 
stroke:#840000; stroke-width:39.3701; stroke-opacity:1; 
stroke-linecap:round; stroke-linejoin:round;">
</g>
<g style="fill:#840000; fill-opacity:1.0; 
stroke:#840000; stroke-width:0; stroke-opacity:1; 
stroke-linecap:round; stroke-linejoin:round;">
<polyline style="fill-rule:evenodd;"
points="13311,4793
13311,4399
12917,4399
12917,4793
13311,4793
" /> 
<circle cx="14374.6" cy="8730.32" r="370" /> 
</g>
<g style="fill:#840000; fill-opacity:1.0; 
stroke:#840000; stroke-width:39.3701; stroke-opacity:1; 
stroke-linecap:round; stroke-linejoin:round;">
</g>
<g style="fill:#840000; fill-opacity:1.0; 
stroke:#840000; stroke-width:0; stroke-opacity:1; 
stroke-linecap:round; stroke-linejoin:round;">
<circle cx="14374.6" cy="7730.32" r="370" /> 
</g>
<g style="fill:#840000; fill-opacity:1.0; 
stroke:#840000; stroke-width:39.3701; stroke-opacity:1; 
stroke-linecap:round; stroke-linejoin:round;">
</g>
<g style="fill:#840000; fill-opacity:1.0; 
stroke:#840000; stroke-width:0; stroke-opacity:1; 
stroke-linecap:round; stroke-linejoin:round;">
<circle cx="14374.6" cy="6730.32" r="370" /> 
</g>
<g style="fill:#840000; fill-opacity:1.0; 
stroke:#840000; stroke-width:39.3701; stroke-opacity:1; 
stroke-linecap:round; stroke-linejoin:round;">
</g>
<g style="fill:#840000; fill-opacity:1.0; 
stroke:#840000; stroke-width:0; stroke-opacity:1; 
stroke-linecap:round; stroke-linejoin:round;">
<circle cx="14374.6" cy="5730.32" r="370" /> 
</g>
<g style="fill:#840000; fill-opacity:1.0; 
stroke:#840000; stroke-width:39.3701; stroke-opacity:1; 
stroke-linecap:round; stroke-linejoin:round;">
</g>
<g style="fill:#840000; fill-opacity:1.0; 
stroke:#840000; stroke-width:0; stroke-opacity:1; 
stroke-linecap:round; stroke-linejoin:round;">
<polyline style="fill-rule:evenodd;"
points="5417,11092
5417,10698
5024,10698
5024,11092
5417,11092
" /> 
</g>
<g style="fill:#C2C2C2; fill-opacity:1.0; 
stroke:#C2C2C2; stroke-width:0; stroke-opacity:1; 
stroke-linecap:round; stroke-linejoin:round;">
<circle cx="9394.25" cy="15442.9" r="118.11" /> 
</g>
<g style="fill:#C2C2C2; fill-opacity:1.0; 
stroke:#C2C2C2; stroke-width:39.3701; stroke-opacity:1; 
stroke-linecap:round; stroke-linejoin:round;">
</g>
<g style="fill:#C2C2C2; fill-opacity:1.0; 
stroke:#C2C2C2; stroke-width:0; stroke-opacity:1; 
stroke-linecap:round; stroke-linejoin:round;">
<circle cx="9118.66" cy="6938.98" r="118.11" /> 
</g>
<g style="fill:#C2C2C2; fill-opacity:1.0; 
stroke:#C2C2C2; stroke-width:39.3701; stroke-opacity:1; 
stroke-linecap:round; stroke-linejoin:round;">
</g>
<g style="fill:#C2C2C2; fill-opacity:1.0; 
stroke:#C2C2C2; stroke-width:0; stroke-opacity:1; 
stroke-linecap:round; stroke-linejoin:round;">
<circle cx="7799.76" cy="6938.98" r="118.11" /> 
</g>
<g style="fill:#C2C2C2; fill-opacity:1.0; 
stroke:#C2C2C2; stroke-width:39.3701; stroke-opacity:1; 
stroke-linecap:round; stroke-linejoin:round;">
</g>
<g style="fill:#C2C2C2; fill-opacity:1.0; 
stroke:#C2C2C2; stroke-width:0; stroke-opacity:1; 
stroke-linecap:round; stroke-linejoin:round;">
<circle cx="14158" cy="4970.47" r="118.11" /> 
</g>
<g style="fill:#C2C2C2; fill-opacity:1.0; 
stroke:#C2C2C2; stroke-width:39.3701; stroke-opacity:1; 
stroke-linecap:round; stroke-linejoin:round;">
</g>
<g style="fill:#C2C2C2; fill-opacity:1.0; 
stroke:#C2C2C2; stroke-width:0; stroke-opacity:1; 
stroke-linecap:round; stroke-linejoin:round;">
<circle cx="15417.9" cy="6230.32" r="118.11" /> 
</g>
<g style="fill:#C2C2C2; fill-opacity:1.0; 
stroke:#C2C2C2; stroke-width:39.3701; stroke-opacity:1; 
stroke-linecap:round; stroke-linejoin:round;">
</g>
<g style="fill:#C2C2C2; fill-opacity:1.0; 
stroke:#C2C2C2; stroke-width:0; stroke-opacity:1; 
stroke-linecap:round; stroke-linejoin:round;">
<circle cx="15398.2" cy="9399.61" r="118.11" /> 
</g>
<g style="fill:#C2C2C2; fill-opacity:1.0; 
stroke:#C2C2C2; stroke-width:39.3701; stroke-opacity:1; 
stroke-linecap:round; stroke-linejoin:round;">
</g>
<g style="fill:#C2C2C2; fill-opacity:1.0; 
stroke:#C2C2C2; stroke-width:0; stroke-opacity:1; 
stroke-linecap:round; stroke-linejoin:round;">
<circle cx="14787.9" cy="10757.9" r="118.11" /> 
</g>
<g style="fill:#C2C2C2; fill-opacity:1.0; 
stroke:#C2C2C2; stroke-width:39.3701; stroke-opacity:1; 
stroke-linecap:round; stroke-linejoin:round;">
</g>
<g style="fill:#C2C2C2; fill-opacity:1.0; 
stroke:#C2C2C2; stroke-width:0; stroke-opacity:1; 
stroke-linecap:round; stroke-linejoin:round;">
<circle cx="8075.35" cy="915.355" r="118.11" /> 
</g>
<g style="fill:#C2C2C2; fill-opacity:1.0; 
stroke:#C2C2C2; stroke-width:39.3701; stroke-opacity:1; 
stroke-linecap:round; stroke-linejoin:round;">
</g>
<g style="fill:#C2C2C2; fill-opacity:1.0; 
stroke:#C2C2C2; stroke-width:0; stroke-opacity:1; 
stroke-linecap:round; stroke-linejoin:round;">
<circle cx="6815.51" cy="1998.03" r="118.11" /> 
</g>
<g style="fill:#C2C2C2; fill-opacity:1.0; 
stroke:#C2C2C2; stroke-width:39.3701; stroke-opacity:1; 
stroke-linecap:round; stroke-linejoin:round;">
</g>
<g style="fill:#C2C2C2; fill-opacity:1.0; 
stroke:#C2C2C2; stroke-width:0; stroke-opacity:1; 
stroke-linecap:round; stroke-linejoin:round;">
<circle cx="9138.34" cy="5974.41" r="118.11" /> 
</g>
<g style="fill:#C2C2C2; fill-opacity:1.0; 
stroke:#C2C2C2; stroke-width:39.3701; stroke-opacity:1; 
stroke-linecap:round; stroke-linejoin:round;">
</g>
<g style="fill:#C2C2C2; fill-opacity:1.0; 
stroke:#C2C2C2; stroke-width:0; stroke-opacity:1; 
stroke-linecap:round; stroke-linejoin:round;">
<circle cx="7780.07" cy="5974.41" r="118.11" /> 
</g>
<g style="fill:#C2C2C2; fill-opacity:1.0; 
stroke:#C2C2C2; stroke-width:39.3701; stroke-opacity:1; 
stroke-linecap:round; stroke-linejoin:round;">
</g>
<g style="fill:#C2C2C2; fill-opacity:1.0; 
stroke:#C2C2C2; stroke-width:0; stroke-opacity:1; 
stroke-linecap:round; stroke-linejoin:round;">
<circle cx="13016.3" cy="7726.38" r="118.11" /> 
</g>
<g style="fill:#C2C2C2; fill-opacity:1.0; 
stroke:#C2C2C2; stroke-width:39.3701; stroke-opacity:1; 
stroke-linecap:round; stroke-linejoin:round;">
</g>
<g style="fill:#C2C2C2; fill-opacity:1.0; 
stroke:#C2C2C2; stroke-width:0; stroke-opacity:1; 
stroke-linecap:round; stroke-linejoin:round;">
<circle cx="13016.3" cy="10502" r="118.11" /> 
</g>
<g style="fill:#C2C2C2; fill-opacity:1.0; 
stroke:#C2C2C2; stroke-width:39.3701; stroke-opacity:1; 
stroke-linecap:round; stroke-linejoin:round;">
</g>
<g style="fill:#C2C2C2; fill-opacity:1.0; 
stroke:#C2C2C2; stroke-width:0; stroke-opacity:1; 
stroke-linecap:round; stroke-linejoin:round;">
<circle cx="9059.6" cy="10482.3" r="118.11" /> 
</g>
<g style="fill:#C2C2C2; fill-opacity:1.0; 
stroke:#C2C2C2; stroke-width:39.3701; stroke-opacity:1; 
stroke-linecap:round; stroke-linejoin:round;">
</g>
<g style="fill:#C2C2C2; fill-opacity:1.0; 
stroke:#C2C2C2; stroke-width:0; stroke-opacity:1; 
stroke-linecap:round; stroke-linejoin:round;">
<circle cx="8744.64" cy="6692.91" r="118.11" /> 
</g>
<g style="fill:#C2C2C2; fill-opacity:1.0; 
stroke:#C2C2C2; stroke-width:39.3701; stroke-opacity:1; 
stroke-linecap:round; stroke-linejoin:round;">
</g>
<g style="fill:#C2C2C2; fill-opacity:1.0; 
stroke:#C2C2C2; stroke-width:0; stroke-opacity:1; 
stroke-linecap:round; stroke-linejoin:round;">
<circle cx="12721" cy="4616.14" r="118.11" /> 
</g>
<g style="fill:#C2C2C2; fill-opacity:1.0; 
stroke:#C2C2C2; stroke-width:39.3701; stroke-opacity:1; 
stroke-linecap:round; stroke-linejoin:round;">
</g>
<g style="fill:#C2C2C2; fill-opacity:1.0; 
stroke:#C2C2C2; stroke-width:0; stroke-opacity:1; 
stroke-linecap:round; stroke-linejoin:round;">
<circle cx="10732.8" cy="4616.14" r="118.11" /> 
</g>
<g style="fill:#C2C2C2; fill-opacity:1.0; 
stroke:#C2C2C2; stroke-width:39.3701; stroke-opacity:1; 
stroke-linecap:round; stroke-linejoin:round;">
</g>
<g style="fill:#C2C2C2; fill-opacity:1.0; 
stroke:#C2C2C2; stroke-width:0; stroke-opacity:1; 
stroke-linecap:round; stroke-linejoin:round;">
<circle cx="10732.8" cy="10757.9" r="118.11" /> 
</g>
<g style="fill:#C2C2C2; fill-opacity:1.0; 
stroke:#C2C2C2; stroke-width:39.3701; stroke-opacity:1; 
stroke-linecap:round; stroke-linejoin:round;">
</g>
<g style="fill:#C2C2C2; fill-opacity:1.0; 
stroke:#C2C2C2; stroke-width:0; stroke-opacity:1; 
stroke-linecap:round; stroke-linejoin:round;">
<circle cx="10083.2" cy="14084.6" r="118.11" /> 
</g>
<g style="fill:#C2C2C2; fill-opacity:1.0; 
stroke:#C2C2C2; stroke-width:39.3701; stroke-opacity:1; 
stroke-linecap:round; stroke-linejoin:round;">
</g>
<g style="fill:#C2C2C2; fill-opacity:1.0; 
stroke:#C2C2C2; stroke-width:0; stroke-opacity:1; 
stroke-linecap:round; stroke-linejoin:round;">
<circle cx="7778.66" cy="11821.1" r="118.11" /> 
</g>
<g style="fill:#C2C2C2; fill-opacity:1.0; 
stroke:#C2C2C2; stroke-width:39.3701; stroke-opacity:1; 
stroke-linecap:round; stroke-linejoin:round;">
</g>
<g style="fill:#C2C2C2; fill-opacity:1.0; 
stroke:#C2C2C2; stroke-width:0; stroke-opacity:1; 
stroke-linecap:round; stroke-linejoin:round;">
<circle cx="4630.47" cy="9911.42" r="118.11" /> 
</g>
<g style="fill:#C2C2C2; fill-opacity:1.0; 
stroke:#C2C2C2; stroke-width:39.3701; stroke-opacity:1; 
stroke-linecap:round; stroke-linejoin:round;">
</g>
<g style="fill:#C2C2C2; fill-opacity:1.0; 
stroke:#C2C2C2; stroke-width:0; stroke-opacity:1; 
stroke-linecap:round; stroke-linejoin:round;">
<circle cx="8405.82" cy="11859.6" r="118.11" /> 
</g>
<g style="fill:#C2C2C2; fill-opacity:1.0; 
stroke:#C2C2C2; stroke-width:39.3701; stroke-opacity:1; 
stroke-linecap:round; stroke-linejoin:round;">
</g>
<g style="fill:#C2C2C2; fill-opacity:1.0; 
stroke:#C2C2C2; stroke-width:0; stroke-opacity:1; 
stroke-linecap:round; stroke-linejoin:round;">
<circle cx="9197.4" cy="8336.61" r="118.11" /> 
</g>
<g style="fill:#C2C2C2; fill-opacity:1.0; 
stroke:#C2C2C2; stroke-width:39.3701; stroke-opacity:1; 
stroke-linecap:round; stroke-linejoin:round;">
</g>
<g style="fill:#C2C2C2; fill-opacity:1.0; 
stroke:#C2C2C2; stroke-width:0; stroke-opacity:1; 
stroke-linecap:round; stroke-linejoin:round;">
<circle cx="8449.37" cy="8336.61" r="118.11" /> 
</g>
<g style="fill:#C2C2C2; fill-opacity:1.0; 
stroke:#C2C2C2; stroke-width:39.3701; stroke-opacity:1; 
stroke-linecap:round; stroke-linejoin:round;">
</g>
<g style="fill:#C2C2C2; fill-opacity:1.0; 
stroke:#C2C2C2; stroke-width:0; stroke-opacity:1; 
stroke-linecap:round; stroke-linejoin:round;">
<circle cx="8429.68" cy="10285.4" r="118.11" /> 
</g>
<g style="fill:#C2C2C2; fill-opacity:1.0; 
stroke:#C2C2C2; stroke-width:39.3701; stroke-opacity:1; 
stroke-linecap:round; stroke-linejoin:round;">
</g>
<g style="fill:#C2C2C2; fill-opacity:1.0; 
stroke:#C2C2C2; stroke-width:0; stroke-opacity:1; 
stroke-linecap:round; stroke-linejoin:round;">
<circle cx="8093.61" cy="11818.1" r="118.11" /> 
</g>
<g style="fill:#C2C2C2; fill-opacity:1.0; 
stroke:#C2C2C2; stroke-width:39.3701; stroke-opacity:1; 
stroke-linecap:round; stroke-linejoin:round;">
</g>
<g style="fill:#C2C2C2; fill-opacity:1.0; 
stroke:#C2C2C2; stroke-width:0; stroke-opacity:1; 
stroke-linecap:round; stroke-linejoin:round;">
<circle cx="9158.03" cy="9143.7" r="118.11" /> 
</g>
<g style="fill:#C2C2C2; fill-opacity:1.0; 
stroke:#C2C2C2; stroke-width:39.3701; stroke-opacity:1; 
stroke-linecap:round; stroke-linejoin:round;">
</g>
<g style="fill:#C2C2C2; fill-opacity:1.0; 
stroke:#C2C2C2; stroke-width:0; stroke-opacity:1; 
stroke-linecap:round; stroke-linejoin:round;">
<circle cx="8114.72" cy="9143.7" r="118.11" /> 
</g>
<g style="fill:#C2C2C2; fill-opacity:1.0; 
stroke:#C2C2C2; stroke-width:39.3701; stroke-opacity:1; 
stroke-linecap:round; stroke-linejoin:round;">
</g>
<g style="fill:#C2C2C2; fill-opacity:1.0; 
stroke:#C2C2C2; stroke-width:0; stroke-opacity:1; 
stroke-linecap:round; stroke-linejoin:round;">
<circle cx="8114.72" cy="10285.4" r="118.11" /> 
</g>
<g style="fill:#C2C2C2; fill-opacity:1.0; 
stroke:#C2C2C2; stroke-width:39.3701; stroke-opacity:1; 
stroke-linecap:round; stroke-linejoin:round;">
</g>
<g style="fill:#C2C2C2; fill-opacity:1.0; 
stroke:#C2C2C2; stroke-width:0; stroke-opacity:1; 
stroke-linecap:round; stroke-linejoin:round;">
<circle cx="6677.71" cy="12175.2" r="118.11" /> 
</g>
<g style="fill:#C2C2C2; fill-opacity:1.0; 
stroke:#C2C2C2; stroke-width:39.3701; stroke-opacity:1; 
stroke-linecap:round; stroke-linejoin:round;">
</g>
<g style="fill:#C2C2C2; fill-opacity:1.0; 
stroke:#C2C2C2; stroke-width:0; stroke-opacity:1; 
stroke-linecap:round; stroke-linejoin:round;">
<circle cx="9203.3" cy="12175.2" r="118.11" /> 
</g>
<g style="fill:#C2C2C2; fill-opacity:1.0; 
stroke:#C2C2C2; stroke-width:39.3701; stroke-opacity:1; 
stroke-linecap:round; stroke-linejoin:round;">
</g>
<g style="fill:#C2C2C2; fill-opacity:1.0; 
stroke:#C2C2C2; stroke-width:0; stroke-opacity:1; 
stroke-linecap:round; stroke-linejoin:round;">
<circle cx="4650.15" cy="9183.07" r="118.11" /> 
</g>
<g style="fill:#C2C2C2; fill-opacity:1.0; 
stroke:#C2C2C2; stroke-width:39.3701; stroke-opacity:1; 
stroke-linecap:round; stroke-linejoin:round;">
</g>
<g style="fill:#C2C2C2; fill-opacity:1.0; 
stroke:#C2C2C2; stroke-width:0; stroke-opacity:1; 
stroke-linecap:round; stroke-linejoin:round;">
<circle cx="7504.48" cy="9183.07" r="118.11" /> 
</g>
<g style="fill:#C2C2C2; fill-opacity:1.0; 
stroke:#C2C2C2; stroke-width:39.3701; stroke-opacity:1; 
stroke-linecap:round; stroke-linejoin:round;">
</g>
<g style="fill:#C2C2C2; fill-opacity:1.0; 
stroke:#C2C2C2; stroke-width:0; stroke-opacity:1; 
stroke-linecap:round; stroke-linejoin:round;">
<circle cx="7150.15" cy="11840.6" r="118.11" /> 
</g>
<g style="fill:#C2C2C2; fill-opacity:1.0; 
stroke:#C2C2C2; stroke-width:39.3701; stroke-opacity:1; 
stroke-linecap:round; stroke-linejoin:round;">
</g>
<g style="fill:#C2C2C2; fill-opacity:1.0; 
stroke:#C2C2C2; stroke-width:0; stroke-opacity:1; 
stroke-linecap:round; stroke-linejoin:round;">
<circle cx="7150.15" cy="10285.4" r="118.11" /> 
</g>
<g style="fill:#C2C2C2; fill-opacity:1.0; 
stroke:#C2C2C2; stroke-width:39.3701; stroke-opacity:1; 
stroke-linecap:round; stroke-linejoin:round;">
</g>
<g style="fill:#C2C2C2; fill-opacity:1.0; 
stroke:#C2C2C2; stroke-width:0; stroke-opacity:1; 
stroke-linecap:round; stroke-linejoin:round;">
<circle cx="7169.84" cy="9616.14" r="118.11" /> 
</g>
<g style="fill:#C2C2C2; fill-opacity:1.0; 
stroke:#C2C2C2; stroke-width:39.3701; stroke-opacity:1; 
stroke-linecap:round; stroke-linejoin:round;">
</g>
<g style="fill:#C2C2C2; fill-opacity:1.0; 
stroke:#C2C2C2; stroke-width:0; stroke-opacity:1; 
stroke-linecap:round; stroke-linejoin:round;">
<circle cx="9079.29" cy="9616.14" r="118.11" /> 
</g>
<g style="fill:#C2C2C2; fill-opacity:1.0; 
stroke:#C2C2C2; stroke-width:39.3701; stroke-opacity:1; 
stroke-linecap:round; stroke-linejoin:round;">
</g>
<g style="fill:#C2C2C2; fill-opacity:1.0; 
stroke:#C2C2C2; stroke-width:0; stroke-opacity:1; 
stroke-linecap:round; stroke-linejoin:round;">
<circle cx="5929.68" cy="11860.2" r="118.11" /> 
</g>
<g style="fill:#C2C2C2; fill-opacity:1.0; 
stroke:#C2C2C2; stroke-width:39.3701; stroke-opacity:1; 
stroke-linecap:round; stroke-linejoin:round;">
</g>
<g style="fill:#C2C2C2; fill-opacity:1.0; 
stroke:#C2C2C2; stroke-width:0; stroke-opacity:1; 
stroke-linecap:round; stroke-linejoin:round;">
<circle cx="5083.22" cy="11860.2" r="118.11" /> 
</g>
<g style="fill:#C2C2C2; fill-opacity:1.0; 
stroke:#C2C2C2; stroke-width:39.3701; stroke-opacity:1; 
stroke-linecap:round; stroke-linejoin:round;">
</g>
<g style="fill:#C2C2C2; fill-opacity:1.0; 
stroke:#C2C2C2; stroke-width:0; stroke-opacity:1; 
stroke-linecap:round; stroke-linejoin:round;">
<circle cx="5083.22" cy="13612.2" r="118.11" /> 
</g>
<g style="fill:#C2C2C2; fill-opacity:1.0; 
stroke:#C2C2C2; stroke-width:39.3701; stroke-opacity:1; 
stroke-linecap:round; stroke-linejoin:round;">
</g>
<g style="fill:#C2C2C2; fill-opacity:1.0; 
stroke:#C2C2C2; stroke-width:0; stroke-opacity:1; 
stroke-linecap:round; stroke-linejoin:round;">
<circle cx="11835.2" cy="15265.7" r="118.11" /> 
</g>
<g style="fill:#C2C2C2; fill-opacity:1.0; 
stroke:#C2C2C2; stroke-width:39.3701; stroke-opacity:1; 
stroke-linecap:round; stroke-linejoin:round;">
</g>
<g style="fill:#008400; fill-opacity:1.0; 
stroke:#008400; stroke-width:39.3701; stroke-opacity:1; 
stroke-linecap:round; stroke-linejoin:round;">
</g>
<g style="fill:#008400; fill-opacity:1.0; 
stroke:#008400; stroke-width:98.4252; stroke-opacity:1; 
stroke-linecap:round; stroke-linejoin:round;">
</g>
<g style="fill:#008400; fill-opacity:0.0; 
stroke:#008400; stroke-width:98.4252; stroke-opacity:1; 
stroke-linecap:round; stroke-linejoin:round;">
<path d="M12327 14675
L12161 14840
" />
<path d="M12161 14840
L11382 14840
" />
<path d="M11382 14840
L11142 15080
" />
<path d="M11142 15080
L10772 15450
" />
<path d="M9394 15442
L10764 15442
" />
<path d="M10764 15442
L10772 15450
" />
<path d="M7799 6938
L7966 6938
" />
<path d="M7966 6938
L9118 6938
" />
<path d="M7780 5974
L9138 5974
" />
<path d="M13016 7726
L14370 7726
" />
<path d="M14370 7726
L14374 7730
" />
<path d="M9059 10482
L12996 10482
" />
<path d="M12996 10482
L13016 10501
" />
<path d="M13851 6730
L13813 6692
" />
<path d="M14374 6730
L13851 6730
" />
<path d="M13813 6692
L8744 6692
" />
<path d="M13114 4596
L12740 4596
" />
<path d="M12740 4596
L12721 4616
" />
<path d="M10732 4616
L12721 4616
" />
<path d="M10083 14084
L9873 13875
" />
<path d="M9873 13875
L9873 11616
" />
<path d="M9873 11616
L10732 10757
" />
<path d="M7778 11654
L7778 11821
" />
<path d="M7778 10106
L7778 11654
" />
<path d="M7583 9911
L7778 10106
" />
<path d="M4630 9911
L7583 9911
" />
<path d="M8429 10285
L8429 11835
" />
<path d="M8429 11835
L8405 11859
" />
<path d="M8449 8336
L9197 8336
" />
<path d="M8114 11796
L8093 11818
" />
<path d="M8114 10285
L8114 11796
" />
<path d="M8114 9143
L9158 9143
" />
<path d="M9203 12175
L6677 12175
" />
<path d="M7504 9183
L4650 9183
" />
<path d="M7150 10285
L7150 11840
" />
<path d="M9079 9616
L7169 9616
" />
<path d="M5083 11860
L5929 11860
" />
<path d="M5791 14320
L5083 13612
" />
<path d="M8508 15049
L6520 15049
" />
<path d="M6520 15049
L5791 14320
" />
<path d="M9407 15948
L8508 15049
" />
<path d="M11835 15265
L11152 15948
" />
<path d="M11152 15948
L9407 15948
" />
</g>
<g style="fill:#008400; fill-opacity:1.0; 
stroke:#008400; stroke-width:100; stroke-opacity:1; 
stroke-linecap:round; stroke-linejoin:round;">
<polyline style="fill-rule:evenodd;"
points="6971,1182
4587,3110
3122,5804
2800,8854
3669,11794
4883,13296
5009,13244
5156,13244
5291,13299
5395,13403
5451,13538
5451,13557
6639,14745
6647,14750
8508,14750
8622,14772
8719,14837
9531,15649
10184,15649
10147,15549
10157,15302
10232,15120
10335,15084
10701,15450
10695,15456
10766,15527
10772,15521
10777,15527
10848,15456
10842,15450
11208,15084
11311,15120
11377,15300
11467,15210
11467,15192
11522,15057
11626,14953
11761,14897
11908,14897
11997,14934
12039,14892
11957,14881
11942,14834
11851,14834
11698,14771
11581,14654
11518,14502
11518,14337
11581,14184
11602,14163
11581,14143
11518,13990
11518,13825
11581,13672
11698,13555
11850,13492
11907,13492
11907,13486
11924,13393
11979,13308
12062,13251
12161,13231
12492,13231
12585,13248
12670,13303
12727,13387
12747,13486
12747,13816
12730,13909
12694,13964
12742,14080
12742,14245
12679,14398
12619,14458
12696,14468
12747,14625
12734,14790
12696,14881
12615,14892
12398,14675
12403,14669
12332,14598
12327,14604
12321,14598
12299,14620
12285,14654
12255,14684
12321,14751
12327,14745
12544,14963
12534,15044
12376,15095
12212,15082
12145,15054
12147,15056
12187,15153
12449,15153
12609,15185
12744,15275
12835,15411
12856,15518
14278,15097
14282,15096
15609,14022
15175,14022
15042,14346
14794,14593
14471,14728
14121,14728
13798,14594
13550,14347
13416,14024
13415,13674
13549,13350
13796,13102
14120,12968
14470,12968
14793,13102
15041,13349
15175,13672
15175,14022
15609,14022
16610,13213
16675,13150
16890,12755
12866,12755
12835,12915
12744,13050
12609,13141
12449,13173
12031,13173
11872,13141
11736,13050
11646,12915
11614,12755
11646,12596
11736,12460
11872,12370
12031,12338
12449,12338
12609,12370
12744,12460
12835,12596
12866,12755
16890,12755
17715,11238
14325,11238
14231,11466
14082,11616
14230,11764
14325,11992
14325,12238
14231,12466
14056,12641
13829,12736
13582,12736
13354,12642
13179,12467
13085,12240
13085,11993
13179,11765
13328,11616
13179,11467
13085,11240
13085,10993
13145,10846
13089,10870
12943,10870
12808,10814
12775,10781
11100,10781
11101,10830
11070,10903
11122,10924
11297,11099
11392,11326
11392,11573
11298,11801
11149,11950
11297,12099
11392,12326
11392,12573
11298,12801
11149,12950
11297,13099
11392,13326
11392,13573
11298,13801
11149,13950
11297,14099
11392,14326
11392,14573
11298,14801
11124,14975
11138,15014
10772,15380
10406,15014
10419,14975
10246,14802
10152,14574
10152,14452
10010,14452
9874,14396
9771,14293
9715,14158
9715,14139
9662,14086
9597,13989
9574,13875
9574,11616
9597,11502
9662,11405
10286,10781
9281,10781
9268,10794
9133,10850
8986,10850
8851,10794
8747,10691
8728,10645
8728,11677
8773,11786
8773,11875
8981,11875
8994,11863
9129,11807
9276,11807
9411,11862
9515,11966
9571,12101
9571,12248
9515,12383
9412,12487
9276,12543
9130,12543
8995,12487
8981,12474
6899,12474
6886,12487
6751,12543
6604,12543
6469,12487
6365,12383
6309,12248
6309,12102
6365,11966
6399,11933
6297,11933
6241,12068
6138,12172
6003,12228
5856,12228
5721,12172
5708,12159
5304,12159
5292,12172
5156,12228
5010,12228
4874,12172
4771,12069
4715,11933
4715,11787
4770,11651
4874,11548
5009,11492
5156,11492
5291,11547
5304,11561
5708,11561
5720,11548
5856,11492
6002,11492
6137,11547
6241,11651
6297,11786
6297,11933
6399,11933
6468,11863
6604,11807
6750,11807
6782,11820
6781,11767
6837,11632
6850,11619
6850,10698
5672,10698
5672,11092
5655,11185
5600,11270
5517,11327
5417,11347
5024,11347
4931,11329
4922,11323
4877,11342
4742,11342
4680,11280
4680,10945
4580,10945
4580,11280
4517,11342
4383,11342
4292,11304
4221,11234
4183,11142
4183,11008
4246,10945
4580,10945
4680,10945
4688,10945
4688,10845
4680,10845
4680,10511
4580,10511
4580,10845
4246,10845
4183,10783
4183,10649
4221,10557
4292,10486
4383,10448
4517,10448
4580,10511
4680,10511
4742,10448
4877,10448
4920,10466
4925,10464
5024,10443
5417,10443
5510,10461
5595,10516
5652,10599
5672,10698
6850,10698
6850,10506
6838,10494
6782,10358
6781,10212
6782,10210
4851,10210
4839,10223
4704,10279
4557,10279
4422,10223
4318,10120
4262,9984
4262,9838
4318,9703
4421,9599
4556,9543
4558,9543
4441,9495
4338,9391
4282,9256
4281,9110
4337,8974
4441,8871
4576,8815
4723,8814
4858,8870
4871,8883
7283,8883
7295,8871
7430,8815
7577,8814
7712,8870
7795,8953
7802,8935
7905,8831
8041,8775
8187,8775
8322,8831
8336,8844
8936,8844
8949,8831
9084,8775
9230,8775
9366,8831
9469,8934
9526,9070
9526,9216
9470,9351
9398,9424
9447,9542
9447,9689
9391,9824
9288,9928
9152,9984
9006,9984
8871,9928
8857,9915
8003,9915
8012,9929
8041,9917
8187,9917
8272,9952
8356,9917
8502,9917
8637,9973
8741,10076
8797,10211
8797,10223
8850,10170
8986,10114
9132,10114
9267,10170
9280,10183
12824,10183
12942,10133
13084,10133
13090,9968
13166,9786
13268,9750
13634,10116
13628,10121
13699,10192
13705,10186
14071,10552
14057,10591
14230,10764
14325,10992
14325,11238
17715,11238
18130,10474
18178,10017
14329,10017
14319,10264
14244,10446
14141,10482
13775,10116
14141,9750
14244,9786
14329,10017
18178,10017
18214,9679
14071,9679
13705,10045
13339,9679
13375,9576
13606,9491
13853,9501
14035,9576
14071,9679
18214,9679
18452,7425
18283,6853
14994,6853
14900,7081
14751,7230
14899,7378
14994,7606
14994,7853
14900,8081
14751,8230
14899,8378
14994,8606
14994,8853
14900,9081
14726,9255
14498,9350
14251,9350
14023,9256
13849,9081
13754,8854
13754,8607
13836,8409
9565,8409
9509,8544
9406,8648
9270,8704
9124,8704
8989,8648
8976,8635
8670,8635
8658,8648
8522,8704
8376,8704
8241,8648
8137,8545
8081,8410
8081,8263
8137,8128
8240,8024
8375,7968
8522,7968
8657,8024
8670,8037
8975,8037
8988,8024
9123,7968
9270,7968
9405,8024
9509,8127
9565,8263
9565,8409
13836,8409
13848,8379
13997,8230
13849,8081
13825,8025
13237,8025
13225,8038
13089,8094
12943,8094
12808,8038
12704,7935
12648,7799
12648,7653
12704,7518
12807,7414
12942,7358
13089,7358
13224,7414
13237,7427
13828,7427
13848,7379
13997,7230
13849,7081
13825,7024
13736,7006
13714,6992
8966,6992
8953,7004
8818,7060
8671,7061
8536,7005
8432,6901
8376,6766
8376,6620
8432,6484
8535,6381
8671,6324
8817,6324
8952,6380
8965,6393
13813,6393
13840,6399
13848,6379
14022,6205
14008,6166
14374,5801
14740,6166
14726,6205
14899,6378
14994,6606
14994,6853
18283,6853
17922,5631
14998,5631
14989,5878
14913,6060
14811,6096
14445,5730
14303,5730
13937,6096
13835,6060
13830,6047
9506,6047
9450,6182
9347,6286
9211,6342
9065,6342
8930,6286
8917,6273
8001,6273
7988,6286
7853,6342
7707,6342
7571,6286
7468,6183
7412,6047
7411,5901
7467,5766
7571,5662
7706,5606
7852,5606
7988,5662
8001,5675
8916,5675
8929,5662
9064,5606
9211,5606
9346,5662
9450,5765
9506,5900
9506,6047
13830,6047
13750,5828
13759,5582
13835,5400
13937,5364
14303,5730
14445,5730
14811,5364
14913,5400
14998,5631
17922,5631
17822,5293
14740,5293
14374,5659
14008,5293
14044,5191
14276,5105
14522,5115
14704,5191
14740,5293
17822,5293
17583,4484
17514,4399
13566,4399
13566,4793
13549,4885
13494,4971
13410,5028
13311,5048
12917,5048
12825,5030
12752,4984
12648,4984
12512,4928
12499,4915
10954,4915
10941,4928
10806,4984
10659,4984
10524,4928
10420,4824
10364,4689
10364,4543
10420,4407
10524,4304
10659,4248
10805,4247
10941,4303
10954,4316
12499,4316
12512,4304
12647,4248
12718,4248
12735,4221
12818,4164
12917,4144
13311,4144
13404,4162
13489,4216
13546,4300
13566,4399
17514,4399
17041,3813
9797,3813
9703,4041
9529,4216
9301,4310
9054,4311
8826,4216
8652,4042
8557,3814
8557,3568
8565,3550
6711,3550
6577,3873
6330,4121
6007,4255
5656,4256
5333,4122
5085,3875
4951,3551
4951,3201
5084,2878
5332,2630
5655,2496
6005,2495
6329,2629
6576,2876
6711,3200
6711,3550
8565,3550
8651,3340
8826,3165
9053,3071
9300,3070
9528,3165
9703,3339
9797,3567
9797,3813
17041,3813
15649,2092
14007,1045
9902,316
6971,1182
" /> 
</g>
<g style="fill:#FFFFFF; fill-opacity:1.0; 
stroke:#FFFFFF; stroke-width:100; stroke-opacity:1; 
stroke-linecap:round; stroke-linejoin:round;">
</g>
<g style="fill:#FFFFFF; fill-opacity:1.0; 
stroke:#FFFFFF; stroke-width:0; stroke-opacity:1; 
stroke-linecap:round; stroke-linejoin:round;">
<circle cx="9394.25" cy="15442.9" r="78.7402" /> 
</g>
<g style="fill:#FFFFFF; fill-opacity:1.0; 
stroke:#FFFFFF; stroke-width:39.3701; stroke-opacity:1; 
stroke-linecap:round; stroke-linejoin:round;">
</g>
<g style="fill:#FFFFFF; fill-opacity:1.0; 
stroke:#FFFFFF; stroke-width:0; stroke-opacity:1; 
stroke-linecap:round; stroke-linejoin:round;">
<circle cx="9118.66" cy="6938.98" r="78.7402" /> 
</g>
<g style="fill:#FFFFFF; fill-opacity:1.0; 
stroke:#FFFFFF; stroke-width:39.3701; stroke-opacity:1; 
stroke-linecap:round; stroke-linejoin:round;">
</g>
<g style="fill:#FFFFFF; fill-opacity:1.0; 
stroke:#FFFFFF; stroke-width:0; stroke-opacity:1; 
stroke-linecap:round; stroke-linejoin:round;">
<circle cx="7799.76" cy="6938.98" r="78.7402" /> 
</g>
<g style="fill:#FFFFFF; fill-opacity:1.0; 
stroke:#FFFFFF; stroke-width:39.3701; stroke-opacity:1; 
stroke-linecap:round; stroke-linejoin:round;">
</g>
<g style="fill:#FFFFFF; fill-opacity:1.0; 
stroke:#FFFFFF; stroke-width:0; stroke-opacity:1; 
stroke-linecap:round; stroke-linejoin:round;">
<circle cx="14158" cy="4970.47" r="78.7402" /> 
</g>
<g style="fill:#FFFFFF; fill-opacity:1.0; 
stroke:#FFFFFF; stroke-width:39.3701; stroke-opacity:1; 
stroke-linecap:round; stroke-linejoin:round;">
</g>
<g style="fill:#FFFFFF; fill-opacity:1.0; 
stroke:#FFFFFF; stroke-width:0; stroke-opacity:1; 
stroke-linecap:round; stroke-linejoin:round;">
<circle cx="15417.9" cy="6230.32" r="78.7402" /> 
</g>
<g style="fill:#FFFFFF; fill-opacity:1.0; 
stroke:#FFFFFF; stroke-width:39.3701; stroke-opacity:1; 
stroke-linecap:round; stroke-linejoin:round;">
</g>
<g style="fill:#FFFFFF; fill-opacity:1.0; 
stroke:#FFFFFF; stroke-width:0; stroke-opacity:1; 
stroke-linecap:round; stroke-linejoin:round;">
<circle cx="15398.2" cy="9399.61" r="78.7402" /> 
</g>
<g style="fill:#FFFFFF; fill-opacity:1.0; 
stroke:#FFFFFF; stroke-width:39.3701; stroke-opacity:1; 
stroke-linecap:round; stroke-linejoin:round;">
</g>
<g style="fill:#FFFFFF; fill-opacity:1.0; 
stroke:#FFFFFF; stroke-width:0; stroke-opacity:1; 
stroke-linecap:round; stroke-linejoin:round;">
<circle cx="14787.9" cy="10757.9" r="78.7402" /> 
</g>
<g style="fill:#FFFFFF; fill-opacity:1.0; 
stroke:#FFFFFF; stroke-width:39.3701; stroke-opacity:1; 
stroke-linecap:round; stroke-linejoin:round;">
</g>
<g style="fill:#FFFFFF; fill-opacity:1.0; 
stroke:#FFFFFF; stroke-width:0; stroke-opacity:1; 
stroke-linecap:round; stroke-linejoin:round;">
<circle cx="8075.35" cy="915.355" r="78.7402" /> 
</g>
<g style="fill:#FFFFFF; fill-opacity:1.0; 
stroke:#FFFFFF; stroke-width:39.3701; stroke-opacity:1; 
stroke-linecap:round; stroke-linejoin:round;">
</g>
<g style="fill:#FFFFFF; fill-opacity:1.0; 
stroke:#FFFFFF; stroke-width:0; stroke-opacity:1; 
stroke-linecap:round; stroke-linejoin:round;">
<circle cx="6815.51" cy="1998.03" r="78.7402" /> 
</g>
<g style="fill:#FFFFFF; fill-opacity:1.0; 
stroke:#FFFFFF; stroke-width:39.3701; stroke-opacity:1; 
stroke-linecap:round; stroke-linejoin:round;">
</g>
<g style="fill:#FFFFFF; fill-opacity:1.0; 
stroke:#FFFFFF; stroke-width:0; stroke-opacity:1; 
stroke-linecap:round; stroke-linejoin:round;">
<circle cx="9138.34" cy="5974.41" r="78.7402" /> 
</g>
<g style="fill:#FFFFFF; fill-opacity:1.0; 
stroke:#FFFFFF; stroke-width:39.3701; stroke-opacity:1; 
stroke-linecap:round; stroke-linejoin:round;">
</g>
<g style="fill:#FFFFFF; fill-opacity:1.0; 
stroke:#FFFFFF; stroke-width:0; stroke-opacity:1; 
stroke-linecap:round; stroke-linejoin:round;">
<circle cx="7780.07" cy="5974.41" r="78.7402" /> 
</g>
<g style="fill:#FFFFFF; fill-opacity:1.0; 
stroke:#FFFFFF; stroke-width:39.3701; stroke-opacity:1; 
stroke-linecap:round; stroke-linejoin:round;">
</g>
<g style="fill:#FFFFFF; fill-opacity:1.0; 
stroke:#FFFFFF; stroke-width:0; stroke-opacity:1; 
stroke-linecap:round; stroke-linejoin:round;">
<circle cx="13016.3" cy="7726.38" r="78.7402" /> 
</g>
<g style="fill:#FFFFFF; fill-opacity:1.0; 
stroke:#FFFFFF; stroke-width:39.3701; stroke-opacity:1; 
stroke-linecap:round; stroke-linejoin:round;">
</g>
<g style="fill:#FFFFFF; fill-opacity:1.0; 
stroke:#FFFFFF; stroke-width:0; stroke-opacity:1; 
stroke-linecap:round; stroke-linejoin:round;">
<circle cx="13016.3" cy="10502" r="78.7402" /> 
</g>
<g style="fill:#FFFFFF; fill-opacity:1.0; 
stroke:#FFFFFF; stroke-width:39.3701; stroke-opacity:1; 
stroke-linecap:round; stroke-linejoin:round;">
</g>
<g style="fill:#FFFFFF; fill-opacity:1.0; 
stroke:#FFFFFF; stroke-width:0; stroke-opacity:1; 
stroke-linecap:round; stroke-linejoin:round;">
<circle cx="9059.6" cy="10482.3" r="78.7402" /> 
</g>
<g style="fill:#FFFFFF; fill-opacity:1.0; 
stroke:#FFFFFF; stroke-width:39.3701; stroke-opacity:1; 
stroke-linecap:round; stroke-linejoin:round;">
</g>
<g style="fill:#FFFFFF; fill-opacity:1.0; 
stroke:#FFFFFF; stroke-width:0; stroke-opacity:1; 
stroke-linecap:round; stroke-linejoin:round;">
<circle cx="8744.64" cy="6692.91" r="78.7402" /> 
</g>
<g style="fill:#FFFFFF; fill-opacity:1.0; 
stroke:#FFFFFF; stroke-width:39.3701; stroke-opacity:1; 
stroke-linecap:round; stroke-linejoin:round;">
</g>
<g style="fill:#FFFFFF; fill-opacity:1.0; 
stroke:#FFFFFF; stroke-width:0; stroke-opacity:1; 
stroke-linecap:round; stroke-linejoin:round;">
<circle cx="12721" cy="4616.14" r="78.7402" /> 
</g>
<g style="fill:#FFFFFF; fill-opacity:1.0; 
stroke:#FFFFFF; stroke-width:39.3701; stroke-opacity:1; 
stroke-linecap:round; stroke-linejoin:round;">
</g>
<g style="fill:#FFFFFF; fill-opacity:1.0; 
stroke:#FFFFFF; stroke-width:0; stroke-opacity:1; 
stroke-linecap:round; stroke-linejoin:round;">
<circle cx="10732.8" cy="4616.14" r="78.7402" /> 
</g>
<g style="fill:#FFFFFF; fill-opacity:1.0; 
stroke:#FFFFFF; stroke-width:39.3701; stroke-opacity:1; 
stroke-linecap:round; stroke-linejoin:round;">
</g>
<g style="fill:#FFFFFF; fill-opacity:1.0; 
stroke:#FFFFFF; stroke-width:0; stroke-opacity:1; 
stroke-linecap:round; stroke-linejoin:round;">
<circle cx="10732.8" cy="10757.9" r="78.7402" /> 
</g>
<g style="fill:#FFFFFF; fill-opacity:1.0; 
stroke:#FFFFFF; stroke-width:39.3701; stroke-opacity:1; 
stroke-linecap:round; stroke-linejoin:round;">
</g>
<g style="fill:#FFFFFF; fill-opacity:1.0; 
stroke:#FFFFFF; stroke-width:0; stroke-opacity:1; 
stroke-linecap:round; stroke-linejoin:round;">
<circle cx="10083.2" cy="14084.6" r="78.7402" /> 
</g>
<g style="fill:#FFFFFF; fill-opacity:1.0; 
stroke:#FFFFFF; stroke-width:39.3701; stroke-opacity:1; 
stroke-linecap:round; stroke-linejoin:round;">
</g>
<g style="fill:#FFFFFF; fill-opacity:1.0; 
stroke:#FFFFFF; stroke-width:0; stroke-opacity:1; 
stroke-linecap:round; stroke-linejoin:round;">
<circle cx="7778.66" cy="11821.1" r="78.7402" /> 
</g>
<g style="fill:#FFFFFF; fill-opacity:1.0; 
stroke:#FFFFFF; stroke-width:39.3701; stroke-opacity:1; 
stroke-linecap:round; stroke-linejoin:round;">
</g>
<g style="fill:#FFFFFF; fill-opacity:1.0; 
stroke:#FFFFFF; stroke-width:0; stroke-opacity:1; 
stroke-linecap:round; stroke-linejoin:round;">
<circle cx="4630.47" cy="9911.42" r="78.7402" /> 
</g>
<g style="fill:#FFFFFF; fill-opacity:1.0; 
stroke:#FFFFFF; stroke-width:39.3701; stroke-opacity:1; 
stroke-linecap:round; stroke-linejoin:round;">
</g>
<g style="fill:#FFFFFF; fill-opacity:1.0; 
stroke:#FFFFFF; stroke-width:0; stroke-opacity:1; 
stroke-linecap:round; stroke-linejoin:round;">
<circle cx="8405.82" cy="11859.6" r="78.7402" /> 
</g>
<g style="fill:#FFFFFF; fill-opacity:1.0; 
stroke:#FFFFFF; stroke-width:39.3701; stroke-opacity:1; 
stroke-linecap:round; stroke-linejoin:round;">
</g>
<g style="fill:#FFFFFF; fill-opacity:1.0; 
stroke:#FFFFFF; stroke-width:0; stroke-opacity:1; 
stroke-linecap:round; stroke-linejoin:round;">
<circle cx="9197.4" cy="8336.61" r="78.7402" /> 
</g>
<g style="fill:#FFFFFF; fill-opacity:1.0; 
stroke:#FFFFFF; stroke-width:39.3701; stroke-opacity:1; 
stroke-linecap:round; stroke-linejoin:round;">
</g>
<g style="fill:#FFFFFF; fill-opacity:1.0; 
stroke:#FFFFFF; stroke-width:0; stroke-opacity:1; 
stroke-linecap:round; stroke-linejoin:round;">
<circle cx="8449.37" cy="8336.61" r="78.7402" /> 
</g>
<g style="fill:#FFFFFF; fill-opacity:1.0; 
stroke:#FFFFFF; stroke-width:39.3701; stroke-opacity:1; 
stroke-linecap:round; stroke-linejoin:round;">
</g>
<g style="fill:#FFFFFF; fill-opacity:1.0; 
stroke:#FFFFFF; stroke-width:0; stroke-opacity:1; 
stroke-linecap:round; stroke-linejoin:round;">
<circle cx="8429.68" cy="10285.4" r="78.7402" /> 
</g>
<g style="fill:#FFFFFF; fill-opacity:1.0; 
stroke:#FFFFFF; stroke-width:39.3701; stroke-opacity:1; 
stroke-linecap:round; stroke-linejoin:round;">
</g>
<g style="fill:#FFFFFF; fill-opacity:1.0; 
stroke:#FFFFFF; stroke-width:0; stroke-opacity:1; 
stroke-linecap:round; stroke-linejoin:round;">
<circle cx="8093.61" cy="11818.1" r="78.7402" /> 
</g>
<g style="fill:#FFFFFF; fill-opacity:1.0; 
stroke:#FFFFFF; stroke-width:39.3701; stroke-opacity:1; 
stroke-linecap:round; stroke-linejoin:round;">
</g>
<g style="fill:#FFFFFF; fill-opacity:1.0; 
stroke:#FFFFFF; stroke-width:0; stroke-opacity:1; 
stroke-linecap:round; stroke-linejoin:round;">
<circle cx="9158.03" cy="9143.7" r="78.7402" /> 
</g>
<g style="fill:#FFFFFF; fill-opacity:1.0; 
stroke:#FFFFFF; stroke-width:39.3701; stroke-opacity:1; 
stroke-linecap:round; stroke-linejoin:round;">
</g>
<g style="fill:#FFFFFF; fill-opacity:1.0; 
stroke:#FFFFFF; stroke-width:0; stroke-opacity:1; 
stroke-linecap:round; stroke-linejoin:round;">
<circle cx="8114.72" cy="9143.7" r="78.7402" /> 
</g>
<g style="fill:#FFFFFF; fill-opacity:1.0; 
stroke:#FFFFFF; stroke-width:39.3701; stroke-opacity:1; 
stroke-linecap:round; stroke-linejoin:round;">
</g>
<g style="fill:#FFFFFF; fill-opacity:1.0; 
stroke:#FFFFFF; stroke-width:0; stroke-opacity:1; 
stroke-linecap:round; stroke-linejoin:round;">
<circle cx="8114.72" cy="10285.4" r="78.7402" /> 
</g>
<g style="fill:#FFFFFF; fill-opacity:1.0; 
stroke:#FFFFFF; stroke-width:39.3701; stroke-opacity:1; 
stroke-linecap:round; stroke-linejoin:round;">
</g>
<g style="fill:#FFFFFF; fill-opacity:1.0; 
stroke:#FFFFFF; stroke-width:0; stroke-opacity:1; 
stroke-linecap:round; stroke-linejoin:round;">
<circle cx="6677.71" cy="12175.2" r="78.7402" /> 
</g>
<g style="fill:#FFFFFF; fill-opacity:1.0; 
stroke:#FFFFFF; stroke-width:39.3701; stroke-opacity:1; 
stroke-linecap:round; stroke-linejoin:round;">
</g>
<g style="fill:#FFFFFF; fill-opacity:1.0; 
stroke:#FFFFFF; stroke-width:0; stroke-opacity:1; 
stroke-linecap:round; stroke-linejoin:round;">
<circle cx="9203.3" cy="12175.2" r="78.7402" /> 
</g>
<g style="fill:#FFFFFF; fill-opacity:1.0; 
stroke:#FFFFFF; stroke-width:39.3701; stroke-opacity:1; 
stroke-linecap:round; stroke-linejoin:round;">
</g>
<g style="fill:#FFFFFF; fill-opacity:1.0; 
stroke:#FFFFFF; stroke-width:0; stroke-opacity:1; 
stroke-linecap:round; stroke-linejoin:round;">
<circle cx="4650.15" cy="9183.07" r="78.7402" /> 
</g>
<g style="fill:#FFFFFF; fill-opacity:1.0; 
stroke:#FFFFFF; stroke-width:39.3701; stroke-opacity:1; 
stroke-linecap:round; stroke-linejoin:round;">
</g>
<g style="fill:#FFFFFF; fill-opacity:1.0; 
stroke:#FFFFFF; stroke-width:0; stroke-opacity:1; 
stroke-linecap:round; stroke-linejoin:round;">
<circle cx="7504.48" cy="9183.07" r="78.7402" /> 
</g>
<g style="fill:#FFFFFF; fill-opacity:1.0; 
stroke:#FFFFFF; stroke-width:39.3701; stroke-opacity:1; 
stroke-linecap:round; stroke-linejoin:round;">
</g>
<g style="fill:#FFFFFF; fill-opacity:1.0; 
stroke:#FFFFFF; stroke-width:0; stroke-opacity:1; 
stroke-linecap:round; stroke-linejoin:round;">
<circle cx="7150.15" cy="11840.6" r="78.7402" /> 
</g>
<g style="fill:#FFFFFF; fill-opacity:1.0; 
stroke:#FFFFFF; stroke-width:39.3701; stroke-opacity:1; 
stroke-linecap:round; stroke-linejoin:round;">
</g>
<g style="fill:#FFFFFF; fill-opacity:1.0; 
stroke:#FFFFFF; stroke-width:0; stroke-opacity:1; 
stroke-linecap:round; stroke-linejoin:round;">
<circle cx="7150.15" cy="10285.4" r="78.7402" /> 
</g>
<g style="fill:#FFFFFF; fill-opacity:1.0; 
stroke:#FFFFFF; stroke-width:39.3701; stroke-opacity:1; 
stroke-linecap:round; stroke-linejoin:round;">
</g>
<g style="fill:#FFFFFF; fill-opacity:1.0; 
stroke:#FFFFFF; stroke-width:0; stroke-opacity:1; 
stroke-linecap:round; stroke-linejoin:round;">
<circle cx="7169.84" cy="9616.14" r="78.7402" /> 
</g>
<g style="fill:#FFFFFF; fill-opacity:1.0; 
stroke:#FFFFFF; stroke-width:39.3701; stroke-opacity:1; 
stroke-linecap:round; stroke-linejoin:round;">
</g>
<g style="fill:#FFFFFF; fill-opacity:1.0; 
stroke:#FFFFFF; stroke-width:0; stroke-opacity:1; 
stroke-linecap:round; stroke-linejoin:round;">
<circle cx="9079.29" cy="9616.14" r="78.7402" /> 
</g>
<g style="fill:#FFFFFF; fill-opacity:1.0; 
stroke:#FFFFFF; stroke-width:39.3701; stroke-opacity:1; 
stroke-linecap:round; stroke-linejoin:round;">
</g>
<g style="fill:#FFFFFF; fill-opacity:1.0; 
stroke:#FFFFFF; stroke-width:0; stroke-opacity:1; 
stroke-linecap:round; stroke-linejoin:round;">
<circle cx="5929.68" cy="11860.2" r="78.7402" /> 
</g>
<g style="fill:#FFFFFF; fill-opacity:1.0; 
stroke:#FFFFFF; stroke-width:39.3701; stroke-opacity:1; 
stroke-linecap:round; stroke-linejoin:round;">
</g>
<g style="fill:#FFFFFF; fill-opacity:1.0; 
stroke:#FFFFFF; stroke-width:0; stroke-opacity:1; 
stroke-linecap:round; stroke-linejoin:round;">
<circle cx="5083.22" cy="11860.2" r="78.7402" /> 
</g>
<g style="fill:#FFFFFF; fill-opacity:1.0; 
stroke:#FFFFFF; stroke-width:39.3701; stroke-opacity:1; 
stroke-linecap:round; stroke-linejoin:round;">
</g>
<g style="fill:#FFFFFF; fill-opacity:1.0; 
stroke:#FFFFFF; stroke-width:0; stroke-opacity:1; 
stroke-linecap:round; stroke-linejoin:round;">
<circle cx="5083.22" cy="13612.2" r="78.7402" /> 
</g>
<g style="fill:#FFFFFF; fill-opacity:1.0; 
stroke:#FFFFFF; stroke-width:39.3701; stroke-opacity:1; 
stroke-linecap:round; stroke-linejoin:round;">
</g>
<g style="fill:#FFFFFF; fill-opacity:1.0; 
stroke:#FFFFFF; stroke-width:0; stroke-opacity:1; 
stroke-linecap:round; stroke-linejoin:round;">
<circle cx="11835.2" cy="15265.7" r="78.7402" /> 
</g>
<g style="fill:#FFFFFF; fill-opacity:1.0; 
stroke:#FFFFFF; stroke-width:39.3701; stroke-opacity:1; 
stroke-linecap:round; stroke-linejoin:round;">
</g>
<g style="fill:#FFFFFF; fill-opacity:1.0; 
stroke:#FFFFFF; stroke-width:0; stroke-opacity:1; 
stroke-linecap:round; stroke-linejoin:round;">
<circle cx="4630.47" cy="10895.7" r="127.953" /> 
</g>
<g style="fill:#FFFFFF; fill-opacity:1.0; 
stroke:#FFFFFF; stroke-width:39.3701; stroke-opacity:1; 
stroke-linecap:round; stroke-linejoin:round;">
</g>
<g style="fill:#FFFFFF; fill-opacity:1.0; 
stroke:#FFFFFF; stroke-width:0; stroke-opacity:1; 
stroke-linecap:round; stroke-linejoin:round;">
<circle cx="13705.3" cy="12116.1" r="200" /> 
</g>
<g style="fill:#FFFFFF; fill-opacity:1.0; 
stroke:#FFFFFF; stroke-width:39.3701; stroke-opacity:1; 
stroke-linecap:round; stroke-linejoin:round;">
</g>
<g style="fill:#FFFFFF; fill-opacity:1.0; 
stroke:#FFFFFF; stroke-width:0; stroke-opacity:1; 
stroke-linecap:round; stroke-linejoin:round;">
<circle cx="13705.3" cy="11116.1" r="200" /> 
</g>
<g style="fill:#FFFFFF; fill-opacity:1.0; 
stroke:#FFFFFF; stroke-width:39.3701; stroke-opacity:1; 
stroke-linecap:round; stroke-linejoin:round;">
</g>
<g style="fill:#FFFFFF; fill-opacity:1.0; 
stroke:#FFFFFF; stroke-width:0; stroke-opacity:1; 
stroke-linecap:round; stroke-linejoin:round;">
<circle cx="13705.3" cy="10116.1" r="200" /> 
</g>
<g style="fill:#FFFFFF; fill-opacity:1.0; 
stroke:#FFFFFF; stroke-width:39.3701; stroke-opacity:1; 
stroke-linecap:round; stroke-linejoin:round;">
</g>
<g style="fill:#FFFFFF; fill-opacity:1.0; 
stroke:#FFFFFF; stroke-width:0; stroke-opacity:1; 
stroke-linecap:round; stroke-linejoin:round;">
<circle cx="12327.3" cy="13651.6" r="86.6142" /> 
</g>
<g style="fill:#FFFFFF; fill-opacity:1.0; 
stroke:#FFFFFF; stroke-width:39.3701; stroke-opacity:1; 
stroke-linecap:round; stroke-linejoin:round;">
</g>
<g style="fill:#FFFFFF; fill-opacity:1.0; 
stroke:#FFFFFF; stroke-width:0; stroke-opacity:1; 
stroke-linecap:round; stroke-linejoin:round;">
<circle cx="11933.6" cy="13907.5" r="86.6142" /> 
</g>
<g style="fill:#FFFFFF; fill-opacity:1.0; 
stroke:#FFFFFF; stroke-width:39.3701; stroke-opacity:1; 
stroke-linecap:round; stroke-linejoin:round;">
</g>
<g style="fill:#FFFFFF; fill-opacity:1.0; 
stroke:#FFFFFF; stroke-width:0; stroke-opacity:1; 
stroke-linecap:round; stroke-linejoin:round;">
<circle cx="12327.3" cy="14163.4" r="86.6142" /> 
</g>
<g style="fill:#FFFFFF; fill-opacity:1.0; 
stroke:#FFFFFF; stroke-width:39.3701; stroke-opacity:1; 
stroke-linecap:round; stroke-linejoin:round;">
</g>
<g style="fill:#FFFFFF; fill-opacity:1.0; 
stroke:#FFFFFF; stroke-width:0; stroke-opacity:1; 
stroke-linecap:round; stroke-linejoin:round;">
<circle cx="11933.6" cy="14419.3" r="86.6142" /> 
</g>
<g style="fill:#FFFFFF; fill-opacity:1.0; 
stroke:#FFFFFF; stroke-width:39.3701; stroke-opacity:1; 
stroke-linecap:round; stroke-linejoin:round;">
</g>
<g style="fill:#FFFFFF; fill-opacity:1.0; 
stroke:#FFFFFF; stroke-width:0; stroke-opacity:1; 
stroke-linecap:round; stroke-linejoin:round;">
<circle cx="12327.3" cy="14675.2" r="86.6142" /> 
</g>
<g style="fill:#FFFFFF; fill-opacity:1.0; 
stroke:#FFFFFF; stroke-width:39.3701; stroke-opacity:1; 
stroke-linecap:round; stroke-linejoin:round;">
</g>
<g style="fill:#FFFFFF; fill-opacity:1.0; 
stroke:#FFFFFF; stroke-width:137.795; stroke-opacity:1; 
stroke-linecap:round; stroke-linejoin:round;">
</g>
<g style="fill:#FFFFFF; fill-opacity:0.0; 
stroke:#FFFFFF; stroke-width:137.795; stroke-opacity:1; 
stroke-linecap:round; stroke-linejoin:round;">
<path d="M12043 12755
L12437 12755
" />
<path d="M12043 15570
L12437 15570
" />
</g>
<g style="fill:#FFFFFF; fill-opacity:1.0; 
stroke:#FFFFFF; stroke-width:0; stroke-opacity:1; 
stroke-linecap:round; stroke-linejoin:round;">
<circle cx="10772.2" cy="11450.8" r="200" /> 
</g>
<g style="fill:#FFFFFF; fill-opacity:1.0; 
stroke:#FFFFFF; stroke-width:39.3701; stroke-opacity:1; 
stroke-linecap:round; stroke-linejoin:round;">
</g>
<g style="fill:#FFFFFF; fill-opacity:1.0; 
stroke:#FFFFFF; stroke-width:0; stroke-opacity:1; 
stroke-linecap:round; stroke-linejoin:round;">
<circle cx="10772.2" cy="12450.8" r="200" /> 
</g>
<g style="fill:#FFFFFF; fill-opacity:1.0; 
stroke:#FFFFFF; stroke-width:39.3701; stroke-opacity:1; 
stroke-linecap:round; stroke-linejoin:round;">
</g>
<g style="fill:#FFFFFF; fill-opacity:1.0; 
stroke:#FFFFFF; stroke-width:0; stroke-opacity:1; 
stroke-linecap:round; stroke-linejoin:round;">
<circle cx="10772.2" cy="13450.8" r="200" /> 
</g>
<g style="fill:#FFFFFF; fill-opacity:1.0; 
stroke:#FFFFFF; stroke-width:39.3701; stroke-opacity:1; 
stroke-linecap:round; stroke-linejoin:round;">
</g>
<g style="fill:#FFFFFF; fill-opacity:1.0; 
stroke:#FFFFFF; stroke-width:0; stroke-opacity:1; 
stroke-linecap:round; stroke-linejoin:round;">
<circle cx="10772.2" cy="14450.8" r="200" /> 
</g>
<g style="fill:#FFFFFF; fill-opacity:1.0; 
stroke:#FFFFFF; stroke-width:39.3701; stroke-opacity:1; 
stroke-linecap:round; stroke-linejoin:round;">
</g>
<g style="fill:#FFFFFF; fill-opacity:1.0; 
stroke:#FFFFFF; stroke-width:0; stroke-opacity:1; 
stroke-linecap:round; stroke-linejoin:round;">
<circle cx="10772.2" cy="15450.8" r="200" /> 
</g>
<g style="fill:#FFFFFF; fill-opacity:1.0; 
stroke:#FFFFFF; stroke-width:39.3701; stroke-opacity:1; 
stroke-linecap:round; stroke-linejoin:round;">
</g>
<g style="fill:#FFFFFF; fill-opacity:1.0; 
stroke:#FFFFFF; stroke-width:0; stroke-opacity:1; 
stroke-linecap:round; stroke-linejoin:round;">
<circle cx="9177.71" cy="3690.95" r="200" /> 
</g>
<g style="fill:#FFFFFF; fill-opacity:1.0; 
stroke:#FFFFFF; stroke-width:39.3701; stroke-opacity:1; 
stroke-linecap:round; stroke-linejoin:round;">
</g>
<g style="fill:#FFFFFF; fill-opacity:1.0; 
stroke:#FFFFFF; stroke-width:0; stroke-opacity:1; 
stroke-linecap:round; stroke-linejoin:round;">
<circle cx="14295.8" cy="13848.4" r="531.496" /> 
</g>
<g style="fill:#FFFFFF; fill-opacity:1.0; 
stroke:#FFFFFF; stroke-width:39.3701; stroke-opacity:1; 
stroke-linecap:round; stroke-linejoin:round;">
</g>
<g style="fill:#FFFFFF; fill-opacity:1.0; 
stroke:#FFFFFF; stroke-width:0; stroke-opacity:1; 
stroke-linecap:round; stroke-linejoin:round;">
<circle cx="5831.26" cy="3375.98" r="531.496" /> 
</g>
<g style="fill:#FFFFFF; fill-opacity:1.0; 
stroke:#FFFFFF; stroke-width:39.3701; stroke-opacity:1; 
stroke-linecap:round; stroke-linejoin:round;">
</g>
<g style="fill:#FFFFFF; fill-opacity:1.0; 
stroke:#FFFFFF; stroke-width:0; stroke-opacity:1; 
stroke-linecap:round; stroke-linejoin:round;">
<circle cx="13114.7" cy="4596.46" r="127.953" /> 
</g>
<g style="fill:#FFFFFF; fill-opacity:1.0; 
stroke:#FFFFFF; stroke-width:39.3701; stroke-opacity:1; 
stroke-linecap:round; stroke-linejoin:round;">
</g>
<g style="fill:#FFFFFF; fill-opacity:1.0; 
stroke:#FFFFFF; stroke-width:0; stroke-opacity:1; 
stroke-linecap:round; stroke-linejoin:round;">
<circle cx="14374.6" cy="8730.32" r="200" /> 
</g>
<g style="fill:#FFFFFF; fill-opacity:1.0; 
stroke:#FFFFFF; stroke-width:39.3701; stroke-opacity:1; 
stroke-linecap:round; stroke-linejoin:round;">
</g>
<g style="fill:#FFFFFF; fill-opacity:1.0; 
stroke:#FFFFFF; stroke-width:0; stroke-opacity:1; 
stroke-linecap:round; stroke-linejoin:round;">
<circle cx="14374.6" cy="7730.32" r="200" /> 
</g>
<g style="fill:#FFFFFF; fill-opacity:1.0; 
stroke:#FFFFFF; stroke-width:39.3701; stroke-opacity:1; 
stroke-linecap:round; stroke-linejoin:round;">
</g>
<g style="fill:#FFFFFF; fill-opacity:1.0; 
stroke:#FFFFFF; stroke-width:0; stroke-opacity:1; 
stroke-linecap:round; stroke-linejoin:round;">
<circle cx="14374.6" cy="6730.32" r="200" /> 
</g>
<g style="fill:#FFFFFF; fill-opacity:1.0; 
stroke:#FFFFFF; stroke-width:39.3701; stroke-opacity:1; 
stroke-linecap:round; stroke-linejoin:round;">
</g>
<g style="fill:#FFFFFF; fill-opacity:1.0; 
stroke:#FFFFFF; stroke-width:0; stroke-opacity:1; 
stroke-linecap:round; stroke-linejoin:round;">
<circle cx="14374.6" cy="5730.32" r="200" /> 
</g>
<g style="fill:#FFFFFF; fill-opacity:1.0; 
stroke:#FFFFFF; stroke-width:39.3701; stroke-opacity:1; 
stroke-linecap:round; stroke-linejoin:round;">
</g>
<g style="fill:#FFFFFF; fill-opacity:1.0; 
stroke:#FFFFFF; stroke-width:0; stroke-opacity:1; 
stroke-linecap:round; stroke-linejoin:round;">
<circle cx="5221.02" cy="10895.7" r="127.953" /> 
</g>
<g style="fill:#FFFFFF; fill-opacity:1.0; 
stroke:#FFFFFF; stroke-width:39.3701; stroke-opacity:1; 
stroke-linecap:round; stroke-linejoin:round;">
</g>
<g style="fill:#000000; fill-opacity:1.0; 
stroke:#000000; stroke-width:39.3701; stroke-opacity:1; 
stroke-linecap:round; stroke-linejoin:round;">
</g>
<g style="fill:#C2C200; fill-opacity:1.0; 
stroke:#C2C200; stroke-width:39.3701; stroke-opacity:1; 
stroke-linecap:round; stroke-linejoin:round;">
</g>
<g style="fill:#C2C200; fill-opacity:1.0; 
stroke:#C2C200; stroke-width:59.0551; stroke-opacity:1; 
stroke-linecap:round; stroke-linejoin:round;">
</g>
<g style="fill:#C2C200; fill-opacity:0.0; 
stroke:#C2C200; stroke-width:59.0551; stroke-opacity:1; 
stroke-linecap:round; stroke-linejoin:round;">
<path d="M9886.37 29.5278 A8143.94 8143.94 0.0 1 0 14105 776.09 " />
<path d="M9886 29
L14098 777
" />
</g> 
</svg>
