G04 #@! TF.FileFunction,Copper,L1,Top,Signal*
%FSLAX46Y46*%
G04 Gerber Fmt 4.6, Leading zero omitted, Abs format (unit mm)*
G04 Created by KiCad (PCBNEW 4.0.6+dfsg1-1) date Thu Jan 25 22:00:33 2018*
%MOMM*%
%LPD*%
G01*
G04 APERTURE LIST*
%ADD10C,0.100000*%
%ADD11R,2.999740X1.198880*%
%ADD12C,1.879600*%
%ADD13R,0.508000X1.143000*%
%ADD14R,0.450000X1.350000*%
%ADD15C,1.408000*%
%ADD16C,1.800000*%
%ADD17R,1.500000X1.550000*%
%ADD18R,1.198880X0.797560*%
%ADD19R,0.998220X1.099820*%
%ADD20R,1.099820X0.998220*%
%ADD21R,1.651000X0.998220*%
%ADD22R,1.879600X1.879600*%
%ADD23R,1.060000X0.650000*%
%ADD24C,3.200000*%
%ADD25C,0.600000*%
%ADD26C,0.250000*%
%ADD27C,1.000000*%
G04 APERTURE END LIST*
D10*
D11*
X162101920Y-56400520D03*
X162101920Y-58402040D03*
X162101920Y-60401020D03*
X162101920Y-62400000D03*
X162101920Y-64398980D03*
X162101920Y-66397960D03*
X162101920Y-68399480D03*
X177098080Y-68399480D03*
X177098080Y-66397960D03*
X177098080Y-64398980D03*
X177098080Y-62400000D03*
X177098080Y-60401020D03*
X177098080Y-58402040D03*
X177098080Y-56400520D03*
D12*
X152200000Y-73600000D03*
X152200000Y-71060000D03*
X152200000Y-68520000D03*
X160800000Y-72100000D03*
X160800000Y-74640000D03*
X160800000Y-77180000D03*
X160800000Y-79720000D03*
X160800000Y-82260000D03*
D13*
X171810000Y-71898000D03*
X170540000Y-71898000D03*
X169270000Y-71898000D03*
X168000000Y-71898000D03*
X166730000Y-71898000D03*
X165460000Y-71898000D03*
X164190000Y-71898000D03*
X164190000Y-78248000D03*
X165460000Y-78248000D03*
X168000000Y-78248000D03*
X169270000Y-78248000D03*
X170540000Y-78248000D03*
X171810000Y-78248000D03*
X166730000Y-78248000D03*
D14*
X155800000Y-46425000D03*
X156450000Y-46425000D03*
X157100000Y-46425000D03*
X157750000Y-46425000D03*
X158400000Y-46425000D03*
D15*
X154600000Y-46400000D03*
X159600000Y-46400000D03*
D16*
X153600000Y-49100000D03*
X160600000Y-49100000D03*
D17*
X156100000Y-49100000D03*
X158100000Y-49100000D03*
X154050000Y-49100000D03*
X160150000Y-49100000D03*
D18*
X165077920Y-44660606D03*
X165077920Y-46458926D03*
D19*
X162877920Y-44611406D03*
X162877920Y-46308126D03*
D20*
X168496720Y-47900000D03*
X166800000Y-47900000D03*
D21*
X145924440Y-51102340D03*
X145924440Y-54297660D03*
X151075560Y-54297660D03*
X151075560Y-51102340D03*
X142724440Y-56702340D03*
X142724440Y-59897660D03*
X147875560Y-59897660D03*
X147875560Y-56702340D03*
X142724440Y-62302340D03*
X142724440Y-65497660D03*
X147875560Y-65497660D03*
X147875560Y-62302340D03*
X144324440Y-68002340D03*
X144324440Y-71197660D03*
X149475560Y-71197660D03*
X149475560Y-68002340D03*
D22*
X150500000Y-65000000D03*
D12*
X150500000Y-62460000D03*
X150500000Y-59920000D03*
X150500000Y-57380000D03*
X163700000Y-52200000D03*
D20*
X157148360Y-56200000D03*
X155451640Y-56200000D03*
D23*
X162900000Y-47950000D03*
X162900000Y-48900000D03*
X162900000Y-49850000D03*
X165100000Y-49850000D03*
X165100000Y-47950000D03*
D24*
X150700000Y-78000000D03*
X172200000Y-51400000D03*
D25*
X168000000Y-79500000D03*
X161900000Y-51050000D03*
X151050000Y-55450000D03*
X147850000Y-58650000D03*
X147900000Y-66700000D03*
X149450000Y-70150000D03*
X166500000Y-45150000D03*
X169700000Y-47900000D03*
X177100000Y-55050000D03*
X159500000Y-61000000D03*
X161400000Y-46200000D03*
X155273921Y-44995999D03*
X164964801Y-54900000D03*
X173700000Y-54900000D03*
X173700000Y-77800000D03*
X169300000Y-79550000D03*
X152700000Y-58400000D03*
X160100000Y-58400000D03*
X169300000Y-74600000D03*
X164100000Y-77000000D03*
X159400000Y-69500000D03*
X159400000Y-62450000D03*
X152074980Y-59939155D03*
X164700000Y-59900000D03*
X162400000Y-73700000D03*
X170500000Y-73700000D03*
X163100000Y-79600000D03*
X163100000Y-73000000D03*
X169200000Y-73000000D03*
X158500000Y-56200000D03*
X165500000Y-56200000D03*
X171800000Y-70600000D03*
X177100000Y-70600000D03*
X164074980Y-64400000D03*
X168000000Y-64400000D03*
X164074980Y-70400000D03*
X166700000Y-70400000D03*
X166300000Y-49300000D03*
X156400000Y-47800000D03*
X170600000Y-76400000D03*
X175000000Y-76300000D03*
X160100000Y-68400000D03*
X172600000Y-68400000D03*
X171800000Y-77100000D03*
X157100000Y-43995979D03*
X167200000Y-49300000D03*
D26*
X168000000Y-78248000D02*
X168000000Y-79500000D01*
X162900000Y-48900000D02*
X162409998Y-48900000D01*
X162409998Y-48900000D02*
X161900000Y-49409998D01*
X161900000Y-49409998D02*
X161900000Y-51050000D01*
D27*
X162877920Y-44611406D02*
X165028720Y-44611406D01*
X165028720Y-44611406D02*
X165077920Y-44660606D01*
D26*
X158675001Y-45274999D02*
X158625001Y-45274999D01*
X158625001Y-45274999D02*
X158625001Y-45852077D01*
X158625001Y-45852077D02*
X158452077Y-45852077D01*
X158300001Y-45700001D02*
X158300001Y-46325001D01*
X158452077Y-45852077D02*
X158300001Y-45700001D01*
X158300001Y-46325001D02*
X158400000Y-46425000D01*
D27*
X159338594Y-44611406D02*
X158675001Y-45274999D01*
X162877920Y-44611406D02*
X159338594Y-44611406D01*
D26*
X151075560Y-54297660D02*
X151075560Y-55424440D01*
X151075560Y-55424440D02*
X151050000Y-55450000D01*
X147875560Y-59897660D02*
X147875560Y-58675560D01*
X147875560Y-58675560D02*
X147850000Y-58650000D01*
X147875560Y-65497660D02*
X147875560Y-66675560D01*
X147875560Y-66675560D02*
X147900000Y-66700000D01*
X149475560Y-71197660D02*
X149475560Y-70175560D01*
X149475560Y-70175560D02*
X149450000Y-70150000D01*
X149475560Y-71197660D02*
X149801950Y-71197660D01*
X152200000Y-68799610D02*
X152200000Y-68520000D01*
X165077920Y-44660606D02*
X166010606Y-44660606D01*
X166010606Y-44660606D02*
X166500000Y-45150000D01*
X168496720Y-47900000D02*
X169700000Y-47900000D01*
X177098080Y-56400520D02*
X177098080Y-55051920D01*
X177098080Y-55051920D02*
X177100000Y-55050000D01*
X162101920Y-60401020D02*
X160098980Y-60401020D01*
X160098980Y-60401020D02*
X159500000Y-61000000D01*
X162927120Y-44660606D02*
X162877920Y-44611406D01*
X168000000Y-78565500D02*
X168000000Y-78248000D01*
X147982340Y-59897660D02*
X147875560Y-59897660D01*
X147875560Y-59897660D02*
X148201950Y-59897660D01*
X148201950Y-65497660D02*
X147875560Y-65497660D01*
D27*
X162877920Y-46308126D02*
X162877920Y-47858036D01*
X162877920Y-47858036D02*
X162894883Y-47874999D01*
X161400000Y-46200000D02*
X162769794Y-46200000D01*
X162769794Y-46200000D02*
X162877920Y-46308126D01*
X154200000Y-70700000D02*
X159400000Y-70700000D01*
X159400000Y-70700000D02*
X160800000Y-72100000D01*
X154200000Y-71600000D02*
X154200000Y-70700000D01*
X152200000Y-73600000D02*
X154200000Y-71600000D01*
D26*
X155800000Y-45700000D02*
X155800000Y-45000000D01*
X155800000Y-45700000D02*
X155800000Y-45500000D01*
X155325000Y-45500000D02*
X155600000Y-45500000D01*
X155600000Y-45500000D02*
X155800000Y-45700000D01*
X155800000Y-46425000D02*
X155800000Y-45975000D01*
X155800000Y-45975000D02*
X155325000Y-45500000D01*
X155273921Y-44995999D02*
X155524999Y-45247077D01*
X155800000Y-45500000D02*
X155547077Y-45247077D01*
X155547077Y-45247077D02*
X155524999Y-45247077D01*
D27*
X145924440Y-51102340D02*
X147749940Y-51102340D01*
X147749940Y-51102340D02*
X153856281Y-44995999D01*
X153856281Y-44995999D02*
X155273921Y-44995999D01*
X162877920Y-46308126D02*
X164927120Y-46308126D01*
X164927120Y-46308126D02*
X165077920Y-46458926D01*
X162727120Y-46458926D02*
X162877920Y-46308126D01*
X162824999Y-47874999D02*
X162900000Y-47874999D01*
X145924440Y-51102340D02*
X146250830Y-51102340D01*
X142798939Y-70198939D02*
X142798939Y-72256771D01*
X142798939Y-72256771D02*
X144142168Y-73600000D01*
X144142168Y-73600000D02*
X150870923Y-73600000D01*
X150870923Y-73600000D02*
X152200000Y-73600000D01*
X141198939Y-68598939D02*
X142798939Y-70198939D01*
X141198939Y-66702339D02*
X141198939Y-68598939D01*
X142398050Y-62302340D02*
X141198939Y-63501451D01*
X141198939Y-63501451D02*
X141198939Y-66702339D01*
X141198939Y-66702339D02*
X142498940Y-68002340D01*
X142498940Y-68002340D02*
X144324440Y-68002340D01*
X142724440Y-62302340D02*
X142398050Y-62302340D01*
X142724440Y-56702340D02*
X142398050Y-56702340D01*
X142398050Y-56702340D02*
X140898940Y-58201450D01*
X140898940Y-58201450D02*
X140898940Y-60803230D01*
X140898940Y-60803230D02*
X142398050Y-62302340D01*
X142724440Y-56702340D02*
X142724440Y-54302340D01*
X142724440Y-54302340D02*
X145924440Y-51102340D01*
D26*
X164964801Y-51154803D02*
X164964801Y-54500000D01*
X164964801Y-54500000D02*
X164964801Y-55450000D01*
X164964801Y-54900000D02*
X164964801Y-54500000D01*
X164964801Y-55450000D02*
X164964801Y-55810195D01*
X164964801Y-54900000D02*
X164964801Y-55450000D01*
X173700000Y-77800000D02*
X173700000Y-54900000D01*
X169270000Y-78248000D02*
X169270000Y-79520000D01*
X169270000Y-79520000D02*
X169300000Y-79550000D01*
X169270000Y-78248000D02*
X169270000Y-78565500D01*
X151689800Y-65000000D02*
X150500000Y-65000000D01*
X152700000Y-58400000D02*
X152700000Y-63989800D01*
X152700000Y-63989800D02*
X151689800Y-65000000D01*
X162101920Y-58402040D02*
X160102040Y-58402040D01*
X160102040Y-58402040D02*
X160100000Y-58400000D01*
X169270000Y-78248000D02*
X169270000Y-74630000D01*
X169270000Y-74630000D02*
X169300000Y-74600000D01*
X163002350Y-58402040D02*
X162101920Y-58402040D01*
X164874998Y-55899998D02*
X164874998Y-56529392D01*
X164964801Y-55810195D02*
X164874998Y-55899998D01*
X164244999Y-50435001D02*
X164964801Y-51154803D01*
X165100000Y-48525000D02*
X164244999Y-49380001D01*
X164244999Y-49380001D02*
X164244999Y-50435001D01*
X165100000Y-47950000D02*
X165100000Y-48525000D01*
X164874998Y-56529392D02*
X163002350Y-58402040D01*
X162101920Y-58402040D02*
X161201490Y-58402040D01*
X165100000Y-47950000D02*
X166750000Y-47950000D01*
X166750000Y-47950000D02*
X166800000Y-47900000D01*
X147875560Y-56702340D02*
X147875560Y-55953230D01*
X147875560Y-55953230D02*
X146219990Y-54297660D01*
X146219990Y-54297660D02*
X145924440Y-54297660D01*
X151075560Y-51102340D02*
X151075560Y-51851450D01*
X151075560Y-51851450D02*
X155424110Y-56200000D01*
X155424110Y-56200000D02*
X155451640Y-56200000D01*
X142724440Y-59897660D02*
X145470880Y-59897660D01*
X145470880Y-59897660D02*
X147875560Y-62302340D01*
X143799940Y-65497660D02*
X142724440Y-65497660D01*
X146304620Y-68002340D02*
X143799940Y-65497660D01*
X149475560Y-68002340D02*
X146304620Y-68002340D01*
X144324440Y-71197660D02*
X145399940Y-71197660D01*
X145399940Y-71197660D02*
X146224051Y-72021771D01*
X146224051Y-72021771D02*
X151238229Y-72021771D01*
X151238229Y-72021771D02*
X151260201Y-71999799D01*
X151260201Y-71999799D02*
X152200000Y-71060000D01*
X159400000Y-62899999D02*
X159400000Y-62450000D01*
X159399999Y-69500000D02*
X159400000Y-62899999D01*
X164100000Y-77000000D02*
X164100000Y-78158000D01*
X164100000Y-78158000D02*
X164190000Y-78248000D01*
X164142000Y-78200000D02*
X164190000Y-78248000D01*
X152055825Y-59920000D02*
X152074980Y-59939155D01*
X150500000Y-59920000D02*
X152055825Y-59920000D01*
X164700000Y-59900000D02*
X164700000Y-71070500D01*
X164700000Y-71070500D02*
X164190000Y-71580500D01*
X164190000Y-71580500D02*
X164190000Y-71898000D01*
X162400000Y-73700000D02*
X162100001Y-73999999D01*
X162100001Y-73999999D02*
X162100001Y-75879999D01*
X162100001Y-75879999D02*
X161739799Y-76240201D01*
X161739799Y-76240201D02*
X160800000Y-77180000D01*
X170540000Y-71898000D02*
X170540000Y-73660000D01*
X170540000Y-73660000D02*
X170500000Y-73700000D01*
X163100000Y-73000000D02*
X163100000Y-79600000D01*
X169270000Y-71898000D02*
X169270000Y-72930000D01*
X169270000Y-72930000D02*
X169200000Y-73000000D01*
D27*
X162101920Y-56400520D02*
X162101920Y-53798080D01*
X162101920Y-53798080D02*
X163700000Y-52200000D01*
D26*
X158500000Y-56200000D02*
X157148360Y-56200000D01*
X165460000Y-71898000D02*
X165460000Y-56240000D01*
X165460000Y-56240000D02*
X165500000Y-56200000D01*
X171800000Y-70600000D02*
X171800000Y-71888000D01*
X171800000Y-71888000D02*
X171810000Y-71898000D01*
X177098080Y-68399480D02*
X177098080Y-70598080D01*
X177098080Y-70598080D02*
X177100000Y-70600000D01*
X164073960Y-64398980D02*
X164074980Y-64400000D01*
X162101920Y-64398980D02*
X164073960Y-64398980D01*
X168000000Y-64400000D02*
X168000000Y-71898000D01*
X164074980Y-67470590D02*
X164074980Y-69975736D01*
X162101920Y-66397960D02*
X163002350Y-66397960D01*
X163002350Y-66397960D02*
X164074980Y-67470590D01*
X164074980Y-69975736D02*
X164074980Y-70400000D01*
X166700000Y-70400000D02*
X166700000Y-71868000D01*
X166700000Y-71868000D02*
X166730000Y-71898000D01*
X166039001Y-76847499D02*
X165460000Y-77426500D01*
X166300000Y-56325004D02*
X166039001Y-56586003D01*
X166300000Y-49300000D02*
X166300000Y-56325004D01*
X165460000Y-77426500D02*
X165460000Y-78248000D01*
X166039001Y-56586003D02*
X166039001Y-76847499D01*
X156450000Y-46425000D02*
X156450000Y-47750000D01*
X156450000Y-47750000D02*
X156400000Y-47800000D01*
X170600000Y-76400000D02*
X170600000Y-78188000D01*
X170600000Y-78188000D02*
X170540000Y-78248000D01*
X177098080Y-66397960D02*
X176197650Y-66397960D01*
X176197650Y-66397960D02*
X175000000Y-67595610D01*
X175000000Y-67595610D02*
X175000000Y-76300000D01*
X160100000Y-68400000D02*
X162101400Y-68400000D01*
X162101400Y-68400000D02*
X162101920Y-68399480D01*
X171800000Y-77100000D02*
X172600000Y-76300000D01*
X172600000Y-76300000D02*
X172600000Y-68400000D01*
X171800000Y-77100000D02*
X171800000Y-78238000D01*
X171800000Y-78238000D02*
X171810000Y-78248000D01*
X157100000Y-45700000D02*
X157100000Y-43995979D01*
X166730000Y-77426500D02*
X166730000Y-78248000D01*
X167325001Y-76831499D02*
X166730000Y-77426500D01*
X167325001Y-49849265D02*
X167325001Y-76831499D01*
X167200000Y-49724264D02*
X167325001Y-49849265D01*
X167200000Y-49300000D02*
X167200000Y-49724264D01*
X157100000Y-46425000D02*
X157100000Y-45700000D01*
X157100000Y-45700000D02*
X157100000Y-45300000D01*
M02*
