<?xml version="1.0" standalone="no"?>
 <!DOCTYPE svg PUBLIC "-//W3C//DTD SVG 1.1//EN" 
 "http://www.w3.org/Graphics/SVG/1.1/DTD/svg11.dtd"> 
<svg xmlns="http://www.w3.org/2000/svg" version="1.1" 
    width="29.7002cm" height="21.0007cm" viewBox="0 0 116930 82680 ">
<title>SVG Picture created as rfboard-brd.svg date 2018/07/08 15:06:43 </title>
  <desc>Picture generated by PCBNEW </desc>
<g style="fill:#000000; fill-opacity:1;stroke:#000000; stroke-opacity:1;
stroke-linecap:round; stroke-linejoin:round; "
 transform="translate(0 0) scale(1 1)">
</g>
<g style="fill:#000000; fill-opacity:0.0; 
stroke:#000000; stroke-width:-0.000393701; stroke-opacity:1; 
stroke-linecap:round; stroke-linejoin:round;">
</g>
<g style="fill:#000000; fill-opacity:0.0; 
stroke:#000000; stroke-width:39.3701; stroke-opacity:1; 
stroke-linecap:round; stroke-linejoin:round;">
</g>
<g style="fill:#000000; fill-opacity:0.0; 
stroke:#000000; stroke-width:59.0551; stroke-opacity:1; 
stroke-linecap:round; stroke-linejoin:round;">
<rect x="69685.9" y="65357.2" width="42519.7" height="12598.4" rx="0" />
</g>
<g style="fill:#000000; fill-opacity:0.0; 
stroke:#000000; stroke-width:39.3701; stroke-opacity:1; 
stroke-linecap:round; stroke-linejoin:round;">
</g>
<g style="fill:#000000; fill-opacity:0.0; 
stroke:#000000; stroke-width:59.0551; stroke-opacity:1; 
stroke-linecap:round; stroke-linejoin:round;">
<rect x="3937.01" y="3937.01" width="109056" height="74806" rx="0" />
</g>
<g style="fill:#000000; fill-opacity:0.0; 
stroke:#000000; stroke-width:39.3701; stroke-opacity:1; 
stroke-linecap:round; stroke-linejoin:round;">
</g>
<g style="fill:#000000; fill-opacity:0.0; 
stroke:#000000; stroke-width:59.0551; stroke-opacity:1; 
stroke-linecap:round; stroke-linejoin:round;">
<rect x="4724.41" y="4724.41" width="107481" height="73231.2" rx="0" />
</g>
<g style="fill:#000000; fill-opacity:0.0; 
stroke:#000000; stroke-width:39.3701; stroke-opacity:1; 
stroke-linecap:round; stroke-linejoin:round;">
</g>
<g style="fill:#000000; fill-opacity:0.0; 
stroke:#000000; stroke-width:59.0551; stroke-opacity:1; 
stroke-linecap:round; stroke-linejoin:round;">
<path d="M23622 4724
L23622 3937
" />
</g>
<g style="fill:#000000; fill-opacity:0.0; 
stroke:#000000; stroke-width:39.3701; stroke-opacity:1; 
stroke-linecap:round; stroke-linejoin:round;">
</g>
<g style="fill:#000000; fill-opacity:0.0; 
stroke:#000000; stroke-width:59.0551; stroke-opacity:1; 
stroke-linecap:round; stroke-linejoin:round;">
<path d="M43307 4724
L43307 3937
" />
</g>
<g style="fill:#000000; fill-opacity:0.0; 
stroke:#000000; stroke-width:39.3701; stroke-opacity:1; 
stroke-linecap:round; stroke-linejoin:round;">
</g>
<g style="fill:#000000; fill-opacity:0.0; 
stroke:#000000; stroke-width:59.0551; stroke-opacity:1; 
stroke-linecap:round; stroke-linejoin:round;">
<path d="M62992 4724
L62992 3937
" />
</g>
<g style="fill:#000000; fill-opacity:0.0; 
stroke:#000000; stroke-width:39.3701; stroke-opacity:1; 
stroke-linecap:round; stroke-linejoin:round;">
</g>
<g style="fill:#000000; fill-opacity:0.0; 
stroke:#000000; stroke-width:59.0551; stroke-opacity:1; 
stroke-linecap:round; stroke-linejoin:round;">
<path d="M82677 4724
L82677 3937
" />
</g>
<g style="fill:#000000; fill-opacity:0.0; 
stroke:#000000; stroke-width:39.3701; stroke-opacity:1; 
stroke-linecap:round; stroke-linejoin:round;">
</g>
<g style="fill:#000000; fill-opacity:0.0; 
stroke:#000000; stroke-width:59.0551; stroke-opacity:1; 
stroke-linecap:round; stroke-linejoin:round;">
<path d="M102362 4724
L102362 3937
" />
</g>
<g style="fill:#000000; fill-opacity:0.0; 
stroke:#000000; stroke-width:39.3701; stroke-opacity:1; 
stroke-linecap:round; stroke-linejoin:round;">
</g>
<g style="fill:#000000; fill-opacity:0.0; 
stroke:#000000; stroke-width:59.0551; stroke-opacity:1; 
stroke-linecap:round; stroke-linejoin:round;">
<path d="M14169 4562
L13877 4562
" />
<path d="M14023 4562
L14023 4050
L13974 4123
L13925 4172
L13877 4196
" />
</g>
<g style="fill:#000000; fill-opacity:0.0; 
stroke:#000000; stroke-width:39.3701; stroke-opacity:1; 
stroke-linecap:round; stroke-linejoin:round;">
</g>
<g style="fill:#000000; fill-opacity:0.0; 
stroke:#000000; stroke-width:59.0551; stroke-opacity:1; 
stroke-linecap:round; stroke-linejoin:round;">
<path d="M33562 4099
L33586 4074
L33635 4050
L33757 4050
L33805 4074
L33830 4099
L33854 4147
L33854 4196
L33830 4269
L33537 4562
L33854 4562
" />
</g>
<g style="fill:#000000; fill-opacity:0.0; 
stroke:#000000; stroke-width:39.3701; stroke-opacity:1; 
stroke-linecap:round; stroke-linejoin:round;">
</g>
<g style="fill:#000000; fill-opacity:0.0; 
stroke:#000000; stroke-width:59.0551; stroke-opacity:1; 
stroke-linecap:round; stroke-linejoin:round;">
<path d="M53222 4050
L53539 4050
L53368 4245
L53442 4245
L53490 4269
L53515 4294
L53539 4342
L53539 4464
L53515 4513
L53490 4537
L53442 4562
L53295 4562
L53247 4537
L53222 4513
" />
</g>
<g style="fill:#000000; fill-opacity:0.0; 
stroke:#000000; stroke-width:39.3701; stroke-opacity:1; 
stroke-linecap:round; stroke-linejoin:round;">
</g>
<g style="fill:#000000; fill-opacity:0.0; 
stroke:#000000; stroke-width:59.0551; stroke-opacity:1; 
stroke-linecap:round; stroke-linejoin:round;">
<path d="M73175 4221
L73175 4562
" />
<path d="M73053 4026
L72932 4391
L73248 4391
" />
</g>
<g style="fill:#000000; fill-opacity:0.0; 
stroke:#000000; stroke-width:39.3701; stroke-opacity:1; 
stroke-linecap:round; stroke-linejoin:round;">
</g>
<g style="fill:#000000; fill-opacity:0.0; 
stroke:#000000; stroke-width:59.0551; stroke-opacity:1; 
stroke-linecap:round; stroke-linejoin:round;">
<path d="M92885 4050
L92641 4050
L92617 4294
L92641 4269
L92690 4245
L92812 4245
L92860 4269
L92885 4294
L92909 4342
L92909 4464
L92885 4513
L92860 4537
L92812 4562
L92690 4562
L92641 4537
L92617 4513
" />
</g>
<g style="fill:#000000; fill-opacity:0.0; 
stroke:#000000; stroke-width:39.3701; stroke-opacity:1; 
stroke-linecap:round; stroke-linejoin:round;">
</g>
<g style="fill:#000000; fill-opacity:0.0; 
stroke:#000000; stroke-width:59.0551; stroke-opacity:1; 
stroke-linecap:round; stroke-linejoin:round;">
<path d="M112545 4050
L112448 4050
L112399 4074
L112375 4099
L112326 4172
L112302 4269
L112302 4464
L112326 4513
L112350 4537
L112399 4562
L112497 4562
L112545 4537
L112570 4513
L112594 4464
L112594 4342
L112570 4294
L112545 4269
L112497 4245
L112399 4245
L112350 4269
L112326 4294
L112302 4342
" />
</g>
<g style="fill:#000000; fill-opacity:0.0; 
stroke:#000000; stroke-width:39.3701; stroke-opacity:1; 
stroke-linecap:round; stroke-linejoin:round;">
</g>
<g style="fill:#000000; fill-opacity:0.0; 
stroke:#000000; stroke-width:59.0551; stroke-opacity:1; 
stroke-linecap:round; stroke-linejoin:round;">
<path d="M23622 77955
L23622 78742
" />
</g>
<g style="fill:#000000; fill-opacity:0.0; 
stroke:#000000; stroke-width:39.3701; stroke-opacity:1; 
stroke-linecap:round; stroke-linejoin:round;">
</g>
<g style="fill:#000000; fill-opacity:0.0; 
stroke:#000000; stroke-width:59.0551; stroke-opacity:1; 
stroke-linecap:round; stroke-linejoin:round;">
<path d="M43307 77955
L43307 78742
" />
</g>
<g style="fill:#000000; fill-opacity:0.0; 
stroke:#000000; stroke-width:39.3701; stroke-opacity:1; 
stroke-linecap:round; stroke-linejoin:round;">
</g>
<g style="fill:#000000; fill-opacity:0.0; 
stroke:#000000; stroke-width:59.0551; stroke-opacity:1; 
stroke-linecap:round; stroke-linejoin:round;">
<path d="M62992 77955
L62992 78742
" />
</g>
<g style="fill:#000000; fill-opacity:0.0; 
stroke:#000000; stroke-width:39.3701; stroke-opacity:1; 
stroke-linecap:round; stroke-linejoin:round;">
</g>
<g style="fill:#000000; fill-opacity:0.0; 
stroke:#000000; stroke-width:59.0551; stroke-opacity:1; 
stroke-linecap:round; stroke-linejoin:round;">
<path d="M82677 77955
L82677 78742
" />
</g>
<g style="fill:#000000; fill-opacity:0.0; 
stroke:#000000; stroke-width:39.3701; stroke-opacity:1; 
stroke-linecap:round; stroke-linejoin:round;">
</g>
<g style="fill:#000000; fill-opacity:0.0; 
stroke:#000000; stroke-width:59.0551; stroke-opacity:1; 
stroke-linecap:round; stroke-linejoin:round;">
<path d="M102362 77955
L102362 78742
" />
</g>
<g style="fill:#000000; fill-opacity:0.0; 
stroke:#000000; stroke-width:39.3701; stroke-opacity:1; 
stroke-linecap:round; stroke-linejoin:round;">
</g>
<g style="fill:#000000; fill-opacity:0.0; 
stroke:#000000; stroke-width:59.0551; stroke-opacity:1; 
stroke-linecap:round; stroke-linejoin:round;">
<path d="M14169 78580
L13877 78580
" />
<path d="M14023 78580
L14023 78069
L13974 78142
L13925 78190
L13877 78215
" />
</g>
<g style="fill:#000000; fill-opacity:0.0; 
stroke:#000000; stroke-width:39.3701; stroke-opacity:1; 
stroke-linecap:round; stroke-linejoin:round;">
</g>
<g style="fill:#000000; fill-opacity:0.0; 
stroke:#000000; stroke-width:59.0551; stroke-opacity:1; 
stroke-linecap:round; stroke-linejoin:round;">
<path d="M33562 78117
L33586 78093
L33635 78069
L33757 78069
L33805 78093
L33830 78117
L33854 78166
L33854 78215
L33830 78288
L33537 78580
L33854 78580
" />
</g>
<g style="fill:#000000; fill-opacity:0.0; 
stroke:#000000; stroke-width:39.3701; stroke-opacity:1; 
stroke-linecap:round; stroke-linejoin:round;">
</g>
<g style="fill:#000000; fill-opacity:0.0; 
stroke:#000000; stroke-width:59.0551; stroke-opacity:1; 
stroke-linecap:round; stroke-linejoin:round;">
<path d="M53222 78069
L53539 78069
L53368 78263
L53442 78263
L53490 78288
L53515 78312
L53539 78361
L53539 78483
L53515 78532
L53490 78556
L53442 78580
L53295 78580
L53247 78556
L53222 78532
" />
</g>
<g style="fill:#000000; fill-opacity:0.0; 
stroke:#000000; stroke-width:39.3701; stroke-opacity:1; 
stroke-linecap:round; stroke-linejoin:round;">
</g>
<g style="fill:#000000; fill-opacity:0.0; 
stroke:#000000; stroke-width:59.0551; stroke-opacity:1; 
stroke-linecap:round; stroke-linejoin:round;">
<path d="M73175 78239
L73175 78580
" />
<path d="M73053 78044
L72932 78410
L73248 78410
" />
</g>
<g style="fill:#000000; fill-opacity:0.0; 
stroke:#000000; stroke-width:39.3701; stroke-opacity:1; 
stroke-linecap:round; stroke-linejoin:round;">
</g>
<g style="fill:#000000; fill-opacity:0.0; 
stroke:#000000; stroke-width:59.0551; stroke-opacity:1; 
stroke-linecap:round; stroke-linejoin:round;">
<path d="M92885 78069
L92641 78069
L92617 78312
L92641 78288
L92690 78263
L92812 78263
L92860 78288
L92885 78312
L92909 78361
L92909 78483
L92885 78532
L92860 78556
L92812 78580
L92690 78580
L92641 78556
L92617 78532
" />
</g>
<g style="fill:#000000; fill-opacity:0.0; 
stroke:#000000; stroke-width:39.3701; stroke-opacity:1; 
stroke-linecap:round; stroke-linejoin:round;">
</g>
<g style="fill:#000000; fill-opacity:0.0; 
stroke:#000000; stroke-width:59.0551; stroke-opacity:1; 
stroke-linecap:round; stroke-linejoin:round;">
<path d="M112545 78069
L112448 78069
L112399 78093
L112375 78117
L112326 78190
L112302 78288
L112302 78483
L112326 78532
L112350 78556
L112399 78580
L112497 78580
L112545 78556
L112570 78532
L112594 78483
L112594 78361
L112570 78312
L112545 78288
L112497 78263
L112399 78263
L112350 78288
L112326 78312
L112302 78361
" />
</g>
<g style="fill:#000000; fill-opacity:0.0; 
stroke:#000000; stroke-width:39.3701; stroke-opacity:1; 
stroke-linecap:round; stroke-linejoin:round;">
</g>
<g style="fill:#000000; fill-opacity:0.0; 
stroke:#000000; stroke-width:59.0551; stroke-opacity:1; 
stroke-linecap:round; stroke-linejoin:round;">
<path d="M3937 23622
L4724 23622
" />
</g>
<g style="fill:#000000; fill-opacity:0.0; 
stroke:#000000; stroke-width:39.3701; stroke-opacity:1; 
stroke-linecap:round; stroke-linejoin:round;">
</g>
<g style="fill:#000000; fill-opacity:0.0; 
stroke:#000000; stroke-width:59.0551; stroke-opacity:1; 
stroke-linecap:round; stroke-linejoin:round;">
<path d="M3937 43307
L4724 43307
" />
</g>
<g style="fill:#000000; fill-opacity:0.0; 
stroke:#000000; stroke-width:39.3701; stroke-opacity:1; 
stroke-linecap:round; stroke-linejoin:round;">
</g>
<g style="fill:#000000; fill-opacity:0.0; 
stroke:#000000; stroke-width:59.0551; stroke-opacity:1; 
stroke-linecap:round; stroke-linejoin:round;">
<path d="M3937 62992
L4724 62992
" />
</g>
<g style="fill:#000000; fill-opacity:0.0; 
stroke:#000000; stroke-width:39.3701; stroke-opacity:1; 
stroke-linecap:round; stroke-linejoin:round;">
</g>
<g style="fill:#000000; fill-opacity:0.0; 
stroke:#000000; stroke-width:59.0551; stroke-opacity:1; 
stroke-linecap:round; stroke-linejoin:round;">
<path d="M4208 13864
L4452 13864
" />
<path d="M4160 14011
L4330 13499
L4501 14011
" />
</g>
<g style="fill:#000000; fill-opacity:0.0; 
stroke:#000000; stroke-width:39.3701; stroke-opacity:1; 
stroke-linecap:round; stroke-linejoin:round;">
</g>
<g style="fill:#000000; fill-opacity:0.0; 
stroke:#000000; stroke-width:59.0551; stroke-opacity:1; 
stroke-linecap:round; stroke-linejoin:round;">
<path d="M4367 33428
L4440 33452
L4464 33476
L4489 33525
L4489 33598
L4464 33647
L4440 33671
L4391 33696
L4196 33696
L4196 33184
L4367 33184
L4416 33208
L4440 33233
L4464 33281
L4464 33330
L4440 33379
L4416 33403
L4367 33428
L4196 33428
" />
</g>
<g style="fill:#000000; fill-opacity:0.0; 
stroke:#000000; stroke-width:39.3701; stroke-opacity:1; 
stroke-linecap:round; stroke-linejoin:round;">
</g>
<g style="fill:#000000; fill-opacity:0.0; 
stroke:#000000; stroke-width:59.0551; stroke-opacity:1; 
stroke-linecap:round; stroke-linejoin:round;">
<path d="M4489 53332
L4464 53356
L4391 53381
L4342 53381
L4269 53356
L4221 53308
L4196 53259
L4172 53161
L4172 53088
L4196 52991
L4221 52942
L4269 52893
L4342 52869
L4391 52869
L4464 52893
L4489 52918
" />
</g>
<g style="fill:#000000; fill-opacity:0.0; 
stroke:#000000; stroke-width:39.3701; stroke-opacity:1; 
stroke-linecap:round; stroke-linejoin:round;">
</g>
<g style="fill:#000000; fill-opacity:0.0; 
stroke:#000000; stroke-width:59.0551; stroke-opacity:1; 
stroke-linecap:round; stroke-linejoin:round;">
<path d="M4196 73066
L4196 72554
L4318 72554
L4391 72578
L4440 72627
L4464 72676
L4489 72773
L4489 72846
L4464 72944
L4440 72993
L4391 73041
L4318 73066
L4196 73066
" />
</g>
<g style="fill:#000000; fill-opacity:0.0; 
stroke:#000000; stroke-width:39.3701; stroke-opacity:1; 
stroke-linecap:round; stroke-linejoin:round;">
</g>
<g style="fill:#000000; fill-opacity:0.0; 
stroke:#000000; stroke-width:59.0551; stroke-opacity:1; 
stroke-linecap:round; stroke-linejoin:round;">
<path d="M112992 23622
L112205 23622
" />
</g>
<g style="fill:#000000; fill-opacity:0.0; 
stroke:#000000; stroke-width:39.3701; stroke-opacity:1; 
stroke-linecap:round; stroke-linejoin:round;">
</g>
<g style="fill:#000000; fill-opacity:0.0; 
stroke:#000000; stroke-width:59.0551; stroke-opacity:1; 
stroke-linecap:round; stroke-linejoin:round;">
<path d="M112992 43307
L112205 43307
" />
</g>
<g style="fill:#000000; fill-opacity:0.0; 
stroke:#000000; stroke-width:39.3701; stroke-opacity:1; 
stroke-linecap:round; stroke-linejoin:round;">
</g>
<g style="fill:#000000; fill-opacity:0.0; 
stroke:#000000; stroke-width:59.0551; stroke-opacity:1; 
stroke-linecap:round; stroke-linejoin:round;">
<path d="M112992 62992
L112205 62992
" />
</g>
<g style="fill:#000000; fill-opacity:0.0; 
stroke:#000000; stroke-width:39.3701; stroke-opacity:1; 
stroke-linecap:round; stroke-linejoin:round;">
</g>
<g style="fill:#000000; fill-opacity:0.0; 
stroke:#000000; stroke-width:59.0551; stroke-opacity:1; 
stroke-linecap:round; stroke-linejoin:round;">
<path d="M112477 13864
L112721 13864
" />
<path d="M112428 14011
L112599 13499
L112769 14011
" />
</g>
<g style="fill:#000000; fill-opacity:0.0; 
stroke:#000000; stroke-width:39.3701; stroke-opacity:1; 
stroke-linecap:round; stroke-linejoin:round;">
</g>
<g style="fill:#000000; fill-opacity:0.0; 
stroke:#000000; stroke-width:59.0551; stroke-opacity:1; 
stroke-linecap:round; stroke-linejoin:round;">
<path d="M112635 33428
L112708 33452
L112733 33476
L112757 33525
L112757 33598
L112733 33647
L112708 33671
L112660 33696
L112465 33696
L112465 33184
L112635 33184
L112684 33208
L112708 33233
L112733 33281
L112733 33330
L112708 33379
L112684 33403
L112635 33428
L112465 33428
" />
</g>
<g style="fill:#000000; fill-opacity:0.0; 
stroke:#000000; stroke-width:39.3701; stroke-opacity:1; 
stroke-linecap:round; stroke-linejoin:round;">
</g>
<g style="fill:#000000; fill-opacity:0.0; 
stroke:#000000; stroke-width:59.0551; stroke-opacity:1; 
stroke-linecap:round; stroke-linejoin:round;">
<path d="M112757 53332
L112733 53356
L112660 53381
L112611 53381
L112538 53356
L112489 53308
L112465 53259
L112440 53161
L112440 53088
L112465 52991
L112489 52942
L112538 52893
L112611 52869
L112660 52869
L112733 52893
L112757 52918
" />
</g>
<g style="fill:#000000; fill-opacity:0.0; 
stroke:#000000; stroke-width:39.3701; stroke-opacity:1; 
stroke-linecap:round; stroke-linejoin:round;">
</g>
<g style="fill:#000000; fill-opacity:0.0; 
stroke:#000000; stroke-width:59.0551; stroke-opacity:1; 
stroke-linecap:round; stroke-linejoin:round;">
<path d="M112465 73066
L112465 72554
L112587 72554
L112660 72578
L112708 72627
L112733 72676
L112757 72773
L112757 72846
L112733 72944
L112708 72993
L112660 73041
L112587 73066
L112465 73066
" />
</g>
<g style="fill:#000000; fill-opacity:0.0; 
stroke:#000000; stroke-width:39.3701; stroke-opacity:1; 
stroke-linecap:round; stroke-linejoin:round;">
</g>
<g style="fill:#000000; fill-opacity:0.0; 
stroke:#000000; stroke-width:59.0551; stroke-opacity:1; 
stroke-linecap:round; stroke-linejoin:round;">
<path d="M78881 76293
L78881 75703
L79022 75703
L79106 75731
L79162 75787
L79190 75843
L79219 75956
L79219 76040
L79190 76153
L79162 76209
L79106 76265
L79022 76293
L78881 76293
" />
<path d="M79725 76293
L79725 75984
L79697 75928
L79640 75899
L79528 75899
L79472 75928
" />
<path d="M79725 76265
L79669 76293
L79528 76293
L79472 76265
L79444 76209
L79444 76153
L79472 76096
L79528 76068
L79669 76068
L79725 76040
" />
<path d="M79922 75899
L80147 75899
" />
<path d="M80006 75703
L80006 76209
L80034 76265
L80090 76293
L80147 76293
" />
<path d="M80568 76265
L80512 76293
L80400 76293
L80343 76265
L80315 76209
L80315 75984
L80343 75928
L80400 75899
L80512 75899
L80568 75928
L80597 75984
L80597 76040
L80315 76096
" />
<path d="M80850 76237
L80878 76265
L80850 76293
L80822 76265
L80850 76237
L80850 76293
" />
<path d="M80850 75928
L80878 75956
L80850 75984
L80822 75956
L80850 75928
L80850 75984
" />
</g>
<g style="fill:#000000; fill-opacity:0.0; 
stroke:#000000; stroke-width:39.3701; stroke-opacity:1; 
stroke-linecap:round; stroke-linejoin:round;">
</g>
<g style="fill:#000000; fill-opacity:0.0; 
stroke:#000000; stroke-width:59.0551; stroke-opacity:1; 
stroke-linecap:round; stroke-linejoin:round;">
<path d="M69685 76577
L112205 76577
" />
</g>
<g style="fill:#000000; fill-opacity:0.0; 
stroke:#000000; stroke-width:39.3701; stroke-opacity:1; 
stroke-linecap:round; stroke-linejoin:round;">
</g>
<g style="fill:#000000; fill-opacity:0.0; 
stroke:#000000; stroke-width:59.0551; stroke-opacity:1; 
stroke-linecap:round; stroke-linejoin:round;">
<path d="M70220 77395
L70220 76805
" />
<path d="M70557 77395
L70304 77058
" />
<path d="M70557 76805
L70220 77142
" />
<path d="M70810 77395
L70810 77002
" />
<path d="M70810 76805
L70782 76833
L70810 76861
L70838 76833
L70810 76805
L70810 76861
" />
<path d="M71429 77339
L71401 77367
L71316 77395
L71260 77395
L71176 77367
L71120 77311
L71091 77255
L71063 77142
L71063 77058
L71091 76946
L71120 76889
L71176 76833
L71260 76805
L71316 76805
L71401 76833
L71429 76861
" />
<path d="M71935 77395
L71935 77086
L71907 77030
L71851 77002
L71738 77002
L71682 77030
" />
<path d="M71935 77367
L71879 77395
L71738 77395
L71682 77367
L71654 77311
L71654 77255
L71682 77199
L71738 77171
L71879 77171
L71935 77142
" />
<path d="M72469 77395
L72469 76805
" />
<path d="M72469 77367
L72413 77395
L72301 77395
L72244 77367
L72216 77339
L72188 77283
L72188 77114
L72216 77058
L72244 77030
L72301 77002
L72413 77002
L72469 77030
" />
<path d="M73201 77086
L73397 77086
" />
<path d="M73482 77395
L73201 77395
L73201 76805
L73482 76805
" />
<path d="M73735 77339
L73763 77367
L73735 77395
L73707 77367
L73735 77339
L73735 77395
" />
<path d="M74016 77395
L74016 76805
L74157 76805
L74241 76833
L74297 76889
L74325 76946
L74354 77058
L74354 77142
L74325 77255
L74297 77311
L74241 77367
L74157 77395
L74016 77395
" />
<path d="M74607 77339
L74635 77367
L74607 77395
L74579 77367
L74607 77339
L74607 77395
" />
<path d="M74860 77227
L75141 77227
" />
<path d="M74804 77395
L75000 76805
L75197 77395
" />
<path d="M75394 77339
L75422 77367
L75394 77395
L75366 77367
L75394 77339
L75394 77395
" />
<path d="M76575 77395
L76575 76805
" />
<path d="M76631 77171
L76800 77395
" />
<path d="M76800 77002
L76575 77227
" />
<path d="M77053 77395
L77053 77002
" />
<path d="M77053 76805
L77025 76833
L77053 76861
L77081 76833
L77053 76805
L77053 76861
" />
<path d="M77588 77367
L77531 77395
L77419 77395
L77363 77367
L77334 77339
L77306 77283
L77306 77114
L77334 77058
L77363 77030
L77419 77002
L77531 77002
L77588 77030
" />
<path d="M78094 77395
L78094 77086
L78066 77030
L78009 77002
L77897 77002
L77841 77030
" />
<path d="M78094 77367
L78037 77395
L77897 77395
L77841 77367
L77813 77311
L77813 77255
L77841 77199
L77897 77171
L78037 77171
L78094 77142
" />
<path d="M78628 77395
L78628 76805
" />
<path d="M78628 77367
L78572 77395
L78459 77395
L78403 77367
L78375 77339
L78347 77283
L78347 77114
L78375 77058
L78403 77030
L78459 77002
L78572 77002
L78628 77030
" />
<path d="M79612 77002
L79612 77395
" />
<path d="M79472 76777
L79331 77199
L79697 77199
" />
<path d="M79922 77339
L79950 77367
L79922 77395
L79894 77367
L79922 77339
L79922 77395
" />
<path d="M80315 76805
L80372 76805
L80428 76833
L80456 76861
L80484 76917
L80512 77030
L80512 77171
L80484 77283
L80456 77339
L80428 77367
L80372 77395
L80315 77395
L80259 77367
L80231 77339
L80203 77283
L80175 77171
L80175 77030
L80203 76917
L80231 76861
L80259 76833
L80315 76805
" />
<path d="M80765 77339
L80793 77367
L80765 77395
L80737 77367
L80765 77339
L80765 77395
" />
<path d="M80990 76805
L81384 76805
L81131 77395
" />
<path d="M81609 77171
L82059 77171
" />
<path d="M82565 77367
L82509 77395
L82396 77395
L82340 77367
L82312 77311
L82312 77086
L82340 77030
L82396 77002
L82509 77002
L82565 77030
L82593 77086
L82593 77142
L82312 77199
" />
<path d="M82818 76861
L82846 76833
L82903 76805
L83043 76805
L83099 76833
L83127 76861
L83156 76917
L83156 76974
L83127 77058
L82790 77395
L83156 77395
" />
<path d="M83409 77171
L83859 77171
" />
<path d="M84393 76805
L84280 76805
L84224 76833
L84196 76861
L84140 76946
L84112 77058
L84112 77283
L84140 77339
L84168 77367
L84224 77395
L84337 77395
L84393 77367
L84421 77339
L84449 77283
L84449 77142
L84421 77086
L84393 77058
L84337 77030
L84224 77030
L84168 77058
L84140 77086
L84112 77142
" />
<path d="M84646 76805
L85012 76805
L84815 77030
L84899 77030
L84955 77058
L84983 77086
L85012 77142
L85012 77283
L84983 77339
L84955 77367
L84899 77395
L84730 77395
L84674 77367
L84646 77339
" />
<path d="M85208 76805
L85602 76805
L85349 77395
" />
<path d="M86080 76805
L85968 76805
L85912 76833
L85883 76861
L85827 76946
L85799 77058
L85799 77283
L85827 77339
L85855 77367
L85912 77395
L86024 77395
L86080 77367
L86108 77339
L86136 77283
L86136 77142
L86108 77086
L86080 77058
L86024 77030
L85912 77030
L85855 77058
L85827 77086
L85799 77142
" />
<path d="M86643 76805
L86530 76805
L86474 76833
L86446 76861
L86390 76946
L86361 77058
L86361 77283
L86390 77339
L86418 77367
L86474 77395
L86586 77395
L86643 77367
L86671 77339
L86699 77283
L86699 77142
L86671 77086
L86643 77058
L86586 77030
L86474 77030
L86418 77058
L86390 77086
L86361 77142
" />
<path d="M87261 77395
L86924 77395
" />
<path d="M87093 77395
L87093 76805
L87036 76889
L86980 76946
L86924 76974
" />
<path d="M86249 76703
L87374 76703
" />
<path d="M87768 77002
L87768 77395
" />
<path d="M87514 77002
L87514 77311
L87543 77367
L87599 77395
L87683 77395
L87739 77367
L87768 77339
" />
<path d="M88049 77395
L88049 76805
" />
<path d="M88049 77030
L88105 77002
L88217 77002
L88274 77030
L88302 77058
L88330 77114
L88330 77283
L88302 77339
L88274 77367
L88217 77395
L88105 77395
L88049 77367
" />
<path d="M88836 77002
L88836 77395
" />
<path d="M88583 77002
L88583 77311
L88611 77367
L88667 77395
L88752 77395
L88808 77367
L88836 77339
" />
<path d="M89117 77002
L89117 77395
" />
<path d="M89117 77058
L89145 77030
L89202 77002
L89286 77002
L89342 77030
L89370 77086
L89370 77395
" />
<path d="M89567 77002
L89792 77002
" />
<path d="M89652 76805
L89652 77311
L89680 77367
L89736 77395
L89792 77395
" />
<path d="M90242 77002
L90242 77395
" />
<path d="M89989 77002
L89989 77311
L90017 77367
L90073 77395
L90158 77395
L90214 77367
L90242 77339
" />
<path d="M90833 77395
L90495 77395
" />
<path d="M90664 77395
L90664 76805
L90608 76889
L90552 76946
L90495 76974
" />
<path d="M91170 77058
L91114 77030
L91086 77002
L91058 76946
L91058 76917
L91086 76861
L91114 76833
L91170 76805
L91283 76805
L91339 76833
L91367 76861
L91395 76917
L91395 76946
L91367 77002
L91339 77030
L91283 77058
L91170 77058
L91114 77086
L91086 77114
L91058 77171
L91058 77283
L91086 77339
L91114 77367
L91170 77395
L91283 77395
L91339 77367
L91367 77339
L91395 77283
L91395 77171
L91367 77114
L91339 77086
L91283 77058
" />
<path d="M91648 77339
L91676 77367
L91648 77395
L91620 77367
L91648 77339
L91648 77395
" />
<path d="M92042 76805
L92098 76805
L92154 76833
L92183 76861
L92211 76917
L92239 77030
L92239 77171
L92211 77283
L92183 77339
L92154 77367
L92098 77395
L92042 77395
L91986 77367
L91958 77339
L91929 77283
L91901 77171
L91901 77030
L91929 76917
L91958 76861
L91986 76833
L92042 76805
" />
<path d="M92745 77002
L92745 77395
" />
<path d="M92604 76777
L92464 77199
L92829 77199
" />
<path d="M93054 77339
L93082 77367
L93054 77395
L93026 77367
L93054 77339
L93054 77395
" />
<path d="M93645 77395
L93307 77395
" />
<path d="M93476 77395
L93476 76805
L93420 76889
L93364 76946
L93307 76974
" />
</g>
<g style="fill:#000000; fill-opacity:0.0; 
stroke:#000000; stroke-width:39.3701; stroke-opacity:1; 
stroke-linecap:round; stroke-linejoin:round;">
</g>
<g style="fill:#000000; fill-opacity:0.0; 
stroke:#000000; stroke-width:59.0551; stroke-opacity:1; 
stroke-linecap:round; stroke-linejoin:round;">
<path d="M69685 75396
L112205 75396
" />
</g>
<g style="fill:#000000; fill-opacity:0.0; 
stroke:#000000; stroke-width:39.3701; stroke-opacity:1; 
stroke-linecap:round; stroke-linejoin:round;">
</g>
<g style="fill:#000000; fill-opacity:0.0; 
stroke:#000000; stroke-width:118.11; stroke-opacity:1; 
stroke-linecap:round; stroke-linejoin:round;">
<path d="M104022 76293
L103825 76012
" />
<path d="M103684 76293
L103684 75703
L103909 75703
L103965 75731
L103994 75759
L104022 75815
L104022 75899
L103994 75956
L103965 75984
L103909 76012
L103684 76012
" />
<path d="M104500 76265
L104444 76293
L104331 76293
L104275 76265
L104247 76209
L104247 75984
L104275 75928
L104331 75899
L104444 75899
L104500 75928
L104528 75984
L104528 76040
L104247 76096
" />
<path d="M104725 75899
L104865 76293
L105006 75899
" />
<path d="M105231 76237
L105259 76265
L105231 76293
L105203 76265
L105231 76237
L105231 76293
" />
<path d="M105231 75928
L105259 75956
L105231 75984
L105203 75956
L105231 75928
L105231 75984
" />
</g>
<g style="fill:#000000; fill-opacity:0.0; 
stroke:#000000; stroke-width:39.3701; stroke-opacity:1; 
stroke-linecap:round; stroke-linejoin:round;">
</g>
<g style="fill:#000000; fill-opacity:0.0; 
stroke:#000000; stroke-width:59.0551; stroke-opacity:1; 
stroke-linecap:round; stroke-linejoin:round;">
<path d="M70192 76265
L70276 76293
L70417 76293
L70473 76265
L70501 76237
L70529 76181
L70529 76124
L70501 76068
L70473 76040
L70417 76012
L70304 75984
L70248 75956
L70220 75928
L70192 75871
L70192 75815
L70220 75759
L70248 75731
L70304 75703
L70445 75703
L70529 75731
" />
<path d="M70782 76293
L70782 75899
" />
<path d="M70782 75703
L70754 75731
L70782 75759
L70810 75731
L70782 75703
L70782 75759
" />
<path d="M71007 75899
L71316 75899
L71007 76293
L71316 76293
" />
<path d="M71766 76265
L71710 76293
L71598 76293
L71541 76265
L71513 76209
L71513 75984
L71541 75928
L71598 75899
L71710 75899
L71766 75928
L71795 75984
L71795 76040
L71513 76096
" />
<path d="M72048 76237
L72076 76265
L72048 76293
L72019 76265
L72048 76237
L72048 76293
" />
<path d="M72048 75928
L72076 75956
L72048 75984
L72019 75956
L72048 75928
L72048 75984
" />
<path d="M72751 76124
L73032 76124
" />
<path d="M72694 76293
L72891 75703
L73088 76293
" />
<path d="M73538 75899
L73538 76293
" />
<path d="M73397 75674
L73257 76096
L73622 76096
" />
</g>
<g style="fill:#000000; fill-opacity:0.0; 
stroke:#000000; stroke-width:39.3701; stroke-opacity:1; 
stroke-linecap:round; stroke-linejoin:round;">
</g>
<g style="fill:#000000; fill-opacity:0.0; 
stroke:#000000; stroke-width:59.0551; stroke-opacity:1; 
stroke-linecap:round; stroke-linejoin:round;">
<path d="M103684 77395
L103684 76805
" />
<path d="M104219 77395
L104219 76805
" />
<path d="M104219 77367
L104162 77395
L104050 77395
L103994 77367
L103965 77339
L103937 77283
L103937 77114
L103965 77058
L103994 77030
L104050 77002
L104162 77002
L104219 77030
" />
<path d="M104500 77339
L104528 77367
L104500 77395
L104472 77367
L104500 77339
L104500 77395
" />
<path d="M104500 77030
L104528 77058
L104500 77086
L104472 77058
L104500 77030
L104500 77086
" />
<path d="M105540 77395
L105203 77395
" />
<path d="M105372 77395
L105372 76805
L105315 76889
L105259 76946
L105203 76974
" />
<path d="M106215 76777
L105709 77536
" />
<path d="M106721 77395
L106384 77395
" />
<path d="M106553 77395
L106553 76805
L106496 76889
L106440 76946
L106384 76974
" />
</g>
<g style="fill:#000000; fill-opacity:0.0; 
stroke:#000000; stroke-width:39.3701; stroke-opacity:1; 
stroke-linecap:round; stroke-linejoin:round;">
</g>
<g style="fill:#000000; fill-opacity:0.0; 
stroke:#000000; stroke-width:59.0551; stroke-opacity:1; 
stroke-linecap:round; stroke-linejoin:round;">
<path d="M69685 73821
L112205 73821
" />
</g>
<g style="fill:#000000; fill-opacity:0.0; 
stroke:#000000; stroke-width:39.3701; stroke-opacity:1; 
stroke-linecap:round; stroke-linejoin:round;">
</g>
<g style="fill:#000000; fill-opacity:0.0; 
stroke:#000000; stroke-width:157.48; stroke-opacity:1; 
stroke-linecap:round; stroke-linejoin:round;">
<path d="M70257 74099
L70707 74099
" />
<path d="M70384 74886
L70482 74099
" />
<path d="M70871 74886
L70937 74361
" />
<path d="M70970 74099
L70927 74136
L70960 74174
L71002 74136
L70970 74099
L70960 74174
" />
<path d="M71199 74361
L71499 74361
" />
<path d="M71345 74099
L71260 74774
L71288 74849
L71359 74886
L71434 74886
" />
<path d="M71809 74886
L71738 74849
L71710 74774
L71795 74099
" />
<path d="M72413 74849
L72334 74886
L72184 74886
L72113 74849
L72085 74774
L72123 74474
L72169 74399
L72249 74361
L72399 74361
L72469 74399
L72498 74474
L72488 74549
L72104 74624
" />
<path d="M72793 74811
L72826 74849
L72783 74886
L72751 74849
L72793 74811
L72783 74886
" />
<path d="M72844 74399
L72877 74436
L72835 74474
L72802 74436
L72844 74399
L72835 74474
" />
</g>
<g style="fill:#000000; fill-opacity:0.0; 
stroke:#000000; stroke-width:39.3701; stroke-opacity:1; 
stroke-linecap:round; stroke-linejoin:round;">
</g>
<g style="fill:#000000; fill-opacity:0.0; 
stroke:#000000; stroke-width:59.0551; stroke-opacity:1; 
stroke-linecap:round; stroke-linejoin:round;">
<path d="M70417 73070
L70220 73070
" />
<path d="M70220 73380
L70220 72789
L70501 72789
" />
<path d="M70726 73380
L70726 72986
" />
<path d="M70726 72789
L70698 72817
L70726 72845
L70754 72817
L70726 72789
L70726 72845
" />
<path d="M71091 73380
L71035 73352
L71007 73295
L71007 72789
" />
<path d="M71541 73352
L71485 73380
L71373 73380
L71316 73352
L71288 73295
L71288 73070
L71316 73014
L71373 72986
L71485 72986
L71541 73014
L71570 73070
L71570 73127
L71288 73183
" />
<path d="M71823 73323
L71851 73352
L71823 73380
L71795 73352
L71823 73323
L71823 73380
" />
<path d="M71823 73014
L71851 73042
L71823 73070
L71795 73042
L71823 73014
L71823 73070
" />
<path d="M72554 73380
L72554 72986
" />
<path d="M72554 73099
L72582 73042
L72610 73014
L72666 72986
L72723 72986
" />
<path d="M72835 72986
L73060 72986
" />
<path d="M72919 73380
L72919 72874
L72947 72817
L73004 72789
L73060 72789
" />
<path d="M73257 73380
L73257 72789
" />
<path d="M73257 73014
L73313 72986
L73426 72986
L73482 73014
L73510 73042
L73538 73099
L73538 73267
L73510 73323
L73482 73352
L73426 73380
L73313 73380
L73257 73352
" />
<path d="M73876 73380
L73819 73352
L73791 73323
L73763 73267
L73763 73099
L73791 73042
L73819 73014
L73876 72986
L73960 72986
L74016 73014
L74044 73042
L74072 73099
L74072 73267
L74044 73323
L74016 73352
L73960 73380
L73876 73380
" />
<path d="M74579 73380
L74579 73070
L74550 73014
L74494 72986
L74382 72986
L74325 73014
" />
<path d="M74579 73352
L74522 73380
L74382 73380
L74325 73352
L74297 73295
L74297 73239
L74325 73183
L74382 73155
L74522 73155
L74579 73127
" />
<path d="M74860 73380
L74860 72986
" />
<path d="M74860 73099
L74888 73042
L74916 73014
L74972 72986
L75028 72986
" />
<path d="M75478 73380
L75478 72789
" />
<path d="M75478 73352
L75422 73380
L75310 73380
L75253 73352
L75225 73323
L75197 73267
L75197 73099
L75225 73042
L75253 73014
L75310 72986
L75422 72986
L75478 73014
" />
<path d="M75760 73323
L75788 73352
L75760 73380
L75732 73352
L75760 73323
L75760 73380
" />
<path d="M76041 73380
L76041 72789
" />
<path d="M76097 73155
L76266 73380
" />
<path d="M76266 72986
L76041 73211
" />
<path d="M76519 73380
L76519 72986
" />
<path d="M76519 72789
L76491 72817
L76519 72845
L76547 72817
L76519 72789
L76519 72845
" />
<path d="M77053 73352
L76997 73380
L76885 73380
L76828 73352
L76800 73323
L76772 73267
L76772 73099
L76800 73042
L76828 73014
L76885 72986
L76997 72986
L77053 73014
" />
<path d="M77559 73380
L77559 73070
L77531 73014
L77475 72986
L77363 72986
L77306 73014
" />
<path d="M77559 73352
L77503 73380
L77363 73380
L77306 73352
L77278 73295
L77278 73239
L77306 73183
L77363 73155
L77503 73155
L77559 73127
" />
<path d="M78094 73380
L78094 72789
" />
<path d="M78094 73352
L78037 73380
L77925 73380
L77869 73352
L77841 73323
L77813 73267
L77813 73099
L77841 73042
L77869 73014
L77925 72986
L78037 72986
L78094 73014
" />
<path d="M78234 73436
L78684 73436
" />
<path d="M78825 72986
L78825 73577
" />
<path d="M78825 73014
L78881 72986
L78994 72986
L79050 73014
L79078 73042
L79106 73099
L79106 73267
L79078 73323
L79050 73352
L78994 73380
L78881 73380
L78825 73352
" />
<path d="M79612 73352
L79556 73380
L79444 73380
L79387 73352
L79359 73323
L79331 73267
L79331 73099
L79359 73042
L79387 73014
L79444 72986
L79556 72986
L79612 73014
" />
<path d="M79865 73380
L79865 72789
" />
<path d="M79865 73014
L79922 72986
L80034 72986
L80090 73014
L80118 73042
L80147 73099
L80147 73267
L80118 73323
L80090 73352
L80034 73380
L79922 73380
L79865 73352
" />
</g>
<g style="fill:#000000; fill-opacity:0.0; 
stroke:#000000; stroke-width:39.3701; stroke-opacity:1; 
stroke-linecap:round; stroke-linejoin:round;">
</g>
<g style="fill:#000000; fill-opacity:0.0; 
stroke:#000000; stroke-width:59.0551; stroke-opacity:1; 
stroke-linecap:round; stroke-linejoin:round;">
<path d="M69685 71459
L112205 71459
" />
</g>
<g style="fill:#000000; fill-opacity:0.0; 
stroke:#000000; stroke-width:39.3701; stroke-opacity:1; 
stroke-linecap:round; stroke-linejoin:round;">
</g>
<g style="fill:#000000; fill-opacity:0.0; 
stroke:#000000; stroke-width:59.0551; stroke-opacity:1; 
stroke-linecap:round; stroke-linejoin:round;">
<path d="M70192 72289
L70276 72317
L70417 72317
L70473 72289
L70501 72260
L70529 72204
L70529 72148
L70501 72092
L70473 72064
L70417 72036
L70304 72007
L70248 71979
L70220 71951
L70192 71895
L70192 71839
L70220 71782
L70248 71754
L70304 71726
L70445 71726
L70529 71754
" />
<path d="M70782 72317
L70782 71726
" />
<path d="M71035 72317
L71035 72007
L71007 71951
L70951 71923
L70867 71923
L70810 71951
L70782 71979
" />
<path d="M71541 72289
L71485 72317
L71373 72317
L71316 72289
L71288 72232
L71288 72007
L71316 71951
L71373 71923
L71485 71923
L71541 71951
L71570 72007
L71570 72064
L71288 72120
" />
<path d="M72048 72289
L71991 72317
L71879 72317
L71823 72289
L71795 72232
L71795 72007
L71823 71951
L71879 71923
L71991 71923
L72048 71951
L72076 72007
L72076 72064
L71795 72120
" />
<path d="M72244 71923
L72469 71923
" />
<path d="M72329 71726
L72329 72232
L72357 72289
L72413 72317
L72469 72317
" />
<path d="M72666 72260
L72694 72289
L72666 72317
L72638 72289
L72666 72260
L72666 72317
" />
<path d="M72666 71951
L72694 71979
L72666 72007
L72638 71979
L72666 71951
L72666 72007
" />
</g>
<g style="fill:#000000; fill-opacity:0.0; 
stroke:#000000; stroke-width:39.3701; stroke-opacity:1; 
stroke-linecap:round; stroke-linejoin:round;">
</g>
<g style="fill:#000000; fill-opacity:0.0; 
stroke:#000000; stroke-width:59.0551; stroke-opacity:1; 
stroke-linecap:round; stroke-linejoin:round;">
<path d="M77559 75396
L77559 76577
" />
</g>
<g style="fill:#000000; fill-opacity:0.0; 
stroke:#000000; stroke-width:39.3701; stroke-opacity:1; 
stroke-linecap:round; stroke-linejoin:round;">
</g>
<g style="fill:#000000; fill-opacity:0.0; 
stroke:#000000; stroke-width:59.0551; stroke-opacity:1; 
stroke-linecap:round; stroke-linejoin:round;">
<path d="M102756 75396
L102756 77955
" />
</g>
<g style="fill:#840000; fill-opacity:0.0; 
stroke:#840000; stroke-width:59.0551; stroke-opacity:1; 
stroke-linecap:round; stroke-linejoin:round;">
</g>
<g style="fill:#840000; fill-opacity:0.0; 
stroke:#840000; stroke-width:0; stroke-opacity:1; 
stroke-linecap:round; stroke-linejoin:round;">
</g>
<g style="fill:#840000; fill-opacity:1.0; 
stroke:#840000; stroke-width:0; stroke-opacity:1; 
stroke-linecap:round; stroke-linejoin:round;">
<polyline style="fill-rule:evenodd;"
points="43070,54448
43070,53897
43877,53897
43877,54448
43070,54448
" /> 
<polyline style="fill-rule:evenodd;"
points="43070,55706
43070,55155
43877,55155
43877,55706
43070,55706
" /> 
<polyline style="fill-rule:evenodd;"
points="45098,55706
45098,55155
45905,55155
45905,55706
45098,55706
" /> 
<polyline style="fill-rule:evenodd;"
points="45098,54448
45098,53897
45905,53897
45905,54448
45098,54448
" /> 
<polyline style="fill-rule:evenodd;"
points="49527,57637
49527,58110
49055,58110
49055,57637
49527,57637
" /> 
<polyline style="fill-rule:evenodd;"
points="48897,57637
48897,58110
48425,58110
48425,57637
48897,57637
" /> 
<polyline style="fill-rule:evenodd;"
points="45226,52303
45226,51614
45561,51614
45561,52303
45226,52303
" /> 
<polyline style="fill-rule:evenodd;"
points="44970,52303
44970,51614
45305,51614
45305,52303
44970,52303
" /> 
<polyline style="fill-rule:evenodd;"
points="44714,52303
44714,51614
45049,51614
45049,52303
44714,52303
" /> 
<polyline style="fill-rule:evenodd;"
points="44458,52303
44458,51614
44793,51614
44793,52303
44458,52303
" /> 
<polyline style="fill-rule:evenodd;"
points="44202,52303
44202,51614
44537,51614
44537,52303
44202,52303
" /> 
<circle cx="45866.1" cy="51968.5" r="355.906" /> 
</g>
<g style="fill:#840000; fill-opacity:1.0; 
stroke:#840000; stroke-width:39.3701; stroke-opacity:1; 
stroke-linecap:round; stroke-linejoin:round;">
</g>
<g style="fill:#840000; fill-opacity:1.0; 
stroke:#840000; stroke-width:0; stroke-opacity:1; 
stroke-linecap:round; stroke-linejoin:round;">
<circle cx="43897.6" cy="51968.5" r="355.906" /> 
</g>
<g style="fill:#840000; fill-opacity:1.0; 
stroke:#840000; stroke-width:39.3701; stroke-opacity:1; 
stroke-linecap:round; stroke-linejoin:round;">
</g>
<g style="fill:#840000; fill-opacity:1.0; 
stroke:#840000; stroke-width:0; stroke-opacity:1; 
stroke-linecap:round; stroke-linejoin:round;">
<circle cx="46259.8" cy="50905.5" r="433.071" /> 
</g>
<g style="fill:#840000; fill-opacity:1.0; 
stroke:#840000; stroke-width:39.3701; stroke-opacity:1; 
stroke-linecap:round; stroke-linejoin:round;">
</g>
<g style="fill:#840000; fill-opacity:1.0; 
stroke:#840000; stroke-width:0; stroke-opacity:1; 
stroke-linecap:round; stroke-linejoin:round;">
<circle cx="43503.9" cy="50905.5" r="433.071" /> 
</g>
<g style="fill:#840000; fill-opacity:1.0; 
stroke:#840000; stroke-width:39.3701; stroke-opacity:1; 
stroke-linecap:round; stroke-linejoin:round;">
</g>
<g style="fill:#840000; fill-opacity:1.0; 
stroke:#840000; stroke-width:0; stroke-opacity:1; 
stroke-linecap:round; stroke-linejoin:round;">
<polyline style="fill-rule:evenodd;"
points="45649,50521
45649,51289
44901,51289
44901,50521
45649,50521
" /> 
<polyline style="fill-rule:evenodd;"
points="44862,50521
44862,51289
44114,51289
44114,50521
44862,50521
" /> 
<polyline style="fill-rule:evenodd;"
points="46456,50521
46456,51289
45708,51289
45708,50521
46456,50521
" /> 
<polyline style="fill-rule:evenodd;"
points="44055,50521
44055,51289
43307,51289
43307,50521
44055,50521
" /> 
<polyline style="fill-rule:evenodd;"
points="46857,55933
47157,55933
47157,56513
46857,56513
46857,55933
" /> 
<polyline style="fill-rule:evenodd;"
points="46542,55933
46842,55933
46842,56513
46542,56513
46542,55933
" /> 
<polyline style="fill-rule:evenodd;"
points="46227,55933
46527,55933
46527,56513
46227,56513
46227,55933
" /> 
<polyline style="fill-rule:evenodd;"
points="45912,55933
46212,55933
46212,56513
45912,56513
45912,55933
" /> 
<polyline style="fill-rule:evenodd;"
points="45598,55933
45898,55933
45898,56513
45598,56513
45598,55933
" /> 
<polyline style="fill-rule:evenodd;"
points="45283,55933
45583,55933
45583,56513
45283,56513
45283,55933
" /> 
<polyline style="fill-rule:evenodd;"
points="44968,55933
45268,55933
45268,56513
44968,56513
44968,55933
" /> 
<polyline style="fill-rule:evenodd;"
points="44653,55933
44953,55933
44953,56513
44653,56513
44653,55933
" /> 
<polyline style="fill-rule:evenodd;"
points="43925,56661
44505,56661
44505,56961
43925,56961
43925,56661
" /> 
<polyline style="fill-rule:evenodd;"
points="43925,56976
44505,56976
44505,57276
43925,57276
43925,56976
" /> 
<polyline style="fill-rule:evenodd;"
points="43925,57291
44505,57291
44505,57591
43925,57591
43925,57291
" /> 
<polyline style="fill-rule:evenodd;"
points="43925,57606
44505,57606
44505,57906
43925,57906
43925,57606
" /> 
<polyline style="fill-rule:evenodd;"
points="43925,57920
44505,57920
44505,58220
43925,58220
43925,57920
" /> 
<polyline style="fill-rule:evenodd;"
points="43925,58235
44505,58235
44505,58535
43925,58535
43925,58235
" /> 
<polyline style="fill-rule:evenodd;"
points="43925,58550
44505,58550
44505,58850
43925,58850
43925,58550
" /> 
<polyline style="fill-rule:evenodd;"
points="43925,58865
44505,58865
44505,59165
43925,59165
43925,58865
" /> 
<polyline style="fill-rule:evenodd;"
points="44653,59313
44953,59313
44953,59893
44653,59893
44653,59313
" /> 
<polyline style="fill-rule:evenodd;"
points="44968,59313
45268,59313
45268,59893
44968,59893
44968,59313
" /> 
<polyline style="fill-rule:evenodd;"
points="45283,59313
45583,59313
45583,59893
45283,59893
45283,59313
" /> 
<polyline style="fill-rule:evenodd;"
points="45598,59313
45898,59313
45898,59893
45598,59893
45598,59313
" /> 
<polyline style="fill-rule:evenodd;"
points="45912,59313
46212,59313
46212,59893
45912,59893
45912,59313
" /> 
<polyline style="fill-rule:evenodd;"
points="46227,59313
46527,59313
46527,59893
46227,59893
46227,59313
" /> 
<polyline style="fill-rule:evenodd;"
points="46542,59313
46842,59313
46842,59893
46542,59893
46542,59313
" /> 
<polyline style="fill-rule:evenodd;"
points="46857,59313
47157,59313
47157,59893
46857,59893
46857,59313
" /> 
<polyline style="fill-rule:evenodd;"
points="47305,58865
47885,58865
47885,59165
47305,59165
47305,58865
" /> 
<polyline style="fill-rule:evenodd;"
points="47305,58550
47885,58550
47885,58850
47305,58850
47305,58550
" /> 
<polyline style="fill-rule:evenodd;"
points="47305,58235
47885,58235
47885,58535
47305,58535
47305,58235
" /> 
<polyline style="fill-rule:evenodd;"
points="47305,57920
47885,57920
47885,58220
47305,58220
47305,57920
" /> 
<polyline style="fill-rule:evenodd;"
points="47305,57606
47885,57606
47885,57906
47305,57906
47305,57606
" /> 
<polyline style="fill-rule:evenodd;"
points="47305,57291
47885,57291
47885,57591
47305,57591
47305,57291
" /> 
<polyline style="fill-rule:evenodd;"
points="47305,56976
47885,56976
47885,57276
47305,57276
47305,56976
" /> 
<polyline style="fill-rule:evenodd;"
points="47305,56661
47885,56661
47885,56961
47305,56961
47305,56661
" /> 
<polyline style="fill-rule:evenodd;"
points="46909,54539
46909,53933
47303,53933
47303,54539
46909,54539
" /> 
<polyline style="fill-rule:evenodd;"
points="46535,54539
46535,53933
46929,53933
46929,54539
46535,54539
" /> 
<polyline style="fill-rule:evenodd;"
points="46161,54539
46161,53933
46555,53933
46555,54539
46161,54539
" /> 
<polyline style="fill-rule:evenodd;"
points="46161,55437
46161,54830
46555,54830
46555,55437
46161,55437
" /> 
<polyline style="fill-rule:evenodd;"
points="46909,55437
46909,54830
47303,54830
47303,55437
46909,55437
" /> 
<circle cx="42992.1" cy="62795.3" r="610.236" /> 
</g>
<g style="fill:#840000; fill-opacity:1.0; 
stroke:#840000; stroke-width:39.3701; stroke-opacity:1; 
stroke-linecap:round; stroke-linejoin:round;">
</g>
<g style="fill:#840000; fill-opacity:1.0; 
stroke:#840000; stroke-width:0; stroke-opacity:1; 
stroke-linecap:round; stroke-linejoin:round;">
<circle cx="49803.1" cy="62795.3" r="610.236" /> 
</g>
<g style="fill:#840000; fill-opacity:1.0; 
stroke:#840000; stroke-width:39.3701; stroke-opacity:1; 
stroke-linecap:round; stroke-linejoin:round;">
</g>
<g style="fill:#840000; fill-opacity:1.0; 
stroke:#840000; stroke-width:0; stroke-opacity:1; 
stroke-linecap:round; stroke-linejoin:round;">
<circle cx="47716.5" cy="52598.4" r="610.236" /> 
</g>
<g style="fill:#840000; fill-opacity:1.0; 
stroke:#840000; stroke-width:39.3701; stroke-opacity:1; 
stroke-linecap:round; stroke-linejoin:round;">
</g>
<g style="fill:#840000; fill-opacity:1.0; 
stroke:#840000; stroke-width:0; stroke-opacity:1; 
stroke-linecap:round; stroke-linejoin:round;">
<polyline style="fill-rule:evenodd;"
points="43887,53051
43435,53051
43435,52578
43887,52578
43887,53051
" /> 
<polyline style="fill-rule:evenodd;"
points="43887,53641
43435,53641
43435,53169
43887,53169
43887,53641
" /> 
<polyline style="fill-rule:evenodd;"
points="44438,53051
43986,53051
43986,52578
44438,52578
44438,53051
" /> 
<polyline style="fill-rule:evenodd;"
points="44438,53641
43986,53641
43986,53169
44438,53169
44438,53641
" /> 
<polyline style="fill-rule:evenodd;"
points="45167,53779
44517,53779
44517,53228
45167,53228
45167,53779
" /> 
<polyline style="fill-rule:evenodd;"
points="45167,52992
44517,52992
44517,52440
45167,52440
45167,52992
" /> 
<polyline style="fill-rule:evenodd;"
points="42736,60570
42736,61397
41909,61397
41909,60570
42736,60570
" /> 
</g>
<g style="fill:#840000; fill-opacity:1.0; 
stroke:#840000; stroke-width:826.772; stroke-opacity:1; 
stroke-linecap:round; stroke-linejoin:round;">
</g>
<g style="fill:#840000; fill-opacity:0.0; 
stroke:#840000; stroke-width:826.772; stroke-opacity:1; 
stroke-linecap:round; stroke-linejoin:round;">
<path d="M42322 59984
L42322 59984
" />
<path d="M42322 58984
L42322 58984
" />
<path d="M42322 57984
L42322 57984
" />
<path d="M42322 56984
L42322 56984
" />
<path d="M42322 55984
L42322 55984
" />
<path d="M42322 54984
L42322 54984
" />
<path d="M42322 53984
L42322 53984
" />
<path d="M42322 52984
L42322 52984
" />
<path d="M42322 51984
L42322 51984
" />
</g>
<g style="fill:#840000; fill-opacity:0.0; 
stroke:#840000; stroke-width:0; stroke-opacity:1; 
stroke-linecap:round; stroke-linejoin:round;">
</g>
<g style="fill:#840000; fill-opacity:1.0; 
stroke:#840000; stroke-width:0; stroke-opacity:1; 
stroke-linecap:round; stroke-linejoin:round;">
<polyline style="fill-rule:evenodd;"
points="50736,60570
50736,61397
49909,61397
49909,60570
50736,60570
" /> 
</g>
<g style="fill:#840000; fill-opacity:1.0; 
stroke:#840000; stroke-width:826.772; stroke-opacity:1; 
stroke-linecap:round; stroke-linejoin:round;">
</g>
<g style="fill:#840000; fill-opacity:0.0; 
stroke:#840000; stroke-width:826.772; stroke-opacity:1; 
stroke-linecap:round; stroke-linejoin:round;">
<path d="M50322 59984
L50322 59984
" />
<path d="M50322 58984
L50322 58984
" />
<path d="M50322 57984
L50322 57984
" />
<path d="M50322 56984
L50322 56984
" />
<path d="M50322 55984
L50322 55984
" />
<path d="M50322 54984
L50322 54984
" />
<path d="M50322 53984
L50322 53984
" />
<path d="M50322 52984
L50322 52984
" />
<path d="M50322 51984
L50322 51984
" />
</g>
<g style="fill:#840000; fill-opacity:0.0; 
stroke:#840000; stroke-width:0; stroke-opacity:1; 
stroke-linecap:round; stroke-linejoin:round;">
</g>
<g style="fill:#840000; fill-opacity:1.0; 
stroke:#840000; stroke-width:0; stroke-opacity:1; 
stroke-linecap:round; stroke-linejoin:round;">
<polyline style="fill-rule:evenodd;"
points="48531,51279
47704,51279
47704,50452
48531,50452
48531,51279
" /> 
</g>
<g style="fill:#840000; fill-opacity:1.0; 
stroke:#840000; stroke-width:826.772; stroke-opacity:1; 
stroke-linecap:round; stroke-linejoin:round;">
</g>
<g style="fill:#840000; fill-opacity:0.0; 
stroke:#840000; stroke-width:826.772; stroke-opacity:1; 
stroke-linecap:round; stroke-linejoin:round;">
<path d="M49118 50866
L49118 50866
" />
<path d="M50118 50866
L50118 50866
" />
</g>
<g style="fill:#840000; fill-opacity:0.0; 
stroke:#840000; stroke-width:0; stroke-opacity:1; 
stroke-linecap:round; stroke-linejoin:round;">
</g>
<g style="fill:#840000; fill-opacity:1.0; 
stroke:#840000; stroke-width:0; stroke-opacity:1; 
stroke-linecap:round; stroke-linejoin:round;">
<polyline style="fill-rule:evenodd;"
points="47492,62933
48318,62933
48318,63759
47492,63759
47492,62933
" /> 
</g>
<g style="fill:#840000; fill-opacity:1.0; 
stroke:#840000; stroke-width:826.772; stroke-opacity:1; 
stroke-linecap:round; stroke-linejoin:round;">
</g>
<g style="fill:#840000; fill-opacity:0.0; 
stroke:#840000; stroke-width:826.772; stroke-opacity:1; 
stroke-linecap:round; stroke-linejoin:round;">
<path d="M46905 63346
L46905 63346
" />
<path d="M45905 63346
L45905 63346
" />
<path d="M44905 63346
L44905 63346
" />
</g>
<g style="fill:#840000; fill-opacity:0.0; 
stroke:#840000; stroke-width:0; stroke-opacity:1; 
stroke-linecap:round; stroke-linejoin:round;">
</g>
<g style="fill:#840000; fill-opacity:1.0; 
stroke:#840000; stroke-width:0; stroke-opacity:1; 
stroke-linecap:round; stroke-linejoin:round;">
<polyline style="fill-rule:evenodd;"
points="48444,59862
48444,59035
49271,59035
49271,59862
48444,59862
" /> 
<polyline style="fill-rule:evenodd;"
points="49468,58169
49468,58681
49114,58681
49114,58169
49468,58169
" /> 
<polyline style="fill-rule:evenodd;"
points="48877,58169
48877,58681
48523,58681
48523,58169
48877,58169
" /> 
<polyline style="fill-rule:evenodd;"
points="48169,53946
48484,53946
48484,54360
48169,54360
48169,53946
" /> 
<polyline style="fill-rule:evenodd;"
points="47657,53946
47972,53946
47972,54360
47657,54360
47657,53946
" /> 
<polyline style="fill-rule:evenodd;"
points="47913,53946
48228,53946
48228,54360
47913,54360
47913,53946
" /> 
<polyline style="fill-rule:evenodd;"
points="47657,54694
47972,54694
47972,55108
47657,55108
47657,54694
" /> 
<polyline style="fill-rule:evenodd;"
points="48169,54694
48484,54694
48484,55108
48169,55108
48169,54694
" /> 
<polyline style="fill-rule:evenodd;"
points="44369,62440
44369,61967
44803,61967
44803,62440
44369,62440
" /> 
<polyline style="fill-rule:evenodd;"
points="45983,62440
45983,61967
46417,61967
46417,62440
45983,62440
" /> 
<polyline style="fill-rule:evenodd;"
points="45983,61812
45983,61339
46417,61339
46417,61812
45983,61812
" /> 
<polyline style="fill-rule:evenodd;"
points="44369,61812
44369,61339
44803,61339
44803,61812
44369,61812
" /> 
</g>
<g style="fill:#000000; fill-opacity:1.0; 
stroke:#000000; stroke-width:0; stroke-opacity:1; 
stroke-linecap:round; stroke-linejoin:round;">
</g>
<g style="fill:#C2C200; fill-opacity:1.0; 
stroke:#C2C200; stroke-width:0; stroke-opacity:1; 
stroke-linecap:round; stroke-linejoin:round;">
</g>
<g style="fill:#C2C200; fill-opacity:0.0; 
stroke:#C2C200; stroke-width:0; stroke-opacity:1; 
stroke-linecap:round; stroke-linejoin:round;">
</g>
<g style="fill:#C2C200; fill-opacity:0.0; 
stroke:#C2C200; stroke-width:98.4252; stroke-opacity:1; 
stroke-linecap:round; stroke-linejoin:round;">
<path d="M45134 62167
L45191 62185
L45284 62185
L45322 62167
L45341 62148
L45359 62110
L45359 62073
L45341 62035
L45322 62017
L45284 61998
L45209 61979
L45172 61961
L45153 61942
L45134 61904
L45134 61867
L45153 61829
L45172 61811
L45209 61792
L45303 61792
L45359 61811
" />
<path d="M45491 61792
L45584 62185
L45659 61904
L45734 62185
L45828 61792
" />
<path d="M43222 55215
L43241 55196
L43278 55178
L43372 55178
L43410 55196
L43428 55215
L43447 55253
L43447 55290
L43428 55346
L43203 55571
L43447 55571
" />
<path d="M43672 55346
L43635 55328
L43616 55309
L43597 55271
L43597 55253
L43616 55215
L43635 55196
L43672 55178
L43747 55178
L43785 55196
L43803 55215
L43822 55253
L43822 55271
L43803 55309
L43785 55328
L43747 55346
L43672 55346
L43635 55365
L43616 55384
L43597 55421
L43597 55496
L43616 55534
L43635 55553
L43672 55571
L43747 55571
L43785 55553
L43803 55534
L43822 55496
L43822 55421
L43803 55384
L43785 55365
L43747 55346
" />
<path d="M44197 55571
L43972 55571
" />
<path d="M44085 55571
L44085 55178
L44047 55234
L44010 55271
L43972 55290
" />
<path d="M44347 55215
L44366 55196
L44403 55178
L44497 55178
L44535 55196
L44553 55215
L44572 55253
L44572 55290
L44553 55346
L44328 55571
L44572 55571
" />
<path d="M48038 54499
L48095 54518
L48113 54536
L48132 54574
L48132 54630
L48113 54668
L48095 54686
L48057 54705
L47907 54705
L47907 54311
L48038 54311
L48076 54330
L48095 54349
L48113 54386
L48113 54424
L48095 54461
L48076 54480
L48038 54499
L47907 54499
" />
<path d="M48301 54311
L48301 54630
L48320 54668
L48338 54686
L48376 54705
L48451 54705
L48488 54686
L48507 54668
L48526 54630
L48526 54311
" />
<path d="M48845 54499
L48713 54499
" />
<path d="M48713 54705
L48713 54311
L48901 54311
" />
<path d="M46439 53642
L46308 53455
" />
<path d="M46214 53642
L46214 53248
L46364 53248
L46402 53267
L46421 53286
L46439 53323
L46439 53380
L46421 53417
L46402 53436
L46364 53455
L46214 53455
" />
<path d="M46608 53436
L46739 53436
" />
<path d="M46796 53642
L46608 53642
L46608 53248
L46796 53248
" />
<path d="M47170 53267
L47133 53248
L47077 53248
L47020 53267
L46983 53305
L46964 53342
L46946 53417
L46946 53473
L46964 53548
L46983 53586
L47020 53623
L47077 53642
L47114 53642
L47170 53623
L47189 53605
L47189 53473
L47114 53473
" />
</g>
<g style="fill:#C2C200; fill-opacity:0.0; 
stroke:#C2C200; stroke-width:39.3701; stroke-opacity:1; 
stroke-linecap:round; stroke-linejoin:round;">
<path d="M48897 57795
L48897 57952
" />
<path d="M48917 57874
L49035 57795
" />
<path d="M49035 57952
L48917 57874
" />
<path d="M49035 57795
L49035 57952
" />
<path d="M49291 58031
L48661 58031
" />
<path d="M49291 57716
L49291 58031
" />
<path d="M48661 57716
L49291 57716
" />
<path d="M48661 58031
L48661 57716
" />
<path d="M43503 53425
L43503 52795
" />
<path d="M43503 52795
L43818 52795
" />
<path d="M43818 52795
L43818 53425
" />
<path d="M43818 53425
L43503 53425
" />
<path d="M44055 53425
L44055 52795
" />
<path d="M44055 52795
L44370 52795
" />
<path d="M44370 52795
L44370 53425
" />
<path d="M44370 53425
L44055 53425
" />
<path d="M45086 53503
L44598 53503
" />
<path d="M45086 52716
L45086 53503
" />
<path d="M44598 52716
L45086 52716
" />
<path d="M44598 53503
L44598 52716
" />
<path d="M42572 61484
L41822 61484
" />
<path d="M41822 61484
L41822 51484
" />
<path d="M41822 51484
L42822 51484
" />
<path d="M42822 51484
L42822 61234
" />
<path d="M42822 61234
L42572 61484
" />
<path d="M50572 61484
L49822 61484
" />
<path d="M49822 61484
L49822 51484
" />
<path d="M49822 51484
L50822 51484
" />
<path d="M50822 51484
L50822 61234
" />
<path d="M50822 61234
L50572 61484
" />
<path d="M47618 51116
L47618 50366
" />
<path d="M47618 50366
L50618 50366
" />
<path d="M50618 50366
L50618 51366
" />
<path d="M50618 51366
L47868 51366
" />
<path d="M47868 51366
L47618 51116
" />
<path d="M48405 63096
L48405 63846
" />
<path d="M48405 63846
L44405 63846
" />
<path d="M44405 63846
L44405 62846
" />
<path d="M44405 62846
L48155 62846
" />
<path d="M48155 62846
L48405 63096
" />
<path d="M48608 58948
L49358 58948
" />
<path d="M49358 58948
L49358 59948
" />
<path d="M49358 59948
L48358 59948
" />
<path d="M48358 59948
L48358 59198
" />
<path d="M48358 59198
L48608 58948
" />
<path d="M49311 58267
L49311 58582
" />
<path d="M48681 58267
L49311 58267
" />
<path d="M48681 58582
L48681 58267
" />
<path d="M49311 58582
L48681 58582
" />
<path d="M48503 54793
L48503 54458
" />
<path d="M48307 54261
L47637 54261
" />
<path d="M48503 54793
L47637 54793
" />
<path d="M47637 54793
L47637 54261
" />
<path d="M48503 54458
L48307 54261
" />
</g>
<g style="fill:#C2C200; fill-opacity:0.0; 
stroke:#C2C200; stroke-width:59.0551; stroke-opacity:1; 
stroke-linecap:round; stroke-linejoin:round;">
<path d="M48723 57619
L48535 57619
L48535 57225
" />
<path d="M48854 57412
L48985 57412
" />
<path d="M49041 57619
L48854 57619
L48854 57225
L49041 57225
" />
<path d="M49210 57619
L49210 57225
L49304 57225
L49360 57244
L49398 57281
L49416 57319
L49435 57394
L49435 57450
L49416 57525
L49398 57562
L49360 57600
L49304 57619
L49210 57619
" />
<path d="M43327 53344
L43327 53569
" />
<path d="M43327 53457
L42934 53457
L42990 53494
L43027 53532
L43046 53569
" />
<path d="M43065 53007
L43327 53007
" />
<path d="M43065 53175
L43271 53175
L43308 53157
L43327 53119
L43327 53063
L43308 53025
L43290 53007
" />
<path d="M43121 52688
L43121 52819
" />
<path d="M43327 52819
L42934 52819
L42934 52632
" />
</g>
<g style="fill:#C2C200; fill-opacity:0.0; 
stroke:#C2C200; stroke-width:29.5276; stroke-opacity:1; 
stroke-linecap:round; stroke-linejoin:round;">
<path d="M43703 53129
L43709 53135
L43714 53152
L43714 53163
L43709 53180
L43697 53191
L43686 53197
L43664 53203
L43647 53203
L43624 53197
L43613 53191
L43602 53180
L43596 53163
L43596 53152
L43602 53135
L43607 53129
" />
<path d="M43714 53017
L43714 53084
" />
<path d="M43714 53051
L43596 53051
L43613 53062
L43624 53073
L43630 53084
" />
</g>
<g style="fill:#C2C200; fill-opacity:0.0; 
stroke:#C2C200; stroke-width:59.0551; stroke-opacity:1; 
stroke-linecap:round; stroke-linejoin:round;">
<path d="M44548 54446
L44548 54671
" />
<path d="M44548 54559
L44154 54559
L44210 54596
L44248 54634
L44266 54671
" />
<path d="M44285 54109
L44548 54109
" />
<path d="M44285 54278
L44491 54278
L44529 54259
L44548 54221
L44548 54165
L44529 54128
L44510 54109
" />
<path d="M44341 53790
L44341 53922
" />
<path d="M44548 53922
L44154 53922
L44154 53734
" />
</g>
<g style="fill:#C2C200; fill-opacity:0.0; 
stroke:#C2C200; stroke-width:29.5276; stroke-opacity:1; 
stroke-linecap:round; stroke-linejoin:round;">
<path d="M44254 53129
L44260 53135
L44266 53152
L44266 53163
L44260 53180
L44249 53191
L44237 53197
L44215 53203
L44198 53203
L44176 53197
L44164 53191
L44153 53180
L44147 53163
L44147 53152
L44153 53135
L44159 53129
" />
<path d="M44159 53084
L44153 53079
L44147 53068
L44147 53039
L44153 53028
L44159 53023
L44170 53017
L44181 53017
L44198 53023
L44266 53090
L44266 53017
" />
</g>
<g style="fill:#C2C200; fill-opacity:0.0; 
stroke:#C2C200; stroke-width:59.0551; stroke-opacity:1; 
stroke-linecap:round; stroke-linejoin:round;">
<path d="M45709 53532
L45709 53757
" />
<path d="M45709 53644
L45315 53644
L45372 53682
L45409 53719
L45428 53757
" />
<path d="M45315 53288
L45315 53250
L45334 53213
L45353 53194
L45390 53175
L45465 53157
L45559 53157
L45634 53175
L45672 53194
L45690 53213
L45709 53250
L45709 53288
L45690 53325
L45672 53344
L45634 53363
L45559 53382
L45465 53382
L45390 53363
L45353 53344
L45334 53325
L45315 53288
" />
<path d="M45447 52819
L45709 52819
" />
<path d="M45447 52988
L45653 52988
L45690 52969
L45709 52932
L45709 52875
L45690 52838
L45672 52819
" />
<path d="M45503 52500
L45503 52632
" />
<path d="M45709 52632
L45315 52632
L45315 52444
" />
<path d="M48299 58603
L48074 58603
" />
<path d="M48187 58603
L48187 58209
L48149 58265
L48112 58303
L48074 58322
" />
<path d="M48468 58603
L48468 58209
" />
<path d="M48505 58453
L48618 58603
" />
<path d="M48618 58340
L48468 58490
" />
</g>
<g style="fill:#C2C200; fill-opacity:0.0; 
stroke:#C2C200; stroke-width:29.5276; stroke-opacity:1; 
stroke-linecap:round; stroke-linejoin:round;">
<path d="M48969 58496
L48917 58421
" />
<path d="M48879 58496
L48879 58338
L48939 58338
L48954 58346
L48962 58353
L48969 58368
L48969 58391
L48962 58406
L48954 58413
L48939 58421
L48879 58421
" />
<path d="M49029 58353
L49037 58346
L49052 58338
L49089 58338
L49104 58346
L49112 58353
L49119 58368
L49119 58383
L49112 58406
L49022 58496
L49119 58496
" />
<path d="M47920 54419
L47920 54579
L47930 54597
L47939 54607
L47958 54616
L47995 54616
L48014 54607
L48023 54597
L48033 54579
L48033 54419
" />
<path d="M48211 54485
L48211 54616
" />
<path d="M48164 54410
L48117 54550
L48239 54550
" />
</g>
<g style="fill:#000000; fill-opacity:0.0; 
stroke:#000000; stroke-width:29.5276; stroke-opacity:1; 
stroke-linecap:round; stroke-linejoin:round;">
</g>
<g style="fill:#000084; fill-opacity:0.0; 
stroke:#000084; stroke-width:29.5276; stroke-opacity:1; 
stroke-linecap:round; stroke-linejoin:round;">
</g>
<g style="fill:#000084; fill-opacity:0.0; 
stroke:#000084; stroke-width:59.0551; stroke-opacity:1; 
stroke-linecap:round; stroke-linejoin:round;">
<circle cx="42992.1" cy="62795.3" r="1062.99" /> 
<circle cx="49803.1" cy="62795.3" r="1062.99" /> 
<circle cx="47716.5" cy="52598.4" r="1062.99" /> 
</g>
<g style="fill:#000000; fill-opacity:0.0; 
stroke:#000000; stroke-width:59.0551; stroke-opacity:1; 
stroke-linecap:round; stroke-linejoin:round;">
</g>
<g style="fill:#C2C200; fill-opacity:0.0; 
stroke:#C2C200; stroke-width:59.0551; stroke-opacity:1; 
stroke-linecap:round; stroke-linejoin:round;">
<path d="M41732 64015
L41732 50236
" />
<path d="M50984 64015
L41732 64015
" />
<path d="M50944 50236
L50944 64015
" />
<path d="M41732 50236
L50944 50236
" />
</g> 
</svg>
