M48
;DRILL file {KiCad 4.0.7+dfsg1-1ubuntu2} date Sun Jul  1 16:57:00 2018
;FORMAT={-:-/ absolute / inch / decimal}
FMAT,2
INCH,TZ
T1C0.014
T2C0.016
T3C0.017
T4C0.026
T5C0.040
T6C0.106
%
G90
G05
M72
T2
X5.8209Y-2.3091
X5.8228Y-2.626
X5.8839Y-2.7618
X5.9469Y-2.1831
X6.061Y-2.4587
X6.061Y-2.7362
X6.0906Y-2.1476
X6.1791Y-3.2126
X6.2894Y-2.1476
X6.2894Y-2.7618
X6.3543Y-3.0945
X6.4232Y-3.2303
X6.4423Y-2.9035
X6.4429Y-2.5197
X6.4469Y-2.6004
X6.4488Y-2.2835
X6.4508Y-2.3799
X6.4547Y-2.6476
X6.4567Y-2.7343
X6.4882Y-2.3553
X6.5177Y-2.5197
X6.5197Y-2.7146
X6.5221Y-2.872
X6.5512Y-2.6004
X6.5512Y-2.7146
X6.5533Y-2.8678
X6.5551Y-1.7776
X6.5827Y-2.3799
X6.5846Y-2.2835
X6.5848Y-2.8681
X6.6122Y-2.6043
X6.6457Y-2.6476
X6.6476Y-2.7146
X6.6476Y-2.8701
X6.6811Y-1.8858
X6.6949Y-2.9035
X6.7697Y-2.872
X6.8543Y-2.872
X6.8543Y-3.0472
X6.8976Y-2.6043
X6.8996Y-2.6772
T3
X6.1299Y-3.0512
X6.1299Y-3.1024
X6.1299Y-3.1535
X6.1693Y-3.0768
X6.1693Y-3.128
T4
X6.0512Y-2.1457
X6.8406Y-2.7756
X6.8996Y-2.7756
T5
X5.9252Y-2.2591
X5.9252Y-2.3591
X5.9252Y-2.4591
X5.9252Y-2.5591
X5.9921Y-2.6976
X5.9921Y-2.7976
X5.9921Y-2.8976
X6.2854Y-2.8311
X6.2854Y-2.9311
X6.2854Y-3.0311
X6.2854Y-3.1311
X6.2854Y-3.2311
X6.4449Y-2.0551
T6
X5.9331Y-3.0709
X6.7795Y-2.0236
T1
X6.1583Y-2.9616G85X6.1189Y-2.9616
G05
X6.1583Y-3.2431G85X6.1189Y-3.2431
G05
T0
M30
