G04 #@! TF.FileFunction,Paste,Top*
%FSLAX46Y46*%
G04 Gerber Fmt 4.6, Leading zero omitted, Abs format (unit mm)*
G04 Created by KiCad (PCBNEW 4.0.7-e2-6376~61~ubuntu18.04.1) date Sat Jul  7 14:25:19 2018*
%MOMM*%
%LPD*%
G01*
G04 APERTURE LIST*
%ADD10C,0.100000*%
%ADD11C,1.879600*%
%ADD12R,1.198880X0.797560*%
%ADD13R,0.998220X1.099820*%
%ADD14R,1.099820X0.998220*%
%ADD15R,1.060000X0.650000*%
%ADD16R,1.651000X0.998220*%
%ADD17R,2.999740X1.198880*%
%ADD18R,1.270000X0.558800*%
%ADD19R,0.558800X1.270000*%
%ADD20R,0.400000X0.650000*%
G04 APERTURE END LIST*
D10*
D11*
X147000000Y-76000000D03*
D12*
X165077920Y-44660606D03*
X165077920Y-46458926D03*
D13*
X162877920Y-44611406D03*
X162877920Y-46308126D03*
D14*
X168496720Y-47900000D03*
X166800000Y-47900000D03*
D11*
X163700000Y-52200000D03*
D15*
X162900000Y-47950000D03*
X162900000Y-48900000D03*
X162900000Y-49850000D03*
X165100000Y-49850000D03*
X165100000Y-47950000D03*
D16*
X145924440Y-51102340D03*
X145924440Y-54297660D03*
X151075560Y-54297660D03*
X151075560Y-51102340D03*
X142724440Y-56702340D03*
X142724440Y-59897660D03*
X147875560Y-59897660D03*
X147875560Y-56702340D03*
X142724440Y-62302340D03*
X142724440Y-65497660D03*
X147875560Y-65497660D03*
X147875560Y-62302340D03*
X144324440Y-68002340D03*
X144324440Y-71197660D03*
X149475560Y-71197660D03*
X149475560Y-68002340D03*
D17*
X162051920Y-56000520D03*
X162051920Y-58002040D03*
X162051920Y-60001020D03*
X162051920Y-62000000D03*
X162051920Y-63998980D03*
X162051920Y-65997960D03*
X162051920Y-67999480D03*
X177048080Y-67999480D03*
X177048080Y-65997960D03*
X177048080Y-63998980D03*
X177048080Y-62000000D03*
X177048080Y-60001020D03*
X177048080Y-58002040D03*
X177048080Y-56000520D03*
D18*
X162500000Y-72949700D03*
X162500000Y-73749800D03*
X162500000Y-74549900D03*
X162500000Y-75350000D03*
X162500000Y-76147560D03*
X162500000Y-76947660D03*
X162500000Y-77747760D03*
X162500000Y-78547860D03*
D19*
X163993520Y-80041380D03*
X164793620Y-80041380D03*
X165593720Y-80041380D03*
X166393820Y-80041380D03*
X167191380Y-80041380D03*
X167991480Y-80041380D03*
X168791580Y-80041380D03*
X169591680Y-80041380D03*
D18*
X171085200Y-78547860D03*
X171085200Y-77747760D03*
X171085200Y-76947660D03*
X171085200Y-76147560D03*
X171085200Y-75350000D03*
X171085200Y-74549900D03*
X171085200Y-73749800D03*
X171085200Y-72949700D03*
D19*
X169591680Y-71456180D03*
X168791580Y-71456180D03*
X167991480Y-71456180D03*
X167191380Y-71456180D03*
X166393820Y-71456180D03*
X165593720Y-71456180D03*
X164793620Y-71456180D03*
X163993520Y-71456180D03*
D14*
X174838360Y-71120000D03*
X173141640Y-71120000D03*
D20*
X155350000Y-51450000D03*
X156650000Y-51450000D03*
X156000000Y-51450000D03*
X156650000Y-49550000D03*
X155350000Y-49550000D03*
M02*
