G04 #@! TF.FileFunction,Legend,Top*
%FSLAX46Y46*%
G04 Gerber Fmt 4.6, Leading zero omitted, Abs format (unit mm)*
G04 Created by KiCad (PCBNEW 4.0.7-e2-6376~61~ubuntu18.04.1) date Sat Jul 21 18:25:59 2018*
%MOMM*%
%LPD*%
G01*
G04 APERTURE LIST*
%ADD10C,0.100000*%
%ADD11C,0.300000*%
%ADD12C,0.066040*%
%ADD13C,0.203200*%
%ADD14C,0.050800*%
%ADD15C,0.101600*%
%ADD16C,0.150000*%
%ADD17C,0.450000*%
%ADD18C,0.127000*%
%ADD19C,0.120000*%
G04 APERTURE END LIST*
D10*
D11*
X152857143Y-56975000D02*
X152714286Y-56903571D01*
X152500000Y-56903571D01*
X152285715Y-56975000D01*
X152142857Y-57117857D01*
X152071429Y-57260714D01*
X152000000Y-57546429D01*
X152000000Y-57760714D01*
X152071429Y-58046429D01*
X152142857Y-58189286D01*
X152285715Y-58332143D01*
X152500000Y-58403571D01*
X152642857Y-58403571D01*
X152857143Y-58332143D01*
X152928572Y-58260714D01*
X152928572Y-57760714D01*
X152642857Y-57760714D01*
X153571429Y-58403571D02*
X153571429Y-56903571D01*
X154428572Y-58403571D01*
X154428572Y-56903571D01*
X155142858Y-58403571D02*
X155142858Y-56903571D01*
X155500001Y-56903571D01*
X155714286Y-56975000D01*
X155857144Y-57117857D01*
X155928572Y-57260714D01*
X156000001Y-57546429D01*
X156000001Y-57760714D01*
X155928572Y-58046429D01*
X155857144Y-58189286D01*
X155714286Y-58332143D01*
X155500001Y-58403571D01*
X155142858Y-58403571D01*
X153107143Y-60810714D02*
X153035714Y-60882143D01*
X152821428Y-60953571D01*
X152678571Y-60953571D01*
X152464286Y-60882143D01*
X152321428Y-60739286D01*
X152250000Y-60596429D01*
X152178571Y-60310714D01*
X152178571Y-60096429D01*
X152250000Y-59810714D01*
X152321428Y-59667857D01*
X152464286Y-59525000D01*
X152678571Y-59453571D01*
X152821428Y-59453571D01*
X153035714Y-59525000D01*
X153107143Y-59596429D01*
X154464286Y-60953571D02*
X153750000Y-60953571D01*
X153750000Y-59453571D01*
X154964286Y-60953571D02*
X154964286Y-59453571D01*
X155821429Y-60953571D02*
X155178572Y-60096429D01*
X155821429Y-59453571D02*
X154964286Y-60310714D01*
X152464286Y-63503571D02*
X152464286Y-62003571D01*
X152821429Y-62003571D01*
X153035714Y-62075000D01*
X153178572Y-62217857D01*
X153250000Y-62360714D01*
X153321429Y-62646429D01*
X153321429Y-62860714D01*
X153250000Y-63146429D01*
X153178572Y-63289286D01*
X153035714Y-63432143D01*
X152821429Y-63503571D01*
X152464286Y-63503571D01*
X153964286Y-63503571D02*
X153964286Y-62003571D01*
X154964286Y-62003571D02*
X155250000Y-62003571D01*
X155392858Y-62075000D01*
X155535715Y-62217857D01*
X155607143Y-62503571D01*
X155607143Y-63003571D01*
X155535715Y-63289286D01*
X155392858Y-63432143D01*
X155250000Y-63503571D01*
X154964286Y-63503571D01*
X154821429Y-63432143D01*
X154678572Y-63289286D01*
X154607143Y-63003571D01*
X154607143Y-62503571D01*
X154678572Y-62217857D01*
X154821429Y-62075000D01*
X154964286Y-62003571D01*
X153714287Y-64553571D02*
X153000001Y-64553571D01*
X152928572Y-65267857D01*
X153000001Y-65196429D01*
X153142858Y-65125000D01*
X153500001Y-65125000D01*
X153642858Y-65196429D01*
X153714287Y-65267857D01*
X153785715Y-65410714D01*
X153785715Y-65767857D01*
X153714287Y-65910714D01*
X153642858Y-65982143D01*
X153500001Y-66053571D01*
X153142858Y-66053571D01*
X153000001Y-65982143D01*
X152928572Y-65910714D01*
X154214286Y-64553571D02*
X154714286Y-66053571D01*
X155214286Y-64553571D01*
D12*
X146746000Y-76254000D02*
X147254000Y-76254000D01*
X147254000Y-76254000D02*
X147254000Y-75746000D01*
X146746000Y-75746000D02*
X147254000Y-75746000D01*
X146746000Y-76254000D02*
X146746000Y-75746000D01*
D13*
X158380000Y-78895000D02*
X158380000Y-80165000D01*
X158380000Y-80165000D02*
X159015000Y-80800000D01*
X160285000Y-80800000D02*
X160920000Y-80165000D01*
X159015000Y-80800000D02*
X158380000Y-81435000D01*
X158380000Y-81435000D02*
X158380000Y-82705000D01*
X158380000Y-82705000D02*
X159015000Y-83340000D01*
X160285000Y-83340000D02*
X160920000Y-82705000D01*
X160920000Y-82705000D02*
X160920000Y-81435000D01*
X160920000Y-81435000D02*
X160285000Y-80800000D01*
X159015000Y-75720000D02*
X158380000Y-76355000D01*
X158380000Y-76355000D02*
X158380000Y-77625000D01*
X158380000Y-77625000D02*
X159015000Y-78260000D01*
X160285000Y-78260000D02*
X160920000Y-77625000D01*
X160920000Y-77625000D02*
X160920000Y-76355000D01*
X160920000Y-76355000D02*
X160285000Y-75720000D01*
X158380000Y-78895000D02*
X159015000Y-78260000D01*
X160285000Y-78260000D02*
X160920000Y-78895000D01*
X160920000Y-80165000D02*
X160920000Y-78895000D01*
X158380000Y-71275000D02*
X158380000Y-72545000D01*
X158380000Y-72545000D02*
X159015000Y-73180000D01*
X160285000Y-73180000D02*
X160920000Y-72545000D01*
X159015000Y-73180000D02*
X158380000Y-73815000D01*
X158380000Y-73815000D02*
X158380000Y-75085000D01*
X158380000Y-75085000D02*
X159015000Y-75720000D01*
X160285000Y-75720000D02*
X160920000Y-75085000D01*
X160920000Y-75085000D02*
X160920000Y-73815000D01*
X160920000Y-73815000D02*
X160285000Y-73180000D01*
X159015000Y-70640000D02*
X160285000Y-70640000D01*
X158380000Y-71275000D02*
X159015000Y-70640000D01*
X160285000Y-70640000D02*
X160920000Y-71275000D01*
X160920000Y-72545000D02*
X160920000Y-71275000D01*
X159015000Y-83340000D02*
X160285000Y-83340000D01*
D12*
X162408020Y-44621566D02*
X162408020Y-45121946D01*
X162408020Y-45121946D02*
X163357980Y-45121946D01*
X163357980Y-44621566D02*
X163357980Y-45121946D01*
X162408020Y-44621566D02*
X163357980Y-44621566D01*
X162408020Y-45789966D02*
X162408020Y-46287806D01*
X162408020Y-46287806D02*
X163357980Y-46287806D01*
X163357980Y-45789966D02*
X163357980Y-46287806D01*
X162408020Y-45789966D02*
X163357980Y-45789966D01*
X162578200Y-45261646D02*
X162578200Y-45657886D01*
X162578200Y-45657886D02*
X163177640Y-45657886D01*
X163177640Y-45261646D02*
X163177640Y-45657886D01*
X162578200Y-45261646D02*
X163177640Y-45261646D01*
D14*
X163860900Y-43989106D02*
X163860900Y-46930426D01*
X163860900Y-46930426D02*
X161894940Y-46930426D01*
X161894940Y-46930426D02*
X161894940Y-43989106D01*
X161894940Y-43989106D02*
X163860900Y-43989106D01*
D15*
X163309720Y-45104166D02*
X163309720Y-45815366D01*
X162461360Y-45104166D02*
X162461360Y-45815366D01*
D12*
X168486560Y-47430100D02*
X167986180Y-47430100D01*
X167986180Y-47430100D02*
X167986180Y-48380060D01*
X168486560Y-48380060D02*
X167986180Y-48380060D01*
X168486560Y-47430100D02*
X168486560Y-48380060D01*
X167318160Y-47430100D02*
X166820320Y-47430100D01*
X166820320Y-47430100D02*
X166820320Y-48380060D01*
X167318160Y-48380060D02*
X166820320Y-48380060D01*
X167318160Y-47430100D02*
X167318160Y-48380060D01*
X167846480Y-47600280D02*
X167450240Y-47600280D01*
X167450240Y-47600280D02*
X167450240Y-48199720D01*
X167846480Y-48199720D02*
X167450240Y-48199720D01*
X167846480Y-47600280D02*
X167846480Y-48199720D01*
D14*
X169119020Y-48882980D02*
X166177700Y-48882980D01*
X166177700Y-48882980D02*
X166177700Y-46917020D01*
X166177700Y-46917020D02*
X169119020Y-46917020D01*
X169119020Y-46917020D02*
X169119020Y-48882980D01*
D15*
X168003960Y-48331800D02*
X167292760Y-48331800D01*
X168003960Y-47483440D02*
X167292760Y-47483440D01*
D12*
X163446000Y-52454000D02*
X163954000Y-52454000D01*
X163954000Y-52454000D02*
X163954000Y-51946000D01*
X163446000Y-51946000D02*
X163954000Y-51946000D01*
X163446000Y-52454000D02*
X163446000Y-51946000D01*
D16*
X163800000Y-47200000D02*
G75*
G03X163800000Y-47200000I-100000J0D01*
G01*
X164250000Y-47450000D02*
X163750000Y-47450000D01*
X164250000Y-50350000D02*
X164250000Y-47450000D01*
X163750000Y-50350000D02*
X164250000Y-50350000D01*
X163750000Y-47450000D02*
X163750000Y-50350000D01*
D17*
X152724253Y-78000000D02*
G75*
G03X152724253Y-78000000I-2024253J0D01*
G01*
X174224253Y-51400000D02*
G75*
G03X174224253Y-51400000I-2024253J0D01*
G01*
D18*
X146000640Y-50200640D02*
X146000640Y-55199360D01*
X146000640Y-55199360D02*
X150999360Y-55199360D01*
X150999360Y-55199360D02*
X150999360Y-50200640D01*
X150999360Y-50200640D02*
X146000640Y-50200640D01*
D13*
X151000000Y-52700000D02*
X148500000Y-55200000D01*
D18*
X142800640Y-55800640D02*
X142800640Y-60799360D01*
X142800640Y-60799360D02*
X147799360Y-60799360D01*
X147799360Y-60799360D02*
X147799360Y-55800640D01*
X147799360Y-55800640D02*
X142800640Y-55800640D01*
D13*
X147800000Y-58300000D02*
X145300000Y-60800000D01*
D18*
X142800640Y-61400640D02*
X142800640Y-66399360D01*
X142800640Y-66399360D02*
X147799360Y-66399360D01*
X147799360Y-66399360D02*
X147799360Y-61400640D01*
X147799360Y-61400640D02*
X142800640Y-61400640D01*
D13*
X147800000Y-63900000D02*
X145300000Y-66400000D01*
D18*
X144400640Y-67100640D02*
X144400640Y-72099360D01*
X144400640Y-72099360D02*
X149399360Y-72099360D01*
X149399360Y-72099360D02*
X149399360Y-67100640D01*
X149399360Y-67100640D02*
X144400640Y-67100640D01*
D13*
X149400000Y-69600000D02*
X146900000Y-72100000D01*
D19*
X152310000Y-55135000D02*
X152310000Y-55255000D01*
X152310000Y-55255000D02*
X155090000Y-55255000D01*
X155090000Y-55255000D02*
X155090000Y-55135000D01*
X155090000Y-55135000D02*
X152310000Y-55135000D01*
X152310000Y-54500000D02*
X152310000Y-53745000D01*
X152310000Y-53745000D02*
X153700000Y-53745000D01*
D16*
X161550000Y-55250000D02*
X161550000Y-54000000D01*
X161550000Y-57250000D02*
X161550000Y-56750000D01*
X161550000Y-59250000D02*
X161550000Y-58750000D01*
X161550000Y-61250000D02*
X161550000Y-60750000D01*
X161550000Y-63250000D02*
X161550000Y-62750000D01*
X161550000Y-65250000D02*
X161550000Y-64750000D01*
X161550000Y-67250000D02*
X161550000Y-66750000D01*
X161550000Y-70000000D02*
X161550000Y-68750000D01*
X177550000Y-68750000D02*
X177550000Y-70000000D01*
X177550000Y-66750000D02*
X177550000Y-67250000D01*
X177550000Y-64750000D02*
X177550000Y-65250000D01*
X177550000Y-62750000D02*
X177550000Y-63250000D01*
X177550000Y-60750000D02*
X177550000Y-61250000D01*
X177550000Y-58750000D02*
X177550000Y-59250000D01*
X177550000Y-56750000D02*
X177550000Y-57250000D01*
X177550000Y-54000000D02*
X177550000Y-55250000D01*
D13*
X161551540Y-54001540D02*
X177548460Y-54001540D01*
X177548460Y-69998460D02*
X161551540Y-69998460D01*
X169552040Y-60001020D02*
X169552040Y-63998980D01*
X169552040Y-63998980D02*
X173550000Y-63998980D01*
X173550000Y-63998980D02*
X173550000Y-60001020D01*
X173550000Y-60001020D02*
X169552040Y-60001020D01*
X164798980Y-63497840D02*
X164798980Y-61501400D01*
X166797960Y-61501400D02*
X164798980Y-61501400D01*
X166797960Y-63497840D02*
X166797960Y-61501400D01*
X166797960Y-63497840D02*
X164798980Y-63497840D01*
D12*
X162246000Y-73178300D02*
X163236600Y-73178300D01*
X163236600Y-73178300D02*
X163236600Y-72721100D01*
X162246000Y-72721100D02*
X163236600Y-72721100D01*
X162246000Y-73178300D02*
X162246000Y-72721100D01*
X162246000Y-73978400D02*
X163236600Y-73978400D01*
X163236600Y-73978400D02*
X163236600Y-73521200D01*
X162246000Y-73521200D02*
X163236600Y-73521200D01*
X162246000Y-73978400D02*
X162246000Y-73521200D01*
X162246000Y-74778500D02*
X163236600Y-74778500D01*
X163236600Y-74778500D02*
X163236600Y-74321300D01*
X162246000Y-74321300D02*
X163236600Y-74321300D01*
X162246000Y-74778500D02*
X162246000Y-74321300D01*
X162246000Y-75578600D02*
X163236600Y-75578600D01*
X163236600Y-75578600D02*
X163236600Y-75121400D01*
X162246000Y-75121400D02*
X163236600Y-75121400D01*
X162246000Y-75578600D02*
X162246000Y-75121400D01*
X162246000Y-76376160D02*
X163236600Y-76376160D01*
X163236600Y-76376160D02*
X163236600Y-75918960D01*
X162246000Y-75918960D02*
X163236600Y-75918960D01*
X162246000Y-76376160D02*
X162246000Y-75918960D01*
X162246000Y-77176260D02*
X163236600Y-77176260D01*
X163236600Y-77176260D02*
X163236600Y-76719060D01*
X162246000Y-76719060D02*
X163236600Y-76719060D01*
X162246000Y-77176260D02*
X162246000Y-76719060D01*
X162246000Y-77976360D02*
X163236600Y-77976360D01*
X163236600Y-77976360D02*
X163236600Y-77519160D01*
X162246000Y-77519160D02*
X163236600Y-77519160D01*
X162246000Y-77976360D02*
X162246000Y-77519160D01*
X162246000Y-78776460D02*
X163236600Y-78776460D01*
X163236600Y-78776460D02*
X163236600Y-78319260D01*
X162246000Y-78319260D02*
X163236600Y-78319260D01*
X162246000Y-78776460D02*
X162246000Y-78319260D01*
X163764920Y-80295380D02*
X164222120Y-80295380D01*
X164222120Y-80295380D02*
X164222120Y-79304780D01*
X163764920Y-79304780D02*
X164222120Y-79304780D01*
X163764920Y-80295380D02*
X163764920Y-79304780D01*
X164565020Y-80295380D02*
X165022220Y-80295380D01*
X165022220Y-80295380D02*
X165022220Y-79304780D01*
X164565020Y-79304780D02*
X165022220Y-79304780D01*
X164565020Y-80295380D02*
X164565020Y-79304780D01*
X165365120Y-80295380D02*
X165822320Y-80295380D01*
X165822320Y-80295380D02*
X165822320Y-79304780D01*
X165365120Y-79304780D02*
X165822320Y-79304780D01*
X165365120Y-80295380D02*
X165365120Y-79304780D01*
X166165220Y-80295380D02*
X166622420Y-80295380D01*
X166622420Y-80295380D02*
X166622420Y-79304780D01*
X166165220Y-79304780D02*
X166622420Y-79304780D01*
X166165220Y-80295380D02*
X166165220Y-79304780D01*
X166962780Y-80295380D02*
X167419980Y-80295380D01*
X167419980Y-80295380D02*
X167419980Y-79304780D01*
X166962780Y-79304780D02*
X167419980Y-79304780D01*
X166962780Y-80295380D02*
X166962780Y-79304780D01*
X167762880Y-80295380D02*
X168220080Y-80295380D01*
X168220080Y-80295380D02*
X168220080Y-79304780D01*
X167762880Y-79304780D02*
X168220080Y-79304780D01*
X167762880Y-80295380D02*
X167762880Y-79304780D01*
X168562980Y-80295380D02*
X169020180Y-80295380D01*
X169020180Y-80295380D02*
X169020180Y-79304780D01*
X168562980Y-79304780D02*
X169020180Y-79304780D01*
X168562980Y-80295380D02*
X168562980Y-79304780D01*
X169363080Y-80295380D02*
X169820280Y-80295380D01*
X169820280Y-80295380D02*
X169820280Y-79304780D01*
X169363080Y-79304780D02*
X169820280Y-79304780D01*
X169363080Y-80295380D02*
X169363080Y-79304780D01*
X170348600Y-78776460D02*
X171339200Y-78776460D01*
X171339200Y-78776460D02*
X171339200Y-78319260D01*
X170348600Y-78319260D02*
X171339200Y-78319260D01*
X170348600Y-78776460D02*
X170348600Y-78319260D01*
X170348600Y-77976360D02*
X171339200Y-77976360D01*
X171339200Y-77976360D02*
X171339200Y-77519160D01*
X170348600Y-77519160D02*
X171339200Y-77519160D01*
X170348600Y-77976360D02*
X170348600Y-77519160D01*
X170348600Y-77176260D02*
X171339200Y-77176260D01*
X171339200Y-77176260D02*
X171339200Y-76719060D01*
X170348600Y-76719060D02*
X171339200Y-76719060D01*
X170348600Y-77176260D02*
X170348600Y-76719060D01*
X170348600Y-76376160D02*
X171339200Y-76376160D01*
X171339200Y-76376160D02*
X171339200Y-75918960D01*
X170348600Y-75918960D02*
X171339200Y-75918960D01*
X170348600Y-76376160D02*
X170348600Y-75918960D01*
X170348600Y-75578600D02*
X171339200Y-75578600D01*
X171339200Y-75578600D02*
X171339200Y-75121400D01*
X170348600Y-75121400D02*
X171339200Y-75121400D01*
X170348600Y-75578600D02*
X170348600Y-75121400D01*
X170348600Y-74778500D02*
X171339200Y-74778500D01*
X171339200Y-74778500D02*
X171339200Y-74321300D01*
X170348600Y-74321300D02*
X171339200Y-74321300D01*
X170348600Y-74778500D02*
X170348600Y-74321300D01*
X170348600Y-73978400D02*
X171339200Y-73978400D01*
X171339200Y-73978400D02*
X171339200Y-73521200D01*
X170348600Y-73521200D02*
X171339200Y-73521200D01*
X170348600Y-73978400D02*
X170348600Y-73521200D01*
X170348600Y-73178300D02*
X171339200Y-73178300D01*
X171339200Y-73178300D02*
X171339200Y-72721100D01*
X170348600Y-72721100D02*
X171339200Y-72721100D01*
X170348600Y-73178300D02*
X170348600Y-72721100D01*
X169363080Y-72192780D02*
X169820280Y-72192780D01*
X169820280Y-72192780D02*
X169820280Y-71202180D01*
X169363080Y-71202180D02*
X169820280Y-71202180D01*
X169363080Y-72192780D02*
X169363080Y-71202180D01*
X168562980Y-72192780D02*
X169020180Y-72192780D01*
X169020180Y-72192780D02*
X169020180Y-71202180D01*
X168562980Y-71202180D02*
X169020180Y-71202180D01*
X168562980Y-72192780D02*
X168562980Y-71202180D01*
X167762880Y-72192780D02*
X168220080Y-72192780D01*
X168220080Y-72192780D02*
X168220080Y-71202180D01*
X167762880Y-71202180D02*
X168220080Y-71202180D01*
X167762880Y-72192780D02*
X167762880Y-71202180D01*
X166962780Y-72192780D02*
X167419980Y-72192780D01*
X167419980Y-72192780D02*
X167419980Y-71202180D01*
X166962780Y-71202180D02*
X167419980Y-71202180D01*
X166962780Y-72192780D02*
X166962780Y-71202180D01*
X166165220Y-72192780D02*
X166622420Y-72192780D01*
X166622420Y-72192780D02*
X166622420Y-71202180D01*
X166165220Y-71202180D02*
X166622420Y-71202180D01*
X166165220Y-72192780D02*
X166165220Y-71202180D01*
X165365120Y-72192780D02*
X165822320Y-72192780D01*
X165822320Y-72192780D02*
X165822320Y-71202180D01*
X165365120Y-71202180D02*
X165822320Y-71202180D01*
X165365120Y-72192780D02*
X165365120Y-71202180D01*
X164565020Y-72192780D02*
X165022220Y-72192780D01*
X165022220Y-72192780D02*
X165022220Y-71202180D01*
X164565020Y-71202180D02*
X165022220Y-71202180D01*
X164565020Y-72192780D02*
X164565020Y-71202180D01*
X163764920Y-72192780D02*
X164222120Y-72192780D01*
X164222120Y-72192780D02*
X164222120Y-71202180D01*
X163764920Y-71202180D02*
X164222120Y-71202180D01*
X163764920Y-72192780D02*
X163764920Y-71202180D01*
D13*
X170295260Y-72246120D02*
X170295260Y-79251440D01*
X170295260Y-79251440D02*
X163289940Y-79251440D01*
X163289940Y-79251440D02*
X163289940Y-72599180D01*
X163643000Y-72246120D02*
X170295260Y-72246120D01*
X163643000Y-72246120D02*
X163289940Y-72599180D01*
D15*
X163242763Y-72065780D02*
G75*
G03X163242763Y-72065780I-107763J0D01*
G01*
D12*
X174188120Y-70820280D02*
X173791880Y-70820280D01*
X173791880Y-70820280D02*
X173791880Y-71419720D01*
X174188120Y-71419720D02*
X173791880Y-71419720D01*
X174188120Y-70820280D02*
X174188120Y-71419720D01*
D19*
X154840000Y-49800000D02*
X154840000Y-51700000D01*
X157160000Y-51200000D02*
X157160000Y-49800000D01*
D16*
X164157143Y-56166667D02*
X164633334Y-56166667D01*
X164061905Y-56452381D02*
X164395238Y-55452381D01*
X164728572Y-56452381D01*
X165061905Y-56452381D02*
X165061905Y-55452381D01*
X165633334Y-56452381D01*
X165633334Y-55452381D01*
X165966667Y-55452381D02*
X166538096Y-55452381D01*
X166252381Y-56452381D02*
X166252381Y-55452381D01*
X173038096Y-55500000D02*
X172942858Y-55452381D01*
X172800001Y-55452381D01*
X172657143Y-55500000D01*
X172561905Y-55595238D01*
X172514286Y-55690476D01*
X172466667Y-55880952D01*
X172466667Y-56023810D01*
X172514286Y-56214286D01*
X172561905Y-56309524D01*
X172657143Y-56404762D01*
X172800001Y-56452381D01*
X172895239Y-56452381D01*
X173038096Y-56404762D01*
X173085715Y-56357143D01*
X173085715Y-56023810D01*
X172895239Y-56023810D01*
X173514286Y-56452381D02*
X173514286Y-55452381D01*
X174085715Y-56452381D01*
X174085715Y-55452381D01*
X174561905Y-56452381D02*
X174561905Y-55452381D01*
X174800000Y-55452381D01*
X174942858Y-55500000D01*
X175038096Y-55595238D01*
X175085715Y-55690476D01*
X175133334Y-55880952D01*
X175133334Y-56023810D01*
X175085715Y-56214286D01*
X175038096Y-56309524D01*
X174942858Y-56404762D01*
X174800000Y-56452381D01*
X174561905Y-56452381D01*
M02*
