G04 #@! TF.FileFunction,Copper,L2,Bot,Signal*
%FSLAX46Y46*%
G04 Gerber Fmt 4.6, Leading zero omitted, Abs format (unit mm)*
G04 Created by KiCad (PCBNEW 4.0.7-e2-6376~61~ubuntu18.04.1) date Mon Jul 23 20:51:16 2018*
%MOMM*%
%LPD*%
G01*
G04 APERTURE LIST*
%ADD10C,0.100000*%
%ADD11R,0.840000X0.840000*%
%ADD12C,0.840000*%
%ADD13O,1.850000X0.850000*%
%ADD14C,1.879600*%
%ADD15C,3.200000*%
%ADD16R,1.000000X1.000000*%
%ADD17R,1.700000X1.700000*%
%ADD18O,1.700000X1.700000*%
%ADD19C,0.600000*%
%ADD20C,0.250000*%
%ADD21C,0.254000*%
G04 APERTURE END LIST*
D10*
D11*
X155700000Y-77500000D03*
D12*
X156700000Y-78150000D03*
X155700000Y-78800000D03*
X156700000Y-79450000D03*
X155700000Y-80100000D03*
D13*
X155920000Y-75225000D03*
X155920000Y-82375000D03*
D14*
X159650000Y-71910000D03*
X159650000Y-74450000D03*
X159650000Y-76990000D03*
X159650000Y-79530000D03*
X159650000Y-82070000D03*
X163700000Y-52200000D03*
D15*
X150700000Y-78000000D03*
X172200000Y-51400000D03*
D16*
X153700000Y-54500000D03*
D17*
X150500000Y-65000000D03*
D18*
X150500000Y-62460000D03*
X150500000Y-59920000D03*
X150500000Y-57380000D03*
D19*
X155000000Y-52500000D03*
X157000000Y-52500000D03*
X176500000Y-71000000D03*
X163150000Y-82050000D03*
X163850000Y-60450000D03*
X167200000Y-60450000D03*
X151050000Y-55450000D03*
X147850000Y-58650000D03*
X147900000Y-66700000D03*
X149450000Y-70150000D03*
X166500000Y-45150000D03*
X169700000Y-47900000D03*
X155350000Y-49550000D03*
X158550000Y-52000000D03*
X163800000Y-58000000D03*
X167250000Y-58000000D03*
X153950000Y-62450000D03*
X153950000Y-69500000D03*
X164000000Y-69450000D03*
X164800000Y-59824980D03*
X157500000Y-70500000D03*
X161500000Y-78500000D03*
X167253588Y-72850512D03*
X175250000Y-68000000D03*
X165660604Y-72948477D03*
X163650000Y-64000000D03*
X165550000Y-64000000D03*
X165600000Y-68950000D03*
X166453613Y-72842860D03*
X163750000Y-66050000D03*
X166400000Y-66050000D03*
X166400000Y-68950000D03*
X170050000Y-73750000D03*
X163635002Y-73750000D03*
X175200000Y-66150000D03*
X167950000Y-66150000D03*
X168850000Y-72900000D03*
X168850000Y-68950000D03*
X168800000Y-67250000D03*
X163950000Y-67250000D03*
X171950000Y-72950000D03*
X174100000Y-72950000D03*
X174100000Y-77400000D03*
X156950000Y-81600000D03*
X169000000Y-70000000D03*
X173000000Y-70000000D03*
X157500000Y-56500000D03*
X169500000Y-57000000D03*
D20*
X155700000Y-80100000D02*
X156119999Y-80519999D01*
X156119999Y-80519999D02*
X158099999Y-80519999D01*
X158099999Y-80519999D02*
X158710201Y-81130201D01*
X158710201Y-81130201D02*
X159650000Y-82070000D01*
X163150000Y-82050000D02*
X159670000Y-82050000D01*
X159670000Y-82050000D02*
X159650000Y-82070000D01*
X167200000Y-60450000D02*
X166775736Y-60450000D01*
X166775736Y-60450000D02*
X163850000Y-60450000D01*
X158550000Y-52000000D02*
X158550000Y-51700000D01*
X158550000Y-51700000D02*
X156400000Y-49550000D01*
X156400000Y-49550000D02*
X155350000Y-49550000D01*
X167250000Y-58000000D02*
X163800000Y-58000000D01*
X153950000Y-62450000D02*
X150510000Y-62450000D01*
X150510000Y-62450000D02*
X150500000Y-62460000D01*
X164000000Y-69450000D02*
X154000000Y-69450000D01*
X154000000Y-69450000D02*
X153950000Y-69500000D01*
X151829077Y-59920000D02*
X151924097Y-59824980D01*
X150500000Y-59920000D02*
X151829077Y-59920000D01*
X151924097Y-59824980D02*
X164800000Y-59824980D01*
X158265199Y-78265199D02*
X157500000Y-77500000D01*
X157500000Y-77500000D02*
X157500000Y-70500000D01*
X161500000Y-78500000D02*
X160491906Y-78500000D01*
X160491906Y-78500000D02*
X160257105Y-78265199D01*
X160257105Y-78265199D02*
X158265199Y-78265199D01*
X167253588Y-72426248D02*
X167253588Y-72850512D01*
X167253588Y-68496412D02*
X167253588Y-72426248D01*
X167750000Y-68000000D02*
X167253588Y-68496412D01*
X175250000Y-68000000D02*
X167750000Y-68000000D01*
X165600000Y-68950000D02*
X165600000Y-72887873D01*
X165600000Y-72887873D02*
X165660604Y-72948477D01*
X165550000Y-64000000D02*
X163650000Y-64000000D01*
X166400000Y-72789247D02*
X166453613Y-72842860D01*
X166400000Y-68950000D02*
X166400000Y-72789247D01*
X166400000Y-66050000D02*
X163750000Y-66050000D01*
X163635002Y-73750000D02*
X170050000Y-73750000D01*
X167950000Y-66150000D02*
X175200000Y-66150000D01*
X168550001Y-72600001D02*
X168850000Y-72900000D01*
X168374998Y-72424998D02*
X168550001Y-72600001D01*
X168374998Y-69425002D02*
X168374998Y-72424998D01*
X168850000Y-68950000D02*
X168374998Y-69425002D01*
X163950000Y-67250000D02*
X168800000Y-67250000D01*
X174100000Y-72950000D02*
X171950000Y-72950000D01*
X172300000Y-79200000D02*
X174100000Y-77400000D01*
X165400000Y-81050000D02*
X170450000Y-81050000D01*
X170450000Y-81050000D02*
X172300000Y-79200000D01*
X163115199Y-83334801D02*
X165400000Y-81050000D01*
X156950000Y-81600000D02*
X158684801Y-83334801D01*
X158684801Y-83334801D02*
X163115199Y-83334801D01*
X173000000Y-70000000D02*
X169000000Y-70000000D01*
X169500000Y-57000000D02*
X169000000Y-56500000D01*
X169000000Y-56500000D02*
X157500000Y-56500000D01*
D21*
G36*
X169303508Y-45828387D02*
X175359475Y-50726202D01*
X179080148Y-57568713D01*
X179899086Y-65314207D01*
X177691614Y-72783506D01*
X174606635Y-76597970D01*
X174286799Y-76465162D01*
X173914833Y-76464838D01*
X173571057Y-76606883D01*
X173307808Y-76869673D01*
X173165162Y-77213201D01*
X173165121Y-77260077D01*
X170145914Y-80279284D01*
X170126207Y-80290000D01*
X165400000Y-80290000D01*
X165109161Y-80347852D01*
X164862599Y-80512599D01*
X162800397Y-82574801D01*
X161142290Y-82574801D01*
X161236045Y-82320167D01*
X161211049Y-81694172D01*
X161019580Y-81231923D01*
X160758968Y-81140637D01*
X159829605Y-82070000D01*
X159843748Y-82084143D01*
X159664143Y-82263748D01*
X159650000Y-82249605D01*
X159635858Y-82263748D01*
X159456253Y-82084143D01*
X159470395Y-82070000D01*
X158541032Y-81140637D01*
X158280420Y-81231923D01*
X158112578Y-81687776D01*
X157885122Y-81460320D01*
X157885162Y-81414833D01*
X157743117Y-81071057D01*
X157480327Y-80807808D01*
X157136799Y-80665162D01*
X156764833Y-80664838D01*
X156538121Y-80758513D01*
X156431916Y-80652308D01*
X156638796Y-80625095D01*
X156677752Y-80504981D01*
X156908932Y-80505183D01*
X157296829Y-80344907D01*
X157593864Y-80048390D01*
X157754817Y-79660773D01*
X157755183Y-79241068D01*
X157594907Y-78853171D01*
X157541996Y-78800168D01*
X157593864Y-78748390D01*
X157617255Y-78692057D01*
X157727798Y-78802600D01*
X157974360Y-78967347D01*
X158162894Y-79004849D01*
X158075474Y-79215379D01*
X158074927Y-79841873D01*
X158314171Y-80420887D01*
X158755115Y-80862601D01*
X158720637Y-80961032D01*
X159650000Y-81890395D01*
X160579363Y-80961032D01*
X160544687Y-80862036D01*
X160984272Y-80423217D01*
X161224526Y-79844621D01*
X161224916Y-79398179D01*
X161313201Y-79434838D01*
X161685167Y-79435162D01*
X162028943Y-79293117D01*
X162292192Y-79030327D01*
X162434838Y-78686799D01*
X162435162Y-78314833D01*
X162293117Y-77971057D01*
X162030327Y-77707808D01*
X161686799Y-77565162D01*
X161314833Y-77564838D01*
X161075393Y-77663772D01*
X161224526Y-77304621D01*
X161225073Y-76678127D01*
X160985829Y-76099113D01*
X160607104Y-75719727D01*
X160984272Y-75343217D01*
X161224526Y-74764621D01*
X161225073Y-74138127D01*
X160985829Y-73559113D01*
X160607104Y-73179727D01*
X160984272Y-72803217D01*
X161224526Y-72224621D01*
X161225073Y-71598127D01*
X160985829Y-71019113D01*
X160543217Y-70575728D01*
X159964621Y-70335474D01*
X159338127Y-70334927D01*
X158759113Y-70574171D01*
X158315728Y-71016783D01*
X158260000Y-71150991D01*
X158260000Y-71062463D01*
X158292192Y-71030327D01*
X158434838Y-70686799D01*
X158435162Y-70314833D01*
X158391846Y-70210000D01*
X163437537Y-70210000D01*
X163469673Y-70242192D01*
X163813201Y-70384838D01*
X164185167Y-70385162D01*
X164528943Y-70243117D01*
X164792192Y-69980327D01*
X164840000Y-69865193D01*
X164840000Y-72486573D01*
X164725766Y-72761678D01*
X164725567Y-72990000D01*
X164197465Y-72990000D01*
X164165329Y-72957808D01*
X163821801Y-72815162D01*
X163449835Y-72814838D01*
X163106059Y-72956883D01*
X162842810Y-73219673D01*
X162700164Y-73563201D01*
X162699840Y-73935167D01*
X162841885Y-74278943D01*
X163104675Y-74542192D01*
X163448203Y-74684838D01*
X163820169Y-74685162D01*
X164163945Y-74543117D01*
X164197120Y-74510000D01*
X169487537Y-74510000D01*
X169519673Y-74542192D01*
X169863201Y-74684838D01*
X170235167Y-74685162D01*
X170578943Y-74543117D01*
X170842192Y-74280327D01*
X170984838Y-73936799D01*
X170985162Y-73564833D01*
X170843117Y-73221057D01*
X170757377Y-73135167D01*
X171014838Y-73135167D01*
X171156883Y-73478943D01*
X171419673Y-73742192D01*
X171763201Y-73884838D01*
X172135167Y-73885162D01*
X172478943Y-73743117D01*
X172512118Y-73710000D01*
X173537537Y-73710000D01*
X173569673Y-73742192D01*
X173913201Y-73884838D01*
X174285167Y-73885162D01*
X174628943Y-73743117D01*
X174892192Y-73480327D01*
X175034838Y-73136799D01*
X175035162Y-72764833D01*
X174893117Y-72421057D01*
X174630327Y-72157808D01*
X174286799Y-72015162D01*
X173914833Y-72014838D01*
X173571057Y-72156883D01*
X173537882Y-72190000D01*
X172512463Y-72190000D01*
X172480327Y-72157808D01*
X172136799Y-72015162D01*
X171764833Y-72014838D01*
X171421057Y-72156883D01*
X171157808Y-72419673D01*
X171015162Y-72763201D01*
X171014838Y-73135167D01*
X170757377Y-73135167D01*
X170580327Y-72957808D01*
X170236799Y-72815162D01*
X169864833Y-72814838D01*
X169785046Y-72847805D01*
X169785162Y-72714833D01*
X169643117Y-72371057D01*
X169380327Y-72107808D01*
X169134998Y-72005938D01*
X169134998Y-70935118D01*
X169185167Y-70935162D01*
X169528943Y-70793117D01*
X169562118Y-70760000D01*
X172437537Y-70760000D01*
X172469673Y-70792192D01*
X172813201Y-70934838D01*
X173185167Y-70935162D01*
X173528943Y-70793117D01*
X173792192Y-70530327D01*
X173934838Y-70186799D01*
X173935162Y-69814833D01*
X173793117Y-69471057D01*
X173530327Y-69207808D01*
X173186799Y-69065162D01*
X172814833Y-69064838D01*
X172471057Y-69206883D01*
X172437882Y-69240000D01*
X169741985Y-69240000D01*
X169784838Y-69136799D01*
X169785162Y-68764833D01*
X169783165Y-68760000D01*
X174687537Y-68760000D01*
X174719673Y-68792192D01*
X175063201Y-68934838D01*
X175435167Y-68935162D01*
X175778943Y-68793117D01*
X176042192Y-68530327D01*
X176184838Y-68186799D01*
X176185162Y-67814833D01*
X176043117Y-67471057D01*
X175780327Y-67207808D01*
X175436799Y-67065162D01*
X175433578Y-67065159D01*
X175728943Y-66943117D01*
X175992192Y-66680327D01*
X176134838Y-66336799D01*
X176135162Y-65964833D01*
X175993117Y-65621057D01*
X175730327Y-65357808D01*
X175386799Y-65215162D01*
X175014833Y-65214838D01*
X174671057Y-65356883D01*
X174637882Y-65390000D01*
X168512463Y-65390000D01*
X168480327Y-65357808D01*
X168136799Y-65215162D01*
X167764833Y-65214838D01*
X167421057Y-65356883D01*
X167211654Y-65565921D01*
X167193117Y-65521057D01*
X166930327Y-65257808D01*
X166586799Y-65115162D01*
X166214833Y-65114838D01*
X165871057Y-65256883D01*
X165837882Y-65290000D01*
X164312463Y-65290000D01*
X164280327Y-65257808D01*
X163936799Y-65115162D01*
X163564833Y-65114838D01*
X163221057Y-65256883D01*
X162957808Y-65519673D01*
X162815162Y-65863201D01*
X162814838Y-66235167D01*
X162956883Y-66578943D01*
X163140053Y-66762433D01*
X163015162Y-67063201D01*
X163014838Y-67435167D01*
X163156883Y-67778943D01*
X163419673Y-68042192D01*
X163763201Y-68184838D01*
X164135167Y-68185162D01*
X164478943Y-68043117D01*
X164512118Y-68010000D01*
X166682117Y-68010000D01*
X166658715Y-68045024D01*
X166586799Y-68015162D01*
X166214833Y-68014838D01*
X165999896Y-68103648D01*
X165786799Y-68015162D01*
X165414833Y-68014838D01*
X165071057Y-68156883D01*
X164807808Y-68419673D01*
X164665162Y-68763201D01*
X164665136Y-68792853D01*
X164530327Y-68657808D01*
X164186799Y-68515162D01*
X163814833Y-68514838D01*
X163471057Y-68656883D01*
X163437882Y-68690000D01*
X154437441Y-68690000D01*
X154136799Y-68565162D01*
X153764833Y-68564838D01*
X153421057Y-68706883D01*
X153157808Y-68969673D01*
X153015162Y-69313201D01*
X153014838Y-69685167D01*
X153156883Y-70028943D01*
X153419673Y-70292192D01*
X153763201Y-70434838D01*
X154135167Y-70435162D01*
X154478943Y-70293117D01*
X154562205Y-70210000D01*
X156608015Y-70210000D01*
X156565162Y-70313201D01*
X156564838Y-70685167D01*
X156706883Y-71028943D01*
X156740000Y-71062118D01*
X156740000Y-74222573D01*
X156450562Y-74165000D01*
X155389438Y-74165000D01*
X154983794Y-74245688D01*
X154639905Y-74475467D01*
X154410126Y-74819356D01*
X154329438Y-75225000D01*
X154410126Y-75630644D01*
X154639905Y-75974533D01*
X154983794Y-76204312D01*
X155389438Y-76285000D01*
X156450562Y-76285000D01*
X156740000Y-76227427D01*
X156740000Y-76934169D01*
X156723162Y-76844683D01*
X156584090Y-76628559D01*
X156371890Y-76483569D01*
X156120000Y-76432560D01*
X155280000Y-76432560D01*
X155044683Y-76476838D01*
X154828559Y-76615910D01*
X154683569Y-76828110D01*
X154632560Y-77080000D01*
X154632560Y-77920000D01*
X154676838Y-78155317D01*
X154767108Y-78295600D01*
X154645183Y-78589227D01*
X154644817Y-79008932D01*
X154805093Y-79396829D01*
X154957131Y-79549133D01*
X154761204Y-79574905D01*
X154631721Y-79974137D01*
X154664873Y-80392531D01*
X154761204Y-80625095D01*
X154968087Y-80652308D01*
X155520395Y-80100000D01*
X155506253Y-80085858D01*
X155685858Y-79906253D01*
X155700000Y-79920395D01*
X155714143Y-79906253D01*
X155770150Y-79962260D01*
X155805093Y-80046829D01*
X155883009Y-80124881D01*
X155714143Y-80293748D01*
X155700000Y-80279605D01*
X155147692Y-80831913D01*
X155174905Y-81038796D01*
X155574137Y-81168279D01*
X155992531Y-81135127D01*
X156162955Y-81064535D01*
X156157808Y-81069673D01*
X156055939Y-81315000D01*
X155389438Y-81315000D01*
X154983794Y-81395688D01*
X154639905Y-81625467D01*
X154410126Y-81969356D01*
X154356027Y-82241329D01*
X150744050Y-81173847D01*
X150733515Y-81169204D01*
X147362192Y-78442619D01*
X148464613Y-78442619D01*
X148804155Y-79264372D01*
X149432321Y-79893636D01*
X150253481Y-80234611D01*
X151142619Y-80235387D01*
X151964372Y-79895845D01*
X152593636Y-79267679D01*
X152934611Y-78446519D01*
X152935387Y-77557381D01*
X152595845Y-76735628D01*
X151967679Y-76106364D01*
X151146519Y-75765389D01*
X150257381Y-75764613D01*
X149435628Y-76104155D01*
X148806364Y-76732321D01*
X148465389Y-77553481D01*
X148464613Y-78442619D01*
X147362192Y-78442619D01*
X144819525Y-76386217D01*
X144655696Y-76228136D01*
X140959852Y-69431287D01*
X140140914Y-61685793D01*
X140662775Y-59920000D01*
X148985907Y-59920000D01*
X149098946Y-60488285D01*
X149420853Y-60970054D01*
X149750026Y-61190000D01*
X149420853Y-61409946D01*
X149098946Y-61891715D01*
X148985907Y-62460000D01*
X149098946Y-63028285D01*
X149420853Y-63510054D01*
X149462452Y-63537850D01*
X149414683Y-63546838D01*
X149198559Y-63685910D01*
X149053569Y-63898110D01*
X149002560Y-64150000D01*
X149002560Y-65850000D01*
X149046838Y-66085317D01*
X149185910Y-66301441D01*
X149398110Y-66446431D01*
X149650000Y-66497440D01*
X151350000Y-66497440D01*
X151585317Y-66453162D01*
X151801441Y-66314090D01*
X151946431Y-66101890D01*
X151997440Y-65850000D01*
X151997440Y-64185167D01*
X162714838Y-64185167D01*
X162856883Y-64528943D01*
X163119673Y-64792192D01*
X163463201Y-64934838D01*
X163835167Y-64935162D01*
X164178943Y-64793117D01*
X164212118Y-64760000D01*
X164987537Y-64760000D01*
X165019673Y-64792192D01*
X165363201Y-64934838D01*
X165735167Y-64935162D01*
X166078943Y-64793117D01*
X166342192Y-64530327D01*
X166484838Y-64186799D01*
X166485162Y-63814833D01*
X166343117Y-63471057D01*
X166080327Y-63207808D01*
X165736799Y-63065162D01*
X165364833Y-63064838D01*
X165021057Y-63206883D01*
X164987882Y-63240000D01*
X164212463Y-63240000D01*
X164180327Y-63207808D01*
X163836799Y-63065162D01*
X163464833Y-63064838D01*
X163121057Y-63206883D01*
X162857808Y-63469673D01*
X162715162Y-63813201D01*
X162714838Y-64185167D01*
X151997440Y-64185167D01*
X151997440Y-64150000D01*
X151953162Y-63914683D01*
X151814090Y-63698559D01*
X151601890Y-63553569D01*
X151534459Y-63539914D01*
X151579147Y-63510054D01*
X151779636Y-63210000D01*
X153387537Y-63210000D01*
X153419673Y-63242192D01*
X153763201Y-63384838D01*
X154135167Y-63385162D01*
X154478943Y-63243117D01*
X154742192Y-62980327D01*
X154884838Y-62636799D01*
X154885162Y-62264833D01*
X154743117Y-61921057D01*
X154480327Y-61657808D01*
X154136799Y-61515162D01*
X153764833Y-61514838D01*
X153421057Y-61656883D01*
X153387882Y-61690000D01*
X151766273Y-61690000D01*
X151579147Y-61409946D01*
X151249974Y-61190000D01*
X151579147Y-60970054D01*
X151772954Y-60680000D01*
X151829077Y-60680000D01*
X152119916Y-60622148D01*
X152175542Y-60584980D01*
X164237537Y-60584980D01*
X164269673Y-60617172D01*
X164613201Y-60759818D01*
X164985167Y-60760142D01*
X165328943Y-60618097D01*
X165592192Y-60355307D01*
X165734838Y-60011779D01*
X165735162Y-59639813D01*
X165593117Y-59296037D01*
X165330327Y-59032788D01*
X164986799Y-58890142D01*
X164614833Y-58889818D01*
X164271057Y-59031863D01*
X164237882Y-59064980D01*
X151924097Y-59064980D01*
X151734644Y-59102665D01*
X151579147Y-58869946D01*
X151238447Y-58642298D01*
X151381358Y-58575183D01*
X151771645Y-58146924D01*
X151941476Y-57736890D01*
X151820155Y-57507000D01*
X150627000Y-57507000D01*
X150627000Y-57527000D01*
X150373000Y-57527000D01*
X150373000Y-57507000D01*
X149179845Y-57507000D01*
X149058524Y-57736890D01*
X149228355Y-58146924D01*
X149618642Y-58575183D01*
X149761553Y-58642298D01*
X149420853Y-58869946D01*
X149098946Y-59351715D01*
X148985907Y-59920000D01*
X140662775Y-59920000D01*
X141518920Y-57023110D01*
X149058524Y-57023110D01*
X149179845Y-57253000D01*
X150373000Y-57253000D01*
X150373000Y-56059181D01*
X150627000Y-56059181D01*
X150627000Y-57253000D01*
X151820155Y-57253000D01*
X151941476Y-57023110D01*
X151801505Y-56685167D01*
X156564838Y-56685167D01*
X156706883Y-57028943D01*
X156969673Y-57292192D01*
X157313201Y-57434838D01*
X157685167Y-57435162D01*
X158028943Y-57293117D01*
X158062118Y-57260000D01*
X163217847Y-57260000D01*
X163007808Y-57469673D01*
X162865162Y-57813201D01*
X162864838Y-58185167D01*
X163006883Y-58528943D01*
X163269673Y-58792192D01*
X163613201Y-58934838D01*
X163985167Y-58935162D01*
X164328943Y-58793117D01*
X164362118Y-58760000D01*
X166687537Y-58760000D01*
X166719673Y-58792192D01*
X167063201Y-58934838D01*
X167435167Y-58935162D01*
X167778943Y-58793117D01*
X168042192Y-58530327D01*
X168184838Y-58186799D01*
X168185162Y-57814833D01*
X168043117Y-57471057D01*
X167832428Y-57260000D01*
X168595758Y-57260000D01*
X168706883Y-57528943D01*
X168969673Y-57792192D01*
X169313201Y-57934838D01*
X169685167Y-57935162D01*
X170028943Y-57793117D01*
X170292192Y-57530327D01*
X170434838Y-57186799D01*
X170435162Y-56814833D01*
X170293117Y-56471057D01*
X170030327Y-56207808D01*
X169686799Y-56065162D01*
X169639923Y-56065121D01*
X169537401Y-55962599D01*
X169290839Y-55797852D01*
X169000000Y-55740000D01*
X158062463Y-55740000D01*
X158030327Y-55707808D01*
X157686799Y-55565162D01*
X157314833Y-55564838D01*
X156971057Y-55706883D01*
X156707808Y-55969673D01*
X156565162Y-56313201D01*
X156564838Y-56685167D01*
X151801505Y-56685167D01*
X151771645Y-56613076D01*
X151381358Y-56184817D01*
X150856892Y-55938514D01*
X150627000Y-56059181D01*
X150373000Y-56059181D01*
X150143108Y-55938514D01*
X149618642Y-56184817D01*
X149228355Y-56613076D01*
X149058524Y-57023110D01*
X141518920Y-57023110D01*
X142348387Y-54216492D01*
X142523476Y-54000000D01*
X152552560Y-54000000D01*
X152552560Y-55000000D01*
X152596838Y-55235317D01*
X152735910Y-55451441D01*
X152948110Y-55596431D01*
X153200000Y-55647440D01*
X154200000Y-55647440D01*
X154435317Y-55603162D01*
X154651441Y-55464090D01*
X154796431Y-55251890D01*
X154847440Y-55000000D01*
X154847440Y-54000000D01*
X154803162Y-53764683D01*
X154664090Y-53548559D01*
X154451890Y-53403569D01*
X154200000Y-53352560D01*
X153200000Y-53352560D01*
X152964683Y-53396838D01*
X152748559Y-53535910D01*
X152603569Y-53748110D01*
X152552560Y-54000000D01*
X142523476Y-54000000D01*
X145972696Y-49735167D01*
X154414838Y-49735167D01*
X154556883Y-50078943D01*
X154819673Y-50342192D01*
X155163201Y-50484838D01*
X155535167Y-50485162D01*
X155878943Y-50343117D01*
X155912118Y-50310000D01*
X156085198Y-50310000D01*
X157615139Y-51839941D01*
X157614838Y-52185167D01*
X157756883Y-52528943D01*
X158019673Y-52792192D01*
X158363201Y-52934838D01*
X158735167Y-52935162D01*
X159078943Y-52793117D01*
X159342192Y-52530327D01*
X159349854Y-52511873D01*
X162124927Y-52511873D01*
X162364171Y-53090887D01*
X162806783Y-53534272D01*
X163385379Y-53774526D01*
X164011873Y-53775073D01*
X164590887Y-53535829D01*
X165034272Y-53093217D01*
X165274526Y-52514621D01*
X165275073Y-51888127D01*
X165256270Y-51842619D01*
X169964613Y-51842619D01*
X170304155Y-52664372D01*
X170932321Y-53293636D01*
X171753481Y-53634611D01*
X172642619Y-53635387D01*
X173464372Y-53295845D01*
X174093636Y-52667679D01*
X174434611Y-51846519D01*
X174435387Y-50957381D01*
X174095845Y-50135628D01*
X173467679Y-49506364D01*
X172646519Y-49165389D01*
X171757381Y-49164613D01*
X170935628Y-49504155D01*
X170306364Y-50132321D01*
X169965389Y-50953481D01*
X169964613Y-51842619D01*
X165256270Y-51842619D01*
X165035829Y-51309113D01*
X164593217Y-50865728D01*
X164014621Y-50625474D01*
X163388127Y-50624927D01*
X162809113Y-50864171D01*
X162365728Y-51306783D01*
X162125474Y-51885379D01*
X162124927Y-52511873D01*
X159349854Y-52511873D01*
X159484838Y-52186799D01*
X159485162Y-51814833D01*
X159343117Y-51471057D01*
X159193077Y-51320755D01*
X159087401Y-51162599D01*
X156937401Y-49012599D01*
X156690839Y-48847852D01*
X156400000Y-48790000D01*
X155912463Y-48790000D01*
X155880327Y-48757808D01*
X155536799Y-48615162D01*
X155164833Y-48614838D01*
X154821057Y-48756883D01*
X154557808Y-49019673D01*
X154415162Y-49363201D01*
X154414838Y-49735167D01*
X145972696Y-49735167D01*
X147262299Y-48140622D01*
X151433487Y-45479646D01*
X161859308Y-43628332D01*
X169303508Y-45828387D01*
X169303508Y-45828387D01*
G37*
X169303508Y-45828387D02*
X175359475Y-50726202D01*
X179080148Y-57568713D01*
X179899086Y-65314207D01*
X177691614Y-72783506D01*
X174606635Y-76597970D01*
X174286799Y-76465162D01*
X173914833Y-76464838D01*
X173571057Y-76606883D01*
X173307808Y-76869673D01*
X173165162Y-77213201D01*
X173165121Y-77260077D01*
X170145914Y-80279284D01*
X170126207Y-80290000D01*
X165400000Y-80290000D01*
X165109161Y-80347852D01*
X164862599Y-80512599D01*
X162800397Y-82574801D01*
X161142290Y-82574801D01*
X161236045Y-82320167D01*
X161211049Y-81694172D01*
X161019580Y-81231923D01*
X160758968Y-81140637D01*
X159829605Y-82070000D01*
X159843748Y-82084143D01*
X159664143Y-82263748D01*
X159650000Y-82249605D01*
X159635858Y-82263748D01*
X159456253Y-82084143D01*
X159470395Y-82070000D01*
X158541032Y-81140637D01*
X158280420Y-81231923D01*
X158112578Y-81687776D01*
X157885122Y-81460320D01*
X157885162Y-81414833D01*
X157743117Y-81071057D01*
X157480327Y-80807808D01*
X157136799Y-80665162D01*
X156764833Y-80664838D01*
X156538121Y-80758513D01*
X156431916Y-80652308D01*
X156638796Y-80625095D01*
X156677752Y-80504981D01*
X156908932Y-80505183D01*
X157296829Y-80344907D01*
X157593864Y-80048390D01*
X157754817Y-79660773D01*
X157755183Y-79241068D01*
X157594907Y-78853171D01*
X157541996Y-78800168D01*
X157593864Y-78748390D01*
X157617255Y-78692057D01*
X157727798Y-78802600D01*
X157974360Y-78967347D01*
X158162894Y-79004849D01*
X158075474Y-79215379D01*
X158074927Y-79841873D01*
X158314171Y-80420887D01*
X158755115Y-80862601D01*
X158720637Y-80961032D01*
X159650000Y-81890395D01*
X160579363Y-80961032D01*
X160544687Y-80862036D01*
X160984272Y-80423217D01*
X161224526Y-79844621D01*
X161224916Y-79398179D01*
X161313201Y-79434838D01*
X161685167Y-79435162D01*
X162028943Y-79293117D01*
X162292192Y-79030327D01*
X162434838Y-78686799D01*
X162435162Y-78314833D01*
X162293117Y-77971057D01*
X162030327Y-77707808D01*
X161686799Y-77565162D01*
X161314833Y-77564838D01*
X161075393Y-77663772D01*
X161224526Y-77304621D01*
X161225073Y-76678127D01*
X160985829Y-76099113D01*
X160607104Y-75719727D01*
X160984272Y-75343217D01*
X161224526Y-74764621D01*
X161225073Y-74138127D01*
X160985829Y-73559113D01*
X160607104Y-73179727D01*
X160984272Y-72803217D01*
X161224526Y-72224621D01*
X161225073Y-71598127D01*
X160985829Y-71019113D01*
X160543217Y-70575728D01*
X159964621Y-70335474D01*
X159338127Y-70334927D01*
X158759113Y-70574171D01*
X158315728Y-71016783D01*
X158260000Y-71150991D01*
X158260000Y-71062463D01*
X158292192Y-71030327D01*
X158434838Y-70686799D01*
X158435162Y-70314833D01*
X158391846Y-70210000D01*
X163437537Y-70210000D01*
X163469673Y-70242192D01*
X163813201Y-70384838D01*
X164185167Y-70385162D01*
X164528943Y-70243117D01*
X164792192Y-69980327D01*
X164840000Y-69865193D01*
X164840000Y-72486573D01*
X164725766Y-72761678D01*
X164725567Y-72990000D01*
X164197465Y-72990000D01*
X164165329Y-72957808D01*
X163821801Y-72815162D01*
X163449835Y-72814838D01*
X163106059Y-72956883D01*
X162842810Y-73219673D01*
X162700164Y-73563201D01*
X162699840Y-73935167D01*
X162841885Y-74278943D01*
X163104675Y-74542192D01*
X163448203Y-74684838D01*
X163820169Y-74685162D01*
X164163945Y-74543117D01*
X164197120Y-74510000D01*
X169487537Y-74510000D01*
X169519673Y-74542192D01*
X169863201Y-74684838D01*
X170235167Y-74685162D01*
X170578943Y-74543117D01*
X170842192Y-74280327D01*
X170984838Y-73936799D01*
X170985162Y-73564833D01*
X170843117Y-73221057D01*
X170757377Y-73135167D01*
X171014838Y-73135167D01*
X171156883Y-73478943D01*
X171419673Y-73742192D01*
X171763201Y-73884838D01*
X172135167Y-73885162D01*
X172478943Y-73743117D01*
X172512118Y-73710000D01*
X173537537Y-73710000D01*
X173569673Y-73742192D01*
X173913201Y-73884838D01*
X174285167Y-73885162D01*
X174628943Y-73743117D01*
X174892192Y-73480327D01*
X175034838Y-73136799D01*
X175035162Y-72764833D01*
X174893117Y-72421057D01*
X174630327Y-72157808D01*
X174286799Y-72015162D01*
X173914833Y-72014838D01*
X173571057Y-72156883D01*
X173537882Y-72190000D01*
X172512463Y-72190000D01*
X172480327Y-72157808D01*
X172136799Y-72015162D01*
X171764833Y-72014838D01*
X171421057Y-72156883D01*
X171157808Y-72419673D01*
X171015162Y-72763201D01*
X171014838Y-73135167D01*
X170757377Y-73135167D01*
X170580327Y-72957808D01*
X170236799Y-72815162D01*
X169864833Y-72814838D01*
X169785046Y-72847805D01*
X169785162Y-72714833D01*
X169643117Y-72371057D01*
X169380327Y-72107808D01*
X169134998Y-72005938D01*
X169134998Y-70935118D01*
X169185167Y-70935162D01*
X169528943Y-70793117D01*
X169562118Y-70760000D01*
X172437537Y-70760000D01*
X172469673Y-70792192D01*
X172813201Y-70934838D01*
X173185167Y-70935162D01*
X173528943Y-70793117D01*
X173792192Y-70530327D01*
X173934838Y-70186799D01*
X173935162Y-69814833D01*
X173793117Y-69471057D01*
X173530327Y-69207808D01*
X173186799Y-69065162D01*
X172814833Y-69064838D01*
X172471057Y-69206883D01*
X172437882Y-69240000D01*
X169741985Y-69240000D01*
X169784838Y-69136799D01*
X169785162Y-68764833D01*
X169783165Y-68760000D01*
X174687537Y-68760000D01*
X174719673Y-68792192D01*
X175063201Y-68934838D01*
X175435167Y-68935162D01*
X175778943Y-68793117D01*
X176042192Y-68530327D01*
X176184838Y-68186799D01*
X176185162Y-67814833D01*
X176043117Y-67471057D01*
X175780327Y-67207808D01*
X175436799Y-67065162D01*
X175433578Y-67065159D01*
X175728943Y-66943117D01*
X175992192Y-66680327D01*
X176134838Y-66336799D01*
X176135162Y-65964833D01*
X175993117Y-65621057D01*
X175730327Y-65357808D01*
X175386799Y-65215162D01*
X175014833Y-65214838D01*
X174671057Y-65356883D01*
X174637882Y-65390000D01*
X168512463Y-65390000D01*
X168480327Y-65357808D01*
X168136799Y-65215162D01*
X167764833Y-65214838D01*
X167421057Y-65356883D01*
X167211654Y-65565921D01*
X167193117Y-65521057D01*
X166930327Y-65257808D01*
X166586799Y-65115162D01*
X166214833Y-65114838D01*
X165871057Y-65256883D01*
X165837882Y-65290000D01*
X164312463Y-65290000D01*
X164280327Y-65257808D01*
X163936799Y-65115162D01*
X163564833Y-65114838D01*
X163221057Y-65256883D01*
X162957808Y-65519673D01*
X162815162Y-65863201D01*
X162814838Y-66235167D01*
X162956883Y-66578943D01*
X163140053Y-66762433D01*
X163015162Y-67063201D01*
X163014838Y-67435167D01*
X163156883Y-67778943D01*
X163419673Y-68042192D01*
X163763201Y-68184838D01*
X164135167Y-68185162D01*
X164478943Y-68043117D01*
X164512118Y-68010000D01*
X166682117Y-68010000D01*
X166658715Y-68045024D01*
X166586799Y-68015162D01*
X166214833Y-68014838D01*
X165999896Y-68103648D01*
X165786799Y-68015162D01*
X165414833Y-68014838D01*
X165071057Y-68156883D01*
X164807808Y-68419673D01*
X164665162Y-68763201D01*
X164665136Y-68792853D01*
X164530327Y-68657808D01*
X164186799Y-68515162D01*
X163814833Y-68514838D01*
X163471057Y-68656883D01*
X163437882Y-68690000D01*
X154437441Y-68690000D01*
X154136799Y-68565162D01*
X153764833Y-68564838D01*
X153421057Y-68706883D01*
X153157808Y-68969673D01*
X153015162Y-69313201D01*
X153014838Y-69685167D01*
X153156883Y-70028943D01*
X153419673Y-70292192D01*
X153763201Y-70434838D01*
X154135167Y-70435162D01*
X154478943Y-70293117D01*
X154562205Y-70210000D01*
X156608015Y-70210000D01*
X156565162Y-70313201D01*
X156564838Y-70685167D01*
X156706883Y-71028943D01*
X156740000Y-71062118D01*
X156740000Y-74222573D01*
X156450562Y-74165000D01*
X155389438Y-74165000D01*
X154983794Y-74245688D01*
X154639905Y-74475467D01*
X154410126Y-74819356D01*
X154329438Y-75225000D01*
X154410126Y-75630644D01*
X154639905Y-75974533D01*
X154983794Y-76204312D01*
X155389438Y-76285000D01*
X156450562Y-76285000D01*
X156740000Y-76227427D01*
X156740000Y-76934169D01*
X156723162Y-76844683D01*
X156584090Y-76628559D01*
X156371890Y-76483569D01*
X156120000Y-76432560D01*
X155280000Y-76432560D01*
X155044683Y-76476838D01*
X154828559Y-76615910D01*
X154683569Y-76828110D01*
X154632560Y-77080000D01*
X154632560Y-77920000D01*
X154676838Y-78155317D01*
X154767108Y-78295600D01*
X154645183Y-78589227D01*
X154644817Y-79008932D01*
X154805093Y-79396829D01*
X154957131Y-79549133D01*
X154761204Y-79574905D01*
X154631721Y-79974137D01*
X154664873Y-80392531D01*
X154761204Y-80625095D01*
X154968087Y-80652308D01*
X155520395Y-80100000D01*
X155506253Y-80085858D01*
X155685858Y-79906253D01*
X155700000Y-79920395D01*
X155714143Y-79906253D01*
X155770150Y-79962260D01*
X155805093Y-80046829D01*
X155883009Y-80124881D01*
X155714143Y-80293748D01*
X155700000Y-80279605D01*
X155147692Y-80831913D01*
X155174905Y-81038796D01*
X155574137Y-81168279D01*
X155992531Y-81135127D01*
X156162955Y-81064535D01*
X156157808Y-81069673D01*
X156055939Y-81315000D01*
X155389438Y-81315000D01*
X154983794Y-81395688D01*
X154639905Y-81625467D01*
X154410126Y-81969356D01*
X154356027Y-82241329D01*
X150744050Y-81173847D01*
X150733515Y-81169204D01*
X147362192Y-78442619D01*
X148464613Y-78442619D01*
X148804155Y-79264372D01*
X149432321Y-79893636D01*
X150253481Y-80234611D01*
X151142619Y-80235387D01*
X151964372Y-79895845D01*
X152593636Y-79267679D01*
X152934611Y-78446519D01*
X152935387Y-77557381D01*
X152595845Y-76735628D01*
X151967679Y-76106364D01*
X151146519Y-75765389D01*
X150257381Y-75764613D01*
X149435628Y-76104155D01*
X148806364Y-76732321D01*
X148465389Y-77553481D01*
X148464613Y-78442619D01*
X147362192Y-78442619D01*
X144819525Y-76386217D01*
X144655696Y-76228136D01*
X140959852Y-69431287D01*
X140140914Y-61685793D01*
X140662775Y-59920000D01*
X148985907Y-59920000D01*
X149098946Y-60488285D01*
X149420853Y-60970054D01*
X149750026Y-61190000D01*
X149420853Y-61409946D01*
X149098946Y-61891715D01*
X148985907Y-62460000D01*
X149098946Y-63028285D01*
X149420853Y-63510054D01*
X149462452Y-63537850D01*
X149414683Y-63546838D01*
X149198559Y-63685910D01*
X149053569Y-63898110D01*
X149002560Y-64150000D01*
X149002560Y-65850000D01*
X149046838Y-66085317D01*
X149185910Y-66301441D01*
X149398110Y-66446431D01*
X149650000Y-66497440D01*
X151350000Y-66497440D01*
X151585317Y-66453162D01*
X151801441Y-66314090D01*
X151946431Y-66101890D01*
X151997440Y-65850000D01*
X151997440Y-64185167D01*
X162714838Y-64185167D01*
X162856883Y-64528943D01*
X163119673Y-64792192D01*
X163463201Y-64934838D01*
X163835167Y-64935162D01*
X164178943Y-64793117D01*
X164212118Y-64760000D01*
X164987537Y-64760000D01*
X165019673Y-64792192D01*
X165363201Y-64934838D01*
X165735167Y-64935162D01*
X166078943Y-64793117D01*
X166342192Y-64530327D01*
X166484838Y-64186799D01*
X166485162Y-63814833D01*
X166343117Y-63471057D01*
X166080327Y-63207808D01*
X165736799Y-63065162D01*
X165364833Y-63064838D01*
X165021057Y-63206883D01*
X164987882Y-63240000D01*
X164212463Y-63240000D01*
X164180327Y-63207808D01*
X163836799Y-63065162D01*
X163464833Y-63064838D01*
X163121057Y-63206883D01*
X162857808Y-63469673D01*
X162715162Y-63813201D01*
X162714838Y-64185167D01*
X151997440Y-64185167D01*
X151997440Y-64150000D01*
X151953162Y-63914683D01*
X151814090Y-63698559D01*
X151601890Y-63553569D01*
X151534459Y-63539914D01*
X151579147Y-63510054D01*
X151779636Y-63210000D01*
X153387537Y-63210000D01*
X153419673Y-63242192D01*
X153763201Y-63384838D01*
X154135167Y-63385162D01*
X154478943Y-63243117D01*
X154742192Y-62980327D01*
X154884838Y-62636799D01*
X154885162Y-62264833D01*
X154743117Y-61921057D01*
X154480327Y-61657808D01*
X154136799Y-61515162D01*
X153764833Y-61514838D01*
X153421057Y-61656883D01*
X153387882Y-61690000D01*
X151766273Y-61690000D01*
X151579147Y-61409946D01*
X151249974Y-61190000D01*
X151579147Y-60970054D01*
X151772954Y-60680000D01*
X151829077Y-60680000D01*
X152119916Y-60622148D01*
X152175542Y-60584980D01*
X164237537Y-60584980D01*
X164269673Y-60617172D01*
X164613201Y-60759818D01*
X164985167Y-60760142D01*
X165328943Y-60618097D01*
X165592192Y-60355307D01*
X165734838Y-60011779D01*
X165735162Y-59639813D01*
X165593117Y-59296037D01*
X165330327Y-59032788D01*
X164986799Y-58890142D01*
X164614833Y-58889818D01*
X164271057Y-59031863D01*
X164237882Y-59064980D01*
X151924097Y-59064980D01*
X151734644Y-59102665D01*
X151579147Y-58869946D01*
X151238447Y-58642298D01*
X151381358Y-58575183D01*
X151771645Y-58146924D01*
X151941476Y-57736890D01*
X151820155Y-57507000D01*
X150627000Y-57507000D01*
X150627000Y-57527000D01*
X150373000Y-57527000D01*
X150373000Y-57507000D01*
X149179845Y-57507000D01*
X149058524Y-57736890D01*
X149228355Y-58146924D01*
X149618642Y-58575183D01*
X149761553Y-58642298D01*
X149420853Y-58869946D01*
X149098946Y-59351715D01*
X148985907Y-59920000D01*
X140662775Y-59920000D01*
X141518920Y-57023110D01*
X149058524Y-57023110D01*
X149179845Y-57253000D01*
X150373000Y-57253000D01*
X150373000Y-56059181D01*
X150627000Y-56059181D01*
X150627000Y-57253000D01*
X151820155Y-57253000D01*
X151941476Y-57023110D01*
X151801505Y-56685167D01*
X156564838Y-56685167D01*
X156706883Y-57028943D01*
X156969673Y-57292192D01*
X157313201Y-57434838D01*
X157685167Y-57435162D01*
X158028943Y-57293117D01*
X158062118Y-57260000D01*
X163217847Y-57260000D01*
X163007808Y-57469673D01*
X162865162Y-57813201D01*
X162864838Y-58185167D01*
X163006883Y-58528943D01*
X163269673Y-58792192D01*
X163613201Y-58934838D01*
X163985167Y-58935162D01*
X164328943Y-58793117D01*
X164362118Y-58760000D01*
X166687537Y-58760000D01*
X166719673Y-58792192D01*
X167063201Y-58934838D01*
X167435167Y-58935162D01*
X167778943Y-58793117D01*
X168042192Y-58530327D01*
X168184838Y-58186799D01*
X168185162Y-57814833D01*
X168043117Y-57471057D01*
X167832428Y-57260000D01*
X168595758Y-57260000D01*
X168706883Y-57528943D01*
X168969673Y-57792192D01*
X169313201Y-57934838D01*
X169685167Y-57935162D01*
X170028943Y-57793117D01*
X170292192Y-57530327D01*
X170434838Y-57186799D01*
X170435162Y-56814833D01*
X170293117Y-56471057D01*
X170030327Y-56207808D01*
X169686799Y-56065162D01*
X169639923Y-56065121D01*
X169537401Y-55962599D01*
X169290839Y-55797852D01*
X169000000Y-55740000D01*
X158062463Y-55740000D01*
X158030327Y-55707808D01*
X157686799Y-55565162D01*
X157314833Y-55564838D01*
X156971057Y-55706883D01*
X156707808Y-55969673D01*
X156565162Y-56313201D01*
X156564838Y-56685167D01*
X151801505Y-56685167D01*
X151771645Y-56613076D01*
X151381358Y-56184817D01*
X150856892Y-55938514D01*
X150627000Y-56059181D01*
X150373000Y-56059181D01*
X150143108Y-55938514D01*
X149618642Y-56184817D01*
X149228355Y-56613076D01*
X149058524Y-57023110D01*
X141518920Y-57023110D01*
X142348387Y-54216492D01*
X142523476Y-54000000D01*
X152552560Y-54000000D01*
X152552560Y-55000000D01*
X152596838Y-55235317D01*
X152735910Y-55451441D01*
X152948110Y-55596431D01*
X153200000Y-55647440D01*
X154200000Y-55647440D01*
X154435317Y-55603162D01*
X154651441Y-55464090D01*
X154796431Y-55251890D01*
X154847440Y-55000000D01*
X154847440Y-54000000D01*
X154803162Y-53764683D01*
X154664090Y-53548559D01*
X154451890Y-53403569D01*
X154200000Y-53352560D01*
X153200000Y-53352560D01*
X152964683Y-53396838D01*
X152748559Y-53535910D01*
X152603569Y-53748110D01*
X152552560Y-54000000D01*
X142523476Y-54000000D01*
X145972696Y-49735167D01*
X154414838Y-49735167D01*
X154556883Y-50078943D01*
X154819673Y-50342192D01*
X155163201Y-50484838D01*
X155535167Y-50485162D01*
X155878943Y-50343117D01*
X155912118Y-50310000D01*
X156085198Y-50310000D01*
X157615139Y-51839941D01*
X157614838Y-52185167D01*
X157756883Y-52528943D01*
X158019673Y-52792192D01*
X158363201Y-52934838D01*
X158735167Y-52935162D01*
X159078943Y-52793117D01*
X159342192Y-52530327D01*
X159349854Y-52511873D01*
X162124927Y-52511873D01*
X162364171Y-53090887D01*
X162806783Y-53534272D01*
X163385379Y-53774526D01*
X164011873Y-53775073D01*
X164590887Y-53535829D01*
X165034272Y-53093217D01*
X165274526Y-52514621D01*
X165275073Y-51888127D01*
X165256270Y-51842619D01*
X169964613Y-51842619D01*
X170304155Y-52664372D01*
X170932321Y-53293636D01*
X171753481Y-53634611D01*
X172642619Y-53635387D01*
X173464372Y-53295845D01*
X174093636Y-52667679D01*
X174434611Y-51846519D01*
X174435387Y-50957381D01*
X174095845Y-50135628D01*
X173467679Y-49506364D01*
X172646519Y-49165389D01*
X171757381Y-49164613D01*
X170935628Y-49504155D01*
X170306364Y-50132321D01*
X169965389Y-50953481D01*
X169964613Y-51842619D01*
X165256270Y-51842619D01*
X165035829Y-51309113D01*
X164593217Y-50865728D01*
X164014621Y-50625474D01*
X163388127Y-50624927D01*
X162809113Y-50864171D01*
X162365728Y-51306783D01*
X162125474Y-51885379D01*
X162124927Y-52511873D01*
X159349854Y-52511873D01*
X159484838Y-52186799D01*
X159485162Y-51814833D01*
X159343117Y-51471057D01*
X159193077Y-51320755D01*
X159087401Y-51162599D01*
X156937401Y-49012599D01*
X156690839Y-48847852D01*
X156400000Y-48790000D01*
X155912463Y-48790000D01*
X155880327Y-48757808D01*
X155536799Y-48615162D01*
X155164833Y-48614838D01*
X154821057Y-48756883D01*
X154557808Y-49019673D01*
X154415162Y-49363201D01*
X154414838Y-49735167D01*
X145972696Y-49735167D01*
X147262299Y-48140622D01*
X151433487Y-45479646D01*
X161859308Y-43628332D01*
X169303508Y-45828387D01*
M02*
