G04 #@! TF.FileFunction,Legend,Bot*
%FSLAX46Y46*%
G04 Gerber Fmt 4.6, Leading zero omitted, Abs format (unit mm)*
G04 Created by KiCad (PCBNEW 4.0.7-e2-6376~61~ubuntu18.04.1) date Sat Jul  7 14:25:19 2018*
%MOMM*%
%LPD*%
G01*
G04 APERTURE LIST*
%ADD10C,0.100000*%
%ADD11C,0.300000*%
%ADD12C,0.150000*%
%ADD13C,0.203200*%
%ADD14C,0.066040*%
%ADD15C,0.152400*%
%ADD16C,0.120000*%
G04 APERTURE END LIST*
D10*
D11*
X166992857Y-50142857D02*
X166778571Y-50214286D01*
X166707143Y-50285714D01*
X166635714Y-50428571D01*
X166635714Y-50642857D01*
X166707143Y-50785714D01*
X166778571Y-50857143D01*
X166921429Y-50928571D01*
X167492857Y-50928571D01*
X167492857Y-49428571D01*
X166992857Y-49428571D01*
X166850000Y-49500000D01*
X166778571Y-49571429D01*
X166707143Y-49714286D01*
X166707143Y-49857143D01*
X166778571Y-50000000D01*
X166850000Y-50071429D01*
X166992857Y-50142857D01*
X167492857Y-50142857D01*
X166135714Y-49928571D02*
X165778571Y-50928571D01*
X165421429Y-49928571D02*
X165778571Y-50928571D01*
X165921429Y-51285714D01*
X165992857Y-51357143D01*
X166135714Y-51428571D01*
X164850000Y-50785714D02*
X164778572Y-50857143D01*
X164850000Y-50928571D01*
X164921429Y-50857143D01*
X164850000Y-50785714D01*
X164850000Y-50928571D01*
X164850000Y-50000000D02*
X164778572Y-50071429D01*
X164850000Y-50142857D01*
X164921429Y-50071429D01*
X164850000Y-50000000D01*
X164850000Y-50142857D01*
X162135714Y-50785714D02*
X162207143Y-50857143D01*
X162421429Y-50928571D01*
X162564286Y-50928571D01*
X162778571Y-50857143D01*
X162921429Y-50714286D01*
X162992857Y-50571429D01*
X163064286Y-50285714D01*
X163064286Y-50071429D01*
X162992857Y-49785714D01*
X162921429Y-49642857D01*
X162778571Y-49500000D01*
X162564286Y-49428571D01*
X162421429Y-49428571D01*
X162207143Y-49500000D01*
X162135714Y-49571429D01*
X160850000Y-50928571D02*
X160850000Y-50142857D01*
X160921429Y-50000000D01*
X161064286Y-49928571D01*
X161350000Y-49928571D01*
X161492857Y-50000000D01*
X160850000Y-50857143D02*
X160992857Y-50928571D01*
X161350000Y-50928571D01*
X161492857Y-50857143D01*
X161564286Y-50714286D01*
X161564286Y-50571429D01*
X161492857Y-50428571D01*
X161350000Y-50357143D01*
X160992857Y-50357143D01*
X160850000Y-50285714D01*
X160135714Y-49928571D02*
X160135714Y-50928571D01*
X160135714Y-50071429D02*
X160064286Y-50000000D01*
X159921428Y-49928571D01*
X159707143Y-49928571D01*
X159564286Y-50000000D01*
X159492857Y-50142857D01*
X159492857Y-50928571D01*
X158135714Y-50928571D02*
X158135714Y-49428571D01*
X158135714Y-50857143D02*
X158278571Y-50928571D01*
X158564285Y-50928571D01*
X158707143Y-50857143D01*
X158778571Y-50785714D01*
X158850000Y-50642857D01*
X158850000Y-50214286D01*
X158778571Y-50071429D01*
X158707143Y-50000000D01*
X158564285Y-49928571D01*
X158278571Y-49928571D01*
X158135714Y-50000000D01*
X157564285Y-49928571D02*
X157207142Y-50928571D01*
X156850000Y-49928571D02*
X157207142Y-50928571D01*
X157350000Y-51285714D01*
X157421428Y-51357143D01*
X157564285Y-51428571D01*
X155135714Y-50928571D02*
X155135714Y-49428571D01*
X154278571Y-50928571D02*
X154921428Y-50071429D01*
X154278571Y-49428571D02*
X155135714Y-50285714D01*
X153635714Y-50928571D02*
X153635714Y-49928571D01*
X153635714Y-49428571D02*
X153707143Y-49500000D01*
X153635714Y-49571429D01*
X153564286Y-49500000D01*
X153635714Y-49428571D01*
X153635714Y-49571429D01*
X152921428Y-49928571D02*
X152921428Y-50928571D01*
X152921428Y-50071429D02*
X152850000Y-50000000D01*
X152707142Y-49928571D01*
X152492857Y-49928571D01*
X152350000Y-50000000D01*
X152278571Y-50142857D01*
X152278571Y-50928571D01*
X150921428Y-49928571D02*
X150921428Y-51142857D01*
X150992857Y-51285714D01*
X151064285Y-51357143D01*
X151207142Y-51428571D01*
X151421428Y-51428571D01*
X151564285Y-51357143D01*
X150921428Y-50857143D02*
X151064285Y-50928571D01*
X151349999Y-50928571D01*
X151492857Y-50857143D01*
X151564285Y-50785714D01*
X151635714Y-50642857D01*
X151635714Y-50214286D01*
X151564285Y-50071429D01*
X151492857Y-50000000D01*
X151349999Y-49928571D01*
X151064285Y-49928571D01*
X150921428Y-50000000D01*
X149564285Y-50928571D02*
X149564285Y-49428571D01*
X149564285Y-50857143D02*
X149707142Y-50928571D01*
X149992856Y-50928571D01*
X150135714Y-50857143D01*
X150207142Y-50785714D01*
X150278571Y-50642857D01*
X150278571Y-50214286D01*
X150207142Y-50071429D01*
X150135714Y-50000000D01*
X149992856Y-49928571D01*
X149707142Y-49928571D01*
X149564285Y-50000000D01*
X148635713Y-50928571D02*
X148778571Y-50857143D01*
X148849999Y-50785714D01*
X148921428Y-50642857D01*
X148921428Y-50214286D01*
X148849999Y-50071429D01*
X148778571Y-50000000D01*
X148635713Y-49928571D01*
X148421428Y-49928571D01*
X148278571Y-50000000D01*
X148207142Y-50071429D01*
X148135713Y-50214286D01*
X148135713Y-50642857D01*
X148207142Y-50785714D01*
X148278571Y-50857143D01*
X148421428Y-50928571D01*
X148635713Y-50928571D01*
X147492856Y-50928571D02*
X147492856Y-49928571D01*
X147492856Y-50071429D02*
X147421428Y-50000000D01*
X147278570Y-49928571D01*
X147064285Y-49928571D01*
X146921428Y-50000000D01*
X146849999Y-50142857D01*
X146849999Y-50928571D01*
X146849999Y-50142857D02*
X146778570Y-50000000D01*
X146635713Y-49928571D01*
X146421428Y-49928571D01*
X146278570Y-50000000D01*
X146207142Y-50142857D01*
X146207142Y-50928571D01*
D12*
X173100000Y-59200000D02*
X173100000Y-58300000D01*
X173450000Y-58900000D02*
X173100000Y-59200000D01*
X173450000Y-58800000D02*
X173450000Y-58900000D01*
X173550000Y-58800000D02*
X173450000Y-58800000D01*
X173550000Y-58950000D02*
X173550000Y-58800000D01*
X173350000Y-58950000D02*
X173550000Y-58950000D01*
X173350000Y-58900000D02*
X173350000Y-58950000D01*
X173350000Y-58700000D02*
X173350000Y-58900000D01*
X173650000Y-58700000D02*
X173350000Y-58700000D01*
X173650000Y-59050000D02*
X173650000Y-58700000D01*
X173250000Y-59050000D02*
X173650000Y-59050000D01*
X173250000Y-59000000D02*
X173250000Y-59050000D01*
X173250000Y-58600000D02*
X173250000Y-59000000D01*
X173750000Y-58600000D02*
X173250000Y-58600000D01*
X173750000Y-59150000D02*
X173750000Y-58600000D01*
X173150000Y-59150000D02*
X173750000Y-59150000D01*
X173150000Y-58450000D02*
X173150000Y-59150000D01*
X173850000Y-58450000D02*
X173150000Y-58450000D01*
X173850000Y-59300000D02*
X173850000Y-58450000D01*
X173000000Y-59300000D02*
X173850000Y-59300000D01*
X173000000Y-58300000D02*
X173000000Y-59300000D01*
X173950000Y-58300000D02*
X173000000Y-58300000D01*
X173950000Y-59400000D02*
X173950000Y-58300000D01*
X172850000Y-59400000D02*
X173950000Y-59400000D01*
X172850000Y-58200000D02*
X172850000Y-59400000D01*
X174050000Y-58200000D02*
X172850000Y-58200000D01*
X174050000Y-59500000D02*
X174050000Y-58200000D01*
X172750000Y-59500000D02*
X174050000Y-59500000D01*
X172750000Y-58200000D02*
X172750000Y-59500000D01*
X171150000Y-58850000D02*
X171150000Y-58950000D01*
X171050000Y-58850000D02*
X171150000Y-58850000D01*
X171050000Y-58700000D02*
X171050000Y-58850000D01*
X171250000Y-58700000D02*
X171050000Y-58700000D01*
X171250000Y-59000000D02*
X171250000Y-58700000D01*
X170950000Y-59000000D02*
X171250000Y-59000000D01*
X170950000Y-58600000D02*
X170950000Y-59000000D01*
X171350000Y-58600000D02*
X170950000Y-58600000D01*
X171350000Y-59100000D02*
X171350000Y-58600000D01*
X170850000Y-59100000D02*
X171350000Y-59100000D01*
X170850000Y-58450000D02*
X170850000Y-59100000D01*
X170950000Y-58450000D02*
X170850000Y-58450000D01*
X171450000Y-58450000D02*
X170950000Y-58450000D01*
X171450000Y-59200000D02*
X171450000Y-58450000D01*
X170750000Y-59200000D02*
X171450000Y-59200000D01*
X170750000Y-58400000D02*
X170750000Y-59200000D01*
X171550000Y-58400000D02*
X170750000Y-58400000D01*
X171550000Y-59300000D02*
X171550000Y-58400000D01*
X170650000Y-59300000D02*
X171550000Y-59300000D01*
X170650000Y-58300000D02*
X170650000Y-59300000D01*
X171650000Y-58300000D02*
X170650000Y-58300000D01*
X171650000Y-59400000D02*
X171650000Y-58300000D01*
X170550000Y-59400000D02*
X171650000Y-59400000D01*
X170550000Y-58200000D02*
X170550000Y-59400000D01*
X171750000Y-58200000D02*
X170550000Y-58200000D01*
X171750000Y-59500000D02*
X171750000Y-58200000D01*
X170450000Y-59500000D02*
X171750000Y-59500000D01*
X170450000Y-58200000D02*
X170450000Y-59500000D01*
X168600000Y-58950000D02*
X168550000Y-58900000D01*
X168800000Y-58950000D02*
X168600000Y-58950000D01*
X168800000Y-58800000D02*
X168800000Y-58950000D01*
X168450000Y-58800000D02*
X168800000Y-58800000D01*
X168450000Y-59050000D02*
X168450000Y-58800000D01*
X168900000Y-59050000D02*
X168450000Y-59050000D01*
X168900000Y-58700000D02*
X168900000Y-59050000D01*
X168350000Y-58700000D02*
X168900000Y-58700000D01*
X168350000Y-59150000D02*
X168350000Y-58700000D01*
X169000000Y-59150000D02*
X168350000Y-59150000D01*
X169000000Y-58600000D02*
X169000000Y-59150000D01*
X168250000Y-58600000D02*
X169000000Y-58600000D01*
X168250000Y-59300000D02*
X168250000Y-58600000D01*
X169050000Y-59300000D02*
X168250000Y-59300000D01*
X169050000Y-59250000D02*
X169050000Y-59300000D01*
X169150000Y-59300000D02*
X169050000Y-59250000D01*
X169100000Y-59250000D02*
X169150000Y-59300000D01*
X169100000Y-58500000D02*
X169100000Y-59250000D01*
X169200000Y-58500000D02*
X169100000Y-58500000D01*
X168150000Y-58500000D02*
X169200000Y-58500000D01*
X168150000Y-59400000D02*
X168150000Y-58500000D01*
X169250000Y-59400000D02*
X168150000Y-59400000D01*
X169250000Y-58400000D02*
X169250000Y-59400000D01*
X169300000Y-58400000D02*
X169250000Y-58400000D01*
X168050000Y-58400000D02*
X169300000Y-58400000D01*
X168050000Y-58250000D02*
X168050000Y-58400000D01*
X168050000Y-59500000D02*
X168050000Y-58250000D01*
X169350000Y-59500000D02*
X168050000Y-59500000D01*
X169350000Y-58250000D02*
X169350000Y-59500000D01*
X168100000Y-58250000D02*
X169350000Y-58250000D01*
X166500000Y-58850000D02*
X166600000Y-58850000D01*
X166300000Y-58850000D02*
X166500000Y-58850000D01*
X166300000Y-58950000D02*
X166300000Y-58850000D01*
X166600000Y-58950000D02*
X166300000Y-58950000D01*
X166600000Y-58750000D02*
X166600000Y-58950000D01*
X166550000Y-58750000D02*
X166600000Y-58750000D01*
X166200000Y-58750000D02*
X166550000Y-58750000D01*
X166200000Y-59100000D02*
X166200000Y-58750000D01*
X166600000Y-59100000D02*
X166200000Y-59100000D01*
X166700000Y-59050000D02*
X166700000Y-59100000D01*
X166700000Y-58650000D02*
X166700000Y-59050000D01*
X166100000Y-58650000D02*
X166700000Y-58650000D01*
X166100000Y-59200000D02*
X166100000Y-58650000D01*
X166800000Y-59200000D02*
X166100000Y-59200000D01*
X166800000Y-58550000D02*
X166800000Y-59200000D01*
X166000000Y-58550000D02*
X166800000Y-58550000D01*
X166000000Y-59300000D02*
X166000000Y-58550000D01*
X166900000Y-59300000D02*
X166000000Y-59300000D01*
X166900000Y-58450000D02*
X166900000Y-59300000D01*
X165900000Y-58450000D02*
X166900000Y-58450000D01*
X165900000Y-59400000D02*
X165900000Y-58450000D01*
X167000000Y-59400000D02*
X165900000Y-59400000D01*
X167000000Y-58350000D02*
X167000000Y-59400000D01*
X165800000Y-58350000D02*
X167000000Y-58350000D01*
X165800000Y-59500000D02*
X165800000Y-58350000D01*
X167100000Y-59500000D02*
X165800000Y-59500000D01*
X167100000Y-58250000D02*
X167100000Y-59500000D01*
X165800000Y-58250000D02*
X167100000Y-58250000D01*
X172650000Y-58100000D02*
X172650000Y-59600000D01*
X174150000Y-58100000D02*
X172650000Y-58100000D01*
X174150000Y-59600000D02*
X174150000Y-58100000D01*
X172650000Y-59600000D02*
X174150000Y-59600000D01*
X170350000Y-58100000D02*
X170350000Y-59600000D01*
X171850000Y-58100000D02*
X170350000Y-58100000D01*
X171850000Y-59600000D02*
X171850000Y-58100000D01*
X170350000Y-59600000D02*
X171850000Y-59600000D01*
X167950000Y-58100000D02*
X167950000Y-59600000D01*
X169450000Y-58100000D02*
X167950000Y-58100000D01*
X169450000Y-59600000D02*
X169450000Y-58100000D01*
X167950000Y-59600000D02*
X169450000Y-59600000D01*
X165700000Y-58100000D02*
X165700000Y-59600000D01*
X167200000Y-58100000D02*
X165700000Y-58100000D01*
X167200000Y-59600000D02*
X167200000Y-58100000D01*
X165700000Y-59600000D02*
X167200000Y-59600000D01*
D11*
X165453571Y-61342857D02*
X165453571Y-62200000D01*
X166953571Y-61771429D02*
X165453571Y-61771429D01*
X166167857Y-62700000D02*
X166167857Y-63200000D01*
X166953571Y-63414286D02*
X166953571Y-62700000D01*
X165453571Y-62700000D01*
X165453571Y-63414286D01*
X166882143Y-63985714D02*
X166953571Y-64200000D01*
X166953571Y-64557143D01*
X166882143Y-64700000D01*
X166810714Y-64771429D01*
X166667857Y-64842857D01*
X166525000Y-64842857D01*
X166382143Y-64771429D01*
X166310714Y-64700000D01*
X166239286Y-64557143D01*
X166167857Y-64271429D01*
X166096429Y-64128571D01*
X166025000Y-64057143D01*
X165882143Y-63985714D01*
X165739286Y-63985714D01*
X165596429Y-64057143D01*
X165525000Y-64128571D01*
X165453571Y-64271429D01*
X165453571Y-64628571D01*
X165525000Y-64842857D01*
X165453571Y-65271428D02*
X165453571Y-66128571D01*
X166953571Y-65700000D02*
X165453571Y-65700000D01*
X169360714Y-62414286D02*
X169432143Y-62342857D01*
X169503571Y-62128571D01*
X169503571Y-61985714D01*
X169432143Y-61771429D01*
X169289286Y-61628571D01*
X169146429Y-61557143D01*
X168860714Y-61485714D01*
X168646429Y-61485714D01*
X168360714Y-61557143D01*
X168217857Y-61628571D01*
X168075000Y-61771429D01*
X168003571Y-61985714D01*
X168003571Y-62128571D01*
X168075000Y-62342857D01*
X168146429Y-62414286D01*
X169075000Y-62985714D02*
X169075000Y-63700000D01*
X169503571Y-62842857D02*
X168003571Y-63342857D01*
X169503571Y-63842857D01*
X169503571Y-65057143D02*
X169503571Y-64342857D01*
X168003571Y-64342857D01*
X172053571Y-61557143D02*
X170553571Y-61557143D01*
X170553571Y-62128571D01*
X170625000Y-62271429D01*
X170696429Y-62342857D01*
X170839286Y-62414286D01*
X171053571Y-62414286D01*
X171196429Y-62342857D01*
X171267857Y-62271429D01*
X171339286Y-62128571D01*
X171339286Y-61557143D01*
X172053571Y-63914286D02*
X171339286Y-63414286D01*
X172053571Y-63057143D02*
X170553571Y-63057143D01*
X170553571Y-63628571D01*
X170625000Y-63771429D01*
X170696429Y-63842857D01*
X170839286Y-63914286D01*
X171053571Y-63914286D01*
X171196429Y-63842857D01*
X171267857Y-63771429D01*
X171339286Y-63628571D01*
X171339286Y-63057143D01*
X171267857Y-64557143D02*
X171267857Y-65057143D01*
X172053571Y-65271429D02*
X172053571Y-64557143D01*
X170553571Y-64557143D01*
X170553571Y-65271429D01*
X172053571Y-65914286D02*
X170553571Y-65914286D01*
X170553571Y-66485714D01*
X170625000Y-66628572D01*
X170696429Y-66700000D01*
X170839286Y-66771429D01*
X171053571Y-66771429D01*
X171196429Y-66700000D01*
X171267857Y-66628572D01*
X171339286Y-66485714D01*
X171339286Y-65914286D01*
X172053571Y-68271429D02*
X171339286Y-67771429D01*
X172053571Y-67414286D02*
X170553571Y-67414286D01*
X170553571Y-67985714D01*
X170625000Y-68128572D01*
X170696429Y-68200000D01*
X170839286Y-68271429D01*
X171053571Y-68271429D01*
X171196429Y-68200000D01*
X171267857Y-68128572D01*
X171339286Y-67985714D01*
X171339286Y-67414286D01*
X170553571Y-69200000D02*
X170553571Y-69485714D01*
X170625000Y-69628572D01*
X170767857Y-69771429D01*
X171053571Y-69842857D01*
X171553571Y-69842857D01*
X171839286Y-69771429D01*
X171982143Y-69628572D01*
X172053571Y-69485714D01*
X172053571Y-69200000D01*
X171982143Y-69057143D01*
X171839286Y-68914286D01*
X171553571Y-68842857D01*
X171053571Y-68842857D01*
X170767857Y-68914286D01*
X170625000Y-69057143D01*
X170553571Y-69200000D01*
X172053571Y-70485715D02*
X170553571Y-70485715D01*
X170553571Y-70842858D01*
X170625000Y-71057143D01*
X170767857Y-71200001D01*
X170910714Y-71271429D01*
X171196429Y-71342858D01*
X171410714Y-71342858D01*
X171696429Y-71271429D01*
X171839286Y-71200001D01*
X171982143Y-71057143D01*
X172053571Y-70842858D01*
X172053571Y-70485715D01*
X174603571Y-61557143D02*
X173103571Y-61557143D01*
X173103571Y-62128571D01*
X173175000Y-62271429D01*
X173246429Y-62342857D01*
X173389286Y-62414286D01*
X173603571Y-62414286D01*
X173746429Y-62342857D01*
X173817857Y-62271429D01*
X173889286Y-62128571D01*
X173889286Y-61557143D01*
X174603571Y-63914286D02*
X173889286Y-63414286D01*
X174603571Y-63057143D02*
X173103571Y-63057143D01*
X173103571Y-63628571D01*
X173175000Y-63771429D01*
X173246429Y-63842857D01*
X173389286Y-63914286D01*
X173603571Y-63914286D01*
X173746429Y-63842857D01*
X173817857Y-63771429D01*
X173889286Y-63628571D01*
X173889286Y-63057143D01*
X173103571Y-64842857D02*
X173103571Y-65128571D01*
X173175000Y-65271429D01*
X173317857Y-65414286D01*
X173603571Y-65485714D01*
X174103571Y-65485714D01*
X174389286Y-65414286D01*
X174532143Y-65271429D01*
X174603571Y-65128571D01*
X174603571Y-64842857D01*
X174532143Y-64700000D01*
X174389286Y-64557143D01*
X174103571Y-64485714D01*
X173603571Y-64485714D01*
X173317857Y-64557143D01*
X173175000Y-64700000D01*
X173103571Y-64842857D01*
X174603571Y-66128572D02*
X173103571Y-66128572D01*
X173103571Y-66485715D01*
X173175000Y-66700000D01*
X173317857Y-66842858D01*
X173460714Y-66914286D01*
X173746429Y-66985715D01*
X173960714Y-66985715D01*
X174246429Y-66914286D01*
X174389286Y-66842858D01*
X174532143Y-66700000D01*
X174603571Y-66485715D01*
X174603571Y-66128572D01*
X161142856Y-52342857D02*
X161642856Y-52342857D01*
X161642856Y-53128571D02*
X161642856Y-51628571D01*
X160928570Y-51628571D01*
X160357142Y-53128571D02*
X160357142Y-52128571D01*
X160357142Y-51628571D02*
X160428571Y-51700000D01*
X160357142Y-51771429D01*
X160285714Y-51700000D01*
X160357142Y-51628571D01*
X160357142Y-51771429D01*
X159642856Y-53128571D02*
X159642856Y-52128571D01*
X159642856Y-52414286D02*
X159571428Y-52271429D01*
X159499999Y-52200000D01*
X159357142Y-52128571D01*
X159214285Y-52128571D01*
X158142857Y-53057143D02*
X158285714Y-53128571D01*
X158571428Y-53128571D01*
X158714285Y-53057143D01*
X158785714Y-52914286D01*
X158785714Y-52342857D01*
X158714285Y-52200000D01*
X158571428Y-52128571D01*
X158285714Y-52128571D01*
X158142857Y-52200000D01*
X158071428Y-52342857D01*
X158071428Y-52485714D01*
X158785714Y-52628571D01*
X157642857Y-52128571D02*
X157071428Y-52128571D01*
X157428571Y-53128571D02*
X157428571Y-51842857D01*
X157357143Y-51700000D01*
X157214285Y-51628571D01*
X157071428Y-51628571D01*
X156357142Y-53128571D02*
X156500000Y-53057143D01*
X156571428Y-52914286D01*
X156571428Y-51628571D01*
X155928571Y-52128571D02*
X155571428Y-53128571D01*
X155214286Y-52128571D02*
X155571428Y-53128571D01*
X155714286Y-53485714D01*
X155785714Y-53557143D01*
X155928571Y-53628571D01*
X153714286Y-51628571D02*
X153214286Y-53128571D01*
X152714286Y-51628571D01*
X152285715Y-51771429D02*
X152214286Y-51700000D01*
X152071429Y-51628571D01*
X151714286Y-51628571D01*
X151571429Y-51700000D01*
X151500000Y-51771429D01*
X151428572Y-51914286D01*
X151428572Y-52057143D01*
X151500000Y-52271429D01*
X152357143Y-53128571D01*
X151428572Y-53128571D01*
X150785715Y-52985714D02*
X150714287Y-53057143D01*
X150785715Y-53128571D01*
X150857144Y-53057143D01*
X150785715Y-52985714D01*
X150785715Y-53128571D01*
X149285715Y-53128571D02*
X150142858Y-53128571D01*
X149714286Y-53128571D02*
X149714286Y-51628571D01*
X149857143Y-51842857D01*
X150000001Y-51985714D01*
X150142858Y-52057143D01*
X163935713Y-71228571D02*
X164649999Y-71228571D01*
X164721428Y-71942857D01*
X164649999Y-71871429D01*
X164507142Y-71800000D01*
X164149999Y-71800000D01*
X164007142Y-71871429D01*
X163935713Y-71942857D01*
X163864285Y-72085714D01*
X163864285Y-72442857D01*
X163935713Y-72585714D01*
X164007142Y-72657143D01*
X164149999Y-72728571D01*
X164507142Y-72728571D01*
X164649999Y-72657143D01*
X164721428Y-72585714D01*
X163435714Y-71228571D02*
X162935714Y-72728571D01*
X162435714Y-71228571D01*
X165507142Y-73778571D02*
X164578571Y-73778571D01*
X165078571Y-74350000D01*
X164864285Y-74350000D01*
X164721428Y-74421429D01*
X164649999Y-74492857D01*
X164578571Y-74635714D01*
X164578571Y-74992857D01*
X164649999Y-75135714D01*
X164721428Y-75207143D01*
X164864285Y-75278571D01*
X165292857Y-75278571D01*
X165435714Y-75207143D01*
X165507142Y-75135714D01*
X164150000Y-73778571D02*
X163650000Y-75278571D01*
X163150000Y-73778571D01*
X162792857Y-73778571D02*
X161864286Y-73778571D01*
X162364286Y-74350000D01*
X162150000Y-74350000D01*
X162007143Y-74421429D01*
X161935714Y-74492857D01*
X161864286Y-74635714D01*
X161864286Y-74992857D01*
X161935714Y-75135714D01*
X162007143Y-75207143D01*
X162150000Y-75278571D01*
X162578572Y-75278571D01*
X162721429Y-75207143D01*
X162792857Y-75135714D01*
X166221428Y-77400000D02*
X165507142Y-77400000D01*
X166364285Y-77828571D02*
X165864285Y-76328571D01*
X165364285Y-77828571D01*
X164864285Y-76328571D02*
X164864285Y-77542857D01*
X164792857Y-77685714D01*
X164721428Y-77757143D01*
X164578571Y-77828571D01*
X164292857Y-77828571D01*
X164149999Y-77757143D01*
X164078571Y-77685714D01*
X164007142Y-77542857D01*
X164007142Y-76328571D01*
X163435713Y-76328571D02*
X162435713Y-77828571D01*
X162435713Y-76328571D02*
X163435713Y-77828571D01*
X161078571Y-77828571D02*
X161935714Y-77828571D01*
X161507142Y-77828571D02*
X161507142Y-76328571D01*
X161649999Y-76542857D01*
X161792857Y-76685714D01*
X161935714Y-76757143D01*
X166221428Y-79950000D02*
X165507142Y-79950000D01*
X166364285Y-80378571D02*
X165864285Y-78878571D01*
X165364285Y-80378571D01*
X164864285Y-78878571D02*
X164864285Y-80092857D01*
X164792857Y-80235714D01*
X164721428Y-80307143D01*
X164578571Y-80378571D01*
X164292857Y-80378571D01*
X164149999Y-80307143D01*
X164078571Y-80235714D01*
X164007142Y-80092857D01*
X164007142Y-78878571D01*
X163435713Y-78878571D02*
X162435713Y-80378571D01*
X162435713Y-78878571D02*
X163435713Y-80378571D01*
X161935714Y-79021429D02*
X161864285Y-78950000D01*
X161721428Y-78878571D01*
X161364285Y-78878571D01*
X161221428Y-78950000D01*
X161149999Y-79021429D01*
X161078571Y-79164286D01*
X161078571Y-79307143D01*
X161149999Y-79521429D01*
X162007142Y-80378571D01*
X161078571Y-80378571D01*
X164792857Y-81500000D02*
X164935714Y-81428571D01*
X165150000Y-81428571D01*
X165364285Y-81500000D01*
X165507143Y-81642857D01*
X165578571Y-81785714D01*
X165650000Y-82071429D01*
X165650000Y-82285714D01*
X165578571Y-82571429D01*
X165507143Y-82714286D01*
X165364285Y-82857143D01*
X165150000Y-82928571D01*
X165007143Y-82928571D01*
X164792857Y-82857143D01*
X164721428Y-82785714D01*
X164721428Y-82285714D01*
X165007143Y-82285714D01*
X164078571Y-82928571D02*
X164078571Y-81428571D01*
X163221428Y-82928571D01*
X163221428Y-81428571D01*
X162507142Y-82928571D02*
X162507142Y-81428571D01*
X162149999Y-81428571D01*
X161935714Y-81500000D01*
X161792856Y-81642857D01*
X161721428Y-81785714D01*
X161649999Y-82071429D01*
X161649999Y-82285714D01*
X161721428Y-82571429D01*
X161792856Y-82714286D01*
X161935714Y-82857143D01*
X162149999Y-82928571D01*
X162507142Y-82928571D01*
D13*
X148270000Y-75365000D02*
X147635000Y-74730000D01*
X147635000Y-74730000D02*
X146365000Y-74730000D01*
X146365000Y-74730000D02*
X145730000Y-75365000D01*
X145730000Y-75365000D02*
X145730000Y-76635000D01*
X145730000Y-76635000D02*
X146365000Y-77270000D01*
X146365000Y-77270000D02*
X147635000Y-77270000D01*
X147635000Y-77270000D02*
X148270000Y-76635000D01*
X148270000Y-76635000D02*
X148270000Y-75365000D01*
D12*
X154795000Y-74650000D02*
X154320000Y-74650000D01*
X154320000Y-74650000D02*
X154320000Y-82950000D01*
X154320000Y-82950000D02*
X154795000Y-82950000D01*
X157045000Y-74650000D02*
X157520000Y-74650000D01*
X157520000Y-74650000D02*
X157520000Y-82950000D01*
X157520000Y-82950000D02*
X157045000Y-82950000D01*
X154020000Y-76500000D02*
X154020000Y-78500000D01*
D14*
X159904000Y-81816000D02*
X159904000Y-82324000D01*
X159904000Y-82324000D02*
X159396000Y-82324000D01*
X159396000Y-81816000D02*
X159396000Y-82324000D01*
X159904000Y-81816000D02*
X159396000Y-81816000D01*
X159904000Y-79276000D02*
X159904000Y-79784000D01*
X159904000Y-79784000D02*
X159396000Y-79784000D01*
X159396000Y-79276000D02*
X159396000Y-79784000D01*
X159904000Y-79276000D02*
X159396000Y-79276000D01*
X159904000Y-76736000D02*
X159904000Y-77244000D01*
X159904000Y-77244000D02*
X159396000Y-77244000D01*
X159396000Y-76736000D02*
X159396000Y-77244000D01*
X159904000Y-76736000D02*
X159396000Y-76736000D01*
X159904000Y-74196000D02*
X159904000Y-74704000D01*
X159904000Y-74704000D02*
X159396000Y-74704000D01*
X159396000Y-74196000D02*
X159396000Y-74704000D01*
X159904000Y-74196000D02*
X159396000Y-74196000D01*
X159904000Y-71656000D02*
X159904000Y-72164000D01*
X159904000Y-72164000D02*
X159396000Y-72164000D01*
X159396000Y-71656000D02*
X159396000Y-72164000D01*
X159904000Y-71656000D02*
X159396000Y-71656000D01*
D15*
X165677360Y-45260046D02*
X165677360Y-45859486D01*
X164478480Y-45260046D02*
X164478480Y-45859486D01*
D13*
X164970000Y-51565000D02*
X164335000Y-50930000D01*
X164335000Y-50930000D02*
X163065000Y-50930000D01*
X163065000Y-50930000D02*
X162430000Y-51565000D01*
X162430000Y-51565000D02*
X162430000Y-52835000D01*
X162430000Y-52835000D02*
X163065000Y-53470000D01*
X163065000Y-53470000D02*
X164335000Y-53470000D01*
X164335000Y-53470000D02*
X164970000Y-52835000D01*
X164970000Y-52835000D02*
X164970000Y-51565000D01*
D16*
X149170000Y-56050000D02*
X151830000Y-56050000D01*
X149170000Y-63730000D02*
X149170000Y-56050000D01*
X151830000Y-63730000D02*
X151830000Y-56050000D01*
X149170000Y-63730000D02*
X151830000Y-63730000D01*
X149170000Y-65000000D02*
X149170000Y-66330000D01*
X149170000Y-66330000D02*
X150500000Y-66330000D01*
M02*
