G04 #@! TF.FileFunction,Soldermask,Top*
%FSLAX46Y46*%
G04 Gerber Fmt 4.6, Leading zero omitted, Abs format (unit mm)*
G04 Created by KiCad (PCBNEW 4.0.7+dfsg1-1ubuntu2) date Sun Jul  1 16:56:56 2018*
%MOMM*%
%LPD*%
G01*
G04 APERTURE LIST*
%ADD10C,0.100000*%
%ADD11R,1.400000X1.400000*%
%ADD12C,2.279600*%
%ADD13R,1.240000X1.240000*%
%ADD14C,1.240000*%
%ADD15O,2.250000X1.250000*%
%ADD16R,1.598880X1.197560*%
%ADD17R,1.398220X1.499820*%
%ADD18R,1.499820X1.398220*%
%ADD19R,1.460000X1.050000*%
%ADD20C,3.600000*%
%ADD21R,2.051000X1.398220*%
%ADD22R,3.399740X1.598880*%
%ADD23R,1.670000X0.958800*%
%ADD24R,0.958800X1.670000*%
%ADD25C,2.082800*%
G04 APERTURE END LIST*
D10*
D11*
X175250000Y-70500000D03*
D12*
X152200000Y-73600000D03*
X152200000Y-71060000D03*
X152200000Y-68520000D03*
D13*
X155700000Y-77500000D03*
D14*
X156700000Y-78150000D03*
X155700000Y-78800000D03*
X156700000Y-79450000D03*
X155700000Y-80100000D03*
D15*
X155920000Y-75225000D03*
X155920000Y-82375000D03*
D16*
X165077920Y-44660606D03*
X165077920Y-46458926D03*
D17*
X162877920Y-44611406D03*
X162877920Y-46308126D03*
D18*
X168496720Y-47900000D03*
X166800000Y-47900000D03*
D12*
X163700000Y-52200000D03*
D19*
X162900000Y-47950000D03*
X162900000Y-48900000D03*
X162900000Y-49850000D03*
X165100000Y-49850000D03*
X165100000Y-47950000D03*
D20*
X150700000Y-78000000D03*
X172200000Y-51400000D03*
D21*
X145924440Y-51102340D03*
X145924440Y-54297660D03*
X151075560Y-54297660D03*
X151075560Y-51102340D03*
X142724440Y-56702340D03*
X142724440Y-59897660D03*
X147875560Y-59897660D03*
X147875560Y-56702340D03*
X142724440Y-62302340D03*
X142724440Y-65497660D03*
X147875560Y-65497660D03*
X147875560Y-62302340D03*
X144324440Y-68002340D03*
X144324440Y-71197660D03*
X149475560Y-71197660D03*
X149475560Y-68002340D03*
D11*
X153700000Y-54500000D03*
D22*
X162051920Y-56000520D03*
X162051920Y-58002040D03*
X162051920Y-60001020D03*
X162051920Y-62000000D03*
X162051920Y-63998980D03*
X162051920Y-65997960D03*
X162051920Y-67999480D03*
X177048080Y-67999480D03*
X177048080Y-65997960D03*
X177048080Y-63998980D03*
X177048080Y-62000000D03*
X177048080Y-60001020D03*
X177048080Y-58002040D03*
X177048080Y-56000520D03*
D23*
X162500000Y-72949700D03*
X162500000Y-73749800D03*
X162500000Y-74549900D03*
X162500000Y-75350000D03*
X162500000Y-76147560D03*
X162500000Y-76947660D03*
X162500000Y-77747760D03*
X162500000Y-78547860D03*
D24*
X163993520Y-80041380D03*
X164793620Y-80041380D03*
X165593720Y-80041380D03*
X166393820Y-80041380D03*
X167191380Y-80041380D03*
X167991480Y-80041380D03*
X168791580Y-80041380D03*
X169591680Y-80041380D03*
D23*
X171085200Y-78547860D03*
X171085200Y-77747760D03*
X171085200Y-76947660D03*
X171085200Y-76147560D03*
X171085200Y-75350000D03*
X171085200Y-74549900D03*
X171085200Y-73749800D03*
X171085200Y-72949700D03*
D24*
X169591680Y-71456180D03*
X168791580Y-71456180D03*
X167991480Y-71456180D03*
X167191380Y-71456180D03*
X166393820Y-71456180D03*
X165593720Y-71456180D03*
X164793620Y-71456180D03*
X163993520Y-71456180D03*
D25*
X150500000Y-65000000D03*
X150500000Y-62460000D03*
X150500000Y-59920000D03*
X150500000Y-57380000D03*
D11*
X173750000Y-70500000D03*
M02*
