%TF.GenerationSoftware,KiCad,Pcbnew,5.1.10-88a1d61d58~90~ubuntu20.04.1*%
%TF.CreationDate,2022-04-11T18:47:40-06:00*%
%TF.ProjectId,controller,636f6e74-726f-46c6-9c65-722e6b696361,rev?*%
%TF.SameCoordinates,Original*%
%TF.FileFunction,Copper,L2,Bot*%
%TF.FilePolarity,Positive*%
%FSLAX46Y46*%
G04 Gerber Fmt 4.6, Leading zero omitted, Abs format (unit mm)*
G04 Created by KiCad (PCBNEW 5.1.10-88a1d61d58~90~ubuntu20.04.1) date 2022-04-11 18:47:40*
%MOMM*%
%LPD*%
G01*
G04 APERTURE LIST*
%TA.AperFunction,ComponentPad*%
%ADD10C,1.800000*%
%TD*%
%TA.AperFunction,ComponentPad*%
%ADD11O,1.700000X1.700000*%
%TD*%
%TA.AperFunction,ComponentPad*%
%ADD12R,1.700000X1.700000*%
%TD*%
%TA.AperFunction,ComponentPad*%
%ADD13C,1.408000*%
%TD*%
%TA.AperFunction,ComponentPad*%
%ADD14C,2.250000*%
%TD*%
%TA.AperFunction,ComponentPad*%
%ADD15C,1.308000*%
%TD*%
%TA.AperFunction,ComponentPad*%
%ADD16C,2.750000*%
%TD*%
%TA.AperFunction,ViaPad*%
%ADD17C,1.000000*%
%TD*%
%TA.AperFunction,ViaPad*%
%ADD18C,0.600000*%
%TD*%
%TA.AperFunction,ViaPad*%
%ADD19C,0.800000*%
%TD*%
%TA.AperFunction,Conductor*%
%ADD20C,0.150000*%
%TD*%
%TA.AperFunction,Conductor*%
%ADD21C,0.250000*%
%TD*%
%TA.AperFunction,Conductor*%
%ADD22C,0.500000*%
%TD*%
%TA.AperFunction,Conductor*%
%ADD23C,1.000000*%
%TD*%
%TA.AperFunction,Conductor*%
%ADD24C,0.254000*%
%TD*%
%TA.AperFunction,Conductor*%
%ADD25C,0.100000*%
%TD*%
G04 APERTURE END LIST*
D10*
%TO.P,SW9,2*%
%TO.N,N/C*%
X68000000Y-155250000D03*
%TO.P,SW9,4*%
%TO.N,GND*%
X61500000Y-155250000D03*
%TO.P,SW9,1*%
%TO.N,Net-(R28-Pad2)*%
X68000000Y-150750000D03*
%TO.P,SW9,3*%
%TO.N,N/C*%
X61500000Y-150750000D03*
%TO.P,SW9,6*%
%TO.N,/BLED_8*%
X64750000Y-155900000D03*
%TO.P,SW9,5*%
%TO.N,+BATT*%
X64750000Y-150100000D03*
%TD*%
%TO.P,SW8,2*%
%TO.N,N/C*%
X88250000Y-155250000D03*
%TO.P,SW8,4*%
%TO.N,GND*%
X81750000Y-155250000D03*
%TO.P,SW8,1*%
%TO.N,Net-(R27-Pad1)*%
X88250000Y-150750000D03*
%TO.P,SW8,3*%
%TO.N,N/C*%
X81750000Y-150750000D03*
%TO.P,SW8,6*%
%TO.N,/BLED_7*%
X85000000Y-155900000D03*
%TO.P,SW8,5*%
%TO.N,+BATT*%
X85000000Y-150100000D03*
%TD*%
%TO.P,SW7,2*%
%TO.N,N/C*%
X128250000Y-155250000D03*
%TO.P,SW7,4*%
%TO.N,GND*%
X121750000Y-155250000D03*
%TO.P,SW7,1*%
%TO.N,/SW_ACTION*%
X128250000Y-150750000D03*
%TO.P,SW7,3*%
%TO.N,N/C*%
X121750000Y-150750000D03*
%TO.P,SW7,6*%
%TO.N,/BLED_6*%
X125000000Y-155900000D03*
%TO.P,SW7,5*%
%TO.N,+BATT*%
X125000000Y-150100000D03*
%TD*%
%TO.P,SW6,2*%
%TO.N,N/C*%
X178250000Y-142250000D03*
%TO.P,SW6,4*%
%TO.N,GND*%
X171750000Y-142250000D03*
%TO.P,SW6,1*%
%TO.N,Net-(R21-Pad2)*%
X178250000Y-137750000D03*
%TO.P,SW6,3*%
%TO.N,N/C*%
X171750000Y-137750000D03*
%TO.P,SW6,6*%
%TO.N,/BLED_5*%
X175000000Y-142900000D03*
%TO.P,SW6,5*%
%TO.N,+BATT*%
X175000000Y-137100000D03*
%TD*%
%TO.P,SW5,2*%
%TO.N,N/C*%
X178250000Y-132250000D03*
%TO.P,SW5,4*%
%TO.N,GND*%
X171750000Y-132250000D03*
%TO.P,SW5,1*%
%TO.N,Net-(R20-Pad1)*%
X178250000Y-127750000D03*
%TO.P,SW5,3*%
%TO.N,N/C*%
X171750000Y-127750000D03*
%TO.P,SW5,6*%
%TO.N,/BLED_4*%
X175000000Y-132900000D03*
%TO.P,SW5,5*%
%TO.N,+BATT*%
X175000000Y-127100000D03*
%TD*%
%TO.P,SW4,2*%
%TO.N,N/C*%
X178250000Y-122250000D03*
%TO.P,SW4,4*%
%TO.N,GND*%
X171750000Y-122250000D03*
%TO.P,SW4,1*%
%TO.N,/SW_RIGHT*%
X178250000Y-117750000D03*
%TO.P,SW4,3*%
%TO.N,N/C*%
X171750000Y-117750000D03*
%TO.P,SW4,6*%
%TO.N,/BLED_3*%
X175000000Y-122900000D03*
%TO.P,SW4,5*%
%TO.N,+BATT*%
X175000000Y-117100000D03*
%TD*%
%TO.P,SW3,2*%
%TO.N,N/C*%
X38250000Y-142250000D03*
%TO.P,SW3,4*%
%TO.N,GND*%
X31750000Y-142250000D03*
%TO.P,SW3,1*%
%TO.N,Net-(R5-Pad2)*%
X38250000Y-137750000D03*
%TO.P,SW3,3*%
%TO.N,N/C*%
X31750000Y-137750000D03*
%TO.P,SW3,6*%
%TO.N,/BLED_2*%
X35000000Y-142900000D03*
%TO.P,SW3,5*%
%TO.N,+BATT*%
X35000000Y-137100000D03*
%TD*%
%TO.P,SW2,2*%
%TO.N,N/C*%
X38250000Y-132250000D03*
%TO.P,SW2,4*%
%TO.N,GND*%
X31750000Y-132250000D03*
%TO.P,SW2,1*%
%TO.N,Net-(R4-Pad1)*%
X38250000Y-127750000D03*
%TO.P,SW2,3*%
%TO.N,N/C*%
X31750000Y-127750000D03*
%TO.P,SW2,6*%
%TO.N,/BLED_1*%
X35000000Y-132900000D03*
%TO.P,SW2,5*%
%TO.N,+BATT*%
X35000000Y-127100000D03*
%TD*%
%TO.P,SW1,2*%
%TO.N,N/C*%
X38250000Y-122250000D03*
%TO.P,SW1,4*%
%TO.N,GND*%
X31750000Y-122250000D03*
%TO.P,SW1,1*%
%TO.N,/SW_LEFT*%
X38250000Y-117750000D03*
%TO.P,SW1,3*%
%TO.N,N/C*%
X31750000Y-117750000D03*
%TO.P,SW1,6*%
%TO.N,/BLED_0*%
X35000000Y-122900000D03*
%TO.P,SW1,5*%
%TO.N,+BATT*%
X35000000Y-117100000D03*
%TD*%
D11*
%TO.P,J5,3*%
%TO.N,GND*%
X56680000Y-146400000D03*
%TO.P,J5,2*%
%TO.N,Net-(J5-Pad2)*%
X54140000Y-146400000D03*
D12*
%TO.P,J5,1*%
%TO.N,+BATT*%
X51600000Y-146400000D03*
%TD*%
D10*
%TO.P,J4,P$9*%
%TO.N,N/C*%
X65500000Y-99100000D03*
%TO.P,J4,P$8*%
X72500000Y-99100000D03*
D13*
%TO.P,J4,P$7*%
X66500000Y-101800000D03*
%TO.P,J4,P$6*%
X71500000Y-101800000D03*
%TD*%
D14*
%TO.P,S1,MOUNT2*%
%TO.N,N/C*%
X111100000Y-153000000D03*
%TO.P,S1,MOUNT1*%
X98900000Y-153000000D03*
D15*
%TO.P,S1,4*%
%TO.N,/SW_MODE*%
X109000000Y-153000000D03*
%TO.P,S1,3*%
%TO.N,Net-(R8-Pad1)*%
X107000000Y-153000000D03*
%TO.P,S1,1*%
%TO.N,Net-(R9-Pad2)*%
X101000000Y-153000000D03*
%TO.P,S1,2*%
%TO.N,GND*%
X105000000Y-153000000D03*
%TD*%
D16*
%TO.P,SW10,~*%
%TO.N,N/C*%
X47460000Y-99650000D03*
X52540000Y-99650000D03*
%TO.P,SW10,3*%
X45300000Y-112350000D03*
%TO.P,SW10,2*%
%TO.N,/BATT_DIRECT*%
X50000000Y-112350000D03*
%TO.P,SW10,1*%
%TO.N,+BATT*%
X54700000Y-112350000D03*
%TD*%
D11*
%TO.P,J3,4*%
%TO.N,/SWCLK*%
X92780000Y-99600000D03*
%TO.P,J3,3*%
%TO.N,/SWDIO*%
X95320000Y-99600000D03*
%TO.P,J3,2*%
%TO.N,GND*%
X97860000Y-99600000D03*
D12*
%TO.P,J3,1*%
%TO.N,VCC*%
X100400000Y-99600000D03*
%TD*%
D11*
%TO.P,J2,3*%
%TO.N,Net-(J2-Pad3)*%
X65000000Y-106920000D03*
%TO.P,J2,2*%
%TO.N,GND*%
X65000000Y-109460000D03*
D12*
%TO.P,J2,1*%
%TO.N,N/C*%
X65000000Y-112000000D03*
%TD*%
D11*
%TO.P,J1,5*%
%TO.N,GND*%
X129760000Y-99700000D03*
%TO.P,J1,4*%
%TO.N,VCC*%
X127220000Y-99700000D03*
%TO.P,J1,3*%
%TO.N,+BATT*%
X124680000Y-99700000D03*
%TO.P,J1,2*%
%TO.N,/AUX0*%
X122140000Y-99700000D03*
D12*
%TO.P,J1,1*%
%TO.N,/AUX1*%
X119600000Y-99700000D03*
%TD*%
D17*
%TO.N,*%
X161800000Y-110100000D03*
D18*
%TO.N,Net-(C1-Pad2)*%
X91200000Y-103950010D03*
X104600000Y-102925043D03*
D17*
%TO.N,GND*%
X159400000Y-92200000D03*
X162200000Y-92900000D03*
X162200000Y-94900000D03*
X162200000Y-96900000D03*
X162200000Y-98900000D03*
X162200000Y-100900000D03*
X162200000Y-102900000D03*
X162200000Y-104900000D03*
X162200000Y-106900000D03*
X162200000Y-108500000D03*
X134800000Y-115100000D03*
X139800000Y-115100000D03*
X144800000Y-115100000D03*
X149800000Y-115100000D03*
X154800000Y-115100000D03*
X160900000Y-115100000D03*
X157900000Y-110100000D03*
X152900000Y-110100000D03*
X147900000Y-110100000D03*
X142900000Y-110100000D03*
X137900000Y-110100000D03*
X134900000Y-105100000D03*
X139900000Y-105100000D03*
X143900000Y-105100000D03*
X149900000Y-105100000D03*
X160300000Y-105100000D03*
X155100000Y-105100000D03*
X134400000Y-99400000D03*
X140900000Y-100100000D03*
X146900000Y-100100000D03*
X151900000Y-100100000D03*
X156900000Y-100100000D03*
X158900000Y-95100000D03*
X153900000Y-95100000D03*
X148900000Y-95100000D03*
X144200000Y-94600000D03*
X151700000Y-91600000D03*
D19*
X49100000Y-118400000D03*
X59200000Y-118400000D03*
X69300000Y-118400000D03*
X79400000Y-118400000D03*
X89400000Y-118400000D03*
X99400000Y-118400000D03*
X109400000Y-118400000D03*
X119400000Y-118400000D03*
X129400000Y-118400000D03*
X139400000Y-118400000D03*
X149400000Y-118400000D03*
X159400000Y-118400000D03*
X160900000Y-131600000D03*
X150800000Y-131600000D03*
X140800000Y-131600000D03*
X130800000Y-131600000D03*
X121000000Y-131600000D03*
X110800000Y-131600000D03*
X100800000Y-131600000D03*
X90800000Y-131600000D03*
X81000000Y-131600000D03*
X71000000Y-131600000D03*
X61000000Y-131600000D03*
X51000000Y-131600000D03*
X49000000Y-138400000D03*
X59000000Y-138400000D03*
X69000000Y-138400000D03*
X79000000Y-138400000D03*
X89000000Y-138400000D03*
X99000000Y-138400000D03*
X109000000Y-138400000D03*
X119000000Y-138400000D03*
X129000000Y-138400000D03*
X139000000Y-138400000D03*
X149000000Y-138400000D03*
X159000000Y-138200000D03*
X160800000Y-154600000D03*
X151000000Y-154600000D03*
X141000000Y-154600000D03*
X171200000Y-148800000D03*
D18*
X169400000Y-117800000D03*
X166600000Y-117800000D03*
X144200000Y-101800000D03*
X144367500Y-98832500D03*
X144800000Y-97400000D03*
X93600000Y-102000000D03*
X97800000Y-102350033D03*
X98600000Y-105800000D03*
X105956061Y-106554545D03*
X62200000Y-112400000D03*
X57800000Y-110800000D03*
X51400000Y-110400000D03*
X42400000Y-120000000D03*
X46600000Y-149200000D03*
X78000000Y-151824990D03*
X129400000Y-152600000D03*
X106400000Y-148800000D03*
X69400000Y-108400000D03*
X77800000Y-108000000D03*
X75800000Y-110800000D03*
X100200000Y-114600000D03*
X82400000Y-114200000D03*
X79400000Y-114200000D03*
X77816447Y-113816447D03*
X105800000Y-102000000D03*
%TO.N,/SW_LEFT*%
X102200000Y-111400000D03*
X40600000Y-114600000D03*
%TO.N,/SW_RIGHT*%
X133800000Y-116200000D03*
X103959616Y-115051003D03*
%TO.N,/SW_ACTION*%
X92200000Y-152400000D03*
X95000000Y-130000000D03*
X103685073Y-119021268D03*
X103600000Y-116400000D03*
D19*
%TO.N,+BATT*%
X58900000Y-112900000D03*
D18*
X80400000Y-149400000D03*
X119800000Y-149400000D03*
%TO.N,/VBATT_DIV*%
X49600000Y-115400000D03*
X81400000Y-115800000D03*
X83800000Y-115600000D03*
X104941145Y-115733665D03*
%TO.N,VBUS*%
X67800000Y-106600000D03*
X72200000Y-106600000D03*
X82600000Y-98200000D03*
X73895878Y-98992625D03*
D17*
%TO.N,/ANTENNA*%
X174185000Y-90715000D03*
X168200000Y-92700000D03*
X174200000Y-92700000D03*
X168200000Y-94700000D03*
X174200000Y-94700000D03*
X168200000Y-96700000D03*
X174200000Y-96700000D03*
X168200000Y-98700000D03*
X174200000Y-98700000D03*
X168200000Y-100700000D03*
X174200000Y-100700000D03*
X168200000Y-102700000D03*
X174200000Y-102700000D03*
X168200000Y-104700000D03*
X174200000Y-104700000D03*
X168200000Y-106700000D03*
X174200000Y-106700000D03*
X168200000Y-108700000D03*
X174200000Y-108700000D03*
D18*
%TO.N,/AUX0*%
X109400000Y-108600000D03*
X122200000Y-108600000D03*
%TO.N,/AUX1*%
X109400000Y-107600000D03*
X119600000Y-107600000D03*
%TO.N,/LED_OUT*%
X88300000Y-102600000D03*
X101800000Y-102925043D03*
%TO.N,/BLED_0*%
X45200000Y-123200000D03*
%TO.N,/BLED_1*%
X43200000Y-134000000D03*
D19*
%TO.N,/BLED_3*%
X166200000Y-123400000D03*
%TO.N,/BLED_4*%
X167800000Y-133600000D03*
D18*
%TO.N,Net-(R20-Pad1)*%
X170000000Y-126200000D03*
%TO.N,Net-(R21-Pad2)*%
X170800000Y-135200000D03*
%TO.N,Net-(R25-Pad2)*%
X165900000Y-149600000D03*
X164700000Y-149500000D03*
%TO.N,Net-(R27-Pad1)*%
X71400000Y-152400000D03*
%TO.N,/DIO0*%
X135600000Y-108200000D03*
X110400000Y-108024990D03*
%TO.N,/NSS*%
X106400000Y-111200000D03*
X117400000Y-111200000D03*
%TO.N,/MISO*%
X133000000Y-109800000D03*
X107121586Y-110000020D03*
%TO.N,/MOSI*%
X107800000Y-109425010D03*
X137281849Y-106800011D03*
%TO.N,/SCK*%
X132400000Y-110400000D03*
X106213134Y-110275021D03*
%TO.N,/BOOT0*%
X94200000Y-104375010D03*
X109693406Y-103693406D03*
%TO.N,/USB+*%
X69000000Y-100400000D03*
X99200000Y-101775023D03*
%TO.N,/USB-*%
X70200000Y-100400000D03*
X99800000Y-101200000D03*
%TO.N,VCC*%
X143200000Y-94000000D03*
X143800000Y-100800000D03*
X80400000Y-110800000D03*
X92200000Y-111800000D03*
X84800000Y-116800000D03*
X90400000Y-103200000D03*
X90400000Y-111800000D03*
X96600000Y-100400000D03*
X95976990Y-103253936D03*
X107533558Y-105734887D03*
X109200000Y-105000000D03*
X127400000Y-105600000D03*
X42200000Y-115000000D03*
X76000000Y-115600000D03*
X76000000Y-116800000D03*
X76000000Y-122200000D03*
X75800000Y-129800000D03*
X75800000Y-141000000D03*
X112000000Y-148600000D03*
X111800000Y-144000000D03*
X133600000Y-115000000D03*
X103200000Y-114800000D03*
D19*
%TO.N,Net-(R35-Pad2)*%
X41300000Y-149300000D03*
X44000000Y-147900000D03*
%TD*%
D20*
%TO.N,Net-(C1-Pad2)*%
X91350010Y-103800000D02*
X95672050Y-103800000D01*
X103696105Y-103828938D02*
X104600000Y-102925043D01*
X95700988Y-103828938D02*
X103696105Y-103828938D01*
X91200000Y-103950010D02*
X91350010Y-103800000D01*
X95672050Y-103800000D02*
X95700988Y-103828938D01*
D21*
%TO.N,GND*%
X169400000Y-117800000D02*
X166600000Y-117800000D01*
D22*
X144200000Y-101800000D02*
X144667499Y-101332501D01*
X144667499Y-101332501D02*
X144667499Y-99132499D01*
X144667499Y-99132499D02*
X144367500Y-98832500D01*
X93600000Y-102000000D02*
X96220056Y-102000000D01*
X96706087Y-102350033D02*
X97800000Y-102350033D01*
X96556087Y-102200033D02*
X96706087Y-102350033D01*
X96420089Y-102200033D02*
X96556087Y-102200033D01*
X96220056Y-102000000D02*
X96420089Y-102200033D01*
X65000000Y-109600000D02*
X62200000Y-112400000D01*
X65000000Y-109460000D02*
X65000000Y-109600000D01*
D20*
X59400000Y-112400000D02*
X57800000Y-110800000D01*
X62200000Y-112400000D02*
X59400000Y-112400000D01*
X57400000Y-110400000D02*
X51400000Y-110400000D01*
X57800000Y-110800000D02*
X57400000Y-110400000D01*
D22*
X68340000Y-109460000D02*
X69400000Y-108400000D01*
X65000000Y-109460000D02*
X68340000Y-109460000D01*
X77400000Y-108400000D02*
X77800000Y-108000000D01*
X75400000Y-110400000D02*
X75800000Y-110800000D01*
X75400000Y-108400000D02*
X75400000Y-110400000D01*
X75400000Y-108400000D02*
X77400000Y-108400000D01*
X69400000Y-108400000D02*
X75400000Y-108400000D01*
D21*
X99800000Y-114200000D02*
X82400000Y-114200000D01*
X100200000Y-114600000D02*
X99800000Y-114200000D01*
X79400000Y-114200000D02*
X78200000Y-114200000D01*
X78200000Y-114200000D02*
X77816447Y-113816447D01*
X78000000Y-151824990D02*
X78000000Y-151200000D01*
D20*
X97800000Y-102350033D02*
X105449967Y-102350033D01*
X105449967Y-102350033D02*
X105800000Y-102000000D01*
D21*
X99354545Y-106554545D02*
X98600000Y-105800000D01*
X105956061Y-106554545D02*
X99354545Y-106554545D01*
D20*
%TO.N,/SW_LEFT*%
X102200000Y-111400000D02*
X100800000Y-110000000D01*
X67200000Y-110800000D02*
X67200000Y-111995002D01*
X77451004Y-110000000D02*
X76076002Y-111375002D01*
X100800000Y-110000000D02*
X77451004Y-110000000D01*
X75523998Y-111375002D02*
X74148996Y-110000000D01*
X74148996Y-110000000D02*
X68000000Y-110000000D01*
X68000000Y-110000000D02*
X67200000Y-110800000D01*
X67200000Y-111995002D02*
X64895001Y-114300001D01*
X40899999Y-114300001D02*
X40600000Y-114600000D01*
X64895001Y-114300001D02*
X40899999Y-114300001D01*
X76076002Y-111375002D02*
X75523998Y-111375002D01*
%TO.N,/SW_RIGHT*%
X131165725Y-113989989D02*
X105020630Y-113989989D01*
X105020630Y-113989989D02*
X103959616Y-115051003D01*
X133375736Y-116200000D02*
X131165725Y-113989989D01*
X133800000Y-116200000D02*
X133375736Y-116200000D01*
%TO.N,/SW_ACTION*%
X127350001Y-151649999D02*
X128250000Y-150750000D01*
X123610999Y-151649999D02*
X127350001Y-151649999D01*
X120860997Y-154400001D02*
X123610999Y-151649999D01*
X94200001Y-154400001D02*
X120860997Y-154400001D01*
X92200000Y-152400000D02*
X94200001Y-154400001D01*
X92200000Y-152400000D02*
X93600000Y-152400000D01*
X93600000Y-152400000D02*
X94800000Y-151200000D01*
X94800000Y-130200000D02*
X95000000Y-130000000D01*
X94800000Y-151200000D02*
X94800000Y-130200000D01*
X103685073Y-116485073D02*
X103600000Y-116400000D01*
X103685073Y-119021268D02*
X103685073Y-116485073D01*
D22*
%TO.N,+BATT*%
X58350000Y-112350000D02*
X58900000Y-112900000D01*
X54700000Y-112350000D02*
X58350000Y-112350000D01*
D21*
X84300000Y-149400000D02*
X80400000Y-149400000D01*
X85000000Y-150100000D02*
X84300000Y-149400000D01*
D22*
X124300000Y-149400000D02*
X119800000Y-149400000D01*
X125000000Y-150100000D02*
X124300000Y-149400000D01*
D20*
%TO.N,/VBATT_DIV*%
X81024998Y-116175002D02*
X81100001Y-116099999D01*
X50375002Y-116175002D02*
X81024998Y-116175002D01*
X49600000Y-115400000D02*
X50375002Y-116175002D01*
X81100001Y-116099999D02*
X81400000Y-115800000D01*
X84224264Y-115600000D02*
X84357929Y-115733665D01*
X83800000Y-115600000D02*
X84224264Y-115600000D01*
X84357929Y-115733665D02*
X104941145Y-115733665D01*
D22*
%TO.N,VBUS*%
X67800000Y-106600000D02*
X72200000Y-106600000D01*
D20*
X74688503Y-98200000D02*
X73895878Y-98992625D01*
X82600000Y-98200000D02*
X74688503Y-98200000D01*
D23*
%TO.N,/ANTENNA*%
X174185000Y-90715000D02*
X173200000Y-91700000D01*
X173200000Y-91700000D02*
X169200000Y-91700000D01*
X169200000Y-91700000D02*
X168200000Y-92700000D01*
X174200000Y-92700000D02*
X173200000Y-93700000D01*
X173200000Y-93700000D02*
X169200000Y-93700000D01*
X169200000Y-93700000D02*
X168200000Y-94700000D01*
X174200000Y-94700000D02*
X173200000Y-95700000D01*
X173200000Y-95700000D02*
X169200000Y-95700000D01*
X169200000Y-95700000D02*
X168200000Y-96700000D01*
X174200000Y-96700000D02*
X173200000Y-97700000D01*
X173200000Y-97700000D02*
X169200000Y-97700000D01*
X169200000Y-97700000D02*
X168200000Y-98700000D01*
X174200000Y-98700000D02*
X173200000Y-99700000D01*
X173200000Y-99700000D02*
X169200000Y-99700000D01*
X169200000Y-99700000D02*
X168200000Y-100700000D01*
X174200000Y-100700000D02*
X173200000Y-101700000D01*
X173200000Y-101700000D02*
X169200000Y-101700000D01*
X169200000Y-101700000D02*
X168200000Y-102700000D01*
X174200000Y-102700000D02*
X173200000Y-103700000D01*
X173200000Y-103700000D02*
X169200000Y-103700000D01*
X169200000Y-103700000D02*
X168200000Y-104700000D01*
X174200000Y-104700000D02*
X173200000Y-105700000D01*
X173200000Y-105700000D02*
X169200000Y-105700000D01*
X169200000Y-105700000D02*
X168200000Y-106700000D01*
X174200000Y-106700000D02*
X173200000Y-107700000D01*
X173200000Y-107700000D02*
X169200000Y-107700000D01*
X169200000Y-107700000D02*
X168200000Y-108700000D01*
D20*
%TO.N,/AUX0*%
X109400000Y-108600000D02*
X122200000Y-108600000D01*
%TO.N,/AUX1*%
X119300001Y-107300001D02*
X119600000Y-107600000D01*
X109400000Y-107600000D02*
X109699999Y-107300001D01*
X109699999Y-107300001D02*
X119300001Y-107300001D01*
%TO.N,/LED_OUT*%
X88300000Y-102600000D02*
X96077579Y-102600000D01*
X96338621Y-102725044D02*
X96538620Y-102925043D01*
X96202623Y-102725044D02*
X96338621Y-102725044D01*
X96538620Y-102925043D02*
X101800000Y-102925043D01*
X96077579Y-102600000D02*
X96202623Y-102725044D01*
D22*
%TO.N,/BLED_0*%
X35700001Y-123600001D02*
X35000000Y-122900000D01*
X44799999Y-123600001D02*
X35700001Y-123600001D01*
X45200000Y-123200000D02*
X44799999Y-123600001D01*
%TO.N,/BLED_1*%
X36100000Y-134000000D02*
X35000000Y-132900000D01*
X43200000Y-134000000D02*
X36100000Y-134000000D01*
D21*
%TO.N,/BLED_3*%
X174100001Y-123799999D02*
X175000000Y-122900000D01*
X166599999Y-123799999D02*
X174100001Y-123799999D01*
X166200000Y-123400000D02*
X166599999Y-123799999D01*
%TO.N,/BLED_4*%
X174300000Y-133600000D02*
X175000000Y-132900000D01*
X167800000Y-133600000D02*
X174300000Y-133600000D01*
%TO.N,Net-(R20-Pad1)*%
X178250000Y-127750000D02*
X176300000Y-125800000D01*
X170400000Y-125800000D02*
X170000000Y-126200000D01*
X176300000Y-125800000D02*
X170400000Y-125800000D01*
%TO.N,Net-(R21-Pad2)*%
X178250000Y-137750000D02*
X178250000Y-135850000D01*
X178250000Y-135850000D02*
X177600000Y-135200000D01*
X177600000Y-135200000D02*
X170800000Y-135200000D01*
D20*
%TO.N,Net-(R25-Pad2)*%
X164800000Y-149600000D02*
X164700000Y-149500000D01*
X165900000Y-149600000D02*
X164800000Y-149600000D01*
%TO.N,Net-(R27-Pad1)*%
X71400000Y-152400000D02*
X86600000Y-152400000D01*
X86600000Y-152400000D02*
X88250000Y-150750000D01*
%TO.N,/DIO0*%
X110575010Y-108200000D02*
X110400000Y-108024990D01*
X135300001Y-107900001D02*
X122048995Y-107900001D01*
X121748996Y-108200000D02*
X110575010Y-108200000D01*
X122048995Y-107900001D02*
X121748996Y-108200000D01*
X135600000Y-108200000D02*
X135300001Y-107900001D01*
%TO.N,/NSS*%
X106400000Y-111200000D02*
X117400000Y-111200000D01*
%TO.N,/MISO*%
X108075994Y-110000020D02*
X107121586Y-110000020D01*
X108276014Y-109800000D02*
X108075994Y-110000020D01*
X133000000Y-109800000D02*
X108276014Y-109800000D01*
%TO.N,/MOSI*%
X136000000Y-109200000D02*
X137281849Y-107918151D01*
X107800000Y-109425010D02*
X108025010Y-109200000D01*
X108025010Y-109200000D02*
X136000000Y-109200000D01*
X137281849Y-107918151D02*
X137281849Y-106800011D01*
%TO.N,/SCK*%
X106513133Y-110575020D02*
X106213134Y-110275021D01*
X132400000Y-110400000D02*
X107572608Y-110400000D01*
X107397587Y-110575021D02*
X106513133Y-110575020D01*
X107572608Y-110400000D02*
X107397587Y-110575021D01*
%TO.N,/BOOT0*%
X94200000Y-104375010D02*
X109011802Y-104375010D01*
X109011802Y-104375010D02*
X109693406Y-103693406D01*
%TO.N,/USB+*%
X96773553Y-101675022D02*
X96873554Y-101775023D01*
X96637555Y-101675022D02*
X96773553Y-101675022D01*
X96387534Y-101424999D02*
X96637555Y-101675022D01*
X96873554Y-101775023D02*
X99200000Y-101775023D01*
X72573921Y-101424999D02*
X96387534Y-101424999D01*
X71969921Y-100820999D02*
X72573921Y-101424999D01*
X70779001Y-100820999D02*
X71969921Y-100820999D01*
X69000000Y-100400000D02*
X69800000Y-101200000D01*
X69800000Y-101200000D02*
X70400000Y-101200000D01*
X70400000Y-101200000D02*
X70779001Y-100820999D01*
%TO.N,/USB-*%
X72618913Y-100975001D02*
X96432525Y-100975001D01*
X96432525Y-100975001D02*
X96782534Y-101325011D01*
X97018533Y-101425012D02*
X98701467Y-101425012D01*
X98701467Y-101425012D02*
X98926479Y-101200000D01*
X72043912Y-100400000D02*
X72618913Y-100975001D01*
X70200000Y-100400000D02*
X72043912Y-100400000D01*
X96782534Y-101325011D02*
X96918532Y-101325011D01*
X96918532Y-101325011D02*
X97018533Y-101425012D01*
X98926479Y-101200000D02*
X99800000Y-101200000D01*
D22*
%TO.N,VCC*%
X143200000Y-100200000D02*
X143800000Y-100800000D01*
X143200000Y-94000000D02*
X143200000Y-100200000D01*
X81400000Y-111800000D02*
X92200000Y-111800000D01*
X80400000Y-110800000D02*
X81400000Y-111800000D01*
X81400000Y-111800000D02*
X81400000Y-114600000D01*
X81400000Y-114600000D02*
X83600000Y-116800000D01*
X83600000Y-116800000D02*
X84800000Y-116800000D01*
X99784002Y-99600000D02*
X100400000Y-99600000D01*
X97135998Y-100800000D02*
X97235999Y-100900001D01*
X97000000Y-100800000D02*
X97135998Y-100800000D01*
X97235999Y-100900001D02*
X98484001Y-100900001D01*
X90400000Y-103200000D02*
X95923054Y-103200000D01*
X96600000Y-100400000D02*
X97000000Y-100800000D01*
X98484001Y-100900001D02*
X99784002Y-99600000D01*
X95923054Y-103200000D02*
X95976990Y-103253936D01*
D20*
X108465113Y-105734887D02*
X109200000Y-105000000D01*
X107533558Y-105734887D02*
X108465113Y-105734887D01*
D22*
X127265113Y-105734887D02*
X127400000Y-105600000D01*
X107533558Y-105734887D02*
X127265113Y-105734887D01*
X143200000Y-103200000D02*
X143200000Y-100200000D01*
X81400000Y-111800000D02*
X81600000Y-111800000D01*
X81600000Y-111800000D02*
X82400000Y-112600000D01*
X143200000Y-103393998D02*
X143200000Y-103200000D01*
X133993998Y-112600000D02*
X143200000Y-103393998D01*
X82400000Y-112600000D02*
X133993998Y-112600000D01*
D20*
X76048995Y-114700001D02*
X42499999Y-114700001D01*
X42499999Y-114700001D02*
X42200000Y-115000000D01*
D21*
X79948996Y-110800000D02*
X76048995Y-114700001D01*
X80400000Y-110800000D02*
X79948996Y-110800000D01*
X76048995Y-115551005D02*
X76000000Y-115600000D01*
X76048995Y-114700001D02*
X76048995Y-115551005D01*
X76000000Y-116800000D02*
X76000000Y-122200000D01*
X75800000Y-129800000D02*
X75800000Y-141000000D01*
X112000000Y-144200000D02*
X111800000Y-144000000D01*
X112000000Y-148600000D02*
X112000000Y-144200000D01*
D20*
X133600000Y-115000000D02*
X133000000Y-115000000D01*
X133000000Y-115000000D02*
X131400000Y-113400000D01*
X131400000Y-113400000D02*
X104600000Y-113400000D01*
X104600000Y-113400000D02*
X103200000Y-114800000D01*
D21*
%TO.N,Net-(R35-Pad2)*%
X42700000Y-147900000D02*
X44000000Y-147900000D01*
X41300000Y-149300000D02*
X42700000Y-147900000D01*
%TD*%
D24*
%TO.N,GND*%
X162573000Y-109073000D02*
X162286501Y-109073000D01*
X162131067Y-109008617D01*
X161911788Y-108965000D01*
X161688212Y-108965000D01*
X161468933Y-109008617D01*
X161313499Y-109073000D01*
X160700000Y-109073000D01*
X160675224Y-109075440D01*
X160651399Y-109082667D01*
X160629443Y-109094403D01*
X160610197Y-109110197D01*
X160594403Y-109129443D01*
X160582667Y-109151399D01*
X160575440Y-109175224D01*
X160573000Y-109200000D01*
X160573000Y-111872702D01*
X150954260Y-111871355D01*
X150952936Y-90310000D01*
X162573000Y-90310000D01*
X162573000Y-109073000D01*
%TA.AperFunction,Conductor*%
D25*
G36*
X162573000Y-109073000D02*
G01*
X162286501Y-109073000D01*
X162131067Y-109008617D01*
X161911788Y-108965000D01*
X161688212Y-108965000D01*
X161468933Y-109008617D01*
X161313499Y-109073000D01*
X160700000Y-109073000D01*
X160675224Y-109075440D01*
X160651399Y-109082667D01*
X160629443Y-109094403D01*
X160610197Y-109110197D01*
X160594403Y-109129443D01*
X160582667Y-109151399D01*
X160575440Y-109175224D01*
X160573000Y-109200000D01*
X160573000Y-111872702D01*
X150954260Y-111871355D01*
X150952936Y-90310000D01*
X162573000Y-90310000D01*
X162573000Y-109073000D01*
G37*
%TD.AperFunction*%
%TD*%
D24*
%TO.N,GND*%
X162021822Y-90429811D02*
X162039198Y-90606234D01*
X162039198Y-108990343D01*
X161911788Y-108965000D01*
X161688212Y-108965000D01*
X161468933Y-109008617D01*
X161313499Y-109073000D01*
X160700000Y-109073000D01*
X160675224Y-109075440D01*
X160651399Y-109082667D01*
X160629443Y-109094403D01*
X160610197Y-109110197D01*
X160594403Y-109129443D01*
X160582667Y-109151399D01*
X160575440Y-109175224D01*
X160573000Y-109200000D01*
X160573000Y-112000000D01*
X160575440Y-112024776D01*
X160582667Y-112048601D01*
X160594403Y-112070557D01*
X160610197Y-112089803D01*
X160629443Y-112105597D01*
X160651399Y-112117333D01*
X160675224Y-112124560D01*
X160700000Y-112127000D01*
X162039198Y-112127000D01*
X162039198Y-139500000D01*
X162039810Y-139512448D01*
X162059025Y-139707538D01*
X162063881Y-139731956D01*
X162120786Y-139919549D01*
X162130314Y-139942550D01*
X162222724Y-140115437D01*
X162236556Y-140136138D01*
X162360919Y-140287675D01*
X162378523Y-140305279D01*
X162530060Y-140429642D01*
X162550761Y-140443474D01*
X162723648Y-140535884D01*
X162746649Y-140545412D01*
X162934242Y-140602317D01*
X162958660Y-140607173D01*
X163153750Y-140626388D01*
X163166198Y-140627000D01*
X179559964Y-140627000D01*
X179690000Y-140639807D01*
X179690000Y-141715320D01*
X179610299Y-141522905D01*
X179442312Y-141271495D01*
X179228505Y-141057688D01*
X178977095Y-140889701D01*
X178697743Y-140773989D01*
X178401184Y-140715000D01*
X178098816Y-140715000D01*
X177802257Y-140773989D01*
X177522905Y-140889701D01*
X177271495Y-141057688D01*
X177057688Y-141271495D01*
X176889701Y-141522905D01*
X176773989Y-141802257D01*
X176715000Y-142098816D01*
X176715000Y-142401184D01*
X176773989Y-142697743D01*
X176889701Y-142977095D01*
X177057688Y-143228505D01*
X177271495Y-143442312D01*
X177522905Y-143610299D01*
X177802257Y-143726011D01*
X178098816Y-143785000D01*
X178401184Y-143785000D01*
X178697743Y-143726011D01*
X178977095Y-143610299D01*
X179228505Y-143442312D01*
X179442312Y-143228505D01*
X179610299Y-142977095D01*
X179690000Y-142784680D01*
X179690000Y-153565280D01*
X179624004Y-154238366D01*
X179438607Y-154852428D01*
X179137474Y-155418775D01*
X178732071Y-155915847D01*
X178237842Y-156324710D01*
X177673611Y-156629790D01*
X177060862Y-156819467D01*
X176389787Y-156890000D01*
X126180817Y-156890000D01*
X126192312Y-156878505D01*
X126360299Y-156627095D01*
X126476011Y-156347743D01*
X126535000Y-156051184D01*
X126535000Y-155748816D01*
X126476011Y-155452257D01*
X126360299Y-155172905D01*
X126310795Y-155098816D01*
X126715000Y-155098816D01*
X126715000Y-155401184D01*
X126773989Y-155697743D01*
X126889701Y-155977095D01*
X127057688Y-156228505D01*
X127271495Y-156442312D01*
X127522905Y-156610299D01*
X127802257Y-156726011D01*
X128098816Y-156785000D01*
X128401184Y-156785000D01*
X128697743Y-156726011D01*
X128977095Y-156610299D01*
X129228505Y-156442312D01*
X129442312Y-156228505D01*
X129610299Y-155977095D01*
X129726011Y-155697743D01*
X129785000Y-155401184D01*
X129785000Y-155098816D01*
X129726011Y-154802257D01*
X129610299Y-154522905D01*
X129442312Y-154271495D01*
X129228505Y-154057688D01*
X128977095Y-153889701D01*
X128697743Y-153773989D01*
X128401184Y-153715000D01*
X128098816Y-153715000D01*
X127802257Y-153773989D01*
X127522905Y-153889701D01*
X127271495Y-154057688D01*
X127057688Y-154271495D01*
X126889701Y-154522905D01*
X126773989Y-154802257D01*
X126715000Y-155098816D01*
X126310795Y-155098816D01*
X126192312Y-154921495D01*
X125978505Y-154707688D01*
X125727095Y-154539701D01*
X125447743Y-154423989D01*
X125151184Y-154365000D01*
X124848816Y-154365000D01*
X124552257Y-154423989D01*
X124272905Y-154539701D01*
X124021495Y-154707688D01*
X123807688Y-154921495D01*
X123639701Y-155172905D01*
X123523989Y-155452257D01*
X123465000Y-155748816D01*
X123465000Y-156051184D01*
X123523989Y-156347743D01*
X123639701Y-156627095D01*
X123807688Y-156878505D01*
X123819183Y-156890000D01*
X86180817Y-156890000D01*
X86192312Y-156878505D01*
X86360299Y-156627095D01*
X86476011Y-156347743D01*
X86535000Y-156051184D01*
X86535000Y-155748816D01*
X86476011Y-155452257D01*
X86360299Y-155172905D01*
X86310795Y-155098816D01*
X86715000Y-155098816D01*
X86715000Y-155401184D01*
X86773989Y-155697743D01*
X86889701Y-155977095D01*
X87057688Y-156228505D01*
X87271495Y-156442312D01*
X87522905Y-156610299D01*
X87802257Y-156726011D01*
X88098816Y-156785000D01*
X88401184Y-156785000D01*
X88697743Y-156726011D01*
X88977095Y-156610299D01*
X89228505Y-156442312D01*
X89356737Y-156314080D01*
X120865525Y-156314080D01*
X120949208Y-156568261D01*
X121221775Y-156699158D01*
X121514642Y-156774365D01*
X121816553Y-156790991D01*
X122115907Y-156748397D01*
X122401199Y-156648222D01*
X122550792Y-156568261D01*
X122634475Y-156314080D01*
X121750000Y-155429605D01*
X120865525Y-156314080D01*
X89356737Y-156314080D01*
X89442312Y-156228505D01*
X89610299Y-155977095D01*
X89726011Y-155697743D01*
X89785000Y-155401184D01*
X89785000Y-155098816D01*
X89726011Y-154802257D01*
X89610299Y-154522905D01*
X89442312Y-154271495D01*
X89228505Y-154057688D01*
X88977095Y-153889701D01*
X88697743Y-153773989D01*
X88401184Y-153715000D01*
X88098816Y-153715000D01*
X87802257Y-153773989D01*
X87522905Y-153889701D01*
X87271495Y-154057688D01*
X87057688Y-154271495D01*
X86889701Y-154522905D01*
X86773989Y-154802257D01*
X86715000Y-155098816D01*
X86310795Y-155098816D01*
X86192312Y-154921495D01*
X85978505Y-154707688D01*
X85727095Y-154539701D01*
X85447743Y-154423989D01*
X85151184Y-154365000D01*
X84848816Y-154365000D01*
X84552257Y-154423989D01*
X84272905Y-154539701D01*
X84021495Y-154707688D01*
X83807688Y-154921495D01*
X83639701Y-155172905D01*
X83523989Y-155452257D01*
X83465000Y-155748816D01*
X83465000Y-156051184D01*
X83523989Y-156347743D01*
X83639701Y-156627095D01*
X83807688Y-156878505D01*
X83819183Y-156890000D01*
X65930817Y-156890000D01*
X65942312Y-156878505D01*
X66110299Y-156627095D01*
X66226011Y-156347743D01*
X66285000Y-156051184D01*
X66285000Y-155748816D01*
X66226011Y-155452257D01*
X66110299Y-155172905D01*
X66060795Y-155098816D01*
X66465000Y-155098816D01*
X66465000Y-155401184D01*
X66523989Y-155697743D01*
X66639701Y-155977095D01*
X66807688Y-156228505D01*
X67021495Y-156442312D01*
X67272905Y-156610299D01*
X67552257Y-156726011D01*
X67848816Y-156785000D01*
X68151184Y-156785000D01*
X68447743Y-156726011D01*
X68727095Y-156610299D01*
X68978505Y-156442312D01*
X69106737Y-156314080D01*
X80865525Y-156314080D01*
X80949208Y-156568261D01*
X81221775Y-156699158D01*
X81514642Y-156774365D01*
X81816553Y-156790991D01*
X82115907Y-156748397D01*
X82401199Y-156648222D01*
X82550792Y-156568261D01*
X82634475Y-156314080D01*
X81750000Y-155429605D01*
X80865525Y-156314080D01*
X69106737Y-156314080D01*
X69192312Y-156228505D01*
X69360299Y-155977095D01*
X69476011Y-155697743D01*
X69535000Y-155401184D01*
X69535000Y-155316553D01*
X80209009Y-155316553D01*
X80251603Y-155615907D01*
X80351778Y-155901199D01*
X80431739Y-156050792D01*
X80685920Y-156134475D01*
X81570395Y-155250000D01*
X81929605Y-155250000D01*
X82814080Y-156134475D01*
X83068261Y-156050792D01*
X83199158Y-155778225D01*
X83274365Y-155485358D01*
X83290991Y-155183447D01*
X83248397Y-154884093D01*
X83148222Y-154598801D01*
X83068261Y-154449208D01*
X82814080Y-154365525D01*
X81929605Y-155250000D01*
X81570395Y-155250000D01*
X80685920Y-154365525D01*
X80431739Y-154449208D01*
X80300842Y-154721775D01*
X80225635Y-155014642D01*
X80209009Y-155316553D01*
X69535000Y-155316553D01*
X69535000Y-155098816D01*
X69476011Y-154802257D01*
X69360299Y-154522905D01*
X69192312Y-154271495D01*
X69106737Y-154185920D01*
X80865525Y-154185920D01*
X81750000Y-155070395D01*
X82634475Y-154185920D01*
X82550792Y-153931739D01*
X82278225Y-153800842D01*
X81985358Y-153725635D01*
X81683447Y-153709009D01*
X81384093Y-153751603D01*
X81098801Y-153851778D01*
X80949208Y-153931739D01*
X80865525Y-154185920D01*
X69106737Y-154185920D01*
X68978505Y-154057688D01*
X68727095Y-153889701D01*
X68447743Y-153773989D01*
X68151184Y-153715000D01*
X67848816Y-153715000D01*
X67552257Y-153773989D01*
X67272905Y-153889701D01*
X67021495Y-154057688D01*
X66807688Y-154271495D01*
X66639701Y-154522905D01*
X66523989Y-154802257D01*
X66465000Y-155098816D01*
X66060795Y-155098816D01*
X65942312Y-154921495D01*
X65728505Y-154707688D01*
X65477095Y-154539701D01*
X65197743Y-154423989D01*
X64901184Y-154365000D01*
X64598816Y-154365000D01*
X64302257Y-154423989D01*
X64022905Y-154539701D01*
X63771495Y-154707688D01*
X63557688Y-154921495D01*
X63389701Y-155172905D01*
X63273989Y-155452257D01*
X63215000Y-155748816D01*
X63215000Y-156051184D01*
X63273989Y-156347743D01*
X63389701Y-156627095D01*
X63557688Y-156878505D01*
X63569183Y-156890000D01*
X34434720Y-156890000D01*
X33761634Y-156824004D01*
X33147572Y-156638607D01*
X32581225Y-156337474D01*
X32552542Y-156314080D01*
X60615525Y-156314080D01*
X60699208Y-156568261D01*
X60971775Y-156699158D01*
X61264642Y-156774365D01*
X61566553Y-156790991D01*
X61865907Y-156748397D01*
X62151199Y-156648222D01*
X62300792Y-156568261D01*
X62384475Y-156314080D01*
X61500000Y-155429605D01*
X60615525Y-156314080D01*
X32552542Y-156314080D01*
X32084153Y-155932071D01*
X31675290Y-155437842D01*
X31370210Y-154873611D01*
X31180533Y-154260862D01*
X31110000Y-153589787D01*
X31110000Y-152879872D01*
X32665000Y-152879872D01*
X32665000Y-153320128D01*
X32750890Y-153751925D01*
X32919369Y-154158669D01*
X33163962Y-154524729D01*
X33475271Y-154836038D01*
X33841331Y-155080631D01*
X34248075Y-155249110D01*
X34679872Y-155335000D01*
X35120128Y-155335000D01*
X35212867Y-155316553D01*
X59959009Y-155316553D01*
X60001603Y-155615907D01*
X60101778Y-155901199D01*
X60181739Y-156050792D01*
X60435920Y-156134475D01*
X61320395Y-155250000D01*
X61679605Y-155250000D01*
X62564080Y-156134475D01*
X62818261Y-156050792D01*
X62949158Y-155778225D01*
X63024365Y-155485358D01*
X63040991Y-155183447D01*
X62998397Y-154884093D01*
X62898222Y-154598801D01*
X62818261Y-154449208D01*
X62564080Y-154365525D01*
X61679605Y-155250000D01*
X61320395Y-155250000D01*
X60435920Y-154365525D01*
X60181739Y-154449208D01*
X60050842Y-154721775D01*
X59975635Y-155014642D01*
X59959009Y-155316553D01*
X35212867Y-155316553D01*
X35551925Y-155249110D01*
X35958669Y-155080631D01*
X36324729Y-154836038D01*
X36636038Y-154524729D01*
X36862422Y-154185920D01*
X60615525Y-154185920D01*
X61500000Y-155070395D01*
X62384475Y-154185920D01*
X62300792Y-153931739D01*
X62028225Y-153800842D01*
X61735358Y-153725635D01*
X61433447Y-153709009D01*
X61134093Y-153751603D01*
X60848801Y-153851778D01*
X60699208Y-153931739D01*
X60615525Y-154185920D01*
X36862422Y-154185920D01*
X36880631Y-154158669D01*
X37049110Y-153751925D01*
X37135000Y-153320128D01*
X37135000Y-152879872D01*
X37049110Y-152448075D01*
X36991053Y-152307911D01*
X70465000Y-152307911D01*
X70465000Y-152492089D01*
X70500932Y-152672729D01*
X70571414Y-152842889D01*
X70673738Y-152996028D01*
X70803972Y-153126262D01*
X70957111Y-153228586D01*
X71127271Y-153299068D01*
X71307911Y-153335000D01*
X71492089Y-153335000D01*
X71672729Y-153299068D01*
X71842889Y-153228586D01*
X71996028Y-153126262D01*
X72012290Y-153110000D01*
X86565125Y-153110000D01*
X86600000Y-153113435D01*
X86634875Y-153110000D01*
X86634877Y-153110000D01*
X86739184Y-153099727D01*
X86873020Y-153059128D01*
X86996363Y-152993200D01*
X87104475Y-152904475D01*
X87126712Y-152877379D01*
X87696180Y-152307911D01*
X91265000Y-152307911D01*
X91265000Y-152492089D01*
X91300932Y-152672729D01*
X91371414Y-152842889D01*
X91473738Y-152996028D01*
X91603972Y-153126262D01*
X91757111Y-153228586D01*
X91927271Y-153299068D01*
X92107911Y-153335000D01*
X92130909Y-153335000D01*
X93673289Y-154877380D01*
X93695526Y-154904476D01*
X93803638Y-154993201D01*
X93874739Y-155031205D01*
X93926981Y-155059129D01*
X94060816Y-155099728D01*
X94200001Y-155113436D01*
X94234878Y-155110001D01*
X120220384Y-155110001D01*
X120209009Y-155316553D01*
X120251603Y-155615907D01*
X120351778Y-155901199D01*
X120431739Y-156050792D01*
X120685920Y-156134475D01*
X121570395Y-155250000D01*
X121929605Y-155250000D01*
X122814080Y-156134475D01*
X123068261Y-156050792D01*
X123199158Y-155778225D01*
X123274365Y-155485358D01*
X123290991Y-155183447D01*
X123248397Y-154884093D01*
X123148222Y-154598801D01*
X123068261Y-154449208D01*
X122814080Y-154365525D01*
X121929605Y-155250000D01*
X121570395Y-155250000D01*
X121556253Y-155235858D01*
X121735858Y-155056253D01*
X121750000Y-155070395D01*
X122634475Y-154185920D01*
X122550792Y-153931739D01*
X122403896Y-153861194D01*
X123385218Y-152879872D01*
X173765000Y-152879872D01*
X173765000Y-153320128D01*
X173850890Y-153751925D01*
X174019369Y-154158669D01*
X174263962Y-154524729D01*
X174575271Y-154836038D01*
X174941331Y-155080631D01*
X175348075Y-155249110D01*
X175779872Y-155335000D01*
X176220128Y-155335000D01*
X176651925Y-155249110D01*
X177058669Y-155080631D01*
X177424729Y-154836038D01*
X177736038Y-154524729D01*
X177980631Y-154158669D01*
X178149110Y-153751925D01*
X178235000Y-153320128D01*
X178235000Y-152879872D01*
X178149110Y-152448075D01*
X177980631Y-152041331D01*
X177736038Y-151675271D01*
X177424729Y-151363962D01*
X177058669Y-151119369D01*
X176651925Y-150950890D01*
X176220128Y-150865000D01*
X175779872Y-150865000D01*
X175348075Y-150950890D01*
X174941331Y-151119369D01*
X174575271Y-151363962D01*
X174263962Y-151675271D01*
X174019369Y-152041331D01*
X173850890Y-152448075D01*
X173765000Y-152879872D01*
X123385218Y-152879872D01*
X123905091Y-152359999D01*
X127315126Y-152359999D01*
X127350001Y-152363434D01*
X127384876Y-152359999D01*
X127384878Y-152359999D01*
X127489185Y-152349726D01*
X127623021Y-152309127D01*
X127746364Y-152243199D01*
X127779031Y-152216390D01*
X127802257Y-152226011D01*
X128098816Y-152285000D01*
X128401184Y-152285000D01*
X128697743Y-152226011D01*
X128977095Y-152110299D01*
X129228505Y-151942312D01*
X129442312Y-151728505D01*
X129610299Y-151477095D01*
X129726011Y-151197743D01*
X129785000Y-150901184D01*
X129785000Y-150598816D01*
X129726011Y-150302257D01*
X129610299Y-150022905D01*
X129442312Y-149771495D01*
X129228505Y-149557688D01*
X129004349Y-149407911D01*
X163765000Y-149407911D01*
X163765000Y-149592089D01*
X163800932Y-149772729D01*
X163871414Y-149942889D01*
X163973738Y-150096028D01*
X164103972Y-150226262D01*
X164257111Y-150328586D01*
X164427271Y-150399068D01*
X164607911Y-150435000D01*
X164792089Y-150435000D01*
X164972729Y-150399068D01*
X165142889Y-150328586D01*
X165170705Y-150310000D01*
X165287710Y-150310000D01*
X165303972Y-150326262D01*
X165457111Y-150428586D01*
X165627271Y-150499068D01*
X165807911Y-150535000D01*
X165992089Y-150535000D01*
X166172729Y-150499068D01*
X166342889Y-150428586D01*
X166496028Y-150326262D01*
X166626262Y-150196028D01*
X166728586Y-150042889D01*
X166799068Y-149872729D01*
X166835000Y-149692089D01*
X166835000Y-149507911D01*
X166799068Y-149327271D01*
X166728586Y-149157111D01*
X166626262Y-149003972D01*
X166496028Y-148873738D01*
X166342889Y-148771414D01*
X166172729Y-148700932D01*
X165992089Y-148665000D01*
X165807911Y-148665000D01*
X165627271Y-148700932D01*
X165457111Y-148771414D01*
X165359156Y-148836866D01*
X165296028Y-148773738D01*
X165142889Y-148671414D01*
X164972729Y-148600932D01*
X164792089Y-148565000D01*
X164607911Y-148565000D01*
X164427271Y-148600932D01*
X164257111Y-148671414D01*
X164103972Y-148773738D01*
X163973738Y-148903972D01*
X163871414Y-149057111D01*
X163800932Y-149227271D01*
X163765000Y-149407911D01*
X129004349Y-149407911D01*
X128977095Y-149389701D01*
X128697743Y-149273989D01*
X128401184Y-149215000D01*
X128098816Y-149215000D01*
X127802257Y-149273989D01*
X127522905Y-149389701D01*
X127271495Y-149557688D01*
X127057688Y-149771495D01*
X126889701Y-150022905D01*
X126773989Y-150302257D01*
X126715000Y-150598816D01*
X126715000Y-150901184D01*
X126722721Y-150939999D01*
X126284859Y-150939999D01*
X126360299Y-150827095D01*
X126476011Y-150547743D01*
X126535000Y-150251184D01*
X126535000Y-149948816D01*
X126476011Y-149652257D01*
X126360299Y-149372905D01*
X126192312Y-149121495D01*
X125978505Y-148907688D01*
X125727095Y-148739701D01*
X125447743Y-148623989D01*
X125151184Y-148565000D01*
X124848816Y-148565000D01*
X124678576Y-148598863D01*
X124640313Y-148578411D01*
X124473490Y-148527805D01*
X124343477Y-148515000D01*
X124343469Y-148515000D01*
X124300000Y-148510719D01*
X124256531Y-148515000D01*
X120106692Y-148515000D01*
X120072729Y-148500932D01*
X119892089Y-148465000D01*
X119707911Y-148465000D01*
X119527271Y-148500932D01*
X119357111Y-148571414D01*
X119203972Y-148673738D01*
X119073738Y-148803972D01*
X118971414Y-148957111D01*
X118900932Y-149127271D01*
X118865000Y-149307911D01*
X118865000Y-149492089D01*
X118900932Y-149672729D01*
X118971414Y-149842889D01*
X119073738Y-149996028D01*
X119203972Y-150126262D01*
X119357111Y-150228586D01*
X119527271Y-150299068D01*
X119707911Y-150335000D01*
X119892089Y-150335000D01*
X120072729Y-150299068D01*
X120106692Y-150285000D01*
X120281137Y-150285000D01*
X120273989Y-150302257D01*
X120215000Y-150598816D01*
X120215000Y-150901184D01*
X120273989Y-151197743D01*
X120389701Y-151477095D01*
X120557688Y-151728505D01*
X120771495Y-151942312D01*
X121022905Y-152110299D01*
X121302257Y-152226011D01*
X121598816Y-152285000D01*
X121901184Y-152285000D01*
X121989467Y-152267440D01*
X120566906Y-153690001D01*
X112719203Y-153690001D01*
X112792364Y-153513373D01*
X112860000Y-153173345D01*
X112860000Y-152826655D01*
X112792364Y-152486627D01*
X112659692Y-152166327D01*
X112467081Y-151878065D01*
X112221935Y-151632919D01*
X111933673Y-151440308D01*
X111613373Y-151307636D01*
X111273345Y-151240000D01*
X110926655Y-151240000D01*
X110586627Y-151307636D01*
X110266327Y-151440308D01*
X109978065Y-151632919D01*
X109732919Y-151878065D01*
X109704561Y-151920505D01*
X109610570Y-151857703D01*
X109375987Y-151760535D01*
X109126955Y-151711000D01*
X108873045Y-151711000D01*
X108624013Y-151760535D01*
X108389430Y-151857703D01*
X108178310Y-151998768D01*
X108000000Y-152177078D01*
X107821690Y-151998768D01*
X107610570Y-151857703D01*
X107375987Y-151760535D01*
X107126955Y-151711000D01*
X106873045Y-151711000D01*
X106624013Y-151760535D01*
X106389430Y-151857703D01*
X106178310Y-151998768D01*
X105998768Y-152178310D01*
X105918581Y-152298319D01*
X105888387Y-152291218D01*
X105179605Y-153000000D01*
X105193748Y-153014143D01*
X105014143Y-153193748D01*
X105000000Y-153179605D01*
X104985858Y-153193748D01*
X104806253Y-153014143D01*
X104820395Y-153000000D01*
X104111613Y-152291218D01*
X103882532Y-152345093D01*
X103776237Y-152575684D01*
X103716972Y-152822581D01*
X103707012Y-153076296D01*
X103746741Y-153327079D01*
X103834632Y-153565293D01*
X103882532Y-153654907D01*
X104031755Y-153690001D01*
X102089223Y-153690001D01*
X102142297Y-153610570D01*
X102239465Y-153375987D01*
X102289000Y-153126955D01*
X102289000Y-152873045D01*
X102239465Y-152624013D01*
X102142297Y-152389430D01*
X102001232Y-152178310D01*
X101934535Y-152111613D01*
X104291218Y-152111613D01*
X105000000Y-152820395D01*
X105708782Y-152111613D01*
X105654907Y-151882532D01*
X105424316Y-151776237D01*
X105177419Y-151716972D01*
X104923704Y-151707012D01*
X104672921Y-151746741D01*
X104434707Y-151834632D01*
X104345093Y-151882532D01*
X104291218Y-152111613D01*
X101934535Y-152111613D01*
X101821690Y-151998768D01*
X101610570Y-151857703D01*
X101375987Y-151760535D01*
X101126955Y-151711000D01*
X100873045Y-151711000D01*
X100624013Y-151760535D01*
X100389430Y-151857703D01*
X100295439Y-151920505D01*
X100267081Y-151878065D01*
X100021935Y-151632919D01*
X99733673Y-151440308D01*
X99413373Y-151307636D01*
X99073345Y-151240000D01*
X98726655Y-151240000D01*
X98386627Y-151307636D01*
X98066327Y-151440308D01*
X97778065Y-151632919D01*
X97532919Y-151878065D01*
X97340308Y-152166327D01*
X97207636Y-152486627D01*
X97140000Y-152826655D01*
X97140000Y-153173345D01*
X97207636Y-153513373D01*
X97280797Y-153690001D01*
X94494092Y-153690001D01*
X93865500Y-153061409D01*
X93873020Y-153059128D01*
X93996363Y-152993200D01*
X94104475Y-152904475D01*
X94126712Y-152877379D01*
X95277389Y-151726703D01*
X95304474Y-151704475D01*
X95326704Y-151677388D01*
X95326707Y-151677385D01*
X95393199Y-151596364D01*
X95393200Y-151596363D01*
X95459128Y-151473020D01*
X95499727Y-151339184D01*
X95510000Y-151234877D01*
X95510000Y-151234876D01*
X95513435Y-151200001D01*
X95510000Y-151165126D01*
X95510000Y-143907911D01*
X110865000Y-143907911D01*
X110865000Y-144092089D01*
X110900932Y-144272729D01*
X110971414Y-144442889D01*
X111073738Y-144596028D01*
X111203972Y-144726262D01*
X111240001Y-144750336D01*
X111240000Y-148054464D01*
X111171414Y-148157111D01*
X111100932Y-148327271D01*
X111065000Y-148507911D01*
X111065000Y-148692089D01*
X111100932Y-148872729D01*
X111171414Y-149042889D01*
X111273738Y-149196028D01*
X111403972Y-149326262D01*
X111557111Y-149428586D01*
X111727271Y-149499068D01*
X111907911Y-149535000D01*
X112092089Y-149535000D01*
X112272729Y-149499068D01*
X112442889Y-149428586D01*
X112596028Y-149326262D01*
X112726262Y-149196028D01*
X112828586Y-149042889D01*
X112899068Y-148872729D01*
X112935000Y-148692089D01*
X112935000Y-148507911D01*
X112899068Y-148327271D01*
X112828586Y-148157111D01*
X112760000Y-148054465D01*
X112760000Y-144237325D01*
X112763676Y-144200000D01*
X112760000Y-144162675D01*
X112760000Y-144162667D01*
X112749003Y-144051014D01*
X112735000Y-144004851D01*
X112735000Y-143907911D01*
X112699068Y-143727271D01*
X112628586Y-143557111D01*
X112526262Y-143403972D01*
X112436370Y-143314080D01*
X170865525Y-143314080D01*
X170949208Y-143568261D01*
X171221775Y-143699158D01*
X171514642Y-143774365D01*
X171816553Y-143790991D01*
X172115907Y-143748397D01*
X172401199Y-143648222D01*
X172550792Y-143568261D01*
X172634475Y-143314080D01*
X171750000Y-142429605D01*
X170865525Y-143314080D01*
X112436370Y-143314080D01*
X112396028Y-143273738D01*
X112242889Y-143171414D01*
X112072729Y-143100932D01*
X111892089Y-143065000D01*
X111707911Y-143065000D01*
X111527271Y-143100932D01*
X111357111Y-143171414D01*
X111203972Y-143273738D01*
X111073738Y-143403972D01*
X110971414Y-143557111D01*
X110900932Y-143727271D01*
X110865000Y-143907911D01*
X95510000Y-143907911D01*
X95510000Y-142316553D01*
X170209009Y-142316553D01*
X170251603Y-142615907D01*
X170351778Y-142901199D01*
X170431739Y-143050792D01*
X170685920Y-143134475D01*
X171570395Y-142250000D01*
X171929605Y-142250000D01*
X172814080Y-143134475D01*
X173068261Y-143050792D01*
X173199158Y-142778225D01*
X173206710Y-142748816D01*
X173465000Y-142748816D01*
X173465000Y-143051184D01*
X173523989Y-143347743D01*
X173639701Y-143627095D01*
X173807688Y-143878505D01*
X174021495Y-144092312D01*
X174272905Y-144260299D01*
X174552257Y-144376011D01*
X174848816Y-144435000D01*
X175151184Y-144435000D01*
X175447743Y-144376011D01*
X175727095Y-144260299D01*
X175978505Y-144092312D01*
X176192312Y-143878505D01*
X176360299Y-143627095D01*
X176476011Y-143347743D01*
X176535000Y-143051184D01*
X176535000Y-142748816D01*
X176476011Y-142452257D01*
X176360299Y-142172905D01*
X176192312Y-141921495D01*
X175978505Y-141707688D01*
X175727095Y-141539701D01*
X175447743Y-141423989D01*
X175151184Y-141365000D01*
X174848816Y-141365000D01*
X174552257Y-141423989D01*
X174272905Y-141539701D01*
X174021495Y-141707688D01*
X173807688Y-141921495D01*
X173639701Y-142172905D01*
X173523989Y-142452257D01*
X173465000Y-142748816D01*
X173206710Y-142748816D01*
X173274365Y-142485358D01*
X173290991Y-142183447D01*
X173248397Y-141884093D01*
X173148222Y-141598801D01*
X173068261Y-141449208D01*
X172814080Y-141365525D01*
X171929605Y-142250000D01*
X171570395Y-142250000D01*
X170685920Y-141365525D01*
X170431739Y-141449208D01*
X170300842Y-141721775D01*
X170225635Y-142014642D01*
X170209009Y-142316553D01*
X95510000Y-142316553D01*
X95510000Y-141185920D01*
X170865525Y-141185920D01*
X171750000Y-142070395D01*
X172634475Y-141185920D01*
X172550792Y-140931739D01*
X172278225Y-140800842D01*
X171985358Y-140725635D01*
X171683447Y-140709009D01*
X171384093Y-140751603D01*
X171098801Y-140851778D01*
X170949208Y-140931739D01*
X170865525Y-141185920D01*
X95510000Y-141185920D01*
X95510000Y-130783744D01*
X95596028Y-130726262D01*
X95726262Y-130596028D01*
X95828586Y-130442889D01*
X95899068Y-130272729D01*
X95935000Y-130092089D01*
X95935000Y-129907911D01*
X95899068Y-129727271D01*
X95828586Y-129557111D01*
X95726262Y-129403972D01*
X95596028Y-129273738D01*
X95442889Y-129171414D01*
X95272729Y-129100932D01*
X95092089Y-129065000D01*
X94907911Y-129065000D01*
X94727271Y-129100932D01*
X94557111Y-129171414D01*
X94403972Y-129273738D01*
X94273738Y-129403972D01*
X94171414Y-129557111D01*
X94100932Y-129727271D01*
X94065000Y-129907911D01*
X94065000Y-130092089D01*
X94086663Y-130200995D01*
X94090001Y-130234885D01*
X94090000Y-150905908D01*
X93305909Y-151690000D01*
X92812290Y-151690000D01*
X92796028Y-151673738D01*
X92642889Y-151571414D01*
X92472729Y-151500932D01*
X92292089Y-151465000D01*
X92107911Y-151465000D01*
X91927271Y-151500932D01*
X91757111Y-151571414D01*
X91603972Y-151673738D01*
X91473738Y-151803972D01*
X91371414Y-151957111D01*
X91300932Y-152127271D01*
X91265000Y-152307911D01*
X87696180Y-152307911D01*
X87785162Y-152218930D01*
X87802257Y-152226011D01*
X88098816Y-152285000D01*
X88401184Y-152285000D01*
X88697743Y-152226011D01*
X88977095Y-152110299D01*
X89228505Y-151942312D01*
X89442312Y-151728505D01*
X89610299Y-151477095D01*
X89726011Y-151197743D01*
X89785000Y-150901184D01*
X89785000Y-150598816D01*
X89726011Y-150302257D01*
X89610299Y-150022905D01*
X89442312Y-149771495D01*
X89228505Y-149557688D01*
X88977095Y-149389701D01*
X88697743Y-149273989D01*
X88401184Y-149215000D01*
X88098816Y-149215000D01*
X87802257Y-149273989D01*
X87522905Y-149389701D01*
X87271495Y-149557688D01*
X87057688Y-149771495D01*
X86889701Y-150022905D01*
X86773989Y-150302257D01*
X86715000Y-150598816D01*
X86715000Y-150901184D01*
X86773989Y-151197743D01*
X86781070Y-151214838D01*
X86305909Y-151690000D01*
X82968040Y-151690000D01*
X83110299Y-151477095D01*
X83226011Y-151197743D01*
X83285000Y-150901184D01*
X83285000Y-150598816D01*
X83226011Y-150302257D01*
X83167086Y-150160000D01*
X83465000Y-150160000D01*
X83465000Y-150251184D01*
X83523989Y-150547743D01*
X83639701Y-150827095D01*
X83807688Y-151078505D01*
X84021495Y-151292312D01*
X84272905Y-151460299D01*
X84552257Y-151576011D01*
X84848816Y-151635000D01*
X85151184Y-151635000D01*
X85447743Y-151576011D01*
X85727095Y-151460299D01*
X85978505Y-151292312D01*
X86192312Y-151078505D01*
X86360299Y-150827095D01*
X86476011Y-150547743D01*
X86535000Y-150251184D01*
X86535000Y-149948816D01*
X86476011Y-149652257D01*
X86360299Y-149372905D01*
X86192312Y-149121495D01*
X85978505Y-148907688D01*
X85727095Y-148739701D01*
X85447743Y-148623989D01*
X85151184Y-148565000D01*
X84848816Y-148565000D01*
X84552257Y-148623989D01*
X84470961Y-148657663D01*
X84448986Y-148650997D01*
X84337333Y-148640000D01*
X84337322Y-148640000D01*
X84300000Y-148636324D01*
X84262678Y-148640000D01*
X80945535Y-148640000D01*
X80842889Y-148571414D01*
X80672729Y-148500932D01*
X80492089Y-148465000D01*
X80307911Y-148465000D01*
X80127271Y-148500932D01*
X79957111Y-148571414D01*
X79803972Y-148673738D01*
X79673738Y-148803972D01*
X79571414Y-148957111D01*
X79500932Y-149127271D01*
X79465000Y-149307911D01*
X79465000Y-149492089D01*
X79500932Y-149672729D01*
X79571414Y-149842889D01*
X79673738Y-149996028D01*
X79803972Y-150126262D01*
X79957111Y-150228586D01*
X80127271Y-150299068D01*
X80269015Y-150327263D01*
X80215000Y-150598816D01*
X80215000Y-150901184D01*
X80273989Y-151197743D01*
X80389701Y-151477095D01*
X80531960Y-151690000D01*
X72012290Y-151690000D01*
X71996028Y-151673738D01*
X71842889Y-151571414D01*
X71672729Y-151500932D01*
X71492089Y-151465000D01*
X71307911Y-151465000D01*
X71127271Y-151500932D01*
X70957111Y-151571414D01*
X70803972Y-151673738D01*
X70673738Y-151803972D01*
X70571414Y-151957111D01*
X70500932Y-152127271D01*
X70465000Y-152307911D01*
X36991053Y-152307911D01*
X36880631Y-152041331D01*
X36636038Y-151675271D01*
X36324729Y-151363962D01*
X35958669Y-151119369D01*
X35551925Y-150950890D01*
X35120128Y-150865000D01*
X34679872Y-150865000D01*
X34248075Y-150950890D01*
X33841331Y-151119369D01*
X33475271Y-151363962D01*
X33163962Y-151675271D01*
X32919369Y-152041331D01*
X32750890Y-152448075D01*
X32665000Y-152879872D01*
X31110000Y-152879872D01*
X31110000Y-150598816D01*
X59965000Y-150598816D01*
X59965000Y-150901184D01*
X60023989Y-151197743D01*
X60139701Y-151477095D01*
X60307688Y-151728505D01*
X60521495Y-151942312D01*
X60772905Y-152110299D01*
X61052257Y-152226011D01*
X61348816Y-152285000D01*
X61651184Y-152285000D01*
X61947743Y-152226011D01*
X62227095Y-152110299D01*
X62478505Y-151942312D01*
X62692312Y-151728505D01*
X62860299Y-151477095D01*
X62976011Y-151197743D01*
X63035000Y-150901184D01*
X63035000Y-150598816D01*
X62976011Y-150302257D01*
X62860299Y-150022905D01*
X62810795Y-149948816D01*
X63215000Y-149948816D01*
X63215000Y-150251184D01*
X63273989Y-150547743D01*
X63389701Y-150827095D01*
X63557688Y-151078505D01*
X63771495Y-151292312D01*
X64022905Y-151460299D01*
X64302257Y-151576011D01*
X64598816Y-151635000D01*
X64901184Y-151635000D01*
X65197743Y-151576011D01*
X65477095Y-151460299D01*
X65728505Y-151292312D01*
X65942312Y-151078505D01*
X66110299Y-150827095D01*
X66204855Y-150598816D01*
X66465000Y-150598816D01*
X66465000Y-150901184D01*
X66523989Y-151197743D01*
X66639701Y-151477095D01*
X66807688Y-151728505D01*
X67021495Y-151942312D01*
X67272905Y-152110299D01*
X67552257Y-152226011D01*
X67848816Y-152285000D01*
X68151184Y-152285000D01*
X68447743Y-152226011D01*
X68727095Y-152110299D01*
X68978505Y-151942312D01*
X69192312Y-151728505D01*
X69360299Y-151477095D01*
X69476011Y-151197743D01*
X69535000Y-150901184D01*
X69535000Y-150598816D01*
X69476011Y-150302257D01*
X69360299Y-150022905D01*
X69192312Y-149771495D01*
X68978505Y-149557688D01*
X68727095Y-149389701D01*
X68447743Y-149273989D01*
X68151184Y-149215000D01*
X67848816Y-149215000D01*
X67552257Y-149273989D01*
X67272905Y-149389701D01*
X67021495Y-149557688D01*
X66807688Y-149771495D01*
X66639701Y-150022905D01*
X66523989Y-150302257D01*
X66465000Y-150598816D01*
X66204855Y-150598816D01*
X66226011Y-150547743D01*
X66285000Y-150251184D01*
X66285000Y-149948816D01*
X66226011Y-149652257D01*
X66110299Y-149372905D01*
X65942312Y-149121495D01*
X65728505Y-148907688D01*
X65477095Y-148739701D01*
X65197743Y-148623989D01*
X64901184Y-148565000D01*
X64598816Y-148565000D01*
X64302257Y-148623989D01*
X64022905Y-148739701D01*
X63771495Y-148907688D01*
X63557688Y-149121495D01*
X63389701Y-149372905D01*
X63273989Y-149652257D01*
X63215000Y-149948816D01*
X62810795Y-149948816D01*
X62692312Y-149771495D01*
X62478505Y-149557688D01*
X62227095Y-149389701D01*
X61947743Y-149273989D01*
X61651184Y-149215000D01*
X61348816Y-149215000D01*
X61052257Y-149273989D01*
X60772905Y-149389701D01*
X60521495Y-149557688D01*
X60307688Y-149771495D01*
X60139701Y-150022905D01*
X60023989Y-150302257D01*
X59965000Y-150598816D01*
X31110000Y-150598816D01*
X31110000Y-149198061D01*
X40265000Y-149198061D01*
X40265000Y-149401939D01*
X40304774Y-149601898D01*
X40382795Y-149790256D01*
X40496063Y-149959774D01*
X40640226Y-150103937D01*
X40809744Y-150217205D01*
X40998102Y-150295226D01*
X41198061Y-150335000D01*
X41401939Y-150335000D01*
X41601898Y-150295226D01*
X41790256Y-150217205D01*
X41959774Y-150103937D01*
X42103937Y-149959774D01*
X42217205Y-149790256D01*
X42295226Y-149601898D01*
X42335000Y-149401939D01*
X42335000Y-149339801D01*
X43014802Y-148660000D01*
X43296289Y-148660000D01*
X43340226Y-148703937D01*
X43509744Y-148817205D01*
X43698102Y-148895226D01*
X43898061Y-148935000D01*
X44101939Y-148935000D01*
X44301898Y-148895226D01*
X44490256Y-148817205D01*
X44659774Y-148703937D01*
X44803937Y-148559774D01*
X44917205Y-148390256D01*
X44995226Y-148201898D01*
X45035000Y-148001939D01*
X45035000Y-147798061D01*
X44995226Y-147598102D01*
X44917205Y-147409744D01*
X44803937Y-147240226D01*
X44659774Y-147096063D01*
X44490256Y-146982795D01*
X44301898Y-146904774D01*
X44101939Y-146865000D01*
X43898061Y-146865000D01*
X43698102Y-146904774D01*
X43509744Y-146982795D01*
X43340226Y-147096063D01*
X43296289Y-147140000D01*
X42737322Y-147140000D01*
X42700000Y-147136324D01*
X42662677Y-147140000D01*
X42662667Y-147140000D01*
X42551014Y-147150997D01*
X42407753Y-147194454D01*
X42275723Y-147265026D01*
X42192083Y-147333668D01*
X42159999Y-147359999D01*
X42136201Y-147388997D01*
X41260199Y-148265000D01*
X41198061Y-148265000D01*
X40998102Y-148304774D01*
X40809744Y-148382795D01*
X40640226Y-148496063D01*
X40496063Y-148640226D01*
X40382795Y-148809744D01*
X40304774Y-148998102D01*
X40265000Y-149198061D01*
X31110000Y-149198061D01*
X31110000Y-145550000D01*
X50111928Y-145550000D01*
X50111928Y-147250000D01*
X50124188Y-147374482D01*
X50160498Y-147494180D01*
X50219463Y-147604494D01*
X50298815Y-147701185D01*
X50395506Y-147780537D01*
X50505820Y-147839502D01*
X50625518Y-147875812D01*
X50750000Y-147888072D01*
X52450000Y-147888072D01*
X52574482Y-147875812D01*
X52694180Y-147839502D01*
X52804494Y-147780537D01*
X52901185Y-147701185D01*
X52980537Y-147604494D01*
X53039502Y-147494180D01*
X53061513Y-147421620D01*
X53193368Y-147553475D01*
X53436589Y-147715990D01*
X53706842Y-147827932D01*
X53993740Y-147885000D01*
X54286260Y-147885000D01*
X54573158Y-147827932D01*
X54843411Y-147715990D01*
X55086632Y-147553475D01*
X55293475Y-147346632D01*
X55415195Y-147164466D01*
X55484822Y-147281355D01*
X55679731Y-147497588D01*
X55913080Y-147671641D01*
X56175901Y-147796825D01*
X56323110Y-147841476D01*
X56553000Y-147720155D01*
X56553000Y-146527000D01*
X56807000Y-146527000D01*
X56807000Y-147720155D01*
X57036890Y-147841476D01*
X57184099Y-147796825D01*
X57446920Y-147671641D01*
X57680269Y-147497588D01*
X57875178Y-147281355D01*
X58024157Y-147031252D01*
X58121481Y-146756891D01*
X58000814Y-146527000D01*
X56807000Y-146527000D01*
X56553000Y-146527000D01*
X56533000Y-146527000D01*
X56533000Y-146273000D01*
X56553000Y-146273000D01*
X56553000Y-145079845D01*
X56807000Y-145079845D01*
X56807000Y-146273000D01*
X58000814Y-146273000D01*
X58121481Y-146043109D01*
X58024157Y-145768748D01*
X57875178Y-145518645D01*
X57680269Y-145302412D01*
X57446920Y-145128359D01*
X57184099Y-145003175D01*
X57036890Y-144958524D01*
X56807000Y-145079845D01*
X56553000Y-145079845D01*
X56323110Y-144958524D01*
X56175901Y-145003175D01*
X55913080Y-145128359D01*
X55679731Y-145302412D01*
X55484822Y-145518645D01*
X55415195Y-145635534D01*
X55293475Y-145453368D01*
X55086632Y-145246525D01*
X54843411Y-145084010D01*
X54573158Y-144972068D01*
X54286260Y-144915000D01*
X53993740Y-144915000D01*
X53706842Y-144972068D01*
X53436589Y-145084010D01*
X53193368Y-145246525D01*
X53061513Y-145378380D01*
X53039502Y-145305820D01*
X52980537Y-145195506D01*
X52901185Y-145098815D01*
X52804494Y-145019463D01*
X52694180Y-144960498D01*
X52574482Y-144924188D01*
X52450000Y-144911928D01*
X50750000Y-144911928D01*
X50625518Y-144924188D01*
X50505820Y-144960498D01*
X50395506Y-145019463D01*
X50298815Y-145098815D01*
X50219463Y-145195506D01*
X50160498Y-145305820D01*
X50124188Y-145425518D01*
X50111928Y-145550000D01*
X31110000Y-145550000D01*
X31110000Y-143645479D01*
X31221775Y-143699158D01*
X31514642Y-143774365D01*
X31816553Y-143790991D01*
X32115907Y-143748397D01*
X32401199Y-143648222D01*
X32550792Y-143568261D01*
X32634475Y-143314080D01*
X31750000Y-142429605D01*
X31735858Y-142443748D01*
X31556253Y-142264143D01*
X31570395Y-142250000D01*
X31929605Y-142250000D01*
X32814080Y-143134475D01*
X33068261Y-143050792D01*
X33199158Y-142778225D01*
X33206710Y-142748816D01*
X33465000Y-142748816D01*
X33465000Y-143051184D01*
X33523989Y-143347743D01*
X33639701Y-143627095D01*
X33807688Y-143878505D01*
X34021495Y-144092312D01*
X34272905Y-144260299D01*
X34552257Y-144376011D01*
X34848816Y-144435000D01*
X35151184Y-144435000D01*
X35447743Y-144376011D01*
X35727095Y-144260299D01*
X35978505Y-144092312D01*
X36192312Y-143878505D01*
X36360299Y-143627095D01*
X36476011Y-143347743D01*
X36535000Y-143051184D01*
X36535000Y-142748816D01*
X36476011Y-142452257D01*
X36360299Y-142172905D01*
X36310795Y-142098816D01*
X36715000Y-142098816D01*
X36715000Y-142401184D01*
X36773989Y-142697743D01*
X36889701Y-142977095D01*
X37057688Y-143228505D01*
X37271495Y-143442312D01*
X37522905Y-143610299D01*
X37802257Y-143726011D01*
X38098816Y-143785000D01*
X38401184Y-143785000D01*
X38697743Y-143726011D01*
X38977095Y-143610299D01*
X39228505Y-143442312D01*
X39442312Y-143228505D01*
X39610299Y-142977095D01*
X39726011Y-142697743D01*
X39785000Y-142401184D01*
X39785000Y-142098816D01*
X39726011Y-141802257D01*
X39610299Y-141522905D01*
X39442312Y-141271495D01*
X39228505Y-141057688D01*
X38977095Y-140889701D01*
X38697743Y-140773989D01*
X38401184Y-140715000D01*
X38098816Y-140715000D01*
X37802257Y-140773989D01*
X37522905Y-140889701D01*
X37271495Y-141057688D01*
X37057688Y-141271495D01*
X36889701Y-141522905D01*
X36773989Y-141802257D01*
X36715000Y-142098816D01*
X36310795Y-142098816D01*
X36192312Y-141921495D01*
X35978505Y-141707688D01*
X35727095Y-141539701D01*
X35447743Y-141423989D01*
X35151184Y-141365000D01*
X34848816Y-141365000D01*
X34552257Y-141423989D01*
X34272905Y-141539701D01*
X34021495Y-141707688D01*
X33807688Y-141921495D01*
X33639701Y-142172905D01*
X33523989Y-142452257D01*
X33465000Y-142748816D01*
X33206710Y-142748816D01*
X33274365Y-142485358D01*
X33290991Y-142183447D01*
X33248397Y-141884093D01*
X33148222Y-141598801D01*
X33068261Y-141449208D01*
X32814080Y-141365525D01*
X31929605Y-142250000D01*
X31570395Y-142250000D01*
X31556253Y-142235858D01*
X31735858Y-142056253D01*
X31750000Y-142070395D01*
X32634475Y-141185920D01*
X32550792Y-140931739D01*
X32278225Y-140800842D01*
X31985358Y-140725635D01*
X31683447Y-140709009D01*
X31384093Y-140751603D01*
X31110000Y-140847846D01*
X31110000Y-139146375D01*
X31302257Y-139226011D01*
X31598816Y-139285000D01*
X31901184Y-139285000D01*
X32197743Y-139226011D01*
X32477095Y-139110299D01*
X32728505Y-138942312D01*
X32942312Y-138728505D01*
X33110299Y-138477095D01*
X33226011Y-138197743D01*
X33285000Y-137901184D01*
X33285000Y-137598816D01*
X33226011Y-137302257D01*
X33110299Y-137022905D01*
X33060795Y-136948816D01*
X33465000Y-136948816D01*
X33465000Y-137251184D01*
X33523989Y-137547743D01*
X33639701Y-137827095D01*
X33807688Y-138078505D01*
X34021495Y-138292312D01*
X34272905Y-138460299D01*
X34552257Y-138576011D01*
X34848816Y-138635000D01*
X35151184Y-138635000D01*
X35447743Y-138576011D01*
X35727095Y-138460299D01*
X35978505Y-138292312D01*
X36192312Y-138078505D01*
X36360299Y-137827095D01*
X36454855Y-137598816D01*
X36715000Y-137598816D01*
X36715000Y-137901184D01*
X36773989Y-138197743D01*
X36889701Y-138477095D01*
X37057688Y-138728505D01*
X37271495Y-138942312D01*
X37522905Y-139110299D01*
X37802257Y-139226011D01*
X38098816Y-139285000D01*
X38401184Y-139285000D01*
X38697743Y-139226011D01*
X38977095Y-139110299D01*
X39228505Y-138942312D01*
X39442312Y-138728505D01*
X39610299Y-138477095D01*
X39726011Y-138197743D01*
X39785000Y-137901184D01*
X39785000Y-137598816D01*
X39726011Y-137302257D01*
X39610299Y-137022905D01*
X39442312Y-136771495D01*
X39228505Y-136557688D01*
X38977095Y-136389701D01*
X38697743Y-136273989D01*
X38401184Y-136215000D01*
X38098816Y-136215000D01*
X37802257Y-136273989D01*
X37522905Y-136389701D01*
X37271495Y-136557688D01*
X37057688Y-136771495D01*
X36889701Y-137022905D01*
X36773989Y-137302257D01*
X36715000Y-137598816D01*
X36454855Y-137598816D01*
X36476011Y-137547743D01*
X36535000Y-137251184D01*
X36535000Y-136948816D01*
X36476011Y-136652257D01*
X36360299Y-136372905D01*
X36192312Y-136121495D01*
X35978505Y-135907688D01*
X35727095Y-135739701D01*
X35447743Y-135623989D01*
X35151184Y-135565000D01*
X34848816Y-135565000D01*
X34552257Y-135623989D01*
X34272905Y-135739701D01*
X34021495Y-135907688D01*
X33807688Y-136121495D01*
X33639701Y-136372905D01*
X33523989Y-136652257D01*
X33465000Y-136948816D01*
X33060795Y-136948816D01*
X32942312Y-136771495D01*
X32728505Y-136557688D01*
X32477095Y-136389701D01*
X32197743Y-136273989D01*
X31901184Y-136215000D01*
X31598816Y-136215000D01*
X31302257Y-136273989D01*
X31110000Y-136353625D01*
X31110000Y-133645479D01*
X31221775Y-133699158D01*
X31514642Y-133774365D01*
X31816553Y-133790991D01*
X32115907Y-133748397D01*
X32401199Y-133648222D01*
X32550792Y-133568261D01*
X32634475Y-133314080D01*
X31750000Y-132429605D01*
X31735858Y-132443748D01*
X31556253Y-132264143D01*
X31570395Y-132250000D01*
X31929605Y-132250000D01*
X32814080Y-133134475D01*
X33068261Y-133050792D01*
X33199158Y-132778225D01*
X33206710Y-132748816D01*
X33465000Y-132748816D01*
X33465000Y-133051184D01*
X33523989Y-133347743D01*
X33639701Y-133627095D01*
X33807688Y-133878505D01*
X34021495Y-134092312D01*
X34272905Y-134260299D01*
X34552257Y-134376011D01*
X34848816Y-134435000D01*
X35151184Y-134435000D01*
X35261482Y-134413061D01*
X35443470Y-134595049D01*
X35471183Y-134628817D01*
X35504951Y-134656530D01*
X35504953Y-134656532D01*
X35509178Y-134659999D01*
X35605941Y-134739411D01*
X35759687Y-134821589D01*
X35875903Y-134856843D01*
X35926509Y-134872195D01*
X35941306Y-134873652D01*
X36056523Y-134885000D01*
X36056531Y-134885000D01*
X36100000Y-134889281D01*
X36143469Y-134885000D01*
X42893308Y-134885000D01*
X42927271Y-134899068D01*
X43107911Y-134935000D01*
X43292089Y-134935000D01*
X43472729Y-134899068D01*
X43642889Y-134828586D01*
X43796028Y-134726262D01*
X43926262Y-134596028D01*
X44028586Y-134442889D01*
X44099068Y-134272729D01*
X44135000Y-134092089D01*
X44135000Y-133907911D01*
X44099068Y-133727271D01*
X44028586Y-133557111D01*
X43926262Y-133403972D01*
X43796028Y-133273738D01*
X43642889Y-133171414D01*
X43472729Y-133100932D01*
X43292089Y-133065000D01*
X43107911Y-133065000D01*
X42927271Y-133100932D01*
X42893308Y-133115000D01*
X39518154Y-133115000D01*
X39610299Y-132977095D01*
X39726011Y-132697743D01*
X39785000Y-132401184D01*
X39785000Y-132098816D01*
X39726011Y-131802257D01*
X39610299Y-131522905D01*
X39442312Y-131271495D01*
X39228505Y-131057688D01*
X38977095Y-130889701D01*
X38697743Y-130773989D01*
X38401184Y-130715000D01*
X38098816Y-130715000D01*
X37802257Y-130773989D01*
X37522905Y-130889701D01*
X37271495Y-131057688D01*
X37057688Y-131271495D01*
X36889701Y-131522905D01*
X36773989Y-131802257D01*
X36715000Y-132098816D01*
X36715000Y-132401184D01*
X36773989Y-132697743D01*
X36889701Y-132977095D01*
X36981846Y-133115000D01*
X36522306Y-133115000D01*
X36535000Y-133051184D01*
X36535000Y-132748816D01*
X36476011Y-132452257D01*
X36360299Y-132172905D01*
X36192312Y-131921495D01*
X35978505Y-131707688D01*
X35727095Y-131539701D01*
X35447743Y-131423989D01*
X35151184Y-131365000D01*
X34848816Y-131365000D01*
X34552257Y-131423989D01*
X34272905Y-131539701D01*
X34021495Y-131707688D01*
X33807688Y-131921495D01*
X33639701Y-132172905D01*
X33523989Y-132452257D01*
X33465000Y-132748816D01*
X33206710Y-132748816D01*
X33274365Y-132485358D01*
X33290991Y-132183447D01*
X33248397Y-131884093D01*
X33148222Y-131598801D01*
X33068261Y-131449208D01*
X32814080Y-131365525D01*
X31929605Y-132250000D01*
X31570395Y-132250000D01*
X31556253Y-132235858D01*
X31735858Y-132056253D01*
X31750000Y-132070395D01*
X32634475Y-131185920D01*
X32550792Y-130931739D01*
X32278225Y-130800842D01*
X31985358Y-130725635D01*
X31683447Y-130709009D01*
X31384093Y-130751603D01*
X31110000Y-130847846D01*
X31110000Y-129707911D01*
X74865000Y-129707911D01*
X74865000Y-129892089D01*
X74900932Y-130072729D01*
X74971414Y-130242889D01*
X75040000Y-130345535D01*
X75040001Y-140454463D01*
X74971414Y-140557111D01*
X74900932Y-140727271D01*
X74865000Y-140907911D01*
X74865000Y-141092089D01*
X74900932Y-141272729D01*
X74971414Y-141442889D01*
X75073738Y-141596028D01*
X75203972Y-141726262D01*
X75357111Y-141828586D01*
X75527271Y-141899068D01*
X75707911Y-141935000D01*
X75892089Y-141935000D01*
X76072729Y-141899068D01*
X76242889Y-141828586D01*
X76396028Y-141726262D01*
X76526262Y-141596028D01*
X76628586Y-141442889D01*
X76699068Y-141272729D01*
X76735000Y-141092089D01*
X76735000Y-140907911D01*
X76699068Y-140727271D01*
X76628586Y-140557111D01*
X76560000Y-140454465D01*
X76560000Y-130345535D01*
X76628586Y-130242889D01*
X76699068Y-130072729D01*
X76735000Y-129892089D01*
X76735000Y-129707911D01*
X76699068Y-129527271D01*
X76628586Y-129357111D01*
X76526262Y-129203972D01*
X76396028Y-129073738D01*
X76242889Y-128971414D01*
X76072729Y-128900932D01*
X75892089Y-128865000D01*
X75707911Y-128865000D01*
X75527271Y-128900932D01*
X75357111Y-128971414D01*
X75203972Y-129073738D01*
X75073738Y-129203972D01*
X74971414Y-129357111D01*
X74900932Y-129527271D01*
X74865000Y-129707911D01*
X31110000Y-129707911D01*
X31110000Y-129146375D01*
X31302257Y-129226011D01*
X31598816Y-129285000D01*
X31901184Y-129285000D01*
X32197743Y-129226011D01*
X32477095Y-129110299D01*
X32728505Y-128942312D01*
X32942312Y-128728505D01*
X33110299Y-128477095D01*
X33226011Y-128197743D01*
X33285000Y-127901184D01*
X33285000Y-127598816D01*
X33226011Y-127302257D01*
X33110299Y-127022905D01*
X33060795Y-126948816D01*
X33465000Y-126948816D01*
X33465000Y-127251184D01*
X33523989Y-127547743D01*
X33639701Y-127827095D01*
X33807688Y-128078505D01*
X34021495Y-128292312D01*
X34272905Y-128460299D01*
X34552257Y-128576011D01*
X34848816Y-128635000D01*
X35151184Y-128635000D01*
X35447743Y-128576011D01*
X35727095Y-128460299D01*
X35978505Y-128292312D01*
X36192312Y-128078505D01*
X36360299Y-127827095D01*
X36454855Y-127598816D01*
X36715000Y-127598816D01*
X36715000Y-127901184D01*
X36773989Y-128197743D01*
X36889701Y-128477095D01*
X37057688Y-128728505D01*
X37271495Y-128942312D01*
X37522905Y-129110299D01*
X37802257Y-129226011D01*
X38098816Y-129285000D01*
X38401184Y-129285000D01*
X38697743Y-129226011D01*
X38977095Y-129110299D01*
X39228505Y-128942312D01*
X39442312Y-128728505D01*
X39610299Y-128477095D01*
X39726011Y-128197743D01*
X39785000Y-127901184D01*
X39785000Y-127598816D01*
X39726011Y-127302257D01*
X39610299Y-127022905D01*
X39442312Y-126771495D01*
X39228505Y-126557688D01*
X38977095Y-126389701D01*
X38697743Y-126273989D01*
X38401184Y-126215000D01*
X38098816Y-126215000D01*
X37802257Y-126273989D01*
X37522905Y-126389701D01*
X37271495Y-126557688D01*
X37057688Y-126771495D01*
X36889701Y-127022905D01*
X36773989Y-127302257D01*
X36715000Y-127598816D01*
X36454855Y-127598816D01*
X36476011Y-127547743D01*
X36535000Y-127251184D01*
X36535000Y-126948816D01*
X36476011Y-126652257D01*
X36360299Y-126372905D01*
X36192312Y-126121495D01*
X35978505Y-125907688D01*
X35727095Y-125739701D01*
X35447743Y-125623989D01*
X35151184Y-125565000D01*
X34848816Y-125565000D01*
X34552257Y-125623989D01*
X34272905Y-125739701D01*
X34021495Y-125907688D01*
X33807688Y-126121495D01*
X33639701Y-126372905D01*
X33523989Y-126652257D01*
X33465000Y-126948816D01*
X33060795Y-126948816D01*
X32942312Y-126771495D01*
X32728505Y-126557688D01*
X32477095Y-126389701D01*
X32197743Y-126273989D01*
X31901184Y-126215000D01*
X31598816Y-126215000D01*
X31302257Y-126273989D01*
X31110000Y-126353625D01*
X31110000Y-123645479D01*
X31221775Y-123699158D01*
X31514642Y-123774365D01*
X31816553Y-123790991D01*
X32115907Y-123748397D01*
X32401199Y-123648222D01*
X32550792Y-123568261D01*
X32634475Y-123314080D01*
X31750000Y-122429605D01*
X31735858Y-122443748D01*
X31556253Y-122264143D01*
X31570395Y-122250000D01*
X31929605Y-122250000D01*
X32814080Y-123134475D01*
X33068261Y-123050792D01*
X33199158Y-122778225D01*
X33206710Y-122748816D01*
X33465000Y-122748816D01*
X33465000Y-123051184D01*
X33523989Y-123347743D01*
X33639701Y-123627095D01*
X33807688Y-123878505D01*
X34021495Y-124092312D01*
X34272905Y-124260299D01*
X34552257Y-124376011D01*
X34848816Y-124435000D01*
X35151184Y-124435000D01*
X35321423Y-124401137D01*
X35359688Y-124421590D01*
X35526511Y-124472196D01*
X35656524Y-124485001D01*
X35656532Y-124485001D01*
X35700001Y-124489282D01*
X35743470Y-124485001D01*
X44756530Y-124485001D01*
X44799999Y-124489282D01*
X44843468Y-124485001D01*
X44843476Y-124485001D01*
X44973489Y-124472196D01*
X45140312Y-124421590D01*
X45294058Y-124339412D01*
X45428816Y-124228818D01*
X45456533Y-124195045D01*
X45608923Y-124042655D01*
X45642889Y-124028586D01*
X45796028Y-123926262D01*
X45926262Y-123796028D01*
X46028586Y-123642889D01*
X46099068Y-123472729D01*
X46135000Y-123292089D01*
X46135000Y-123107911D01*
X46099068Y-122927271D01*
X46028586Y-122757111D01*
X45926262Y-122603972D01*
X45796028Y-122473738D01*
X45642889Y-122371414D01*
X45472729Y-122300932D01*
X45292089Y-122265000D01*
X45107911Y-122265000D01*
X44927271Y-122300932D01*
X44757111Y-122371414D01*
X44603972Y-122473738D01*
X44473738Y-122603972D01*
X44399551Y-122715001D01*
X39718862Y-122715001D01*
X39726011Y-122697743D01*
X39785000Y-122401184D01*
X39785000Y-122098816D01*
X39726011Y-121802257D01*
X39610299Y-121522905D01*
X39442312Y-121271495D01*
X39228505Y-121057688D01*
X38977095Y-120889701D01*
X38697743Y-120773989D01*
X38401184Y-120715000D01*
X38098816Y-120715000D01*
X37802257Y-120773989D01*
X37522905Y-120889701D01*
X37271495Y-121057688D01*
X37057688Y-121271495D01*
X36889701Y-121522905D01*
X36773989Y-121802257D01*
X36715000Y-122098816D01*
X36715000Y-122401184D01*
X36773989Y-122697743D01*
X36781138Y-122715001D01*
X36528274Y-122715001D01*
X36476011Y-122452257D01*
X36360299Y-122172905D01*
X36192312Y-121921495D01*
X35978505Y-121707688D01*
X35727095Y-121539701D01*
X35447743Y-121423989D01*
X35151184Y-121365000D01*
X34848816Y-121365000D01*
X34552257Y-121423989D01*
X34272905Y-121539701D01*
X34021495Y-121707688D01*
X33807688Y-121921495D01*
X33639701Y-122172905D01*
X33523989Y-122452257D01*
X33465000Y-122748816D01*
X33206710Y-122748816D01*
X33274365Y-122485358D01*
X33290991Y-122183447D01*
X33248397Y-121884093D01*
X33148222Y-121598801D01*
X33068261Y-121449208D01*
X32814080Y-121365525D01*
X31929605Y-122250000D01*
X31570395Y-122250000D01*
X31556253Y-122235858D01*
X31735858Y-122056253D01*
X31750000Y-122070395D01*
X32634475Y-121185920D01*
X32550792Y-120931739D01*
X32278225Y-120800842D01*
X31985358Y-120725635D01*
X31683447Y-120709009D01*
X31384093Y-120751603D01*
X31110000Y-120847846D01*
X31110000Y-119146375D01*
X31302257Y-119226011D01*
X31598816Y-119285000D01*
X31901184Y-119285000D01*
X32197743Y-119226011D01*
X32477095Y-119110299D01*
X32728505Y-118942312D01*
X32942312Y-118728505D01*
X33110299Y-118477095D01*
X33226011Y-118197743D01*
X33285000Y-117901184D01*
X33285000Y-117598816D01*
X33226011Y-117302257D01*
X33110299Y-117022905D01*
X33060795Y-116948816D01*
X33465000Y-116948816D01*
X33465000Y-117251184D01*
X33523989Y-117547743D01*
X33639701Y-117827095D01*
X33807688Y-118078505D01*
X34021495Y-118292312D01*
X34272905Y-118460299D01*
X34552257Y-118576011D01*
X34848816Y-118635000D01*
X35151184Y-118635000D01*
X35447743Y-118576011D01*
X35727095Y-118460299D01*
X35978505Y-118292312D01*
X36192312Y-118078505D01*
X36360299Y-117827095D01*
X36454855Y-117598816D01*
X36715000Y-117598816D01*
X36715000Y-117901184D01*
X36773989Y-118197743D01*
X36889701Y-118477095D01*
X37057688Y-118728505D01*
X37271495Y-118942312D01*
X37522905Y-119110299D01*
X37802257Y-119226011D01*
X38098816Y-119285000D01*
X38401184Y-119285000D01*
X38697743Y-119226011D01*
X38977095Y-119110299D01*
X39228505Y-118942312D01*
X39442312Y-118728505D01*
X39610299Y-118477095D01*
X39726011Y-118197743D01*
X39785000Y-117901184D01*
X39785000Y-117598816D01*
X39726011Y-117302257D01*
X39610299Y-117022905D01*
X39442312Y-116771495D01*
X39228505Y-116557688D01*
X38977095Y-116389701D01*
X38697743Y-116273989D01*
X38401184Y-116215000D01*
X38098816Y-116215000D01*
X37802257Y-116273989D01*
X37522905Y-116389701D01*
X37271495Y-116557688D01*
X37057688Y-116771495D01*
X36889701Y-117022905D01*
X36773989Y-117302257D01*
X36715000Y-117598816D01*
X36454855Y-117598816D01*
X36476011Y-117547743D01*
X36535000Y-117251184D01*
X36535000Y-116948816D01*
X36476011Y-116652257D01*
X36360299Y-116372905D01*
X36192312Y-116121495D01*
X35978505Y-115907688D01*
X35727095Y-115739701D01*
X35447743Y-115623989D01*
X35151184Y-115565000D01*
X34848816Y-115565000D01*
X34552257Y-115623989D01*
X34272905Y-115739701D01*
X34021495Y-115907688D01*
X33807688Y-116121495D01*
X33639701Y-116372905D01*
X33523989Y-116652257D01*
X33465000Y-116948816D01*
X33060795Y-116948816D01*
X32942312Y-116771495D01*
X32728505Y-116557688D01*
X32477095Y-116389701D01*
X32197743Y-116273989D01*
X31901184Y-116215000D01*
X31598816Y-116215000D01*
X31302257Y-116273989D01*
X31110000Y-116353625D01*
X31110000Y-106773740D01*
X63515000Y-106773740D01*
X63515000Y-107066260D01*
X63572068Y-107353158D01*
X63684010Y-107623411D01*
X63846525Y-107866632D01*
X64053368Y-108073475D01*
X64235534Y-108195195D01*
X64118645Y-108264822D01*
X63902412Y-108459731D01*
X63728359Y-108693080D01*
X63603175Y-108955901D01*
X63558524Y-109103110D01*
X63679845Y-109333000D01*
X64873000Y-109333000D01*
X64873000Y-109313000D01*
X65127000Y-109313000D01*
X65127000Y-109333000D01*
X66320155Y-109333000D01*
X66441476Y-109103110D01*
X66396825Y-108955901D01*
X66271641Y-108693080D01*
X66097588Y-108459731D01*
X65881355Y-108264822D01*
X65764466Y-108195195D01*
X65946632Y-108073475D01*
X66153475Y-107866632D01*
X66315990Y-107623411D01*
X66427932Y-107353158D01*
X66485000Y-107066260D01*
X66485000Y-106773740D01*
X66432123Y-106507911D01*
X66865000Y-106507911D01*
X66865000Y-106692089D01*
X66900932Y-106872729D01*
X66971414Y-107042889D01*
X67073738Y-107196028D01*
X67203972Y-107326262D01*
X67357111Y-107428586D01*
X67527271Y-107499068D01*
X67707911Y-107535000D01*
X67892089Y-107535000D01*
X68072729Y-107499068D01*
X68106692Y-107485000D01*
X71893308Y-107485000D01*
X71927271Y-107499068D01*
X72107911Y-107535000D01*
X72292089Y-107535000D01*
X72472729Y-107499068D01*
X72642889Y-107428586D01*
X72796028Y-107326262D01*
X72926262Y-107196028D01*
X73028586Y-107042889D01*
X73099068Y-106872729D01*
X73135000Y-106692089D01*
X73135000Y-106507911D01*
X73099068Y-106327271D01*
X73028586Y-106157111D01*
X72926262Y-106003972D01*
X72796028Y-105873738D01*
X72642889Y-105771414D01*
X72472729Y-105700932D01*
X72292089Y-105665000D01*
X72107911Y-105665000D01*
X71927271Y-105700932D01*
X71893308Y-105715000D01*
X68106692Y-105715000D01*
X68072729Y-105700932D01*
X67892089Y-105665000D01*
X67707911Y-105665000D01*
X67527271Y-105700932D01*
X67357111Y-105771414D01*
X67203972Y-105873738D01*
X67073738Y-106003972D01*
X66971414Y-106157111D01*
X66900932Y-106327271D01*
X66865000Y-106507911D01*
X66432123Y-106507911D01*
X66427932Y-106486842D01*
X66315990Y-106216589D01*
X66153475Y-105973368D01*
X65946632Y-105766525D01*
X65703411Y-105604010D01*
X65433158Y-105492068D01*
X65146260Y-105435000D01*
X64853740Y-105435000D01*
X64566842Y-105492068D01*
X64296589Y-105604010D01*
X64053368Y-105766525D01*
X63846525Y-105973368D01*
X63684010Y-106216589D01*
X63572068Y-106486842D01*
X63515000Y-106773740D01*
X31110000Y-106773740D01*
X31110000Y-101879872D01*
X32665000Y-101879872D01*
X32665000Y-102320128D01*
X32750890Y-102751925D01*
X32919369Y-103158669D01*
X33163962Y-103524729D01*
X33475271Y-103836038D01*
X33841331Y-104080631D01*
X34248075Y-104249110D01*
X34679872Y-104335000D01*
X35120128Y-104335000D01*
X35551925Y-104249110D01*
X35958669Y-104080631D01*
X36324729Y-103836038D01*
X36636038Y-103524729D01*
X36880631Y-103158669D01*
X37049110Y-102751925D01*
X37135000Y-102320128D01*
X37135000Y-101879872D01*
X37092880Y-101668120D01*
X65161000Y-101668120D01*
X65161000Y-101931880D01*
X65212457Y-102190572D01*
X65313393Y-102434254D01*
X65459931Y-102653563D01*
X65646437Y-102840069D01*
X65865746Y-102986607D01*
X66109428Y-103087543D01*
X66368120Y-103139000D01*
X66631880Y-103139000D01*
X66890572Y-103087543D01*
X67134254Y-102986607D01*
X67353563Y-102840069D01*
X67540069Y-102653563D01*
X67686607Y-102434254D01*
X67787543Y-102190572D01*
X67839000Y-101931880D01*
X67839000Y-101668120D01*
X67787543Y-101409428D01*
X67686607Y-101165746D01*
X67540069Y-100946437D01*
X67353563Y-100759931D01*
X67134254Y-100613393D01*
X66890572Y-100512457D01*
X66631880Y-100461000D01*
X66368120Y-100461000D01*
X66109428Y-100512457D01*
X65865746Y-100613393D01*
X65646437Y-100759931D01*
X65459931Y-100946437D01*
X65313393Y-101165746D01*
X65212457Y-101409428D01*
X65161000Y-101668120D01*
X37092880Y-101668120D01*
X37049110Y-101448075D01*
X36880631Y-101041331D01*
X36636038Y-100675271D01*
X36324729Y-100363962D01*
X35958669Y-100119369D01*
X35551925Y-99950890D01*
X35120128Y-99865000D01*
X34679872Y-99865000D01*
X34248075Y-99950890D01*
X33841331Y-100119369D01*
X33475271Y-100363962D01*
X33163962Y-100675271D01*
X32919369Y-101041331D01*
X32750890Y-101448075D01*
X32665000Y-101879872D01*
X31110000Y-101879872D01*
X31110000Y-101634721D01*
X31175998Y-100961630D01*
X31361392Y-100347576D01*
X31662525Y-99781227D01*
X32067928Y-99284152D01*
X32562159Y-98875288D01*
X33126389Y-98570210D01*
X33739137Y-98380533D01*
X34410204Y-98310000D01*
X45957430Y-98310000D01*
X45898731Y-98368699D01*
X45678761Y-98697908D01*
X45527243Y-99063704D01*
X45450000Y-99452032D01*
X45450000Y-99847968D01*
X45527243Y-100236296D01*
X45678761Y-100602092D01*
X45898731Y-100931301D01*
X46178699Y-101211269D01*
X46507908Y-101431239D01*
X46873704Y-101582757D01*
X47262032Y-101660000D01*
X47657968Y-101660000D01*
X48046296Y-101582757D01*
X48412092Y-101431239D01*
X48741301Y-101211269D01*
X49021269Y-100931301D01*
X49241239Y-100602092D01*
X49392757Y-100236296D01*
X49470000Y-99847968D01*
X49470000Y-99452032D01*
X49392757Y-99063704D01*
X49241239Y-98697908D01*
X49021269Y-98368699D01*
X48962570Y-98310000D01*
X51037430Y-98310000D01*
X50978731Y-98368699D01*
X50758761Y-98697908D01*
X50607243Y-99063704D01*
X50530000Y-99452032D01*
X50530000Y-99847968D01*
X50607243Y-100236296D01*
X50758761Y-100602092D01*
X50978731Y-100931301D01*
X51258699Y-101211269D01*
X51587908Y-101431239D01*
X51953704Y-101582757D01*
X52342032Y-101660000D01*
X52737968Y-101660000D01*
X53126296Y-101582757D01*
X53492092Y-101431239D01*
X53821301Y-101211269D01*
X54101269Y-100931301D01*
X54321239Y-100602092D01*
X54472757Y-100236296D01*
X54550000Y-99847968D01*
X54550000Y-99452032D01*
X54472757Y-99063704D01*
X54321239Y-98697908D01*
X54101269Y-98368699D01*
X54042570Y-98310000D01*
X64181733Y-98310000D01*
X64139701Y-98372905D01*
X64023989Y-98652257D01*
X63965000Y-98948816D01*
X63965000Y-99251184D01*
X64023989Y-99547743D01*
X64139701Y-99827095D01*
X64307688Y-100078505D01*
X64521495Y-100292312D01*
X64772905Y-100460299D01*
X65052257Y-100576011D01*
X65348816Y-100635000D01*
X65651184Y-100635000D01*
X65947743Y-100576011D01*
X66227095Y-100460299D01*
X66478505Y-100292312D01*
X66692312Y-100078505D01*
X66860299Y-99827095D01*
X66976011Y-99547743D01*
X67035000Y-99251184D01*
X67035000Y-98948816D01*
X66976011Y-98652257D01*
X66860299Y-98372905D01*
X66818267Y-98310000D01*
X71181733Y-98310000D01*
X71139701Y-98372905D01*
X71023989Y-98652257D01*
X70965000Y-98948816D01*
X70965000Y-99251184D01*
X71023989Y-99547743D01*
X71082914Y-99690000D01*
X70812290Y-99690000D01*
X70796028Y-99673738D01*
X70642889Y-99571414D01*
X70472729Y-99500932D01*
X70292089Y-99465000D01*
X70107911Y-99465000D01*
X69927271Y-99500932D01*
X69757111Y-99571414D01*
X69603972Y-99673738D01*
X69600000Y-99677710D01*
X69596028Y-99673738D01*
X69442889Y-99571414D01*
X69272729Y-99500932D01*
X69092089Y-99465000D01*
X68907911Y-99465000D01*
X68727271Y-99500932D01*
X68557111Y-99571414D01*
X68403972Y-99673738D01*
X68273738Y-99803972D01*
X68171414Y-99957111D01*
X68100932Y-100127271D01*
X68065000Y-100307911D01*
X68065000Y-100492089D01*
X68100932Y-100672729D01*
X68171414Y-100842889D01*
X68273738Y-100996028D01*
X68403972Y-101126262D01*
X68557111Y-101228586D01*
X68727271Y-101299068D01*
X68907911Y-101335000D01*
X68930909Y-101335000D01*
X69273288Y-101677379D01*
X69295525Y-101704475D01*
X69403637Y-101793200D01*
X69526980Y-101859128D01*
X69660816Y-101899727D01*
X69765123Y-101910000D01*
X69765125Y-101910000D01*
X69800000Y-101913435D01*
X69834875Y-101910000D01*
X70161000Y-101910000D01*
X70161000Y-101931880D01*
X70212457Y-102190572D01*
X70313393Y-102434254D01*
X70459931Y-102653563D01*
X70646437Y-102840069D01*
X70865746Y-102986607D01*
X71109428Y-103087543D01*
X71368120Y-103139000D01*
X71631880Y-103139000D01*
X71890572Y-103087543D01*
X72134254Y-102986607D01*
X72353563Y-102840069D01*
X72540069Y-102653563D01*
X72686607Y-102434254D01*
X72787543Y-102190572D01*
X72798597Y-102134999D01*
X87486189Y-102134999D01*
X87471414Y-102157111D01*
X87400932Y-102327271D01*
X87365000Y-102507911D01*
X87365000Y-102692089D01*
X87400932Y-102872729D01*
X87471414Y-103042889D01*
X87573738Y-103196028D01*
X87703972Y-103326262D01*
X87857111Y-103428586D01*
X88027271Y-103499068D01*
X88207911Y-103535000D01*
X88392089Y-103535000D01*
X88572729Y-103499068D01*
X88742889Y-103428586D01*
X88896028Y-103326262D01*
X88912290Y-103310000D01*
X89468563Y-103310000D01*
X89500932Y-103472729D01*
X89571414Y-103642889D01*
X89673738Y-103796028D01*
X89803972Y-103926262D01*
X89957111Y-104028586D01*
X90127271Y-104099068D01*
X90282473Y-104129940D01*
X90300932Y-104222739D01*
X90371414Y-104392899D01*
X90473738Y-104546038D01*
X90603972Y-104676272D01*
X90757111Y-104778596D01*
X90927271Y-104849078D01*
X91107911Y-104885010D01*
X91292089Y-104885010D01*
X91472729Y-104849078D01*
X91642889Y-104778596D01*
X91796028Y-104676272D01*
X91926262Y-104546038D01*
X91950342Y-104510000D01*
X93273534Y-104510000D01*
X93300932Y-104647739D01*
X93371414Y-104817899D01*
X93473738Y-104971038D01*
X93603972Y-105101272D01*
X93757111Y-105203596D01*
X93927271Y-105274078D01*
X94107911Y-105310010D01*
X94292089Y-105310010D01*
X94472729Y-105274078D01*
X94642889Y-105203596D01*
X94796028Y-105101272D01*
X94812290Y-105085010D01*
X106861145Y-105085010D01*
X106807296Y-105138859D01*
X106704972Y-105291998D01*
X106634490Y-105462158D01*
X106598558Y-105642798D01*
X106598558Y-105826976D01*
X106634490Y-106007616D01*
X106704972Y-106177776D01*
X106807296Y-106330915D01*
X106937530Y-106461149D01*
X107090669Y-106563473D01*
X107260829Y-106633955D01*
X107441469Y-106669887D01*
X107625647Y-106669887D01*
X107806287Y-106633955D01*
X107840250Y-106619887D01*
X109496160Y-106619887D01*
X109426979Y-106640873D01*
X109381840Y-106665000D01*
X109307911Y-106665000D01*
X109127271Y-106700932D01*
X108957111Y-106771414D01*
X108803972Y-106873738D01*
X108673738Y-107003972D01*
X108571414Y-107157111D01*
X108500932Y-107327271D01*
X108465000Y-107507911D01*
X108465000Y-107692089D01*
X108500932Y-107872729D01*
X108571414Y-108042889D01*
X108609574Y-108100000D01*
X108571414Y-108157111D01*
X108500932Y-108327271D01*
X108468563Y-108490000D01*
X108059884Y-108490000D01*
X108025009Y-108486565D01*
X107990134Y-108490000D01*
X107990133Y-108490000D01*
X107924524Y-108496462D01*
X107892089Y-108490010D01*
X107707911Y-108490010D01*
X107527271Y-108525942D01*
X107357111Y-108596424D01*
X107203972Y-108698748D01*
X107073738Y-108828982D01*
X106971414Y-108982121D01*
X106928778Y-109085055D01*
X106848857Y-109100952D01*
X106678697Y-109171434D01*
X106525558Y-109273758D01*
X106433733Y-109365583D01*
X106305223Y-109340021D01*
X106121045Y-109340021D01*
X105940405Y-109375953D01*
X105770245Y-109446435D01*
X105617106Y-109548759D01*
X105486872Y-109678993D01*
X105384548Y-109832132D01*
X105314066Y-110002292D01*
X105278134Y-110182932D01*
X105278134Y-110367110D01*
X105314066Y-110547750D01*
X105384548Y-110717910D01*
X105486872Y-110871049D01*
X105513281Y-110897458D01*
X105500932Y-110927271D01*
X105465000Y-111107911D01*
X105465000Y-111292089D01*
X105500932Y-111472729D01*
X105571414Y-111642889D01*
X105619597Y-111715000D01*
X103081559Y-111715000D01*
X103099068Y-111672729D01*
X103135000Y-111492089D01*
X103135000Y-111307911D01*
X103099068Y-111127271D01*
X103028586Y-110957111D01*
X102926262Y-110803972D01*
X102796028Y-110673738D01*
X102642889Y-110571414D01*
X102472729Y-110500932D01*
X102292089Y-110465000D01*
X102269092Y-110465000D01*
X101326712Y-109522621D01*
X101304475Y-109495525D01*
X101196363Y-109406800D01*
X101073020Y-109340872D01*
X100939184Y-109300273D01*
X100834877Y-109290000D01*
X100834875Y-109290000D01*
X100800000Y-109286565D01*
X100765125Y-109290000D01*
X77485878Y-109290000D01*
X77451003Y-109286565D01*
X77416128Y-109290000D01*
X77416127Y-109290000D01*
X77311820Y-109300273D01*
X77177984Y-109340872D01*
X77062603Y-109402545D01*
X77054639Y-109406801D01*
X77006345Y-109446435D01*
X76946529Y-109495525D01*
X76924296Y-109522616D01*
X75800000Y-110646912D01*
X74675708Y-109522621D01*
X74653471Y-109495525D01*
X74545359Y-109406800D01*
X74422016Y-109340872D01*
X74288180Y-109300273D01*
X74183873Y-109290000D01*
X74183871Y-109290000D01*
X74148996Y-109286565D01*
X74114121Y-109290000D01*
X68034875Y-109290000D01*
X68000000Y-109286565D01*
X67965125Y-109290000D01*
X67965123Y-109290000D01*
X67860816Y-109300273D01*
X67726980Y-109340872D01*
X67603637Y-109406800D01*
X67495525Y-109495525D01*
X67473288Y-109522621D01*
X66722617Y-110273292D01*
X66695525Y-110295526D01*
X66606800Y-110403638D01*
X66540872Y-110526981D01*
X66500273Y-110660817D01*
X66492967Y-110735000D01*
X66486565Y-110800000D01*
X66490000Y-110834875D01*
X66490001Y-111700910D01*
X66488072Y-111702839D01*
X66488072Y-111150000D01*
X66475812Y-111025518D01*
X66439502Y-110905820D01*
X66380537Y-110795506D01*
X66301185Y-110698815D01*
X66204494Y-110619463D01*
X66094180Y-110560498D01*
X66013534Y-110536034D01*
X66097588Y-110460269D01*
X66271641Y-110226920D01*
X66396825Y-109964099D01*
X66441476Y-109816890D01*
X66320155Y-109587000D01*
X65127000Y-109587000D01*
X65127000Y-109607000D01*
X64873000Y-109607000D01*
X64873000Y-109587000D01*
X63679845Y-109587000D01*
X63558524Y-109816890D01*
X63603175Y-109964099D01*
X63728359Y-110226920D01*
X63902412Y-110460269D01*
X63986466Y-110536034D01*
X63905820Y-110560498D01*
X63795506Y-110619463D01*
X63698815Y-110698815D01*
X63619463Y-110795506D01*
X63560498Y-110905820D01*
X63524188Y-111025518D01*
X63511928Y-111150000D01*
X63511928Y-112850000D01*
X63524188Y-112974482D01*
X63560498Y-113094180D01*
X63619463Y-113204494D01*
X63698815Y-113301185D01*
X63795506Y-113380537D01*
X63905820Y-113439502D01*
X64025518Y-113475812D01*
X64150000Y-113488072D01*
X64702839Y-113488072D01*
X64600910Y-113590001D01*
X59673710Y-113590001D01*
X59703937Y-113559774D01*
X59817205Y-113390256D01*
X59895226Y-113201898D01*
X59935000Y-113001939D01*
X59935000Y-112798061D01*
X59895226Y-112598102D01*
X59817205Y-112409744D01*
X59703937Y-112240226D01*
X59559774Y-112096063D01*
X59390256Y-111982795D01*
X59201898Y-111904774D01*
X59145043Y-111893465D01*
X59006534Y-111754956D01*
X58978817Y-111721183D01*
X58844059Y-111610589D01*
X58690313Y-111528411D01*
X58523490Y-111477805D01*
X58393477Y-111465000D01*
X58393469Y-111465000D01*
X58350000Y-111460719D01*
X58306531Y-111465000D01*
X56509029Y-111465000D01*
X56481239Y-111397908D01*
X56261269Y-111068699D01*
X55981301Y-110788731D01*
X55652092Y-110568761D01*
X55286296Y-110417243D01*
X54897968Y-110340000D01*
X54502032Y-110340000D01*
X54113704Y-110417243D01*
X53747908Y-110568761D01*
X53418699Y-110788731D01*
X53138731Y-111068699D01*
X52918761Y-111397908D01*
X52767243Y-111763704D01*
X52690000Y-112152032D01*
X52690000Y-112547968D01*
X52767243Y-112936296D01*
X52918761Y-113302092D01*
X53111135Y-113590001D01*
X51588865Y-113590001D01*
X51781239Y-113302092D01*
X51932757Y-112936296D01*
X52010000Y-112547968D01*
X52010000Y-112152032D01*
X51932757Y-111763704D01*
X51781239Y-111397908D01*
X51561269Y-111068699D01*
X51281301Y-110788731D01*
X50952092Y-110568761D01*
X50586296Y-110417243D01*
X50197968Y-110340000D01*
X49802032Y-110340000D01*
X49413704Y-110417243D01*
X49047908Y-110568761D01*
X48718699Y-110788731D01*
X48438731Y-111068699D01*
X48218761Y-111397908D01*
X48067243Y-111763704D01*
X47990000Y-112152032D01*
X47990000Y-112547968D01*
X48067243Y-112936296D01*
X48218761Y-113302092D01*
X48411135Y-113590001D01*
X46888865Y-113590001D01*
X47081239Y-113302092D01*
X47232757Y-112936296D01*
X47310000Y-112547968D01*
X47310000Y-112152032D01*
X47232757Y-111763704D01*
X47081239Y-111397908D01*
X46861269Y-111068699D01*
X46581301Y-110788731D01*
X46252092Y-110568761D01*
X45886296Y-110417243D01*
X45497968Y-110340000D01*
X45102032Y-110340000D01*
X44713704Y-110417243D01*
X44347908Y-110568761D01*
X44018699Y-110788731D01*
X43738731Y-111068699D01*
X43518761Y-111397908D01*
X43367243Y-111763704D01*
X43290000Y-112152032D01*
X43290000Y-112547968D01*
X43367243Y-112936296D01*
X43518761Y-113302092D01*
X43711135Y-113590001D01*
X40934874Y-113590001D01*
X40899999Y-113586566D01*
X40865124Y-113590001D01*
X40865122Y-113590001D01*
X40760815Y-113600274D01*
X40626979Y-113640873D01*
X40581840Y-113665000D01*
X40507911Y-113665000D01*
X40327271Y-113700932D01*
X40157111Y-113771414D01*
X40003972Y-113873738D01*
X39873738Y-114003972D01*
X39771414Y-114157111D01*
X39700932Y-114327271D01*
X39665000Y-114507911D01*
X39665000Y-114692089D01*
X39700932Y-114872729D01*
X39771414Y-115042889D01*
X39873738Y-115196028D01*
X40003972Y-115326262D01*
X40157111Y-115428586D01*
X40327271Y-115499068D01*
X40507911Y-115535000D01*
X40692089Y-115535000D01*
X40872729Y-115499068D01*
X41042889Y-115428586D01*
X41196028Y-115326262D01*
X41292409Y-115229881D01*
X41300932Y-115272729D01*
X41371414Y-115442889D01*
X41473738Y-115596028D01*
X41603972Y-115726262D01*
X41757111Y-115828586D01*
X41927271Y-115899068D01*
X42107911Y-115935000D01*
X42292089Y-115935000D01*
X42472729Y-115899068D01*
X42642889Y-115828586D01*
X42796028Y-115726262D01*
X42926262Y-115596028D01*
X43028586Y-115442889D01*
X43042209Y-115410001D01*
X48665000Y-115410001D01*
X48665000Y-115492089D01*
X48700932Y-115672729D01*
X48771414Y-115842889D01*
X48873738Y-115996028D01*
X49003972Y-116126262D01*
X49157111Y-116228586D01*
X49327271Y-116299068D01*
X49507911Y-116335000D01*
X49530908Y-116335000D01*
X49848294Y-116652386D01*
X49870527Y-116679477D01*
X49978639Y-116768202D01*
X50101982Y-116834130D01*
X50235818Y-116874729D01*
X50340125Y-116885002D01*
X50340126Y-116885002D01*
X50375001Y-116888437D01*
X50409876Y-116885002D01*
X75065000Y-116885002D01*
X75065000Y-116892089D01*
X75100932Y-117072729D01*
X75171414Y-117242889D01*
X75240000Y-117345536D01*
X75240001Y-121654463D01*
X75171414Y-121757111D01*
X75100932Y-121927271D01*
X75065000Y-122107911D01*
X75065000Y-122292089D01*
X75100932Y-122472729D01*
X75171414Y-122642889D01*
X75273738Y-122796028D01*
X75403972Y-122926262D01*
X75557111Y-123028586D01*
X75727271Y-123099068D01*
X75907911Y-123135000D01*
X76092089Y-123135000D01*
X76272729Y-123099068D01*
X76442889Y-123028586D01*
X76596028Y-122926262D01*
X76726262Y-122796028D01*
X76828586Y-122642889D01*
X76899068Y-122472729D01*
X76935000Y-122292089D01*
X76935000Y-122107911D01*
X76899068Y-121927271D01*
X76828586Y-121757111D01*
X76760000Y-121654465D01*
X76760000Y-117345535D01*
X76828586Y-117242889D01*
X76899068Y-117072729D01*
X76935000Y-116892089D01*
X76935000Y-116885002D01*
X80990123Y-116885002D01*
X81024998Y-116888437D01*
X81059873Y-116885002D01*
X81059875Y-116885002D01*
X81164182Y-116874729D01*
X81298018Y-116834130D01*
X81421361Y-116768202D01*
X81461818Y-116735000D01*
X81492089Y-116735000D01*
X81672729Y-116699068D01*
X81842889Y-116628586D01*
X81996028Y-116526262D01*
X82035356Y-116486934D01*
X82943470Y-117395049D01*
X82971183Y-117428817D01*
X83004951Y-117456530D01*
X83004953Y-117456532D01*
X83089919Y-117526262D01*
X83105941Y-117539411D01*
X83259687Y-117621589D01*
X83426510Y-117672195D01*
X83556523Y-117685000D01*
X83556531Y-117685000D01*
X83600000Y-117689281D01*
X83643469Y-117685000D01*
X84493308Y-117685000D01*
X84527271Y-117699068D01*
X84707911Y-117735000D01*
X84892089Y-117735000D01*
X85072729Y-117699068D01*
X85242889Y-117628586D01*
X85396028Y-117526262D01*
X85526262Y-117396028D01*
X85628586Y-117242889D01*
X85699068Y-117072729D01*
X85735000Y-116892089D01*
X85735000Y-116707911D01*
X85699068Y-116527271D01*
X85664438Y-116443665D01*
X102665000Y-116443665D01*
X102665000Y-116492089D01*
X102700932Y-116672729D01*
X102771414Y-116842889D01*
X102873738Y-116996028D01*
X102975074Y-117097364D01*
X102975073Y-118408978D01*
X102958811Y-118425240D01*
X102856487Y-118578379D01*
X102786005Y-118748539D01*
X102750073Y-118929179D01*
X102750073Y-119113357D01*
X102786005Y-119293997D01*
X102856487Y-119464157D01*
X102958811Y-119617296D01*
X103089045Y-119747530D01*
X103242184Y-119849854D01*
X103412344Y-119920336D01*
X103592984Y-119956268D01*
X103777162Y-119956268D01*
X103957802Y-119920336D01*
X104127962Y-119849854D01*
X104281101Y-119747530D01*
X104411335Y-119617296D01*
X104513659Y-119464157D01*
X104584141Y-119293997D01*
X104620073Y-119113357D01*
X104620073Y-118929179D01*
X104584141Y-118748539D01*
X104513659Y-118578379D01*
X104411335Y-118425240D01*
X104395073Y-118408978D01*
X104395073Y-116893045D01*
X104428586Y-116842889D01*
X104499068Y-116672729D01*
X104519309Y-116570971D01*
X104668416Y-116632733D01*
X104849056Y-116668665D01*
X105033234Y-116668665D01*
X105213874Y-116632733D01*
X105384034Y-116562251D01*
X105537173Y-116459927D01*
X105667407Y-116329693D01*
X105769731Y-116176554D01*
X105840213Y-116006394D01*
X105876145Y-115825754D01*
X105876145Y-115641576D01*
X105840213Y-115460936D01*
X105769731Y-115290776D01*
X105667407Y-115137637D01*
X105537173Y-115007403D01*
X105384034Y-114905079D01*
X105213874Y-114834597D01*
X105185715Y-114828996D01*
X105314722Y-114699989D01*
X130871634Y-114699989D01*
X132849024Y-116677379D01*
X132871261Y-116704475D01*
X132979373Y-116793200D01*
X133055946Y-116834129D01*
X133102716Y-116859128D01*
X133151696Y-116873986D01*
X133203972Y-116926262D01*
X133357111Y-117028586D01*
X133527271Y-117099068D01*
X133707911Y-117135000D01*
X133892089Y-117135000D01*
X134072729Y-117099068D01*
X134242889Y-117028586D01*
X134396028Y-116926262D01*
X134526262Y-116796028D01*
X134628586Y-116642889D01*
X134699068Y-116472729D01*
X134735000Y-116292089D01*
X134735000Y-116107911D01*
X134699068Y-115927271D01*
X134628586Y-115757111D01*
X134526262Y-115603972D01*
X134403189Y-115480899D01*
X134428586Y-115442889D01*
X134499068Y-115272729D01*
X134535000Y-115092089D01*
X134535000Y-114907911D01*
X134499068Y-114727271D01*
X134428586Y-114557111D01*
X134326262Y-114403972D01*
X134196028Y-114273738D01*
X134042889Y-114171414D01*
X133872729Y-114100932D01*
X133692089Y-114065000D01*
X133507911Y-114065000D01*
X133327271Y-114100932D01*
X133170118Y-114166027D01*
X132489091Y-113485000D01*
X133950529Y-113485000D01*
X133993998Y-113489281D01*
X134037467Y-113485000D01*
X134037475Y-113485000D01*
X134167488Y-113472195D01*
X134334311Y-113421589D01*
X134488057Y-113339411D01*
X134622815Y-113228817D01*
X134650532Y-113195044D01*
X143795051Y-104050526D01*
X143828817Y-104022815D01*
X143863793Y-103980198D01*
X143939411Y-103888057D01*
X143989126Y-103795046D01*
X144021589Y-103734311D01*
X144072195Y-103567488D01*
X144085000Y-103437475D01*
X144085000Y-103437467D01*
X144089281Y-103393998D01*
X144085000Y-103350529D01*
X144085000Y-101693985D01*
X144242889Y-101628586D01*
X144396028Y-101526262D01*
X144526262Y-101396028D01*
X144628586Y-101242889D01*
X144699068Y-101072729D01*
X144735000Y-100892089D01*
X144735000Y-100707911D01*
X144699068Y-100527271D01*
X144628586Y-100357111D01*
X144526262Y-100203972D01*
X144396028Y-100073738D01*
X144242889Y-99971414D01*
X144208924Y-99957345D01*
X144085000Y-99833422D01*
X144085000Y-94306692D01*
X144099068Y-94272729D01*
X144135000Y-94092089D01*
X144135000Y-93907911D01*
X144099068Y-93727271D01*
X144028586Y-93557111D01*
X143926262Y-93403972D01*
X143796028Y-93273738D01*
X143642889Y-93171414D01*
X143472729Y-93100932D01*
X143292089Y-93065000D01*
X143210000Y-93065000D01*
X143210000Y-92134721D01*
X143247430Y-91752982D01*
X143348211Y-91419181D01*
X143511907Y-91111313D01*
X143732284Y-90841104D01*
X144000952Y-90618843D01*
X144307663Y-90453005D01*
X144640753Y-90349896D01*
X145020341Y-90310000D01*
X161985478Y-90310000D01*
X162021822Y-90429811D01*
%TA.AperFunction,Conductor*%
D25*
G36*
X162021822Y-90429811D02*
G01*
X162039198Y-90606234D01*
X162039198Y-108990343D01*
X161911788Y-108965000D01*
X161688212Y-108965000D01*
X161468933Y-109008617D01*
X161313499Y-109073000D01*
X160700000Y-109073000D01*
X160675224Y-109075440D01*
X160651399Y-109082667D01*
X160629443Y-109094403D01*
X160610197Y-109110197D01*
X160594403Y-109129443D01*
X160582667Y-109151399D01*
X160575440Y-109175224D01*
X160573000Y-109200000D01*
X160573000Y-112000000D01*
X160575440Y-112024776D01*
X160582667Y-112048601D01*
X160594403Y-112070557D01*
X160610197Y-112089803D01*
X160629443Y-112105597D01*
X160651399Y-112117333D01*
X160675224Y-112124560D01*
X160700000Y-112127000D01*
X162039198Y-112127000D01*
X162039198Y-139500000D01*
X162039810Y-139512448D01*
X162059025Y-139707538D01*
X162063881Y-139731956D01*
X162120786Y-139919549D01*
X162130314Y-139942550D01*
X162222724Y-140115437D01*
X162236556Y-140136138D01*
X162360919Y-140287675D01*
X162378523Y-140305279D01*
X162530060Y-140429642D01*
X162550761Y-140443474D01*
X162723648Y-140535884D01*
X162746649Y-140545412D01*
X162934242Y-140602317D01*
X162958660Y-140607173D01*
X163153750Y-140626388D01*
X163166198Y-140627000D01*
X179559964Y-140627000D01*
X179690000Y-140639807D01*
X179690000Y-141715320D01*
X179610299Y-141522905D01*
X179442312Y-141271495D01*
X179228505Y-141057688D01*
X178977095Y-140889701D01*
X178697743Y-140773989D01*
X178401184Y-140715000D01*
X178098816Y-140715000D01*
X177802257Y-140773989D01*
X177522905Y-140889701D01*
X177271495Y-141057688D01*
X177057688Y-141271495D01*
X176889701Y-141522905D01*
X176773989Y-141802257D01*
X176715000Y-142098816D01*
X176715000Y-142401184D01*
X176773989Y-142697743D01*
X176889701Y-142977095D01*
X177057688Y-143228505D01*
X177271495Y-143442312D01*
X177522905Y-143610299D01*
X177802257Y-143726011D01*
X178098816Y-143785000D01*
X178401184Y-143785000D01*
X178697743Y-143726011D01*
X178977095Y-143610299D01*
X179228505Y-143442312D01*
X179442312Y-143228505D01*
X179610299Y-142977095D01*
X179690000Y-142784680D01*
X179690000Y-153565280D01*
X179624004Y-154238366D01*
X179438607Y-154852428D01*
X179137474Y-155418775D01*
X178732071Y-155915847D01*
X178237842Y-156324710D01*
X177673611Y-156629790D01*
X177060862Y-156819467D01*
X176389787Y-156890000D01*
X126180817Y-156890000D01*
X126192312Y-156878505D01*
X126360299Y-156627095D01*
X126476011Y-156347743D01*
X126535000Y-156051184D01*
X126535000Y-155748816D01*
X126476011Y-155452257D01*
X126360299Y-155172905D01*
X126310795Y-155098816D01*
X126715000Y-155098816D01*
X126715000Y-155401184D01*
X126773989Y-155697743D01*
X126889701Y-155977095D01*
X127057688Y-156228505D01*
X127271495Y-156442312D01*
X127522905Y-156610299D01*
X127802257Y-156726011D01*
X128098816Y-156785000D01*
X128401184Y-156785000D01*
X128697743Y-156726011D01*
X128977095Y-156610299D01*
X129228505Y-156442312D01*
X129442312Y-156228505D01*
X129610299Y-155977095D01*
X129726011Y-155697743D01*
X129785000Y-155401184D01*
X129785000Y-155098816D01*
X129726011Y-154802257D01*
X129610299Y-154522905D01*
X129442312Y-154271495D01*
X129228505Y-154057688D01*
X128977095Y-153889701D01*
X128697743Y-153773989D01*
X128401184Y-153715000D01*
X128098816Y-153715000D01*
X127802257Y-153773989D01*
X127522905Y-153889701D01*
X127271495Y-154057688D01*
X127057688Y-154271495D01*
X126889701Y-154522905D01*
X126773989Y-154802257D01*
X126715000Y-155098816D01*
X126310795Y-155098816D01*
X126192312Y-154921495D01*
X125978505Y-154707688D01*
X125727095Y-154539701D01*
X125447743Y-154423989D01*
X125151184Y-154365000D01*
X124848816Y-154365000D01*
X124552257Y-154423989D01*
X124272905Y-154539701D01*
X124021495Y-154707688D01*
X123807688Y-154921495D01*
X123639701Y-155172905D01*
X123523989Y-155452257D01*
X123465000Y-155748816D01*
X123465000Y-156051184D01*
X123523989Y-156347743D01*
X123639701Y-156627095D01*
X123807688Y-156878505D01*
X123819183Y-156890000D01*
X86180817Y-156890000D01*
X86192312Y-156878505D01*
X86360299Y-156627095D01*
X86476011Y-156347743D01*
X86535000Y-156051184D01*
X86535000Y-155748816D01*
X86476011Y-155452257D01*
X86360299Y-155172905D01*
X86310795Y-155098816D01*
X86715000Y-155098816D01*
X86715000Y-155401184D01*
X86773989Y-155697743D01*
X86889701Y-155977095D01*
X87057688Y-156228505D01*
X87271495Y-156442312D01*
X87522905Y-156610299D01*
X87802257Y-156726011D01*
X88098816Y-156785000D01*
X88401184Y-156785000D01*
X88697743Y-156726011D01*
X88977095Y-156610299D01*
X89228505Y-156442312D01*
X89356737Y-156314080D01*
X120865525Y-156314080D01*
X120949208Y-156568261D01*
X121221775Y-156699158D01*
X121514642Y-156774365D01*
X121816553Y-156790991D01*
X122115907Y-156748397D01*
X122401199Y-156648222D01*
X122550792Y-156568261D01*
X122634475Y-156314080D01*
X121750000Y-155429605D01*
X120865525Y-156314080D01*
X89356737Y-156314080D01*
X89442312Y-156228505D01*
X89610299Y-155977095D01*
X89726011Y-155697743D01*
X89785000Y-155401184D01*
X89785000Y-155098816D01*
X89726011Y-154802257D01*
X89610299Y-154522905D01*
X89442312Y-154271495D01*
X89228505Y-154057688D01*
X88977095Y-153889701D01*
X88697743Y-153773989D01*
X88401184Y-153715000D01*
X88098816Y-153715000D01*
X87802257Y-153773989D01*
X87522905Y-153889701D01*
X87271495Y-154057688D01*
X87057688Y-154271495D01*
X86889701Y-154522905D01*
X86773989Y-154802257D01*
X86715000Y-155098816D01*
X86310795Y-155098816D01*
X86192312Y-154921495D01*
X85978505Y-154707688D01*
X85727095Y-154539701D01*
X85447743Y-154423989D01*
X85151184Y-154365000D01*
X84848816Y-154365000D01*
X84552257Y-154423989D01*
X84272905Y-154539701D01*
X84021495Y-154707688D01*
X83807688Y-154921495D01*
X83639701Y-155172905D01*
X83523989Y-155452257D01*
X83465000Y-155748816D01*
X83465000Y-156051184D01*
X83523989Y-156347743D01*
X83639701Y-156627095D01*
X83807688Y-156878505D01*
X83819183Y-156890000D01*
X65930817Y-156890000D01*
X65942312Y-156878505D01*
X66110299Y-156627095D01*
X66226011Y-156347743D01*
X66285000Y-156051184D01*
X66285000Y-155748816D01*
X66226011Y-155452257D01*
X66110299Y-155172905D01*
X66060795Y-155098816D01*
X66465000Y-155098816D01*
X66465000Y-155401184D01*
X66523989Y-155697743D01*
X66639701Y-155977095D01*
X66807688Y-156228505D01*
X67021495Y-156442312D01*
X67272905Y-156610299D01*
X67552257Y-156726011D01*
X67848816Y-156785000D01*
X68151184Y-156785000D01*
X68447743Y-156726011D01*
X68727095Y-156610299D01*
X68978505Y-156442312D01*
X69106737Y-156314080D01*
X80865525Y-156314080D01*
X80949208Y-156568261D01*
X81221775Y-156699158D01*
X81514642Y-156774365D01*
X81816553Y-156790991D01*
X82115907Y-156748397D01*
X82401199Y-156648222D01*
X82550792Y-156568261D01*
X82634475Y-156314080D01*
X81750000Y-155429605D01*
X80865525Y-156314080D01*
X69106737Y-156314080D01*
X69192312Y-156228505D01*
X69360299Y-155977095D01*
X69476011Y-155697743D01*
X69535000Y-155401184D01*
X69535000Y-155316553D01*
X80209009Y-155316553D01*
X80251603Y-155615907D01*
X80351778Y-155901199D01*
X80431739Y-156050792D01*
X80685920Y-156134475D01*
X81570395Y-155250000D01*
X81929605Y-155250000D01*
X82814080Y-156134475D01*
X83068261Y-156050792D01*
X83199158Y-155778225D01*
X83274365Y-155485358D01*
X83290991Y-155183447D01*
X83248397Y-154884093D01*
X83148222Y-154598801D01*
X83068261Y-154449208D01*
X82814080Y-154365525D01*
X81929605Y-155250000D01*
X81570395Y-155250000D01*
X80685920Y-154365525D01*
X80431739Y-154449208D01*
X80300842Y-154721775D01*
X80225635Y-155014642D01*
X80209009Y-155316553D01*
X69535000Y-155316553D01*
X69535000Y-155098816D01*
X69476011Y-154802257D01*
X69360299Y-154522905D01*
X69192312Y-154271495D01*
X69106737Y-154185920D01*
X80865525Y-154185920D01*
X81750000Y-155070395D01*
X82634475Y-154185920D01*
X82550792Y-153931739D01*
X82278225Y-153800842D01*
X81985358Y-153725635D01*
X81683447Y-153709009D01*
X81384093Y-153751603D01*
X81098801Y-153851778D01*
X80949208Y-153931739D01*
X80865525Y-154185920D01*
X69106737Y-154185920D01*
X68978505Y-154057688D01*
X68727095Y-153889701D01*
X68447743Y-153773989D01*
X68151184Y-153715000D01*
X67848816Y-153715000D01*
X67552257Y-153773989D01*
X67272905Y-153889701D01*
X67021495Y-154057688D01*
X66807688Y-154271495D01*
X66639701Y-154522905D01*
X66523989Y-154802257D01*
X66465000Y-155098816D01*
X66060795Y-155098816D01*
X65942312Y-154921495D01*
X65728505Y-154707688D01*
X65477095Y-154539701D01*
X65197743Y-154423989D01*
X64901184Y-154365000D01*
X64598816Y-154365000D01*
X64302257Y-154423989D01*
X64022905Y-154539701D01*
X63771495Y-154707688D01*
X63557688Y-154921495D01*
X63389701Y-155172905D01*
X63273989Y-155452257D01*
X63215000Y-155748816D01*
X63215000Y-156051184D01*
X63273989Y-156347743D01*
X63389701Y-156627095D01*
X63557688Y-156878505D01*
X63569183Y-156890000D01*
X34434720Y-156890000D01*
X33761634Y-156824004D01*
X33147572Y-156638607D01*
X32581225Y-156337474D01*
X32552542Y-156314080D01*
X60615525Y-156314080D01*
X60699208Y-156568261D01*
X60971775Y-156699158D01*
X61264642Y-156774365D01*
X61566553Y-156790991D01*
X61865907Y-156748397D01*
X62151199Y-156648222D01*
X62300792Y-156568261D01*
X62384475Y-156314080D01*
X61500000Y-155429605D01*
X60615525Y-156314080D01*
X32552542Y-156314080D01*
X32084153Y-155932071D01*
X31675290Y-155437842D01*
X31370210Y-154873611D01*
X31180533Y-154260862D01*
X31110000Y-153589787D01*
X31110000Y-152879872D01*
X32665000Y-152879872D01*
X32665000Y-153320128D01*
X32750890Y-153751925D01*
X32919369Y-154158669D01*
X33163962Y-154524729D01*
X33475271Y-154836038D01*
X33841331Y-155080631D01*
X34248075Y-155249110D01*
X34679872Y-155335000D01*
X35120128Y-155335000D01*
X35212867Y-155316553D01*
X59959009Y-155316553D01*
X60001603Y-155615907D01*
X60101778Y-155901199D01*
X60181739Y-156050792D01*
X60435920Y-156134475D01*
X61320395Y-155250000D01*
X61679605Y-155250000D01*
X62564080Y-156134475D01*
X62818261Y-156050792D01*
X62949158Y-155778225D01*
X63024365Y-155485358D01*
X63040991Y-155183447D01*
X62998397Y-154884093D01*
X62898222Y-154598801D01*
X62818261Y-154449208D01*
X62564080Y-154365525D01*
X61679605Y-155250000D01*
X61320395Y-155250000D01*
X60435920Y-154365525D01*
X60181739Y-154449208D01*
X60050842Y-154721775D01*
X59975635Y-155014642D01*
X59959009Y-155316553D01*
X35212867Y-155316553D01*
X35551925Y-155249110D01*
X35958669Y-155080631D01*
X36324729Y-154836038D01*
X36636038Y-154524729D01*
X36862422Y-154185920D01*
X60615525Y-154185920D01*
X61500000Y-155070395D01*
X62384475Y-154185920D01*
X62300792Y-153931739D01*
X62028225Y-153800842D01*
X61735358Y-153725635D01*
X61433447Y-153709009D01*
X61134093Y-153751603D01*
X60848801Y-153851778D01*
X60699208Y-153931739D01*
X60615525Y-154185920D01*
X36862422Y-154185920D01*
X36880631Y-154158669D01*
X37049110Y-153751925D01*
X37135000Y-153320128D01*
X37135000Y-152879872D01*
X37049110Y-152448075D01*
X36991053Y-152307911D01*
X70465000Y-152307911D01*
X70465000Y-152492089D01*
X70500932Y-152672729D01*
X70571414Y-152842889D01*
X70673738Y-152996028D01*
X70803972Y-153126262D01*
X70957111Y-153228586D01*
X71127271Y-153299068D01*
X71307911Y-153335000D01*
X71492089Y-153335000D01*
X71672729Y-153299068D01*
X71842889Y-153228586D01*
X71996028Y-153126262D01*
X72012290Y-153110000D01*
X86565125Y-153110000D01*
X86600000Y-153113435D01*
X86634875Y-153110000D01*
X86634877Y-153110000D01*
X86739184Y-153099727D01*
X86873020Y-153059128D01*
X86996363Y-152993200D01*
X87104475Y-152904475D01*
X87126712Y-152877379D01*
X87696180Y-152307911D01*
X91265000Y-152307911D01*
X91265000Y-152492089D01*
X91300932Y-152672729D01*
X91371414Y-152842889D01*
X91473738Y-152996028D01*
X91603972Y-153126262D01*
X91757111Y-153228586D01*
X91927271Y-153299068D01*
X92107911Y-153335000D01*
X92130909Y-153335000D01*
X93673289Y-154877380D01*
X93695526Y-154904476D01*
X93803638Y-154993201D01*
X93874739Y-155031205D01*
X93926981Y-155059129D01*
X94060816Y-155099728D01*
X94200001Y-155113436D01*
X94234878Y-155110001D01*
X120220384Y-155110001D01*
X120209009Y-155316553D01*
X120251603Y-155615907D01*
X120351778Y-155901199D01*
X120431739Y-156050792D01*
X120685920Y-156134475D01*
X121570395Y-155250000D01*
X121929605Y-155250000D01*
X122814080Y-156134475D01*
X123068261Y-156050792D01*
X123199158Y-155778225D01*
X123274365Y-155485358D01*
X123290991Y-155183447D01*
X123248397Y-154884093D01*
X123148222Y-154598801D01*
X123068261Y-154449208D01*
X122814080Y-154365525D01*
X121929605Y-155250000D01*
X121570395Y-155250000D01*
X121556253Y-155235858D01*
X121735858Y-155056253D01*
X121750000Y-155070395D01*
X122634475Y-154185920D01*
X122550792Y-153931739D01*
X122403896Y-153861194D01*
X123385218Y-152879872D01*
X173765000Y-152879872D01*
X173765000Y-153320128D01*
X173850890Y-153751925D01*
X174019369Y-154158669D01*
X174263962Y-154524729D01*
X174575271Y-154836038D01*
X174941331Y-155080631D01*
X175348075Y-155249110D01*
X175779872Y-155335000D01*
X176220128Y-155335000D01*
X176651925Y-155249110D01*
X177058669Y-155080631D01*
X177424729Y-154836038D01*
X177736038Y-154524729D01*
X177980631Y-154158669D01*
X178149110Y-153751925D01*
X178235000Y-153320128D01*
X178235000Y-152879872D01*
X178149110Y-152448075D01*
X177980631Y-152041331D01*
X177736038Y-151675271D01*
X177424729Y-151363962D01*
X177058669Y-151119369D01*
X176651925Y-150950890D01*
X176220128Y-150865000D01*
X175779872Y-150865000D01*
X175348075Y-150950890D01*
X174941331Y-151119369D01*
X174575271Y-151363962D01*
X174263962Y-151675271D01*
X174019369Y-152041331D01*
X173850890Y-152448075D01*
X173765000Y-152879872D01*
X123385218Y-152879872D01*
X123905091Y-152359999D01*
X127315126Y-152359999D01*
X127350001Y-152363434D01*
X127384876Y-152359999D01*
X127384878Y-152359999D01*
X127489185Y-152349726D01*
X127623021Y-152309127D01*
X127746364Y-152243199D01*
X127779031Y-152216390D01*
X127802257Y-152226011D01*
X128098816Y-152285000D01*
X128401184Y-152285000D01*
X128697743Y-152226011D01*
X128977095Y-152110299D01*
X129228505Y-151942312D01*
X129442312Y-151728505D01*
X129610299Y-151477095D01*
X129726011Y-151197743D01*
X129785000Y-150901184D01*
X129785000Y-150598816D01*
X129726011Y-150302257D01*
X129610299Y-150022905D01*
X129442312Y-149771495D01*
X129228505Y-149557688D01*
X129004349Y-149407911D01*
X163765000Y-149407911D01*
X163765000Y-149592089D01*
X163800932Y-149772729D01*
X163871414Y-149942889D01*
X163973738Y-150096028D01*
X164103972Y-150226262D01*
X164257111Y-150328586D01*
X164427271Y-150399068D01*
X164607911Y-150435000D01*
X164792089Y-150435000D01*
X164972729Y-150399068D01*
X165142889Y-150328586D01*
X165170705Y-150310000D01*
X165287710Y-150310000D01*
X165303972Y-150326262D01*
X165457111Y-150428586D01*
X165627271Y-150499068D01*
X165807911Y-150535000D01*
X165992089Y-150535000D01*
X166172729Y-150499068D01*
X166342889Y-150428586D01*
X166496028Y-150326262D01*
X166626262Y-150196028D01*
X166728586Y-150042889D01*
X166799068Y-149872729D01*
X166835000Y-149692089D01*
X166835000Y-149507911D01*
X166799068Y-149327271D01*
X166728586Y-149157111D01*
X166626262Y-149003972D01*
X166496028Y-148873738D01*
X166342889Y-148771414D01*
X166172729Y-148700932D01*
X165992089Y-148665000D01*
X165807911Y-148665000D01*
X165627271Y-148700932D01*
X165457111Y-148771414D01*
X165359156Y-148836866D01*
X165296028Y-148773738D01*
X165142889Y-148671414D01*
X164972729Y-148600932D01*
X164792089Y-148565000D01*
X164607911Y-148565000D01*
X164427271Y-148600932D01*
X164257111Y-148671414D01*
X164103972Y-148773738D01*
X163973738Y-148903972D01*
X163871414Y-149057111D01*
X163800932Y-149227271D01*
X163765000Y-149407911D01*
X129004349Y-149407911D01*
X128977095Y-149389701D01*
X128697743Y-149273989D01*
X128401184Y-149215000D01*
X128098816Y-149215000D01*
X127802257Y-149273989D01*
X127522905Y-149389701D01*
X127271495Y-149557688D01*
X127057688Y-149771495D01*
X126889701Y-150022905D01*
X126773989Y-150302257D01*
X126715000Y-150598816D01*
X126715000Y-150901184D01*
X126722721Y-150939999D01*
X126284859Y-150939999D01*
X126360299Y-150827095D01*
X126476011Y-150547743D01*
X126535000Y-150251184D01*
X126535000Y-149948816D01*
X126476011Y-149652257D01*
X126360299Y-149372905D01*
X126192312Y-149121495D01*
X125978505Y-148907688D01*
X125727095Y-148739701D01*
X125447743Y-148623989D01*
X125151184Y-148565000D01*
X124848816Y-148565000D01*
X124678576Y-148598863D01*
X124640313Y-148578411D01*
X124473490Y-148527805D01*
X124343477Y-148515000D01*
X124343469Y-148515000D01*
X124300000Y-148510719D01*
X124256531Y-148515000D01*
X120106692Y-148515000D01*
X120072729Y-148500932D01*
X119892089Y-148465000D01*
X119707911Y-148465000D01*
X119527271Y-148500932D01*
X119357111Y-148571414D01*
X119203972Y-148673738D01*
X119073738Y-148803972D01*
X118971414Y-148957111D01*
X118900932Y-149127271D01*
X118865000Y-149307911D01*
X118865000Y-149492089D01*
X118900932Y-149672729D01*
X118971414Y-149842889D01*
X119073738Y-149996028D01*
X119203972Y-150126262D01*
X119357111Y-150228586D01*
X119527271Y-150299068D01*
X119707911Y-150335000D01*
X119892089Y-150335000D01*
X120072729Y-150299068D01*
X120106692Y-150285000D01*
X120281137Y-150285000D01*
X120273989Y-150302257D01*
X120215000Y-150598816D01*
X120215000Y-150901184D01*
X120273989Y-151197743D01*
X120389701Y-151477095D01*
X120557688Y-151728505D01*
X120771495Y-151942312D01*
X121022905Y-152110299D01*
X121302257Y-152226011D01*
X121598816Y-152285000D01*
X121901184Y-152285000D01*
X121989467Y-152267440D01*
X120566906Y-153690001D01*
X112719203Y-153690001D01*
X112792364Y-153513373D01*
X112860000Y-153173345D01*
X112860000Y-152826655D01*
X112792364Y-152486627D01*
X112659692Y-152166327D01*
X112467081Y-151878065D01*
X112221935Y-151632919D01*
X111933673Y-151440308D01*
X111613373Y-151307636D01*
X111273345Y-151240000D01*
X110926655Y-151240000D01*
X110586627Y-151307636D01*
X110266327Y-151440308D01*
X109978065Y-151632919D01*
X109732919Y-151878065D01*
X109704561Y-151920505D01*
X109610570Y-151857703D01*
X109375987Y-151760535D01*
X109126955Y-151711000D01*
X108873045Y-151711000D01*
X108624013Y-151760535D01*
X108389430Y-151857703D01*
X108178310Y-151998768D01*
X108000000Y-152177078D01*
X107821690Y-151998768D01*
X107610570Y-151857703D01*
X107375987Y-151760535D01*
X107126955Y-151711000D01*
X106873045Y-151711000D01*
X106624013Y-151760535D01*
X106389430Y-151857703D01*
X106178310Y-151998768D01*
X105998768Y-152178310D01*
X105918581Y-152298319D01*
X105888387Y-152291218D01*
X105179605Y-153000000D01*
X105193748Y-153014143D01*
X105014143Y-153193748D01*
X105000000Y-153179605D01*
X104985858Y-153193748D01*
X104806253Y-153014143D01*
X104820395Y-153000000D01*
X104111613Y-152291218D01*
X103882532Y-152345093D01*
X103776237Y-152575684D01*
X103716972Y-152822581D01*
X103707012Y-153076296D01*
X103746741Y-153327079D01*
X103834632Y-153565293D01*
X103882532Y-153654907D01*
X104031755Y-153690001D01*
X102089223Y-153690001D01*
X102142297Y-153610570D01*
X102239465Y-153375987D01*
X102289000Y-153126955D01*
X102289000Y-152873045D01*
X102239465Y-152624013D01*
X102142297Y-152389430D01*
X102001232Y-152178310D01*
X101934535Y-152111613D01*
X104291218Y-152111613D01*
X105000000Y-152820395D01*
X105708782Y-152111613D01*
X105654907Y-151882532D01*
X105424316Y-151776237D01*
X105177419Y-151716972D01*
X104923704Y-151707012D01*
X104672921Y-151746741D01*
X104434707Y-151834632D01*
X104345093Y-151882532D01*
X104291218Y-152111613D01*
X101934535Y-152111613D01*
X101821690Y-151998768D01*
X101610570Y-151857703D01*
X101375987Y-151760535D01*
X101126955Y-151711000D01*
X100873045Y-151711000D01*
X100624013Y-151760535D01*
X100389430Y-151857703D01*
X100295439Y-151920505D01*
X100267081Y-151878065D01*
X100021935Y-151632919D01*
X99733673Y-151440308D01*
X99413373Y-151307636D01*
X99073345Y-151240000D01*
X98726655Y-151240000D01*
X98386627Y-151307636D01*
X98066327Y-151440308D01*
X97778065Y-151632919D01*
X97532919Y-151878065D01*
X97340308Y-152166327D01*
X97207636Y-152486627D01*
X97140000Y-152826655D01*
X97140000Y-153173345D01*
X97207636Y-153513373D01*
X97280797Y-153690001D01*
X94494092Y-153690001D01*
X93865500Y-153061409D01*
X93873020Y-153059128D01*
X93996363Y-152993200D01*
X94104475Y-152904475D01*
X94126712Y-152877379D01*
X95277389Y-151726703D01*
X95304474Y-151704475D01*
X95326704Y-151677388D01*
X95326707Y-151677385D01*
X95393199Y-151596364D01*
X95393200Y-151596363D01*
X95459128Y-151473020D01*
X95499727Y-151339184D01*
X95510000Y-151234877D01*
X95510000Y-151234876D01*
X95513435Y-151200001D01*
X95510000Y-151165126D01*
X95510000Y-143907911D01*
X110865000Y-143907911D01*
X110865000Y-144092089D01*
X110900932Y-144272729D01*
X110971414Y-144442889D01*
X111073738Y-144596028D01*
X111203972Y-144726262D01*
X111240001Y-144750336D01*
X111240000Y-148054464D01*
X111171414Y-148157111D01*
X111100932Y-148327271D01*
X111065000Y-148507911D01*
X111065000Y-148692089D01*
X111100932Y-148872729D01*
X111171414Y-149042889D01*
X111273738Y-149196028D01*
X111403972Y-149326262D01*
X111557111Y-149428586D01*
X111727271Y-149499068D01*
X111907911Y-149535000D01*
X112092089Y-149535000D01*
X112272729Y-149499068D01*
X112442889Y-149428586D01*
X112596028Y-149326262D01*
X112726262Y-149196028D01*
X112828586Y-149042889D01*
X112899068Y-148872729D01*
X112935000Y-148692089D01*
X112935000Y-148507911D01*
X112899068Y-148327271D01*
X112828586Y-148157111D01*
X112760000Y-148054465D01*
X112760000Y-144237325D01*
X112763676Y-144200000D01*
X112760000Y-144162675D01*
X112760000Y-144162667D01*
X112749003Y-144051014D01*
X112735000Y-144004851D01*
X112735000Y-143907911D01*
X112699068Y-143727271D01*
X112628586Y-143557111D01*
X112526262Y-143403972D01*
X112436370Y-143314080D01*
X170865525Y-143314080D01*
X170949208Y-143568261D01*
X171221775Y-143699158D01*
X171514642Y-143774365D01*
X171816553Y-143790991D01*
X172115907Y-143748397D01*
X172401199Y-143648222D01*
X172550792Y-143568261D01*
X172634475Y-143314080D01*
X171750000Y-142429605D01*
X170865525Y-143314080D01*
X112436370Y-143314080D01*
X112396028Y-143273738D01*
X112242889Y-143171414D01*
X112072729Y-143100932D01*
X111892089Y-143065000D01*
X111707911Y-143065000D01*
X111527271Y-143100932D01*
X111357111Y-143171414D01*
X111203972Y-143273738D01*
X111073738Y-143403972D01*
X110971414Y-143557111D01*
X110900932Y-143727271D01*
X110865000Y-143907911D01*
X95510000Y-143907911D01*
X95510000Y-142316553D01*
X170209009Y-142316553D01*
X170251603Y-142615907D01*
X170351778Y-142901199D01*
X170431739Y-143050792D01*
X170685920Y-143134475D01*
X171570395Y-142250000D01*
X171929605Y-142250000D01*
X172814080Y-143134475D01*
X173068261Y-143050792D01*
X173199158Y-142778225D01*
X173206710Y-142748816D01*
X173465000Y-142748816D01*
X173465000Y-143051184D01*
X173523989Y-143347743D01*
X173639701Y-143627095D01*
X173807688Y-143878505D01*
X174021495Y-144092312D01*
X174272905Y-144260299D01*
X174552257Y-144376011D01*
X174848816Y-144435000D01*
X175151184Y-144435000D01*
X175447743Y-144376011D01*
X175727095Y-144260299D01*
X175978505Y-144092312D01*
X176192312Y-143878505D01*
X176360299Y-143627095D01*
X176476011Y-143347743D01*
X176535000Y-143051184D01*
X176535000Y-142748816D01*
X176476011Y-142452257D01*
X176360299Y-142172905D01*
X176192312Y-141921495D01*
X175978505Y-141707688D01*
X175727095Y-141539701D01*
X175447743Y-141423989D01*
X175151184Y-141365000D01*
X174848816Y-141365000D01*
X174552257Y-141423989D01*
X174272905Y-141539701D01*
X174021495Y-141707688D01*
X173807688Y-141921495D01*
X173639701Y-142172905D01*
X173523989Y-142452257D01*
X173465000Y-142748816D01*
X173206710Y-142748816D01*
X173274365Y-142485358D01*
X173290991Y-142183447D01*
X173248397Y-141884093D01*
X173148222Y-141598801D01*
X173068261Y-141449208D01*
X172814080Y-141365525D01*
X171929605Y-142250000D01*
X171570395Y-142250000D01*
X170685920Y-141365525D01*
X170431739Y-141449208D01*
X170300842Y-141721775D01*
X170225635Y-142014642D01*
X170209009Y-142316553D01*
X95510000Y-142316553D01*
X95510000Y-141185920D01*
X170865525Y-141185920D01*
X171750000Y-142070395D01*
X172634475Y-141185920D01*
X172550792Y-140931739D01*
X172278225Y-140800842D01*
X171985358Y-140725635D01*
X171683447Y-140709009D01*
X171384093Y-140751603D01*
X171098801Y-140851778D01*
X170949208Y-140931739D01*
X170865525Y-141185920D01*
X95510000Y-141185920D01*
X95510000Y-130783744D01*
X95596028Y-130726262D01*
X95726262Y-130596028D01*
X95828586Y-130442889D01*
X95899068Y-130272729D01*
X95935000Y-130092089D01*
X95935000Y-129907911D01*
X95899068Y-129727271D01*
X95828586Y-129557111D01*
X95726262Y-129403972D01*
X95596028Y-129273738D01*
X95442889Y-129171414D01*
X95272729Y-129100932D01*
X95092089Y-129065000D01*
X94907911Y-129065000D01*
X94727271Y-129100932D01*
X94557111Y-129171414D01*
X94403972Y-129273738D01*
X94273738Y-129403972D01*
X94171414Y-129557111D01*
X94100932Y-129727271D01*
X94065000Y-129907911D01*
X94065000Y-130092089D01*
X94086663Y-130200995D01*
X94090001Y-130234885D01*
X94090000Y-150905908D01*
X93305909Y-151690000D01*
X92812290Y-151690000D01*
X92796028Y-151673738D01*
X92642889Y-151571414D01*
X92472729Y-151500932D01*
X92292089Y-151465000D01*
X92107911Y-151465000D01*
X91927271Y-151500932D01*
X91757111Y-151571414D01*
X91603972Y-151673738D01*
X91473738Y-151803972D01*
X91371414Y-151957111D01*
X91300932Y-152127271D01*
X91265000Y-152307911D01*
X87696180Y-152307911D01*
X87785162Y-152218930D01*
X87802257Y-152226011D01*
X88098816Y-152285000D01*
X88401184Y-152285000D01*
X88697743Y-152226011D01*
X88977095Y-152110299D01*
X89228505Y-151942312D01*
X89442312Y-151728505D01*
X89610299Y-151477095D01*
X89726011Y-151197743D01*
X89785000Y-150901184D01*
X89785000Y-150598816D01*
X89726011Y-150302257D01*
X89610299Y-150022905D01*
X89442312Y-149771495D01*
X89228505Y-149557688D01*
X88977095Y-149389701D01*
X88697743Y-149273989D01*
X88401184Y-149215000D01*
X88098816Y-149215000D01*
X87802257Y-149273989D01*
X87522905Y-149389701D01*
X87271495Y-149557688D01*
X87057688Y-149771495D01*
X86889701Y-150022905D01*
X86773989Y-150302257D01*
X86715000Y-150598816D01*
X86715000Y-150901184D01*
X86773989Y-151197743D01*
X86781070Y-151214838D01*
X86305909Y-151690000D01*
X82968040Y-151690000D01*
X83110299Y-151477095D01*
X83226011Y-151197743D01*
X83285000Y-150901184D01*
X83285000Y-150598816D01*
X83226011Y-150302257D01*
X83167086Y-150160000D01*
X83465000Y-150160000D01*
X83465000Y-150251184D01*
X83523989Y-150547743D01*
X83639701Y-150827095D01*
X83807688Y-151078505D01*
X84021495Y-151292312D01*
X84272905Y-151460299D01*
X84552257Y-151576011D01*
X84848816Y-151635000D01*
X85151184Y-151635000D01*
X85447743Y-151576011D01*
X85727095Y-151460299D01*
X85978505Y-151292312D01*
X86192312Y-151078505D01*
X86360299Y-150827095D01*
X86476011Y-150547743D01*
X86535000Y-150251184D01*
X86535000Y-149948816D01*
X86476011Y-149652257D01*
X86360299Y-149372905D01*
X86192312Y-149121495D01*
X85978505Y-148907688D01*
X85727095Y-148739701D01*
X85447743Y-148623989D01*
X85151184Y-148565000D01*
X84848816Y-148565000D01*
X84552257Y-148623989D01*
X84470961Y-148657663D01*
X84448986Y-148650997D01*
X84337333Y-148640000D01*
X84337322Y-148640000D01*
X84300000Y-148636324D01*
X84262678Y-148640000D01*
X80945535Y-148640000D01*
X80842889Y-148571414D01*
X80672729Y-148500932D01*
X80492089Y-148465000D01*
X80307911Y-148465000D01*
X80127271Y-148500932D01*
X79957111Y-148571414D01*
X79803972Y-148673738D01*
X79673738Y-148803972D01*
X79571414Y-148957111D01*
X79500932Y-149127271D01*
X79465000Y-149307911D01*
X79465000Y-149492089D01*
X79500932Y-149672729D01*
X79571414Y-149842889D01*
X79673738Y-149996028D01*
X79803972Y-150126262D01*
X79957111Y-150228586D01*
X80127271Y-150299068D01*
X80269015Y-150327263D01*
X80215000Y-150598816D01*
X80215000Y-150901184D01*
X80273989Y-151197743D01*
X80389701Y-151477095D01*
X80531960Y-151690000D01*
X72012290Y-151690000D01*
X71996028Y-151673738D01*
X71842889Y-151571414D01*
X71672729Y-151500932D01*
X71492089Y-151465000D01*
X71307911Y-151465000D01*
X71127271Y-151500932D01*
X70957111Y-151571414D01*
X70803972Y-151673738D01*
X70673738Y-151803972D01*
X70571414Y-151957111D01*
X70500932Y-152127271D01*
X70465000Y-152307911D01*
X36991053Y-152307911D01*
X36880631Y-152041331D01*
X36636038Y-151675271D01*
X36324729Y-151363962D01*
X35958669Y-151119369D01*
X35551925Y-150950890D01*
X35120128Y-150865000D01*
X34679872Y-150865000D01*
X34248075Y-150950890D01*
X33841331Y-151119369D01*
X33475271Y-151363962D01*
X33163962Y-151675271D01*
X32919369Y-152041331D01*
X32750890Y-152448075D01*
X32665000Y-152879872D01*
X31110000Y-152879872D01*
X31110000Y-150598816D01*
X59965000Y-150598816D01*
X59965000Y-150901184D01*
X60023989Y-151197743D01*
X60139701Y-151477095D01*
X60307688Y-151728505D01*
X60521495Y-151942312D01*
X60772905Y-152110299D01*
X61052257Y-152226011D01*
X61348816Y-152285000D01*
X61651184Y-152285000D01*
X61947743Y-152226011D01*
X62227095Y-152110299D01*
X62478505Y-151942312D01*
X62692312Y-151728505D01*
X62860299Y-151477095D01*
X62976011Y-151197743D01*
X63035000Y-150901184D01*
X63035000Y-150598816D01*
X62976011Y-150302257D01*
X62860299Y-150022905D01*
X62810795Y-149948816D01*
X63215000Y-149948816D01*
X63215000Y-150251184D01*
X63273989Y-150547743D01*
X63389701Y-150827095D01*
X63557688Y-151078505D01*
X63771495Y-151292312D01*
X64022905Y-151460299D01*
X64302257Y-151576011D01*
X64598816Y-151635000D01*
X64901184Y-151635000D01*
X65197743Y-151576011D01*
X65477095Y-151460299D01*
X65728505Y-151292312D01*
X65942312Y-151078505D01*
X66110299Y-150827095D01*
X66204855Y-150598816D01*
X66465000Y-150598816D01*
X66465000Y-150901184D01*
X66523989Y-151197743D01*
X66639701Y-151477095D01*
X66807688Y-151728505D01*
X67021495Y-151942312D01*
X67272905Y-152110299D01*
X67552257Y-152226011D01*
X67848816Y-152285000D01*
X68151184Y-152285000D01*
X68447743Y-152226011D01*
X68727095Y-152110299D01*
X68978505Y-151942312D01*
X69192312Y-151728505D01*
X69360299Y-151477095D01*
X69476011Y-151197743D01*
X69535000Y-150901184D01*
X69535000Y-150598816D01*
X69476011Y-150302257D01*
X69360299Y-150022905D01*
X69192312Y-149771495D01*
X68978505Y-149557688D01*
X68727095Y-149389701D01*
X68447743Y-149273989D01*
X68151184Y-149215000D01*
X67848816Y-149215000D01*
X67552257Y-149273989D01*
X67272905Y-149389701D01*
X67021495Y-149557688D01*
X66807688Y-149771495D01*
X66639701Y-150022905D01*
X66523989Y-150302257D01*
X66465000Y-150598816D01*
X66204855Y-150598816D01*
X66226011Y-150547743D01*
X66285000Y-150251184D01*
X66285000Y-149948816D01*
X66226011Y-149652257D01*
X66110299Y-149372905D01*
X65942312Y-149121495D01*
X65728505Y-148907688D01*
X65477095Y-148739701D01*
X65197743Y-148623989D01*
X64901184Y-148565000D01*
X64598816Y-148565000D01*
X64302257Y-148623989D01*
X64022905Y-148739701D01*
X63771495Y-148907688D01*
X63557688Y-149121495D01*
X63389701Y-149372905D01*
X63273989Y-149652257D01*
X63215000Y-149948816D01*
X62810795Y-149948816D01*
X62692312Y-149771495D01*
X62478505Y-149557688D01*
X62227095Y-149389701D01*
X61947743Y-149273989D01*
X61651184Y-149215000D01*
X61348816Y-149215000D01*
X61052257Y-149273989D01*
X60772905Y-149389701D01*
X60521495Y-149557688D01*
X60307688Y-149771495D01*
X60139701Y-150022905D01*
X60023989Y-150302257D01*
X59965000Y-150598816D01*
X31110000Y-150598816D01*
X31110000Y-149198061D01*
X40265000Y-149198061D01*
X40265000Y-149401939D01*
X40304774Y-149601898D01*
X40382795Y-149790256D01*
X40496063Y-149959774D01*
X40640226Y-150103937D01*
X40809744Y-150217205D01*
X40998102Y-150295226D01*
X41198061Y-150335000D01*
X41401939Y-150335000D01*
X41601898Y-150295226D01*
X41790256Y-150217205D01*
X41959774Y-150103937D01*
X42103937Y-149959774D01*
X42217205Y-149790256D01*
X42295226Y-149601898D01*
X42335000Y-149401939D01*
X42335000Y-149339801D01*
X43014802Y-148660000D01*
X43296289Y-148660000D01*
X43340226Y-148703937D01*
X43509744Y-148817205D01*
X43698102Y-148895226D01*
X43898061Y-148935000D01*
X44101939Y-148935000D01*
X44301898Y-148895226D01*
X44490256Y-148817205D01*
X44659774Y-148703937D01*
X44803937Y-148559774D01*
X44917205Y-148390256D01*
X44995226Y-148201898D01*
X45035000Y-148001939D01*
X45035000Y-147798061D01*
X44995226Y-147598102D01*
X44917205Y-147409744D01*
X44803937Y-147240226D01*
X44659774Y-147096063D01*
X44490256Y-146982795D01*
X44301898Y-146904774D01*
X44101939Y-146865000D01*
X43898061Y-146865000D01*
X43698102Y-146904774D01*
X43509744Y-146982795D01*
X43340226Y-147096063D01*
X43296289Y-147140000D01*
X42737322Y-147140000D01*
X42700000Y-147136324D01*
X42662677Y-147140000D01*
X42662667Y-147140000D01*
X42551014Y-147150997D01*
X42407753Y-147194454D01*
X42275723Y-147265026D01*
X42192083Y-147333668D01*
X42159999Y-147359999D01*
X42136201Y-147388997D01*
X41260199Y-148265000D01*
X41198061Y-148265000D01*
X40998102Y-148304774D01*
X40809744Y-148382795D01*
X40640226Y-148496063D01*
X40496063Y-148640226D01*
X40382795Y-148809744D01*
X40304774Y-148998102D01*
X40265000Y-149198061D01*
X31110000Y-149198061D01*
X31110000Y-145550000D01*
X50111928Y-145550000D01*
X50111928Y-147250000D01*
X50124188Y-147374482D01*
X50160498Y-147494180D01*
X50219463Y-147604494D01*
X50298815Y-147701185D01*
X50395506Y-147780537D01*
X50505820Y-147839502D01*
X50625518Y-147875812D01*
X50750000Y-147888072D01*
X52450000Y-147888072D01*
X52574482Y-147875812D01*
X52694180Y-147839502D01*
X52804494Y-147780537D01*
X52901185Y-147701185D01*
X52980537Y-147604494D01*
X53039502Y-147494180D01*
X53061513Y-147421620D01*
X53193368Y-147553475D01*
X53436589Y-147715990D01*
X53706842Y-147827932D01*
X53993740Y-147885000D01*
X54286260Y-147885000D01*
X54573158Y-147827932D01*
X54843411Y-147715990D01*
X55086632Y-147553475D01*
X55293475Y-147346632D01*
X55415195Y-147164466D01*
X55484822Y-147281355D01*
X55679731Y-147497588D01*
X55913080Y-147671641D01*
X56175901Y-147796825D01*
X56323110Y-147841476D01*
X56553000Y-147720155D01*
X56553000Y-146527000D01*
X56807000Y-146527000D01*
X56807000Y-147720155D01*
X57036890Y-147841476D01*
X57184099Y-147796825D01*
X57446920Y-147671641D01*
X57680269Y-147497588D01*
X57875178Y-147281355D01*
X58024157Y-147031252D01*
X58121481Y-146756891D01*
X58000814Y-146527000D01*
X56807000Y-146527000D01*
X56553000Y-146527000D01*
X56533000Y-146527000D01*
X56533000Y-146273000D01*
X56553000Y-146273000D01*
X56553000Y-145079845D01*
X56807000Y-145079845D01*
X56807000Y-146273000D01*
X58000814Y-146273000D01*
X58121481Y-146043109D01*
X58024157Y-145768748D01*
X57875178Y-145518645D01*
X57680269Y-145302412D01*
X57446920Y-145128359D01*
X57184099Y-145003175D01*
X57036890Y-144958524D01*
X56807000Y-145079845D01*
X56553000Y-145079845D01*
X56323110Y-144958524D01*
X56175901Y-145003175D01*
X55913080Y-145128359D01*
X55679731Y-145302412D01*
X55484822Y-145518645D01*
X55415195Y-145635534D01*
X55293475Y-145453368D01*
X55086632Y-145246525D01*
X54843411Y-145084010D01*
X54573158Y-144972068D01*
X54286260Y-144915000D01*
X53993740Y-144915000D01*
X53706842Y-144972068D01*
X53436589Y-145084010D01*
X53193368Y-145246525D01*
X53061513Y-145378380D01*
X53039502Y-145305820D01*
X52980537Y-145195506D01*
X52901185Y-145098815D01*
X52804494Y-145019463D01*
X52694180Y-144960498D01*
X52574482Y-144924188D01*
X52450000Y-144911928D01*
X50750000Y-144911928D01*
X50625518Y-144924188D01*
X50505820Y-144960498D01*
X50395506Y-145019463D01*
X50298815Y-145098815D01*
X50219463Y-145195506D01*
X50160498Y-145305820D01*
X50124188Y-145425518D01*
X50111928Y-145550000D01*
X31110000Y-145550000D01*
X31110000Y-143645479D01*
X31221775Y-143699158D01*
X31514642Y-143774365D01*
X31816553Y-143790991D01*
X32115907Y-143748397D01*
X32401199Y-143648222D01*
X32550792Y-143568261D01*
X32634475Y-143314080D01*
X31750000Y-142429605D01*
X31735858Y-142443748D01*
X31556253Y-142264143D01*
X31570395Y-142250000D01*
X31929605Y-142250000D01*
X32814080Y-143134475D01*
X33068261Y-143050792D01*
X33199158Y-142778225D01*
X33206710Y-142748816D01*
X33465000Y-142748816D01*
X33465000Y-143051184D01*
X33523989Y-143347743D01*
X33639701Y-143627095D01*
X33807688Y-143878505D01*
X34021495Y-144092312D01*
X34272905Y-144260299D01*
X34552257Y-144376011D01*
X34848816Y-144435000D01*
X35151184Y-144435000D01*
X35447743Y-144376011D01*
X35727095Y-144260299D01*
X35978505Y-144092312D01*
X36192312Y-143878505D01*
X36360299Y-143627095D01*
X36476011Y-143347743D01*
X36535000Y-143051184D01*
X36535000Y-142748816D01*
X36476011Y-142452257D01*
X36360299Y-142172905D01*
X36310795Y-142098816D01*
X36715000Y-142098816D01*
X36715000Y-142401184D01*
X36773989Y-142697743D01*
X36889701Y-142977095D01*
X37057688Y-143228505D01*
X37271495Y-143442312D01*
X37522905Y-143610299D01*
X37802257Y-143726011D01*
X38098816Y-143785000D01*
X38401184Y-143785000D01*
X38697743Y-143726011D01*
X38977095Y-143610299D01*
X39228505Y-143442312D01*
X39442312Y-143228505D01*
X39610299Y-142977095D01*
X39726011Y-142697743D01*
X39785000Y-142401184D01*
X39785000Y-142098816D01*
X39726011Y-141802257D01*
X39610299Y-141522905D01*
X39442312Y-141271495D01*
X39228505Y-141057688D01*
X38977095Y-140889701D01*
X38697743Y-140773989D01*
X38401184Y-140715000D01*
X38098816Y-140715000D01*
X37802257Y-140773989D01*
X37522905Y-140889701D01*
X37271495Y-141057688D01*
X37057688Y-141271495D01*
X36889701Y-141522905D01*
X36773989Y-141802257D01*
X36715000Y-142098816D01*
X36310795Y-142098816D01*
X36192312Y-141921495D01*
X35978505Y-141707688D01*
X35727095Y-141539701D01*
X35447743Y-141423989D01*
X35151184Y-141365000D01*
X34848816Y-141365000D01*
X34552257Y-141423989D01*
X34272905Y-141539701D01*
X34021495Y-141707688D01*
X33807688Y-141921495D01*
X33639701Y-142172905D01*
X33523989Y-142452257D01*
X33465000Y-142748816D01*
X33206710Y-142748816D01*
X33274365Y-142485358D01*
X33290991Y-142183447D01*
X33248397Y-141884093D01*
X33148222Y-141598801D01*
X33068261Y-141449208D01*
X32814080Y-141365525D01*
X31929605Y-142250000D01*
X31570395Y-142250000D01*
X31556253Y-142235858D01*
X31735858Y-142056253D01*
X31750000Y-142070395D01*
X32634475Y-141185920D01*
X32550792Y-140931739D01*
X32278225Y-140800842D01*
X31985358Y-140725635D01*
X31683447Y-140709009D01*
X31384093Y-140751603D01*
X31110000Y-140847846D01*
X31110000Y-139146375D01*
X31302257Y-139226011D01*
X31598816Y-139285000D01*
X31901184Y-139285000D01*
X32197743Y-139226011D01*
X32477095Y-139110299D01*
X32728505Y-138942312D01*
X32942312Y-138728505D01*
X33110299Y-138477095D01*
X33226011Y-138197743D01*
X33285000Y-137901184D01*
X33285000Y-137598816D01*
X33226011Y-137302257D01*
X33110299Y-137022905D01*
X33060795Y-136948816D01*
X33465000Y-136948816D01*
X33465000Y-137251184D01*
X33523989Y-137547743D01*
X33639701Y-137827095D01*
X33807688Y-138078505D01*
X34021495Y-138292312D01*
X34272905Y-138460299D01*
X34552257Y-138576011D01*
X34848816Y-138635000D01*
X35151184Y-138635000D01*
X35447743Y-138576011D01*
X35727095Y-138460299D01*
X35978505Y-138292312D01*
X36192312Y-138078505D01*
X36360299Y-137827095D01*
X36454855Y-137598816D01*
X36715000Y-137598816D01*
X36715000Y-137901184D01*
X36773989Y-138197743D01*
X36889701Y-138477095D01*
X37057688Y-138728505D01*
X37271495Y-138942312D01*
X37522905Y-139110299D01*
X37802257Y-139226011D01*
X38098816Y-139285000D01*
X38401184Y-139285000D01*
X38697743Y-139226011D01*
X38977095Y-139110299D01*
X39228505Y-138942312D01*
X39442312Y-138728505D01*
X39610299Y-138477095D01*
X39726011Y-138197743D01*
X39785000Y-137901184D01*
X39785000Y-137598816D01*
X39726011Y-137302257D01*
X39610299Y-137022905D01*
X39442312Y-136771495D01*
X39228505Y-136557688D01*
X38977095Y-136389701D01*
X38697743Y-136273989D01*
X38401184Y-136215000D01*
X38098816Y-136215000D01*
X37802257Y-136273989D01*
X37522905Y-136389701D01*
X37271495Y-136557688D01*
X37057688Y-136771495D01*
X36889701Y-137022905D01*
X36773989Y-137302257D01*
X36715000Y-137598816D01*
X36454855Y-137598816D01*
X36476011Y-137547743D01*
X36535000Y-137251184D01*
X36535000Y-136948816D01*
X36476011Y-136652257D01*
X36360299Y-136372905D01*
X36192312Y-136121495D01*
X35978505Y-135907688D01*
X35727095Y-135739701D01*
X35447743Y-135623989D01*
X35151184Y-135565000D01*
X34848816Y-135565000D01*
X34552257Y-135623989D01*
X34272905Y-135739701D01*
X34021495Y-135907688D01*
X33807688Y-136121495D01*
X33639701Y-136372905D01*
X33523989Y-136652257D01*
X33465000Y-136948816D01*
X33060795Y-136948816D01*
X32942312Y-136771495D01*
X32728505Y-136557688D01*
X32477095Y-136389701D01*
X32197743Y-136273989D01*
X31901184Y-136215000D01*
X31598816Y-136215000D01*
X31302257Y-136273989D01*
X31110000Y-136353625D01*
X31110000Y-133645479D01*
X31221775Y-133699158D01*
X31514642Y-133774365D01*
X31816553Y-133790991D01*
X32115907Y-133748397D01*
X32401199Y-133648222D01*
X32550792Y-133568261D01*
X32634475Y-133314080D01*
X31750000Y-132429605D01*
X31735858Y-132443748D01*
X31556253Y-132264143D01*
X31570395Y-132250000D01*
X31929605Y-132250000D01*
X32814080Y-133134475D01*
X33068261Y-133050792D01*
X33199158Y-132778225D01*
X33206710Y-132748816D01*
X33465000Y-132748816D01*
X33465000Y-133051184D01*
X33523989Y-133347743D01*
X33639701Y-133627095D01*
X33807688Y-133878505D01*
X34021495Y-134092312D01*
X34272905Y-134260299D01*
X34552257Y-134376011D01*
X34848816Y-134435000D01*
X35151184Y-134435000D01*
X35261482Y-134413061D01*
X35443470Y-134595049D01*
X35471183Y-134628817D01*
X35504951Y-134656530D01*
X35504953Y-134656532D01*
X35509178Y-134659999D01*
X35605941Y-134739411D01*
X35759687Y-134821589D01*
X35875903Y-134856843D01*
X35926509Y-134872195D01*
X35941306Y-134873652D01*
X36056523Y-134885000D01*
X36056531Y-134885000D01*
X36100000Y-134889281D01*
X36143469Y-134885000D01*
X42893308Y-134885000D01*
X42927271Y-134899068D01*
X43107911Y-134935000D01*
X43292089Y-134935000D01*
X43472729Y-134899068D01*
X43642889Y-134828586D01*
X43796028Y-134726262D01*
X43926262Y-134596028D01*
X44028586Y-134442889D01*
X44099068Y-134272729D01*
X44135000Y-134092089D01*
X44135000Y-133907911D01*
X44099068Y-133727271D01*
X44028586Y-133557111D01*
X43926262Y-133403972D01*
X43796028Y-133273738D01*
X43642889Y-133171414D01*
X43472729Y-133100932D01*
X43292089Y-133065000D01*
X43107911Y-133065000D01*
X42927271Y-133100932D01*
X42893308Y-133115000D01*
X39518154Y-133115000D01*
X39610299Y-132977095D01*
X39726011Y-132697743D01*
X39785000Y-132401184D01*
X39785000Y-132098816D01*
X39726011Y-131802257D01*
X39610299Y-131522905D01*
X39442312Y-131271495D01*
X39228505Y-131057688D01*
X38977095Y-130889701D01*
X38697743Y-130773989D01*
X38401184Y-130715000D01*
X38098816Y-130715000D01*
X37802257Y-130773989D01*
X37522905Y-130889701D01*
X37271495Y-131057688D01*
X37057688Y-131271495D01*
X36889701Y-131522905D01*
X36773989Y-131802257D01*
X36715000Y-132098816D01*
X36715000Y-132401184D01*
X36773989Y-132697743D01*
X36889701Y-132977095D01*
X36981846Y-133115000D01*
X36522306Y-133115000D01*
X36535000Y-133051184D01*
X36535000Y-132748816D01*
X36476011Y-132452257D01*
X36360299Y-132172905D01*
X36192312Y-131921495D01*
X35978505Y-131707688D01*
X35727095Y-131539701D01*
X35447743Y-131423989D01*
X35151184Y-131365000D01*
X34848816Y-131365000D01*
X34552257Y-131423989D01*
X34272905Y-131539701D01*
X34021495Y-131707688D01*
X33807688Y-131921495D01*
X33639701Y-132172905D01*
X33523989Y-132452257D01*
X33465000Y-132748816D01*
X33206710Y-132748816D01*
X33274365Y-132485358D01*
X33290991Y-132183447D01*
X33248397Y-131884093D01*
X33148222Y-131598801D01*
X33068261Y-131449208D01*
X32814080Y-131365525D01*
X31929605Y-132250000D01*
X31570395Y-132250000D01*
X31556253Y-132235858D01*
X31735858Y-132056253D01*
X31750000Y-132070395D01*
X32634475Y-131185920D01*
X32550792Y-130931739D01*
X32278225Y-130800842D01*
X31985358Y-130725635D01*
X31683447Y-130709009D01*
X31384093Y-130751603D01*
X31110000Y-130847846D01*
X31110000Y-129707911D01*
X74865000Y-129707911D01*
X74865000Y-129892089D01*
X74900932Y-130072729D01*
X74971414Y-130242889D01*
X75040000Y-130345535D01*
X75040001Y-140454463D01*
X74971414Y-140557111D01*
X74900932Y-140727271D01*
X74865000Y-140907911D01*
X74865000Y-141092089D01*
X74900932Y-141272729D01*
X74971414Y-141442889D01*
X75073738Y-141596028D01*
X75203972Y-141726262D01*
X75357111Y-141828586D01*
X75527271Y-141899068D01*
X75707911Y-141935000D01*
X75892089Y-141935000D01*
X76072729Y-141899068D01*
X76242889Y-141828586D01*
X76396028Y-141726262D01*
X76526262Y-141596028D01*
X76628586Y-141442889D01*
X76699068Y-141272729D01*
X76735000Y-141092089D01*
X76735000Y-140907911D01*
X76699068Y-140727271D01*
X76628586Y-140557111D01*
X76560000Y-140454465D01*
X76560000Y-130345535D01*
X76628586Y-130242889D01*
X76699068Y-130072729D01*
X76735000Y-129892089D01*
X76735000Y-129707911D01*
X76699068Y-129527271D01*
X76628586Y-129357111D01*
X76526262Y-129203972D01*
X76396028Y-129073738D01*
X76242889Y-128971414D01*
X76072729Y-128900932D01*
X75892089Y-128865000D01*
X75707911Y-128865000D01*
X75527271Y-128900932D01*
X75357111Y-128971414D01*
X75203972Y-129073738D01*
X75073738Y-129203972D01*
X74971414Y-129357111D01*
X74900932Y-129527271D01*
X74865000Y-129707911D01*
X31110000Y-129707911D01*
X31110000Y-129146375D01*
X31302257Y-129226011D01*
X31598816Y-129285000D01*
X31901184Y-129285000D01*
X32197743Y-129226011D01*
X32477095Y-129110299D01*
X32728505Y-128942312D01*
X32942312Y-128728505D01*
X33110299Y-128477095D01*
X33226011Y-128197743D01*
X33285000Y-127901184D01*
X33285000Y-127598816D01*
X33226011Y-127302257D01*
X33110299Y-127022905D01*
X33060795Y-126948816D01*
X33465000Y-126948816D01*
X33465000Y-127251184D01*
X33523989Y-127547743D01*
X33639701Y-127827095D01*
X33807688Y-128078505D01*
X34021495Y-128292312D01*
X34272905Y-128460299D01*
X34552257Y-128576011D01*
X34848816Y-128635000D01*
X35151184Y-128635000D01*
X35447743Y-128576011D01*
X35727095Y-128460299D01*
X35978505Y-128292312D01*
X36192312Y-128078505D01*
X36360299Y-127827095D01*
X36454855Y-127598816D01*
X36715000Y-127598816D01*
X36715000Y-127901184D01*
X36773989Y-128197743D01*
X36889701Y-128477095D01*
X37057688Y-128728505D01*
X37271495Y-128942312D01*
X37522905Y-129110299D01*
X37802257Y-129226011D01*
X38098816Y-129285000D01*
X38401184Y-129285000D01*
X38697743Y-129226011D01*
X38977095Y-129110299D01*
X39228505Y-128942312D01*
X39442312Y-128728505D01*
X39610299Y-128477095D01*
X39726011Y-128197743D01*
X39785000Y-127901184D01*
X39785000Y-127598816D01*
X39726011Y-127302257D01*
X39610299Y-127022905D01*
X39442312Y-126771495D01*
X39228505Y-126557688D01*
X38977095Y-126389701D01*
X38697743Y-126273989D01*
X38401184Y-126215000D01*
X38098816Y-126215000D01*
X37802257Y-126273989D01*
X37522905Y-126389701D01*
X37271495Y-126557688D01*
X37057688Y-126771495D01*
X36889701Y-127022905D01*
X36773989Y-127302257D01*
X36715000Y-127598816D01*
X36454855Y-127598816D01*
X36476011Y-127547743D01*
X36535000Y-127251184D01*
X36535000Y-126948816D01*
X36476011Y-126652257D01*
X36360299Y-126372905D01*
X36192312Y-126121495D01*
X35978505Y-125907688D01*
X35727095Y-125739701D01*
X35447743Y-125623989D01*
X35151184Y-125565000D01*
X34848816Y-125565000D01*
X34552257Y-125623989D01*
X34272905Y-125739701D01*
X34021495Y-125907688D01*
X33807688Y-126121495D01*
X33639701Y-126372905D01*
X33523989Y-126652257D01*
X33465000Y-126948816D01*
X33060795Y-126948816D01*
X32942312Y-126771495D01*
X32728505Y-126557688D01*
X32477095Y-126389701D01*
X32197743Y-126273989D01*
X31901184Y-126215000D01*
X31598816Y-126215000D01*
X31302257Y-126273989D01*
X31110000Y-126353625D01*
X31110000Y-123645479D01*
X31221775Y-123699158D01*
X31514642Y-123774365D01*
X31816553Y-123790991D01*
X32115907Y-123748397D01*
X32401199Y-123648222D01*
X32550792Y-123568261D01*
X32634475Y-123314080D01*
X31750000Y-122429605D01*
X31735858Y-122443748D01*
X31556253Y-122264143D01*
X31570395Y-122250000D01*
X31929605Y-122250000D01*
X32814080Y-123134475D01*
X33068261Y-123050792D01*
X33199158Y-122778225D01*
X33206710Y-122748816D01*
X33465000Y-122748816D01*
X33465000Y-123051184D01*
X33523989Y-123347743D01*
X33639701Y-123627095D01*
X33807688Y-123878505D01*
X34021495Y-124092312D01*
X34272905Y-124260299D01*
X34552257Y-124376011D01*
X34848816Y-124435000D01*
X35151184Y-124435000D01*
X35321423Y-124401137D01*
X35359688Y-124421590D01*
X35526511Y-124472196D01*
X35656524Y-124485001D01*
X35656532Y-124485001D01*
X35700001Y-124489282D01*
X35743470Y-124485001D01*
X44756530Y-124485001D01*
X44799999Y-124489282D01*
X44843468Y-124485001D01*
X44843476Y-124485001D01*
X44973489Y-124472196D01*
X45140312Y-124421590D01*
X45294058Y-124339412D01*
X45428816Y-124228818D01*
X45456533Y-124195045D01*
X45608923Y-124042655D01*
X45642889Y-124028586D01*
X45796028Y-123926262D01*
X45926262Y-123796028D01*
X46028586Y-123642889D01*
X46099068Y-123472729D01*
X46135000Y-123292089D01*
X46135000Y-123107911D01*
X46099068Y-122927271D01*
X46028586Y-122757111D01*
X45926262Y-122603972D01*
X45796028Y-122473738D01*
X45642889Y-122371414D01*
X45472729Y-122300932D01*
X45292089Y-122265000D01*
X45107911Y-122265000D01*
X44927271Y-122300932D01*
X44757111Y-122371414D01*
X44603972Y-122473738D01*
X44473738Y-122603972D01*
X44399551Y-122715001D01*
X39718862Y-122715001D01*
X39726011Y-122697743D01*
X39785000Y-122401184D01*
X39785000Y-122098816D01*
X39726011Y-121802257D01*
X39610299Y-121522905D01*
X39442312Y-121271495D01*
X39228505Y-121057688D01*
X38977095Y-120889701D01*
X38697743Y-120773989D01*
X38401184Y-120715000D01*
X38098816Y-120715000D01*
X37802257Y-120773989D01*
X37522905Y-120889701D01*
X37271495Y-121057688D01*
X37057688Y-121271495D01*
X36889701Y-121522905D01*
X36773989Y-121802257D01*
X36715000Y-122098816D01*
X36715000Y-122401184D01*
X36773989Y-122697743D01*
X36781138Y-122715001D01*
X36528274Y-122715001D01*
X36476011Y-122452257D01*
X36360299Y-122172905D01*
X36192312Y-121921495D01*
X35978505Y-121707688D01*
X35727095Y-121539701D01*
X35447743Y-121423989D01*
X35151184Y-121365000D01*
X34848816Y-121365000D01*
X34552257Y-121423989D01*
X34272905Y-121539701D01*
X34021495Y-121707688D01*
X33807688Y-121921495D01*
X33639701Y-122172905D01*
X33523989Y-122452257D01*
X33465000Y-122748816D01*
X33206710Y-122748816D01*
X33274365Y-122485358D01*
X33290991Y-122183447D01*
X33248397Y-121884093D01*
X33148222Y-121598801D01*
X33068261Y-121449208D01*
X32814080Y-121365525D01*
X31929605Y-122250000D01*
X31570395Y-122250000D01*
X31556253Y-122235858D01*
X31735858Y-122056253D01*
X31750000Y-122070395D01*
X32634475Y-121185920D01*
X32550792Y-120931739D01*
X32278225Y-120800842D01*
X31985358Y-120725635D01*
X31683447Y-120709009D01*
X31384093Y-120751603D01*
X31110000Y-120847846D01*
X31110000Y-119146375D01*
X31302257Y-119226011D01*
X31598816Y-119285000D01*
X31901184Y-119285000D01*
X32197743Y-119226011D01*
X32477095Y-119110299D01*
X32728505Y-118942312D01*
X32942312Y-118728505D01*
X33110299Y-118477095D01*
X33226011Y-118197743D01*
X33285000Y-117901184D01*
X33285000Y-117598816D01*
X33226011Y-117302257D01*
X33110299Y-117022905D01*
X33060795Y-116948816D01*
X33465000Y-116948816D01*
X33465000Y-117251184D01*
X33523989Y-117547743D01*
X33639701Y-117827095D01*
X33807688Y-118078505D01*
X34021495Y-118292312D01*
X34272905Y-118460299D01*
X34552257Y-118576011D01*
X34848816Y-118635000D01*
X35151184Y-118635000D01*
X35447743Y-118576011D01*
X35727095Y-118460299D01*
X35978505Y-118292312D01*
X36192312Y-118078505D01*
X36360299Y-117827095D01*
X36454855Y-117598816D01*
X36715000Y-117598816D01*
X36715000Y-117901184D01*
X36773989Y-118197743D01*
X36889701Y-118477095D01*
X37057688Y-118728505D01*
X37271495Y-118942312D01*
X37522905Y-119110299D01*
X37802257Y-119226011D01*
X38098816Y-119285000D01*
X38401184Y-119285000D01*
X38697743Y-119226011D01*
X38977095Y-119110299D01*
X39228505Y-118942312D01*
X39442312Y-118728505D01*
X39610299Y-118477095D01*
X39726011Y-118197743D01*
X39785000Y-117901184D01*
X39785000Y-117598816D01*
X39726011Y-117302257D01*
X39610299Y-117022905D01*
X39442312Y-116771495D01*
X39228505Y-116557688D01*
X38977095Y-116389701D01*
X38697743Y-116273989D01*
X38401184Y-116215000D01*
X38098816Y-116215000D01*
X37802257Y-116273989D01*
X37522905Y-116389701D01*
X37271495Y-116557688D01*
X37057688Y-116771495D01*
X36889701Y-117022905D01*
X36773989Y-117302257D01*
X36715000Y-117598816D01*
X36454855Y-117598816D01*
X36476011Y-117547743D01*
X36535000Y-117251184D01*
X36535000Y-116948816D01*
X36476011Y-116652257D01*
X36360299Y-116372905D01*
X36192312Y-116121495D01*
X35978505Y-115907688D01*
X35727095Y-115739701D01*
X35447743Y-115623989D01*
X35151184Y-115565000D01*
X34848816Y-115565000D01*
X34552257Y-115623989D01*
X34272905Y-115739701D01*
X34021495Y-115907688D01*
X33807688Y-116121495D01*
X33639701Y-116372905D01*
X33523989Y-116652257D01*
X33465000Y-116948816D01*
X33060795Y-116948816D01*
X32942312Y-116771495D01*
X32728505Y-116557688D01*
X32477095Y-116389701D01*
X32197743Y-116273989D01*
X31901184Y-116215000D01*
X31598816Y-116215000D01*
X31302257Y-116273989D01*
X31110000Y-116353625D01*
X31110000Y-106773740D01*
X63515000Y-106773740D01*
X63515000Y-107066260D01*
X63572068Y-107353158D01*
X63684010Y-107623411D01*
X63846525Y-107866632D01*
X64053368Y-108073475D01*
X64235534Y-108195195D01*
X64118645Y-108264822D01*
X63902412Y-108459731D01*
X63728359Y-108693080D01*
X63603175Y-108955901D01*
X63558524Y-109103110D01*
X63679845Y-109333000D01*
X64873000Y-109333000D01*
X64873000Y-109313000D01*
X65127000Y-109313000D01*
X65127000Y-109333000D01*
X66320155Y-109333000D01*
X66441476Y-109103110D01*
X66396825Y-108955901D01*
X66271641Y-108693080D01*
X66097588Y-108459731D01*
X65881355Y-108264822D01*
X65764466Y-108195195D01*
X65946632Y-108073475D01*
X66153475Y-107866632D01*
X66315990Y-107623411D01*
X66427932Y-107353158D01*
X66485000Y-107066260D01*
X66485000Y-106773740D01*
X66432123Y-106507911D01*
X66865000Y-106507911D01*
X66865000Y-106692089D01*
X66900932Y-106872729D01*
X66971414Y-107042889D01*
X67073738Y-107196028D01*
X67203972Y-107326262D01*
X67357111Y-107428586D01*
X67527271Y-107499068D01*
X67707911Y-107535000D01*
X67892089Y-107535000D01*
X68072729Y-107499068D01*
X68106692Y-107485000D01*
X71893308Y-107485000D01*
X71927271Y-107499068D01*
X72107911Y-107535000D01*
X72292089Y-107535000D01*
X72472729Y-107499068D01*
X72642889Y-107428586D01*
X72796028Y-107326262D01*
X72926262Y-107196028D01*
X73028586Y-107042889D01*
X73099068Y-106872729D01*
X73135000Y-106692089D01*
X73135000Y-106507911D01*
X73099068Y-106327271D01*
X73028586Y-106157111D01*
X72926262Y-106003972D01*
X72796028Y-105873738D01*
X72642889Y-105771414D01*
X72472729Y-105700932D01*
X72292089Y-105665000D01*
X72107911Y-105665000D01*
X71927271Y-105700932D01*
X71893308Y-105715000D01*
X68106692Y-105715000D01*
X68072729Y-105700932D01*
X67892089Y-105665000D01*
X67707911Y-105665000D01*
X67527271Y-105700932D01*
X67357111Y-105771414D01*
X67203972Y-105873738D01*
X67073738Y-106003972D01*
X66971414Y-106157111D01*
X66900932Y-106327271D01*
X66865000Y-106507911D01*
X66432123Y-106507911D01*
X66427932Y-106486842D01*
X66315990Y-106216589D01*
X66153475Y-105973368D01*
X65946632Y-105766525D01*
X65703411Y-105604010D01*
X65433158Y-105492068D01*
X65146260Y-105435000D01*
X64853740Y-105435000D01*
X64566842Y-105492068D01*
X64296589Y-105604010D01*
X64053368Y-105766525D01*
X63846525Y-105973368D01*
X63684010Y-106216589D01*
X63572068Y-106486842D01*
X63515000Y-106773740D01*
X31110000Y-106773740D01*
X31110000Y-101879872D01*
X32665000Y-101879872D01*
X32665000Y-102320128D01*
X32750890Y-102751925D01*
X32919369Y-103158669D01*
X33163962Y-103524729D01*
X33475271Y-103836038D01*
X33841331Y-104080631D01*
X34248075Y-104249110D01*
X34679872Y-104335000D01*
X35120128Y-104335000D01*
X35551925Y-104249110D01*
X35958669Y-104080631D01*
X36324729Y-103836038D01*
X36636038Y-103524729D01*
X36880631Y-103158669D01*
X37049110Y-102751925D01*
X37135000Y-102320128D01*
X37135000Y-101879872D01*
X37092880Y-101668120D01*
X65161000Y-101668120D01*
X65161000Y-101931880D01*
X65212457Y-102190572D01*
X65313393Y-102434254D01*
X65459931Y-102653563D01*
X65646437Y-102840069D01*
X65865746Y-102986607D01*
X66109428Y-103087543D01*
X66368120Y-103139000D01*
X66631880Y-103139000D01*
X66890572Y-103087543D01*
X67134254Y-102986607D01*
X67353563Y-102840069D01*
X67540069Y-102653563D01*
X67686607Y-102434254D01*
X67787543Y-102190572D01*
X67839000Y-101931880D01*
X67839000Y-101668120D01*
X67787543Y-101409428D01*
X67686607Y-101165746D01*
X67540069Y-100946437D01*
X67353563Y-100759931D01*
X67134254Y-100613393D01*
X66890572Y-100512457D01*
X66631880Y-100461000D01*
X66368120Y-100461000D01*
X66109428Y-100512457D01*
X65865746Y-100613393D01*
X65646437Y-100759931D01*
X65459931Y-100946437D01*
X65313393Y-101165746D01*
X65212457Y-101409428D01*
X65161000Y-101668120D01*
X37092880Y-101668120D01*
X37049110Y-101448075D01*
X36880631Y-101041331D01*
X36636038Y-100675271D01*
X36324729Y-100363962D01*
X35958669Y-100119369D01*
X35551925Y-99950890D01*
X35120128Y-99865000D01*
X34679872Y-99865000D01*
X34248075Y-99950890D01*
X33841331Y-100119369D01*
X33475271Y-100363962D01*
X33163962Y-100675271D01*
X32919369Y-101041331D01*
X32750890Y-101448075D01*
X32665000Y-101879872D01*
X31110000Y-101879872D01*
X31110000Y-101634721D01*
X31175998Y-100961630D01*
X31361392Y-100347576D01*
X31662525Y-99781227D01*
X32067928Y-99284152D01*
X32562159Y-98875288D01*
X33126389Y-98570210D01*
X33739137Y-98380533D01*
X34410204Y-98310000D01*
X45957430Y-98310000D01*
X45898731Y-98368699D01*
X45678761Y-98697908D01*
X45527243Y-99063704D01*
X45450000Y-99452032D01*
X45450000Y-99847968D01*
X45527243Y-100236296D01*
X45678761Y-100602092D01*
X45898731Y-100931301D01*
X46178699Y-101211269D01*
X46507908Y-101431239D01*
X46873704Y-101582757D01*
X47262032Y-101660000D01*
X47657968Y-101660000D01*
X48046296Y-101582757D01*
X48412092Y-101431239D01*
X48741301Y-101211269D01*
X49021269Y-100931301D01*
X49241239Y-100602092D01*
X49392757Y-100236296D01*
X49470000Y-99847968D01*
X49470000Y-99452032D01*
X49392757Y-99063704D01*
X49241239Y-98697908D01*
X49021269Y-98368699D01*
X48962570Y-98310000D01*
X51037430Y-98310000D01*
X50978731Y-98368699D01*
X50758761Y-98697908D01*
X50607243Y-99063704D01*
X50530000Y-99452032D01*
X50530000Y-99847968D01*
X50607243Y-100236296D01*
X50758761Y-100602092D01*
X50978731Y-100931301D01*
X51258699Y-101211269D01*
X51587908Y-101431239D01*
X51953704Y-101582757D01*
X52342032Y-101660000D01*
X52737968Y-101660000D01*
X53126296Y-101582757D01*
X53492092Y-101431239D01*
X53821301Y-101211269D01*
X54101269Y-100931301D01*
X54321239Y-100602092D01*
X54472757Y-100236296D01*
X54550000Y-99847968D01*
X54550000Y-99452032D01*
X54472757Y-99063704D01*
X54321239Y-98697908D01*
X54101269Y-98368699D01*
X54042570Y-98310000D01*
X64181733Y-98310000D01*
X64139701Y-98372905D01*
X64023989Y-98652257D01*
X63965000Y-98948816D01*
X63965000Y-99251184D01*
X64023989Y-99547743D01*
X64139701Y-99827095D01*
X64307688Y-100078505D01*
X64521495Y-100292312D01*
X64772905Y-100460299D01*
X65052257Y-100576011D01*
X65348816Y-100635000D01*
X65651184Y-100635000D01*
X65947743Y-100576011D01*
X66227095Y-100460299D01*
X66478505Y-100292312D01*
X66692312Y-100078505D01*
X66860299Y-99827095D01*
X66976011Y-99547743D01*
X67035000Y-99251184D01*
X67035000Y-98948816D01*
X66976011Y-98652257D01*
X66860299Y-98372905D01*
X66818267Y-98310000D01*
X71181733Y-98310000D01*
X71139701Y-98372905D01*
X71023989Y-98652257D01*
X70965000Y-98948816D01*
X70965000Y-99251184D01*
X71023989Y-99547743D01*
X71082914Y-99690000D01*
X70812290Y-99690000D01*
X70796028Y-99673738D01*
X70642889Y-99571414D01*
X70472729Y-99500932D01*
X70292089Y-99465000D01*
X70107911Y-99465000D01*
X69927271Y-99500932D01*
X69757111Y-99571414D01*
X69603972Y-99673738D01*
X69600000Y-99677710D01*
X69596028Y-99673738D01*
X69442889Y-99571414D01*
X69272729Y-99500932D01*
X69092089Y-99465000D01*
X68907911Y-99465000D01*
X68727271Y-99500932D01*
X68557111Y-99571414D01*
X68403972Y-99673738D01*
X68273738Y-99803972D01*
X68171414Y-99957111D01*
X68100932Y-100127271D01*
X68065000Y-100307911D01*
X68065000Y-100492089D01*
X68100932Y-100672729D01*
X68171414Y-100842889D01*
X68273738Y-100996028D01*
X68403972Y-101126262D01*
X68557111Y-101228586D01*
X68727271Y-101299068D01*
X68907911Y-101335000D01*
X68930909Y-101335000D01*
X69273288Y-101677379D01*
X69295525Y-101704475D01*
X69403637Y-101793200D01*
X69526980Y-101859128D01*
X69660816Y-101899727D01*
X69765123Y-101910000D01*
X69765125Y-101910000D01*
X69800000Y-101913435D01*
X69834875Y-101910000D01*
X70161000Y-101910000D01*
X70161000Y-101931880D01*
X70212457Y-102190572D01*
X70313393Y-102434254D01*
X70459931Y-102653563D01*
X70646437Y-102840069D01*
X70865746Y-102986607D01*
X71109428Y-103087543D01*
X71368120Y-103139000D01*
X71631880Y-103139000D01*
X71890572Y-103087543D01*
X72134254Y-102986607D01*
X72353563Y-102840069D01*
X72540069Y-102653563D01*
X72686607Y-102434254D01*
X72787543Y-102190572D01*
X72798597Y-102134999D01*
X87486189Y-102134999D01*
X87471414Y-102157111D01*
X87400932Y-102327271D01*
X87365000Y-102507911D01*
X87365000Y-102692089D01*
X87400932Y-102872729D01*
X87471414Y-103042889D01*
X87573738Y-103196028D01*
X87703972Y-103326262D01*
X87857111Y-103428586D01*
X88027271Y-103499068D01*
X88207911Y-103535000D01*
X88392089Y-103535000D01*
X88572729Y-103499068D01*
X88742889Y-103428586D01*
X88896028Y-103326262D01*
X88912290Y-103310000D01*
X89468563Y-103310000D01*
X89500932Y-103472729D01*
X89571414Y-103642889D01*
X89673738Y-103796028D01*
X89803972Y-103926262D01*
X89957111Y-104028586D01*
X90127271Y-104099068D01*
X90282473Y-104129940D01*
X90300932Y-104222739D01*
X90371414Y-104392899D01*
X90473738Y-104546038D01*
X90603972Y-104676272D01*
X90757111Y-104778596D01*
X90927271Y-104849078D01*
X91107911Y-104885010D01*
X91292089Y-104885010D01*
X91472729Y-104849078D01*
X91642889Y-104778596D01*
X91796028Y-104676272D01*
X91926262Y-104546038D01*
X91950342Y-104510000D01*
X93273534Y-104510000D01*
X93300932Y-104647739D01*
X93371414Y-104817899D01*
X93473738Y-104971038D01*
X93603972Y-105101272D01*
X93757111Y-105203596D01*
X93927271Y-105274078D01*
X94107911Y-105310010D01*
X94292089Y-105310010D01*
X94472729Y-105274078D01*
X94642889Y-105203596D01*
X94796028Y-105101272D01*
X94812290Y-105085010D01*
X106861145Y-105085010D01*
X106807296Y-105138859D01*
X106704972Y-105291998D01*
X106634490Y-105462158D01*
X106598558Y-105642798D01*
X106598558Y-105826976D01*
X106634490Y-106007616D01*
X106704972Y-106177776D01*
X106807296Y-106330915D01*
X106937530Y-106461149D01*
X107090669Y-106563473D01*
X107260829Y-106633955D01*
X107441469Y-106669887D01*
X107625647Y-106669887D01*
X107806287Y-106633955D01*
X107840250Y-106619887D01*
X109496160Y-106619887D01*
X109426979Y-106640873D01*
X109381840Y-106665000D01*
X109307911Y-106665000D01*
X109127271Y-106700932D01*
X108957111Y-106771414D01*
X108803972Y-106873738D01*
X108673738Y-107003972D01*
X108571414Y-107157111D01*
X108500932Y-107327271D01*
X108465000Y-107507911D01*
X108465000Y-107692089D01*
X108500932Y-107872729D01*
X108571414Y-108042889D01*
X108609574Y-108100000D01*
X108571414Y-108157111D01*
X108500932Y-108327271D01*
X108468563Y-108490000D01*
X108059884Y-108490000D01*
X108025009Y-108486565D01*
X107990134Y-108490000D01*
X107990133Y-108490000D01*
X107924524Y-108496462D01*
X107892089Y-108490010D01*
X107707911Y-108490010D01*
X107527271Y-108525942D01*
X107357111Y-108596424D01*
X107203972Y-108698748D01*
X107073738Y-108828982D01*
X106971414Y-108982121D01*
X106928778Y-109085055D01*
X106848857Y-109100952D01*
X106678697Y-109171434D01*
X106525558Y-109273758D01*
X106433733Y-109365583D01*
X106305223Y-109340021D01*
X106121045Y-109340021D01*
X105940405Y-109375953D01*
X105770245Y-109446435D01*
X105617106Y-109548759D01*
X105486872Y-109678993D01*
X105384548Y-109832132D01*
X105314066Y-110002292D01*
X105278134Y-110182932D01*
X105278134Y-110367110D01*
X105314066Y-110547750D01*
X105384548Y-110717910D01*
X105486872Y-110871049D01*
X105513281Y-110897458D01*
X105500932Y-110927271D01*
X105465000Y-111107911D01*
X105465000Y-111292089D01*
X105500932Y-111472729D01*
X105571414Y-111642889D01*
X105619597Y-111715000D01*
X103081559Y-111715000D01*
X103099068Y-111672729D01*
X103135000Y-111492089D01*
X103135000Y-111307911D01*
X103099068Y-111127271D01*
X103028586Y-110957111D01*
X102926262Y-110803972D01*
X102796028Y-110673738D01*
X102642889Y-110571414D01*
X102472729Y-110500932D01*
X102292089Y-110465000D01*
X102269092Y-110465000D01*
X101326712Y-109522621D01*
X101304475Y-109495525D01*
X101196363Y-109406800D01*
X101073020Y-109340872D01*
X100939184Y-109300273D01*
X100834877Y-109290000D01*
X100834875Y-109290000D01*
X100800000Y-109286565D01*
X100765125Y-109290000D01*
X77485878Y-109290000D01*
X77451003Y-109286565D01*
X77416128Y-109290000D01*
X77416127Y-109290000D01*
X77311820Y-109300273D01*
X77177984Y-109340872D01*
X77062603Y-109402545D01*
X77054639Y-109406801D01*
X77006345Y-109446435D01*
X76946529Y-109495525D01*
X76924296Y-109522616D01*
X75800000Y-110646912D01*
X74675708Y-109522621D01*
X74653471Y-109495525D01*
X74545359Y-109406800D01*
X74422016Y-109340872D01*
X74288180Y-109300273D01*
X74183873Y-109290000D01*
X74183871Y-109290000D01*
X74148996Y-109286565D01*
X74114121Y-109290000D01*
X68034875Y-109290000D01*
X68000000Y-109286565D01*
X67965125Y-109290000D01*
X67965123Y-109290000D01*
X67860816Y-109300273D01*
X67726980Y-109340872D01*
X67603637Y-109406800D01*
X67495525Y-109495525D01*
X67473288Y-109522621D01*
X66722617Y-110273292D01*
X66695525Y-110295526D01*
X66606800Y-110403638D01*
X66540872Y-110526981D01*
X66500273Y-110660817D01*
X66492967Y-110735000D01*
X66486565Y-110800000D01*
X66490000Y-110834875D01*
X66490001Y-111700910D01*
X66488072Y-111702839D01*
X66488072Y-111150000D01*
X66475812Y-111025518D01*
X66439502Y-110905820D01*
X66380537Y-110795506D01*
X66301185Y-110698815D01*
X66204494Y-110619463D01*
X66094180Y-110560498D01*
X66013534Y-110536034D01*
X66097588Y-110460269D01*
X66271641Y-110226920D01*
X66396825Y-109964099D01*
X66441476Y-109816890D01*
X66320155Y-109587000D01*
X65127000Y-109587000D01*
X65127000Y-109607000D01*
X64873000Y-109607000D01*
X64873000Y-109587000D01*
X63679845Y-109587000D01*
X63558524Y-109816890D01*
X63603175Y-109964099D01*
X63728359Y-110226920D01*
X63902412Y-110460269D01*
X63986466Y-110536034D01*
X63905820Y-110560498D01*
X63795506Y-110619463D01*
X63698815Y-110698815D01*
X63619463Y-110795506D01*
X63560498Y-110905820D01*
X63524188Y-111025518D01*
X63511928Y-111150000D01*
X63511928Y-112850000D01*
X63524188Y-112974482D01*
X63560498Y-113094180D01*
X63619463Y-113204494D01*
X63698815Y-113301185D01*
X63795506Y-113380537D01*
X63905820Y-113439502D01*
X64025518Y-113475812D01*
X64150000Y-113488072D01*
X64702839Y-113488072D01*
X64600910Y-113590001D01*
X59673710Y-113590001D01*
X59703937Y-113559774D01*
X59817205Y-113390256D01*
X59895226Y-113201898D01*
X59935000Y-113001939D01*
X59935000Y-112798061D01*
X59895226Y-112598102D01*
X59817205Y-112409744D01*
X59703937Y-112240226D01*
X59559774Y-112096063D01*
X59390256Y-111982795D01*
X59201898Y-111904774D01*
X59145043Y-111893465D01*
X59006534Y-111754956D01*
X58978817Y-111721183D01*
X58844059Y-111610589D01*
X58690313Y-111528411D01*
X58523490Y-111477805D01*
X58393477Y-111465000D01*
X58393469Y-111465000D01*
X58350000Y-111460719D01*
X58306531Y-111465000D01*
X56509029Y-111465000D01*
X56481239Y-111397908D01*
X56261269Y-111068699D01*
X55981301Y-110788731D01*
X55652092Y-110568761D01*
X55286296Y-110417243D01*
X54897968Y-110340000D01*
X54502032Y-110340000D01*
X54113704Y-110417243D01*
X53747908Y-110568761D01*
X53418699Y-110788731D01*
X53138731Y-111068699D01*
X52918761Y-111397908D01*
X52767243Y-111763704D01*
X52690000Y-112152032D01*
X52690000Y-112547968D01*
X52767243Y-112936296D01*
X52918761Y-113302092D01*
X53111135Y-113590001D01*
X51588865Y-113590001D01*
X51781239Y-113302092D01*
X51932757Y-112936296D01*
X52010000Y-112547968D01*
X52010000Y-112152032D01*
X51932757Y-111763704D01*
X51781239Y-111397908D01*
X51561269Y-111068699D01*
X51281301Y-110788731D01*
X50952092Y-110568761D01*
X50586296Y-110417243D01*
X50197968Y-110340000D01*
X49802032Y-110340000D01*
X49413704Y-110417243D01*
X49047908Y-110568761D01*
X48718699Y-110788731D01*
X48438731Y-111068699D01*
X48218761Y-111397908D01*
X48067243Y-111763704D01*
X47990000Y-112152032D01*
X47990000Y-112547968D01*
X48067243Y-112936296D01*
X48218761Y-113302092D01*
X48411135Y-113590001D01*
X46888865Y-113590001D01*
X47081239Y-113302092D01*
X47232757Y-112936296D01*
X47310000Y-112547968D01*
X47310000Y-112152032D01*
X47232757Y-111763704D01*
X47081239Y-111397908D01*
X46861269Y-111068699D01*
X46581301Y-110788731D01*
X46252092Y-110568761D01*
X45886296Y-110417243D01*
X45497968Y-110340000D01*
X45102032Y-110340000D01*
X44713704Y-110417243D01*
X44347908Y-110568761D01*
X44018699Y-110788731D01*
X43738731Y-111068699D01*
X43518761Y-111397908D01*
X43367243Y-111763704D01*
X43290000Y-112152032D01*
X43290000Y-112547968D01*
X43367243Y-112936296D01*
X43518761Y-113302092D01*
X43711135Y-113590001D01*
X40934874Y-113590001D01*
X40899999Y-113586566D01*
X40865124Y-113590001D01*
X40865122Y-113590001D01*
X40760815Y-113600274D01*
X40626979Y-113640873D01*
X40581840Y-113665000D01*
X40507911Y-113665000D01*
X40327271Y-113700932D01*
X40157111Y-113771414D01*
X40003972Y-113873738D01*
X39873738Y-114003972D01*
X39771414Y-114157111D01*
X39700932Y-114327271D01*
X39665000Y-114507911D01*
X39665000Y-114692089D01*
X39700932Y-114872729D01*
X39771414Y-115042889D01*
X39873738Y-115196028D01*
X40003972Y-115326262D01*
X40157111Y-115428586D01*
X40327271Y-115499068D01*
X40507911Y-115535000D01*
X40692089Y-115535000D01*
X40872729Y-115499068D01*
X41042889Y-115428586D01*
X41196028Y-115326262D01*
X41292409Y-115229881D01*
X41300932Y-115272729D01*
X41371414Y-115442889D01*
X41473738Y-115596028D01*
X41603972Y-115726262D01*
X41757111Y-115828586D01*
X41927271Y-115899068D01*
X42107911Y-115935000D01*
X42292089Y-115935000D01*
X42472729Y-115899068D01*
X42642889Y-115828586D01*
X42796028Y-115726262D01*
X42926262Y-115596028D01*
X43028586Y-115442889D01*
X43042209Y-115410001D01*
X48665000Y-115410001D01*
X48665000Y-115492089D01*
X48700932Y-115672729D01*
X48771414Y-115842889D01*
X48873738Y-115996028D01*
X49003972Y-116126262D01*
X49157111Y-116228586D01*
X49327271Y-116299068D01*
X49507911Y-116335000D01*
X49530908Y-116335000D01*
X49848294Y-116652386D01*
X49870527Y-116679477D01*
X49978639Y-116768202D01*
X50101982Y-116834130D01*
X50235818Y-116874729D01*
X50340125Y-116885002D01*
X50340126Y-116885002D01*
X50375001Y-116888437D01*
X50409876Y-116885002D01*
X75065000Y-116885002D01*
X75065000Y-116892089D01*
X75100932Y-117072729D01*
X75171414Y-117242889D01*
X75240000Y-117345536D01*
X75240001Y-121654463D01*
X75171414Y-121757111D01*
X75100932Y-121927271D01*
X75065000Y-122107911D01*
X75065000Y-122292089D01*
X75100932Y-122472729D01*
X75171414Y-122642889D01*
X75273738Y-122796028D01*
X75403972Y-122926262D01*
X75557111Y-123028586D01*
X75727271Y-123099068D01*
X75907911Y-123135000D01*
X76092089Y-123135000D01*
X76272729Y-123099068D01*
X76442889Y-123028586D01*
X76596028Y-122926262D01*
X76726262Y-122796028D01*
X76828586Y-122642889D01*
X76899068Y-122472729D01*
X76935000Y-122292089D01*
X76935000Y-122107911D01*
X76899068Y-121927271D01*
X76828586Y-121757111D01*
X76760000Y-121654465D01*
X76760000Y-117345535D01*
X76828586Y-117242889D01*
X76899068Y-117072729D01*
X76935000Y-116892089D01*
X76935000Y-116885002D01*
X80990123Y-116885002D01*
X81024998Y-116888437D01*
X81059873Y-116885002D01*
X81059875Y-116885002D01*
X81164182Y-116874729D01*
X81298018Y-116834130D01*
X81421361Y-116768202D01*
X81461818Y-116735000D01*
X81492089Y-116735000D01*
X81672729Y-116699068D01*
X81842889Y-116628586D01*
X81996028Y-116526262D01*
X82035356Y-116486934D01*
X82943470Y-117395049D01*
X82971183Y-117428817D01*
X83004951Y-117456530D01*
X83004953Y-117456532D01*
X83089919Y-117526262D01*
X83105941Y-117539411D01*
X83259687Y-117621589D01*
X83426510Y-117672195D01*
X83556523Y-117685000D01*
X83556531Y-117685000D01*
X83600000Y-117689281D01*
X83643469Y-117685000D01*
X84493308Y-117685000D01*
X84527271Y-117699068D01*
X84707911Y-117735000D01*
X84892089Y-117735000D01*
X85072729Y-117699068D01*
X85242889Y-117628586D01*
X85396028Y-117526262D01*
X85526262Y-117396028D01*
X85628586Y-117242889D01*
X85699068Y-117072729D01*
X85735000Y-116892089D01*
X85735000Y-116707911D01*
X85699068Y-116527271D01*
X85664438Y-116443665D01*
X102665000Y-116443665D01*
X102665000Y-116492089D01*
X102700932Y-116672729D01*
X102771414Y-116842889D01*
X102873738Y-116996028D01*
X102975074Y-117097364D01*
X102975073Y-118408978D01*
X102958811Y-118425240D01*
X102856487Y-118578379D01*
X102786005Y-118748539D01*
X102750073Y-118929179D01*
X102750073Y-119113357D01*
X102786005Y-119293997D01*
X102856487Y-119464157D01*
X102958811Y-119617296D01*
X103089045Y-119747530D01*
X103242184Y-119849854D01*
X103412344Y-119920336D01*
X103592984Y-119956268D01*
X103777162Y-119956268D01*
X103957802Y-119920336D01*
X104127962Y-119849854D01*
X104281101Y-119747530D01*
X104411335Y-119617296D01*
X104513659Y-119464157D01*
X104584141Y-119293997D01*
X104620073Y-119113357D01*
X104620073Y-118929179D01*
X104584141Y-118748539D01*
X104513659Y-118578379D01*
X104411335Y-118425240D01*
X104395073Y-118408978D01*
X104395073Y-116893045D01*
X104428586Y-116842889D01*
X104499068Y-116672729D01*
X104519309Y-116570971D01*
X104668416Y-116632733D01*
X104849056Y-116668665D01*
X105033234Y-116668665D01*
X105213874Y-116632733D01*
X105384034Y-116562251D01*
X105537173Y-116459927D01*
X105667407Y-116329693D01*
X105769731Y-116176554D01*
X105840213Y-116006394D01*
X105876145Y-115825754D01*
X105876145Y-115641576D01*
X105840213Y-115460936D01*
X105769731Y-115290776D01*
X105667407Y-115137637D01*
X105537173Y-115007403D01*
X105384034Y-114905079D01*
X105213874Y-114834597D01*
X105185715Y-114828996D01*
X105314722Y-114699989D01*
X130871634Y-114699989D01*
X132849024Y-116677379D01*
X132871261Y-116704475D01*
X132979373Y-116793200D01*
X133055946Y-116834129D01*
X133102716Y-116859128D01*
X133151696Y-116873986D01*
X133203972Y-116926262D01*
X133357111Y-117028586D01*
X133527271Y-117099068D01*
X133707911Y-117135000D01*
X133892089Y-117135000D01*
X134072729Y-117099068D01*
X134242889Y-117028586D01*
X134396028Y-116926262D01*
X134526262Y-116796028D01*
X134628586Y-116642889D01*
X134699068Y-116472729D01*
X134735000Y-116292089D01*
X134735000Y-116107911D01*
X134699068Y-115927271D01*
X134628586Y-115757111D01*
X134526262Y-115603972D01*
X134403189Y-115480899D01*
X134428586Y-115442889D01*
X134499068Y-115272729D01*
X134535000Y-115092089D01*
X134535000Y-114907911D01*
X134499068Y-114727271D01*
X134428586Y-114557111D01*
X134326262Y-114403972D01*
X134196028Y-114273738D01*
X134042889Y-114171414D01*
X133872729Y-114100932D01*
X133692089Y-114065000D01*
X133507911Y-114065000D01*
X133327271Y-114100932D01*
X133170118Y-114166027D01*
X132489091Y-113485000D01*
X133950529Y-113485000D01*
X133993998Y-113489281D01*
X134037467Y-113485000D01*
X134037475Y-113485000D01*
X134167488Y-113472195D01*
X134334311Y-113421589D01*
X134488057Y-113339411D01*
X134622815Y-113228817D01*
X134650532Y-113195044D01*
X143795051Y-104050526D01*
X143828817Y-104022815D01*
X143863793Y-103980198D01*
X143939411Y-103888057D01*
X143989126Y-103795046D01*
X144021589Y-103734311D01*
X144072195Y-103567488D01*
X144085000Y-103437475D01*
X144085000Y-103437467D01*
X144089281Y-103393998D01*
X144085000Y-103350529D01*
X144085000Y-101693985D01*
X144242889Y-101628586D01*
X144396028Y-101526262D01*
X144526262Y-101396028D01*
X144628586Y-101242889D01*
X144699068Y-101072729D01*
X144735000Y-100892089D01*
X144735000Y-100707911D01*
X144699068Y-100527271D01*
X144628586Y-100357111D01*
X144526262Y-100203972D01*
X144396028Y-100073738D01*
X144242889Y-99971414D01*
X144208924Y-99957345D01*
X144085000Y-99833422D01*
X144085000Y-94306692D01*
X144099068Y-94272729D01*
X144135000Y-94092089D01*
X144135000Y-93907911D01*
X144099068Y-93727271D01*
X144028586Y-93557111D01*
X143926262Y-93403972D01*
X143796028Y-93273738D01*
X143642889Y-93171414D01*
X143472729Y-93100932D01*
X143292089Y-93065000D01*
X143210000Y-93065000D01*
X143210000Y-92134721D01*
X143247430Y-91752982D01*
X143348211Y-91419181D01*
X143511907Y-91111313D01*
X143732284Y-90841104D01*
X144000952Y-90618843D01*
X144307663Y-90453005D01*
X144640753Y-90349896D01*
X145020341Y-90310000D01*
X161985478Y-90310000D01*
X162021822Y-90429811D01*
G37*
%TD.AperFunction*%
D24*
X80515000Y-112166579D02*
X80515001Y-114556521D01*
X80510719Y-114600000D01*
X80527805Y-114773490D01*
X80578412Y-114940313D01*
X80660590Y-115094059D01*
X80716060Y-115161650D01*
X80673738Y-115203972D01*
X80571414Y-115357111D01*
X80526724Y-115465002D01*
X76926465Y-115465002D01*
X76899068Y-115327271D01*
X76828586Y-115157111D01*
X76808995Y-115127791D01*
X76808995Y-115014802D01*
X80086110Y-111737688D01*
X80515000Y-112166579D01*
%TA.AperFunction,Conductor*%
D25*
G36*
X80515000Y-112166579D02*
G01*
X80515001Y-114556521D01*
X80510719Y-114600000D01*
X80527805Y-114773490D01*
X80578412Y-114940313D01*
X80660590Y-115094059D01*
X80716060Y-115161650D01*
X80673738Y-115203972D01*
X80571414Y-115357111D01*
X80526724Y-115465002D01*
X76926465Y-115465002D01*
X76899068Y-115327271D01*
X76828586Y-115157111D01*
X76808995Y-115127791D01*
X76808995Y-115014802D01*
X80086110Y-111737688D01*
X80515000Y-112166579D01*
G37*
%TD.AperFunction*%
D24*
X82356523Y-113485000D02*
X82356531Y-113485000D01*
X82400000Y-113489281D01*
X82443469Y-113485000D01*
X103510908Y-113485000D01*
X103130909Y-113865000D01*
X103107911Y-113865000D01*
X102927271Y-113900932D01*
X102757111Y-113971414D01*
X102603972Y-114073738D01*
X102473738Y-114203972D01*
X102371414Y-114357111D01*
X102300932Y-114527271D01*
X102265000Y-114707911D01*
X102265000Y-114892089D01*
X102291172Y-115023665D01*
X84641177Y-115023665D01*
X84620627Y-115006800D01*
X84497284Y-114940872D01*
X84448304Y-114926014D01*
X84396028Y-114873738D01*
X84242889Y-114771414D01*
X84072729Y-114700932D01*
X83892089Y-114665000D01*
X83707911Y-114665000D01*
X83527271Y-114700932D01*
X83357111Y-114771414D01*
X83203972Y-114873738D01*
X83073738Y-115003972D01*
X83066453Y-115014875D01*
X82285000Y-114233422D01*
X82285000Y-113477956D01*
X82356523Y-113485000D01*
%TA.AperFunction,Conductor*%
D25*
G36*
X82356523Y-113485000D02*
G01*
X82356531Y-113485000D01*
X82400000Y-113489281D01*
X82443469Y-113485000D01*
X103510908Y-113485000D01*
X103130909Y-113865000D01*
X103107911Y-113865000D01*
X102927271Y-113900932D01*
X102757111Y-113971414D01*
X102603972Y-114073738D01*
X102473738Y-114203972D01*
X102371414Y-114357111D01*
X102300932Y-114527271D01*
X102265000Y-114707911D01*
X102265000Y-114892089D01*
X102291172Y-115023665D01*
X84641177Y-115023665D01*
X84620627Y-115006800D01*
X84497284Y-114940872D01*
X84448304Y-114926014D01*
X84396028Y-114873738D01*
X84242889Y-114771414D01*
X84072729Y-114700932D01*
X83892089Y-114665000D01*
X83707911Y-114665000D01*
X83527271Y-114700932D01*
X83357111Y-114771414D01*
X83203972Y-114873738D01*
X83073738Y-115003972D01*
X83066453Y-115014875D01*
X82285000Y-114233422D01*
X82285000Y-113477956D01*
X82356523Y-113485000D01*
G37*
%TD.AperFunction*%
D24*
X142315001Y-100156521D02*
X142310719Y-100200000D01*
X142315001Y-100243477D01*
X142315000Y-103027419D01*
X138118153Y-107224266D01*
X138180917Y-107072740D01*
X138216849Y-106892100D01*
X138216849Y-106707922D01*
X138180917Y-106527282D01*
X138110435Y-106357122D01*
X138008111Y-106203983D01*
X137877877Y-106073749D01*
X137724738Y-105971425D01*
X137554578Y-105900943D01*
X137373938Y-105865011D01*
X137189760Y-105865011D01*
X137009120Y-105900943D01*
X136838960Y-105971425D01*
X136685821Y-106073749D01*
X136555587Y-106203983D01*
X136453263Y-106357122D01*
X136382781Y-106527282D01*
X136346849Y-106707922D01*
X136346849Y-106892100D01*
X136382781Y-107072740D01*
X136453263Y-107242900D01*
X136555587Y-107396039D01*
X136571849Y-107412301D01*
X136571849Y-107624059D01*
X136431577Y-107764331D01*
X136428586Y-107757111D01*
X136326262Y-107603972D01*
X136196028Y-107473738D01*
X136042889Y-107371414D01*
X135872729Y-107300932D01*
X135692089Y-107265000D01*
X135618160Y-107265000D01*
X135573021Y-107240873D01*
X135439185Y-107200274D01*
X135334878Y-107190001D01*
X135334876Y-107190001D01*
X135300001Y-107186566D01*
X135265126Y-107190001D01*
X122083870Y-107190001D01*
X122048995Y-107186566D01*
X122014120Y-107190001D01*
X122014118Y-107190001D01*
X121909811Y-107200274D01*
X121775975Y-107240873D01*
X121652632Y-107306801D01*
X121544520Y-107395526D01*
X121522279Y-107422627D01*
X121454906Y-107490000D01*
X120531437Y-107490000D01*
X120499068Y-107327271D01*
X120428586Y-107157111D01*
X120326262Y-107003972D01*
X120196028Y-106873738D01*
X120042889Y-106771414D01*
X119872729Y-106700932D01*
X119692089Y-106665000D01*
X119618160Y-106665000D01*
X119573021Y-106640873D01*
X119503840Y-106619887D01*
X127221644Y-106619887D01*
X127265113Y-106624168D01*
X127308582Y-106619887D01*
X127308590Y-106619887D01*
X127438603Y-106607082D01*
X127605426Y-106556476D01*
X127759172Y-106474298D01*
X127786321Y-106452017D01*
X127842889Y-106428586D01*
X127996028Y-106326262D01*
X128126262Y-106196028D01*
X128228586Y-106042889D01*
X128299068Y-105872729D01*
X128335000Y-105692089D01*
X128335000Y-105507911D01*
X128299068Y-105327271D01*
X128228586Y-105157111D01*
X128126262Y-105003972D01*
X127996028Y-104873738D01*
X127842889Y-104771414D01*
X127672729Y-104700932D01*
X127492089Y-104665000D01*
X127307911Y-104665000D01*
X127127271Y-104700932D01*
X126957111Y-104771414D01*
X126839668Y-104849887D01*
X110123458Y-104849887D01*
X110099068Y-104727271D01*
X110031943Y-104565216D01*
X110136295Y-104521992D01*
X110289434Y-104419668D01*
X110419668Y-104289434D01*
X110521992Y-104136295D01*
X110592474Y-103966135D01*
X110628406Y-103785495D01*
X110628406Y-103601317D01*
X110592474Y-103420677D01*
X110521992Y-103250517D01*
X110419668Y-103097378D01*
X110289434Y-102967144D01*
X110136295Y-102864820D01*
X109966135Y-102794338D01*
X109785495Y-102758406D01*
X109601317Y-102758406D01*
X109420677Y-102794338D01*
X109250517Y-102864820D01*
X109097378Y-102967144D01*
X108967144Y-103097378D01*
X108864820Y-103250517D01*
X108794338Y-103420677D01*
X108758406Y-103601317D01*
X108758406Y-103624315D01*
X108717711Y-103665010D01*
X105175517Y-103665010D01*
X105196028Y-103651305D01*
X105326262Y-103521071D01*
X105428586Y-103367932D01*
X105499068Y-103197772D01*
X105535000Y-103017132D01*
X105535000Y-102832954D01*
X105499068Y-102652314D01*
X105428586Y-102482154D01*
X105326262Y-102329015D01*
X105196028Y-102198781D01*
X105042889Y-102096457D01*
X104872729Y-102025975D01*
X104692089Y-101990043D01*
X104507911Y-101990043D01*
X104327271Y-102025975D01*
X104157111Y-102096457D01*
X104003972Y-102198781D01*
X103873738Y-102329015D01*
X103771414Y-102482154D01*
X103700932Y-102652314D01*
X103665000Y-102832954D01*
X103665000Y-102855952D01*
X103402014Y-103118938D01*
X102714749Y-103118938D01*
X102735000Y-103017132D01*
X102735000Y-102832954D01*
X102699068Y-102652314D01*
X102628586Y-102482154D01*
X102526262Y-102329015D01*
X102396028Y-102198781D01*
X102242889Y-102096457D01*
X102072729Y-102025975D01*
X101892089Y-101990043D01*
X101707911Y-101990043D01*
X101527271Y-102025975D01*
X101357111Y-102096457D01*
X101203972Y-102198781D01*
X101187710Y-102215043D01*
X100029774Y-102215043D01*
X100078865Y-102096526D01*
X100242889Y-102028586D01*
X100396028Y-101926262D01*
X100442418Y-101879872D01*
X135265000Y-101879872D01*
X135265000Y-102320128D01*
X135350890Y-102751925D01*
X135519369Y-103158669D01*
X135763962Y-103524729D01*
X136075271Y-103836038D01*
X136441331Y-104080631D01*
X136848075Y-104249110D01*
X137279872Y-104335000D01*
X137720128Y-104335000D01*
X138151925Y-104249110D01*
X138558669Y-104080631D01*
X138924729Y-103836038D01*
X139236038Y-103524729D01*
X139480631Y-103158669D01*
X139649110Y-102751925D01*
X139735000Y-102320128D01*
X139735000Y-101879872D01*
X139649110Y-101448075D01*
X139480631Y-101041331D01*
X139236038Y-100675271D01*
X138924729Y-100363962D01*
X138558669Y-100119369D01*
X138151925Y-99950890D01*
X137720128Y-99865000D01*
X137279872Y-99865000D01*
X136848075Y-99950890D01*
X136441331Y-100119369D01*
X136075271Y-100363962D01*
X135763962Y-100675271D01*
X135519369Y-101041331D01*
X135350890Y-101448075D01*
X135265000Y-101879872D01*
X100442418Y-101879872D01*
X100526262Y-101796028D01*
X100628586Y-101642889D01*
X100699068Y-101472729D01*
X100735000Y-101292089D01*
X100735000Y-101107911D01*
X100731054Y-101088072D01*
X101250000Y-101088072D01*
X101374482Y-101075812D01*
X101494180Y-101039502D01*
X101604494Y-100980537D01*
X101701185Y-100901185D01*
X101780537Y-100804494D01*
X101839502Y-100694180D01*
X101875812Y-100574482D01*
X101888072Y-100450000D01*
X101888072Y-98750000D01*
X101875812Y-98625518D01*
X101839502Y-98505820D01*
X101780537Y-98395506D01*
X101710364Y-98310000D01*
X118413210Y-98310000D01*
X118395506Y-98319463D01*
X118298815Y-98398815D01*
X118219463Y-98495506D01*
X118160498Y-98605820D01*
X118124188Y-98725518D01*
X118111928Y-98850000D01*
X118111928Y-100550000D01*
X118124188Y-100674482D01*
X118160498Y-100794180D01*
X118219463Y-100904494D01*
X118298815Y-101001185D01*
X118395506Y-101080537D01*
X118505820Y-101139502D01*
X118625518Y-101175812D01*
X118750000Y-101188072D01*
X120450000Y-101188072D01*
X120574482Y-101175812D01*
X120694180Y-101139502D01*
X120804494Y-101080537D01*
X120901185Y-101001185D01*
X120980537Y-100904494D01*
X121039502Y-100794180D01*
X121061513Y-100721620D01*
X121193368Y-100853475D01*
X121436589Y-101015990D01*
X121706842Y-101127932D01*
X121993740Y-101185000D01*
X122286260Y-101185000D01*
X122573158Y-101127932D01*
X122843411Y-101015990D01*
X123086632Y-100853475D01*
X123293475Y-100646632D01*
X123410000Y-100472240D01*
X123526525Y-100646632D01*
X123733368Y-100853475D01*
X123976589Y-101015990D01*
X124246842Y-101127932D01*
X124533740Y-101185000D01*
X124826260Y-101185000D01*
X125113158Y-101127932D01*
X125383411Y-101015990D01*
X125626632Y-100853475D01*
X125833475Y-100646632D01*
X125950000Y-100472240D01*
X126066525Y-100646632D01*
X126273368Y-100853475D01*
X126516589Y-101015990D01*
X126786842Y-101127932D01*
X127073740Y-101185000D01*
X127366260Y-101185000D01*
X127653158Y-101127932D01*
X127923411Y-101015990D01*
X128166632Y-100853475D01*
X128373475Y-100646632D01*
X128495195Y-100464466D01*
X128564822Y-100581355D01*
X128759731Y-100797588D01*
X128993080Y-100971641D01*
X129255901Y-101096825D01*
X129403110Y-101141476D01*
X129633000Y-101020155D01*
X129633000Y-99827000D01*
X129887000Y-99827000D01*
X129887000Y-101020155D01*
X130116890Y-101141476D01*
X130264099Y-101096825D01*
X130526920Y-100971641D01*
X130760269Y-100797588D01*
X130955178Y-100581355D01*
X131104157Y-100331252D01*
X131201481Y-100056891D01*
X131080814Y-99827000D01*
X129887000Y-99827000D01*
X129633000Y-99827000D01*
X129613000Y-99827000D01*
X129613000Y-99573000D01*
X129633000Y-99573000D01*
X129633000Y-99553000D01*
X129887000Y-99553000D01*
X129887000Y-99573000D01*
X131080814Y-99573000D01*
X131201481Y-99343109D01*
X131104157Y-99068748D01*
X130955178Y-98818645D01*
X130760269Y-98602412D01*
X130526920Y-98428359D01*
X130278428Y-98310000D01*
X140034877Y-98310000D01*
X140066266Y-98306909D01*
X140081802Y-98307017D01*
X140091668Y-98306050D01*
X140576910Y-98255049D01*
X140639935Y-98242111D01*
X140703157Y-98230051D01*
X140712647Y-98227186D01*
X141178741Y-98082906D01*
X141238032Y-98057982D01*
X141297730Y-98033863D01*
X141306477Y-98029211D01*
X141306481Y-98029209D01*
X141306484Y-98029207D01*
X141735675Y-97797144D01*
X141788975Y-97761193D01*
X141842870Y-97725925D01*
X141850552Y-97719659D01*
X142226498Y-97408651D01*
X142271836Y-97362995D01*
X142315001Y-97320725D01*
X142315001Y-100156521D01*
%TA.AperFunction,Conductor*%
D25*
G36*
X142315001Y-100156521D02*
G01*
X142310719Y-100200000D01*
X142315001Y-100243477D01*
X142315000Y-103027419D01*
X138118153Y-107224266D01*
X138180917Y-107072740D01*
X138216849Y-106892100D01*
X138216849Y-106707922D01*
X138180917Y-106527282D01*
X138110435Y-106357122D01*
X138008111Y-106203983D01*
X137877877Y-106073749D01*
X137724738Y-105971425D01*
X137554578Y-105900943D01*
X137373938Y-105865011D01*
X137189760Y-105865011D01*
X137009120Y-105900943D01*
X136838960Y-105971425D01*
X136685821Y-106073749D01*
X136555587Y-106203983D01*
X136453263Y-106357122D01*
X136382781Y-106527282D01*
X136346849Y-106707922D01*
X136346849Y-106892100D01*
X136382781Y-107072740D01*
X136453263Y-107242900D01*
X136555587Y-107396039D01*
X136571849Y-107412301D01*
X136571849Y-107624059D01*
X136431577Y-107764331D01*
X136428586Y-107757111D01*
X136326262Y-107603972D01*
X136196028Y-107473738D01*
X136042889Y-107371414D01*
X135872729Y-107300932D01*
X135692089Y-107265000D01*
X135618160Y-107265000D01*
X135573021Y-107240873D01*
X135439185Y-107200274D01*
X135334878Y-107190001D01*
X135334876Y-107190001D01*
X135300001Y-107186566D01*
X135265126Y-107190001D01*
X122083870Y-107190001D01*
X122048995Y-107186566D01*
X122014120Y-107190001D01*
X122014118Y-107190001D01*
X121909811Y-107200274D01*
X121775975Y-107240873D01*
X121652632Y-107306801D01*
X121544520Y-107395526D01*
X121522279Y-107422627D01*
X121454906Y-107490000D01*
X120531437Y-107490000D01*
X120499068Y-107327271D01*
X120428586Y-107157111D01*
X120326262Y-107003972D01*
X120196028Y-106873738D01*
X120042889Y-106771414D01*
X119872729Y-106700932D01*
X119692089Y-106665000D01*
X119618160Y-106665000D01*
X119573021Y-106640873D01*
X119503840Y-106619887D01*
X127221644Y-106619887D01*
X127265113Y-106624168D01*
X127308582Y-106619887D01*
X127308590Y-106619887D01*
X127438603Y-106607082D01*
X127605426Y-106556476D01*
X127759172Y-106474298D01*
X127786321Y-106452017D01*
X127842889Y-106428586D01*
X127996028Y-106326262D01*
X128126262Y-106196028D01*
X128228586Y-106042889D01*
X128299068Y-105872729D01*
X128335000Y-105692089D01*
X128335000Y-105507911D01*
X128299068Y-105327271D01*
X128228586Y-105157111D01*
X128126262Y-105003972D01*
X127996028Y-104873738D01*
X127842889Y-104771414D01*
X127672729Y-104700932D01*
X127492089Y-104665000D01*
X127307911Y-104665000D01*
X127127271Y-104700932D01*
X126957111Y-104771414D01*
X126839668Y-104849887D01*
X110123458Y-104849887D01*
X110099068Y-104727271D01*
X110031943Y-104565216D01*
X110136295Y-104521992D01*
X110289434Y-104419668D01*
X110419668Y-104289434D01*
X110521992Y-104136295D01*
X110592474Y-103966135D01*
X110628406Y-103785495D01*
X110628406Y-103601317D01*
X110592474Y-103420677D01*
X110521992Y-103250517D01*
X110419668Y-103097378D01*
X110289434Y-102967144D01*
X110136295Y-102864820D01*
X109966135Y-102794338D01*
X109785495Y-102758406D01*
X109601317Y-102758406D01*
X109420677Y-102794338D01*
X109250517Y-102864820D01*
X109097378Y-102967144D01*
X108967144Y-103097378D01*
X108864820Y-103250517D01*
X108794338Y-103420677D01*
X108758406Y-103601317D01*
X108758406Y-103624315D01*
X108717711Y-103665010D01*
X105175517Y-103665010D01*
X105196028Y-103651305D01*
X105326262Y-103521071D01*
X105428586Y-103367932D01*
X105499068Y-103197772D01*
X105535000Y-103017132D01*
X105535000Y-102832954D01*
X105499068Y-102652314D01*
X105428586Y-102482154D01*
X105326262Y-102329015D01*
X105196028Y-102198781D01*
X105042889Y-102096457D01*
X104872729Y-102025975D01*
X104692089Y-101990043D01*
X104507911Y-101990043D01*
X104327271Y-102025975D01*
X104157111Y-102096457D01*
X104003972Y-102198781D01*
X103873738Y-102329015D01*
X103771414Y-102482154D01*
X103700932Y-102652314D01*
X103665000Y-102832954D01*
X103665000Y-102855952D01*
X103402014Y-103118938D01*
X102714749Y-103118938D01*
X102735000Y-103017132D01*
X102735000Y-102832954D01*
X102699068Y-102652314D01*
X102628586Y-102482154D01*
X102526262Y-102329015D01*
X102396028Y-102198781D01*
X102242889Y-102096457D01*
X102072729Y-102025975D01*
X101892089Y-101990043D01*
X101707911Y-101990043D01*
X101527271Y-102025975D01*
X101357111Y-102096457D01*
X101203972Y-102198781D01*
X101187710Y-102215043D01*
X100029774Y-102215043D01*
X100078865Y-102096526D01*
X100242889Y-102028586D01*
X100396028Y-101926262D01*
X100442418Y-101879872D01*
X135265000Y-101879872D01*
X135265000Y-102320128D01*
X135350890Y-102751925D01*
X135519369Y-103158669D01*
X135763962Y-103524729D01*
X136075271Y-103836038D01*
X136441331Y-104080631D01*
X136848075Y-104249110D01*
X137279872Y-104335000D01*
X137720128Y-104335000D01*
X138151925Y-104249110D01*
X138558669Y-104080631D01*
X138924729Y-103836038D01*
X139236038Y-103524729D01*
X139480631Y-103158669D01*
X139649110Y-102751925D01*
X139735000Y-102320128D01*
X139735000Y-101879872D01*
X139649110Y-101448075D01*
X139480631Y-101041331D01*
X139236038Y-100675271D01*
X138924729Y-100363962D01*
X138558669Y-100119369D01*
X138151925Y-99950890D01*
X137720128Y-99865000D01*
X137279872Y-99865000D01*
X136848075Y-99950890D01*
X136441331Y-100119369D01*
X136075271Y-100363962D01*
X135763962Y-100675271D01*
X135519369Y-101041331D01*
X135350890Y-101448075D01*
X135265000Y-101879872D01*
X100442418Y-101879872D01*
X100526262Y-101796028D01*
X100628586Y-101642889D01*
X100699068Y-101472729D01*
X100735000Y-101292089D01*
X100735000Y-101107911D01*
X100731054Y-101088072D01*
X101250000Y-101088072D01*
X101374482Y-101075812D01*
X101494180Y-101039502D01*
X101604494Y-100980537D01*
X101701185Y-100901185D01*
X101780537Y-100804494D01*
X101839502Y-100694180D01*
X101875812Y-100574482D01*
X101888072Y-100450000D01*
X101888072Y-98750000D01*
X101875812Y-98625518D01*
X101839502Y-98505820D01*
X101780537Y-98395506D01*
X101710364Y-98310000D01*
X118413210Y-98310000D01*
X118395506Y-98319463D01*
X118298815Y-98398815D01*
X118219463Y-98495506D01*
X118160498Y-98605820D01*
X118124188Y-98725518D01*
X118111928Y-98850000D01*
X118111928Y-100550000D01*
X118124188Y-100674482D01*
X118160498Y-100794180D01*
X118219463Y-100904494D01*
X118298815Y-101001185D01*
X118395506Y-101080537D01*
X118505820Y-101139502D01*
X118625518Y-101175812D01*
X118750000Y-101188072D01*
X120450000Y-101188072D01*
X120574482Y-101175812D01*
X120694180Y-101139502D01*
X120804494Y-101080537D01*
X120901185Y-101001185D01*
X120980537Y-100904494D01*
X121039502Y-100794180D01*
X121061513Y-100721620D01*
X121193368Y-100853475D01*
X121436589Y-101015990D01*
X121706842Y-101127932D01*
X121993740Y-101185000D01*
X122286260Y-101185000D01*
X122573158Y-101127932D01*
X122843411Y-101015990D01*
X123086632Y-100853475D01*
X123293475Y-100646632D01*
X123410000Y-100472240D01*
X123526525Y-100646632D01*
X123733368Y-100853475D01*
X123976589Y-101015990D01*
X124246842Y-101127932D01*
X124533740Y-101185000D01*
X124826260Y-101185000D01*
X125113158Y-101127932D01*
X125383411Y-101015990D01*
X125626632Y-100853475D01*
X125833475Y-100646632D01*
X125950000Y-100472240D01*
X126066525Y-100646632D01*
X126273368Y-100853475D01*
X126516589Y-101015990D01*
X126786842Y-101127932D01*
X127073740Y-101185000D01*
X127366260Y-101185000D01*
X127653158Y-101127932D01*
X127923411Y-101015990D01*
X128166632Y-100853475D01*
X128373475Y-100646632D01*
X128495195Y-100464466D01*
X128564822Y-100581355D01*
X128759731Y-100797588D01*
X128993080Y-100971641D01*
X129255901Y-101096825D01*
X129403110Y-101141476D01*
X129633000Y-101020155D01*
X129633000Y-99827000D01*
X129887000Y-99827000D01*
X129887000Y-101020155D01*
X130116890Y-101141476D01*
X130264099Y-101096825D01*
X130526920Y-100971641D01*
X130760269Y-100797588D01*
X130955178Y-100581355D01*
X131104157Y-100331252D01*
X131201481Y-100056891D01*
X131080814Y-99827000D01*
X129887000Y-99827000D01*
X129633000Y-99827000D01*
X129613000Y-99827000D01*
X129613000Y-99573000D01*
X129633000Y-99573000D01*
X129633000Y-99553000D01*
X129887000Y-99553000D01*
X129887000Y-99573000D01*
X131080814Y-99573000D01*
X131201481Y-99343109D01*
X131104157Y-99068748D01*
X130955178Y-98818645D01*
X130760269Y-98602412D01*
X130526920Y-98428359D01*
X130278428Y-98310000D01*
X140034877Y-98310000D01*
X140066266Y-98306909D01*
X140081802Y-98307017D01*
X140091668Y-98306050D01*
X140576910Y-98255049D01*
X140639935Y-98242111D01*
X140703157Y-98230051D01*
X140712647Y-98227186D01*
X141178741Y-98082906D01*
X141238032Y-98057982D01*
X141297730Y-98033863D01*
X141306477Y-98029211D01*
X141306481Y-98029209D01*
X141306484Y-98029207D01*
X141735675Y-97797144D01*
X141788975Y-97761193D01*
X141842870Y-97725925D01*
X141850552Y-97719659D01*
X142226498Y-97408651D01*
X142271836Y-97362995D01*
X142315001Y-97320725D01*
X142315001Y-100156521D01*
G37*
%TD.AperFunction*%
D24*
X97987000Y-99473000D02*
X98007000Y-99473000D01*
X98007000Y-99727000D01*
X97987000Y-99727000D01*
X97987000Y-99747000D01*
X97733000Y-99747000D01*
X97733000Y-99727000D01*
X97713000Y-99727000D01*
X97713000Y-99473000D01*
X97733000Y-99473000D01*
X97733000Y-99453000D01*
X97987000Y-99453000D01*
X97987000Y-99473000D01*
%TA.AperFunction,Conductor*%
D25*
G36*
X97987000Y-99473000D02*
G01*
X98007000Y-99473000D01*
X98007000Y-99727000D01*
X97987000Y-99727000D01*
X97987000Y-99747000D01*
X97733000Y-99747000D01*
X97733000Y-99727000D01*
X97713000Y-99727000D01*
X97713000Y-99473000D01*
X97733000Y-99473000D01*
X97733000Y-99453000D01*
X97987000Y-99453000D01*
X97987000Y-99473000D01*
G37*
%TD.AperFunction*%
%TD*%
M02*
