G04 #@! TF.GenerationSoftware,KiCad,Pcbnew,7.0.1-3b83917a11~172~ubuntu22.04.1*
G04 #@! TF.CreationDate,2023-04-04T17:43:52-06:00*
G04 #@! TF.ProjectId,controller,636f6e74-726f-46c6-9c65-722e6b696361,rev?*
G04 #@! TF.SameCoordinates,Original*
G04 #@! TF.FileFunction,Legend,Bot*
G04 #@! TF.FilePolarity,Positive*
%FSLAX46Y46*%
G04 Gerber Fmt 4.6, Leading zero omitted, Abs format (unit mm)*
G04 Created by KiCad (PCBNEW 7.0.1-3b83917a11~172~ubuntu22.04.1) date 2023-04-04 17:43:52*
%MOMM*%
%LPD*%
G01*
G04 APERTURE LIST*
%ADD10C,0.150000*%
%ADD11C,0.120000*%
%ADD12C,0.127000*%
%ADD13C,0.300000*%
%ADD14C,3.200000*%
%ADD15R,1.700000X1.700000*%
%ADD16O,1.700000X1.700000*%
%ADD17C,1.308000*%
%ADD18C,2.250000*%
%ADD19C,1.800000*%
%ADD20C,1.408000*%
%ADD21R,1.000000X1.000000*%
%ADD22C,1.000000*%
%ADD23C,1.600000*%
%ADD24C,2.200000*%
%ADD25R,1.378000X1.378000*%
%ADD26C,1.378000*%
G04 APERTURE END LIST*
D10*
X124838095Y-101410238D02*
X124933333Y-101362619D01*
X124933333Y-101362619D02*
X125076190Y-101362619D01*
X125076190Y-101362619D02*
X125219047Y-101410238D01*
X125219047Y-101410238D02*
X125314285Y-101505476D01*
X125314285Y-101505476D02*
X125361904Y-101600714D01*
X125361904Y-101600714D02*
X125409523Y-101791190D01*
X125409523Y-101791190D02*
X125409523Y-101934047D01*
X125409523Y-101934047D02*
X125361904Y-102124523D01*
X125361904Y-102124523D02*
X125314285Y-102219761D01*
X125314285Y-102219761D02*
X125219047Y-102315000D01*
X125219047Y-102315000D02*
X125076190Y-102362619D01*
X125076190Y-102362619D02*
X124980952Y-102362619D01*
X124980952Y-102362619D02*
X124838095Y-102315000D01*
X124838095Y-102315000D02*
X124790476Y-102267380D01*
X124790476Y-102267380D02*
X124790476Y-101934047D01*
X124790476Y-101934047D02*
X124980952Y-101934047D01*
X43009524Y-106618333D02*
X43771429Y-106618333D01*
X43390476Y-106237380D02*
X43390476Y-106999285D01*
X44580952Y-106761190D02*
X44723809Y-106713571D01*
X44723809Y-106713571D02*
X44771428Y-106665952D01*
X44771428Y-106665952D02*
X44819047Y-106570714D01*
X44819047Y-106570714D02*
X44819047Y-106427857D01*
X44819047Y-106427857D02*
X44771428Y-106332619D01*
X44771428Y-106332619D02*
X44723809Y-106285000D01*
X44723809Y-106285000D02*
X44628571Y-106237380D01*
X44628571Y-106237380D02*
X44247619Y-106237380D01*
X44247619Y-106237380D02*
X44247619Y-107237380D01*
X44247619Y-107237380D02*
X44580952Y-107237380D01*
X44580952Y-107237380D02*
X44676190Y-107189761D01*
X44676190Y-107189761D02*
X44723809Y-107142142D01*
X44723809Y-107142142D02*
X44771428Y-107046904D01*
X44771428Y-107046904D02*
X44771428Y-106951666D01*
X44771428Y-106951666D02*
X44723809Y-106856428D01*
X44723809Y-106856428D02*
X44676190Y-106808809D01*
X44676190Y-106808809D02*
X44580952Y-106761190D01*
X44580952Y-106761190D02*
X44247619Y-106761190D01*
X45200000Y-106523095D02*
X45676190Y-106523095D01*
X45104762Y-106237380D02*
X45438095Y-107237380D01*
X45438095Y-107237380D02*
X45771428Y-106237380D01*
X45961905Y-107237380D02*
X46533333Y-107237380D01*
X46247619Y-106237380D02*
X46247619Y-107237380D01*
X45661904Y-108810238D02*
X45757142Y-108762619D01*
X45757142Y-108762619D02*
X45899999Y-108762619D01*
X45899999Y-108762619D02*
X46042856Y-108810238D01*
X46042856Y-108810238D02*
X46138094Y-108905476D01*
X46138094Y-108905476D02*
X46185713Y-109000714D01*
X46185713Y-109000714D02*
X46233332Y-109191190D01*
X46233332Y-109191190D02*
X46233332Y-109334047D01*
X46233332Y-109334047D02*
X46185713Y-109524523D01*
X46185713Y-109524523D02*
X46138094Y-109619761D01*
X46138094Y-109619761D02*
X46042856Y-109715000D01*
X46042856Y-109715000D02*
X45899999Y-109762619D01*
X45899999Y-109762619D02*
X45804761Y-109762619D01*
X45804761Y-109762619D02*
X45661904Y-109715000D01*
X45661904Y-109715000D02*
X45614285Y-109667380D01*
X45614285Y-109667380D02*
X45614285Y-109334047D01*
X45614285Y-109334047D02*
X45804761Y-109334047D01*
X45185713Y-109762619D02*
X45185713Y-108762619D01*
X45185713Y-108762619D02*
X44614285Y-109762619D01*
X44614285Y-109762619D02*
X44614285Y-108762619D01*
X44138094Y-109762619D02*
X44138094Y-108762619D01*
X44138094Y-108762619D02*
X43899999Y-108762619D01*
X43899999Y-108762619D02*
X43757142Y-108810238D01*
X43757142Y-108810238D02*
X43661904Y-108905476D01*
X43661904Y-108905476D02*
X43614285Y-109000714D01*
X43614285Y-109000714D02*
X43566666Y-109191190D01*
X43566666Y-109191190D02*
X43566666Y-109334047D01*
X43566666Y-109334047D02*
X43614285Y-109524523D01*
X43614285Y-109524523D02*
X43661904Y-109619761D01*
X43661904Y-109619761D02*
X43757142Y-109715000D01*
X43757142Y-109715000D02*
X43899999Y-109762619D01*
X43899999Y-109762619D02*
X44138094Y-109762619D01*
X30619048Y-109318333D02*
X31380953Y-109318333D01*
X38161904Y-148396666D02*
X37400000Y-148396666D01*
X37780952Y-148777619D02*
X37780952Y-148015714D01*
X122691904Y-105490476D02*
X122691904Y-105966666D01*
X122977619Y-105395238D02*
X121977619Y-105728571D01*
X121977619Y-105728571D02*
X122977619Y-106061904D01*
X121977619Y-106585714D02*
X121977619Y-106680952D01*
X121977619Y-106680952D02*
X122025238Y-106776190D01*
X122025238Y-106776190D02*
X122072857Y-106823809D01*
X122072857Y-106823809D02*
X122168095Y-106871428D01*
X122168095Y-106871428D02*
X122358571Y-106919047D01*
X122358571Y-106919047D02*
X122596666Y-106919047D01*
X122596666Y-106919047D02*
X122787142Y-106871428D01*
X122787142Y-106871428D02*
X122882380Y-106823809D01*
X122882380Y-106823809D02*
X122930000Y-106776190D01*
X122930000Y-106776190D02*
X122977619Y-106680952D01*
X122977619Y-106680952D02*
X122977619Y-106585714D01*
X122977619Y-106585714D02*
X122930000Y-106490476D01*
X122930000Y-106490476D02*
X122882380Y-106442857D01*
X122882380Y-106442857D02*
X122787142Y-106395238D01*
X122787142Y-106395238D02*
X122596666Y-106347619D01*
X122596666Y-106347619D02*
X122358571Y-106347619D01*
X122358571Y-106347619D02*
X122168095Y-106395238D01*
X122168095Y-106395238D02*
X122072857Y-106442857D01*
X122072857Y-106442857D02*
X122025238Y-106490476D01*
X122025238Y-106490476D02*
X121977619Y-106585714D01*
X131538094Y-99462619D02*
X130919047Y-99462619D01*
X130919047Y-99462619D02*
X131252380Y-99843571D01*
X131252380Y-99843571D02*
X131109523Y-99843571D01*
X131109523Y-99843571D02*
X131014285Y-99891190D01*
X131014285Y-99891190D02*
X130966666Y-99938809D01*
X130966666Y-99938809D02*
X130919047Y-100034047D01*
X130919047Y-100034047D02*
X130919047Y-100272142D01*
X130919047Y-100272142D02*
X130966666Y-100367380D01*
X130966666Y-100367380D02*
X131014285Y-100415000D01*
X131014285Y-100415000D02*
X131109523Y-100462619D01*
X131109523Y-100462619D02*
X131395237Y-100462619D01*
X131395237Y-100462619D02*
X131490475Y-100415000D01*
X131490475Y-100415000D02*
X131538094Y-100367380D01*
X130633332Y-99462619D02*
X130299999Y-100462619D01*
X130299999Y-100462619D02*
X129966666Y-99462619D01*
X129728570Y-99462619D02*
X129109523Y-99462619D01*
X129109523Y-99462619D02*
X129442856Y-99843571D01*
X129442856Y-99843571D02*
X129299999Y-99843571D01*
X129299999Y-99843571D02*
X129204761Y-99891190D01*
X129204761Y-99891190D02*
X129157142Y-99938809D01*
X129157142Y-99938809D02*
X129109523Y-100034047D01*
X129109523Y-100034047D02*
X129109523Y-100272142D01*
X129109523Y-100272142D02*
X129157142Y-100367380D01*
X129157142Y-100367380D02*
X129204761Y-100415000D01*
X129204761Y-100415000D02*
X129299999Y-100462619D01*
X129299999Y-100462619D02*
X129585713Y-100462619D01*
X129585713Y-100462619D02*
X129680951Y-100415000D01*
X129680951Y-100415000D02*
X129728570Y-100367380D01*
X123023808Y-102362619D02*
X123023808Y-101362619D01*
X122357142Y-101362619D02*
X122166666Y-101362619D01*
X122166666Y-101362619D02*
X122071428Y-101410238D01*
X122071428Y-101410238D02*
X121976190Y-101505476D01*
X121976190Y-101505476D02*
X121928571Y-101695952D01*
X121928571Y-101695952D02*
X121928571Y-102029285D01*
X121928571Y-102029285D02*
X121976190Y-102219761D01*
X121976190Y-102219761D02*
X122071428Y-102315000D01*
X122071428Y-102315000D02*
X122166666Y-102362619D01*
X122166666Y-102362619D02*
X122357142Y-102362619D01*
X122357142Y-102362619D02*
X122452380Y-102315000D01*
X122452380Y-102315000D02*
X122547618Y-102219761D01*
X122547618Y-102219761D02*
X122595237Y-102029285D01*
X122595237Y-102029285D02*
X122595237Y-101695952D01*
X122595237Y-101695952D02*
X122547618Y-101505476D01*
X122547618Y-101505476D02*
X122452380Y-101410238D01*
X122452380Y-101410238D02*
X122357142Y-101362619D01*
X129725238Y-105961904D02*
X129677619Y-105866666D01*
X129677619Y-105866666D02*
X129677619Y-105723809D01*
X129677619Y-105723809D02*
X129725238Y-105580952D01*
X129725238Y-105580952D02*
X129820476Y-105485714D01*
X129820476Y-105485714D02*
X129915714Y-105438095D01*
X129915714Y-105438095D02*
X130106190Y-105390476D01*
X130106190Y-105390476D02*
X130249047Y-105390476D01*
X130249047Y-105390476D02*
X130439523Y-105438095D01*
X130439523Y-105438095D02*
X130534761Y-105485714D01*
X130534761Y-105485714D02*
X130630000Y-105580952D01*
X130630000Y-105580952D02*
X130677619Y-105723809D01*
X130677619Y-105723809D02*
X130677619Y-105819047D01*
X130677619Y-105819047D02*
X130630000Y-105961904D01*
X130630000Y-105961904D02*
X130582380Y-106009523D01*
X130582380Y-106009523D02*
X130249047Y-106009523D01*
X130249047Y-106009523D02*
X130249047Y-105819047D01*
X117795238Y-100167380D02*
X117842857Y-100215000D01*
X117842857Y-100215000D02*
X117985714Y-100262619D01*
X117985714Y-100262619D02*
X118080952Y-100262619D01*
X118080952Y-100262619D02*
X118223809Y-100215000D01*
X118223809Y-100215000D02*
X118319047Y-100119761D01*
X118319047Y-100119761D02*
X118366666Y-100024523D01*
X118366666Y-100024523D02*
X118414285Y-99834047D01*
X118414285Y-99834047D02*
X118414285Y-99691190D01*
X118414285Y-99691190D02*
X118366666Y-99500714D01*
X118366666Y-99500714D02*
X118319047Y-99405476D01*
X118319047Y-99405476D02*
X118223809Y-99310238D01*
X118223809Y-99310238D02*
X118080952Y-99262619D01*
X118080952Y-99262619D02*
X117985714Y-99262619D01*
X117985714Y-99262619D02*
X117842857Y-99310238D01*
X117842857Y-99310238D02*
X117795238Y-99357857D01*
X116890476Y-100262619D02*
X117366666Y-100262619D01*
X117366666Y-100262619D02*
X117366666Y-99262619D01*
X116557142Y-100262619D02*
X116557142Y-99262619D01*
X115985714Y-100262619D02*
X116414285Y-99691190D01*
X115985714Y-99262619D02*
X116557142Y-99834047D01*
X119991904Y-105490476D02*
X119991904Y-105966666D01*
X120277619Y-105395238D02*
X119277619Y-105728571D01*
X119277619Y-105728571D02*
X120277619Y-106061904D01*
X120277619Y-106919047D02*
X120277619Y-106347619D01*
X120277619Y-106633333D02*
X119277619Y-106633333D01*
X119277619Y-106633333D02*
X119420476Y-106538095D01*
X119420476Y-106538095D02*
X119515714Y-106442857D01*
X119515714Y-106442857D02*
X119563333Y-106347619D01*
X125246190Y-107228571D02*
X125198571Y-107085714D01*
X125198571Y-107085714D02*
X125150952Y-107038095D01*
X125150952Y-107038095D02*
X125055714Y-106990476D01*
X125055714Y-106990476D02*
X124912857Y-106990476D01*
X124912857Y-106990476D02*
X124817619Y-107038095D01*
X124817619Y-107038095D02*
X124770000Y-107085714D01*
X124770000Y-107085714D02*
X124722380Y-107180952D01*
X124722380Y-107180952D02*
X124722380Y-107561904D01*
X124722380Y-107561904D02*
X125722380Y-107561904D01*
X125722380Y-107561904D02*
X125722380Y-107228571D01*
X125722380Y-107228571D02*
X125674761Y-107133333D01*
X125674761Y-107133333D02*
X125627142Y-107085714D01*
X125627142Y-107085714D02*
X125531904Y-107038095D01*
X125531904Y-107038095D02*
X125436666Y-107038095D01*
X125436666Y-107038095D02*
X125341428Y-107085714D01*
X125341428Y-107085714D02*
X125293809Y-107133333D01*
X125293809Y-107133333D02*
X125246190Y-107228571D01*
X125246190Y-107228571D02*
X125246190Y-107561904D01*
X125008095Y-106609523D02*
X125008095Y-106133333D01*
X124722380Y-106704761D02*
X125722380Y-106371428D01*
X125722380Y-106371428D02*
X124722380Y-106038095D01*
X125722380Y-105847618D02*
X125722380Y-105276190D01*
X124722380Y-105561904D02*
X125722380Y-105561904D01*
X35985714Y-148777619D02*
X36461904Y-148777619D01*
X36461904Y-148777619D02*
X36461904Y-147777619D01*
X35652380Y-148253809D02*
X35319047Y-148253809D01*
X35176190Y-148777619D02*
X35652380Y-148777619D01*
X35652380Y-148777619D02*
X35652380Y-147777619D01*
X35652380Y-147777619D02*
X35176190Y-147777619D01*
X34747618Y-148777619D02*
X34747618Y-147777619D01*
X34747618Y-147777619D02*
X34509523Y-147777619D01*
X34509523Y-147777619D02*
X34366666Y-147825238D01*
X34366666Y-147825238D02*
X34271428Y-147920476D01*
X34271428Y-147920476D02*
X34223809Y-148015714D01*
X34223809Y-148015714D02*
X34176190Y-148206190D01*
X34176190Y-148206190D02*
X34176190Y-148349047D01*
X34176190Y-148349047D02*
X34223809Y-148539523D01*
X34223809Y-148539523D02*
X34271428Y-148634761D01*
X34271428Y-148634761D02*
X34366666Y-148730000D01*
X34366666Y-148730000D02*
X34509523Y-148777619D01*
X34509523Y-148777619D02*
X34747618Y-148777619D01*
X127177619Y-105342857D02*
X127177619Y-105961904D01*
X127177619Y-105961904D02*
X127558571Y-105628571D01*
X127558571Y-105628571D02*
X127558571Y-105771428D01*
X127558571Y-105771428D02*
X127606190Y-105866666D01*
X127606190Y-105866666D02*
X127653809Y-105914285D01*
X127653809Y-105914285D02*
X127749047Y-105961904D01*
X127749047Y-105961904D02*
X127987142Y-105961904D01*
X127987142Y-105961904D02*
X128082380Y-105914285D01*
X128082380Y-105914285D02*
X128130000Y-105866666D01*
X128130000Y-105866666D02*
X128177619Y-105771428D01*
X128177619Y-105771428D02*
X128177619Y-105485714D01*
X128177619Y-105485714D02*
X128130000Y-105390476D01*
X128130000Y-105390476D02*
X128082380Y-105342857D01*
X127177619Y-106247619D02*
X128177619Y-106580952D01*
X128177619Y-106580952D02*
X127177619Y-106914285D01*
X127177619Y-107152381D02*
X127177619Y-107771428D01*
X127177619Y-107771428D02*
X127558571Y-107438095D01*
X127558571Y-107438095D02*
X127558571Y-107580952D01*
X127558571Y-107580952D02*
X127606190Y-107676190D01*
X127606190Y-107676190D02*
X127653809Y-107723809D01*
X127653809Y-107723809D02*
X127749047Y-107771428D01*
X127749047Y-107771428D02*
X127987142Y-107771428D01*
X127987142Y-107771428D02*
X128082380Y-107723809D01*
X128082380Y-107723809D02*
X128130000Y-107676190D01*
X128130000Y-107676190D02*
X128177619Y-107580952D01*
X128177619Y-107580952D02*
X128177619Y-107295238D01*
X128177619Y-107295238D02*
X128130000Y-107200000D01*
X128130000Y-107200000D02*
X128082380Y-107152381D01*
X33161904Y-148396666D02*
X32400000Y-148396666D01*
G04 #@! TO.C,SW1*
X34619048Y-118681666D02*
X35380953Y-118681666D01*
X35000000Y-119062619D02*
X35000000Y-118300714D01*
X34619048Y-121381666D02*
X35380953Y-121381666D01*
G04 #@! TO.C,SW2*
X34619048Y-128681666D02*
X35380953Y-128681666D01*
X35000000Y-129062619D02*
X35000000Y-128300714D01*
X34619048Y-131381666D02*
X35380953Y-131381666D01*
G04 #@! TO.C,SW3*
X34619048Y-138681666D02*
X35380953Y-138681666D01*
X35000000Y-139062619D02*
X35000000Y-138300714D01*
X34619048Y-141381666D02*
X35380953Y-141381666D01*
G04 #@! TO.C,SW4*
X174619048Y-121381666D02*
X175380953Y-121381666D01*
X174619048Y-118681666D02*
X175380953Y-118681666D01*
X175000000Y-119062619D02*
X175000000Y-118300714D01*
G04 #@! TO.C,SW5*
X174619048Y-131381666D02*
X175380953Y-131381666D01*
X174619048Y-128681666D02*
X175380953Y-128681666D01*
X175000000Y-129062619D02*
X175000000Y-128300714D01*
G04 #@! TO.C,SW6*
X174619048Y-141381666D02*
X175380953Y-141381666D01*
X174619048Y-138681666D02*
X175380953Y-138681666D01*
X175000000Y-139062619D02*
X175000000Y-138300714D01*
G04 #@! TO.C,SW7*
X166619048Y-154231666D02*
X167380953Y-154231666D01*
X166619048Y-151531666D02*
X167380953Y-151531666D01*
X167000000Y-151912619D02*
X167000000Y-151150714D01*
G04 #@! TO.C,SW8*
X156619048Y-154231666D02*
X157380953Y-154231666D01*
X156619048Y-151531666D02*
X157380953Y-151531666D01*
X157000000Y-151912619D02*
X157000000Y-151150714D01*
G04 #@! TO.C,SW9*
X146619048Y-151531666D02*
X147380953Y-151531666D01*
X147000000Y-151912619D02*
X147000000Y-151150714D01*
X146619048Y-154231666D02*
X147380953Y-154231666D01*
G04 #@! TO.C,J6*
X30903333Y-103136904D02*
X30903333Y-102375000D01*
X31003333Y-107161904D02*
X31003333Y-106400000D01*
X30622380Y-106780952D02*
X31384285Y-106780952D01*
X30903333Y-101936904D02*
X30903333Y-101175000D01*
X30522380Y-101555952D02*
X31284285Y-101555952D01*
D11*
G04 #@! TO.C,J2*
X31355000Y-111825000D02*
X31355000Y-113095000D01*
X31355000Y-113095000D02*
X32625000Y-113095000D01*
X33667929Y-106365000D02*
X34065000Y-106365000D01*
X33667929Y-107125000D02*
X34065000Y-107125000D01*
X33667929Y-108905000D02*
X34065000Y-108905000D01*
X33667929Y-109665000D02*
X34065000Y-109665000D01*
X33735000Y-111445000D02*
X34065000Y-111445000D01*
X33735000Y-112205000D02*
X34065000Y-112205000D01*
X34065000Y-105415000D02*
X36725000Y-105415000D01*
X34065000Y-108015000D02*
X36725000Y-108015000D01*
X34065000Y-110555000D02*
X36725000Y-110555000D01*
X34065000Y-113155000D02*
X34065000Y-105415000D01*
X36725000Y-105415000D02*
X36725000Y-113155000D01*
X36725000Y-107125000D02*
X42725000Y-107125000D01*
X36725000Y-109665000D02*
X42725000Y-109665000D01*
X36725000Y-111545000D02*
X42725000Y-111545000D01*
X36725000Y-111665000D02*
X42725000Y-111665000D01*
X36725000Y-111785000D02*
X42725000Y-111785000D01*
X36725000Y-111905000D02*
X42725000Y-111905000D01*
X36725000Y-112025000D02*
X42725000Y-112025000D01*
X36725000Y-112145000D02*
X42725000Y-112145000D01*
X36725000Y-112205000D02*
X42725000Y-112205000D01*
X36725000Y-113155000D02*
X34065000Y-113155000D01*
X42725000Y-106365000D02*
X36725000Y-106365000D01*
X42725000Y-107125000D02*
X42725000Y-106365000D01*
X42725000Y-108905000D02*
X36725000Y-108905000D01*
X42725000Y-109665000D02*
X42725000Y-108905000D01*
X42725000Y-111445000D02*
X36725000Y-111445000D01*
X42725000Y-112205000D02*
X42725000Y-111445000D01*
G04 #@! TO.C,J5*
X39130000Y-144770000D02*
X39130000Y-147430000D01*
X33990000Y-144770000D02*
X39130000Y-144770000D01*
X33990000Y-144770000D02*
X33990000Y-147430000D01*
X32720000Y-144770000D02*
X31390000Y-144770000D01*
X31390000Y-144770000D02*
X31390000Y-146100000D01*
X33990000Y-147430000D02*
X39130000Y-147430000D01*
G04 #@! TO.C,J6*
X36600000Y-104675000D02*
X31600000Y-104675000D01*
X31600000Y-104675000D02*
X31600000Y-99675000D01*
X31600000Y-99675000D02*
X36600000Y-99675000D01*
X36600000Y-99675000D02*
X36600000Y-104675000D01*
D10*
G04 #@! TO.C,SW11*
X55400000Y-89642500D02*
X55400000Y-89042500D01*
X57400000Y-89642500D02*
X57400000Y-89042500D01*
X51100000Y-94442500D02*
X61700000Y-94442500D01*
X61700000Y-94442500D02*
X61700000Y-89642500D01*
X61700000Y-89642500D02*
X51100000Y-89642500D01*
X51100000Y-89642500D02*
X51100000Y-94442500D01*
D12*
G04 #@! TO.C,MK1*
X115450000Y-103000000D02*
G75*
G03*
X115450000Y-103000000I-4850000J0D01*
G01*
D13*
X116143000Y-101259000D02*
G75*
G03*
X116143000Y-101259000I-100000J0D01*
G01*
G04 #@! TD*
%LPC*%
D14*
G04 #@! TO.C,H1*
X34400000Y-93500000D03*
G04 #@! TD*
G04 #@! TO.C,H2*
X137500000Y-102100000D03*
G04 #@! TD*
G04 #@! TO.C,H3*
X176000000Y-153100000D03*
G04 #@! TD*
G04 #@! TO.C,H4*
X34900000Y-153100000D03*
G04 #@! TD*
D15*
G04 #@! TO.C,J1*
X130160000Y-103800000D03*
D16*
X127620000Y-103800000D03*
X125080000Y-103800000D03*
X122540000Y-103800000D03*
X120000000Y-103800000D03*
G04 #@! TD*
D15*
G04 #@! TO.C,J3*
X127600000Y-99900000D03*
D16*
X125060000Y-99900000D03*
X122520000Y-99900000D03*
X119980000Y-99900000D03*
G04 #@! TD*
D17*
G04 #@! TO.C,S1*
X49800000Y-152850000D03*
X53800000Y-152850000D03*
X55800000Y-152850000D03*
X57800000Y-152850000D03*
D18*
X47700000Y-152850000D03*
X59900000Y-152850000D03*
G04 #@! TD*
D19*
G04 #@! TO.C,SW1*
X38250000Y-117750000D03*
X38250000Y-122250000D03*
X31750000Y-117750000D03*
X31750000Y-122250000D03*
X35000000Y-117100000D03*
X35000000Y-122900000D03*
G04 #@! TD*
G04 #@! TO.C,SW2*
X38250000Y-127750000D03*
X38250000Y-132250000D03*
X31750000Y-127750000D03*
X31750000Y-132250000D03*
X35000000Y-127100000D03*
X35000000Y-132900000D03*
G04 #@! TD*
G04 #@! TO.C,SW3*
X38250000Y-137750000D03*
X38250000Y-142250000D03*
X31750000Y-137750000D03*
X31750000Y-142250000D03*
X35000000Y-137100000D03*
X35000000Y-142900000D03*
G04 #@! TD*
G04 #@! TO.C,SW4*
X178250000Y-117750000D03*
X178250000Y-122250000D03*
X171750000Y-117750000D03*
X171750000Y-122250000D03*
X175000000Y-117100000D03*
X175000000Y-122900000D03*
G04 #@! TD*
G04 #@! TO.C,SW5*
X178250000Y-127750000D03*
X178250000Y-132250000D03*
X171750000Y-127750000D03*
X171750000Y-132250000D03*
X175000000Y-127100000D03*
X175000000Y-132900000D03*
G04 #@! TD*
G04 #@! TO.C,SW6*
X178250000Y-137750000D03*
X178250000Y-142250000D03*
X171750000Y-137750000D03*
X171750000Y-142250000D03*
X175000000Y-137100000D03*
X175000000Y-142900000D03*
G04 #@! TD*
G04 #@! TO.C,SW7*
X170250000Y-150600000D03*
X170250000Y-155100000D03*
X163750000Y-150600000D03*
X163750000Y-155100000D03*
X167000000Y-149950000D03*
X167000000Y-155750000D03*
G04 #@! TD*
G04 #@! TO.C,SW8*
X160250000Y-150600000D03*
X160250000Y-155100000D03*
X153750000Y-150600000D03*
X153750000Y-155100000D03*
X157000000Y-149950000D03*
X157000000Y-155750000D03*
G04 #@! TD*
G04 #@! TO.C,SW9*
X150250000Y-150600000D03*
X150250000Y-155100000D03*
X143750000Y-150600000D03*
X143750000Y-155100000D03*
X147000000Y-149950000D03*
X147000000Y-155750000D03*
G04 #@! TD*
D20*
G04 #@! TO.C,J4*
X45800000Y-93700000D03*
X40800000Y-93700000D03*
D19*
X46800000Y-91000000D03*
X39800000Y-91000000D03*
G04 #@! TD*
D15*
G04 #@! TO.C,J2*
X32625000Y-111825000D03*
D16*
X32625000Y-109285000D03*
X32625000Y-106745000D03*
G04 #@! TD*
D15*
G04 #@! TO.C,J5*
X32720000Y-146100000D03*
D16*
X35260000Y-146100000D03*
X37800000Y-146100000D03*
G04 #@! TD*
D21*
G04 #@! TO.C,J6*
X32600000Y-102800000D03*
D22*
X32600000Y-101550000D03*
G04 #@! TD*
D23*
G04 #@! TO.C,SW11*
X54400000Y-92042500D03*
X56400000Y-92042500D03*
X58400000Y-92042500D03*
D24*
X52300000Y-92042500D03*
X60500000Y-92042500D03*
G04 #@! TD*
D25*
G04 #@! TO.C,MK1*
X112600000Y-101730000D03*
D26*
X112600000Y-104270000D03*
G04 #@! TD*
M02*
