%TF.GenerationSoftware,KiCad,Pcbnew,7.0.1-3b83917a11~172~ubuntu22.04.1*%
%TF.CreationDate,2023-04-06T14:52:26-06:00*%
%TF.ProjectId,controller,636f6e74-726f-46c6-9c65-722e6b696361,rev?*%
%TF.SameCoordinates,Original*%
%TF.FileFunction,Drillmap*%
%TF.FilePolarity,Positive*%
%FSLAX45Y45*%
G04 Gerber Fmt 4.5, Leading zero omitted, Abs format (unit mm)*
G04 Created by KiCad (PCBNEW 7.0.1-3b83917a11~172~ubuntu22.04.1) date 2023-04-06 14:52:26*
%MOMM*%
%LPD*%
G01*
G04 APERTURE LIST*
%ADD10C,0.150000*%
%ADD11C,0.200000*%
%ADD12C,0.320000*%
G04 APERTURE END LIST*
D10*
X3040000Y-9360000D02*
X3040000Y-15360000D01*
X3440000Y-15760000D02*
X17640000Y-15760000D01*
X18040000Y-15360000D02*
X18040000Y-9360000D01*
X14250000Y-9210000D02*
X14250000Y-9510000D01*
X14500000Y-8960000D02*
G75*
G03*
X14250000Y-9210000I0J-250000D01*
G01*
X6833220Y-9210000D02*
G75*
G03*
X6583223Y-8960000I-250000J0D01*
G01*
X6833223Y-9210000D02*
X6830000Y-9510000D01*
X14500000Y-8960000D02*
X17640000Y-8960000D01*
X3440000Y-8960000D02*
G75*
G03*
X3040000Y-9360000I0J-400000D01*
G01*
X14000000Y-9760000D02*
G75*
G03*
X14250000Y-9510000I0J250000D01*
G01*
X17640000Y-15760000D02*
G75*
G03*
X18040000Y-15360000I0J400000D01*
G01*
X6830000Y-9510000D02*
G75*
G03*
X7080000Y-9760000I250000J0D01*
G01*
X3040000Y-15360000D02*
G75*
G03*
X3440000Y-15760000I400000J0D01*
G01*
X18040000Y-9360000D02*
G75*
G03*
X17640000Y-8960000I-400000J0D01*
G01*
X14000000Y-9760000D02*
X7080000Y-9760000D01*
X3440000Y-8960000D02*
X6583223Y-8960000D01*
D11*
D12*
X3280000Y-9190000D02*
X3600000Y-9510000D01*
X3600000Y-9190000D02*
X3280000Y-9510000D01*
X3330000Y-15150000D02*
X3650000Y-15470000D01*
X3650000Y-15150000D02*
X3330000Y-15470000D01*
X13590000Y-10050000D02*
X13910000Y-10370000D01*
X13910000Y-10050000D02*
X13590000Y-10370000D01*
X17440000Y-15150000D02*
X17760000Y-15470000D01*
X17760000Y-15150000D02*
X17440000Y-15470000D01*
D11*
X3280119Y-16080024D02*
X3280119Y-15880024D01*
X3280119Y-15880024D02*
X3327738Y-15880024D01*
X3327738Y-15880024D02*
X3356309Y-15889548D01*
X3356309Y-15889548D02*
X3375357Y-15908595D01*
X3375357Y-15908595D02*
X3384881Y-15927643D01*
X3384881Y-15927643D02*
X3394405Y-15965738D01*
X3394405Y-15965738D02*
X3394405Y-15994309D01*
X3394405Y-15994309D02*
X3384881Y-16032405D01*
X3384881Y-16032405D02*
X3375357Y-16051452D01*
X3375357Y-16051452D02*
X3356309Y-16070500D01*
X3356309Y-16070500D02*
X3327738Y-16080024D01*
X3327738Y-16080024D02*
X3280119Y-16080024D01*
X3480119Y-16080024D02*
X3480119Y-15946690D01*
X3480119Y-15984786D02*
X3489643Y-15965738D01*
X3489643Y-15965738D02*
X3499167Y-15956214D01*
X3499167Y-15956214D02*
X3518214Y-15946690D01*
X3518214Y-15946690D02*
X3537262Y-15946690D01*
X3603928Y-16080024D02*
X3603928Y-15946690D01*
X3603928Y-15880024D02*
X3594405Y-15889548D01*
X3594405Y-15889548D02*
X3603928Y-15899071D01*
X3603928Y-15899071D02*
X3613452Y-15889548D01*
X3613452Y-15889548D02*
X3603928Y-15880024D01*
X3603928Y-15880024D02*
X3603928Y-15899071D01*
X3727738Y-16080024D02*
X3708690Y-16070500D01*
X3708690Y-16070500D02*
X3699167Y-16051452D01*
X3699167Y-16051452D02*
X3699167Y-15880024D01*
X3832500Y-16080024D02*
X3813452Y-16070500D01*
X3813452Y-16070500D02*
X3803928Y-16051452D01*
X3803928Y-16051452D02*
X3803928Y-15880024D01*
X4061071Y-16080024D02*
X4061071Y-15880024D01*
X4061071Y-15880024D02*
X4127738Y-16022881D01*
X4127738Y-16022881D02*
X4194405Y-15880024D01*
X4194405Y-15880024D02*
X4194405Y-16080024D01*
X4375357Y-16080024D02*
X4375357Y-15975262D01*
X4375357Y-15975262D02*
X4365833Y-15956214D01*
X4365833Y-15956214D02*
X4346786Y-15946690D01*
X4346786Y-15946690D02*
X4308690Y-15946690D01*
X4308690Y-15946690D02*
X4289643Y-15956214D01*
X4375357Y-16070500D02*
X4356310Y-16080024D01*
X4356310Y-16080024D02*
X4308690Y-16080024D01*
X4308690Y-16080024D02*
X4289643Y-16070500D01*
X4289643Y-16070500D02*
X4280119Y-16051452D01*
X4280119Y-16051452D02*
X4280119Y-16032405D01*
X4280119Y-16032405D02*
X4289643Y-16013357D01*
X4289643Y-16013357D02*
X4308690Y-16003833D01*
X4308690Y-16003833D02*
X4356310Y-16003833D01*
X4356310Y-16003833D02*
X4375357Y-15994309D01*
X4470595Y-15946690D02*
X4470595Y-16146690D01*
X4470595Y-15956214D02*
X4489643Y-15946690D01*
X4489643Y-15946690D02*
X4527738Y-15946690D01*
X4527738Y-15946690D02*
X4546786Y-15956214D01*
X4546786Y-15956214D02*
X4556310Y-15965738D01*
X4556310Y-15965738D02*
X4565833Y-15984786D01*
X4565833Y-15984786D02*
X4565833Y-16041928D01*
X4565833Y-16041928D02*
X4556310Y-16060976D01*
X4556310Y-16060976D02*
X4546786Y-16070500D01*
X4546786Y-16070500D02*
X4527738Y-16080024D01*
X4527738Y-16080024D02*
X4489643Y-16080024D01*
X4489643Y-16080024D02*
X4470595Y-16070500D01*
X4651548Y-16060976D02*
X4661071Y-16070500D01*
X4661071Y-16070500D02*
X4651548Y-16080024D01*
X4651548Y-16080024D02*
X4642024Y-16070500D01*
X4642024Y-16070500D02*
X4651548Y-16060976D01*
X4651548Y-16060976D02*
X4651548Y-16080024D01*
X4651548Y-15956214D02*
X4661071Y-15965738D01*
X4661071Y-15965738D02*
X4651548Y-15975262D01*
X4651548Y-15975262D02*
X4642024Y-15965738D01*
X4642024Y-15965738D02*
X4651548Y-15956214D01*
X4651548Y-15956214D02*
X4651548Y-15975262D01*
X2832500Y-16307500D02*
X3032500Y-16507500D01*
X3032500Y-16307500D02*
X2832500Y-16507500D01*
X3261071Y-16300024D02*
X3384881Y-16300024D01*
X3384881Y-16300024D02*
X3318214Y-16376214D01*
X3318214Y-16376214D02*
X3346786Y-16376214D01*
X3346786Y-16376214D02*
X3365833Y-16385738D01*
X3365833Y-16385738D02*
X3375357Y-16395262D01*
X3375357Y-16395262D02*
X3384881Y-16414309D01*
X3384881Y-16414309D02*
X3384881Y-16461928D01*
X3384881Y-16461928D02*
X3375357Y-16480976D01*
X3375357Y-16480976D02*
X3365833Y-16490500D01*
X3365833Y-16490500D02*
X3346786Y-16500024D01*
X3346786Y-16500024D02*
X3289643Y-16500024D01*
X3289643Y-16500024D02*
X3270595Y-16490500D01*
X3270595Y-16490500D02*
X3261071Y-16480976D01*
X3470595Y-16480976D02*
X3480119Y-16490500D01*
X3480119Y-16490500D02*
X3470595Y-16500024D01*
X3470595Y-16500024D02*
X3461071Y-16490500D01*
X3461071Y-16490500D02*
X3470595Y-16480976D01*
X3470595Y-16480976D02*
X3470595Y-16500024D01*
X3556309Y-16319071D02*
X3565833Y-16309548D01*
X3565833Y-16309548D02*
X3584881Y-16300024D01*
X3584881Y-16300024D02*
X3632500Y-16300024D01*
X3632500Y-16300024D02*
X3651548Y-16309548D01*
X3651548Y-16309548D02*
X3661071Y-16319071D01*
X3661071Y-16319071D02*
X3670595Y-16338119D01*
X3670595Y-16338119D02*
X3670595Y-16357167D01*
X3670595Y-16357167D02*
X3661071Y-16385738D01*
X3661071Y-16385738D02*
X3546786Y-16500024D01*
X3546786Y-16500024D02*
X3670595Y-16500024D01*
X3794405Y-16300024D02*
X3813452Y-16300024D01*
X3813452Y-16300024D02*
X3832500Y-16309548D01*
X3832500Y-16309548D02*
X3842024Y-16319071D01*
X3842024Y-16319071D02*
X3851548Y-16338119D01*
X3851548Y-16338119D02*
X3861071Y-16376214D01*
X3861071Y-16376214D02*
X3861071Y-16423833D01*
X3861071Y-16423833D02*
X3851548Y-16461928D01*
X3851548Y-16461928D02*
X3842024Y-16480976D01*
X3842024Y-16480976D02*
X3832500Y-16490500D01*
X3832500Y-16490500D02*
X3813452Y-16500024D01*
X3813452Y-16500024D02*
X3794405Y-16500024D01*
X3794405Y-16500024D02*
X3775357Y-16490500D01*
X3775357Y-16490500D02*
X3765833Y-16480976D01*
X3765833Y-16480976D02*
X3756309Y-16461928D01*
X3756309Y-16461928D02*
X3746786Y-16423833D01*
X3746786Y-16423833D02*
X3746786Y-16376214D01*
X3746786Y-16376214D02*
X3756309Y-16338119D01*
X3756309Y-16338119D02*
X3765833Y-16319071D01*
X3765833Y-16319071D02*
X3775357Y-16309548D01*
X3775357Y-16309548D02*
X3794405Y-16300024D01*
X3984881Y-16300024D02*
X4003929Y-16300024D01*
X4003929Y-16300024D02*
X4022976Y-16309548D01*
X4022976Y-16309548D02*
X4032500Y-16319071D01*
X4032500Y-16319071D02*
X4042024Y-16338119D01*
X4042024Y-16338119D02*
X4051548Y-16376214D01*
X4051548Y-16376214D02*
X4051548Y-16423833D01*
X4051548Y-16423833D02*
X4042024Y-16461928D01*
X4042024Y-16461928D02*
X4032500Y-16480976D01*
X4032500Y-16480976D02*
X4022976Y-16490500D01*
X4022976Y-16490500D02*
X4003929Y-16500024D01*
X4003929Y-16500024D02*
X3984881Y-16500024D01*
X3984881Y-16500024D02*
X3965833Y-16490500D01*
X3965833Y-16490500D02*
X3956309Y-16480976D01*
X3956309Y-16480976D02*
X3946786Y-16461928D01*
X3946786Y-16461928D02*
X3937262Y-16423833D01*
X3937262Y-16423833D02*
X3937262Y-16376214D01*
X3937262Y-16376214D02*
X3946786Y-16338119D01*
X3946786Y-16338119D02*
X3956309Y-16319071D01*
X3956309Y-16319071D02*
X3965833Y-16309548D01*
X3965833Y-16309548D02*
X3984881Y-16300024D01*
X4137262Y-16500024D02*
X4137262Y-16366690D01*
X4137262Y-16385738D02*
X4146786Y-16376214D01*
X4146786Y-16376214D02*
X4165833Y-16366690D01*
X4165833Y-16366690D02*
X4194405Y-16366690D01*
X4194405Y-16366690D02*
X4213452Y-16376214D01*
X4213452Y-16376214D02*
X4222976Y-16395262D01*
X4222976Y-16395262D02*
X4222976Y-16500024D01*
X4222976Y-16395262D02*
X4232500Y-16376214D01*
X4232500Y-16376214D02*
X4251548Y-16366690D01*
X4251548Y-16366690D02*
X4280119Y-16366690D01*
X4280119Y-16366690D02*
X4299167Y-16376214D01*
X4299167Y-16376214D02*
X4308691Y-16395262D01*
X4308691Y-16395262D02*
X4308691Y-16500024D01*
X4403929Y-16500024D02*
X4403929Y-16366690D01*
X4403929Y-16385738D02*
X4413452Y-16376214D01*
X4413452Y-16376214D02*
X4432500Y-16366690D01*
X4432500Y-16366690D02*
X4461072Y-16366690D01*
X4461072Y-16366690D02*
X4480119Y-16376214D01*
X4480119Y-16376214D02*
X4489643Y-16395262D01*
X4489643Y-16395262D02*
X4489643Y-16500024D01*
X4489643Y-16395262D02*
X4499167Y-16376214D01*
X4499167Y-16376214D02*
X4518214Y-16366690D01*
X4518214Y-16366690D02*
X4546786Y-16366690D01*
X4546786Y-16366690D02*
X4565833Y-16376214D01*
X4565833Y-16376214D02*
X4575357Y-16395262D01*
X4575357Y-16395262D02*
X4575357Y-16500024D01*
X4965833Y-16290500D02*
X4794405Y-16547643D01*
X5222976Y-16300024D02*
X5242024Y-16300024D01*
X5242024Y-16300024D02*
X5261072Y-16309548D01*
X5261072Y-16309548D02*
X5270595Y-16319071D01*
X5270595Y-16319071D02*
X5280119Y-16338119D01*
X5280119Y-16338119D02*
X5289643Y-16376214D01*
X5289643Y-16376214D02*
X5289643Y-16423833D01*
X5289643Y-16423833D02*
X5280119Y-16461928D01*
X5280119Y-16461928D02*
X5270595Y-16480976D01*
X5270595Y-16480976D02*
X5261072Y-16490500D01*
X5261072Y-16490500D02*
X5242024Y-16500024D01*
X5242024Y-16500024D02*
X5222976Y-16500024D01*
X5222976Y-16500024D02*
X5203929Y-16490500D01*
X5203929Y-16490500D02*
X5194405Y-16480976D01*
X5194405Y-16480976D02*
X5184881Y-16461928D01*
X5184881Y-16461928D02*
X5175357Y-16423833D01*
X5175357Y-16423833D02*
X5175357Y-16376214D01*
X5175357Y-16376214D02*
X5184881Y-16338119D01*
X5184881Y-16338119D02*
X5194405Y-16319071D01*
X5194405Y-16319071D02*
X5203929Y-16309548D01*
X5203929Y-16309548D02*
X5222976Y-16300024D01*
X5375357Y-16480976D02*
X5384881Y-16490500D01*
X5384881Y-16490500D02*
X5375357Y-16500024D01*
X5375357Y-16500024D02*
X5365834Y-16490500D01*
X5365834Y-16490500D02*
X5375357Y-16480976D01*
X5375357Y-16480976D02*
X5375357Y-16500024D01*
X5575357Y-16500024D02*
X5461072Y-16500024D01*
X5518214Y-16500024D02*
X5518214Y-16300024D01*
X5518214Y-16300024D02*
X5499167Y-16328595D01*
X5499167Y-16328595D02*
X5480119Y-16347643D01*
X5480119Y-16347643D02*
X5461072Y-16357167D01*
X5651548Y-16319071D02*
X5661072Y-16309548D01*
X5661072Y-16309548D02*
X5680119Y-16300024D01*
X5680119Y-16300024D02*
X5727738Y-16300024D01*
X5727738Y-16300024D02*
X5746786Y-16309548D01*
X5746786Y-16309548D02*
X5756310Y-16319071D01*
X5756310Y-16319071D02*
X5765833Y-16338119D01*
X5765833Y-16338119D02*
X5765833Y-16357167D01*
X5765833Y-16357167D02*
X5756310Y-16385738D01*
X5756310Y-16385738D02*
X5642024Y-16500024D01*
X5642024Y-16500024D02*
X5765833Y-16500024D01*
X5937262Y-16300024D02*
X5899167Y-16300024D01*
X5899167Y-16300024D02*
X5880119Y-16309548D01*
X5880119Y-16309548D02*
X5870595Y-16319071D01*
X5870595Y-16319071D02*
X5851548Y-16347643D01*
X5851548Y-16347643D02*
X5842024Y-16385738D01*
X5842024Y-16385738D02*
X5842024Y-16461928D01*
X5842024Y-16461928D02*
X5851548Y-16480976D01*
X5851548Y-16480976D02*
X5861072Y-16490500D01*
X5861072Y-16490500D02*
X5880119Y-16500024D01*
X5880119Y-16500024D02*
X5918214Y-16500024D01*
X5918214Y-16500024D02*
X5937262Y-16490500D01*
X5937262Y-16490500D02*
X5946786Y-16480976D01*
X5946786Y-16480976D02*
X5956310Y-16461928D01*
X5956310Y-16461928D02*
X5956310Y-16414309D01*
X5956310Y-16414309D02*
X5946786Y-16395262D01*
X5946786Y-16395262D02*
X5937262Y-16385738D01*
X5937262Y-16385738D02*
X5918214Y-16376214D01*
X5918214Y-16376214D02*
X5880119Y-16376214D01*
X5880119Y-16376214D02*
X5861072Y-16385738D01*
X5861072Y-16385738D02*
X5851548Y-16395262D01*
X5851548Y-16395262D02*
X5842024Y-16414309D01*
X6080119Y-16300024D02*
X6099167Y-16300024D01*
X6099167Y-16300024D02*
X6118214Y-16309548D01*
X6118214Y-16309548D02*
X6127738Y-16319071D01*
X6127738Y-16319071D02*
X6137262Y-16338119D01*
X6137262Y-16338119D02*
X6146786Y-16376214D01*
X6146786Y-16376214D02*
X6146786Y-16423833D01*
X6146786Y-16423833D02*
X6137262Y-16461928D01*
X6137262Y-16461928D02*
X6127738Y-16480976D01*
X6127738Y-16480976D02*
X6118214Y-16490500D01*
X6118214Y-16490500D02*
X6099167Y-16500024D01*
X6099167Y-16500024D02*
X6080119Y-16500024D01*
X6080119Y-16500024D02*
X6061072Y-16490500D01*
X6061072Y-16490500D02*
X6051548Y-16480976D01*
X6051548Y-16480976D02*
X6042024Y-16461928D01*
X6042024Y-16461928D02*
X6032500Y-16423833D01*
X6032500Y-16423833D02*
X6032500Y-16376214D01*
X6032500Y-16376214D02*
X6042024Y-16338119D01*
X6042024Y-16338119D02*
X6051548Y-16319071D01*
X6051548Y-16319071D02*
X6061072Y-16309548D01*
X6061072Y-16309548D02*
X6080119Y-16300024D01*
X6222976Y-16300024D02*
X6222976Y-16338119D01*
X6299167Y-16300024D02*
X6299167Y-16338119D01*
X6594405Y-16576214D02*
X6584881Y-16566690D01*
X6584881Y-16566690D02*
X6565834Y-16538119D01*
X6565834Y-16538119D02*
X6556310Y-16519071D01*
X6556310Y-16519071D02*
X6546786Y-16490500D01*
X6546786Y-16490500D02*
X6537262Y-16442881D01*
X6537262Y-16442881D02*
X6537262Y-16404786D01*
X6537262Y-16404786D02*
X6546786Y-16357167D01*
X6546786Y-16357167D02*
X6556310Y-16328595D01*
X6556310Y-16328595D02*
X6565834Y-16309548D01*
X6565834Y-16309548D02*
X6584881Y-16280976D01*
X6584881Y-16280976D02*
X6594405Y-16271452D01*
X6756310Y-16366690D02*
X6756310Y-16500024D01*
X6708691Y-16290500D02*
X6661072Y-16433357D01*
X6661072Y-16433357D02*
X6784881Y-16433357D01*
X7013453Y-16500024D02*
X7013453Y-16300024D01*
X7099167Y-16500024D02*
X7099167Y-16395262D01*
X7099167Y-16395262D02*
X7089643Y-16376214D01*
X7089643Y-16376214D02*
X7070596Y-16366690D01*
X7070596Y-16366690D02*
X7042024Y-16366690D01*
X7042024Y-16366690D02*
X7022976Y-16376214D01*
X7022976Y-16376214D02*
X7013453Y-16385738D01*
X7222976Y-16500024D02*
X7203929Y-16490500D01*
X7203929Y-16490500D02*
X7194405Y-16480976D01*
X7194405Y-16480976D02*
X7184881Y-16461928D01*
X7184881Y-16461928D02*
X7184881Y-16404786D01*
X7184881Y-16404786D02*
X7194405Y-16385738D01*
X7194405Y-16385738D02*
X7203929Y-16376214D01*
X7203929Y-16376214D02*
X7222976Y-16366690D01*
X7222976Y-16366690D02*
X7251548Y-16366690D01*
X7251548Y-16366690D02*
X7270596Y-16376214D01*
X7270596Y-16376214D02*
X7280119Y-16385738D01*
X7280119Y-16385738D02*
X7289643Y-16404786D01*
X7289643Y-16404786D02*
X7289643Y-16461928D01*
X7289643Y-16461928D02*
X7280119Y-16480976D01*
X7280119Y-16480976D02*
X7270596Y-16490500D01*
X7270596Y-16490500D02*
X7251548Y-16500024D01*
X7251548Y-16500024D02*
X7222976Y-16500024D01*
X7403929Y-16500024D02*
X7384881Y-16490500D01*
X7384881Y-16490500D02*
X7375357Y-16471452D01*
X7375357Y-16471452D02*
X7375357Y-16300024D01*
X7556310Y-16490500D02*
X7537262Y-16500024D01*
X7537262Y-16500024D02*
X7499167Y-16500024D01*
X7499167Y-16500024D02*
X7480119Y-16490500D01*
X7480119Y-16490500D02*
X7470596Y-16471452D01*
X7470596Y-16471452D02*
X7470596Y-16395262D01*
X7470596Y-16395262D02*
X7480119Y-16376214D01*
X7480119Y-16376214D02*
X7499167Y-16366690D01*
X7499167Y-16366690D02*
X7537262Y-16366690D01*
X7537262Y-16366690D02*
X7556310Y-16376214D01*
X7556310Y-16376214D02*
X7565834Y-16395262D01*
X7565834Y-16395262D02*
X7565834Y-16414309D01*
X7565834Y-16414309D02*
X7470596Y-16433357D01*
X7642024Y-16490500D02*
X7661072Y-16500024D01*
X7661072Y-16500024D02*
X7699167Y-16500024D01*
X7699167Y-16500024D02*
X7718215Y-16490500D01*
X7718215Y-16490500D02*
X7727738Y-16471452D01*
X7727738Y-16471452D02*
X7727738Y-16461928D01*
X7727738Y-16461928D02*
X7718215Y-16442881D01*
X7718215Y-16442881D02*
X7699167Y-16433357D01*
X7699167Y-16433357D02*
X7670596Y-16433357D01*
X7670596Y-16433357D02*
X7651548Y-16423833D01*
X7651548Y-16423833D02*
X7642024Y-16404786D01*
X7642024Y-16404786D02*
X7642024Y-16395262D01*
X7642024Y-16395262D02*
X7651548Y-16376214D01*
X7651548Y-16376214D02*
X7670596Y-16366690D01*
X7670596Y-16366690D02*
X7699167Y-16366690D01*
X7699167Y-16366690D02*
X7718215Y-16376214D01*
X7794405Y-16576214D02*
X7803929Y-16566690D01*
X7803929Y-16566690D02*
X7822977Y-16538119D01*
X7822977Y-16538119D02*
X7832500Y-16519071D01*
X7832500Y-16519071D02*
X7842024Y-16490500D01*
X7842024Y-16490500D02*
X7851548Y-16442881D01*
X7851548Y-16442881D02*
X7851548Y-16404786D01*
X7851548Y-16404786D02*
X7842024Y-16357167D01*
X7842024Y-16357167D02*
X7832500Y-16328595D01*
X7832500Y-16328595D02*
X7822977Y-16309548D01*
X7822977Y-16309548D02*
X7803929Y-16280976D01*
X7803929Y-16280976D02*
X7794405Y-16271452D01*
X8156310Y-16576214D02*
X8146786Y-16566690D01*
X8146786Y-16566690D02*
X8127738Y-16538119D01*
X8127738Y-16538119D02*
X8118215Y-16519071D01*
X8118215Y-16519071D02*
X8108691Y-16490500D01*
X8108691Y-16490500D02*
X8099167Y-16442881D01*
X8099167Y-16442881D02*
X8099167Y-16404786D01*
X8099167Y-16404786D02*
X8108691Y-16357167D01*
X8108691Y-16357167D02*
X8118215Y-16328595D01*
X8118215Y-16328595D02*
X8127738Y-16309548D01*
X8127738Y-16309548D02*
X8146786Y-16280976D01*
X8146786Y-16280976D02*
X8156310Y-16271452D01*
X8232500Y-16366690D02*
X8232500Y-16500024D01*
X8232500Y-16385738D02*
X8242024Y-16376214D01*
X8242024Y-16376214D02*
X8261072Y-16366690D01*
X8261072Y-16366690D02*
X8289643Y-16366690D01*
X8289643Y-16366690D02*
X8308691Y-16376214D01*
X8308691Y-16376214D02*
X8318215Y-16395262D01*
X8318215Y-16395262D02*
X8318215Y-16500024D01*
X8442024Y-16500024D02*
X8422977Y-16490500D01*
X8422977Y-16490500D02*
X8413453Y-16480976D01*
X8413453Y-16480976D02*
X8403929Y-16461928D01*
X8403929Y-16461928D02*
X8403929Y-16404786D01*
X8403929Y-16404786D02*
X8413453Y-16385738D01*
X8413453Y-16385738D02*
X8422977Y-16376214D01*
X8422977Y-16376214D02*
X8442024Y-16366690D01*
X8442024Y-16366690D02*
X8470596Y-16366690D01*
X8470596Y-16366690D02*
X8489643Y-16376214D01*
X8489643Y-16376214D02*
X8499167Y-16385738D01*
X8499167Y-16385738D02*
X8508691Y-16404786D01*
X8508691Y-16404786D02*
X8508691Y-16461928D01*
X8508691Y-16461928D02*
X8499167Y-16480976D01*
X8499167Y-16480976D02*
X8489643Y-16490500D01*
X8489643Y-16490500D02*
X8470596Y-16500024D01*
X8470596Y-16500024D02*
X8442024Y-16500024D01*
X8565834Y-16366690D02*
X8642024Y-16366690D01*
X8594405Y-16300024D02*
X8594405Y-16471452D01*
X8594405Y-16471452D02*
X8603929Y-16490500D01*
X8603929Y-16490500D02*
X8622977Y-16500024D01*
X8622977Y-16500024D02*
X8642024Y-16500024D01*
X8861072Y-16366690D02*
X8861072Y-16566690D01*
X8861072Y-16376214D02*
X8880120Y-16366690D01*
X8880120Y-16366690D02*
X8918215Y-16366690D01*
X8918215Y-16366690D02*
X8937262Y-16376214D01*
X8937262Y-16376214D02*
X8946786Y-16385738D01*
X8946786Y-16385738D02*
X8956310Y-16404786D01*
X8956310Y-16404786D02*
X8956310Y-16461928D01*
X8956310Y-16461928D02*
X8946786Y-16480976D01*
X8946786Y-16480976D02*
X8937262Y-16490500D01*
X8937262Y-16490500D02*
X8918215Y-16500024D01*
X8918215Y-16500024D02*
X8880120Y-16500024D01*
X8880120Y-16500024D02*
X8861072Y-16490500D01*
X9070596Y-16500024D02*
X9051548Y-16490500D01*
X9051548Y-16490500D02*
X9042024Y-16471452D01*
X9042024Y-16471452D02*
X9042024Y-16300024D01*
X9232501Y-16500024D02*
X9232501Y-16395262D01*
X9232501Y-16395262D02*
X9222977Y-16376214D01*
X9222977Y-16376214D02*
X9203929Y-16366690D01*
X9203929Y-16366690D02*
X9165834Y-16366690D01*
X9165834Y-16366690D02*
X9146786Y-16376214D01*
X9232501Y-16490500D02*
X9213453Y-16500024D01*
X9213453Y-16500024D02*
X9165834Y-16500024D01*
X9165834Y-16500024D02*
X9146786Y-16490500D01*
X9146786Y-16490500D02*
X9137262Y-16471452D01*
X9137262Y-16471452D02*
X9137262Y-16452405D01*
X9137262Y-16452405D02*
X9146786Y-16433357D01*
X9146786Y-16433357D02*
X9165834Y-16423833D01*
X9165834Y-16423833D02*
X9213453Y-16423833D01*
X9213453Y-16423833D02*
X9232501Y-16414309D01*
X9299167Y-16366690D02*
X9375358Y-16366690D01*
X9327739Y-16300024D02*
X9327739Y-16471452D01*
X9327739Y-16471452D02*
X9337262Y-16490500D01*
X9337262Y-16490500D02*
X9356310Y-16500024D01*
X9356310Y-16500024D02*
X9375358Y-16500024D01*
X9518215Y-16490500D02*
X9499167Y-16500024D01*
X9499167Y-16500024D02*
X9461072Y-16500024D01*
X9461072Y-16500024D02*
X9442024Y-16490500D01*
X9442024Y-16490500D02*
X9432501Y-16471452D01*
X9432501Y-16471452D02*
X9432501Y-16395262D01*
X9432501Y-16395262D02*
X9442024Y-16376214D01*
X9442024Y-16376214D02*
X9461072Y-16366690D01*
X9461072Y-16366690D02*
X9499167Y-16366690D01*
X9499167Y-16366690D02*
X9518215Y-16376214D01*
X9518215Y-16376214D02*
X9527739Y-16395262D01*
X9527739Y-16395262D02*
X9527739Y-16414309D01*
X9527739Y-16414309D02*
X9432501Y-16433357D01*
X9699167Y-16500024D02*
X9699167Y-16300024D01*
X9699167Y-16490500D02*
X9680120Y-16500024D01*
X9680120Y-16500024D02*
X9642024Y-16500024D01*
X9642024Y-16500024D02*
X9622977Y-16490500D01*
X9622977Y-16490500D02*
X9613453Y-16480976D01*
X9613453Y-16480976D02*
X9603929Y-16461928D01*
X9603929Y-16461928D02*
X9603929Y-16404786D01*
X9603929Y-16404786D02*
X9613453Y-16385738D01*
X9613453Y-16385738D02*
X9622977Y-16376214D01*
X9622977Y-16376214D02*
X9642024Y-16366690D01*
X9642024Y-16366690D02*
X9680120Y-16366690D01*
X9680120Y-16366690D02*
X9699167Y-16376214D01*
X9775358Y-16576214D02*
X9784882Y-16566690D01*
X9784882Y-16566690D02*
X9803929Y-16538119D01*
X9803929Y-16538119D02*
X9813453Y-16519071D01*
X9813453Y-16519071D02*
X9822977Y-16490500D01*
X9822977Y-16490500D02*
X9832501Y-16442881D01*
X9832501Y-16442881D02*
X9832501Y-16404786D01*
X9832501Y-16404786D02*
X9822977Y-16357167D01*
X9822977Y-16357167D02*
X9813453Y-16328595D01*
X9813453Y-16328595D02*
X9803929Y-16309548D01*
X9803929Y-16309548D02*
X9784882Y-16280976D01*
X9784882Y-16280976D02*
X9775358Y-16271452D01*
M02*
