M48
; DRILL file {KiCad 7.0.1-3b83917a11~172~ubuntu22.04.1} date Thu 06 Apr 2023 02:52:25 PM MDT
; FORMAT={-:-/ absolute / metric / decimal}
; #@! TF.CreationDate,2023-04-06T14:52:25-06:00
; #@! TF.GenerationSoftware,Kicad,Pcbnew,7.0.1-3b83917a11~172~ubuntu22.04.1
; #@! TF.FileFunction,Plated,1,2,PTH
FMAT,2
METRIC
; #@! TA.AperFunction,Plated,PTH,ViaDrill
T1C0.380
; #@! TA.AperFunction,Plated,PTH,ViaDrill
T2C0.400
; #@! TA.AperFunction,Plated,PTH,ComponentDrill
T3C0.500
; #@! TA.AperFunction,Plated,PTH,ComponentDrill
T4C0.700
; #@! TA.AperFunction,Plated,PTH,ComponentDrill
T5C0.800
; #@! TA.AperFunction,Plated,PTH,ComponentDrill
T6C0.870
; #@! TA.AperFunction,Plated,PTH,ComponentDrill
T7C0.900
; #@! TA.AperFunction,Plated,PTH,ComponentDrill
T8C1.000
; #@! TA.AperFunction,Plated,PTH,ComponentDrill
T9C1.100
; #@! TA.AperFunction,Plated,PTH,ComponentDrill
T10C1.200
; #@! TA.AperFunction,Plated,PTH,ComponentDrill
T11C1.400
; #@! TA.AperFunction,Plated,PTH,ComponentDrill
T12C1.500
%
G90
G05
T1
X142.936Y-106.2
X144.2Y-94.6
X146.9Y-100.1
X147.9Y-110.1
X148.602Y-96.002
X149.8Y-115.1
X149.9Y-105.1
X151.7Y-91.6
X151.9Y-100.1
X152.9Y-110.1
X153.9Y-95.1
X154.8Y-115.1
X155.1Y-105.1
X156.9Y-100.1
X157.9Y-110.1
X158.9Y-95.1
X159.4Y-92.2
X160.3Y-105.1
X160.9Y-115.1
X161.8Y-110.1
X162.2Y-92.9
X162.2Y-94.9
X162.2Y-96.9
X162.2Y-98.9
X162.2Y-100.9
X162.2Y-102.9
X162.2Y-104.9
X162.2Y-106.9
X162.2Y-108.5
X168.2Y-92.7
X168.2Y-94.7
X168.2Y-96.7
X168.2Y-98.7
X168.2Y-100.7
X168.2Y-102.7
X168.2Y-104.7
X168.2Y-106.7
X168.2Y-108.7
X174.185Y-90.715
X174.2Y-92.7
X174.2Y-94.7
X174.2Y-96.7
X174.2Y-98.7
X174.2Y-100.7
X174.2Y-102.7
X174.2Y-104.7
X174.2Y-106.7
X174.2Y-108.7
T2
X39.114Y-95.6
X39.5Y-100.8
X40.7Y-129.1
X40.8Y-139.1
X40.9Y-119.6
X41.25Y-97.2
X41.3Y-96.4
X41.865Y-109.285
X41.9Y-102.4
X42.096Y-110.984
X42.2Y-92.4
X42.3Y-104.3
X42.3Y-140.3
X42.7Y-95.1
X42.85Y-115.55
X42.93Y-97.884
X43.1Y-104.3
X43.2Y-134.0
X43.6Y-116.2
X43.875Y-107.275
X43.982Y-95.65
X44.241Y-94.893
X44.511Y-101.9
X44.6Y-123.6
X44.8Y-95.8
X45.1Y-98.2
X45.4Y-112.6
X45.882Y-103.408
X46.28Y-114.925
X47.2Y-145.2
X47.3Y-156.6
X47.8Y-96.4
X48.339Y-116.774
X48.5Y-136.6
X50.6Y-127.3
X52.5Y-95.9
X53.174Y-107.1
X53.9Y-147.5
X56.4Y-102.8
X58.563Y-116.774
X58.7Y-136.6
X59.5Y-109.1
X60.5Y-127.4
X61.9Y-101.3
X62.0Y-149.7
X62.8Y-105.8
X63.2Y-94.3
X63.35Y-97.65
X64.6Y-99.8
X66.8Y-97.3
X67.6Y-98.2
X68.545Y-116.774
X68.6Y-136.6
X68.646Y-101.874
X68.7Y-97.4
X69.1Y-99.9
X70.6Y-127.4
X73.6Y-106.8
X76.119Y-113.959
X77.6Y-113.4
X77.714Y-104.874
X78.5Y-136.6
X78.557Y-116.774
X79.5Y-100.6
X79.574Y-112.515
X79.82Y-107.091
X79.9Y-110.7
X80.229Y-114.746
X80.6Y-103.6
X80.6Y-127.4
X81.1Y-112.6
X81.4Y-101.4
X82.4Y-107.8
X82.443Y-109.48
X82.5Y-122.9
X82.5Y-129.6
X82.5Y-139.4
X82.505Y-115.328
X82.542Y-119.358
X82.7Y-99.7
X82.825Y-105.3
X83.079Y-115.995
X83.294Y-108.706
X83.4Y-104.2
X83.702Y-117.686
X83.9Y-148.9
X84.146Y-113.462
X84.5Y-147.7
X84.609Y-116.776
X84.626Y-118.458
X85.645Y-113.853
X85.661Y-146.955
X85.951Y-100.742
X87.1Y-145.4
X87.243Y-109.525
X87.4Y-119.6
X87.5Y-129.6
X87.5Y-139.4
X87.561Y-143.648
X87.8Y-144.7
X88.0Y-123.1
X88.026Y-105.874
X88.4Y-116.525
X88.5Y-99.05
X88.7Y-136.6
X90.6Y-127.4
X90.762Y-106.851
X91.2Y-100.4
X91.225Y-106.2
X91.498Y-109.525
X92.57Y-103.523
X94.2Y-99.7
X95.373Y-103.032
X97.6Y-109.5
X97.619Y-113.419
X98.4Y-116.525
X98.7Y-136.6
X99.5Y-148.9
X99.6Y-150.3
X100.1Y-112.6
X100.6Y-127.3
X101.824Y-109.497
X102.3Y-147.0
X103.0Y-147.7
X103.1Y-98.2
X103.5Y-113.9
X106.1Y-114.8
X108.5Y-116.2
X108.6Y-136.6
X110.6Y-127.3
X111.1Y-114.9
X115.9Y-110.1
X116.7Y-115.1
X116.9Y-98.2
X118.4Y-116.0
X118.6Y-106.6
X118.6Y-136.6
X120.6Y-127.4
X121.2Y-108.2
X123.9Y-108.3
X126.3Y-108.3
X127.6Y-98.2
X128.3Y-106.7
X128.6Y-116.525
X128.6Y-136.6
X130.6Y-127.3
X138.4Y-106.6
X138.6Y-116.525
X138.6Y-136.6
X140.5Y-127.2
X143.2Y-94.0
X143.7Y-112.6
X143.8Y-100.8
X144.2Y-101.8
X144.368Y-98.832
X144.6Y-106.8
X144.8Y-97.4
X145.4Y-98.0
X146.7Y-146.8
X146.9Y-109.3
X147.3Y-95.6
X148.1Y-146.6
X148.6Y-116.525
X148.6Y-136.6
X149.0Y-94.5
X149.5Y-103.7
X150.0Y-96.1
X150.506Y-144.125
X150.6Y-127.3
X152.1Y-146.5
X153.5Y-152.3
X154.8Y-145.6
X155.7Y-146.9
X155.7Y-153.6
X155.9Y-145.0
X156.8Y-146.5
X158.513Y-116.525
X158.6Y-136.5
X158.9Y-156.6
X160.5Y-145.9
X160.6Y-127.3
X162.5Y-120.2
X163.4Y-136.4
X165.3Y-118.9
X166.0Y-117.1
X166.2Y-145.0
X166.267Y-124.349
X166.8Y-147.3
X167.75Y-133.62
X167.8Y-121.0
X169.2Y-134.3
X169.2Y-139.8
X169.8Y-117.9
X170.235Y-144.4
X170.6Y-124.7
X172.4Y-145.5
X173.6Y-146.6
X174.2Y-139.8
X176.9Y-124.4
X177.2Y-134.3
T3
X32.6Y-101.55
X32.6Y-102.8
T4
X54.4Y-92.042
X56.4Y-92.042
X58.4Y-92.042
T5
X49.8Y-152.85
X53.8Y-152.85
X55.8Y-152.85
X57.8Y-152.85
T6
X112.6Y-101.73
X112.6Y-104.27
T7
X40.8Y-93.7
X45.8Y-93.7
T8
X32.625Y-106.745
X32.625Y-109.285
X32.625Y-111.825
X32.72Y-146.1
X35.26Y-146.1
X37.8Y-146.1
X119.98Y-99.9
X120.0Y-103.8
X122.52Y-99.9
X122.54Y-103.8
X125.06Y-99.9
X125.08Y-103.8
X127.6Y-99.9
X127.62Y-103.8
X130.16Y-103.8
T9
X31.75Y-117.75
X31.75Y-122.25
X31.75Y-127.75
X31.75Y-132.25
X31.75Y-137.75
X31.75Y-142.25
X35.0Y-117.1
X35.0Y-122.9
X35.0Y-127.1
X35.0Y-132.9
X35.0Y-137.1
X35.0Y-142.9
X38.25Y-117.75
X38.25Y-122.25
X38.25Y-127.75
X38.25Y-132.25
X38.25Y-137.75
X38.25Y-142.25
X143.75Y-150.6
X143.75Y-155.1
X147.0Y-149.95
X147.0Y-155.75
X150.25Y-150.6
X150.25Y-155.1
X153.75Y-150.6
X153.75Y-155.1
X157.0Y-149.95
X157.0Y-155.75
X160.25Y-150.6
X160.25Y-155.1
X163.75Y-150.6
X163.75Y-155.1
X167.0Y-149.95
X167.0Y-155.75
X170.25Y-150.6
X170.25Y-155.1
X171.75Y-117.75
X171.75Y-122.25
X171.75Y-127.75
X171.75Y-132.25
X171.75Y-137.75
X171.75Y-142.25
X175.0Y-117.1
X175.0Y-122.9
X175.0Y-127.1
X175.0Y-132.9
X175.0Y-137.1
X175.0Y-142.9
X178.25Y-117.75
X178.25Y-122.25
X178.25Y-127.75
X178.25Y-132.25
X178.25Y-137.75
X178.25Y-142.25
T10
X39.8Y-91.0
X46.8Y-91.0
T11
X52.3Y-92.042
X60.5Y-92.042
T12
X47.7Y-152.85
X59.9Y-152.85
T0
M30
