M48
; DRILL file {KiCad 5.1.10-88a1d61d58~90~ubuntu20.04.1} date Mon Apr 11 18:47:46 2022
; FORMAT={-:-/ absolute / inch / decimal}
; #@! TF.CreationDate,2022-04-11T18:47:46-06:00
; #@! TF.GenerationSoftware,Kicad,Pcbnew,5.1.10-88a1d61d58~90~ubuntu20.04.1
; #@! TF.FileFunction,Plated,1,2,PTH
FMAT,2
INCH
T1C0.0150
T2C0.0157
T3C0.0315
T4C0.0354
T5C0.0394
T6C0.0433
T7C0.0472
T8C0.0591
T9C0.0728
%
G90
G05
T1
X5.2913Y-3.9134
X5.3071Y-4.5315
X5.311Y-4.1378
X5.4291Y-4.3346
X5.5039Y-4.5315
X5.5079Y-4.1378
X5.5472Y-3.9409
X5.626Y-4.3346
X5.6654Y-4.1378
X5.6772Y-3.7244
X5.7008Y-4.5315
X5.7835Y-3.9409
X5.8228Y-4.3346
X5.8622Y-3.7441
X5.8976Y-4.5315
X5.9016Y-4.1378
X5.9724Y-3.6063
X5.9803Y-3.9409
X6.0197Y-4.3346
X6.0591Y-3.7441
X6.0945Y-4.5315
X6.1063Y-4.1378
X6.1772Y-3.9409
X6.2165Y-4.3346
X6.2559Y-3.7441
X6.2756Y-3.6299
X6.311Y-4.1378
X6.3346Y-4.5315
X6.3701Y-4.3346
X6.3858Y-3.6575
X6.3858Y-3.7362
X6.3858Y-3.815
X6.3858Y-3.8937
X6.3858Y-3.9724
X6.3858Y-4.0512
X6.3858Y-4.1299
X6.3858Y-4.2087
X6.3858Y-4.2717
X6.622Y-3.6496
X6.622Y-3.7283
X6.622Y-3.8071
X6.622Y-3.8858
X6.622Y-3.9646
X6.622Y-4.0433
X6.622Y-4.122
X6.622Y-4.2008
X6.622Y-4.2795
X6.8577Y-3.5715
X6.8583Y-3.6496
X6.8583Y-3.7283
X6.8583Y-3.8071
X6.8583Y-3.8858
X6.8583Y-3.9646
X6.8583Y-4.0433
X6.8583Y-4.122
X6.8583Y-4.2008
X6.8583Y-4.2795
T2
X1.5984Y-4.5118
X1.626Y-5.878
X1.6614Y-4.5276
X1.6693Y-4.7244
X1.7008Y-5.2756
X1.7323Y-5.8228
X1.7795Y-4.8504
X1.8346Y-5.874
X1.9291Y-5.4488
X1.9331Y-4.6614
X1.9528Y-4.5433
X2.0079Y-5.1811
X2.0236Y-4.3465
X2.2756Y-4.3622
X2.3189Y-4.4449
X2.3228Y-5.4488
X2.3307Y-4.6614
X2.4016Y-5.1811
X2.4488Y-4.4252
X2.6693Y-4.1969
X2.7165Y-3.9528
X2.7165Y-5.4488
X2.7283Y-4.6614
X2.7323Y-4.2677
X2.7638Y-3.9528
X2.7953Y-5.1811
X2.811Y-6.0
X2.8425Y-4.1969
X2.9093Y-3.8973
X2.9843Y-4.3622
X2.9843Y-5.1102
X2.9843Y-5.5512
X2.9921Y-4.5512
X2.9921Y-4.5984
X2.9921Y-4.811
X3.063Y-4.252
X3.0636Y-4.481
X3.0709Y-5.9774
X3.1102Y-5.4488
X3.126Y-4.4961
X3.126Y-4.6614
X3.1654Y-4.3622
X3.1654Y-5.8819
X3.189Y-5.1811
X3.2047Y-4.5591
X3.2441Y-4.4961
X3.252Y-3.8661
X3.2992Y-4.5512
X3.3386Y-4.5984
X3.4764Y-4.0394
X3.5039Y-5.4488
X3.5197Y-4.6614
X3.5591Y-4.063
X3.5591Y-4.4016
X3.5748Y-5.1811
X3.5906Y-4.0925
X3.6299Y-4.4016
X3.6299Y-6.0
X3.685Y-4.0157
X3.7087Y-4.1093
X3.7402Y-5.1181
X3.7786Y-4.0651
X3.8031Y-3.9528
X3.8504Y-4.0295
X3.8819Y-4.1654
X3.8976Y-5.4488
X3.9055Y-4.0069
X3.9134Y-4.6614
X3.9291Y-3.9843
X3.9449Y-4.5118
X3.9685Y-5.1811
X4.0079Y-4.0522
X4.0236Y-4.3858
X4.063Y-4.5197
X4.0787Y-4.5827
X4.0821Y-4.6859
X4.0929Y-4.5296
X4.1181Y-4.0522
X4.1315Y-4.5564
X4.1654Y-4.0157
X4.1715Y-4.1951
X4.1816Y-4.3415
X4.189Y-4.378
X4.189Y-5.8583
X4.2174Y-4.3307
X4.2336Y-4.1628
X4.2441Y-4.3081
X4.2913Y-5.4488
X4.2992Y-4.1339
X4.3071Y-4.2362
X4.3071Y-4.2756
X4.3071Y-4.6614
X4.3186Y-4.0824
X4.3465Y-4.253
X4.3622Y-5.1811
X4.4016Y-5.6693
X4.4094Y-5.8504
X4.622Y-4.378
X4.685Y-5.4488
X4.7008Y-4.6614
X4.7087Y-4.2362
X4.7165Y-5.8819
X4.7638Y-5.1811
X4.811Y-4.2756
X5.0157Y-4.1575
X5.0787Y-5.4488
X5.0945Y-4.6614
X5.0945Y-6.0079
X5.1496Y-5.1811
X5.2126Y-4.3465
X5.2362Y-4.3228
X5.2598Y-4.5276
X5.2677Y-4.5748
X5.3386Y-4.2598
X5.4048Y-4.2047
X5.4724Y-5.4488
X5.4882Y-4.6614
X5.5433Y-5.1811
X5.5512Y-6.0866
X5.6378Y-3.7008
X5.6614Y-3.9685
X5.6772Y-4.0079
X5.6838Y-3.891
X5.7008Y-3.8346
X5.8661Y-5.4488
X5.8819Y-4.6614
X5.937Y-5.1811
X5.9449Y-6.0866
X6.2598Y-5.4409
X6.2756Y-4.6614
X6.3307Y-6.0866
X6.3346Y-5.1811
X6.4843Y-5.8858
X6.5315Y-5.8898
X6.5433Y-4.8583
X6.5591Y-4.6378
X6.6063Y-5.2598
X6.6693Y-4.6378
X6.6929Y-4.9685
X6.7244Y-5.3228
X6.7402Y-5.8583
T3
X3.9764Y-6.0236
X4.1339Y-6.0236
X4.2126Y-6.0236
X4.2913Y-6.0236
T4
X2.6181Y-4.0079
X2.815Y-4.0079
T5
X2.0315Y-5.7638
X2.1315Y-5.7638
X2.2315Y-5.7638
X2.5591Y-4.2094
X2.5591Y-4.3094
X2.5591Y-4.4094
X3.6528Y-3.9213
X3.7528Y-3.9213
X3.8528Y-3.9213
X3.9528Y-3.9213
X4.7087Y-3.9252
X4.8087Y-3.9252
X4.9087Y-3.9252
X5.0087Y-3.9252
X5.1087Y-3.9252
T6
X1.25Y-4.6358
X1.25Y-4.813
X1.25Y-5.0295
X1.25Y-5.2067
X1.25Y-5.4232
X1.25Y-5.6004
X1.378Y-4.6102
X1.378Y-4.8386
X1.378Y-5.0039
X1.378Y-5.2323
X1.378Y-5.3976
X1.378Y-5.626
X1.5059Y-4.6358
X1.5059Y-4.813
X1.5059Y-5.0295
X1.5059Y-5.2067
X1.5059Y-5.4232
X1.5059Y-5.6004
X2.4213Y-5.935
X2.4213Y-6.1122
X2.5492Y-5.9094
X2.5492Y-6.1378
X2.6772Y-5.935
X2.6772Y-6.1122
X3.2185Y-5.935
X3.2185Y-6.1122
X3.3465Y-5.9094
X3.3465Y-6.1378
X3.4744Y-5.935
X3.4744Y-6.1122
X4.7933Y-5.935
X4.7933Y-6.1122
X4.9213Y-5.9094
X4.9213Y-6.1378
X5.0492Y-5.935
X5.0492Y-6.1122
X6.7618Y-4.6358
X6.7618Y-4.813
X6.7618Y-5.0295
X6.7618Y-5.2067
X6.7618Y-5.4232
X6.7618Y-5.6004
X6.8898Y-4.6102
X6.8898Y-4.8386
X6.8898Y-5.0039
X6.8898Y-5.2323
X6.8898Y-5.3976
X6.8898Y-5.626
X7.0177Y-4.6358
X7.0177Y-4.813
X7.0177Y-5.0295
X7.0177Y-5.2067
X7.0177Y-5.4232
X7.0177Y-5.6004
T7
X2.5787Y-3.9016
X2.8543Y-3.9016
T8
X3.8937Y-6.0236
X4.374Y-6.0236
T9
X1.7835Y-4.4232
X1.8685Y-3.9232
X1.9685Y-4.4232
X2.0685Y-3.9232
X2.1535Y-4.4232
T0
M30
