%TF.GenerationSoftware,KiCad,Pcbnew,5.1.10-88a1d61d58~90~ubuntu20.04.1*%
%TF.CreationDate,2022-04-11T18:47:40-06:00*%
%TF.ProjectId,controller,636f6e74-726f-46c6-9c65-722e6b696361,rev?*%
%TF.SameCoordinates,Original*%
%TF.FileFunction,Legend,Bot*%
%TF.FilePolarity,Positive*%
%FSLAX46Y46*%
G04 Gerber Fmt 4.6, Leading zero omitted, Abs format (unit mm)*
G04 Created by KiCad (PCBNEW 5.1.10-88a1d61d58~90~ubuntu20.04.1) date 2022-04-11 18:47:40*
%MOMM*%
%LPD*%
G01*
G04 APERTURE LIST*
%ADD10C,0.150000*%
%ADD11C,0.120000*%
G04 APERTURE END LIST*
D10*
X62261904Y-109200000D02*
X62357142Y-109152380D01*
X62500000Y-109152380D01*
X62642857Y-109200000D01*
X62738095Y-109295238D01*
X62785714Y-109390476D01*
X62833333Y-109580952D01*
X62833333Y-109723809D01*
X62785714Y-109914285D01*
X62738095Y-110009523D01*
X62642857Y-110104761D01*
X62500000Y-110152380D01*
X62404761Y-110152380D01*
X62261904Y-110104761D01*
X62214285Y-110057142D01*
X62214285Y-109723809D01*
X62404761Y-109723809D01*
X61785714Y-110152380D02*
X61785714Y-109152380D01*
X61214285Y-110152380D01*
X61214285Y-109152380D01*
X60738095Y-110152380D02*
X60738095Y-109152380D01*
X60500000Y-109152380D01*
X60357142Y-109200000D01*
X60261904Y-109295238D01*
X60214285Y-109390476D01*
X60166666Y-109580952D01*
X60166666Y-109723809D01*
X60214285Y-109914285D01*
X60261904Y-110009523D01*
X60357142Y-110104761D01*
X60500000Y-110152380D01*
X60738095Y-110152380D01*
X60961904Y-106971428D02*
X61104761Y-106923809D01*
X61152380Y-106876190D01*
X61200000Y-106780952D01*
X61200000Y-106638095D01*
X61152380Y-106542857D01*
X61104761Y-106495238D01*
X61009523Y-106447619D01*
X60628571Y-106447619D01*
X60628571Y-107447619D01*
X60961904Y-107447619D01*
X61057142Y-107400000D01*
X61104761Y-107352380D01*
X61152380Y-107257142D01*
X61152380Y-107161904D01*
X61104761Y-107066666D01*
X61057142Y-107019047D01*
X60961904Y-106971428D01*
X60628571Y-106971428D01*
X61580952Y-106733333D02*
X62057142Y-106733333D01*
X61485714Y-106447619D02*
X61819047Y-107447619D01*
X62152380Y-106447619D01*
X62342857Y-107447619D02*
X62914285Y-107447619D01*
X62628571Y-106447619D02*
X62628571Y-107447619D01*
D11*
%TO.C,J5*%
X50270000Y-147840000D02*
X58010000Y-147840000D01*
X58010000Y-147840000D02*
X58010000Y-150500000D01*
X58010000Y-150500000D02*
X50270000Y-150500000D01*
X50270000Y-150500000D02*
X50270000Y-147840000D01*
X51220000Y-150500000D02*
X51220000Y-156500000D01*
X51220000Y-156500000D02*
X51980000Y-156500000D01*
X51980000Y-156500000D02*
X51980000Y-150500000D01*
X51280000Y-150500000D02*
X51280000Y-156500000D01*
X51400000Y-150500000D02*
X51400000Y-156500000D01*
X51520000Y-150500000D02*
X51520000Y-156500000D01*
X51640000Y-150500000D02*
X51640000Y-156500000D01*
X51760000Y-150500000D02*
X51760000Y-156500000D01*
X51880000Y-150500000D02*
X51880000Y-156500000D01*
X51220000Y-147510000D02*
X51220000Y-147840000D01*
X51980000Y-147510000D02*
X51980000Y-147840000D01*
X52870000Y-147840000D02*
X52870000Y-150500000D01*
X53760000Y-150500000D02*
X53760000Y-156500000D01*
X53760000Y-156500000D02*
X54520000Y-156500000D01*
X54520000Y-156500000D02*
X54520000Y-150500000D01*
X53760000Y-147442929D02*
X53760000Y-147840000D01*
X54520000Y-147442929D02*
X54520000Y-147840000D01*
X55410000Y-147840000D02*
X55410000Y-150500000D01*
X56300000Y-150500000D02*
X56300000Y-156500000D01*
X56300000Y-156500000D02*
X57060000Y-156500000D01*
X57060000Y-156500000D02*
X57060000Y-150500000D01*
X56300000Y-147442929D02*
X56300000Y-147840000D01*
X57060000Y-147442929D02*
X57060000Y-147840000D01*
X51600000Y-145130000D02*
X50330000Y-145130000D01*
X50330000Y-145130000D02*
X50330000Y-146400000D01*
%TO.C,J2*%
X66440000Y-113330000D02*
X66440000Y-105590000D01*
X66440000Y-105590000D02*
X69100000Y-105590000D01*
X69100000Y-105590000D02*
X69100000Y-113330000D01*
X69100000Y-113330000D02*
X66440000Y-113330000D01*
X69100000Y-112380000D02*
X75100000Y-112380000D01*
X75100000Y-112380000D02*
X75100000Y-111620000D01*
X75100000Y-111620000D02*
X69100000Y-111620000D01*
X69100000Y-112320000D02*
X75100000Y-112320000D01*
X69100000Y-112200000D02*
X75100000Y-112200000D01*
X69100000Y-112080000D02*
X75100000Y-112080000D01*
X69100000Y-111960000D02*
X75100000Y-111960000D01*
X69100000Y-111840000D02*
X75100000Y-111840000D01*
X69100000Y-111720000D02*
X75100000Y-111720000D01*
X66110000Y-112380000D02*
X66440000Y-112380000D01*
X66110000Y-111620000D02*
X66440000Y-111620000D01*
X66440000Y-110730000D02*
X69100000Y-110730000D01*
X69100000Y-109840000D02*
X75100000Y-109840000D01*
X75100000Y-109840000D02*
X75100000Y-109080000D01*
X75100000Y-109080000D02*
X69100000Y-109080000D01*
X66042929Y-109840000D02*
X66440000Y-109840000D01*
X66042929Y-109080000D02*
X66440000Y-109080000D01*
X66440000Y-108190000D02*
X69100000Y-108190000D01*
X69100000Y-107300000D02*
X75100000Y-107300000D01*
X75100000Y-107300000D02*
X75100000Y-106540000D01*
X75100000Y-106540000D02*
X69100000Y-106540000D01*
X66042929Y-107300000D02*
X66440000Y-107300000D01*
X66042929Y-106540000D02*
X66440000Y-106540000D01*
X63730000Y-112000000D02*
X63730000Y-113270000D01*
X63730000Y-113270000D02*
X65000000Y-113270000D01*
%TO.C,SW9*%
D10*
X64369047Y-154371428D02*
X65130952Y-154371428D01*
X64369047Y-151671428D02*
X65130952Y-151671428D01*
X64750000Y-152052380D02*
X64750000Y-151290476D01*
%TO.C,SW8*%
X84619047Y-154371428D02*
X85380952Y-154371428D01*
X84619047Y-151671428D02*
X85380952Y-151671428D01*
X85000000Y-152052380D02*
X85000000Y-151290476D01*
%TO.C,SW7*%
X124619047Y-154371428D02*
X125380952Y-154371428D01*
X124619047Y-151671428D02*
X125380952Y-151671428D01*
X125000000Y-152052380D02*
X125000000Y-151290476D01*
%TO.C,SW6*%
X174619047Y-141371428D02*
X175380952Y-141371428D01*
X174619047Y-138671428D02*
X175380952Y-138671428D01*
X175000000Y-139052380D02*
X175000000Y-138290476D01*
%TO.C,SW5*%
X174619047Y-131371428D02*
X175380952Y-131371428D01*
X174619047Y-128671428D02*
X175380952Y-128671428D01*
X175000000Y-129052380D02*
X175000000Y-128290476D01*
%TO.C,SW4*%
X174619047Y-121371428D02*
X175380952Y-121371428D01*
X174619047Y-118671428D02*
X175380952Y-118671428D01*
X175000000Y-119052380D02*
X175000000Y-118290476D01*
%TO.C,SW3*%
X34619047Y-141371428D02*
X35380952Y-141371428D01*
X34619047Y-138671428D02*
X35380952Y-138671428D01*
X35000000Y-139052380D02*
X35000000Y-138290476D01*
%TO.C,SW2*%
X34619047Y-131371428D02*
X35380952Y-131371428D01*
X34619047Y-128671428D02*
X35380952Y-128671428D01*
X35000000Y-129052380D02*
X35000000Y-128290476D01*
%TO.C,SW1*%
X34619047Y-121371428D02*
X35380952Y-121371428D01*
X34619047Y-118671428D02*
X35380952Y-118671428D01*
X35000000Y-119052380D02*
X35000000Y-118290476D01*
%TD*%
M02*
