%TF.GenerationSoftware,KiCad,Pcbnew,5.1.10-88a1d61d58~90~ubuntu20.04.1*%
%TF.CreationDate,2022-04-11T18:47:40-06:00*%
%TF.ProjectId,controller,636f6e74-726f-46c6-9c65-722e6b696361,rev?*%
%TF.SameCoordinates,Original*%
%TF.FileFunction,Legend,Top*%
%TF.FilePolarity,Positive*%
%FSLAX46Y46*%
G04 Gerber Fmt 4.6, Leading zero omitted, Abs format (unit mm)*
G04 Created by KiCad (PCBNEW 5.1.10-88a1d61d58~90~ubuntu20.04.1) date 2022-04-11 18:47:40*
%MOMM*%
%LPD*%
G01*
G04 APERTURE LIST*
%ADD10C,0.150000*%
%ADD11C,0.200000*%
%ADD12C,0.120000*%
%ADD13C,0.127000*%
%ADD14C,0.203200*%
G04 APERTURE END LIST*
D10*
X111528571Y-101933333D02*
X111576190Y-101790476D01*
X111623809Y-101742857D01*
X111719047Y-101695238D01*
X111861904Y-101695238D01*
X111957142Y-101742857D01*
X112004761Y-101790476D01*
X112052380Y-101885714D01*
X112052380Y-102266666D01*
X111052380Y-102266666D01*
X111052380Y-101933333D01*
X111100000Y-101838095D01*
X111147619Y-101790476D01*
X111242857Y-101742857D01*
X111338095Y-101742857D01*
X111433333Y-101790476D01*
X111480952Y-101838095D01*
X111528571Y-101933333D01*
X111528571Y-102266666D01*
X111052380Y-101076190D02*
X111052380Y-100885714D01*
X111100000Y-100790476D01*
X111195238Y-100695238D01*
X111385714Y-100647619D01*
X111719047Y-100647619D01*
X111909523Y-100695238D01*
X112004761Y-100790476D01*
X112052380Y-100885714D01*
X112052380Y-101076190D01*
X112004761Y-101171428D01*
X111909523Y-101266666D01*
X111719047Y-101314285D01*
X111385714Y-101314285D01*
X111195238Y-101266666D01*
X111100000Y-101171428D01*
X111052380Y-101076190D01*
X111052380Y-100028571D02*
X111052380Y-99838095D01*
X111100000Y-99742857D01*
X111195238Y-99647619D01*
X111385714Y-99600000D01*
X111719047Y-99600000D01*
X111909523Y-99647619D01*
X112004761Y-99742857D01*
X112052380Y-99838095D01*
X112052380Y-100028571D01*
X112004761Y-100123809D01*
X111909523Y-100219047D01*
X111719047Y-100266666D01*
X111385714Y-100266666D01*
X111195238Y-100219047D01*
X111100000Y-100123809D01*
X111052380Y-100028571D01*
X111052380Y-99314285D02*
X111052380Y-98742857D01*
X112052380Y-99028571D02*
X111052380Y-99028571D01*
X111052380Y-98219047D02*
X111052380Y-98123809D01*
X111100000Y-98028571D01*
X111147619Y-97980952D01*
X111242857Y-97933333D01*
X111433333Y-97885714D01*
X111671428Y-97885714D01*
X111861904Y-97933333D01*
X111957142Y-97980952D01*
X112004761Y-98028571D01*
X112052380Y-98123809D01*
X112052380Y-98219047D01*
X112004761Y-98314285D01*
X111957142Y-98361904D01*
X111861904Y-98409523D01*
X111671428Y-98457142D01*
X111433333Y-98457142D01*
X111242857Y-98409523D01*
X111147619Y-98361904D01*
X111100000Y-98314285D01*
X111052380Y-98219047D01*
X103452380Y-99847619D02*
X102976190Y-100180952D01*
X103452380Y-100419047D02*
X102452380Y-100419047D01*
X102452380Y-100038095D01*
X102500000Y-99942857D01*
X102547619Y-99895238D01*
X102642857Y-99847619D01*
X102785714Y-99847619D01*
X102880952Y-99895238D01*
X102928571Y-99942857D01*
X102976190Y-100038095D01*
X102976190Y-100419047D01*
X103404761Y-99466666D02*
X103452380Y-99323809D01*
X103452380Y-99085714D01*
X103404761Y-98990476D01*
X103357142Y-98942857D01*
X103261904Y-98895238D01*
X103166666Y-98895238D01*
X103071428Y-98942857D01*
X103023809Y-98990476D01*
X102976190Y-99085714D01*
X102928571Y-99276190D01*
X102880952Y-99371428D01*
X102833333Y-99419047D01*
X102738095Y-99466666D01*
X102642857Y-99466666D01*
X102547619Y-99419047D01*
X102500000Y-99371428D01*
X102452380Y-99276190D01*
X102452380Y-99038095D01*
X102500000Y-98895238D01*
X102452380Y-98609523D02*
X102452380Y-98038095D01*
X103452380Y-98323809D02*
X102452380Y-98323809D01*
X76557142Y-99452380D02*
X76223809Y-98976190D01*
X75985714Y-99452380D02*
X75985714Y-98452380D01*
X76366666Y-98452380D01*
X76461904Y-98500000D01*
X76509523Y-98547619D01*
X76557142Y-98642857D01*
X76557142Y-98785714D01*
X76509523Y-98880952D01*
X76461904Y-98928571D01*
X76366666Y-98976190D01*
X75985714Y-98976190D01*
X76985714Y-98928571D02*
X77319047Y-98928571D01*
X77461904Y-99452380D02*
X76985714Y-99452380D01*
X76985714Y-98452380D01*
X77461904Y-98452380D01*
X77890476Y-99452380D02*
X77890476Y-98452380D01*
X78128571Y-98452380D01*
X78271428Y-98500000D01*
X78366666Y-98595238D01*
X78414285Y-98690476D01*
X78461904Y-98880952D01*
X78461904Y-99023809D01*
X78414285Y-99214285D01*
X78366666Y-99309523D01*
X78271428Y-99404761D01*
X78128571Y-99452380D01*
X77890476Y-99452380D01*
X87538095Y-98600000D02*
X87442857Y-98552380D01*
X87300000Y-98552380D01*
X87157142Y-98600000D01*
X87061904Y-98695238D01*
X87014285Y-98790476D01*
X86966666Y-98980952D01*
X86966666Y-99123809D01*
X87014285Y-99314285D01*
X87061904Y-99409523D01*
X87157142Y-99504761D01*
X87300000Y-99552380D01*
X87395238Y-99552380D01*
X87538095Y-99504761D01*
X87585714Y-99457142D01*
X87585714Y-99123809D01*
X87395238Y-99123809D01*
X88585714Y-99552380D02*
X88252380Y-99076190D01*
X88014285Y-99552380D02*
X88014285Y-98552380D01*
X88395238Y-98552380D01*
X88490476Y-98600000D01*
X88538095Y-98647619D01*
X88585714Y-98742857D01*
X88585714Y-98885714D01*
X88538095Y-98980952D01*
X88490476Y-99028571D01*
X88395238Y-99076190D01*
X88014285Y-99076190D01*
X89014285Y-99552380D02*
X89014285Y-98552380D01*
X89585714Y-99552380D01*
X89585714Y-98552380D01*
X64080952Y-108428571D02*
X63319047Y-108428571D01*
X64080952Y-105628571D02*
X63319047Y-105628571D01*
X63700000Y-105247619D02*
X63700000Y-106009523D01*
X118885714Y-102666666D02*
X119361904Y-102666666D01*
X118790476Y-102952380D02*
X119123809Y-101952380D01*
X119457142Y-102952380D01*
X120314285Y-102952380D02*
X119742857Y-102952380D01*
X120028571Y-102952380D02*
X120028571Y-101952380D01*
X119933333Y-102095238D01*
X119838095Y-102190476D01*
X119742857Y-102238095D01*
X121085714Y-102666666D02*
X121561904Y-102666666D01*
X120990476Y-102952380D02*
X121323809Y-101952380D01*
X121657142Y-102952380D01*
X122180952Y-101952380D02*
X122276190Y-101952380D01*
X122371428Y-102000000D01*
X122419047Y-102047619D01*
X122466666Y-102142857D01*
X122514285Y-102333333D01*
X122514285Y-102571428D01*
X122466666Y-102761904D01*
X122419047Y-102857142D01*
X122371428Y-102904761D01*
X122276190Y-102952380D01*
X122180952Y-102952380D01*
X122085714Y-102904761D01*
X122038095Y-102857142D01*
X121990476Y-102761904D01*
X121942857Y-102571428D01*
X121942857Y-102333333D01*
X121990476Y-102142857D01*
X122038095Y-102047619D01*
X122085714Y-102000000D01*
X122180952Y-101952380D01*
X123761904Y-102428571D02*
X123904761Y-102476190D01*
X123952380Y-102523809D01*
X124000000Y-102619047D01*
X124000000Y-102761904D01*
X123952380Y-102857142D01*
X123904761Y-102904761D01*
X123809523Y-102952380D01*
X123428571Y-102952380D01*
X123428571Y-101952380D01*
X123761904Y-101952380D01*
X123857142Y-102000000D01*
X123904761Y-102047619D01*
X123952380Y-102142857D01*
X123952380Y-102238095D01*
X123904761Y-102333333D01*
X123857142Y-102380952D01*
X123761904Y-102428571D01*
X123428571Y-102428571D01*
X124380952Y-102666666D02*
X124857142Y-102666666D01*
X124285714Y-102952380D02*
X124619047Y-101952380D01*
X124952380Y-102952380D01*
X125142857Y-101952380D02*
X125714285Y-101952380D01*
X125428571Y-102952380D02*
X125428571Y-101952380D01*
X126261904Y-101952380D02*
X126880952Y-101952380D01*
X126547619Y-102333333D01*
X126690476Y-102333333D01*
X126785714Y-102380952D01*
X126833333Y-102428571D01*
X126880952Y-102523809D01*
X126880952Y-102761904D01*
X126833333Y-102857142D01*
X126785714Y-102904761D01*
X126690476Y-102952380D01*
X126404761Y-102952380D01*
X126309523Y-102904761D01*
X126261904Y-102857142D01*
X127166666Y-101952380D02*
X127500000Y-102952380D01*
X127833333Y-101952380D01*
X128071428Y-101952380D02*
X128690476Y-101952380D01*
X128357142Y-102333333D01*
X128500000Y-102333333D01*
X128595238Y-102380952D01*
X128642857Y-102428571D01*
X128690476Y-102523809D01*
X128690476Y-102761904D01*
X128642857Y-102857142D01*
X128595238Y-102904761D01*
X128500000Y-102952380D01*
X128214285Y-102952380D01*
X128119047Y-102904761D01*
X128071428Y-102857142D01*
X130061904Y-101900000D02*
X129966666Y-101852380D01*
X129823809Y-101852380D01*
X129680952Y-101900000D01*
X129585714Y-101995238D01*
X129538095Y-102090476D01*
X129490476Y-102280952D01*
X129490476Y-102423809D01*
X129538095Y-102614285D01*
X129585714Y-102709523D01*
X129680952Y-102804761D01*
X129823809Y-102852380D01*
X129919047Y-102852380D01*
X130061904Y-102804761D01*
X130109523Y-102757142D01*
X130109523Y-102423809D01*
X129919047Y-102423809D01*
X99561904Y-101752380D02*
X100180952Y-101752380D01*
X99847619Y-102133333D01*
X99990476Y-102133333D01*
X100085714Y-102180952D01*
X100133333Y-102228571D01*
X100180952Y-102323809D01*
X100180952Y-102561904D01*
X100133333Y-102657142D01*
X100085714Y-102704761D01*
X99990476Y-102752380D01*
X99704761Y-102752380D01*
X99609523Y-102704761D01*
X99561904Y-102657142D01*
X100466666Y-101752380D02*
X100800000Y-102752380D01*
X101133333Y-101752380D01*
X101371428Y-101752380D02*
X101990476Y-101752380D01*
X101657142Y-102133333D01*
X101800000Y-102133333D01*
X101895238Y-102180952D01*
X101942857Y-102228571D01*
X101990476Y-102323809D01*
X101990476Y-102561904D01*
X101942857Y-102657142D01*
X101895238Y-102704761D01*
X101800000Y-102752380D01*
X101514285Y-102752380D01*
X101419047Y-102704761D01*
X101371428Y-102657142D01*
X98061904Y-101800000D02*
X97966666Y-101752380D01*
X97823809Y-101752380D01*
X97680952Y-101800000D01*
X97585714Y-101895238D01*
X97538095Y-101990476D01*
X97490476Y-102180952D01*
X97490476Y-102323809D01*
X97538095Y-102514285D01*
X97585714Y-102609523D01*
X97680952Y-102704761D01*
X97823809Y-102752380D01*
X97919047Y-102752380D01*
X98061904Y-102704761D01*
X98109523Y-102657142D01*
X98109523Y-102323809D01*
X97919047Y-102323809D01*
X94676190Y-102652380D02*
X94676190Y-101652380D01*
X95342857Y-101652380D02*
X95533333Y-101652380D01*
X95628571Y-101700000D01*
X95723809Y-101795238D01*
X95771428Y-101985714D01*
X95771428Y-102319047D01*
X95723809Y-102509523D01*
X95628571Y-102604761D01*
X95533333Y-102652380D01*
X95342857Y-102652380D01*
X95247619Y-102604761D01*
X95152380Y-102509523D01*
X95104761Y-102319047D01*
X95104761Y-101985714D01*
X95152380Y-101795238D01*
X95247619Y-101700000D01*
X95342857Y-101652380D01*
X91904761Y-102557142D02*
X91857142Y-102604761D01*
X91714285Y-102652380D01*
X91619047Y-102652380D01*
X91476190Y-102604761D01*
X91380952Y-102509523D01*
X91333333Y-102414285D01*
X91285714Y-102223809D01*
X91285714Y-102080952D01*
X91333333Y-101890476D01*
X91380952Y-101795238D01*
X91476190Y-101700000D01*
X91619047Y-101652380D01*
X91714285Y-101652380D01*
X91857142Y-101700000D01*
X91904761Y-101747619D01*
X92809523Y-102652380D02*
X92333333Y-102652380D01*
X92333333Y-101652380D01*
X93142857Y-102652380D02*
X93142857Y-101652380D01*
X93714285Y-102652380D02*
X93285714Y-102080952D01*
X93714285Y-101652380D02*
X93142857Y-102223809D01*
X38957142Y-99152380D02*
X38861904Y-99104761D01*
X38814285Y-99057142D01*
X38766666Y-98961904D01*
X38766666Y-98676190D01*
X38814285Y-98580952D01*
X38861904Y-98533333D01*
X38957142Y-98485714D01*
X39100000Y-98485714D01*
X39195238Y-98533333D01*
X39242857Y-98580952D01*
X39290476Y-98676190D01*
X39290476Y-98961904D01*
X39242857Y-99057142D01*
X39195238Y-99104761D01*
X39100000Y-99152380D01*
X38957142Y-99152380D01*
X39576190Y-98485714D02*
X39957142Y-98485714D01*
X39719047Y-99152380D02*
X39719047Y-98295238D01*
X39766666Y-98200000D01*
X39861904Y-98152380D01*
X39957142Y-98152380D01*
X40147619Y-98485714D02*
X40528571Y-98485714D01*
X40290476Y-99152380D02*
X40290476Y-98295238D01*
X40338095Y-98200000D01*
X40433333Y-98152380D01*
X40528571Y-98152380D01*
X59676190Y-98952380D02*
X59580952Y-98904761D01*
X59533333Y-98857142D01*
X59485714Y-98761904D01*
X59485714Y-98476190D01*
X59533333Y-98380952D01*
X59580952Y-98333333D01*
X59676190Y-98285714D01*
X59819047Y-98285714D01*
X59914285Y-98333333D01*
X59961904Y-98380952D01*
X60009523Y-98476190D01*
X60009523Y-98761904D01*
X59961904Y-98857142D01*
X59914285Y-98904761D01*
X59819047Y-98952380D01*
X59676190Y-98952380D01*
X60438095Y-98285714D02*
X60438095Y-98952380D01*
X60438095Y-98380952D02*
X60485714Y-98333333D01*
X60580952Y-98285714D01*
X60723809Y-98285714D01*
X60819047Y-98333333D01*
X60866666Y-98428571D01*
X60866666Y-98952380D01*
D11*
X135135714Y-145678571D02*
X135707142Y-145678571D01*
X135350000Y-146678571D02*
X135350000Y-145392857D01*
X135421428Y-145250000D01*
X135564285Y-145178571D01*
X135707142Y-145178571D01*
X136207142Y-146678571D02*
X136207142Y-145678571D01*
X136207142Y-145178571D02*
X136135714Y-145250000D01*
X136207142Y-145321428D01*
X136278571Y-145250000D01*
X136207142Y-145178571D01*
X136207142Y-145321428D01*
X136921428Y-146678571D02*
X136921428Y-145678571D01*
X136921428Y-145964285D02*
X136992857Y-145821428D01*
X137064285Y-145750000D01*
X137207142Y-145678571D01*
X137350000Y-145678571D01*
X138421428Y-146607142D02*
X138278571Y-146678571D01*
X137992857Y-146678571D01*
X137850000Y-146607142D01*
X137778571Y-146464285D01*
X137778571Y-145892857D01*
X137850000Y-145750000D01*
X137992857Y-145678571D01*
X138278571Y-145678571D01*
X138421428Y-145750000D01*
X138492857Y-145892857D01*
X138492857Y-146035714D01*
X137778571Y-146178571D01*
X138921428Y-145678571D02*
X139492857Y-145678571D01*
X139135714Y-146678571D02*
X139135714Y-145392857D01*
X139207142Y-145250000D01*
X139350000Y-145178571D01*
X139492857Y-145178571D01*
X140207142Y-146678571D02*
X140064285Y-146607142D01*
X139992857Y-146464285D01*
X139992857Y-145178571D01*
X140635714Y-145678571D02*
X140992857Y-146678571D01*
X141350000Y-145678571D02*
X140992857Y-146678571D01*
X140850000Y-147035714D01*
X140778571Y-147107142D01*
X140635714Y-147178571D01*
X141921428Y-146107142D02*
X143064285Y-146107142D01*
X144421428Y-146607142D02*
X144278571Y-146678571D01*
X143992857Y-146678571D01*
X143850000Y-146607142D01*
X143778571Y-146535714D01*
X143707142Y-146392857D01*
X143707142Y-145964285D01*
X143778571Y-145821428D01*
X143850000Y-145750000D01*
X143992857Y-145678571D01*
X144278571Y-145678571D01*
X144421428Y-145750000D01*
X145278571Y-146678571D02*
X145135714Y-146607142D01*
X145064285Y-146535714D01*
X144992857Y-146392857D01*
X144992857Y-145964285D01*
X145064285Y-145821428D01*
X145135714Y-145750000D01*
X145278571Y-145678571D01*
X145492857Y-145678571D01*
X145635714Y-145750000D01*
X145707142Y-145821428D01*
X145778571Y-145964285D01*
X145778571Y-146392857D01*
X145707142Y-146535714D01*
X145635714Y-146607142D01*
X145492857Y-146678571D01*
X145278571Y-146678571D01*
X146421428Y-145678571D02*
X146421428Y-146678571D01*
X146421428Y-145821428D02*
X146492857Y-145750000D01*
X146635714Y-145678571D01*
X146850000Y-145678571D01*
X146992857Y-145750000D01*
X147064285Y-145892857D01*
X147064285Y-146678571D01*
X147564285Y-145678571D02*
X148135714Y-145678571D01*
X147778571Y-145178571D02*
X147778571Y-146464285D01*
X147850000Y-146607142D01*
X147992857Y-146678571D01*
X148135714Y-146678571D01*
X148635714Y-146678571D02*
X148635714Y-145678571D01*
X148635714Y-145964285D02*
X148707142Y-145821428D01*
X148778571Y-145750000D01*
X148921428Y-145678571D01*
X149064285Y-145678571D01*
X149778571Y-146678571D02*
X149635714Y-146607142D01*
X149564285Y-146535714D01*
X149492857Y-146392857D01*
X149492857Y-145964285D01*
X149564285Y-145821428D01*
X149635714Y-145750000D01*
X149778571Y-145678571D01*
X149992857Y-145678571D01*
X150135714Y-145750000D01*
X150207142Y-145821428D01*
X150278571Y-145964285D01*
X150278571Y-146392857D01*
X150207142Y-146535714D01*
X150135714Y-146607142D01*
X149992857Y-146678571D01*
X149778571Y-146678571D01*
X151135714Y-146678571D02*
X150992857Y-146607142D01*
X150921428Y-146464285D01*
X150921428Y-145178571D01*
X151921428Y-146678571D02*
X151778571Y-146607142D01*
X151707142Y-146464285D01*
X151707142Y-145178571D01*
X153064285Y-146607142D02*
X152921428Y-146678571D01*
X152635714Y-146678571D01*
X152492857Y-146607142D01*
X152421428Y-146464285D01*
X152421428Y-145892857D01*
X152492857Y-145750000D01*
X152635714Y-145678571D01*
X152921428Y-145678571D01*
X153064285Y-145750000D01*
X153135714Y-145892857D01*
X153135714Y-146035714D01*
X152421428Y-146178571D01*
X153778571Y-146678571D02*
X153778571Y-145678571D01*
X153778571Y-145964285D02*
X153850000Y-145821428D01*
X153921428Y-145750000D01*
X154064285Y-145678571D01*
X154207142Y-145678571D01*
X155707142Y-145678571D02*
X156064285Y-146678571D01*
X156421428Y-145678571D01*
X157778571Y-146678571D02*
X156921428Y-146678571D01*
X157350000Y-146678571D02*
X157350000Y-145178571D01*
X157207142Y-145392857D01*
X157064285Y-145535714D01*
X156921428Y-145607142D01*
X158421428Y-146535714D02*
X158492857Y-146607142D01*
X158421428Y-146678571D01*
X158350000Y-146607142D01*
X158421428Y-146535714D01*
X158421428Y-146678571D01*
X159421428Y-145178571D02*
X159564285Y-145178571D01*
X159707142Y-145250000D01*
X159778571Y-145321428D01*
X159850000Y-145464285D01*
X159921428Y-145750000D01*
X159921428Y-146107142D01*
X159850000Y-146392857D01*
X159778571Y-146535714D01*
X159707142Y-146607142D01*
X159564285Y-146678571D01*
X159421428Y-146678571D01*
X159278571Y-146607142D01*
X159207142Y-146535714D01*
X159135714Y-146392857D01*
X159064285Y-146107142D01*
X159064285Y-145750000D01*
X159135714Y-145464285D01*
X159207142Y-145321428D01*
X159278571Y-145250000D01*
X159421428Y-145178571D01*
D10*
%TO.C,SW9*%
X60350000Y-157000000D02*
X69150000Y-157000000D01*
X60350000Y-149000000D02*
X60350000Y-157000000D01*
X69150000Y-149000000D02*
X69150000Y-157000000D01*
X60350000Y-149000000D02*
X69150000Y-149000000D01*
%TO.C,SW8*%
X80600000Y-157000000D02*
X89400000Y-157000000D01*
X80600000Y-149000000D02*
X80600000Y-157000000D01*
X89400000Y-149000000D02*
X89400000Y-157000000D01*
X80600000Y-149000000D02*
X89400000Y-149000000D01*
%TO.C,SW7*%
X120600000Y-157000000D02*
X129400000Y-157000000D01*
X120600000Y-149000000D02*
X120600000Y-157000000D01*
X129400000Y-149000000D02*
X129400000Y-157000000D01*
X120600000Y-149000000D02*
X129400000Y-149000000D01*
%TO.C,SW6*%
X170600000Y-144000000D02*
X179400000Y-144000000D01*
X170600000Y-136000000D02*
X170600000Y-144000000D01*
X179400000Y-136000000D02*
X179400000Y-144000000D01*
X170600000Y-136000000D02*
X179400000Y-136000000D01*
%TO.C,SW5*%
X170600000Y-134000000D02*
X179400000Y-134000000D01*
X170600000Y-126000000D02*
X170600000Y-134000000D01*
X179400000Y-126000000D02*
X179400000Y-134000000D01*
X170600000Y-126000000D02*
X179400000Y-126000000D01*
%TO.C,SW4*%
X170600000Y-124000000D02*
X179400000Y-124000000D01*
X170600000Y-116000000D02*
X170600000Y-124000000D01*
X179400000Y-116000000D02*
X179400000Y-124000000D01*
X170600000Y-116000000D02*
X179400000Y-116000000D01*
%TO.C,SW3*%
X30600000Y-144000000D02*
X39400000Y-144000000D01*
X30600000Y-136000000D02*
X30600000Y-144000000D01*
X39400000Y-136000000D02*
X39400000Y-144000000D01*
X30600000Y-136000000D02*
X39400000Y-136000000D01*
%TO.C,SW2*%
X30600000Y-134000000D02*
X39400000Y-134000000D01*
X30600000Y-126000000D02*
X30600000Y-134000000D01*
X39400000Y-126000000D02*
X39400000Y-134000000D01*
X30600000Y-126000000D02*
X39400000Y-126000000D01*
%TO.C,SW1*%
X30600000Y-124000000D02*
X39400000Y-124000000D01*
X30600000Y-116000000D02*
X30600000Y-124000000D01*
X39400000Y-116000000D02*
X39400000Y-124000000D01*
X30600000Y-116000000D02*
X39400000Y-116000000D01*
D12*
%TO.C,U4*%
X72240000Y-152000000D02*
X72240000Y-153950000D01*
X72240000Y-152000000D02*
X72240000Y-150050000D01*
X77360000Y-152000000D02*
X77360000Y-153950000D01*
X77360000Y-152000000D02*
X77360000Y-148550000D01*
%TO.C,U3*%
X165240000Y-148700000D02*
X165240000Y-150650000D01*
X165240000Y-148700000D02*
X165240000Y-146750000D01*
X170360000Y-148700000D02*
X170360000Y-150650000D01*
X170360000Y-148700000D02*
X170360000Y-145250000D01*
%TO.C,U1*%
X40640000Y-148900000D02*
X40640000Y-150850000D01*
X40640000Y-148900000D02*
X40640000Y-146950000D01*
X45760000Y-148900000D02*
X45760000Y-150850000D01*
X45760000Y-148900000D02*
X45760000Y-145450000D01*
%TO.C,R35*%
X48822500Y-145962742D02*
X48822500Y-146437258D01*
X47777500Y-145962742D02*
X47777500Y-146437258D01*
%TO.C,C25*%
X78840000Y-109984165D02*
X78840000Y-110215835D01*
X79560000Y-109984165D02*
X79560000Y-110215835D01*
%TO.C,D51*%
X68150000Y-103300000D02*
X68150000Y-105850000D01*
X66450000Y-103300000D02*
X66450000Y-105850000D01*
X68150000Y-103300000D02*
X66450000Y-103300000D01*
%TO.C,D50*%
X70250000Y-103300000D02*
X70250000Y-105850000D01*
X68550000Y-103300000D02*
X68550000Y-105850000D01*
X70250000Y-103300000D02*
X68550000Y-103300000D01*
%TO.C,C10*%
X108084165Y-148360000D02*
X108315835Y-148360000D01*
X108084165Y-147640000D02*
X108315835Y-147640000D01*
%TO.C,C8*%
X132240000Y-151784165D02*
X132240000Y-152015835D01*
X132960000Y-151784165D02*
X132960000Y-152015835D01*
%TO.C,C4*%
X167140000Y-116984165D02*
X167140000Y-117215835D01*
X167860000Y-116984165D02*
X167860000Y-117215835D01*
%TO.C,C2*%
X42040000Y-118184165D02*
X42040000Y-118415835D01*
X42760000Y-118184165D02*
X42760000Y-118415835D01*
D11*
%TO.C,U7*%
X72305000Y-107855000D02*
G75*
G03*
X72305000Y-107855000I-100000J0D01*
G01*
D13*
X72250000Y-110300000D02*
X72250000Y-114300000D01*
X67150000Y-110300000D02*
X67150000Y-114300000D01*
%TO.C,J4*%
X72500000Y-97850000D02*
X72500000Y-97000000D01*
X72500000Y-97000000D02*
X72500000Y-96950000D01*
X65500000Y-97850000D02*
X65500000Y-96950000D01*
X74250000Y-97650000D02*
X64500000Y-97650000D01*
X72100000Y-97000000D02*
X72100000Y-97300000D01*
X72100000Y-97300000D02*
X71800000Y-97300000D01*
X65500000Y-97850000D02*
X65500000Y-97000000D01*
X65500000Y-97000000D02*
X65500000Y-96950000D01*
X65900000Y-97000000D02*
X65900000Y-97300000D01*
X65900000Y-97300000D02*
X66200000Y-97300000D01*
X71400000Y-96900000D02*
X66700000Y-96900000D01*
X66200000Y-97300000D02*
G75*
G02*
X66600000Y-96900000I400000J0D01*
G01*
X65100000Y-96200000D02*
G75*
G02*
X65900000Y-97000000I0J-800000D01*
G01*
X65500000Y-97000000D02*
G75*
G03*
X65000000Y-96500000I-500000J0D01*
G01*
X71800000Y-97300000D02*
G75*
G03*
X71400000Y-96900000I-400000J0D01*
G01*
X72900000Y-96200000D02*
G75*
G03*
X72100000Y-97000000I0J-800000D01*
G01*
X72500000Y-97000000D02*
G75*
G02*
X73000000Y-96500000I500000J0D01*
G01*
D12*
%TO.C,U2*%
X104210000Y-105440000D02*
X104210000Y-104990000D01*
X104210000Y-104990000D02*
X103760000Y-104990000D01*
X104210000Y-111760000D02*
X104210000Y-112210000D01*
X104210000Y-112210000D02*
X103760000Y-112210000D01*
X96990000Y-105440000D02*
X96990000Y-104990000D01*
X96990000Y-104990000D02*
X97440000Y-104990000D01*
X96990000Y-111760000D02*
X96990000Y-112210000D01*
X96990000Y-112210000D02*
X97440000Y-112210000D01*
X97440000Y-112210000D02*
X97440000Y-113500000D01*
%TO.C,R34*%
X108962742Y-100877500D02*
X109437258Y-100877500D01*
X108962742Y-101922500D02*
X109437258Y-101922500D01*
%TO.C,JP2*%
X107800000Y-99500000D02*
X107800000Y-98900000D01*
X109900000Y-100200000D02*
X108500000Y-100200000D01*
X110600000Y-98900000D02*
X110600000Y-99500000D01*
X108500000Y-98200000D02*
X109900000Y-98200000D01*
X107800000Y-98900000D02*
G75*
G02*
X108500000Y-98200000I700000J0D01*
G01*
X108500000Y-100200000D02*
G75*
G02*
X107800000Y-99500000I0J700000D01*
G01*
X110600000Y-99500000D02*
G75*
G02*
X109900000Y-100200000I-700000J0D01*
G01*
X109900000Y-98200000D02*
G75*
G02*
X110600000Y-98900000I0J-700000D01*
G01*
%TO.C,C24*%
X109084165Y-102440000D02*
X109315835Y-102440000D01*
X109084165Y-103160000D02*
X109315835Y-103160000D01*
%TO.C,C23*%
X101715835Y-114860000D02*
X101484165Y-114860000D01*
X101715835Y-114140000D02*
X101484165Y-114140000D01*
%TO.C,C22*%
X94440000Y-111215835D02*
X94440000Y-110984165D01*
X95160000Y-111215835D02*
X95160000Y-110984165D01*
%TO.C,C21*%
X97515835Y-103160000D02*
X97284165Y-103160000D01*
X97515835Y-102440000D02*
X97284165Y-102440000D01*
%TO.C,C20*%
X93910000Y-110959420D02*
X93910000Y-111240580D01*
X92890000Y-110959420D02*
X92890000Y-111240580D01*
D13*
%TO.C,S1*%
X98700000Y-155150000D02*
X98700000Y-150850000D01*
X111300000Y-155150000D02*
X98700000Y-155150000D01*
X111300000Y-150850000D02*
X111300000Y-155150000D01*
X98700000Y-150850000D02*
X111300000Y-150850000D01*
D14*
%TO.C,U6*%
X150202160Y-97047960D02*
X150202160Y-95048980D01*
X150202160Y-97047960D02*
X152198600Y-97047960D01*
X152198600Y-97047960D02*
X152198600Y-95048980D01*
X150202160Y-95048980D02*
X152198600Y-95048980D01*
X153698980Y-103800000D02*
X153698980Y-99802040D01*
X149701020Y-103800000D02*
X153698980Y-103800000D01*
X149701020Y-99802040D02*
X149701020Y-103800000D01*
X153698980Y-99802040D02*
X149701020Y-99802040D01*
X143701540Y-107798460D02*
X143701540Y-91801540D01*
X159698460Y-91801540D02*
X159698460Y-107798460D01*
D10*
X159700000Y-107800000D02*
X158450000Y-107800000D01*
X156950000Y-107800000D02*
X156450000Y-107800000D01*
X154950000Y-107800000D02*
X154450000Y-107800000D01*
X152950000Y-107800000D02*
X152450000Y-107800000D01*
X150950000Y-107800000D02*
X150450000Y-107800000D01*
X148950000Y-107800000D02*
X148450000Y-107800000D01*
X146950000Y-107800000D02*
X146450000Y-107800000D01*
X144950000Y-107800000D02*
X143700000Y-107800000D01*
X143700000Y-91800000D02*
X144950000Y-91800000D01*
X146450000Y-91800000D02*
X146950000Y-91800000D01*
X148450000Y-91800000D02*
X148950000Y-91800000D01*
X150450000Y-91800000D02*
X150950000Y-91800000D01*
X152450000Y-91800000D02*
X152950000Y-91800000D01*
X154450000Y-91800000D02*
X154950000Y-91800000D01*
X156450000Y-91800000D02*
X156950000Y-91800000D01*
X158450000Y-91800000D02*
X159700000Y-91800000D01*
D12*
%TO.C,D49*%
X136350000Y-150250000D02*
X143650000Y-150250000D01*
X136350000Y-155750000D02*
X143650000Y-155750000D01*
X143650000Y-155750000D02*
X143650000Y-154600000D01*
%TO.C,D48*%
X146350000Y-150250000D02*
X153650000Y-150250000D01*
X146350000Y-155750000D02*
X153650000Y-155750000D01*
X153650000Y-155750000D02*
X153650000Y-154600000D01*
%TO.C,D47*%
X156350000Y-150250000D02*
X163650000Y-150250000D01*
X156350000Y-155750000D02*
X163650000Y-155750000D01*
X163650000Y-155750000D02*
X163650000Y-154600000D01*
%TO.C,U5*%
X84210000Y-109150000D02*
X84210000Y-110460000D01*
X84210000Y-110460000D02*
X81490000Y-110460000D01*
X80350000Y-105970000D02*
X81490000Y-105970000D01*
X84210000Y-105740000D02*
X84210000Y-107050000D01*
X81490000Y-105740000D02*
X84210000Y-105740000D01*
X81490000Y-105740000D02*
X81490000Y-105970000D01*
X81490000Y-110460000D02*
X81490000Y-110230000D01*
%TO.C,TH1*%
X61290000Y-106502064D02*
X61290000Y-105297936D01*
X63110000Y-106502064D02*
X63110000Y-105297936D01*
%TO.C,R33*%
X71062742Y-107077500D02*
X71537258Y-107077500D01*
X71062742Y-108122500D02*
X71537258Y-108122500D01*
%TO.C,R32*%
X78937258Y-101222500D02*
X78462742Y-101222500D01*
X78937258Y-100177500D02*
X78462742Y-100177500D01*
%TO.C,R31*%
X83837258Y-101222500D02*
X83362742Y-101222500D01*
X83837258Y-100177500D02*
X83362742Y-100177500D01*
%TO.C,R30*%
X52337258Y-106322500D02*
X51862742Y-106322500D01*
X52337258Y-105277500D02*
X51862742Y-105277500D01*
%TO.C,R29*%
X54037258Y-108022500D02*
X53562742Y-108022500D01*
X54037258Y-106977500D02*
X53562742Y-106977500D01*
%TO.C,R28*%
X69777500Y-151837258D02*
X69777500Y-151362742D01*
X70822500Y-151837258D02*
X70822500Y-151362742D01*
%TO.C,R27*%
X91222500Y-151362742D02*
X91222500Y-151837258D01*
X90177500Y-151362742D02*
X90177500Y-151837258D01*
%TO.C,R26*%
X130277500Y-148437258D02*
X130277500Y-147962742D01*
X131322500Y-148437258D02*
X131322500Y-147962742D01*
%TO.C,R25*%
X161262742Y-148577500D02*
X161737258Y-148577500D01*
X161262742Y-149622500D02*
X161737258Y-149622500D01*
%TO.C,R24*%
X73822500Y-146262742D02*
X73822500Y-146737258D01*
X72777500Y-146262742D02*
X72777500Y-146737258D01*
%TO.C,R23*%
X75522500Y-146262742D02*
X75522500Y-146737258D01*
X74477500Y-146262742D02*
X74477500Y-146737258D01*
%TO.C,R22*%
X166622500Y-142562742D02*
X166622500Y-143037258D01*
X165577500Y-142562742D02*
X165577500Y-143037258D01*
%TO.C,R21*%
X169822500Y-134087742D02*
X169822500Y-134562258D01*
X168777500Y-134087742D02*
X168777500Y-134562258D01*
%TO.C,R20*%
X168777500Y-124637258D02*
X168777500Y-124162742D01*
X169822500Y-124637258D02*
X169822500Y-124162742D01*
%TO.C,R19*%
X166877500Y-114562258D02*
X166877500Y-114087742D01*
X167922500Y-114562258D02*
X167922500Y-114087742D01*
%TO.C,R18*%
X77222500Y-146262742D02*
X77222500Y-146737258D01*
X76177500Y-146262742D02*
X76177500Y-146737258D01*
%TO.C,R17*%
X168322500Y-142562742D02*
X168322500Y-143037258D01*
X167277500Y-142562742D02*
X167277500Y-143037258D01*
%TO.C,R16*%
X42422500Y-142762742D02*
X42422500Y-143237258D01*
X41377500Y-142762742D02*
X41377500Y-143237258D01*
%TO.C,R15*%
X170022500Y-142562742D02*
X170022500Y-143037258D01*
X168977500Y-142562742D02*
X168977500Y-143037258D01*
%TO.C,R14*%
X44122500Y-142762742D02*
X44122500Y-143237258D01*
X43077500Y-142762742D02*
X43077500Y-143237258D01*
%TO.C,R13*%
X79522500Y-150537742D02*
X79522500Y-151012258D01*
X78477500Y-150537742D02*
X78477500Y-151012258D01*
%TO.C,R12*%
X45822500Y-142762742D02*
X45822500Y-143237258D01*
X44777500Y-142762742D02*
X44777500Y-143237258D01*
%TO.C,R11*%
X74862742Y-156077500D02*
X75337258Y-156077500D01*
X74862742Y-157122500D02*
X75337258Y-157122500D01*
%TO.C,R10*%
X173122500Y-148262742D02*
X173122500Y-148737258D01*
X172077500Y-148262742D02*
X172077500Y-148737258D01*
%TO.C,R9*%
X101737258Y-150322500D02*
X101262742Y-150322500D01*
X101737258Y-149277500D02*
X101262742Y-149277500D01*
%TO.C,R8*%
X104362742Y-149277500D02*
X104837258Y-149277500D01*
X104362742Y-150322500D02*
X104837258Y-150322500D01*
%TO.C,R7*%
X167622500Y-153887742D02*
X167622500Y-154362258D01*
X166577500Y-153887742D02*
X166577500Y-154362258D01*
%TO.C,R6*%
X48822500Y-150562742D02*
X48822500Y-151037258D01*
X47777500Y-150562742D02*
X47777500Y-151037258D01*
%TO.C,R5*%
X41222500Y-136662742D02*
X41222500Y-137137258D01*
X40177500Y-136662742D02*
X40177500Y-137137258D01*
%TO.C,R4*%
X40077500Y-127137258D02*
X40077500Y-126662742D01*
X41122500Y-127137258D02*
X41122500Y-126662742D01*
%TO.C,R3*%
X41137742Y-115577500D02*
X41612258Y-115577500D01*
X41137742Y-116622500D02*
X41612258Y-116622500D01*
%TO.C,R2*%
X110962742Y-149277500D02*
X111437258Y-149277500D01*
X110962742Y-150322500D02*
X111437258Y-150322500D01*
%TO.C,R1*%
X43122500Y-154162742D02*
X43122500Y-154637258D01*
X42077500Y-154162742D02*
X42077500Y-154637258D01*
%TO.C,JP1*%
X103850000Y-99500000D02*
X103850000Y-98900000D01*
X105950000Y-100200000D02*
X104550000Y-100200000D01*
X106650000Y-98900000D02*
X106650000Y-99500000D01*
X104550000Y-98200000D02*
X105950000Y-98200000D01*
X103850000Y-98900000D02*
G75*
G02*
X104550000Y-98200000I700000J0D01*
G01*
X104550000Y-100200000D02*
G75*
G02*
X103850000Y-99500000I0J700000D01*
G01*
X106650000Y-99500000D02*
G75*
G02*
X105950000Y-100200000I-700000J0D01*
G01*
X105950000Y-98200000D02*
G75*
G02*
X106650000Y-98900000I0J-700000D01*
G01*
%TO.C,J3*%
X91450000Y-98270000D02*
X91450000Y-100930000D01*
X99130000Y-98270000D02*
X91450000Y-98270000D01*
X99130000Y-100930000D02*
X91450000Y-100930000D01*
X99130000Y-98270000D02*
X99130000Y-100930000D01*
X100400000Y-98270000D02*
X101730000Y-98270000D01*
X101730000Y-98270000D02*
X101730000Y-99600000D01*
%TO.C,J1*%
X131090000Y-101030000D02*
X131090000Y-98370000D01*
X120870000Y-101030000D02*
X131090000Y-101030000D01*
X120870000Y-98370000D02*
X131090000Y-98370000D01*
X120870000Y-101030000D02*
X120870000Y-98370000D01*
X119600000Y-101030000D02*
X118270000Y-101030000D01*
X118270000Y-101030000D02*
X118270000Y-99700000D01*
%TO.C,D46*%
X72350000Y-103300000D02*
X70650000Y-103300000D01*
X70650000Y-103300000D02*
X70650000Y-105850000D01*
X72350000Y-103300000D02*
X72350000Y-105850000D01*
%TO.C,D45*%
X163650000Y-142750000D02*
X156350000Y-142750000D01*
X163650000Y-137250000D02*
X156350000Y-137250000D01*
X156350000Y-137250000D02*
X156350000Y-138400000D01*
%TO.C,D44*%
X46350000Y-127250000D02*
X53650000Y-127250000D01*
X46350000Y-132750000D02*
X53650000Y-132750000D01*
X53650000Y-132750000D02*
X53650000Y-131600000D01*
%TO.C,D43*%
X163650000Y-122750000D02*
X156350000Y-122750000D01*
X163650000Y-117250000D02*
X156350000Y-117250000D01*
X156350000Y-117250000D02*
X156350000Y-118400000D01*
%TO.C,D42*%
X153650000Y-142750000D02*
X146350000Y-142750000D01*
X153650000Y-137250000D02*
X146350000Y-137250000D01*
X146350000Y-137250000D02*
X146350000Y-138400000D01*
%TO.C,D41*%
X56350000Y-127250000D02*
X63650000Y-127250000D01*
X56350000Y-132750000D02*
X63650000Y-132750000D01*
X63650000Y-132750000D02*
X63650000Y-131600000D01*
%TO.C,D40*%
X153650000Y-122750000D02*
X146350000Y-122750000D01*
X153650000Y-117250000D02*
X146350000Y-117250000D01*
X146350000Y-117250000D02*
X146350000Y-118400000D01*
%TO.C,D39*%
X81100000Y-98265000D02*
X78815000Y-98265000D01*
X78815000Y-98265000D02*
X78815000Y-99735000D01*
X78815000Y-99735000D02*
X81100000Y-99735000D01*
%TO.C,D38*%
X143650000Y-142750000D02*
X136350000Y-142750000D01*
X143650000Y-137250000D02*
X136350000Y-137250000D01*
X136350000Y-137250000D02*
X136350000Y-138400000D01*
%TO.C,D37*%
X66350000Y-127250000D02*
X73650000Y-127250000D01*
X66350000Y-132750000D02*
X73650000Y-132750000D01*
X73650000Y-132750000D02*
X73650000Y-131600000D01*
%TO.C,D36*%
X143650000Y-122750000D02*
X136350000Y-122750000D01*
X143650000Y-117250000D02*
X136350000Y-117250000D01*
X136350000Y-117250000D02*
X136350000Y-118400000D01*
%TO.C,D35*%
X86100000Y-98265000D02*
X83815000Y-98265000D01*
X83815000Y-98265000D02*
X83815000Y-99735000D01*
X83815000Y-99735000D02*
X86100000Y-99735000D01*
%TO.C,D34*%
X133650000Y-142750000D02*
X126350000Y-142750000D01*
X133650000Y-137250000D02*
X126350000Y-137250000D01*
X126350000Y-137250000D02*
X126350000Y-138400000D01*
%TO.C,D33*%
X76350000Y-127250000D02*
X83650000Y-127250000D01*
X76350000Y-132750000D02*
X83650000Y-132750000D01*
X83650000Y-132750000D02*
X83650000Y-131600000D01*
%TO.C,D32*%
X133650000Y-122750000D02*
X126350000Y-122750000D01*
X133650000Y-117250000D02*
X126350000Y-117250000D01*
X126350000Y-117250000D02*
X126350000Y-118400000D01*
%TO.C,D31*%
X76650000Y-109100000D02*
X74950000Y-109100000D01*
X74950000Y-109100000D02*
X74950000Y-111650000D01*
X76650000Y-109100000D02*
X76650000Y-111650000D01*
%TO.C,D30*%
X54300000Y-108650000D02*
X54300000Y-110350000D01*
X54300000Y-110350000D02*
X56850000Y-110350000D01*
X54300000Y-108650000D02*
X56850000Y-108650000D01*
%TO.C,D29*%
X123650000Y-142750000D02*
X116350000Y-142750000D01*
X123650000Y-137250000D02*
X116350000Y-137250000D01*
X116350000Y-137250000D02*
X116350000Y-138400000D01*
%TO.C,D28*%
X86350000Y-127250000D02*
X93650000Y-127250000D01*
X86350000Y-132750000D02*
X93650000Y-132750000D01*
X93650000Y-132750000D02*
X93650000Y-131600000D01*
%TO.C,D27*%
X123650000Y-122750000D02*
X116350000Y-122750000D01*
X123650000Y-117250000D02*
X116350000Y-117250000D01*
X116350000Y-117250000D02*
X116350000Y-118400000D01*
%TO.C,D26*%
X63150000Y-108900000D02*
X61450000Y-108900000D01*
X61450000Y-108900000D02*
X61450000Y-111450000D01*
X63150000Y-108900000D02*
X63150000Y-111450000D01*
%TO.C,D25*%
X113650000Y-142750000D02*
X106350000Y-142750000D01*
X113650000Y-137250000D02*
X106350000Y-137250000D01*
X106350000Y-137250000D02*
X106350000Y-138400000D01*
%TO.C,D24*%
X96350000Y-127250000D02*
X103650000Y-127250000D01*
X96350000Y-132750000D02*
X103650000Y-132750000D01*
X103650000Y-132750000D02*
X103650000Y-131600000D01*
%TO.C,D23*%
X113650000Y-122750000D02*
X106350000Y-122750000D01*
X113650000Y-117250000D02*
X106350000Y-117250000D01*
X106350000Y-117250000D02*
X106350000Y-118400000D01*
%TO.C,D22*%
X103650000Y-142750000D02*
X96350000Y-142750000D01*
X103650000Y-137250000D02*
X96350000Y-137250000D01*
X96350000Y-137250000D02*
X96350000Y-138400000D01*
%TO.C,D21*%
X106350000Y-127250000D02*
X113650000Y-127250000D01*
X106350000Y-132750000D02*
X113650000Y-132750000D01*
X113650000Y-132750000D02*
X113650000Y-131600000D01*
%TO.C,D20*%
X103650000Y-122750000D02*
X96350000Y-122750000D01*
X103650000Y-117250000D02*
X96350000Y-117250000D01*
X96350000Y-117250000D02*
X96350000Y-118400000D01*
%TO.C,D19*%
X93650000Y-142750000D02*
X86350000Y-142750000D01*
X93650000Y-137250000D02*
X86350000Y-137250000D01*
X86350000Y-137250000D02*
X86350000Y-138400000D01*
%TO.C,D18*%
X116350000Y-127250000D02*
X123650000Y-127250000D01*
X116350000Y-132750000D02*
X123650000Y-132750000D01*
X123650000Y-132750000D02*
X123650000Y-131600000D01*
%TO.C,D17*%
X93650000Y-122750000D02*
X86350000Y-122750000D01*
X93650000Y-117250000D02*
X86350000Y-117250000D01*
X86350000Y-117250000D02*
X86350000Y-118400000D01*
%TO.C,D16*%
X83650000Y-142750000D02*
X76350000Y-142750000D01*
X83650000Y-137250000D02*
X76350000Y-137250000D01*
X76350000Y-137250000D02*
X76350000Y-138400000D01*
%TO.C,D15*%
X126350000Y-127250000D02*
X133650000Y-127250000D01*
X126350000Y-132750000D02*
X133650000Y-132750000D01*
X133650000Y-132750000D02*
X133650000Y-131600000D01*
%TO.C,D14*%
X83650000Y-122750000D02*
X76350000Y-122750000D01*
X83650000Y-117250000D02*
X76350000Y-117250000D01*
X76350000Y-117250000D02*
X76350000Y-118400000D01*
%TO.C,D13*%
X73650000Y-142750000D02*
X66350000Y-142750000D01*
X73650000Y-137250000D02*
X66350000Y-137250000D01*
X66350000Y-137250000D02*
X66350000Y-138400000D01*
%TO.C,D12*%
X136350000Y-127250000D02*
X143650000Y-127250000D01*
X136350000Y-132750000D02*
X143650000Y-132750000D01*
X143650000Y-132750000D02*
X143650000Y-131600000D01*
%TO.C,D11*%
X73650000Y-122750000D02*
X66350000Y-122750000D01*
X73650000Y-117250000D02*
X66350000Y-117250000D01*
X66350000Y-117250000D02*
X66350000Y-118400000D01*
%TO.C,D10*%
X63650000Y-142750000D02*
X56350000Y-142750000D01*
X63650000Y-137250000D02*
X56350000Y-137250000D01*
X56350000Y-137250000D02*
X56350000Y-138400000D01*
%TO.C,D9*%
X146350000Y-127250000D02*
X153650000Y-127250000D01*
X146350000Y-132750000D02*
X153650000Y-132750000D01*
X153650000Y-132750000D02*
X153650000Y-131600000D01*
%TO.C,D8*%
X63650000Y-122750000D02*
X56350000Y-122750000D01*
X63650000Y-117250000D02*
X56350000Y-117250000D01*
X56350000Y-117250000D02*
X56350000Y-118400000D01*
%TO.C,D7*%
X53650000Y-142750000D02*
X46350000Y-142750000D01*
X53650000Y-137250000D02*
X46350000Y-137250000D01*
X46350000Y-137250000D02*
X46350000Y-138400000D01*
%TO.C,D6*%
X156350000Y-127250000D02*
X163650000Y-127250000D01*
X156350000Y-132750000D02*
X163650000Y-132750000D01*
X163650000Y-132750000D02*
X163650000Y-131600000D01*
%TO.C,D5*%
X53650000Y-122750000D02*
X46350000Y-122750000D01*
X53650000Y-117250000D02*
X46350000Y-117250000D01*
X46350000Y-117250000D02*
X46350000Y-118400000D01*
%TO.C,D4*%
X129950000Y-153100000D02*
X131650000Y-153100000D01*
X131650000Y-153100000D02*
X131650000Y-150550000D01*
X129950000Y-153100000D02*
X129950000Y-150550000D01*
%TO.C,D3*%
X168350000Y-119150000D02*
X170050000Y-119150000D01*
X170050000Y-119150000D02*
X170050000Y-116600000D01*
X168350000Y-119150000D02*
X168350000Y-116600000D01*
%TO.C,D2*%
X109400000Y-150450000D02*
X109400000Y-148750000D01*
X109400000Y-148750000D02*
X106850000Y-148750000D01*
X109400000Y-150450000D02*
X106850000Y-150450000D01*
%TO.C,D1*%
X39850000Y-120300000D02*
X41550000Y-120300000D01*
X41550000Y-120300000D02*
X41550000Y-117750000D01*
X39850000Y-120300000D02*
X39850000Y-117750000D01*
%TO.C,C19*%
X160084165Y-90340000D02*
X160315835Y-90340000D01*
X160084165Y-91060000D02*
X160315835Y-91060000D01*
%TO.C,C18*%
X65059420Y-114690000D02*
X65340580Y-114690000D01*
X65059420Y-115710000D02*
X65340580Y-115710000D01*
%TO.C,C17*%
X68340580Y-108110000D02*
X68059420Y-108110000D01*
X68340580Y-107090000D02*
X68059420Y-107090000D01*
%TO.C,C16*%
X142190000Y-102440580D02*
X142190000Y-102159420D01*
X143210000Y-102440580D02*
X143210000Y-102159420D01*
%TO.C,C15*%
X142440000Y-99515835D02*
X142440000Y-99284165D01*
X143160000Y-99515835D02*
X143160000Y-99284165D01*
%TO.C,C14*%
X77290000Y-110640580D02*
X77290000Y-110359420D01*
X78310000Y-110640580D02*
X78310000Y-110359420D01*
%TO.C,C13*%
X51859420Y-103590000D02*
X52140580Y-103590000D01*
X51859420Y-104610000D02*
X52140580Y-104610000D01*
%TO.C,C12*%
X59690000Y-110665580D02*
X59690000Y-110384420D01*
X60710000Y-110665580D02*
X60710000Y-110384420D01*
%TO.C,C11*%
X79510000Y-106959420D02*
X79510000Y-107240580D01*
X78490000Y-106959420D02*
X78490000Y-107240580D01*
%TO.C,C9*%
X101740580Y-116410000D02*
X101459420Y-116410000D01*
X101740580Y-115390000D02*
X101459420Y-115390000D01*
%TO.C,C7*%
X106340000Y-105715835D02*
X106340000Y-105484165D01*
X107060000Y-105715835D02*
X107060000Y-105484165D01*
%TO.C,C6*%
X77840000Y-154115835D02*
X77840000Y-153884165D01*
X78560000Y-154115835D02*
X78560000Y-153884165D01*
%TO.C,C5*%
X170840000Y-150715835D02*
X170840000Y-150484165D01*
X171560000Y-150715835D02*
X171560000Y-150484165D01*
%TO.C,C3*%
X46340000Y-151015835D02*
X46340000Y-150784165D01*
X47060000Y-151015835D02*
X47060000Y-150784165D01*
%TO.C,C1*%
X105415835Y-101460000D02*
X105184165Y-101460000D01*
X105415835Y-100740000D02*
X105184165Y-100740000D01*
%TO.C,SW9*%
D10*
X64369047Y-154371428D02*
X65130952Y-154371428D01*
X64369047Y-151671428D02*
X65130952Y-151671428D01*
X64750000Y-152052380D02*
X64750000Y-151290476D01*
%TO.C,SW8*%
X84619047Y-154371428D02*
X85380952Y-154371428D01*
X84619047Y-151671428D02*
X85380952Y-151671428D01*
X85000000Y-152052380D02*
X85000000Y-151290476D01*
%TO.C,SW7*%
X124619047Y-154371428D02*
X125380952Y-154371428D01*
X124619047Y-151671428D02*
X125380952Y-151671428D01*
X125000000Y-152052380D02*
X125000000Y-151290476D01*
%TO.C,SW6*%
X174619047Y-141371428D02*
X175380952Y-141371428D01*
X174619047Y-138671428D02*
X175380952Y-138671428D01*
X175000000Y-139052380D02*
X175000000Y-138290476D01*
%TO.C,SW5*%
X174619047Y-131371428D02*
X175380952Y-131371428D01*
X174619047Y-128671428D02*
X175380952Y-128671428D01*
X175000000Y-129052380D02*
X175000000Y-128290476D01*
%TO.C,SW4*%
X174619047Y-121371428D02*
X175380952Y-121371428D01*
X174619047Y-118671428D02*
X175380952Y-118671428D01*
X175000000Y-119052380D02*
X175000000Y-118290476D01*
%TO.C,SW3*%
X34619047Y-141371428D02*
X35380952Y-141371428D01*
X34619047Y-138671428D02*
X35380952Y-138671428D01*
X35000000Y-139052380D02*
X35000000Y-138290476D01*
%TO.C,SW2*%
X34619047Y-131371428D02*
X35380952Y-131371428D01*
X34619047Y-128671428D02*
X35380952Y-128671428D01*
X35000000Y-129052380D02*
X35000000Y-128290476D01*
%TO.C,SW1*%
X34619047Y-121371428D02*
X35380952Y-121371428D01*
X34619047Y-118671428D02*
X35380952Y-118671428D01*
X35000000Y-119052380D02*
X35000000Y-118290476D01*
%TO.C,U6*%
X157200000Y-104811904D02*
X157152380Y-104907142D01*
X157152380Y-105050000D01*
X157200000Y-105192857D01*
X157295238Y-105288095D01*
X157390476Y-105335714D01*
X157580952Y-105383333D01*
X157723809Y-105383333D01*
X157914285Y-105335714D01*
X158009523Y-105288095D01*
X158104761Y-105192857D01*
X158152380Y-105050000D01*
X158152380Y-104954761D01*
X158104761Y-104811904D01*
X158057142Y-104764285D01*
X157723809Y-104764285D01*
X157723809Y-104954761D01*
X158152380Y-104335714D02*
X157152380Y-104335714D01*
X158152380Y-103764285D01*
X157152380Y-103764285D01*
X158152380Y-103288095D02*
X157152380Y-103288095D01*
X157152380Y-103050000D01*
X157200000Y-102907142D01*
X157295238Y-102811904D01*
X157390476Y-102764285D01*
X157580952Y-102716666D01*
X157723809Y-102716666D01*
X157914285Y-102764285D01*
X158009523Y-102811904D01*
X158104761Y-102907142D01*
X158152380Y-103050000D01*
X158152380Y-103288095D01*
X157866666Y-96692857D02*
X157866666Y-96216666D01*
X158152380Y-96788095D02*
X157152380Y-96454761D01*
X158152380Y-96121428D01*
X158152380Y-95788095D02*
X157152380Y-95788095D01*
X158152380Y-95216666D01*
X157152380Y-95216666D01*
X157152380Y-94883333D02*
X157152380Y-94311904D01*
X158152380Y-94597619D02*
X157152380Y-94597619D01*
%TO.C,D49*%
X136135714Y-151852380D02*
X135564285Y-151852380D01*
X135850000Y-151852380D02*
X135850000Y-150852380D01*
X135754761Y-150995238D01*
X135659523Y-151090476D01*
X135564285Y-151138095D01*
%TO.C,D48*%
X146135714Y-151852380D02*
X145564285Y-151852380D01*
X145850000Y-151852380D02*
X145850000Y-150852380D01*
X145754761Y-150995238D01*
X145659523Y-151090476D01*
X145564285Y-151138095D01*
%TO.C,D47*%
X156135714Y-151852380D02*
X155564285Y-151852380D01*
X155850000Y-151852380D02*
X155850000Y-150852380D01*
X155754761Y-150995238D01*
X155659523Y-151090476D01*
X155564285Y-151138095D01*
%TO.C,D45*%
X164435714Y-142052380D02*
X163864285Y-142052380D01*
X164150000Y-142052380D02*
X164150000Y-141052380D01*
X164054761Y-141195238D01*
X163959523Y-141290476D01*
X163864285Y-141338095D01*
%TO.C,D44*%
X46135714Y-128852380D02*
X45564285Y-128852380D01*
X45850000Y-128852380D02*
X45850000Y-127852380D01*
X45754761Y-127995238D01*
X45659523Y-128090476D01*
X45564285Y-128138095D01*
%TO.C,D43*%
X164435714Y-122052380D02*
X163864285Y-122052380D01*
X164150000Y-122052380D02*
X164150000Y-121052380D01*
X164054761Y-121195238D01*
X163959523Y-121290476D01*
X163864285Y-121338095D01*
%TO.C,D42*%
X154435714Y-142052380D02*
X153864285Y-142052380D01*
X154150000Y-142052380D02*
X154150000Y-141052380D01*
X154054761Y-141195238D01*
X153959523Y-141290476D01*
X153864285Y-141338095D01*
%TO.C,D41*%
X56135714Y-128852380D02*
X55564285Y-128852380D01*
X55850000Y-128852380D02*
X55850000Y-127852380D01*
X55754761Y-127995238D01*
X55659523Y-128090476D01*
X55564285Y-128138095D01*
%TO.C,D40*%
X154435714Y-122052380D02*
X153864285Y-122052380D01*
X154150000Y-122052380D02*
X154150000Y-121052380D01*
X154054761Y-121195238D01*
X153959523Y-121290476D01*
X153864285Y-121338095D01*
%TO.C,D38*%
X144435714Y-142052380D02*
X143864285Y-142052380D01*
X144150000Y-142052380D02*
X144150000Y-141052380D01*
X144054761Y-141195238D01*
X143959523Y-141290476D01*
X143864285Y-141338095D01*
%TO.C,D37*%
X66135714Y-128852380D02*
X65564285Y-128852380D01*
X65850000Y-128852380D02*
X65850000Y-127852380D01*
X65754761Y-127995238D01*
X65659523Y-128090476D01*
X65564285Y-128138095D01*
%TO.C,D36*%
X144435714Y-122052380D02*
X143864285Y-122052380D01*
X144150000Y-122052380D02*
X144150000Y-121052380D01*
X144054761Y-121195238D01*
X143959523Y-121290476D01*
X143864285Y-121338095D01*
%TO.C,D34*%
X134435714Y-142052380D02*
X133864285Y-142052380D01*
X134150000Y-142052380D02*
X134150000Y-141052380D01*
X134054761Y-141195238D01*
X133959523Y-141290476D01*
X133864285Y-141338095D01*
%TO.C,D33*%
X76135714Y-128852380D02*
X75564285Y-128852380D01*
X75850000Y-128852380D02*
X75850000Y-127852380D01*
X75754761Y-127995238D01*
X75659523Y-128090476D01*
X75564285Y-128138095D01*
%TO.C,D32*%
X134435714Y-122052380D02*
X133864285Y-122052380D01*
X134150000Y-122052380D02*
X134150000Y-121052380D01*
X134054761Y-121195238D01*
X133959523Y-121290476D01*
X133864285Y-121338095D01*
%TO.C,D29*%
X124435714Y-142052380D02*
X123864285Y-142052380D01*
X124150000Y-142052380D02*
X124150000Y-141052380D01*
X124054761Y-141195238D01*
X123959523Y-141290476D01*
X123864285Y-141338095D01*
%TO.C,D28*%
X86135714Y-128852380D02*
X85564285Y-128852380D01*
X85850000Y-128852380D02*
X85850000Y-127852380D01*
X85754761Y-127995238D01*
X85659523Y-128090476D01*
X85564285Y-128138095D01*
%TO.C,D27*%
X124435714Y-122052380D02*
X123864285Y-122052380D01*
X124150000Y-122052380D02*
X124150000Y-121052380D01*
X124054761Y-121195238D01*
X123959523Y-121290476D01*
X123864285Y-121338095D01*
%TO.C,D25*%
X114435714Y-142052380D02*
X113864285Y-142052380D01*
X114150000Y-142052380D02*
X114150000Y-141052380D01*
X114054761Y-141195238D01*
X113959523Y-141290476D01*
X113864285Y-141338095D01*
%TO.C,D24*%
X96135714Y-128852380D02*
X95564285Y-128852380D01*
X95850000Y-128852380D02*
X95850000Y-127852380D01*
X95754761Y-127995238D01*
X95659523Y-128090476D01*
X95564285Y-128138095D01*
%TO.C,D23*%
X114435714Y-122052380D02*
X113864285Y-122052380D01*
X114150000Y-122052380D02*
X114150000Y-121052380D01*
X114054761Y-121195238D01*
X113959523Y-121290476D01*
X113864285Y-121338095D01*
%TO.C,D22*%
X104435714Y-142052380D02*
X103864285Y-142052380D01*
X104150000Y-142052380D02*
X104150000Y-141052380D01*
X104054761Y-141195238D01*
X103959523Y-141290476D01*
X103864285Y-141338095D01*
%TO.C,D21*%
X106135714Y-128852380D02*
X105564285Y-128852380D01*
X105850000Y-128852380D02*
X105850000Y-127852380D01*
X105754761Y-127995238D01*
X105659523Y-128090476D01*
X105564285Y-128138095D01*
%TO.C,D20*%
X104435714Y-122052380D02*
X103864285Y-122052380D01*
X104150000Y-122052380D02*
X104150000Y-121052380D01*
X104054761Y-121195238D01*
X103959523Y-121290476D01*
X103864285Y-121338095D01*
%TO.C,D19*%
X94435714Y-142052380D02*
X93864285Y-142052380D01*
X94150000Y-142052380D02*
X94150000Y-141052380D01*
X94054761Y-141195238D01*
X93959523Y-141290476D01*
X93864285Y-141338095D01*
%TO.C,D18*%
X116135714Y-128852380D02*
X115564285Y-128852380D01*
X115850000Y-128852380D02*
X115850000Y-127852380D01*
X115754761Y-127995238D01*
X115659523Y-128090476D01*
X115564285Y-128138095D01*
%TO.C,D17*%
X94435714Y-122052380D02*
X93864285Y-122052380D01*
X94150000Y-122052380D02*
X94150000Y-121052380D01*
X94054761Y-121195238D01*
X93959523Y-121290476D01*
X93864285Y-121338095D01*
%TO.C,D16*%
X84435714Y-142052380D02*
X83864285Y-142052380D01*
X84150000Y-142052380D02*
X84150000Y-141052380D01*
X84054761Y-141195238D01*
X83959523Y-141290476D01*
X83864285Y-141338095D01*
%TO.C,D15*%
X126135714Y-128852380D02*
X125564285Y-128852380D01*
X125850000Y-128852380D02*
X125850000Y-127852380D01*
X125754761Y-127995238D01*
X125659523Y-128090476D01*
X125564285Y-128138095D01*
%TO.C,D14*%
X84435714Y-122052380D02*
X83864285Y-122052380D01*
X84150000Y-122052380D02*
X84150000Y-121052380D01*
X84054761Y-121195238D01*
X83959523Y-121290476D01*
X83864285Y-121338095D01*
%TO.C,D13*%
X74435714Y-142052380D02*
X73864285Y-142052380D01*
X74150000Y-142052380D02*
X74150000Y-141052380D01*
X74054761Y-141195238D01*
X73959523Y-141290476D01*
X73864285Y-141338095D01*
%TO.C,D12*%
X136135714Y-128852380D02*
X135564285Y-128852380D01*
X135850000Y-128852380D02*
X135850000Y-127852380D01*
X135754761Y-127995238D01*
X135659523Y-128090476D01*
X135564285Y-128138095D01*
%TO.C,D11*%
X74435714Y-122052380D02*
X73864285Y-122052380D01*
X74150000Y-122052380D02*
X74150000Y-121052380D01*
X74054761Y-121195238D01*
X73959523Y-121290476D01*
X73864285Y-121338095D01*
%TO.C,D10*%
X64435714Y-142052380D02*
X63864285Y-142052380D01*
X64150000Y-142052380D02*
X64150000Y-141052380D01*
X64054761Y-141195238D01*
X63959523Y-141290476D01*
X63864285Y-141338095D01*
%TO.C,D9*%
X146135714Y-128852380D02*
X145564285Y-128852380D01*
X145850000Y-128852380D02*
X145850000Y-127852380D01*
X145754761Y-127995238D01*
X145659523Y-128090476D01*
X145564285Y-128138095D01*
%TO.C,D8*%
X64435714Y-122052380D02*
X63864285Y-122052380D01*
X64150000Y-122052380D02*
X64150000Y-121052380D01*
X64054761Y-121195238D01*
X63959523Y-121290476D01*
X63864285Y-121338095D01*
%TO.C,D7*%
X54435714Y-142052380D02*
X53864285Y-142052380D01*
X54150000Y-142052380D02*
X54150000Y-141052380D01*
X54054761Y-141195238D01*
X53959523Y-141290476D01*
X53864285Y-141338095D01*
%TO.C,D6*%
X156135714Y-128852380D02*
X155564285Y-128852380D01*
X155850000Y-128852380D02*
X155850000Y-127852380D01*
X155754761Y-127995238D01*
X155659523Y-128090476D01*
X155564285Y-128138095D01*
%TO.C,D5*%
X54435714Y-122052380D02*
X53864285Y-122052380D01*
X54150000Y-122052380D02*
X54150000Y-121052380D01*
X54054761Y-121195238D01*
X53959523Y-121290476D01*
X53864285Y-121338095D01*
%TD*%
M02*
