G04 #@! TF.GenerationSoftware,KiCad,Pcbnew,7.0.1-3b83917a11~172~ubuntu22.04.1*
G04 #@! TF.CreationDate,2023-04-04T17:43:52-06:00*
G04 #@! TF.ProjectId,controller,636f6e74-726f-46c6-9c65-722e6b696361,rev?*
G04 #@! TF.SameCoordinates,Original*
G04 #@! TF.FileFunction,Soldermask,Top*
G04 #@! TF.FilePolarity,Negative*
%FSLAX46Y46*%
G04 Gerber Fmt 4.6, Leading zero omitted, Abs format (unit mm)*
G04 Created by KiCad (PCBNEW 7.0.1-3b83917a11~172~ubuntu22.04.1) date 2023-04-04 17:43:52*
%MOMM*%
%LPD*%
G01*
G04 APERTURE LIST*
G04 Aperture macros list*
%AMRoundRect*
0 Rectangle with rounded corners*
0 $1 Rounding radius*
0 $2 $3 $4 $5 $6 $7 $8 $9 X,Y pos of 4 corners*
0 Add a 4 corners polygon primitive as box body*
4,1,4,$2,$3,$4,$5,$6,$7,$8,$9,$2,$3,0*
0 Add four circle primitives for the rounded corners*
1,1,$1+$1,$2,$3*
1,1,$1+$1,$4,$5*
1,1,$1+$1,$6,$7*
1,1,$1+$1,$8,$9*
0 Add four rect primitives between the rounded corners*
20,1,$1+$1,$2,$3,$4,$5,0*
20,1,$1+$1,$4,$5,$6,$7,0*
20,1,$1+$1,$6,$7,$8,$9,0*
20,1,$1+$1,$8,$9,$2,$3,0*%
%AMFreePoly0*
4,1,9,3.862500,-0.866500,0.737500,-0.866500,0.737500,-0.450000,-0.737500,-0.450000,-0.737500,0.450000,0.737500,0.450000,0.737500,0.866500,3.862500,0.866500,3.862500,-0.866500,3.862500,-0.866500,$1*%
G04 Aperture macros list end*
%ADD10RoundRect,0.155000X-0.155000X0.212500X-0.155000X-0.212500X0.155000X-0.212500X0.155000X0.212500X0*%
%ADD11RoundRect,0.155000X0.155000X-0.212500X0.155000X0.212500X-0.155000X0.212500X-0.155000X-0.212500X0*%
%ADD12RoundRect,0.155000X-0.212500X-0.155000X0.212500X-0.155000X0.212500X0.155000X-0.212500X0.155000X0*%
%ADD13RoundRect,0.225000X0.225000X0.250000X-0.225000X0.250000X-0.225000X-0.250000X0.225000X-0.250000X0*%
%ADD14RoundRect,0.225000X-0.225000X-0.250000X0.225000X-0.250000X0.225000X0.250000X-0.225000X0.250000X0*%
%ADD15RoundRect,0.225000X0.250000X-0.225000X0.250000X0.225000X-0.250000X0.225000X-0.250000X-0.225000X0*%
%ADD16RoundRect,0.225000X-0.250000X0.225000X-0.250000X-0.225000X0.250000X-0.225000X0.250000X0.225000X0*%
%ADD17R,0.450000X0.600000*%
%ADD18R,0.600000X0.450000*%
%ADD19R,1.500000X1.000000*%
%ADD20RoundRect,0.218750X-0.256250X0.218750X-0.256250X-0.218750X0.256250X-0.218750X0.256250X0.218750X0*%
%ADD21RoundRect,0.150000X-0.150000X0.512500X-0.150000X-0.512500X0.150000X-0.512500X0.150000X0.512500X0*%
%ADD22C,3.200000*%
%ADD23R,1.700000X1.700000*%
%ADD24O,1.700000X1.700000*%
%ADD25RoundRect,0.147500X-0.172500X0.147500X-0.172500X-0.147500X0.172500X-0.147500X0.172500X0.147500X0*%
%ADD26RoundRect,0.200000X-0.200000X-0.275000X0.200000X-0.275000X0.200000X0.275000X-0.200000X0.275000X0*%
%ADD27RoundRect,0.135000X-0.185000X0.135000X-0.185000X-0.135000X0.185000X-0.135000X0.185000X0.135000X0*%
%ADD28RoundRect,0.200000X0.200000X0.275000X-0.200000X0.275000X-0.200000X-0.275000X0.200000X-0.275000X0*%
%ADD29RoundRect,0.200000X0.275000X-0.200000X0.275000X0.200000X-0.275000X0.200000X-0.275000X-0.200000X0*%
%ADD30RoundRect,0.135000X-0.135000X-0.185000X0.135000X-0.185000X0.135000X0.185000X-0.135000X0.185000X0*%
%ADD31RoundRect,0.200000X-0.275000X0.200000X-0.275000X-0.200000X0.275000X-0.200000X0.275000X0.200000X0*%
%ADD32RoundRect,0.135000X0.185000X-0.135000X0.185000X0.135000X-0.185000X0.135000X-0.185000X-0.135000X0*%
%ADD33C,1.308000*%
%ADD34C,2.250000*%
%ADD35C,1.800000*%
%ADD36R,2.000000X1.500000*%
%ADD37RoundRect,0.243750X0.243750X0.456250X-0.243750X0.456250X-0.243750X-0.456250X0.243750X-0.456250X0*%
%ADD38RoundRect,0.150000X-0.150000X0.675000X-0.150000X-0.675000X0.150000X-0.675000X0.150000X0.675000X0*%
%ADD39RoundRect,0.150000X-0.675000X-0.150000X0.675000X-0.150000X0.675000X0.150000X-0.675000X0.150000X0*%
%ADD40R,0.900000X1.300000*%
%ADD41FreePoly0,90.000000*%
%ADD42R,1.198880X2.999740*%
%ADD43RoundRect,0.250000X1.500000X0.550000X-1.500000X0.550000X-1.500000X-0.550000X1.500000X-0.550000X0*%
%ADD44RoundRect,0.250000X-0.550000X1.500000X-0.550000X-1.500000X0.550000X-1.500000X0.550000X1.500000X0*%
%ADD45RoundRect,0.155000X0.212500X0.155000X-0.212500X0.155000X-0.212500X-0.155000X0.212500X-0.155000X0*%
%ADD46RoundRect,0.237500X0.300000X0.237500X-0.300000X0.237500X-0.300000X-0.237500X0.300000X-0.237500X0*%
%ADD47RoundRect,0.150000X-0.825000X-0.150000X0.825000X-0.150000X0.825000X0.150000X-0.825000X0.150000X0*%
%ADD48RoundRect,0.050000X-0.200000X-0.675000X0.200000X-0.675000X0.200000X0.675000X-0.200000X0.675000X0*%
%ADD49C,1.408000*%
%ADD50R,1.500000X1.550000*%
%ADD51RoundRect,0.135000X0.135000X0.185000X-0.135000X0.185000X-0.135000X-0.185000X0.135000X-0.185000X0*%
%ADD52RoundRect,0.075000X-0.075000X0.662500X-0.075000X-0.662500X0.075000X-0.662500X0.075000X0.662500X0*%
%ADD53RoundRect,0.075000X-0.662500X0.075000X-0.662500X-0.075000X0.662500X-0.075000X0.662500X0.075000X0*%
%ADD54RoundRect,0.237500X-0.237500X0.250000X-0.237500X-0.250000X0.237500X-0.250000X0.237500X0.250000X0*%
%ADD55RoundRect,0.237500X0.250000X0.237500X-0.250000X0.237500X-0.250000X-0.237500X0.250000X-0.237500X0*%
%ADD56RoundRect,0.112500X0.112500X-0.187500X0.112500X0.187500X-0.112500X0.187500X-0.112500X-0.187500X0*%
%ADD57RoundRect,0.101600X-0.374650X0.124460X-0.374650X-0.124460X0.374650X-0.124460X0.374650X0.124460X0*%
%ADD58RoundRect,0.101600X-0.299720X0.124460X-0.299720X-0.124460X0.299720X-0.124460X0.299720X0.124460X0*%
%ADD59RoundRect,0.101600X0.299720X-0.124460X0.299720X0.124460X-0.299720X0.124460X-0.299720X-0.124460X0*%
%ADD60RoundRect,0.042000X-0.258000X0.943000X-0.258000X-0.943000X0.258000X-0.943000X0.258000X0.943000X0*%
%ADD61R,3.302000X2.413000*%
%ADD62R,0.300000X1.400000*%
%ADD63RoundRect,0.150000X0.587500X0.150000X-0.587500X0.150000X-0.587500X-0.150000X0.587500X-0.150000X0*%
%ADD64RoundRect,0.112500X-0.112500X0.187500X-0.112500X-0.187500X0.112500X-0.187500X0.112500X0.187500X0*%
%ADD65RoundRect,0.250000X-0.650000X1.000000X-0.650000X-1.000000X0.650000X-1.000000X0.650000X1.000000X0*%
%ADD66RoundRect,0.112500X-0.187500X-0.112500X0.187500X-0.112500X0.187500X0.112500X-0.187500X0.112500X0*%
%ADD67RoundRect,0.112500X0.187500X0.112500X-0.187500X0.112500X-0.187500X-0.112500X0.187500X-0.112500X0*%
%ADD68RoundRect,0.237500X-0.250000X-0.237500X0.250000X-0.237500X0.250000X0.237500X-0.250000X0.237500X0*%
%ADD69R,1.000000X1.000000*%
%ADD70C,1.000000*%
%ADD71C,1.600000*%
%ADD72C,2.200000*%
%ADD73R,1.378000X1.378000*%
%ADD74C,1.378000*%
G04 APERTURE END LIST*
D10*
G04 #@! TO.C,C1*
X44500000Y-102800000D03*
X44500000Y-103935000D03*
G04 #@! TD*
D11*
G04 #@! TO.C,C3*
X46300000Y-146767500D03*
X46300000Y-145632500D03*
G04 #@! TD*
D12*
G04 #@! TO.C,C5*
X169100000Y-145200000D03*
X170235000Y-145200000D03*
G04 #@! TD*
D10*
G04 #@! TO.C,C6*
X160300000Y-143865000D03*
X160300000Y-145000000D03*
G04 #@! TD*
D12*
G04 #@! TO.C,C7*
X70225000Y-109095000D03*
X71360000Y-109095000D03*
G04 #@! TD*
D13*
G04 #@! TO.C,C9*
X85300000Y-100000000D03*
X83750000Y-100000000D03*
G04 #@! TD*
D14*
G04 #@! TO.C,C11*
X64300000Y-96700000D03*
X65850000Y-96700000D03*
G04 #@! TD*
D15*
G04 #@! TO.C,C12*
X38800000Y-109000000D03*
X38800000Y-107450000D03*
G04 #@! TD*
D16*
G04 #@! TO.C,C13*
X73400000Y-99350000D03*
X73400000Y-100900000D03*
G04 #@! TD*
D14*
G04 #@! TO.C,C14*
X65350000Y-103700000D03*
X66900000Y-103700000D03*
G04 #@! TD*
D11*
G04 #@! TO.C,C15*
X142800000Y-99967500D03*
X142800000Y-98832500D03*
G04 #@! TD*
D15*
G04 #@! TO.C,C16*
X142700000Y-103075000D03*
X142700000Y-101525000D03*
G04 #@! TD*
D13*
G04 #@! TO.C,C17*
X47775000Y-97300000D03*
X46225000Y-97300000D03*
G04 #@! TD*
D14*
G04 #@! TO.C,C18*
X44650000Y-106500000D03*
X46200000Y-106500000D03*
G04 #@! TD*
D12*
G04 #@! TO.C,C19*
X159632500Y-90700000D03*
X160767500Y-90700000D03*
G04 #@! TD*
D17*
G04 #@! TO.C,D1*
X41800000Y-119050000D03*
X41800000Y-116950000D03*
G04 #@! TD*
D18*
G04 #@! TO.C,D2*
X57750000Y-149500000D03*
X55650000Y-149500000D03*
G04 #@! TD*
G04 #@! TO.C,D4*
X169700000Y-122600000D03*
X167600000Y-122600000D03*
G04 #@! TD*
D19*
G04 #@! TO.C,D5*
X52450000Y-121600000D03*
X52450000Y-118400000D03*
X47550000Y-118400000D03*
X47550000Y-121600000D03*
G04 #@! TD*
G04 #@! TO.C,D6*
X157550000Y-128400000D03*
X157550000Y-131600000D03*
X162450000Y-131600000D03*
X162450000Y-128400000D03*
G04 #@! TD*
G04 #@! TO.C,D7*
X52450000Y-141600000D03*
X52450000Y-138400000D03*
X47550000Y-138400000D03*
X47550000Y-141600000D03*
G04 #@! TD*
G04 #@! TO.C,D10*
X62450000Y-141600000D03*
X62450000Y-138400000D03*
X57550000Y-138400000D03*
X57550000Y-141600000D03*
G04 #@! TD*
G04 #@! TO.C,D11*
X72450000Y-121600000D03*
X72450000Y-118400000D03*
X67550000Y-118400000D03*
X67550000Y-121600000D03*
G04 #@! TD*
G04 #@! TO.C,D13*
X72450000Y-141600000D03*
X72450000Y-138400000D03*
X67550000Y-138400000D03*
X67550000Y-141600000D03*
G04 #@! TD*
G04 #@! TO.C,D17*
X92450000Y-121600000D03*
X92450000Y-118400000D03*
X87550000Y-118400000D03*
X87550000Y-121600000D03*
G04 #@! TD*
G04 #@! TO.C,D19*
X92450000Y-141600000D03*
X92450000Y-138400000D03*
X87550000Y-138400000D03*
X87550000Y-141600000D03*
G04 #@! TD*
G04 #@! TO.C,D20*
X102450000Y-121600000D03*
X102450000Y-118400000D03*
X97550000Y-118400000D03*
X97550000Y-121600000D03*
G04 #@! TD*
G04 #@! TO.C,D22*
X102450000Y-141600000D03*
X102450000Y-138400000D03*
X97550000Y-138400000D03*
X97550000Y-141600000D03*
G04 #@! TD*
G04 #@! TO.C,D23*
X112450000Y-121600000D03*
X112450000Y-118400000D03*
X107550000Y-118400000D03*
X107550000Y-121600000D03*
G04 #@! TD*
G04 #@! TO.C,D24*
X97550000Y-128400000D03*
X97550000Y-131600000D03*
X102450000Y-131600000D03*
X102450000Y-128400000D03*
G04 #@! TD*
G04 #@! TO.C,D25*
X112450000Y-141600000D03*
X112450000Y-138400000D03*
X107550000Y-138400000D03*
X107550000Y-141600000D03*
G04 #@! TD*
D17*
G04 #@! TO.C,D26*
X36900000Y-107200000D03*
X36900000Y-109300000D03*
G04 #@! TD*
D19*
G04 #@! TO.C,D27*
X122450000Y-121600000D03*
X122450000Y-118400000D03*
X117550000Y-118400000D03*
X117550000Y-121600000D03*
G04 #@! TD*
G04 #@! TO.C,D28*
X87550000Y-128400000D03*
X87550000Y-131600000D03*
X92450000Y-131600000D03*
X92450000Y-128400000D03*
G04 #@! TD*
G04 #@! TO.C,D29*
X122450000Y-141600000D03*
X122450000Y-138400000D03*
X117550000Y-138400000D03*
X117550000Y-141600000D03*
G04 #@! TD*
D17*
G04 #@! TO.C,D30*
X62300000Y-96750000D03*
X62300000Y-98850000D03*
G04 #@! TD*
D18*
G04 #@! TO.C,D31*
X67350000Y-94300000D03*
X65250000Y-94300000D03*
G04 #@! TD*
D19*
G04 #@! TO.C,D32*
X132450000Y-121600000D03*
X132450000Y-118400000D03*
X127550000Y-118400000D03*
X127550000Y-121600000D03*
G04 #@! TD*
G04 #@! TO.C,D33*
X77550000Y-128400000D03*
X77550000Y-131600000D03*
X82450000Y-131600000D03*
X82450000Y-128400000D03*
G04 #@! TD*
G04 #@! TO.C,D34*
X132450000Y-141600000D03*
X132450000Y-138400000D03*
X127550000Y-138400000D03*
X127550000Y-141600000D03*
G04 #@! TD*
D20*
G04 #@! TO.C,D35*
X47800000Y-109700000D03*
X47800000Y-111275000D03*
G04 #@! TD*
D19*
G04 #@! TO.C,D36*
X142450000Y-121600000D03*
X142450000Y-118400000D03*
X137550000Y-118400000D03*
X137550000Y-121600000D03*
G04 #@! TD*
G04 #@! TO.C,D38*
X142450000Y-141600000D03*
X142450000Y-138400000D03*
X137550000Y-138400000D03*
X137550000Y-141600000D03*
G04 #@! TD*
D20*
G04 #@! TO.C,D39*
X49500000Y-109712500D03*
X49500000Y-111287500D03*
G04 #@! TD*
D19*
G04 #@! TO.C,D40*
X152450000Y-121600000D03*
X152450000Y-118400000D03*
X147550000Y-118400000D03*
X147550000Y-121600000D03*
G04 #@! TD*
G04 #@! TO.C,D41*
X57550000Y-128400000D03*
X57550000Y-131600000D03*
X62450000Y-131600000D03*
X62450000Y-128400000D03*
G04 #@! TD*
G04 #@! TO.C,D42*
X152450000Y-141600000D03*
X152450000Y-138400000D03*
X147550000Y-138400000D03*
X147550000Y-141600000D03*
G04 #@! TD*
G04 #@! TO.C,D43*
X162450000Y-121600000D03*
X162450000Y-118400000D03*
X157550000Y-118400000D03*
X157550000Y-121600000D03*
G04 #@! TD*
G04 #@! TO.C,D44*
X47550000Y-128400000D03*
X47550000Y-131600000D03*
X52450000Y-131600000D03*
X52450000Y-128400000D03*
G04 #@! TD*
G04 #@! TO.C,D45*
X162450000Y-141600000D03*
X162450000Y-138400000D03*
X157550000Y-138400000D03*
X157550000Y-141600000D03*
G04 #@! TD*
D21*
G04 #@! TO.C,D46*
X40200000Y-96762500D03*
X39250000Y-96762500D03*
X38300000Y-96762500D03*
X38300000Y-99037500D03*
X39250000Y-99037500D03*
X40200000Y-99037500D03*
G04 #@! TD*
D22*
G04 #@! TO.C,H1*
X34400000Y-93500000D03*
G04 #@! TD*
G04 #@! TO.C,H2*
X137500000Y-102100000D03*
G04 #@! TD*
G04 #@! TO.C,H3*
X176000000Y-153100000D03*
G04 #@! TD*
G04 #@! TO.C,H4*
X34900000Y-153100000D03*
G04 #@! TD*
D23*
G04 #@! TO.C,J1*
X130160000Y-103800000D03*
D24*
X127620000Y-103800000D03*
X125080000Y-103800000D03*
X122540000Y-103800000D03*
X120000000Y-103800000D03*
G04 #@! TD*
D23*
G04 #@! TO.C,J3*
X127600000Y-99900000D03*
D24*
X125060000Y-99900000D03*
X122520000Y-99900000D03*
X119980000Y-99900000D03*
G04 #@! TD*
D25*
G04 #@! TO.C,L1*
X162200000Y-90715000D03*
X162200000Y-91685000D03*
G04 #@! TD*
D26*
G04 #@! TO.C,R1*
X42400000Y-149000000D03*
X44050000Y-149000000D03*
G04 #@! TD*
D27*
G04 #@! TO.C,R3*
X40200000Y-116790000D03*
X40200000Y-117810000D03*
G04 #@! TD*
G04 #@! TO.C,R4*
X40100000Y-126700000D03*
X40100000Y-127720000D03*
G04 #@! TD*
G04 #@! TO.C,R5*
X40100000Y-136680000D03*
X40100000Y-137700000D03*
G04 #@! TD*
D28*
G04 #@! TO.C,R6*
X49225000Y-146600000D03*
X47575000Y-146600000D03*
G04 #@! TD*
D29*
G04 #@! TO.C,R7*
X163600000Y-145225000D03*
X163600000Y-143575000D03*
G04 #@! TD*
D26*
G04 #@! TO.C,R8*
X52575000Y-149700000D03*
X54225000Y-149700000D03*
G04 #@! TD*
D28*
G04 #@! TO.C,R9*
X51125000Y-149700000D03*
X49475000Y-149700000D03*
G04 #@! TD*
G04 #@! TO.C,R10*
X170925000Y-146500000D03*
X169275000Y-146500000D03*
G04 #@! TD*
D30*
G04 #@! TO.C,R12*
X93690000Y-103700000D03*
X94710000Y-103700000D03*
G04 #@! TD*
D31*
G04 #@! TO.C,R13*
X161700000Y-143675000D03*
X161700000Y-145325000D03*
G04 #@! TD*
D30*
G04 #@! TO.C,R14*
X93690000Y-104800000D03*
X94710000Y-104800000D03*
G04 #@! TD*
D27*
G04 #@! TO.C,R19*
X163600000Y-147100000D03*
X163600000Y-148120000D03*
G04 #@! TD*
G04 #@! TO.C,R20*
X150300000Y-147190000D03*
X150300000Y-148210000D03*
G04 #@! TD*
D26*
G04 #@! TO.C,R25*
X160600000Y-147100000D03*
X162250000Y-147100000D03*
G04 #@! TD*
D31*
G04 #@! TO.C,R29*
X70100000Y-99275000D03*
X70100000Y-100925000D03*
G04 #@! TD*
D29*
G04 #@! TO.C,R30*
X71800000Y-100900000D03*
X71800000Y-99250000D03*
G04 #@! TD*
D32*
G04 #@! TO.C,R31*
X47800000Y-107810000D03*
X47800000Y-106790000D03*
G04 #@! TD*
G04 #@! TO.C,R32*
X49400000Y-107835000D03*
X49400000Y-106815000D03*
G04 #@! TD*
D26*
G04 #@! TO.C,R33*
X49250000Y-97300000D03*
X50900000Y-97300000D03*
G04 #@! TD*
D33*
G04 #@! TO.C,S1*
X49800000Y-152850000D03*
X53800000Y-152850000D03*
X55800000Y-152850000D03*
X57800000Y-152850000D03*
D34*
X47700000Y-152850000D03*
X59900000Y-152850000D03*
G04 #@! TD*
D35*
G04 #@! TO.C,SW1*
X38250000Y-117750000D03*
X38250000Y-122250000D03*
X31750000Y-117750000D03*
X31750000Y-122250000D03*
X35000000Y-117100000D03*
X35000000Y-122900000D03*
G04 #@! TD*
G04 #@! TO.C,SW2*
X38250000Y-127750000D03*
X38250000Y-132250000D03*
X31750000Y-127750000D03*
X31750000Y-132250000D03*
X35000000Y-127100000D03*
X35000000Y-132900000D03*
G04 #@! TD*
G04 #@! TO.C,SW3*
X38250000Y-137750000D03*
X38250000Y-142250000D03*
X31750000Y-137750000D03*
X31750000Y-142250000D03*
X35000000Y-137100000D03*
X35000000Y-142900000D03*
G04 #@! TD*
G04 #@! TO.C,SW4*
X178250000Y-117750000D03*
X178250000Y-122250000D03*
X171750000Y-117750000D03*
X171750000Y-122250000D03*
X175000000Y-117100000D03*
X175000000Y-122900000D03*
G04 #@! TD*
G04 #@! TO.C,SW5*
X178250000Y-127750000D03*
X178250000Y-132250000D03*
X171750000Y-127750000D03*
X171750000Y-132250000D03*
X175000000Y-127100000D03*
X175000000Y-132900000D03*
G04 #@! TD*
G04 #@! TO.C,SW6*
X178250000Y-137750000D03*
X178250000Y-142250000D03*
X171750000Y-137750000D03*
X171750000Y-142250000D03*
X175000000Y-137100000D03*
X175000000Y-142900000D03*
G04 #@! TD*
G04 #@! TO.C,SW7*
X170250000Y-150600000D03*
X170250000Y-155100000D03*
X163750000Y-150600000D03*
X163750000Y-155100000D03*
X167000000Y-149950000D03*
X167000000Y-155750000D03*
G04 #@! TD*
G04 #@! TO.C,SW8*
X160250000Y-150600000D03*
X160250000Y-155100000D03*
X153750000Y-150600000D03*
X153750000Y-155100000D03*
X157000000Y-149950000D03*
X157000000Y-155750000D03*
G04 #@! TD*
G04 #@! TO.C,SW9*
X150250000Y-150600000D03*
X150250000Y-155100000D03*
X143750000Y-150600000D03*
X143750000Y-155100000D03*
X147000000Y-149950000D03*
X147000000Y-155750000D03*
G04 #@! TD*
D36*
G04 #@! TO.C,SW10*
X55800000Y-107250000D03*
X62800000Y-107250000D03*
X55800000Y-111750000D03*
X62800000Y-111750000D03*
G04 #@! TD*
D37*
G04 #@! TO.C,TH1*
X36937500Y-105500000D03*
X35062500Y-105500000D03*
G04 #@! TD*
D38*
G04 #@! TO.C,U1*
X44900000Y-141750000D03*
X43630000Y-141750000D03*
X42360000Y-141750000D03*
X41090000Y-141750000D03*
X41090000Y-147000000D03*
X42360000Y-147000000D03*
X43630000Y-147000000D03*
X44900000Y-147000000D03*
G04 #@! TD*
G04 #@! TO.C,U3*
X169105000Y-138275000D03*
X167835000Y-138275000D03*
X166565000Y-138275000D03*
X165295000Y-138275000D03*
X165295000Y-143525000D03*
X166565000Y-143525000D03*
X167835000Y-143525000D03*
X169105000Y-143525000D03*
G04 #@! TD*
D39*
G04 #@! TO.C,U4*
X153400000Y-143895000D03*
X153400000Y-145165000D03*
X153400000Y-146435000D03*
X153400000Y-147705000D03*
X158650000Y-147705000D03*
X158650000Y-146435000D03*
X158650000Y-145165000D03*
X158650000Y-143895000D03*
G04 #@! TD*
D40*
G04 #@! TO.C,U5*
X64600000Y-101787500D03*
D41*
X66100000Y-101700000D03*
D40*
X67600000Y-101787500D03*
G04 #@! TD*
D42*
G04 #@! TO.C,U6*
X157699480Y-92301920D03*
X155697960Y-92301920D03*
X153698980Y-92301920D03*
X149701020Y-92301920D03*
X147702040Y-92301920D03*
X145700520Y-92301920D03*
X145700520Y-107298080D03*
X147702040Y-107298080D03*
X157699480Y-107298080D03*
G04 #@! TD*
D19*
G04 #@! TO.C,D47*
X142450000Y-111600000D03*
X142450000Y-108400000D03*
X137550000Y-108400000D03*
X137550000Y-111600000D03*
G04 #@! TD*
G04 #@! TO.C,D48*
X132450000Y-111600000D03*
X132450000Y-108400000D03*
X127550000Y-108400000D03*
X127550000Y-111600000D03*
G04 #@! TD*
G04 #@! TO.C,D49*
X122450000Y-111600000D03*
X122450000Y-108400000D03*
X117550000Y-108400000D03*
X117550000Y-111600000D03*
G04 #@! TD*
G04 #@! TO.C,D8*
X62450000Y-121600000D03*
X62450000Y-118400000D03*
X57550000Y-118400000D03*
X57550000Y-121600000D03*
G04 #@! TD*
G04 #@! TO.C,D14*
X82450000Y-121600000D03*
X82450000Y-118400000D03*
X77550000Y-118400000D03*
X77550000Y-121600000D03*
G04 #@! TD*
G04 #@! TO.C,D16*
X82450000Y-141600000D03*
X82450000Y-138400000D03*
X77550000Y-138400000D03*
X77550000Y-141600000D03*
G04 #@! TD*
G04 #@! TO.C,D37*
X67550000Y-128400000D03*
X67550000Y-131600000D03*
X72450000Y-131600000D03*
X72450000Y-128400000D03*
G04 #@! TD*
G04 #@! TO.C,D12*
X137550000Y-128400000D03*
X137550000Y-131600000D03*
X142450000Y-131600000D03*
X142450000Y-128400000D03*
G04 #@! TD*
G04 #@! TO.C,D21*
X107550000Y-128400000D03*
X107550000Y-131600000D03*
X112450000Y-131600000D03*
X112450000Y-128400000D03*
G04 #@! TD*
G04 #@! TO.C,D18*
X117550000Y-128400000D03*
X117550000Y-131600000D03*
X122450000Y-131600000D03*
X122450000Y-128400000D03*
G04 #@! TD*
G04 #@! TO.C,D9*
X147550000Y-128400000D03*
X147550000Y-131600000D03*
X152450000Y-131600000D03*
X152450000Y-128400000D03*
G04 #@! TD*
G04 #@! TO.C,D15*
X127550000Y-128400000D03*
X127550000Y-131600000D03*
X132450000Y-131600000D03*
X132450000Y-128400000D03*
G04 #@! TD*
D43*
G04 #@! TO.C,C21*
X113800000Y-112000000D03*
X108200000Y-112000000D03*
G04 #@! TD*
D44*
G04 #@! TO.C,C22*
X96337500Y-109100000D03*
X96337500Y-114700000D03*
G04 #@! TD*
D45*
G04 #@! TO.C,C23*
X85500000Y-101300000D03*
X84365000Y-101300000D03*
G04 #@! TD*
D46*
G04 #@! TO.C,C24*
X103162500Y-112900000D03*
X101437500Y-112900000D03*
G04 #@! TD*
D47*
G04 #@! TO.C,U2*
X68350000Y-110490000D03*
X68350000Y-111760000D03*
X68350000Y-113030000D03*
X68350000Y-114300000D03*
X73300000Y-114300000D03*
X73300000Y-113030000D03*
X73300000Y-111760000D03*
X73300000Y-110490000D03*
G04 #@! TD*
D48*
G04 #@! TO.C,J4*
X44600000Y-93675000D03*
X43950000Y-93675000D03*
X43300000Y-93675000D03*
X42650000Y-93675000D03*
X42000000Y-93675000D03*
D49*
X45800000Y-93700000D03*
X40800000Y-93700000D03*
D35*
X46800000Y-91000000D03*
X39800000Y-91000000D03*
D50*
X44300000Y-91000000D03*
X42300000Y-91000000D03*
X46350000Y-91000000D03*
X40250000Y-91000000D03*
G04 #@! TD*
D12*
G04 #@! TO.C,C10*
X56432500Y-147900000D03*
X57567500Y-147900000D03*
G04 #@! TD*
D45*
G04 #@! TO.C,C25*
X66667500Y-105000000D03*
X65532500Y-105000000D03*
G04 #@! TD*
D26*
G04 #@! TO.C,R2*
X59175000Y-149700000D03*
X60825000Y-149700000D03*
G04 #@! TD*
D51*
G04 #@! TO.C,R15*
X40510000Y-101700000D03*
X39490000Y-101700000D03*
G04 #@! TD*
D26*
G04 #@! TO.C,R35*
X39175000Y-149000000D03*
X40825000Y-149000000D03*
G04 #@! TD*
D45*
G04 #@! TO.C,C61*
X100535000Y-116600000D03*
X99400000Y-116600000D03*
G04 #@! TD*
G04 #@! TO.C,C62*
X140535000Y-106600000D03*
X139400000Y-106600000D03*
G04 #@! TD*
G04 #@! TO.C,C36*
X110600000Y-136600000D03*
X109465000Y-136600000D03*
G04 #@! TD*
G04 #@! TO.C,C26*
X81635000Y-100700000D03*
X80500000Y-100700000D03*
G04 #@! TD*
D12*
G04 #@! TO.C,C32*
X129465000Y-126600000D03*
X130600000Y-126600000D03*
G04 #@! TD*
D52*
G04 #@! TO.C,U8*
X88000000Y-102900000D03*
X87500000Y-102900000D03*
X87000000Y-102900000D03*
X86500000Y-102900000D03*
X86000000Y-102900000D03*
X85500000Y-102900000D03*
X85000000Y-102900000D03*
X84500000Y-102900000D03*
X84000000Y-102900000D03*
X83500000Y-102900000D03*
X83000000Y-102900000D03*
X82500000Y-102900000D03*
D53*
X81087500Y-104312500D03*
X81087500Y-104812500D03*
X81087500Y-105312500D03*
X81087500Y-105812500D03*
X81087500Y-106312500D03*
X81087500Y-106812500D03*
X81087500Y-107312500D03*
X81087500Y-107812500D03*
X81087500Y-108312500D03*
X81087500Y-108812500D03*
X81087500Y-109312500D03*
X81087500Y-109812500D03*
D52*
X82500000Y-111225000D03*
X83000000Y-111225000D03*
X83500000Y-111225000D03*
X84000000Y-111225000D03*
X84500000Y-111225000D03*
X85000000Y-111225000D03*
X85500000Y-111225000D03*
X86000000Y-111225000D03*
X86500000Y-111225000D03*
X87000000Y-111225000D03*
X87500000Y-111225000D03*
X88000000Y-111225000D03*
D53*
X89412500Y-109812500D03*
X89412500Y-109312500D03*
X89412500Y-108812500D03*
X89412500Y-108312500D03*
X89412500Y-107812500D03*
X89412500Y-107312500D03*
X89412500Y-106812500D03*
X89412500Y-106312500D03*
X89412500Y-105812500D03*
X89412500Y-105312500D03*
X89412500Y-104812500D03*
X89412500Y-104312500D03*
G04 #@! TD*
D30*
G04 #@! TO.C,R38*
X78380000Y-104800000D03*
X79400000Y-104800000D03*
G04 #@! TD*
D45*
G04 #@! TO.C,C67*
X110535000Y-116600000D03*
X109400000Y-116600000D03*
G04 #@! TD*
D54*
G04 #@! TO.C,R42*
X116900000Y-102475000D03*
X116900000Y-104300000D03*
G04 #@! TD*
D55*
G04 #@! TO.C,R46*
X104462500Y-107600000D03*
X102637500Y-107600000D03*
G04 #@! TD*
D45*
G04 #@! TO.C,C41*
X160535000Y-136500000D03*
X159400000Y-136500000D03*
G04 #@! TD*
D12*
G04 #@! TO.C,C44*
X69465000Y-126600000D03*
X70600000Y-126600000D03*
G04 #@! TD*
D56*
G04 #@! TO.C,D54*
X169200000Y-127000000D03*
X169200000Y-124900000D03*
G04 #@! TD*
D12*
G04 #@! TO.C,C51*
X59365000Y-126600000D03*
X60500000Y-126600000D03*
G04 #@! TD*
D31*
G04 #@! TO.C,R40*
X76000000Y-110175000D03*
X76000000Y-111825000D03*
G04 #@! TD*
D45*
G04 #@! TO.C,C48*
X120635000Y-106600000D03*
X119500000Y-106600000D03*
G04 #@! TD*
G04 #@! TO.C,C42*
X70500000Y-136600000D03*
X69365000Y-136600000D03*
G04 #@! TD*
D27*
G04 #@! TO.C,R39*
X43500000Y-102700000D03*
X43500000Y-103720000D03*
G04 #@! TD*
D45*
G04 #@! TO.C,C60*
X120535000Y-116600000D03*
X119400000Y-116600000D03*
G04 #@! TD*
D11*
G04 #@! TO.C,C27*
X86600000Y-101235000D03*
X86600000Y-100100000D03*
G04 #@! TD*
D45*
G04 #@! TO.C,C64*
X150600000Y-136600000D03*
X149465000Y-136600000D03*
G04 #@! TD*
G04 #@! TO.C,C53*
X130535000Y-116600000D03*
X129400000Y-116600000D03*
G04 #@! TD*
D57*
G04 #@! TO.C,U9*
X101735880Y-149330520D03*
D58*
X101659680Y-149828360D03*
X101659680Y-150326200D03*
D59*
X103097320Y-150326200D03*
D58*
X103097320Y-149828360D03*
X103097320Y-149330520D03*
G04 #@! TD*
D45*
G04 #@! TO.C,C59*
X150535000Y-116600000D03*
X149400000Y-116600000D03*
G04 #@! TD*
G04 #@! TO.C,C50*
X130600000Y-136600000D03*
X129465000Y-136600000D03*
G04 #@! TD*
G04 #@! TO.C,C46*
X160535000Y-116600000D03*
X159400000Y-116600000D03*
G04 #@! TD*
D60*
G04 #@! TO.C,U7*
X50110000Y-99450000D03*
X48840000Y-99450000D03*
X47570000Y-99450000D03*
X46300000Y-99450000D03*
X46300000Y-104400000D03*
X47570000Y-104400000D03*
X48840000Y-104400000D03*
X50110000Y-104400000D03*
D61*
X48205000Y-101925000D03*
G04 #@! TD*
D62*
G04 #@! TO.C,U10*
X43900000Y-96800000D03*
X43400000Y-96800000D03*
X42900000Y-96800000D03*
X42400000Y-96800000D03*
X41900000Y-96800000D03*
X41900000Y-101200000D03*
X42400000Y-101200000D03*
X42900000Y-101200000D03*
X43400000Y-101200000D03*
X43900000Y-101200000D03*
G04 #@! TD*
D11*
G04 #@! TO.C,C20*
X100400000Y-150335000D03*
X100400000Y-149200000D03*
G04 #@! TD*
D45*
G04 #@! TO.C,C63*
X100600000Y-136600000D03*
X99465000Y-136600000D03*
G04 #@! TD*
D43*
G04 #@! TO.C,C28*
X103200000Y-102300000D03*
X97600000Y-102300000D03*
G04 #@! TD*
D12*
G04 #@! TO.C,C39*
X139365000Y-126600000D03*
X140500000Y-126600000D03*
G04 #@! TD*
G04 #@! TO.C,C58*
X49465000Y-126600000D03*
X50600000Y-126600000D03*
G04 #@! TD*
D45*
G04 #@! TO.C,C65*
X50535000Y-136600000D03*
X49400000Y-136600000D03*
G04 #@! TD*
D30*
G04 #@! TO.C,R17*
X177090000Y-125300000D03*
X178110000Y-125300000D03*
G04 #@! TD*
D45*
G04 #@! TO.C,C35*
X60600000Y-136600000D03*
X59465000Y-136600000D03*
G04 #@! TD*
D63*
G04 #@! TO.C,Q1*
X103075000Y-111250000D03*
X103075000Y-109350000D03*
X101200000Y-110300000D03*
G04 #@! TD*
D45*
G04 #@! TO.C,C33*
X60635000Y-116600000D03*
X59500000Y-116600000D03*
G04 #@! TD*
G04 #@! TO.C,C40*
X70635000Y-116600000D03*
X69500000Y-116600000D03*
G04 #@! TD*
G04 #@! TO.C,C49*
X80500000Y-136600000D03*
X79365000Y-136600000D03*
G04 #@! TD*
D12*
G04 #@! TO.C,C31*
X109465000Y-126600000D03*
X110600000Y-126600000D03*
G04 #@! TD*
D45*
G04 #@! TO.C,C47*
X80535000Y-116600000D03*
X79400000Y-116600000D03*
G04 #@! TD*
G04 #@! TO.C,C57*
X140600000Y-136600000D03*
X139465000Y-136600000D03*
G04 #@! TD*
D12*
G04 #@! TO.C,C29*
X79465000Y-126600000D03*
X80600000Y-126600000D03*
G04 #@! TD*
D27*
G04 #@! TO.C,R16*
X172100000Y-148280000D03*
X172100000Y-149300000D03*
G04 #@! TD*
G04 #@! TO.C,R36*
X51700000Y-102465000D03*
X51700000Y-103485000D03*
G04 #@! TD*
D64*
G04 #@! TO.C,D55*
X169200000Y-133200000D03*
X169200000Y-135300000D03*
G04 #@! TD*
D45*
G04 #@! TO.C,C43*
X120500000Y-136600000D03*
X119365000Y-136600000D03*
G04 #@! TD*
D65*
G04 #@! TO.C,D52*
X59400000Y-97000000D03*
X59400000Y-101000000D03*
G04 #@! TD*
D63*
G04 #@! TO.C,Q2*
X94200000Y-102300000D03*
X94200000Y-100400000D03*
X92325000Y-101350000D03*
G04 #@! TD*
D45*
G04 #@! TO.C,C55*
X130535000Y-106600000D03*
X129400000Y-106600000D03*
G04 #@! TD*
D54*
G04 #@! TO.C,R44*
X105237500Y-112975000D03*
X105237500Y-114800000D03*
G04 #@! TD*
D12*
G04 #@! TO.C,C38*
X119465000Y-126600000D03*
X120600000Y-126600000D03*
G04 #@! TD*
D45*
G04 #@! TO.C,C56*
X90600000Y-136600000D03*
X89465000Y-136600000D03*
G04 #@! TD*
D56*
G04 #@! TO.C,D50*
X41700000Y-128850000D03*
X41700000Y-126750000D03*
G04 #@! TD*
D45*
G04 #@! TO.C,C54*
X90535000Y-116600000D03*
X89400000Y-116600000D03*
G04 #@! TD*
D54*
G04 #@! TO.C,R43*
X105237500Y-109487500D03*
X105237500Y-111312500D03*
G04 #@! TD*
D56*
G04 #@! TO.C,D51*
X41600000Y-138900000D03*
X41600000Y-136800000D03*
G04 #@! TD*
D12*
G04 #@! TO.C,C30*
X89465000Y-126600000D03*
X90600000Y-126600000D03*
G04 #@! TD*
D30*
G04 #@! TO.C,R11*
X168780000Y-121000000D03*
X169800000Y-121000000D03*
G04 #@! TD*
D66*
G04 #@! TO.C,D57*
X148200000Y-145300000D03*
X150300000Y-145300000D03*
G04 #@! TD*
D31*
G04 #@! TO.C,R41*
X77700000Y-110175000D03*
X77700000Y-111825000D03*
G04 #@! TD*
D12*
G04 #@! TO.C,C45*
X149465000Y-126600000D03*
X150600000Y-126600000D03*
G04 #@! TD*
G04 #@! TO.C,C52*
X159465000Y-126600000D03*
X160600000Y-126600000D03*
G04 #@! TD*
D67*
G04 #@! TO.C,D56*
X166800000Y-147000000D03*
X164700000Y-147000000D03*
G04 #@! TD*
D68*
G04 #@! TO.C,R45*
X101712500Y-114800000D03*
X103537500Y-114800000D03*
G04 #@! TD*
D30*
G04 #@! TO.C,R18*
X177190000Y-135200000D03*
X178210000Y-135200000D03*
G04 #@! TD*
D12*
G04 #@! TO.C,C37*
X99465000Y-126600000D03*
X100600000Y-126600000D03*
G04 #@! TD*
D45*
G04 #@! TO.C,C34*
X50535000Y-116600000D03*
X49400000Y-116600000D03*
G04 #@! TD*
D67*
G04 #@! TO.C,D53*
X174400000Y-146600000D03*
X172300000Y-146600000D03*
G04 #@! TD*
D45*
G04 #@! TO.C,C66*
X140535000Y-116600000D03*
X139400000Y-116600000D03*
G04 #@! TD*
D23*
G04 #@! TO.C,J2*
X32625000Y-111825000D03*
D24*
X32625000Y-109285000D03*
X32625000Y-106745000D03*
G04 #@! TD*
D23*
G04 #@! TO.C,J5*
X32720000Y-146100000D03*
D24*
X35260000Y-146100000D03*
X37800000Y-146100000D03*
G04 #@! TD*
D69*
G04 #@! TO.C,J6*
X32600000Y-102800000D03*
D70*
X32600000Y-101550000D03*
G04 #@! TD*
D71*
G04 #@! TO.C,SW11*
X54400000Y-92042500D03*
X56400000Y-92042500D03*
X58400000Y-92042500D03*
D72*
X52300000Y-92042500D03*
X60500000Y-92042500D03*
G04 #@! TD*
D73*
G04 #@! TO.C,MK1*
X112600000Y-101730000D03*
D74*
X112600000Y-104270000D03*
G04 #@! TD*
M02*
