G04 #@! TF.GenerationSoftware,KiCad,Pcbnew,7.0.1-3b83917a11~172~ubuntu22.04.1*
G04 #@! TF.CreationDate,2023-04-04T19:30:22-06:00*
G04 #@! TF.ProjectId,controller,636f6e74-726f-46c6-9c65-722e6b696361,rev?*
G04 #@! TF.SameCoordinates,Original*
G04 #@! TF.FileFunction,Soldermask,Bot*
G04 #@! TF.FilePolarity,Negative*
%FSLAX46Y46*%
G04 Gerber Fmt 4.6, Leading zero omitted, Abs format (unit mm)*
G04 Created by KiCad (PCBNEW 7.0.1-3b83917a11~172~ubuntu22.04.1) date 2023-04-04 19:30:22*
%MOMM*%
%LPD*%
G01*
G04 APERTURE LIST*
%ADD10C,3.200000*%
%ADD11R,1.700000X1.700000*%
%ADD12O,1.700000X1.700000*%
%ADD13C,1.308000*%
%ADD14C,2.250000*%
%ADD15C,1.800000*%
%ADD16C,1.408000*%
%ADD17R,1.000000X1.000000*%
%ADD18C,1.000000*%
%ADD19C,1.600000*%
%ADD20C,2.200000*%
%ADD21R,1.378000X1.378000*%
%ADD22C,1.378000*%
G04 APERTURE END LIST*
D10*
G04 #@! TO.C,H1*
X34400000Y-93500000D03*
G04 #@! TD*
G04 #@! TO.C,H2*
X137500000Y-102100000D03*
G04 #@! TD*
G04 #@! TO.C,H3*
X176000000Y-153100000D03*
G04 #@! TD*
G04 #@! TO.C,H4*
X34900000Y-153100000D03*
G04 #@! TD*
D11*
G04 #@! TO.C,J1*
X130160000Y-103800000D03*
D12*
X127620000Y-103800000D03*
X125080000Y-103800000D03*
X122540000Y-103800000D03*
X120000000Y-103800000D03*
G04 #@! TD*
D11*
G04 #@! TO.C,J3*
X127600000Y-99900000D03*
D12*
X125060000Y-99900000D03*
X122520000Y-99900000D03*
X119980000Y-99900000D03*
G04 #@! TD*
D13*
G04 #@! TO.C,S1*
X49800000Y-152850000D03*
X53800000Y-152850000D03*
X55800000Y-152850000D03*
X57800000Y-152850000D03*
D14*
X47700000Y-152850000D03*
X59900000Y-152850000D03*
G04 #@! TD*
D15*
G04 #@! TO.C,SW1*
X38250000Y-117750000D03*
X38250000Y-122250000D03*
X31750000Y-117750000D03*
X31750000Y-122250000D03*
X35000000Y-117100000D03*
X35000000Y-122900000D03*
G04 #@! TD*
G04 #@! TO.C,SW2*
X38250000Y-127750000D03*
X38250000Y-132250000D03*
X31750000Y-127750000D03*
X31750000Y-132250000D03*
X35000000Y-127100000D03*
X35000000Y-132900000D03*
G04 #@! TD*
G04 #@! TO.C,SW3*
X38250000Y-137750000D03*
X38250000Y-142250000D03*
X31750000Y-137750000D03*
X31750000Y-142250000D03*
X35000000Y-137100000D03*
X35000000Y-142900000D03*
G04 #@! TD*
G04 #@! TO.C,SW4*
X178250000Y-117750000D03*
X178250000Y-122250000D03*
X171750000Y-117750000D03*
X171750000Y-122250000D03*
X175000000Y-117100000D03*
X175000000Y-122900000D03*
G04 #@! TD*
G04 #@! TO.C,SW5*
X178250000Y-127750000D03*
X178250000Y-132250000D03*
X171750000Y-127750000D03*
X171750000Y-132250000D03*
X175000000Y-127100000D03*
X175000000Y-132900000D03*
G04 #@! TD*
G04 #@! TO.C,SW6*
X178250000Y-137750000D03*
X178250000Y-142250000D03*
X171750000Y-137750000D03*
X171750000Y-142250000D03*
X175000000Y-137100000D03*
X175000000Y-142900000D03*
G04 #@! TD*
G04 #@! TO.C,SW7*
X170250000Y-150600000D03*
X170250000Y-155100000D03*
X163750000Y-150600000D03*
X163750000Y-155100000D03*
X167000000Y-149950000D03*
X167000000Y-155750000D03*
G04 #@! TD*
G04 #@! TO.C,SW8*
X160250000Y-150600000D03*
X160250000Y-155100000D03*
X153750000Y-150600000D03*
X153750000Y-155100000D03*
X157000000Y-149950000D03*
X157000000Y-155750000D03*
G04 #@! TD*
G04 #@! TO.C,SW9*
X150250000Y-150600000D03*
X150250000Y-155100000D03*
X143750000Y-150600000D03*
X143750000Y-155100000D03*
X147000000Y-149950000D03*
X147000000Y-155750000D03*
G04 #@! TD*
D16*
G04 #@! TO.C,J4*
X45800000Y-93700000D03*
X40800000Y-93700000D03*
D15*
X46800000Y-91000000D03*
X39800000Y-91000000D03*
G04 #@! TD*
D11*
G04 #@! TO.C,J2*
X32625000Y-111825000D03*
D12*
X32625000Y-109285000D03*
X32625000Y-106745000D03*
G04 #@! TD*
D11*
G04 #@! TO.C,J5*
X32720000Y-146100000D03*
D12*
X35260000Y-146100000D03*
X37800000Y-146100000D03*
G04 #@! TD*
D17*
G04 #@! TO.C,J6*
X32600000Y-102800000D03*
D18*
X32600000Y-101550000D03*
G04 #@! TD*
D19*
G04 #@! TO.C,SW11*
X54400000Y-92042500D03*
X56400000Y-92042500D03*
X58400000Y-92042500D03*
D20*
X52300000Y-92042500D03*
X60500000Y-92042500D03*
G04 #@! TD*
D21*
G04 #@! TO.C,MK1*
X112600000Y-101730000D03*
D22*
X112600000Y-104270000D03*
G04 #@! TD*
M02*
