<?xml version="1.0" standalone="no"?>
 <!DOCTYPE svg PUBLIC "-//W3C//DTD SVG 1.1//EN" 
 "http://www.w3.org/Graphics/SVG/1.1/DTD/svg11.dtd"> 
<svg xmlns="http://www.w3.org/2000/svg" version="1.1" 
    width="2.11328cm" height="4.41452cm" viewBox="0 0 8320 17380 ">
<title>SVG Picture created as rfboard-brd.svg date 2019/09/22 21:07:07 </title>
  <desc>Picture generated by PCBNEW </desc>
<g style="fill:#000000; fill-opacity:1;stroke:#000000; stroke-opacity:1;
stroke-linecap:round; stroke-linejoin:round; "
 transform="translate(0 0) scale(1 1)">
</g>
<g style="fill:#000000; fill-opacity:0.0; 
stroke:#000000; stroke-width:-0.000393701; stroke-opacity:1; 
stroke-linecap:round; stroke-linejoin:round;">
<g >
</g>
<g style="fill:#848400; fill-opacity:0.0; 
stroke:#848400; stroke-width:-0.000393701; stroke-opacity:1; 
stroke-linecap:round; stroke-linejoin:round;">
</g>
<g style="fill:#848400; fill-opacity:1.0; 
stroke:#848400; stroke-width:0; stroke-opacity:1; 
stroke-linecap:round; stroke-linejoin:round;">
<circle cx="4950.79" cy="3179.13" r="433.071" /> 
</g>
<g style="fill:#848400; fill-opacity:1.0; 
stroke:#848400; stroke-width:39.3701; stroke-opacity:1; 
stroke-linecap:round; stroke-linejoin:round;">
</g>
<g style="fill:#848400; fill-opacity:1.0; 
stroke:#848400; stroke-width:0; stroke-opacity:1; 
stroke-linecap:round; stroke-linejoin:round;">
<circle cx="2950.79" cy="3179.13" r="433.071" /> 
</g>
<g style="fill:#848400; fill-opacity:1.0; 
stroke:#848400; stroke-width:39.3701; stroke-opacity:1; 
stroke-linecap:round; stroke-linejoin:round;">
</g>
<g style="fill:#848400; fill-opacity:1.0; 
stroke:#848400; stroke-width:0; stroke-opacity:1; 
stroke-linecap:round; stroke-linejoin:round;">
<circle cx="3950.79" cy="3179.13" r="433.071" /> 
</g>
<g style="fill:#848400; fill-opacity:1.0; 
stroke:#848400; stroke-width:39.3701; stroke-opacity:1; 
stroke-linecap:round; stroke-linejoin:round;">
</g>
<g >
</g>
<g >
</g>
<g style="fill:#840000; fill-opacity:1.0; 
stroke:#840000; stroke-width:39.3701; stroke-opacity:1; 
stroke-linecap:round; stroke-linejoin:round;">
</g>
<g style="fill:#840000; fill-opacity:1.0; 
stroke:#840000; stroke-width:0; stroke-opacity:1; 
stroke-linecap:round; stroke-linejoin:round;">
<path style="fill:#840000; fill-opacity:1.0; 
stroke:#840000; stroke-width:0; stroke-opacity:1; 
stroke-linecap:round; stroke-linejoin:round;fill-rule:evenodd;"
d="M 3843,4852
3855,4854
3867,4857
3879,4861
3890,4867
3900,4873
3910,4880
3919,4889
3928,4898
3935,4908
3941,4918
3947,4929
3951,4941
3954,4953
3956,4965
3956,4977
3956,5228
3956,5241
3954,5253
3951,5265
3947,5276
3941,5287
3935,5298
3928,5308
3919,5317
3910,5325
3900,5333
3890,5339
3879,5344
3867,5348
3855,5351
3843,5353
3831,5354
3550,5354
3538,5353
3526,5351
3514,5348
3502,5344
3491,5339
3480,5333
3471,5325
3461,5317
3453,5308
3446,5298
3440,5287
3434,5276
3430,5265
3427,5253
3425,5241
3425,5228
3425,4977
3425,4965
3427,4953
3430,4941
3434,4929
3440,4918
3446,4908
3453,4898
3461,4889
3471,4880
3480,4873
3491,4867
3502,4861
3514,4857
3526,4854
3538,4852
3550,4852
3831,4852
3843,4852
Z" /> 
<path style="fill:#840000; fill-opacity:1.0; 
stroke:#840000; stroke-width:0; stroke-opacity:1; 
stroke-linecap:round; stroke-linejoin:round;fill-rule:evenodd;"
d="M 3843,4232
3855,4234
3867,4237
3879,4241
3890,4247
3900,4253
3910,4260
3919,4269
3928,4278
3935,4288
3941,4298
3947,4309
3951,4321
3954,4333
3956,4345
3956,4357
3956,4608
3956,4621
3954,4633
3951,4645
3947,4656
3941,4667
3935,4678
3928,4688
3919,4697
3910,4705
3900,4713
3890,4719
3879,4724
3867,4728
3855,4731
3843,4733
3831,4734
3550,4734
3538,4733
3526,4731
3514,4728
3502,4724
3491,4719
3480,4713
3471,4705
3461,4697
3453,4688
3446,4678
3440,4667
3434,4656
3430,4645
3427,4633
3425,4621
3425,4608
3425,4357
3425,4345
3427,4333
3430,4321
3434,4309
3440,4298
3446,4288
3453,4278
3461,4269
3471,4260
3480,4253
3491,4247
3502,4241
3514,4237
3526,4234
3538,4232
3550,4232
3831,4232
3843,4232
Z" /> 
</g>
<g >
</g>
<g style="fill:#840000; fill-opacity:1.0; 
stroke:#840000; stroke-width:0; stroke-opacity:1; 
stroke-linecap:round; stroke-linejoin:round;">
<path style="fill:#840000; fill-opacity:1.0; 
stroke:#840000; stroke-width:0; stroke-opacity:1; 
stroke-linecap:round; stroke-linejoin:round;fill-rule:evenodd;"
d="M 575,2810
587,2812
599,2815
611,2819
622,2824
633,2831
643,2838
652,2846
660,2855
667,2865
674,2876
679,2887
683,2899
686,2911
688,2923
688,2935
688,3186
688,3198
686,3210
683,3222
679,3234
674,3245
667,3256
660,3266
652,3275
643,3283
633,3290
622,3297
611,3302
599,3306
587,3309
575,3311
563,3312
282,3312
270,3311
258,3309
246,3306
234,3302
223,3297
213,3290
203,3283
194,3275
185,3266
178,3256
172,3245
167,3234
162,3222
159,3210
158,3198
157,3186
157,2935
158,2923
159,2911
162,2899
167,2887
172,2876
178,2865
185,2855
194,2846
203,2838
213,2831
223,2824
234,2819
246,2815
258,2812
270,2810
282,2810
563,2810
575,2810
Z" /> 
<path style="fill:#840000; fill-opacity:1.0; 
stroke:#840000; stroke-width:0; stroke-opacity:1; 
stroke-linecap:round; stroke-linejoin:round;fill-rule:evenodd;"
d="M 575,3430
587,3432
599,3435
611,3439
622,3444
633,3451
643,3458
652,3466
660,3475
667,3485
674,3496
679,3507
683,3519
686,3531
688,3543
688,3555
688,3806
688,3818
686,3831
683,3843
679,3854
674,3865
667,3876
660,3886
652,3895
643,3903
633,3910
622,3917
611,3922
599,3926
587,3929
575,3931
563,3932
282,3932
270,3931
258,3929
246,3926
234,3922
223,3917
213,3910
203,3903
194,3895
185,3886
178,3876
172,3865
167,3854
162,3843
159,3831
158,3818
157,3806
157,3555
158,3543
159,3531
162,3519
167,3507
172,3496
178,3485
185,3475
194,3466
203,3458
213,3451
223,3444
234,3439
246,3435
258,3432
270,3430
282,3430
563,3430
575,3430
Z" /> 
</g>
<g >
</g>
<g style="fill:#840000; fill-opacity:1.0; 
stroke:#840000; stroke-width:0; stroke-opacity:1; 
stroke-linecap:round; stroke-linejoin:round;">
<path style="fill:#840000; fill-opacity:1.0; 
stroke:#840000; stroke-width:0; stroke-opacity:1; 
stroke-linecap:round; stroke-linejoin:round;fill-rule:evenodd;"
d="M 2416,5512
2428,5514
2440,5517
2452,5521
2463,5526
2473,5532
2483,5540
2492,5548
2501,5557
2508,5567
2514,5578
2519,5589
2524,5600
2527,5612
2528,5625
2529,5637
2529,5917
2528,5930
2527,5942
2524,5954
2519,5965
2514,5976
2508,5987
2501,5997
2492,6006
2483,6014
2473,6022
2463,6028
2452,6033
2440,6037
2428,6040
2416,6042
2404,6043
2153,6043
2140,6042
2128,6040
2116,6037
2105,6033
2093,6028
2083,6022
2073,6014
2064,6006
2056,5997
2048,5987
2042,5976
2037,5965
2032,5954
2029,5942
2028,5930
2027,5917
2027,5637
2028,5625
2029,5612
2032,5600
2037,5589
2042,5578
2048,5567
2056,5557
2064,5548
2073,5540
2083,5532
2093,5526
2105,5521
2116,5517
2128,5514
2140,5512
2153,5511
2404,5511
2416,5512
Z" /> 
<path style="fill:#840000; fill-opacity:1.0; 
stroke:#840000; stroke-width:0; stroke-opacity:1; 
stroke-linecap:round; stroke-linejoin:round;fill-rule:evenodd;"
d="M 3036,5512
3048,5514
3060,5517
3072,5521
3083,5526
3093,5532
3103,5540
3112,5548
3121,5557
3128,5567
3134,5578
3140,5589
3144,5600
3147,5612
3149,5625
3149,5637
3149,5917
3149,5930
3147,5942
3144,5954
3140,5965
3134,5976
3128,5987
3121,5997
3112,6006
3103,6014
3093,6022
3083,6028
3072,6033
3060,6037
3048,6040
3036,6042
3024,6043
2773,6043
2760,6042
2748,6040
2736,6037
2725,6033
2713,6028
2703,6022
2693,6014
2684,6006
2676,5997
2668,5987
2662,5976
2657,5965
2653,5954
2650,5942
2648,5930
2647,5917
2647,5637
2648,5625
2650,5612
2653,5600
2657,5589
2662,5578
2668,5567
2676,5557
2684,5548
2693,5540
2703,5532
2713,5526
2725,5521
2736,5517
2748,5514
2760,5512
2773,5511
3024,5511
3036,5512
Z" /> 
</g>
<g >
</g>
<g style="fill:#840000; fill-opacity:1.0; 
stroke:#840000; stroke-width:0; stroke-opacity:1; 
stroke-linecap:round; stroke-linejoin:round;">
<path style="fill:#840000; fill-opacity:1.0; 
stroke:#840000; stroke-width:0; stroke-opacity:1; 
stroke-linecap:round; stroke-linejoin:round;fill-rule:evenodd;"
d="M 7032,9183
7044,9185
7056,9188
7068,9192
7079,9197
7089,9204
7099,9211
7108,9219
7117,9228
7124,9238
7130,9249
7136,9260
7140,9272
7143,9284
7145,9296
7145,9308
7145,9559
7145,9571
7143,9584
7140,9595
7136,9607
7130,9618
7124,9629
7117,9639
7108,9648
7099,9656
7089,9663
7079,9670
7068,9675
7056,9679
7044,9682
7032,9684
7020,9685
6739,9685
6727,9684
6715,9682
6703,9679
6691,9675
6680,9670
6669,9663
6660,9656
6650,9648
6642,9639
6635,9629
6628,9618
6623,9607
6619,9595
6616,9584
6614,9571
6614,9559
6614,9308
6614,9296
6616,9284
6619,9272
6623,9260
6628,9249
6635,9238
6642,9228
6650,9219
6660,9211
6669,9204
6680,9197
6691,9192
6703,9188
6715,9185
6727,9183
6739,9183
7020,9183
7032,9183
Z" /> 
<path style="fill:#840000; fill-opacity:1.0; 
stroke:#840000; stroke-width:0; stroke-opacity:1; 
stroke-linecap:round; stroke-linejoin:round;fill-rule:evenodd;"
d="M 7032,8563
7044,8565
7056,8568
7068,8572
7079,8577
7089,8584
7099,8591
7108,8599
7117,8608
7124,8618
7130,8629
7136,8640
7140,8652
7143,8664
7145,8676
7145,8688
7145,8939
7145,8951
7143,8963
7140,8975
7136,8987
7130,8998
7124,9009
7117,9019
7108,9028
7099,9036
7089,9043
7079,9050
7068,9055
7056,9059
7044,9062
7032,9064
7020,9064
6739,9064
6727,9064
6715,9062
6703,9059
6691,9055
6680,9050
6669,9043
6660,9036
6650,9028
6642,9019
6635,9009
6628,8998
6623,8987
6619,8975
6616,8963
6614,8951
6614,8939
6614,8688
6614,8676
6616,8664
6619,8652
6623,8640
6628,8629
6635,8618
6642,8608
6650,8599
6660,8591
6669,8584
6680,8577
6691,8572
6703,8568
6715,8565
6727,8563
6739,8562
7020,8562
7032,8563
Z" /> 
</g>
<g >
</g>
<g style="fill:#840000; fill-opacity:1.0; 
stroke:#840000; stroke-width:0; stroke-opacity:1; 
stroke-linecap:round; stroke-linejoin:round;">
<path style="fill:#840000; fill-opacity:1.0; 
stroke:#840000; stroke-width:0; stroke-opacity:1; 
stroke-linecap:round; stroke-linejoin:round;fill-rule:evenodd;"
d="M 7583,11280
7595,11281
7607,11284
7619,11289
7630,11294
7641,11300
7650,11308
7660,11316
7668,11325
7675,11335
7682,11345
7687,11356
7691,11368
7694,11380
7696,11392
7696,11405
7696,11656
7696,11668
7694,11680
7691,11692
7687,11704
7682,11715
7675,11725
7668,11735
7660,11744
7650,11753
7641,11760
7630,11766
7619,11771
7607,11776
7595,11779
7583,11780
7571,11781
7290,11781
7278,11780
7266,11779
7254,11776
7242,11771
7231,11766
7221,11760
7211,11753
7202,11744
7193,11735
7186,11725
7180,11715
7174,11704
7170,11692
7167,11680
7165,11668
7165,11656
7165,11405
7165,11392
7167,11380
7170,11368
7174,11356
7180,11345
7186,11335
7193,11325
7202,11316
7211,11308
7221,11300
7231,11294
7242,11289
7254,11284
7266,11281
7278,11280
7290,11279
7571,11279
7583,11280
Z" /> 
<path style="fill:#840000; fill-opacity:1.0; 
stroke:#840000; stroke-width:0; stroke-opacity:1; 
stroke-linecap:round; stroke-linejoin:round;fill-rule:evenodd;"
d="M 7583,11900
7595,11902
7607,11905
7619,11909
7630,11914
7641,11920
7650,11928
7660,11936
7668,11945
7675,11955
7682,11965
7687,11977
7691,11988
7694,12000
7696,12012
7696,12025
7696,12276
7696,12288
7694,12300
7691,12312
7687,12324
7682,12335
7675,12345
7668,12355
7660,12364
7650,12373
7641,12380
7630,12386
7619,12392
7607,12396
7595,12399
7583,12400
7571,12401
7290,12401
7278,12400
7266,12399
7254,12396
7242,12392
7231,12386
7221,12380
7211,12373
7202,12364
7193,12355
7186,12345
7180,12335
7174,12324
7170,12312
7167,12300
7165,12288
7165,12276
7165,12025
7165,12012
7167,12000
7170,11988
7174,11977
7180,11965
7186,11955
7193,11945
7202,11936
7211,11928
7221,11920
7231,11914
7242,11909
7254,11905
7266,11902
7278,11900
7290,11899
7571,11899
7583,11900
Z" /> 
</g>
<g >
</g>
<g style="fill:#840000; fill-opacity:1.0; 
stroke:#840000; stroke-width:0; stroke-opacity:1; 
stroke-linecap:round; stroke-linejoin:round;">
<path style="fill:#840000; fill-opacity:1.0; 
stroke:#840000; stroke-width:0; stroke-opacity:1; 
stroke-linecap:round; stroke-linejoin:round;fill-rule:evenodd;"
d="M 7588,2194
8138,2194
8138,3001
7588,3001
7588,2194
Z" /> 
<path style="fill:#840000; fill-opacity:1.0; 
stroke:#840000; stroke-width:0; stroke-opacity:1; 
stroke-linecap:round; stroke-linejoin:round;fill-rule:evenodd;"
d="M 6330,2194
6880,2194
6880,3001
6330,3001
6330,2194
Z" /> 
<path style="fill:#840000; fill-opacity:1.0; 
stroke:#840000; stroke-width:0; stroke-opacity:1; 
stroke-linecap:round; stroke-linejoin:round;fill-rule:evenodd;"
d="M 6330,4222
6880,4222
6880,5029
6330,5029
6330,4222
Z" /> 
<path style="fill:#840000; fill-opacity:1.0; 
stroke:#840000; stroke-width:0; stroke-opacity:1; 
stroke-linecap:round; stroke-linejoin:round;fill-rule:evenodd;"
d="M 7588,4222
8138,4222
8138,5029
7588,5029
7588,4222
Z" /> 
</g>
<g >
</g>
<g style="fill:#840000; fill-opacity:1.0; 
stroke:#840000; stroke-width:0; stroke-opacity:1; 
stroke-linecap:round; stroke-linejoin:round;">
<path style="fill:#840000; fill-opacity:1.0; 
stroke:#840000; stroke-width:0; stroke-opacity:1; 
stroke-linecap:round; stroke-linejoin:round;fill-rule:evenodd;"
d="M 2411,1958
2411,1387
2608,1387
2608,1958
2411,1958
Z" /> 
<path style="fill:#840000; fill-opacity:1.0; 
stroke:#840000; stroke-width:0; stroke-opacity:1; 
stroke-linecap:round; stroke-linejoin:round;fill-rule:evenodd;"
d="M 2155,1958
2155,1387
2352,1387
2352,1958
2155,1958
Z" /> 
<path style="fill:#840000; fill-opacity:1.0; 
stroke:#840000; stroke-width:0; stroke-opacity:1; 
stroke-linecap:round; stroke-linejoin:round;fill-rule:evenodd;"
d="M 1899,1958
1899,1387
2096,1387
2096,1958
1899,1958
Z" /> 
<path style="fill:#840000; fill-opacity:1.0; 
stroke:#840000; stroke-width:0; stroke-opacity:1; 
stroke-linecap:round; stroke-linejoin:round;fill-rule:evenodd;"
d="M 1643,1958
1643,1387
1840,1387
1840,1958
1643,1958
Z" /> 
<path style="fill:#840000; fill-opacity:1.0; 
stroke:#840000; stroke-width:0; stroke-opacity:1; 
stroke-linecap:round; stroke-linejoin:round;fill-rule:evenodd;"
d="M 1387,1958
1387,1387
1584,1387
1584,1958
1387,1958
Z" /> 
</g>
<g style="fill:#848400; fill-opacity:1.0; 
stroke:#848400; stroke-width:0; stroke-opacity:1; 
stroke-linecap:round; stroke-linejoin:round;">
<circle cx="2982.28" cy="1683.07" r="355.906" /> 
</g>
<g style="fill:#848400; fill-opacity:1.0; 
stroke:#848400; stroke-width:39.3701; stroke-opacity:1; 
stroke-linecap:round; stroke-linejoin:round;">
</g>
<g style="fill:#848400; fill-opacity:1.0; 
stroke:#848400; stroke-width:0; stroke-opacity:1; 
stroke-linecap:round; stroke-linejoin:round;">
<circle cx="1013.78" cy="1683.07" r="355.906" /> 
</g>
<g style="fill:#848400; fill-opacity:1.0; 
stroke:#848400; stroke-width:39.3701; stroke-opacity:1; 
stroke-linecap:round; stroke-linejoin:round;">
</g>
<g style="fill:#848400; fill-opacity:1.0; 
stroke:#848400; stroke-width:0; stroke-opacity:1; 
stroke-linecap:round; stroke-linejoin:round;">
<circle cx="3375.98" cy="620.079" r="433.071" /> 
</g>
<g style="fill:#848400; fill-opacity:1.0; 
stroke:#848400; stroke-width:39.3701; stroke-opacity:1; 
stroke-linecap:round; stroke-linejoin:round;">
</g>
<g style="fill:#848400; fill-opacity:1.0; 
stroke:#848400; stroke-width:0; stroke-opacity:1; 
stroke-linecap:round; stroke-linejoin:round;">
<circle cx="620.079" cy="620.079" r="433.071" /> 
</g>
<g style="fill:#848400; fill-opacity:1.0; 
stroke:#848400; stroke-width:39.3701; stroke-opacity:1; 
stroke-linecap:round; stroke-linejoin:round;">
</g>
<g style="fill:#840000; fill-opacity:1.0; 
stroke:#840000; stroke-width:39.3701; stroke-opacity:1; 
stroke-linecap:round; stroke-linejoin:round;">
</g>
<g style="fill:#840000; fill-opacity:1.0; 
stroke:#840000; stroke-width:0; stroke-opacity:1; 
stroke-linecap:round; stroke-linejoin:round;">
<path style="fill:#840000; fill-opacity:1.0; 
stroke:#840000; stroke-width:0; stroke-opacity:1; 
stroke-linecap:round; stroke-linejoin:round;fill-rule:evenodd;"
d="M 2765,236
2765,1003
2017,1003
2017,236
2765,236
Z" /> 
<path style="fill:#840000; fill-opacity:1.0; 
stroke:#840000; stroke-width:0; stroke-opacity:1; 
stroke-linecap:round; stroke-linejoin:round;fill-rule:evenodd;"
d="M 1978,236
1978,1003
1230,1003
1230,236
1978,236
Z" /> 
<path style="fill:#840000; fill-opacity:1.0; 
stroke:#840000; stroke-width:0; stroke-opacity:1; 
stroke-linecap:round; stroke-linejoin:round;fill-rule:evenodd;"
d="M 3572,236
3572,1003
2824,1003
2824,236
3572,236
Z" /> 
<path style="fill:#840000; fill-opacity:1.0; 
stroke:#840000; stroke-width:0; stroke-opacity:1; 
stroke-linecap:round; stroke-linejoin:round;fill-rule:evenodd;"
d="M 1171,236
1171,1003
423,1003
423,236
1171,236
Z" /> 
</g>
<g >
</g>
<g style="fill:#840000; fill-opacity:1.0; 
stroke:#840000; stroke-width:0; stroke-opacity:1; 
stroke-linecap:round; stroke-linejoin:round;">
<path style="fill:#840000; fill-opacity:1.0; 
stroke:#840000; stroke-width:0; stroke-opacity:1; 
stroke-linecap:round; stroke-linejoin:round;fill-rule:evenodd;"
d="M 6934,11890
6946,11892
6958,11895
6969,11899
6980,11904
6991,11910
7001,11918
7010,11926
7018,11935
7026,11945
7032,11956
7037,11967
7041,11978
7044,11990
7046,12002
7047,12015
7047,12295
7046,12308
7044,12320
7041,12332
7037,12343
7032,12354
7026,12365
7018,12375
7010,12384
7001,12392
6991,12400
6980,12406
6969,12411
6958,12415
6946,12418
6934,12420
6921,12421
6670,12421
6658,12420
6646,12418
6634,12415
6622,12411
6611,12406
6601,12400
6591,12392
6582,12384
6573,12375
6566,12365
6560,12354
6554,12343
6550,12332
6547,12320
6545,12308
6545,12295
6545,12015
6545,12002
6547,11990
6550,11978
6554,11967
6560,11956
6566,11945
6573,11935
6582,11926
6591,11918
6601,11910
6611,11904
6622,11899
6634,11895
6646,11892
6658,11890
6670,11889
6921,11889
6934,11890
Z" /> 
<path style="fill:#840000; fill-opacity:1.0; 
stroke:#840000; stroke-width:0; stroke-opacity:1; 
stroke-linecap:round; stroke-linejoin:round;fill-rule:evenodd;"
d="M 6313,11890
6326,11892
6338,11895
6349,11899
6360,11904
6371,11910
6381,11918
6390,11926
6398,11935
6406,11945
6412,11956
6417,11967
6421,11978
6424,11990
6426,12002
6427,12015
6427,12295
6426,12308
6424,12320
6421,12332
6417,12343
6412,12354
6406,12365
6398,12375
6390,12384
6381,12392
6371,12400
6360,12406
6349,12411
6338,12415
6326,12418
6313,12420
6301,12421
6050,12421
6038,12420
6026,12418
6014,12415
6002,12411
5991,12406
5980,12400
5971,12392
5961,12384
5953,12375
5946,12365
5940,12354
5934,12343
5930,12332
5927,12320
5925,12308
5925,12295
5925,12015
5925,12002
5927,11990
5930,11978
5934,11967
5940,11956
5946,11945
5953,11935
5961,11926
5971,11918
5980,11910
5991,11904
6002,11899
6014,11895
6026,11892
6038,11890
6050,11889
6301,11889
6313,11890
Z" /> 
</g>
<g >
</g>
<g style="fill:#840000; fill-opacity:1.0; 
stroke:#840000; stroke-width:0; stroke-opacity:1; 
stroke-linecap:round; stroke-linejoin:round;">
<path style="fill:#840000; fill-opacity:1.0; 
stroke:#840000; stroke-width:0; stroke-opacity:1; 
stroke-linecap:round; stroke-linejoin:round;fill-rule:evenodd;"
d="M 5772,4350
5784,4352
5796,4355
5808,4359
5819,4365
5830,4371
5839,4378
5849,4387
5857,4396
5864,4406
5871,4416
5876,4427
5880,4439
5883,4451
5885,4463
5885,4475
5885,4726
5885,4739
5883,4751
5880,4763
5876,4774
5871,4786
5864,4796
5857,4806
5849,4815
5839,4823
5830,4831
5819,4837
5808,4842
5796,4846
5784,4849
5772,4851
5760,4852
5479,4852
5467,4851
5455,4849
5443,4846
5431,4842
5420,4837
5410,4831
5400,4823
5391,4815
5382,4806
5375,4796
5369,4786
5363,4774
5359,4763
5356,4751
5354,4739
5354,4726
5354,4475
5354,4463
5356,4451
5359,4439
5363,4427
5369,4416
5375,4406
5382,4396
5391,4387
5400,4378
5410,4371
5420,4365
5431,4359
5443,4355
5455,4352
5467,4350
5479,4350
5760,4350
5772,4350
Z" /> 
<path style="fill:#840000; fill-opacity:1.0; 
stroke:#840000; stroke-width:0; stroke-opacity:1; 
stroke-linecap:round; stroke-linejoin:round;fill-rule:evenodd;"
d="M 5772,4971
5784,4972
5796,4975
5808,4980
5819,4985
5830,4991
5839,4998
5849,5007
5857,5016
5864,5026
5871,5036
5876,5047
5880,5059
5883,5071
5885,5083
5885,5095
5885,5346
5885,5359
5883,5371
5880,5383
5876,5394
5871,5406
5864,5416
5857,5426
5849,5435
5839,5443
5830,5451
5819,5457
5808,5462
5796,5467
5784,5470
5772,5471
5760,5472
5479,5472
5467,5471
5455,5470
5443,5467
5431,5462
5420,5457
5410,5451
5400,5443
5391,5435
5382,5426
5375,5416
5369,5406
5363,5394
5359,5383
5356,5371
5354,5359
5354,5346
5354,5095
5354,5083
5356,5071
5359,5059
5363,5047
5369,5036
5375,5026
5382,5016
5391,5007
5400,4998
5410,4991
5420,4985
5431,4980
5443,4975
5455,4972
5467,4971
5479,4970
5760,4970
5772,4971
Z" /> 
</g>
<g >
</g>
<g style="fill:#840000; fill-opacity:1.0; 
stroke:#840000; stroke-width:0; stroke-opacity:1; 
stroke-linecap:round; stroke-linejoin:round;">
<path style="fill:#840000; fill-opacity:1.0; 
stroke:#840000; stroke-width:0; stroke-opacity:1; 
stroke-linecap:round; stroke-linejoin:round;fill-rule:evenodd;"
d="M 2262,7187
2262,6887
2842,6887
2842,7187
2262,7187
Z" /> 
<path style="fill:#840000; fill-opacity:1.0; 
stroke:#840000; stroke-width:0; stroke-opacity:1; 
stroke-linecap:round; stroke-linejoin:round;fill-rule:evenodd;"
d="M 2262,7502
2262,7202
2842,7202
2842,7502
2262,7502
Z" /> 
<path style="fill:#840000; fill-opacity:1.0; 
stroke:#840000; stroke-width:0; stroke-opacity:1; 
stroke-linecap:round; stroke-linejoin:round;fill-rule:evenodd;"
d="M 2262,7817
2262,7517
2842,7517
2842,7817
2262,7817
Z" /> 
<path style="fill:#840000; fill-opacity:1.0; 
stroke:#840000; stroke-width:0; stroke-opacity:1; 
stroke-linecap:round; stroke-linejoin:round;fill-rule:evenodd;"
d="M 2262,8132
2262,7832
2842,7832
2842,8132
2262,8132
Z" /> 
<path style="fill:#840000; fill-opacity:1.0; 
stroke:#840000; stroke-width:0; stroke-opacity:1; 
stroke-linecap:round; stroke-linejoin:round;fill-rule:evenodd;"
d="M 2262,8446
2262,8146
2842,8146
2842,8446
2262,8446
Z" /> 
<path style="fill:#840000; fill-opacity:1.0; 
stroke:#840000; stroke-width:0; stroke-opacity:1; 
stroke-linecap:round; stroke-linejoin:round;fill-rule:evenodd;"
d="M 2262,8761
2262,8461
2842,8461
2842,8761
2262,8761
Z" /> 
<path style="fill:#840000; fill-opacity:1.0; 
stroke:#840000; stroke-width:0; stroke-opacity:1; 
stroke-linecap:round; stroke-linejoin:round;fill-rule:evenodd;"
d="M 2262,9076
2262,8776
2842,8776
2842,9076
2262,9076
Z" /> 
<path style="fill:#840000; fill-opacity:1.0; 
stroke:#840000; stroke-width:0; stroke-opacity:1; 
stroke-linecap:round; stroke-linejoin:round;fill-rule:evenodd;"
d="M 2262,9391
2262,9091
2842,9091
2842,9391
2262,9391
Z" /> 
<path style="fill:#840000; fill-opacity:1.0; 
stroke:#840000; stroke-width:0; stroke-opacity:1; 
stroke-linecap:round; stroke-linejoin:round;fill-rule:evenodd;"
d="M 2990,10119
2990,9539
3290,9539
3290,10119
2990,10119
Z" /> 
<path style="fill:#840000; fill-opacity:1.0; 
stroke:#840000; stroke-width:0; stroke-opacity:1; 
stroke-linecap:round; stroke-linejoin:round;fill-rule:evenodd;"
d="M 3305,10119
3305,9539
3605,9539
3605,10119
3305,10119
Z" /> 
<path style="fill:#840000; fill-opacity:1.0; 
stroke:#840000; stroke-width:0; stroke-opacity:1; 
stroke-linecap:round; stroke-linejoin:round;fill-rule:evenodd;"
d="M 3620,10119
3620,9539
3920,9539
3920,10119
3620,10119
Z" /> 
<path style="fill:#840000; fill-opacity:1.0; 
stroke:#840000; stroke-width:0; stroke-opacity:1; 
stroke-linecap:round; stroke-linejoin:round;fill-rule:evenodd;"
d="M 3935,10119
3935,9539
4235,9539
4235,10119
3935,10119
Z" /> 
<path style="fill:#840000; fill-opacity:1.0; 
stroke:#840000; stroke-width:0; stroke-opacity:1; 
stroke-linecap:round; stroke-linejoin:round;fill-rule:evenodd;"
d="M 4249,10119
4249,9539
4549,9539
4549,10119
4249,10119
Z" /> 
<path style="fill:#840000; fill-opacity:1.0; 
stroke:#840000; stroke-width:0; stroke-opacity:1; 
stroke-linecap:round; stroke-linejoin:round;fill-rule:evenodd;"
d="M 4564,10119
4564,9539
4864,9539
4864,10119
4564,10119
Z" /> 
<path style="fill:#840000; fill-opacity:1.0; 
stroke:#840000; stroke-width:0; stroke-opacity:1; 
stroke-linecap:round; stroke-linejoin:round;fill-rule:evenodd;"
d="M 4879,10119
4879,9539
5179,9539
5179,10119
4879,10119
Z" /> 
<path style="fill:#840000; fill-opacity:1.0; 
stroke:#840000; stroke-width:0; stroke-opacity:1; 
stroke-linecap:round; stroke-linejoin:round;fill-rule:evenodd;"
d="M 5194,10119
5194,9539
5494,9539
5494,10119
5194,10119
Z" /> 
<path style="fill:#840000; fill-opacity:1.0; 
stroke:#840000; stroke-width:0; stroke-opacity:1; 
stroke-linecap:round; stroke-linejoin:round;fill-rule:evenodd;"
d="M 5642,9391
5642,9091
6222,9091
6222,9391
5642,9391
Z" /> 
<path style="fill:#840000; fill-opacity:1.0; 
stroke:#840000; stroke-width:0; stroke-opacity:1; 
stroke-linecap:round; stroke-linejoin:round;fill-rule:evenodd;"
d="M 5642,9076
5642,8776
6222,8776
6222,9076
5642,9076
Z" /> 
<path style="fill:#840000; fill-opacity:1.0; 
stroke:#840000; stroke-width:0; stroke-opacity:1; 
stroke-linecap:round; stroke-linejoin:round;fill-rule:evenodd;"
d="M 5642,8761
5642,8461
6222,8461
6222,8761
5642,8761
Z" /> 
<path style="fill:#840000; fill-opacity:1.0; 
stroke:#840000; stroke-width:0; stroke-opacity:1; 
stroke-linecap:round; stroke-linejoin:round;fill-rule:evenodd;"
d="M 5642,8446
5642,8146
6222,8146
6222,8446
5642,8446
Z" /> 
<path style="fill:#840000; fill-opacity:1.0; 
stroke:#840000; stroke-width:0; stroke-opacity:1; 
stroke-linecap:round; stroke-linejoin:round;fill-rule:evenodd;"
d="M 5642,8132
5642,7832
6222,7832
6222,8132
5642,8132
Z" /> 
<path style="fill:#840000; fill-opacity:1.0; 
stroke:#840000; stroke-width:0; stroke-opacity:1; 
stroke-linecap:round; stroke-linejoin:round;fill-rule:evenodd;"
d="M 5642,7817
5642,7517
6222,7517
6222,7817
5642,7817
Z" /> 
<path style="fill:#840000; fill-opacity:1.0; 
stroke:#840000; stroke-width:0; stroke-opacity:1; 
stroke-linecap:round; stroke-linejoin:round;fill-rule:evenodd;"
d="M 5642,7502
5642,7202
6222,7202
6222,7502
5642,7502
Z" /> 
<path style="fill:#840000; fill-opacity:1.0; 
stroke:#840000; stroke-width:0; stroke-opacity:1; 
stroke-linecap:round; stroke-linejoin:round;fill-rule:evenodd;"
d="M 5642,7187
5642,6887
6222,6887
6222,7187
5642,7187
Z" /> 
<path style="fill:#840000; fill-opacity:1.0; 
stroke:#840000; stroke-width:0; stroke-opacity:1; 
stroke-linecap:round; stroke-linejoin:round;fill-rule:evenodd;"
d="M 5194,6739
5194,6159
5494,6159
5494,6739
5194,6739
Z" /> 
<path style="fill:#840000; fill-opacity:1.0; 
stroke:#840000; stroke-width:0; stroke-opacity:1; 
stroke-linecap:round; stroke-linejoin:round;fill-rule:evenodd;"
d="M 4879,6739
4879,6159
5179,6159
5179,6739
4879,6739
Z" /> 
<path style="fill:#840000; fill-opacity:1.0; 
stroke:#840000; stroke-width:0; stroke-opacity:1; 
stroke-linecap:round; stroke-linejoin:round;fill-rule:evenodd;"
d="M 4564,6739
4564,6159
4864,6159
4864,6739
4564,6739
Z" /> 
<path style="fill:#840000; fill-opacity:1.0; 
stroke:#840000; stroke-width:0; stroke-opacity:1; 
stroke-linecap:round; stroke-linejoin:round;fill-rule:evenodd;"
d="M 4249,6739
4249,6159
4549,6159
4549,6739
4249,6739
Z" /> 
<path style="fill:#840000; fill-opacity:1.0; 
stroke:#840000; stroke-width:0; stroke-opacity:1; 
stroke-linecap:round; stroke-linejoin:round;fill-rule:evenodd;"
d="M 3935,6739
3935,6159
4235,6159
4235,6739
3935,6739
Z" /> 
<path style="fill:#840000; fill-opacity:1.0; 
stroke:#840000; stroke-width:0; stroke-opacity:1; 
stroke-linecap:round; stroke-linejoin:round;fill-rule:evenodd;"
d="M 3620,6739
3620,6159
3920,6159
3920,6739
3620,6739
Z" /> 
<path style="fill:#840000; fill-opacity:1.0; 
stroke:#840000; stroke-width:0; stroke-opacity:1; 
stroke-linecap:round; stroke-linejoin:round;fill-rule:evenodd;"
d="M 3305,6739
3305,6159
3605,6159
3605,6739
3305,6739
Z" /> 
<path style="fill:#840000; fill-opacity:1.0; 
stroke:#840000; stroke-width:0; stroke-opacity:1; 
stroke-linecap:round; stroke-linejoin:round;fill-rule:evenodd;"
d="M 2990,6739
2990,6159
3290,6159
3290,6739
2990,6739
Z" /> 
</g>
<g >
</g>
<g >
</g>
<g style="fill:#840000; fill-opacity:1.0; 
stroke:#840000; stroke-width:0; stroke-opacity:1; 
stroke-linecap:round; stroke-linejoin:round;">
<path style="fill:#840000; fill-opacity:1.0; 
stroke:#840000; stroke-width:0; stroke-opacity:1; 
stroke-linecap:round; stroke-linejoin:round;fill-rule:evenodd;"
d="M 2765,4490
2765,3883
3159,3883
3159,4490
2765,4490
Z" /> 
<path style="fill:#840000; fill-opacity:1.0; 
stroke:#840000; stroke-width:0; stroke-opacity:1; 
stroke-linecap:round; stroke-linejoin:round;fill-rule:evenodd;"
d="M 2391,4490
2391,3883
2785,3883
2785,4490
2391,4490
Z" /> 
<path style="fill:#840000; fill-opacity:1.0; 
stroke:#840000; stroke-width:0; stroke-opacity:1; 
stroke-linecap:round; stroke-linejoin:round;fill-rule:evenodd;"
d="M 2017,4490
2017,3883
2411,3883
2411,4490
2017,4490
Z" /> 
<path style="fill:#840000; fill-opacity:1.0; 
stroke:#840000; stroke-width:0; stroke-opacity:1; 
stroke-linecap:round; stroke-linejoin:round;fill-rule:evenodd;"
d="M 2017,5387
2017,4781
2411,4781
2411,5387
2017,5387
Z" /> 
<path style="fill:#840000; fill-opacity:1.0; 
stroke:#840000; stroke-width:0; stroke-opacity:1; 
stroke-linecap:round; stroke-linejoin:round;fill-rule:evenodd;"
d="M 2765,5387
2765,4781
3159,4781
3159,5387
2765,5387
Z" /> 
</g>
<g >
</g>
<g style="fill:#840000; fill-opacity:1.0; 
stroke:#840000; stroke-width:0; stroke-opacity:1; 
stroke-linecap:round; stroke-linejoin:round;">
<path style="fill:#840000; fill-opacity:1.0; 
stroke:#840000; stroke-width:0; stroke-opacity:1; 
stroke-linecap:round; stroke-linejoin:round;fill-rule:evenodd;"
d="M 5142,4971
5154,4972
5166,4975
5178,4980
5189,4985
5200,4991
5210,4998
5219,5007
5227,5016
5234,5026
5241,5036
5246,5047
5250,5059
5253,5071
5255,5083
5255,5095
5255,5346
5255,5359
5253,5371
5250,5383
5246,5394
5241,5406
5234,5416
5227,5426
5219,5435
5210,5443
5200,5451
5189,5457
5178,5462
5166,5467
5154,5470
5142,5471
5130,5472
4849,5472
4837,5471
4825,5470
4813,5467
4801,5462
4790,5457
4780,5451
4770,5443
4761,5435
4752,5426
4745,5416
4739,5406
4733,5394
4729,5383
4726,5371
4725,5359
4724,5346
4724,5095
4725,5083
4726,5071
4729,5059
4733,5047
4739,5036
4745,5026
4752,5016
4761,5007
4770,4998
4780,4991
4790,4985
4801,4980
4813,4975
4825,4972
4837,4971
4849,4970
5130,4970
5142,4971
Z" /> 
<path style="fill:#840000; fill-opacity:1.0; 
stroke:#840000; stroke-width:0; stroke-opacity:1; 
stroke-linecap:round; stroke-linejoin:round;fill-rule:evenodd;"
d="M 5142,4350
5154,4352
5166,4355
5178,4359
5189,4365
5200,4371
5210,4378
5219,4387
5227,4396
5234,4406
5241,4416
5246,4427
5250,4439
5253,4451
5255,4463
5255,4475
5255,4726
5255,4739
5253,4751
5250,4763
5246,4774
5241,4786
5234,4796
5227,4806
5219,4815
5210,4823
5200,4831
5189,4837
5178,4842
5166,4846
5154,4849
5142,4851
5130,4852
4849,4852
4837,4851
4825,4849
4813,4846
4801,4842
4790,4837
4780,4831
4770,4823
4761,4815
4752,4806
4745,4796
4739,4786
4733,4774
4729,4763
4726,4751
4725,4739
4724,4726
4724,4475
4725,4463
4726,4451
4729,4439
4733,4427
4739,4416
4745,4406
4752,4396
4761,4387
4770,4378
4780,4371
4790,4365
4801,4359
4813,4355
4825,4352
4837,4350
4849,4350
5130,4350
5142,4350
Z" /> 
</g>
<g >
</g>
<g style="fill:#848400; fill-opacity:1.0; 
stroke:#848400; stroke-width:0; stroke-opacity:1; 
stroke-linecap:round; stroke-linejoin:round;">
<path style="fill:#848400; fill-opacity:1.0; 
stroke:#848400; stroke-width:0; stroke-opacity:1; 
stroke-linecap:round; stroke-linejoin:round;fill-rule:evenodd;"
d="M 5757,1230
4931,1230
4931,403
5757,403
5757,1230
Z" /> 
</g>
<g style="fill:#848400; fill-opacity:1.0; 
stroke:#848400; stroke-width:826.772; stroke-opacity:1; 
stroke-linecap:round; stroke-linejoin:round;">
</g>
<g style="fill:#848400; fill-opacity:0.0; 
stroke:#848400; stroke-width:826.772; stroke-opacity:1; 
stroke-linecap:round; stroke-linejoin:round;">
<path d="M6344 816
L6344 816
" />
<path d="M7344 816
L7344 816
" />
</g>
<g >
</g>
<g style="fill:#848400; fill-opacity:0.0; 
stroke:#848400; stroke-width:826.772; stroke-opacity:1; 
stroke-linecap:round; stroke-linejoin:round;">
</g>
<g style="fill:#848400; fill-opacity:0.0; 
stroke:#848400; stroke-width:0; stroke-opacity:1; 
stroke-linecap:round; stroke-linejoin:round;">
</g>
<g style="fill:#848400; fill-opacity:1.0; 
stroke:#848400; stroke-width:0; stroke-opacity:1; 
stroke-linecap:round; stroke-linejoin:round;">
<path style="fill:#848400; fill-opacity:1.0; 
stroke:#848400; stroke-width:0; stroke-opacity:1; 
stroke-linecap:round; stroke-linejoin:round;fill-rule:evenodd;"
d="M 403,7529
403,6702
1230,6702
1230,7529
403,7529
Z" /> 
</g>
<g style="fill:#848400; fill-opacity:1.0; 
stroke:#848400; stroke-width:826.772; stroke-opacity:1; 
stroke-linecap:round; stroke-linejoin:round;">
</g>
<g style="fill:#848400; fill-opacity:0.0; 
stroke:#848400; stroke-width:826.772; stroke-opacity:1; 
stroke-linecap:round; stroke-linejoin:round;">
<path d="M816 8116
L816 8116
" />
<path d="M816 9116
L816 9116
" />
<path d="M816 10116
L816 10116
" />
</g>
<g >
</g>
<g style="fill:#840000; fill-opacity:0.0; 
stroke:#840000; stroke-width:826.772; stroke-opacity:1; 
stroke-linecap:round; stroke-linejoin:round;">
</g>
<g style="fill:#840000; fill-opacity:0.0; 
stroke:#840000; stroke-width:0; stroke-opacity:1; 
stroke-linecap:round; stroke-linejoin:round;">
</g>
<g style="fill:#840000; fill-opacity:1.0; 
stroke:#840000; stroke-width:0; stroke-opacity:1; 
stroke-linecap:round; stroke-linejoin:round;">
<path style="fill:#840000; fill-opacity:1.0; 
stroke:#840000; stroke-width:0; stroke-opacity:1; 
stroke-linecap:round; stroke-linejoin:round;fill-rule:evenodd;"
d="M 1367,6171
894,6171
894,5737
1367,5737
1367,6171
Z" /> 
<path style="fill:#840000; fill-opacity:1.0; 
stroke:#840000; stroke-width:0; stroke-opacity:1; 
stroke-linecap:round; stroke-linejoin:round;fill-rule:evenodd;"
d="M 1367,4557
894,4557
894,4123
1367,4123
1367,4557
Z" /> 
<path style="fill:#840000; fill-opacity:1.0; 
stroke:#840000; stroke-width:0; stroke-opacity:1; 
stroke-linecap:round; stroke-linejoin:round;fill-rule:evenodd;"
d="M 739,4557
266,4557
266,4123
739,4123
739,4557
Z" /> 
<path style="fill:#840000; fill-opacity:1.0; 
stroke:#840000; stroke-width:0; stroke-opacity:1; 
stroke-linecap:round; stroke-linejoin:round;fill-rule:evenodd;"
d="M 739,6171
266,6171
266,5737
739,5737
739,6171
Z" /> 
</g>
<g >
</g>
<g style="fill:#840000; fill-opacity:1.0; 
stroke:#840000; stroke-width:0; stroke-opacity:1; 
stroke-linecap:round; stroke-linejoin:round;">
<path style="fill:#840000; fill-opacity:1.0; 
stroke:#840000; stroke-width:0; stroke-opacity:1; 
stroke-linecap:round; stroke-linejoin:round;fill-rule:evenodd;"
d="M 7529,6712
7214,6712
7214,6299
7529,6299
7529,6712
Z" /> 
<path style="fill:#840000; fill-opacity:1.0; 
stroke:#840000; stroke-width:0; stroke-opacity:1; 
stroke-linecap:round; stroke-linejoin:round;fill-rule:evenodd;"
d="M 8041,6712
7726,6712
7726,6299
8041,6299
8041,6712
Z" /> 
<path style="fill:#840000; fill-opacity:1.0; 
stroke:#840000; stroke-width:0; stroke-opacity:1; 
stroke-linecap:round; stroke-linejoin:round;fill-rule:evenodd;"
d="M 7785,6712
7470,6712
7470,6299
7785,6299
7785,6712
Z" /> 
<path style="fill:#840000; fill-opacity:1.0; 
stroke:#840000; stroke-width:0; stroke-opacity:1; 
stroke-linecap:round; stroke-linejoin:round;fill-rule:evenodd;"
d="M 8041,5964
7726,5964
7726,5551
8041,5551
8041,5964
Z" /> 
<path style="fill:#840000; fill-opacity:1.0; 
stroke:#840000; stroke-width:0; stroke-opacity:1; 
stroke-linecap:round; stroke-linejoin:round;fill-rule:evenodd;"
d="M 7529,5964
7214,5964
7214,5551
7529,5551
7529,5964
Z" /> 
</g>
<g >
</g>
<g style="fill:#840000; fill-opacity:1.0; 
stroke:#840000; stroke-width:0; stroke-opacity:1; 
stroke-linecap:round; stroke-linejoin:round;">
<path style="fill:#840000; fill-opacity:1.0; 
stroke:#840000; stroke-width:0; stroke-opacity:1; 
stroke-linecap:round; stroke-linejoin:round;fill-rule:evenodd;"
d="M 1403,3475
1416,3477
1429,3480
1442,3484
1454,3490
1465,3497
1476,3505
1485,3514
1494,3523
1502,3534
1509,3545
1515,3557
1519,3570
1522,3583
1524,3596
1525,3609
1525,3880
1524,3893
1522,3906
1519,3919
1515,3932
1509,3944
1502,3955
1494,3966
1485,3976
1476,3985
1465,3992
1454,3999
1442,4005
1429,4009
1416,4013
1403,4015
1390,4015
952,4015
938,4015
925,4013
912,4009
900,4005
888,3999
877,3992
866,3985
856,3976
847,3966
839,3955
832,3944
827,3932
822,3919
819,3906
817,3893
816,3880
816,3609
817,3596
819,3583
822,3570
827,3557
832,3545
839,3534
847,3523
856,3514
866,3505
877,3497
888,3490
900,3484
912,3480
925,3477
938,3475
952,3474
1390,3474
1403,3475
Z" /> 
<path style="fill:#840000; fill-opacity:1.0; 
stroke:#840000; stroke-width:0; stroke-opacity:1; 
stroke-linecap:round; stroke-linejoin:round;fill-rule:evenodd;"
d="M 1403,2736
1416,2738
1429,2742
1442,2746
1454,2752
1465,2759
1476,2766
1485,2775
1494,2785
1502,2796
1509,2807
1515,2819
1519,2832
1522,2845
1524,2858
1525,2871
1525,3142
1524,3155
1522,3168
1519,3181
1515,3194
1509,3206
1502,3217
1494,3228
1485,3237
1476,3246
1465,3254
1454,3261
1442,3267
1429,3271
1416,3274
1403,3276
1390,3277
952,3277
938,3276
925,3274
912,3271
900,3267
888,3261
877,3254
866,3246
856,3237
847,3228
839,3217
832,3206
827,3194
822,3181
819,3168
817,3155
816,3142
816,2871
817,2858
819,2845
822,2832
827,2819
832,2807
839,2796
847,2785
856,2775
866,2766
877,2759
888,2752
900,2746
912,2742
925,2738
938,2736
952,2736
1390,2736
1403,2736
Z" /> 
</g>
<g >
</g>
<g >
</g>
<g >
</g>
</g>
<g style="fill:#000000; fill-opacity:1.0; 
stroke:#000000; stroke-width:0; stroke-opacity:1; 
stroke-linecap:round; stroke-linejoin:round;">
</g>
<g style="fill:#848484; fill-opacity:1.0; 
stroke:#848484; stroke-width:0; stroke-opacity:1; 
stroke-linecap:round; stroke-linejoin:round;">
</g>
<g style="fill:#848484; fill-opacity:1.0; 
stroke:#848484; stroke-width:19.685; stroke-opacity:1; 
stroke-linecap:round; stroke-linejoin:round;">
</g>
<g style="fill:#848484; fill-opacity:0.0; 
stroke:#848484; stroke-width:19.685; stroke-opacity:1; 
stroke-linecap:round; stroke-linejoin:round;">
<path d="M3978 5375
L3403 5375
" />
<path d="M3403 5375
L3403 4210
" />
<path d="M3403 4210
L3978 4210
" />
<path d="M3978 4210
L3978 5375
" />
<path d="M710 2788
L710 3953
" />
<path d="M135 2788
L710 2788
" />
<path d="M135 3953
L135 2788
" />
<path d="M710 3953
L135 3953
" />
<path d="M2005 5490
L3171 5490
" />
<path d="M2005 6064
L2005 5490
" />
<path d="M3171 6064
L2005 6064
" />
<path d="M3171 5490
L3171 6064
" />
<path d="M7167 9706
L6592 9706
" />
<path d="M6592 9706
L6592 8541
" />
<path d="M6592 8541
L7167 8541
" />
<path d="M7167 8541
L7167 9706
" />
<path d="M7718 11257
L7718 12423
" />
<path d="M7143 11257
L7718 11257
" />
<path d="M7143 12423
L7143 11257
" />
<path d="M7718 12423
L7143 12423
" />
<path d="M7068 11868
L7068 12442
" />
<path d="M7068 12442
L5903 12442
" />
<path d="M5903 12442
L5903 11868
" />
<path d="M5903 11868
L7068 11868
" />
<path d="M5332 4328
L5907 4328
" />
<path d="M5907 4328
L5907 5494
" />
<path d="M5907 5494
L5332 5494
" />
<path d="M5332 5494
L5332 4328
" />
<path d="M5277 5494
L4702 5494
" />
<path d="M4702 5494
L4702 4328
" />
<path d="M4702 4328
L5277 4328
" />
<path d="M5277 4328
L5277 5494
" />
<path d="M4635 1525
L8041 1525
" />
<path d="M8041 1525
L8041 108
" />
<path d="M8041 108
L4635 108
" />
<path d="M4635 108
L4635 1525
" />
<path d="M108 6407
L108 10816
" />
<path d="M108 10816
L1525 10816
" />
<path d="M1525 10816
L1525 6407
" />
<path d="M1525 6407
L108 6407
" />
<path d="M8179 5501
L7076 5501
" />
<path d="M7076 6761
L8179 6761
" />
<path d="M7076 6761
L7076 5501
" />
<path d="M8179 6761
L8179 5501
" />
<path d="M1545 4037
L797 4037
" />
<path d="M797 4037
L797 2714
" />
<path d="M797 2714
L1545 2714
" />
<path d="M1545 2714
L1545 4037
" />
<g >
</g>
<g >
</g>
<g >
</g>
<g >
</g>
<g >
</g>
<g >
</g>
<g >
</g>
<g >
</g>
<g >
</g>
<g >
</g>
<g >
</g>
<g >
</g>
<g >
</g>
<g >
</g>
<g >
</g>
<g >
</g>
<g >
</g>
<g >
</g>
<g >
</g>
<g >
</g>
<g >
</g>
</g>
<g style="fill:#000000; fill-opacity:0.0; 
stroke:#000000; stroke-width:19.685; stroke-opacity:1; 
stroke-linecap:round; stroke-linejoin:round;">
</g>
<g style="fill:#FFEF00; fill-opacity:0.0; 
stroke:#FFEF00; stroke-width:19.685; stroke-opacity:1; 
stroke-linecap:round; stroke-linejoin:round;">
</g>
<g style="fill:#FFEF00; fill-opacity:0.0; 
stroke:#FFEF00; stroke-width:59.0551; stroke-opacity:1; 
stroke-linecap:round; stroke-linejoin:round;">
<circle cx="2785.43" cy="6722.44" r="98.4252" /> 
<path d="M1979 5007
L1791 5138
" />
<path d="M1979 5232
L1585 5232
L1585 5082
L1604 5044
L1623 5025
L1660 5007
L1716 5007
L1754 5025
L1773 5044
L1791 5082
L1791 5232
" />
<path d="M1773 4838
L1773 4707
" />
<path d="M1979 4650
L1979 4838
L1585 4838
L1585 4650
" />
<path d="M1604 4275
L1585 4313
L1585 4369
L1604 4425
L1641 4463
L1679 4482
L1754 4500
L1810 4500
L1885 4482
L1923 4463
L1960 4425
L1979 4369
L1979 4332
L1960 4275
L1941 4257
L1810 4257
L1810 4332
" />
<path d="M5639 2883
L5836 3179
" />
<path d="M5442 3179
L5639 2883
" />
</g>
<g style="fill:#FFEF00; fill-opacity:0.0; 
stroke:#FFEF00; stroke-width:39.3701; stroke-opacity:1; 
stroke-linecap:round; stroke-linejoin:round;">
<path d="M3848 5108
L3533 5108
" />
<path d="M3533 5108
L3533 4478
" />
<path d="M3533 4478
L3848 4478
" />
<path d="M3848 4478
L3848 5108
" />
<path d="M580 3056
L580 3686
" />
<path d="M265 3056
L580 3056
" />
<path d="M265 3686
L265 3056
" />
<path d="M580 3686
L265 3686
" />
<path d="M2273 5620
L2903 5620
" />
<path d="M2273 5935
L2273 5620
" />
<path d="M2903 5935
L2273 5935
" />
<path d="M2903 5620
L2903 5935
" />
<path d="M7037 9438
L6722 9438
" />
<path d="M6722 9438
L6722 8809
" />
<path d="M6722 8809
L7037 8809
" />
<path d="M7037 8809
L7037 9438
" />
<path d="M7588 11525
L7588 12155
" />
<path d="M7273 11525
L7588 11525
" />
<path d="M7273 12155
L7273 11525
" />
<path d="M7588 12155
L7273 12155
" />
<path d="M6801 11998
L6801 12312
" />
<path d="M6801 12312
L6171 12312
" />
<path d="M6171 12312
L6171 11998
" />
<path d="M6171 11998
L6801 11998
" />
<path d="M5462 4596
L5777 4596
" />
<path d="M5777 4596
L5777 5226
" />
<path d="M5777 5226
L5462 5226
" />
<path d="M5462 5226
L5462 4596
" />
<path d="M4832 4596
L4832 5108
" />
<path d="M4832 5108
L4950 5226
" />
<path d="M4950 5226
L5147 5226
" />
<path d="M5147 5226
L5147 4596
" />
<path d="M5147 4596
L4832 4596
" />
<path d="M4844 1066
L4844 316
" />
<path d="M4844 316
L7844 316
" />
<path d="M7844 316
L7844 1316
" />
<path d="M7844 1316
L5094 1316
" />
<path d="M5094 1316
L4844 1066
" />
<path d="M566 6616
L1316 6616
" />
<path d="M1316 6616
L1316 10616
" />
<path d="M1316 10616
L316 10616
" />
<path d="M316 10616
L316 6866
" />
<path d="M316 6866
L566 6616
" />
<path d="M7194 5866
L7194 6200
" />
<path d="M7391 6397
L8061 6397
" />
<path d="M7194 5866
L8061 5866
" />
<path d="M8061 5866
L8061 6397
" />
<path d="M7194 6200
L7391 6397
" />
<path d="M1407 3769
L935 3769
" />
<path d="M935 3769
L935 2982
" />
<path d="M935 2982
L1407 2982
" />
<path d="M1407 2982
L1407 3769
" />
<g >
</g>
<g >
</g>
<g >
</g>
<g >
</g>
<g >
</g>
<g >
</g>
<g >
</g>
<g >
</g>
<g >
</g>
<g >
</g>
<g >
</g>
<g >
</g>
<g >
</g>
<g >
</g>
<g >
</g>
<g >
</g>
<g >
</g>
<g >
</g>
<g >
</g>
<g >
</g>
</g>
<g style="fill:#FFEF00; fill-opacity:0.0; 
stroke:#FFEF00; stroke-width:39.3701; stroke-opacity:1; 
stroke-linecap:round; stroke-linejoin:round;">
</g>
<g style="fill:#FFEF00; fill-opacity:0.0; 
stroke:#FFEF00; stroke-width:59.0551; stroke-opacity:1; 
stroke-linecap:round; stroke-linejoin:round;">
<path d="M4341 5086
L4341 5311
" />
<path d="M4341 5199
L3947 5199
L4004 5236
L4041 5274
L4060 5311
" />
<path d="M4079 4749
L4341 4749
" />
<path d="M4079 4917
L4285 4917
L4322 4899
L4341 4861
L4341 4805
L4322 4767
L4303 4749
" />
<path d="M4135 4430
L4135 4561
" />
<path d="M4341 4561
L3947 4561
L3947 4374
" />
</g>
<g style="fill:#FFEF00; fill-opacity:0.0; 
stroke:#FFEF00; stroke-width:23.622; stroke-opacity:1; 
stroke-linecap:round; stroke-linejoin:round;">
<path d="M3747 4819
L3754 4827
L3762 4849
L3762 4864
L3754 4887
L3739 4902
L3724 4909
L3694 4917
L3672 4917
L3642 4909
L3627 4902
L3612 4887
L3604 4864
L3604 4849
L3612 4827
L3619 4819
" />
<path d="M3762 4669
L3762 4759
" />
<path d="M3762 4714
L3604 4714
L3627 4729
L3642 4744
L3649 4759
" />
</g>
<g style="fill:#FFEF00; fill-opacity:0.0; 
stroke:#FFEF00; stroke-width:59.0551; stroke-opacity:1; 
stroke-linecap:round; stroke-linejoin:round;">
<path d="M601 2527
L601 2752
" />
<path d="M601 2640
L207 2640
L263 2677
L301 2715
L320 2752
" />
<path d="M338 2190
L601 2190
" />
<path d="M338 2358
L545 2358
L582 2340
L601 2302
L601 2246
L582 2208
L563 2190
" />
<path d="M395 1871
L395 2002
" />
<path d="M601 2002
L207 2002
L207 1815
" />
</g>
<g style="fill:#FFEF00; fill-opacity:0.0; 
stroke:#FFEF00; stroke-width:23.622; stroke-opacity:1; 
stroke-linecap:round; stroke-linejoin:round;">
<path d="M479 3397
L486 3404
L494 3427
L494 3442
L486 3464
L471 3479
L456 3487
L426 3494
L404 3494
L374 3487
L359 3479
L344 3464
L336 3442
L336 3427
L344 3404
L351 3397
" />
<path d="M351 3337
L344 3329
L336 3314
L336 3277
L344 3262
L351 3254
L366 3247
L381 3247
L404 3254
L494 3344
L494 3247
" />
</g>
<g style="fill:#FFEF00; fill-opacity:0.0; 
stroke:#FFEF00; stroke-width:59.0551; stroke-opacity:1; 
stroke-linecap:round; stroke-linejoin:round;">
<path d="M2255 6506
L2030 6506
" />
<path d="M2143 6506
L2143 6113
L2105 6169
L2068 6206
L2030 6225
" />
<path d="M2593 6244
L2593 6506
" />
<path d="M2424 6244
L2424 6450
L2443 6488
L2480 6506
L2537 6506
L2574 6488
L2593 6469
" />
<path d="M2911 6300
L2780 6300
" />
<path d="M2780 6506
L2780 6113
L2968 6113
" />
</g>
<g style="fill:#FFEF00; fill-opacity:0.0; 
stroke:#FFEF00; stroke-width:23.622; stroke-opacity:1; 
stroke-linecap:round; stroke-linejoin:round;">
<path d="M2562 5833
L2554 5841
L2532 5848
L2517 5848
L2494 5841
L2479 5826
L2472 5811
L2464 5781
L2464 5758
L2472 5728
L2479 5713
L2494 5698
L2517 5691
L2532 5691
L2554 5698
L2562 5706
" />
<path d="M2697 5743
L2697 5848
" />
<path d="M2659 5683
L2622 5796
L2719 5796
" />
</g>
<g style="fill:#FFEF00; fill-opacity:0.0; 
stroke:#FFEF00; stroke-width:59.0551; stroke-opacity:1; 
stroke-linecap:round; stroke-linejoin:round;">
<path d="M7621 9358
L7621 9583
" />
<path d="M7621 9470
L7227 9470
L7283 9508
L7321 9545
L7339 9583
" />
<path d="M7358 9020
L7621 9020
" />
<path d="M7358 9189
L7564 9189
L7602 9170
L7621 9133
L7621 9077
L7602 9039
L7583 9020
" />
<path d="M7414 8702
L7414 8833
" />
<path d="M7621 8833
L7227 8833
L7227 8645
" />
</g>
<g style="fill:#FFEF00; fill-opacity:0.0; 
stroke:#FFEF00; stroke-width:23.622; stroke-opacity:1; 
stroke-linecap:round; stroke-linejoin:round;">
<path d="M6936 9150
L6943 9157
L6951 9180
L6951 9195
L6943 9217
L6928 9232
L6913 9240
L6883 9247
L6861 9247
L6831 9240
L6816 9232
L6801 9217
L6793 9195
L6793 9180
L6801 9157
L6808 9150
" />
<path d="M6793 9007
L6793 9082
L6868 9090
L6861 9082
L6853 9067
L6853 9030
L6861 9015
L6868 9007
L6883 9000
L6921 9000
L6936 9007
L6943 9015
L6951 9030
L6951 9067
L6943 9082
L6936 9090
" />
</g>
<g style="fill:#FFEF00; fill-opacity:0.0; 
stroke:#FFEF00; stroke-width:59.0551; stroke-opacity:1; 
stroke-linecap:round; stroke-linejoin:round;">
<path d="M8172 12074
L8172 12299
" />
<path d="M8172 12187
L7778 12187
L7834 12224
L7872 12262
L7890 12299
" />
<path d="M7909 11906
L8303 11906
" />
<path d="M7928 11906
L7909 11868
L7909 11793
L7928 11756
L7947 11737
L7984 11718
L8097 11718
L8134 11737
L8153 11756
L8172 11793
L8172 11868
L8153 11906
" />
<path d="M7965 11418
L7965 11549
" />
<path d="M8172 11549
L7778 11549
L7778 11362
" />
</g>
<g style="fill:#FFEF00; fill-opacity:0.0; 
stroke:#FFEF00; stroke-width:23.622; stroke-opacity:1; 
stroke-linecap:round; stroke-linejoin:round;">
<path d="M7487 11866
L7494 11874
L7502 11896
L7502 11911
L7494 11934
L7479 11949
L7464 11956
L7434 11964
L7412 11964
L7382 11956
L7367 11949
L7352 11934
L7344 11911
L7344 11896
L7352 11874
L7359 11866
" />
<path d="M7344 11814
L7344 11709
L7502 11776
" />
</g>
<g style="fill:#FFEF00; fill-opacity:0.0; 
stroke:#FFEF00; stroke-width:20; stroke-opacity:1; 
stroke-linecap:round; stroke-linejoin:round;">
<path d="M7181 4465
L7421 4408
L7250 4362
L7421 4316
L7181 4259
" />
<path d="M7410 4179
L7421 4145
L7421 4088
L7410 4065
L7398 4054
L7375 4042
L7352 4042
L7330 4054
L7318 4065
L7307 4088
L7295 4134
L7284 4156
L7272 4168
L7250 4179
L7227 4179
L7204 4168
L7192 4156
L7181 4134
L7181 4076
L7192 4042
" />
<path d="M7204 3951
L7192 3939
L7181 3916
L7181 3859
L7192 3836
L7204 3825
L7227 3814
L7250 3814
L7284 3825
L7421 3962
L7421 3814
" />
<path d="M7284 3676
L7272 3699
L7261 3711
L7238 3722
L7227 3722
L7204 3711
L7192 3699
L7181 3676
L7181 3631
L7192 3608
L7204 3596
L7227 3585
L7238 3585
L7261 3596
L7272 3608
L7284 3631
L7284 3676
L7295 3699
L7307 3711
L7330 3722
L7375 3722
L7398 3711
L7410 3699
L7421 3676
L7421 3631
L7410 3608
L7398 3596
L7375 3585
L7330 3585
L7307 3596
L7295 3608
L7284 3631
" />
<path d="M7421 3356
L7421 3494
" />
<path d="M7421 3425
L7181 3425
L7215 3448
L7238 3471
L7250 3494
" />
<path d="M7204 3265
L7192 3254
L7181 3231
L7181 3174
L7192 3151
L7204 3139
L7227 3128
L7250 3128
L7284 3139
L7421 3276
L7421 3128
" />
<path d="M7295 2945
L7307 2911
L7318 2899
L7341 2888
L7375 2888
L7398 2899
L7410 2911
L7421 2934
L7421 3025
L7181 3025
L7181 2945
L7192 2922
L7204 2911
L7227 2899
L7250 2899
L7272 2911
L7284 2922
L7295 2945
L7295 3025
" />
</g>
<g style="fill:#FFEF00; fill-opacity:0.0; 
stroke:#FFEF00; stroke-width:59.0551; stroke-opacity:1; 
stroke-linecap:round; stroke-linejoin:round;">
<path d="M4688 12412
L4463 12412
" />
<path d="M4575 12412
L4575 12018
L4538 12074
L4500 12112
L4463 12131
" />
<path d="M4932 12018
L4969 12018
L5007 12037
L5025 12056
L5044 12093
L5063 12168
L5063 12262
L5044 12337
L5025 12374
L5007 12393
L4969 12412
L4932 12412
L4894 12393
L4875 12374
L4857 12337
L4838 12262
L4838 12168
L4857 12093
L4875 12056
L4894 12037
L4932 12018
" />
<path d="M5232 12149
L5232 12412
" />
<path d="M5232 12187
L5250 12168
L5288 12149
L5344 12149
L5381 12168
L5400 12206
L5400 12412
" />
<path d="M5588 12412
L5588 12018
" />
<path d="M5588 12206
L5813 12206
" />
<path d="M5813 12412
L5813 12018
" />
</g>
<g style="fill:#FFEF00; fill-opacity:0.0; 
stroke:#FFEF00; stroke-width:23.622; stroke-opacity:1; 
stroke-linecap:round; stroke-linejoin:round;">
<path d="M6459 12226
L6384 12226
L6384 12069
" />
<path d="M6594 12226
L6504 12226
" />
<path d="M6549 12226
L6549 12069
L6534 12091
L6519 12106
L6504 12114
" />
</g>
<g style="fill:#FFEF00; fill-opacity:0.0; 
stroke:#FFEF00; stroke-width:59.0551; stroke-opacity:1; 
stroke-linecap:round; stroke-linejoin:round;">
<path d="M5235 4013
L5235 4238
" />
<path d="M5235 4125
L4841 4125
L4897 4163
L4935 4200
L4953 4238
" />
<path d="M5235 3844
L4841 3844
" />
<path d="M5085 3807
L5235 3694
" />
<path d="M4972 3694
L5122 3844
" />
</g>
<g style="fill:#FFEF00; fill-opacity:0.0; 
stroke:#FFEF00; stroke-width:23.622; stroke-opacity:1; 
stroke-linecap:round; stroke-linejoin:round;">
<path d="M5691 4937
L5616 4990
" />
<path d="M5691 5027
L5533 5027
L5533 4967
L5541 4952
L5548 4945
L5563 4937
L5586 4937
L5601 4945
L5608 4952
L5616 4967
L5616 5027
" />
<path d="M5548 4877
L5541 4870
L5533 4855
L5533 4817
L5541 4802
L5548 4795
L5563 4787
L5578 4787
L5601 4795
L5691 4885
L5691 4787
" />
</g>
<g style="fill:#FFEF00; fill-opacity:0.0; 
stroke:#FFEF00; stroke-width:19.685; stroke-opacity:1; 
stroke-linecap:round; stroke-linejoin:round;">
<path d="M2484 4898
L2638 4898
L2656 4889
L2665 4880
L2674 4862
L2674 4826
L2665 4808
L2656 4799
L2638 4790
L2484 4790
" />
<path d="M2484 4717
L2484 4600
L2556 4663
L2556 4636
L2565 4618
L2575 4609
L2593 4600
L2638 4600
L2656 4609
L2665 4618
L2674 4636
L2674 4690
L2665 4708
L2656 4717
" />
</g>
<g style="fill:#FFEF00; fill-opacity:0.0; 
stroke:#FFEF00; stroke-width:59.0551; stroke-opacity:1; 
stroke-linecap:round; stroke-linejoin:round;">
<path d="M5817 4022
L5817 4210
L5424 4210
" />
<path d="M5611 3891
L5611 3760
" />
<path d="M5817 3704
L5817 3891
L5424 3891
L5424 3704
" />
<path d="M5817 3535
L5424 3535
L5424 3441
L5442 3385
L5480 3347
L5517 3329
L5592 3310
L5649 3310
L5724 3329
L5761 3347
L5799 3385
L5817 3441
L5817 3535
" />
</g>
<g style="fill:#FFEF00; fill-opacity:0.0; 
stroke:#FFEF00; stroke-width:23.622; stroke-opacity:1; 
stroke-linecap:round; stroke-linejoin:round;">
<path d="M5061 5027
L4903 5027
L4903 4990
L4911 4967
L4926 4952
L4941 4945
L4971 4937
L4993 4937
L5023 4945
L5038 4952
L5053 4967
L5061 4990
L5061 5027
" />
<path d="M4918 4877
L4911 4870
L4903 4855
L4903 4817
L4911 4802
L4918 4795
L4933 4787
L4948 4787
L4971 4795
L5061 4885
L5061 4787
" />
</g>
<g style="fill:#FFEF00; fill-opacity:0.0; 
stroke:#FFEF00; stroke-width:50; stroke-opacity:1; 
stroke-linecap:round; stroke-linejoin:round;">
<path d="M914 5330
L925 5296
L925 5239
L914 5216
L902 5204
L879 5193
L856 5193
L834 5204
L822 5216
L811 5239
L799 5284
L788 5307
L776 5319
L754 5330
L731 5330
L708 5319
L696 5307
L685 5284
L685 5227
L696 5193
" />
<path d="M925 4964
L925 5101
" />
<path d="M925 5033
L685 5033
L719 5056
L742 5079
L754 5101
" />
</g>
<g style="fill:#FFEF00; fill-opacity:0.0; 
stroke:#FFEF00; stroke-width:59.0551; stroke-opacity:1; 
stroke-linecap:round; stroke-linejoin:round;">
<path d="M8278 8808
L8278 8545
L8672 8714
" />
<path d="M8409 8226
L8672 8226
" />
<path d="M8259 8320
L8540 8414
L8540 8170
" />
<path d="M8672 7833
L8672 8020
L8278 8020
" />
<path d="M8278 7758
L8672 7627
L8278 7495
" />
<path d="M8634 7139
L8653 7158
L8672 7214
L8672 7252
L8653 7308
L8615 7345
L8578 7364
L8503 7383
L8447 7383
L8372 7364
L8334 7345
L8297 7308
L8278 7252
L8278 7214
L8297 7158
L8315 7139
" />
<path d="M8672 6764
L8672 6989
" />
<path d="M8672 6877
L8278 6877
L8334 6914
L8372 6952
L8390 6989
" />
<path d="M8297 6389
L8278 6427
L8278 6483
L8297 6539
L8334 6577
L8372 6595
L8447 6614
L8503 6614
L8578 6595
L8615 6577
L8653 6539
L8672 6483
L8672 6445
L8653 6389
L8634 6370
L8503 6370
L8503 6445
" />
<path d="M8672 5995
L8672 6220
" />
<path d="M8672 6108
L8278 6108
L8334 6145
L8372 6183
L8390 6220
" />
<path d="M8315 5845
L8297 5827
L8278 5789
L8278 5696
L8297 5658
L8315 5639
L8353 5621
L8390 5621
L8447 5639
L8672 5864
L8672 5621
" />
<path d="M8278 5264
L8278 5452
L8465 5471
L8447 5452
L8428 5414
L8428 5321
L8447 5283
L8465 5264
L8503 5246
L8597 5246
L8634 5264
L8653 5283
L8672 5321
L8672 5414
L8653 5452
L8634 5471
" />
</g>
<g style="fill:#FFEF00; fill-opacity:0.0; 
stroke:#FFEF00; stroke-width:29.5276; stroke-opacity:1; 
stroke-linecap:round; stroke-linejoin:round;">
<path d="M7477 6024
L7477 6183
L7487 6202
L7496 6211
L7515 6220
L7552 6220
L7571 6211
L7581 6202
L7590 6183
L7590 6024
" />
<path d="M7768 6089
L7768 6220
" />
<path d="M7721 6014
L7674 6155
L7796 6155
" />
</g>
<g style="fill:#FFEF00; fill-opacity:0.0; 
stroke:#FFEF00; stroke-width:59.0551; stroke-opacity:1; 
stroke-linecap:round; stroke-linejoin:round;">
<path d="M1998 3404
L1998 3629
" />
<path d="M1998 3516
L1605 3516
L1661 3554
L1699 3591
L1717 3629
" />
<path d="M1605 3160
L1605 3122
L1624 3085
L1642 3066
L1680 3047
L1755 3029
L1848 3029
L1923 3047
L1961 3066
L1980 3085
L1998 3122
L1998 3160
L1980 3197
L1961 3216
L1923 3235
L1848 3254
L1755 3254
L1680 3235
L1642 3216
L1624 3197
L1605 3160
" />
<path d="M1736 2691
L1998 2691
" />
<path d="M1736 2860
L1942 2860
L1980 2841
L1998 2804
L1998 2747
L1980 2710
L1961 2691
" />
<path d="M1792 2372
L1792 2504
" />
<path d="M1998 2504
L1605 2504
L1605 2316
" />
</g>
<g style="fill:#FFEF00; fill-opacity:0.0; 
stroke:#FFEF00; stroke-width:31.4961; stroke-opacity:1; 
stroke-linecap:round; stroke-linejoin:round;">
<path d="M1241 3408
L1250 3418
L1260 3446
L1260 3465
L1250 3493
L1232 3511
L1213 3521
L1175 3530
L1147 3530
L1110 3521
L1091 3511
L1072 3493
L1063 3465
L1063 3446
L1072 3418
L1082 3408
" />
<path d="M1063 3343
L1063 3221
L1138 3286
L1138 3258
L1147 3240
L1157 3230
L1175 3221
L1222 3221
L1241 3230
L1250 3240
L1260 3258
L1260 3315
L1250 3333
L1241 3343
" />
<g >
</g>
</g>
<g style="fill:#000000; fill-opacity:0.0; 
stroke:#000000; stroke-width:31.4961; stroke-opacity:1; 
stroke-linecap:round; stroke-linejoin:round;">
</g>
<g style="fill:#C2C200; fill-opacity:0.0; 
stroke:#C2C200; stroke-width:31.4961; stroke-opacity:1; 
stroke-linecap:round; stroke-linejoin:round;">
</g>
<g style="fill:#C2C200; fill-opacity:0.0; 
stroke:#C2C200; stroke-width:59.0551; stroke-opacity:1; 
stroke-linecap:round; stroke-linejoin:round;">
<path d="M8297.24 324.804 A295.276 295.276 0.0 0 0 8001.97 29.528 " />
<path d="M324.804 29.528 A295.276 295.276 0.0 0 0 29.528 324.804 " />
<path d="M29.528 17057.1 A295.276 295.276 0.0 0 0 324.804 17352.4 " />
<path d="M8001.97 17352.4 A295.276 295.276 0.0 0 0 8297.24 17057.1 " />
<path d="M324 17352
L8001 17352
" />
<path d="M29 324
L29 17057
" />
<path d="M8001 29
L324 29
" />
<path d="M8297 17057
L8297 324
" />
<g >
</g>
<g >
</g>
<g >
</g>
<g >
</g>
<g >
</g>
<g >
</g>
<g >
</g>
<g >
</g>
<g >
</g>
<g >
</g>
<g >
</g>
<g >
</g>
<g >
</g>
<g >
</g>
<g >
</g>
<g >
</g>
<g >
</g>
<g >
</g>
<g >
</g>
<g >
</g>
<g >
</g>
</g> 
</svg>
