<?xml version="1.0" standalone="no"?>
 <!DOCTYPE svg PUBLIC "-//W3C//DTD SVG 1.1//EN" 
 "http://www.w3.org/Graphics/SVG/1.1/DTD/svg11.dtd"> 
<svg xmlns="http://www.w3.org/2000/svg" version="1.1" 
    width="2.95402cm" height="4.15036cm" viewBox="0 0 11630 16340 ">
<title>SVG Picture created as rfboard-brd.svg date 2019/05/15 18:57:43 </title>
  <desc>Picture generated by PCBNEW </desc>
<g style="fill:#000000; fill-opacity:1;stroke:#000000; stroke-opacity:1;
stroke-linecap:round; stroke-linejoin:round; "
 transform="translate(0 0) scale(1 1)">
</g>
<g style="fill:#000000; fill-opacity:0.0; 
stroke:#000000; stroke-width:-0.000393701; stroke-opacity:1; 
stroke-linecap:round; stroke-linejoin:round;">
<g >
</g>
<g style="fill:#840000; fill-opacity:0.0; 
stroke:#840000; stroke-width:-0.000393701; stroke-opacity:1; 
stroke-linecap:round; stroke-linejoin:round;">
</g>
<g style="fill:#840000; fill-opacity:0.0; 
stroke:#840000; stroke-width:0; stroke-opacity:1; 
stroke-linecap:round; stroke-linejoin:round;">
</g>
<g style="fill:#840000; fill-opacity:1.0; 
stroke:#840000; stroke-width:0; stroke-opacity:1; 
stroke-linecap:round; stroke-linejoin:round;">
<path style="fill:#840000; fill-opacity:1.0; 
stroke:#840000; stroke-width:0; stroke-opacity:1; 
stroke-linecap:round; stroke-linejoin:round;fill-rule:evenodd;"
d="M 2567,5514
2567,4964
3375,4964
3375,5514
2567,5514
Z" /> 
<path style="fill:#840000; fill-opacity:1.0; 
stroke:#840000; stroke-width:0; stroke-opacity:1; 
stroke-linecap:round; stroke-linejoin:round;fill-rule:evenodd;"
d="M 2567,6772
2567,6222
3375,6222
3375,6772
2567,6772
Z" /> 
<path style="fill:#840000; fill-opacity:1.0; 
stroke:#840000; stroke-width:0; stroke-opacity:1; 
stroke-linecap:round; stroke-linejoin:round;fill-rule:evenodd;"
d="M 4595,6772
4595,6222
5403,6222
5403,6772
4595,6772
Z" /> 
<path style="fill:#840000; fill-opacity:1.0; 
stroke:#840000; stroke-width:0; stroke-opacity:1; 
stroke-linecap:round; stroke-linejoin:round;fill-rule:evenodd;"
d="M 4595,5514
4595,4964
5403,4964
5403,5514
4595,5514
Z" /> 
</g>
<g >
<path style="fill:#840000; fill-opacity:1.0; 
stroke:#840000; stroke-width:0; stroke-opacity:1; 
stroke-linecap:round; stroke-linejoin:round;fill-rule:evenodd;"
d="M 9024,8704
9024,9176
8552,9176
8552,8704
9024,8704
Z" /> 
<path style="fill:#840000; fill-opacity:1.0; 
stroke:#840000; stroke-width:0; stroke-opacity:1; 
stroke-linecap:round; stroke-linejoin:round;fill-rule:evenodd;"
d="M 8394,8704
8394,9176
7922,9176
7922,8704
8394,8704
Z" /> 
</g>
<g >
<path style="fill:#840000; fill-opacity:1.0; 
stroke:#840000; stroke-width:0; stroke-opacity:1; 
stroke-linecap:round; stroke-linejoin:round;fill-rule:evenodd;"
d="M 4723,3369
4723,2680
5058,2680
5058,3369
4723,3369
Z" /> 
<path style="fill:#840000; fill-opacity:1.0; 
stroke:#840000; stroke-width:0; stroke-opacity:1; 
stroke-linecap:round; stroke-linejoin:round;fill-rule:evenodd;"
d="M 4467,3369
4467,2680
4802,2680
4802,3369
4467,3369
Z" /> 
<path style="fill:#840000; fill-opacity:1.0; 
stroke:#840000; stroke-width:0; stroke-opacity:1; 
stroke-linecap:round; stroke-linejoin:round;fill-rule:evenodd;"
d="M 4211,3369
4211,2680
4546,2680
4546,3369
4211,3369
Z" /> 
<path style="fill:#840000; fill-opacity:1.0; 
stroke:#840000; stroke-width:0; stroke-opacity:1; 
stroke-linecap:round; stroke-linejoin:round;fill-rule:evenodd;"
d="M 3955,3369
3955,2680
4290,2680
4290,3369
3955,3369
Z" /> 
<path style="fill:#840000; fill-opacity:1.0; 
stroke:#840000; stroke-width:0; stroke-opacity:1; 
stroke-linecap:round; stroke-linejoin:round;fill-rule:evenodd;"
d="M 3699,3369
3699,2680
4034,2680
4034,3369
3699,3369
Z" /> 
</g>
<g style="fill:#848400; fill-opacity:1.0; 
stroke:#848400; stroke-width:0; stroke-opacity:1; 
stroke-linecap:round; stroke-linejoin:round;">
<circle cx="5363.24" cy="3034.78" r="355.906" /> 
</g>
<g style="fill:#848400; fill-opacity:1.0; 
stroke:#848400; stroke-width:39.3701; stroke-opacity:1; 
stroke-linecap:round; stroke-linejoin:round;">
</g>
<g style="fill:#848400; fill-opacity:1.0; 
stroke:#848400; stroke-width:0; stroke-opacity:1; 
stroke-linecap:round; stroke-linejoin:round;">
<circle cx="3394.73" cy="3034.78" r="355.906" /> 
</g>
<g style="fill:#848400; fill-opacity:1.0; 
stroke:#848400; stroke-width:39.3701; stroke-opacity:1; 
stroke-linecap:round; stroke-linejoin:round;">
</g>
<g style="fill:#848400; fill-opacity:1.0; 
stroke:#848400; stroke-width:0; stroke-opacity:1; 
stroke-linecap:round; stroke-linejoin:round;">
<circle cx="5756.94" cy="1971.79" r="433.071" /> 
</g>
<g style="fill:#848400; fill-opacity:1.0; 
stroke:#848400; stroke-width:39.3701; stroke-opacity:1; 
stroke-linecap:round; stroke-linejoin:round;">
</g>
<g style="fill:#848400; fill-opacity:1.0; 
stroke:#848400; stroke-width:0; stroke-opacity:1; 
stroke-linecap:round; stroke-linejoin:round;">
<circle cx="3001.03" cy="1971.79" r="433.071" /> 
</g>
<g style="fill:#848400; fill-opacity:1.0; 
stroke:#848400; stroke-width:39.3701; stroke-opacity:1; 
stroke-linecap:round; stroke-linejoin:round;">
</g>
<g style="fill:#840000; fill-opacity:1.0; 
stroke:#840000; stroke-width:39.3701; stroke-opacity:1; 
stroke-linecap:round; stroke-linejoin:round;">
</g>
<g style="fill:#840000; fill-opacity:1.0; 
stroke:#840000; stroke-width:0; stroke-opacity:1; 
stroke-linecap:round; stroke-linejoin:round;">
<path style="fill:#840000; fill-opacity:1.0; 
stroke:#840000; stroke-width:0; stroke-opacity:1; 
stroke-linecap:round; stroke-linejoin:round;fill-rule:evenodd;"
d="M 5146,1587
5146,2355
4398,2355
4398,1587
5146,1587
Z" /> 
<path style="fill:#840000; fill-opacity:1.0; 
stroke:#840000; stroke-width:0; stroke-opacity:1; 
stroke-linecap:round; stroke-linejoin:round;fill-rule:evenodd;"
d="M 4359,1587
4359,2355
3611,2355
3611,1587
4359,1587
Z" /> 
<path style="fill:#840000; fill-opacity:1.0; 
stroke:#840000; stroke-width:0; stroke-opacity:1; 
stroke-linecap:round; stroke-linejoin:round;fill-rule:evenodd;"
d="M 5953,1587
5953,2355
5205,2355
5205,1587
5953,1587
Z" /> 
<path style="fill:#840000; fill-opacity:1.0; 
stroke:#840000; stroke-width:0; stroke-opacity:1; 
stroke-linecap:round; stroke-linejoin:round;fill-rule:evenodd;"
d="M 3552,1587
3552,2355
2804,2355
2804,1587
3552,1587
Z" /> 
</g>
<g >
<path style="fill:#840000; fill-opacity:1.0; 
stroke:#840000; stroke-width:0; stroke-opacity:1; 
stroke-linecap:round; stroke-linejoin:round;fill-rule:evenodd;"
d="M 6355,7000
6655,7000
6655,7580
6355,7580
6355,7000
Z" /> 
<path style="fill:#840000; fill-opacity:1.0; 
stroke:#840000; stroke-width:0; stroke-opacity:1; 
stroke-linecap:round; stroke-linejoin:round;fill-rule:evenodd;"
d="M 6040,7000
6340,7000
6340,7580
6040,7580
6040,7000
Z" /> 
<path style="fill:#840000; fill-opacity:1.0; 
stroke:#840000; stroke-width:0; stroke-opacity:1; 
stroke-linecap:round; stroke-linejoin:round;fill-rule:evenodd;"
d="M 5725,7000
6025,7000
6025,7580
5725,7580
5725,7000
Z" /> 
<path style="fill:#840000; fill-opacity:1.0; 
stroke:#840000; stroke-width:0; stroke-opacity:1; 
stroke-linecap:round; stroke-linejoin:round;fill-rule:evenodd;"
d="M 5410,7000
5710,7000
5710,7580
5410,7580
5410,7000
Z" /> 
<path style="fill:#840000; fill-opacity:1.0; 
stroke:#840000; stroke-width:0; stroke-opacity:1; 
stroke-linecap:round; stroke-linejoin:round;fill-rule:evenodd;"
d="M 5096,7000
5396,7000
5396,7580
5096,7580
5096,7000
Z" /> 
<path style="fill:#840000; fill-opacity:1.0; 
stroke:#840000; stroke-width:0; stroke-opacity:1; 
stroke-linecap:round; stroke-linejoin:round;fill-rule:evenodd;"
d="M 4781,7000
5081,7000
5081,7580
4781,7580
4781,7000
Z" /> 
<path style="fill:#840000; fill-opacity:1.0; 
stroke:#840000; stroke-width:0; stroke-opacity:1; 
stroke-linecap:round; stroke-linejoin:round;fill-rule:evenodd;"
d="M 4466,7000
4766,7000
4766,7580
4466,7580
4466,7000
Z" /> 
<path style="fill:#840000; fill-opacity:1.0; 
stroke:#840000; stroke-width:0; stroke-opacity:1; 
stroke-linecap:round; stroke-linejoin:round;fill-rule:evenodd;"
d="M 4151,7000
4451,7000
4451,7580
4151,7580
4151,7000
Z" /> 
<path style="fill:#840000; fill-opacity:1.0; 
stroke:#840000; stroke-width:0; stroke-opacity:1; 
stroke-linecap:round; stroke-linejoin:round;fill-rule:evenodd;"
d="M 3423,7728
4003,7728
4003,8028
3423,8028
3423,7728
Z" /> 
<path style="fill:#840000; fill-opacity:1.0; 
stroke:#840000; stroke-width:0; stroke-opacity:1; 
stroke-linecap:round; stroke-linejoin:round;fill-rule:evenodd;"
d="M 3423,8043
4003,8043
4003,8343
3423,8343
3423,8043
Z" /> 
<path style="fill:#840000; fill-opacity:1.0; 
stroke:#840000; stroke-width:0; stroke-opacity:1; 
stroke-linecap:round; stroke-linejoin:round;fill-rule:evenodd;"
d="M 3423,8358
4003,8358
4003,8658
3423,8658
3423,8358
Z" /> 
<path style="fill:#840000; fill-opacity:1.0; 
stroke:#840000; stroke-width:0; stroke-opacity:1; 
stroke-linecap:round; stroke-linejoin:round;fill-rule:evenodd;"
d="M 3423,8673
4003,8673
4003,8973
3423,8973
3423,8673
Z" /> 
<path style="fill:#840000; fill-opacity:1.0; 
stroke:#840000; stroke-width:0; stroke-opacity:1; 
stroke-linecap:round; stroke-linejoin:round;fill-rule:evenodd;"
d="M 3423,8987
4003,8987
4003,9287
3423,9287
3423,8987
Z" /> 
<path style="fill:#840000; fill-opacity:1.0; 
stroke:#840000; stroke-width:0; stroke-opacity:1; 
stroke-linecap:round; stroke-linejoin:round;fill-rule:evenodd;"
d="M 3423,9302
4003,9302
4003,9602
3423,9602
3423,9302
Z" /> 
<path style="fill:#840000; fill-opacity:1.0; 
stroke:#840000; stroke-width:0; stroke-opacity:1; 
stroke-linecap:round; stroke-linejoin:round;fill-rule:evenodd;"
d="M 3423,9617
4003,9617
4003,9917
3423,9917
3423,9617
Z" /> 
<path style="fill:#840000; fill-opacity:1.0; 
stroke:#840000; stroke-width:0; stroke-opacity:1; 
stroke-linecap:round; stroke-linejoin:round;fill-rule:evenodd;"
d="M 3423,9932
4003,9932
4003,10232
3423,10232
3423,9932
Z" /> 
<path style="fill:#840000; fill-opacity:1.0; 
stroke:#840000; stroke-width:0; stroke-opacity:1; 
stroke-linecap:round; stroke-linejoin:round;fill-rule:evenodd;"
d="M 4151,10380
4451,10380
4451,10960
4151,10960
4151,10380
Z" /> 
<path style="fill:#840000; fill-opacity:1.0; 
stroke:#840000; stroke-width:0; stroke-opacity:1; 
stroke-linecap:round; stroke-linejoin:round;fill-rule:evenodd;"
d="M 4466,10380
4766,10380
4766,10960
4466,10960
4466,10380
Z" /> 
<path style="fill:#840000; fill-opacity:1.0; 
stroke:#840000; stroke-width:0; stroke-opacity:1; 
stroke-linecap:round; stroke-linejoin:round;fill-rule:evenodd;"
d="M 4781,10380
5081,10380
5081,10960
4781,10960
4781,10380
Z" /> 
<path style="fill:#840000; fill-opacity:1.0; 
stroke:#840000; stroke-width:0; stroke-opacity:1; 
stroke-linecap:round; stroke-linejoin:round;fill-rule:evenodd;"
d="M 5096,10380
5396,10380
5396,10960
5096,10960
5096,10380
Z" /> 
<path style="fill:#840000; fill-opacity:1.0; 
stroke:#840000; stroke-width:0; stroke-opacity:1; 
stroke-linecap:round; stroke-linejoin:round;fill-rule:evenodd;"
d="M 5410,10380
5710,10380
5710,10960
5410,10960
5410,10380
Z" /> 
<path style="fill:#840000; fill-opacity:1.0; 
stroke:#840000; stroke-width:0; stroke-opacity:1; 
stroke-linecap:round; stroke-linejoin:round;fill-rule:evenodd;"
d="M 5725,10380
6025,10380
6025,10960
5725,10960
5725,10380
Z" /> 
<path style="fill:#840000; fill-opacity:1.0; 
stroke:#840000; stroke-width:0; stroke-opacity:1; 
stroke-linecap:round; stroke-linejoin:round;fill-rule:evenodd;"
d="M 6040,10380
6340,10380
6340,10960
6040,10960
6040,10380
Z" /> 
<path style="fill:#840000; fill-opacity:1.0; 
stroke:#840000; stroke-width:0; stroke-opacity:1; 
stroke-linecap:round; stroke-linejoin:round;fill-rule:evenodd;"
d="M 6355,10380
6655,10380
6655,10960
6355,10960
6355,10380
Z" /> 
<path style="fill:#840000; fill-opacity:1.0; 
stroke:#840000; stroke-width:0; stroke-opacity:1; 
stroke-linecap:round; stroke-linejoin:round;fill-rule:evenodd;"
d="M 6803,9932
7383,9932
7383,10232
6803,10232
6803,9932
Z" /> 
<path style="fill:#840000; fill-opacity:1.0; 
stroke:#840000; stroke-width:0; stroke-opacity:1; 
stroke-linecap:round; stroke-linejoin:round;fill-rule:evenodd;"
d="M 6803,9617
7383,9617
7383,9917
6803,9917
6803,9617
Z" /> 
<path style="fill:#840000; fill-opacity:1.0; 
stroke:#840000; stroke-width:0; stroke-opacity:1; 
stroke-linecap:round; stroke-linejoin:round;fill-rule:evenodd;"
d="M 6803,9302
7383,9302
7383,9602
6803,9602
6803,9302
Z" /> 
<path style="fill:#840000; fill-opacity:1.0; 
stroke:#840000; stroke-width:0; stroke-opacity:1; 
stroke-linecap:round; stroke-linejoin:round;fill-rule:evenodd;"
d="M 6803,8987
7383,8987
7383,9287
6803,9287
6803,8987
Z" /> 
<path style="fill:#840000; fill-opacity:1.0; 
stroke:#840000; stroke-width:0; stroke-opacity:1; 
stroke-linecap:round; stroke-linejoin:round;fill-rule:evenodd;"
d="M 6803,8673
7383,8673
7383,8973
6803,8973
6803,8673
Z" /> 
<path style="fill:#840000; fill-opacity:1.0; 
stroke:#840000; stroke-width:0; stroke-opacity:1; 
stroke-linecap:round; stroke-linejoin:round;fill-rule:evenodd;"
d="M 6803,8358
7383,8358
7383,8658
6803,8658
6803,8358
Z" /> 
<path style="fill:#840000; fill-opacity:1.0; 
stroke:#840000; stroke-width:0; stroke-opacity:1; 
stroke-linecap:round; stroke-linejoin:round;fill-rule:evenodd;"
d="M 6803,8043
7383,8043
7383,8343
6803,8343
6803,8043
Z" /> 
<path style="fill:#840000; fill-opacity:1.0; 
stroke:#840000; stroke-width:0; stroke-opacity:1; 
stroke-linecap:round; stroke-linejoin:round;fill-rule:evenodd;"
d="M 6803,7728
7383,7728
7383,8028
6803,8028
6803,7728
Z" /> 
</g>
<g >
<path style="fill:#840000; fill-opacity:1.0; 
stroke:#840000; stroke-width:0; stroke-opacity:1; 
stroke-linecap:round; stroke-linejoin:round;fill-rule:evenodd;"
d="M 6406,5605
6406,4999
6800,4999
6800,5605
6406,5605
Z" /> 
<path style="fill:#840000; fill-opacity:1.0; 
stroke:#840000; stroke-width:0; stroke-opacity:1; 
stroke-linecap:round; stroke-linejoin:round;fill-rule:evenodd;"
d="M 6032,5605
6032,4999
6426,4999
6426,5605
6032,5605
Z" /> 
<path style="fill:#840000; fill-opacity:1.0; 
stroke:#840000; stroke-width:0; stroke-opacity:1; 
stroke-linecap:round; stroke-linejoin:round;fill-rule:evenodd;"
d="M 5658,5605
5658,4999
6052,4999
6052,5605
5658,5605
Z" /> 
<path style="fill:#840000; fill-opacity:1.0; 
stroke:#840000; stroke-width:0; stroke-opacity:1; 
stroke-linecap:round; stroke-linejoin:round;fill-rule:evenodd;"
d="M 5658,6503
5658,5896
6052,5896
6052,6503
5658,6503
Z" /> 
<path style="fill:#840000; fill-opacity:1.0; 
stroke:#840000; stroke-width:0; stroke-opacity:1; 
stroke-linecap:round; stroke-linejoin:round;fill-rule:evenodd;"
d="M 6406,6503
6406,5896
6800,5896
6800,6503
6406,6503
Z" /> 
</g>
<g >
</g>
<g style="fill:#848400; fill-opacity:1.0; 
stroke:#848400; stroke-width:0; stroke-opacity:1; 
stroke-linecap:round; stroke-linejoin:round;">
<circle cx="2489.22" cy="13861.5" r="610.236" /> 
</g>
<g style="fill:#848400; fill-opacity:1.0; 
stroke:#848400; stroke-width:39.3701; stroke-opacity:1; 
stroke-linecap:round; stroke-linejoin:round;">
</g>
<g >
</g>
<g style="fill:#848400; fill-opacity:1.0; 
stroke:#848400; stroke-width:0; stroke-opacity:1; 
stroke-linecap:round; stroke-linejoin:round;">
<circle cx="9300.24" cy="13861.5" r="610.236" /> 
</g>
<g style="fill:#848400; fill-opacity:1.0; 
stroke:#848400; stroke-width:39.3701; stroke-opacity:1; 
stroke-linecap:round; stroke-linejoin:round;">
</g>
<g >
</g>
<g style="fill:#848400; fill-opacity:1.0; 
stroke:#848400; stroke-width:0; stroke-opacity:1; 
stroke-linecap:round; stroke-linejoin:round;">
<circle cx="7213.63" cy="3664.7" r="610.236" /> 
</g>
<g style="fill:#848400; fill-opacity:1.0; 
stroke:#848400; stroke-width:39.3701; stroke-opacity:1; 
stroke-linecap:round; stroke-linejoin:round;">
</g>
<g >
</g>
<g style="fill:#840000; fill-opacity:1.0; 
stroke:#840000; stroke-width:39.3701; stroke-opacity:1; 
stroke-linecap:round; stroke-linejoin:round;">
</g>
<g style="fill:#840000; fill-opacity:1.0; 
stroke:#840000; stroke-width:0; stroke-opacity:1; 
stroke-linecap:round; stroke-linejoin:round;">
<path style="fill:#840000; fill-opacity:1.0; 
stroke:#840000; stroke-width:0; stroke-opacity:1; 
stroke-linecap:round; stroke-linejoin:round;fill-rule:evenodd;"
d="M 3384,4117
2932,4117
2932,3645
3384,3645
3384,4117
Z" /> 
<path style="fill:#840000; fill-opacity:1.0; 
stroke:#840000; stroke-width:0; stroke-opacity:1; 
stroke-linecap:round; stroke-linejoin:round;fill-rule:evenodd;"
d="M 3384,4708
2932,4708
2932,4235
3384,4235
3384,4708
Z" /> 
</g>
<g >
<path style="fill:#840000; fill-opacity:1.0; 
stroke:#840000; stroke-width:0; stroke-opacity:1; 
stroke-linecap:round; stroke-linejoin:round;fill-rule:evenodd;"
d="M 3936,4117
3483,4117
3483,3645
3936,3645
3936,4117
Z" /> 
<path style="fill:#840000; fill-opacity:1.0; 
stroke:#840000; stroke-width:0; stroke-opacity:1; 
stroke-linecap:round; stroke-linejoin:round;fill-rule:evenodd;"
d="M 3936,4708
3483,4708
3483,4235
3936,4235
3936,4708
Z" /> 
</g>
<g >
<path style="fill:#840000; fill-opacity:1.0; 
stroke:#840000; stroke-width:0; stroke-opacity:1; 
stroke-linecap:round; stroke-linejoin:round;fill-rule:evenodd;"
d="M 4664,4845
4014,4845
4014,4294
4664,4294
4664,4845
Z" /> 
<path style="fill:#840000; fill-opacity:1.0; 
stroke:#840000; stroke-width:0; stroke-opacity:1; 
stroke-linecap:round; stroke-linejoin:round;fill-rule:evenodd;"
d="M 4664,4058
4014,4058
4014,3507
4664,3507
4664,4058
Z" /> 
</g>
<g >
</g>
<g style="fill:#848400; fill-opacity:1.0; 
stroke:#848400; stroke-width:0; stroke-opacity:1; 
stroke-linecap:round; stroke-linejoin:round;">
<path style="fill:#848400; fill-opacity:1.0; 
stroke:#848400; stroke-width:0; stroke-opacity:1; 
stroke-linecap:round; stroke-linejoin:round;fill-rule:evenodd;"
d="M 2233,11637
2233,12463
1406,12463
1406,11637
2233,11637
Z" /> 
</g>
<g style="fill:#848400; fill-opacity:1.0; 
stroke:#848400; stroke-width:826.772; stroke-opacity:1; 
stroke-linecap:round; stroke-linejoin:round;">
</g>
<g style="fill:#848400; fill-opacity:0.0; 
stroke:#848400; stroke-width:826.772; stroke-opacity:1; 
stroke-linecap:round; stroke-linejoin:round;">
<path d="M1819 11050
L1819 11050
" />
<path d="M1819 10050
L1819 10050
" />
<path d="M1819 9050
L1819 9050
" />
<path d="M1819 8050
L1819 8050
" />
<path d="M1819 7050
L1819 7050
" />
<path d="M1819 6050
L1819 6050
" />
<path d="M1819 5050
L1819 5050
" />
<path d="M1819 4050
L1819 4050
" />
<path d="M1819 3050
L1819 3050
" />
</g>
<g >
</g>
<g style="fill:#848400; fill-opacity:0.0; 
stroke:#848400; stroke-width:0; stroke-opacity:1; 
stroke-linecap:round; stroke-linejoin:round;">
</g>
<g style="fill:#848400; fill-opacity:1.0; 
stroke:#848400; stroke-width:0; stroke-opacity:1; 
stroke-linecap:round; stroke-linejoin:round;">
<path style="fill:#848400; fill-opacity:1.0; 
stroke:#848400; stroke-width:0; stroke-opacity:1; 
stroke-linecap:round; stroke-linejoin:round;fill-rule:evenodd;"
d="M 10233,11637
10233,12463
9406,12463
9406,11637
10233,11637
Z" /> 
</g>
<g style="fill:#848400; fill-opacity:1.0; 
stroke:#848400; stroke-width:826.772; stroke-opacity:1; 
stroke-linecap:round; stroke-linejoin:round;">
</g>
<g style="fill:#848400; fill-opacity:0.0; 
stroke:#848400; stroke-width:826.772; stroke-opacity:1; 
stroke-linecap:round; stroke-linejoin:round;">
<path d="M9819 11050
L9819 11050
" />
<path d="M9819 10050
L9819 10050
" />
<path d="M9819 9050
L9819 9050
" />
<path d="M9819 8050
L9819 8050
" />
<path d="M9819 7050
L9819 7050
" />
<path d="M9819 6050
L9819 6050
" />
<path d="M9819 5050
L9819 5050
" />
<path d="M9819 4050
L9819 4050
" />
<path d="M9819 3050
L9819 3050
" />
</g>
<g >
</g>
<g style="fill:#848400; fill-opacity:0.0; 
stroke:#848400; stroke-width:0; stroke-opacity:1; 
stroke-linecap:round; stroke-linejoin:round;">
</g>
<g style="fill:#848400; fill-opacity:1.0; 
stroke:#848400; stroke-width:0; stroke-opacity:1; 
stroke-linecap:round; stroke-linejoin:round;">
<path style="fill:#848400; fill-opacity:1.0; 
stroke:#848400; stroke-width:0; stroke-opacity:1; 
stroke-linecap:round; stroke-linejoin:round;fill-rule:evenodd;"
d="M 8028,2345
7201,2345
7201,1519
8028,1519
8028,2345
Z" /> 
</g>
<g style="fill:#848400; fill-opacity:1.0; 
stroke:#848400; stroke-width:826.772; stroke-opacity:1; 
stroke-linecap:round; stroke-linejoin:round;">
</g>
<g style="fill:#848400; fill-opacity:0.0; 
stroke:#848400; stroke-width:826.772; stroke-opacity:1; 
stroke-linecap:round; stroke-linejoin:round;">
<path d="M8615 1932
L8615 1932
" />
<path d="M9615 1932
L9615 1932
" />
</g>
<g >
</g>
<g style="fill:#848400; fill-opacity:0.0; 
stroke:#848400; stroke-width:0; stroke-opacity:1; 
stroke-linecap:round; stroke-linejoin:round;">
</g>
<g style="fill:#848400; fill-opacity:1.0; 
stroke:#848400; stroke-width:0; stroke-opacity:1; 
stroke-linecap:round; stroke-linejoin:round;">
<path style="fill:#848400; fill-opacity:1.0; 
stroke:#848400; stroke-width:0; stroke-opacity:1; 
stroke-linecap:round; stroke-linejoin:round;fill-rule:evenodd;"
d="M 6989,13999
7815,13999
7815,14826
6989,14826
6989,13999
Z" /> 
</g>
<g style="fill:#848400; fill-opacity:1.0; 
stroke:#848400; stroke-width:826.772; stroke-opacity:1; 
stroke-linecap:round; stroke-linejoin:round;">
</g>
<g style="fill:#848400; fill-opacity:0.0; 
stroke:#848400; stroke-width:826.772; stroke-opacity:1; 
stroke-linecap:round; stroke-linejoin:round;">
<path d="M6402 14412
L6402 14412
" />
<path d="M5402 14412
L5402 14412
" />
<path d="M4402 14412
L4402 14412
" />
</g>
<g >
</g>
<g style="fill:#840000; fill-opacity:0.0; 
stroke:#840000; stroke-width:826.772; stroke-opacity:1; 
stroke-linecap:round; stroke-linejoin:round;">
</g>
<g style="fill:#840000; fill-opacity:0.0; 
stroke:#840000; stroke-width:0; stroke-opacity:1; 
stroke-linecap:round; stroke-linejoin:round;">
</g>
<g style="fill:#840000; fill-opacity:1.0; 
stroke:#840000; stroke-width:0; stroke-opacity:1; 
stroke-linecap:round; stroke-linejoin:round;">
<path style="fill:#840000; fill-opacity:1.0; 
stroke:#840000; stroke-width:0; stroke-opacity:1; 
stroke-linecap:round; stroke-linejoin:round;fill-rule:evenodd;"
d="M 8965,9235
8965,9747
8611,9747
8611,9235
8965,9235
Z" /> 
<path style="fill:#840000; fill-opacity:1.0; 
stroke:#840000; stroke-width:0; stroke-opacity:1; 
stroke-linecap:round; stroke-linejoin:round;fill-rule:evenodd;"
d="M 8375,9235
8375,9747
8020,9747
8020,9235
8375,9235
Z" /> 
</g>
<g >
<path style="fill:#840000; fill-opacity:1.0; 
stroke:#840000; stroke-width:0; stroke-opacity:1; 
stroke-linecap:round; stroke-linejoin:round;fill-rule:evenodd;"
d="M 7666,5013
7981,5013
7981,5426
7666,5426
7666,5013
Z" /> 
<path style="fill:#840000; fill-opacity:1.0; 
stroke:#840000; stroke-width:0; stroke-opacity:1; 
stroke-linecap:round; stroke-linejoin:round;fill-rule:evenodd;"
d="M 7154,5013
7469,5013
7469,5426
7154,5426
7154,5013
Z" /> 
<path style="fill:#840000; fill-opacity:1.0; 
stroke:#840000; stroke-width:0; stroke-opacity:1; 
stroke-linecap:round; stroke-linejoin:round;fill-rule:evenodd;"
d="M 7410,5013
7725,5013
7725,5426
7410,5426
7410,5013
Z" /> 
<path style="fill:#840000; fill-opacity:1.0; 
stroke:#840000; stroke-width:0; stroke-opacity:1; 
stroke-linecap:round; stroke-linejoin:round;fill-rule:evenodd;"
d="M 7154,5761
7469,5761
7469,6174
7154,6174
7154,5761
Z" /> 
<path style="fill:#840000; fill-opacity:1.0; 
stroke:#840000; stroke-width:0; stroke-opacity:1; 
stroke-linecap:round; stroke-linejoin:round;fill-rule:evenodd;"
d="M 7666,5761
7981,5761
7981,6174
7666,6174
7666,5761
Z" /> 
</g>
<g >
<path style="fill:#840000; fill-opacity:1.0; 
stroke:#840000; stroke-width:0; stroke-opacity:1; 
stroke-linecap:round; stroke-linejoin:round;fill-rule:evenodd;"
d="M 7863,6341
8336,6341
8336,6775
7863,6775
7863,6341
Z" /> 
<path style="fill:#840000; fill-opacity:1.0; 
stroke:#840000; stroke-width:0; stroke-opacity:1; 
stroke-linecap:round; stroke-linejoin:round;fill-rule:evenodd;"
d="M 7863,7955
8336,7955
8336,8389
7863,8389
7863,7955
Z" /> 
<path style="fill:#840000; fill-opacity:1.0; 
stroke:#840000; stroke-width:0; stroke-opacity:1; 
stroke-linecap:round; stroke-linejoin:round;fill-rule:evenodd;"
d="M 8491,7955
8964,7955
8964,8389
8491,8389
8491,7955
Z" /> 
<path style="fill:#840000; fill-opacity:1.0; 
stroke:#840000; stroke-width:0; stroke-opacity:1; 
stroke-linecap:round; stroke-linejoin:round;fill-rule:evenodd;"
d="M 8491,6341
8964,6341
8964,6775
8491,6775
8491,6341
Z" /> 
</g>
<g >
<path style="fill:#840000; fill-opacity:1.0; 
stroke:#840000; stroke-width:0; stroke-opacity:1; 
stroke-linecap:round; stroke-linejoin:round;fill-rule:evenodd;"
d="M 2548,11420
3060,11420
3060,11774
2548,11774
2548,11420
Z" /> 
<path style="fill:#840000; fill-opacity:1.0; 
stroke:#840000; stroke-width:0; stroke-opacity:1; 
stroke-linecap:round; stroke-linejoin:round;fill-rule:evenodd;"
d="M 2548,12011
3060,12011
3060,12365
2548,12365
2548,12011
Z" /> 
</g>
<g >
<path style="fill:#840000; fill-opacity:1.0; 
stroke:#840000; stroke-width:0; stroke-opacity:1; 
stroke-linecap:round; stroke-linejoin:round;fill-rule:evenodd;"
d="M 3138,11420
3650,11420
3650,11774
3138,11774
3138,11420
Z" /> 
<path style="fill:#840000; fill-opacity:1.0; 
stroke:#840000; stroke-width:0; stroke-opacity:1; 
stroke-linecap:round; stroke-linejoin:round;fill-rule:evenodd;"
d="M 3138,12011
3650,12011
3650,12365
3138,12365
3138,12011
Z" /> 
</g>
<g >
</g>
<g style="fill:#848400; fill-opacity:1.0; 
stroke:#848400; stroke-width:0; stroke-opacity:1; 
stroke-linecap:round; stroke-linejoin:round;">
<path style="fill:#848400; fill-opacity:1.0; 
stroke:#848400; stroke-width:0; stroke-opacity:1; 
stroke-linecap:round; stroke-linejoin:round;fill-rule:evenodd;"
d="M 9221,12818
8394,12818
8394,11991
9221,11991
9221,12818
Z" /> 
</g>
<g >
</g>
<g style="fill:#840000; fill-opacity:1.0; 
stroke:#840000; stroke-width:0; stroke-opacity:1; 
stroke-linecap:round; stroke-linejoin:round;">
<path style="fill:#840000; fill-opacity:1.0; 
stroke:#840000; stroke-width:0; stroke-opacity:1; 
stroke-linecap:round; stroke-linejoin:round;fill-rule:evenodd;"
d="M 3153,7198
3165,7200
3177,7203
3189,7207
3200,7212
3211,7219
3220,7226
3230,7234
3238,7244
3245,7253
3251,7264
3257,7275
3261,7287
3264,7299
3266,7311
3266,7323
3266,7574
3266,7586
3264,7599
3261,7611
3257,7622
3251,7633
3245,7644
3238,7654
3230,7663
3220,7671
3211,7678
3200,7685
3189,7690
3177,7694
3165,7697
3153,7699
3141,7700
2860,7700
2848,7699
2836,7697
2824,7694
2812,7690
2801,7685
2791,7678
2781,7671
2772,7663
2763,7654
2756,7644
2750,7633
2744,7622
2740,7611
2737,7599
2735,7586
2735,7574
2735,7323
2735,7311
2737,7299
2740,7287
2744,7275
2750,7264
2756,7253
2763,7244
2772,7234
2781,7226
2791,7219
2801,7212
2812,7207
2824,7203
2836,7200
2848,7198
2860,7198
3141,7198
3153,7198
Z" /> 
<path style="fill:#840000; fill-opacity:1.0; 
stroke:#840000; stroke-width:0; stroke-opacity:1; 
stroke-linecap:round; stroke-linejoin:round;fill-rule:evenodd;"
d="M 3153,7818
3165,7820
3177,7823
3189,7827
3200,7833
3211,7839
3220,7846
3230,7854
3238,7864
3245,7874
3251,7884
3257,7895
3261,7907
3264,7919
3266,7931
3266,7943
3266,8194
3266,8207
3264,8219
3261,8231
3257,8242
3251,8253
3245,8264
3238,8274
3230,8283
3220,8291
3211,8299
3200,8305
3189,8310
3177,8314
3165,8317
3153,8319
3141,8320
2860,8320
2848,8319
2836,8317
2824,8314
2812,8310
2801,8305
2791,8299
2781,8291
2772,8283
2763,8274
2756,8264
2750,8253
2744,8242
2740,8231
2737,8219
2735,8207
2735,8194
2735,7943
2735,7931
2737,7919
2740,7907
2744,7895
2750,7884
2756,7874
2763,7864
2772,7854
2781,7846
2791,7839
2801,7833
2812,7827
2824,7823
2836,7820
2848,7818
2860,7818
3141,7818
3153,7818
Z" /> 
</g>
<g >
<path style="fill:#840000; fill-opacity:1.0; 
stroke:#840000; stroke-width:0; stroke-opacity:1; 
stroke-linecap:round; stroke-linejoin:round;fill-rule:evenodd;"
d="M 6765,11824
6777,11826
6789,11829
6801,11833
6812,11838
6823,11845
6833,11852
6842,11860
6850,11870
6857,11879
6864,11890
6869,11901
6873,11913
6876,11925
6878,11937
6878,11949
6878,12230
6878,12242
6876,12254
6873,12266
6869,12278
6864,12289
6857,12299
6850,12309
6842,12318
6833,12327
6823,12334
6812,12340
6801,12346
6789,12350
6777,12353
6765,12355
6753,12355
6502,12355
6490,12355
6478,12353
6466,12350
6454,12346
6443,12340
6432,12334
6422,12327
6413,12318
6405,12309
6398,12299
6391,12289
6386,12278
6382,12266
6379,12254
6377,12242
6377,12230
6377,11949
6377,11937
6379,11925
6382,11913
6386,11901
6391,11890
6398,11879
6405,11870
6413,11860
6422,11852
6432,11845
6443,11838
6454,11833
6466,11829
6478,11826
6490,11824
6502,11824
6753,11824
6765,11824
Z" /> 
<path style="fill:#840000; fill-opacity:1.0; 
stroke:#840000; stroke-width:0; stroke-opacity:1; 
stroke-linecap:round; stroke-linejoin:round;fill-rule:evenodd;"
d="M 7385,11824
7398,11826
7409,11829
7421,11833
7432,11838
7443,11845
7453,11852
7462,11860
7470,11870
7477,11879
7484,11890
7489,11901
7493,11913
7496,11925
7498,11937
7499,11949
7499,12230
7498,12242
7496,12254
7493,12266
7489,12278
7484,12289
7477,12299
7470,12309
7462,12318
7453,12327
7443,12334
7432,12340
7421,12346
7409,12350
7398,12353
7385,12355
7373,12355
7122,12355
7110,12355
7098,12353
7086,12350
7074,12346
7063,12340
7052,12334
7042,12327
7033,12318
7025,12309
7018,12299
7011,12289
7006,12278
7002,12266
6999,12254
6997,12242
6997,12230
6997,11949
6997,11937
6999,11925
7002,11913
7006,11901
7011,11890
7018,11879
7025,11870
7033,11860
7042,11852
7052,11845
7063,11838
7074,11833
7086,11829
7098,11826
7110,11824
7122,11824
7373,11824
7385,11824
Z" /> 
</g>
<g >
</g>
<g >
</g>
<g >
</g>
<g >
</g>
</g>
<g style="fill:#000000; fill-opacity:1.0; 
stroke:#000000; stroke-width:0; stroke-opacity:1; 
stroke-linecap:round; stroke-linejoin:round;">
</g>
<g style="fill:#000000; fill-opacity:0.0; 
stroke:#000000; stroke-width:0; stroke-opacity:1; 
stroke-linecap:round; stroke-linejoin:round;">
</g>
<g style="fill:#000000; fill-opacity:0.0; 
stroke:#000000; stroke-width:118.11; stroke-opacity:1; 
stroke-linecap:round; stroke-linejoin:round;">
<path d="M8712 7871
L8740 7787
L8740 7646
L8712 7590
L8684 7562
L8628 7534
L8571 7534
L8515 7562
L8487 7590
L8459 7646
L8431 7759
L8403 7815
L8375 7843
L8318 7871
L8262 7871
L8206 7843
L8178 7815
L8150 7759
L8150 7618
L8178 7534
" />
<path d="M8150 7337
L8740 7196
L8318 7084
L8740 6971
L8150 6831
" />
</g>
<g style="fill:#000000; fill-opacity:0.0; 
stroke:#000000; stroke-width:98.4252; stroke-opacity:1; 
stroke-linecap:round; stroke-linejoin:round;">
<path d="M3310 6321
L3329 6302
L3366 6283
L3460 6283
L3497 6302
L3516 6321
L3535 6358
L3535 6396
L3516 6452
L3291 6677
L3535 6677
" />
<path d="M3760 6452
L3722 6433
L3704 6414
L3685 6377
L3685 6358
L3704 6321
L3722 6302
L3760 6283
L3835 6283
L3872 6302
L3891 6321
L3910 6358
L3910 6377
L3891 6414
L3872 6433
L3835 6452
L3760 6452
L3722 6471
L3704 6489
L3685 6527
L3685 6602
L3704 6639
L3722 6658
L3760 6677
L3835 6677
L3872 6658
L3891 6639
L3910 6602
L3910 6527
L3891 6489
L3872 6471
L3835 6452
" />
<path d="M4285 6677
L4060 6677
" />
<path d="M4172 6677
L4172 6283
L4135 6339
L4097 6377
L4060 6396
" />
<path d="M4435 6321
L4453 6302
L4491 6283
L4585 6283
L4622 6302
L4641 6321
L4660 6358
L4660 6396
L4641 6452
L4416 6677
L4660 6677
" />
<path d="M7536 5565
L7592 5584
L7611 5603
L7629 5640
L7629 5696
L7611 5734
L7592 5753
L7554 5771
L7404 5771
L7404 5378
L7536 5378
L7573 5396
L7592 5415
L7611 5453
L7611 5490
L7592 5528
L7573 5546
L7536 5565
L7404 5565
" />
<path d="M7798 5378
L7798 5696
L7817 5734
L7836 5753
L7873 5771
L7948 5771
L7986 5753
L8004 5734
L8023 5696
L8023 5378
" />
<path d="M8342 5565
L8211 5565
" />
<path d="M8211 5771
L8211 5378
L8398 5378
" />
<path d="M5936 4866
L5805 4678
" />
<path d="M5711 4866
L5711 4472
L5861 4472
L5899 4491
L5918 4510
L5936 4547
L5936 4603
L5918 4641
L5899 4660
L5861 4678
L5711 4678
" />
<path d="M6105 4660
L6236 4660
" />
<path d="M6293 4866
L6105 4866
L6105 4472
L6293 4472
" />
<path d="M6668 4491
L6630 4472
L6574 4472
L6518 4491
L6480 4528
L6461 4566
L6443 4641
L6443 4697
L6461 4772
L6480 4810
L6518 4847
L6574 4866
L6611 4866
L6668 4847
L6686 4828
L6686 4697
L6611 4697
" />
</g>
<g style="fill:#000000; fill-opacity:0.0; 
stroke:#000000; stroke-width:39.3701; stroke-opacity:1; 
stroke-linecap:round; stroke-linejoin:round;">
<path d="M8394 8861
L8394 9019
" />
<path d="M8414 8940
L8532 8861
" />
<path d="M8532 9019
L8414 8940
" />
<path d="M8532 8861
L8532 9019
" />
<path d="M8788 9097
L8158 9097
" />
<path d="M8788 8782
L8788 9097
" />
<path d="M8158 8782
L8788 8782
" />
<path d="M8158 9097
L8158 8782
" />
<path d="M3001 4491
L3001 3861
" />
<path d="M3001 3861
L3315 3861
" />
<path d="M3315 3861
L3315 4491
" />
<path d="M3315 4491
L3001 4491
" />
<path d="M3552 4491
L3552 3861
" />
<path d="M3552 3861
L3867 3861
" />
<path d="M3867 3861
L3867 4491
" />
<path d="M3867 4491
L3552 4491
" />
<path d="M4583 4570
L4095 4570
" />
<path d="M4583 3782
L4583 4570
" />
<path d="M4095 3782
L4583 3782
" />
<path d="M4095 4570
L4095 3782
" />
<path d="M2069 12550
L1319 12550
" />
<path d="M1319 12550
L1319 2550
" />
<path d="M1319 2550
L2319 2550
" />
<path d="M2319 2550
L2319 12300
" />
<path d="M2319 12300
L2069 12550
" />
<path d="M10069 12550
L9319 12550
" />
<path d="M9319 12550
L9319 2550
" />
<path d="M9319 2550
L10319 2550
" />
<path d="M10319 2550
L10319 12300
" />
<path d="M10319 12300
L10069 12550
" />
<path d="M7115 2182
L7115 1432
" />
<path d="M7115 1432
L10115 1432
" />
<path d="M10115 1432
L10115 2432
" />
<path d="M10115 2432
L7365 2432
" />
<path d="M7365 2432
L7115 2182
" />
<path d="M7902 14162
L7902 14912
" />
<path d="M7902 14912
L3902 14912
" />
<path d="M3902 14912
L3902 13912
" />
<path d="M3902 13912
L7652 13912
" />
<path d="M7652 13912
L7902 14162
" />
<path d="M8808 9333
L8808 9648
" />
<path d="M8178 9333
L8808 9333
" />
<path d="M8178 9648
L8178 9333
" />
<path d="M8808 9648
L8178 9648
" />
<path d="M8001 5859
L8001 5524
" />
<path d="M7804 5328
L7134 5328
" />
<path d="M8001 5859
L7134 5859
" />
<path d="M7134 5859
L7134 5328
" />
<path d="M8001 5524
L7804 5328
" />
<path d="M2646 11578
L2961 11578
" />
<path d="M2646 12208
L2646 11578
" />
<path d="M2961 12208
L2646 12208
" />
<path d="M2961 11578
L2961 12208
" />
<path d="M3237 11578
L3552 11578
" />
<path d="M3237 12208
L3237 11578
" />
<path d="M3552 12208
L3237 12208
" />
<path d="M3552 11578
L3552 12208
" />
<path d="M8308 12654
L8308 11904
" />
<path d="M8308 11904
L9308 11904
" />
<path d="M9308 11904
L9308 12904
" />
<path d="M9308 12904
L8558 12904
" />
<path d="M8558 12904
L8308 12654
" />
<path d="M2843 7444
L3158 7444
" />
<path d="M3158 7444
L3158 8074
" />
<path d="M3158 8074
L2843 8074
" />
<path d="M2843 8074
L2843 7444
" />
<path d="M6623 11932
L7252 11932
" />
<path d="M6623 12247
L6623 11932
" />
<path d="M7252 12247
L6623 12247
" />
<path d="M7252 11932
L7252 12247
" />
<g >
</g>
<g >
</g>
<g >
</g>
<g >
</g>
<g >
</g>
<g >
</g>
<g >
</g>
<g >
</g>
<g >
</g>
<g >
</g>
<g >
</g>
<g >
</g>
<g >
</g>
<g >
</g>
<g >
</g>
<g >
</g>
<g >
</g>
<g >
</g>
<g >
</g>
<g >
</g>
<g >
</g>
<g >
</g>
<g >
</g>
<g >
</g>
</g>
<g style="fill:#000000; fill-opacity:0.0; 
stroke:#000000; stroke-width:59.0551; stroke-opacity:1; 
stroke-linecap:round; stroke-linejoin:round;">
<path d="M8220 8685
L8032 8685
L8032 8291
" />
<path d="M8351 8479
L8482 8479
" />
<path d="M8539 8685
L8351 8685
L8351 8291
L8539 8291
" />
<path d="M8707 8685
L8707 8291
L8801 8291
L8857 8310
L8895 8347
L8914 8385
L8932 8460
L8932 8516
L8914 8591
L8895 8629
L8857 8666
L8801 8685
L8707 8685
" />
<path d="M2824 4410
L2824 4635
" />
<path d="M2824 4523
L2431 4523
L2487 4560
L2524 4598
L2543 4635
" />
<path d="M2562 4073
L2824 4073
" />
<path d="M2562 4242
L2768 4242
L2806 4223
L2824 4185
L2824 4129
L2806 4092
L2787 4073
" />
<path d="M2618 3754
L2618 3885
" />
<path d="M2824 3885
L2431 3885
L2431 3698
" />
</g>
<g style="fill:#000000; fill-opacity:0.0; 
stroke:#000000; stroke-width:29.5276; stroke-opacity:1; 
stroke-linecap:round; stroke-linejoin:round;">
<path d="M3200 4196
L3206 4201
L3211 4218
L3211 4229
L3206 4246
L3195 4258
L3183 4263
L3161 4269
L3144 4269
L3121 4263
L3110 4258
L3099 4246
L3093 4229
L3093 4218
L3099 4201
L3105 4196
" />
<path d="M3211 4083
L3211 4151
" />
<path d="M3211 4117
L3093 4117
L3110 4128
L3121 4139
L3127 4151
" />
</g>
<g style="fill:#000000; fill-opacity:0.0; 
stroke:#000000; stroke-width:59.0551; stroke-opacity:1; 
stroke-linecap:round; stroke-linejoin:round;">
<path d="M4045 5513
L4045 5738
" />
<path d="M4045 5625
L3651 5625
L3707 5663
L3745 5700
L3764 5738
" />
<path d="M3782 5175
L4045 5175
" />
<path d="M3782 5344
L3989 5344
L4026 5325
L4045 5288
L4045 5232
L4026 5194
L4007 5175
" />
<path d="M3839 4857
L3839 4988
" />
<path d="M4045 4988
L3651 4988
L3651 4800
" />
</g>
<g style="fill:#000000; fill-opacity:0.0; 
stroke:#000000; stroke-width:29.5276; stroke-opacity:1; 
stroke-linecap:round; stroke-linejoin:round;">
<path d="M3751 4196
L3757 4201
L3763 4218
L3763 4229
L3757 4246
L3746 4258
L3735 4263
L3712 4269
L3695 4269
L3673 4263
L3661 4258
L3650 4246
L3645 4229
L3645 4218
L3650 4201
L3656 4196
" />
<path d="M3656 4151
L3650 4145
L3645 4134
L3645 4106
L3650 4094
L3656 4089
L3667 4083
L3678 4083
L3695 4089
L3763 4156
L3763 4083
" />
</g>
<g style="fill:#000000; fill-opacity:0.0; 
stroke:#000000; stroke-width:59.0551; stroke-opacity:1; 
stroke-linecap:round; stroke-linejoin:round;">
<path d="M5206 4598
L5206 4823
" />
<path d="M5206 4710
L4812 4710
L4869 4748
L4906 4785
L4925 4823
" />
<path d="M4812 4354
L4812 4317
L4831 4279
L4850 4260
L4887 4242
L4962 4223
L5056 4223
L5131 4242
L5169 4260
L5187 4279
L5206 4317
L5206 4354
L5187 4392
L5169 4410
L5131 4429
L5056 4448
L4962 4448
L4887 4429
L4850 4410
L4831 4392
L4812 4354
" />
<path d="M4944 3885
L5206 3885
" />
<path d="M4944 4054
L5150 4054
L5187 4035
L5206 3998
L5206 3942
L5187 3904
L5169 3885
" />
<path d="M5000 3567
L5000 3698
" />
<path d="M5206 3698
L4812 3698
L4812 3510
" />
<path d="M8426 10220
L8201 10220
" />
<path d="M8314 10220
L8314 9827
L8276 9883
L8239 9920
L8201 9939
" />
<path d="M8595 10220
L8595 9827
" />
<path d="M8632 10070
L8745 10220
" />
<path d="M8745 9958
L8595 10108
" />
</g>
<g style="fill:#000000; fill-opacity:0.0; 
stroke:#000000; stroke-width:29.5276; stroke-opacity:1; 
stroke-linecap:round; stroke-linejoin:round;">
<path d="M8466 9562
L8414 9487
" />
<path d="M8376 9562
L8376 9405
L8436 9405
L8451 9412
L8459 9420
L8466 9435
L8466 9457
L8459 9472
L8451 9480
L8436 9487
L8376 9487
" />
<path d="M8526 9420
L8534 9412
L8549 9405
L8586 9405
L8601 9412
L8609 9420
L8616 9435
L8616 9450
L8609 9472
L8519 9562
L8616 9562
" />
<path d="M7417 5486
L7417 5645
L7427 5664
L7436 5673
L7455 5682
L7492 5682
L7511 5673
L7521 5664
L7530 5645
L7530 5486
" />
<path d="M7708 5551
L7708 5682
" />
<path d="M7661 5476
L7614 5617
L7736 5617
" />
</g>
<g style="fill:#000000; fill-opacity:0.0; 
stroke:#000000; stroke-width:59.0551; stroke-opacity:1; 
stroke-linecap:round; stroke-linejoin:round;">
<path d="M2719 11180
L2982 11180
" />
<path d="M2569 11274
L2851 11368
L2851 11124
" />
<path d="M2982 10974
L2588 10974
" />
<path d="M2832 10936
L2982 10824
" />
<path d="M2719 10824
L2869 10974
" />
<path d="M2588 10693
L2588 10430
L2982 10599
" />
</g>
<g style="fill:#000000; fill-opacity:0.0; 
stroke:#000000; stroke-width:29.5276; stroke-opacity:1; 
stroke-linecap:round; stroke-linejoin:round;">
<path d="M2875 11919
L2800 11971
" />
<path d="M2875 12009
L2717 12009
L2717 11949
L2725 11934
L2732 11926
L2747 11919
L2770 11919
L2785 11926
L2792 11934
L2800 11949
L2800 12009
" />
<path d="M2875 11769
L2875 11859
" />
<path d="M2875 11814
L2717 11814
L2740 11829
L2755 11844
L2762 11859
" />
</g>
<g style="fill:#000000; fill-opacity:0.0; 
stroke:#000000; stroke-width:59.0551; stroke-opacity:1; 
stroke-linecap:round; stroke-linejoin:round;">
<path d="M3349 11180
L3612 11180
" />
<path d="M3199 11274
L3480 11368
L3480 11124
" />
<path d="M3612 10974
L3218 10974
" />
<path d="M3462 10936
L3612 10824
" />
<path d="M3349 10824
L3499 10974
" />
<path d="M3218 10693
L3218 10430
L3612 10599
" />
</g>
<g style="fill:#000000; fill-opacity:0.0; 
stroke:#000000; stroke-width:29.5276; stroke-opacity:1; 
stroke-linecap:round; stroke-linejoin:round;">
<path d="M3465 11919
L3390 11971
" />
<path d="M3465 12009
L3308 12009
L3308 11949
L3315 11934
L3323 11926
L3338 11919
L3360 11919
L3375 11926
L3383 11934
L3390 11949
L3390 12009
" />
<path d="M3308 11866
L3308 11769
L3368 11821
L3368 11799
L3375 11784
L3383 11776
L3398 11769
L3435 11769
L3450 11776
L3458 11784
L3465 11799
L3465 11844
L3458 11859
L3450 11866
" />
</g>
<g style="fill:#000000; fill-opacity:0.0; 
stroke:#000000; stroke-width:59.0551; stroke-opacity:1; 
stroke-linecap:round; stroke-linejoin:round;">
<path d="M8145 13570
L8145 13383
" />
<path d="M8257 13608
L7864 13477
L8257 13345
" />
<path d="M7995 13214
L8257 13214
" />
<path d="M8032 13214
L8014 13196
L7995 13158
L7995 13102
L8014 13064
L8051 13046
L8257 13046
" />
<path d="M7995 12914
L7995 12764
" />
<path d="M7864 12858
L8201 12858
L8239 12839
L8257 12802
L8257 12764
" />
<path d="M8239 12483
L8257 12521
L8257 12596
L8239 12633
L8201 12652
L8051 12652
L8014 12633
L7995 12596
L7995 12521
L8014 12483
L8051 12464
L8089 12464
L8126 12652
" />
<path d="M7995 12296
L8257 12296
" />
<path d="M8032 12296
L8014 12277
L7995 12239
L7995 12183
L8014 12146
L8051 12127
L8257 12127
" />
<path d="M7995 11939
L8257 11939
" />
<path d="M8032 11939
L8014 11921
L7995 11883
L7995 11827
L8014 11789
L8051 11771
L8257 11771
" />
<path d="M8257 11414
L8051 11414
L8014 11433
L7995 11471
L7995 11546
L8014 11583
" />
<path d="M8239 11414
L8257 11452
L8257 11546
L8239 11583
L8201 11602
L8164 11602
L8126 11583
L8107 11546
L8107 11452
L8089 11414
" />
<path d="M8348 12470
L8536 12470
" />
<path d="M8311 12582
L8442 12189
L8573 12582
" />
<path d="M8705 12376
L8836 12376
" />
<path d="M8892 12582
L8705 12582
L8705 12189
L8892 12189
" />
<path d="M9267 12582
L9042 12582
" />
<path d="M9154 12582
L9154 12189
L9117 12245
L9079 12282
L9042 12301
" />
<path d="M2616 7993
L2616 8218
" />
<path d="M2616 8106
L2222 8106
L2278 8143
L2316 8181
L2334 8218
" />
<path d="M2353 7656
L2616 7656
" />
<path d="M2353 7824
L2559 7824
L2597 7806
L2616 7768
L2616 7712
L2597 7674
L2578 7656
" />
<path d="M2409 7337
L2409 7468
" />
<path d="M2616 7468
L2222 7468
L2222 7281
" />
</g>
<g style="fill:#000000; fill-opacity:0.0; 
stroke:#000000; stroke-width:23.622; stroke-opacity:1; 
stroke-linecap:round; stroke-linejoin:round;">
<path d="M3057 7785
L3064 7792
L3072 7815
L3072 7830
L3064 7852
L3049 7867
L3034 7875
L3004 7882
L2982 7882
L2952 7875
L2937 7867
L2922 7852
L2914 7830
L2914 7815
L2922 7792
L2929 7785
" />
<path d="M2967 7650
L3072 7650
" />
<path d="M2907 7687
L3019 7725
L3019 7627
" />
</g>
<g style="fill:#000000; fill-opacity:0.0; 
stroke:#000000; stroke-width:59.0551; stroke-opacity:1; 
stroke-linecap:round; stroke-linejoin:round;">
<path d="M6703 11705
L6478 11705
" />
<path d="M6591 11705
L6591 11311
L6553 11367
L6516 11405
L6478 11423
" />
<path d="M7041 11442
L7041 11705
" />
<path d="M6872 11442
L6872 11648
L6891 11686
L6928 11705
L6984 11705
L7022 11686
L7041 11667
" />
<path d="M7359 11498
L7228 11498
" />
<path d="M7228 11705
L7228 11311
L7416 11311
" />
</g>
<g style="fill:#000000; fill-opacity:0.0; 
stroke:#000000; stroke-width:23.622; stroke-opacity:1; 
stroke-linecap:round; stroke-linejoin:round;">
<path d="M6911 12146
L6904 12153
L6881 12161
L6866 12161
L6844 12153
L6829 12138
L6821 12123
L6814 12093
L6814 12071
L6821 12041
L6829 12026
L6844 12011
L6866 12003
L6881 12003
L6904 12011
L6911 12018
" />
<path d="M7054 12003
L6979 12003
L6971 12078
L6979 12071
L6994 12063
L7031 12063
L7046 12071
L7054 12078
L7061 12093
L7061 12131
L7054 12146
L7046 12153
L7031 12161
L6994 12161
L6979 12153
L6971 12146
" />
<g >
</g>
</g>
<g style="fill:#C2C200; fill-opacity:0.0; 
stroke:#C2C200; stroke-width:23.622; stroke-opacity:1; 
stroke-linecap:round; stroke-linejoin:round;">
</g>
<g style="fill:#C2C200; fill-opacity:0.0; 
stroke:#C2C200; stroke-width:59.0551; stroke-opacity:1; 
stroke-linecap:round; stroke-linejoin:round;">
<path d="M1229 15082
L1229 1302
" />
<path d="M10441 15082
L1229 15082
" />
<path d="M10441 1302
L10441 15082
" />
<path d="M1229 1302
L10441 1302
" />
<g >
</g>
<g >
</g>
<g >
</g>
<g >
</g>
<g >
</g>
<g >
</g>
<g >
</g>
<g >
</g>
<g >
</g>
<g >
</g>
<g >
</g>
<g >
</g>
<g >
</g>
<g >
</g>
<g >
</g>
<g >
</g>
<g >
</g>
<g >
</g>
<g >
</g>
<g >
</g>
<g >
</g>
<g >
</g>
<g >
</g>
<g >
</g>
<g >
</g>
</g> 
</svg>
