G04 #@! TF.FileFunction,Copper,L1,Top,Signal*
%FSLAX46Y46*%
G04 Gerber Fmt 4.6, Leading zero omitted, Abs format (unit mm)*
G04 Created by KiCad (PCBNEW 4.0.7-e2-6376~61~ubuntu18.04.1) date Tue Jul 31 19:09:39 2018*
%MOMM*%
%LPD*%
G01*
G04 APERTURE LIST*
%ADD10C,0.100000*%
%ADD11R,1.300000X1.600000*%
%ADD12C,1.397000*%
%ADD13C,4.318000*%
%ADD14C,1.879600*%
%ADD15C,1.408000*%
%ADD16C,1.800000*%
%ADD17C,0.600000*%
%ADD18C,0.250000*%
%ADD19C,0.254000*%
G04 APERTURE END LIST*
D10*
D11*
X101440000Y-72025000D03*
X101440000Y-79975000D03*
X96940000Y-72025000D03*
X96940000Y-79975000D03*
D12*
X87833200Y-64262000D03*
D13*
X113233200Y-65278000D03*
D14*
X93599000Y-86995000D03*
X96139000Y-86995000D03*
X98679000Y-86995000D03*
X101219000Y-86995000D03*
X80518000Y-64516000D03*
D13*
X113233200Y-87122000D03*
D12*
X87884000Y-88138000D03*
D15*
X98592000Y-68232000D03*
X103592000Y-68232000D03*
D16*
X97592000Y-65532000D03*
X104592000Y-65532000D03*
D11*
X83406000Y-72228000D03*
X83406000Y-80178000D03*
X78906000Y-72228000D03*
X78906000Y-80178000D03*
X92423000Y-72025000D03*
X92423000Y-79975000D03*
X87923000Y-72025000D03*
X87923000Y-79975000D03*
X110457000Y-72025000D03*
X110457000Y-79975000D03*
X105957000Y-72025000D03*
X105957000Y-79975000D03*
D17*
X102997000Y-85725000D03*
X81788000Y-87376000D03*
X84963000Y-64643000D03*
X116840000Y-77470000D03*
X116840000Y-75946000D03*
X116840000Y-74422000D03*
X116840000Y-73025000D03*
X83439000Y-65786000D03*
X106934000Y-67818000D03*
X109855000Y-84836000D03*
X110617000Y-83058000D03*
X104648000Y-70231000D03*
X106426000Y-74295000D03*
X94742000Y-71628000D03*
X94615000Y-76708000D03*
X107061000Y-84201000D03*
X95885000Y-83820000D03*
X108077000Y-81153000D03*
X103124000Y-71882000D03*
X108966000Y-82296000D03*
X104013000Y-72771000D03*
D18*
X116840000Y-75946000D02*
X116840000Y-77470000D01*
X116840000Y-73025000D02*
X116840000Y-74422000D01*
X92456000Y-65786000D02*
X83439000Y-65786000D01*
X93853000Y-67183000D02*
X92456000Y-65786000D01*
X93853000Y-68580000D02*
X93853000Y-67183000D01*
X94869000Y-69596000D02*
X93853000Y-68580000D01*
X105156000Y-69596000D02*
X94869000Y-69596000D01*
X106934000Y-67818000D02*
X105156000Y-69596000D01*
X83406000Y-82898000D02*
X83406000Y-80178000D01*
X85344000Y-84836000D02*
X83406000Y-82898000D01*
X109855000Y-84836000D02*
X85344000Y-84836000D01*
X83406000Y-80178000D02*
X83406000Y-72228000D01*
X92423000Y-82009000D02*
X92423000Y-79975000D01*
X93472000Y-83058000D02*
X92423000Y-82009000D01*
X110617000Y-83058000D02*
X93472000Y-83058000D01*
X92423000Y-79975000D02*
X92423000Y-72025000D01*
X101440000Y-70772000D02*
X101440000Y-72025000D01*
X101981000Y-70231000D02*
X101440000Y-70772000D01*
X104648000Y-70231000D02*
X101981000Y-70231000D01*
X101440000Y-79975000D02*
X101440000Y-72025000D01*
X108696000Y-72025000D02*
X110457000Y-72025000D01*
X106426000Y-74295000D02*
X108696000Y-72025000D01*
X110457000Y-79975000D02*
X110457000Y-72025000D01*
X94742000Y-73533000D02*
X94742000Y-71628000D01*
X94615000Y-73660000D02*
X94742000Y-73533000D01*
X94615000Y-76708000D02*
X94615000Y-73660000D01*
X106553000Y-83820000D02*
X106172000Y-83820000D01*
X107061000Y-84201000D02*
X106680000Y-83820000D01*
X106680000Y-83820000D02*
X106553000Y-83820000D01*
X106553000Y-83820000D02*
X106426000Y-83820000D01*
X95885000Y-83820000D02*
X106172000Y-83820000D01*
X106172000Y-83820000D02*
X106299000Y-83820000D01*
X108077000Y-77343000D02*
X108077000Y-81153000D01*
X106680000Y-75946000D02*
X108077000Y-77343000D01*
X104902000Y-75946000D02*
X106680000Y-75946000D01*
X103124000Y-74168000D02*
X104902000Y-75946000D01*
X103124000Y-71882000D02*
X103124000Y-74168000D01*
X108966000Y-77089000D02*
X108966000Y-82296000D01*
X107061000Y-75184000D02*
X108966000Y-77089000D01*
X105156000Y-75184000D02*
X107061000Y-75184000D01*
X104013000Y-74041000D02*
X105156000Y-75184000D01*
X104013000Y-72771000D02*
X104013000Y-74041000D01*
D19*
G36*
X86499932Y-63995587D02*
X86499469Y-64526086D01*
X86702054Y-65016380D01*
X86711657Y-65026000D01*
X84001463Y-65026000D01*
X83969327Y-64993808D01*
X83625799Y-64851162D01*
X83253833Y-64850838D01*
X82910057Y-64992883D01*
X82646808Y-65255673D01*
X82504162Y-65599201D01*
X82503838Y-65971167D01*
X82645883Y-66314943D01*
X82908673Y-66578192D01*
X83252201Y-66720838D01*
X83624167Y-66721162D01*
X83967943Y-66579117D01*
X84001118Y-66546000D01*
X92141198Y-66546000D01*
X93093000Y-67497802D01*
X93093000Y-68580000D01*
X93150852Y-68870839D01*
X93315599Y-69117401D01*
X94331599Y-70133401D01*
X94578161Y-70298148D01*
X94869000Y-70356000D01*
X100821482Y-70356000D01*
X100737852Y-70481161D01*
X100715904Y-70591502D01*
X100554683Y-70621838D01*
X100338559Y-70760910D01*
X100193569Y-70973110D01*
X100142560Y-71225000D01*
X100142560Y-72825000D01*
X100186838Y-73060317D01*
X100325910Y-73276441D01*
X100538110Y-73421431D01*
X100680000Y-73450164D01*
X100680000Y-78548258D01*
X100554683Y-78571838D01*
X100338559Y-78710910D01*
X100193569Y-78923110D01*
X100142560Y-79175000D01*
X100142560Y-80775000D01*
X100186838Y-81010317D01*
X100325910Y-81226441D01*
X100538110Y-81371431D01*
X100790000Y-81422440D01*
X102090000Y-81422440D01*
X102325317Y-81378162D01*
X102541441Y-81239090D01*
X102686431Y-81026890D01*
X102737440Y-80775000D01*
X102737440Y-80260750D01*
X104672000Y-80260750D01*
X104672000Y-80901309D01*
X104768673Y-81134698D01*
X104947301Y-81313327D01*
X105180690Y-81410000D01*
X105671250Y-81410000D01*
X105830000Y-81251250D01*
X105830000Y-80102000D01*
X104830750Y-80102000D01*
X104672000Y-80260750D01*
X102737440Y-80260750D01*
X102737440Y-79175000D01*
X102713674Y-79048691D01*
X104672000Y-79048691D01*
X104672000Y-79689250D01*
X104830750Y-79848000D01*
X105830000Y-79848000D01*
X105830000Y-78698750D01*
X106084000Y-78698750D01*
X106084000Y-79848000D01*
X107083250Y-79848000D01*
X107242000Y-79689250D01*
X107242000Y-79048691D01*
X107145327Y-78815302D01*
X106966699Y-78636673D01*
X106733310Y-78540000D01*
X106242750Y-78540000D01*
X106084000Y-78698750D01*
X105830000Y-78698750D01*
X105671250Y-78540000D01*
X105180690Y-78540000D01*
X104947301Y-78636673D01*
X104768673Y-78815302D01*
X104672000Y-79048691D01*
X102713674Y-79048691D01*
X102693162Y-78939683D01*
X102554090Y-78723559D01*
X102341890Y-78578569D01*
X102200000Y-78549836D01*
X102200000Y-73451742D01*
X102325317Y-73428162D01*
X102364000Y-73403270D01*
X102364000Y-74168000D01*
X102421852Y-74458839D01*
X102586599Y-74705401D01*
X104364599Y-76483401D01*
X104611161Y-76648148D01*
X104902000Y-76706000D01*
X106365198Y-76706000D01*
X107317000Y-77657802D01*
X107317000Y-80590537D01*
X107284808Y-80622673D01*
X107242000Y-80725766D01*
X107242000Y-80260750D01*
X107083250Y-80102000D01*
X106084000Y-80102000D01*
X106084000Y-81251250D01*
X106242750Y-81410000D01*
X106733310Y-81410000D01*
X106966699Y-81313327D01*
X107142012Y-81138013D01*
X107141838Y-81338167D01*
X107283883Y-81681943D01*
X107546673Y-81945192D01*
X107890201Y-82087838D01*
X108039979Y-82087968D01*
X108031162Y-82109201D01*
X108030998Y-82298000D01*
X93786802Y-82298000D01*
X93183000Y-81694198D01*
X93183000Y-81401742D01*
X93308317Y-81378162D01*
X93524441Y-81239090D01*
X93669431Y-81026890D01*
X93720440Y-80775000D01*
X93720440Y-80260750D01*
X95655000Y-80260750D01*
X95655000Y-80901309D01*
X95751673Y-81134698D01*
X95930301Y-81313327D01*
X96163690Y-81410000D01*
X96654250Y-81410000D01*
X96813000Y-81251250D01*
X96813000Y-80102000D01*
X97067000Y-80102000D01*
X97067000Y-81251250D01*
X97225750Y-81410000D01*
X97716310Y-81410000D01*
X97949699Y-81313327D01*
X98128327Y-81134698D01*
X98225000Y-80901309D01*
X98225000Y-80260750D01*
X98066250Y-80102000D01*
X97067000Y-80102000D01*
X96813000Y-80102000D01*
X95813750Y-80102000D01*
X95655000Y-80260750D01*
X93720440Y-80260750D01*
X93720440Y-79175000D01*
X93696674Y-79048691D01*
X95655000Y-79048691D01*
X95655000Y-79689250D01*
X95813750Y-79848000D01*
X96813000Y-79848000D01*
X96813000Y-78698750D01*
X97067000Y-78698750D01*
X97067000Y-79848000D01*
X98066250Y-79848000D01*
X98225000Y-79689250D01*
X98225000Y-79048691D01*
X98128327Y-78815302D01*
X97949699Y-78636673D01*
X97716310Y-78540000D01*
X97225750Y-78540000D01*
X97067000Y-78698750D01*
X96813000Y-78698750D01*
X96654250Y-78540000D01*
X96163690Y-78540000D01*
X95930301Y-78636673D01*
X95751673Y-78815302D01*
X95655000Y-79048691D01*
X93696674Y-79048691D01*
X93676162Y-78939683D01*
X93537090Y-78723559D01*
X93324890Y-78578569D01*
X93183000Y-78549836D01*
X93183000Y-76893167D01*
X93679838Y-76893167D01*
X93821883Y-77236943D01*
X94084673Y-77500192D01*
X94428201Y-77642838D01*
X94800167Y-77643162D01*
X95143943Y-77501117D01*
X95407192Y-77238327D01*
X95549838Y-76894799D01*
X95550162Y-76522833D01*
X95408117Y-76179057D01*
X95375000Y-76145882D01*
X95375000Y-73927327D01*
X95444148Y-73823839D01*
X95502000Y-73533000D01*
X95502000Y-72310750D01*
X95655000Y-72310750D01*
X95655000Y-72951309D01*
X95751673Y-73184698D01*
X95930301Y-73363327D01*
X96163690Y-73460000D01*
X96654250Y-73460000D01*
X96813000Y-73301250D01*
X96813000Y-72152000D01*
X97067000Y-72152000D01*
X97067000Y-73301250D01*
X97225750Y-73460000D01*
X97716310Y-73460000D01*
X97949699Y-73363327D01*
X98128327Y-73184698D01*
X98225000Y-72951309D01*
X98225000Y-72310750D01*
X98066250Y-72152000D01*
X97067000Y-72152000D01*
X96813000Y-72152000D01*
X95813750Y-72152000D01*
X95655000Y-72310750D01*
X95502000Y-72310750D01*
X95502000Y-72190463D01*
X95534192Y-72158327D01*
X95676838Y-71814799D01*
X95676885Y-71761135D01*
X95813750Y-71898000D01*
X96813000Y-71898000D01*
X96813000Y-70748750D01*
X97067000Y-70748750D01*
X97067000Y-71898000D01*
X98066250Y-71898000D01*
X98225000Y-71739250D01*
X98225000Y-71098691D01*
X98128327Y-70865302D01*
X97949699Y-70686673D01*
X97716310Y-70590000D01*
X97225750Y-70590000D01*
X97067000Y-70748750D01*
X96813000Y-70748750D01*
X96654250Y-70590000D01*
X96163690Y-70590000D01*
X95930301Y-70686673D01*
X95751673Y-70865302D01*
X95655000Y-71098691D01*
X95655000Y-71389197D01*
X95535117Y-71099057D01*
X95272327Y-70835808D01*
X94928799Y-70693162D01*
X94556833Y-70692838D01*
X94213057Y-70834883D01*
X93949808Y-71097673D01*
X93807162Y-71441201D01*
X93806838Y-71813167D01*
X93948883Y-72156943D01*
X93982000Y-72190118D01*
X93982000Y-73265673D01*
X93912852Y-73369161D01*
X93855000Y-73660000D01*
X93855000Y-76145537D01*
X93822808Y-76177673D01*
X93680162Y-76521201D01*
X93679838Y-76893167D01*
X93183000Y-76893167D01*
X93183000Y-73451742D01*
X93308317Y-73428162D01*
X93524441Y-73289090D01*
X93669431Y-73076890D01*
X93720440Y-72825000D01*
X93720440Y-71225000D01*
X93676162Y-70989683D01*
X93537090Y-70773559D01*
X93324890Y-70628569D01*
X93073000Y-70577560D01*
X91773000Y-70577560D01*
X91537683Y-70621838D01*
X91321559Y-70760910D01*
X91176569Y-70973110D01*
X91125560Y-71225000D01*
X91125560Y-72825000D01*
X91169838Y-73060317D01*
X91308910Y-73276441D01*
X91521110Y-73421431D01*
X91663000Y-73450164D01*
X91663000Y-78548258D01*
X91537683Y-78571838D01*
X91321559Y-78710910D01*
X91176569Y-78923110D01*
X91125560Y-79175000D01*
X91125560Y-80775000D01*
X91169838Y-81010317D01*
X91308910Y-81226441D01*
X91521110Y-81371431D01*
X91663000Y-81400164D01*
X91663000Y-82009000D01*
X91720852Y-82299839D01*
X91885599Y-82546401D01*
X92934599Y-83595401D01*
X93181161Y-83760148D01*
X93472000Y-83818000D01*
X94950001Y-83818000D01*
X94949838Y-84005167D01*
X94979106Y-84076000D01*
X85658802Y-84076000D01*
X84166000Y-82583198D01*
X84166000Y-81604742D01*
X84291317Y-81581162D01*
X84507441Y-81442090D01*
X84652431Y-81229890D01*
X84703440Y-80978000D01*
X84703440Y-80260750D01*
X86638000Y-80260750D01*
X86638000Y-80901309D01*
X86734673Y-81134698D01*
X86913301Y-81313327D01*
X87146690Y-81410000D01*
X87637250Y-81410000D01*
X87796000Y-81251250D01*
X87796000Y-80102000D01*
X88050000Y-80102000D01*
X88050000Y-81251250D01*
X88208750Y-81410000D01*
X88699310Y-81410000D01*
X88932699Y-81313327D01*
X89111327Y-81134698D01*
X89208000Y-80901309D01*
X89208000Y-80260750D01*
X89049250Y-80102000D01*
X88050000Y-80102000D01*
X87796000Y-80102000D01*
X86796750Y-80102000D01*
X86638000Y-80260750D01*
X84703440Y-80260750D01*
X84703440Y-79378000D01*
X84659162Y-79142683D01*
X84598680Y-79048691D01*
X86638000Y-79048691D01*
X86638000Y-79689250D01*
X86796750Y-79848000D01*
X87796000Y-79848000D01*
X87796000Y-78698750D01*
X88050000Y-78698750D01*
X88050000Y-79848000D01*
X89049250Y-79848000D01*
X89208000Y-79689250D01*
X89208000Y-79048691D01*
X89111327Y-78815302D01*
X88932699Y-78636673D01*
X88699310Y-78540000D01*
X88208750Y-78540000D01*
X88050000Y-78698750D01*
X87796000Y-78698750D01*
X87637250Y-78540000D01*
X87146690Y-78540000D01*
X86913301Y-78636673D01*
X86734673Y-78815302D01*
X86638000Y-79048691D01*
X84598680Y-79048691D01*
X84520090Y-78926559D01*
X84307890Y-78781569D01*
X84166000Y-78752836D01*
X84166000Y-73654742D01*
X84291317Y-73631162D01*
X84507441Y-73492090D01*
X84652431Y-73279890D01*
X84703440Y-73028000D01*
X84703440Y-72310750D01*
X86638000Y-72310750D01*
X86638000Y-72951309D01*
X86734673Y-73184698D01*
X86913301Y-73363327D01*
X87146690Y-73460000D01*
X87637250Y-73460000D01*
X87796000Y-73301250D01*
X87796000Y-72152000D01*
X88050000Y-72152000D01*
X88050000Y-73301250D01*
X88208750Y-73460000D01*
X88699310Y-73460000D01*
X88932699Y-73363327D01*
X89111327Y-73184698D01*
X89208000Y-72951309D01*
X89208000Y-72310750D01*
X89049250Y-72152000D01*
X88050000Y-72152000D01*
X87796000Y-72152000D01*
X86796750Y-72152000D01*
X86638000Y-72310750D01*
X84703440Y-72310750D01*
X84703440Y-71428000D01*
X84659162Y-71192683D01*
X84598680Y-71098691D01*
X86638000Y-71098691D01*
X86638000Y-71739250D01*
X86796750Y-71898000D01*
X87796000Y-71898000D01*
X87796000Y-70748750D01*
X88050000Y-70748750D01*
X88050000Y-71898000D01*
X89049250Y-71898000D01*
X89208000Y-71739250D01*
X89208000Y-71098691D01*
X89111327Y-70865302D01*
X88932699Y-70686673D01*
X88699310Y-70590000D01*
X88208750Y-70590000D01*
X88050000Y-70748750D01*
X87796000Y-70748750D01*
X87637250Y-70590000D01*
X87146690Y-70590000D01*
X86913301Y-70686673D01*
X86734673Y-70865302D01*
X86638000Y-71098691D01*
X84598680Y-71098691D01*
X84520090Y-70976559D01*
X84307890Y-70831569D01*
X84056000Y-70780560D01*
X82756000Y-70780560D01*
X82520683Y-70824838D01*
X82304559Y-70963910D01*
X82159569Y-71176110D01*
X82108560Y-71428000D01*
X82108560Y-73028000D01*
X82152838Y-73263317D01*
X82291910Y-73479441D01*
X82504110Y-73624431D01*
X82646000Y-73653164D01*
X82646000Y-78751258D01*
X82520683Y-78774838D01*
X82304559Y-78913910D01*
X82159569Y-79126110D01*
X82108560Y-79378000D01*
X82108560Y-80978000D01*
X82152838Y-81213317D01*
X82291910Y-81429441D01*
X82504110Y-81574431D01*
X82646000Y-81603164D01*
X82646000Y-82898000D01*
X82703852Y-83188839D01*
X82868599Y-83435401D01*
X84806599Y-85373401D01*
X85053161Y-85538148D01*
X85344000Y-85596000D01*
X92860998Y-85596000D01*
X92708113Y-85659171D01*
X92264728Y-86101783D01*
X92024474Y-86680379D01*
X92023927Y-87306873D01*
X92263171Y-87885887D01*
X92705783Y-88329272D01*
X93284379Y-88569526D01*
X93910873Y-88570073D01*
X94489887Y-88330829D01*
X94869273Y-87952104D01*
X95245783Y-88329272D01*
X95736457Y-88533018D01*
X90308822Y-88748400D01*
X89074432Y-88748400D01*
X89217268Y-88404413D01*
X89217731Y-87873914D01*
X89015146Y-87383620D01*
X88640353Y-87008173D01*
X88150413Y-86804732D01*
X87619914Y-86804269D01*
X87129620Y-87006854D01*
X86754173Y-87381647D01*
X86550732Y-87871587D01*
X86550269Y-88402086D01*
X86693363Y-88748400D01*
X79446607Y-88748400D01*
X76885000Y-82740266D01*
X76885000Y-80463750D01*
X77621000Y-80463750D01*
X77621000Y-81104309D01*
X77717673Y-81337698D01*
X77896301Y-81516327D01*
X78129690Y-81613000D01*
X78620250Y-81613000D01*
X78779000Y-81454250D01*
X78779000Y-80305000D01*
X79033000Y-80305000D01*
X79033000Y-81454250D01*
X79191750Y-81613000D01*
X79682310Y-81613000D01*
X79915699Y-81516327D01*
X80094327Y-81337698D01*
X80191000Y-81104309D01*
X80191000Y-80463750D01*
X80032250Y-80305000D01*
X79033000Y-80305000D01*
X78779000Y-80305000D01*
X77779750Y-80305000D01*
X77621000Y-80463750D01*
X76885000Y-80463750D01*
X76885000Y-79251691D01*
X77621000Y-79251691D01*
X77621000Y-79892250D01*
X77779750Y-80051000D01*
X78779000Y-80051000D01*
X78779000Y-78901750D01*
X79033000Y-78901750D01*
X79033000Y-80051000D01*
X80032250Y-80051000D01*
X80191000Y-79892250D01*
X80191000Y-79251691D01*
X80094327Y-79018302D01*
X79915699Y-78839673D01*
X79682310Y-78743000D01*
X79191750Y-78743000D01*
X79033000Y-78901750D01*
X78779000Y-78901750D01*
X78620250Y-78743000D01*
X78129690Y-78743000D01*
X77896301Y-78839673D01*
X77717673Y-79018302D01*
X77621000Y-79251691D01*
X76885000Y-79251691D01*
X76885000Y-72513750D01*
X77621000Y-72513750D01*
X77621000Y-73154309D01*
X77717673Y-73387698D01*
X77896301Y-73566327D01*
X78129690Y-73663000D01*
X78620250Y-73663000D01*
X78779000Y-73504250D01*
X78779000Y-72355000D01*
X79033000Y-72355000D01*
X79033000Y-73504250D01*
X79191750Y-73663000D01*
X79682310Y-73663000D01*
X79915699Y-73566327D01*
X80094327Y-73387698D01*
X80191000Y-73154309D01*
X80191000Y-72513750D01*
X80032250Y-72355000D01*
X79033000Y-72355000D01*
X78779000Y-72355000D01*
X77779750Y-72355000D01*
X77621000Y-72513750D01*
X76885000Y-72513750D01*
X76885000Y-71301691D01*
X77621000Y-71301691D01*
X77621000Y-71942250D01*
X77779750Y-72101000D01*
X78779000Y-72101000D01*
X78779000Y-70951750D01*
X79033000Y-70951750D01*
X79033000Y-72101000D01*
X80032250Y-72101000D01*
X80191000Y-71942250D01*
X80191000Y-71301691D01*
X80094327Y-71068302D01*
X79915699Y-70889673D01*
X79682310Y-70793000D01*
X79191750Y-70793000D01*
X79033000Y-70951750D01*
X78779000Y-70951750D01*
X78620250Y-70793000D01*
X78129690Y-70793000D01*
X77896301Y-70889673D01*
X77717673Y-71068302D01*
X77621000Y-71301691D01*
X76885000Y-71301691D01*
X76885000Y-69659734D01*
X78943994Y-64830455D01*
X79182171Y-65406887D01*
X79624783Y-65850272D01*
X80203379Y-66090526D01*
X80829873Y-66091073D01*
X81408887Y-65851829D01*
X81852272Y-65409217D01*
X82092526Y-64830621D01*
X82093073Y-64204127D01*
X81864773Y-63651600D01*
X86642768Y-63651600D01*
X86499932Y-63995587D01*
X86499932Y-63995587D01*
G37*
X86499932Y-63995587D02*
X86499469Y-64526086D01*
X86702054Y-65016380D01*
X86711657Y-65026000D01*
X84001463Y-65026000D01*
X83969327Y-64993808D01*
X83625799Y-64851162D01*
X83253833Y-64850838D01*
X82910057Y-64992883D01*
X82646808Y-65255673D01*
X82504162Y-65599201D01*
X82503838Y-65971167D01*
X82645883Y-66314943D01*
X82908673Y-66578192D01*
X83252201Y-66720838D01*
X83624167Y-66721162D01*
X83967943Y-66579117D01*
X84001118Y-66546000D01*
X92141198Y-66546000D01*
X93093000Y-67497802D01*
X93093000Y-68580000D01*
X93150852Y-68870839D01*
X93315599Y-69117401D01*
X94331599Y-70133401D01*
X94578161Y-70298148D01*
X94869000Y-70356000D01*
X100821482Y-70356000D01*
X100737852Y-70481161D01*
X100715904Y-70591502D01*
X100554683Y-70621838D01*
X100338559Y-70760910D01*
X100193569Y-70973110D01*
X100142560Y-71225000D01*
X100142560Y-72825000D01*
X100186838Y-73060317D01*
X100325910Y-73276441D01*
X100538110Y-73421431D01*
X100680000Y-73450164D01*
X100680000Y-78548258D01*
X100554683Y-78571838D01*
X100338559Y-78710910D01*
X100193569Y-78923110D01*
X100142560Y-79175000D01*
X100142560Y-80775000D01*
X100186838Y-81010317D01*
X100325910Y-81226441D01*
X100538110Y-81371431D01*
X100790000Y-81422440D01*
X102090000Y-81422440D01*
X102325317Y-81378162D01*
X102541441Y-81239090D01*
X102686431Y-81026890D01*
X102737440Y-80775000D01*
X102737440Y-80260750D01*
X104672000Y-80260750D01*
X104672000Y-80901309D01*
X104768673Y-81134698D01*
X104947301Y-81313327D01*
X105180690Y-81410000D01*
X105671250Y-81410000D01*
X105830000Y-81251250D01*
X105830000Y-80102000D01*
X104830750Y-80102000D01*
X104672000Y-80260750D01*
X102737440Y-80260750D01*
X102737440Y-79175000D01*
X102713674Y-79048691D01*
X104672000Y-79048691D01*
X104672000Y-79689250D01*
X104830750Y-79848000D01*
X105830000Y-79848000D01*
X105830000Y-78698750D01*
X106084000Y-78698750D01*
X106084000Y-79848000D01*
X107083250Y-79848000D01*
X107242000Y-79689250D01*
X107242000Y-79048691D01*
X107145327Y-78815302D01*
X106966699Y-78636673D01*
X106733310Y-78540000D01*
X106242750Y-78540000D01*
X106084000Y-78698750D01*
X105830000Y-78698750D01*
X105671250Y-78540000D01*
X105180690Y-78540000D01*
X104947301Y-78636673D01*
X104768673Y-78815302D01*
X104672000Y-79048691D01*
X102713674Y-79048691D01*
X102693162Y-78939683D01*
X102554090Y-78723559D01*
X102341890Y-78578569D01*
X102200000Y-78549836D01*
X102200000Y-73451742D01*
X102325317Y-73428162D01*
X102364000Y-73403270D01*
X102364000Y-74168000D01*
X102421852Y-74458839D01*
X102586599Y-74705401D01*
X104364599Y-76483401D01*
X104611161Y-76648148D01*
X104902000Y-76706000D01*
X106365198Y-76706000D01*
X107317000Y-77657802D01*
X107317000Y-80590537D01*
X107284808Y-80622673D01*
X107242000Y-80725766D01*
X107242000Y-80260750D01*
X107083250Y-80102000D01*
X106084000Y-80102000D01*
X106084000Y-81251250D01*
X106242750Y-81410000D01*
X106733310Y-81410000D01*
X106966699Y-81313327D01*
X107142012Y-81138013D01*
X107141838Y-81338167D01*
X107283883Y-81681943D01*
X107546673Y-81945192D01*
X107890201Y-82087838D01*
X108039979Y-82087968D01*
X108031162Y-82109201D01*
X108030998Y-82298000D01*
X93786802Y-82298000D01*
X93183000Y-81694198D01*
X93183000Y-81401742D01*
X93308317Y-81378162D01*
X93524441Y-81239090D01*
X93669431Y-81026890D01*
X93720440Y-80775000D01*
X93720440Y-80260750D01*
X95655000Y-80260750D01*
X95655000Y-80901309D01*
X95751673Y-81134698D01*
X95930301Y-81313327D01*
X96163690Y-81410000D01*
X96654250Y-81410000D01*
X96813000Y-81251250D01*
X96813000Y-80102000D01*
X97067000Y-80102000D01*
X97067000Y-81251250D01*
X97225750Y-81410000D01*
X97716310Y-81410000D01*
X97949699Y-81313327D01*
X98128327Y-81134698D01*
X98225000Y-80901309D01*
X98225000Y-80260750D01*
X98066250Y-80102000D01*
X97067000Y-80102000D01*
X96813000Y-80102000D01*
X95813750Y-80102000D01*
X95655000Y-80260750D01*
X93720440Y-80260750D01*
X93720440Y-79175000D01*
X93696674Y-79048691D01*
X95655000Y-79048691D01*
X95655000Y-79689250D01*
X95813750Y-79848000D01*
X96813000Y-79848000D01*
X96813000Y-78698750D01*
X97067000Y-78698750D01*
X97067000Y-79848000D01*
X98066250Y-79848000D01*
X98225000Y-79689250D01*
X98225000Y-79048691D01*
X98128327Y-78815302D01*
X97949699Y-78636673D01*
X97716310Y-78540000D01*
X97225750Y-78540000D01*
X97067000Y-78698750D01*
X96813000Y-78698750D01*
X96654250Y-78540000D01*
X96163690Y-78540000D01*
X95930301Y-78636673D01*
X95751673Y-78815302D01*
X95655000Y-79048691D01*
X93696674Y-79048691D01*
X93676162Y-78939683D01*
X93537090Y-78723559D01*
X93324890Y-78578569D01*
X93183000Y-78549836D01*
X93183000Y-76893167D01*
X93679838Y-76893167D01*
X93821883Y-77236943D01*
X94084673Y-77500192D01*
X94428201Y-77642838D01*
X94800167Y-77643162D01*
X95143943Y-77501117D01*
X95407192Y-77238327D01*
X95549838Y-76894799D01*
X95550162Y-76522833D01*
X95408117Y-76179057D01*
X95375000Y-76145882D01*
X95375000Y-73927327D01*
X95444148Y-73823839D01*
X95502000Y-73533000D01*
X95502000Y-72310750D01*
X95655000Y-72310750D01*
X95655000Y-72951309D01*
X95751673Y-73184698D01*
X95930301Y-73363327D01*
X96163690Y-73460000D01*
X96654250Y-73460000D01*
X96813000Y-73301250D01*
X96813000Y-72152000D01*
X97067000Y-72152000D01*
X97067000Y-73301250D01*
X97225750Y-73460000D01*
X97716310Y-73460000D01*
X97949699Y-73363327D01*
X98128327Y-73184698D01*
X98225000Y-72951309D01*
X98225000Y-72310750D01*
X98066250Y-72152000D01*
X97067000Y-72152000D01*
X96813000Y-72152000D01*
X95813750Y-72152000D01*
X95655000Y-72310750D01*
X95502000Y-72310750D01*
X95502000Y-72190463D01*
X95534192Y-72158327D01*
X95676838Y-71814799D01*
X95676885Y-71761135D01*
X95813750Y-71898000D01*
X96813000Y-71898000D01*
X96813000Y-70748750D01*
X97067000Y-70748750D01*
X97067000Y-71898000D01*
X98066250Y-71898000D01*
X98225000Y-71739250D01*
X98225000Y-71098691D01*
X98128327Y-70865302D01*
X97949699Y-70686673D01*
X97716310Y-70590000D01*
X97225750Y-70590000D01*
X97067000Y-70748750D01*
X96813000Y-70748750D01*
X96654250Y-70590000D01*
X96163690Y-70590000D01*
X95930301Y-70686673D01*
X95751673Y-70865302D01*
X95655000Y-71098691D01*
X95655000Y-71389197D01*
X95535117Y-71099057D01*
X95272327Y-70835808D01*
X94928799Y-70693162D01*
X94556833Y-70692838D01*
X94213057Y-70834883D01*
X93949808Y-71097673D01*
X93807162Y-71441201D01*
X93806838Y-71813167D01*
X93948883Y-72156943D01*
X93982000Y-72190118D01*
X93982000Y-73265673D01*
X93912852Y-73369161D01*
X93855000Y-73660000D01*
X93855000Y-76145537D01*
X93822808Y-76177673D01*
X93680162Y-76521201D01*
X93679838Y-76893167D01*
X93183000Y-76893167D01*
X93183000Y-73451742D01*
X93308317Y-73428162D01*
X93524441Y-73289090D01*
X93669431Y-73076890D01*
X93720440Y-72825000D01*
X93720440Y-71225000D01*
X93676162Y-70989683D01*
X93537090Y-70773559D01*
X93324890Y-70628569D01*
X93073000Y-70577560D01*
X91773000Y-70577560D01*
X91537683Y-70621838D01*
X91321559Y-70760910D01*
X91176569Y-70973110D01*
X91125560Y-71225000D01*
X91125560Y-72825000D01*
X91169838Y-73060317D01*
X91308910Y-73276441D01*
X91521110Y-73421431D01*
X91663000Y-73450164D01*
X91663000Y-78548258D01*
X91537683Y-78571838D01*
X91321559Y-78710910D01*
X91176569Y-78923110D01*
X91125560Y-79175000D01*
X91125560Y-80775000D01*
X91169838Y-81010317D01*
X91308910Y-81226441D01*
X91521110Y-81371431D01*
X91663000Y-81400164D01*
X91663000Y-82009000D01*
X91720852Y-82299839D01*
X91885599Y-82546401D01*
X92934599Y-83595401D01*
X93181161Y-83760148D01*
X93472000Y-83818000D01*
X94950001Y-83818000D01*
X94949838Y-84005167D01*
X94979106Y-84076000D01*
X85658802Y-84076000D01*
X84166000Y-82583198D01*
X84166000Y-81604742D01*
X84291317Y-81581162D01*
X84507441Y-81442090D01*
X84652431Y-81229890D01*
X84703440Y-80978000D01*
X84703440Y-80260750D01*
X86638000Y-80260750D01*
X86638000Y-80901309D01*
X86734673Y-81134698D01*
X86913301Y-81313327D01*
X87146690Y-81410000D01*
X87637250Y-81410000D01*
X87796000Y-81251250D01*
X87796000Y-80102000D01*
X88050000Y-80102000D01*
X88050000Y-81251250D01*
X88208750Y-81410000D01*
X88699310Y-81410000D01*
X88932699Y-81313327D01*
X89111327Y-81134698D01*
X89208000Y-80901309D01*
X89208000Y-80260750D01*
X89049250Y-80102000D01*
X88050000Y-80102000D01*
X87796000Y-80102000D01*
X86796750Y-80102000D01*
X86638000Y-80260750D01*
X84703440Y-80260750D01*
X84703440Y-79378000D01*
X84659162Y-79142683D01*
X84598680Y-79048691D01*
X86638000Y-79048691D01*
X86638000Y-79689250D01*
X86796750Y-79848000D01*
X87796000Y-79848000D01*
X87796000Y-78698750D01*
X88050000Y-78698750D01*
X88050000Y-79848000D01*
X89049250Y-79848000D01*
X89208000Y-79689250D01*
X89208000Y-79048691D01*
X89111327Y-78815302D01*
X88932699Y-78636673D01*
X88699310Y-78540000D01*
X88208750Y-78540000D01*
X88050000Y-78698750D01*
X87796000Y-78698750D01*
X87637250Y-78540000D01*
X87146690Y-78540000D01*
X86913301Y-78636673D01*
X86734673Y-78815302D01*
X86638000Y-79048691D01*
X84598680Y-79048691D01*
X84520090Y-78926559D01*
X84307890Y-78781569D01*
X84166000Y-78752836D01*
X84166000Y-73654742D01*
X84291317Y-73631162D01*
X84507441Y-73492090D01*
X84652431Y-73279890D01*
X84703440Y-73028000D01*
X84703440Y-72310750D01*
X86638000Y-72310750D01*
X86638000Y-72951309D01*
X86734673Y-73184698D01*
X86913301Y-73363327D01*
X87146690Y-73460000D01*
X87637250Y-73460000D01*
X87796000Y-73301250D01*
X87796000Y-72152000D01*
X88050000Y-72152000D01*
X88050000Y-73301250D01*
X88208750Y-73460000D01*
X88699310Y-73460000D01*
X88932699Y-73363327D01*
X89111327Y-73184698D01*
X89208000Y-72951309D01*
X89208000Y-72310750D01*
X89049250Y-72152000D01*
X88050000Y-72152000D01*
X87796000Y-72152000D01*
X86796750Y-72152000D01*
X86638000Y-72310750D01*
X84703440Y-72310750D01*
X84703440Y-71428000D01*
X84659162Y-71192683D01*
X84598680Y-71098691D01*
X86638000Y-71098691D01*
X86638000Y-71739250D01*
X86796750Y-71898000D01*
X87796000Y-71898000D01*
X87796000Y-70748750D01*
X88050000Y-70748750D01*
X88050000Y-71898000D01*
X89049250Y-71898000D01*
X89208000Y-71739250D01*
X89208000Y-71098691D01*
X89111327Y-70865302D01*
X88932699Y-70686673D01*
X88699310Y-70590000D01*
X88208750Y-70590000D01*
X88050000Y-70748750D01*
X87796000Y-70748750D01*
X87637250Y-70590000D01*
X87146690Y-70590000D01*
X86913301Y-70686673D01*
X86734673Y-70865302D01*
X86638000Y-71098691D01*
X84598680Y-71098691D01*
X84520090Y-70976559D01*
X84307890Y-70831569D01*
X84056000Y-70780560D01*
X82756000Y-70780560D01*
X82520683Y-70824838D01*
X82304559Y-70963910D01*
X82159569Y-71176110D01*
X82108560Y-71428000D01*
X82108560Y-73028000D01*
X82152838Y-73263317D01*
X82291910Y-73479441D01*
X82504110Y-73624431D01*
X82646000Y-73653164D01*
X82646000Y-78751258D01*
X82520683Y-78774838D01*
X82304559Y-78913910D01*
X82159569Y-79126110D01*
X82108560Y-79378000D01*
X82108560Y-80978000D01*
X82152838Y-81213317D01*
X82291910Y-81429441D01*
X82504110Y-81574431D01*
X82646000Y-81603164D01*
X82646000Y-82898000D01*
X82703852Y-83188839D01*
X82868599Y-83435401D01*
X84806599Y-85373401D01*
X85053161Y-85538148D01*
X85344000Y-85596000D01*
X92860998Y-85596000D01*
X92708113Y-85659171D01*
X92264728Y-86101783D01*
X92024474Y-86680379D01*
X92023927Y-87306873D01*
X92263171Y-87885887D01*
X92705783Y-88329272D01*
X93284379Y-88569526D01*
X93910873Y-88570073D01*
X94489887Y-88330829D01*
X94869273Y-87952104D01*
X95245783Y-88329272D01*
X95736457Y-88533018D01*
X90308822Y-88748400D01*
X89074432Y-88748400D01*
X89217268Y-88404413D01*
X89217731Y-87873914D01*
X89015146Y-87383620D01*
X88640353Y-87008173D01*
X88150413Y-86804732D01*
X87619914Y-86804269D01*
X87129620Y-87006854D01*
X86754173Y-87381647D01*
X86550732Y-87871587D01*
X86550269Y-88402086D01*
X86693363Y-88748400D01*
X79446607Y-88748400D01*
X76885000Y-82740266D01*
X76885000Y-80463750D01*
X77621000Y-80463750D01*
X77621000Y-81104309D01*
X77717673Y-81337698D01*
X77896301Y-81516327D01*
X78129690Y-81613000D01*
X78620250Y-81613000D01*
X78779000Y-81454250D01*
X78779000Y-80305000D01*
X79033000Y-80305000D01*
X79033000Y-81454250D01*
X79191750Y-81613000D01*
X79682310Y-81613000D01*
X79915699Y-81516327D01*
X80094327Y-81337698D01*
X80191000Y-81104309D01*
X80191000Y-80463750D01*
X80032250Y-80305000D01*
X79033000Y-80305000D01*
X78779000Y-80305000D01*
X77779750Y-80305000D01*
X77621000Y-80463750D01*
X76885000Y-80463750D01*
X76885000Y-79251691D01*
X77621000Y-79251691D01*
X77621000Y-79892250D01*
X77779750Y-80051000D01*
X78779000Y-80051000D01*
X78779000Y-78901750D01*
X79033000Y-78901750D01*
X79033000Y-80051000D01*
X80032250Y-80051000D01*
X80191000Y-79892250D01*
X80191000Y-79251691D01*
X80094327Y-79018302D01*
X79915699Y-78839673D01*
X79682310Y-78743000D01*
X79191750Y-78743000D01*
X79033000Y-78901750D01*
X78779000Y-78901750D01*
X78620250Y-78743000D01*
X78129690Y-78743000D01*
X77896301Y-78839673D01*
X77717673Y-79018302D01*
X77621000Y-79251691D01*
X76885000Y-79251691D01*
X76885000Y-72513750D01*
X77621000Y-72513750D01*
X77621000Y-73154309D01*
X77717673Y-73387698D01*
X77896301Y-73566327D01*
X78129690Y-73663000D01*
X78620250Y-73663000D01*
X78779000Y-73504250D01*
X78779000Y-72355000D01*
X79033000Y-72355000D01*
X79033000Y-73504250D01*
X79191750Y-73663000D01*
X79682310Y-73663000D01*
X79915699Y-73566327D01*
X80094327Y-73387698D01*
X80191000Y-73154309D01*
X80191000Y-72513750D01*
X80032250Y-72355000D01*
X79033000Y-72355000D01*
X78779000Y-72355000D01*
X77779750Y-72355000D01*
X77621000Y-72513750D01*
X76885000Y-72513750D01*
X76885000Y-71301691D01*
X77621000Y-71301691D01*
X77621000Y-71942250D01*
X77779750Y-72101000D01*
X78779000Y-72101000D01*
X78779000Y-70951750D01*
X79033000Y-70951750D01*
X79033000Y-72101000D01*
X80032250Y-72101000D01*
X80191000Y-71942250D01*
X80191000Y-71301691D01*
X80094327Y-71068302D01*
X79915699Y-70889673D01*
X79682310Y-70793000D01*
X79191750Y-70793000D01*
X79033000Y-70951750D01*
X78779000Y-70951750D01*
X78620250Y-70793000D01*
X78129690Y-70793000D01*
X77896301Y-70889673D01*
X77717673Y-71068302D01*
X77621000Y-71301691D01*
X76885000Y-71301691D01*
X76885000Y-69659734D01*
X78943994Y-64830455D01*
X79182171Y-65406887D01*
X79624783Y-65850272D01*
X80203379Y-66090526D01*
X80829873Y-66091073D01*
X81408887Y-65851829D01*
X81852272Y-65409217D01*
X82092526Y-64830621D01*
X82093073Y-64204127D01*
X81864773Y-63651600D01*
X86642768Y-63651600D01*
X86499932Y-63995587D01*
G36*
X103825199Y-64187964D02*
X103723629Y-64229932D01*
X103291449Y-64661357D01*
X103057267Y-65225330D01*
X103056735Y-65835991D01*
X103289932Y-66400371D01*
X103721357Y-66832551D01*
X104285330Y-67066733D01*
X104895991Y-67067265D01*
X105460371Y-66834068D01*
X105892551Y-66402643D01*
X106126733Y-65838670D01*
X106127265Y-65228009D01*
X105894068Y-64663629D01*
X105484984Y-64253829D01*
X110549720Y-64454810D01*
X110439686Y-64719801D01*
X110438716Y-65831323D01*
X110863181Y-66858606D01*
X111648460Y-67645257D01*
X112675001Y-68071514D01*
X113786523Y-68072484D01*
X114813806Y-67648019D01*
X115600457Y-66862740D01*
X116026714Y-65836199D01*
X116027684Y-64724677D01*
X115951625Y-64540600D01*
X118110000Y-64540600D01*
X118110000Y-87859400D01*
X115952303Y-87859400D01*
X116026714Y-87680199D01*
X116027684Y-86568677D01*
X115603219Y-85541394D01*
X114817940Y-84754743D01*
X113791399Y-84328486D01*
X112679877Y-84327516D01*
X111652594Y-84751981D01*
X110865943Y-85537260D01*
X110439686Y-86563801D01*
X110438716Y-87675323D01*
X110550215Y-87945170D01*
X102086340Y-88281038D01*
X102148363Y-88103968D01*
X101219000Y-87174605D01*
X100289637Y-88103968D01*
X100375442Y-88348931D01*
X99435838Y-88386217D01*
X99569887Y-88330829D01*
X100011601Y-87889885D01*
X100110032Y-87924363D01*
X101039395Y-86995000D01*
X101398605Y-86995000D01*
X102327968Y-87924363D01*
X102588580Y-87833077D01*
X102805045Y-87245167D01*
X102780049Y-86619172D01*
X102588580Y-86156923D01*
X102327968Y-86065637D01*
X101398605Y-86995000D01*
X101039395Y-86995000D01*
X100110032Y-86065637D01*
X100011036Y-86100313D01*
X99572217Y-85660728D01*
X99416335Y-85596000D01*
X100451949Y-85596000D01*
X100380923Y-85625420D01*
X100289637Y-85886032D01*
X101219000Y-86815395D01*
X102148363Y-85886032D01*
X102057077Y-85625420D01*
X101977173Y-85596000D01*
X109292537Y-85596000D01*
X109324673Y-85628192D01*
X109668201Y-85770838D01*
X110040167Y-85771162D01*
X110383943Y-85629117D01*
X110647192Y-85366327D01*
X110789838Y-85022799D01*
X110790162Y-84650833D01*
X110648117Y-84307057D01*
X110385327Y-84043808D01*
X110041799Y-83901162D01*
X109669833Y-83900838D01*
X109326057Y-84042883D01*
X109292882Y-84076000D01*
X107996110Y-84076000D01*
X107996162Y-84015833D01*
X107914419Y-83818000D01*
X110054537Y-83818000D01*
X110086673Y-83850192D01*
X110430201Y-83992838D01*
X110802167Y-83993162D01*
X111145943Y-83851117D01*
X111409192Y-83588327D01*
X111551838Y-83244799D01*
X111552162Y-82872833D01*
X111410117Y-82529057D01*
X111147327Y-82265808D01*
X110803799Y-82123162D01*
X110431833Y-82122838D01*
X110088057Y-82264883D01*
X110054882Y-82298000D01*
X109900999Y-82298000D01*
X109901162Y-82110833D01*
X109759117Y-81767057D01*
X109726000Y-81733882D01*
X109726000Y-81406037D01*
X109807000Y-81422440D01*
X111107000Y-81422440D01*
X111342317Y-81378162D01*
X111558441Y-81239090D01*
X111703431Y-81026890D01*
X111754440Y-80775000D01*
X111754440Y-79175000D01*
X111710162Y-78939683D01*
X111571090Y-78723559D01*
X111358890Y-78578569D01*
X111217000Y-78549836D01*
X111217000Y-73451742D01*
X111342317Y-73428162D01*
X111558441Y-73289090D01*
X111703431Y-73076890D01*
X111754440Y-72825000D01*
X111754440Y-71225000D01*
X111710162Y-70989683D01*
X111571090Y-70773559D01*
X111358890Y-70628569D01*
X111107000Y-70577560D01*
X109807000Y-70577560D01*
X109571683Y-70621838D01*
X109355559Y-70760910D01*
X109210569Y-70973110D01*
X109159560Y-71225000D01*
X109159560Y-71265000D01*
X108696000Y-71265000D01*
X108405161Y-71322852D01*
X108158599Y-71487599D01*
X107242000Y-72404198D01*
X107242000Y-72310750D01*
X107083250Y-72152000D01*
X106084000Y-72152000D01*
X106084000Y-73301250D01*
X106171313Y-73388563D01*
X105897057Y-73501883D01*
X105633808Y-73764673D01*
X105491162Y-74108201D01*
X105490887Y-74424000D01*
X105470802Y-74424000D01*
X104773000Y-73726198D01*
X104773000Y-73333463D01*
X104805192Y-73301327D01*
X104828697Y-73244722D01*
X104947301Y-73363327D01*
X105180690Y-73460000D01*
X105671250Y-73460000D01*
X105830000Y-73301250D01*
X105830000Y-72152000D01*
X104830750Y-72152000D01*
X104773434Y-72209316D01*
X104543327Y-71978808D01*
X104199799Y-71836162D01*
X104059041Y-71836039D01*
X104059162Y-71696833D01*
X103917117Y-71353057D01*
X103654327Y-71089808D01*
X103416372Y-70991000D01*
X104085537Y-70991000D01*
X104117673Y-71023192D01*
X104461201Y-71165838D01*
X104672000Y-71166022D01*
X104672000Y-71739250D01*
X104830750Y-71898000D01*
X105830000Y-71898000D01*
X105830000Y-70748750D01*
X106084000Y-70748750D01*
X106084000Y-71898000D01*
X107083250Y-71898000D01*
X107242000Y-71739250D01*
X107242000Y-71098691D01*
X107145327Y-70865302D01*
X106966699Y-70686673D01*
X106733310Y-70590000D01*
X106242750Y-70590000D01*
X106084000Y-70748750D01*
X105830000Y-70748750D01*
X105671250Y-70590000D01*
X105511334Y-70590000D01*
X105582838Y-70417799D01*
X105583021Y-70207154D01*
X105693401Y-70133401D01*
X107073680Y-68753122D01*
X107119167Y-68753162D01*
X107462943Y-68611117D01*
X107726192Y-68348327D01*
X107868838Y-68004799D01*
X107869162Y-67632833D01*
X107727117Y-67289057D01*
X107464327Y-67025808D01*
X107120799Y-66883162D01*
X106748833Y-66882838D01*
X106405057Y-67024883D01*
X106141808Y-67287673D01*
X105999162Y-67631201D01*
X105999121Y-67678077D01*
X104841198Y-68836000D01*
X104791045Y-68836000D01*
X104930767Y-68499512D01*
X104931232Y-67966825D01*
X104727811Y-67474508D01*
X104351473Y-67097513D01*
X103859512Y-66893233D01*
X103326825Y-66892768D01*
X102834508Y-67096189D01*
X102457513Y-67472527D01*
X102253233Y-67964488D01*
X102252768Y-68497175D01*
X102392767Y-68836000D01*
X99791045Y-68836000D01*
X99930767Y-68499512D01*
X99931232Y-67966825D01*
X99727811Y-67474508D01*
X99351473Y-67097513D01*
X98859512Y-66893233D01*
X98326825Y-66892768D01*
X97834508Y-67096189D01*
X97457513Y-67472527D01*
X97253233Y-67964488D01*
X97252768Y-68497175D01*
X97392767Y-68836000D01*
X95183802Y-68836000D01*
X94613000Y-68265198D01*
X94613000Y-67183000D01*
X94555148Y-66892161D01*
X94555148Y-66892160D01*
X94390401Y-66645599D01*
X93580793Y-65835991D01*
X96056735Y-65835991D01*
X96289932Y-66400371D01*
X96721357Y-66832551D01*
X97285330Y-67066733D01*
X97895991Y-67067265D01*
X98460371Y-66834068D01*
X98892551Y-66402643D01*
X99126733Y-65838670D01*
X99127265Y-65228009D01*
X98894068Y-64663629D01*
X98462643Y-64231449D01*
X97898670Y-63997267D01*
X97288009Y-63996735D01*
X96723629Y-64229932D01*
X96291449Y-64661357D01*
X96057267Y-65225330D01*
X96056735Y-65835991D01*
X93580793Y-65835991D01*
X92993401Y-65248599D01*
X92746839Y-65083852D01*
X92456000Y-65026000D01*
X88955367Y-65026000D01*
X88963027Y-65018353D01*
X89166468Y-64528413D01*
X89166931Y-63997914D01*
X89023837Y-63651600D01*
X90308822Y-63651600D01*
X103825199Y-64187964D01*
X103825199Y-64187964D01*
G37*
X103825199Y-64187964D02*
X103723629Y-64229932D01*
X103291449Y-64661357D01*
X103057267Y-65225330D01*
X103056735Y-65835991D01*
X103289932Y-66400371D01*
X103721357Y-66832551D01*
X104285330Y-67066733D01*
X104895991Y-67067265D01*
X105460371Y-66834068D01*
X105892551Y-66402643D01*
X106126733Y-65838670D01*
X106127265Y-65228009D01*
X105894068Y-64663629D01*
X105484984Y-64253829D01*
X110549720Y-64454810D01*
X110439686Y-64719801D01*
X110438716Y-65831323D01*
X110863181Y-66858606D01*
X111648460Y-67645257D01*
X112675001Y-68071514D01*
X113786523Y-68072484D01*
X114813806Y-67648019D01*
X115600457Y-66862740D01*
X116026714Y-65836199D01*
X116027684Y-64724677D01*
X115951625Y-64540600D01*
X118110000Y-64540600D01*
X118110000Y-87859400D01*
X115952303Y-87859400D01*
X116026714Y-87680199D01*
X116027684Y-86568677D01*
X115603219Y-85541394D01*
X114817940Y-84754743D01*
X113791399Y-84328486D01*
X112679877Y-84327516D01*
X111652594Y-84751981D01*
X110865943Y-85537260D01*
X110439686Y-86563801D01*
X110438716Y-87675323D01*
X110550215Y-87945170D01*
X102086340Y-88281038D01*
X102148363Y-88103968D01*
X101219000Y-87174605D01*
X100289637Y-88103968D01*
X100375442Y-88348931D01*
X99435838Y-88386217D01*
X99569887Y-88330829D01*
X100011601Y-87889885D01*
X100110032Y-87924363D01*
X101039395Y-86995000D01*
X101398605Y-86995000D01*
X102327968Y-87924363D01*
X102588580Y-87833077D01*
X102805045Y-87245167D01*
X102780049Y-86619172D01*
X102588580Y-86156923D01*
X102327968Y-86065637D01*
X101398605Y-86995000D01*
X101039395Y-86995000D01*
X100110032Y-86065637D01*
X100011036Y-86100313D01*
X99572217Y-85660728D01*
X99416335Y-85596000D01*
X100451949Y-85596000D01*
X100380923Y-85625420D01*
X100289637Y-85886032D01*
X101219000Y-86815395D01*
X102148363Y-85886032D01*
X102057077Y-85625420D01*
X101977173Y-85596000D01*
X109292537Y-85596000D01*
X109324673Y-85628192D01*
X109668201Y-85770838D01*
X110040167Y-85771162D01*
X110383943Y-85629117D01*
X110647192Y-85366327D01*
X110789838Y-85022799D01*
X110790162Y-84650833D01*
X110648117Y-84307057D01*
X110385327Y-84043808D01*
X110041799Y-83901162D01*
X109669833Y-83900838D01*
X109326057Y-84042883D01*
X109292882Y-84076000D01*
X107996110Y-84076000D01*
X107996162Y-84015833D01*
X107914419Y-83818000D01*
X110054537Y-83818000D01*
X110086673Y-83850192D01*
X110430201Y-83992838D01*
X110802167Y-83993162D01*
X111145943Y-83851117D01*
X111409192Y-83588327D01*
X111551838Y-83244799D01*
X111552162Y-82872833D01*
X111410117Y-82529057D01*
X111147327Y-82265808D01*
X110803799Y-82123162D01*
X110431833Y-82122838D01*
X110088057Y-82264883D01*
X110054882Y-82298000D01*
X109900999Y-82298000D01*
X109901162Y-82110833D01*
X109759117Y-81767057D01*
X109726000Y-81733882D01*
X109726000Y-81406037D01*
X109807000Y-81422440D01*
X111107000Y-81422440D01*
X111342317Y-81378162D01*
X111558441Y-81239090D01*
X111703431Y-81026890D01*
X111754440Y-80775000D01*
X111754440Y-79175000D01*
X111710162Y-78939683D01*
X111571090Y-78723559D01*
X111358890Y-78578569D01*
X111217000Y-78549836D01*
X111217000Y-73451742D01*
X111342317Y-73428162D01*
X111558441Y-73289090D01*
X111703431Y-73076890D01*
X111754440Y-72825000D01*
X111754440Y-71225000D01*
X111710162Y-70989683D01*
X111571090Y-70773559D01*
X111358890Y-70628569D01*
X111107000Y-70577560D01*
X109807000Y-70577560D01*
X109571683Y-70621838D01*
X109355559Y-70760910D01*
X109210569Y-70973110D01*
X109159560Y-71225000D01*
X109159560Y-71265000D01*
X108696000Y-71265000D01*
X108405161Y-71322852D01*
X108158599Y-71487599D01*
X107242000Y-72404198D01*
X107242000Y-72310750D01*
X107083250Y-72152000D01*
X106084000Y-72152000D01*
X106084000Y-73301250D01*
X106171313Y-73388563D01*
X105897057Y-73501883D01*
X105633808Y-73764673D01*
X105491162Y-74108201D01*
X105490887Y-74424000D01*
X105470802Y-74424000D01*
X104773000Y-73726198D01*
X104773000Y-73333463D01*
X104805192Y-73301327D01*
X104828697Y-73244722D01*
X104947301Y-73363327D01*
X105180690Y-73460000D01*
X105671250Y-73460000D01*
X105830000Y-73301250D01*
X105830000Y-72152000D01*
X104830750Y-72152000D01*
X104773434Y-72209316D01*
X104543327Y-71978808D01*
X104199799Y-71836162D01*
X104059041Y-71836039D01*
X104059162Y-71696833D01*
X103917117Y-71353057D01*
X103654327Y-71089808D01*
X103416372Y-70991000D01*
X104085537Y-70991000D01*
X104117673Y-71023192D01*
X104461201Y-71165838D01*
X104672000Y-71166022D01*
X104672000Y-71739250D01*
X104830750Y-71898000D01*
X105830000Y-71898000D01*
X105830000Y-70748750D01*
X106084000Y-70748750D01*
X106084000Y-71898000D01*
X107083250Y-71898000D01*
X107242000Y-71739250D01*
X107242000Y-71098691D01*
X107145327Y-70865302D01*
X106966699Y-70686673D01*
X106733310Y-70590000D01*
X106242750Y-70590000D01*
X106084000Y-70748750D01*
X105830000Y-70748750D01*
X105671250Y-70590000D01*
X105511334Y-70590000D01*
X105582838Y-70417799D01*
X105583021Y-70207154D01*
X105693401Y-70133401D01*
X107073680Y-68753122D01*
X107119167Y-68753162D01*
X107462943Y-68611117D01*
X107726192Y-68348327D01*
X107868838Y-68004799D01*
X107869162Y-67632833D01*
X107727117Y-67289057D01*
X107464327Y-67025808D01*
X107120799Y-66883162D01*
X106748833Y-66882838D01*
X106405057Y-67024883D01*
X106141808Y-67287673D01*
X105999162Y-67631201D01*
X105999121Y-67678077D01*
X104841198Y-68836000D01*
X104791045Y-68836000D01*
X104930767Y-68499512D01*
X104931232Y-67966825D01*
X104727811Y-67474508D01*
X104351473Y-67097513D01*
X103859512Y-66893233D01*
X103326825Y-66892768D01*
X102834508Y-67096189D01*
X102457513Y-67472527D01*
X102253233Y-67964488D01*
X102252768Y-68497175D01*
X102392767Y-68836000D01*
X99791045Y-68836000D01*
X99930767Y-68499512D01*
X99931232Y-67966825D01*
X99727811Y-67474508D01*
X99351473Y-67097513D01*
X98859512Y-66893233D01*
X98326825Y-66892768D01*
X97834508Y-67096189D01*
X97457513Y-67472527D01*
X97253233Y-67964488D01*
X97252768Y-68497175D01*
X97392767Y-68836000D01*
X95183802Y-68836000D01*
X94613000Y-68265198D01*
X94613000Y-67183000D01*
X94555148Y-66892161D01*
X94555148Y-66892160D01*
X94390401Y-66645599D01*
X93580793Y-65835991D01*
X96056735Y-65835991D01*
X96289932Y-66400371D01*
X96721357Y-66832551D01*
X97285330Y-67066733D01*
X97895991Y-67067265D01*
X98460371Y-66834068D01*
X98892551Y-66402643D01*
X99126733Y-65838670D01*
X99127265Y-65228009D01*
X98894068Y-64663629D01*
X98462643Y-64231449D01*
X97898670Y-63997267D01*
X97288009Y-63996735D01*
X96723629Y-64229932D01*
X96291449Y-64661357D01*
X96057267Y-65225330D01*
X96056735Y-65835991D01*
X93580793Y-65835991D01*
X92993401Y-65248599D01*
X92746839Y-65083852D01*
X92456000Y-65026000D01*
X88955367Y-65026000D01*
X88963027Y-65018353D01*
X89166468Y-64528413D01*
X89166931Y-63997914D01*
X89023837Y-63651600D01*
X90308822Y-63651600D01*
X103825199Y-64187964D01*
M02*
