G04 #@! TF.FileFunction,Paste,Bot*
%FSLAX46Y46*%
G04 Gerber Fmt 4.6, Leading zero omitted, Abs format (unit mm)*
G04 Created by KiCad (PCBNEW 4.0.7-e2-6376~61~ubuntu18.04.1) date Tue Jul 31 19:09:39 2018*
%MOMM*%
%LPD*%
G01*
G04 APERTURE LIST*
%ADD10C,0.100000*%
%ADD11R,1.200000X0.900000*%
%ADD12R,1.270000X0.558800*%
%ADD13R,0.558800X1.270000*%
%ADD14R,1.198880X2.999740*%
%ADD15R,3.960000X3.960000*%
%ADD16R,5.080000X1.270000*%
%ADD17R,0.800000X0.800000*%
%ADD18R,0.750000X0.800000*%
%ADD19R,0.450000X1.350000*%
%ADD20R,1.500000X1.550000*%
G04 APERTURE END LIST*
D10*
D11*
X105961000Y-85852000D03*
X108161000Y-85852000D03*
D12*
X97815400Y-81920080D03*
X97815400Y-81119980D03*
X97815400Y-80319880D03*
X97815400Y-79519780D03*
X97815400Y-78722220D03*
X97815400Y-77922120D03*
X97815400Y-77122020D03*
X97815400Y-76321920D03*
D13*
X99308920Y-74828400D03*
X100109020Y-74828400D03*
X100909120Y-74828400D03*
X101709220Y-74828400D03*
X102506780Y-74828400D03*
X103306880Y-74828400D03*
X104106980Y-74828400D03*
X104907080Y-74828400D03*
D12*
X106400600Y-76321920D03*
X106400600Y-77122020D03*
X106400600Y-77922120D03*
X106400600Y-78722220D03*
X106400600Y-79519780D03*
X106400600Y-80319880D03*
X106400600Y-81119980D03*
X106400600Y-81920080D03*
D13*
X104907080Y-83413600D03*
X104106980Y-83413600D03*
X103306880Y-83413600D03*
X102506780Y-83413600D03*
X101709220Y-83413600D03*
X100909120Y-83413600D03*
X100109020Y-83413600D03*
X99308920Y-83413600D03*
D14*
X79344520Y-68701920D03*
X81346040Y-68701920D03*
X83345020Y-68701920D03*
X85344000Y-68701920D03*
X87342980Y-68701920D03*
X89341960Y-68701920D03*
X91343480Y-68701920D03*
X91343480Y-83698080D03*
X89341960Y-83698080D03*
X87342980Y-83698080D03*
X85344000Y-83698080D03*
X83345020Y-83698080D03*
X81346040Y-83698080D03*
X79344520Y-83698080D03*
D15*
X122682000Y-76200000D03*
D16*
X122682000Y-87185000D03*
X122682000Y-65215000D03*
D17*
X105956000Y-87630000D03*
X104356000Y-87630000D03*
D18*
X111506000Y-70473000D03*
X111506000Y-68973000D03*
X109220000Y-69330000D03*
X109220000Y-67830000D03*
D19*
X99792000Y-68207000D03*
X100442000Y-68207000D03*
X101092000Y-68207000D03*
X101742000Y-68207000D03*
X102392000Y-68207000D03*
D20*
X100092000Y-65532000D03*
X102092000Y-65532000D03*
X98042000Y-65532000D03*
X104142000Y-65532000D03*
M02*
