M48
;DRILL file {KiCad 4.0.7-e2-6376~61~ubuntu18.04.1} date Tue Jul 31 19:09:40 2018
;FORMAT={-:-/ absolute / inch / decimal}
FMAT,2
INCH,TZ
T1C0.016
T2C0.035
T3C0.040
T4C0.047
T5C0.055
T6C0.070
%
G90
G05
M72
T1
X3.22Y-3.44
X3.285Y-2.59
X3.345Y-2.545
X3.725Y-3.02
X3.73Y-2.82
X3.775Y-3.3
X4.055Y-3.375
X4.06Y-2.83
X4.095Y-2.865
X4.12Y-2.765
X4.19Y-2.925
X4.21Y-2.67
X4.215Y-3.315
X4.255Y-3.195
X4.29Y-3.24
X4.325Y-3.34
X4.355Y-3.27
X4.6Y-2.875
X4.6Y-2.93
X4.6Y-2.99
X4.6Y-3.05
T2
X3.8816Y-2.6863
X4.0784Y-2.6863
T3
X3.17Y-2.54
X3.685Y-3.425
X3.785Y-3.425
X3.885Y-3.425
X3.985Y-3.425
T4
X3.8422Y-2.58
X4.1178Y-2.58
T5
X3.458Y-2.53
X3.46Y-3.47
T6
X4.458Y-2.57
X4.458Y-3.43
T0
M30
