G04 #@! TF.FileFunction,Other,Fab,Bot*
%FSLAX46Y46*%
G04 Gerber Fmt 4.6, Leading zero omitted, Abs format (unit mm)*
G04 Created by KiCad (PCBNEW 4.0.7-e2-6376~61~ubuntu18.04.1) date Tue Jul 31 19:09:39 2018*
%MOMM*%
%LPD*%
G01*
G04 APERTURE LIST*
%ADD10C,0.100000*%
%ADD11C,0.075000*%
%ADD12C,0.150000*%
G04 APERTURE END LIST*
D10*
X106261000Y-85452000D02*
X106261000Y-86252000D01*
X107861000Y-85452000D02*
X106261000Y-85452000D01*
X107861000Y-86252000D02*
X107861000Y-85452000D01*
X106261000Y-86252000D02*
X107861000Y-86252000D01*
X130212000Y-67010000D02*
X126282000Y-65570000D01*
X126282000Y-65570000D02*
X117282000Y-65570000D01*
X117282000Y-65570000D02*
X115292000Y-67560000D01*
X115292000Y-67560000D02*
X115292000Y-84840000D01*
X115292000Y-84840000D02*
X117282000Y-86830000D01*
X117282000Y-86830000D02*
X126282000Y-86830000D01*
X126282000Y-86830000D02*
X130212000Y-85390000D01*
X130210882Y-85380726D02*
G75*
G03X131112000Y-82300000I-678882J1870726D01*
G01*
X131108043Y-70105148D02*
G75*
G03X131112000Y-82300000I7933957J-6094852D01*
G01*
X131120508Y-70103855D02*
G75*
G03X130212000Y-67010000I-1588508J1213855D01*
G01*
X104956000Y-87830000D02*
X104956000Y-87430000D01*
X105006000Y-87630000D02*
X105306000Y-87830000D01*
X105306000Y-87430000D02*
X105006000Y-87630000D01*
X105306000Y-87830000D02*
X105306000Y-87430000D01*
X105956000Y-87230000D02*
X104356000Y-87230000D01*
X105956000Y-88030000D02*
X105956000Y-87230000D01*
X104356000Y-88030000D02*
X105956000Y-88030000D01*
X104356000Y-87230000D02*
X104356000Y-88030000D01*
X111106000Y-68923000D02*
X111106000Y-70523000D01*
X111106000Y-70523000D02*
X111906000Y-70523000D01*
X111906000Y-70523000D02*
X111906000Y-68923000D01*
X111906000Y-68923000D02*
X111106000Y-68923000D01*
X108820000Y-67780000D02*
X108820000Y-69380000D01*
X108820000Y-69380000D02*
X109620000Y-69380000D01*
X109620000Y-69380000D02*
X109620000Y-67780000D01*
X109620000Y-67780000D02*
X108820000Y-67780000D01*
D11*
X107127666Y-86032952D02*
X107261000Y-85842476D01*
X107356238Y-86032952D02*
X107356238Y-85632952D01*
X107203857Y-85632952D01*
X107165762Y-85652000D01*
X107146714Y-85671048D01*
X107127666Y-85709143D01*
X107127666Y-85766286D01*
X107146714Y-85804381D01*
X107165762Y-85823429D01*
X107203857Y-85842476D01*
X107356238Y-85842476D01*
X106746714Y-86032952D02*
X106975286Y-86032952D01*
X106861000Y-86032952D02*
X106861000Y-85632952D01*
X106899095Y-85690095D01*
X106937190Y-85728190D01*
X106975286Y-85747238D01*
D12*
X119710571Y-75414286D02*
X119758190Y-75557143D01*
X119805810Y-75604762D01*
X119901048Y-75652381D01*
X120043905Y-75652381D01*
X120139143Y-75604762D01*
X120186762Y-75557143D01*
X120234381Y-75461905D01*
X120234381Y-75080952D01*
X119234381Y-75080952D01*
X119234381Y-75414286D01*
X119282000Y-75509524D01*
X119329619Y-75557143D01*
X119424857Y-75604762D01*
X119520095Y-75604762D01*
X119615333Y-75557143D01*
X119662952Y-75509524D01*
X119710571Y-75414286D01*
X119710571Y-75080952D01*
X119234381Y-75938095D02*
X119234381Y-76509524D01*
X120234381Y-76223809D02*
X119234381Y-76223809D01*
X120234381Y-77366667D02*
X120234381Y-76795238D01*
X120234381Y-77080952D02*
X119234381Y-77080952D01*
X119377238Y-76985714D01*
X119472476Y-76890476D01*
X119520095Y-76795238D01*
D11*
X111556000Y-69830143D02*
X111570286Y-69844429D01*
X111613143Y-69858714D01*
X111641714Y-69858714D01*
X111684571Y-69844429D01*
X111713143Y-69815857D01*
X111727428Y-69787286D01*
X111741714Y-69730143D01*
X111741714Y-69687286D01*
X111727428Y-69630143D01*
X111713143Y-69601571D01*
X111684571Y-69573000D01*
X111641714Y-69558714D01*
X111613143Y-69558714D01*
X111570286Y-69573000D01*
X111556000Y-69587286D01*
X111270286Y-69858714D02*
X111441714Y-69858714D01*
X111356000Y-69858714D02*
X111356000Y-69558714D01*
X111384571Y-69601571D01*
X111413143Y-69630143D01*
X111441714Y-69644429D01*
X109327143Y-68530000D02*
X109341429Y-68515714D01*
X109355714Y-68472857D01*
X109355714Y-68444286D01*
X109341429Y-68401429D01*
X109312857Y-68372857D01*
X109284286Y-68358572D01*
X109227143Y-68344286D01*
X109184286Y-68344286D01*
X109127143Y-68358572D01*
X109098571Y-68372857D01*
X109070000Y-68401429D01*
X109055714Y-68444286D01*
X109055714Y-68472857D01*
X109070000Y-68515714D01*
X109084286Y-68530000D01*
X109084286Y-68644286D02*
X109070000Y-68658572D01*
X109055714Y-68687143D01*
X109055714Y-68758572D01*
X109070000Y-68787143D01*
X109084286Y-68801429D01*
X109112857Y-68815714D01*
X109141429Y-68815714D01*
X109184286Y-68801429D01*
X109355714Y-68630000D01*
X109355714Y-68815714D01*
M02*
