G04 #@! TF.FileFunction,Legend,Top*
%FSLAX46Y46*%
G04 Gerber Fmt 4.6, Leading zero omitted, Abs format (unit mm)*
G04 Created by KiCad (PCBNEW 4.0.7-e2-6376~61~ubuntu18.04.1) date Tue Jul 31 19:09:39 2018*
%MOMM*%
%LPD*%
G01*
G04 APERTURE LIST*
%ADD10C,0.100000*%
%ADD11C,0.300000*%
%ADD12C,0.150000*%
%ADD13C,0.120000*%
%ADD14C,0.203200*%
G04 APERTURE END LIST*
D10*
D11*
X113478571Y-84092856D02*
X112478571Y-84092856D01*
X112764286Y-84092856D02*
X112621429Y-84021428D01*
X112550000Y-83949999D01*
X112478571Y-83807142D01*
X112478571Y-83664285D01*
X112478571Y-83378571D02*
X112478571Y-82807142D01*
X113478571Y-83164285D02*
X112192857Y-83164285D01*
X112050000Y-83092857D01*
X111978571Y-82949999D01*
X111978571Y-82807142D01*
X113621429Y-82664285D02*
X113621429Y-81521428D01*
X113478571Y-81164285D02*
X112478571Y-81164285D01*
X112764286Y-81164285D02*
X112621429Y-81092857D01*
X112550000Y-81021428D01*
X112478571Y-80878571D01*
X112478571Y-80735714D01*
X113407143Y-79664286D02*
X113478571Y-79807143D01*
X113478571Y-80092857D01*
X113407143Y-80235714D01*
X113264286Y-80307143D01*
X112692857Y-80307143D01*
X112550000Y-80235714D01*
X112478571Y-80092857D01*
X112478571Y-79807143D01*
X112550000Y-79664286D01*
X112692857Y-79592857D01*
X112835714Y-79592857D01*
X112978571Y-80307143D01*
X113478571Y-78950000D02*
X112478571Y-78950000D01*
X112621429Y-78950000D02*
X112550000Y-78878572D01*
X112478571Y-78735714D01*
X112478571Y-78521429D01*
X112550000Y-78378572D01*
X112692857Y-78307143D01*
X113478571Y-78307143D01*
X112692857Y-78307143D02*
X112550000Y-78235714D01*
X112478571Y-78092857D01*
X112478571Y-77878572D01*
X112550000Y-77735714D01*
X112692857Y-77664286D01*
X113478571Y-77664286D01*
X113478571Y-76735714D02*
X113407143Y-76878572D01*
X113335714Y-76950000D01*
X113192857Y-77021429D01*
X112764286Y-77021429D01*
X112621429Y-76950000D01*
X112550000Y-76878572D01*
X112478571Y-76735714D01*
X112478571Y-76521429D01*
X112550000Y-76378572D01*
X112621429Y-76307143D01*
X112764286Y-76235714D01*
X113192857Y-76235714D01*
X113335714Y-76307143D01*
X113407143Y-76378572D01*
X113478571Y-76521429D01*
X113478571Y-76735714D01*
X112478571Y-75807143D02*
X112478571Y-75235714D01*
X111978571Y-75592857D02*
X113264286Y-75592857D01*
X113407143Y-75521429D01*
X113478571Y-75378571D01*
X113478571Y-75235714D01*
X113407143Y-74164286D02*
X113478571Y-74307143D01*
X113478571Y-74592857D01*
X113407143Y-74735714D01*
X113264286Y-74807143D01*
X112692857Y-74807143D01*
X112550000Y-74735714D01*
X112478571Y-74592857D01*
X112478571Y-74307143D01*
X112550000Y-74164286D01*
X112692857Y-74092857D01*
X112835714Y-74092857D01*
X112978571Y-74807143D01*
X112478571Y-72450000D02*
X113478571Y-72092857D01*
X112478571Y-71735715D01*
X113478571Y-70378572D02*
X113478571Y-71235715D01*
X113478571Y-70807143D02*
X111978571Y-70807143D01*
X112192857Y-70950000D01*
X112335714Y-71092858D01*
X112407143Y-71235715D01*
X113335714Y-69735715D02*
X113407143Y-69664287D01*
X113478571Y-69735715D01*
X113407143Y-69807144D01*
X113335714Y-69735715D01*
X113478571Y-69735715D01*
X113478571Y-68235715D02*
X113478571Y-69092858D01*
X113478571Y-68664286D02*
X111978571Y-68664286D01*
X112192857Y-68807143D01*
X112335714Y-68950001D01*
X112407143Y-69092858D01*
X94378571Y-84578571D02*
X92878571Y-84578571D01*
X94378571Y-83721428D01*
X92878571Y-83721428D01*
X94235714Y-82149999D02*
X94307143Y-82221428D01*
X94378571Y-82435714D01*
X94378571Y-82578571D01*
X94307143Y-82792856D01*
X94164286Y-82935714D01*
X94021429Y-83007142D01*
X93735714Y-83078571D01*
X93521429Y-83078571D01*
X93235714Y-83007142D01*
X93092857Y-82935714D01*
X92950000Y-82792856D01*
X92878571Y-82578571D01*
X92878571Y-82435714D01*
X92950000Y-82221428D01*
X93021429Y-82149999D01*
X96878571Y-85285714D02*
X95378571Y-85285714D01*
X95378571Y-84285714D02*
X95378571Y-84000000D01*
X95450000Y-83857142D01*
X95592857Y-83714285D01*
X95878571Y-83642857D01*
X96378571Y-83642857D01*
X96664286Y-83714285D01*
X96807143Y-83857142D01*
X96878571Y-84000000D01*
X96878571Y-84285714D01*
X96807143Y-84428571D01*
X96664286Y-84571428D01*
X96378571Y-84642857D01*
X95878571Y-84642857D01*
X95592857Y-84571428D01*
X95450000Y-84428571D01*
X95378571Y-84285714D01*
X99235714Y-84392857D02*
X99307143Y-84464286D01*
X99378571Y-84678572D01*
X99378571Y-84821429D01*
X99307143Y-85035714D01*
X99164286Y-85178572D01*
X99021429Y-85250000D01*
X98735714Y-85321429D01*
X98521429Y-85321429D01*
X98235714Y-85250000D01*
X98092857Y-85178572D01*
X97950000Y-85035714D01*
X97878571Y-84821429D01*
X97878571Y-84678572D01*
X97950000Y-84464286D01*
X98021429Y-84392857D01*
X99378571Y-83035714D02*
X99378571Y-83750000D01*
X97878571Y-83750000D01*
X99378571Y-82535714D02*
X97878571Y-82535714D01*
X99378571Y-81678571D02*
X98521429Y-82321428D01*
X97878571Y-81678571D02*
X98735714Y-82535714D01*
X100650000Y-84542857D02*
X100578571Y-84685714D01*
X100578571Y-84900000D01*
X100650000Y-85114285D01*
X100792857Y-85257143D01*
X100935714Y-85328571D01*
X101221429Y-85400000D01*
X101435714Y-85400000D01*
X101721429Y-85328571D01*
X101864286Y-85257143D01*
X102007143Y-85114285D01*
X102078571Y-84900000D01*
X102078571Y-84757143D01*
X102007143Y-84542857D01*
X101935714Y-84471428D01*
X101435714Y-84471428D01*
X101435714Y-84757143D01*
X102078571Y-83828571D02*
X100578571Y-83828571D01*
X102078571Y-82971428D01*
X100578571Y-82971428D01*
X102078571Y-82257142D02*
X100578571Y-82257142D01*
X100578571Y-81899999D01*
X100650000Y-81685714D01*
X100792857Y-81542856D01*
X100935714Y-81471428D01*
X101221429Y-81399999D01*
X101435714Y-81399999D01*
X101721429Y-81471428D01*
X101864286Y-81542856D01*
X102007143Y-81685714D01*
X102078571Y-81899999D01*
X102078571Y-82257142D01*
D12*
X96190000Y-79000000D02*
X102190000Y-79000000D01*
X102190000Y-79000000D02*
X102190000Y-73000000D01*
X102190000Y-73000000D02*
X96190000Y-73000000D01*
X96190000Y-73000000D02*
X96190000Y-79000000D01*
D13*
X115519200Y-65278000D02*
G75*
G03X115519200Y-65278000I-2286000J0D01*
G01*
D14*
X81788000Y-63881000D02*
X81153000Y-63246000D01*
X81153000Y-63246000D02*
X79883000Y-63246000D01*
X79883000Y-63246000D02*
X79248000Y-63881000D01*
X79248000Y-63881000D02*
X79248000Y-65151000D01*
X79248000Y-65151000D02*
X79883000Y-65786000D01*
X79883000Y-65786000D02*
X81153000Y-65786000D01*
X81153000Y-65786000D02*
X81788000Y-65151000D01*
X81788000Y-65151000D02*
X81788000Y-63881000D01*
D13*
X115519200Y-87122000D02*
G75*
G03X115519200Y-87122000I-2286000J0D01*
G01*
D12*
X78156000Y-79203000D02*
X84156000Y-79203000D01*
X84156000Y-79203000D02*
X84156000Y-73203000D01*
X84156000Y-73203000D02*
X78156000Y-73203000D01*
X78156000Y-73203000D02*
X78156000Y-79203000D01*
X87173000Y-79000000D02*
X93173000Y-79000000D01*
X93173000Y-79000000D02*
X93173000Y-73000000D01*
X93173000Y-73000000D02*
X87173000Y-73000000D01*
X87173000Y-73000000D02*
X87173000Y-79000000D01*
X105207000Y-79000000D02*
X111207000Y-79000000D01*
X111207000Y-79000000D02*
X111207000Y-73000000D01*
X111207000Y-73000000D02*
X105207000Y-73000000D01*
X105207000Y-73000000D02*
X105207000Y-79000000D01*
M02*
