G04 #@! TF.GenerationSoftware,KiCad,Pcbnew,5.1.4-e60b266~84~ubuntu18.04.1*
G04 #@! TF.CreationDate,2019-09-28T16:56:38-06:00*
G04 #@! TF.ProjectId,rfboard,7266626f-6172-4642-9e6b-696361645f70,rev?*
G04 #@! TF.SameCoordinates,Original*
G04 #@! TF.FileFunction,Legend,Top*
G04 #@! TF.FilePolarity,Positive*
%FSLAX46Y46*%
G04 Gerber Fmt 4.6, Leading zero omitted, Abs format (unit mm)*
G04 Created by KiCad (PCBNEW 5.1.4-e60b266~84~ubuntu18.04.1) date 2019-09-28 16:56:38*
%MOMM*%
%LPD*%
G04 APERTURE LIST*
%ADD10C,0.150000*%
%ADD11C,0.101600*%
%ADD12C,0.203200*%
%ADD13C,0.002540*%
%ADD14C,0.120000*%
%ADD15C,0.127000*%
%ADD16C,0.100000*%
G04 APERTURE END LIST*
D10*
X116300000Y-105000000D02*
X116600000Y-105500000D01*
X116000000Y-105500000D02*
X116300000Y-105000000D01*
D11*
X114900000Y-105500000D02*
X115200000Y-105300000D01*
X115200000Y-105300000D02*
X115500000Y-105500000D01*
D10*
X105609523Y-116457142D02*
X105561904Y-116504761D01*
X105419047Y-116552380D01*
X105323809Y-116552380D01*
X105180952Y-116504761D01*
X105085714Y-116409523D01*
X105038095Y-116314285D01*
X104990476Y-116123809D01*
X104990476Y-115980952D01*
X105038095Y-115790476D01*
X105085714Y-115695238D01*
X105180952Y-115600000D01*
X105323809Y-115552380D01*
X105419047Y-115552380D01*
X105561904Y-115600000D01*
X105609523Y-115647619D01*
X104776190Y-114152380D02*
X104776190Y-113152380D01*
X105442857Y-113152380D02*
X105633333Y-113152380D01*
X105728571Y-113200000D01*
X105823809Y-113295238D01*
X105871428Y-113485714D01*
X105871428Y-113819047D01*
X105823809Y-114009523D01*
X105728571Y-114104761D01*
X105633333Y-114152380D01*
X105442857Y-114152380D01*
X105347619Y-114104761D01*
X105252380Y-114009523D01*
X105204761Y-113819047D01*
X105204761Y-113485714D01*
X105252380Y-113295238D01*
X105347619Y-113200000D01*
X105442857Y-113152380D01*
X105661904Y-118200000D02*
X105566666Y-118152380D01*
X105423809Y-118152380D01*
X105280952Y-118200000D01*
X105185714Y-118295238D01*
X105138095Y-118390476D01*
X105090476Y-118580952D01*
X105090476Y-118723809D01*
X105138095Y-118914285D01*
X105185714Y-119009523D01*
X105280952Y-119104761D01*
X105423809Y-119152380D01*
X105519047Y-119152380D01*
X105661904Y-119104761D01*
X105709523Y-119057142D01*
X105709523Y-118723809D01*
X105519047Y-118723809D01*
X105209523Y-110452380D02*
X104733333Y-110452380D01*
X104685714Y-110928571D01*
X104733333Y-110880952D01*
X104828571Y-110833333D01*
X105066666Y-110833333D01*
X105161904Y-110880952D01*
X105209523Y-110928571D01*
X105257142Y-111023809D01*
X105257142Y-111261904D01*
X105209523Y-111357142D01*
X105161904Y-111404761D01*
X105066666Y-111452380D01*
X104828571Y-111452380D01*
X104733333Y-111404761D01*
X104685714Y-111357142D01*
X105542857Y-110452380D02*
X105876190Y-111452380D01*
X106209523Y-110452380D01*
X119761904Y-97000000D02*
X119666666Y-96952380D01*
X119523809Y-96952380D01*
X119380952Y-97000000D01*
X119285714Y-97095238D01*
X119238095Y-97190476D01*
X119190476Y-97380952D01*
X119190476Y-97523809D01*
X119238095Y-97714285D01*
X119285714Y-97809523D01*
X119380952Y-97904761D01*
X119523809Y-97952380D01*
X119619047Y-97952380D01*
X119761904Y-97904761D01*
X119809523Y-97857142D01*
X119809523Y-97523809D01*
X119619047Y-97523809D01*
X116457142Y-97952380D02*
X115980952Y-97952380D01*
X115980952Y-96952380D01*
X116790476Y-97428571D02*
X117123809Y-97428571D01*
X117266666Y-97952380D02*
X116790476Y-97952380D01*
X116790476Y-96952380D01*
X117266666Y-96952380D01*
X117695238Y-97952380D02*
X117695238Y-96952380D01*
X117933333Y-96952380D01*
X118076190Y-97000000D01*
X118171428Y-97095238D01*
X118219047Y-97190476D01*
X118266666Y-97380952D01*
X118266666Y-97523809D01*
X118219047Y-97714285D01*
X118171428Y-97809523D01*
X118076190Y-97904761D01*
X117933333Y-97952380D01*
X117695238Y-97952380D01*
X114309523Y-96952380D02*
X113833333Y-96952380D01*
X113785714Y-97428571D01*
X113833333Y-97380952D01*
X113928571Y-97333333D01*
X114166666Y-97333333D01*
X114261904Y-97380952D01*
X114309523Y-97428571D01*
X114357142Y-97523809D01*
X114357142Y-97761904D01*
X114309523Y-97857142D01*
X114261904Y-97904761D01*
X114166666Y-97952380D01*
X113928571Y-97952380D01*
X113833333Y-97904761D01*
X113785714Y-97857142D01*
X114642857Y-96952380D02*
X114976190Y-97952380D01*
X115309523Y-96952380D01*
X102071428Y-126952380D02*
X102071428Y-126285714D01*
X102071428Y-126476190D02*
X102119047Y-126380952D01*
X102166666Y-126333333D01*
X102261904Y-126285714D01*
X102357142Y-126285714D01*
X102547619Y-126285714D02*
X102928571Y-126285714D01*
X102690476Y-126952380D02*
X102690476Y-126095238D01*
X102738095Y-126000000D01*
X102833333Y-125952380D01*
X102928571Y-125952380D01*
X103261904Y-126952380D02*
X103261904Y-125952380D01*
X103261904Y-126333333D02*
X103357142Y-126285714D01*
X103547619Y-126285714D01*
X103642857Y-126333333D01*
X103690476Y-126380952D01*
X103738095Y-126476190D01*
X103738095Y-126761904D01*
X103690476Y-126857142D01*
X103642857Y-126904761D01*
X103547619Y-126952380D01*
X103357142Y-126952380D01*
X103261904Y-126904761D01*
X104309523Y-126952380D02*
X104214285Y-126904761D01*
X104166666Y-126857142D01*
X104119047Y-126761904D01*
X104119047Y-126476190D01*
X104166666Y-126380952D01*
X104214285Y-126333333D01*
X104309523Y-126285714D01*
X104452380Y-126285714D01*
X104547619Y-126333333D01*
X104595238Y-126380952D01*
X104642857Y-126476190D01*
X104642857Y-126761904D01*
X104595238Y-126857142D01*
X104547619Y-126904761D01*
X104452380Y-126952380D01*
X104309523Y-126952380D01*
X105500000Y-126952380D02*
X105500000Y-126428571D01*
X105452380Y-126333333D01*
X105357142Y-126285714D01*
X105166666Y-126285714D01*
X105071428Y-126333333D01*
X105500000Y-126904761D02*
X105404761Y-126952380D01*
X105166666Y-126952380D01*
X105071428Y-126904761D01*
X105023809Y-126809523D01*
X105023809Y-126714285D01*
X105071428Y-126619047D01*
X105166666Y-126571428D01*
X105404761Y-126571428D01*
X105500000Y-126523809D01*
X105976190Y-126952380D02*
X105976190Y-126285714D01*
X105976190Y-126476190D02*
X106023809Y-126380952D01*
X106071428Y-126333333D01*
X106166666Y-126285714D01*
X106261904Y-126285714D01*
X107023809Y-126952380D02*
X107023809Y-125952380D01*
X107023809Y-126904761D02*
X106928571Y-126952380D01*
X106738095Y-126952380D01*
X106642857Y-126904761D01*
X106595238Y-126857142D01*
X106547619Y-126761904D01*
X106547619Y-126476190D01*
X106595238Y-126380952D01*
X106642857Y-126333333D01*
X106738095Y-126285714D01*
X106928571Y-126285714D01*
X107023809Y-126333333D01*
X108166666Y-126285714D02*
X108404761Y-126952380D01*
X108642857Y-126285714D01*
X109547619Y-126952380D02*
X108976190Y-126952380D01*
X109261904Y-126952380D02*
X109261904Y-125952380D01*
X109166666Y-126095238D01*
X109071428Y-126190476D01*
X108976190Y-126238095D01*
X109976190Y-126857142D02*
X110023809Y-126904761D01*
X109976190Y-126952380D01*
X109928571Y-126904761D01*
X109976190Y-126857142D01*
X109976190Y-126952380D01*
X110880952Y-125952380D02*
X110690476Y-125952380D01*
X110595238Y-126000000D01*
X110547619Y-126047619D01*
X110452380Y-126190476D01*
X110404761Y-126380952D01*
X110404761Y-126761904D01*
X110452380Y-126857142D01*
X110500000Y-126904761D01*
X110595238Y-126952380D01*
X110785714Y-126952380D01*
X110880952Y-126904761D01*
X110928571Y-126857142D01*
X110976190Y-126761904D01*
X110976190Y-126523809D01*
X110928571Y-126428571D01*
X110880952Y-126380952D01*
X110785714Y-126333333D01*
X110595238Y-126333333D01*
X110500000Y-126380952D01*
X110452380Y-126428571D01*
X110404761Y-126523809D01*
D12*
X115202660Y-110097340D02*
X115202660Y-117102660D01*
X115202660Y-117102660D02*
X108197340Y-117102660D01*
X108197340Y-117102660D02*
X108197340Y-110450400D01*
X108550400Y-110097340D02*
X115202660Y-110097340D01*
X108550400Y-110097340D02*
X108197340Y-110450400D01*
X108194800Y-109917000D02*
G75*
G03X108194800Y-109917000I-152400J0D01*
G01*
D13*
G36*
X112988420Y-128995780D02*
G01*
X113008740Y-128985620D01*
X113057000Y-128955140D01*
X113123040Y-128911960D01*
X113201780Y-128858620D01*
X113280520Y-128805280D01*
X113346560Y-128762100D01*
X113392280Y-128731620D01*
X113410060Y-128721460D01*
X113420220Y-128724000D01*
X113458320Y-128744320D01*
X113514200Y-128772260D01*
X113544680Y-128787500D01*
X113595480Y-128810360D01*
X113620880Y-128815440D01*
X113623420Y-128807820D01*
X113643740Y-128769720D01*
X113671680Y-128703680D01*
X113709780Y-128617320D01*
X113752960Y-128515720D01*
X113798680Y-128406500D01*
X113844400Y-128294740D01*
X113890120Y-128188060D01*
X113928220Y-128091540D01*
X113961240Y-128015340D01*
X113981560Y-127959460D01*
X113989180Y-127936600D01*
X113986640Y-127931520D01*
X113961240Y-127908660D01*
X113918060Y-127875640D01*
X113821540Y-127796900D01*
X113730100Y-127680060D01*
X113671680Y-127547980D01*
X113653900Y-127400660D01*
X113669140Y-127266040D01*
X113722480Y-127136500D01*
X113813920Y-127017120D01*
X113925680Y-126930760D01*
X114055220Y-126874880D01*
X114200000Y-126857100D01*
X114339700Y-126872340D01*
X114471780Y-126925680D01*
X114591160Y-127014580D01*
X114639420Y-127073000D01*
X114708000Y-127192380D01*
X114748640Y-127319380D01*
X114751180Y-127349860D01*
X114746100Y-127492100D01*
X114705460Y-127626720D01*
X114631800Y-127746100D01*
X114527660Y-127845160D01*
X114514960Y-127855320D01*
X114466700Y-127890880D01*
X114436220Y-127913740D01*
X114410820Y-127934060D01*
X114588620Y-128365860D01*
X114616560Y-128434440D01*
X114667360Y-128551280D01*
X114710540Y-128652880D01*
X114743560Y-128734160D01*
X114768960Y-128787500D01*
X114779120Y-128810360D01*
X114794360Y-128812900D01*
X114827380Y-128800200D01*
X114888340Y-128772260D01*
X114928980Y-128751940D01*
X114974700Y-128729080D01*
X114995020Y-128721460D01*
X115012800Y-128731620D01*
X115055980Y-128759560D01*
X115119480Y-128802740D01*
X115195680Y-128853540D01*
X115269340Y-128904340D01*
X115337920Y-128950060D01*
X115386180Y-128980540D01*
X115411580Y-128993240D01*
X115414120Y-128993240D01*
X115434440Y-128980540D01*
X115475080Y-128950060D01*
X115533500Y-128894180D01*
X115614780Y-128812900D01*
X115627480Y-128800200D01*
X115696060Y-128729080D01*
X115751940Y-128670660D01*
X115790040Y-128630020D01*
X115802740Y-128612240D01*
X115790040Y-128586840D01*
X115759560Y-128538580D01*
X115713840Y-128470000D01*
X115660500Y-128391260D01*
X115518260Y-128182980D01*
X115597000Y-127987400D01*
X115619860Y-127928980D01*
X115650340Y-127855320D01*
X115673200Y-127804520D01*
X115685900Y-127781660D01*
X115706220Y-127774040D01*
X115759560Y-127761340D01*
X115838300Y-127743560D01*
X115929740Y-127728320D01*
X116018640Y-127710540D01*
X116097380Y-127695300D01*
X116155800Y-127685140D01*
X116181200Y-127680060D01*
X116186280Y-127674980D01*
X116191360Y-127662280D01*
X116196440Y-127636880D01*
X116196440Y-127588620D01*
X116198980Y-127512420D01*
X116198980Y-127400660D01*
X116198980Y-127390500D01*
X116196440Y-127283820D01*
X116196440Y-127200000D01*
X116193900Y-127146660D01*
X116188820Y-127126340D01*
X116163420Y-127118720D01*
X116107540Y-127108560D01*
X116028800Y-127090780D01*
X115932280Y-127073000D01*
X115927200Y-127073000D01*
X115833220Y-127055220D01*
X115754480Y-127037440D01*
X115698600Y-127024740D01*
X115675740Y-127017120D01*
X115670660Y-127012040D01*
X115650340Y-126973940D01*
X115622400Y-126915520D01*
X115591920Y-126844400D01*
X115561440Y-126770740D01*
X115533500Y-126702160D01*
X115515720Y-126653900D01*
X115510640Y-126631040D01*
X115525880Y-126608180D01*
X115558900Y-126557380D01*
X115604620Y-126491340D01*
X115660500Y-126410060D01*
X115663040Y-126402440D01*
X115718920Y-126323700D01*
X115762100Y-126255120D01*
X115792580Y-126206860D01*
X115802740Y-126186540D01*
X115802740Y-126184000D01*
X115784960Y-126161140D01*
X115744320Y-126115420D01*
X115685900Y-126054460D01*
X115614780Y-125983340D01*
X115591920Y-125963020D01*
X115515720Y-125886820D01*
X115462380Y-125836020D01*
X115426820Y-125810620D01*
X115411580Y-125803000D01*
X115411580Y-125805540D01*
X115386180Y-125818240D01*
X115335380Y-125851260D01*
X115266800Y-125899520D01*
X115185520Y-125952860D01*
X115180440Y-125957940D01*
X115101700Y-126011280D01*
X115035660Y-126057000D01*
X114987400Y-126087480D01*
X114967080Y-126100180D01*
X114962000Y-126100180D01*
X114931520Y-126090020D01*
X114873100Y-126072240D01*
X114804520Y-126044300D01*
X114730860Y-126013820D01*
X114662280Y-125985880D01*
X114611480Y-125963020D01*
X114588620Y-125950320D01*
X114588620Y-125947780D01*
X114578460Y-125919840D01*
X114565760Y-125858880D01*
X114547980Y-125777600D01*
X114530200Y-125678540D01*
X114527660Y-125663300D01*
X114509880Y-125569320D01*
X114494640Y-125490580D01*
X114481940Y-125434700D01*
X114476860Y-125411840D01*
X114464160Y-125409300D01*
X114415900Y-125406760D01*
X114344780Y-125404220D01*
X114258420Y-125404220D01*
X114169520Y-125404220D01*
X114083160Y-125406760D01*
X114006960Y-125409300D01*
X113953620Y-125411840D01*
X113930760Y-125416920D01*
X113928220Y-125419460D01*
X113920600Y-125447400D01*
X113907900Y-125508360D01*
X113890120Y-125589640D01*
X113872340Y-125688700D01*
X113869800Y-125706480D01*
X113852020Y-125800460D01*
X113834240Y-125879200D01*
X113824080Y-125932540D01*
X113816460Y-125952860D01*
X113808840Y-125957940D01*
X113770740Y-125975720D01*
X113707240Y-126001120D01*
X113625960Y-126034140D01*
X113443080Y-126107800D01*
X113219560Y-125952860D01*
X113199240Y-125940160D01*
X113117960Y-125884280D01*
X113051920Y-125841100D01*
X113006200Y-125810620D01*
X112985880Y-125800460D01*
X112963020Y-125820780D01*
X112917300Y-125861420D01*
X112856340Y-125922380D01*
X112787760Y-125990960D01*
X112734420Y-126044300D01*
X112673460Y-126107800D01*
X112632820Y-126148440D01*
X112612500Y-126176380D01*
X112604880Y-126194160D01*
X112607420Y-126204320D01*
X112620120Y-126227180D01*
X112653140Y-126275440D01*
X112698860Y-126344020D01*
X112754740Y-126422760D01*
X112800460Y-126491340D01*
X112848720Y-126565000D01*
X112879200Y-126618340D01*
X112891900Y-126646280D01*
X112889360Y-126656440D01*
X112871580Y-126699620D01*
X112846180Y-126768200D01*
X112813160Y-126846940D01*
X112734420Y-127024740D01*
X112617580Y-127045060D01*
X112546460Y-127060300D01*
X112447400Y-127078080D01*
X112353420Y-127095860D01*
X112206100Y-127126340D01*
X112201020Y-127664820D01*
X112223880Y-127674980D01*
X112246740Y-127682600D01*
X112300080Y-127692760D01*
X112378820Y-127708000D01*
X112470260Y-127725780D01*
X112549000Y-127741020D01*
X112627740Y-127756260D01*
X112683620Y-127766420D01*
X112709020Y-127771500D01*
X112716640Y-127781660D01*
X112736960Y-127819760D01*
X112764900Y-127880720D01*
X112795380Y-127954380D01*
X112825860Y-128028040D01*
X112853800Y-128099160D01*
X112874120Y-128152500D01*
X112881740Y-128180440D01*
X112871580Y-128200760D01*
X112841100Y-128246480D01*
X112797920Y-128312520D01*
X112744580Y-128391260D01*
X112688700Y-128470000D01*
X112645520Y-128538580D01*
X112612500Y-128586840D01*
X112599800Y-128607160D01*
X112607420Y-128622400D01*
X112637900Y-128660500D01*
X112696320Y-128721460D01*
X112785220Y-128810360D01*
X112800460Y-128823060D01*
X112869040Y-128891640D01*
X112930000Y-128944980D01*
X112970640Y-128983080D01*
X112988420Y-128995780D01*
X112988420Y-128995780D01*
G37*
X112988420Y-128995780D02*
X113008740Y-128985620D01*
X113057000Y-128955140D01*
X113123040Y-128911960D01*
X113201780Y-128858620D01*
X113280520Y-128805280D01*
X113346560Y-128762100D01*
X113392280Y-128731620D01*
X113410060Y-128721460D01*
X113420220Y-128724000D01*
X113458320Y-128744320D01*
X113514200Y-128772260D01*
X113544680Y-128787500D01*
X113595480Y-128810360D01*
X113620880Y-128815440D01*
X113623420Y-128807820D01*
X113643740Y-128769720D01*
X113671680Y-128703680D01*
X113709780Y-128617320D01*
X113752960Y-128515720D01*
X113798680Y-128406500D01*
X113844400Y-128294740D01*
X113890120Y-128188060D01*
X113928220Y-128091540D01*
X113961240Y-128015340D01*
X113981560Y-127959460D01*
X113989180Y-127936600D01*
X113986640Y-127931520D01*
X113961240Y-127908660D01*
X113918060Y-127875640D01*
X113821540Y-127796900D01*
X113730100Y-127680060D01*
X113671680Y-127547980D01*
X113653900Y-127400660D01*
X113669140Y-127266040D01*
X113722480Y-127136500D01*
X113813920Y-127017120D01*
X113925680Y-126930760D01*
X114055220Y-126874880D01*
X114200000Y-126857100D01*
X114339700Y-126872340D01*
X114471780Y-126925680D01*
X114591160Y-127014580D01*
X114639420Y-127073000D01*
X114708000Y-127192380D01*
X114748640Y-127319380D01*
X114751180Y-127349860D01*
X114746100Y-127492100D01*
X114705460Y-127626720D01*
X114631800Y-127746100D01*
X114527660Y-127845160D01*
X114514960Y-127855320D01*
X114466700Y-127890880D01*
X114436220Y-127913740D01*
X114410820Y-127934060D01*
X114588620Y-128365860D01*
X114616560Y-128434440D01*
X114667360Y-128551280D01*
X114710540Y-128652880D01*
X114743560Y-128734160D01*
X114768960Y-128787500D01*
X114779120Y-128810360D01*
X114794360Y-128812900D01*
X114827380Y-128800200D01*
X114888340Y-128772260D01*
X114928980Y-128751940D01*
X114974700Y-128729080D01*
X114995020Y-128721460D01*
X115012800Y-128731620D01*
X115055980Y-128759560D01*
X115119480Y-128802740D01*
X115195680Y-128853540D01*
X115269340Y-128904340D01*
X115337920Y-128950060D01*
X115386180Y-128980540D01*
X115411580Y-128993240D01*
X115414120Y-128993240D01*
X115434440Y-128980540D01*
X115475080Y-128950060D01*
X115533500Y-128894180D01*
X115614780Y-128812900D01*
X115627480Y-128800200D01*
X115696060Y-128729080D01*
X115751940Y-128670660D01*
X115790040Y-128630020D01*
X115802740Y-128612240D01*
X115790040Y-128586840D01*
X115759560Y-128538580D01*
X115713840Y-128470000D01*
X115660500Y-128391260D01*
X115518260Y-128182980D01*
X115597000Y-127987400D01*
X115619860Y-127928980D01*
X115650340Y-127855320D01*
X115673200Y-127804520D01*
X115685900Y-127781660D01*
X115706220Y-127774040D01*
X115759560Y-127761340D01*
X115838300Y-127743560D01*
X115929740Y-127728320D01*
X116018640Y-127710540D01*
X116097380Y-127695300D01*
X116155800Y-127685140D01*
X116181200Y-127680060D01*
X116186280Y-127674980D01*
X116191360Y-127662280D01*
X116196440Y-127636880D01*
X116196440Y-127588620D01*
X116198980Y-127512420D01*
X116198980Y-127400660D01*
X116198980Y-127390500D01*
X116196440Y-127283820D01*
X116196440Y-127200000D01*
X116193900Y-127146660D01*
X116188820Y-127126340D01*
X116163420Y-127118720D01*
X116107540Y-127108560D01*
X116028800Y-127090780D01*
X115932280Y-127073000D01*
X115927200Y-127073000D01*
X115833220Y-127055220D01*
X115754480Y-127037440D01*
X115698600Y-127024740D01*
X115675740Y-127017120D01*
X115670660Y-127012040D01*
X115650340Y-126973940D01*
X115622400Y-126915520D01*
X115591920Y-126844400D01*
X115561440Y-126770740D01*
X115533500Y-126702160D01*
X115515720Y-126653900D01*
X115510640Y-126631040D01*
X115525880Y-126608180D01*
X115558900Y-126557380D01*
X115604620Y-126491340D01*
X115660500Y-126410060D01*
X115663040Y-126402440D01*
X115718920Y-126323700D01*
X115762100Y-126255120D01*
X115792580Y-126206860D01*
X115802740Y-126186540D01*
X115802740Y-126184000D01*
X115784960Y-126161140D01*
X115744320Y-126115420D01*
X115685900Y-126054460D01*
X115614780Y-125983340D01*
X115591920Y-125963020D01*
X115515720Y-125886820D01*
X115462380Y-125836020D01*
X115426820Y-125810620D01*
X115411580Y-125803000D01*
X115411580Y-125805540D01*
X115386180Y-125818240D01*
X115335380Y-125851260D01*
X115266800Y-125899520D01*
X115185520Y-125952860D01*
X115180440Y-125957940D01*
X115101700Y-126011280D01*
X115035660Y-126057000D01*
X114987400Y-126087480D01*
X114967080Y-126100180D01*
X114962000Y-126100180D01*
X114931520Y-126090020D01*
X114873100Y-126072240D01*
X114804520Y-126044300D01*
X114730860Y-126013820D01*
X114662280Y-125985880D01*
X114611480Y-125963020D01*
X114588620Y-125950320D01*
X114588620Y-125947780D01*
X114578460Y-125919840D01*
X114565760Y-125858880D01*
X114547980Y-125777600D01*
X114530200Y-125678540D01*
X114527660Y-125663300D01*
X114509880Y-125569320D01*
X114494640Y-125490580D01*
X114481940Y-125434700D01*
X114476860Y-125411840D01*
X114464160Y-125409300D01*
X114415900Y-125406760D01*
X114344780Y-125404220D01*
X114258420Y-125404220D01*
X114169520Y-125404220D01*
X114083160Y-125406760D01*
X114006960Y-125409300D01*
X113953620Y-125411840D01*
X113930760Y-125416920D01*
X113928220Y-125419460D01*
X113920600Y-125447400D01*
X113907900Y-125508360D01*
X113890120Y-125589640D01*
X113872340Y-125688700D01*
X113869800Y-125706480D01*
X113852020Y-125800460D01*
X113834240Y-125879200D01*
X113824080Y-125932540D01*
X113816460Y-125952860D01*
X113808840Y-125957940D01*
X113770740Y-125975720D01*
X113707240Y-126001120D01*
X113625960Y-126034140D01*
X113443080Y-126107800D01*
X113219560Y-125952860D01*
X113199240Y-125940160D01*
X113117960Y-125884280D01*
X113051920Y-125841100D01*
X113006200Y-125810620D01*
X112985880Y-125800460D01*
X112963020Y-125820780D01*
X112917300Y-125861420D01*
X112856340Y-125922380D01*
X112787760Y-125990960D01*
X112734420Y-126044300D01*
X112673460Y-126107800D01*
X112632820Y-126148440D01*
X112612500Y-126176380D01*
X112604880Y-126194160D01*
X112607420Y-126204320D01*
X112620120Y-126227180D01*
X112653140Y-126275440D01*
X112698860Y-126344020D01*
X112754740Y-126422760D01*
X112800460Y-126491340D01*
X112848720Y-126565000D01*
X112879200Y-126618340D01*
X112891900Y-126646280D01*
X112889360Y-126656440D01*
X112871580Y-126699620D01*
X112846180Y-126768200D01*
X112813160Y-126846940D01*
X112734420Y-127024740D01*
X112617580Y-127045060D01*
X112546460Y-127060300D01*
X112447400Y-127078080D01*
X112353420Y-127095860D01*
X112206100Y-127126340D01*
X112201020Y-127664820D01*
X112223880Y-127674980D01*
X112246740Y-127682600D01*
X112300080Y-127692760D01*
X112378820Y-127708000D01*
X112470260Y-127725780D01*
X112549000Y-127741020D01*
X112627740Y-127756260D01*
X112683620Y-127766420D01*
X112709020Y-127771500D01*
X112716640Y-127781660D01*
X112736960Y-127819760D01*
X112764900Y-127880720D01*
X112795380Y-127954380D01*
X112825860Y-128028040D01*
X112853800Y-128099160D01*
X112874120Y-128152500D01*
X112881740Y-128180440D01*
X112871580Y-128200760D01*
X112841100Y-128246480D01*
X112797920Y-128312520D01*
X112744580Y-128391260D01*
X112688700Y-128470000D01*
X112645520Y-128538580D01*
X112612500Y-128586840D01*
X112599800Y-128607160D01*
X112607420Y-128622400D01*
X112637900Y-128660500D01*
X112696320Y-128721460D01*
X112785220Y-128810360D01*
X112800460Y-128823060D01*
X112869040Y-128891640D01*
X112930000Y-128944980D01*
X112970640Y-128983080D01*
X112988420Y-128995780D01*
D14*
X109790000Y-105262779D02*
X109790000Y-104937221D01*
X110810000Y-105262779D02*
X110810000Y-104937221D01*
X102510000Y-101650279D02*
X102510000Y-101324721D01*
X101490000Y-101650279D02*
X101490000Y-101324721D01*
X107662779Y-107090000D02*
X107337221Y-107090000D01*
X107662779Y-108110000D02*
X107337221Y-108110000D01*
X117890000Y-116262779D02*
X117890000Y-115937221D01*
X118910000Y-116262779D02*
X118910000Y-115937221D01*
X120310000Y-123162779D02*
X120310000Y-122837221D01*
X119290000Y-123162779D02*
X119290000Y-122837221D01*
D15*
X121799360Y-99600640D02*
X116800640Y-99600640D01*
X116800640Y-99600640D02*
X116800640Y-104599360D01*
X116800640Y-104599360D02*
X121799360Y-104599360D01*
X121799360Y-104599360D02*
X121799360Y-99600640D01*
D12*
X119300000Y-104600000D02*
X116800000Y-102100000D01*
D15*
X109500000Y-93250000D02*
X109500000Y-92400000D01*
X109500000Y-92400000D02*
X109500000Y-92350000D01*
X102500000Y-93250000D02*
X102500000Y-92350000D01*
X111250000Y-93050000D02*
X101500000Y-93050000D01*
X109500000Y-92400000D02*
G75*
G02X110000000Y-91900000I500000J0D01*
G01*
X109900000Y-91600000D02*
G75*
G03X109100000Y-92400000I0J-800000D01*
G01*
X109100000Y-92400000D02*
X109100000Y-92700000D01*
X109100000Y-92700000D02*
X108800000Y-92700000D01*
X108800000Y-92700000D02*
G75*
G03X108400000Y-92300000I-400000J0D01*
G01*
X102500000Y-93250000D02*
X102500000Y-92400000D01*
X102500000Y-92400000D02*
X102500000Y-92350000D01*
X102500000Y-92400000D02*
G75*
G03X102000000Y-91900000I-500000J0D01*
G01*
X102100000Y-91600000D02*
G75*
G02X102900000Y-92400000I0J-800000D01*
G01*
X102900000Y-92400000D02*
X102900000Y-92700000D01*
X102900000Y-92700000D02*
X103200000Y-92700000D01*
X103200000Y-92700000D02*
G75*
G02X103600000Y-92300000I400000J0D01*
G01*
X108400000Y-92300000D02*
X103700000Y-92300000D01*
D14*
X117562779Y-124310000D02*
X117237221Y-124310000D01*
X117562779Y-123290000D02*
X117237221Y-123290000D01*
X115710000Y-105237221D02*
X115710000Y-105562779D01*
X114690000Y-105237221D02*
X114690000Y-105562779D01*
D16*
X109130000Y-103000000D02*
G75*
G03X109130000Y-103000000I-130000J0D01*
G01*
D14*
X112865000Y-104600000D02*
X112865000Y-106885000D01*
X112865000Y-106885000D02*
X114335000Y-106885000D01*
X114335000Y-106885000D02*
X114335000Y-104600000D01*
X120910000Y-96330000D02*
X120910000Y-93670000D01*
X115770000Y-96330000D02*
X120910000Y-96330000D01*
X115770000Y-93670000D02*
X120910000Y-93670000D01*
X115770000Y-96330000D02*
X115770000Y-93670000D01*
X114500000Y-96330000D02*
X113170000Y-96330000D01*
X113170000Y-96330000D02*
X113170000Y-95000000D01*
X101670000Y-119950000D02*
X104330000Y-119950000D01*
X101670000Y-112270000D02*
X101670000Y-119950000D01*
X104330000Y-112270000D02*
X104330000Y-119950000D01*
X101670000Y-112270000D02*
X104330000Y-112270000D01*
X101670000Y-111000000D02*
X101670000Y-109670000D01*
X101670000Y-109670000D02*
X103000000Y-109670000D01*
D12*
X104399540Y-104663960D02*
X104399540Y-107336040D01*
X101600460Y-107336040D02*
X101600460Y-104663960D01*
X102870460Y-108098040D02*
X103129540Y-108098040D01*
X103129540Y-103901960D02*
X102870460Y-103901960D01*
D15*
X103802640Y-106000000D02*
G75*
G03X103802640Y-106000000I-802640J0D01*
G01*
D14*
X119140000Y-107800000D02*
X119140000Y-109700000D01*
X121460000Y-109200000D02*
X121460000Y-107800000D01*
X103190000Y-101758578D02*
X103190000Y-101241422D01*
X104610000Y-101758578D02*
X104610000Y-101241422D01*
M02*
