%TF.GenerationSoftware,KiCad,Pcbnew,7.0.2-6a45011f42~172~ubuntu22.04.1*%
%TF.CreationDate,2023-05-13T10:54:32-06:00*%
%TF.ProjectId,ring-50mm,72696e67-2d35-4306-9d6d-2e6b69636164,rev?*%
%TF.SameCoordinates,Original*%
%TF.FileFunction,Drillmap*%
%TF.FilePolarity,Positive*%
%FSLAX45Y45*%
G04 Gerber Fmt 4.5, Leading zero omitted, Abs format (unit mm)*
G04 Created by KiCad (PCBNEW 7.0.2-6a45011f42~172~ubuntu22.04.1) date 2023-05-13 10:54:32*
%MOMM*%
%LPD*%
G01*
G04 APERTURE LIST*
%ADD10C,0.100000*%
%ADD11C,0.200000*%
%ADD12C,0.030000*%
G04 APERTURE END LIST*
D10*
X15570000Y-12080000D02*
X14700000Y-12080000D01*
X15570000Y-11720000D02*
X15570000Y-12080000D01*
X15570000Y-11720000D02*
G75*
G03*
X15570000Y-6780000I-440000J2470000D01*
G01*
X14700000Y-12080000D02*
X14700000Y-11720000D01*
X15570000Y-6420000D02*
X15570000Y-6780000D01*
X14700000Y-6780000D02*
X14700000Y-6420000D01*
X14700000Y-6780000D02*
G75*
G03*
X14700000Y-11720000I430000J-2470000D01*
G01*
X14700000Y-6420000D02*
X15570000Y-6420000D01*
X17230000Y-9250000D02*
G75*
G03*
X17230000Y-9250000I-2100000J0D01*
G01*
D11*
D12*
X12755000Y-9105000D02*
X12785000Y-9135000D01*
X12785000Y-9105000D02*
X12755000Y-9135000D01*
X12805000Y-9725000D02*
X12835000Y-9755000D01*
X12835000Y-9725000D02*
X12805000Y-9755000D01*
X12835000Y-9345000D02*
X12865000Y-9375000D01*
X12865000Y-9345000D02*
X12835000Y-9375000D01*
X12865000Y-8495000D02*
X12895000Y-8525000D01*
X12895000Y-8495000D02*
X12865000Y-8525000D01*
X12885000Y-8745000D02*
X12915000Y-8775000D01*
X12915000Y-8745000D02*
X12885000Y-8775000D01*
X12915000Y-9125000D02*
X12945000Y-9155000D01*
X12945000Y-9125000D02*
X12915000Y-9155000D01*
X12945000Y-9925000D02*
X12975000Y-9955000D01*
X12975000Y-9925000D02*
X12945000Y-9955000D01*
X12965000Y-9705000D02*
X12995000Y-9735000D01*
X12995000Y-9705000D02*
X12965000Y-9735000D01*
X13025000Y-8545000D02*
X13055000Y-8575000D01*
X13055000Y-8545000D02*
X13025000Y-8575000D01*
X13025000Y-10305000D02*
X13055000Y-10335000D01*
X13055000Y-10305000D02*
X13025000Y-10335000D01*
X13085000Y-8175000D02*
X13115000Y-8205000D01*
X13115000Y-8175000D02*
X13085000Y-8205000D01*
X13125000Y-7925000D02*
X13155000Y-7955000D01*
X13155000Y-7925000D02*
X13125000Y-7955000D01*
X13155000Y-10235000D02*
X13185000Y-10265000D01*
X13185000Y-10235000D02*
X13155000Y-10265000D01*
X13205000Y-10475000D02*
X13235000Y-10505000D01*
X13235000Y-10475000D02*
X13205000Y-10505000D01*
X13265000Y-8035000D02*
X13295000Y-8065000D01*
X13295000Y-8035000D02*
X13265000Y-8065000D01*
X13355000Y-10805000D02*
X13385000Y-10835000D01*
X13385000Y-10805000D02*
X13355000Y-10835000D01*
X13435000Y-7695000D02*
X13465000Y-7725000D01*
X13465000Y-7695000D02*
X13435000Y-7725000D01*
X13485000Y-10715000D02*
X13515000Y-10745000D01*
X13515000Y-10715000D02*
X13485000Y-10745000D01*
X13525000Y-7435000D02*
X13555000Y-7465000D01*
X13555000Y-7435000D02*
X13525000Y-7465000D01*
X13585000Y-10925000D02*
X13615000Y-10955000D01*
X13615000Y-10925000D02*
X13585000Y-10955000D01*
X13645000Y-7595000D02*
X13675000Y-7625000D01*
X13675000Y-7595000D02*
X13645000Y-7625000D01*
X13835000Y-11215000D02*
X13865000Y-11245000D01*
X13865000Y-11215000D02*
X13835000Y-11245000D01*
X13885000Y-7305000D02*
X13915000Y-7335000D01*
X13915000Y-7305000D02*
X13885000Y-7335000D01*
X13925000Y-11085000D02*
X13955000Y-11115000D01*
X13955000Y-11085000D02*
X13925000Y-11115000D01*
X14055000Y-7095000D02*
X14085000Y-7125000D01*
X14085000Y-7095000D02*
X14055000Y-7125000D01*
X14085000Y-11275000D02*
X14115000Y-11305000D01*
X14115000Y-11275000D02*
X14085000Y-11305000D01*
X14115000Y-7265000D02*
X14145000Y-7295000D01*
X14145000Y-7265000D02*
X14115000Y-7295000D01*
X14395000Y-11485000D02*
X14425000Y-11515000D01*
X14425000Y-11485000D02*
X14395000Y-11515000D01*
X14435000Y-7055000D02*
X14465000Y-7085000D01*
X14465000Y-7055000D02*
X14435000Y-7085000D01*
X14435000Y-11325000D02*
X14465000Y-11355000D01*
X14465000Y-11325000D02*
X14435000Y-11355000D01*
X14635000Y-6885000D02*
X14665000Y-6915000D01*
X14665000Y-6885000D02*
X14635000Y-6915000D01*
X14645000Y-11495000D02*
X14675000Y-11525000D01*
X14675000Y-11495000D02*
X14645000Y-11525000D01*
X14965000Y-6835000D02*
X14995000Y-6865000D01*
X14995000Y-6835000D02*
X14965000Y-6865000D01*
X15005000Y-11575000D02*
X15035000Y-11605000D01*
X15035000Y-11575000D02*
X15005000Y-11605000D01*
X15005000Y-11675000D02*
X15035000Y-11705000D01*
X15035000Y-11675000D02*
X15005000Y-11705000D01*
X15015000Y-11435000D02*
X15045000Y-11465000D01*
X15045000Y-11435000D02*
X15015000Y-11465000D01*
X15245000Y-11515000D02*
X15275000Y-11545000D01*
X15275000Y-11515000D02*
X15245000Y-11545000D01*
X15255000Y-6845000D02*
X15285000Y-6875000D01*
X15285000Y-6845000D02*
X15255000Y-6875000D01*
X15255000Y-7055000D02*
X15285000Y-7085000D01*
X15285000Y-7055000D02*
X15255000Y-7085000D01*
X15585000Y-11395000D02*
X15615000Y-11425000D01*
X15615000Y-11395000D02*
X15585000Y-11425000D01*
X15605000Y-6995000D02*
X15635000Y-7025000D01*
X15635000Y-6995000D02*
X15605000Y-7025000D01*
X15615000Y-11555000D02*
X15645000Y-11585000D01*
X15645000Y-11555000D02*
X15615000Y-11585000D01*
X15815000Y-7135000D02*
X15845000Y-7165000D01*
X15845000Y-7135000D02*
X15815000Y-7165000D01*
X15825000Y-11415000D02*
X15855000Y-11445000D01*
X15855000Y-11415000D02*
X15825000Y-11445000D01*
X15855000Y-6965000D02*
X15885000Y-6995000D01*
X15885000Y-6965000D02*
X15855000Y-6995000D01*
X16135000Y-11205000D02*
X16165000Y-11235000D01*
X16165000Y-11205000D02*
X16135000Y-11235000D01*
X16175000Y-7185000D02*
X16205000Y-7215000D01*
X16205000Y-7185000D02*
X16175000Y-7215000D01*
X16205000Y-11355000D02*
X16235000Y-11385000D01*
X16235000Y-11355000D02*
X16205000Y-11385000D01*
X16325000Y-7385000D02*
X16355000Y-7415000D01*
X16355000Y-7385000D02*
X16325000Y-7415000D01*
X16375000Y-11155000D02*
X16405000Y-11185000D01*
X16405000Y-11155000D02*
X16375000Y-11185000D01*
X16425000Y-7235000D02*
X16455000Y-7265000D01*
X16455000Y-7235000D02*
X16425000Y-7265000D01*
X16615000Y-10875000D02*
X16645000Y-10905000D01*
X16645000Y-10875000D02*
X16615000Y-10905000D01*
X16675000Y-7535000D02*
X16705000Y-7565000D01*
X16705000Y-7535000D02*
X16675000Y-7565000D01*
X16715000Y-11005000D02*
X16745000Y-11035000D01*
X16745000Y-11005000D02*
X16715000Y-11035000D01*
X16765000Y-7755000D02*
X16795000Y-7785000D01*
X16795000Y-7755000D02*
X16765000Y-7785000D01*
X16835000Y-10775000D02*
X16865000Y-10805000D01*
X16865000Y-10775000D02*
X16835000Y-10805000D01*
X16895000Y-7635000D02*
X16925000Y-7665000D01*
X16925000Y-7635000D02*
X16895000Y-7665000D01*
X16985000Y-10435000D02*
X17015000Y-10465000D01*
X17015000Y-10435000D02*
X16985000Y-10465000D01*
X17055000Y-7995000D02*
X17085000Y-8025000D01*
X17085000Y-7995000D02*
X17055000Y-8025000D01*
X17095000Y-8225000D02*
X17125000Y-8255000D01*
X17125000Y-8225000D02*
X17095000Y-8255000D01*
X17125000Y-10525000D02*
X17155000Y-10555000D01*
X17155000Y-10525000D02*
X17125000Y-10555000D01*
X17175000Y-10275000D02*
X17205000Y-10305000D01*
X17205000Y-10275000D02*
X17175000Y-10305000D01*
X17225000Y-9915000D02*
X17255000Y-9945000D01*
X17255000Y-9915000D02*
X17225000Y-9945000D01*
X17245000Y-8155000D02*
X17275000Y-8185000D01*
X17275000Y-8155000D02*
X17245000Y-8185000D01*
X17285000Y-8765000D02*
X17315000Y-8795000D01*
X17315000Y-8765000D02*
X17285000Y-8795000D01*
X17305000Y-8535000D02*
X17335000Y-8565000D01*
X17335000Y-8535000D02*
X17305000Y-8565000D01*
X17335000Y-9335000D02*
X17365000Y-9365000D01*
X17365000Y-9335000D02*
X17335000Y-9365000D01*
X17375000Y-9705000D02*
X17405000Y-9735000D01*
X17405000Y-9705000D02*
X17375000Y-9735000D01*
X17375000Y-9975000D02*
X17405000Y-10005000D01*
X17405000Y-9975000D02*
X17375000Y-10005000D01*
X17415000Y-9125000D02*
X17445000Y-9155000D01*
X17445000Y-9125000D02*
X17415000Y-9155000D01*
X17455000Y-8745000D02*
X17485000Y-8775000D01*
X17485000Y-8745000D02*
X17455000Y-8775000D01*
X17505000Y-9355000D02*
X17535000Y-9385000D01*
X17535000Y-9355000D02*
X17505000Y-9385000D01*
D10*
X14932000Y-6600000D02*
G75*
G03*
X14932000Y-6600000I-50000J0D01*
G01*
X14932000Y-11900000D02*
G75*
G03*
X14932000Y-11900000I-50000J0D01*
G01*
X15186000Y-6600000D02*
G75*
G03*
X15186000Y-6600000I-50000J0D01*
G01*
X15186000Y-11900000D02*
G75*
G03*
X15186000Y-11900000I-50000J0D01*
G01*
X15440000Y-6600000D02*
G75*
G03*
X15440000Y-6600000I-50000J0D01*
G01*
X15440000Y-11900000D02*
G75*
G03*
X15440000Y-11900000I-50000J0D01*
G01*
D11*
X12865469Y-12397524D02*
X12865469Y-12197524D01*
X12865469Y-12197524D02*
X12913088Y-12197524D01*
X12913088Y-12197524D02*
X12941660Y-12207048D01*
X12941660Y-12207048D02*
X12960707Y-12226095D01*
X12960707Y-12226095D02*
X12970231Y-12245143D01*
X12970231Y-12245143D02*
X12979755Y-12283238D01*
X12979755Y-12283238D02*
X12979755Y-12311809D01*
X12979755Y-12311809D02*
X12970231Y-12349905D01*
X12970231Y-12349905D02*
X12960707Y-12368952D01*
X12960707Y-12368952D02*
X12941660Y-12388000D01*
X12941660Y-12388000D02*
X12913088Y-12397524D01*
X12913088Y-12397524D02*
X12865469Y-12397524D01*
X13065469Y-12397524D02*
X13065469Y-12264190D01*
X13065469Y-12302286D02*
X13074993Y-12283238D01*
X13074993Y-12283238D02*
X13084517Y-12273714D01*
X13084517Y-12273714D02*
X13103564Y-12264190D01*
X13103564Y-12264190D02*
X13122612Y-12264190D01*
X13189279Y-12397524D02*
X13189279Y-12264190D01*
X13189279Y-12197524D02*
X13179755Y-12207048D01*
X13179755Y-12207048D02*
X13189279Y-12216571D01*
X13189279Y-12216571D02*
X13198803Y-12207048D01*
X13198803Y-12207048D02*
X13189279Y-12197524D01*
X13189279Y-12197524D02*
X13189279Y-12216571D01*
X13313088Y-12397524D02*
X13294041Y-12388000D01*
X13294041Y-12388000D02*
X13284517Y-12368952D01*
X13284517Y-12368952D02*
X13284517Y-12197524D01*
X13417850Y-12397524D02*
X13398803Y-12388000D01*
X13398803Y-12388000D02*
X13389279Y-12368952D01*
X13389279Y-12368952D02*
X13389279Y-12197524D01*
X13646422Y-12397524D02*
X13646422Y-12197524D01*
X13646422Y-12197524D02*
X13713088Y-12340381D01*
X13713088Y-12340381D02*
X13779755Y-12197524D01*
X13779755Y-12197524D02*
X13779755Y-12397524D01*
X13960707Y-12397524D02*
X13960707Y-12292762D01*
X13960707Y-12292762D02*
X13951184Y-12273714D01*
X13951184Y-12273714D02*
X13932136Y-12264190D01*
X13932136Y-12264190D02*
X13894041Y-12264190D01*
X13894041Y-12264190D02*
X13874993Y-12273714D01*
X13960707Y-12388000D02*
X13941660Y-12397524D01*
X13941660Y-12397524D02*
X13894041Y-12397524D01*
X13894041Y-12397524D02*
X13874993Y-12388000D01*
X13874993Y-12388000D02*
X13865469Y-12368952D01*
X13865469Y-12368952D02*
X13865469Y-12349905D01*
X13865469Y-12349905D02*
X13874993Y-12330857D01*
X13874993Y-12330857D02*
X13894041Y-12321333D01*
X13894041Y-12321333D02*
X13941660Y-12321333D01*
X13941660Y-12321333D02*
X13960707Y-12311809D01*
X14055945Y-12264190D02*
X14055945Y-12464190D01*
X14055945Y-12273714D02*
X14074993Y-12264190D01*
X14074993Y-12264190D02*
X14113088Y-12264190D01*
X14113088Y-12264190D02*
X14132136Y-12273714D01*
X14132136Y-12273714D02*
X14141660Y-12283238D01*
X14141660Y-12283238D02*
X14151184Y-12302286D01*
X14151184Y-12302286D02*
X14151184Y-12359428D01*
X14151184Y-12359428D02*
X14141660Y-12378476D01*
X14141660Y-12378476D02*
X14132136Y-12388000D01*
X14132136Y-12388000D02*
X14113088Y-12397524D01*
X14113088Y-12397524D02*
X14074993Y-12397524D01*
X14074993Y-12397524D02*
X14055945Y-12388000D01*
X14236898Y-12378476D02*
X14246422Y-12388000D01*
X14246422Y-12388000D02*
X14236898Y-12397524D01*
X14236898Y-12397524D02*
X14227374Y-12388000D01*
X14227374Y-12388000D02*
X14236898Y-12378476D01*
X14236898Y-12378476D02*
X14236898Y-12397524D01*
X14236898Y-12273714D02*
X14246422Y-12283238D01*
X14246422Y-12283238D02*
X14236898Y-12292762D01*
X14236898Y-12292762D02*
X14227374Y-12283238D01*
X14227374Y-12283238D02*
X14236898Y-12273714D01*
X14236898Y-12273714D02*
X14236898Y-12292762D01*
D12*
X12587850Y-12710000D02*
X12617850Y-12740000D01*
X12617850Y-12710000D02*
X12587850Y-12740000D01*
D11*
X12903564Y-12617524D02*
X12922612Y-12617524D01*
X12922612Y-12617524D02*
X12941660Y-12627048D01*
X12941660Y-12627048D02*
X12951184Y-12636571D01*
X12951184Y-12636571D02*
X12960707Y-12655619D01*
X12960707Y-12655619D02*
X12970231Y-12693714D01*
X12970231Y-12693714D02*
X12970231Y-12741333D01*
X12970231Y-12741333D02*
X12960707Y-12779428D01*
X12960707Y-12779428D02*
X12951184Y-12798476D01*
X12951184Y-12798476D02*
X12941660Y-12808000D01*
X12941660Y-12808000D02*
X12922612Y-12817524D01*
X12922612Y-12817524D02*
X12903564Y-12817524D01*
X12903564Y-12817524D02*
X12884517Y-12808000D01*
X12884517Y-12808000D02*
X12874993Y-12798476D01*
X12874993Y-12798476D02*
X12865469Y-12779428D01*
X12865469Y-12779428D02*
X12855945Y-12741333D01*
X12855945Y-12741333D02*
X12855945Y-12693714D01*
X12855945Y-12693714D02*
X12865469Y-12655619D01*
X12865469Y-12655619D02*
X12874993Y-12636571D01*
X12874993Y-12636571D02*
X12884517Y-12627048D01*
X12884517Y-12627048D02*
X12903564Y-12617524D01*
X13055945Y-12798476D02*
X13065469Y-12808000D01*
X13065469Y-12808000D02*
X13055945Y-12817524D01*
X13055945Y-12817524D02*
X13046422Y-12808000D01*
X13046422Y-12808000D02*
X13055945Y-12798476D01*
X13055945Y-12798476D02*
X13055945Y-12817524D01*
X13132136Y-12617524D02*
X13255945Y-12617524D01*
X13255945Y-12617524D02*
X13189279Y-12693714D01*
X13189279Y-12693714D02*
X13217850Y-12693714D01*
X13217850Y-12693714D02*
X13236898Y-12703238D01*
X13236898Y-12703238D02*
X13246422Y-12712762D01*
X13246422Y-12712762D02*
X13255945Y-12731809D01*
X13255945Y-12731809D02*
X13255945Y-12779428D01*
X13255945Y-12779428D02*
X13246422Y-12798476D01*
X13246422Y-12798476D02*
X13236898Y-12808000D01*
X13236898Y-12808000D02*
X13217850Y-12817524D01*
X13217850Y-12817524D02*
X13160707Y-12817524D01*
X13160707Y-12817524D02*
X13141660Y-12808000D01*
X13141660Y-12808000D02*
X13132136Y-12798476D01*
X13379755Y-12617524D02*
X13398803Y-12617524D01*
X13398803Y-12617524D02*
X13417850Y-12627048D01*
X13417850Y-12627048D02*
X13427374Y-12636571D01*
X13427374Y-12636571D02*
X13436898Y-12655619D01*
X13436898Y-12655619D02*
X13446422Y-12693714D01*
X13446422Y-12693714D02*
X13446422Y-12741333D01*
X13446422Y-12741333D02*
X13436898Y-12779428D01*
X13436898Y-12779428D02*
X13427374Y-12798476D01*
X13427374Y-12798476D02*
X13417850Y-12808000D01*
X13417850Y-12808000D02*
X13398803Y-12817524D01*
X13398803Y-12817524D02*
X13379755Y-12817524D01*
X13379755Y-12817524D02*
X13360707Y-12808000D01*
X13360707Y-12808000D02*
X13351184Y-12798476D01*
X13351184Y-12798476D02*
X13341660Y-12779428D01*
X13341660Y-12779428D02*
X13332136Y-12741333D01*
X13332136Y-12741333D02*
X13332136Y-12693714D01*
X13332136Y-12693714D02*
X13341660Y-12655619D01*
X13341660Y-12655619D02*
X13351184Y-12636571D01*
X13351184Y-12636571D02*
X13360707Y-12627048D01*
X13360707Y-12627048D02*
X13379755Y-12617524D01*
X13570231Y-12617524D02*
X13589279Y-12617524D01*
X13589279Y-12617524D02*
X13608326Y-12627048D01*
X13608326Y-12627048D02*
X13617850Y-12636571D01*
X13617850Y-12636571D02*
X13627374Y-12655619D01*
X13627374Y-12655619D02*
X13636898Y-12693714D01*
X13636898Y-12693714D02*
X13636898Y-12741333D01*
X13636898Y-12741333D02*
X13627374Y-12779428D01*
X13627374Y-12779428D02*
X13617850Y-12798476D01*
X13617850Y-12798476D02*
X13608326Y-12808000D01*
X13608326Y-12808000D02*
X13589279Y-12817524D01*
X13589279Y-12817524D02*
X13570231Y-12817524D01*
X13570231Y-12817524D02*
X13551184Y-12808000D01*
X13551184Y-12808000D02*
X13541660Y-12798476D01*
X13541660Y-12798476D02*
X13532136Y-12779428D01*
X13532136Y-12779428D02*
X13522612Y-12741333D01*
X13522612Y-12741333D02*
X13522612Y-12693714D01*
X13522612Y-12693714D02*
X13532136Y-12655619D01*
X13532136Y-12655619D02*
X13541660Y-12636571D01*
X13541660Y-12636571D02*
X13551184Y-12627048D01*
X13551184Y-12627048D02*
X13570231Y-12617524D01*
X13722612Y-12817524D02*
X13722612Y-12684190D01*
X13722612Y-12703238D02*
X13732136Y-12693714D01*
X13732136Y-12693714D02*
X13751184Y-12684190D01*
X13751184Y-12684190D02*
X13779755Y-12684190D01*
X13779755Y-12684190D02*
X13798803Y-12693714D01*
X13798803Y-12693714D02*
X13808326Y-12712762D01*
X13808326Y-12712762D02*
X13808326Y-12817524D01*
X13808326Y-12712762D02*
X13817850Y-12693714D01*
X13817850Y-12693714D02*
X13836898Y-12684190D01*
X13836898Y-12684190D02*
X13865469Y-12684190D01*
X13865469Y-12684190D02*
X13884517Y-12693714D01*
X13884517Y-12693714D02*
X13894041Y-12712762D01*
X13894041Y-12712762D02*
X13894041Y-12817524D01*
X13989279Y-12817524D02*
X13989279Y-12684190D01*
X13989279Y-12703238D02*
X13998803Y-12693714D01*
X13998803Y-12693714D02*
X14017850Y-12684190D01*
X14017850Y-12684190D02*
X14046422Y-12684190D01*
X14046422Y-12684190D02*
X14065469Y-12693714D01*
X14065469Y-12693714D02*
X14074993Y-12712762D01*
X14074993Y-12712762D02*
X14074993Y-12817524D01*
X14074993Y-12712762D02*
X14084517Y-12693714D01*
X14084517Y-12693714D02*
X14103565Y-12684190D01*
X14103565Y-12684190D02*
X14132136Y-12684190D01*
X14132136Y-12684190D02*
X14151184Y-12693714D01*
X14151184Y-12693714D02*
X14160707Y-12712762D01*
X14160707Y-12712762D02*
X14160707Y-12817524D01*
X14551184Y-12608000D02*
X14379755Y-12865143D01*
X14808327Y-12617524D02*
X14827374Y-12617524D01*
X14827374Y-12617524D02*
X14846422Y-12627048D01*
X14846422Y-12627048D02*
X14855946Y-12636571D01*
X14855946Y-12636571D02*
X14865469Y-12655619D01*
X14865469Y-12655619D02*
X14874993Y-12693714D01*
X14874993Y-12693714D02*
X14874993Y-12741333D01*
X14874993Y-12741333D02*
X14865469Y-12779428D01*
X14865469Y-12779428D02*
X14855946Y-12798476D01*
X14855946Y-12798476D02*
X14846422Y-12808000D01*
X14846422Y-12808000D02*
X14827374Y-12817524D01*
X14827374Y-12817524D02*
X14808327Y-12817524D01*
X14808327Y-12817524D02*
X14789279Y-12808000D01*
X14789279Y-12808000D02*
X14779755Y-12798476D01*
X14779755Y-12798476D02*
X14770231Y-12779428D01*
X14770231Y-12779428D02*
X14760708Y-12741333D01*
X14760708Y-12741333D02*
X14760708Y-12693714D01*
X14760708Y-12693714D02*
X14770231Y-12655619D01*
X14770231Y-12655619D02*
X14779755Y-12636571D01*
X14779755Y-12636571D02*
X14789279Y-12627048D01*
X14789279Y-12627048D02*
X14808327Y-12617524D01*
X14960708Y-12798476D02*
X14970231Y-12808000D01*
X14970231Y-12808000D02*
X14960708Y-12817524D01*
X14960708Y-12817524D02*
X14951184Y-12808000D01*
X14951184Y-12808000D02*
X14960708Y-12798476D01*
X14960708Y-12798476D02*
X14960708Y-12817524D01*
X15094041Y-12617524D02*
X15113089Y-12617524D01*
X15113089Y-12617524D02*
X15132136Y-12627048D01*
X15132136Y-12627048D02*
X15141660Y-12636571D01*
X15141660Y-12636571D02*
X15151184Y-12655619D01*
X15151184Y-12655619D02*
X15160708Y-12693714D01*
X15160708Y-12693714D02*
X15160708Y-12741333D01*
X15160708Y-12741333D02*
X15151184Y-12779428D01*
X15151184Y-12779428D02*
X15141660Y-12798476D01*
X15141660Y-12798476D02*
X15132136Y-12808000D01*
X15132136Y-12808000D02*
X15113089Y-12817524D01*
X15113089Y-12817524D02*
X15094041Y-12817524D01*
X15094041Y-12817524D02*
X15074993Y-12808000D01*
X15074993Y-12808000D02*
X15065469Y-12798476D01*
X15065469Y-12798476D02*
X15055946Y-12779428D01*
X15055946Y-12779428D02*
X15046422Y-12741333D01*
X15046422Y-12741333D02*
X15046422Y-12693714D01*
X15046422Y-12693714D02*
X15055946Y-12655619D01*
X15055946Y-12655619D02*
X15065469Y-12636571D01*
X15065469Y-12636571D02*
X15074993Y-12627048D01*
X15074993Y-12627048D02*
X15094041Y-12617524D01*
X15351184Y-12817524D02*
X15236898Y-12817524D01*
X15294041Y-12817524D02*
X15294041Y-12617524D01*
X15294041Y-12617524D02*
X15274993Y-12646095D01*
X15274993Y-12646095D02*
X15255946Y-12665143D01*
X15255946Y-12665143D02*
X15236898Y-12674667D01*
X15541660Y-12817524D02*
X15427374Y-12817524D01*
X15484517Y-12817524D02*
X15484517Y-12617524D01*
X15484517Y-12617524D02*
X15465469Y-12646095D01*
X15465469Y-12646095D02*
X15446422Y-12665143D01*
X15446422Y-12665143D02*
X15427374Y-12674667D01*
X15655946Y-12703238D02*
X15636898Y-12693714D01*
X15636898Y-12693714D02*
X15627374Y-12684190D01*
X15627374Y-12684190D02*
X15617850Y-12665143D01*
X15617850Y-12665143D02*
X15617850Y-12655619D01*
X15617850Y-12655619D02*
X15627374Y-12636571D01*
X15627374Y-12636571D02*
X15636898Y-12627048D01*
X15636898Y-12627048D02*
X15655946Y-12617524D01*
X15655946Y-12617524D02*
X15694041Y-12617524D01*
X15694041Y-12617524D02*
X15713089Y-12627048D01*
X15713089Y-12627048D02*
X15722612Y-12636571D01*
X15722612Y-12636571D02*
X15732136Y-12655619D01*
X15732136Y-12655619D02*
X15732136Y-12665143D01*
X15732136Y-12665143D02*
X15722612Y-12684190D01*
X15722612Y-12684190D02*
X15713089Y-12693714D01*
X15713089Y-12693714D02*
X15694041Y-12703238D01*
X15694041Y-12703238D02*
X15655946Y-12703238D01*
X15655946Y-12703238D02*
X15636898Y-12712762D01*
X15636898Y-12712762D02*
X15627374Y-12722286D01*
X15627374Y-12722286D02*
X15617850Y-12741333D01*
X15617850Y-12741333D02*
X15617850Y-12779428D01*
X15617850Y-12779428D02*
X15627374Y-12798476D01*
X15627374Y-12798476D02*
X15636898Y-12808000D01*
X15636898Y-12808000D02*
X15655946Y-12817524D01*
X15655946Y-12817524D02*
X15694041Y-12817524D01*
X15694041Y-12817524D02*
X15713089Y-12808000D01*
X15713089Y-12808000D02*
X15722612Y-12798476D01*
X15722612Y-12798476D02*
X15732136Y-12779428D01*
X15732136Y-12779428D02*
X15732136Y-12741333D01*
X15732136Y-12741333D02*
X15722612Y-12722286D01*
X15722612Y-12722286D02*
X15713089Y-12712762D01*
X15713089Y-12712762D02*
X15694041Y-12703238D01*
X15808327Y-12617524D02*
X15808327Y-12655619D01*
X15884517Y-12617524D02*
X15884517Y-12655619D01*
X16179755Y-12893714D02*
X16170231Y-12884190D01*
X16170231Y-12884190D02*
X16151184Y-12855619D01*
X16151184Y-12855619D02*
X16141660Y-12836571D01*
X16141660Y-12836571D02*
X16132136Y-12808000D01*
X16132136Y-12808000D02*
X16122612Y-12760381D01*
X16122612Y-12760381D02*
X16122612Y-12722286D01*
X16122612Y-12722286D02*
X16132136Y-12674667D01*
X16132136Y-12674667D02*
X16141660Y-12646095D01*
X16141660Y-12646095D02*
X16151184Y-12627048D01*
X16151184Y-12627048D02*
X16170231Y-12598476D01*
X16170231Y-12598476D02*
X16179755Y-12588952D01*
X16236898Y-12617524D02*
X16370231Y-12617524D01*
X16370231Y-12617524D02*
X16284517Y-12817524D01*
X16436898Y-12636571D02*
X16446422Y-12627048D01*
X16446422Y-12627048D02*
X16465470Y-12617524D01*
X16465470Y-12617524D02*
X16513089Y-12617524D01*
X16513089Y-12617524D02*
X16532136Y-12627048D01*
X16532136Y-12627048D02*
X16541660Y-12636571D01*
X16541660Y-12636571D02*
X16551184Y-12655619D01*
X16551184Y-12655619D02*
X16551184Y-12674667D01*
X16551184Y-12674667D02*
X16541660Y-12703238D01*
X16541660Y-12703238D02*
X16427374Y-12817524D01*
X16427374Y-12817524D02*
X16551184Y-12817524D01*
X16789279Y-12817524D02*
X16789279Y-12617524D01*
X16874994Y-12817524D02*
X16874994Y-12712762D01*
X16874994Y-12712762D02*
X16865470Y-12693714D01*
X16865470Y-12693714D02*
X16846422Y-12684190D01*
X16846422Y-12684190D02*
X16817851Y-12684190D01*
X16817851Y-12684190D02*
X16798803Y-12693714D01*
X16798803Y-12693714D02*
X16789279Y-12703238D01*
X16998803Y-12817524D02*
X16979755Y-12808000D01*
X16979755Y-12808000D02*
X16970232Y-12798476D01*
X16970232Y-12798476D02*
X16960708Y-12779428D01*
X16960708Y-12779428D02*
X16960708Y-12722286D01*
X16960708Y-12722286D02*
X16970232Y-12703238D01*
X16970232Y-12703238D02*
X16979755Y-12693714D01*
X16979755Y-12693714D02*
X16998803Y-12684190D01*
X16998803Y-12684190D02*
X17027375Y-12684190D01*
X17027375Y-12684190D02*
X17046422Y-12693714D01*
X17046422Y-12693714D02*
X17055946Y-12703238D01*
X17055946Y-12703238D02*
X17065470Y-12722286D01*
X17065470Y-12722286D02*
X17065470Y-12779428D01*
X17065470Y-12779428D02*
X17055946Y-12798476D01*
X17055946Y-12798476D02*
X17046422Y-12808000D01*
X17046422Y-12808000D02*
X17027375Y-12817524D01*
X17027375Y-12817524D02*
X16998803Y-12817524D01*
X17179755Y-12817524D02*
X17160708Y-12808000D01*
X17160708Y-12808000D02*
X17151184Y-12788952D01*
X17151184Y-12788952D02*
X17151184Y-12617524D01*
X17332136Y-12808000D02*
X17313089Y-12817524D01*
X17313089Y-12817524D02*
X17274994Y-12817524D01*
X17274994Y-12817524D02*
X17255946Y-12808000D01*
X17255946Y-12808000D02*
X17246422Y-12788952D01*
X17246422Y-12788952D02*
X17246422Y-12712762D01*
X17246422Y-12712762D02*
X17255946Y-12693714D01*
X17255946Y-12693714D02*
X17274994Y-12684190D01*
X17274994Y-12684190D02*
X17313089Y-12684190D01*
X17313089Y-12684190D02*
X17332136Y-12693714D01*
X17332136Y-12693714D02*
X17341660Y-12712762D01*
X17341660Y-12712762D02*
X17341660Y-12731809D01*
X17341660Y-12731809D02*
X17246422Y-12750857D01*
X17417851Y-12808000D02*
X17436898Y-12817524D01*
X17436898Y-12817524D02*
X17474994Y-12817524D01*
X17474994Y-12817524D02*
X17494041Y-12808000D01*
X17494041Y-12808000D02*
X17503565Y-12788952D01*
X17503565Y-12788952D02*
X17503565Y-12779428D01*
X17503565Y-12779428D02*
X17494041Y-12760381D01*
X17494041Y-12760381D02*
X17474994Y-12750857D01*
X17474994Y-12750857D02*
X17446422Y-12750857D01*
X17446422Y-12750857D02*
X17427375Y-12741333D01*
X17427375Y-12741333D02*
X17417851Y-12722286D01*
X17417851Y-12722286D02*
X17417851Y-12712762D01*
X17417851Y-12712762D02*
X17427375Y-12693714D01*
X17427375Y-12693714D02*
X17446422Y-12684190D01*
X17446422Y-12684190D02*
X17474994Y-12684190D01*
X17474994Y-12684190D02*
X17494041Y-12693714D01*
X17570232Y-12893714D02*
X17579756Y-12884190D01*
X17579756Y-12884190D02*
X17598803Y-12855619D01*
X17598803Y-12855619D02*
X17608327Y-12836571D01*
X17608327Y-12836571D02*
X17617851Y-12808000D01*
X17617851Y-12808000D02*
X17627375Y-12760381D01*
X17627375Y-12760381D02*
X17627375Y-12722286D01*
X17627375Y-12722286D02*
X17617851Y-12674667D01*
X17617851Y-12674667D02*
X17608327Y-12646095D01*
X17608327Y-12646095D02*
X17598803Y-12627048D01*
X17598803Y-12627048D02*
X17579756Y-12598476D01*
X17579756Y-12598476D02*
X17570232Y-12588952D01*
D10*
X12617850Y-12989000D02*
G75*
G03*
X12617850Y-12989000I-50000J0D01*
G01*
D11*
X12970231Y-13081524D02*
X12855945Y-13081524D01*
X12913088Y-13081524D02*
X12913088Y-12881524D01*
X12913088Y-12881524D02*
X12894041Y-12910095D01*
X12894041Y-12910095D02*
X12874993Y-12929143D01*
X12874993Y-12929143D02*
X12855945Y-12938667D01*
X13055945Y-13062476D02*
X13065469Y-13072000D01*
X13065469Y-13072000D02*
X13055945Y-13081524D01*
X13055945Y-13081524D02*
X13046422Y-13072000D01*
X13046422Y-13072000D02*
X13055945Y-13062476D01*
X13055945Y-13062476D02*
X13055945Y-13081524D01*
X13189279Y-12881524D02*
X13208326Y-12881524D01*
X13208326Y-12881524D02*
X13227374Y-12891048D01*
X13227374Y-12891048D02*
X13236898Y-12900571D01*
X13236898Y-12900571D02*
X13246422Y-12919619D01*
X13246422Y-12919619D02*
X13255945Y-12957714D01*
X13255945Y-12957714D02*
X13255945Y-13005333D01*
X13255945Y-13005333D02*
X13246422Y-13043428D01*
X13246422Y-13043428D02*
X13236898Y-13062476D01*
X13236898Y-13062476D02*
X13227374Y-13072000D01*
X13227374Y-13072000D02*
X13208326Y-13081524D01*
X13208326Y-13081524D02*
X13189279Y-13081524D01*
X13189279Y-13081524D02*
X13170231Y-13072000D01*
X13170231Y-13072000D02*
X13160707Y-13062476D01*
X13160707Y-13062476D02*
X13151184Y-13043428D01*
X13151184Y-13043428D02*
X13141660Y-13005333D01*
X13141660Y-13005333D02*
X13141660Y-12957714D01*
X13141660Y-12957714D02*
X13151184Y-12919619D01*
X13151184Y-12919619D02*
X13160707Y-12900571D01*
X13160707Y-12900571D02*
X13170231Y-12891048D01*
X13170231Y-12891048D02*
X13189279Y-12881524D01*
X13379755Y-12881524D02*
X13398803Y-12881524D01*
X13398803Y-12881524D02*
X13417850Y-12891048D01*
X13417850Y-12891048D02*
X13427374Y-12900571D01*
X13427374Y-12900571D02*
X13436898Y-12919619D01*
X13436898Y-12919619D02*
X13446422Y-12957714D01*
X13446422Y-12957714D02*
X13446422Y-13005333D01*
X13446422Y-13005333D02*
X13436898Y-13043428D01*
X13436898Y-13043428D02*
X13427374Y-13062476D01*
X13427374Y-13062476D02*
X13417850Y-13072000D01*
X13417850Y-13072000D02*
X13398803Y-13081524D01*
X13398803Y-13081524D02*
X13379755Y-13081524D01*
X13379755Y-13081524D02*
X13360707Y-13072000D01*
X13360707Y-13072000D02*
X13351184Y-13062476D01*
X13351184Y-13062476D02*
X13341660Y-13043428D01*
X13341660Y-13043428D02*
X13332136Y-13005333D01*
X13332136Y-13005333D02*
X13332136Y-12957714D01*
X13332136Y-12957714D02*
X13341660Y-12919619D01*
X13341660Y-12919619D02*
X13351184Y-12900571D01*
X13351184Y-12900571D02*
X13360707Y-12891048D01*
X13360707Y-12891048D02*
X13379755Y-12881524D01*
X13570231Y-12881524D02*
X13589279Y-12881524D01*
X13589279Y-12881524D02*
X13608326Y-12891048D01*
X13608326Y-12891048D02*
X13617850Y-12900571D01*
X13617850Y-12900571D02*
X13627374Y-12919619D01*
X13627374Y-12919619D02*
X13636898Y-12957714D01*
X13636898Y-12957714D02*
X13636898Y-13005333D01*
X13636898Y-13005333D02*
X13627374Y-13043428D01*
X13627374Y-13043428D02*
X13617850Y-13062476D01*
X13617850Y-13062476D02*
X13608326Y-13072000D01*
X13608326Y-13072000D02*
X13589279Y-13081524D01*
X13589279Y-13081524D02*
X13570231Y-13081524D01*
X13570231Y-13081524D02*
X13551184Y-13072000D01*
X13551184Y-13072000D02*
X13541660Y-13062476D01*
X13541660Y-13062476D02*
X13532136Y-13043428D01*
X13532136Y-13043428D02*
X13522612Y-13005333D01*
X13522612Y-13005333D02*
X13522612Y-12957714D01*
X13522612Y-12957714D02*
X13532136Y-12919619D01*
X13532136Y-12919619D02*
X13541660Y-12900571D01*
X13541660Y-12900571D02*
X13551184Y-12891048D01*
X13551184Y-12891048D02*
X13570231Y-12881524D01*
X13722612Y-13081524D02*
X13722612Y-12948190D01*
X13722612Y-12967238D02*
X13732136Y-12957714D01*
X13732136Y-12957714D02*
X13751184Y-12948190D01*
X13751184Y-12948190D02*
X13779755Y-12948190D01*
X13779755Y-12948190D02*
X13798803Y-12957714D01*
X13798803Y-12957714D02*
X13808326Y-12976762D01*
X13808326Y-12976762D02*
X13808326Y-13081524D01*
X13808326Y-12976762D02*
X13817850Y-12957714D01*
X13817850Y-12957714D02*
X13836898Y-12948190D01*
X13836898Y-12948190D02*
X13865469Y-12948190D01*
X13865469Y-12948190D02*
X13884517Y-12957714D01*
X13884517Y-12957714D02*
X13894041Y-12976762D01*
X13894041Y-12976762D02*
X13894041Y-13081524D01*
X13989279Y-13081524D02*
X13989279Y-12948190D01*
X13989279Y-12967238D02*
X13998803Y-12957714D01*
X13998803Y-12957714D02*
X14017850Y-12948190D01*
X14017850Y-12948190D02*
X14046422Y-12948190D01*
X14046422Y-12948190D02*
X14065469Y-12957714D01*
X14065469Y-12957714D02*
X14074993Y-12976762D01*
X14074993Y-12976762D02*
X14074993Y-13081524D01*
X14074993Y-12976762D02*
X14084517Y-12957714D01*
X14084517Y-12957714D02*
X14103565Y-12948190D01*
X14103565Y-12948190D02*
X14132136Y-12948190D01*
X14132136Y-12948190D02*
X14151184Y-12957714D01*
X14151184Y-12957714D02*
X14160707Y-12976762D01*
X14160707Y-12976762D02*
X14160707Y-13081524D01*
X14551184Y-12872000D02*
X14379755Y-13129143D01*
X14808327Y-12881524D02*
X14827374Y-12881524D01*
X14827374Y-12881524D02*
X14846422Y-12891048D01*
X14846422Y-12891048D02*
X14855946Y-12900571D01*
X14855946Y-12900571D02*
X14865469Y-12919619D01*
X14865469Y-12919619D02*
X14874993Y-12957714D01*
X14874993Y-12957714D02*
X14874993Y-13005333D01*
X14874993Y-13005333D02*
X14865469Y-13043428D01*
X14865469Y-13043428D02*
X14855946Y-13062476D01*
X14855946Y-13062476D02*
X14846422Y-13072000D01*
X14846422Y-13072000D02*
X14827374Y-13081524D01*
X14827374Y-13081524D02*
X14808327Y-13081524D01*
X14808327Y-13081524D02*
X14789279Y-13072000D01*
X14789279Y-13072000D02*
X14779755Y-13062476D01*
X14779755Y-13062476D02*
X14770231Y-13043428D01*
X14770231Y-13043428D02*
X14760708Y-13005333D01*
X14760708Y-13005333D02*
X14760708Y-12957714D01*
X14760708Y-12957714D02*
X14770231Y-12919619D01*
X14770231Y-12919619D02*
X14779755Y-12900571D01*
X14779755Y-12900571D02*
X14789279Y-12891048D01*
X14789279Y-12891048D02*
X14808327Y-12881524D01*
X14960708Y-13062476D02*
X14970231Y-13072000D01*
X14970231Y-13072000D02*
X14960708Y-13081524D01*
X14960708Y-13081524D02*
X14951184Y-13072000D01*
X14951184Y-13072000D02*
X14960708Y-13062476D01*
X14960708Y-13062476D02*
X14960708Y-13081524D01*
X15094041Y-12881524D02*
X15113089Y-12881524D01*
X15113089Y-12881524D02*
X15132136Y-12891048D01*
X15132136Y-12891048D02*
X15141660Y-12900571D01*
X15141660Y-12900571D02*
X15151184Y-12919619D01*
X15151184Y-12919619D02*
X15160708Y-12957714D01*
X15160708Y-12957714D02*
X15160708Y-13005333D01*
X15160708Y-13005333D02*
X15151184Y-13043428D01*
X15151184Y-13043428D02*
X15141660Y-13062476D01*
X15141660Y-13062476D02*
X15132136Y-13072000D01*
X15132136Y-13072000D02*
X15113089Y-13081524D01*
X15113089Y-13081524D02*
X15094041Y-13081524D01*
X15094041Y-13081524D02*
X15074993Y-13072000D01*
X15074993Y-13072000D02*
X15065469Y-13062476D01*
X15065469Y-13062476D02*
X15055946Y-13043428D01*
X15055946Y-13043428D02*
X15046422Y-13005333D01*
X15046422Y-13005333D02*
X15046422Y-12957714D01*
X15046422Y-12957714D02*
X15055946Y-12919619D01*
X15055946Y-12919619D02*
X15065469Y-12900571D01*
X15065469Y-12900571D02*
X15074993Y-12891048D01*
X15074993Y-12891048D02*
X15094041Y-12881524D01*
X15227374Y-12881524D02*
X15351184Y-12881524D01*
X15351184Y-12881524D02*
X15284517Y-12957714D01*
X15284517Y-12957714D02*
X15313089Y-12957714D01*
X15313089Y-12957714D02*
X15332136Y-12967238D01*
X15332136Y-12967238D02*
X15341660Y-12976762D01*
X15341660Y-12976762D02*
X15351184Y-12995809D01*
X15351184Y-12995809D02*
X15351184Y-13043428D01*
X15351184Y-13043428D02*
X15341660Y-13062476D01*
X15341660Y-13062476D02*
X15332136Y-13072000D01*
X15332136Y-13072000D02*
X15313089Y-13081524D01*
X15313089Y-13081524D02*
X15255946Y-13081524D01*
X15255946Y-13081524D02*
X15236898Y-13072000D01*
X15236898Y-13072000D02*
X15227374Y-13062476D01*
X15446422Y-13081524D02*
X15484517Y-13081524D01*
X15484517Y-13081524D02*
X15503565Y-13072000D01*
X15503565Y-13072000D02*
X15513089Y-13062476D01*
X15513089Y-13062476D02*
X15532136Y-13033905D01*
X15532136Y-13033905D02*
X15541660Y-12995809D01*
X15541660Y-12995809D02*
X15541660Y-12919619D01*
X15541660Y-12919619D02*
X15532136Y-12900571D01*
X15532136Y-12900571D02*
X15522612Y-12891048D01*
X15522612Y-12891048D02*
X15503565Y-12881524D01*
X15503565Y-12881524D02*
X15465469Y-12881524D01*
X15465469Y-12881524D02*
X15446422Y-12891048D01*
X15446422Y-12891048D02*
X15436898Y-12900571D01*
X15436898Y-12900571D02*
X15427374Y-12919619D01*
X15427374Y-12919619D02*
X15427374Y-12967238D01*
X15427374Y-12967238D02*
X15436898Y-12986286D01*
X15436898Y-12986286D02*
X15446422Y-12995809D01*
X15446422Y-12995809D02*
X15465469Y-13005333D01*
X15465469Y-13005333D02*
X15503565Y-13005333D01*
X15503565Y-13005333D02*
X15522612Y-12995809D01*
X15522612Y-12995809D02*
X15532136Y-12986286D01*
X15532136Y-12986286D02*
X15541660Y-12967238D01*
X15713089Y-12948190D02*
X15713089Y-13081524D01*
X15665469Y-12872000D02*
X15617850Y-13014857D01*
X15617850Y-13014857D02*
X15741660Y-13014857D01*
X15808327Y-12881524D02*
X15808327Y-12919619D01*
X15884517Y-12881524D02*
X15884517Y-12919619D01*
X16179755Y-13157714D02*
X16170231Y-13148190D01*
X16170231Y-13148190D02*
X16151184Y-13119619D01*
X16151184Y-13119619D02*
X16141660Y-13100571D01*
X16141660Y-13100571D02*
X16132136Y-13072000D01*
X16132136Y-13072000D02*
X16122612Y-13024381D01*
X16122612Y-13024381D02*
X16122612Y-12986286D01*
X16122612Y-12986286D02*
X16132136Y-12938667D01*
X16132136Y-12938667D02*
X16141660Y-12910095D01*
X16141660Y-12910095D02*
X16151184Y-12891048D01*
X16151184Y-12891048D02*
X16170231Y-12862476D01*
X16170231Y-12862476D02*
X16179755Y-12852952D01*
X16341660Y-12881524D02*
X16303565Y-12881524D01*
X16303565Y-12881524D02*
X16284517Y-12891048D01*
X16284517Y-12891048D02*
X16274993Y-12900571D01*
X16274993Y-12900571D02*
X16255946Y-12929143D01*
X16255946Y-12929143D02*
X16246422Y-12967238D01*
X16246422Y-12967238D02*
X16246422Y-13043428D01*
X16246422Y-13043428D02*
X16255946Y-13062476D01*
X16255946Y-13062476D02*
X16265470Y-13072000D01*
X16265470Y-13072000D02*
X16284517Y-13081524D01*
X16284517Y-13081524D02*
X16322612Y-13081524D01*
X16322612Y-13081524D02*
X16341660Y-13072000D01*
X16341660Y-13072000D02*
X16351184Y-13062476D01*
X16351184Y-13062476D02*
X16360708Y-13043428D01*
X16360708Y-13043428D02*
X16360708Y-12995809D01*
X16360708Y-12995809D02*
X16351184Y-12976762D01*
X16351184Y-12976762D02*
X16341660Y-12967238D01*
X16341660Y-12967238D02*
X16322612Y-12957714D01*
X16322612Y-12957714D02*
X16284517Y-12957714D01*
X16284517Y-12957714D02*
X16265470Y-12967238D01*
X16265470Y-12967238D02*
X16255946Y-12976762D01*
X16255946Y-12976762D02*
X16246422Y-12995809D01*
X16598803Y-13081524D02*
X16598803Y-12881524D01*
X16684517Y-13081524D02*
X16684517Y-12976762D01*
X16684517Y-12976762D02*
X16674993Y-12957714D01*
X16674993Y-12957714D02*
X16655946Y-12948190D01*
X16655946Y-12948190D02*
X16627374Y-12948190D01*
X16627374Y-12948190D02*
X16608327Y-12957714D01*
X16608327Y-12957714D02*
X16598803Y-12967238D01*
X16808327Y-13081524D02*
X16789279Y-13072000D01*
X16789279Y-13072000D02*
X16779755Y-13062476D01*
X16779755Y-13062476D02*
X16770232Y-13043428D01*
X16770232Y-13043428D02*
X16770232Y-12986286D01*
X16770232Y-12986286D02*
X16779755Y-12967238D01*
X16779755Y-12967238D02*
X16789279Y-12957714D01*
X16789279Y-12957714D02*
X16808327Y-12948190D01*
X16808327Y-12948190D02*
X16836898Y-12948190D01*
X16836898Y-12948190D02*
X16855946Y-12957714D01*
X16855946Y-12957714D02*
X16865470Y-12967238D01*
X16865470Y-12967238D02*
X16874994Y-12986286D01*
X16874994Y-12986286D02*
X16874994Y-13043428D01*
X16874994Y-13043428D02*
X16865470Y-13062476D01*
X16865470Y-13062476D02*
X16855946Y-13072000D01*
X16855946Y-13072000D02*
X16836898Y-13081524D01*
X16836898Y-13081524D02*
X16808327Y-13081524D01*
X16989279Y-13081524D02*
X16970232Y-13072000D01*
X16970232Y-13072000D02*
X16960708Y-13052952D01*
X16960708Y-13052952D02*
X16960708Y-12881524D01*
X17141660Y-13072000D02*
X17122613Y-13081524D01*
X17122613Y-13081524D02*
X17084517Y-13081524D01*
X17084517Y-13081524D02*
X17065470Y-13072000D01*
X17065470Y-13072000D02*
X17055946Y-13052952D01*
X17055946Y-13052952D02*
X17055946Y-12976762D01*
X17055946Y-12976762D02*
X17065470Y-12957714D01*
X17065470Y-12957714D02*
X17084517Y-12948190D01*
X17084517Y-12948190D02*
X17122613Y-12948190D01*
X17122613Y-12948190D02*
X17141660Y-12957714D01*
X17141660Y-12957714D02*
X17151184Y-12976762D01*
X17151184Y-12976762D02*
X17151184Y-12995809D01*
X17151184Y-12995809D02*
X17055946Y-13014857D01*
X17227375Y-13072000D02*
X17246422Y-13081524D01*
X17246422Y-13081524D02*
X17284517Y-13081524D01*
X17284517Y-13081524D02*
X17303565Y-13072000D01*
X17303565Y-13072000D02*
X17313089Y-13052952D01*
X17313089Y-13052952D02*
X17313089Y-13043428D01*
X17313089Y-13043428D02*
X17303565Y-13024381D01*
X17303565Y-13024381D02*
X17284517Y-13014857D01*
X17284517Y-13014857D02*
X17255946Y-13014857D01*
X17255946Y-13014857D02*
X17236898Y-13005333D01*
X17236898Y-13005333D02*
X17227375Y-12986286D01*
X17227375Y-12986286D02*
X17227375Y-12976762D01*
X17227375Y-12976762D02*
X17236898Y-12957714D01*
X17236898Y-12957714D02*
X17255946Y-12948190D01*
X17255946Y-12948190D02*
X17284517Y-12948190D01*
X17284517Y-12948190D02*
X17303565Y-12957714D01*
X17379756Y-13157714D02*
X17389279Y-13148190D01*
X17389279Y-13148190D02*
X17408327Y-13119619D01*
X17408327Y-13119619D02*
X17417851Y-13100571D01*
X17417851Y-13100571D02*
X17427375Y-13072000D01*
X17427375Y-13072000D02*
X17436898Y-13024381D01*
X17436898Y-13024381D02*
X17436898Y-12986286D01*
X17436898Y-12986286D02*
X17427375Y-12938667D01*
X17427375Y-12938667D02*
X17417851Y-12910095D01*
X17417851Y-12910095D02*
X17408327Y-12891048D01*
X17408327Y-12891048D02*
X17389279Y-12862476D01*
X17389279Y-12862476D02*
X17379756Y-12852952D01*
M02*
