G04 #@! TF.GenerationSoftware,KiCad,Pcbnew,7.0.2-6a45011f42~172~ubuntu22.04.1*
G04 #@! TF.CreationDate,2023-05-13T10:54:30-06:00*
G04 #@! TF.ProjectId,ring-50mm,72696e67-2d35-4306-9d6d-2e6b69636164,rev?*
G04 #@! TF.SameCoordinates,Original*
G04 #@! TF.FileFunction,Copper,L2,Bot*
G04 #@! TF.FilePolarity,Positive*
%FSLAX46Y46*%
G04 Gerber Fmt 4.6, Leading zero omitted, Abs format (unit mm)*
G04 Created by KiCad (PCBNEW 7.0.2-6a45011f42~172~ubuntu22.04.1) date 2023-05-13 10:54:30*
%MOMM*%
%LPD*%
G01*
G04 APERTURE LIST*
G04 #@! TA.AperFunction,ComponentPad*
%ADD10R,1.700000X1.700000*%
G04 #@! TD*
G04 #@! TA.AperFunction,ComponentPad*
%ADD11O,1.700000X1.700000*%
G04 #@! TD*
G04 #@! TA.AperFunction,ViaPad*
%ADD12C,0.500000*%
G04 #@! TD*
G04 #@! TA.AperFunction,Conductor*
%ADD13C,0.127000*%
G04 #@! TD*
G04 APERTURE END LIST*
D10*
G04 #@! TO.P,J2,1,Pin_1*
G04 #@! TO.N,GND*
X153900000Y-119000000D03*
D11*
G04 #@! TO.P,J2,2,Pin_2*
G04 #@! TO.N,/SIGNAL_OUT*
X151360000Y-119000000D03*
G04 #@! TO.P,J2,3,Pin_3*
G04 #@! TO.N,VCC*
X148820000Y-119000000D03*
G04 #@! TD*
D10*
G04 #@! TO.P,J1,1,Pin_1*
G04 #@! TO.N,GND*
X153900000Y-66000000D03*
D11*
G04 #@! TO.P,J1,2,Pin_2*
G04 #@! TO.N,/SIGNAL_IN*
X151360000Y-66000000D03*
G04 #@! TO.P,J1,3,Pin_3*
G04 #@! TO.N,VCC*
X148820000Y-66000000D03*
G04 #@! TD*
D12*
G04 #@! TO.N,GND*
X173900000Y-99900000D03*
X162200000Y-113700000D03*
X135400000Y-74500000D03*
X171400000Y-105400000D03*
X140700000Y-71100000D03*
X138500000Y-112300000D03*
X156300000Y-115700000D03*
X152700000Y-68600000D03*
X175200000Y-93700000D03*
X167300000Y-110200000D03*
X133700000Y-108200000D03*
X131400000Y-79400000D03*
X146500000Y-69000000D03*
X130400000Y-103200000D03*
X128200000Y-97400000D03*
X174700000Y-87600000D03*
X169100000Y-76500000D03*
X158700000Y-69800000D03*
X144100000Y-115000000D03*
X128800000Y-85100000D03*
X127700000Y-91200000D03*
X172600000Y-81700000D03*
X150200000Y-115900000D03*
X164400000Y-72500000D03*
G04 #@! TO.N,Net-(D1-DOUT)*
X152700000Y-70700000D03*
X156200000Y-70100000D03*
G04 #@! TO.N,Net-(D2-DOUT)*
X161900000Y-72000000D03*
X158300000Y-71500000D03*
G04 #@! TO.N,Net-(D3-DOUT)*
X166900000Y-75500000D03*
X163400000Y-74000000D03*
G04 #@! TO.N,Net-(D4-DOUT)*
X167800000Y-77700000D03*
X170700000Y-80100000D03*
G04 #@! TO.N,Net-(D5-DOUT)*
X171100000Y-82400000D03*
X173200000Y-85500000D03*
G04 #@! TO.N,Net-(D6-DOUT)*
X173000000Y-87800000D03*
X174300000Y-91400000D03*
G04 #@! TO.N,Net-(D7-DOUT)*
X173900000Y-97200000D03*
X173500000Y-93500000D03*
G04 #@! TO.N,Net-(D8-DOUT)*
X171900000Y-102900000D03*
X172400000Y-99300000D03*
G04 #@! TO.N,Net-(D10-DIN)*
X170000000Y-104500000D03*
X168500000Y-107900000D03*
G04 #@! TO.N,Net-(D10-DOUT)*
X166300000Y-108900000D03*
X163900000Y-111700000D03*
G04 #@! TO.N,Net-(D11-DOUT)*
X161500000Y-112200000D03*
X158400000Y-114300000D03*
G04 #@! TO.N,Net-(D12-DOUT)*
X152600000Y-115300000D03*
X156000000Y-114100000D03*
G04 #@! TO.N,Net-(D13-DOUT)*
X146600000Y-115100000D03*
X150300000Y-114500000D03*
G04 #@! TO.N,Net-(D14-DOUT)*
X141000000Y-112900000D03*
X144500000Y-113400000D03*
G04 #@! TO.N,Net-(D15-DOUT)*
X136000000Y-109400000D03*
X139400000Y-111000000D03*
G04 #@! TO.N,Net-(D16-DOUT)*
X132200000Y-104900000D03*
X135000000Y-107300000D03*
G04 #@! TO.N,Net-(D17-DOUT)*
X131700000Y-102500000D03*
X129600000Y-99400000D03*
G04 #@! TO.N,Net-(D18-DOUT)*
X129800000Y-97200000D03*
X128500000Y-93600000D03*
G04 #@! TO.N,Net-(D19-DOUT)*
X129300000Y-91400000D03*
X129000000Y-87600000D03*
G04 #@! TO.N,Net-(D20-DOUT)*
X131000000Y-81900000D03*
X130400000Y-85600000D03*
G04 #@! TO.N,/SIGNAL_IN*
X149800000Y-68500000D03*
G04 #@! TO.N,/SIGNAL_OUT*
X150200000Y-116900000D03*
G04 #@! TO.N,Net-(D21-DOUT)*
X132800000Y-80500000D03*
X134500000Y-77100000D03*
G04 #@! TO.N,Net-(D22-DOUT)*
X136600000Y-76100000D03*
X139000000Y-73200000D03*
G04 #@! TO.N,Net-(D23-DOUT)*
X144500000Y-70700000D03*
X141300000Y-72800000D03*
G04 #@! TD*
D13*
G04 #@! TO.N,Net-(D1-DOUT)*
X156200000Y-70100000D02*
X152700000Y-70700000D01*
G04 #@! TO.N,Net-(D2-DOUT)*
X158300000Y-71500000D02*
X161900000Y-72000000D01*
G04 #@! TO.N,Net-(D3-DOUT)*
X163400000Y-74000000D02*
X166900000Y-75500000D01*
G04 #@! TO.N,Net-(D4-DOUT)*
X167800000Y-77700000D02*
X170700000Y-80100000D01*
G04 #@! TO.N,Net-(D5-DOUT)*
X173200000Y-85500000D02*
X171100000Y-82400000D01*
G04 #@! TO.N,Net-(D6-DOUT)*
X173000000Y-87800000D02*
X174300000Y-91400000D01*
G04 #@! TO.N,Net-(D7-DOUT)*
X173500000Y-93500000D02*
X173900000Y-97200000D01*
G04 #@! TO.N,Net-(D8-DOUT)*
X171900000Y-102900000D02*
X172400000Y-99300000D01*
G04 #@! TO.N,Net-(D10-DIN)*
X170000000Y-104500000D02*
X168500000Y-107900000D01*
G04 #@! TO.N,Net-(D10-DOUT)*
X163900000Y-111700000D02*
X166300000Y-108900000D01*
G04 #@! TO.N,Net-(D11-DOUT)*
X158400000Y-114300000D02*
X161500000Y-112200000D01*
G04 #@! TO.N,Net-(D12-DOUT)*
X152600000Y-115300000D02*
X156000000Y-114100000D01*
G04 #@! TO.N,Net-(D13-DOUT)*
X146600000Y-115100000D02*
X150300000Y-114500000D01*
G04 #@! TO.N,Net-(D14-DOUT)*
X141000000Y-112900000D02*
X144500000Y-113400000D01*
G04 #@! TO.N,Net-(D15-DOUT)*
X139400000Y-111000000D02*
X136000000Y-109400000D01*
G04 #@! TO.N,Net-(D16-DOUT)*
X135000000Y-107300000D02*
X132200000Y-104900000D01*
G04 #@! TO.N,Net-(D17-DOUT)*
X131700000Y-102500000D02*
X129600000Y-99400000D01*
G04 #@! TO.N,Net-(D18-DOUT)*
X128500000Y-93600000D02*
X129800000Y-97200000D01*
G04 #@! TO.N,Net-(D19-DOUT)*
X129300000Y-91400000D02*
X129000000Y-87600000D01*
G04 #@! TO.N,Net-(D20-DOUT)*
X130400000Y-85600000D02*
X131000000Y-81900000D01*
G04 #@! TO.N,/SIGNAL_IN*
X149800000Y-68500000D02*
X151360000Y-66000000D01*
G04 #@! TO.N,/SIGNAL_OUT*
X150200000Y-116900000D02*
X151360000Y-119000000D01*
G04 #@! TO.N,Net-(D21-DOUT)*
X134500000Y-77100000D02*
X132800000Y-80500000D01*
G04 #@! TO.N,Net-(D22-DOUT)*
X136600000Y-76100000D02*
X139000000Y-73200000D01*
G04 #@! TO.N,Net-(D23-DOUT)*
X144500000Y-70700000D02*
X141300000Y-72800000D01*
G04 #@! TD*
G04 #@! TA.AperFunction,Conductor*
G04 #@! TO.N,GND*
G36*
X155658691Y-64219407D02*
G01*
X155694655Y-64268907D01*
X155699500Y-64299500D01*
X155699500Y-67791243D01*
X155698774Y-67799482D01*
X155700235Y-67801570D01*
X155710026Y-67802498D01*
X156664650Y-67991969D01*
X156668362Y-67992782D01*
X157573171Y-68209617D01*
X157624150Y-68221880D01*
X157627731Y-68222814D01*
X158363714Y-68430067D01*
X158579320Y-68491110D01*
X158582840Y-68492178D01*
X159240390Y-68705550D01*
X159523055Y-68797888D01*
X159526464Y-68799072D01*
X160019786Y-68980860D01*
X160136837Y-69023993D01*
X160170058Y-69036330D01*
X160453934Y-69141752D01*
X160457239Y-69143049D01*
X161034458Y-69381897D01*
X161333679Y-69506796D01*
X161370442Y-69522141D01*
X161373715Y-69523576D01*
X161925122Y-69777546D01*
X162271271Y-69938510D01*
X162274300Y-69939985D01*
X162803662Y-70209484D01*
X163154835Y-70390133D01*
X163157878Y-70391767D01*
X163667392Y-70676891D01*
X163980770Y-70854226D01*
X164019845Y-70876338D01*
X164022786Y-70878069D01*
X164514189Y-71178991D01*
X164594559Y-71228798D01*
X164864957Y-71396372D01*
X164867783Y-71398190D01*
X165341806Y-71714715D01*
X165688872Y-71949436D01*
X165691579Y-71951333D01*
X166148614Y-72283187D01*
X166490268Y-72534646D01*
X166492770Y-72536551D01*
X166894195Y-72852830D01*
X166933107Y-72883488D01*
X167267830Y-73151040D01*
X167270264Y-73153050D01*
X167693902Y-73514677D01*
X168020442Y-73797725D01*
X168022720Y-73799763D01*
X168239444Y-73999999D01*
X168429565Y-74175657D01*
X168746853Y-74473629D01*
X168749067Y-74475774D01*
X169138896Y-74865416D01*
X169445974Y-75177733D01*
X169448063Y-75179923D01*
X169820780Y-75582941D01*
X170116696Y-75908919D01*
X170118659Y-75911148D01*
X170474009Y-76327027D01*
X170516390Y-76377624D01*
X170758017Y-76666098D01*
X170759812Y-76668307D01*
X171097464Y-77096437D01*
X171368846Y-77447983D01*
X171370501Y-77450193D01*
X171690199Y-77890042D01*
X171936149Y-78236330D01*
X171948238Y-78253351D01*
X171949829Y-78255660D01*
X172251302Y-78706671D01*
X172495341Y-79081009D01*
X172496810Y-79083332D01*
X172779746Y-79544867D01*
X173009311Y-79929687D01*
X173010658Y-79932018D01*
X173274704Y-80403331D01*
X173489335Y-80798048D01*
X173490560Y-80800373D01*
X173701748Y-81214707D01*
X173735454Y-81280834D01*
X173934597Y-81684611D01*
X173935709Y-81686941D01*
X174161220Y-82175942D01*
X174344459Y-82588086D01*
X174345455Y-82590407D01*
X174551324Y-83087249D01*
X174718287Y-83507083D01*
X174719171Y-83509389D01*
X174905166Y-84013382D01*
X175055471Y-84440099D01*
X175056245Y-84442385D01*
X175222137Y-84952779D01*
X175355500Y-85385713D01*
X175356168Y-85387975D01*
X175501765Y-85904055D01*
X175617905Y-86342439D01*
X175618469Y-86344672D01*
X175743599Y-86865712D01*
X175842251Y-87308665D01*
X175842715Y-87310864D01*
X175947245Y-87836205D01*
X176028251Y-88283161D01*
X176028617Y-88285321D01*
X176112378Y-88813995D01*
X176175561Y-89264148D01*
X176175835Y-89266265D01*
X176238748Y-89797649D01*
X176283964Y-90250077D01*
X176284149Y-90252148D01*
X176316903Y-90668199D01*
X176325848Y-90781823D01*
X176326145Y-90785589D01*
X176353307Y-91239557D01*
X176353408Y-91241578D01*
X176374420Y-91776191D01*
X176383503Y-92232034D01*
X176383503Y-92767973D01*
X176374420Y-93223812D01*
X176353407Y-93758421D01*
X176353307Y-93760442D01*
X176326145Y-94214410D01*
X176284148Y-94747849D01*
X176283963Y-94749921D01*
X176238748Y-95202350D01*
X176175835Y-95733733D01*
X176175561Y-95735851D01*
X176112378Y-96186004D01*
X176028618Y-96714677D01*
X176028251Y-96716837D01*
X175947245Y-97163794D01*
X175842715Y-97689134D01*
X175842251Y-97691332D01*
X175743599Y-98134287D01*
X175618468Y-98655326D01*
X175617905Y-98657558D01*
X175501765Y-99095944D01*
X175356168Y-99612023D01*
X175355501Y-99614285D01*
X175222137Y-100047220D01*
X175056244Y-100557613D01*
X175055470Y-100559899D01*
X174905166Y-100986616D01*
X174719170Y-101490609D01*
X174718287Y-101492915D01*
X174551330Y-101912738D01*
X174543558Y-101931496D01*
X174345456Y-102409592D01*
X174344459Y-102411912D01*
X174161220Y-102824057D01*
X173935709Y-103313057D01*
X173934598Y-103315386D01*
X173735455Y-103719164D01*
X173490564Y-104199616D01*
X173489336Y-104201950D01*
X173274705Y-104596668D01*
X173010659Y-105067980D01*
X173009311Y-105070311D01*
X172779746Y-105455132D01*
X172496809Y-105916666D01*
X172495340Y-105918989D01*
X172251302Y-106293328D01*
X171949829Y-106744338D01*
X171948238Y-106746647D01*
X171690225Y-107109922D01*
X171370543Y-107549748D01*
X171368828Y-107552037D01*
X171097464Y-107903562D01*
X170759811Y-108331691D01*
X170757972Y-108333953D01*
X170474009Y-108672972D01*
X170118660Y-109088849D01*
X170116696Y-109091079D01*
X169820780Y-109417058D01*
X169448063Y-109820075D01*
X169445974Y-109822265D01*
X169138896Y-110134583D01*
X168749067Y-110524225D01*
X168746853Y-110526370D01*
X168429565Y-110824342D01*
X168022748Y-111200208D01*
X168020410Y-111202301D01*
X167693858Y-111485359D01*
X167270292Y-111846925D01*
X167267830Y-111848959D01*
X166933107Y-112116511D01*
X166492797Y-112463427D01*
X166490211Y-112465395D01*
X166148614Y-112716812D01*
X165691578Y-113048666D01*
X165688872Y-113050563D01*
X165341806Y-113285284D01*
X164867783Y-113601808D01*
X164864958Y-113603627D01*
X164514178Y-113821016D01*
X164022789Y-114121927D01*
X164019845Y-114123660D01*
X163667376Y-114323117D01*
X163157879Y-114608231D01*
X163154821Y-114609873D01*
X162803609Y-114790542D01*
X162274381Y-115059973D01*
X162271210Y-115061517D01*
X161924927Y-115222543D01*
X161373723Y-115476418D01*
X161370442Y-115477857D01*
X161034354Y-115618145D01*
X160457279Y-115856933D01*
X160453893Y-115858262D01*
X160136838Y-115976006D01*
X159526504Y-116200912D01*
X159523014Y-116202124D01*
X159240112Y-116294539D01*
X158582879Y-116507807D01*
X158579292Y-116508897D01*
X158363324Y-116570042D01*
X157627769Y-116777174D01*
X157624088Y-116778134D01*
X157572880Y-116790452D01*
X156668406Y-117007207D01*
X156664607Y-117008039D01*
X155709769Y-117197551D01*
X155700194Y-117198485D01*
X155698772Y-117200523D01*
X155699500Y-117208778D01*
X155699500Y-120700500D01*
X155680593Y-120758691D01*
X155631093Y-120794655D01*
X155600500Y-120799500D01*
X147099500Y-120799500D01*
X147041309Y-120780593D01*
X147005345Y-120731093D01*
X147000500Y-120700500D01*
X147000500Y-119000000D01*
X147664571Y-119000000D01*
X147684244Y-119212310D01*
X147717957Y-119330798D01*
X147742596Y-119417391D01*
X147837634Y-119608256D01*
X147966125Y-119778404D01*
X148123699Y-119922053D01*
X148180748Y-119957376D01*
X148304981Y-120034298D01*
X148454158Y-120092089D01*
X148503804Y-120111322D01*
X148713388Y-120150500D01*
X148713390Y-120150500D01*
X148926612Y-120150500D01*
X149136195Y-120111322D01*
X149136198Y-120111321D01*
X149335019Y-120034298D01*
X149516302Y-119922052D01*
X149673872Y-119778407D01*
X149802366Y-119608255D01*
X149897405Y-119417389D01*
X149955756Y-119212310D01*
X149975429Y-119000000D01*
X149955756Y-118787690D01*
X149897405Y-118582611D01*
X149802366Y-118391745D01*
X149802365Y-118391744D01*
X149802365Y-118391743D01*
X149673874Y-118221595D01*
X149668514Y-118216709D01*
X149516302Y-118077948D01*
X149516300Y-118077946D01*
X149335021Y-117965703D01*
X149335019Y-117965702D01*
X149292898Y-117949384D01*
X149136195Y-117888677D01*
X148926612Y-117849500D01*
X148926610Y-117849500D01*
X148713390Y-117849500D01*
X148713388Y-117849500D01*
X148503804Y-117888677D01*
X148304978Y-117965703D01*
X148123699Y-118077946D01*
X147966125Y-118221595D01*
X147837634Y-118391743D01*
X147742596Y-118582608D01*
X147742595Y-118582611D01*
X147684244Y-118787690D01*
X147664571Y-119000000D01*
X147000500Y-119000000D01*
X147000500Y-117208574D01*
X147001198Y-117200476D01*
X147000577Y-117199593D01*
X147000578Y-117199592D01*
X147000576Y-117199591D01*
X146999869Y-117198584D01*
X146990705Y-117197681D01*
X146032604Y-117011373D01*
X146028792Y-117010553D01*
X145559692Y-116899999D01*
X149644750Y-116899999D01*
X149663669Y-117043709D01*
X149692808Y-117114056D01*
X149719139Y-117177625D01*
X149742887Y-117208574D01*
X149807378Y-117292621D01*
X149895618Y-117360329D01*
X149922375Y-117380861D01*
X150055558Y-117436026D01*
X150102084Y-117475762D01*
X150104326Y-117479615D01*
X150198445Y-117650001D01*
X150479708Y-118159184D01*
X150491294Y-118219262D01*
X150472054Y-118266713D01*
X150377632Y-118391747D01*
X150282596Y-118582608D01*
X150282595Y-118582611D01*
X150224244Y-118787690D01*
X150204571Y-119000000D01*
X150224244Y-119212310D01*
X150257957Y-119330798D01*
X150282596Y-119417391D01*
X150377634Y-119608256D01*
X150506125Y-119778404D01*
X150663699Y-119922053D01*
X150720748Y-119957376D01*
X150844981Y-120034298D01*
X150994158Y-120092089D01*
X151043804Y-120111322D01*
X151253388Y-120150500D01*
X151253390Y-120150500D01*
X151466612Y-120150500D01*
X151676195Y-120111322D01*
X151676198Y-120111321D01*
X151875019Y-120034298D01*
X152056302Y-119922052D01*
X152213872Y-119778407D01*
X152342366Y-119608255D01*
X152362379Y-119568062D01*
X152405241Y-119524401D01*
X152465582Y-119514271D01*
X152520353Y-119541543D01*
X152548634Y-119595801D01*
X152550000Y-119612191D01*
X152550000Y-119895181D01*
X152550282Y-119900457D01*
X152556401Y-119957376D01*
X152606646Y-120092089D01*
X152692811Y-120207188D01*
X152807910Y-120293353D01*
X152942623Y-120343598D01*
X152999542Y-120349717D01*
X153004819Y-120350000D01*
X153649999Y-120350000D01*
X153650000Y-120349998D01*
X153650000Y-119435501D01*
X153757685Y-119484680D01*
X153864237Y-119500000D01*
X153935763Y-119500000D01*
X154042315Y-119484680D01*
X154150000Y-119435501D01*
X154150000Y-120349999D01*
X154150001Y-120350000D01*
X154795181Y-120350000D01*
X154800457Y-120349717D01*
X154857376Y-120343598D01*
X154992089Y-120293353D01*
X155107188Y-120207188D01*
X155193353Y-120092089D01*
X155243598Y-119957376D01*
X155249717Y-119900457D01*
X155250000Y-119895181D01*
X155250000Y-119250001D01*
X155249999Y-119250000D01*
X154333686Y-119250000D01*
X154359493Y-119209844D01*
X154400000Y-119071889D01*
X154400000Y-118928111D01*
X154359493Y-118790156D01*
X154333686Y-118750000D01*
X155249999Y-118750000D01*
X155250000Y-118749999D01*
X155250000Y-118104818D01*
X155249717Y-118099542D01*
X155243598Y-118042623D01*
X155193353Y-117907910D01*
X155107188Y-117792811D01*
X154992089Y-117706646D01*
X154857376Y-117656401D01*
X154800457Y-117650282D01*
X154795181Y-117650000D01*
X154150000Y-117650000D01*
X154150000Y-118564498D01*
X154042315Y-118515320D01*
X153935763Y-118500000D01*
X153864237Y-118500000D01*
X153757685Y-118515320D01*
X153650000Y-118564498D01*
X153650000Y-117650001D01*
X153649999Y-117650000D01*
X153004819Y-117650000D01*
X152999542Y-117650282D01*
X152942623Y-117656401D01*
X152807910Y-117706646D01*
X152692811Y-117792811D01*
X152606646Y-117907910D01*
X152556401Y-118042623D01*
X152550282Y-118099542D01*
X152550000Y-118104818D01*
X152550000Y-118387808D01*
X152531093Y-118445999D01*
X152481593Y-118481963D01*
X152420407Y-118481963D01*
X152370907Y-118445999D01*
X152362379Y-118431936D01*
X152342365Y-118391743D01*
X152213874Y-118221595D01*
X152208514Y-118216709D01*
X152056302Y-118077948D01*
X152056300Y-118077946D01*
X151875021Y-117965703D01*
X151875019Y-117965702D01*
X151832898Y-117949384D01*
X151676195Y-117888677D01*
X151466612Y-117849500D01*
X151466610Y-117849500D01*
X151253390Y-117849500D01*
X151253386Y-117849500D01*
X151221186Y-117855519D01*
X151160512Y-117847626D01*
X151116338Y-117806073D01*
X150741760Y-117127957D01*
X150730174Y-117067879D01*
X150736105Y-117045418D01*
X150741076Y-117007661D01*
X150755250Y-116900000D01*
X150736330Y-116756291D01*
X150680861Y-116622375D01*
X150630932Y-116557306D01*
X150592621Y-116507378D01*
X150527552Y-116457450D01*
X150477625Y-116419139D01*
X150438401Y-116402892D01*
X150343709Y-116363669D01*
X150200000Y-116344750D01*
X150056290Y-116363669D01*
X149922375Y-116419139D01*
X149807378Y-116507378D01*
X149719139Y-116622375D01*
X149663669Y-116756290D01*
X149644750Y-116899999D01*
X145559692Y-116899999D01*
X145123701Y-116797248D01*
X145070161Y-116784581D01*
X145066467Y-116783632D01*
X144329757Y-116579073D01*
X144154124Y-116530040D01*
X144111978Y-116518273D01*
X144108394Y-116517199D01*
X143802518Y-116419139D01*
X143449720Y-116306036D01*
X143165178Y-116214197D01*
X143161675Y-116212994D01*
X142549889Y-115989933D01*
X142231143Y-115872801D01*
X142227742Y-115871480D01*
X141649076Y-115634278D01*
X141436977Y-115546569D01*
X141311364Y-115494624D01*
X141308140Y-115493222D01*
X140755413Y-115240791D01*
X140450095Y-115100000D01*
X146044750Y-115100000D01*
X146063669Y-115243709D01*
X146086986Y-115300000D01*
X146119139Y-115377625D01*
X146157450Y-115427552D01*
X146207378Y-115492621D01*
X146257306Y-115530932D01*
X146322375Y-115580861D01*
X146412388Y-115618145D01*
X146456290Y-115636330D01*
X146475210Y-115638820D01*
X146600000Y-115655250D01*
X146743709Y-115636330D01*
X146877625Y-115580861D01*
X146992621Y-115492621D01*
X147045420Y-115423810D01*
X147095841Y-115389157D01*
X147108105Y-115386358D01*
X147640652Y-115299999D01*
X152044750Y-115299999D01*
X152063669Y-115443709D01*
X152089445Y-115505937D01*
X152119139Y-115577625D01*
X152150231Y-115618145D01*
X152207378Y-115692621D01*
X152257306Y-115730932D01*
X152322375Y-115780861D01*
X152417067Y-115820083D01*
X152456290Y-115836330D01*
X152473008Y-115838531D01*
X152600000Y-115855250D01*
X152743709Y-115836330D01*
X152877625Y-115780861D01*
X152992621Y-115692621D01*
X153080861Y-115577625D01*
X153093724Y-115546567D01*
X153133460Y-115500043D01*
X153152238Y-115491097D01*
X155690675Y-114595178D01*
X155751841Y-114593641D01*
X155761509Y-114597071D01*
X155856289Y-114636330D01*
X155886242Y-114640273D01*
X156000000Y-114655250D01*
X156143709Y-114636330D01*
X156277625Y-114580861D01*
X156392621Y-114492621D01*
X156480861Y-114377625D01*
X156513014Y-114300000D01*
X157844750Y-114300000D01*
X157863669Y-114443709D01*
X157886986Y-114500000D01*
X157919139Y-114577625D01*
X157950994Y-114619139D01*
X158007378Y-114692621D01*
X158057306Y-114730932D01*
X158122375Y-114780861D01*
X158210705Y-114817448D01*
X158256290Y-114836330D01*
X158273008Y-114838531D01*
X158400000Y-114855250D01*
X158543709Y-114836330D01*
X158677625Y-114780861D01*
X158792621Y-114692621D01*
X158880861Y-114577625D01*
X158936330Y-114443709D01*
X158940262Y-114413836D01*
X158966601Y-114358612D01*
X158982882Y-114344799D01*
X161325983Y-112757538D01*
X161384761Y-112740557D01*
X161394413Y-112741348D01*
X161500000Y-112755250D01*
X161643709Y-112736330D01*
X161777625Y-112680861D01*
X161892621Y-112592621D01*
X161980861Y-112477625D01*
X162036330Y-112343709D01*
X162055250Y-112200000D01*
X162036330Y-112056291D01*
X162036329Y-112056289D01*
X162003746Y-111977625D01*
X161980861Y-111922375D01*
X161920498Y-111843709D01*
X161892621Y-111807378D01*
X161827552Y-111757450D01*
X161777625Y-111719139D01*
X161731416Y-111699999D01*
X163344750Y-111699999D01*
X163363669Y-111843709D01*
X163402892Y-111938401D01*
X163419139Y-111977625D01*
X163457450Y-112027552D01*
X163507378Y-112092621D01*
X163538513Y-112116511D01*
X163622375Y-112180861D01*
X163717067Y-112220083D01*
X163756290Y-112236330D01*
X163771421Y-112238322D01*
X163900000Y-112255250D01*
X164043709Y-112236330D01*
X164177625Y-112180861D01*
X164292621Y-112092621D01*
X164380861Y-111977625D01*
X164436330Y-111843709D01*
X164455250Y-111700000D01*
X164450919Y-111667108D01*
X164462068Y-111606951D01*
X164473899Y-111589769D01*
X166279266Y-109483507D01*
X166331489Y-109451632D01*
X166341493Y-109449786D01*
X166443709Y-109436330D01*
X166577625Y-109380861D01*
X166692621Y-109292621D01*
X166780861Y-109177625D01*
X166836330Y-109043709D01*
X166855250Y-108900000D01*
X166836330Y-108756291D01*
X166780861Y-108622375D01*
X166730932Y-108557306D01*
X166692621Y-108507378D01*
X166627552Y-108457450D01*
X166577625Y-108419139D01*
X166538401Y-108402892D01*
X166443709Y-108363669D01*
X166300000Y-108344750D01*
X166156290Y-108363669D01*
X166022375Y-108419139D01*
X165907378Y-108507378D01*
X165819139Y-108622375D01*
X165763669Y-108756290D01*
X165744750Y-108899999D01*
X165749079Y-108932889D01*
X165737928Y-108993050D01*
X165726092Y-109010237D01*
X163920734Y-111116489D01*
X163868509Y-111148366D01*
X163858491Y-111150214D01*
X163756290Y-111163669D01*
X163622375Y-111219139D01*
X163507378Y-111307378D01*
X163419139Y-111422375D01*
X163363669Y-111556290D01*
X163344750Y-111699999D01*
X161731416Y-111699999D01*
X161643709Y-111663669D01*
X161500000Y-111644750D01*
X161356290Y-111663669D01*
X161222375Y-111719139D01*
X161107378Y-111807378D01*
X161019139Y-111922375D01*
X160963669Y-112056289D01*
X160959736Y-112086165D01*
X160933393Y-112141389D01*
X160917107Y-112155204D01*
X158574017Y-113742459D01*
X158515236Y-113759441D01*
X158505572Y-113758648D01*
X158400000Y-113744750D01*
X158256290Y-113763669D01*
X158122375Y-113819139D01*
X158007378Y-113907378D01*
X157919139Y-114022375D01*
X157863669Y-114156290D01*
X157844750Y-114300000D01*
X156513014Y-114300000D01*
X156536330Y-114243709D01*
X156555250Y-114100000D01*
X156538820Y-113975209D01*
X156536330Y-113956290D01*
X156489870Y-113844126D01*
X156480861Y-113822375D01*
X156419539Y-113742459D01*
X156392621Y-113707378D01*
X156327468Y-113657385D01*
X156277625Y-113619139D01*
X156235784Y-113601808D01*
X156143709Y-113563669D01*
X156000000Y-113544750D01*
X155856290Y-113563669D01*
X155722375Y-113619139D01*
X155607378Y-113707378D01*
X155519138Y-113822374D01*
X155506273Y-113853433D01*
X155466535Y-113899958D01*
X155447759Y-113908901D01*
X152909323Y-114804820D01*
X152848157Y-114806358D01*
X152838489Y-114802928D01*
X152743710Y-114763669D01*
X152600000Y-114744750D01*
X152456290Y-114763669D01*
X152322375Y-114819139D01*
X152207378Y-114907378D01*
X152119139Y-115022375D01*
X152063669Y-115156290D01*
X152044750Y-115299999D01*
X147640652Y-115299999D01*
X149908000Y-114932321D01*
X149968467Y-114941669D01*
X149984111Y-114951499D01*
X150022375Y-114980861D01*
X150111652Y-115017840D01*
X150156290Y-115036330D01*
X150173008Y-115038531D01*
X150300000Y-115055250D01*
X150443709Y-115036330D01*
X150577625Y-114980861D01*
X150692621Y-114892621D01*
X150780861Y-114777625D01*
X150836330Y-114643709D01*
X150855250Y-114500000D01*
X150838820Y-114375209D01*
X150836330Y-114356290D01*
X150813014Y-114300000D01*
X150780861Y-114222375D01*
X150705114Y-114123660D01*
X150692621Y-114107378D01*
X150627552Y-114057450D01*
X150577625Y-114019139D01*
X150538401Y-114002892D01*
X150443709Y-113963669D01*
X150300000Y-113944750D01*
X150156290Y-113963669D01*
X150022375Y-114019138D01*
X149907380Y-114107378D01*
X149854579Y-114176187D01*
X149804154Y-114210842D01*
X149791885Y-114213641D01*
X146991997Y-114667677D01*
X146931530Y-114658329D01*
X146915888Y-114648499D01*
X146877625Y-114619139D01*
X146877624Y-114619138D01*
X146877622Y-114619137D01*
X146743709Y-114563669D01*
X146616717Y-114546951D01*
X146600000Y-114544750D01*
X146599999Y-114544750D01*
X146456290Y-114563669D01*
X146322375Y-114619139D01*
X146207378Y-114707378D01*
X146119139Y-114822375D01*
X146063669Y-114956290D01*
X146044750Y-115100000D01*
X140450095Y-115100000D01*
X140407361Y-115080294D01*
X140404175Y-115078755D01*
X140400576Y-115076937D01*
X139873506Y-114810656D01*
X139520495Y-114630438D01*
X139517447Y-114628814D01*
X139184336Y-114443709D01*
X139006275Y-114344763D01*
X138652176Y-114145772D01*
X138649219Y-114144042D01*
X138156279Y-113844126D01*
X137803782Y-113627068D01*
X137800957Y-113625262D01*
X137516316Y-113436330D01*
X137325291Y-113309536D01*
X137046901Y-113122375D01*
X136976625Y-113075129D01*
X136973924Y-113073246D01*
X136733989Y-112900000D01*
X136733988Y-112899999D01*
X140444750Y-112899999D01*
X140463669Y-113043709D01*
X140491647Y-113111253D01*
X140519139Y-113177625D01*
X140557450Y-113227552D01*
X140607378Y-113292621D01*
X140641617Y-113318893D01*
X140722375Y-113380861D01*
X140815879Y-113419591D01*
X140856290Y-113436330D01*
X140873008Y-113438531D01*
X141000000Y-113455250D01*
X141143709Y-113436330D01*
X141277625Y-113380861D01*
X141325342Y-113344245D01*
X141383016Y-113323821D01*
X141399601Y-113324781D01*
X143997595Y-113695922D01*
X144052526Y-113722869D01*
X144062135Y-113733659D01*
X144107379Y-113792622D01*
X144146155Y-113822375D01*
X144222375Y-113880861D01*
X144290071Y-113908901D01*
X144356290Y-113936330D01*
X144375210Y-113938820D01*
X144500000Y-113955250D01*
X144643709Y-113936330D01*
X144777625Y-113880861D01*
X144892621Y-113792621D01*
X144980861Y-113677625D01*
X145036330Y-113543709D01*
X145055250Y-113400000D01*
X145036330Y-113256291D01*
X144980861Y-113122375D01*
X144930932Y-113057306D01*
X144892621Y-113007378D01*
X144825341Y-112955753D01*
X144777625Y-112919139D01*
X144731416Y-112899999D01*
X144643709Y-112863669D01*
X144516717Y-112846951D01*
X144500000Y-112844750D01*
X144499999Y-112844750D01*
X144356289Y-112863669D01*
X144222374Y-112919138D01*
X144174657Y-112955753D01*
X144116981Y-112976177D01*
X144100389Y-112975216D01*
X141502404Y-112604076D01*
X141447472Y-112577129D01*
X141437863Y-112566339D01*
X141408121Y-112527579D01*
X141392621Y-112507379D01*
X141392619Y-112507378D01*
X141392619Y-112507377D01*
X141335342Y-112463427D01*
X141277625Y-112419139D01*
X141238401Y-112402892D01*
X141143709Y-112363669D01*
X141000000Y-112344750D01*
X140856290Y-112363669D01*
X140722375Y-112419139D01*
X140607378Y-112507378D01*
X140519139Y-112622375D01*
X140463669Y-112756290D01*
X140444750Y-112899999D01*
X136733988Y-112899999D01*
X136515231Y-112742044D01*
X136171994Y-112490813D01*
X136169405Y-112488852D01*
X136155081Y-112477625D01*
X135727487Y-112142488D01*
X135391155Y-111875038D01*
X135388722Y-111873038D01*
X135185010Y-111700000D01*
X135119967Y-111644750D01*
X134963600Y-111511928D01*
X134825287Y-111392621D01*
X134635410Y-111228835D01*
X134633086Y-111226765D01*
X134224795Y-110851290D01*
X133905889Y-110553176D01*
X133903664Y-110551030D01*
X133512323Y-110161604D01*
X133203727Y-109849114D01*
X133201628Y-109846921D01*
X132827449Y-109444024D01*
X132787317Y-109399999D01*
X135444750Y-109399999D01*
X135463669Y-109543709D01*
X135502892Y-109638401D01*
X135519139Y-109677625D01*
X135540961Y-109706064D01*
X135607378Y-109792621D01*
X135657306Y-109830932D01*
X135722375Y-109880861D01*
X135815787Y-109919553D01*
X135856290Y-109936330D01*
X135873008Y-109938531D01*
X136000000Y-109955250D01*
X136143709Y-109936330D01*
X136178329Y-109921989D01*
X136239324Y-109917188D01*
X136258367Y-109923875D01*
X138832201Y-111135091D01*
X138876802Y-111176976D01*
X138881511Y-111186782D01*
X138919139Y-111277625D01*
X139007378Y-111392621D01*
X139046155Y-111422375D01*
X139122375Y-111480861D01*
X139217067Y-111520083D01*
X139256290Y-111536330D01*
X139264775Y-111537447D01*
X139400000Y-111555250D01*
X139543709Y-111536330D01*
X139677625Y-111480861D01*
X139792621Y-111392621D01*
X139880861Y-111277625D01*
X139936330Y-111143709D01*
X139955250Y-111000000D01*
X139936330Y-110856291D01*
X139923096Y-110824342D01*
X139920083Y-110817067D01*
X139880861Y-110722375D01*
X139799343Y-110616139D01*
X139792621Y-110607378D01*
X139719186Y-110551030D01*
X139677625Y-110519139D01*
X139618766Y-110494759D01*
X139543709Y-110463669D01*
X139400000Y-110444750D01*
X139256290Y-110463670D01*
X139221667Y-110478010D01*
X139160670Y-110482809D01*
X139141630Y-110476122D01*
X136567797Y-109264907D01*
X136523196Y-109223022D01*
X136518492Y-109213228D01*
X136480861Y-109122375D01*
X136392621Y-109007379D01*
X136392619Y-109007378D01*
X136392619Y-109007377D01*
X136295544Y-108932889D01*
X136277625Y-108919139D01*
X136231416Y-108899999D01*
X136143709Y-108863669D01*
X136000000Y-108844750D01*
X135856290Y-108863669D01*
X135722375Y-108919139D01*
X135607378Y-109007378D01*
X135519139Y-109122375D01*
X135463669Y-109256290D01*
X135444750Y-109399999D01*
X132787317Y-109399999D01*
X132530034Y-109117758D01*
X132528060Y-109115526D01*
X132435279Y-109007378D01*
X132171336Y-108699718D01*
X132148844Y-108672972D01*
X131885868Y-108360260D01*
X131884088Y-108358078D01*
X131545050Y-107929849D01*
X131372850Y-107707633D01*
X131272301Y-107577879D01*
X131270585Y-107575597D01*
X131220816Y-107507378D01*
X130949585Y-107135596D01*
X130690246Y-106771797D01*
X130688647Y-106769485D01*
X130684745Y-106763669D01*
X130487919Y-106470266D01*
X130385928Y-106318232D01*
X130140591Y-105943237D01*
X130139115Y-105940910D01*
X130124201Y-105916666D01*
X129855041Y-105479127D01*
X129624208Y-105093511D01*
X129622910Y-105091272D01*
X129515391Y-104899999D01*
X131644750Y-104899999D01*
X131663669Y-105043709D01*
X131683355Y-105091234D01*
X131719139Y-105177625D01*
X131746376Y-105213121D01*
X131807378Y-105292621D01*
X131857306Y-105330932D01*
X131922375Y-105380861D01*
X132017067Y-105420083D01*
X132056290Y-105436330D01*
X132081972Y-105439711D01*
X132200000Y-105455250D01*
X132232890Y-105450919D01*
X132293047Y-105462068D01*
X132310233Y-105473903D01*
X134386882Y-107253887D01*
X134416489Y-107279264D01*
X134448366Y-107331489D01*
X134450214Y-107341507D01*
X134463669Y-107443710D01*
X134506572Y-107547287D01*
X134519139Y-107577625D01*
X134553477Y-107622375D01*
X134607378Y-107692621D01*
X134657306Y-107730932D01*
X134722375Y-107780861D01*
X134817067Y-107820083D01*
X134856290Y-107836330D01*
X134873008Y-107838531D01*
X135000000Y-107855250D01*
X135143709Y-107836330D01*
X135277625Y-107780861D01*
X135392621Y-107692621D01*
X135480861Y-107577625D01*
X135536330Y-107443709D01*
X135555250Y-107300000D01*
X135536330Y-107156291D01*
X135480861Y-107022375D01*
X135430932Y-106957306D01*
X135392621Y-106907378D01*
X135316594Y-106849041D01*
X135277625Y-106819139D01*
X135238401Y-106802892D01*
X135143709Y-106763669D01*
X134999998Y-106744749D01*
X134967108Y-106749079D01*
X134906948Y-106737928D01*
X134889761Y-106726092D01*
X132783509Y-104920734D01*
X132751632Y-104868509D01*
X132749786Y-104858500D01*
X132736330Y-104756291D01*
X132680861Y-104622375D01*
X132624652Y-104549122D01*
X132592621Y-104507378D01*
X132527552Y-104457450D01*
X132477625Y-104419139D01*
X132438401Y-104402892D01*
X132343709Y-104363669D01*
X132200000Y-104344750D01*
X132056290Y-104363669D01*
X131922375Y-104419139D01*
X131807378Y-104507378D01*
X131719139Y-104622375D01*
X131663669Y-104756290D01*
X131644750Y-104899999D01*
X129515391Y-104899999D01*
X129357722Y-104619510D01*
X129141992Y-104224094D01*
X129140775Y-104221789D01*
X129082268Y-104107379D01*
X128894783Y-103740754D01*
X128694556Y-103336097D01*
X128693516Y-103333922D01*
X128466999Y-102844306D01*
X128427743Y-102756290D01*
X128282775Y-102431257D01*
X128281812Y-102429021D01*
X128075015Y-101931496D01*
X128048124Y-101864089D01*
X127907161Y-101510726D01*
X127906306Y-101508502D01*
X127719485Y-101003817D01*
X127568377Y-100576124D01*
X127567598Y-100573832D01*
X127555317Y-100536161D01*
X127400952Y-100062655D01*
X127266867Y-99628679D01*
X127266240Y-99626560D01*
X127202133Y-99400000D01*
X129044750Y-99400000D01*
X129063669Y-99543709D01*
X129077718Y-99577625D01*
X129119139Y-99677625D01*
X129130646Y-99692621D01*
X129207378Y-99792621D01*
X129257306Y-99830932D01*
X129322375Y-99880861D01*
X129395615Y-99911197D01*
X129456289Y-99936330D01*
X129468555Y-99937944D01*
X129486162Y-99940262D01*
X129541387Y-99966601D01*
X129555203Y-99982888D01*
X130246830Y-101003862D01*
X131142459Y-102325981D01*
X131159441Y-102384762D01*
X131158648Y-102394426D01*
X131152785Y-102438964D01*
X131144750Y-102500000D01*
X131145722Y-102507380D01*
X131163669Y-102643709D01*
X131202892Y-102738401D01*
X131219139Y-102777625D01*
X131254768Y-102824057D01*
X131307378Y-102892621D01*
X131316995Y-102900000D01*
X131422375Y-102980861D01*
X131517067Y-103020083D01*
X131556290Y-103036330D01*
X131575209Y-103038820D01*
X131700000Y-103055250D01*
X131843709Y-103036330D01*
X131977625Y-102980861D01*
X132092621Y-102892621D01*
X132180861Y-102777625D01*
X132236330Y-102643709D01*
X132255250Y-102500000D01*
X132236330Y-102356291D01*
X132180861Y-102222375D01*
X132130932Y-102157306D01*
X132092621Y-102107378D01*
X132027552Y-102057450D01*
X131977625Y-102019139D01*
X131938401Y-102002892D01*
X131843709Y-101963669D01*
X131813834Y-101959736D01*
X131758609Y-101933394D01*
X131744794Y-101917107D01*
X130946516Y-100738698D01*
X130157538Y-99574016D01*
X130140557Y-99515237D01*
X130141348Y-99505587D01*
X130155250Y-99400000D01*
X130136330Y-99256291D01*
X130080861Y-99122375D01*
X130004128Y-99022375D01*
X129992621Y-99007378D01*
X129927552Y-98957450D01*
X129877625Y-98919139D01*
X129838401Y-98902892D01*
X129743709Y-98863669D01*
X129600000Y-98844750D01*
X129456290Y-98863669D01*
X129322375Y-98919139D01*
X129207378Y-99007378D01*
X129119139Y-99122375D01*
X129063669Y-99256290D01*
X129044750Y-99400000D01*
X127202133Y-99400000D01*
X127119967Y-99109615D01*
X127003190Y-98670125D01*
X127002665Y-98668053D01*
X126876939Y-98146058D01*
X126777720Y-97701845D01*
X126777314Y-97699924D01*
X126672291Y-97173624D01*
X126590842Y-96725512D01*
X126590508Y-96723551D01*
X126506342Y-96193836D01*
X126499975Y-96148599D01*
X126442814Y-95742516D01*
X126442563Y-95740589D01*
X126379345Y-95208141D01*
X126333878Y-94754466D01*
X126333706Y-94752547D01*
X126291516Y-94218143D01*
X126264200Y-93762913D01*
X126264107Y-93761041D01*
X126257760Y-93600000D01*
X127944750Y-93600000D01*
X127963669Y-93743709D01*
X127977718Y-93777625D01*
X128019139Y-93877625D01*
X128030646Y-93892621D01*
X128107378Y-93992621D01*
X128195618Y-94060329D01*
X128222375Y-94080861D01*
X128257556Y-94095433D01*
X128304082Y-94135169D01*
X128312786Y-94153272D01*
X129302692Y-96894552D01*
X129304673Y-96955706D01*
X129301042Y-96966061D01*
X129263669Y-97056291D01*
X129244750Y-97200000D01*
X129263669Y-97343709D01*
X129290020Y-97407325D01*
X129319139Y-97477625D01*
X129357450Y-97527552D01*
X129407378Y-97592621D01*
X129457306Y-97630932D01*
X129522375Y-97680861D01*
X129617067Y-97720083D01*
X129656290Y-97736330D01*
X129675209Y-97738820D01*
X129800000Y-97755250D01*
X129943709Y-97736330D01*
X130077625Y-97680861D01*
X130192621Y-97592621D01*
X130280861Y-97477625D01*
X130336330Y-97343709D01*
X130355250Y-97200000D01*
X130336330Y-97056291D01*
X130336329Y-97056289D01*
X130298956Y-96966061D01*
X130280861Y-96922375D01*
X130222286Y-96846039D01*
X130192621Y-96807378D01*
X130085930Y-96725512D01*
X130077625Y-96719139D01*
X130042439Y-96704564D01*
X129995915Y-96664827D01*
X129987212Y-96646726D01*
X128997304Y-93905443D01*
X128995324Y-93844293D01*
X128998946Y-93833962D01*
X129036330Y-93743709D01*
X129055250Y-93600000D01*
X129036330Y-93456291D01*
X128980861Y-93322375D01*
X128930932Y-93257306D01*
X128892621Y-93207378D01*
X128827552Y-93157450D01*
X128777625Y-93119139D01*
X128738401Y-93102892D01*
X128643709Y-93063669D01*
X128516717Y-93046951D01*
X128500000Y-93044750D01*
X128499999Y-93044750D01*
X128356290Y-93063669D01*
X128222375Y-93119139D01*
X128107378Y-93207378D01*
X128019139Y-93322375D01*
X127963669Y-93456290D01*
X127944750Y-93600000D01*
X126257760Y-93600000D01*
X126242996Y-93225418D01*
X126233867Y-92768455D01*
X126233867Y-92500000D01*
X130294501Y-92500000D01*
X130294525Y-92501099D01*
X130313185Y-93356291D01*
X130314494Y-93416247D01*
X130314563Y-93417301D01*
X130314564Y-93417322D01*
X130366808Y-94214410D01*
X130374433Y-94330750D01*
X130374548Y-94331800D01*
X130474091Y-95240723D01*
X130474094Y-95240748D01*
X130474206Y-95241768D01*
X130474361Y-95242781D01*
X130474366Y-95242812D01*
X130613461Y-96146523D01*
X130613463Y-96146536D01*
X130613622Y-96147567D01*
X130613824Y-96148586D01*
X130613827Y-96148599D01*
X130776430Y-96966061D01*
X130792415Y-97046422D01*
X130792670Y-97047465D01*
X130792672Y-97047473D01*
X130998704Y-97889458D01*
X131010246Y-97936623D01*
X131010541Y-97937637D01*
X131010548Y-97937661D01*
X131266397Y-98815438D01*
X131266406Y-98815468D01*
X131266700Y-98816475D01*
X131267039Y-98817476D01*
X131267048Y-98817502D01*
X131560939Y-99683278D01*
X131560949Y-99683307D01*
X131561288Y-99684304D01*
X131561667Y-99685279D01*
X131561677Y-99685306D01*
X131893061Y-100537460D01*
X131893071Y-100537486D01*
X131893449Y-100538456D01*
X131893877Y-100539430D01*
X131893878Y-100539431D01*
X132262116Y-101376316D01*
X132262132Y-101376351D01*
X132262553Y-101377307D01*
X132263029Y-101378273D01*
X132263035Y-101378285D01*
X132546912Y-101953931D01*
X132667895Y-102199260D01*
X132668401Y-102200182D01*
X132668418Y-102200215D01*
X132973492Y-102756290D01*
X133108704Y-103002750D01*
X133109252Y-103003653D01*
X133109256Y-103003660D01*
X133140561Y-103055249D01*
X133584142Y-103786246D01*
X133584754Y-103787163D01*
X133584770Y-103787187D01*
X134092697Y-104547353D01*
X134092710Y-104547372D01*
X134093303Y-104548259D01*
X134093918Y-104549098D01*
X134093935Y-104549122D01*
X134634598Y-105286495D01*
X134634617Y-105286520D01*
X134635217Y-105287338D01*
X134635856Y-105288134D01*
X134635872Y-105288155D01*
X134898409Y-105615268D01*
X135208854Y-106002074D01*
X135209579Y-106002901D01*
X135209586Y-106002909D01*
X135812412Y-106690300D01*
X135812424Y-106690313D01*
X135813122Y-106691109D01*
X136446869Y-107353131D01*
X137108891Y-107986878D01*
X137109688Y-107987577D01*
X137109699Y-107987587D01*
X137558141Y-108380860D01*
X137797926Y-108591146D01*
X138003691Y-108756290D01*
X138511844Y-109164127D01*
X138511858Y-109164138D01*
X138512662Y-109164783D01*
X138513485Y-109165387D01*
X138513504Y-109165401D01*
X139250877Y-109706064D01*
X139250892Y-109706074D01*
X139251741Y-109706697D01*
X139252636Y-109707295D01*
X139252646Y-109707302D01*
X140012812Y-110215229D01*
X140012825Y-110215237D01*
X140013754Y-110215858D01*
X140797250Y-110691296D01*
X141290810Y-110962072D01*
X141599784Y-111131581D01*
X141599800Y-111131589D01*
X141600740Y-111132105D01*
X142422693Y-111537447D01*
X142423668Y-111537876D01*
X142423683Y-111537883D01*
X142770647Y-111690550D01*
X143261544Y-111906551D01*
X143262536Y-111906936D01*
X143262539Y-111906938D01*
X143966932Y-112180861D01*
X144115696Y-112238712D01*
X144983525Y-112533300D01*
X145863377Y-112789754D01*
X146753578Y-113007585D01*
X147652433Y-113186378D01*
X148558232Y-113325794D01*
X149469250Y-113425567D01*
X150383753Y-113485506D01*
X151300000Y-113505499D01*
X152216247Y-113485506D01*
X153130750Y-113425567D01*
X154041768Y-113325794D01*
X154947567Y-113186378D01*
X155846422Y-113007585D01*
X156736623Y-112789754D01*
X157616475Y-112533300D01*
X158484304Y-112238712D01*
X159338456Y-111906551D01*
X160177307Y-111537447D01*
X160999260Y-111132105D01*
X161802750Y-110691296D01*
X162586246Y-110215858D01*
X163348259Y-109706697D01*
X164087338Y-109164783D01*
X164802074Y-108591146D01*
X165491109Y-107986878D01*
X165581864Y-107899999D01*
X167944750Y-107899999D01*
X167963669Y-108043709D01*
X168002892Y-108138401D01*
X168019139Y-108177625D01*
X168057450Y-108227552D01*
X168107378Y-108292621D01*
X168157306Y-108330932D01*
X168222375Y-108380861D01*
X168314788Y-108419139D01*
X168356290Y-108436330D01*
X168375210Y-108438820D01*
X168500000Y-108455250D01*
X168643709Y-108436330D01*
X168777625Y-108380861D01*
X168892621Y-108292621D01*
X168980861Y-108177625D01*
X169036330Y-108043709D01*
X169055250Y-107900000D01*
X169036330Y-107756291D01*
X169016173Y-107707628D01*
X169011373Y-107646636D01*
X169017057Y-107629796D01*
X170149131Y-105063760D01*
X170189917Y-105018154D01*
X170201817Y-105012260D01*
X170277625Y-104980861D01*
X170392621Y-104892621D01*
X170480861Y-104777625D01*
X170536330Y-104643709D01*
X170555250Y-104500000D01*
X170538820Y-104375209D01*
X170536330Y-104356290D01*
X170520083Y-104317067D01*
X170480861Y-104222375D01*
X170430932Y-104157306D01*
X170392621Y-104107378D01*
X170327552Y-104057450D01*
X170277625Y-104019139D01*
X170238401Y-104002892D01*
X170143709Y-103963669D01*
X170000000Y-103944750D01*
X169856290Y-103963669D01*
X169722375Y-104019139D01*
X169607378Y-104107378D01*
X169519139Y-104222375D01*
X169463669Y-104356290D01*
X169444750Y-104499999D01*
X169444750Y-104500000D01*
X169446721Y-104514975D01*
X169463669Y-104643710D01*
X169483824Y-104692367D01*
X169488625Y-104753364D01*
X169482937Y-104770212D01*
X168350868Y-107336237D01*
X168310081Y-107381845D01*
X168298177Y-107387741D01*
X168222374Y-107419139D01*
X168107378Y-107507378D01*
X168019139Y-107622375D01*
X167963669Y-107756290D01*
X167944750Y-107899999D01*
X165581864Y-107899999D01*
X166153131Y-107353131D01*
X166786878Y-106691109D01*
X167391146Y-106002074D01*
X167964783Y-105287338D01*
X168506697Y-104548259D01*
X169015858Y-103786246D01*
X169491296Y-103002750D01*
X169547667Y-102899999D01*
X171344750Y-102899999D01*
X171363669Y-103043709D01*
X171402892Y-103138401D01*
X171419139Y-103177625D01*
X171457450Y-103227552D01*
X171507378Y-103292621D01*
X171557306Y-103330932D01*
X171622375Y-103380861D01*
X171717067Y-103420083D01*
X171756290Y-103436330D01*
X171775209Y-103438820D01*
X171900000Y-103455250D01*
X172043709Y-103436330D01*
X172177625Y-103380861D01*
X172292621Y-103292621D01*
X172380861Y-103177625D01*
X172436330Y-103043709D01*
X172455250Y-102900000D01*
X172436330Y-102756291D01*
X172380861Y-102622375D01*
X172342730Y-102572683D01*
X172322308Y-102515010D01*
X172323214Y-102498811D01*
X172697875Y-99801243D01*
X172724608Y-99746208D01*
X172735658Y-99736329D01*
X172792621Y-99692621D01*
X172880861Y-99577625D01*
X172936330Y-99443709D01*
X172955250Y-99300000D01*
X172936330Y-99156291D01*
X172880861Y-99022375D01*
X172801645Y-98919139D01*
X172792621Y-98907378D01*
X172727552Y-98857450D01*
X172677625Y-98819139D01*
X172638401Y-98802892D01*
X172543709Y-98763669D01*
X172416717Y-98746951D01*
X172400000Y-98744750D01*
X172399999Y-98744750D01*
X172256290Y-98763669D01*
X172122375Y-98819139D01*
X172007378Y-98907378D01*
X171919139Y-99022375D01*
X171863669Y-99156290D01*
X171844750Y-99299999D01*
X171863669Y-99443710D01*
X171919138Y-99577625D01*
X171957265Y-99627312D01*
X171977690Y-99684988D01*
X171976783Y-99701199D01*
X171602122Y-102398754D01*
X171575389Y-102453791D01*
X171564332Y-102463676D01*
X171507378Y-102507380D01*
X171419138Y-102622375D01*
X171363669Y-102756290D01*
X171344750Y-102899999D01*
X169547667Y-102899999D01*
X169932105Y-102199260D01*
X170337447Y-101377307D01*
X170706551Y-100538456D01*
X171038712Y-99684304D01*
X171333300Y-98816475D01*
X171589754Y-97936623D01*
X171807585Y-97046422D01*
X171986378Y-96147567D01*
X172125794Y-95241768D01*
X172225567Y-94330750D01*
X172280017Y-93499999D01*
X172944750Y-93499999D01*
X172963669Y-93643709D01*
X173005089Y-93743706D01*
X173019139Y-93777625D01*
X173095872Y-93877625D01*
X173107379Y-93892621D01*
X173148955Y-93924523D01*
X173183610Y-93974948D01*
X173187113Y-93992424D01*
X173489139Y-96786153D01*
X173476596Y-96846039D01*
X173469255Y-96857061D01*
X173419138Y-96922374D01*
X173363669Y-97056289D01*
X173344750Y-97200000D01*
X173363669Y-97343709D01*
X173390020Y-97407325D01*
X173419139Y-97477625D01*
X173457450Y-97527552D01*
X173507378Y-97592621D01*
X173557306Y-97630932D01*
X173622375Y-97680861D01*
X173717067Y-97720083D01*
X173756290Y-97736330D01*
X173775209Y-97738820D01*
X173900000Y-97755250D01*
X174043709Y-97736330D01*
X174177625Y-97680861D01*
X174292621Y-97592621D01*
X174380861Y-97477625D01*
X174436330Y-97343709D01*
X174455250Y-97200000D01*
X174436330Y-97056291D01*
X174436329Y-97056289D01*
X174398956Y-96966061D01*
X174380861Y-96922375D01*
X174322286Y-96846039D01*
X174292621Y-96807378D01*
X174251044Y-96775475D01*
X174216388Y-96725051D01*
X174212885Y-96707574D01*
X174206307Y-96646726D01*
X173910859Y-93913843D01*
X173923402Y-93853959D01*
X173930732Y-93842952D01*
X173980861Y-93777625D01*
X174036330Y-93643709D01*
X174055250Y-93500000D01*
X174036330Y-93356291D01*
X173980861Y-93222375D01*
X173901645Y-93119139D01*
X173892621Y-93107378D01*
X173827552Y-93057450D01*
X173777625Y-93019139D01*
X173738401Y-93002892D01*
X173643709Y-92963669D01*
X173516717Y-92946951D01*
X173500000Y-92944750D01*
X173499999Y-92944750D01*
X173356290Y-92963669D01*
X173222375Y-93019139D01*
X173107378Y-93107378D01*
X173019139Y-93222375D01*
X172963669Y-93356290D01*
X172944750Y-93499999D01*
X172280017Y-93499999D01*
X172285506Y-93416247D01*
X172305499Y-92500000D01*
X172285506Y-91583753D01*
X172225567Y-90669250D01*
X172125794Y-89758232D01*
X171986378Y-88852433D01*
X171807585Y-87953578D01*
X171770004Y-87799999D01*
X172444750Y-87799999D01*
X172463669Y-87943709D01*
X172492606Y-88013568D01*
X172519139Y-88077625D01*
X172524275Y-88084318D01*
X172607378Y-88192621D01*
X172695618Y-88260329D01*
X172722375Y-88280861D01*
X172757556Y-88295433D01*
X172804082Y-88335169D01*
X172812786Y-88353272D01*
X173802692Y-91094552D01*
X173804673Y-91155706D01*
X173801042Y-91166061D01*
X173763669Y-91256291D01*
X173744750Y-91399999D01*
X173763669Y-91543709D01*
X173780706Y-91584839D01*
X173819139Y-91677625D01*
X173857450Y-91727552D01*
X173907378Y-91792621D01*
X173957306Y-91830932D01*
X174022375Y-91880861D01*
X174117067Y-91920083D01*
X174156290Y-91936330D01*
X174175209Y-91938820D01*
X174300000Y-91955250D01*
X174443709Y-91936330D01*
X174577625Y-91880861D01*
X174692621Y-91792621D01*
X174780861Y-91677625D01*
X174836330Y-91543709D01*
X174855250Y-91400000D01*
X174836330Y-91256291D01*
X174828419Y-91237193D01*
X174798956Y-91166061D01*
X174780861Y-91122375D01*
X174730932Y-91057306D01*
X174692621Y-91007378D01*
X174577626Y-90919140D01*
X174577625Y-90919139D01*
X174542439Y-90904564D01*
X174495915Y-90864827D01*
X174487212Y-90846726D01*
X174272503Y-90252148D01*
X173497304Y-88105443D01*
X173495324Y-88044293D01*
X173498946Y-88033962D01*
X173536330Y-87943709D01*
X173555250Y-87800000D01*
X173536330Y-87656291D01*
X173480861Y-87522375D01*
X173430152Y-87456290D01*
X173392621Y-87407378D01*
X173327552Y-87357450D01*
X173277625Y-87319139D01*
X173226890Y-87298124D01*
X173143709Y-87263669D01*
X173000000Y-87244750D01*
X172856290Y-87263669D01*
X172722375Y-87319139D01*
X172607378Y-87407378D01*
X172519139Y-87522375D01*
X172463669Y-87656290D01*
X172444750Y-87799999D01*
X171770004Y-87799999D01*
X171589754Y-87063377D01*
X171333300Y-86183525D01*
X171038712Y-85315696D01*
X171002422Y-85222375D01*
X170706938Y-84462539D01*
X170706936Y-84462536D01*
X170706551Y-84461544D01*
X170413054Y-83794523D01*
X170337883Y-83623683D01*
X170337876Y-83623668D01*
X170337447Y-83622693D01*
X169932105Y-82800740D01*
X169864561Y-82677624D01*
X169712252Y-82400000D01*
X170544750Y-82400000D01*
X170563669Y-82543709D01*
X170602892Y-82638401D01*
X170619139Y-82677625D01*
X170657450Y-82727552D01*
X170707378Y-82792621D01*
X170757306Y-82830932D01*
X170822375Y-82880861D01*
X170895615Y-82911197D01*
X170956289Y-82936330D01*
X170968555Y-82937944D01*
X170986162Y-82940262D01*
X171041387Y-82966601D01*
X171055203Y-82982888D01*
X171411865Y-83509389D01*
X172642459Y-85325981D01*
X172659441Y-85384762D01*
X172658648Y-85394426D01*
X172644750Y-85499999D01*
X172663669Y-85643709D01*
X172702892Y-85738401D01*
X172719139Y-85777625D01*
X172757450Y-85827552D01*
X172807378Y-85892621D01*
X172857306Y-85930932D01*
X172922375Y-85980861D01*
X173017067Y-86020083D01*
X173056290Y-86036330D01*
X173073008Y-86038531D01*
X173200000Y-86055250D01*
X173343709Y-86036330D01*
X173477625Y-85980861D01*
X173592621Y-85892621D01*
X173680861Y-85777625D01*
X173736330Y-85643709D01*
X173755250Y-85500000D01*
X173736330Y-85356291D01*
X173680861Y-85222375D01*
X173610489Y-85130665D01*
X173592621Y-85107378D01*
X173527552Y-85057450D01*
X173477625Y-85019139D01*
X173438401Y-85002892D01*
X173343709Y-84963669D01*
X173313834Y-84959736D01*
X173258609Y-84933394D01*
X173244794Y-84917107D01*
X172005212Y-83087249D01*
X171657538Y-82574016D01*
X171640557Y-82515237D01*
X171641348Y-82505587D01*
X171655250Y-82400000D01*
X171636330Y-82256291D01*
X171580861Y-82122375D01*
X171520498Y-82043709D01*
X171492621Y-82007378D01*
X171427552Y-81957450D01*
X171377625Y-81919139D01*
X171331419Y-81900000D01*
X171243709Y-81863669D01*
X171116717Y-81846951D01*
X171100000Y-81844750D01*
X171099999Y-81844750D01*
X170956290Y-81863669D01*
X170822375Y-81919139D01*
X170707378Y-82007378D01*
X170619139Y-82122375D01*
X170563669Y-82256290D01*
X170544750Y-82400000D01*
X169712252Y-82400000D01*
X169491807Y-81998182D01*
X169491802Y-81998173D01*
X169491296Y-81997251D01*
X169015858Y-81213754D01*
X168928152Y-81082493D01*
X168507302Y-80452646D01*
X168507295Y-80452636D01*
X168506697Y-80451741D01*
X168506074Y-80450892D01*
X168506064Y-80450877D01*
X167965401Y-79713504D01*
X167965387Y-79713485D01*
X167964783Y-79712662D01*
X167964138Y-79711858D01*
X167964127Y-79711844D01*
X167391836Y-78998786D01*
X167391146Y-78997926D01*
X167366863Y-78970236D01*
X166787587Y-78309699D01*
X166787577Y-78309688D01*
X166786878Y-78308891D01*
X166203992Y-77699999D01*
X167244750Y-77699999D01*
X167263669Y-77843709D01*
X167282843Y-77889998D01*
X167319139Y-77977625D01*
X167357450Y-78027552D01*
X167407378Y-78092621D01*
X167450411Y-78125641D01*
X167522375Y-78180861D01*
X167617067Y-78220083D01*
X167656290Y-78236330D01*
X167681972Y-78239711D01*
X167800000Y-78255250D01*
X167843491Y-78249523D01*
X167903649Y-78260672D01*
X167919529Y-78271405D01*
X169978335Y-79975245D01*
X170116707Y-80089759D01*
X170149482Y-80141426D01*
X170151741Y-80153105D01*
X170163669Y-80243710D01*
X170201536Y-80335128D01*
X170219139Y-80377625D01*
X170238864Y-80403331D01*
X170307378Y-80492621D01*
X170316995Y-80500000D01*
X170422375Y-80580861D01*
X170517067Y-80620083D01*
X170556290Y-80636330D01*
X170573008Y-80638531D01*
X170700000Y-80655250D01*
X170843709Y-80636330D01*
X170977625Y-80580861D01*
X171092621Y-80492621D01*
X171180861Y-80377625D01*
X171236330Y-80243709D01*
X171255250Y-80100000D01*
X171238352Y-79971647D01*
X171236330Y-79956290D01*
X171215727Y-79906551D01*
X171180861Y-79822375D01*
X171130932Y-79757306D01*
X171092621Y-79707378D01*
X171027552Y-79657450D01*
X170977625Y-79619139D01*
X170938401Y-79602892D01*
X170843709Y-79563669D01*
X170699998Y-79544749D01*
X170656506Y-79550475D01*
X170596346Y-79539324D01*
X170580467Y-79528591D01*
X169939247Y-78997926D01*
X168383290Y-77710238D01*
X168350516Y-77658572D01*
X168348257Y-77646891D01*
X168336330Y-77556290D01*
X168309957Y-77492621D01*
X168280861Y-77422375D01*
X168223047Y-77347031D01*
X168192621Y-77307378D01*
X168109645Y-77243709D01*
X168077625Y-77219139D01*
X168038401Y-77202892D01*
X167943709Y-77163669D01*
X167800000Y-77144750D01*
X167656290Y-77163669D01*
X167522375Y-77219139D01*
X167407378Y-77307378D01*
X167319139Y-77422375D01*
X167263669Y-77556290D01*
X167244750Y-77699999D01*
X166203992Y-77699999D01*
X166153131Y-77646869D01*
X165491109Y-77013122D01*
X165490313Y-77012424D01*
X165490300Y-77012412D01*
X164802909Y-76409586D01*
X164802901Y-76409579D01*
X164802074Y-76408854D01*
X164417252Y-76100001D01*
X164088155Y-75835872D01*
X164088134Y-75835856D01*
X164087338Y-75835217D01*
X164086520Y-75834617D01*
X164086495Y-75834598D01*
X163349122Y-75293935D01*
X163349098Y-75293918D01*
X163348259Y-75293303D01*
X163347372Y-75292710D01*
X163347353Y-75292697D01*
X162587187Y-74784770D01*
X162587163Y-74784754D01*
X162586246Y-74784142D01*
X161802750Y-74308704D01*
X161510904Y-74148592D01*
X161240055Y-73999999D01*
X162844750Y-73999999D01*
X162863669Y-74143709D01*
X162902892Y-74238401D01*
X162919139Y-74277625D01*
X162946974Y-74313900D01*
X163007378Y-74392621D01*
X163057306Y-74430932D01*
X163122375Y-74480861D01*
X163201425Y-74513604D01*
X163256290Y-74536330D01*
X163273008Y-74538531D01*
X163400000Y-74555250D01*
X163543709Y-74536330D01*
X163598574Y-74513603D01*
X163659569Y-74508803D01*
X163675457Y-74514073D01*
X166337934Y-75655134D01*
X166383972Y-75695435D01*
X166390400Y-75708243D01*
X166419139Y-75777625D01*
X166507378Y-75892621D01*
X166557306Y-75930932D01*
X166622375Y-75980861D01*
X166701700Y-76013718D01*
X166756290Y-76036330D01*
X166773008Y-76038531D01*
X166900000Y-76055250D01*
X167043709Y-76036330D01*
X167177625Y-75980861D01*
X167292621Y-75892621D01*
X167380861Y-75777625D01*
X167436330Y-75643709D01*
X167455250Y-75500000D01*
X167436330Y-75356291D01*
X167380861Y-75222375D01*
X167327686Y-75153076D01*
X167292621Y-75107378D01*
X167227552Y-75057450D01*
X167177625Y-75019139D01*
X167137114Y-75002359D01*
X167043709Y-74963669D01*
X166900000Y-74944750D01*
X166756289Y-74963669D01*
X166701425Y-74986395D01*
X166640428Y-74991195D01*
X166624542Y-74985926D01*
X163962064Y-73844864D01*
X163916026Y-73804563D01*
X163909600Y-73791760D01*
X163880861Y-73722375D01*
X163792621Y-73607379D01*
X163792619Y-73607378D01*
X163792619Y-73607377D01*
X163749207Y-73574066D01*
X163677625Y-73519139D01*
X163602494Y-73488019D01*
X163543709Y-73463669D01*
X163400000Y-73444750D01*
X163256290Y-73463669D01*
X163122375Y-73519139D01*
X163007378Y-73607378D01*
X162919139Y-73722375D01*
X162863669Y-73856290D01*
X162844750Y-73999999D01*
X161240055Y-73999999D01*
X161000215Y-73868418D01*
X161000182Y-73868401D01*
X160999260Y-73867895D01*
X160998277Y-73867410D01*
X160178285Y-73463035D01*
X160178273Y-73463029D01*
X160177307Y-73462553D01*
X160176351Y-73462132D01*
X160176316Y-73462116D01*
X159339431Y-73093878D01*
X159339430Y-73093877D01*
X159338456Y-73093449D01*
X159337486Y-73093071D01*
X159337460Y-73093061D01*
X158485306Y-72761677D01*
X158485279Y-72761667D01*
X158484304Y-72761288D01*
X158483307Y-72760949D01*
X158483278Y-72760939D01*
X157617502Y-72467048D01*
X157617476Y-72467039D01*
X157616475Y-72466700D01*
X157615468Y-72466406D01*
X157615438Y-72466397D01*
X156737661Y-72210548D01*
X156737637Y-72210541D01*
X156736623Y-72210246D01*
X156735587Y-72209992D01*
X156735574Y-72209989D01*
X155847473Y-71992672D01*
X155847465Y-71992670D01*
X155846422Y-71992415D01*
X155845368Y-71992205D01*
X155845362Y-71992204D01*
X154948599Y-71813827D01*
X154948586Y-71813824D01*
X154947567Y-71813622D01*
X154946536Y-71813463D01*
X154946523Y-71813461D01*
X154042812Y-71674366D01*
X154042781Y-71674361D01*
X154041768Y-71674206D01*
X154040748Y-71674094D01*
X154040723Y-71674091D01*
X153131800Y-71574548D01*
X153130750Y-71574433D01*
X153129693Y-71574363D01*
X153129685Y-71574363D01*
X152217322Y-71514564D01*
X152217301Y-71514563D01*
X152216247Y-71514494D01*
X152215172Y-71514470D01*
X152215160Y-71514470D01*
X151552014Y-71500000D01*
X157744750Y-71500000D01*
X157763669Y-71643709D01*
X157793081Y-71714715D01*
X157819139Y-71777625D01*
X157846637Y-71813461D01*
X157907378Y-71892621D01*
X157934289Y-71913270D01*
X158022375Y-71980861D01*
X158117067Y-72020083D01*
X158156290Y-72036330D01*
X158175209Y-72038820D01*
X158300000Y-72055250D01*
X158443709Y-72036330D01*
X158577625Y-71980861D01*
X158627313Y-71942733D01*
X158684989Y-71922309D01*
X158701199Y-71923215D01*
X161398752Y-72297875D01*
X161453789Y-72324608D01*
X161463675Y-72335666D01*
X161507379Y-72392622D01*
X161564877Y-72436740D01*
X161622375Y-72480861D01*
X161690894Y-72509242D01*
X161756290Y-72536330D01*
X161775209Y-72538820D01*
X161900000Y-72555250D01*
X162043709Y-72536330D01*
X162177625Y-72480861D01*
X162292621Y-72392621D01*
X162380861Y-72277625D01*
X162436330Y-72143709D01*
X162455250Y-72000000D01*
X162436330Y-71856291D01*
X162380861Y-71722375D01*
X162310570Y-71630770D01*
X162292621Y-71607378D01*
X162227313Y-71557266D01*
X162177625Y-71519139D01*
X162118143Y-71494501D01*
X162043709Y-71463669D01*
X161916717Y-71446951D01*
X161900000Y-71444750D01*
X161899999Y-71444750D01*
X161756289Y-71463669D01*
X161622374Y-71519138D01*
X161572685Y-71557266D01*
X161515009Y-71577690D01*
X161498799Y-71576783D01*
X158801244Y-71202122D01*
X158746207Y-71175389D01*
X158736326Y-71164337D01*
X158692621Y-71107379D01*
X158692619Y-71107377D01*
X158692618Y-71107376D01*
X158637841Y-71065344D01*
X158577625Y-71019139D01*
X158538401Y-71002892D01*
X158443709Y-70963669D01*
X158316717Y-70946951D01*
X158300000Y-70944750D01*
X158299999Y-70944750D01*
X158156290Y-70963669D01*
X158022375Y-71019139D01*
X157907378Y-71107378D01*
X157819139Y-71222375D01*
X157763669Y-71356290D01*
X157744750Y-71500000D01*
X151552014Y-71500000D01*
X151301100Y-71494525D01*
X151300000Y-71494501D01*
X151298900Y-71494525D01*
X150384839Y-71514470D01*
X150384825Y-71514470D01*
X150383753Y-71514494D01*
X150382700Y-71514562D01*
X150382677Y-71514564D01*
X149470314Y-71574363D01*
X149470302Y-71574364D01*
X149469250Y-71574433D01*
X149468203Y-71574547D01*
X149468199Y-71574548D01*
X148559276Y-71674091D01*
X148559246Y-71674094D01*
X148558232Y-71674206D01*
X148557224Y-71674361D01*
X148557187Y-71674366D01*
X147653476Y-71813461D01*
X147653455Y-71813464D01*
X147652433Y-71813622D01*
X147651421Y-71813823D01*
X147651400Y-71813827D01*
X146754637Y-71992204D01*
X146754621Y-71992207D01*
X146753578Y-71992415D01*
X146752544Y-71992667D01*
X146752526Y-71992672D01*
X145864425Y-72209989D01*
X145864400Y-72209995D01*
X145863377Y-72210246D01*
X145862373Y-72210538D01*
X145862338Y-72210548D01*
X144984561Y-72466397D01*
X144984517Y-72466410D01*
X144983525Y-72466700D01*
X144982536Y-72467035D01*
X144982497Y-72467048D01*
X144116721Y-72760939D01*
X144116677Y-72760954D01*
X144115696Y-72761288D01*
X144114734Y-72761661D01*
X144114693Y-72761677D01*
X143262539Y-73093061D01*
X143262497Y-73093078D01*
X143261544Y-73093449D01*
X143260585Y-73093870D01*
X143260568Y-73093878D01*
X142423683Y-73462116D01*
X142423631Y-73462140D01*
X142422693Y-73462553D01*
X142421743Y-73463021D01*
X142421714Y-73463035D01*
X141601722Y-73867410D01*
X141601694Y-73867424D01*
X141600740Y-73867895D01*
X141599835Y-73868390D01*
X141599784Y-73868418D01*
X140798182Y-74308192D01*
X140798139Y-74308216D01*
X140797251Y-74308704D01*
X140796367Y-74309239D01*
X140796340Y-74309256D01*
X140014707Y-74783563D01*
X140014683Y-74783577D01*
X140013754Y-74784142D01*
X140012857Y-74784740D01*
X140012812Y-74784770D01*
X139252646Y-75292697D01*
X139252604Y-75292725D01*
X139251741Y-75293303D01*
X139250922Y-75293903D01*
X139250877Y-75293935D01*
X138513504Y-75834598D01*
X138513456Y-75834634D01*
X138512662Y-75835217D01*
X138511887Y-75835838D01*
X138511844Y-75835872D01*
X137798786Y-76408163D01*
X137798764Y-76408180D01*
X137797926Y-76408854D01*
X137797120Y-76409560D01*
X137797090Y-76409586D01*
X137109699Y-77012412D01*
X137109663Y-77012444D01*
X137108891Y-77013122D01*
X137108121Y-77013858D01*
X137108120Y-77013860D01*
X136447665Y-77646106D01*
X136447641Y-77646129D01*
X136446869Y-77646869D01*
X136446129Y-77647641D01*
X136446106Y-77647665D01*
X135849005Y-78271407D01*
X135813122Y-78308891D01*
X135812444Y-78309663D01*
X135812412Y-78309699D01*
X135209586Y-78997090D01*
X135209560Y-78997120D01*
X135208854Y-78997926D01*
X135208180Y-78998764D01*
X135208163Y-78998786D01*
X134635872Y-79711844D01*
X134635838Y-79711887D01*
X134635217Y-79712662D01*
X134634634Y-79713456D01*
X134634598Y-79713504D01*
X134093935Y-80450877D01*
X134093903Y-80450922D01*
X134093303Y-80451741D01*
X134092725Y-80452604D01*
X134092697Y-80452646D01*
X133584770Y-81212812D01*
X133584740Y-81212857D01*
X133584142Y-81213754D01*
X133583577Y-81214683D01*
X133583563Y-81214707D01*
X133109256Y-81996340D01*
X133109239Y-81996367D01*
X133108704Y-81997251D01*
X133108216Y-81998139D01*
X133108192Y-81998182D01*
X132668418Y-82799784D01*
X132668390Y-82799835D01*
X132667895Y-82800740D01*
X132667424Y-82801694D01*
X132667410Y-82801722D01*
X132263035Y-83621714D01*
X132263021Y-83621743D01*
X132262553Y-83622693D01*
X132262140Y-83623631D01*
X132262116Y-83623683D01*
X131902885Y-84440099D01*
X131893449Y-84461544D01*
X131893078Y-84462497D01*
X131893061Y-84462539D01*
X131561677Y-85314693D01*
X131561661Y-85314734D01*
X131561288Y-85315696D01*
X131560954Y-85316677D01*
X131560939Y-85316721D01*
X131267048Y-86182497D01*
X131267035Y-86182536D01*
X131266700Y-86183525D01*
X131266410Y-86184517D01*
X131266397Y-86184561D01*
X131010548Y-87062338D01*
X131010538Y-87062373D01*
X131010246Y-87063377D01*
X131009995Y-87064400D01*
X131009989Y-87064425D01*
X130794830Y-87943709D01*
X130792415Y-87953578D01*
X130792207Y-87954621D01*
X130792204Y-87954637D01*
X130621268Y-88813995D01*
X130613622Y-88852433D01*
X130613464Y-88853455D01*
X130613461Y-88853476D01*
X130474366Y-89757187D01*
X130474361Y-89757224D01*
X130474206Y-89758232D01*
X130474094Y-89759246D01*
X130474091Y-89759276D01*
X130389625Y-90530533D01*
X130374433Y-90669250D01*
X130374364Y-90670302D01*
X130374363Y-90670314D01*
X130314564Y-91582677D01*
X130314562Y-91582700D01*
X130314494Y-91583753D01*
X130314470Y-91584825D01*
X130314470Y-91584839D01*
X130300359Y-92231535D01*
X130294501Y-92500000D01*
X126233867Y-92500000D01*
X126233867Y-92231535D01*
X126239765Y-91936330D01*
X126242996Y-91774593D01*
X126264111Y-91238856D01*
X126264194Y-91237193D01*
X126291514Y-90781873D01*
X126333707Y-90247433D01*
X126333876Y-90245550D01*
X126379344Y-89791874D01*
X126442555Y-89259482D01*
X126442812Y-89257493D01*
X126506338Y-88806193D01*
X126590498Y-88276505D01*
X126590852Y-88274429D01*
X126672289Y-87826385D01*
X126717464Y-87600000D01*
X128444750Y-87600000D01*
X128463669Y-87743709D01*
X128486986Y-87800000D01*
X128519139Y-87877625D01*
X128569845Y-87943706D01*
X128604197Y-87988475D01*
X128607379Y-87992621D01*
X128622400Y-88004147D01*
X128634677Y-88013568D01*
X128669332Y-88063993D01*
X128673102Y-88084318D01*
X128901206Y-90973625D01*
X128886937Y-91033124D01*
X128881055Y-91041684D01*
X128819139Y-91122375D01*
X128763669Y-91256290D01*
X128744750Y-91400000D01*
X128763669Y-91543709D01*
X128780706Y-91584839D01*
X128819139Y-91677625D01*
X128857450Y-91727552D01*
X128907378Y-91792621D01*
X128957306Y-91830932D01*
X129022375Y-91880861D01*
X129117067Y-91920083D01*
X129156290Y-91936330D01*
X129175210Y-91938820D01*
X129300000Y-91955250D01*
X129443709Y-91936330D01*
X129577625Y-91880861D01*
X129692621Y-91792621D01*
X129780861Y-91677625D01*
X129836330Y-91543709D01*
X129855250Y-91400000D01*
X129836330Y-91256291D01*
X129828419Y-91237193D01*
X129780861Y-91122375D01*
X129780861Y-91122374D01*
X129692621Y-91007379D01*
X129692620Y-91007378D01*
X129665321Y-90986430D01*
X129630665Y-90936005D01*
X129626896Y-90915681D01*
X129626018Y-90904565D01*
X129398792Y-88026373D01*
X129413062Y-87966874D01*
X129418939Y-87958320D01*
X129480861Y-87877625D01*
X129536330Y-87743709D01*
X129555250Y-87600000D01*
X129536330Y-87456291D01*
X129480861Y-87322375D01*
X129421297Y-87244750D01*
X129392621Y-87207378D01*
X129327552Y-87157450D01*
X129277625Y-87119139D01*
X129238401Y-87102892D01*
X129143709Y-87063669D01*
X129000000Y-87044750D01*
X128856290Y-87063669D01*
X128722375Y-87119139D01*
X128607378Y-87207378D01*
X128519139Y-87322375D01*
X128463669Y-87456290D01*
X128444750Y-87600000D01*
X126717464Y-87600000D01*
X126777308Y-87300107D01*
X126777727Y-87298124D01*
X126876934Y-86853961D01*
X127002676Y-86331902D01*
X127003174Y-86329934D01*
X127119954Y-85890429D01*
X127202133Y-85600000D01*
X129844750Y-85600000D01*
X129863669Y-85743709D01*
X129877718Y-85777625D01*
X129919139Y-85877625D01*
X129928875Y-85890313D01*
X130007378Y-85992621D01*
X130057306Y-86030932D01*
X130122375Y-86080861D01*
X130217067Y-86120083D01*
X130256290Y-86136330D01*
X130273008Y-86138531D01*
X130400000Y-86155250D01*
X130543709Y-86136330D01*
X130677625Y-86080861D01*
X130792621Y-85992621D01*
X130880861Y-85877625D01*
X130936330Y-85743709D01*
X130955250Y-85600000D01*
X130936330Y-85456291D01*
X130902041Y-85373510D01*
X130880862Y-85322377D01*
X130880861Y-85322376D01*
X130880861Y-85322375D01*
X130851501Y-85284113D01*
X130831079Y-85226437D01*
X130832322Y-85208000D01*
X130848639Y-85107378D01*
X131286357Y-82408111D01*
X131314335Y-82353699D01*
X131323795Y-82345432D01*
X131392621Y-82292621D01*
X131480861Y-82177625D01*
X131536330Y-82043709D01*
X131555250Y-81900000D01*
X131536330Y-81756291D01*
X131480861Y-81622375D01*
X131430932Y-81557306D01*
X131392621Y-81507378D01*
X131327552Y-81457450D01*
X131277625Y-81419139D01*
X131238401Y-81402892D01*
X131143709Y-81363669D01*
X131000000Y-81344750D01*
X130856290Y-81363669D01*
X130722375Y-81419139D01*
X130607378Y-81507378D01*
X130519139Y-81622375D01*
X130463669Y-81756290D01*
X130444750Y-81900000D01*
X130463669Y-82043710D01*
X130519138Y-82177625D01*
X130548495Y-82215884D01*
X130568919Y-82273560D01*
X130567676Y-82291998D01*
X130113641Y-85091885D01*
X130085663Y-85146299D01*
X130076187Y-85154579D01*
X130021473Y-85196563D01*
X130016717Y-85200214D01*
X130007378Y-85207380D01*
X129919138Y-85322375D01*
X129863669Y-85456290D01*
X129844750Y-85600000D01*
X127202133Y-85600000D01*
X127266260Y-85373368D01*
X127266846Y-85371388D01*
X127400949Y-84937355D01*
X127567615Y-84426113D01*
X127568350Y-84423949D01*
X127719460Y-83996249D01*
X127906326Y-83491443D01*
X127907140Y-83489326D01*
X128074999Y-83068541D01*
X128281808Y-82570986D01*
X128282779Y-82568733D01*
X128466975Y-82155744D01*
X128693572Y-81665955D01*
X128694539Y-81663936D01*
X128894776Y-81259258D01*
X129140841Y-80778081D01*
X129141942Y-80775998D01*
X129292520Y-80500000D01*
X132244750Y-80500000D01*
X132263669Y-80643709D01*
X132302892Y-80738401D01*
X132319139Y-80777625D01*
X132357450Y-80827552D01*
X132407378Y-80892621D01*
X132457306Y-80930932D01*
X132522375Y-80980861D01*
X132617067Y-81020083D01*
X132656290Y-81036330D01*
X132673008Y-81038531D01*
X132800000Y-81055250D01*
X132943709Y-81036330D01*
X133077625Y-80980861D01*
X133192621Y-80892621D01*
X133280861Y-80777625D01*
X133336330Y-80643709D01*
X133355250Y-80500000D01*
X133336330Y-80356291D01*
X133327564Y-80335128D01*
X133322762Y-80274131D01*
X133330477Y-80252970D01*
X134620992Y-77671942D01*
X134663925Y-77628353D01*
X134671645Y-77624758D01*
X134777625Y-77580861D01*
X134892621Y-77492621D01*
X134980861Y-77377625D01*
X135036330Y-77243709D01*
X135055250Y-77100000D01*
X135036330Y-76956291D01*
X134980861Y-76822375D01*
X134930932Y-76757306D01*
X134892621Y-76707378D01*
X134827552Y-76657450D01*
X134777625Y-76619139D01*
X134738401Y-76602892D01*
X134643709Y-76563669D01*
X134516717Y-76546951D01*
X134500000Y-76544750D01*
X134499999Y-76544750D01*
X134356290Y-76563669D01*
X134222375Y-76619139D01*
X134107378Y-76707378D01*
X134019139Y-76822375D01*
X133963669Y-76956290D01*
X133944750Y-77100000D01*
X133963669Y-77243708D01*
X133972436Y-77264873D01*
X133977235Y-77325869D01*
X133969519Y-77347031D01*
X132679007Y-79928055D01*
X132636072Y-79971647D01*
X132628345Y-79975245D01*
X132522374Y-80019139D01*
X132407378Y-80107378D01*
X132319139Y-80222375D01*
X132263669Y-80356290D01*
X132244750Y-80500000D01*
X129292520Y-80500000D01*
X129357701Y-80380527D01*
X129622947Y-79908661D01*
X129624171Y-79906551D01*
X129855045Y-79520867D01*
X130139189Y-79058968D01*
X130140538Y-79056842D01*
X130385896Y-78681814D01*
X130688729Y-78230392D01*
X130690185Y-78228287D01*
X130949537Y-77864468D01*
X131270635Y-77424333D01*
X131272283Y-77422142D01*
X131545029Y-77070177D01*
X131884141Y-76641854D01*
X131885840Y-76639773D01*
X132171300Y-76300323D01*
X132343159Y-76099999D01*
X136044750Y-76099999D01*
X136063669Y-76243709D01*
X136098181Y-76327027D01*
X136119139Y-76377625D01*
X136142572Y-76408163D01*
X136207378Y-76492621D01*
X136257306Y-76530932D01*
X136322375Y-76580861D01*
X136414788Y-76619139D01*
X136456290Y-76636330D01*
X136473008Y-76638531D01*
X136600000Y-76655250D01*
X136743709Y-76636330D01*
X136877625Y-76580861D01*
X136992621Y-76492621D01*
X137080861Y-76377625D01*
X137136330Y-76243709D01*
X137155250Y-76100000D01*
X137149523Y-76056506D01*
X137160672Y-75996349D01*
X137171402Y-75980474D01*
X138989761Y-73783289D01*
X139041426Y-73750516D01*
X139053099Y-73748258D01*
X139124258Y-73738890D01*
X139143710Y-73736330D01*
X139177400Y-73722375D01*
X139277625Y-73680861D01*
X139392621Y-73592621D01*
X139480861Y-73477625D01*
X139536330Y-73343709D01*
X139555250Y-73200000D01*
X139536330Y-73056291D01*
X139480861Y-72922375D01*
X139427497Y-72852830D01*
X139392621Y-72807378D01*
X139383006Y-72800000D01*
X140744750Y-72800000D01*
X140763669Y-72943709D01*
X140802892Y-73038401D01*
X140819139Y-73077625D01*
X140835535Y-73098992D01*
X140907378Y-73192621D01*
X140916995Y-73200000D01*
X141022375Y-73280861D01*
X141115734Y-73319531D01*
X141156290Y-73336330D01*
X141175210Y-73338820D01*
X141300000Y-73355250D01*
X141443709Y-73336330D01*
X141577625Y-73280861D01*
X141692621Y-73192621D01*
X141780861Y-73077625D01*
X141836330Y-72943709D01*
X141839098Y-72922678D01*
X141865437Y-72867454D01*
X141882930Y-72852832D01*
X144317104Y-71255406D01*
X144376127Y-71239288D01*
X144384340Y-71240022D01*
X144500000Y-71255250D01*
X144643709Y-71236330D01*
X144777625Y-71180861D01*
X144892621Y-71092621D01*
X144980861Y-70977625D01*
X145036330Y-70843709D01*
X145055250Y-70700000D01*
X145055250Y-70699999D01*
X152144750Y-70699999D01*
X152163669Y-70843709D01*
X152202892Y-70938401D01*
X152219139Y-70977625D01*
X152250916Y-71019037D01*
X152307378Y-71092621D01*
X152357306Y-71130932D01*
X152422375Y-71180861D01*
X152517067Y-71220083D01*
X152556290Y-71236330D01*
X152573008Y-71238531D01*
X152700000Y-71255250D01*
X152843709Y-71236330D01*
X152977625Y-71180861D01*
X153092621Y-71092621D01*
X153149085Y-71019034D01*
X153199507Y-70984381D01*
X153210892Y-70981728D01*
X155811588Y-70535894D01*
X155872134Y-70544698D01*
X155888580Y-70554929D01*
X155922375Y-70580861D01*
X156056290Y-70636330D01*
X156073008Y-70638531D01*
X156200000Y-70655250D01*
X156343709Y-70636330D01*
X156477625Y-70580861D01*
X156592621Y-70492621D01*
X156680861Y-70377625D01*
X156736330Y-70243709D01*
X156755250Y-70100000D01*
X156736330Y-69956291D01*
X156680861Y-69822375D01*
X156630932Y-69757306D01*
X156592621Y-69707378D01*
X156527552Y-69657450D01*
X156477625Y-69619139D01*
X156438401Y-69602892D01*
X156343709Y-69563669D01*
X156200000Y-69544750D01*
X156056290Y-69563669D01*
X155922375Y-69619138D01*
X155807378Y-69707379D01*
X155750915Y-69780962D01*
X155700490Y-69815617D01*
X155689101Y-69818271D01*
X153088412Y-70264104D01*
X153027864Y-70255300D01*
X153011418Y-70245069D01*
X152977625Y-70219139D01*
X152843709Y-70163669D01*
X152700000Y-70144750D01*
X152556290Y-70163669D01*
X152422375Y-70219139D01*
X152307378Y-70307378D01*
X152219139Y-70422375D01*
X152163669Y-70556290D01*
X152144750Y-70699999D01*
X145055250Y-70699999D01*
X145036330Y-70556291D01*
X145027881Y-70535894D01*
X145009957Y-70492621D01*
X144980861Y-70422375D01*
X144925042Y-70349630D01*
X144892621Y-70307378D01*
X144809645Y-70243709D01*
X144777625Y-70219139D01*
X144738401Y-70202892D01*
X144643709Y-70163669D01*
X144500000Y-70144750D01*
X144356290Y-70163669D01*
X144222375Y-70219139D01*
X144107378Y-70307378D01*
X144019139Y-70422375D01*
X143963669Y-70556290D01*
X143960900Y-70577325D01*
X143934557Y-70632549D01*
X143917064Y-70647169D01*
X141482894Y-72244592D01*
X141423870Y-72260711D01*
X141415655Y-72259976D01*
X141300000Y-72244750D01*
X141156290Y-72263669D01*
X141022375Y-72319139D01*
X140907378Y-72407378D01*
X140819139Y-72522375D01*
X140763669Y-72656290D01*
X140744750Y-72800000D01*
X139383006Y-72800000D01*
X139327552Y-72757450D01*
X139277625Y-72719139D01*
X139238401Y-72702892D01*
X139143709Y-72663669D01*
X139000000Y-72644750D01*
X138856290Y-72663669D01*
X138722375Y-72719139D01*
X138607378Y-72807378D01*
X138519139Y-72922375D01*
X138463669Y-73056290D01*
X138444750Y-73200000D01*
X138450475Y-73243491D01*
X138439324Y-73303652D01*
X138428591Y-73319531D01*
X136610238Y-75516707D01*
X136558571Y-75549482D01*
X136546892Y-75551741D01*
X136456290Y-75563669D01*
X136322375Y-75619139D01*
X136207378Y-75707378D01*
X136119139Y-75822375D01*
X136063669Y-75956290D01*
X136044750Y-76099999D01*
X132343159Y-76099999D01*
X132528157Y-75884360D01*
X132529998Y-75882279D01*
X132820436Y-75563669D01*
X132827450Y-75555975D01*
X132914865Y-75461850D01*
X133201725Y-75152972D01*
X133203659Y-75150954D01*
X133512310Y-74838407D01*
X133903696Y-74448936D01*
X133905793Y-74446913D01*
X134224726Y-74148773D01*
X134633086Y-73773234D01*
X134635406Y-73771168D01*
X134963521Y-73488138D01*
X135388836Y-73126864D01*
X135391115Y-73124992D01*
X135727437Y-72857551D01*
X136169465Y-72511101D01*
X136171917Y-72509242D01*
X136515196Y-72257979D01*
X136973968Y-71926721D01*
X136976573Y-71924906D01*
X137325190Y-71690530D01*
X137801041Y-71374682D01*
X137803685Y-71372991D01*
X138156096Y-71155985D01*
X138649284Y-70855917D01*
X138652112Y-70854263D01*
X139006100Y-70655333D01*
X139517491Y-70371160D01*
X139520450Y-70369584D01*
X139873313Y-70189440D01*
X140404266Y-69921198D01*
X140407271Y-69919747D01*
X140755348Y-69759238D01*
X141308232Y-69506735D01*
X141311270Y-69505414D01*
X141648807Y-69365831D01*
X142227834Y-69128481D01*
X142231068Y-69127226D01*
X142549726Y-69010125D01*
X143161740Y-68786981D01*
X143165128Y-68785818D01*
X143449512Y-68694030D01*
X144054746Y-68499999D01*
X149244750Y-68499999D01*
X149263669Y-68643709D01*
X149284470Y-68693926D01*
X149319139Y-68777625D01*
X149335607Y-68799086D01*
X149407378Y-68892621D01*
X149457306Y-68930932D01*
X149522375Y-68980861D01*
X149592811Y-69010036D01*
X149656290Y-69036330D01*
X149673008Y-69038531D01*
X149800000Y-69055250D01*
X149943709Y-69036330D01*
X150077625Y-68980861D01*
X150192621Y-68892621D01*
X150280861Y-68777625D01*
X150336330Y-68643709D01*
X150355250Y-68500000D01*
X150337898Y-68368200D01*
X150349048Y-68308040D01*
X150352041Y-68302903D01*
X151054412Y-67177307D01*
X151101258Y-67137951D01*
X151156592Y-67132405D01*
X151186260Y-67137951D01*
X151253389Y-67150500D01*
X151253390Y-67150500D01*
X151466612Y-67150500D01*
X151676195Y-67111322D01*
X151676198Y-67111321D01*
X151875019Y-67034298D01*
X152056302Y-66922052D01*
X152213872Y-66778407D01*
X152342366Y-66608255D01*
X152362379Y-66568062D01*
X152405241Y-66524401D01*
X152465582Y-66514271D01*
X152520353Y-66541543D01*
X152548634Y-66595801D01*
X152550000Y-66612191D01*
X152550000Y-66895181D01*
X152550282Y-66900457D01*
X152556401Y-66957376D01*
X152606646Y-67092089D01*
X152692811Y-67207188D01*
X152807910Y-67293353D01*
X152942623Y-67343598D01*
X152999542Y-67349717D01*
X153004819Y-67350000D01*
X153649999Y-67350000D01*
X153650000Y-67349998D01*
X153650000Y-66435501D01*
X153757685Y-66484680D01*
X153864237Y-66500000D01*
X153935763Y-66500000D01*
X154042315Y-66484680D01*
X154150000Y-66435501D01*
X154150000Y-67349999D01*
X154150001Y-67350000D01*
X154795181Y-67350000D01*
X154800457Y-67349717D01*
X154857376Y-67343598D01*
X154992089Y-67293353D01*
X155107188Y-67207188D01*
X155193353Y-67092089D01*
X155243598Y-66957376D01*
X155249717Y-66900457D01*
X155250000Y-66895181D01*
X155250000Y-66250001D01*
X155249999Y-66250000D01*
X154333686Y-66250000D01*
X154359493Y-66209844D01*
X154400000Y-66071889D01*
X154400000Y-65928111D01*
X154359493Y-65790156D01*
X154333686Y-65750000D01*
X155249999Y-65750000D01*
X155250000Y-65749998D01*
X155250000Y-65104818D01*
X155249717Y-65099542D01*
X155243598Y-65042623D01*
X155193353Y-64907910D01*
X155107188Y-64792811D01*
X154992089Y-64706646D01*
X154857376Y-64656401D01*
X154800457Y-64650282D01*
X154795181Y-64650000D01*
X154150000Y-64650000D01*
X154150000Y-65564498D01*
X154042315Y-65515320D01*
X153935763Y-65500000D01*
X153864237Y-65500000D01*
X153757685Y-65515320D01*
X153650000Y-65564498D01*
X153650000Y-64650001D01*
X153649999Y-64650000D01*
X153004819Y-64650000D01*
X152999542Y-64650282D01*
X152942623Y-64656401D01*
X152807910Y-64706646D01*
X152692811Y-64792811D01*
X152606646Y-64907910D01*
X152556401Y-65042623D01*
X152550282Y-65099542D01*
X152550000Y-65104818D01*
X152550000Y-65387808D01*
X152531093Y-65445999D01*
X152481593Y-65481963D01*
X152420407Y-65481963D01*
X152370907Y-65445999D01*
X152362379Y-65431936D01*
X152342365Y-65391743D01*
X152213874Y-65221595D01*
X152056300Y-65077946D01*
X151875021Y-64965703D01*
X151875019Y-64965702D01*
X151832898Y-64949384D01*
X151676195Y-64888677D01*
X151466612Y-64849500D01*
X151466610Y-64849500D01*
X151253390Y-64849500D01*
X151253388Y-64849500D01*
X151043804Y-64888677D01*
X150844978Y-64965703D01*
X150663699Y-65077946D01*
X150506125Y-65221595D01*
X150377634Y-65391743D01*
X150282596Y-65582608D01*
X150282595Y-65582611D01*
X150224244Y-65787690D01*
X150204571Y-66000000D01*
X150224244Y-66212310D01*
X150257957Y-66330798D01*
X150282596Y-66417391D01*
X150377632Y-66608252D01*
X150377633Y-66608253D01*
X150377634Y-66608255D01*
X150380606Y-66612191D01*
X150431755Y-66679922D01*
X150451734Y-66737754D01*
X150436741Y-66791993D01*
X149734766Y-67916951D01*
X149687919Y-67956309D01*
X149663705Y-67962693D01*
X149656292Y-67963669D01*
X149522375Y-68019139D01*
X149407378Y-68107378D01*
X149319139Y-68222375D01*
X149263669Y-68356290D01*
X149244750Y-68499999D01*
X144054746Y-68499999D01*
X144108491Y-68482769D01*
X144111895Y-68481749D01*
X144329460Y-68421008D01*
X145066515Y-68216353D01*
X145070116Y-68215427D01*
X145123281Y-68202850D01*
X146028804Y-67989443D01*
X146032581Y-67988630D01*
X146990444Y-67802368D01*
X146999830Y-67801468D01*
X147000576Y-67800408D01*
X147000578Y-67800408D01*
X147000577Y-67800406D01*
X147001195Y-67799531D01*
X147000500Y-67791443D01*
X147000500Y-66000000D01*
X147664571Y-66000000D01*
X147684244Y-66212310D01*
X147717957Y-66330798D01*
X147742596Y-66417391D01*
X147837634Y-66608256D01*
X147966125Y-66778404D01*
X148123699Y-66922053D01*
X148180748Y-66957376D01*
X148304981Y-67034298D01*
X148454158Y-67092089D01*
X148503804Y-67111322D01*
X148713388Y-67150500D01*
X148713390Y-67150500D01*
X148926612Y-67150500D01*
X149136195Y-67111322D01*
X149136198Y-67111321D01*
X149335019Y-67034298D01*
X149516302Y-66922052D01*
X149673872Y-66778407D01*
X149802366Y-66608255D01*
X149897405Y-66417389D01*
X149955756Y-66212310D01*
X149975429Y-66000000D01*
X149955756Y-65787690D01*
X149897405Y-65582611D01*
X149802366Y-65391745D01*
X149802365Y-65391744D01*
X149802365Y-65391743D01*
X149673874Y-65221595D01*
X149516300Y-65077946D01*
X149335021Y-64965703D01*
X149335019Y-64965702D01*
X149292898Y-64949384D01*
X149136195Y-64888677D01*
X148926612Y-64849500D01*
X148926610Y-64849500D01*
X148713390Y-64849500D01*
X148713388Y-64849500D01*
X148503804Y-64888677D01*
X148304978Y-64965703D01*
X148123699Y-65077946D01*
X147966125Y-65221595D01*
X147837634Y-65391743D01*
X147742596Y-65582608D01*
X147742595Y-65582611D01*
X147684244Y-65787690D01*
X147664571Y-66000000D01*
X147000500Y-66000000D01*
X147000500Y-64299500D01*
X147019407Y-64241309D01*
X147068907Y-64205345D01*
X147099500Y-64200500D01*
X155600500Y-64200500D01*
X155658691Y-64219407D01*
G37*
G04 #@! TD.AperFunction*
G04 #@! TD*
M02*
