G04 #@! TF.GenerationSoftware,KiCad,Pcbnew,7.0.2-6a45011f42~172~ubuntu22.04.1*
G04 #@! TF.CreationDate,2023-05-13T10:54:30-06:00*
G04 #@! TF.ProjectId,ring-50mm,72696e67-2d35-4306-9d6d-2e6b69636164,rev?*
G04 #@! TF.SameCoordinates,Original*
G04 #@! TF.FileFunction,Copper,L1,Top*
G04 #@! TF.FilePolarity,Positive*
%FSLAX46Y46*%
G04 Gerber Fmt 4.6, Leading zero omitted, Abs format (unit mm)*
G04 Created by KiCad (PCBNEW 7.0.2-6a45011f42~172~ubuntu22.04.1) date 2023-05-13 10:54:30*
%MOMM*%
%LPD*%
G01*
G04 APERTURE LIST*
G04 Aperture macros list*
%AMRoundRect*
0 Rectangle with rounded corners*
0 $1 Rounding radius*
0 $2 $3 $4 $5 $6 $7 $8 $9 X,Y pos of 4 corners*
0 Add a 4 corners polygon primitive as box body*
4,1,4,$2,$3,$4,$5,$6,$7,$8,$9,$2,$3,0*
0 Add four circle primitives for the rounded corners*
1,1,$1+$1,$2,$3*
1,1,$1+$1,$4,$5*
1,1,$1+$1,$6,$7*
1,1,$1+$1,$8,$9*
0 Add four rect primitives between the rounded corners*
20,1,$1+$1,$2,$3,$4,$5,0*
20,1,$1+$1,$4,$5,$6,$7,0*
20,1,$1+$1,$6,$7,$8,$9,0*
20,1,$1+$1,$8,$9,$2,$3,0*%
%AMRotRect*
0 Rectangle, with rotation*
0 The origin of the aperture is its center*
0 $1 length*
0 $2 width*
0 $3 Rotation angle, in degrees counterclockwise*
0 Add horizontal line*
21,1,$1,$2,0,0,$3*%
G04 Aperture macros list end*
G04 #@! TA.AperFunction,SMDPad,CuDef*
%ADD10RotRect,0.450000X0.450000X240.000000*%
G04 #@! TD*
G04 #@! TA.AperFunction,SMDPad,CuDef*
%ADD11RoundRect,0.140000X0.219203X0.021213X0.021213X0.219203X-0.219203X-0.021213X-0.021213X-0.219203X0*%
G04 #@! TD*
G04 #@! TA.AperFunction,SMDPad,CuDef*
%ADD12RoundRect,0.140000X-0.217224X0.036244X-0.077224X-0.206244X0.217224X-0.036244X0.077224X0.206244X0*%
G04 #@! TD*
G04 #@! TA.AperFunction,SMDPad,CuDef*
%ADD13RotRect,0.450000X0.450000X75.000000*%
G04 #@! TD*
G04 #@! TA.AperFunction,SMDPad,CuDef*
%ADD14RoundRect,0.140000X-0.140000X-0.170000X0.140000X-0.170000X0.140000X0.170000X-0.140000X0.170000X0*%
G04 #@! TD*
G04 #@! TA.AperFunction,SMDPad,CuDef*
%ADD15RotRect,0.450000X0.450000X135.000000*%
G04 #@! TD*
G04 #@! TA.AperFunction,SMDPad,CuDef*
%ADD16RotRect,0.450000X0.450000X225.000000*%
G04 #@! TD*
G04 #@! TA.AperFunction,SMDPad,CuDef*
%ADD17RotRect,0.450000X0.450000X45.000000*%
G04 #@! TD*
G04 #@! TA.AperFunction,SMDPad,CuDef*
%ADD18RotRect,0.450000X0.450000X210.000000*%
G04 #@! TD*
G04 #@! TA.AperFunction,SMDPad,CuDef*
%ADD19RoundRect,0.140000X0.217224X-0.036244X0.077224X0.206244X-0.217224X0.036244X-0.077224X-0.206244X0*%
G04 #@! TD*
G04 #@! TA.AperFunction,SMDPad,CuDef*
%ADD20RoundRect,0.250000X0.475000X-0.250000X0.475000X0.250000X-0.475000X0.250000X-0.475000X-0.250000X0*%
G04 #@! TD*
G04 #@! TA.AperFunction,SMDPad,CuDef*
%ADD21RoundRect,0.140000X-0.077224X0.206244X-0.217224X-0.036244X0.077224X-0.206244X0.217224X0.036244X0*%
G04 #@! TD*
G04 #@! TA.AperFunction,SMDPad,CuDef*
%ADD22RoundRect,0.140000X0.091230X0.200442X-0.179229X0.127973X-0.091230X-0.200442X0.179229X-0.127973X0*%
G04 #@! TD*
G04 #@! TA.AperFunction,SMDPad,CuDef*
%ADD23RotRect,0.450000X0.450000X285.000000*%
G04 #@! TD*
G04 #@! TA.AperFunction,SMDPad,CuDef*
%ADD24RoundRect,0.140000X0.179229X0.127973X-0.091230X0.200442X-0.179229X-0.127973X0.091230X-0.200442X0*%
G04 #@! TD*
G04 #@! TA.AperFunction,SMDPad,CuDef*
%ADD25RotRect,0.450000X0.450000X60.000000*%
G04 #@! TD*
G04 #@! TA.AperFunction,SMDPad,CuDef*
%ADD26RotRect,0.450000X0.450000X105.000000*%
G04 #@! TD*
G04 #@! TA.AperFunction,SMDPad,CuDef*
%ADD27RoundRect,0.140000X-0.206244X-0.077224X0.036244X-0.217224X0.206244X0.077224X-0.036244X0.217224X0*%
G04 #@! TD*
G04 #@! TA.AperFunction,SMDPad,CuDef*
%ADD28RoundRect,0.140000X0.077224X-0.206244X0.217224X0.036244X-0.077224X0.206244X-0.217224X-0.036244X0*%
G04 #@! TD*
G04 #@! TA.AperFunction,SMDPad,CuDef*
%ADD29RotRect,0.450000X0.450000X30.000000*%
G04 #@! TD*
G04 #@! TA.AperFunction,SMDPad,CuDef*
%ADD30RoundRect,0.140000X0.036244X0.217224X-0.206244X0.077224X-0.036244X-0.217224X0.206244X-0.077224X0*%
G04 #@! TD*
G04 #@! TA.AperFunction,SMDPad,CuDef*
%ADD31RoundRect,0.140000X-0.036244X-0.217224X0.206244X-0.077224X0.036244X0.217224X-0.206244X0.077224X0*%
G04 #@! TD*
G04 #@! TA.AperFunction,SMDPad,CuDef*
%ADD32RoundRect,0.237500X-0.237500X0.250000X-0.237500X-0.250000X0.237500X-0.250000X0.237500X0.250000X0*%
G04 #@! TD*
G04 #@! TA.AperFunction,SMDPad,CuDef*
%ADD33RotRect,0.450000X0.450000X345.000000*%
G04 #@! TD*
G04 #@! TA.AperFunction,SMDPad,CuDef*
%ADD34R,0.450000X0.450000*%
G04 #@! TD*
G04 #@! TA.AperFunction,SMDPad,CuDef*
%ADD35RotRect,0.450000X0.450000X255.000000*%
G04 #@! TD*
G04 #@! TA.AperFunction,SMDPad,CuDef*
%ADD36RoundRect,0.140000X0.140000X0.170000X-0.140000X0.170000X-0.140000X-0.170000X0.140000X-0.170000X0*%
G04 #@! TD*
G04 #@! TA.AperFunction,SMDPad,CuDef*
%ADD37RoundRect,0.140000X-0.127973X0.179229X-0.200442X-0.091230X0.127973X-0.179229X0.200442X0.091230X0*%
G04 #@! TD*
G04 #@! TA.AperFunction,SMDPad,CuDef*
%ADD38RotRect,0.450000X0.450000X195.000000*%
G04 #@! TD*
G04 #@! TA.AperFunction,SMDPad,CuDef*
%ADD39RotRect,0.450000X0.450000X165.000000*%
G04 #@! TD*
G04 #@! TA.AperFunction,SMDPad,CuDef*
%ADD40RoundRect,0.140000X-0.179229X-0.127973X0.091230X-0.200442X0.179229X0.127973X-0.091230X0.200442X0*%
G04 #@! TD*
G04 #@! TA.AperFunction,SMDPad,CuDef*
%ADD41RoundRect,0.140000X-0.091230X-0.200442X0.179229X-0.127973X0.091230X0.200442X-0.179229X0.127973X0*%
G04 #@! TD*
G04 #@! TA.AperFunction,SMDPad,CuDef*
%ADD42RotRect,0.450000X0.450000X300.000000*%
G04 #@! TD*
G04 #@! TA.AperFunction,SMDPad,CuDef*
%ADD43RoundRect,0.140000X-0.219203X-0.021213X-0.021213X-0.219203X0.219203X0.021213X0.021213X0.219203X0*%
G04 #@! TD*
G04 #@! TA.AperFunction,SMDPad,CuDef*
%ADD44RotRect,0.450000X0.450000X150.000000*%
G04 #@! TD*
G04 #@! TA.AperFunction,SMDPad,CuDef*
%ADD45RoundRect,0.140000X-0.170000X0.140000X-0.170000X-0.140000X0.170000X-0.140000X0.170000X0.140000X0*%
G04 #@! TD*
G04 #@! TA.AperFunction,SMDPad,CuDef*
%ADD46RoundRect,0.140000X0.021213X-0.219203X0.219203X-0.021213X-0.021213X0.219203X-0.219203X0.021213X0*%
G04 #@! TD*
G04 #@! TA.AperFunction,SMDPad,CuDef*
%ADD47RoundRect,0.140000X-0.200442X0.091230X-0.127973X-0.179229X0.200442X-0.091230X0.127973X0.179229X0*%
G04 #@! TD*
G04 #@! TA.AperFunction,SMDPad,CuDef*
%ADD48RotRect,0.450000X0.450000X315.000000*%
G04 #@! TD*
G04 #@! TA.AperFunction,ComponentPad*
%ADD49R,1.700000X1.700000*%
G04 #@! TD*
G04 #@! TA.AperFunction,ComponentPad*
%ADD50O,1.700000X1.700000*%
G04 #@! TD*
G04 #@! TA.AperFunction,SMDPad,CuDef*
%ADD51RoundRect,0.140000X0.127973X-0.179229X0.200442X0.091230X-0.127973X0.179229X-0.200442X-0.091230X0*%
G04 #@! TD*
G04 #@! TA.AperFunction,SMDPad,CuDef*
%ADD52RoundRect,0.140000X-0.021213X0.219203X-0.219203X0.021213X0.021213X-0.219203X0.219203X-0.021213X0*%
G04 #@! TD*
G04 #@! TA.AperFunction,SMDPad,CuDef*
%ADD53RoundRect,0.140000X0.206244X0.077224X-0.036244X0.217224X-0.206244X-0.077224X0.036244X-0.217224X0*%
G04 #@! TD*
G04 #@! TA.AperFunction,SMDPad,CuDef*
%ADD54RotRect,0.450000X0.450000X330.000000*%
G04 #@! TD*
G04 #@! TA.AperFunction,SMDPad,CuDef*
%ADD55RoundRect,0.140000X0.170000X-0.140000X0.170000X0.140000X-0.170000X0.140000X-0.170000X-0.140000X0*%
G04 #@! TD*
G04 #@! TA.AperFunction,SMDPad,CuDef*
%ADD56RotRect,0.450000X0.450000X15.000000*%
G04 #@! TD*
G04 #@! TA.AperFunction,SMDPad,CuDef*
%ADD57RotRect,0.450000X0.450000X120.000000*%
G04 #@! TD*
G04 #@! TA.AperFunction,SMDPad,CuDef*
%ADD58RoundRect,0.140000X0.200442X-0.091230X0.127973X0.179229X-0.200442X0.091230X-0.127973X-0.179229X0*%
G04 #@! TD*
G04 #@! TA.AperFunction,ViaPad*
%ADD59C,0.500000*%
G04 #@! TD*
G04 #@! TA.AperFunction,Conductor*
%ADD60C,0.127000*%
G04 #@! TD*
G04 #@! TA.AperFunction,Conductor*
%ADD61C,0.500000*%
G04 #@! TD*
G04 APERTURE END LIST*
D10*
G04 #@! TO.P,D21,1,DOUT*
G04 #@! TO.N,Net-(D21-DOUT)*
X132519989Y-81069439D03*
G04 #@! TO.P,D21,2,VDD*
G04 #@! TO.N,VCC*
X132094989Y-81805561D03*
G04 #@! TO.P,D21,3,GND*
G04 #@! TO.N,GND*
X131783867Y-80644439D03*
G04 #@! TO.P,D21,4,DIN*
G04 #@! TO.N,Net-(D20-DOUT)*
X131358867Y-81380561D03*
G04 #@! TD*
D11*
G04 #@! TO.P,C16,1*
G04 #@! TO.N,VCC*
X134806525Y-109767296D03*
G04 #@! TO.P,C16,2*
G04 #@! TO.N,GND*
X134127703Y-109088474D03*
G04 #@! TD*
D12*
G04 #@! TO.P,C5,1*
G04 #@! TO.N,VCC*
X171942959Y-80071808D03*
G04 #@! TO.P,C5,2*
G04 #@! TO.N,GND*
X172422959Y-80903192D03*
G04 #@! TD*
D13*
G04 #@! TO.P,D8,1,DOUT*
G04 #@! TO.N,Net-(D8-DOUT)*
X172637814Y-98598948D03*
G04 #@! TO.P,D8,2,VDD*
G04 #@! TO.N,VCC*
X172857811Y-97777911D03*
G04 #@! TO.P,D8,3,GND*
G04 #@! TO.N,GND*
X173458851Y-98818945D03*
G04 #@! TO.P,D8,4,DIN*
G04 #@! TO.N,Net-(D7-DOUT)*
X173678848Y-97997908D03*
G04 #@! TD*
D14*
G04 #@! TO.P,C1,1*
G04 #@! TO.N,VCC*
X150940000Y-68500000D03*
G04 #@! TO.P,C1,2*
G04 #@! TO.N,GND*
X151900000Y-68500000D03*
G04 #@! TD*
D15*
G04 #@! TO.P,D4,1,DOUT*
G04 #@! TO.N,Net-(D4-DOUT)*
X167334902Y-77166138D03*
G04 #@! TO.P,D4,2,VDD*
G04 #@! TO.N,VCC*
X166733861Y-76565097D03*
G04 #@! TO.P,D4,3,GND*
G04 #@! TO.N,GND*
X167935943Y-76565097D03*
G04 #@! TO.P,D4,4,DIN*
G04 #@! TO.N,Net-(D3-DOUT)*
X167334902Y-75964056D03*
G04 #@! TD*
D16*
G04 #@! TO.P,D22,1,DOUT*
G04 #@! TO.N,Net-(D22-DOUT)*
X136116138Y-76565097D03*
G04 #@! TO.P,D22,2,VDD*
G04 #@! TO.N,VCC*
X135515097Y-77166138D03*
G04 #@! TO.P,D22,3,GND*
G04 #@! TO.N,GND*
X135515097Y-75964056D03*
G04 #@! TO.P,D22,4,DIN*
G04 #@! TO.N,Net-(D21-DOUT)*
X134914056Y-76565097D03*
G04 #@! TD*
D17*
G04 #@! TO.P,D10,1,DOUT*
G04 #@! TO.N,Net-(D10-DOUT)*
X166733861Y-108384902D03*
G04 #@! TO.P,D10,2,VDD*
G04 #@! TO.N,VCC*
X167334902Y-107783861D03*
G04 #@! TO.P,D10,3,GND*
G04 #@! TO.N,GND*
X167334902Y-108985943D03*
G04 #@! TO.P,D10,4,DIN*
G04 #@! TO.N,Net-(D10-DIN)*
X167935943Y-108384902D03*
G04 #@! TD*
D18*
G04 #@! TO.P,D23,1,DOUT*
G04 #@! TO.N,Net-(D23-DOUT)*
X140755561Y-73144989D03*
G04 #@! TO.P,D23,2,VDD*
G04 #@! TO.N,VCC*
X140019439Y-73569989D03*
G04 #@! TO.P,D23,3,GND*
G04 #@! TO.N,GND*
X140330561Y-72408867D03*
G04 #@! TO.P,D23,4,DIN*
G04 #@! TO.N,Net-(D22-DOUT)*
X139594439Y-72833867D03*
G04 #@! TD*
D19*
G04 #@! TO.P,C17,1*
G04 #@! TO.N,VCC*
X130897040Y-104878192D03*
G04 #@! TO.P,C17,2*
G04 #@! TO.N,GND*
X130417040Y-104046808D03*
G04 #@! TD*
D20*
G04 #@! TO.P,C25,1*
G04 #@! TO.N,VCC*
X153900000Y-70000000D03*
G04 #@! TO.P,C25,2*
G04 #@! TO.N,GND*
X153900000Y-68100000D03*
G04 #@! TD*
D21*
G04 #@! TO.P,C9,1*
G04 #@! TO.N,VCC*
X172422959Y-104046808D03*
G04 #@! TO.P,C9,2*
G04 #@! TO.N,GND*
X171942959Y-104878192D03*
G04 #@! TD*
D22*
G04 #@! TO.P,C12,1*
G04 #@! TO.N,VCC*
X158088830Y-115508838D03*
G04 #@! TO.P,C12,2*
G04 #@! TO.N,GND*
X157161542Y-115757304D03*
G04 #@! TD*
D23*
G04 #@! TO.P,D18,1,DOUT*
G04 #@! TO.N,Net-(D18-DOUT)*
X129992188Y-97777911D03*
G04 #@! TO.P,D18,2,VDD*
G04 #@! TO.N,VCC*
X130212185Y-98598948D03*
G04 #@! TO.P,D18,3,GND*
G04 #@! TO.N,GND*
X129171151Y-97997908D03*
G04 #@! TO.P,D18,4,DIN*
G04 #@! TO.N,Net-(D17-DOUT)*
X129391148Y-98818945D03*
G04 #@! TD*
D24*
G04 #@! TO.P,C14,1*
G04 #@! TO.N,VCC*
X145678457Y-115757304D03*
G04 #@! TO.P,C14,2*
G04 #@! TO.N,GND*
X144751169Y-115508838D03*
G04 #@! TD*
D25*
G04 #@! TO.P,D9,1,DOUT*
G04 #@! TO.N,Net-(D10-DIN)*
X170330010Y-103880561D03*
G04 #@! TO.P,D9,2,VDD*
G04 #@! TO.N,VCC*
X170755010Y-103144439D03*
G04 #@! TO.P,D9,3,GND*
G04 #@! TO.N,GND*
X171066132Y-104305561D03*
G04 #@! TO.P,D9,4,DIN*
G04 #@! TO.N,Net-(D8-DOUT)*
X171491132Y-103569439D03*
G04 #@! TD*
D26*
G04 #@! TO.P,D6,1,DOUT*
G04 #@! TO.N,Net-(D6-DOUT)*
X172857811Y-87172088D03*
G04 #@! TO.P,D6,2,VDD*
G04 #@! TO.N,VCC*
X172637814Y-86351051D03*
G04 #@! TO.P,D6,3,GND*
G04 #@! TO.N,GND*
X173678848Y-86952091D03*
G04 #@! TO.P,D6,4,DIN*
G04 #@! TO.N,Net-(D5-DOUT)*
X173458851Y-86131054D03*
G04 #@! TD*
D27*
G04 #@! TO.P,C3,1*
G04 #@! TO.N,VCC*
X162991808Y-71472040D03*
G04 #@! TO.P,C3,2*
G04 #@! TO.N,GND*
X163823192Y-71952040D03*
G04 #@! TD*
D28*
G04 #@! TO.P,C21,1*
G04 #@! TO.N,VCC*
X130417040Y-80903192D03*
G04 #@! TO.P,C21,2*
G04 #@! TO.N,GND*
X130897040Y-80071808D03*
G04 #@! TD*
D29*
G04 #@! TO.P,D11,1,DOUT*
G04 #@! TO.N,Net-(D11-DOUT)*
X162094439Y-111805010D03*
G04 #@! TO.P,D11,2,VDD*
G04 #@! TO.N,VCC*
X162830561Y-111380010D03*
G04 #@! TO.P,D11,3,GND*
G04 #@! TO.N,GND*
X162519439Y-112541132D03*
G04 #@! TO.P,D11,4,DIN*
G04 #@! TO.N,Net-(D10-DOUT)*
X163255561Y-112116132D03*
G04 #@! TD*
D30*
G04 #@! TO.P,C11,1*
G04 #@! TO.N,VCC*
X163823192Y-112997959D03*
G04 #@! TO.P,C11,2*
G04 #@! TO.N,GND*
X162991808Y-113477959D03*
G04 #@! TD*
D31*
G04 #@! TO.P,C23,1*
G04 #@! TO.N,VCC*
X139016808Y-71952040D03*
G04 #@! TO.P,C23,2*
G04 #@! TO.N,GND*
X139848192Y-71472040D03*
G04 #@! TD*
D32*
G04 #@! TO.P,R2,1*
G04 #@! TO.N,Net-(D24-DOUT)*
X149100000Y-114475000D03*
G04 #@! TO.P,R2,2*
G04 #@! TO.N,/SIGNAL_OUT*
X149100000Y-116300000D03*
G04 #@! TD*
D33*
G04 #@! TO.P,D14,1,DOUT*
G04 #@! TO.N,Net-(D14-DOUT)*
X145301051Y-113687814D03*
G04 #@! TO.P,D14,2,VDD*
G04 #@! TO.N,VCC*
X146122088Y-113907811D03*
G04 #@! TO.P,D14,3,GND*
G04 #@! TO.N,GND*
X145081054Y-114508851D03*
G04 #@! TO.P,D14,4,DIN*
G04 #@! TO.N,Net-(D13-DOUT)*
X145902091Y-114728848D03*
G04 #@! TD*
D34*
G04 #@! TO.P,D1,1,DOUT*
G04 #@! TO.N,Net-(D1-DOUT)*
X151850000Y-70400000D03*
G04 #@! TO.P,D1,2,VDD*
G04 #@! TO.N,VCC*
X151000000Y-70400000D03*
G04 #@! TO.P,D1,3,GND*
G04 #@! TO.N,GND*
X151850000Y-69550000D03*
G04 #@! TO.P,D1,4,DIN*
G04 #@! TO.N,Net-(D1-DIN)*
X151000000Y-69550000D03*
G04 #@! TD*
D35*
G04 #@! TO.P,D20,1,DOUT*
G04 #@! TO.N,Net-(D20-DOUT)*
X130212185Y-86351051D03*
G04 #@! TO.P,D20,2,VDD*
G04 #@! TO.N,VCC*
X129992188Y-87172088D03*
G04 #@! TO.P,D20,3,GND*
G04 #@! TO.N,GND*
X129391148Y-86131054D03*
G04 #@! TO.P,D20,4,DIN*
G04 #@! TO.N,Net-(D19-DOUT)*
X129171151Y-86952091D03*
G04 #@! TD*
D36*
G04 #@! TO.P,C13,1*
G04 #@! TO.N,VCC*
X151900000Y-116450000D03*
G04 #@! TO.P,C13,2*
G04 #@! TO.N,GND*
X150940000Y-116450000D03*
G04 #@! TD*
D37*
G04 #@! TO.P,C8,1*
G04 #@! TO.N,VCC*
X174702304Y-98216542D03*
G04 #@! TO.P,C8,2*
G04 #@! TO.N,GND*
X174453838Y-99143830D03*
G04 #@! TD*
D38*
G04 #@! TO.P,D24,1,DOUT*
G04 #@! TO.N,Net-(D24-DOUT)*
X146122088Y-71042188D03*
G04 #@! TO.P,D24,2,VDD*
G04 #@! TO.N,VCC*
X145301051Y-71262185D03*
G04 #@! TO.P,D24,3,GND*
G04 #@! TO.N,GND*
X145902091Y-70221151D03*
G04 #@! TO.P,D24,4,DIN*
G04 #@! TO.N,Net-(D23-DOUT)*
X145081054Y-70441148D03*
G04 #@! TD*
D39*
G04 #@! TO.P,D2,1,DOUT*
G04 #@! TO.N,Net-(D2-DOUT)*
X157548948Y-71262185D03*
G04 #@! TO.P,D2,2,VDD*
G04 #@! TO.N,VCC*
X156727911Y-71042188D03*
G04 #@! TO.P,D2,3,GND*
G04 #@! TO.N,GND*
X157768945Y-70441148D03*
G04 #@! TO.P,D2,4,DIN*
G04 #@! TO.N,Net-(D1-DOUT)*
X156947908Y-70221151D03*
G04 #@! TD*
D40*
G04 #@! TO.P,C2,1*
G04 #@! TO.N,VCC*
X157161542Y-69192695D03*
G04 #@! TO.P,C2,2*
G04 #@! TO.N,GND*
X158088830Y-69441161D03*
G04 #@! TD*
D41*
G04 #@! TO.P,C24,1*
G04 #@! TO.N,VCC*
X144751169Y-69441161D03*
G04 #@! TO.P,C24,2*
G04 #@! TO.N,GND*
X145678457Y-69192695D03*
G04 #@! TD*
D42*
G04 #@! TO.P,D17,1,DOUT*
G04 #@! TO.N,Net-(D17-DOUT)*
X132094989Y-103144439D03*
G04 #@! TO.P,D17,2,VDD*
G04 #@! TO.N,VCC*
X132519989Y-103880561D03*
G04 #@! TO.P,D17,3,GND*
G04 #@! TO.N,GND*
X131358867Y-103569439D03*
G04 #@! TO.P,D17,4,DIN*
G04 #@! TO.N,Net-(D16-DOUT)*
X131783867Y-104305561D03*
G04 #@! TD*
D43*
G04 #@! TO.P,C4,1*
G04 #@! TO.N,VCC*
X168033474Y-75182703D03*
G04 #@! TO.P,C4,2*
G04 #@! TO.N,GND*
X168712296Y-75861525D03*
G04 #@! TD*
D44*
G04 #@! TO.P,D3,1,DOUT*
G04 #@! TO.N,Net-(D3-DOUT)*
X162830561Y-73569989D03*
G04 #@! TO.P,D3,2,VDD*
G04 #@! TO.N,VCC*
X162094439Y-73144989D03*
G04 #@! TO.P,D3,3,GND*
G04 #@! TO.N,GND*
X163255561Y-72833867D03*
G04 #@! TO.P,D3,4,DIN*
G04 #@! TO.N,Net-(D2-DOUT)*
X162519439Y-72408867D03*
G04 #@! TD*
D34*
G04 #@! TO.P,D19,1,DOUT*
G04 #@! TO.N,Net-(D19-DOUT)*
X129350000Y-92050000D03*
G04 #@! TO.P,D19,2,VDD*
G04 #@! TO.N,VCC*
X129350000Y-92900000D03*
G04 #@! TO.P,D19,3,GND*
G04 #@! TO.N,GND*
X128500000Y-92050000D03*
G04 #@! TO.P,D19,4,DIN*
G04 #@! TO.N,Net-(D18-DOUT)*
X128500000Y-92900000D03*
G04 #@! TD*
D45*
G04 #@! TO.P,C7,1*
G04 #@! TO.N,VCC*
X175395000Y-91995000D03*
G04 #@! TO.P,C7,2*
G04 #@! TO.N,GND*
X175395000Y-92955000D03*
G04 #@! TD*
D46*
G04 #@! TO.P,C22,1*
G04 #@! TO.N,VCC*
X134127703Y-75861525D03*
G04 #@! TO.P,C22,2*
G04 #@! TO.N,GND*
X134806525Y-75182703D03*
G04 #@! TD*
D47*
G04 #@! TO.P,C6,1*
G04 #@! TO.N,VCC*
X174453838Y-85806169D03*
G04 #@! TO.P,C6,2*
G04 #@! TO.N,GND*
X174702304Y-86733457D03*
G04 #@! TD*
D32*
G04 #@! TO.P,R1,1*
G04 #@! TO.N,/SIGNAL_IN*
X148700000Y-68675000D03*
G04 #@! TO.P,R1,2*
G04 #@! TO.N,Net-(D1-DIN)*
X148700000Y-70500000D03*
G04 #@! TD*
D34*
G04 #@! TO.P,D13,1,DOUT*
G04 #@! TO.N,Net-(D13-DOUT)*
X151000000Y-114550000D03*
G04 #@! TO.P,D13,2,VDD*
G04 #@! TO.N,VCC*
X151850000Y-114550000D03*
G04 #@! TO.P,D13,3,GND*
G04 #@! TO.N,GND*
X151000000Y-115400000D03*
G04 #@! TO.P,D13,4,DIN*
G04 #@! TO.N,Net-(D12-DOUT)*
X151850000Y-115400000D03*
G04 #@! TD*
D48*
G04 #@! TO.P,D16,1,DOUT*
G04 #@! TO.N,Net-(D16-DOUT)*
X135515097Y-107783861D03*
G04 #@! TO.P,D16,2,VDD*
G04 #@! TO.N,VCC*
X136116138Y-108384902D03*
G04 #@! TO.P,D16,3,GND*
G04 #@! TO.N,GND*
X134914056Y-108384902D03*
G04 #@! TO.P,D16,4,DIN*
G04 #@! TO.N,Net-(D15-DOUT)*
X135515097Y-108985943D03*
G04 #@! TD*
D49*
G04 #@! TO.P,J2,1,Pin_1*
G04 #@! TO.N,GND*
X153900000Y-119000000D03*
D50*
G04 #@! TO.P,J2,2,Pin_2*
G04 #@! TO.N,/SIGNAL_OUT*
X151360000Y-119000000D03*
G04 #@! TO.P,J2,3,Pin_3*
G04 #@! TO.N,VCC*
X148820000Y-119000000D03*
G04 #@! TD*
D51*
G04 #@! TO.P,C20,1*
G04 #@! TO.N,VCC*
X128137695Y-86733457D03*
G04 #@! TO.P,C20,2*
G04 #@! TO.N,GND*
X128386161Y-85806169D03*
G04 #@! TD*
D52*
G04 #@! TO.P,C10,1*
G04 #@! TO.N,VCC*
X168712296Y-109088474D03*
G04 #@! TO.P,C10,2*
G04 #@! TO.N,GND*
X168033474Y-109767296D03*
G04 #@! TD*
D34*
G04 #@! TO.P,D7,1,DOUT*
G04 #@! TO.N,Net-(D7-DOUT)*
X173500000Y-92900000D03*
G04 #@! TO.P,D7,2,VDD*
G04 #@! TO.N,VCC*
X173500000Y-92050000D03*
G04 #@! TO.P,D7,3,GND*
G04 #@! TO.N,GND*
X174350000Y-92900000D03*
G04 #@! TO.P,D7,4,DIN*
G04 #@! TO.N,Net-(D6-DOUT)*
X174350000Y-92050000D03*
G04 #@! TD*
D49*
G04 #@! TO.P,J1,1,Pin_1*
G04 #@! TO.N,GND*
X153900000Y-66000000D03*
D50*
G04 #@! TO.P,J1,2,Pin_2*
G04 #@! TO.N,/SIGNAL_IN*
X151360000Y-66000000D03*
G04 #@! TO.P,J1,3,Pin_3*
G04 #@! TO.N,VCC*
X148820000Y-66000000D03*
G04 #@! TD*
D53*
G04 #@! TO.P,C15,1*
G04 #@! TO.N,VCC*
X139848192Y-113477959D03*
G04 #@! TO.P,C15,2*
G04 #@! TO.N,GND*
X139016808Y-112997959D03*
G04 #@! TD*
D54*
G04 #@! TO.P,D15,1,DOUT*
G04 #@! TO.N,Net-(D15-DOUT)*
X140019439Y-111380010D03*
G04 #@! TO.P,D15,2,VDD*
G04 #@! TO.N,VCC*
X140755561Y-111805010D03*
G04 #@! TO.P,D15,3,GND*
G04 #@! TO.N,GND*
X139594439Y-112116132D03*
G04 #@! TO.P,D15,4,DIN*
G04 #@! TO.N,Net-(D14-DOUT)*
X140330561Y-112541132D03*
G04 #@! TD*
D55*
G04 #@! TO.P,C19,1*
G04 #@! TO.N,VCC*
X127445000Y-92955000D03*
G04 #@! TO.P,C19,2*
G04 #@! TO.N,GND*
X127445000Y-91995000D03*
G04 #@! TD*
D56*
G04 #@! TO.P,D12,1,DOUT*
G04 #@! TO.N,Net-(D12-DOUT)*
X156727911Y-113907811D03*
G04 #@! TO.P,D12,2,VDD*
G04 #@! TO.N,VCC*
X157548948Y-113687814D03*
G04 #@! TO.P,D12,3,GND*
G04 #@! TO.N,GND*
X156947908Y-114728848D03*
G04 #@! TO.P,D12,4,DIN*
G04 #@! TO.N,Net-(D11-DOUT)*
X157768945Y-114508851D03*
G04 #@! TD*
D57*
G04 #@! TO.P,D5,1,DOUT*
G04 #@! TO.N,Net-(D5-DOUT)*
X170755010Y-81805561D03*
G04 #@! TO.P,D5,2,VDD*
G04 #@! TO.N,VCC*
X170330010Y-81069439D03*
G04 #@! TO.P,D5,3,GND*
G04 #@! TO.N,GND*
X171491132Y-81380561D03*
G04 #@! TO.P,D5,4,DIN*
G04 #@! TO.N,Net-(D4-DOUT)*
X171066132Y-80644439D03*
G04 #@! TD*
D58*
G04 #@! TO.P,C18,1*
G04 #@! TO.N,VCC*
X128386161Y-99143830D03*
G04 #@! TO.P,C18,2*
G04 #@! TO.N,GND*
X128137695Y-98216542D03*
G04 #@! TD*
D59*
G04 #@! TO.N,GND*
X173900000Y-99900000D03*
X162200000Y-113700000D03*
X135400000Y-74500000D03*
X171400000Y-105400000D03*
X140700000Y-71100000D03*
X138500000Y-112300000D03*
X156300000Y-115700000D03*
X152700000Y-68600000D03*
X175200000Y-93700000D03*
X167300000Y-110200000D03*
X133700000Y-108200000D03*
X131400000Y-79400000D03*
X146500000Y-69000000D03*
X130400000Y-103200000D03*
X128200000Y-97400000D03*
X174700000Y-87600000D03*
X169100000Y-76500000D03*
X158700000Y-69800000D03*
X144100000Y-115000000D03*
X128800000Y-85100000D03*
X127700000Y-91200000D03*
X172600000Y-81700000D03*
X150200000Y-115900000D03*
X164400000Y-72500000D03*
G04 #@! TO.N,Net-(D1-DOUT)*
X152700000Y-70700000D03*
X156200000Y-70100000D03*
G04 #@! TO.N,Net-(D2-DOUT)*
X161900000Y-72000000D03*
X158300000Y-71500000D03*
G04 #@! TO.N,Net-(D3-DOUT)*
X166900000Y-75500000D03*
X163400000Y-74000000D03*
G04 #@! TO.N,Net-(D4-DOUT)*
X167800000Y-77700000D03*
X170700000Y-80100000D03*
G04 #@! TO.N,Net-(D5-DOUT)*
X171100000Y-82400000D03*
X173200000Y-85500000D03*
G04 #@! TO.N,Net-(D6-DOUT)*
X173000000Y-87800000D03*
X174300000Y-91400000D03*
G04 #@! TO.N,Net-(D7-DOUT)*
X173900000Y-97200000D03*
X173500000Y-93500000D03*
G04 #@! TO.N,Net-(D8-DOUT)*
X171900000Y-102900000D03*
X172400000Y-99300000D03*
G04 #@! TO.N,Net-(D10-DIN)*
X170000000Y-104500000D03*
X168500000Y-107900000D03*
G04 #@! TO.N,Net-(D10-DOUT)*
X166300000Y-108900000D03*
X163900000Y-111700000D03*
G04 #@! TO.N,Net-(D11-DOUT)*
X161500000Y-112200000D03*
X158400000Y-114300000D03*
G04 #@! TO.N,Net-(D12-DOUT)*
X152600000Y-115300000D03*
X156000000Y-114100000D03*
G04 #@! TO.N,Net-(D13-DOUT)*
X146600000Y-115100000D03*
X150300000Y-114500000D03*
G04 #@! TO.N,Net-(D14-DOUT)*
X141000000Y-112900000D03*
X144500000Y-113400000D03*
G04 #@! TO.N,Net-(D15-DOUT)*
X136000000Y-109400000D03*
X139400000Y-111000000D03*
G04 #@! TO.N,Net-(D16-DOUT)*
X132200000Y-104900000D03*
X135000000Y-107300000D03*
G04 #@! TO.N,Net-(D17-DOUT)*
X131700000Y-102500000D03*
X129600000Y-99400000D03*
G04 #@! TO.N,Net-(D18-DOUT)*
X129800000Y-97200000D03*
X128500000Y-93600000D03*
G04 #@! TO.N,Net-(D19-DOUT)*
X129300000Y-91400000D03*
X129000000Y-87600000D03*
G04 #@! TO.N,Net-(D20-DOUT)*
X131000000Y-81900000D03*
X130400000Y-85600000D03*
G04 #@! TO.N,/SIGNAL_IN*
X149800000Y-68500000D03*
G04 #@! TO.N,/SIGNAL_OUT*
X150200000Y-116900000D03*
G04 #@! TO.N,Net-(D21-DOUT)*
X132800000Y-80500000D03*
X134500000Y-77100000D03*
G04 #@! TO.N,Net-(D22-DOUT)*
X136600000Y-76100000D03*
X139000000Y-73200000D03*
G04 #@! TO.N,Net-(D23-DOUT)*
X144500000Y-70700000D03*
X141300000Y-72800000D03*
G04 #@! TD*
D60*
G04 #@! TO.N,GND*
X157161542Y-115757304D02*
X156947908Y-114728848D01*
X174702304Y-86733457D02*
X173678848Y-86952091D01*
X144751169Y-115508838D02*
X144100000Y-115000000D01*
X128137695Y-98216542D02*
X128200000Y-97400000D01*
X128137695Y-98216542D02*
X129171151Y-97997908D01*
X162991808Y-113477959D02*
X162200000Y-113700000D01*
X175395000Y-92955000D02*
X175200000Y-93700000D01*
X172600000Y-81700000D02*
X172422959Y-80903192D01*
X140700000Y-71100000D02*
X139848192Y-71472040D01*
X128800000Y-85100000D02*
X128386161Y-85806169D01*
X174700000Y-87600000D02*
X174702304Y-86733457D01*
X130417040Y-104046808D02*
X131358867Y-103569439D01*
D61*
X153900000Y-66000000D02*
X153900000Y-68100000D01*
D60*
X145678457Y-69192695D02*
X146500000Y-69000000D01*
X134127703Y-109088474D02*
X134914056Y-108384902D01*
X169100000Y-76500000D02*
X168712296Y-75861525D01*
X162991808Y-113477959D02*
X162519439Y-112541132D01*
X163823192Y-71952040D02*
X164400000Y-72500000D01*
X171942959Y-104878192D02*
X171066132Y-104305561D01*
X130400000Y-103200000D02*
X130417040Y-104046808D01*
X128386161Y-85806169D02*
X129391148Y-86131054D01*
X174453838Y-99143830D02*
X173900000Y-99900000D01*
X175395000Y-92955000D02*
X174350000Y-92900000D01*
X158088830Y-69441161D02*
X157768945Y-70441148D01*
X157161542Y-115757304D02*
X156300000Y-115700000D01*
X168033474Y-109767296D02*
X167300000Y-110200000D01*
X174453838Y-99143830D02*
X173458851Y-98818945D01*
X168033474Y-109767296D02*
X167334902Y-108985943D01*
X171942959Y-104878192D02*
X171400000Y-105400000D01*
X127445000Y-91995000D02*
X128500000Y-92050000D01*
X152700000Y-68600000D02*
X151900000Y-68500000D01*
X144751169Y-115508838D02*
X145081054Y-114508851D01*
X150940000Y-116450000D02*
X151000000Y-115400000D01*
X131400000Y-79400000D02*
X130897040Y-80071808D01*
X130897040Y-80071808D02*
X131783867Y-80644439D01*
X139848192Y-71472040D02*
X140330561Y-72408867D01*
X172422959Y-80903192D02*
X171491132Y-81380561D01*
X158700000Y-69800000D02*
X158088830Y-69441161D01*
X151900000Y-68500000D02*
X151850000Y-69550000D01*
X134806525Y-75182703D02*
X135515097Y-75964056D01*
X150940000Y-116450000D02*
X150200000Y-115900000D01*
X139016808Y-112997959D02*
X138500000Y-112300000D01*
X168712296Y-75861525D02*
X167935943Y-76565097D01*
X127700000Y-91200000D02*
X127445000Y-91995000D01*
X163823192Y-71952040D02*
X163255561Y-72833867D01*
X134127703Y-109088474D02*
X133700000Y-108200000D01*
X145678457Y-69192695D02*
X145902091Y-70221151D01*
X139016808Y-112997959D02*
X139594439Y-112116132D01*
X134806525Y-75182703D02*
X135400000Y-74500000D01*
G04 #@! TO.N,Net-(D1-DOUT)*
X156200000Y-70100000D02*
X156947908Y-70221151D01*
X152700000Y-70700000D02*
X151850000Y-70400000D01*
G04 #@! TO.N,Net-(D1-DIN)*
X148700000Y-70500000D02*
X151000000Y-69550000D01*
G04 #@! TO.N,Net-(D2-DOUT)*
X158300000Y-71500000D02*
X157548948Y-71262185D01*
X161900000Y-72000000D02*
X162519439Y-72408867D01*
G04 #@! TO.N,Net-(D3-DOUT)*
X166900000Y-75500000D02*
X167334902Y-75964056D01*
X163400000Y-74000000D02*
X162830561Y-73569989D01*
G04 #@! TO.N,Net-(D4-DOUT)*
X167800000Y-77700000D02*
X167334902Y-77166138D01*
X170700000Y-80100000D02*
X171066132Y-80644439D01*
G04 #@! TO.N,Net-(D5-DOUT)*
X171100000Y-82400000D02*
X170755010Y-81805561D01*
X173200000Y-85500000D02*
X173458851Y-86131054D01*
G04 #@! TO.N,Net-(D6-DOUT)*
X174300000Y-91400000D02*
X174350000Y-92050000D01*
X173000000Y-87800000D02*
X172857811Y-87172088D01*
G04 #@! TO.N,Net-(D7-DOUT)*
X173900000Y-97200000D02*
X173678848Y-97997908D01*
X173500000Y-93500000D02*
X173500000Y-92900000D01*
G04 #@! TO.N,Net-(D8-DOUT)*
X172400000Y-99300000D02*
X172637814Y-98598948D01*
X171900000Y-102900000D02*
X171491132Y-103569439D01*
G04 #@! TO.N,Net-(D10-DIN)*
X170000000Y-104500000D02*
X170330010Y-103880561D01*
X168500000Y-107900000D02*
X167935943Y-108384902D01*
G04 #@! TO.N,Net-(D10-DOUT)*
X163900000Y-111700000D02*
X163255561Y-112116132D01*
X166300000Y-108900000D02*
X166733861Y-108384902D01*
G04 #@! TO.N,Net-(D11-DOUT)*
X161500000Y-112200000D02*
X162094439Y-111805010D01*
X158400000Y-114300000D02*
X157768945Y-114508851D01*
G04 #@! TO.N,Net-(D12-DOUT)*
X152600000Y-115300000D02*
X151850000Y-115400000D01*
X156000000Y-114100000D02*
X156727911Y-113907811D01*
G04 #@! TO.N,Net-(D13-DOUT)*
X146600000Y-115100000D02*
X145902091Y-114728848D01*
X150300000Y-114500000D02*
X151000000Y-114550000D01*
G04 #@! TO.N,Net-(D14-DOUT)*
X141000000Y-112900000D02*
X140330561Y-112541132D01*
X144500000Y-113400000D02*
X145301051Y-113687814D01*
G04 #@! TO.N,Net-(D15-DOUT)*
X139400000Y-111000000D02*
X140019439Y-111380010D01*
X136000000Y-109400000D02*
X135515097Y-108985943D01*
G04 #@! TO.N,Net-(D16-DOUT)*
X132200000Y-104900000D02*
X131783867Y-104305561D01*
X135000000Y-107300000D02*
X135515097Y-107783861D01*
G04 #@! TO.N,Net-(D17-DOUT)*
X131700000Y-102500000D02*
X132094989Y-103144439D01*
X129600000Y-99400000D02*
X129391148Y-98818945D01*
G04 #@! TO.N,Net-(D18-DOUT)*
X129800000Y-97200000D02*
X129992188Y-97777911D01*
X128500000Y-93600000D02*
X128500000Y-92900000D01*
G04 #@! TO.N,Net-(D19-DOUT)*
X129300000Y-91400000D02*
X129350000Y-92050000D01*
X129000000Y-87600000D02*
X129171151Y-86952091D01*
G04 #@! TO.N,Net-(D20-DOUT)*
X131000000Y-81900000D02*
X131358867Y-81380561D01*
X130400000Y-85600000D02*
X130212185Y-86351051D01*
G04 #@! TO.N,/SIGNAL_IN*
X149800000Y-68500000D02*
X148700000Y-68675000D01*
G04 #@! TO.N,/SIGNAL_OUT*
X150200000Y-116900000D02*
X149100000Y-116300000D01*
G04 #@! TO.N,Net-(D21-DOUT)*
X134500000Y-77100000D02*
X134914056Y-76565097D01*
X132800000Y-80500000D02*
X132519989Y-81069439D01*
G04 #@! TO.N,Net-(D22-DOUT)*
X139000000Y-73200000D02*
X139594439Y-72833867D01*
X136600000Y-76100000D02*
X136116138Y-76565097D01*
G04 #@! TO.N,Net-(D23-DOUT)*
X141300000Y-72800000D02*
X140755561Y-73144989D01*
X144500000Y-70700000D02*
X145081054Y-70441148D01*
G04 #@! TO.N,Net-(D24-DOUT)*
X130295959Y-88958920D02*
X130193901Y-89605287D01*
X130699999Y-97750000D02*
X130684458Y-97691718D01*
X131725251Y-100872471D02*
X131913520Y-101319610D01*
X130120943Y-94888487D02*
X130100000Y-94700000D01*
X142028390Y-73353417D02*
X142410980Y-73174875D01*
X148909792Y-113983629D02*
X149100000Y-114475000D01*
X146061044Y-71421094D02*
X146122088Y-71042188D01*
X136325734Y-107625734D02*
X136396887Y-107696887D01*
X139000000Y-109900000D02*
X139022640Y-109916980D01*
X130000000Y-92002079D02*
X130000000Y-92894461D01*
X134446232Y-79484520D02*
X134600000Y-79300000D01*
X133777350Y-104516025D02*
X133944818Y-104767227D01*
X140005536Y-74509039D02*
X139476701Y-74839561D01*
X146863969Y-113296356D02*
X147903424Y-113532596D01*
X140621900Y-110910950D02*
X142377103Y-111788551D01*
X132358678Y-82782641D02*
X132231856Y-83036287D01*
X133216550Y-81260604D02*
X133100000Y-81450000D01*
X136880708Y-76879379D02*
X136800000Y-76950000D01*
X138226295Y-109267818D02*
X138126088Y-109178745D01*
X132550000Y-102649999D02*
X132662950Y-102859764D01*
X131149999Y-99300000D02*
X131131523Y-99240875D01*
X144968120Y-112796506D02*
X145150000Y-112850000D01*
X130899999Y-86349999D02*
X130896179Y-86362415D01*
X131449999Y-84799999D02*
X131346490Y-85066168D01*
X138143117Y-75750459D02*
X138350000Y-75600000D01*
X134723883Y-105829854D02*
X134700000Y-105800000D01*
X144816644Y-72194451D02*
X145635903Y-71921365D01*
X135631449Y-78127669D02*
X136038335Y-77689485D01*
X133944818Y-104767227D02*
G75*
G03*
X134700001Y-105800000I12276782J8184527D01*
G01*
X131346490Y-85066168D02*
G75*
G03*
X130899999Y-86349999I17503810J-6807032D01*
G01*
X131913521Y-101319610D02*
G75*
G03*
X132550000Y-102649999I14250479J6000210D01*
G01*
X133099997Y-81449998D02*
G75*
G03*
X132358678Y-82782641I14761703J-9084102D01*
G01*
X131149997Y-99300001D02*
G75*
G03*
X131725251Y-100872471I16717303J5224201D01*
G01*
X138126089Y-109178743D02*
G75*
G03*
X137250000Y-108450001I-11543189J-12986157D01*
G01*
X130120940Y-94888487D02*
G75*
G03*
X130350000Y-96300000I14155960J1572887D01*
G01*
X130550001Y-87650000D02*
G75*
G03*
X130295960Y-88958920I18511399J-4271900D01*
G01*
X133800000Y-80350000D02*
G75*
G03*
X133216551Y-81260604I24755400J-16503700D01*
G01*
X138226292Y-109267822D02*
G75*
G03*
X139000000Y-109900000I7985908J8984222D01*
G01*
X142028392Y-73353422D02*
G75*
G03*
X141000000Y-73900000I4747108J-10172478D01*
G01*
X130896178Y-86362415D02*
G75*
G03*
X130550000Y-87650000I17776522J-5469685D01*
G01*
X148909788Y-113983631D02*
G75*
G03*
X148500000Y-113650000I-497488J-192569D01*
G01*
X132662952Y-102859763D02*
G75*
G03*
X133200000Y-103700000I5876148J3164063D01*
G01*
X138143118Y-75750461D02*
G75*
G03*
X137500000Y-76300000I3180382J-4373039D01*
G01*
X139476701Y-74839561D02*
G75*
G03*
X138350000Y-75600000I10264899J-16423839D01*
G01*
X135631448Y-78127668D02*
G75*
G03*
X134600001Y-79300001I21333452J-19809632D01*
G01*
X136800001Y-76950001D02*
G75*
G03*
X136038335Y-77689485I6751099J-7715599D01*
G01*
X130700001Y-97749999D02*
G75*
G03*
X131131524Y-99240875I35470899J9458899D01*
G01*
X143650000Y-112350001D02*
G75*
G03*
X144968120Y-112796505I6160400J16017201D01*
G01*
X133777349Y-104516026D02*
G75*
G03*
X133200000Y-103700000I-14989149J-9992774D01*
G01*
X136880710Y-76879381D02*
G75*
G03*
X137500000Y-76300000I-8391210J9589881D01*
G01*
X141000000Y-73900000D02*
G75*
G03*
X140005536Y-74509039I32996600J-54994600D01*
G01*
X147903423Y-113532598D02*
G75*
G03*
X148500000Y-113649999I2310477J10166298D01*
G01*
X139022642Y-109916977D02*
G75*
G03*
X139800001Y-110449999I6662958J8883877D01*
G01*
X145150001Y-112849998D02*
G75*
G03*
X146863969Y-113296355I7988099J27159598D01*
G01*
X145635888Y-71921319D02*
G75*
G03*
X146061043Y-71421094I-200288J601019D01*
G01*
X130050004Y-90800000D02*
G75*
G03*
X130000000Y-92002079I14424396J-1202100D01*
G01*
X130350000Y-96300000D02*
G75*
G03*
X130684458Y-97691718I28269600J6057700D01*
G01*
X135500000Y-106750000D02*
G75*
G03*
X136325734Y-107625734I15312300J13610900D01*
G01*
X143600000Y-72650001D02*
G75*
G03*
X142410980Y-73174875I11949100J-28677999D01*
G01*
X130193900Y-89605287D02*
G75*
G03*
X130050000Y-90800000I16183000J-2555213D01*
G01*
X136396885Y-107696889D02*
G75*
G03*
X137250000Y-108449999I6475115J6475189D01*
G01*
X144816645Y-72194453D02*
G75*
G03*
X143600000Y-72650000I5625655J-16877047D01*
G01*
X142377104Y-111788548D02*
G75*
G03*
X143650000Y-112350000I6451796J12903548D01*
G01*
X132231857Y-83036287D02*
G75*
G03*
X131449999Y-84799999I18609543J-9304813D01*
G01*
X130000004Y-92894461D02*
G75*
G03*
X130100000Y-94700000I16349796J-39D01*
G01*
X134446234Y-79484521D02*
G75*
G03*
X133800001Y-80350001I7777766J-6481479D01*
G01*
X134723882Y-105829855D02*
G75*
G03*
X135500000Y-106750000I18112518J14490055D01*
G01*
X139800000Y-110450000D02*
G75*
G03*
X140621900Y-110910949I5262200J8419600D01*
G01*
G04 #@! TD*
G04 #@! TA.AperFunction,Conductor*
G04 #@! TO.N,VCC*
G36*
X155658691Y-64219407D02*
G01*
X155694655Y-64268907D01*
X155699500Y-64299500D01*
X155699500Y-67791243D01*
X155698774Y-67799482D01*
X155700235Y-67801570D01*
X155710026Y-67802498D01*
X156664650Y-67991969D01*
X156668362Y-67992782D01*
X157573171Y-68209617D01*
X157624150Y-68221880D01*
X157627731Y-68222814D01*
X158363714Y-68430067D01*
X158579320Y-68491110D01*
X158582840Y-68492178D01*
X159240390Y-68705550D01*
X159523055Y-68797888D01*
X159526464Y-68799072D01*
X159990440Y-68970046D01*
X160136837Y-69023993D01*
X160146052Y-69027415D01*
X160453934Y-69141752D01*
X160457239Y-69143049D01*
X161034458Y-69381897D01*
X161338152Y-69508663D01*
X161370442Y-69522141D01*
X161373715Y-69523576D01*
X161925122Y-69777546D01*
X162271271Y-69938510D01*
X162274300Y-69939985D01*
X162803662Y-70209484D01*
X163154835Y-70390133D01*
X163157878Y-70391767D01*
X163667392Y-70676891D01*
X163999682Y-70864928D01*
X164019845Y-70876338D01*
X164022786Y-70878069D01*
X164514189Y-71178991D01*
X164594559Y-71228798D01*
X164864957Y-71396372D01*
X164867783Y-71398190D01*
X165341806Y-71714715D01*
X165688872Y-71949436D01*
X165691579Y-71951333D01*
X166148614Y-72283187D01*
X166490268Y-72534646D01*
X166492770Y-72536551D01*
X166933155Y-72883526D01*
X167049736Y-72976712D01*
X167267830Y-73151040D01*
X167270264Y-73153050D01*
X167693902Y-73514677D01*
X168020442Y-73797725D01*
X168022720Y-73799763D01*
X168239445Y-74000000D01*
X168429565Y-74175657D01*
X168746853Y-74473629D01*
X168749067Y-74475774D01*
X169138896Y-74865416D01*
X169445974Y-75177733D01*
X169448063Y-75179923D01*
X169820780Y-75582941D01*
X170116696Y-75908919D01*
X170118659Y-75911148D01*
X170474009Y-76327027D01*
X170538617Y-76404161D01*
X170758017Y-76666098D01*
X170759801Y-76668294D01*
X170845714Y-76777228D01*
X171097464Y-77096437D01*
X171159503Y-77176802D01*
X171368846Y-77447983D01*
X171370501Y-77450193D01*
X171690199Y-77890042D01*
X171936149Y-78236330D01*
X171948238Y-78253351D01*
X171949829Y-78255660D01*
X172251302Y-78706671D01*
X172495341Y-79081009D01*
X172496810Y-79083332D01*
X172779746Y-79544867D01*
X173009311Y-79929687D01*
X173010658Y-79932018D01*
X173274704Y-80403331D01*
X173489335Y-80798048D01*
X173490560Y-80800373D01*
X173701748Y-81214707D01*
X173735454Y-81280834D01*
X173934597Y-81684611D01*
X173935709Y-81686941D01*
X174161220Y-82175942D01*
X174344459Y-82588086D01*
X174345455Y-82590407D01*
X174551324Y-83087249D01*
X174718287Y-83507083D01*
X174719171Y-83509389D01*
X174905166Y-84013382D01*
X175055471Y-84440099D01*
X175056245Y-84442385D01*
X175222137Y-84952779D01*
X175355500Y-85385713D01*
X175356168Y-85387975D01*
X175501765Y-85904055D01*
X175617905Y-86342439D01*
X175618469Y-86344672D01*
X175743599Y-86865712D01*
X175842251Y-87308665D01*
X175842715Y-87310864D01*
X175947245Y-87836205D01*
X176028251Y-88283161D01*
X176028617Y-88285321D01*
X176112378Y-88813995D01*
X176175561Y-89264148D01*
X176175835Y-89266265D01*
X176238748Y-89797649D01*
X176283964Y-90250077D01*
X176284149Y-90252148D01*
X176308811Y-90565412D01*
X176325848Y-90781823D01*
X176326145Y-90785589D01*
X176353307Y-91239557D01*
X176353408Y-91241578D01*
X176374420Y-91776191D01*
X176383503Y-92232034D01*
X176383503Y-92767973D01*
X176374420Y-93223812D01*
X176353407Y-93758421D01*
X176353307Y-93760442D01*
X176326145Y-94214410D01*
X176284148Y-94747849D01*
X176283963Y-94749921D01*
X176238748Y-95202350D01*
X176175835Y-95733733D01*
X176175561Y-95735851D01*
X176112378Y-96186004D01*
X176028618Y-96714677D01*
X176028251Y-96716837D01*
X175947245Y-97163794D01*
X175842715Y-97689134D01*
X175842251Y-97691332D01*
X175743599Y-98134287D01*
X175618468Y-98655326D01*
X175617905Y-98657558D01*
X175501765Y-99095944D01*
X175356168Y-99612023D01*
X175355501Y-99614285D01*
X175222137Y-100047220D01*
X175056244Y-100557613D01*
X175055470Y-100559899D01*
X174905166Y-100986616D01*
X174719170Y-101490609D01*
X174718287Y-101492915D01*
X174551330Y-101912738D01*
X174535510Y-101950920D01*
X174345456Y-102409592D01*
X174344459Y-102411912D01*
X174161220Y-102824057D01*
X173935709Y-103313057D01*
X173934598Y-103315386D01*
X173735459Y-103719154D01*
X173727654Y-103734468D01*
X173490564Y-104199616D01*
X173489336Y-104201950D01*
X173274705Y-104596668D01*
X173010659Y-105067980D01*
X173009311Y-105070311D01*
X172779746Y-105455132D01*
X172496809Y-105916666D01*
X172495340Y-105918989D01*
X172251302Y-106293328D01*
X171949829Y-106744338D01*
X171948238Y-106746647D01*
X171690225Y-107109922D01*
X171370543Y-107549748D01*
X171368828Y-107552037D01*
X171097464Y-107903562D01*
X170759811Y-108331691D01*
X170757972Y-108333953D01*
X170474009Y-108672972D01*
X170118660Y-109088849D01*
X170116696Y-109091079D01*
X169820780Y-109417058D01*
X169448063Y-109820075D01*
X169445974Y-109822265D01*
X169138896Y-110134583D01*
X168749067Y-110524225D01*
X168746853Y-110526370D01*
X168429565Y-110824342D01*
X168022748Y-111200208D01*
X168020410Y-111202301D01*
X167693858Y-111485359D01*
X167270292Y-111846925D01*
X167267830Y-111848959D01*
X166933107Y-112116511D01*
X166492797Y-112463427D01*
X166490211Y-112465395D01*
X166148614Y-112716812D01*
X165691578Y-113048666D01*
X165688872Y-113050563D01*
X165341806Y-113285284D01*
X164867783Y-113601808D01*
X164864958Y-113603627D01*
X164514178Y-113821016D01*
X164022789Y-114121927D01*
X164019845Y-114123660D01*
X163667376Y-114323117D01*
X163157879Y-114608231D01*
X163154821Y-114609873D01*
X162803609Y-114790542D01*
X162274381Y-115059973D01*
X162271210Y-115061517D01*
X161924927Y-115222543D01*
X161373723Y-115476418D01*
X161370442Y-115477857D01*
X161034354Y-115618145D01*
X160457279Y-115856933D01*
X160453893Y-115858262D01*
X160136838Y-115976006D01*
X159526504Y-116200912D01*
X159523014Y-116202124D01*
X159240112Y-116294539D01*
X158582879Y-116507807D01*
X158579292Y-116508897D01*
X158363324Y-116570042D01*
X157627769Y-116777174D01*
X157624088Y-116778134D01*
X157572880Y-116790452D01*
X156668406Y-117007207D01*
X156664607Y-117008039D01*
X155709769Y-117197551D01*
X155700194Y-117198485D01*
X155698772Y-117200523D01*
X155699500Y-117208778D01*
X155699500Y-120700500D01*
X155680593Y-120758691D01*
X155631093Y-120794655D01*
X155600500Y-120799500D01*
X147099500Y-120799500D01*
X147041309Y-120780593D01*
X147005345Y-120731093D01*
X147000500Y-120700500D01*
X147000500Y-119250000D01*
X147489364Y-119250000D01*
X147546570Y-119463495D01*
X147646398Y-119677576D01*
X147781887Y-119871074D01*
X147948925Y-120038112D01*
X148142423Y-120173601D01*
X148356504Y-120273429D01*
X148570000Y-120330634D01*
X148570000Y-119435501D01*
X148677685Y-119484680D01*
X148784237Y-119500000D01*
X148855763Y-119500000D01*
X148962315Y-119484680D01*
X149070000Y-119435501D01*
X149070000Y-120330633D01*
X149283495Y-120273429D01*
X149497576Y-120173601D01*
X149691074Y-120038112D01*
X149858112Y-119871074D01*
X149993601Y-119677576D01*
X150093429Y-119463494D01*
X150099958Y-119439130D01*
X150133281Y-119387815D01*
X150190402Y-119365888D01*
X150249503Y-119381723D01*
X150284206Y-119420624D01*
X150377634Y-119608256D01*
X150506125Y-119778404D01*
X150663699Y-119922053D01*
X150795622Y-120003736D01*
X150844981Y-120034298D01*
X151001681Y-120095003D01*
X151043804Y-120111322D01*
X151253388Y-120150500D01*
X151253390Y-120150500D01*
X151466612Y-120150500D01*
X151676195Y-120111322D01*
X151676198Y-120111321D01*
X151875019Y-120034298D01*
X152056302Y-119922052D01*
X152089240Y-119892025D01*
X152749500Y-119892025D01*
X152749501Y-119894864D01*
X152749828Y-119897687D01*
X152749829Y-119897697D01*
X152751961Y-119916081D01*
X152752415Y-119919991D01*
X152772451Y-119965369D01*
X152797793Y-120022764D01*
X152797794Y-120022765D01*
X152877235Y-120102206D01*
X152980009Y-120147585D01*
X153005135Y-120150500D01*
X154794864Y-120150499D01*
X154819991Y-120147585D01*
X154922765Y-120102206D01*
X155002206Y-120022765D01*
X155047585Y-119919991D01*
X155050500Y-119894865D01*
X155050499Y-118105136D01*
X155047585Y-118080009D01*
X155002206Y-117977235D01*
X154922765Y-117897794D01*
X154922764Y-117897793D01*
X154819989Y-117852414D01*
X154797714Y-117849830D01*
X154797704Y-117849829D01*
X154794865Y-117849500D01*
X154792000Y-117849500D01*
X153007991Y-117849500D01*
X153007973Y-117849500D01*
X153005136Y-117849501D01*
X153002313Y-117849828D01*
X153002302Y-117849829D01*
X152980009Y-117852415D01*
X152877235Y-117897793D01*
X152797793Y-117977235D01*
X152752414Y-118080010D01*
X152749830Y-118102285D01*
X152749829Y-118102296D01*
X152749500Y-118105135D01*
X152749500Y-118107991D01*
X152749500Y-118107999D01*
X152749500Y-119892008D01*
X152749500Y-119892025D01*
X152089240Y-119892025D01*
X152213872Y-119778407D01*
X152342366Y-119608255D01*
X152437405Y-119417389D01*
X152495756Y-119212310D01*
X152515429Y-119000000D01*
X152495756Y-118787690D01*
X152437405Y-118582611D01*
X152342366Y-118391745D01*
X152342365Y-118391744D01*
X152342365Y-118391743D01*
X152213874Y-118221595D01*
X152056300Y-118077946D01*
X151875021Y-117965703D01*
X151875019Y-117965702D01*
X151832898Y-117949384D01*
X151676195Y-117888677D01*
X151466612Y-117849500D01*
X151466610Y-117849500D01*
X151253390Y-117849500D01*
X151253388Y-117849500D01*
X151043804Y-117888677D01*
X150844978Y-117965703D01*
X150663699Y-118077946D01*
X150506125Y-118221595D01*
X150377634Y-118391743D01*
X150284206Y-118579375D01*
X150241343Y-118623037D01*
X150181002Y-118633167D01*
X150126231Y-118605895D01*
X150099958Y-118560870D01*
X150093429Y-118536504D01*
X149993601Y-118322424D01*
X149858112Y-118128925D01*
X149691074Y-117961887D01*
X149497576Y-117826398D01*
X149283495Y-117726570D01*
X149070000Y-117669364D01*
X149070000Y-118564498D01*
X148962315Y-118515320D01*
X148855763Y-118500000D01*
X148784237Y-118500000D01*
X148677685Y-118515320D01*
X148570000Y-118564498D01*
X148570000Y-117669364D01*
X148356505Y-117726570D01*
X148142424Y-117826398D01*
X147948925Y-117961887D01*
X147781887Y-118128925D01*
X147646398Y-118322424D01*
X147546570Y-118536505D01*
X147489364Y-118750000D01*
X148386314Y-118750000D01*
X148360507Y-118790156D01*
X148320000Y-118928111D01*
X148320000Y-119071889D01*
X148360507Y-119209844D01*
X148386314Y-119250000D01*
X147489364Y-119250000D01*
X147000500Y-119250000D01*
X147000500Y-117208574D01*
X147001198Y-117200476D01*
X147000577Y-117199593D01*
X147000578Y-117199592D01*
X147000576Y-117199591D01*
X146999869Y-117198584D01*
X146990705Y-117197681D01*
X146032604Y-117011373D01*
X146028792Y-117010553D01*
X145123701Y-116797248D01*
X145070161Y-116784581D01*
X145066467Y-116783632D01*
X144329757Y-116579073D01*
X144154124Y-116530040D01*
X144111978Y-116518273D01*
X144108394Y-116517199D01*
X143731514Y-116396376D01*
X143449720Y-116306036D01*
X143165178Y-116214197D01*
X143161675Y-116212994D01*
X142549889Y-115989933D01*
X142231143Y-115872801D01*
X142227742Y-115871480D01*
X141649076Y-115634278D01*
X141460484Y-115556290D01*
X141311364Y-115494624D01*
X141308140Y-115493222D01*
X140848284Y-115283205D01*
X140755413Y-115240791D01*
X140407361Y-115080294D01*
X140404175Y-115078755D01*
X140400576Y-115076937D01*
X139873506Y-114810656D01*
X139520495Y-114630438D01*
X139517447Y-114628814D01*
X139184336Y-114443709D01*
X139006275Y-114344763D01*
X138652176Y-114145772D01*
X138649219Y-114144042D01*
X138156279Y-113844126D01*
X137803782Y-113627068D01*
X137800957Y-113625262D01*
X137504976Y-113428803D01*
X137325291Y-113309536D01*
X137108323Y-113163669D01*
X136976625Y-113075129D01*
X136973924Y-113073246D01*
X136759401Y-112918349D01*
X136515231Y-112742044D01*
X136171994Y-112490813D01*
X136169405Y-112488852D01*
X136155081Y-112477625D01*
X135727487Y-112142488D01*
X135714296Y-112131998D01*
X135391155Y-111875038D01*
X135388722Y-111873038D01*
X135376065Y-111862287D01*
X135130635Y-111653812D01*
X134963600Y-111511928D01*
X134859781Y-111422375D01*
X134635410Y-111228835D01*
X134633086Y-111226765D01*
X134224795Y-110851290D01*
X133905889Y-110553176D01*
X133903664Y-110551030D01*
X133512323Y-110161604D01*
X133203727Y-109849114D01*
X133201628Y-109846921D01*
X132827449Y-109444024D01*
X132530034Y-109117758D01*
X132528060Y-109115526D01*
X132171336Y-108699718D01*
X131885868Y-108360260D01*
X131884088Y-108358078D01*
X131564390Y-107954277D01*
X131545050Y-107929849D01*
X131370878Y-107705089D01*
X131272301Y-107577879D01*
X131270585Y-107575597D01*
X131156442Y-107419139D01*
X130949585Y-107135596D01*
X130690246Y-106771797D01*
X130688647Y-106769485D01*
X130635526Y-106690300D01*
X130528138Y-106530220D01*
X130385928Y-106318232D01*
X130140591Y-105943237D01*
X130139115Y-105940910D01*
X129977150Y-105677624D01*
X129855041Y-105479127D01*
X129844569Y-105461631D01*
X129624208Y-105093511D01*
X129622910Y-105091272D01*
X129357722Y-104619510D01*
X129141992Y-104224094D01*
X129140775Y-104221789D01*
X129130630Y-104201950D01*
X128894783Y-103740754D01*
X128890342Y-103731778D01*
X128694556Y-103336097D01*
X128693516Y-103333922D01*
X128466999Y-102844306D01*
X128377995Y-102644750D01*
X128282775Y-102431257D01*
X128281812Y-102429021D01*
X128085845Y-101957551D01*
X128075015Y-101931496D01*
X127979809Y-101692838D01*
X127907161Y-101510726D01*
X127906306Y-101508502D01*
X127719485Y-101003817D01*
X127568377Y-100576124D01*
X127567598Y-100573832D01*
X127528940Y-100455250D01*
X127400952Y-100062655D01*
X127266867Y-99628679D01*
X127266240Y-99626560D01*
X127119967Y-99109615D01*
X127003190Y-98670125D01*
X127002665Y-98668053D01*
X126876939Y-98146058D01*
X126777720Y-97701845D01*
X126777314Y-97699924D01*
X126672291Y-97173624D01*
X126590842Y-96725512D01*
X126590508Y-96723551D01*
X126506342Y-96193836D01*
X126499975Y-96148599D01*
X126442814Y-95742516D01*
X126442563Y-95740589D01*
X126379345Y-95208141D01*
X126333878Y-94754466D01*
X126333706Y-94752547D01*
X126291516Y-94218143D01*
X126264200Y-93762913D01*
X126264107Y-93761041D01*
X126242996Y-93225418D01*
X126233867Y-92768455D01*
X126233867Y-92231535D01*
X126234736Y-92188066D01*
X126834500Y-92188066D01*
X126834714Y-92190355D01*
X126834715Y-92190362D01*
X126837290Y-92217821D01*
X126881147Y-92343156D01*
X126900704Y-92369655D01*
X126960001Y-92449999D01*
X127066843Y-92528852D01*
X127192181Y-92572710D01*
X127221934Y-92575500D01*
X127224245Y-92575500D01*
X127665755Y-92575500D01*
X127668066Y-92575500D01*
X127697819Y-92572710D01*
X127774923Y-92545729D01*
X127837241Y-92523924D01*
X127837952Y-92525958D01*
X127876162Y-92513222D01*
X127934495Y-92531687D01*
X127970834Y-92580912D01*
X127975256Y-92623614D01*
X127974830Y-92627285D01*
X127974829Y-92627296D01*
X127974500Y-92630135D01*
X127974500Y-92632998D01*
X127974500Y-92632999D01*
X127974500Y-93167008D01*
X127974500Y-93167025D01*
X127974501Y-93169864D01*
X127974828Y-93172687D01*
X127974829Y-93172697D01*
X127977415Y-93194992D01*
X128009060Y-93266662D01*
X128015268Y-93327531D01*
X128009960Y-93344534D01*
X127963669Y-93456293D01*
X127944750Y-93600000D01*
X127963669Y-93743709D01*
X128002892Y-93838401D01*
X128019139Y-93877625D01*
X128030646Y-93892621D01*
X128107378Y-93992621D01*
X128157306Y-94030932D01*
X128222375Y-94080861D01*
X128317067Y-94120083D01*
X128356290Y-94136330D01*
X128375210Y-94138820D01*
X128500000Y-94155250D01*
X128643709Y-94136330D01*
X128777625Y-94080861D01*
X128892621Y-93992621D01*
X128980861Y-93877625D01*
X129036330Y-93743709D01*
X129055250Y-93600000D01*
X129036330Y-93456291D01*
X128990038Y-93344532D01*
X128985238Y-93283538D01*
X128990935Y-93266671D01*
X129022585Y-93194991D01*
X129025500Y-93169865D01*
X129025499Y-92674498D01*
X129044406Y-92616308D01*
X129093906Y-92580344D01*
X129124493Y-92575499D01*
X129537000Y-92575499D01*
X129595191Y-92594406D01*
X129631155Y-92643906D01*
X129636000Y-92674499D01*
X129636000Y-92924623D01*
X129636001Y-92924658D01*
X129635992Y-93202746D01*
X129636042Y-93204584D01*
X129658728Y-93818900D01*
X129658845Y-93820720D01*
X129704171Y-94433797D01*
X129704355Y-94435604D01*
X129738226Y-94740196D01*
X129743870Y-94790990D01*
X129755302Y-94893886D01*
X129755299Y-94893898D01*
X129786179Y-95171734D01*
X129786402Y-95173365D01*
X129856431Y-95655754D01*
X129856711Y-95657387D01*
X129942847Y-96137151D01*
X129943183Y-96138787D01*
X129979803Y-96309636D01*
X129979804Y-96309651D01*
X129994080Y-96376267D01*
X130029514Y-96541623D01*
X130023220Y-96602484D01*
X129982354Y-96648021D01*
X129922527Y-96660842D01*
X129919791Y-96660520D01*
X129800000Y-96644750D01*
X129656290Y-96663669D01*
X129522375Y-96719139D01*
X129407378Y-96807378D01*
X129319139Y-96922375D01*
X129263669Y-97056290D01*
X129244750Y-97200000D01*
X129263193Y-97340092D01*
X129252043Y-97400253D01*
X129207660Y-97442370D01*
X129190663Y-97448641D01*
X128875805Y-97533008D01*
X128814704Y-97529806D01*
X128767154Y-97491301D01*
X128751318Y-97432200D01*
X128752026Y-97424484D01*
X128755250Y-97400000D01*
X128736330Y-97256291D01*
X128680861Y-97122375D01*
X128630152Y-97056290D01*
X128592621Y-97007378D01*
X128527552Y-96957450D01*
X128477625Y-96919139D01*
X128438401Y-96902892D01*
X128343709Y-96863669D01*
X128200000Y-96844750D01*
X128056290Y-96863669D01*
X127922375Y-96919139D01*
X127807378Y-97007378D01*
X127719139Y-97122375D01*
X127663669Y-97256290D01*
X127644750Y-97400000D01*
X127663669Y-97543710D01*
X127708773Y-97652600D01*
X127713574Y-97713597D01*
X127681604Y-97765765D01*
X127673080Y-97772281D01*
X127634251Y-97798755D01*
X127551459Y-97902573D01*
X127502945Y-98026182D01*
X127493021Y-98158601D01*
X127496446Y-98178753D01*
X127498028Y-98188064D01*
X127498618Y-98190266D01*
X127498622Y-98190284D01*
X127597370Y-98558816D01*
X127597373Y-98558828D01*
X127597966Y-98561038D01*
X127598763Y-98563188D01*
X127598766Y-98563195D01*
X127608361Y-98589054D01*
X127608362Y-98589056D01*
X127683165Y-98698771D01*
X127683166Y-98698772D01*
X127683167Y-98698773D01*
X127786983Y-98781564D01*
X127910593Y-98830078D01*
X128043010Y-98840001D01*
X128043010Y-98840000D01*
X128043013Y-98840001D01*
X128072474Y-98834996D01*
X128503405Y-98719528D01*
X128531422Y-98709133D01*
X128641138Y-98634329D01*
X128641138Y-98634328D01*
X128653467Y-98625923D01*
X128654686Y-98627711D01*
X128688279Y-98605533D01*
X128749403Y-98608274D01*
X128797242Y-98646420D01*
X128812565Y-98686530D01*
X128813291Y-98691462D01*
X128813294Y-98691477D01*
X128813708Y-98694285D01*
X128814444Y-98697033D01*
X128814445Y-98697036D01*
X128946942Y-99191520D01*
X128953401Y-99215623D01*
X128954452Y-99218277D01*
X128954454Y-99218281D01*
X128962719Y-99239139D01*
X129024864Y-99316367D01*
X129046615Y-99373555D01*
X129045888Y-99391352D01*
X129044749Y-99399997D01*
X129063669Y-99543709D01*
X129096254Y-99622375D01*
X129119139Y-99677625D01*
X129144435Y-99710591D01*
X129207378Y-99792621D01*
X129257306Y-99830932D01*
X129322375Y-99880861D01*
X129417067Y-99920083D01*
X129456290Y-99936330D01*
X129473008Y-99938531D01*
X129600000Y-99955250D01*
X129743709Y-99936330D01*
X129877625Y-99880861D01*
X129992621Y-99792621D01*
X130080861Y-99677625D01*
X130136330Y-99543709D01*
X130155250Y-99400000D01*
X130136330Y-99256291D01*
X130109501Y-99191520D01*
X130080861Y-99122375D01*
X129990159Y-99004170D01*
X129970759Y-98958335D01*
X129969004Y-98946431D01*
X129968588Y-98943605D01*
X129840376Y-98465118D01*
X129843579Y-98404017D01*
X129882085Y-98356467D01*
X129910378Y-98343869D01*
X130350627Y-98225904D01*
X130411725Y-98229106D01*
X130459275Y-98267612D01*
X130471535Y-98294677D01*
X130551610Y-98578808D01*
X130557350Y-98599177D01*
X130706164Y-99100072D01*
X130761469Y-99277048D01*
X130761469Y-99277054D01*
X130787627Y-99360760D01*
X130787626Y-99360764D01*
X130887573Y-99680598D01*
X130888073Y-99682072D01*
X131074843Y-100218951D01*
X131075400Y-100220437D01*
X131279178Y-100751061D01*
X131279786Y-100752539D01*
X131374865Y-100978311D01*
X131589740Y-101488641D01*
X131589764Y-101488692D01*
X131675730Y-101692838D01*
X131676381Y-101694287D01*
X131730183Y-101811467D01*
X131737275Y-101872240D01*
X131707291Y-101925575D01*
X131653132Y-101950920D01*
X131556289Y-101963670D01*
X131422375Y-102019139D01*
X131307378Y-102107378D01*
X131219139Y-102222375D01*
X131163669Y-102356290D01*
X131144750Y-102500000D01*
X131163669Y-102643709D01*
X131219138Y-102777624D01*
X131291698Y-102872186D01*
X131312122Y-102929862D01*
X131294744Y-102988527D01*
X131262656Y-103018190D01*
X131083033Y-103121895D01*
X131023185Y-103134616D01*
X130967289Y-103109729D01*
X130942988Y-103067640D01*
X130941318Y-103068332D01*
X130912910Y-102999750D01*
X130880861Y-102922375D01*
X130805419Y-102824057D01*
X130792621Y-102807378D01*
X130726040Y-102756289D01*
X130677625Y-102719139D01*
X130638401Y-102702892D01*
X130543709Y-102663669D01*
X130400000Y-102644750D01*
X130256290Y-102663669D01*
X130122375Y-102719139D01*
X130007378Y-102807378D01*
X129919139Y-102922375D01*
X129863669Y-103056290D01*
X129844750Y-103200000D01*
X129863669Y-103343709D01*
X129919137Y-103477622D01*
X129919138Y-103477624D01*
X129919139Y-103477625D01*
X129950105Y-103517981D01*
X129970529Y-103575655D01*
X129953152Y-103634321D01*
X129928855Y-103658985D01*
X129909239Y-103672904D01*
X129822619Y-103773557D01*
X129769519Y-103895266D01*
X129754651Y-104027222D01*
X129779337Y-104157695D01*
X129790831Y-104182752D01*
X129790839Y-104182767D01*
X129791798Y-104184858D01*
X129792945Y-104186845D01*
X129792953Y-104186860D01*
X129983710Y-104517260D01*
X129984864Y-104519258D01*
X130002157Y-104543630D01*
X130102808Y-104630247D01*
X130224518Y-104683348D01*
X130356472Y-104698216D01*
X130486947Y-104673529D01*
X130514109Y-104661069D01*
X130900471Y-104438003D01*
X130924843Y-104420710D01*
X131011460Y-104320059D01*
X131011460Y-104320058D01*
X131021194Y-104308748D01*
X131022948Y-104310258D01*
X131049349Y-104280491D01*
X131109100Y-104267319D01*
X131165181Y-104291784D01*
X131190361Y-104326559D01*
X131193838Y-104334601D01*
X131195271Y-104337083D01*
X131462275Y-104799546D01*
X131462280Y-104799553D01*
X131463704Y-104802020D01*
X131478791Y-104822323D01*
X131569477Y-104888639D01*
X131582055Y-104892009D01*
X131633370Y-104925332D01*
X131654586Y-104974713D01*
X131663670Y-105043710D01*
X131683355Y-105091234D01*
X131719139Y-105177625D01*
X131746376Y-105213121D01*
X131807378Y-105292621D01*
X131857306Y-105330932D01*
X131922375Y-105380861D01*
X132017067Y-105420083D01*
X132056290Y-105436330D01*
X132073008Y-105438531D01*
X132200000Y-105455250D01*
X132343709Y-105436330D01*
X132477625Y-105380861D01*
X132592621Y-105292621D01*
X132680861Y-105177625D01*
X132736330Y-105043709D01*
X132755250Y-104900000D01*
X132736330Y-104756291D01*
X132724052Y-104726650D01*
X132702049Y-104673529D01*
X132680861Y-104622375D01*
X132624652Y-104549122D01*
X132592621Y-104507378D01*
X132515173Y-104447951D01*
X132477625Y-104419139D01*
X132477623Y-104419138D01*
X132447288Y-104406572D01*
X132400763Y-104366835D01*
X132386750Y-104325759D01*
X132383934Y-104299739D01*
X132383934Y-104299738D01*
X132373896Y-104276521D01*
X132126212Y-103847522D01*
X132113490Y-103787674D01*
X132138377Y-103731778D01*
X132162445Y-103712288D01*
X132511918Y-103510518D01*
X132571765Y-103497797D01*
X132627661Y-103522684D01*
X132643479Y-103540876D01*
X132803520Y-103778027D01*
X132804258Y-103779011D01*
X132804268Y-103779025D01*
X132860599Y-103854132D01*
X132908799Y-103918399D01*
X132908851Y-103918468D01*
X133102280Y-104181408D01*
X133178416Y-104289018D01*
X133290866Y-104447956D01*
X133331280Y-104507378D01*
X133474263Y-104717613D01*
X133648583Y-104979085D01*
X133763195Y-105151012D01*
X133764016Y-105152187D01*
X134016103Y-105507590D01*
X134016958Y-105508742D01*
X134279214Y-105856709D01*
X134280107Y-105857843D01*
X134387515Y-105992080D01*
X134387516Y-105992080D01*
X134439646Y-106057243D01*
X134439646Y-106057244D01*
X134503303Y-106136815D01*
X134566960Y-106216388D01*
X134827059Y-106530223D01*
X134829912Y-106533546D01*
X134893593Y-106607733D01*
X134917134Y-106664175D01*
X134902995Y-106723704D01*
X134856567Y-106763554D01*
X134856344Y-106763647D01*
X134722374Y-106819139D01*
X134607378Y-106907378D01*
X134519139Y-107022375D01*
X134463669Y-107156290D01*
X134444750Y-107299999D01*
X134463669Y-107443709D01*
X134502892Y-107538401D01*
X134519139Y-107577625D01*
X134553477Y-107622375D01*
X134607378Y-107692621D01*
X134662550Y-107734956D01*
X134697206Y-107785380D01*
X134695605Y-107846545D01*
X134672287Y-107883502D01*
X134408899Y-108146890D01*
X134354382Y-108174667D01*
X134293950Y-108165096D01*
X134250685Y-108121831D01*
X134240742Y-108089806D01*
X134236330Y-108056290D01*
X134207872Y-107987587D01*
X134180861Y-107922375D01*
X134105772Y-107824517D01*
X134092621Y-107807378D01*
X134019948Y-107751615D01*
X133977625Y-107719139D01*
X133938401Y-107702892D01*
X133843709Y-107663669D01*
X133716717Y-107646951D01*
X133700000Y-107644750D01*
X133699999Y-107644750D01*
X133556290Y-107663669D01*
X133422375Y-107719139D01*
X133307378Y-107807378D01*
X133219139Y-107922375D01*
X133163669Y-108056290D01*
X133144750Y-108200000D01*
X133163669Y-108343709D01*
X133194914Y-108419140D01*
X133219139Y-108477625D01*
X133241970Y-108507379D01*
X133307378Y-108592621D01*
X133395618Y-108660329D01*
X133422375Y-108680861D01*
X133496060Y-108711382D01*
X133542585Y-108751117D01*
X133556869Y-108810612D01*
X133542416Y-108846273D01*
X133545677Y-108847844D01*
X133482815Y-108978381D01*
X133463023Y-109109687D01*
X133477694Y-109207015D01*
X133482815Y-109240993D01*
X133510560Y-109298606D01*
X133540429Y-109360632D01*
X133540430Y-109360633D01*
X133559496Y-109383644D01*
X133832533Y-109656681D01*
X133855544Y-109675747D01*
X133975184Y-109733362D01*
X134089290Y-109750560D01*
X134106489Y-109753153D01*
X134106489Y-109753152D01*
X134106490Y-109753153D01*
X134237796Y-109733362D01*
X134357436Y-109675747D01*
X134380447Y-109656681D01*
X134695910Y-109341218D01*
X134714976Y-109318207D01*
X134772591Y-109198567D01*
X134772591Y-109198566D01*
X134779065Y-109185123D01*
X134781406Y-109186250D01*
X134798808Y-109151449D01*
X134853113Y-109123260D01*
X134913616Y-109132374D01*
X134946943Y-109159450D01*
X134952689Y-109166704D01*
X135334336Y-109548350D01*
X135336580Y-109550128D01*
X135336585Y-109550132D01*
X135354161Y-109564055D01*
X135354164Y-109564057D01*
X135455146Y-109603177D01*
X135502577Y-109641829D01*
X135510847Y-109657606D01*
X135519139Y-109677625D01*
X135607378Y-109792621D01*
X135657306Y-109830932D01*
X135722375Y-109880861D01*
X135815787Y-109919553D01*
X135856290Y-109936330D01*
X135873008Y-109938531D01*
X136000000Y-109955250D01*
X136143709Y-109936330D01*
X136277625Y-109880861D01*
X136392621Y-109792621D01*
X136480861Y-109677625D01*
X136536330Y-109543709D01*
X136555250Y-109400000D01*
X136536330Y-109256291D01*
X136529993Y-109240993D01*
X136516105Y-109207464D01*
X136480861Y-109122375D01*
X136397922Y-109014287D01*
X136392621Y-109007378D01*
X136277625Y-108919139D01*
X136137882Y-108861256D01*
X136098164Y-108831263D01*
X136079276Y-108807418D01*
X136077505Y-108805182D01*
X135727227Y-108454905D01*
X135699450Y-108400389D01*
X135709021Y-108339957D01*
X135727224Y-108314902D01*
X136043674Y-107998451D01*
X136098189Y-107970675D01*
X136158621Y-107980246D01*
X136183675Y-107998448D01*
X136279060Y-108093821D01*
X136569491Y-108361118D01*
X136570279Y-108361785D01*
X136869958Y-108615480D01*
X136869971Y-108615490D01*
X136870750Y-108616150D01*
X136871564Y-108616783D01*
X136871565Y-108616784D01*
X136969243Y-108692765D01*
X136969264Y-108692787D01*
X136981018Y-108701929D01*
X136981019Y-108701930D01*
X137026526Y-108737325D01*
X137077448Y-108777832D01*
X137316773Y-108968209D01*
X137318451Y-108969574D01*
X137602755Y-109206062D01*
X137604375Y-109207439D01*
X137884081Y-109450643D01*
X137955607Y-109514222D01*
X137955618Y-109514241D01*
X138112741Y-109653899D01*
X138113791Y-109654794D01*
X138375513Y-109874745D01*
X138376576Y-109875601D01*
X138644303Y-110088224D01*
X138645394Y-110089054D01*
X138719440Y-110144578D01*
X138719444Y-110144582D01*
X138733006Y-110154753D01*
X138733007Y-110154755D01*
X138793333Y-110199999D01*
X138835498Y-110231623D01*
X138835525Y-110231639D01*
X138923572Y-110297674D01*
X138934081Y-110305556D01*
X138935215Y-110306369D01*
X139057881Y-110393044D01*
X139067236Y-110399655D01*
X139103845Y-110448678D01*
X139104648Y-110509858D01*
X139070368Y-110559045D01*
X139007377Y-110607380D01*
X138919139Y-110722375D01*
X138863669Y-110856290D01*
X138844750Y-111000000D01*
X138863669Y-111143709D01*
X138898072Y-111226765D01*
X138919139Y-111277625D01*
X138944767Y-111311024D01*
X139007378Y-111392621D01*
X139095618Y-111460329D01*
X139122375Y-111480861D01*
X139205339Y-111515225D01*
X139251865Y-111554961D01*
X139266149Y-111614456D01*
X139253191Y-111656189D01*
X139089703Y-111939361D01*
X139044233Y-111980302D01*
X138983383Y-111986698D01*
X138930395Y-111956105D01*
X138925424Y-111950128D01*
X138892621Y-111907378D01*
X138809645Y-111843709D01*
X138777625Y-111819139D01*
X138721687Y-111795969D01*
X138643709Y-111763669D01*
X138516717Y-111746951D01*
X138500000Y-111744750D01*
X138499999Y-111744750D01*
X138356290Y-111763669D01*
X138222375Y-111819139D01*
X138107378Y-111907378D01*
X138019139Y-112022375D01*
X137963669Y-112156290D01*
X137944750Y-112300000D01*
X137963669Y-112443709D01*
X138000635Y-112532951D01*
X138019139Y-112577625D01*
X138047406Y-112614463D01*
X138107378Y-112692621D01*
X138164341Y-112736330D01*
X138222375Y-112780861D01*
X138283813Y-112806309D01*
X138329374Y-112825181D01*
X138375899Y-112864918D01*
X138390183Y-112924412D01*
X138388762Y-112935049D01*
X138365400Y-113058524D01*
X138365400Y-113058525D01*
X138365400Y-113058527D01*
X138378290Y-113172923D01*
X138380268Y-113190481D01*
X138433368Y-113312190D01*
X138433369Y-113312191D01*
X138519986Y-113412842D01*
X138544358Y-113430135D01*
X138546354Y-113431287D01*
X138546355Y-113431288D01*
X138876755Y-113622045D01*
X138876762Y-113622048D01*
X138878758Y-113623201D01*
X138880856Y-113624163D01*
X138880863Y-113624167D01*
X138902240Y-113633973D01*
X138905920Y-113635661D01*
X139036395Y-113660348D01*
X139168349Y-113645480D01*
X139290059Y-113592379D01*
X139390710Y-113505762D01*
X139408003Y-113481390D01*
X139631069Y-113095028D01*
X139643529Y-113067866D01*
X139668216Y-112937391D01*
X139668215Y-112937390D01*
X139670990Y-112922729D01*
X139673932Y-112923285D01*
X139681490Y-112886364D01*
X139726650Y-112845082D01*
X139787450Y-112838228D01*
X139826653Y-112855761D01*
X139831790Y-112859579D01*
X139831795Y-112859582D01*
X139834101Y-112861296D01*
X140301521Y-113131159D01*
X140324738Y-113141199D01*
X140404846Y-113149868D01*
X140454833Y-113155279D01*
X140454571Y-113157692D01*
X140486738Y-113159374D01*
X140529813Y-113191536D01*
X140607378Y-113292621D01*
X140642859Y-113319846D01*
X140722375Y-113380861D01*
X140815879Y-113419591D01*
X140856290Y-113436330D01*
X140873008Y-113438531D01*
X141000000Y-113455250D01*
X141143709Y-113436330D01*
X141277625Y-113380861D01*
X141392621Y-113292621D01*
X141480861Y-113177625D01*
X141536330Y-113043709D01*
X141555250Y-112900000D01*
X141536330Y-112756291D01*
X141536011Y-112755522D01*
X141509957Y-112692621D01*
X141480861Y-112622375D01*
X141412390Y-112533142D01*
X141392621Y-112507378D01*
X141327552Y-112457450D01*
X141277625Y-112419139D01*
X141238401Y-112402892D01*
X141143709Y-112363669D01*
X140999998Y-112344749D01*
X140991419Y-112345879D01*
X140931259Y-112334725D01*
X140898590Y-112306163D01*
X140857528Y-112250011D01*
X140847323Y-112236056D01*
X140843312Y-112233075D01*
X140829324Y-112222679D01*
X140829317Y-112222674D01*
X140827021Y-112220968D01*
X140757553Y-112180861D01*
X140398021Y-111973286D01*
X140357080Y-111927816D01*
X140350684Y-111866966D01*
X140361781Y-111838055D01*
X140606464Y-111414248D01*
X140651934Y-111373308D01*
X140712784Y-111366912D01*
X140736475Y-111375200D01*
X142241295Y-112127611D01*
X142241297Y-112127611D01*
X142250060Y-112131993D01*
X142250071Y-112131996D01*
X142298653Y-112156290D01*
X142427040Y-112220490D01*
X142428474Y-112221164D01*
X142859107Y-112419425D01*
X142860583Y-112420063D01*
X143297348Y-112604367D01*
X143298810Y-112604942D01*
X143478951Y-112674208D01*
X143505649Y-112684475D01*
X143519332Y-112689738D01*
X143519332Y-112689739D01*
X143692354Y-112756290D01*
X143740485Y-112774803D01*
X143741741Y-112775256D01*
X144013951Y-112871578D01*
X144040895Y-112881113D01*
X144089443Y-112918349D01*
X144106833Y-112977011D01*
X144086421Y-113034691D01*
X144086408Y-113034707D01*
X144019139Y-113122374D01*
X143963669Y-113256290D01*
X143944750Y-113400000D01*
X143963669Y-113543709D01*
X143996117Y-113622045D01*
X144019139Y-113677625D01*
X144041970Y-113707379D01*
X144107378Y-113792621D01*
X144144384Y-113821016D01*
X144222375Y-113880861D01*
X144317067Y-113920083D01*
X144356290Y-113936330D01*
X144367965Y-113937867D01*
X144500000Y-113955250D01*
X144549781Y-113948696D01*
X144609942Y-113959846D01*
X144652059Y-114004228D01*
X144660045Y-114064890D01*
X144654739Y-114083323D01*
X144652625Y-114088656D01*
X144652625Y-114088657D01*
X144643306Y-114112172D01*
X144642568Y-114114924D01*
X144642566Y-114114932D01*
X144545895Y-114475716D01*
X144512571Y-114527030D01*
X144455449Y-114548957D01*
X144396349Y-114533121D01*
X144390002Y-114528636D01*
X144386903Y-114526258D01*
X144377625Y-114519139D01*
X144338401Y-114502892D01*
X144243709Y-114463669D01*
X144100000Y-114444750D01*
X143956290Y-114463669D01*
X143822375Y-114519139D01*
X143707378Y-114607378D01*
X143619139Y-114722375D01*
X143563669Y-114856290D01*
X143544750Y-115000000D01*
X143563669Y-115143709D01*
X143599606Y-115230467D01*
X143619139Y-115277625D01*
X143641970Y-115307379D01*
X143707378Y-115392621D01*
X143746155Y-115422375D01*
X143822375Y-115480861D01*
X143898400Y-115512351D01*
X143956290Y-115536330D01*
X143967096Y-115537752D01*
X144044546Y-115547949D01*
X144099769Y-115574288D01*
X144128965Y-115628059D01*
X144130346Y-115638703D01*
X144137632Y-115735939D01*
X144186146Y-115859549D01*
X144268937Y-115963365D01*
X144268938Y-115963365D01*
X144268940Y-115963368D01*
X144378655Y-116038171D01*
X144406673Y-116048567D01*
X144571085Y-116092621D01*
X144761292Y-116143587D01*
X144779647Y-116148505D01*
X144809109Y-116153511D01*
X144941528Y-116143587D01*
X145065137Y-116095073D01*
X145109510Y-116059687D01*
X145168956Y-116012281D01*
X145243760Y-115902565D01*
X145254155Y-115874548D01*
X145369623Y-115443617D01*
X145374628Y-115414156D01*
X145371890Y-115377625D01*
X145363590Y-115266857D01*
X145367057Y-115266597D01*
X145364891Y-115230467D01*
X145397829Y-115178903D01*
X145454783Y-115156547D01*
X145497185Y-115163335D01*
X145505412Y-115166596D01*
X146026750Y-115306287D01*
X146029565Y-115306701D01*
X146029570Y-115306703D01*
X146038132Y-115307965D01*
X146092944Y-115335155D01*
X146115159Y-115368018D01*
X146119139Y-115377625D01*
X146119140Y-115377626D01*
X146207378Y-115492621D01*
X146246165Y-115522383D01*
X146322375Y-115580861D01*
X146412388Y-115618145D01*
X146456290Y-115636330D01*
X146474315Y-115638703D01*
X146600000Y-115655250D01*
X146743709Y-115636330D01*
X146877625Y-115580861D01*
X146992621Y-115492621D01*
X147080861Y-115377625D01*
X147136330Y-115243709D01*
X147155250Y-115100000D01*
X147136330Y-114956291D01*
X147132621Y-114947337D01*
X147109957Y-114892621D01*
X147080861Y-114822375D01*
X147004128Y-114722375D01*
X146992621Y-114707378D01*
X146927552Y-114657450D01*
X146877625Y-114619139D01*
X146838401Y-114602892D01*
X146743709Y-114563669D01*
X146599997Y-114544749D01*
X146576231Y-114547878D01*
X146516071Y-114536727D01*
X146473955Y-114492343D01*
X146467054Y-114469997D01*
X146463401Y-114463670D01*
X146409812Y-114370852D01*
X146322285Y-114300419D01*
X146298770Y-114291100D01*
X146296012Y-114290361D01*
X146296009Y-114290360D01*
X145820284Y-114162891D01*
X145768970Y-114129567D01*
X145747043Y-114072445D01*
X145750279Y-114041647D01*
X145878490Y-113563155D01*
X145881190Y-113544837D01*
X145908379Y-113490026D01*
X145962594Y-113461663D01*
X146003079Y-113463211D01*
X146491690Y-113585030D01*
X146491690Y-113585031D01*
X146492665Y-113585258D01*
X146692738Y-113630722D01*
X146710413Y-113634739D01*
X146710421Y-113634742D01*
X147766536Y-113874768D01*
X147770596Y-113875690D01*
X147788949Y-113879861D01*
X147788954Y-113879864D01*
X147822755Y-113887546D01*
X147822755Y-113887547D01*
X147916283Y-113908803D01*
X147925039Y-113910793D01*
X148130482Y-113953301D01*
X148135279Y-113954196D01*
X148256058Y-113976747D01*
X148309766Y-114006006D01*
X148336029Y-114061268D01*
X148336152Y-114085856D01*
X148324851Y-114179953D01*
X148324850Y-114179965D01*
X148324500Y-114182882D01*
X148324500Y-114767118D01*
X148324850Y-114770035D01*
X148324851Y-114770046D01*
X148330747Y-114819138D01*
X148334883Y-114853577D01*
X148367891Y-114937279D01*
X148389138Y-114991158D01*
X148478499Y-115109000D01*
X148560351Y-115171069D01*
X148596342Y-115198362D01*
X148733923Y-115252617D01*
X148820382Y-115263000D01*
X148823334Y-115263000D01*
X149376666Y-115263000D01*
X149379618Y-115263000D01*
X149466077Y-115252617D01*
X149603658Y-115198362D01*
X149721500Y-115109000D01*
X149810862Y-114991158D01*
X149814936Y-114980824D01*
X149853870Y-114933629D01*
X149913112Y-114918330D01*
X149967301Y-114938601D01*
X150022375Y-114980861D01*
X150156290Y-115036330D01*
X150175209Y-115038820D01*
X150300000Y-115055250D01*
X150362578Y-115047011D01*
X150422738Y-115058161D01*
X150464856Y-115102543D01*
X150474500Y-115145164D01*
X150474500Y-115269681D01*
X150455593Y-115327872D01*
X150406093Y-115363836D01*
X150356833Y-115363836D01*
X150356631Y-115365371D01*
X150344971Y-115363836D01*
X150344907Y-115363836D01*
X150344871Y-115363822D01*
X150217109Y-115347002D01*
X150200000Y-115344750D01*
X150199999Y-115344750D01*
X150056290Y-115363669D01*
X149922375Y-115419139D01*
X149807379Y-115507377D01*
X149758771Y-115570725D01*
X149708346Y-115605380D01*
X149647182Y-115603778D01*
X149620410Y-115589341D01*
X149603658Y-115576638D01*
X149588664Y-115570725D01*
X149466077Y-115522383D01*
X149452670Y-115520773D01*
X149382546Y-115512351D01*
X149382535Y-115512350D01*
X149379618Y-115512000D01*
X148820382Y-115512000D01*
X148817465Y-115512350D01*
X148817453Y-115512351D01*
X148733923Y-115522383D01*
X148596341Y-115576638D01*
X148478499Y-115665999D01*
X148389138Y-115783841D01*
X148334883Y-115921423D01*
X148324851Y-116004953D01*
X148324850Y-116004965D01*
X148324500Y-116007882D01*
X148324500Y-116592118D01*
X148324850Y-116595035D01*
X148324851Y-116595046D01*
X148334883Y-116678576D01*
X148389138Y-116816158D01*
X148478499Y-116934000D01*
X148567860Y-117001764D01*
X148596342Y-117023362D01*
X148733923Y-117077617D01*
X148820382Y-117088000D01*
X148823334Y-117088000D01*
X149376666Y-117088000D01*
X149379618Y-117088000D01*
X149466077Y-117077617D01*
X149557460Y-117041579D01*
X149618530Y-117037821D01*
X149670146Y-117070676D01*
X149685243Y-117095792D01*
X149719139Y-117177625D01*
X149742887Y-117208574D01*
X149807378Y-117292621D01*
X149857306Y-117330932D01*
X149922375Y-117380861D01*
X150017067Y-117420083D01*
X150056290Y-117436330D01*
X150073008Y-117438531D01*
X150200000Y-117455250D01*
X150343709Y-117436330D01*
X150477625Y-117380861D01*
X150592621Y-117292621D01*
X150680861Y-117177625D01*
X150704060Y-117121615D01*
X150743797Y-117075089D01*
X150795525Y-117060500D01*
X151130755Y-117060500D01*
X151133066Y-117060500D01*
X151162819Y-117057710D01*
X151288157Y-117013852D01*
X151394999Y-116934999D01*
X151473852Y-116828157D01*
X151517710Y-116702819D01*
X151520500Y-116673066D01*
X151520500Y-116226934D01*
X151517710Y-116197181D01*
X151500812Y-116148890D01*
X151468924Y-116057759D01*
X151472710Y-116056434D01*
X151461790Y-116023640D01*
X151480272Y-115965313D01*
X151529508Y-115928989D01*
X151572201Y-115924579D01*
X151580135Y-115925500D01*
X152119864Y-115925499D01*
X152144991Y-115922585D01*
X152247765Y-115877206D01*
X152290969Y-115834002D01*
X152345485Y-115806224D01*
X152398857Y-115812540D01*
X152456291Y-115836330D01*
X152600000Y-115855250D01*
X152743709Y-115836330D01*
X152877625Y-115780861D01*
X152992621Y-115692621D01*
X153080861Y-115577625D01*
X153136330Y-115443709D01*
X153155250Y-115300000D01*
X153137548Y-115165540D01*
X153136330Y-115156290D01*
X153116742Y-115109000D01*
X153080861Y-115022375D01*
X153015565Y-114937280D01*
X152992621Y-114907378D01*
X152926041Y-114856290D01*
X152877625Y-114819139D01*
X152808585Y-114790542D01*
X152743709Y-114763669D01*
X152600000Y-114744750D01*
X152456289Y-114763669D01*
X152322375Y-114819138D01*
X152255939Y-114870115D01*
X152198263Y-114890538D01*
X152155688Y-114882138D01*
X152144990Y-114877414D01*
X152122714Y-114874830D01*
X152122704Y-114874829D01*
X152119865Y-114874500D01*
X152117000Y-114874500D01*
X151624499Y-114874500D01*
X151566308Y-114855593D01*
X151530344Y-114806093D01*
X151525499Y-114775505D01*
X151525499Y-114280136D01*
X151522585Y-114255009D01*
X151477206Y-114152235D01*
X151424971Y-114100000D01*
X155444750Y-114100000D01*
X155463669Y-114243709D01*
X155496561Y-114323117D01*
X155519139Y-114377625D01*
X155535191Y-114398544D01*
X155607378Y-114492621D01*
X155652221Y-114527030D01*
X155722375Y-114580861D01*
X155814317Y-114618944D01*
X155856290Y-114636330D01*
X155873008Y-114638531D01*
X156000000Y-114655250D01*
X156143709Y-114636330D01*
X156251274Y-114591775D01*
X156312268Y-114586975D01*
X156364437Y-114618944D01*
X156384784Y-114657617D01*
X156484837Y-115031017D01*
X156481635Y-115092118D01*
X156443129Y-115139668D01*
X156384029Y-115155504D01*
X156376289Y-115154793D01*
X156300000Y-115144750D01*
X156156290Y-115163669D01*
X156022375Y-115219139D01*
X155907378Y-115307378D01*
X155819139Y-115422375D01*
X155763669Y-115556290D01*
X155744750Y-115700000D01*
X155763669Y-115843709D01*
X155796341Y-115922585D01*
X155819139Y-115977625D01*
X155840109Y-116004953D01*
X155907378Y-116092621D01*
X155946988Y-116123014D01*
X156022375Y-116180861D01*
X156113916Y-116218778D01*
X156156290Y-116236330D01*
X156173008Y-116238531D01*
X156300000Y-116255250D01*
X156443709Y-116236330D01*
X156577625Y-116180861D01*
X156577625Y-116180860D01*
X156589667Y-116175873D01*
X156591387Y-116180026D01*
X156625450Y-116167931D01*
X156684131Y-116185258D01*
X156709920Y-116211121D01*
X156743755Y-116260747D01*
X156743758Y-116260749D01*
X156847573Y-116343539D01*
X156971182Y-116392053D01*
X157103601Y-116401977D01*
X157103601Y-116401976D01*
X157103602Y-116401977D01*
X157133064Y-116396971D01*
X157506038Y-116297033D01*
X157534056Y-116286637D01*
X157643771Y-116211834D01*
X157726564Y-116108015D01*
X157775078Y-115984405D01*
X157784630Y-115856933D01*
X157785001Y-115851988D01*
X157785001Y-115851986D01*
X157779996Y-115822525D01*
X157664528Y-115391594D01*
X157654133Y-115363577D01*
X157579329Y-115253861D01*
X157579328Y-115253860D01*
X157570923Y-115241532D01*
X157574693Y-115238961D01*
X157556591Y-115211510D01*
X157559365Y-115150387D01*
X157597536Y-115102569D01*
X157637613Y-115087274D01*
X157644285Y-115086291D01*
X158165623Y-114946598D01*
X158189139Y-114937280D01*
X158273397Y-114869476D01*
X158330583Y-114847726D01*
X158348370Y-114848452D01*
X158400000Y-114855250D01*
X158543709Y-114836330D01*
X158677625Y-114780861D01*
X158792621Y-114692621D01*
X158880861Y-114577625D01*
X158936330Y-114443709D01*
X158955250Y-114300000D01*
X158936330Y-114156291D01*
X158933148Y-114148610D01*
X158907155Y-114085856D01*
X158880861Y-114022375D01*
X158821297Y-113944750D01*
X158792621Y-113907378D01*
X158727552Y-113857450D01*
X158677625Y-113819139D01*
X158638401Y-113802892D01*
X158543709Y-113763669D01*
X158400000Y-113744750D01*
X158256290Y-113763669D01*
X158122375Y-113819138D01*
X158003995Y-113909975D01*
X157946319Y-113930399D01*
X157928544Y-113929262D01*
X157918629Y-113927723D01*
X157918628Y-113927723D01*
X157896425Y-113930995D01*
X157896418Y-113930996D01*
X157893605Y-113931411D01*
X157890859Y-113932146D01*
X157890853Y-113932148D01*
X157415118Y-114059621D01*
X157354017Y-114056418D01*
X157306467Y-114017913D01*
X157293868Y-113989617D01*
X157165658Y-113511133D01*
X157156340Y-113487617D01*
X157085907Y-113400090D01*
X157085906Y-113400089D01*
X156988610Y-113343915D01*
X156877596Y-113326682D01*
X156855391Y-113329955D01*
X156855384Y-113329956D01*
X156852571Y-113330371D01*
X156849825Y-113331106D01*
X156849819Y-113331108D01*
X156333992Y-113469324D01*
X156333980Y-113469327D01*
X156331233Y-113470064D01*
X156328583Y-113471113D01*
X156328574Y-113471117D01*
X156307716Y-113479382D01*
X156227636Y-113543822D01*
X156170447Y-113565573D01*
X156152649Y-113564846D01*
X156000000Y-113544750D01*
X155856290Y-113563669D01*
X155722375Y-113619139D01*
X155607378Y-113707378D01*
X155519139Y-113822375D01*
X155463669Y-113956290D01*
X155444750Y-114100000D01*
X151424971Y-114100000D01*
X151397765Y-114072794D01*
X151397764Y-114072793D01*
X151294989Y-114027414D01*
X151272714Y-114024830D01*
X151272704Y-114024829D01*
X151269865Y-114024500D01*
X151267000Y-114024500D01*
X150732991Y-114024500D01*
X150732973Y-114024500D01*
X150730136Y-114024501D01*
X150727312Y-114024828D01*
X150727303Y-114024829D01*
X150705007Y-114027415D01*
X150684687Y-114036387D01*
X150623817Y-114042593D01*
X150584437Y-114024364D01*
X150577627Y-114019139D01*
X150443710Y-113963669D01*
X150300000Y-113944750D01*
X150156290Y-113963669D01*
X150022375Y-114019138D01*
X149982437Y-114049784D01*
X149924761Y-114070207D01*
X149866096Y-114052829D01*
X149830074Y-114007560D01*
X149810862Y-113958842D01*
X149774801Y-113911288D01*
X149721500Y-113840999D01*
X149603658Y-113751638D01*
X149586191Y-113744750D01*
X149466077Y-113697383D01*
X149452670Y-113695773D01*
X149382546Y-113687351D01*
X149382535Y-113687350D01*
X149379618Y-113687000D01*
X149376666Y-113687000D01*
X149221305Y-113687000D01*
X149163114Y-113668093D01*
X149146535Y-113652888D01*
X149060230Y-113553440D01*
X149036370Y-113497099D01*
X149050182Y-113437493D01*
X149096393Y-113397390D01*
X149145774Y-113390140D01*
X149469250Y-113425567D01*
X150383753Y-113485506D01*
X151300000Y-113505499D01*
X152216247Y-113485506D01*
X153130750Y-113425567D01*
X154041768Y-113325794D01*
X154947567Y-113186378D01*
X155846422Y-113007585D01*
X156736623Y-112789754D01*
X157616475Y-112533300D01*
X158484304Y-112238712D01*
X158583854Y-112199999D01*
X160944750Y-112199999D01*
X160963669Y-112343709D01*
X161001315Y-112434594D01*
X161019139Y-112477625D01*
X161041970Y-112507379D01*
X161107378Y-112592621D01*
X161146155Y-112622375D01*
X161222375Y-112680861D01*
X161303849Y-112714608D01*
X161356290Y-112736330D01*
X161375209Y-112738820D01*
X161500000Y-112755250D01*
X161643709Y-112736330D01*
X161777625Y-112680861D01*
X161837538Y-112634887D01*
X161895213Y-112614463D01*
X161953879Y-112631840D01*
X161983540Y-112663928D01*
X162174413Y-112994528D01*
X162182743Y-113008955D01*
X162195465Y-113068803D01*
X162170579Y-113124699D01*
X162117590Y-113155292D01*
X162109929Y-113156608D01*
X162056290Y-113163669D01*
X161922375Y-113219139D01*
X161807378Y-113307378D01*
X161719139Y-113422375D01*
X161663669Y-113556290D01*
X161644750Y-113699999D01*
X161644750Y-113700000D01*
X161646951Y-113716717D01*
X161663669Y-113843709D01*
X161699997Y-113931411D01*
X161719139Y-113977625D01*
X161747937Y-114015155D01*
X161807378Y-114092621D01*
X161850200Y-114125479D01*
X161922375Y-114180861D01*
X162017067Y-114220083D01*
X162056290Y-114236330D01*
X162073008Y-114238531D01*
X162200000Y-114255250D01*
X162343709Y-114236330D01*
X162477625Y-114180861D01*
X162592621Y-114092621D01*
X162592622Y-114092618D01*
X162602961Y-114084686D01*
X162604591Y-114086810D01*
X162639112Y-114063081D01*
X162700277Y-114064676D01*
X162706828Y-114067261D01*
X162718555Y-114072377D01*
X162718557Y-114072379D01*
X162840267Y-114125480D01*
X162972221Y-114140348D01*
X163102696Y-114115661D01*
X163129858Y-114103201D01*
X163464258Y-113910135D01*
X163488630Y-113892842D01*
X163575247Y-113792191D01*
X163628348Y-113670481D01*
X163643216Y-113538527D01*
X163618529Y-113408052D01*
X163611730Y-113393231D01*
X163607035Y-113382995D01*
X163607031Y-113382988D01*
X163606069Y-113380890D01*
X163599337Y-113369230D01*
X163384156Y-112996525D01*
X163384155Y-112996524D01*
X163383003Y-112994528D01*
X163365710Y-112970156D01*
X163265059Y-112883539D01*
X163265058Y-112883538D01*
X163254266Y-112874251D01*
X163222493Y-112821963D01*
X163227521Y-112760984D01*
X163267432Y-112714608D01*
X163279549Y-112708345D01*
X163284601Y-112706161D01*
X163752020Y-112436295D01*
X163772323Y-112421208D01*
X163838639Y-112330522D01*
X163840181Y-112324766D01*
X163873501Y-112273454D01*
X163922882Y-112252237D01*
X164043709Y-112236330D01*
X164177625Y-112180861D01*
X164292621Y-112092621D01*
X164380861Y-111977625D01*
X164436330Y-111843709D01*
X164455250Y-111700000D01*
X164436330Y-111556291D01*
X164435779Y-111554961D01*
X164419320Y-111515225D01*
X164380861Y-111422375D01*
X164330932Y-111357306D01*
X164292621Y-111307378D01*
X164227552Y-111257450D01*
X164177625Y-111219139D01*
X164114169Y-111192855D01*
X164043709Y-111163669D01*
X163900000Y-111144750D01*
X163756290Y-111163669D01*
X163622375Y-111219139D01*
X163507378Y-111307378D01*
X163419138Y-111422375D01*
X163408919Y-111447046D01*
X163369181Y-111493571D01*
X163328108Y-111507583D01*
X163249740Y-111516064D01*
X163249737Y-111516065D01*
X163249738Y-111516065D01*
X163226521Y-111526103D01*
X163224045Y-111527532D01*
X163224038Y-111527536D01*
X162797522Y-111773786D01*
X162737674Y-111786508D01*
X162681778Y-111761621D01*
X162662286Y-111737550D01*
X162416030Y-111311024D01*
X162416028Y-111311021D01*
X162414602Y-111308551D01*
X162399515Y-111288248D01*
X162308829Y-111221932D01*
X162308828Y-111221931D01*
X162246174Y-111205143D01*
X162200311Y-111192855D01*
X162200309Y-111192855D01*
X162088618Y-111204942D01*
X162088615Y-111204943D01*
X162088616Y-111204943D01*
X162065399Y-111214981D01*
X162062923Y-111216410D01*
X162062916Y-111216414D01*
X161600453Y-111483418D01*
X161600437Y-111483427D01*
X161597980Y-111484847D01*
X161595701Y-111486539D01*
X161595691Y-111486547D01*
X161577677Y-111499933D01*
X161536465Y-111556291D01*
X161514691Y-111586067D01*
X161500437Y-111605559D01*
X161498850Y-111604398D01*
X161480537Y-111632598D01*
X161431160Y-111653812D01*
X161356289Y-111663670D01*
X161222375Y-111719139D01*
X161107378Y-111807378D01*
X161019139Y-111922375D01*
X160963669Y-112056290D01*
X160944750Y-112199999D01*
X158583854Y-112199999D01*
X159338456Y-111906551D01*
X160177307Y-111537447D01*
X160999260Y-111132105D01*
X161802750Y-110691296D01*
X162586246Y-110215858D01*
X163348259Y-109706697D01*
X164087338Y-109164783D01*
X164417252Y-108899999D01*
X165744750Y-108899999D01*
X165763669Y-109043709D01*
X165800396Y-109132374D01*
X165819139Y-109177625D01*
X165857450Y-109227552D01*
X165907378Y-109292621D01*
X165940722Y-109318206D01*
X166022375Y-109380861D01*
X166096133Y-109411412D01*
X166156290Y-109436330D01*
X166173008Y-109438531D01*
X166300000Y-109455250D01*
X166443709Y-109436330D01*
X166577625Y-109380861D01*
X166692621Y-109292621D01*
X166713247Y-109265740D01*
X166763672Y-109231084D01*
X166824836Y-109232685D01*
X166861793Y-109256003D01*
X167131545Y-109525754D01*
X167159323Y-109580271D01*
X167149752Y-109640703D01*
X167106487Y-109683968D01*
X167099429Y-109687222D01*
X167022373Y-109719140D01*
X166907378Y-109807378D01*
X166819139Y-109922375D01*
X166763669Y-110056290D01*
X166744750Y-110199999D01*
X166763669Y-110343709D01*
X166787724Y-110401782D01*
X166819139Y-110477625D01*
X166850994Y-110519139D01*
X166907378Y-110592621D01*
X166926613Y-110607380D01*
X167022375Y-110680861D01*
X167117067Y-110720083D01*
X167156290Y-110736330D01*
X167175209Y-110738820D01*
X167300000Y-110755250D01*
X167443709Y-110736330D01*
X167577625Y-110680861D01*
X167692621Y-110592621D01*
X167780861Y-110477625D01*
X167787086Y-110462594D01*
X167826822Y-110416067D01*
X167886317Y-110401782D01*
X167921505Y-110411281D01*
X167923228Y-110412110D01*
X167923381Y-110412184D01*
X168054687Y-110431975D01*
X168185993Y-110412184D01*
X168305633Y-110354569D01*
X168328644Y-110335503D01*
X168601681Y-110062466D01*
X168620747Y-110039455D01*
X168678362Y-109919815D01*
X168698153Y-109788509D01*
X168678362Y-109657203D01*
X168620747Y-109537563D01*
X168601681Y-109514552D01*
X168286218Y-109199089D01*
X168282416Y-109195939D01*
X168263206Y-109180022D01*
X168131861Y-109116771D01*
X168087636Y-109074489D01*
X168076711Y-109014287D01*
X168103258Y-108959160D01*
X168113351Y-108949966D01*
X168113389Y-108949935D01*
X168116704Y-108947310D01*
X168498350Y-108565663D01*
X168514057Y-108545835D01*
X168530588Y-108503161D01*
X168569240Y-108455729D01*
X168609983Y-108440770D01*
X168643709Y-108436330D01*
X168649334Y-108434000D01*
X168777625Y-108380861D01*
X168892621Y-108292621D01*
X168980861Y-108177625D01*
X169036330Y-108043709D01*
X169055250Y-107900000D01*
X169036330Y-107756291D01*
X169034393Y-107751615D01*
X169001482Y-107672160D01*
X168980861Y-107622375D01*
X168930932Y-107557306D01*
X168892621Y-107507378D01*
X168809645Y-107443709D01*
X168777625Y-107419139D01*
X168738401Y-107402892D01*
X168643709Y-107363669D01*
X168516717Y-107346951D01*
X168500000Y-107344750D01*
X168499999Y-107344750D01*
X168356290Y-107363669D01*
X168222375Y-107419139D01*
X168107378Y-107507378D01*
X168019139Y-107622375D01*
X167984878Y-107705089D01*
X167945142Y-107751615D01*
X167893414Y-107766204D01*
X167879770Y-107766204D01*
X167841936Y-107780861D01*
X167775009Y-107806788D01*
X167757418Y-107820722D01*
X167757409Y-107820729D01*
X167755182Y-107822494D01*
X167753170Y-107824505D01*
X167753170Y-107824506D01*
X167404906Y-108172771D01*
X167350389Y-108200548D01*
X167289957Y-108190977D01*
X167264899Y-108172771D01*
X166916644Y-107824517D01*
X166916641Y-107824514D01*
X166914622Y-107822495D01*
X166912378Y-107820717D01*
X166912372Y-107820712D01*
X166894796Y-107806789D01*
X166894794Y-107806788D01*
X166790034Y-107766204D01*
X166677688Y-107766204D01*
X166639854Y-107780861D01*
X166572927Y-107806788D01*
X166555336Y-107820722D01*
X166555327Y-107820729D01*
X166553100Y-107822494D01*
X166551088Y-107824505D01*
X166551079Y-107824514D01*
X166173476Y-108202118D01*
X166173467Y-108202127D01*
X166171454Y-108204141D01*
X166169683Y-108206375D01*
X166169671Y-108206390D01*
X166155748Y-108223966D01*
X166108478Y-108345986D01*
X166105345Y-108344772D01*
X166096256Y-108372746D01*
X166054050Y-108406019D01*
X166022373Y-108419140D01*
X165907378Y-108507378D01*
X165819139Y-108622375D01*
X165763669Y-108756290D01*
X165744750Y-108899999D01*
X164417252Y-108899999D01*
X164802074Y-108591146D01*
X165491109Y-107986878D01*
X166153131Y-107353131D01*
X166786878Y-106691109D01*
X167391146Y-106002074D01*
X167964783Y-105287338D01*
X168506697Y-104548259D01*
X168538943Y-104500000D01*
X169444750Y-104500000D01*
X169446951Y-104516717D01*
X169463669Y-104643709D01*
X169498025Y-104726650D01*
X169519139Y-104777625D01*
X169527049Y-104787933D01*
X169607378Y-104892621D01*
X169657306Y-104930932D01*
X169722375Y-104980861D01*
X169807794Y-105016242D01*
X169856290Y-105036330D01*
X169873008Y-105038531D01*
X170000000Y-105055250D01*
X170143709Y-105036330D01*
X170277625Y-104980861D01*
X170392621Y-104892621D01*
X170480861Y-104777625D01*
X170505576Y-104717955D01*
X170545312Y-104671430D01*
X170604807Y-104657146D01*
X170646538Y-104670103D01*
X170795819Y-104756290D01*
X170978181Y-104861576D01*
X171019122Y-104907046D01*
X171025518Y-104967896D01*
X171007223Y-105007580D01*
X170919139Y-105122374D01*
X170863669Y-105256290D01*
X170844750Y-105400000D01*
X170863669Y-105543709D01*
X170893310Y-105615268D01*
X170919139Y-105677625D01*
X170957450Y-105727552D01*
X171007378Y-105792621D01*
X171057306Y-105830932D01*
X171122375Y-105880861D01*
X171208817Y-105916666D01*
X171256290Y-105936330D01*
X171275209Y-105938820D01*
X171400000Y-105955250D01*
X171543709Y-105936330D01*
X171677625Y-105880861D01*
X171792621Y-105792621D01*
X171880861Y-105677625D01*
X171916824Y-105590799D01*
X171956558Y-105544278D01*
X171997202Y-105530311D01*
X172003521Y-105529598D01*
X172003527Y-105529600D01*
X172135481Y-105514732D01*
X172257191Y-105461631D01*
X172357842Y-105375014D01*
X172375135Y-105350642D01*
X172568201Y-105016242D01*
X172580661Y-104989080D01*
X172605348Y-104858605D01*
X172590480Y-104726651D01*
X172537379Y-104604941D01*
X172450762Y-104504290D01*
X172426390Y-104486997D01*
X172424399Y-104485847D01*
X172424392Y-104485843D01*
X172042030Y-104265086D01*
X172042015Y-104265078D01*
X172040028Y-104263931D01*
X172037937Y-104262972D01*
X172037922Y-104262964D01*
X172012865Y-104251470D01*
X171870617Y-104224556D01*
X171816956Y-104195160D01*
X171790821Y-104139837D01*
X171802196Y-104079718D01*
X171808453Y-104069962D01*
X171808021Y-104070581D01*
X171809528Y-104068287D01*
X171809573Y-104068216D01*
X171811296Y-104065899D01*
X172081159Y-103598479D01*
X172091199Y-103575262D01*
X172102854Y-103467566D01*
X172127911Y-103411750D01*
X172163395Y-103386755D01*
X172163813Y-103386582D01*
X172177625Y-103380861D01*
X172292621Y-103292621D01*
X172380861Y-103177625D01*
X172436330Y-103043709D01*
X172455250Y-102900000D01*
X172436330Y-102756291D01*
X172436329Y-102756289D01*
X172420083Y-102717067D01*
X172380861Y-102622375D01*
X172330713Y-102557021D01*
X172292621Y-102507378D01*
X172193417Y-102431257D01*
X172177625Y-102419139D01*
X172138401Y-102402892D01*
X172043709Y-102363669D01*
X171916717Y-102346951D01*
X171900000Y-102344750D01*
X171899999Y-102344750D01*
X171756290Y-102363669D01*
X171622375Y-102419139D01*
X171507378Y-102507378D01*
X171419139Y-102622375D01*
X171363669Y-102756289D01*
X171344085Y-102905046D01*
X171317744Y-102960271D01*
X171289180Y-102977265D01*
X171186055Y-103052677D01*
X171172679Y-103070675D01*
X171172669Y-103070689D01*
X171170968Y-103072979D01*
X171169539Y-103075452D01*
X171169535Y-103075460D01*
X170923286Y-103501978D01*
X170877816Y-103542919D01*
X170816966Y-103549315D01*
X170788049Y-103538215D01*
X170761148Y-103522684D01*
X170521114Y-103384101D01*
X170361517Y-103291958D01*
X170361512Y-103291955D01*
X170359050Y-103290534D01*
X170356444Y-103289407D01*
X170356438Y-103289404D01*
X170349261Y-103286300D01*
X170335833Y-103280494D01*
X170224138Y-103268406D01*
X170115620Y-103297482D01*
X170024933Y-103363799D01*
X170011557Y-103381797D01*
X170011547Y-103381811D01*
X170009846Y-103384101D01*
X170008417Y-103386574D01*
X170008413Y-103386582D01*
X169741407Y-103849053D01*
X169741400Y-103849064D01*
X169739983Y-103851521D01*
X169738859Y-103854119D01*
X169738853Y-103854132D01*
X169729943Y-103874739D01*
X169718142Y-103983776D01*
X169693083Y-104039594D01*
X169679985Y-104051664D01*
X169607379Y-104107377D01*
X169519139Y-104222375D01*
X169463669Y-104356290D01*
X169444750Y-104499999D01*
X169444750Y-104500000D01*
X168538943Y-104500000D01*
X169015858Y-103786246D01*
X169491296Y-103002750D01*
X169932105Y-102199260D01*
X170337447Y-101377307D01*
X170706551Y-100538456D01*
X171038712Y-99684304D01*
X171169166Y-99299999D01*
X171844750Y-99299999D01*
X171863669Y-99443709D01*
X171890959Y-99509591D01*
X171919139Y-99577625D01*
X171953476Y-99622374D01*
X172007378Y-99692621D01*
X172057306Y-99730932D01*
X172122375Y-99780861D01*
X172214850Y-99819165D01*
X172256290Y-99836330D01*
X172275209Y-99838820D01*
X172400000Y-99855250D01*
X172543709Y-99836330D01*
X172677625Y-99780861D01*
X172792621Y-99692621D01*
X172880861Y-99577625D01*
X172936330Y-99443709D01*
X172949665Y-99342415D01*
X172976006Y-99287192D01*
X173029776Y-99257997D01*
X173073438Y-99259711D01*
X173351390Y-99334188D01*
X173447890Y-99360045D01*
X173499204Y-99393369D01*
X173521131Y-99450491D01*
X173505295Y-99509591D01*
X173500809Y-99515939D01*
X173419139Y-99622374D01*
X173363669Y-99756290D01*
X173344750Y-99900000D01*
X173363669Y-100043709D01*
X173402892Y-100138401D01*
X173419139Y-100177625D01*
X173457450Y-100227552D01*
X173507378Y-100292621D01*
X173557306Y-100330932D01*
X173622375Y-100380861D01*
X173717067Y-100420083D01*
X173756290Y-100436330D01*
X173773008Y-100438531D01*
X173900000Y-100455250D01*
X174043709Y-100436330D01*
X174177625Y-100380861D01*
X174292621Y-100292621D01*
X174380861Y-100177625D01*
X174436330Y-100043709D01*
X174455250Y-99900000D01*
X174452528Y-99879325D01*
X174463678Y-99819165D01*
X174508060Y-99777048D01*
X174543283Y-99767681D01*
X174548518Y-99767288D01*
X174548520Y-99767289D01*
X174680939Y-99757366D01*
X174804549Y-99708852D01*
X174908368Y-99626059D01*
X174983171Y-99516344D01*
X174993567Y-99488326D01*
X175093505Y-99115352D01*
X175098511Y-99085890D01*
X175092387Y-99004170D01*
X175088587Y-98953470D01*
X175040073Y-98829861D01*
X174957281Y-98726043D01*
X174847565Y-98651239D01*
X174821709Y-98641645D01*
X174821694Y-98641640D01*
X174819548Y-98640844D01*
X174817331Y-98640250D01*
X174817325Y-98640248D01*
X174390853Y-98525975D01*
X174390850Y-98525974D01*
X174388617Y-98525376D01*
X174386341Y-98524989D01*
X174386335Y-98524988D01*
X174359153Y-98520370D01*
X174215494Y-98531136D01*
X174156053Y-98516630D01*
X174116491Y-98469956D01*
X174111919Y-98408942D01*
X174115748Y-98396921D01*
X174114645Y-98399957D01*
X174115540Y-98397251D01*
X174116596Y-98394587D01*
X174256287Y-97873249D01*
X174259976Y-97848224D01*
X174248187Y-97772281D01*
X174241247Y-97727569D01*
X174230896Y-97678875D01*
X174255781Y-97622979D01*
X174269087Y-97610679D01*
X174292621Y-97592621D01*
X174380861Y-97477625D01*
X174436330Y-97343709D01*
X174455250Y-97200000D01*
X174436330Y-97056291D01*
X174380861Y-96922375D01*
X174321297Y-96844750D01*
X174292621Y-96807378D01*
X174185930Y-96725512D01*
X174177625Y-96719139D01*
X174138401Y-96702892D01*
X174043709Y-96663669D01*
X173916717Y-96646951D01*
X173900000Y-96644750D01*
X173899999Y-96644750D01*
X173756290Y-96663669D01*
X173622375Y-96719139D01*
X173507378Y-96807378D01*
X173419139Y-96922375D01*
X173363669Y-97056290D01*
X173344750Y-97200000D01*
X173363669Y-97343708D01*
X173371145Y-97361755D01*
X173375946Y-97422752D01*
X173343977Y-97474921D01*
X173329184Y-97485376D01*
X173320852Y-97490186D01*
X173250419Y-97577713D01*
X173250418Y-97577714D01*
X173250419Y-97577714D01*
X173241100Y-97601229D01*
X173240362Y-97603981D01*
X173240360Y-97603989D01*
X173112891Y-98079714D01*
X173079567Y-98131028D01*
X173022445Y-98152955D01*
X172991641Y-98149718D01*
X172515904Y-98022245D01*
X172515894Y-98022243D01*
X172513155Y-98021509D01*
X172510343Y-98021094D01*
X172510336Y-98021093D01*
X172488128Y-98017819D01*
X172377114Y-98035051D01*
X172279817Y-98091227D01*
X172209385Y-98178753D01*
X172206595Y-98185793D01*
X172200066Y-98202269D01*
X172199328Y-98205021D01*
X172199326Y-98205029D01*
X172061111Y-98720857D01*
X172061108Y-98720870D01*
X172060375Y-98723607D01*
X172059961Y-98726415D01*
X172059959Y-98726425D01*
X172056685Y-98748633D01*
X172064454Y-98798677D01*
X172054697Y-98859079D01*
X172026896Y-98892402D01*
X172007378Y-98907379D01*
X171919138Y-99022375D01*
X171863669Y-99156290D01*
X171844750Y-99299999D01*
X171169166Y-99299999D01*
X171333300Y-98816475D01*
X171589754Y-97936623D01*
X171807585Y-97046422D01*
X171986378Y-96147567D01*
X172125794Y-95241768D01*
X172225567Y-94330750D01*
X172280017Y-93499999D01*
X172944750Y-93499999D01*
X172963669Y-93643709D01*
X172986986Y-93700000D01*
X173019139Y-93777625D01*
X173050811Y-93818900D01*
X173107378Y-93892621D01*
X173157306Y-93930932D01*
X173222375Y-93980861D01*
X173317067Y-94020083D01*
X173356290Y-94036330D01*
X173375209Y-94038820D01*
X173500000Y-94055250D01*
X173643709Y-94036330D01*
X173777625Y-93980861D01*
X173892621Y-93892621D01*
X173980861Y-93777625D01*
X174036330Y-93643709D01*
X174053726Y-93511574D01*
X174080066Y-93456352D01*
X174133836Y-93427157D01*
X174151868Y-93425499D01*
X174569681Y-93425499D01*
X174627872Y-93444406D01*
X174663836Y-93493906D01*
X174663836Y-93543166D01*
X174665371Y-93543369D01*
X174663836Y-93555028D01*
X174663836Y-93555092D01*
X174663823Y-93555127D01*
X174644750Y-93700000D01*
X174663669Y-93843709D01*
X174702892Y-93938401D01*
X174719139Y-93977625D01*
X174730646Y-93992621D01*
X174807378Y-94092621D01*
X174857306Y-94130932D01*
X174922375Y-94180861D01*
X175003371Y-94214410D01*
X175056290Y-94236330D01*
X175075209Y-94238820D01*
X175200000Y-94255250D01*
X175343709Y-94236330D01*
X175477625Y-94180861D01*
X175592621Y-94092621D01*
X175680861Y-93977625D01*
X175736330Y-93843709D01*
X175755250Y-93700000D01*
X175739121Y-93577493D01*
X175750271Y-93517335D01*
X175778483Y-93484920D01*
X175879999Y-93409999D01*
X175958852Y-93303157D01*
X176002710Y-93177819D01*
X176005500Y-93148066D01*
X176005500Y-92761934D01*
X176002710Y-92732181D01*
X175958852Y-92606843D01*
X175879999Y-92500001D01*
X175779905Y-92426128D01*
X175773156Y-92421147D01*
X175647821Y-92377290D01*
X175620362Y-92374715D01*
X175620355Y-92374714D01*
X175618066Y-92374500D01*
X175171934Y-92374500D01*
X175169645Y-92374714D01*
X175169637Y-92374715D01*
X175142178Y-92377290D01*
X175006533Y-92424755D01*
X174945363Y-92426128D01*
X174895068Y-92391284D01*
X174874860Y-92333533D01*
X174875725Y-92318088D01*
X174875005Y-92325557D01*
X174875168Y-92322719D01*
X174875500Y-92319865D01*
X174875499Y-91780136D01*
X174872585Y-91755009D01*
X174827206Y-91652235D01*
X174827205Y-91652234D01*
X174825826Y-91649110D01*
X174819618Y-91588240D01*
X174824925Y-91571241D01*
X174836330Y-91543709D01*
X174855250Y-91400000D01*
X174836330Y-91256291D01*
X174828419Y-91237193D01*
X174813014Y-91200000D01*
X174780861Y-91122375D01*
X174704284Y-91022578D01*
X174692621Y-91007378D01*
X174627552Y-90957450D01*
X174577625Y-90919139D01*
X174538401Y-90902892D01*
X174443709Y-90863669D01*
X174300000Y-90844750D01*
X174156290Y-90863669D01*
X174022375Y-90919139D01*
X173907378Y-91007378D01*
X173819139Y-91122375D01*
X173763669Y-91256290D01*
X173744750Y-91399999D01*
X173744750Y-91400000D01*
X173746406Y-91412578D01*
X173763669Y-91543710D01*
X173823475Y-91688095D01*
X173827555Y-91739948D01*
X173829141Y-91740132D01*
X173828204Y-91748200D01*
X173828275Y-91749092D01*
X173828010Y-91749875D01*
X173824830Y-91777285D01*
X173824829Y-91777296D01*
X173824500Y-91780135D01*
X173824500Y-91782991D01*
X173824500Y-91782999D01*
X173824500Y-92275500D01*
X173805593Y-92333691D01*
X173756093Y-92369655D01*
X173725500Y-92374500D01*
X173232991Y-92374500D01*
X173232973Y-92374500D01*
X173230136Y-92374501D01*
X173227313Y-92374828D01*
X173227302Y-92374829D01*
X173205009Y-92377415D01*
X173102235Y-92422793D01*
X173022793Y-92502235D01*
X172977414Y-92605010D01*
X172974830Y-92627285D01*
X172974829Y-92627296D01*
X172974500Y-92630135D01*
X172974500Y-92632998D01*
X172974500Y-92632999D01*
X172974500Y-93167008D01*
X172974500Y-93167025D01*
X172974501Y-93169864D01*
X172974828Y-93172688D01*
X172974829Y-93172696D01*
X172977415Y-93194993D01*
X172987688Y-93218259D01*
X172993895Y-93279128D01*
X172988588Y-93296128D01*
X172963669Y-93356289D01*
X172944750Y-93499999D01*
X172280017Y-93499999D01*
X172285506Y-93416247D01*
X172305499Y-92500000D01*
X172285506Y-91583753D01*
X172225567Y-90669250D01*
X172125794Y-89758232D01*
X171986378Y-88852433D01*
X171807585Y-87953578D01*
X171589754Y-87063377D01*
X171577811Y-87022402D01*
X172276682Y-87022402D01*
X172277437Y-87027523D01*
X172280371Y-87047428D01*
X172281107Y-87050176D01*
X172281108Y-87050179D01*
X172404846Y-87511975D01*
X172420064Y-87568766D01*
X172429382Y-87592282D01*
X172439539Y-87604905D01*
X172461290Y-87662092D01*
X172460563Y-87679891D01*
X172444750Y-87800000D01*
X172463669Y-87943709D01*
X172502892Y-88038401D01*
X172519139Y-88077625D01*
X172527276Y-88088229D01*
X172607378Y-88192621D01*
X172657306Y-88230932D01*
X172722375Y-88280861D01*
X172817067Y-88320083D01*
X172856290Y-88336330D01*
X172873008Y-88338531D01*
X173000000Y-88355250D01*
X173143709Y-88336330D01*
X173277625Y-88280861D01*
X173392621Y-88192621D01*
X173480861Y-88077625D01*
X173536330Y-87943709D01*
X173555250Y-87800000D01*
X173536330Y-87656291D01*
X173536330Y-87656289D01*
X173534054Y-87650795D01*
X173529253Y-87589799D01*
X173561223Y-87537630D01*
X173599892Y-87517284D01*
X174032846Y-87401274D01*
X174093947Y-87404477D01*
X174141497Y-87442982D01*
X174157333Y-87502082D01*
X174156622Y-87509823D01*
X174144750Y-87599999D01*
X174163669Y-87743709D01*
X174182857Y-87790032D01*
X174219139Y-87877625D01*
X174257450Y-87927552D01*
X174307378Y-87992621D01*
X174357306Y-88030932D01*
X174422375Y-88080861D01*
X174517067Y-88120083D01*
X174556290Y-88136330D01*
X174575209Y-88138820D01*
X174700000Y-88155250D01*
X174843709Y-88136330D01*
X174977625Y-88080861D01*
X175092621Y-87992621D01*
X175180861Y-87877625D01*
X175236330Y-87743709D01*
X175255250Y-87600000D01*
X175236330Y-87456291D01*
X175236329Y-87456289D01*
X175180861Y-87322375D01*
X175166943Y-87304237D01*
X175146519Y-87246562D01*
X175163896Y-87187896D01*
X175189713Y-87162175D01*
X175205747Y-87151244D01*
X175288539Y-87047425D01*
X175334288Y-86930861D01*
X175337053Y-86923816D01*
X175346977Y-86791397D01*
X175346977Y-86791396D01*
X175341971Y-86761935D01*
X175242033Y-86388961D01*
X175231637Y-86360943D01*
X175156834Y-86251228D01*
X175156831Y-86251226D01*
X175156831Y-86251225D01*
X175053015Y-86168434D01*
X174929405Y-86119920D01*
X174796988Y-86109997D01*
X174769806Y-86114615D01*
X174769795Y-86114617D01*
X174767525Y-86115003D01*
X174765296Y-86115600D01*
X174765288Y-86115602D01*
X174338816Y-86229875D01*
X174338803Y-86229878D01*
X174336594Y-86230471D01*
X174334454Y-86231264D01*
X174334432Y-86231272D01*
X174308576Y-86240866D01*
X174189754Y-86321879D01*
X174131024Y-86339038D01*
X174073425Y-86318398D01*
X174038957Y-86267845D01*
X174037038Y-86260139D01*
X174036708Y-86258547D01*
X174036291Y-86255714D01*
X173896598Y-85734376D01*
X173887280Y-85710860D01*
X173816847Y-85623333D01*
X173813583Y-85621448D01*
X173801795Y-85614642D01*
X173760856Y-85569171D01*
X173753145Y-85515986D01*
X173755250Y-85500000D01*
X173736330Y-85356291D01*
X173680861Y-85222375D01*
X173601645Y-85119139D01*
X173592621Y-85107378D01*
X173527552Y-85057450D01*
X173477625Y-85019139D01*
X173438401Y-85002892D01*
X173343709Y-84963669D01*
X173200000Y-84944750D01*
X173056290Y-84963669D01*
X172922375Y-85019139D01*
X172807378Y-85107378D01*
X172719139Y-85222375D01*
X172663669Y-85356290D01*
X172644750Y-85499999D01*
X172663669Y-85643709D01*
X172701225Y-85734376D01*
X172719139Y-85777625D01*
X172761190Y-85832426D01*
X172807379Y-85892622D01*
X172840119Y-85917745D01*
X172874774Y-85968169D01*
X172877793Y-85981848D01*
X172881411Y-86006394D01*
X172882147Y-86009142D01*
X172882148Y-86009145D01*
X173009621Y-86484880D01*
X173006418Y-86545981D01*
X172967913Y-86593531D01*
X172939617Y-86606130D01*
X172463892Y-86733601D01*
X172463880Y-86733604D01*
X172461133Y-86734341D01*
X172458483Y-86735390D01*
X172458474Y-86735394D01*
X172437618Y-86743658D01*
X172350089Y-86814092D01*
X172293915Y-86911388D01*
X172276682Y-87022402D01*
X171577811Y-87022402D01*
X171333300Y-86183525D01*
X171089018Y-85463894D01*
X171039060Y-85316721D01*
X171039059Y-85316718D01*
X171038712Y-85315696D01*
X171002422Y-85222375D01*
X170706938Y-84462539D01*
X170706936Y-84462536D01*
X170706551Y-84461544D01*
X170401684Y-83768682D01*
X170337883Y-83623683D01*
X170337876Y-83623668D01*
X170337447Y-83622693D01*
X169932105Y-82800740D01*
X169864561Y-82677624D01*
X169491807Y-81998182D01*
X169491802Y-81998173D01*
X169491296Y-81997251D01*
X169310731Y-81699690D01*
X170142855Y-81699690D01*
X170154942Y-81811381D01*
X170154942Y-81811383D01*
X170154943Y-81811384D01*
X170164981Y-81834601D01*
X170166414Y-81837083D01*
X170433418Y-82299546D01*
X170433423Y-82299553D01*
X170434847Y-82302020D01*
X170436545Y-82304305D01*
X170436547Y-82304308D01*
X170449934Y-82322323D01*
X170509347Y-82365770D01*
X170545158Y-82415381D01*
X170549063Y-82432761D01*
X170563669Y-82543709D01*
X170602892Y-82638401D01*
X170619139Y-82677625D01*
X170657450Y-82727552D01*
X170707378Y-82792621D01*
X170757306Y-82830932D01*
X170822375Y-82880861D01*
X170917067Y-82920083D01*
X170956290Y-82936330D01*
X170975209Y-82938820D01*
X171100000Y-82955250D01*
X171243709Y-82936330D01*
X171377625Y-82880861D01*
X171492621Y-82792621D01*
X171580861Y-82677625D01*
X171636330Y-82543709D01*
X171655250Y-82400000D01*
X171636330Y-82256291D01*
X171635898Y-82255249D01*
X171603746Y-82177625D01*
X171580861Y-82122375D01*
X171550238Y-82082466D01*
X171529814Y-82024790D01*
X171547192Y-81966124D01*
X171579277Y-81936465D01*
X171912488Y-81744084D01*
X171972335Y-81731363D01*
X172028231Y-81756250D01*
X172058824Y-81809238D01*
X172060140Y-81816898D01*
X172063670Y-81843709D01*
X172119139Y-81977625D01*
X172133500Y-81996340D01*
X172207378Y-82092621D01*
X172246155Y-82122375D01*
X172322375Y-82180861D01*
X172417067Y-82220083D01*
X172456290Y-82236330D01*
X172473008Y-82238531D01*
X172600000Y-82255250D01*
X172743709Y-82236330D01*
X172877625Y-82180861D01*
X172992621Y-82092621D01*
X173080861Y-81977625D01*
X173136330Y-81843709D01*
X173155250Y-81700000D01*
X173136330Y-81556291D01*
X173132937Y-81548100D01*
X173080862Y-81422377D01*
X173080861Y-81422376D01*
X173080861Y-81422375D01*
X173000166Y-81317213D01*
X172979744Y-81259540D01*
X172997121Y-81200874D01*
X173003667Y-81192376D01*
X173017379Y-81176443D01*
X173070480Y-81054733D01*
X173085348Y-80922779D01*
X173060661Y-80792304D01*
X173048201Y-80765142D01*
X173039638Y-80750311D01*
X172856288Y-80432739D01*
X172856287Y-80432738D01*
X172855135Y-80430742D01*
X172837842Y-80406370D01*
X172737191Y-80319753D01*
X172737190Y-80319752D01*
X172615481Y-80266652D01*
X172600189Y-80264929D01*
X172483527Y-80251784D01*
X172483526Y-80251784D01*
X172483525Y-80251784D01*
X172353052Y-80276470D01*
X172327995Y-80287964D01*
X172327971Y-80287976D01*
X172325890Y-80288931D01*
X172323910Y-80290073D01*
X172323887Y-80290086D01*
X171941525Y-80510843D01*
X171941508Y-80510853D01*
X171939528Y-80511997D01*
X171937653Y-80513327D01*
X171937652Y-80513328D01*
X171915155Y-80529291D01*
X171821044Y-80638649D01*
X171768755Y-80670423D01*
X171707777Y-80665393D01*
X171661400Y-80625483D01*
X171657550Y-80618532D01*
X171657304Y-80618042D01*
X171656161Y-80615399D01*
X171386295Y-80147980D01*
X171371208Y-80127677D01*
X171281114Y-80061794D01*
X171245304Y-80012184D01*
X171241400Y-79994803D01*
X171236330Y-79956290D01*
X171197748Y-79863145D01*
X171180861Y-79822375D01*
X171100425Y-79717549D01*
X171092621Y-79707378D01*
X171027552Y-79657450D01*
X170977625Y-79619139D01*
X170925340Y-79597482D01*
X170843709Y-79563669D01*
X170700000Y-79544750D01*
X170556290Y-79563669D01*
X170422375Y-79619139D01*
X170307378Y-79707378D01*
X170219139Y-79822375D01*
X170163669Y-79956290D01*
X170144750Y-80100000D01*
X170163669Y-80243709D01*
X170195168Y-80319753D01*
X170219139Y-80377625D01*
X170238864Y-80403331D01*
X170307378Y-80492621D01*
X170428229Y-80585353D01*
X170462885Y-80635777D01*
X170465550Y-80649072D01*
X170466065Y-80650262D01*
X170476103Y-80673479D01*
X170477536Y-80675961D01*
X170723786Y-81102477D01*
X170736508Y-81162325D01*
X170711621Y-81218221D01*
X170687550Y-81237713D01*
X170261024Y-81483969D01*
X170261008Y-81483978D01*
X170258551Y-81485398D01*
X170256272Y-81487090D01*
X170256262Y-81487098D01*
X170238248Y-81500484D01*
X170171931Y-81591171D01*
X170142855Y-81699690D01*
X169310731Y-81699690D01*
X169015858Y-81213754D01*
X168981494Y-81162325D01*
X168507302Y-80452646D01*
X168507295Y-80452636D01*
X168506697Y-80451741D01*
X168506074Y-80450892D01*
X168506064Y-80450877D01*
X167965401Y-79713504D01*
X167965387Y-79713485D01*
X167964783Y-79712662D01*
X167964138Y-79711858D01*
X167964127Y-79711844D01*
X167391836Y-78998786D01*
X167391146Y-78997926D01*
X167366863Y-78970236D01*
X166787587Y-78309699D01*
X166787577Y-78309688D01*
X166786878Y-78308891D01*
X166153131Y-77646869D01*
X165491109Y-77013122D01*
X165490313Y-77012424D01*
X165490300Y-77012412D01*
X164802909Y-76409586D01*
X164802901Y-76409579D01*
X164802074Y-76408854D01*
X164666684Y-76300192D01*
X164088155Y-75835872D01*
X164088134Y-75835856D01*
X164087338Y-75835217D01*
X164086520Y-75834617D01*
X164086495Y-75834598D01*
X163630158Y-75499999D01*
X166344750Y-75499999D01*
X166363669Y-75643709D01*
X166400897Y-75733585D01*
X166419139Y-75777625D01*
X166507379Y-75892621D01*
X166622375Y-75980861D01*
X166622376Y-75980861D01*
X166622377Y-75980862D01*
X166676841Y-76003422D01*
X166723367Y-76043158D01*
X166731271Y-76059123D01*
X166745973Y-76097073D01*
X166756788Y-76124989D01*
X166772494Y-76144817D01*
X166954704Y-76327027D01*
X167122770Y-76495092D01*
X167150548Y-76549609D01*
X167140977Y-76610041D01*
X167122771Y-76635099D01*
X166774517Y-76983354D01*
X166774508Y-76983363D01*
X166772495Y-76985377D01*
X166770724Y-76987611D01*
X166770712Y-76987626D01*
X166756789Y-77005202D01*
X166756787Y-77005205D01*
X166756788Y-77005205D01*
X166716204Y-77109965D01*
X166716204Y-77222311D01*
X166756788Y-77327071D01*
X166772494Y-77346899D01*
X167154141Y-77728545D01*
X167163066Y-77735615D01*
X167173969Y-77744253D01*
X167199962Y-77754322D01*
X167247394Y-77792972D01*
X167262354Y-77833715D01*
X167263669Y-77843709D01*
X167282843Y-77889998D01*
X167319139Y-77977625D01*
X167357450Y-78027552D01*
X167407378Y-78092621D01*
X167450411Y-78125641D01*
X167522375Y-78180861D01*
X167617067Y-78220083D01*
X167656290Y-78236330D01*
X167673008Y-78238531D01*
X167800000Y-78255250D01*
X167943709Y-78236330D01*
X168077625Y-78180861D01*
X168192621Y-78092621D01*
X168280861Y-77977625D01*
X168336330Y-77843709D01*
X168355250Y-77700000D01*
X168336330Y-77556291D01*
X168280861Y-77422375D01*
X168207731Y-77327071D01*
X168192622Y-77307380D01*
X168137447Y-77265042D01*
X168102792Y-77214617D01*
X168104394Y-77153453D01*
X168127709Y-77116499D01*
X168473081Y-76771126D01*
X168527596Y-76743350D01*
X168588028Y-76752921D01*
X168621623Y-76780862D01*
X168653477Y-76822375D01*
X168707378Y-76892621D01*
X168757306Y-76930932D01*
X168822375Y-76980861D01*
X168902043Y-77013860D01*
X168956290Y-77036330D01*
X168975209Y-77038820D01*
X169100000Y-77055250D01*
X169243709Y-77036330D01*
X169377625Y-76980861D01*
X169492621Y-76892621D01*
X169580861Y-76777625D01*
X169636330Y-76643709D01*
X169655250Y-76500000D01*
X169636330Y-76356291D01*
X169580861Y-76222375D01*
X169530932Y-76157306D01*
X169492621Y-76107378D01*
X169399213Y-76035704D01*
X169364557Y-75985280D01*
X169361586Y-75942410D01*
X169376975Y-75840312D01*
X169357184Y-75709006D01*
X169299569Y-75589366D01*
X169280503Y-75566355D01*
X169007466Y-75293318D01*
X168987712Y-75276951D01*
X168984454Y-75274251D01*
X168922429Y-75244382D01*
X168864815Y-75216637D01*
X168847615Y-75214044D01*
X168733509Y-75196845D01*
X168602203Y-75216637D01*
X168482563Y-75274251D01*
X168461332Y-75291842D01*
X168461317Y-75291854D01*
X168459552Y-75293318D01*
X168457933Y-75294936D01*
X168457922Y-75294947D01*
X168145718Y-75607151D01*
X168145707Y-75607162D01*
X168144089Y-75608781D01*
X168142625Y-75610546D01*
X168142613Y-75610561D01*
X168125022Y-75631792D01*
X168062079Y-75762498D01*
X168019797Y-75806723D01*
X167959595Y-75817648D01*
X167904468Y-75791101D01*
X167899035Y-75785472D01*
X167897310Y-75783295D01*
X167515663Y-75401649D01*
X167513419Y-75399871D01*
X167513413Y-75399866D01*
X167495837Y-75385943D01*
X167495835Y-75385942D01*
X167479076Y-75379449D01*
X167431647Y-75340799D01*
X167423380Y-75325027D01*
X167380861Y-75222375D01*
X167341061Y-75170507D01*
X167292621Y-75107378D01*
X167203654Y-75039112D01*
X167177625Y-75019139D01*
X167138401Y-75002892D01*
X167043709Y-74963669D01*
X166900000Y-74944750D01*
X166756290Y-74963669D01*
X166622375Y-75019139D01*
X166507378Y-75107378D01*
X166419139Y-75222375D01*
X166363669Y-75356290D01*
X166344750Y-75499999D01*
X163630158Y-75499999D01*
X163349122Y-75293935D01*
X163349098Y-75293918D01*
X163348259Y-75293303D01*
X163347372Y-75292710D01*
X163347353Y-75292697D01*
X162587187Y-74784770D01*
X162587163Y-74784754D01*
X162586246Y-74784142D01*
X161881169Y-74356290D01*
X161803660Y-74309256D01*
X161803653Y-74309252D01*
X161802750Y-74308704D01*
X161510904Y-74148592D01*
X161000215Y-73868418D01*
X161000182Y-73868401D01*
X160999260Y-73867895D01*
X160998277Y-73867410D01*
X160178285Y-73463035D01*
X160178273Y-73463029D01*
X160177307Y-73462553D01*
X160176351Y-73462132D01*
X160176316Y-73462116D01*
X159339431Y-73093878D01*
X159339430Y-73093877D01*
X159338456Y-73093449D01*
X159337486Y-73093071D01*
X159337460Y-73093061D01*
X158485306Y-72761677D01*
X158485279Y-72761667D01*
X158484304Y-72761288D01*
X158483307Y-72760949D01*
X158483278Y-72760939D01*
X157617502Y-72467048D01*
X157617476Y-72467039D01*
X157616475Y-72466700D01*
X157615468Y-72466406D01*
X157615438Y-72466397D01*
X156737661Y-72210548D01*
X156737637Y-72210541D01*
X156736623Y-72210246D01*
X156735587Y-72209992D01*
X156735574Y-72209989D01*
X155847473Y-71992672D01*
X155847465Y-71992670D01*
X155846422Y-71992415D01*
X155845368Y-71992205D01*
X155845362Y-71992204D01*
X154948599Y-71813827D01*
X154948586Y-71813824D01*
X154947567Y-71813622D01*
X154946536Y-71813463D01*
X154946523Y-71813461D01*
X154042812Y-71674366D01*
X154042781Y-71674361D01*
X154041768Y-71674206D01*
X154040748Y-71674094D01*
X154040723Y-71674091D01*
X153131800Y-71574548D01*
X153130750Y-71574433D01*
X153129693Y-71574363D01*
X153129685Y-71574363D01*
X152217322Y-71514564D01*
X152217301Y-71514563D01*
X152216247Y-71514494D01*
X152215172Y-71514470D01*
X152215160Y-71514470D01*
X151301100Y-71494525D01*
X151300000Y-71494501D01*
X151298900Y-71494525D01*
X150384839Y-71514470D01*
X150384825Y-71514470D01*
X150383753Y-71514494D01*
X150382700Y-71514562D01*
X150382677Y-71514564D01*
X149470314Y-71574363D01*
X149470302Y-71574364D01*
X149469250Y-71574433D01*
X149468203Y-71574547D01*
X149468199Y-71574548D01*
X148559276Y-71674091D01*
X148559246Y-71674094D01*
X148558232Y-71674206D01*
X148557224Y-71674361D01*
X148557187Y-71674366D01*
X147653476Y-71813461D01*
X147653455Y-71813464D01*
X147652433Y-71813622D01*
X147651421Y-71813823D01*
X147651400Y-71813827D01*
X146754637Y-71992204D01*
X146754621Y-71992207D01*
X146753578Y-71992415D01*
X146752544Y-71992667D01*
X146752526Y-71992672D01*
X146317949Y-72099012D01*
X146256932Y-72094477D01*
X146210233Y-72054944D01*
X146195690Y-71995512D01*
X146218857Y-71938884D01*
X146254401Y-71897065D01*
X146345084Y-71739742D01*
X146405870Y-71568630D01*
X146405870Y-71568627D01*
X146408870Y-71560184D01*
X146410634Y-71560810D01*
X146433496Y-71516333D01*
X146477629Y-71490957D01*
X146518766Y-71479935D01*
X146542282Y-71470617D01*
X146629809Y-71400184D01*
X146685983Y-71302889D01*
X146703216Y-71191872D01*
X146699528Y-71166848D01*
X146599119Y-70792118D01*
X147924500Y-70792118D01*
X147924850Y-70795035D01*
X147924851Y-70795046D01*
X147931205Y-70847953D01*
X147934883Y-70878577D01*
X147987593Y-71012239D01*
X147989138Y-71016158D01*
X148078499Y-71134000D01*
X148154816Y-71191872D01*
X148196342Y-71223362D01*
X148333923Y-71277617D01*
X148420382Y-71288000D01*
X148423334Y-71288000D01*
X148976666Y-71288000D01*
X148979618Y-71288000D01*
X149066077Y-71277617D01*
X149203658Y-71223362D01*
X149321500Y-71134000D01*
X149410862Y-71016158D01*
X149465117Y-70878577D01*
X149475500Y-70792118D01*
X149475500Y-70639734D01*
X149494407Y-70581543D01*
X149536705Y-70548232D01*
X150668228Y-70080863D01*
X150717430Y-70074026D01*
X150730135Y-70075500D01*
X151225500Y-70075499D01*
X151283691Y-70094406D01*
X151319655Y-70143906D01*
X151324500Y-70174499D01*
X151324500Y-70667008D01*
X151324500Y-70667025D01*
X151324501Y-70669864D01*
X151324828Y-70672687D01*
X151324829Y-70672697D01*
X151325311Y-70676850D01*
X151327415Y-70694991D01*
X151332885Y-70707379D01*
X151372793Y-70797764D01*
X151372794Y-70797765D01*
X151452235Y-70877206D01*
X151555009Y-70922585D01*
X151580135Y-70925500D01*
X152119864Y-70925499D01*
X152122702Y-70925169D01*
X152125416Y-70925013D01*
X152184601Y-70940531D01*
X152208629Y-70969260D01*
X152211205Y-70967285D01*
X152307378Y-71092621D01*
X152357306Y-71130932D01*
X152422375Y-71180861D01*
X152517067Y-71220083D01*
X152556290Y-71236330D01*
X152573008Y-71238531D01*
X152700000Y-71255250D01*
X152843709Y-71236330D01*
X152977625Y-71180861D01*
X153092621Y-71092621D01*
X153180861Y-70977625D01*
X153236330Y-70843709D01*
X153255250Y-70700000D01*
X153238531Y-70573008D01*
X153236330Y-70556290D01*
X153208101Y-70488139D01*
X153180861Y-70422375D01*
X153122111Y-70345811D01*
X153092621Y-70307378D01*
X153009645Y-70243709D01*
X152977625Y-70219139D01*
X152930125Y-70199464D01*
X152843709Y-70163669D01*
X152700000Y-70144750D01*
X152556289Y-70163670D01*
X152508617Y-70183415D01*
X152447620Y-70188214D01*
X152395452Y-70156243D01*
X152379015Y-70118544D01*
X152378635Y-70118712D01*
X152370373Y-70100000D01*
X155644750Y-70100000D01*
X155646951Y-70116717D01*
X155663669Y-70243709D01*
X155692708Y-70313815D01*
X155719139Y-70377625D01*
X155728737Y-70390133D01*
X155807378Y-70492621D01*
X155857306Y-70530932D01*
X155922375Y-70580861D01*
X155999909Y-70612976D01*
X156056290Y-70636330D01*
X156073008Y-70638531D01*
X156200000Y-70655250D01*
X156343709Y-70636330D01*
X156400091Y-70612975D01*
X156461085Y-70608175D01*
X156500040Y-70627311D01*
X156527714Y-70649580D01*
X156551229Y-70658899D01*
X157029715Y-70787108D01*
X157081028Y-70820431D01*
X157102955Y-70877552D01*
X157099718Y-70908357D01*
X156972245Y-71384094D01*
X156972242Y-71384107D01*
X156971509Y-71386844D01*
X156971095Y-71389652D01*
X156971093Y-71389662D01*
X156967819Y-71411870D01*
X156985051Y-71522884D01*
X157018525Y-71580861D01*
X157041227Y-71620181D01*
X157128754Y-71690614D01*
X157152269Y-71699933D01*
X157673607Y-71839624D01*
X157698632Y-71843313D01*
X157793354Y-71828609D01*
X157853755Y-71838366D01*
X157887080Y-71866169D01*
X157907377Y-71892620D01*
X157941784Y-71919021D01*
X158022375Y-71980861D01*
X158114788Y-72019139D01*
X158156290Y-72036330D01*
X158175209Y-72038820D01*
X158300000Y-72055250D01*
X158443709Y-72036330D01*
X158531419Y-72000000D01*
X161344750Y-72000000D01*
X161363669Y-72143709D01*
X161400108Y-72231680D01*
X161419139Y-72277625D01*
X161447051Y-72314000D01*
X161507378Y-72392621D01*
X161557306Y-72430932D01*
X161622375Y-72480861D01*
X161717067Y-72520083D01*
X161756290Y-72536330D01*
X161772507Y-72538464D01*
X161853217Y-72549090D01*
X161908442Y-72575430D01*
X161935921Y-72621618D01*
X161936359Y-72623254D01*
X161936360Y-72623256D01*
X161936361Y-72623257D01*
X162002677Y-72713942D01*
X162002677Y-72713943D01*
X162009668Y-72719139D01*
X162022979Y-72729031D01*
X162269076Y-72871114D01*
X162451978Y-72976712D01*
X162492919Y-73022182D01*
X162499315Y-73083032D01*
X162488215Y-73111949D01*
X162241958Y-73538481D01*
X162241951Y-73538492D01*
X162240534Y-73540949D01*
X162239410Y-73543547D01*
X162239404Y-73543560D01*
X162233397Y-73557451D01*
X162230494Y-73564166D01*
X162218406Y-73675861D01*
X162219746Y-73680861D01*
X162247482Y-73784378D01*
X162258752Y-73799789D01*
X162313799Y-73875065D01*
X162334101Y-73890153D01*
X162801521Y-74160016D01*
X162820391Y-74168176D01*
X162838488Y-74176002D01*
X162837644Y-74177951D01*
X162874387Y-74194445D01*
X162899382Y-74229928D01*
X162919139Y-74277625D01*
X162946974Y-74313900D01*
X163007378Y-74392621D01*
X163032621Y-74411990D01*
X163122375Y-74480861D01*
X163212096Y-74518024D01*
X163256290Y-74536330D01*
X163267563Y-74537814D01*
X163400000Y-74555250D01*
X163543709Y-74536330D01*
X163677625Y-74480861D01*
X163792621Y-74392621D01*
X163880861Y-74277625D01*
X163936330Y-74143709D01*
X163955250Y-74000000D01*
X163936330Y-73856291D01*
X163932914Y-73848045D01*
X163912926Y-73799789D01*
X163880861Y-73722375D01*
X163816865Y-73638974D01*
X163792621Y-73607378D01*
X163677626Y-73519139D01*
X163609736Y-73491019D01*
X163563211Y-73451282D01*
X163548927Y-73391788D01*
X163568163Y-73340502D01*
X163574013Y-73332630D01*
X163575725Y-73330327D01*
X163831183Y-72887856D01*
X163876652Y-72846917D01*
X163937502Y-72840521D01*
X163990490Y-72871114D01*
X163995460Y-72877090D01*
X164007377Y-72892620D01*
X164008910Y-72893796D01*
X164122375Y-72980861D01*
X164206635Y-73015762D01*
X164256290Y-73036330D01*
X164273008Y-73038531D01*
X164400000Y-73055250D01*
X164543709Y-73036330D01*
X164677625Y-72980861D01*
X164792621Y-72892621D01*
X164880861Y-72777625D01*
X164936330Y-72643709D01*
X164955250Y-72500000D01*
X164936330Y-72356291D01*
X164927997Y-72336174D01*
X164918813Y-72314000D01*
X164880861Y-72222375D01*
X164820498Y-72143709D01*
X164792621Y-72107378D01*
X164727552Y-72057450D01*
X164677625Y-72019139D01*
X164607886Y-71990252D01*
X164533703Y-71959525D01*
X164487177Y-71919789D01*
X164473211Y-71879149D01*
X164459732Y-71759518D01*
X164406631Y-71637808D01*
X164320014Y-71537157D01*
X164295642Y-71519864D01*
X164293651Y-71518714D01*
X164293644Y-71518710D01*
X163963244Y-71327953D01*
X163963229Y-71327945D01*
X163961242Y-71326798D01*
X163959151Y-71325839D01*
X163959136Y-71325831D01*
X163934079Y-71314337D01*
X163803606Y-71289651D01*
X163803605Y-71289651D01*
X163737628Y-71297084D01*
X163671650Y-71304519D01*
X163549941Y-71357619D01*
X163486902Y-71411869D01*
X163449290Y-71444237D01*
X163431997Y-71468609D01*
X163430853Y-71470589D01*
X163430843Y-71470606D01*
X163210086Y-71852968D01*
X163210073Y-71852991D01*
X163208931Y-71854971D01*
X163207976Y-71857052D01*
X163207964Y-71857076D01*
X163196470Y-71882133D01*
X163169301Y-72025727D01*
X163139905Y-72079389D01*
X163084582Y-72105523D01*
X163024463Y-72094148D01*
X163017983Y-72090251D01*
X163015899Y-72088703D01*
X162982463Y-72069399D01*
X162550946Y-71820264D01*
X162550941Y-71820261D01*
X162548479Y-71818840D01*
X162545873Y-71817713D01*
X162545867Y-71817710D01*
X162525260Y-71808799D01*
X162469911Y-71802809D01*
X162414093Y-71777750D01*
X162389101Y-71742269D01*
X162388055Y-71739744D01*
X162380861Y-71722375D01*
X162344022Y-71674366D01*
X162292621Y-71607378D01*
X162209564Y-71543647D01*
X162177625Y-71519139D01*
X162118143Y-71494501D01*
X162043709Y-71463669D01*
X161916717Y-71446951D01*
X161900000Y-71444750D01*
X161899999Y-71444750D01*
X161756290Y-71463669D01*
X161622375Y-71519139D01*
X161507378Y-71607378D01*
X161419139Y-71722375D01*
X161363669Y-71856290D01*
X161344750Y-72000000D01*
X158531419Y-72000000D01*
X158577625Y-71980861D01*
X158692621Y-71892621D01*
X158780861Y-71777625D01*
X158836330Y-71643709D01*
X158855250Y-71500000D01*
X158836330Y-71356291D01*
X158830665Y-71342615D01*
X158808043Y-71288000D01*
X158780861Y-71222375D01*
X158713048Y-71134000D01*
X158692621Y-71107378D01*
X158614716Y-71047600D01*
X158577625Y-71019139D01*
X158538401Y-71002892D01*
X158443709Y-70963669D01*
X158294121Y-70943976D01*
X158238896Y-70917635D01*
X158209701Y-70863864D01*
X158211416Y-70820200D01*
X158218827Y-70792543D01*
X158333351Y-70365126D01*
X158366674Y-70313815D01*
X158423795Y-70291888D01*
X158466862Y-70299288D01*
X158556290Y-70336330D01*
X158575209Y-70338820D01*
X158700000Y-70355250D01*
X158843709Y-70336330D01*
X158977625Y-70280861D01*
X159092621Y-70192621D01*
X159180861Y-70077625D01*
X159236330Y-69943709D01*
X159255250Y-69800000D01*
X159236330Y-69656291D01*
X159236010Y-69655519D01*
X159214862Y-69604462D01*
X159180861Y-69522375D01*
X159127333Y-69452616D01*
X159092621Y-69407378D01*
X159027552Y-69357450D01*
X158977625Y-69319139D01*
X158923901Y-69296886D01*
X158843709Y-69263669D01*
X158773093Y-69254372D01*
X158717868Y-69228030D01*
X158693862Y-69192392D01*
X158653852Y-69090450D01*
X158653851Y-69090448D01*
X158653850Y-69090446D01*
X158571061Y-68986633D01*
X158571060Y-68986632D01*
X158571059Y-68986631D01*
X158461344Y-68911828D01*
X158461342Y-68911827D01*
X158435483Y-68902232D01*
X158435476Y-68902229D01*
X158433326Y-68901432D01*
X158431116Y-68900839D01*
X158431104Y-68900836D01*
X158062572Y-68802088D01*
X158062554Y-68802084D01*
X158060352Y-68801494D01*
X158058083Y-68801108D01*
X158058081Y-68801108D01*
X158030889Y-68796487D01*
X157898470Y-68806411D01*
X157774861Y-68854925D01*
X157671043Y-68937717D01*
X157596239Y-69047433D01*
X157586645Y-69073289D01*
X157586637Y-69073311D01*
X157585844Y-69075451D01*
X157585251Y-69077660D01*
X157585248Y-69077673D01*
X157472856Y-69497126D01*
X157470376Y-69506382D01*
X157469990Y-69508652D01*
X157469988Y-69508663D01*
X157465370Y-69535845D01*
X157476386Y-69682844D01*
X157461880Y-69742285D01*
X157415206Y-69781847D01*
X157354192Y-69786419D01*
X157346968Y-69784346D01*
X157344587Y-69783403D01*
X157322221Y-69777410D01*
X156825998Y-69644448D01*
X156825988Y-69644446D01*
X156823249Y-69643712D01*
X156820437Y-69643297D01*
X156820430Y-69643296D01*
X156798222Y-69640022D01*
X156687207Y-69657255D01*
X156653243Y-69676864D01*
X156593395Y-69689585D01*
X156543477Y-69669669D01*
X156477624Y-69619138D01*
X156343709Y-69563669D01*
X156200000Y-69544750D01*
X156056290Y-69563669D01*
X155922375Y-69619139D01*
X155807378Y-69707378D01*
X155719139Y-69822375D01*
X155663669Y-69956290D01*
X155647269Y-70080864D01*
X155644750Y-70100000D01*
X152370373Y-70100000D01*
X152332835Y-70014985D01*
X152326628Y-69954118D01*
X152332834Y-69935017D01*
X152372585Y-69844991D01*
X152375500Y-69819865D01*
X152375499Y-69280136D01*
X152372585Y-69255009D01*
X152367119Y-69242629D01*
X152360911Y-69181760D01*
X152391668Y-69128866D01*
X152447640Y-69104153D01*
X152495566Y-69111177D01*
X152556291Y-69136330D01*
X152700000Y-69155250D01*
X152843709Y-69136330D01*
X152977625Y-69080861D01*
X153092621Y-68992621D01*
X153154364Y-68912155D01*
X153204786Y-68877502D01*
X153265950Y-68879103D01*
X153269198Y-68880318D01*
X153293436Y-68889877D01*
X153381898Y-68900500D01*
X153384850Y-68900500D01*
X154415150Y-68900500D01*
X154418102Y-68900500D01*
X154506564Y-68889877D01*
X154647342Y-68834361D01*
X154767922Y-68742922D01*
X154859361Y-68622342D01*
X154914877Y-68481564D01*
X154925500Y-68393102D01*
X154925500Y-67806898D01*
X154914877Y-67718436D01*
X154859361Y-67577658D01*
X154859360Y-67577657D01*
X154859360Y-67577656D01*
X154767922Y-67457077D01*
X154647343Y-67365639D01*
X154617862Y-67354013D01*
X154586374Y-67341596D01*
X154539178Y-67302660D01*
X154523881Y-67243418D01*
X154546327Y-67186498D01*
X154597943Y-67153643D01*
X154622694Y-67150499D01*
X154792009Y-67150499D01*
X154794864Y-67150499D01*
X154819991Y-67147585D01*
X154922765Y-67102206D01*
X155002206Y-67022765D01*
X155047585Y-66919991D01*
X155050500Y-66894865D01*
X155050499Y-65105136D01*
X155047585Y-65080009D01*
X155002206Y-64977235D01*
X154922765Y-64897794D01*
X154922765Y-64897793D01*
X154922764Y-64897793D01*
X154819989Y-64852414D01*
X154797714Y-64849830D01*
X154797704Y-64849829D01*
X154794865Y-64849500D01*
X154792000Y-64849500D01*
X153007991Y-64849500D01*
X153007973Y-64849500D01*
X153005136Y-64849501D01*
X153002313Y-64849828D01*
X153002302Y-64849829D01*
X152980009Y-64852415D01*
X152877235Y-64897793D01*
X152797793Y-64977235D01*
X152752414Y-65080010D01*
X152749830Y-65102285D01*
X152749829Y-65102296D01*
X152749500Y-65105135D01*
X152749500Y-65107991D01*
X152749500Y-65107999D01*
X152749500Y-66892008D01*
X152749500Y-66892025D01*
X152749501Y-66894864D01*
X152749828Y-66897687D01*
X152749829Y-66897697D01*
X152751961Y-66916081D01*
X152752415Y-66919991D01*
X152772451Y-66965368D01*
X152797793Y-67022764D01*
X152797794Y-67022765D01*
X152877235Y-67102206D01*
X152980009Y-67147585D01*
X153005135Y-67150500D01*
X153177304Y-67150499D01*
X153235494Y-67169406D01*
X153271458Y-67218906D01*
X153271459Y-67280091D01*
X153235495Y-67329591D01*
X153213623Y-67341596D01*
X153152659Y-67365637D01*
X153032077Y-67457077D01*
X152940639Y-67577656D01*
X152885122Y-67718437D01*
X152874851Y-67803969D01*
X152874850Y-67803981D01*
X152874500Y-67806898D01*
X152874500Y-67809849D01*
X152874500Y-67954835D01*
X152855593Y-68013026D01*
X152806093Y-68048990D01*
X152762579Y-68052988D01*
X152700000Y-68044750D01*
X152556291Y-68063669D01*
X152501186Y-68086494D01*
X152440189Y-68091293D01*
X152388021Y-68059323D01*
X152383647Y-68053818D01*
X152354999Y-68015001D01*
X152269145Y-67951638D01*
X152248156Y-67936147D01*
X152122821Y-67892290D01*
X152095362Y-67889715D01*
X152095355Y-67889714D01*
X152093066Y-67889500D01*
X151706934Y-67889500D01*
X151704645Y-67889714D01*
X151704637Y-67889715D01*
X151677178Y-67892290D01*
X151551843Y-67936147D01*
X151445001Y-68015001D01*
X151366147Y-68121843D01*
X151322290Y-68247178D01*
X151322290Y-68247181D01*
X151319500Y-68276934D01*
X151319500Y-68723066D01*
X151319714Y-68725355D01*
X151319715Y-68725362D01*
X151322290Y-68752821D01*
X151371076Y-68892241D01*
X151366896Y-68893703D01*
X151377408Y-68925291D01*
X151358914Y-68983615D01*
X151309670Y-69019929D01*
X151272698Y-69024828D01*
X151269865Y-69024500D01*
X151267005Y-69024500D01*
X150732991Y-69024500D01*
X150732973Y-69024500D01*
X150730136Y-69024501D01*
X150727313Y-69024828D01*
X150727302Y-69024829D01*
X150705009Y-69027415D01*
X150602235Y-69072793D01*
X150522793Y-69152235D01*
X150477414Y-69255010D01*
X150474830Y-69277285D01*
X150474829Y-69277296D01*
X150474500Y-69280135D01*
X150474500Y-69282991D01*
X150474500Y-69282999D01*
X150474500Y-69307004D01*
X150455593Y-69365195D01*
X150413294Y-69398506D01*
X149359804Y-69833642D01*
X149298803Y-69838381D01*
X149262191Y-69821024D01*
X149203658Y-69776638D01*
X149159370Y-69759173D01*
X149066077Y-69722383D01*
X149052670Y-69720773D01*
X148982546Y-69712351D01*
X148982535Y-69712350D01*
X148979618Y-69712000D01*
X148420382Y-69712000D01*
X148417465Y-69712350D01*
X148417453Y-69712351D01*
X148333923Y-69722383D01*
X148196341Y-69776638D01*
X148078499Y-69865999D01*
X147989138Y-69983841D01*
X147934883Y-70121423D01*
X147924851Y-70204953D01*
X147924850Y-70204965D01*
X147924500Y-70207882D01*
X147924500Y-70792118D01*
X146599119Y-70792118D01*
X146559835Y-70645510D01*
X146550517Y-70621994D01*
X146488822Y-70545325D01*
X146467072Y-70488139D01*
X146468124Y-70468076D01*
X146475219Y-70422375D01*
X146483219Y-70370835D01*
X146479531Y-70345811D01*
X146339838Y-69824473D01*
X146330520Y-69800957D01*
X146260087Y-69713430D01*
X146255497Y-69710780D01*
X146214558Y-69665312D01*
X146208162Y-69604462D01*
X146227594Y-69563324D01*
X146229279Y-69561211D01*
X146280340Y-69527505D01*
X146341464Y-69530249D01*
X146344522Y-69531455D01*
X146356291Y-69536330D01*
X146500000Y-69555250D01*
X146643709Y-69536330D01*
X146777625Y-69480861D01*
X146892621Y-69392621D01*
X146980861Y-69277625D01*
X147036330Y-69143709D01*
X147055250Y-69000000D01*
X147050921Y-68967118D01*
X147924500Y-68967118D01*
X147924850Y-68970035D01*
X147924851Y-68970046D01*
X147931741Y-69027415D01*
X147934883Y-69053577D01*
X147964024Y-69127474D01*
X147989138Y-69191158D01*
X148078499Y-69309000D01*
X148153219Y-69365661D01*
X148196342Y-69398362D01*
X148333923Y-69452617D01*
X148420382Y-69463000D01*
X148423334Y-69463000D01*
X148976666Y-69463000D01*
X148979618Y-69463000D01*
X149066077Y-69452617D01*
X149203658Y-69398362D01*
X149321500Y-69309000D01*
X149410862Y-69191158D01*
X149460862Y-69064364D01*
X149499798Y-69017169D01*
X149559040Y-69001872D01*
X149590840Y-69009220D01*
X149656291Y-69036330D01*
X149800000Y-69055250D01*
X149943709Y-69036330D01*
X150077625Y-68980861D01*
X150192621Y-68892621D01*
X150280861Y-68777625D01*
X150336330Y-68643709D01*
X150355250Y-68500000D01*
X150336330Y-68356291D01*
X150328475Y-68337328D01*
X150304417Y-68279245D01*
X150280861Y-68222375D01*
X150199337Y-68116131D01*
X150192621Y-68107378D01*
X150116527Y-68048990D01*
X150077625Y-68019139D01*
X150014017Y-67992792D01*
X149943709Y-67963669D01*
X149800000Y-67944750D01*
X149656290Y-67963669D01*
X149522375Y-68019138D01*
X149463899Y-68064008D01*
X149406223Y-68084431D01*
X149347558Y-68067053D01*
X149324749Y-68045284D01*
X149321500Y-68040999D01*
X149203658Y-67951638D01*
X149164378Y-67936148D01*
X149066077Y-67897383D01*
X149052670Y-67895773D01*
X148982546Y-67887351D01*
X148982535Y-67887350D01*
X148979618Y-67887000D01*
X148420382Y-67887000D01*
X148417465Y-67887350D01*
X148417453Y-67887351D01*
X148333923Y-67897383D01*
X148196341Y-67951638D01*
X148078499Y-68040999D01*
X147989138Y-68158841D01*
X147934883Y-68296423D01*
X147924851Y-68379953D01*
X147924850Y-68379965D01*
X147924500Y-68382882D01*
X147924500Y-68967118D01*
X147050921Y-68967118D01*
X147036330Y-68856291D01*
X147035764Y-68854925D01*
X147011559Y-68796487D01*
X146980861Y-68722375D01*
X146910778Y-68631041D01*
X146892621Y-68607378D01*
X146815266Y-68548022D01*
X146777625Y-68519139D01*
X146712566Y-68492191D01*
X146643709Y-68463669D01*
X146500000Y-68444750D01*
X146356290Y-68463669D01*
X146222375Y-68519138D01*
X146110824Y-68604735D01*
X146053148Y-68625159D01*
X146006534Y-68611351D01*
X146006315Y-68611911D01*
X145999820Y-68609362D01*
X145994483Y-68607781D01*
X145993008Y-68606688D01*
X145868816Y-68557945D01*
X145736397Y-68548021D01*
X145709205Y-68552642D01*
X145709198Y-68552643D01*
X145706935Y-68553028D01*
X145704736Y-68553617D01*
X145704714Y-68553622D01*
X145336182Y-68652370D01*
X145336164Y-68652375D01*
X145333961Y-68652966D01*
X145331816Y-68653761D01*
X145331803Y-68653766D01*
X145305944Y-68663361D01*
X145196225Y-68738167D01*
X145113434Y-68841983D01*
X145064920Y-68965593D01*
X145054997Y-69098010D01*
X145058649Y-69119504D01*
X145060003Y-69127474D01*
X145060601Y-69129707D01*
X145060602Y-69129710D01*
X145174625Y-69555250D01*
X145175471Y-69558405D01*
X145176267Y-69560551D01*
X145176272Y-69560566D01*
X145177424Y-69563670D01*
X145185866Y-69586422D01*
X145233502Y-69656291D01*
X145269076Y-69708467D01*
X145265847Y-69710667D01*
X145285054Y-69739753D01*
X145282319Y-69800877D01*
X145244179Y-69848720D01*
X145209696Y-69863051D01*
X145208519Y-69863294D01*
X145205714Y-69863708D01*
X145202971Y-69864442D01*
X145202966Y-69864444D01*
X144687135Y-70002661D01*
X144687123Y-70002664D01*
X144684376Y-70003401D01*
X144681726Y-70004450D01*
X144681717Y-70004454D01*
X144660861Y-70012718D01*
X144573331Y-70083153D01*
X144565285Y-70097090D01*
X144519815Y-70138030D01*
X144492472Y-70145741D01*
X144356290Y-70163669D01*
X144222375Y-70219139D01*
X144107378Y-70307378D01*
X144019139Y-70422375D01*
X143963669Y-70556290D01*
X143944750Y-70700000D01*
X143963669Y-70843709D01*
X143996341Y-70922585D01*
X144019139Y-70977625D01*
X144046240Y-71012943D01*
X144107378Y-71092621D01*
X144157306Y-71130932D01*
X144222375Y-71180861D01*
X144317067Y-71220083D01*
X144356290Y-71236330D01*
X144373008Y-71238531D01*
X144500000Y-71255250D01*
X144643709Y-71236330D01*
X144777625Y-71180861D01*
X144892621Y-71092621D01*
X144927167Y-71047597D01*
X144977589Y-71012943D01*
X144980015Y-71012258D01*
X145434880Y-70890377D01*
X145495981Y-70893580D01*
X145543531Y-70932085D01*
X145556130Y-70960381D01*
X145670792Y-71388304D01*
X145667589Y-71449405D01*
X145658605Y-71467207D01*
X145648260Y-71483408D01*
X145630854Y-71503888D01*
X145596552Y-71534597D01*
X145574277Y-71549641D01*
X145526542Y-71573163D01*
X145514083Y-71578281D01*
X145453572Y-71598446D01*
X145453540Y-71598461D01*
X144672952Y-71858658D01*
X144672940Y-71858662D01*
X144672923Y-71858668D01*
X144672917Y-71858670D01*
X144672894Y-71858678D01*
X144491867Y-71919021D01*
X144491820Y-71919037D01*
X144490721Y-71919426D01*
X144076052Y-72068969D01*
X144074923Y-72069399D01*
X143664011Y-72228995D01*
X143662900Y-72229450D01*
X143495144Y-72299356D01*
X143495141Y-72299358D01*
X143478277Y-72306384D01*
X143478275Y-72306385D01*
X143460000Y-72314000D01*
X143425060Y-72328558D01*
X143425054Y-72328559D01*
X143271313Y-72392621D01*
X143257684Y-72398300D01*
X142855440Y-72572523D01*
X142455665Y-72752339D01*
X142312092Y-72819337D01*
X142312085Y-72819341D01*
X142306197Y-72822088D01*
X142285957Y-72831531D01*
X142285952Y-72831536D01*
X142259877Y-72843705D01*
X141986212Y-72971414D01*
X141925485Y-72978889D01*
X141871963Y-72949241D01*
X141846088Y-72893796D01*
X141846193Y-72868786D01*
X141855250Y-72800000D01*
X141838820Y-72675210D01*
X141836330Y-72656290D01*
X141817819Y-72611600D01*
X141780861Y-72522375D01*
X141730932Y-72457306D01*
X141692621Y-72407378D01*
X141589901Y-72328559D01*
X141577625Y-72319139D01*
X141529864Y-72299356D01*
X141443709Y-72263669D01*
X141316717Y-72246951D01*
X141300000Y-72244750D01*
X141299999Y-72244750D01*
X141156289Y-72263669D01*
X141022374Y-72319138D01*
X141017115Y-72323174D01*
X140959438Y-72343597D01*
X140900773Y-72326218D01*
X140871113Y-72294131D01*
X140864794Y-72283187D01*
X140760725Y-72102934D01*
X140652152Y-71914881D01*
X140652150Y-71914878D01*
X140650724Y-71912408D01*
X140635637Y-71892105D01*
X140544951Y-71825789D01*
X140544950Y-71825788D01*
X140539128Y-71821531D01*
X140503317Y-71771920D01*
X140503506Y-71710735D01*
X140539623Y-71661346D01*
X140597872Y-71642618D01*
X140610483Y-71643464D01*
X140700000Y-71655250D01*
X140843709Y-71636330D01*
X140977625Y-71580861D01*
X141092621Y-71492621D01*
X141180861Y-71377625D01*
X141236330Y-71243709D01*
X141255250Y-71100000D01*
X141237777Y-70967285D01*
X141236330Y-70956290D01*
X141214895Y-70904542D01*
X141180861Y-70822375D01*
X141130932Y-70757306D01*
X141092621Y-70707378D01*
X141027552Y-70657450D01*
X140977625Y-70619139D01*
X140934934Y-70601456D01*
X140843709Y-70563669D01*
X140704390Y-70545328D01*
X140700000Y-70544750D01*
X140699999Y-70544750D01*
X140556290Y-70563669D01*
X140422375Y-70619139D01*
X140307378Y-70707378D01*
X140211205Y-70832715D01*
X140207926Y-70830199D01*
X140183658Y-70858606D01*
X140124162Y-70872882D01*
X140092353Y-70864928D01*
X139999733Y-70824519D01*
X139980705Y-70822375D01*
X139867779Y-70809651D01*
X139867778Y-70809651D01*
X139867777Y-70809651D01*
X139737304Y-70834337D01*
X139712247Y-70845831D01*
X139712223Y-70845843D01*
X139710142Y-70846798D01*
X139708162Y-70847940D01*
X139708139Y-70847953D01*
X139377739Y-71038710D01*
X139377722Y-71038720D01*
X139375742Y-71039864D01*
X139373867Y-71041194D01*
X139373866Y-71041195D01*
X139351369Y-71057158D01*
X139264752Y-71157808D01*
X139212481Y-71277617D01*
X139211652Y-71279518D01*
X139199242Y-71389662D01*
X139196784Y-71411473D01*
X139221470Y-71541946D01*
X139232964Y-71567003D01*
X139232972Y-71567018D01*
X139233931Y-71569109D01*
X139235078Y-71571096D01*
X139235086Y-71571111D01*
X139455843Y-71953473D01*
X139456997Y-71955471D01*
X139474290Y-71979843D01*
X139561559Y-72054944D01*
X139586252Y-72076194D01*
X139584026Y-72078779D01*
X139611260Y-72102934D01*
X139624429Y-72162686D01*
X139599962Y-72218766D01*
X139570369Y-72241524D01*
X139568022Y-72242703D01*
X139565399Y-72243838D01*
X139562923Y-72245267D01*
X139562918Y-72245270D01*
X139100453Y-72512275D01*
X139100437Y-72512284D01*
X139097980Y-72513704D01*
X139095701Y-72515396D01*
X139095691Y-72515404D01*
X139077675Y-72528792D01*
X139017120Y-72611600D01*
X138967510Y-72647411D01*
X138950131Y-72651315D01*
X138856289Y-72663669D01*
X138722375Y-72719139D01*
X138607378Y-72807378D01*
X138519139Y-72922375D01*
X138463669Y-73056290D01*
X138444750Y-73200000D01*
X138463669Y-73343709D01*
X138492757Y-73413933D01*
X138519139Y-73477625D01*
X138547539Y-73514636D01*
X138607378Y-73592621D01*
X138657306Y-73630932D01*
X138722375Y-73680861D01*
X138805722Y-73715384D01*
X138856290Y-73736330D01*
X138873008Y-73738531D01*
X139000000Y-73755250D01*
X139143709Y-73736330D01*
X139277625Y-73680861D01*
X139392621Y-73592621D01*
X139480828Y-73477667D01*
X139531250Y-73443013D01*
X139548701Y-73439513D01*
X139600262Y-73433934D01*
X139623479Y-73423896D01*
X140052478Y-73176211D01*
X140112325Y-73163490D01*
X140168221Y-73188376D01*
X140187713Y-73212448D01*
X140433969Y-73638974D01*
X140433974Y-73638981D01*
X140435398Y-73641448D01*
X140437096Y-73643733D01*
X140437098Y-73643736D01*
X140459419Y-73673774D01*
X140455773Y-73676483D01*
X140474975Y-73703090D01*
X140474780Y-73764275D01*
X140438658Y-73813661D01*
X140432172Y-73817964D01*
X140349227Y-73868418D01*
X140311124Y-73891595D01*
X139978369Y-74096773D01*
X139877178Y-74160016D01*
X139864122Y-74168176D01*
X139272700Y-74537815D01*
X139258204Y-74546875D01*
X139258196Y-74546881D01*
X139088009Y-74653253D01*
X139087055Y-74653873D01*
X138702292Y-74907066D01*
X138701340Y-74907717D01*
X138322619Y-75169835D01*
X138321683Y-75170507D01*
X138195025Y-75262626D01*
X138195009Y-75262635D01*
X137989032Y-75412436D01*
X137906023Y-75472806D01*
X137807167Y-75544689D01*
X137806183Y-75545485D01*
X137806173Y-75545494D01*
X137574050Y-75733585D01*
X137574017Y-75733612D01*
X137573046Y-75734400D01*
X137572106Y-75735245D01*
X137572088Y-75735262D01*
X137350097Y-75935207D01*
X137350081Y-75935221D01*
X137349143Y-75936067D01*
X137348249Y-75936960D01*
X137348227Y-75936982D01*
X137297512Y-75987705D01*
X137242998Y-76015486D01*
X137182565Y-76005919D01*
X137139297Y-75962657D01*
X137136040Y-75955591D01*
X137116708Y-75908919D01*
X137080861Y-75822375D01*
X137024773Y-75749280D01*
X136992621Y-75707378D01*
X136909645Y-75643709D01*
X136877625Y-75619139D01*
X136805746Y-75589366D01*
X136743709Y-75563669D01*
X136600000Y-75544750D01*
X136456290Y-75563669D01*
X136322375Y-75619139D01*
X136207378Y-75707378D01*
X136186750Y-75734261D01*
X136136324Y-75768916D01*
X136075160Y-75767313D01*
X136038206Y-75743996D01*
X135697880Y-75403671D01*
X135695858Y-75401649D01*
X135693614Y-75399871D01*
X135693608Y-75399866D01*
X135676032Y-75385943D01*
X135676030Y-75385942D01*
X135571270Y-75345358D01*
X135564925Y-75345358D01*
X135506734Y-75326451D01*
X135470770Y-75276951D01*
X135467031Y-75231603D01*
X135468422Y-75222374D01*
X135471204Y-75203916D01*
X135462880Y-75148691D01*
X135472903Y-75088334D01*
X135516490Y-75045394D01*
X135536992Y-75039112D01*
X135543707Y-75036330D01*
X135543709Y-75036330D01*
X135677625Y-74980861D01*
X135792621Y-74892621D01*
X135880861Y-74777625D01*
X135936330Y-74643709D01*
X135955250Y-74500000D01*
X135936330Y-74356291D01*
X135936329Y-74356289D01*
X135903746Y-74277625D01*
X135880861Y-74222375D01*
X135820498Y-74143709D01*
X135792621Y-74107378D01*
X135727552Y-74057450D01*
X135677625Y-74019139D01*
X135631419Y-74000000D01*
X135543709Y-73963669D01*
X135400000Y-73944750D01*
X135256290Y-73963669D01*
X135122375Y-74019139D01*
X135007378Y-74107378D01*
X134919139Y-74222375D01*
X134863670Y-74356289D01*
X134853257Y-74435382D01*
X134826916Y-74490606D01*
X134773145Y-74519801D01*
X134769859Y-74520353D01*
X134654006Y-74537814D01*
X134534366Y-74595429D01*
X134513135Y-74613020D01*
X134513120Y-74613032D01*
X134511355Y-74614496D01*
X134509736Y-74616114D01*
X134509725Y-74616125D01*
X134239947Y-74885903D01*
X134239936Y-74885914D01*
X134238318Y-74887533D01*
X134236854Y-74889298D01*
X134236842Y-74889313D01*
X134219251Y-74910544D01*
X134161637Y-75030184D01*
X134141845Y-75161490D01*
X134157090Y-75262626D01*
X134161637Y-75292796D01*
X134162186Y-75293935D01*
X134219251Y-75412435D01*
X134219252Y-75412436D01*
X134238318Y-75435447D01*
X134553781Y-75750910D01*
X134576792Y-75769976D01*
X134604449Y-75783295D01*
X134709876Y-75834065D01*
X134708598Y-75836716D01*
X134742450Y-75853646D01*
X134770636Y-75907952D01*
X134761519Y-75968454D01*
X134734629Y-76001568D01*
X134737674Y-75999009D01*
X134735528Y-76000919D01*
X134733295Y-76002689D01*
X134731283Y-76004700D01*
X134731274Y-76004709D01*
X134353671Y-76382313D01*
X134353662Y-76382322D01*
X134351649Y-76384336D01*
X134349878Y-76386570D01*
X134349866Y-76386585D01*
X134335943Y-76404161D01*
X134295358Y-76508925D01*
X134295358Y-76522758D01*
X134276451Y-76580949D01*
X134234247Y-76614221D01*
X134222374Y-76619139D01*
X134107378Y-76707378D01*
X134019139Y-76822375D01*
X133963669Y-76956290D01*
X133944750Y-77100000D01*
X133963669Y-77243709D01*
X133990592Y-77308705D01*
X134019139Y-77377625D01*
X134034227Y-77397288D01*
X134107378Y-77492621D01*
X134157306Y-77530932D01*
X134222375Y-77580861D01*
X134317067Y-77620083D01*
X134356290Y-77636330D01*
X134375209Y-77638820D01*
X134500000Y-77655250D01*
X134643709Y-77636330D01*
X134777625Y-77580861D01*
X134892621Y-77492621D01*
X134980861Y-77377625D01*
X135036330Y-77243709D01*
X135041364Y-77205470D01*
X135067704Y-77150246D01*
X135078039Y-77140795D01*
X135094817Y-77127505D01*
X135445094Y-76777226D01*
X135499609Y-76749450D01*
X135560041Y-76759021D01*
X135585099Y-76777227D01*
X135935377Y-77127504D01*
X135931671Y-77124004D01*
X135962491Y-77176802D01*
X135956385Y-77237682D01*
X135935932Y-77267674D01*
X135896335Y-77307470D01*
X135895168Y-77308705D01*
X135820865Y-77388744D01*
X135820860Y-77388747D01*
X135820861Y-77388748D01*
X135812929Y-77397289D01*
X135812929Y-77397290D01*
X135364712Y-77879985D01*
X135364712Y-77879984D01*
X135185383Y-78073103D01*
X134833693Y-78465696D01*
X134778359Y-78529734D01*
X134489077Y-78864516D01*
X134348787Y-79032869D01*
X134147307Y-79274643D01*
X134147275Y-79274684D01*
X134047148Y-79394849D01*
X134046065Y-79396223D01*
X133818579Y-79689869D01*
X133817540Y-79691287D01*
X133600649Y-79992832D01*
X133599651Y-79994300D01*
X133536193Y-80089504D01*
X133536180Y-80089519D01*
X133477502Y-80177534D01*
X133477502Y-80177537D01*
X133465155Y-80196058D01*
X133465152Y-80196063D01*
X133446806Y-80223581D01*
X133398795Y-80261510D01*
X133337659Y-80263975D01*
X133286751Y-80230034D01*
X133285892Y-80228931D01*
X133192621Y-80107378D01*
X133104957Y-80040112D01*
X133077625Y-80019139D01*
X133018872Y-79994803D01*
X132943709Y-79963669D01*
X132800000Y-79944750D01*
X132656290Y-79963669D01*
X132522375Y-80019139D01*
X132407378Y-80107378D01*
X132311205Y-80232715D01*
X132309606Y-80231488D01*
X132281039Y-80264929D01*
X132221542Y-80279205D01*
X132179822Y-80266248D01*
X131815374Y-80055836D01*
X131815369Y-80055833D01*
X131812907Y-80054412D01*
X131810301Y-80053285D01*
X131810295Y-80053282D01*
X131803118Y-80050178D01*
X131789690Y-80044372D01*
X131750327Y-80040112D01*
X131694509Y-80015053D01*
X131664080Y-79961971D01*
X131670664Y-79901141D01*
X131700713Y-79863145D01*
X131792621Y-79792621D01*
X131797027Y-79786879D01*
X131880861Y-79677625D01*
X131936330Y-79543709D01*
X131955250Y-79400000D01*
X131936330Y-79256291D01*
X131936329Y-79256289D01*
X131920083Y-79217067D01*
X131880861Y-79122375D01*
X131830932Y-79057306D01*
X131792621Y-79007378D01*
X131712298Y-78945745D01*
X131677625Y-78919139D01*
X131638401Y-78902892D01*
X131543709Y-78863669D01*
X131400000Y-78844750D01*
X131256290Y-78863669D01*
X131122375Y-78919139D01*
X131007378Y-79007378D01*
X130919139Y-79122375D01*
X130863670Y-79256289D01*
X130852257Y-79342977D01*
X130825916Y-79398201D01*
X130772145Y-79427396D01*
X130765189Y-79428431D01*
X130704520Y-79435267D01*
X130582808Y-79488368D01*
X130495306Y-79563670D01*
X130482157Y-79574986D01*
X130464864Y-79599358D01*
X130463720Y-79601338D01*
X130463710Y-79601355D01*
X130272953Y-79931755D01*
X130272940Y-79931778D01*
X130271798Y-79933758D01*
X130270843Y-79935839D01*
X130270831Y-79935863D01*
X130259337Y-79960920D01*
X130235006Y-80089519D01*
X130234651Y-80091395D01*
X130244357Y-80177534D01*
X130249519Y-80223349D01*
X130302619Y-80345058D01*
X130302620Y-80345059D01*
X130389237Y-80445710D01*
X130413609Y-80463003D01*
X130415605Y-80464155D01*
X130415606Y-80464156D01*
X130797968Y-80684913D01*
X130797975Y-80684916D01*
X130799971Y-80686069D01*
X130802069Y-80687031D01*
X130802076Y-80687035D01*
X130827133Y-80698529D01*
X130957608Y-80723216D01*
X130957608Y-80723215D01*
X130972270Y-80725990D01*
X130971794Y-80728504D01*
X131010033Y-80736331D01*
X131051316Y-80781490D01*
X131058171Y-80842290D01*
X131040855Y-80881023D01*
X131041978Y-80879419D01*
X131040712Y-80881345D01*
X131040655Y-80881473D01*
X131040422Y-80881786D01*
X131040410Y-80881802D01*
X131038703Y-80884101D01*
X131037274Y-80886574D01*
X131037270Y-80886582D01*
X130770264Y-81349053D01*
X130770257Y-81349064D01*
X130768840Y-81351521D01*
X130767716Y-81354119D01*
X130767707Y-81354138D01*
X130758356Y-81375763D01*
X130727757Y-81415008D01*
X130607377Y-81507379D01*
X130519139Y-81622375D01*
X130463669Y-81756290D01*
X130444750Y-81900000D01*
X130463669Y-82043709D01*
X130496254Y-82122375D01*
X130519139Y-82177625D01*
X130557450Y-82227552D01*
X130607378Y-82292621D01*
X130646087Y-82322323D01*
X130722375Y-82380861D01*
X130805715Y-82415381D01*
X130856290Y-82436330D01*
X130873008Y-82438531D01*
X131000000Y-82455250D01*
X131143709Y-82436330D01*
X131277625Y-82380861D01*
X131392621Y-82292621D01*
X131480861Y-82177625D01*
X131536330Y-82043709D01*
X131538532Y-82026980D01*
X131564871Y-81971756D01*
X131578239Y-81959995D01*
X131663943Y-81897323D01*
X131679031Y-81877021D01*
X131926712Y-81448020D01*
X131972182Y-81407080D01*
X132033032Y-81400684D01*
X132061945Y-81411782D01*
X132372658Y-81591171D01*
X132450249Y-81635968D01*
X132491190Y-81681438D01*
X132497586Y-81742288D01*
X132486549Y-81771095D01*
X132394912Y-81930287D01*
X132394213Y-81931566D01*
X132149199Y-82387662D01*
X132148541Y-82388953D01*
X132033106Y-82619856D01*
X131892795Y-82900480D01*
X131892793Y-82900484D01*
X131759904Y-83166253D01*
X131759246Y-83167648D01*
X131485389Y-83760532D01*
X131484789Y-83761915D01*
X131229377Y-84363013D01*
X131228807Y-84364445D01*
X131110749Y-84668069D01*
X131095461Y-84707380D01*
X131081539Y-84743180D01*
X131050742Y-84822375D01*
X131009207Y-84929180D01*
X131007244Y-84934227D01*
X130923935Y-85148438D01*
X130885221Y-85195819D01*
X130826051Y-85211395D01*
X130771402Y-85191097D01*
X130677625Y-85119139D01*
X130677624Y-85119138D01*
X130677622Y-85119137D01*
X130543709Y-85063669D01*
X130400000Y-85044750D01*
X130256290Y-85063669D01*
X130122375Y-85119139D01*
X130007378Y-85207378D01*
X129919139Y-85322375D01*
X129863669Y-85456290D01*
X129845680Y-85592937D01*
X129819339Y-85648162D01*
X129765568Y-85677357D01*
X129721904Y-85675642D01*
X129309513Y-85565143D01*
X129258199Y-85531819D01*
X129236272Y-85474697D01*
X129252108Y-85415597D01*
X129256586Y-85409259D01*
X129280861Y-85377625D01*
X129336330Y-85243709D01*
X129355250Y-85100000D01*
X129338531Y-84973008D01*
X129336330Y-84956290D01*
X129304939Y-84880506D01*
X129280861Y-84822375D01*
X129208016Y-84727442D01*
X129192621Y-84707378D01*
X129127552Y-84657450D01*
X129077625Y-84619139D01*
X129038401Y-84602892D01*
X128943709Y-84563669D01*
X128816717Y-84546951D01*
X128800000Y-84544750D01*
X128799999Y-84544750D01*
X128656290Y-84563669D01*
X128522375Y-84619139D01*
X128407378Y-84707378D01*
X128319139Y-84822375D01*
X128263669Y-84956290D01*
X128243791Y-85107283D01*
X128217450Y-85162508D01*
X128172784Y-85186759D01*
X128172950Y-85187181D01*
X128169549Y-85188515D01*
X128163679Y-85191703D01*
X128160316Y-85192139D01*
X128035449Y-85241146D01*
X127931633Y-85323937D01*
X127856827Y-85433656D01*
X127847232Y-85459515D01*
X127847227Y-85459528D01*
X127846432Y-85461673D01*
X127845841Y-85463876D01*
X127845836Y-85463894D01*
X127747088Y-85832426D01*
X127747083Y-85832448D01*
X127746494Y-85834647D01*
X127746109Y-85836910D01*
X127746108Y-85836917D01*
X127741487Y-85864109D01*
X127751411Y-85996528D01*
X127799925Y-86120137D01*
X127851914Y-86185329D01*
X127882718Y-86223956D01*
X127992434Y-86298760D01*
X128020451Y-86309155D01*
X128451382Y-86424623D01*
X128480843Y-86429628D01*
X128480844Y-86429627D01*
X128480845Y-86429628D01*
X128628142Y-86418590D01*
X128628313Y-86420874D01*
X128668099Y-86418487D01*
X128719665Y-86451421D01*
X128742024Y-86508374D01*
X128735245Y-86550761D01*
X128734460Y-86552740D01*
X128734450Y-86552769D01*
X128733403Y-86555412D01*
X128732665Y-86558164D01*
X128732663Y-86558172D01*
X128594448Y-87074000D01*
X128594445Y-87074013D01*
X128593712Y-87076750D01*
X128593298Y-87079558D01*
X128593296Y-87079568D01*
X128590023Y-87101773D01*
X128590023Y-87101775D01*
X128597702Y-87151244D01*
X128600081Y-87166571D01*
X128590322Y-87226974D01*
X128580794Y-87242023D01*
X128519138Y-87322374D01*
X128463669Y-87456289D01*
X128444750Y-87600000D01*
X128463669Y-87743709D01*
X128482857Y-87790032D01*
X128519139Y-87877625D01*
X128557450Y-87927552D01*
X128607378Y-87992621D01*
X128657306Y-88030932D01*
X128722375Y-88080861D01*
X128817067Y-88120083D01*
X128856290Y-88136330D01*
X128875209Y-88138820D01*
X129000000Y-88155250D01*
X129143709Y-88136330D01*
X129277625Y-88080861D01*
X129392621Y-87992621D01*
X129480861Y-87877625D01*
X129536330Y-87743709D01*
X129555250Y-87600000D01*
X129541246Y-87493633D01*
X129552396Y-87433475D01*
X129562269Y-87418649D01*
X129599580Y-87372285D01*
X129608899Y-87348770D01*
X129737108Y-86870281D01*
X129770431Y-86818970D01*
X129827552Y-86797043D01*
X129858352Y-86800279D01*
X130183915Y-86887513D01*
X130257896Y-86907336D01*
X130309210Y-86940660D01*
X130331137Y-86997782D01*
X130328178Y-87027523D01*
X130246281Y-87347329D01*
X130246001Y-87348506D01*
X130203095Y-87534463D01*
X130179824Y-87635307D01*
X130179823Y-87635321D01*
X130144389Y-87788889D01*
X130144146Y-87790032D01*
X130052866Y-88232627D01*
X130052655Y-88233751D01*
X129971751Y-88678384D01*
X129971561Y-88679543D01*
X129947625Y-88831152D01*
X129947620Y-88831172D01*
X129942111Y-88866059D01*
X129927422Y-88959096D01*
X129843818Y-89488576D01*
X129843816Y-89488579D01*
X129802375Y-89751078D01*
X129802211Y-89752261D01*
X129748347Y-90157644D01*
X129748209Y-90158852D01*
X129704291Y-90565412D01*
X129704182Y-90566631D01*
X129693032Y-90700489D01*
X129693032Y-90700494D01*
X129690464Y-90731293D01*
X129690461Y-90731300D01*
X129686785Y-90775437D01*
X129683649Y-90813053D01*
X129683650Y-90813064D01*
X129682828Y-90822921D01*
X129659150Y-90879339D01*
X129606832Y-90911065D01*
X129546286Y-90906158D01*
X129481538Y-90879339D01*
X129443708Y-90863669D01*
X129318919Y-90847240D01*
X129300000Y-90844750D01*
X129299999Y-90844750D01*
X129156290Y-90863669D01*
X129022375Y-90919139D01*
X128907378Y-91007378D01*
X128819139Y-91122375D01*
X128763669Y-91256290D01*
X128744750Y-91400000D01*
X128746406Y-91412578D01*
X128735256Y-91472739D01*
X128690873Y-91514856D01*
X128648253Y-91524500D01*
X128309607Y-91524500D01*
X128251416Y-91505593D01*
X128215452Y-91456093D01*
X128215452Y-91394907D01*
X128218138Y-91387627D01*
X128236330Y-91343709D01*
X128255250Y-91200000D01*
X128236330Y-91056291D01*
X128180861Y-90922375D01*
X128110156Y-90830231D01*
X128092621Y-90807378D01*
X127993464Y-90731293D01*
X127977625Y-90719139D01*
X127932599Y-90700489D01*
X127843709Y-90663669D01*
X127700000Y-90644750D01*
X127556290Y-90663669D01*
X127422375Y-90719139D01*
X127307378Y-90807378D01*
X127219139Y-90922375D01*
X127163669Y-91056290D01*
X127144750Y-91200000D01*
X127163681Y-91343800D01*
X127152531Y-91403961D01*
X127108148Y-91446078D01*
X127098226Y-91450166D01*
X127066843Y-91461147D01*
X126960001Y-91540001D01*
X126881147Y-91646843D01*
X126837290Y-91772178D01*
X126836276Y-91782999D01*
X126834500Y-91801934D01*
X126834500Y-92188066D01*
X126234736Y-92188066D01*
X126234782Y-92185754D01*
X126242996Y-91774593D01*
X126264111Y-91238856D01*
X126264194Y-91237193D01*
X126291514Y-90781873D01*
X126333707Y-90247433D01*
X126333876Y-90245550D01*
X126379344Y-89791874D01*
X126442555Y-89259482D01*
X126442812Y-89257493D01*
X126506338Y-88806193D01*
X126590498Y-88276505D01*
X126590852Y-88274429D01*
X126672289Y-87826385D01*
X126777308Y-87300107D01*
X126777727Y-87298124D01*
X126876934Y-86853961D01*
X127002676Y-86331902D01*
X127003174Y-86329934D01*
X127119954Y-85890429D01*
X127266260Y-85373368D01*
X127266846Y-85371388D01*
X127400949Y-84937355D01*
X127567615Y-84426113D01*
X127568350Y-84423949D01*
X127719460Y-83996249D01*
X127906326Y-83491443D01*
X127907140Y-83489326D01*
X128074999Y-83068541D01*
X128281808Y-82570986D01*
X128282779Y-82568733D01*
X128466975Y-82155744D01*
X128693572Y-81665955D01*
X128694539Y-81663936D01*
X128894776Y-81259258D01*
X129140841Y-80778081D01*
X129141942Y-80775998D01*
X129357701Y-80380527D01*
X129622947Y-79908661D01*
X129624171Y-79906551D01*
X129855045Y-79520867D01*
X130139189Y-79058968D01*
X130140538Y-79056842D01*
X130385896Y-78681814D01*
X130688729Y-78230392D01*
X130690185Y-78228287D01*
X130949537Y-77864468D01*
X131270635Y-77424333D01*
X131272283Y-77422142D01*
X131545029Y-77070177D01*
X131884141Y-76641854D01*
X131885840Y-76639773D01*
X132171300Y-76300323D01*
X132528157Y-75884360D01*
X132529998Y-75882279D01*
X132769871Y-75619139D01*
X132827450Y-75555975D01*
X132939386Y-75435447D01*
X133201725Y-75152972D01*
X133203659Y-75150954D01*
X133512310Y-74838407D01*
X133903696Y-74448936D01*
X133905793Y-74446913D01*
X134224726Y-74148773D01*
X134633086Y-73773234D01*
X134635406Y-73771168D01*
X134963521Y-73488138D01*
X135388836Y-73126864D01*
X135391115Y-73124992D01*
X135727437Y-72857551D01*
X136169465Y-72511101D01*
X136171917Y-72509242D01*
X136515196Y-72257979D01*
X136973968Y-71926721D01*
X136976573Y-71924906D01*
X137325190Y-71690530D01*
X137801041Y-71374682D01*
X137803685Y-71372991D01*
X138156096Y-71155985D01*
X138649284Y-70855917D01*
X138652112Y-70854263D01*
X139006100Y-70655333D01*
X139517491Y-70371160D01*
X139520450Y-70369584D01*
X139873313Y-70189440D01*
X140404266Y-69921198D01*
X140407271Y-69919747D01*
X140755348Y-69759238D01*
X141308232Y-69506735D01*
X141311270Y-69505414D01*
X141648807Y-69365831D01*
X142227834Y-69128481D01*
X142231068Y-69127226D01*
X142549726Y-69010125D01*
X143161740Y-68786981D01*
X143165128Y-68785818D01*
X143449512Y-68694030D01*
X144108491Y-68482769D01*
X144111895Y-68481749D01*
X144329460Y-68421008D01*
X145066515Y-68216353D01*
X145070116Y-68215427D01*
X145123281Y-68202850D01*
X146028804Y-67989443D01*
X146032581Y-67988630D01*
X146990444Y-67802368D01*
X146999830Y-67801468D01*
X147000576Y-67800408D01*
X147000578Y-67800408D01*
X147000577Y-67800406D01*
X147001195Y-67799531D01*
X147000500Y-67791443D01*
X147000500Y-66250000D01*
X147489364Y-66250000D01*
X147546570Y-66463495D01*
X147646398Y-66677576D01*
X147781887Y-66871074D01*
X147948925Y-67038112D01*
X148142423Y-67173601D01*
X148356504Y-67273429D01*
X148570000Y-67330634D01*
X148570000Y-66435501D01*
X148677685Y-66484680D01*
X148784237Y-66500000D01*
X148855763Y-66500000D01*
X148962315Y-66484680D01*
X149070000Y-66435501D01*
X149070000Y-67330633D01*
X149283495Y-67273429D01*
X149497576Y-67173601D01*
X149691074Y-67038112D01*
X149858112Y-66871074D01*
X149993601Y-66677576D01*
X150093429Y-66463494D01*
X150099958Y-66439130D01*
X150133281Y-66387815D01*
X150190402Y-66365888D01*
X150249503Y-66381723D01*
X150284206Y-66420624D01*
X150377634Y-66608256D01*
X150506125Y-66778404D01*
X150663699Y-66922053D01*
X150795622Y-67003736D01*
X150844981Y-67034298D01*
X151001681Y-67095003D01*
X151043804Y-67111322D01*
X151253388Y-67150500D01*
X151253390Y-67150500D01*
X151466612Y-67150500D01*
X151676195Y-67111322D01*
X151676198Y-67111321D01*
X151875019Y-67034298D01*
X152056302Y-66922052D01*
X152213872Y-66778407D01*
X152342366Y-66608255D01*
X152437405Y-66417389D01*
X152495756Y-66212310D01*
X152515429Y-66000000D01*
X152495756Y-65787690D01*
X152437405Y-65582611D01*
X152342366Y-65391745D01*
X152342365Y-65391744D01*
X152342365Y-65391743D01*
X152213874Y-65221595D01*
X152056300Y-65077946D01*
X151875021Y-64965703D01*
X151875019Y-64965702D01*
X151832898Y-64949384D01*
X151676195Y-64888677D01*
X151466612Y-64849500D01*
X151466610Y-64849500D01*
X151253390Y-64849500D01*
X151253388Y-64849500D01*
X151043804Y-64888677D01*
X150844978Y-64965703D01*
X150663699Y-65077946D01*
X150506125Y-65221595D01*
X150377634Y-65391743D01*
X150284206Y-65579375D01*
X150241343Y-65623037D01*
X150181002Y-65633167D01*
X150126231Y-65605895D01*
X150099958Y-65560870D01*
X150093429Y-65536504D01*
X149993601Y-65322424D01*
X149858112Y-65128925D01*
X149691074Y-64961887D01*
X149497576Y-64826398D01*
X149283495Y-64726570D01*
X149070000Y-64669364D01*
X149070000Y-65564498D01*
X148962315Y-65515320D01*
X148855763Y-65500000D01*
X148784237Y-65500000D01*
X148677685Y-65515320D01*
X148570000Y-65564498D01*
X148570000Y-64669364D01*
X148356505Y-64726570D01*
X148142424Y-64826398D01*
X147948925Y-64961887D01*
X147781887Y-65128925D01*
X147646398Y-65322424D01*
X147546570Y-65536505D01*
X147489364Y-65750000D01*
X148386314Y-65750000D01*
X148360507Y-65790156D01*
X148320000Y-65928111D01*
X148320000Y-66071889D01*
X148360507Y-66209844D01*
X148386314Y-66250000D01*
X147489364Y-66250000D01*
X147000500Y-66250000D01*
X147000500Y-64299500D01*
X147019407Y-64241309D01*
X147068907Y-64205345D01*
X147099500Y-64200500D01*
X155600500Y-64200500D01*
X155658691Y-64219407D01*
G37*
G04 #@! TD.AperFunction*
G04 #@! TD*
M02*
