M48
; DRILL file {KiCad 7.0.2-6a45011f42~172~ubuntu22.04.1} date Sat 13 May 2023 10:54:32 AM MDT
; FORMAT={-:-/ absolute / metric / decimal}
; #@! TF.CreationDate,2023-05-13T10:54:32-06:00
; #@! TF.GenerationSoftware,Kicad,Pcbnew,7.0.2-6a45011f42~172~ubuntu22.04.1
; #@! TF.FileFunction,Plated,1,2,PTH
FMAT,2
METRIC
; #@! TA.AperFunction,Plated,PTH,ViaDrill
T1C0.300
; #@! TA.AperFunction,Plated,PTH,ComponentDrill
T2C1.000
%
G90
G05
T1
X127.7Y-91.2
X128.2Y-97.4
X128.5Y-93.6
X128.8Y-85.1
X129.0Y-87.6
X129.3Y-91.4
X129.6Y-99.4
X129.8Y-97.2
X130.4Y-85.6
X130.4Y-103.2
X131.0Y-81.9
X131.4Y-79.4
X131.7Y-102.5
X132.2Y-104.9
X132.8Y-80.5
X133.7Y-108.2
X134.5Y-77.1
X135.0Y-107.3
X135.4Y-74.5
X136.0Y-109.4
X136.6Y-76.1
X138.5Y-112.3
X139.0Y-73.2
X139.4Y-111.0
X140.7Y-71.1
X141.0Y-112.9
X141.3Y-72.8
X144.1Y-115.0
X144.5Y-70.7
X144.5Y-113.4
X146.5Y-69.0
X146.6Y-115.1
X149.8Y-68.5
X150.2Y-115.9
X150.2Y-116.9
X150.3Y-114.5
X152.6Y-115.3
X152.7Y-68.6
X152.7Y-70.7
X156.0Y-114.1
X156.2Y-70.1
X156.3Y-115.7
X158.3Y-71.5
X158.4Y-114.3
X158.7Y-69.8
X161.5Y-112.2
X161.9Y-72.0
X162.2Y-113.7
X163.4Y-74.0
X163.9Y-111.7
X164.4Y-72.5
X166.3Y-108.9
X166.9Y-75.5
X167.3Y-110.2
X167.8Y-77.7
X168.5Y-107.9
X169.1Y-76.5
X170.0Y-104.5
X170.7Y-80.1
X171.1Y-82.4
X171.4Y-105.4
X171.9Y-102.9
X172.4Y-99.3
X172.6Y-81.7
X173.0Y-87.8
X173.2Y-85.5
X173.5Y-93.5
X173.9Y-97.2
X173.9Y-99.9
X174.3Y-91.4
X174.7Y-87.6
X175.2Y-93.7
T2
X148.82Y-66.0
X148.82Y-119.0
X151.36Y-66.0
X151.36Y-119.0
X153.9Y-66.0
X153.9Y-119.0
T0
M30
