G04 #@! TF.GenerationSoftware,KiCad,Pcbnew,7.0.2-6a45011f42~172~ubuntu22.04.1*
G04 #@! TF.CreationDate,2023-05-13T10:54:30-06:00*
G04 #@! TF.ProjectId,ring-50mm,72696e67-2d35-4306-9d6d-2e6b69636164,rev?*
G04 #@! TF.SameCoordinates,Original*
G04 #@! TF.FileFunction,Soldermask,Bot*
G04 #@! TF.FilePolarity,Negative*
%FSLAX46Y46*%
G04 Gerber Fmt 4.6, Leading zero omitted, Abs format (unit mm)*
G04 Created by KiCad (PCBNEW 7.0.2-6a45011f42~172~ubuntu22.04.1) date 2023-05-13 10:54:30*
%MOMM*%
%LPD*%
G01*
G04 APERTURE LIST*
G04 APERTURE END LIST*
G36*
X154769134Y-118103806D02*
G01*
X154785355Y-118114645D01*
X154796194Y-118130866D01*
X154800000Y-118150000D01*
X154800000Y-119850000D01*
X154796194Y-119869134D01*
X154785355Y-119885355D01*
X154769134Y-119896194D01*
X154750000Y-119900000D01*
X153050000Y-119900000D01*
X153030866Y-119896194D01*
X153014645Y-119885355D01*
X153003806Y-119869134D01*
X153000000Y-119850000D01*
X153000000Y-118150000D01*
X153003806Y-118130866D01*
X153014645Y-118114645D01*
X153030866Y-118103806D01*
X153050000Y-118100000D01*
X154750000Y-118100000D01*
X154769134Y-118103806D01*
G37*
G36*
X148865151Y-118104930D02*
G01*
X148914076Y-118104930D01*
X148956321Y-118113909D01*
X148995485Y-118117767D01*
X149044689Y-118132693D01*
X149098115Y-118144049D01*
X149132300Y-118159269D01*
X149164230Y-118168955D01*
X149214971Y-118196076D01*
X149270000Y-118220577D01*
X149295583Y-118239164D01*
X149319743Y-118252078D01*
X149369023Y-118292521D01*
X149422218Y-118331170D01*
X149439491Y-118350354D01*
X149456053Y-118363946D01*
X149500563Y-118418182D01*
X149548115Y-118470993D01*
X149558103Y-118488293D01*
X149567921Y-118500256D01*
X149604237Y-118568200D01*
X149642191Y-118633937D01*
X149646557Y-118647374D01*
X149651044Y-118655769D01*
X149675779Y-118737311D01*
X149700333Y-118812879D01*
X149701197Y-118821103D01*
X149702232Y-118824514D01*
X149712306Y-118926796D01*
X149720000Y-119000000D01*
X149712303Y-119073227D01*
X149702232Y-119175485D01*
X149701197Y-119178895D01*
X149700333Y-119187121D01*
X149675774Y-119262702D01*
X149651044Y-119344230D01*
X149646558Y-119352622D01*
X149642191Y-119366063D01*
X149604230Y-119431812D01*
X149567921Y-119499743D01*
X149558105Y-119511703D01*
X149548115Y-119529007D01*
X149500554Y-119581828D01*
X149456053Y-119636053D01*
X149439494Y-119649642D01*
X149422218Y-119668830D01*
X149369012Y-119707486D01*
X149319743Y-119747921D01*
X149295588Y-119760831D01*
X149270000Y-119779423D01*
X149214960Y-119803928D01*
X149164230Y-119831044D01*
X149132307Y-119840727D01*
X149098115Y-119855951D01*
X149044678Y-119867309D01*
X148995485Y-119882232D01*
X148956330Y-119886088D01*
X148914076Y-119895070D01*
X148865140Y-119895070D01*
X148820000Y-119899516D01*
X148774859Y-119895070D01*
X148725924Y-119895070D01*
X148683669Y-119886088D01*
X148644514Y-119882232D01*
X148595317Y-119867308D01*
X148541885Y-119855951D01*
X148507694Y-119840728D01*
X148475769Y-119831044D01*
X148425033Y-119803925D01*
X148370000Y-119779423D01*
X148344413Y-119760833D01*
X148320256Y-119747921D01*
X148270978Y-119707479D01*
X148217782Y-119668830D01*
X148200507Y-119649645D01*
X148183946Y-119636053D01*
X148139434Y-119581815D01*
X148091885Y-119529007D01*
X148081897Y-119511707D01*
X148072078Y-119499743D01*
X148035756Y-119431788D01*
X147997809Y-119366063D01*
X147993443Y-119352627D01*
X147988955Y-119344230D01*
X147964210Y-119262656D01*
X147939667Y-119187121D01*
X147938802Y-119178900D01*
X147937767Y-119175485D01*
X147927679Y-119073067D01*
X147920000Y-119000000D01*
X147927678Y-118926939D01*
X147937767Y-118824514D01*
X147938803Y-118821098D01*
X147939667Y-118812879D01*
X147964205Y-118737357D01*
X147988955Y-118655769D01*
X147993444Y-118647369D01*
X147997809Y-118633937D01*
X148035748Y-118568223D01*
X148072078Y-118500256D01*
X148081899Y-118488289D01*
X148091885Y-118470993D01*
X148139424Y-118418194D01*
X148183946Y-118363946D01*
X148200511Y-118350350D01*
X148217782Y-118331170D01*
X148270968Y-118292527D01*
X148320256Y-118252078D01*
X148344419Y-118239162D01*
X148370000Y-118220577D01*
X148425022Y-118196079D01*
X148475769Y-118168955D01*
X148507701Y-118159268D01*
X148541885Y-118144049D01*
X148595306Y-118132693D01*
X148644514Y-118117767D01*
X148683678Y-118113909D01*
X148725924Y-118104930D01*
X148774849Y-118104930D01*
X148820000Y-118100483D01*
X148865151Y-118104930D01*
G37*
G36*
X151405151Y-118104930D02*
G01*
X151454076Y-118104930D01*
X151496321Y-118113909D01*
X151535485Y-118117767D01*
X151584689Y-118132693D01*
X151638115Y-118144049D01*
X151672300Y-118159269D01*
X151704230Y-118168955D01*
X151754971Y-118196076D01*
X151810000Y-118220577D01*
X151835583Y-118239164D01*
X151859743Y-118252078D01*
X151909023Y-118292521D01*
X151962218Y-118331170D01*
X151979491Y-118350354D01*
X151996053Y-118363946D01*
X152040563Y-118418182D01*
X152088115Y-118470993D01*
X152098103Y-118488293D01*
X152107921Y-118500256D01*
X152144237Y-118568200D01*
X152182191Y-118633937D01*
X152186557Y-118647374D01*
X152191044Y-118655769D01*
X152215779Y-118737311D01*
X152240333Y-118812879D01*
X152241197Y-118821103D01*
X152242232Y-118824514D01*
X152252305Y-118926787D01*
X152260000Y-119000000D01*
X152252304Y-119073218D01*
X152242232Y-119175485D01*
X152241197Y-119178895D01*
X152240333Y-119187121D01*
X152215774Y-119262702D01*
X152191044Y-119344230D01*
X152186558Y-119352622D01*
X152182191Y-119366063D01*
X152144230Y-119431812D01*
X152107921Y-119499743D01*
X152098105Y-119511703D01*
X152088115Y-119529007D01*
X152040554Y-119581828D01*
X151996053Y-119636053D01*
X151979494Y-119649642D01*
X151962218Y-119668830D01*
X151909012Y-119707486D01*
X151859743Y-119747921D01*
X151835588Y-119760831D01*
X151810000Y-119779423D01*
X151754960Y-119803928D01*
X151704230Y-119831044D01*
X151672307Y-119840727D01*
X151638115Y-119855951D01*
X151584678Y-119867309D01*
X151535485Y-119882232D01*
X151496330Y-119886088D01*
X151454076Y-119895070D01*
X151405140Y-119895070D01*
X151359999Y-119899516D01*
X151314859Y-119895070D01*
X151265924Y-119895070D01*
X151223670Y-119886088D01*
X151184514Y-119882232D01*
X151135317Y-119867308D01*
X151081885Y-119855951D01*
X151047694Y-119840728D01*
X151015769Y-119831044D01*
X150965033Y-119803925D01*
X150910000Y-119779423D01*
X150884413Y-119760833D01*
X150860256Y-119747921D01*
X150810978Y-119707479D01*
X150757782Y-119668830D01*
X150740507Y-119649645D01*
X150723946Y-119636053D01*
X150679434Y-119581815D01*
X150631885Y-119529007D01*
X150621897Y-119511707D01*
X150612078Y-119499743D01*
X150575756Y-119431788D01*
X150537809Y-119366063D01*
X150533443Y-119352627D01*
X150528955Y-119344230D01*
X150504210Y-119262656D01*
X150479667Y-119187121D01*
X150478802Y-119178900D01*
X150477767Y-119175485D01*
X150467679Y-119073067D01*
X150460000Y-119000000D01*
X150467678Y-118926939D01*
X150477767Y-118824514D01*
X150478803Y-118821098D01*
X150479667Y-118812879D01*
X150504205Y-118737357D01*
X150528955Y-118655769D01*
X150533444Y-118647369D01*
X150537809Y-118633937D01*
X150575748Y-118568223D01*
X150612078Y-118500256D01*
X150621899Y-118488289D01*
X150631885Y-118470993D01*
X150679424Y-118418194D01*
X150723946Y-118363946D01*
X150740511Y-118350350D01*
X150757782Y-118331170D01*
X150810968Y-118292527D01*
X150860256Y-118252078D01*
X150884419Y-118239162D01*
X150910000Y-118220577D01*
X150965022Y-118196079D01*
X151015769Y-118168955D01*
X151047701Y-118159268D01*
X151081885Y-118144049D01*
X151135306Y-118132693D01*
X151184514Y-118117767D01*
X151223678Y-118113909D01*
X151265924Y-118104930D01*
X151314849Y-118104930D01*
X151360000Y-118100483D01*
X151405151Y-118104930D01*
G37*
G36*
X154769134Y-65103806D02*
G01*
X154785355Y-65114645D01*
X154796194Y-65130866D01*
X154800000Y-65150000D01*
X154800000Y-66850000D01*
X154796194Y-66869134D01*
X154785355Y-66885355D01*
X154769134Y-66896194D01*
X154750000Y-66900000D01*
X153050000Y-66900000D01*
X153030866Y-66896194D01*
X153014645Y-66885355D01*
X153003806Y-66869134D01*
X153000000Y-66850000D01*
X153000000Y-65150000D01*
X153003806Y-65130866D01*
X153014645Y-65114645D01*
X153030866Y-65103806D01*
X153050000Y-65100000D01*
X154750000Y-65100000D01*
X154769134Y-65103806D01*
G37*
G36*
X148865151Y-65104930D02*
G01*
X148914076Y-65104930D01*
X148956321Y-65113909D01*
X148995485Y-65117767D01*
X149044689Y-65132693D01*
X149098115Y-65144049D01*
X149132300Y-65159269D01*
X149164230Y-65168955D01*
X149214971Y-65196076D01*
X149270000Y-65220577D01*
X149295583Y-65239164D01*
X149319743Y-65252078D01*
X149369023Y-65292521D01*
X149422218Y-65331170D01*
X149439491Y-65350354D01*
X149456053Y-65363946D01*
X149500563Y-65418182D01*
X149548115Y-65470993D01*
X149558103Y-65488293D01*
X149567921Y-65500256D01*
X149604237Y-65568200D01*
X149642191Y-65633937D01*
X149646557Y-65647374D01*
X149651044Y-65655769D01*
X149675779Y-65737311D01*
X149700333Y-65812879D01*
X149701197Y-65821103D01*
X149702232Y-65824514D01*
X149712306Y-65926796D01*
X149720000Y-66000000D01*
X149712303Y-66073227D01*
X149702232Y-66175485D01*
X149701197Y-66178895D01*
X149700333Y-66187121D01*
X149675774Y-66262702D01*
X149651044Y-66344230D01*
X149646558Y-66352622D01*
X149642191Y-66366063D01*
X149604230Y-66431812D01*
X149567921Y-66499743D01*
X149558105Y-66511703D01*
X149548115Y-66529007D01*
X149500554Y-66581828D01*
X149456053Y-66636053D01*
X149439494Y-66649642D01*
X149422218Y-66668830D01*
X149369012Y-66707486D01*
X149319743Y-66747921D01*
X149295588Y-66760831D01*
X149270000Y-66779423D01*
X149214960Y-66803928D01*
X149164230Y-66831044D01*
X149132307Y-66840727D01*
X149098115Y-66855951D01*
X149044678Y-66867309D01*
X148995485Y-66882232D01*
X148956330Y-66886088D01*
X148914076Y-66895070D01*
X148865140Y-66895070D01*
X148819999Y-66899516D01*
X148774859Y-66895070D01*
X148725924Y-66895070D01*
X148683670Y-66886088D01*
X148644514Y-66882232D01*
X148595317Y-66867308D01*
X148541885Y-66855951D01*
X148507694Y-66840728D01*
X148475769Y-66831044D01*
X148425033Y-66803925D01*
X148370000Y-66779423D01*
X148344413Y-66760833D01*
X148320256Y-66747921D01*
X148270978Y-66707479D01*
X148217782Y-66668830D01*
X148200507Y-66649645D01*
X148183946Y-66636053D01*
X148139434Y-66581815D01*
X148091885Y-66529007D01*
X148081897Y-66511707D01*
X148072078Y-66499743D01*
X148035756Y-66431788D01*
X147997809Y-66366063D01*
X147993443Y-66352627D01*
X147988955Y-66344230D01*
X147964210Y-66262656D01*
X147939667Y-66187121D01*
X147938802Y-66178900D01*
X147937767Y-66175485D01*
X147927680Y-66073075D01*
X147920000Y-66000000D01*
X147927678Y-65926947D01*
X147937767Y-65824514D01*
X147938803Y-65821098D01*
X147939667Y-65812879D01*
X147964205Y-65737357D01*
X147988955Y-65655769D01*
X147993444Y-65647369D01*
X147997809Y-65633937D01*
X148035748Y-65568223D01*
X148072078Y-65500256D01*
X148081899Y-65488289D01*
X148091885Y-65470993D01*
X148139424Y-65418194D01*
X148183946Y-65363946D01*
X148200511Y-65350350D01*
X148217782Y-65331170D01*
X148270968Y-65292527D01*
X148320256Y-65252078D01*
X148344419Y-65239162D01*
X148370000Y-65220577D01*
X148425022Y-65196079D01*
X148475769Y-65168955D01*
X148507701Y-65159268D01*
X148541885Y-65144049D01*
X148595306Y-65132693D01*
X148644514Y-65117767D01*
X148683678Y-65113909D01*
X148725924Y-65104930D01*
X148774849Y-65104930D01*
X148820000Y-65100483D01*
X148865151Y-65104930D01*
G37*
G36*
X151405151Y-65104930D02*
G01*
X151454076Y-65104930D01*
X151496321Y-65113909D01*
X151535485Y-65117767D01*
X151584689Y-65132693D01*
X151638115Y-65144049D01*
X151672300Y-65159269D01*
X151704230Y-65168955D01*
X151754971Y-65196076D01*
X151810000Y-65220577D01*
X151835583Y-65239164D01*
X151859743Y-65252078D01*
X151909023Y-65292521D01*
X151962218Y-65331170D01*
X151979491Y-65350354D01*
X151996053Y-65363946D01*
X152040563Y-65418182D01*
X152088115Y-65470993D01*
X152098103Y-65488293D01*
X152107921Y-65500256D01*
X152144237Y-65568200D01*
X152182191Y-65633937D01*
X152186557Y-65647374D01*
X152191044Y-65655769D01*
X152215779Y-65737311D01*
X152240333Y-65812879D01*
X152241197Y-65821103D01*
X152242232Y-65824514D01*
X152252306Y-65926796D01*
X152260000Y-66000000D01*
X152252303Y-66073227D01*
X152242232Y-66175485D01*
X152241197Y-66178895D01*
X152240333Y-66187121D01*
X152215774Y-66262702D01*
X152191044Y-66344230D01*
X152186558Y-66352622D01*
X152182191Y-66366063D01*
X152144230Y-66431812D01*
X152107921Y-66499743D01*
X152098105Y-66511703D01*
X152088115Y-66529007D01*
X152040554Y-66581828D01*
X151996053Y-66636053D01*
X151979494Y-66649642D01*
X151962218Y-66668830D01*
X151909012Y-66707486D01*
X151859743Y-66747921D01*
X151835588Y-66760831D01*
X151810000Y-66779423D01*
X151754960Y-66803928D01*
X151704230Y-66831044D01*
X151672307Y-66840727D01*
X151638115Y-66855951D01*
X151584678Y-66867309D01*
X151535485Y-66882232D01*
X151496330Y-66886088D01*
X151454076Y-66895070D01*
X151405140Y-66895070D01*
X151360000Y-66899516D01*
X151314859Y-66895070D01*
X151265924Y-66895070D01*
X151223669Y-66886088D01*
X151184514Y-66882232D01*
X151135317Y-66867308D01*
X151081885Y-66855951D01*
X151047694Y-66840728D01*
X151015769Y-66831044D01*
X150965033Y-66803925D01*
X150910000Y-66779423D01*
X150884413Y-66760833D01*
X150860256Y-66747921D01*
X150810978Y-66707479D01*
X150757782Y-66668830D01*
X150740507Y-66649645D01*
X150723946Y-66636053D01*
X150679434Y-66581815D01*
X150631885Y-66529007D01*
X150621897Y-66511707D01*
X150612078Y-66499743D01*
X150575756Y-66431788D01*
X150537809Y-66366063D01*
X150533443Y-66352627D01*
X150528955Y-66344230D01*
X150504210Y-66262656D01*
X150479667Y-66187121D01*
X150478802Y-66178900D01*
X150477767Y-66175485D01*
X150467680Y-66073075D01*
X150460000Y-66000000D01*
X150467678Y-65926947D01*
X150477767Y-65824514D01*
X150478803Y-65821098D01*
X150479667Y-65812879D01*
X150504205Y-65737357D01*
X150528955Y-65655769D01*
X150533444Y-65647369D01*
X150537809Y-65633937D01*
X150575748Y-65568223D01*
X150612078Y-65500256D01*
X150621899Y-65488289D01*
X150631885Y-65470993D01*
X150679424Y-65418194D01*
X150723946Y-65363946D01*
X150740511Y-65350350D01*
X150757782Y-65331170D01*
X150810968Y-65292527D01*
X150860256Y-65252078D01*
X150884419Y-65239162D01*
X150910000Y-65220577D01*
X150965022Y-65196079D01*
X151015769Y-65168955D01*
X151047701Y-65159268D01*
X151081885Y-65144049D01*
X151135306Y-65132693D01*
X151184514Y-65117767D01*
X151223678Y-65113909D01*
X151265924Y-65104930D01*
X151314849Y-65104930D01*
X151360000Y-65100483D01*
X151405151Y-65104930D01*
G37*
M02*
