G04 #@! TF.GenerationSoftware,KiCad,Pcbnew,7.0.2-6a45011f42~172~ubuntu22.04.1*
G04 #@! TF.CreationDate,2023-05-13T10:54:30-06:00*
G04 #@! TF.ProjectId,ring-50mm,72696e67-2d35-4306-9d6d-2e6b69636164,rev?*
G04 #@! TF.SameCoordinates,Original*
G04 #@! TF.FileFunction,Legend,Bot*
G04 #@! TF.FilePolarity,Positive*
%FSLAX46Y46*%
G04 Gerber Fmt 4.6, Leading zero omitted, Abs format (unit mm)*
G04 Created by KiCad (PCBNEW 7.0.2-6a45011f42~172~ubuntu22.04.1) date 2023-05-13 10:54:30*
%MOMM*%
%LPD*%
G01*
G04 APERTURE LIST*
G04 Aperture macros list*
%AMRoundRect*
0 Rectangle with rounded corners*
0 $1 Rounding radius*
0 $2 $3 $4 $5 $6 $7 $8 $9 X,Y pos of 4 corners*
0 Add a 4 corners polygon primitive as box body*
4,1,4,$2,$3,$4,$5,$6,$7,$8,$9,$2,$3,0*
0 Add four circle primitives for the rounded corners*
1,1,$1+$1,$2,$3*
1,1,$1+$1,$4,$5*
1,1,$1+$1,$6,$7*
1,1,$1+$1,$8,$9*
0 Add four rect primitives between the rounded corners*
20,1,$1+$1,$2,$3,$4,$5,0*
20,1,$1+$1,$4,$5,$6,$7,0*
20,1,$1+$1,$6,$7,$8,$9,0*
20,1,$1+$1,$8,$9,$2,$3,0*%
G04 Aperture macros list end*
%ADD10C,0.200000*%
%ADD11C,0.250000*%
%ADD12RoundRect,0.050000X-0.850000X0.850000X-0.850000X-0.850000X0.850000X-0.850000X0.850000X0.850000X0*%
%ADD13O,1.800000X1.800000*%
G04 APERTURE END LIST*
D10*
X174983571Y-96085714D02*
X173983571Y-95728571D01*
X173983571Y-95728571D02*
X174983571Y-95371428D01*
X173983571Y-94014285D02*
X173983571Y-94871428D01*
X173983571Y-94442857D02*
X175483571Y-94442857D01*
X175483571Y-94442857D02*
X175269285Y-94585714D01*
X175269285Y-94585714D02*
X175126428Y-94728571D01*
X175126428Y-94728571D02*
X175055000Y-94871428D01*
X174126428Y-93371429D02*
X174055000Y-93300000D01*
X174055000Y-93300000D02*
X173983571Y-93371429D01*
X173983571Y-93371429D02*
X174055000Y-93442857D01*
X174055000Y-93442857D02*
X174126428Y-93371429D01*
X174126428Y-93371429D02*
X173983571Y-93371429D01*
X175483571Y-92371428D02*
X175483571Y-92228571D01*
X175483571Y-92228571D02*
X175412142Y-92085714D01*
X175412142Y-92085714D02*
X175340714Y-92014286D01*
X175340714Y-92014286D02*
X175197857Y-91942857D01*
X175197857Y-91942857D02*
X174912142Y-91871428D01*
X174912142Y-91871428D02*
X174555000Y-91871428D01*
X174555000Y-91871428D02*
X174269285Y-91942857D01*
X174269285Y-91942857D02*
X174126428Y-92014286D01*
X174126428Y-92014286D02*
X174055000Y-92085714D01*
X174055000Y-92085714D02*
X173983571Y-92228571D01*
X173983571Y-92228571D02*
X173983571Y-92371428D01*
X173983571Y-92371428D02*
X174055000Y-92514286D01*
X174055000Y-92514286D02*
X174126428Y-92585714D01*
X174126428Y-92585714D02*
X174269285Y-92657143D01*
X174269285Y-92657143D02*
X174555000Y-92728571D01*
X174555000Y-92728571D02*
X174912142Y-92728571D01*
X174912142Y-92728571D02*
X175197857Y-92657143D01*
X175197857Y-92657143D02*
X175340714Y-92585714D01*
X175340714Y-92585714D02*
X175412142Y-92514286D01*
X175412142Y-92514286D02*
X175483571Y-92371428D01*
X152242857Y-69416428D02*
X152242857Y-67916428D01*
X151528571Y-69416428D02*
X151528571Y-67916428D01*
X151528571Y-67916428D02*
X150671428Y-69416428D01*
X150671428Y-69416428D02*
X150671428Y-67916428D01*
X152657142Y-114816428D02*
X152371428Y-114816428D01*
X152371428Y-114816428D02*
X152228571Y-114887857D01*
X152228571Y-114887857D02*
X152085714Y-115030714D01*
X152085714Y-115030714D02*
X152014285Y-115316428D01*
X152014285Y-115316428D02*
X152014285Y-115816428D01*
X152014285Y-115816428D02*
X152085714Y-116102142D01*
X152085714Y-116102142D02*
X152228571Y-116245000D01*
X152228571Y-116245000D02*
X152371428Y-116316428D01*
X152371428Y-116316428D02*
X152657142Y-116316428D01*
X152657142Y-116316428D02*
X152800000Y-116245000D01*
X152800000Y-116245000D02*
X152942857Y-116102142D01*
X152942857Y-116102142D02*
X153014285Y-115816428D01*
X153014285Y-115816428D02*
X153014285Y-115316428D01*
X153014285Y-115316428D02*
X152942857Y-115030714D01*
X152942857Y-115030714D02*
X152800000Y-114887857D01*
X152800000Y-114887857D02*
X152657142Y-114816428D01*
X151371428Y-114816428D02*
X151371428Y-116030714D01*
X151371428Y-116030714D02*
X151299999Y-116173571D01*
X151299999Y-116173571D02*
X151228571Y-116245000D01*
X151228571Y-116245000D02*
X151085713Y-116316428D01*
X151085713Y-116316428D02*
X150799999Y-116316428D01*
X150799999Y-116316428D02*
X150657142Y-116245000D01*
X150657142Y-116245000D02*
X150585713Y-116173571D01*
X150585713Y-116173571D02*
X150514285Y-116030714D01*
X150514285Y-116030714D02*
X150514285Y-114816428D01*
X150014284Y-114816428D02*
X149157142Y-114816428D01*
X149585713Y-116316428D02*
X149585713Y-114816428D01*
D11*
X154723809Y-68093333D02*
X153200000Y-68093333D01*
X154623809Y-116993333D02*
X153100000Y-116993333D01*
X149523809Y-68093333D02*
X148000000Y-68093333D01*
X148761904Y-68855238D02*
X148761904Y-67331428D01*
X149623809Y-116893333D02*
X148100000Y-116893333D01*
X148861904Y-117655238D02*
X148861904Y-116131428D01*
%LPC*%
D12*
G04 #@! TO.C,J2*
X153900000Y-119000000D03*
D13*
X151360000Y-119000000D03*
X148820000Y-119000000D03*
G04 #@! TD*
D12*
G04 #@! TO.C,J1*
X153900000Y-66000000D03*
D13*
X151360000Y-66000000D03*
X148820000Y-66000000D03*
G04 #@! TD*
%LPD*%
M02*
