G04 #@! TF.GenerationSoftware,KiCad,Pcbnew,7.0.2-6a45011f42~172~ubuntu22.04.1*
G04 #@! TF.CreationDate,2023-05-13T10:54:30-06:00*
G04 #@! TF.ProjectId,ring-50mm,72696e67-2d35-4306-9d6d-2e6b69636164,rev?*
G04 #@! TF.SameCoordinates,Original*
G04 #@! TF.FileFunction,Legend,Top*
G04 #@! TF.FilePolarity,Positive*
%FSLAX46Y46*%
G04 Gerber Fmt 4.6, Leading zero omitted, Abs format (unit mm)*
G04 Created by KiCad (PCBNEW 7.0.2-6a45011f42~172~ubuntu22.04.1) date 2023-05-13 10:54:30*
%MOMM*%
%LPD*%
G01*
G04 APERTURE LIST*
G04 Aperture macros list*
%AMRoundRect*
0 Rectangle with rounded corners*
0 $1 Rounding radius*
0 $2 $3 $4 $5 $6 $7 $8 $9 X,Y pos of 4 corners*
0 Add a 4 corners polygon primitive as box body*
4,1,4,$2,$3,$4,$5,$6,$7,$8,$9,$2,$3,0*
0 Add four circle primitives for the rounded corners*
1,1,$1+$1,$2,$3*
1,1,$1+$1,$4,$5*
1,1,$1+$1,$6,$7*
1,1,$1+$1,$8,$9*
0 Add four rect primitives between the rounded corners*
20,1,$1+$1,$2,$3,$4,$5,0*
20,1,$1+$1,$4,$5,$6,$7,0*
20,1,$1+$1,$6,$7,$8,$9,0*
20,1,$1+$1,$8,$9,$2,$3,0*%
G04 Aperture macros list end*
%ADD10C,0.150000*%
%ADD11C,0.120000*%
%ADD12RoundRect,0.050000X-0.082356X0.307356X-0.307356X-0.082356X0.082356X-0.307356X0.307356X0.082356X0*%
%ADD13RoundRect,0.190000X0.219203X0.021213X0.021213X0.219203X-0.219203X-0.021213X-0.021213X-0.219203X0*%
%ADD14RoundRect,0.190000X-0.217224X0.036244X-0.077224X-0.206244X0.217224X-0.036244X0.077224X0.206244X0*%
%ADD15RoundRect,0.050000X0.159099X-0.275568X0.275568X0.159099X-0.159099X0.275568X-0.275568X-0.159099X0*%
%ADD16RoundRect,0.190000X-0.140000X-0.170000X0.140000X-0.170000X0.140000X0.170000X-0.140000X0.170000X0*%
%ADD17RoundRect,0.050000X0.318198X0.000000X0.000000X0.318198X-0.318198X0.000000X0.000000X-0.318198X0*%
%ADD18RoundRect,0.050000X0.000000X0.318198X-0.318198X0.000000X0.000000X-0.318198X0.318198X0.000000X0*%
%ADD19RoundRect,0.050000X0.000000X-0.318198X0.318198X0.000000X0.000000X0.318198X-0.318198X0.000000X0*%
%ADD20RoundRect,0.050000X0.082356X0.307356X-0.307356X0.082356X-0.082356X-0.307356X0.307356X-0.082356X0*%
%ADD21RoundRect,0.190000X0.217224X-0.036244X0.077224X0.206244X-0.217224X0.036244X-0.077224X-0.206244X0*%
%ADD22RoundRect,0.300000X0.475000X-0.250000X0.475000X0.250000X-0.475000X0.250000X-0.475000X-0.250000X0*%
%ADD23RoundRect,0.190000X-0.077224X0.206244X-0.217224X-0.036244X0.077224X-0.206244X0.217224X0.036244X0*%
%ADD24RoundRect,0.190000X0.091230X0.200442X-0.179229X0.127973X-0.091230X-0.200442X0.179229X-0.127973X0*%
%ADD25RoundRect,0.050000X-0.275568X0.159099X-0.159099X-0.275568X0.275568X-0.159099X0.159099X0.275568X0*%
%ADD26RoundRect,0.190000X0.179229X0.127973X-0.091230X0.200442X-0.179229X-0.127973X0.091230X-0.200442X0*%
%ADD27RoundRect,0.050000X0.082356X-0.307356X0.307356X0.082356X-0.082356X0.307356X-0.307356X-0.082356X0*%
%ADD28RoundRect,0.050000X0.275568X-0.159099X0.159099X0.275568X-0.275568X0.159099X-0.159099X-0.275568X0*%
%ADD29RoundRect,0.190000X-0.206244X-0.077224X0.036244X-0.217224X0.206244X0.077224X-0.036244X0.217224X0*%
%ADD30RoundRect,0.190000X0.077224X-0.206244X0.217224X0.036244X-0.077224X0.206244X-0.217224X-0.036244X0*%
%ADD31RoundRect,0.050000X-0.082356X-0.307356X0.307356X-0.082356X0.082356X0.307356X-0.307356X0.082356X0*%
%ADD32RoundRect,0.190000X0.036244X0.217224X-0.206244X0.077224X-0.036244X-0.217224X0.206244X-0.077224X0*%
%ADD33RoundRect,0.190000X-0.036244X-0.217224X0.206244X-0.077224X0.036244X0.217224X-0.206244X0.077224X0*%
%ADD34RoundRect,0.287500X-0.237500X0.250000X-0.237500X-0.250000X0.237500X-0.250000X0.237500X0.250000X0*%
%ADD35RoundRect,0.050000X-0.275568X-0.159099X0.159099X-0.275568X0.275568X0.159099X-0.159099X0.275568X0*%
%ADD36RoundRect,0.050000X0.225000X0.225000X-0.225000X0.225000X-0.225000X-0.225000X0.225000X-0.225000X0*%
%ADD37RoundRect,0.050000X-0.159099X0.275568X-0.275568X-0.159099X0.159099X-0.275568X0.275568X0.159099X0*%
%ADD38RoundRect,0.190000X0.140000X0.170000X-0.140000X0.170000X-0.140000X-0.170000X0.140000X-0.170000X0*%
%ADD39RoundRect,0.190000X-0.127973X0.179229X-0.200442X-0.091230X0.127973X-0.179229X0.200442X0.091230X0*%
%ADD40RoundRect,0.050000X0.159099X0.275568X-0.275568X0.159099X-0.159099X-0.275568X0.275568X-0.159099X0*%
%ADD41RoundRect,0.050000X0.275568X0.159099X-0.159099X0.275568X-0.275568X-0.159099X0.159099X-0.275568X0*%
%ADD42RoundRect,0.190000X-0.179229X-0.127973X0.091230X-0.200442X0.179229X0.127973X-0.091230X0.200442X0*%
%ADD43RoundRect,0.190000X-0.091230X-0.200442X0.179229X-0.127973X0.091230X0.200442X-0.179229X0.127973X0*%
%ADD44RoundRect,0.050000X-0.307356X0.082356X-0.082356X-0.307356X0.307356X-0.082356X0.082356X0.307356X0*%
%ADD45RoundRect,0.190000X-0.219203X-0.021213X-0.021213X-0.219203X0.219203X0.021213X0.021213X0.219203X0*%
%ADD46RoundRect,0.050000X0.307356X0.082356X-0.082356X0.307356X-0.307356X-0.082356X0.082356X-0.307356X0*%
%ADD47RoundRect,0.050000X-0.225000X0.225000X-0.225000X-0.225000X0.225000X-0.225000X0.225000X0.225000X0*%
%ADD48RoundRect,0.190000X-0.170000X0.140000X-0.170000X-0.140000X0.170000X-0.140000X0.170000X0.140000X0*%
%ADD49RoundRect,0.190000X0.021213X-0.219203X0.219203X-0.021213X-0.021213X0.219203X-0.219203X0.021213X0*%
%ADD50RoundRect,0.190000X-0.200442X0.091230X-0.127973X-0.179229X0.200442X-0.091230X0.127973X0.179229X0*%
%ADD51RoundRect,0.050000X-0.225000X-0.225000X0.225000X-0.225000X0.225000X0.225000X-0.225000X0.225000X0*%
%ADD52RoundRect,0.050000X-0.318198X0.000000X0.000000X-0.318198X0.318198X0.000000X0.000000X0.318198X0*%
%ADD53RoundRect,0.050000X-0.850000X0.850000X-0.850000X-0.850000X0.850000X-0.850000X0.850000X0.850000X0*%
%ADD54O,1.800000X1.800000*%
%ADD55RoundRect,0.190000X0.127973X-0.179229X0.200442X0.091230X-0.127973X0.179229X-0.200442X-0.091230X0*%
%ADD56RoundRect,0.190000X-0.021213X0.219203X-0.219203X0.021213X0.021213X-0.219203X0.219203X-0.021213X0*%
%ADD57RoundRect,0.050000X0.225000X-0.225000X0.225000X0.225000X-0.225000X0.225000X-0.225000X-0.225000X0*%
%ADD58RoundRect,0.190000X0.206244X0.077224X-0.036244X0.217224X-0.206244X-0.077224X0.036244X-0.217224X0*%
%ADD59RoundRect,0.050000X-0.307356X-0.082356X0.082356X-0.307356X0.307356X0.082356X-0.082356X0.307356X0*%
%ADD60RoundRect,0.190000X0.170000X-0.140000X0.170000X0.140000X-0.170000X0.140000X-0.170000X-0.140000X0*%
%ADD61RoundRect,0.050000X-0.159099X-0.275568X0.275568X-0.159099X0.159099X0.275568X-0.275568X0.159099X0*%
%ADD62RoundRect,0.050000X0.307356X-0.082356X0.082356X0.307356X-0.307356X0.082356X-0.082356X-0.307356X0*%
%ADD63RoundRect,0.190000X0.200442X-0.091230X0.127973X0.179229X-0.200442X0.091230X-0.127973X-0.179229X0*%
G04 APERTURE END LIST*
D10*
X154638095Y-120196666D02*
X155400000Y-120196666D01*
X147338095Y-67096666D02*
X148100000Y-67096666D01*
X147719047Y-67477619D02*
X147719047Y-66715714D01*
X155238095Y-69377619D02*
X155238095Y-68377619D01*
X155714285Y-69377619D02*
X155714285Y-68377619D01*
X155714285Y-68377619D02*
X156285713Y-69377619D01*
X156285713Y-69377619D02*
X156285713Y-68377619D01*
X154638095Y-117796666D02*
X155400000Y-117796666D01*
X147338095Y-117896666D02*
X148100000Y-117896666D01*
X147719047Y-118277619D02*
X147719047Y-117515714D01*
X154638095Y-67196666D02*
X155400000Y-67196666D01*
X152928571Y-115877619D02*
X153119047Y-115877619D01*
X153119047Y-115877619D02*
X153214285Y-115925238D01*
X153214285Y-115925238D02*
X153309523Y-116020476D01*
X153309523Y-116020476D02*
X153357142Y-116210952D01*
X153357142Y-116210952D02*
X153357142Y-116544285D01*
X153357142Y-116544285D02*
X153309523Y-116734761D01*
X153309523Y-116734761D02*
X153214285Y-116830000D01*
X153214285Y-116830000D02*
X153119047Y-116877619D01*
X153119047Y-116877619D02*
X152928571Y-116877619D01*
X152928571Y-116877619D02*
X152833333Y-116830000D01*
X152833333Y-116830000D02*
X152738095Y-116734761D01*
X152738095Y-116734761D02*
X152690476Y-116544285D01*
X152690476Y-116544285D02*
X152690476Y-116210952D01*
X152690476Y-116210952D02*
X152738095Y-116020476D01*
X152738095Y-116020476D02*
X152833333Y-115925238D01*
X152833333Y-115925238D02*
X152928571Y-115877619D01*
X153785714Y-115877619D02*
X153785714Y-116687142D01*
X153785714Y-116687142D02*
X153833333Y-116782380D01*
X153833333Y-116782380D02*
X153880952Y-116830000D01*
X153880952Y-116830000D02*
X153976190Y-116877619D01*
X153976190Y-116877619D02*
X154166666Y-116877619D01*
X154166666Y-116877619D02*
X154261904Y-116830000D01*
X154261904Y-116830000D02*
X154309523Y-116782380D01*
X154309523Y-116782380D02*
X154357142Y-116687142D01*
X154357142Y-116687142D02*
X154357142Y-115877619D01*
X154690476Y-115877619D02*
X155261904Y-115877619D01*
X154976190Y-116877619D02*
X154976190Y-115877619D01*
X154538095Y-64796666D02*
X155300000Y-64796666D01*
X147338095Y-64896666D02*
X148100000Y-64896666D01*
X147719047Y-65277619D02*
X147719047Y-64515714D01*
X147338095Y-120096666D02*
X148100000Y-120096666D01*
X147719047Y-120477619D02*
X147719047Y-119715714D01*
G04 #@! TO.C,D21*
X132093018Y-80158975D02*
X131573403Y-79858975D01*
X131573403Y-79858975D02*
X131323403Y-80291987D01*
X131556415Y-80888397D02*
X131543018Y-81111603D01*
X131543018Y-81111603D02*
X131369813Y-81011603D01*
X131369813Y-81011603D02*
X131556415Y-80888397D01*
X133032248Y-80932180D02*
X132232248Y-82317820D01*
X132232248Y-82317820D02*
X130846608Y-81517820D01*
X130846608Y-81517820D02*
X131646608Y-80132180D01*
X131646608Y-80132180D02*
X133032248Y-80932180D01*
D11*
G04 #@! TO.C,C16*
X134288807Y-109758695D02*
X134136304Y-109606192D01*
X134797924Y-109249578D02*
X134645421Y-109097075D01*
G04 #@! TO.C,C5*
X172440810Y-80214111D02*
X172548646Y-80400889D01*
X171817272Y-80574111D02*
X171925108Y-80760889D01*
D10*
G04 #@! TO.C,D8*
X173285882Y-99367881D02*
X173865438Y-99523173D01*
X173865438Y-99523173D02*
X173994847Y-99040210D01*
X173615412Y-98524430D02*
X173570583Y-98305363D01*
X173570583Y-98305363D02*
X173763768Y-98357127D01*
X173763768Y-98357127D02*
X173615412Y-98524430D01*
X172178535Y-98864113D02*
X172592646Y-97318632D01*
X172592646Y-97318632D02*
X174138127Y-97732743D01*
X174138127Y-97732743D02*
X173724016Y-99278224D01*
X173724016Y-99278224D02*
X172178535Y-98864113D01*
D11*
G04 #@! TO.C,C1*
X151312164Y-68140000D02*
X151527836Y-68140000D01*
X151312164Y-68860000D02*
X151527836Y-68860000D01*
D10*
G04 #@! TO.C,D4*
X168324851Y-76989361D02*
X168749116Y-76565097D01*
X168749116Y-76565097D02*
X168395562Y-76211544D01*
X167759166Y-76282254D02*
X167547034Y-76211544D01*
X167547034Y-76211544D02*
X167688455Y-76070122D01*
X167688455Y-76070122D02*
X167759166Y-76282254D01*
X167334902Y-77696468D02*
X166203531Y-76565097D01*
X166203531Y-76565097D02*
X167334902Y-75433726D01*
X167334902Y-75433726D02*
X168466273Y-76565097D01*
X168466273Y-76565097D02*
X167334902Y-77696468D01*
G04 #@! TO.C,D22*
X135939361Y-75575148D02*
X135515097Y-75150883D01*
X135515097Y-75150883D02*
X135161544Y-75504437D01*
X135232254Y-76140833D02*
X135161544Y-76352965D01*
X135161544Y-76352965D02*
X135020122Y-76211544D01*
X135020122Y-76211544D02*
X135232254Y-76140833D01*
X136646468Y-76565097D02*
X135515097Y-77696468D01*
X135515097Y-77696468D02*
X134383726Y-76565097D01*
X134383726Y-76565097D02*
X135515097Y-75433726D01*
X135515097Y-75433726D02*
X136646468Y-76565097D01*
G04 #@! TO.C,D10*
X166910638Y-109374851D02*
X167334902Y-109799116D01*
X167334902Y-109799116D02*
X167688455Y-109445562D01*
X167617745Y-108809166D02*
X167688455Y-108597034D01*
X167688455Y-108597034D02*
X167829877Y-108738455D01*
X167829877Y-108738455D02*
X167617745Y-108809166D01*
X166203531Y-108384902D02*
X167334902Y-107253531D01*
X167334902Y-107253531D02*
X168466273Y-108384902D01*
X168466273Y-108384902D02*
X167334902Y-109516273D01*
X167334902Y-109516273D02*
X166203531Y-108384902D01*
G04 #@! TO.C,D23*
X140841025Y-72143018D02*
X140541025Y-71623403D01*
X140541025Y-71623403D02*
X140108013Y-71873403D01*
X140011603Y-72506415D02*
X139888397Y-72693018D01*
X139888397Y-72693018D02*
X139788397Y-72519813D01*
X139788397Y-72519813D02*
X140011603Y-72506415D01*
X141267820Y-73282248D02*
X139882180Y-74082248D01*
X139882180Y-74082248D02*
X139082180Y-72696608D01*
X139082180Y-72696608D02*
X140467820Y-71896608D01*
X140467820Y-71896608D02*
X141267820Y-73282248D01*
D11*
G04 #@! TO.C,C17*
X130399189Y-104735889D02*
X130291353Y-104549111D01*
X131022727Y-104375889D02*
X130914891Y-104189111D01*
G04 #@! TO.C,C25*
X153165000Y-69311252D02*
X153165000Y-68788748D01*
X154635000Y-69311252D02*
X154635000Y-68788748D01*
G04 #@! TO.C,C9*
X172548646Y-104549111D02*
X172440810Y-104735889D01*
X171925108Y-104189111D02*
X171817272Y-104375889D01*
G04 #@! TO.C,C12*
X157822522Y-115952894D02*
X157614199Y-116008714D01*
X157636173Y-115257428D02*
X157427850Y-115313248D01*
D10*
G04 #@! TO.C,D18*
X129046479Y-97436030D02*
X128466923Y-97591321D01*
X128466923Y-97591321D02*
X128596333Y-98074284D01*
X129182823Y-98331245D02*
X129331180Y-98498548D01*
X129331180Y-98498548D02*
X129137994Y-98550312D01*
X129137994Y-98550312D02*
X129182823Y-98331245D01*
X130257353Y-97318632D02*
X130671464Y-98864113D01*
X130671464Y-98864113D02*
X129125983Y-99278224D01*
X129125983Y-99278224D02*
X128711872Y-97732743D01*
X128711872Y-97732743D02*
X130257353Y-97318632D01*
D11*
G04 #@! TO.C,C14*
X145225800Y-116008714D02*
X145017477Y-115952894D01*
X145412149Y-115313248D02*
X145203826Y-115257428D01*
D10*
G04 #@! TO.C,D9*
X170756981Y-104791025D02*
X171276596Y-105091025D01*
X171276596Y-105091025D02*
X171526596Y-104658013D01*
X171293584Y-104061603D02*
X171306981Y-103838397D01*
X171306981Y-103838397D02*
X171480186Y-103938397D01*
X171480186Y-103938397D02*
X171293584Y-104061603D01*
X169817751Y-104017820D02*
X170617751Y-102632180D01*
X170617751Y-102632180D02*
X172003391Y-103432180D01*
X172003391Y-103432180D02*
X171203391Y-104817820D01*
X171203391Y-104817820D02*
X169817751Y-104017820D01*
G04 #@! TO.C,D6*
X173803520Y-87513969D02*
X174383076Y-87358678D01*
X174383076Y-87358678D02*
X174253666Y-86875715D01*
X173667176Y-86618754D02*
X173518819Y-86451451D01*
X173518819Y-86451451D02*
X173712005Y-86399687D01*
X173712005Y-86399687D02*
X173667176Y-86618754D01*
X172592646Y-87631367D02*
X172178535Y-86085886D01*
X172178535Y-86085886D02*
X173724016Y-85671775D01*
X173724016Y-85671775D02*
X174138127Y-87217256D01*
X174138127Y-87217256D02*
X172592646Y-87631367D01*
D11*
G04 #@! TO.C,C3*
X163494111Y-71346353D02*
X163680889Y-71454189D01*
X163134111Y-71969891D02*
X163320889Y-72077727D01*
G04 #@! TO.C,C21*
X130291353Y-80400889D02*
X130399189Y-80214111D01*
X130914891Y-80760889D02*
X131022727Y-80574111D01*
D10*
G04 #@! TO.C,D11*
X162008975Y-112806981D02*
X162308975Y-113326596D01*
X162308975Y-113326596D02*
X162741987Y-113076596D01*
X162838397Y-112443584D02*
X162961603Y-112256981D01*
X162961603Y-112256981D02*
X163061603Y-112430186D01*
X163061603Y-112430186D02*
X162838397Y-112443584D01*
X161582180Y-111667751D02*
X162967820Y-110867751D01*
X162967820Y-110867751D02*
X163767820Y-112253391D01*
X163767820Y-112253391D02*
X162382180Y-113053391D01*
X162382180Y-113053391D02*
X161582180Y-111667751D01*
D11*
G04 #@! TO.C,C11*
X163680889Y-113495810D02*
X163494111Y-113603646D01*
X163320889Y-112872272D02*
X163134111Y-112980108D01*
G04 #@! TO.C,C23*
X139159111Y-71454189D02*
X139345889Y-71346353D01*
X139519111Y-72077727D02*
X139705889Y-71969891D01*
G04 #@! TO.C,R2*
X149622500Y-115132776D02*
X149622500Y-115642224D01*
X148577500Y-115132776D02*
X148577500Y-115642224D01*
D10*
G04 #@! TO.C,D14*
X144532118Y-114335882D02*
X144376826Y-114915438D01*
X144376826Y-114915438D02*
X144859789Y-115044847D01*
X145375569Y-114665412D02*
X145594636Y-114620583D01*
X145594636Y-114620583D02*
X145542872Y-114813768D01*
X145542872Y-114813768D02*
X145375569Y-114665412D01*
X145035886Y-113228535D02*
X146581367Y-113642646D01*
X146581367Y-113642646D02*
X146167256Y-115188127D01*
X146167256Y-115188127D02*
X144621775Y-114774016D01*
X144621775Y-114774016D02*
X145035886Y-113228535D01*
G04 #@! TO.C,D1*
X152425000Y-69575000D02*
X152425000Y-68975000D01*
X152425000Y-68975000D02*
X151925000Y-68975000D01*
X151525000Y-69475000D02*
X151325000Y-69575000D01*
X151325000Y-69575000D02*
X151325000Y-69375000D01*
X151325000Y-69375000D02*
X151525000Y-69475000D01*
X152225000Y-70775000D02*
X150625000Y-70775000D01*
X150625000Y-70775000D02*
X150625000Y-69175000D01*
X150625000Y-69175000D02*
X152225000Y-69175000D01*
X152225000Y-69175000D02*
X152225000Y-70775000D01*
G04 #@! TO.C,D20*
X129564117Y-85582118D02*
X128984561Y-85426826D01*
X128984561Y-85426826D02*
X128855152Y-85909789D01*
X129234587Y-86425569D02*
X129279416Y-86644636D01*
X129279416Y-86644636D02*
X129086231Y-86592872D01*
X129086231Y-86592872D02*
X129234587Y-86425569D01*
X130671464Y-86085886D02*
X130257353Y-87631367D01*
X130257353Y-87631367D02*
X128711872Y-87217256D01*
X128711872Y-87217256D02*
X129125983Y-85671775D01*
X129125983Y-85671775D02*
X130671464Y-86085886D01*
D11*
G04 #@! TO.C,C13*
X151527836Y-116810000D02*
X151312164Y-116810000D01*
X151527836Y-116090000D02*
X151312164Y-116090000D01*
G04 #@! TO.C,C8*
X174953714Y-98669199D02*
X174897894Y-98877522D01*
X174258248Y-98482850D02*
X174202428Y-98691173D01*
D10*
G04 #@! TO.C,D24*
X146463969Y-70096479D02*
X146308678Y-69516923D01*
X146308678Y-69516923D02*
X145825715Y-69646333D01*
X145568754Y-70232823D02*
X145401451Y-70381180D01*
X145401451Y-70381180D02*
X145349687Y-70187994D01*
X145349687Y-70187994D02*
X145568754Y-70232823D01*
X146581367Y-71307353D02*
X145035886Y-71721464D01*
X145035886Y-71721464D02*
X144621775Y-70175983D01*
X144621775Y-70175983D02*
X146167256Y-69761872D01*
X146167256Y-69761872D02*
X146581367Y-71307353D01*
G04 #@! TO.C,D2*
X158317881Y-70614117D02*
X158473173Y-70034561D01*
X158473173Y-70034561D02*
X157990210Y-69905152D01*
X157474430Y-70284587D02*
X157255363Y-70329416D01*
X157255363Y-70329416D02*
X157307127Y-70136231D01*
X157307127Y-70136231D02*
X157474430Y-70284587D01*
X157814113Y-71721464D02*
X156268632Y-71307353D01*
X156268632Y-71307353D02*
X156682743Y-69761872D01*
X156682743Y-69761872D02*
X158228224Y-70175983D01*
X158228224Y-70175983D02*
X157814113Y-71721464D01*
D11*
G04 #@! TO.C,C2*
X157614199Y-68941285D02*
X157822522Y-68997105D01*
X157427850Y-69636751D02*
X157636173Y-69692571D01*
G04 #@! TO.C,C24*
X145017477Y-68997105D02*
X145225800Y-68941285D01*
X145203826Y-69692571D02*
X145412149Y-69636751D01*
D10*
G04 #@! TO.C,D17*
X131093018Y-103058975D02*
X130573403Y-103358975D01*
X130573403Y-103358975D02*
X130823403Y-103791987D01*
X131456415Y-103888397D02*
X131643018Y-104011603D01*
X131643018Y-104011603D02*
X131469813Y-104111603D01*
X131469813Y-104111603D02*
X131456415Y-103888397D01*
X132232248Y-102632180D02*
X133032248Y-104017820D01*
X133032248Y-104017820D02*
X131646608Y-104817820D01*
X131646608Y-104817820D02*
X130846608Y-103432180D01*
X130846608Y-103432180D02*
X132232248Y-102632180D01*
D11*
G04 #@! TO.C,C4*
X168551192Y-75191304D02*
X168703695Y-75343807D01*
X168042075Y-75700421D02*
X168194578Y-75852924D01*
D10*
G04 #@! TO.C,D3*
X163741025Y-73143018D02*
X164041025Y-72623403D01*
X164041025Y-72623403D02*
X163608013Y-72373403D01*
X163011603Y-72606415D02*
X162788397Y-72593018D01*
X162788397Y-72593018D02*
X162888397Y-72419813D01*
X162888397Y-72419813D02*
X163011603Y-72606415D01*
X162967820Y-74082248D02*
X161582180Y-73282248D01*
X161582180Y-73282248D02*
X162382180Y-71896608D01*
X162382180Y-71896608D02*
X163767820Y-72696608D01*
X163767820Y-72696608D02*
X162967820Y-74082248D01*
G04 #@! TO.C,D19*
X128525000Y-91475000D02*
X127925000Y-91475000D01*
X127925000Y-91475000D02*
X127925000Y-91975000D01*
X128425000Y-92375000D02*
X128525000Y-92575000D01*
X128525000Y-92575000D02*
X128325000Y-92575000D01*
X128325000Y-92575000D02*
X128425000Y-92375000D01*
X129725000Y-91675000D02*
X128125000Y-91675000D01*
X128125000Y-91675000D02*
X128125000Y-93275000D01*
X128125000Y-93275000D02*
X129725000Y-93275000D01*
X129725000Y-93275000D02*
X129725000Y-91675000D01*
D11*
G04 #@! TO.C,C7*
X175755000Y-92367164D02*
X175755000Y-92582836D01*
X175035000Y-92367164D02*
X175035000Y-92582836D01*
G04 #@! TO.C,C22*
X134136304Y-75343807D02*
X134288807Y-75191304D01*
X134645421Y-75852924D02*
X134797924Y-75700421D01*
G04 #@! TO.C,C6*
X174897894Y-86072477D02*
X174953714Y-86280800D01*
X174202428Y-86258826D02*
X174258248Y-86467149D01*
G04 #@! TO.C,R1*
X149222500Y-69332776D02*
X149222500Y-69842224D01*
X148177500Y-69332776D02*
X148177500Y-69842224D01*
D10*
G04 #@! TO.C,D13*
X150425000Y-115375000D02*
X150425000Y-115975000D01*
X150425000Y-115975000D02*
X150925000Y-115975000D01*
X151325000Y-115475000D02*
X151525000Y-115375000D01*
X151525000Y-115375000D02*
X151525000Y-115575000D01*
X151525000Y-115575000D02*
X151325000Y-115475000D01*
X150625000Y-114175000D02*
X152225000Y-114175000D01*
X152225000Y-114175000D02*
X152225000Y-115775000D01*
X152225000Y-115775000D02*
X150625000Y-115775000D01*
X150625000Y-115775000D02*
X150625000Y-114175000D01*
G04 #@! TO.C,D16*
X134525148Y-107960638D02*
X134100883Y-108384902D01*
X134100883Y-108384902D02*
X134454437Y-108738455D01*
X135090833Y-108667745D02*
X135302965Y-108738455D01*
X135302965Y-108738455D02*
X135161544Y-108879877D01*
X135161544Y-108879877D02*
X135090833Y-108667745D01*
X135515097Y-107253531D02*
X136646468Y-108384902D01*
X136646468Y-108384902D02*
X135515097Y-109516273D01*
X135515097Y-109516273D02*
X134383726Y-108384902D01*
X134383726Y-108384902D02*
X135515097Y-107253531D01*
D11*
G04 #@! TO.C,C20*
X127886285Y-86280800D02*
X127942105Y-86072477D01*
X128581751Y-86467149D02*
X128637571Y-86258826D01*
G04 #@! TO.C,C10*
X168703695Y-109606192D02*
X168551192Y-109758695D01*
X168194578Y-109097075D02*
X168042075Y-109249578D01*
D10*
G04 #@! TO.C,D7*
X174325000Y-93475000D02*
X174925000Y-93475000D01*
X174925000Y-93475000D02*
X174925000Y-92975000D01*
X174425000Y-92575000D02*
X174325000Y-92375000D01*
X174325000Y-92375000D02*
X174525000Y-92375000D01*
X174525000Y-92375000D02*
X174425000Y-92575000D01*
X173125000Y-93275000D02*
X174725000Y-93275000D01*
X174725000Y-93275000D02*
X174725000Y-91675000D01*
X174725000Y-91675000D02*
X173125000Y-91675000D01*
X173125000Y-91675000D02*
X173125000Y-93275000D01*
D11*
G04 #@! TO.C,C15*
X139345889Y-113603646D02*
X139159111Y-113495810D01*
X139705889Y-112980108D02*
X139519111Y-112872272D01*
D10*
G04 #@! TO.C,D15*
X139108975Y-111806981D02*
X138808975Y-112326596D01*
X138808975Y-112326596D02*
X139241987Y-112576596D01*
X139838397Y-112343584D02*
X140061603Y-112356981D01*
X140061603Y-112356981D02*
X139961603Y-112530186D01*
X139961603Y-112530186D02*
X139838397Y-112343584D01*
X139882180Y-110867751D02*
X141267820Y-111667751D01*
X141267820Y-111667751D02*
X140467820Y-113053391D01*
X140467820Y-113053391D02*
X139082180Y-112253391D01*
X139082180Y-112253391D02*
X139882180Y-110867751D01*
D11*
G04 #@! TO.C,C19*
X127085000Y-92582836D02*
X127085000Y-92367164D01*
X127805000Y-92582836D02*
X127805000Y-92367164D01*
D10*
G04 #@! TO.C,D12*
X156386030Y-114853520D02*
X156541321Y-115433076D01*
X156541321Y-115433076D02*
X157024284Y-115303666D01*
X157281245Y-114717176D02*
X157448548Y-114568819D01*
X157448548Y-114568819D02*
X157500312Y-114762005D01*
X157500312Y-114762005D02*
X157281245Y-114717176D01*
X156268632Y-113642646D02*
X157814113Y-113228535D01*
X157814113Y-113228535D02*
X158228224Y-114774016D01*
X158228224Y-114774016D02*
X156682743Y-115188127D01*
X156682743Y-115188127D02*
X156268632Y-113642646D01*
G04 #@! TO.C,D5*
X171756981Y-81891025D02*
X172276596Y-81591025D01*
X172276596Y-81591025D02*
X172026596Y-81158013D01*
X171393584Y-81061603D02*
X171206981Y-80938397D01*
X171206981Y-80938397D02*
X171380186Y-80838397D01*
X171380186Y-80838397D02*
X171393584Y-81061603D01*
X170617751Y-82317820D02*
X169817751Y-80932180D01*
X169817751Y-80932180D02*
X171203391Y-80132180D01*
X171203391Y-80132180D02*
X172003391Y-81517820D01*
X172003391Y-81517820D02*
X170617751Y-82317820D01*
D11*
G04 #@! TO.C,C18*
X127942105Y-98877522D02*
X127886285Y-98669199D01*
X128637571Y-98691173D02*
X128581751Y-98482850D01*
G04 #@! TD*
%LPC*%
D12*
G04 #@! TO.C,D21*
X132519989Y-81069439D03*
X132094989Y-81805561D03*
X131783867Y-80644439D03*
X131358867Y-81380561D03*
G04 #@! TD*
D13*
G04 #@! TO.C,C16*
X134806525Y-109767296D03*
X134127703Y-109088474D03*
G04 #@! TD*
D14*
G04 #@! TO.C,C5*
X171942959Y-80071808D03*
X172422959Y-80903192D03*
G04 #@! TD*
D15*
G04 #@! TO.C,D8*
X172637814Y-98598948D03*
X172857811Y-97777911D03*
X173458851Y-98818945D03*
X173678848Y-97997908D03*
G04 #@! TD*
D16*
G04 #@! TO.C,C1*
X150940000Y-68500000D03*
X151900000Y-68500000D03*
G04 #@! TD*
D17*
G04 #@! TO.C,D4*
X167334902Y-77166138D03*
X166733861Y-76565097D03*
X167935943Y-76565097D03*
X167334902Y-75964056D03*
G04 #@! TD*
D18*
G04 #@! TO.C,D22*
X136116138Y-76565097D03*
X135515097Y-77166138D03*
X135515097Y-75964056D03*
X134914056Y-76565097D03*
G04 #@! TD*
D19*
G04 #@! TO.C,D10*
X166733861Y-108384902D03*
X167334902Y-107783861D03*
X167334902Y-108985943D03*
X167935943Y-108384902D03*
G04 #@! TD*
D20*
G04 #@! TO.C,D23*
X140755561Y-73144989D03*
X140019439Y-73569989D03*
X140330561Y-72408867D03*
X139594439Y-72833867D03*
G04 #@! TD*
D21*
G04 #@! TO.C,C17*
X130897040Y-104878192D03*
X130417040Y-104046808D03*
G04 #@! TD*
D22*
G04 #@! TO.C,C25*
X153900000Y-70000000D03*
X153900000Y-68100000D03*
G04 #@! TD*
D23*
G04 #@! TO.C,C9*
X172422959Y-104046808D03*
X171942959Y-104878192D03*
G04 #@! TD*
D24*
G04 #@! TO.C,C12*
X158088830Y-115508838D03*
X157161542Y-115757304D03*
G04 #@! TD*
D25*
G04 #@! TO.C,D18*
X129992188Y-97777911D03*
X130212185Y-98598948D03*
X129171151Y-97997908D03*
X129391148Y-98818945D03*
G04 #@! TD*
D26*
G04 #@! TO.C,C14*
X145678457Y-115757304D03*
X144751169Y-115508838D03*
G04 #@! TD*
D27*
G04 #@! TO.C,D9*
X170330010Y-103880561D03*
X170755010Y-103144439D03*
X171066132Y-104305561D03*
X171491132Y-103569439D03*
G04 #@! TD*
D28*
G04 #@! TO.C,D6*
X172857811Y-87172088D03*
X172637814Y-86351051D03*
X173678848Y-86952091D03*
X173458851Y-86131054D03*
G04 #@! TD*
D29*
G04 #@! TO.C,C3*
X162991808Y-71472040D03*
X163823192Y-71952040D03*
G04 #@! TD*
D30*
G04 #@! TO.C,C21*
X130417040Y-80903192D03*
X130897040Y-80071808D03*
G04 #@! TD*
D31*
G04 #@! TO.C,D11*
X162094439Y-111805010D03*
X162830561Y-111380010D03*
X162519439Y-112541132D03*
X163255561Y-112116132D03*
G04 #@! TD*
D32*
G04 #@! TO.C,C11*
X163823192Y-112997959D03*
X162991808Y-113477959D03*
G04 #@! TD*
D33*
G04 #@! TO.C,C23*
X139016808Y-71952040D03*
X139848192Y-71472040D03*
G04 #@! TD*
D34*
G04 #@! TO.C,R2*
X149100000Y-114475000D03*
X149100000Y-116300000D03*
G04 #@! TD*
D35*
G04 #@! TO.C,D14*
X145301051Y-113687814D03*
X146122088Y-113907811D03*
X145081054Y-114508851D03*
X145902091Y-114728848D03*
G04 #@! TD*
D36*
G04 #@! TO.C,D1*
X151850000Y-70400000D03*
X151000000Y-70400000D03*
X151850000Y-69550000D03*
X151000000Y-69550000D03*
G04 #@! TD*
D37*
G04 #@! TO.C,D20*
X130212185Y-86351051D03*
X129992188Y-87172088D03*
X129391148Y-86131054D03*
X129171151Y-86952091D03*
G04 #@! TD*
D38*
G04 #@! TO.C,C13*
X151900000Y-116450000D03*
X150940000Y-116450000D03*
G04 #@! TD*
D39*
G04 #@! TO.C,C8*
X174702304Y-98216542D03*
X174453838Y-99143830D03*
G04 #@! TD*
D40*
G04 #@! TO.C,D24*
X146122088Y-71042188D03*
X145301051Y-71262185D03*
X145902091Y-70221151D03*
X145081054Y-70441148D03*
G04 #@! TD*
D41*
G04 #@! TO.C,D2*
X157548948Y-71262185D03*
X156727911Y-71042188D03*
X157768945Y-70441148D03*
X156947908Y-70221151D03*
G04 #@! TD*
D42*
G04 #@! TO.C,C2*
X157161542Y-69192695D03*
X158088830Y-69441161D03*
G04 #@! TD*
D43*
G04 #@! TO.C,C24*
X144751169Y-69441161D03*
X145678457Y-69192695D03*
G04 #@! TD*
D44*
G04 #@! TO.C,D17*
X132094989Y-103144439D03*
X132519989Y-103880561D03*
X131358867Y-103569439D03*
X131783867Y-104305561D03*
G04 #@! TD*
D45*
G04 #@! TO.C,C4*
X168033474Y-75182703D03*
X168712296Y-75861525D03*
G04 #@! TD*
D46*
G04 #@! TO.C,D3*
X162830561Y-73569989D03*
X162094439Y-73144989D03*
X163255561Y-72833867D03*
X162519439Y-72408867D03*
G04 #@! TD*
D47*
G04 #@! TO.C,D19*
X129350000Y-92050000D03*
X129350000Y-92900000D03*
X128500000Y-92050000D03*
X128500000Y-92900000D03*
G04 #@! TD*
D48*
G04 #@! TO.C,C7*
X175395000Y-91995000D03*
X175395000Y-92955000D03*
G04 #@! TD*
D49*
G04 #@! TO.C,C22*
X134127703Y-75861525D03*
X134806525Y-75182703D03*
G04 #@! TD*
D50*
G04 #@! TO.C,C6*
X174453838Y-85806169D03*
X174702304Y-86733457D03*
G04 #@! TD*
D34*
G04 #@! TO.C,R1*
X148700000Y-68675000D03*
X148700000Y-70500000D03*
G04 #@! TD*
D51*
G04 #@! TO.C,D13*
X151000000Y-114550000D03*
X151850000Y-114550000D03*
X151000000Y-115400000D03*
X151850000Y-115400000D03*
G04 #@! TD*
D52*
G04 #@! TO.C,D16*
X135515097Y-107783861D03*
X136116138Y-108384902D03*
X134914056Y-108384902D03*
X135515097Y-108985943D03*
G04 #@! TD*
D53*
G04 #@! TO.C,J2*
X153900000Y-119000000D03*
D54*
X151360000Y-119000000D03*
X148820000Y-119000000D03*
G04 #@! TD*
D55*
G04 #@! TO.C,C20*
X128137695Y-86733457D03*
X128386161Y-85806169D03*
G04 #@! TD*
D56*
G04 #@! TO.C,C10*
X168712296Y-109088474D03*
X168033474Y-109767296D03*
G04 #@! TD*
D57*
G04 #@! TO.C,D7*
X173500000Y-92900000D03*
X173500000Y-92050000D03*
X174350000Y-92900000D03*
X174350000Y-92050000D03*
G04 #@! TD*
D53*
G04 #@! TO.C,J1*
X153900000Y-66000000D03*
D54*
X151360000Y-66000000D03*
X148820000Y-66000000D03*
G04 #@! TD*
D58*
G04 #@! TO.C,C15*
X139848192Y-113477959D03*
X139016808Y-112997959D03*
G04 #@! TD*
D59*
G04 #@! TO.C,D15*
X140019439Y-111380010D03*
X140755561Y-111805010D03*
X139594439Y-112116132D03*
X140330561Y-112541132D03*
G04 #@! TD*
D60*
G04 #@! TO.C,C19*
X127445000Y-92955000D03*
X127445000Y-91995000D03*
G04 #@! TD*
D61*
G04 #@! TO.C,D12*
X156727911Y-113907811D03*
X157548948Y-113687814D03*
X156947908Y-114728848D03*
X157768945Y-114508851D03*
G04 #@! TD*
D62*
G04 #@! TO.C,D5*
X170755010Y-81805561D03*
X170330010Y-81069439D03*
X171491132Y-81380561D03*
X171066132Y-80644439D03*
G04 #@! TD*
D63*
G04 #@! TO.C,C18*
X128386161Y-99143830D03*
X128137695Y-98216542D03*
G04 #@! TD*
%LPD*%
M02*
