%TF.GenerationSoftware,KiCad,Pcbnew,7.0.2-6a45011f42~172~ubuntu22.04.1*%
%TF.CreationDate,2023-05-13T10:54:32-06:00*%
%TF.ProjectId,ring-50mm,72696e67-2d35-4306-9d6d-2e6b69636164,rev?*%
%TF.SameCoordinates,Original*%
%TF.FileFunction,Drillmap*%
%TF.FilePolarity,Positive*%
%FSLAX45Y45*%
G04 Gerber Fmt 4.5, Leading zero omitted, Abs format (unit mm)*
G04 Created by KiCad (PCBNEW 7.0.2-6a45011f42~172~ubuntu22.04.1) date 2023-05-13 10:54:32*
%MOMM*%
%LPD*%
G01*
G04 APERTURE LIST*
%ADD10C,0.100000*%
%ADD11C,0.200000*%
G04 APERTURE END LIST*
D10*
X15570000Y-12080000D02*
X14700000Y-12080000D01*
X15570000Y-11720000D02*
X15570000Y-12080000D01*
X15570000Y-11720000D02*
G75*
G03*
X15570000Y-6780000I-440000J2470000D01*
G01*
X14700000Y-12080000D02*
X14700000Y-11720000D01*
X15570000Y-6420000D02*
X15570000Y-6780000D01*
X14700000Y-6780000D02*
X14700000Y-6420000D01*
X14700000Y-6780000D02*
G75*
G03*
X14700000Y-11720000I430000J-2470000D01*
G01*
X14700000Y-6420000D02*
X15570000Y-6420000D01*
X17230000Y-9250000D02*
G75*
G03*
X17230000Y-9250000I-2100000J0D01*
G01*
D11*
X12865469Y-12397524D02*
X12865469Y-12197524D01*
X12865469Y-12197524D02*
X12913088Y-12197524D01*
X12913088Y-12197524D02*
X12941660Y-12207048D01*
X12941660Y-12207048D02*
X12960707Y-12226095D01*
X12960707Y-12226095D02*
X12970231Y-12245143D01*
X12970231Y-12245143D02*
X12979755Y-12283238D01*
X12979755Y-12283238D02*
X12979755Y-12311809D01*
X12979755Y-12311809D02*
X12970231Y-12349905D01*
X12970231Y-12349905D02*
X12960707Y-12368952D01*
X12960707Y-12368952D02*
X12941660Y-12388000D01*
X12941660Y-12388000D02*
X12913088Y-12397524D01*
X12913088Y-12397524D02*
X12865469Y-12397524D01*
X13065469Y-12397524D02*
X13065469Y-12264190D01*
X13065469Y-12302286D02*
X13074993Y-12283238D01*
X13074993Y-12283238D02*
X13084517Y-12273714D01*
X13084517Y-12273714D02*
X13103564Y-12264190D01*
X13103564Y-12264190D02*
X13122612Y-12264190D01*
X13189279Y-12397524D02*
X13189279Y-12264190D01*
X13189279Y-12197524D02*
X13179755Y-12207048D01*
X13179755Y-12207048D02*
X13189279Y-12216571D01*
X13189279Y-12216571D02*
X13198803Y-12207048D01*
X13198803Y-12207048D02*
X13189279Y-12197524D01*
X13189279Y-12197524D02*
X13189279Y-12216571D01*
X13313088Y-12397524D02*
X13294041Y-12388000D01*
X13294041Y-12388000D02*
X13284517Y-12368952D01*
X13284517Y-12368952D02*
X13284517Y-12197524D01*
X13417850Y-12397524D02*
X13398803Y-12388000D01*
X13398803Y-12388000D02*
X13389279Y-12368952D01*
X13389279Y-12368952D02*
X13389279Y-12197524D01*
X13646422Y-12397524D02*
X13646422Y-12197524D01*
X13646422Y-12197524D02*
X13713088Y-12340381D01*
X13713088Y-12340381D02*
X13779755Y-12197524D01*
X13779755Y-12197524D02*
X13779755Y-12397524D01*
X13960707Y-12397524D02*
X13960707Y-12292762D01*
X13960707Y-12292762D02*
X13951184Y-12273714D01*
X13951184Y-12273714D02*
X13932136Y-12264190D01*
X13932136Y-12264190D02*
X13894041Y-12264190D01*
X13894041Y-12264190D02*
X13874993Y-12273714D01*
X13960707Y-12388000D02*
X13941660Y-12397524D01*
X13941660Y-12397524D02*
X13894041Y-12397524D01*
X13894041Y-12397524D02*
X13874993Y-12388000D01*
X13874993Y-12388000D02*
X13865469Y-12368952D01*
X13865469Y-12368952D02*
X13865469Y-12349905D01*
X13865469Y-12349905D02*
X13874993Y-12330857D01*
X13874993Y-12330857D02*
X13894041Y-12321333D01*
X13894041Y-12321333D02*
X13941660Y-12321333D01*
X13941660Y-12321333D02*
X13960707Y-12311809D01*
X14055945Y-12264190D02*
X14055945Y-12464190D01*
X14055945Y-12273714D02*
X14074993Y-12264190D01*
X14074993Y-12264190D02*
X14113088Y-12264190D01*
X14113088Y-12264190D02*
X14132136Y-12273714D01*
X14132136Y-12273714D02*
X14141660Y-12283238D01*
X14141660Y-12283238D02*
X14151184Y-12302286D01*
X14151184Y-12302286D02*
X14151184Y-12359428D01*
X14151184Y-12359428D02*
X14141660Y-12378476D01*
X14141660Y-12378476D02*
X14132136Y-12388000D01*
X14132136Y-12388000D02*
X14113088Y-12397524D01*
X14113088Y-12397524D02*
X14074993Y-12397524D01*
X14074993Y-12397524D02*
X14055945Y-12388000D01*
X14236898Y-12378476D02*
X14246422Y-12388000D01*
X14246422Y-12388000D02*
X14236898Y-12397524D01*
X14236898Y-12397524D02*
X14227374Y-12388000D01*
X14227374Y-12388000D02*
X14236898Y-12378476D01*
X14236898Y-12378476D02*
X14236898Y-12397524D01*
X14236898Y-12273714D02*
X14246422Y-12283238D01*
X14246422Y-12283238D02*
X14236898Y-12292762D01*
X14236898Y-12292762D02*
X14227374Y-12283238D01*
X14227374Y-12283238D02*
X14236898Y-12273714D01*
X14236898Y-12273714D02*
X14236898Y-12292762D01*
M02*
