%TF.GenerationSoftware,KiCad,Pcbnew,6.0.5-a6ca702e91~116~ubuntu20.04.1*%
%TF.CreationDate,2022-06-30T21:31:30-06:00*%
%TF.ProjectId,magnet-connector,6d61676e-6574-42d6-936f-6e6e6563746f,rev?*%
%TF.SameCoordinates,Original*%
%TF.FileFunction,Copper,L2,Bot*%
%TF.FilePolarity,Positive*%
%FSLAX46Y46*%
G04 Gerber Fmt 4.6, Leading zero omitted, Abs format (unit mm)*
G04 Created by KiCad (PCBNEW 6.0.5-a6ca702e91~116~ubuntu20.04.1) date 2022-06-30 21:31:30*
%MOMM*%
%LPD*%
G01*
G04 APERTURE LIST*
G04 Aperture macros list*
%AMRoundRect*
0 Rectangle with rounded corners*
0 $1 Rounding radius*
0 $2 $3 $4 $5 $6 $7 $8 $9 X,Y pos of 4 corners*
0 Add a 4 corners polygon primitive as box body*
4,1,4,$2,$3,$4,$5,$6,$7,$8,$9,$2,$3,0*
0 Add four circle primitives for the rounded corners*
1,1,$1+$1,$2,$3*
1,1,$1+$1,$4,$5*
1,1,$1+$1,$6,$7*
1,1,$1+$1,$8,$9*
0 Add four rect primitives between the rounded corners*
20,1,$1+$1,$2,$3,$4,$5,0*
20,1,$1+$1,$4,$5,$6,$7,0*
20,1,$1+$1,$6,$7,$8,$9,0*
20,1,$1+$1,$8,$9,$2,$3,0*%
G04 Aperture macros list end*
%TA.AperFunction,SMDPad,CuDef*%
%ADD10R,0.700000X0.700000*%
%TD*%
%TA.AperFunction,SMDPad,CuDef*%
%ADD11RoundRect,0.140000X-0.140000X-0.170000X0.140000X-0.170000X0.140000X0.170000X-0.140000X0.170000X0*%
%TD*%
%TA.AperFunction,ViaPad*%
%ADD12C,0.400000*%
%TD*%
%TA.AperFunction,Conductor*%
%ADD13C,0.250000*%
%TD*%
G04 APERTURE END LIST*
D10*
%TO.P,U1,1,DO*%
%TO.N,/OUT*%
X122915000Y-99450000D03*
%TO.P,U1,2,GND*%
%TO.N,GND*%
X122915000Y-100550000D03*
%TO.P,U1,3,DI*%
%TO.N,/IN*%
X121085000Y-100550000D03*
%TO.P,U1,4,VDD*%
%TO.N,VCC*%
X121085000Y-99450000D03*
%TD*%
D11*
%TO.P,C1,1*%
%TO.N,VCC*%
X121500000Y-98220000D03*
%TO.P,C1,2*%
%TO.N,GND*%
X122460000Y-98220000D03*
%TD*%
D12*
%TO.N,GND*%
X123720000Y-101350000D03*
%TO.N,/OUT*%
X122000000Y-100000000D03*
%TO.N,/IN*%
X122000000Y-100902500D03*
%TO.N,VCC*%
X120500000Y-99510000D03*
%TD*%
D13*
%TO.N,/OUT*%
X122000000Y-100000000D02*
X122550000Y-99450000D01*
X122550000Y-99450000D02*
X122915000Y-99450000D01*
%TO.N,/IN*%
X121085000Y-100550000D02*
X121647500Y-100550000D01*
X121647500Y-100550000D02*
X122000000Y-100902500D01*
%TO.N,GND*%
X123589511Y-100299511D02*
X123589511Y-100149511D01*
X123589511Y-100149511D02*
X123589511Y-98929511D01*
X122915000Y-100550000D02*
X123189022Y-100550000D01*
X123189022Y-100550000D02*
X123589511Y-100149511D01*
X123589511Y-100299511D02*
X123589511Y-101219511D01*
X123589511Y-101219511D02*
X123720000Y-101350000D01*
X123589511Y-98929511D02*
X122880000Y-98220000D01*
X122880000Y-98220000D02*
X122460000Y-98220000D01*
%TO.N,VCC*%
X121085000Y-99450000D02*
X121085000Y-98635000D01*
X121085000Y-98635000D02*
X121500000Y-98220000D01*
X121085000Y-99450000D02*
X120560000Y-99450000D01*
X120560000Y-99450000D02*
X120500000Y-99510000D01*
%TD*%
M02*
