%FSLAX45Y45*%
G04 Gerber Fmt 4.5, Leading zero omitted, Abs format (unit mm)*
G04 Created by KiCad (PCBNEW 6.0.5-a6ca702e91~116~ubuntu20.04.1) date 2022-06-30 21:31:32*
%MOMM*%
%LPD*%
G01*
G04 APERTURE LIST*
%TA.AperFunction,Profile*%
%ADD10C,0.100000*%
%TD*%
%ADD11C,0.200000*%
G04 APERTURE END LIST*
D10*
X12450000Y-10000000D02*
G75*
G03*
X12450000Y-10000000I-250000J0D01*
G01*
D11*
X12202619Y-10565476D02*
X12202619Y-10365476D01*
X12250238Y-10365476D01*
X12278809Y-10375000D01*
X12297857Y-10394048D01*
X12307381Y-10413095D01*
X12316905Y-10451190D01*
X12316905Y-10479762D01*
X12307381Y-10517857D01*
X12297857Y-10536905D01*
X12278809Y-10555952D01*
X12250238Y-10565476D01*
X12202619Y-10565476D01*
X12402619Y-10565476D02*
X12402619Y-10432143D01*
X12402619Y-10470238D02*
X12412143Y-10451190D01*
X12421667Y-10441667D01*
X12440714Y-10432143D01*
X12459762Y-10432143D01*
X12526428Y-10565476D02*
X12526428Y-10432143D01*
X12526428Y-10365476D02*
X12516905Y-10375000D01*
X12526428Y-10384524D01*
X12535952Y-10375000D01*
X12526428Y-10365476D01*
X12526428Y-10384524D01*
X12650238Y-10565476D02*
X12631190Y-10555952D01*
X12621667Y-10536905D01*
X12621667Y-10365476D01*
X12755000Y-10565476D02*
X12735952Y-10555952D01*
X12726428Y-10536905D01*
X12726428Y-10365476D01*
X12983571Y-10565476D02*
X12983571Y-10365476D01*
X13050238Y-10508333D01*
X13116905Y-10365476D01*
X13116905Y-10565476D01*
X13297857Y-10565476D02*
X13297857Y-10460714D01*
X13288333Y-10441667D01*
X13269286Y-10432143D01*
X13231190Y-10432143D01*
X13212143Y-10441667D01*
X13297857Y-10555952D02*
X13278809Y-10565476D01*
X13231190Y-10565476D01*
X13212143Y-10555952D01*
X13202619Y-10536905D01*
X13202619Y-10517857D01*
X13212143Y-10498810D01*
X13231190Y-10489286D01*
X13278809Y-10489286D01*
X13297857Y-10479762D01*
X13393095Y-10432143D02*
X13393095Y-10632143D01*
X13393095Y-10441667D02*
X13412143Y-10432143D01*
X13450238Y-10432143D01*
X13469286Y-10441667D01*
X13478809Y-10451190D01*
X13488333Y-10470238D01*
X13488333Y-10527381D01*
X13478809Y-10546429D01*
X13469286Y-10555952D01*
X13450238Y-10565476D01*
X13412143Y-10565476D01*
X13393095Y-10555952D01*
X13574048Y-10546429D02*
X13583571Y-10555952D01*
X13574048Y-10565476D01*
X13564524Y-10555952D01*
X13574048Y-10546429D01*
X13574048Y-10565476D01*
X13574048Y-10441667D02*
X13583571Y-10451190D01*
X13574048Y-10460714D01*
X13564524Y-10451190D01*
X13574048Y-10441667D01*
X13574048Y-10460714D01*
M02*
