%FSLAX45Y45*%
G04 Gerber Fmt 4.5, Leading zero omitted, Abs format (unit mm)*
G04 Created by KiCad (PCBNEW 6.0.5-a6ca702e91~116~ubuntu20.04.1) date 2022-06-30 21:31:32*
%MOMM*%
%LPD*%
G01*
G04 APERTURE LIST*
%TA.AperFunction,Profile*%
%ADD10C,0.100000*%
%TD*%
%ADD11C,0.200000*%
%ADD12C,0.030000*%
G04 APERTURE END LIST*
D10*
X12450000Y-10000000D02*
G75*
G03*
X12450000Y-10000000I-250000J0D01*
G01*
D11*
D12*
X12035000Y-9936000D02*
X12065000Y-9966000D01*
X12065000Y-9936000D02*
X12035000Y-9966000D01*
X12185000Y-9985000D02*
X12215000Y-10015000D01*
X12215000Y-9985000D02*
X12185000Y-10015000D01*
X12185000Y-10075250D02*
X12215000Y-10105250D01*
X12215000Y-10075250D02*
X12185000Y-10105250D01*
X12357000Y-10120000D02*
X12387000Y-10150000D01*
X12387000Y-10120000D02*
X12357000Y-10150000D01*
D11*
X12202619Y-10565476D02*
X12202619Y-10365476D01*
X12250238Y-10365476D01*
X12278809Y-10375000D01*
X12297857Y-10394048D01*
X12307381Y-10413095D01*
X12316905Y-10451190D01*
X12316905Y-10479762D01*
X12307381Y-10517857D01*
X12297857Y-10536905D01*
X12278809Y-10555952D01*
X12250238Y-10565476D01*
X12202619Y-10565476D01*
X12402619Y-10565476D02*
X12402619Y-10432143D01*
X12402619Y-10470238D02*
X12412143Y-10451190D01*
X12421667Y-10441667D01*
X12440714Y-10432143D01*
X12459762Y-10432143D01*
X12526428Y-10565476D02*
X12526428Y-10432143D01*
X12526428Y-10365476D02*
X12516905Y-10375000D01*
X12526428Y-10384524D01*
X12535952Y-10375000D01*
X12526428Y-10365476D01*
X12526428Y-10384524D01*
X12650238Y-10565476D02*
X12631190Y-10555952D01*
X12621667Y-10536905D01*
X12621667Y-10365476D01*
X12755000Y-10565476D02*
X12735952Y-10555952D01*
X12726428Y-10536905D01*
X12726428Y-10365476D01*
X12983571Y-10565476D02*
X12983571Y-10365476D01*
X13050238Y-10508333D01*
X13116905Y-10365476D01*
X13116905Y-10565476D01*
X13297857Y-10565476D02*
X13297857Y-10460714D01*
X13288333Y-10441667D01*
X13269286Y-10432143D01*
X13231190Y-10432143D01*
X13212143Y-10441667D01*
X13297857Y-10555952D02*
X13278809Y-10565476D01*
X13231190Y-10565476D01*
X13212143Y-10555952D01*
X13202619Y-10536905D01*
X13202619Y-10517857D01*
X13212143Y-10498810D01*
X13231190Y-10489286D01*
X13278809Y-10489286D01*
X13297857Y-10479762D01*
X13393095Y-10432143D02*
X13393095Y-10632143D01*
X13393095Y-10441667D02*
X13412143Y-10432143D01*
X13450238Y-10432143D01*
X13469286Y-10441667D01*
X13478809Y-10451190D01*
X13488333Y-10470238D01*
X13488333Y-10527381D01*
X13478809Y-10546429D01*
X13469286Y-10555952D01*
X13450238Y-10565476D01*
X13412143Y-10565476D01*
X13393095Y-10555952D01*
X13574048Y-10546429D02*
X13583571Y-10555952D01*
X13574048Y-10565476D01*
X13564524Y-10555952D01*
X13574048Y-10546429D01*
X13574048Y-10565476D01*
X13574048Y-10441667D02*
X13583571Y-10451190D01*
X13574048Y-10460714D01*
X13564524Y-10451190D01*
X13574048Y-10441667D01*
X13574048Y-10460714D01*
D12*
X11915000Y-10880000D02*
X11945000Y-10910000D01*
X11945000Y-10880000D02*
X11915000Y-10910000D01*
D11*
X12240714Y-10785476D02*
X12259762Y-10785476D01*
X12278809Y-10795000D01*
X12288333Y-10804524D01*
X12297857Y-10823571D01*
X12307381Y-10861667D01*
X12307381Y-10909286D01*
X12297857Y-10947381D01*
X12288333Y-10966429D01*
X12278809Y-10975952D01*
X12259762Y-10985476D01*
X12240714Y-10985476D01*
X12221667Y-10975952D01*
X12212143Y-10966429D01*
X12202619Y-10947381D01*
X12193095Y-10909286D01*
X12193095Y-10861667D01*
X12202619Y-10823571D01*
X12212143Y-10804524D01*
X12221667Y-10795000D01*
X12240714Y-10785476D01*
X12393095Y-10966429D02*
X12402619Y-10975952D01*
X12393095Y-10985476D01*
X12383571Y-10975952D01*
X12393095Y-10966429D01*
X12393095Y-10985476D01*
X12469286Y-10785476D02*
X12593095Y-10785476D01*
X12526428Y-10861667D01*
X12555000Y-10861667D01*
X12574048Y-10871190D01*
X12583571Y-10880714D01*
X12593095Y-10899762D01*
X12593095Y-10947381D01*
X12583571Y-10966429D01*
X12574048Y-10975952D01*
X12555000Y-10985476D01*
X12497857Y-10985476D01*
X12478809Y-10975952D01*
X12469286Y-10966429D01*
X12716905Y-10785476D02*
X12735952Y-10785476D01*
X12755000Y-10795000D01*
X12764524Y-10804524D01*
X12774048Y-10823571D01*
X12783571Y-10861667D01*
X12783571Y-10909286D01*
X12774048Y-10947381D01*
X12764524Y-10966429D01*
X12755000Y-10975952D01*
X12735952Y-10985476D01*
X12716905Y-10985476D01*
X12697857Y-10975952D01*
X12688333Y-10966429D01*
X12678809Y-10947381D01*
X12669286Y-10909286D01*
X12669286Y-10861667D01*
X12678809Y-10823571D01*
X12688333Y-10804524D01*
X12697857Y-10795000D01*
X12716905Y-10785476D01*
X12907381Y-10785476D02*
X12926428Y-10785476D01*
X12945476Y-10795000D01*
X12955000Y-10804524D01*
X12964524Y-10823571D01*
X12974048Y-10861667D01*
X12974048Y-10909286D01*
X12964524Y-10947381D01*
X12955000Y-10966429D01*
X12945476Y-10975952D01*
X12926428Y-10985476D01*
X12907381Y-10985476D01*
X12888333Y-10975952D01*
X12878809Y-10966429D01*
X12869286Y-10947381D01*
X12859762Y-10909286D01*
X12859762Y-10861667D01*
X12869286Y-10823571D01*
X12878809Y-10804524D01*
X12888333Y-10795000D01*
X12907381Y-10785476D01*
X13059762Y-10985476D02*
X13059762Y-10852143D01*
X13059762Y-10871190D02*
X13069286Y-10861667D01*
X13088333Y-10852143D01*
X13116905Y-10852143D01*
X13135952Y-10861667D01*
X13145476Y-10880714D01*
X13145476Y-10985476D01*
X13145476Y-10880714D02*
X13155000Y-10861667D01*
X13174048Y-10852143D01*
X13202619Y-10852143D01*
X13221667Y-10861667D01*
X13231190Y-10880714D01*
X13231190Y-10985476D01*
X13326428Y-10985476D02*
X13326428Y-10852143D01*
X13326428Y-10871190D02*
X13335952Y-10861667D01*
X13355000Y-10852143D01*
X13383571Y-10852143D01*
X13402619Y-10861667D01*
X13412143Y-10880714D01*
X13412143Y-10985476D01*
X13412143Y-10880714D02*
X13421667Y-10861667D01*
X13440714Y-10852143D01*
X13469286Y-10852143D01*
X13488333Y-10861667D01*
X13497857Y-10880714D01*
X13497857Y-10985476D01*
X13888333Y-10775952D02*
X13716905Y-11033095D01*
X14145476Y-10785476D02*
X14164524Y-10785476D01*
X14183571Y-10795000D01*
X14193095Y-10804524D01*
X14202619Y-10823571D01*
X14212143Y-10861667D01*
X14212143Y-10909286D01*
X14202619Y-10947381D01*
X14193095Y-10966429D01*
X14183571Y-10975952D01*
X14164524Y-10985476D01*
X14145476Y-10985476D01*
X14126428Y-10975952D01*
X14116905Y-10966429D01*
X14107381Y-10947381D01*
X14097857Y-10909286D01*
X14097857Y-10861667D01*
X14107381Y-10823571D01*
X14116905Y-10804524D01*
X14126428Y-10795000D01*
X14145476Y-10785476D01*
X14297857Y-10966429D02*
X14307381Y-10975952D01*
X14297857Y-10985476D01*
X14288333Y-10975952D01*
X14297857Y-10966429D01*
X14297857Y-10985476D01*
X14431190Y-10785476D02*
X14450238Y-10785476D01*
X14469286Y-10795000D01*
X14478809Y-10804524D01*
X14488333Y-10823571D01*
X14497857Y-10861667D01*
X14497857Y-10909286D01*
X14488333Y-10947381D01*
X14478809Y-10966429D01*
X14469286Y-10975952D01*
X14450238Y-10985476D01*
X14431190Y-10985476D01*
X14412143Y-10975952D01*
X14402619Y-10966429D01*
X14393095Y-10947381D01*
X14383571Y-10909286D01*
X14383571Y-10861667D01*
X14393095Y-10823571D01*
X14402619Y-10804524D01*
X14412143Y-10795000D01*
X14431190Y-10785476D01*
X14688333Y-10985476D02*
X14574048Y-10985476D01*
X14631190Y-10985476D02*
X14631190Y-10785476D01*
X14612143Y-10814048D01*
X14593095Y-10833095D01*
X14574048Y-10842619D01*
X14878809Y-10985476D02*
X14764524Y-10985476D01*
X14821667Y-10985476D02*
X14821667Y-10785476D01*
X14802619Y-10814048D01*
X14783571Y-10833095D01*
X14764524Y-10842619D01*
X14993095Y-10871190D02*
X14974048Y-10861667D01*
X14964524Y-10852143D01*
X14955000Y-10833095D01*
X14955000Y-10823571D01*
X14964524Y-10804524D01*
X14974048Y-10795000D01*
X14993095Y-10785476D01*
X15031190Y-10785476D01*
X15050238Y-10795000D01*
X15059762Y-10804524D01*
X15069286Y-10823571D01*
X15069286Y-10833095D01*
X15059762Y-10852143D01*
X15050238Y-10861667D01*
X15031190Y-10871190D01*
X14993095Y-10871190D01*
X14974048Y-10880714D01*
X14964524Y-10890238D01*
X14955000Y-10909286D01*
X14955000Y-10947381D01*
X14964524Y-10966429D01*
X14974048Y-10975952D01*
X14993095Y-10985476D01*
X15031190Y-10985476D01*
X15050238Y-10975952D01*
X15059762Y-10966429D01*
X15069286Y-10947381D01*
X15069286Y-10909286D01*
X15059762Y-10890238D01*
X15050238Y-10880714D01*
X15031190Y-10871190D01*
X15145476Y-10785476D02*
X15145476Y-10823571D01*
X15221667Y-10785476D02*
X15221667Y-10823571D01*
X15516905Y-11061667D02*
X15507381Y-11052143D01*
X15488333Y-11023571D01*
X15478809Y-11004524D01*
X15469286Y-10975952D01*
X15459762Y-10928333D01*
X15459762Y-10890238D01*
X15469286Y-10842619D01*
X15478809Y-10814048D01*
X15488333Y-10795000D01*
X15507381Y-10766429D01*
X15516905Y-10756905D01*
X15678809Y-10852143D02*
X15678809Y-10985476D01*
X15631190Y-10775952D02*
X15583571Y-10918810D01*
X15707381Y-10918810D01*
X15935952Y-10985476D02*
X15935952Y-10785476D01*
X16021667Y-10985476D02*
X16021667Y-10880714D01*
X16012143Y-10861667D01*
X15993095Y-10852143D01*
X15964524Y-10852143D01*
X15945476Y-10861667D01*
X15935952Y-10871190D01*
X16145476Y-10985476D02*
X16126428Y-10975952D01*
X16116905Y-10966429D01*
X16107381Y-10947381D01*
X16107381Y-10890238D01*
X16116905Y-10871190D01*
X16126428Y-10861667D01*
X16145476Y-10852143D01*
X16174048Y-10852143D01*
X16193095Y-10861667D01*
X16202619Y-10871190D01*
X16212143Y-10890238D01*
X16212143Y-10947381D01*
X16202619Y-10966429D01*
X16193095Y-10975952D01*
X16174048Y-10985476D01*
X16145476Y-10985476D01*
X16326428Y-10985476D02*
X16307381Y-10975952D01*
X16297857Y-10956905D01*
X16297857Y-10785476D01*
X16478809Y-10975952D02*
X16459762Y-10985476D01*
X16421667Y-10985476D01*
X16402619Y-10975952D01*
X16393095Y-10956905D01*
X16393095Y-10880714D01*
X16402619Y-10861667D01*
X16421667Y-10852143D01*
X16459762Y-10852143D01*
X16478809Y-10861667D01*
X16488333Y-10880714D01*
X16488333Y-10899762D01*
X16393095Y-10918810D01*
X16564524Y-10975952D02*
X16583571Y-10985476D01*
X16621667Y-10985476D01*
X16640714Y-10975952D01*
X16650238Y-10956905D01*
X16650238Y-10947381D01*
X16640714Y-10928333D01*
X16621667Y-10918810D01*
X16593095Y-10918810D01*
X16574048Y-10909286D01*
X16564524Y-10890238D01*
X16564524Y-10880714D01*
X16574048Y-10861667D01*
X16593095Y-10852143D01*
X16621667Y-10852143D01*
X16640714Y-10861667D01*
X16716905Y-11061667D02*
X16726428Y-11052143D01*
X16745476Y-11023571D01*
X16755000Y-11004524D01*
X16764524Y-10975952D01*
X16774048Y-10928333D01*
X16774048Y-10890238D01*
X16764524Y-10842619D01*
X16755000Y-10814048D01*
X16745476Y-10795000D01*
X16726428Y-10766429D01*
X16716905Y-10756905D01*
M02*
